<svg width="508" height="368" viewBox="0 0 508 368" fill="none" xmlns="http://www.w3.org/2000/svg">
<rect width="508" height="368" rx="36" fill="#F1F1F1"/>
<path d="M299 0H469C490.539 0 508 17.4609 508 39V329C508 350.539 490.539 368 469 368H299V0Z" fill="#FFBED2"/>
<path d="M380.443 205H369.486L361.283 190.293L352.611 205H342.123L356.01 182.998L342.797 161.816H353.578L361.283 175.85L369.193 161.816H379.623L366.41 182.646L380.443 205ZM420.463 205H409.506L401.303 190.293L392.631 205H382.143L396.029 182.998L382.816 161.816H393.598L401.303 175.85L409.213 161.816H419.643L406.43 182.646L420.463 205ZM431.654 186.836C431.576 185.859 431.537 184.834 431.537 183.76C431.537 182.822 431.566 181.904 431.625 181.006H423.188L424.418 175.117H432.445C433.266 171.621 434.662 168.691 436.635 166.328C439.584 162.773 443.344 160.996 447.914 160.996C454.008 160.996 458.471 163.379 461.303 168.145C462.865 170.82 463.705 173.506 463.822 176.201H456.234C455.746 174.131 455.111 172.568 454.33 171.514C452.963 169.639 450.922 168.701 448.207 168.701C445.453 168.701 443.275 170.029 441.674 172.686C441.244 173.408 440.873 174.219 440.561 175.117H452.191L450.961 181.006H439.389C439.33 181.924 439.301 182.891 439.301 183.906C439.301 184.941 439.33 185.918 439.389 186.836H450.229L448.998 192.725H440.707C441.02 193.486 441.391 194.18 441.82 194.805C443.5 197.207 445.639 198.408 448.236 198.408C450.893 198.408 452.914 197.373 454.301 195.303C455.082 194.189 455.727 192.52 456.234 190.293H463.734C463.07 195 461.391 198.828 458.695 201.777C456 204.727 452.543 206.201 448.324 206.201C443.109 206.201 439.008 204.209 436.02 200.225C434.457 198.135 433.305 195.635 432.562 192.725H423.188L424.418 186.836H431.654Z" fill="black"/>
<path d="M80.6963 176.027C80.6963 172.481 83.0088 169.783 86.5546 169.783C87.7108 169.706 88.8671 170.092 89.7921 170.708C90.8713 171.479 91.4879 172.713 91.6421 174.023H88.8671C88.7129 172.867 87.6338 172.019 86.4775 172.096C84.3963 172.096 83.3942 173.792 83.3942 176.027C83.3942 178.263 84.5504 179.958 86.4775 179.958C87.7879 180.036 88.8671 179.111 89.0213 177.8H91.7962C91.7192 178.956 91.1796 180.036 90.3317 180.883C89.3296 181.808 87.9421 182.348 86.5546 182.194C83.0088 182.194 80.6963 179.573 80.6963 176.027Z" fill="black"/>
<path d="M95.1873 174.64C95.7269 173.715 96.729 173.175 97.8081 173.175C99.6581 173.175 100.737 174.408 100.737 176.335V181.962H98.2706V176.798C98.3477 176.027 97.8081 175.333 97.0373 175.256C96.9602 175.256 96.8831 175.256 96.806 175.256C95.881 175.256 95.1102 176.027 95.1102 176.952C95.1102 177.029 95.1102 177.029 95.1102 177.106V181.885H92.6436V170.015H95.1873V173.329C95.1873 173.406 95.1873 174.1 95.1873 174.64Z" fill="black"/>
<path d="M107.289 178.879V177.8C106.827 178.031 106.287 178.185 105.825 178.262C104.746 178.494 104.206 178.802 104.206 179.496C104.206 180.267 104.746 180.498 105.439 180.498C106.364 180.575 107.212 179.958 107.289 179.033C107.289 178.956 107.289 178.879 107.289 178.879ZM104.668 169.706H107.135L108.908 172.096H106.75L105.979 170.862L105.208 172.096H102.973L104.668 169.706ZM107.289 180.883C106.75 181.731 105.748 182.194 104.746 182.117C103.05 182.117 101.816 181.192 101.816 179.496C101.816 177.569 103.281 177.106 105.131 176.875C106.673 176.644 107.289 176.412 107.289 175.796C107.289 175.179 106.827 174.794 105.979 174.794C105.131 174.794 104.514 175.256 104.514 175.95H102.125C102.202 174.485 103.358 173.098 105.902 173.098C106.75 173.021 107.598 173.252 108.368 173.637C109.216 174.177 109.756 175.179 109.679 176.181V180.575C109.679 181.269 109.756 181.654 109.987 181.808V181.962H107.521C107.366 181.654 107.289 181.269 107.289 180.883Z" fill="black"/>
<path d="M110.604 173.406H111.915V170.708H114.382V173.406H116V175.025H114.382V179.265C114.382 179.881 114.767 180.112 115.307 180.112C115.461 180.112 115.692 180.112 115.923 180.112H116V181.962C115.538 182.04 114.998 182.117 114.536 182.117C112.917 182.117 111.838 181.577 111.838 179.881V175.102H110.604V173.406Z" fill="black"/>
<path d="M119.16 176.875H122.783C122.706 175.719 122.012 174.948 121.01 174.948C119.854 174.948 119.314 175.719 119.16 176.875ZM116.616 177.723C116.462 175.333 118.312 173.329 120.702 173.175C120.779 173.175 120.933 173.175 121.01 173.175C122.089 173.175 123.168 173.56 123.939 174.254C124.941 175.333 125.404 176.798 125.327 178.339H119.083C119.237 179.65 119.931 180.421 121.164 180.421C121.781 180.498 122.398 180.189 122.706 179.573H125.173C124.71 181.114 123.323 182.271 121.164 182.271C118.775 182.425 116.771 180.575 116.616 178.185C116.616 177.954 116.616 177.8 116.616 177.723Z" fill="black"/>
<path d="M131.493 178.879V177.8C131.031 178.031 130.491 178.185 130.029 178.263C128.95 178.494 128.41 178.802 128.41 179.496C128.41 180.267 128.95 180.498 129.643 180.498C130.568 180.575 131.416 179.958 131.493 179.033C131.493 178.956 131.493 178.956 131.493 178.879ZM131.493 180.883C130.954 181.731 129.952 182.194 128.95 182.117C127.254 182.117 126.021 181.192 126.021 179.496C126.021 177.569 127.485 177.106 129.335 176.875C130.877 176.644 131.493 176.413 131.493 175.796C131.493 175.179 131.108 174.794 130.26 174.794C129.412 174.794 128.795 175.256 128.795 175.95H126.483C126.56 174.485 127.716 173.098 130.26 173.098C131.108 173.021 131.956 173.252 132.727 173.638C133.575 174.177 134.114 175.179 134.037 176.181V180.575C134.037 181.269 134.114 181.654 134.345 181.808V181.963H131.879C131.725 181.654 131.57 181.269 131.493 180.883Z" fill="black"/>
<path d="M140.898 181.962V180.729H140.82C140.281 181.654 139.279 182.271 138.277 182.194C136.35 182.194 135.271 180.96 135.271 179.033V173.406H137.814V178.571C137.814 179.496 138.277 180.035 139.202 180.035C140.127 180.035 140.82 179.265 140.82 178.34C140.82 178.262 140.82 178.262 140.82 178.185V173.329H143.287V181.885H140.898V181.962Z" fill="black"/>
<path d="M87.2476 195.837C87.2476 193.91 86.0913 192.369 84.7038 192.369C84.2413 192.369 83.7017 192.6 83.3934 192.908C82.7768 193.525 82.6226 194.373 82.6226 196.223C82.6226 198.073 82.9309 198.998 83.7017 199.537C84.0101 199.769 84.3184 199.846 84.7038 199.846C86.2455 199.769 87.3247 198.227 87.2476 195.837ZM85.3205 187.59C86.3226 187.59 87.2476 187.59 88.2496 187.435H88.4809H88.7121V198.535C88.7121 199.306 89.0976 199.692 89.7913 199.692H90.3309V200H88.7892C88.3267 200 87.8642 200.077 87.4017 200.154H87.2476V197.919C87.0163 198.535 86.2455 200.154 84.4726 200.154C82.6997 200.154 80.9268 198.227 80.9268 196.069C80.9268 193.91 82.5455 192.06 84.4726 192.06C85.6288 192.06 86.4767 192.677 87.1705 194.065V189.054C87.2476 188.515 86.7851 187.975 86.2455 187.975C86.1684 187.975 86.1684 187.975 86.0913 187.975H85.2434L85.3205 187.59Z" fill="black"/>
<path d="M96.1129 195.452C96.4984 195.452 96.6525 195.298 96.6525 194.835C96.6525 193.294 95.8817 192.292 94.6484 192.292C93.9546 192.369 93.3379 192.831 93.1067 193.525C92.8755 194.142 92.7213 194.758 92.7984 195.452H96.1129ZM98.2713 197.071C98.1942 197.533 98.04 197.996 97.7317 198.458C97.115 199.538 96.0359 200.154 94.8025 200.231C92.7213 200.231 91.1025 198.381 91.1025 196.069C91.1025 193.833 92.6442 192.06 94.5713 192.06C96.4984 192.06 97.9629 193.602 98.1171 195.838H92.6442C92.6442 197.071 92.6442 199.846 94.9567 199.846C96.4213 199.846 97.5004 198.767 97.8858 197.071H98.2713Z" fill="black"/>
<path d="M113.302 195.452C113.302 196.223 113.148 196.917 112.84 197.61C112.146 199.229 110.604 200.231 108.908 200.385C105.902 200.385 103.358 197.456 103.358 193.987C103.358 189.748 106.365 187.358 108.523 187.358C109.91 187.358 111.221 188.206 111.915 189.439C112.377 188.823 112.763 188.129 112.994 187.358H113.302L113.379 192.985H113.148C112.84 191.367 112.069 189.902 110.99 188.669C110.45 188.052 109.602 187.667 108.754 187.667C106.519 187.667 105.363 189.902 105.363 194.373C105.363 196.839 105.748 198.227 106.827 199.229C107.367 199.769 108.138 200.154 108.908 200.154C110.604 200.077 112.069 199.075 112.763 197.533C112.994 196.917 113.148 196.223 113.225 195.529L113.302 195.452Z" fill="black"/>
<path d="M115.846 189.054C115.846 188.36 115.614 188.052 115.075 188.052H114.458V187.744C115.075 187.744 115.768 187.667 116 187.667L116.925 187.59H117.387C117.387 190.827 117.387 192.985 117.387 194.527C117.387 199.537 117.387 199.383 117.618 199.615C117.773 199.769 118.004 199.769 118.158 199.769H118.775V200.077H114.458V199.846H115.075C115.614 199.846 115.846 199.615 115.846 198.921V189.054Z" fill="black"/>
<path d="M120.702 188.669C120.702 188.206 121.088 187.744 121.627 187.744C122.09 187.744 122.552 188.129 122.552 188.669C122.552 189.208 122.167 189.594 121.627 189.594C121.088 189.594 120.702 189.131 120.702 188.669ZM122.321 192.137C122.321 193.371 122.321 194.681 122.321 195.914C122.321 198.998 122.321 199.152 122.398 199.383C122.475 199.537 122.552 199.769 123.092 199.769H123.708V200.077H119.623V199.846H120.24C120.779 199.846 121.01 199.614 121.01 198.921V193.525C121.01 193.062 120.702 192.754 120.317 192.677C120.24 192.677 120.163 192.677 120.085 192.677H119.546V192.369C120.24 192.369 120.856 192.369 121.165 192.291L122.167 192.137H122.321Z" fill="black"/>
<path d="M125.404 196.685C125.558 197.533 125.944 198.381 126.56 198.998C127.1 199.538 127.871 199.846 128.642 199.846C129.49 199.923 130.183 199.306 130.337 198.458C130.337 197.61 129.798 197.148 128.025 196.608C127.177 196.454 126.406 195.992 125.712 195.452C125.327 195.067 125.173 194.604 125.173 194.065C125.173 192.908 126.098 191.906 127.254 191.906C128.102 191.906 128.565 192.138 129.49 192.908C129.798 192.677 130.029 192.369 130.106 191.983H130.414V195.067H130.183C130.106 194.296 129.798 193.602 129.258 193.063C128.796 192.523 128.102 192.215 127.408 192.215C126.637 192.138 125.867 192.754 125.79 193.525C125.79 193.525 125.79 193.525 125.79 193.602C125.79 194.527 126.946 194.913 127.948 195.144C129.798 195.683 130.954 196.3 130.954 197.842C130.954 199.152 129.952 200.154 128.642 200.154C128.565 200.154 128.565 200.154 128.487 200.154C127.562 200.154 126.715 199.769 126.098 198.998C125.79 199.383 125.558 199.769 125.404 200.154H125.173V196.685H125.404Z" fill="black"/>
<path d="M132.65 196.685C132.804 197.533 133.19 198.381 133.806 198.998C134.346 199.537 135.117 199.846 135.888 199.846C136.736 199.923 137.506 199.306 137.584 198.535C137.584 197.687 137.044 197.225 135.271 196.685C134.423 196.531 133.652 196.069 132.959 195.529C132.573 195.144 132.419 194.681 132.419 194.142C132.419 192.985 133.344 191.983 134.5 191.983C135.348 191.983 135.734 192.215 136.736 192.985C137.044 192.754 137.275 192.446 137.352 192.06H137.661V195.144H137.429C137.352 194.373 137.044 193.679 136.504 193.14C136.042 192.6 135.348 192.292 134.654 192.292C133.884 192.215 133.19 192.831 133.113 193.602C133.113 194.527 134.269 194.912 135.271 195.144C137.121 195.683 138.277 196.3 138.277 197.842C138.277 199.152 137.275 200.154 135.965 200.154C135.888 200.154 135.811 200.154 135.811 200.154C134.886 200.154 134.038 199.769 133.421 198.998C133.113 199.383 132.881 199.769 132.727 200.154H132.496V196.685H132.65Z" fill="black"/>
<path d="M145.908 195.992C145.908 193.525 145.137 192.292 143.595 192.292C142.054 192.292 141.206 193.448 141.206 196.146C141.206 198.613 141.977 199.846 143.518 199.846C145.214 199.846 145.908 198.767 145.908 195.992ZM139.664 196.146C139.664 193.988 141.36 192.138 143.518 192.06C145.754 192.06 147.527 193.91 147.527 196.069C147.527 196.069 147.527 196.069 147.527 196.146C147.527 198.304 145.754 200.077 143.595 200.077C141.437 200 139.664 198.227 139.664 196.146C139.664 196.069 139.664 196.069 139.664 196.146Z" fill="black"/>
<path d="M151.612 194.45C151.92 193.14 153.076 192.215 154.387 192.06C155.004 192.06 155.543 192.292 156.006 192.677C156.622 193.371 156.854 194.296 156.854 195.144V198.767C156.854 199.383 157.085 199.692 157.624 199.692H158.241V200H154.156V199.769H154.772C155.312 199.769 155.543 199.538 155.543 198.844V194.758C155.543 193.217 155.158 192.523 154.156 192.523C152.691 192.523 151.612 194.142 151.612 196.454V198.844C151.612 199.46 151.766 199.769 152.383 199.769H152.999V200.077H148.914V199.846H149.531C150.07 199.846 150.224 199.615 150.224 198.921V193.525C150.224 192.985 149.916 192.754 149.299 192.754H148.837V192.446H149.454C149.608 192.446 150.533 192.369 150.764 192.369L151.304 192.292H151.689L151.612 194.45Z" fill="black"/>
<path d="M61.1941 170.015H52.8691V174.562H61.1941V170.015Z" fill="black"/>
<path d="M61.1941 195.529H52.8691V200.154H61.1941V195.529Z" fill="black"/>
<path d="M46.5479 180.883H42V189.208H46.5479V180.883Z" fill="black"/>
<path d="M72.1396 180.883H67.5146V189.208H72.1396V180.883Z" fill="black"/>
<path d="M49.0559 171.399L43.332 177.121L46.6019 180.392L52.3258 174.669L49.0559 171.399Z" fill="black"/>
<path d="M65.0536 171.339L61.7852 174.611L67.5115 180.331L70.7799 177.058L65.0536 171.339Z" fill="black"/>
<path d="M46.5552 189.785L43.3398 193.001L49.0637 198.724L52.2791 195.507L46.5552 189.785Z" fill="black"/>
<path d="M67.4665 189.827L61.7402 195.547L65.0087 198.82L70.735 193.1L67.4665 189.827Z" fill="black"/>
<path d="M80.541 303.466V302.541H83.0848V303.389C83.0848 304.545 83.6243 305.008 84.4723 305.008C85.3972 305.008 85.7827 304.468 85.7827 303.466V295.141H88.5577V303.62C88.5577 304.623 88.3264 305.393 87.7868 306.01C87.1702 306.781 86.091 307.32 84.6264 307.32C81.8514 307.32 80.541 305.779 80.541 303.466Z" fill="black"/>
<path d="M95.1096 306.01C94.4929 306.781 93.7991 307.243 92.4887 307.243C90.7929 307.243 89.5596 306.318 89.5596 304.623C89.5596 302.696 91.0241 302.233 92.9512 302.002C94.4929 301.771 95.1096 301.539 95.1096 300.923C95.1096 300.306 94.7241 299.921 93.8762 299.921C92.9512 299.921 92.4116 300.383 92.4116 301.077H90.0992C90.1762 299.612 91.3325 298.225 93.8762 298.225C94.9554 298.225 95.7262 298.379 96.3429 298.764C97.1908 299.304 97.6533 300.152 97.6533 301.308V305.702C97.6533 306.396 97.7304 306.781 97.9616 306.858V307.012H95.495C95.2637 306.858 95.1866 306.473 95.1096 306.01ZM95.1866 304.006V302.927C94.8012 303.158 94.2616 303.312 93.7221 303.389C92.6429 303.621 92.1033 303.929 92.1033 304.623C92.1033 305.393 92.6429 305.625 93.3366 305.625C94.4158 305.625 95.1866 304.931 95.1866 304.006Z" fill="black"/>
<path d="M101.352 300.075C101.969 298.918 102.74 298.379 103.742 298.379C103.973 298.379 104.127 298.379 104.282 298.456V300.691H104.204C104.05 300.691 103.819 300.614 103.665 300.614C102.277 300.614 101.429 301.462 101.429 303.081V307.012H98.8857V298.533H101.352V300.075Z" fill="black"/>
<path d="M104.821 302.773C104.821 300.152 106.286 298.225 108.521 298.225C109.678 298.225 110.448 298.764 111.065 299.689C111.065 299.15 110.988 298.456 110.988 297.685V295.141H113.532V307.089H111.142V305.856C110.68 306.935 109.678 307.398 108.521 307.398C106.286 307.32 104.821 305.625 104.821 302.773ZM111.065 302.773C111.065 301.231 110.448 300.152 109.138 300.152C107.982 300.152 107.365 301.231 107.365 302.773C107.365 304.314 107.982 305.316 109.138 305.316C110.371 305.316 111.065 304.314 111.065 302.773Z" fill="black"/>
<path d="M114.92 295.141H117.464V297.377H114.92V295.141ZM114.92 298.533H117.464V307.089H114.92V298.533Z" fill="black"/>
<path d="M121.24 299.844C121.78 298.841 122.705 298.302 123.938 298.302C125.788 298.302 126.944 299.535 126.944 301.462V307.089H124.478V301.925C124.478 301 124.015 300.383 123.013 300.383C122.011 300.383 121.394 301.154 121.394 302.233V307.012H118.851V298.533H121.317L121.24 299.844Z" fill="black"/>
<path d="M127.639 304.391H130.028C130.182 305.162 130.799 305.625 131.724 305.625C132.649 305.625 133.112 305.239 133.112 304.622C133.112 303.852 132.109 303.775 130.876 303.543C129.335 303.235 127.793 302.85 127.793 300.845C127.793 299.072 129.412 298.147 131.416 298.147C133.805 298.147 134.962 299.15 135.193 300.691H132.88C132.726 300.075 132.264 299.766 131.416 299.766C130.645 299.766 130.182 300.075 130.182 300.614C130.182 301.231 131.107 301.385 132.264 301.539C133.805 301.847 135.501 302.233 135.501 304.391C135.501 306.241 133.882 307.166 131.647 307.166C129.257 307.32 127.793 306.164 127.639 304.391Z" fill="black"/>
<path d="M85.3195 312.716C87.0924 312.716 88.1716 312.562 88.1716 312.562C88.3258 312.562 88.3258 312.562 88.4028 312.562H88.6341V323.662C88.6341 324.433 89.0195 324.818 89.7133 324.818H90.2528V325.127H88.7883C88.3258 325.127 87.7091 325.204 87.4008 325.281H87.2466V323.045C86.9383 323.662 86.2445 325.281 84.4716 325.281C82.6216 325.281 80.9258 323.354 80.9258 321.195C80.9258 318.96 82.5445 317.187 84.4716 317.187C85.6278 317.187 86.4758 317.804 87.1695 319.191V314.181C87.1695 313.487 86.7841 313.025 86.0903 313.025H85.2424L85.3195 312.716ZM87.2466 320.964C87.2466 319.037 86.0903 317.496 84.7029 317.496C84.2404 317.496 83.7779 317.65 83.3924 318.035C82.7758 318.652 82.6216 319.5 82.6216 321.35C82.6216 323.2 82.9299 324.125 83.7008 324.664C84.0091 324.895 84.3174 324.973 84.7029 324.973C86.2445 324.895 87.2466 323.354 87.2466 320.964Z" fill="black"/>
<path d="M98.2703 322.12C98.1161 322.814 98.039 323.045 97.7307 323.508C97.037 324.664 95.9578 325.281 94.8015 325.281C92.7203 325.281 91.1016 323.431 91.1016 321.118C91.1016 318.883 92.6432 317.11 94.5703 317.11C96.4203 317.11 97.962 318.652 98.1161 320.887H92.6432C92.6432 322.12 92.6432 324.895 94.9557 324.895C96.4203 324.895 97.5765 323.816 97.962 322.12H98.2703ZM96.0349 320.579C96.4203 320.579 96.5745 320.425 96.5745 319.962C96.5745 318.42 95.8036 317.418 94.6474 317.418C93.9536 317.418 93.4141 317.881 93.1057 318.652C92.8745 319.268 92.7974 319.577 92.7974 320.579H96.0349Z" fill="black"/>
<path d="M99.7341 321.735C99.9654 322.891 100.351 323.585 100.89 324.124C101.43 324.664 102.201 324.972 102.972 324.972C103.897 324.972 104.667 324.356 104.667 323.585C104.667 322.737 104.128 322.274 102.355 321.735C100.736 321.195 100.428 320.964 100.042 320.579C99.657 320.193 99.5029 319.808 99.5029 319.191C99.5029 317.958 100.428 317.033 101.584 317.033C102.432 317.033 102.817 317.264 103.82 318.035C104.205 317.727 104.282 317.572 104.436 317.11H104.745V320.193H104.436C104.205 319.191 103.974 318.652 103.511 318.189C102.972 317.65 102.355 317.341 101.661 317.341C100.736 317.341 100.042 317.881 100.042 318.652C100.042 319.577 101.199 319.962 102.201 320.193C104.051 320.733 105.207 321.349 105.207 322.891C105.207 324.279 104.128 325.204 102.74 325.204C101.892 325.204 101.045 324.818 100.351 324.047C100.042 324.356 100.042 324.433 99.657 325.204H99.4258V321.658L99.7341 321.735Z" fill="black"/>
<path d="M115.151 318.96C115.151 319.885 115.074 320.81 115.074 321.658C115.074 323.97 115.074 324.279 115.383 324.587C115.537 324.741 115.768 324.818 115.999 324.818H117.233V325.127H110.758V324.818H112.299C112.916 324.818 113.224 324.433 113.224 323.739V314.027C113.224 313.333 112.916 312.947 112.299 312.947H110.604V312.639H121.781V317.264H121.472C121.164 314.797 119.545 312.947 117.772 312.947H115.537C115.229 312.947 115.074 313.102 115.074 313.564V318.497H115.999C116.924 318.497 117.772 317.881 118.158 316.956C118.389 316.493 118.389 316.031 118.389 315.183H118.697V322.275H118.389V322.12C118.389 320.116 117.464 318.883 115.999 318.883L115.151 318.96Z" fill="black"/>
<path d="M123.167 321.195C123.167 319.037 125.017 317.033 126.944 317.033C129.179 317.033 130.952 318.883 130.952 321.118C130.952 323.585 128.717 325.281 126.944 325.204C124.863 325.204 123.167 323.354 123.167 321.195ZM129.411 321.118C129.411 318.652 128.64 317.418 127.098 317.418C125.402 317.418 124.709 318.574 124.709 321.272C124.709 323.739 125.479 324.972 127.021 324.972C128.717 324.972 129.411 323.816 129.411 321.118Z" fill="black"/>
<path d="M133.574 314.181C133.574 313.487 133.343 313.179 132.803 313.179H132.109V312.871C132.726 312.871 133.42 312.793 133.651 312.793L134.576 312.716H134.961C134.961 315.954 134.961 318.112 134.961 319.654C134.961 324.664 134.961 324.51 135.193 324.741C135.347 324.818 135.501 324.895 135.732 324.895H136.349V325.204H132.186V324.895H132.803C133.343 324.895 133.574 324.664 133.574 323.97V314.181Z" fill="black"/>
<path d="M140.049 317.264C140.049 318.498 140.049 319.808 140.049 321.041C140.049 324.125 140.049 324.279 140.126 324.51C140.204 324.664 140.281 324.896 140.82 324.896H141.437V325.204H137.351V324.896H137.968C138.508 324.896 138.739 324.664 138.739 323.971V318.575C138.739 318.035 138.431 317.727 137.814 317.727H137.274V317.418C137.968 317.418 138.585 317.418 138.893 317.341L139.895 317.187L140.049 317.264ZM138.431 313.796C138.431 313.333 138.816 312.871 139.356 312.871C139.818 312.871 140.281 313.256 140.281 313.796C140.281 314.258 139.895 314.721 139.356 314.721C138.816 314.643 138.431 314.258 138.431 313.796Z" fill="black"/>
<path d="M149.839 322.12C149.684 322.814 149.607 323.045 149.299 323.508C148.605 324.664 147.526 325.281 146.37 325.281C144.289 325.281 142.67 323.431 142.67 321.118C142.67 318.883 144.212 317.11 146.139 317.11C147.989 317.11 149.53 318.652 149.684 320.887H144.212C144.212 322.12 144.212 324.895 146.524 324.895C147.989 324.895 149.145 323.816 149.53 322.12H149.839ZM147.68 320.579C148.066 320.579 148.22 320.425 148.22 319.962C148.22 318.42 147.449 317.418 146.293 317.418C145.599 317.418 145.059 317.881 144.751 318.652C144.52 319.268 144.443 319.577 144.443 320.579H147.68Z" fill="black"/>
<path d="M151.38 321.735C151.611 322.891 151.996 323.585 152.536 324.124C153.076 324.664 153.846 324.972 154.617 324.972C155.542 324.972 156.313 324.356 156.313 323.585C156.313 322.737 155.773 322.274 154.001 321.735C152.382 321.195 152.073 320.964 151.688 320.579C151.303 320.193 151.148 319.808 151.148 319.191C151.148 317.958 152.073 317.033 153.23 317.033C154.078 317.033 154.463 317.264 155.465 318.035C155.85 317.727 155.928 317.572 156.082 317.11H156.39V320.193H156.159C155.928 319.191 155.696 318.652 155.234 318.189C154.694 317.65 154.078 317.341 153.384 317.341C152.459 317.341 151.765 317.881 151.765 318.652C151.765 319.577 152.921 319.962 153.923 320.193C155.773 320.733 156.93 321.349 156.93 322.891C156.93 324.279 155.85 325.204 154.463 325.204C153.615 325.204 152.767 324.818 152.073 324.047C151.765 324.356 151.765 324.433 151.38 325.204H151.148V321.658L151.38 321.735Z" fill="black"/>
<path d="M162.789 319.577C163.097 321.118 163.945 325.204 167.568 325.204C169.11 325.204 170.189 324.202 170.189 322.814C170.189 321.041 168.03 320.193 166.489 319.577C165.178 319.114 164.253 318.652 163.868 318.266C163.791 318.189 163.637 318.112 163.482 317.958C162.943 317.341 162.557 316.493 162.557 315.8C162.557 313.95 164.022 312.485 165.872 312.485C167.105 312.485 168.03 312.947 169.187 314.181C169.649 313.641 169.88 313.333 170.112 312.639H170.42V317.418H170.112C169.957 316.339 169.803 315.954 169.495 315.26C168.801 313.795 167.491 312.716 165.872 312.716C164.562 312.716 163.405 313.718 163.405 314.875C163.405 316.262 164.87 316.956 166.797 317.65C168.107 318.112 169.032 318.575 169.495 318.96C170.497 319.808 170.96 320.887 170.96 321.966C170.96 324.047 169.418 325.589 167.337 325.589C165.949 325.589 164.639 324.818 163.714 323.431C163.482 323.816 163.174 324.279 162.712 325.435H162.403V319.654H162.789V319.577Z" fill="black"/>
<path d="M175.044 317.264C175.044 318.498 175.044 319.808 175.044 321.041C175.044 324.125 175.044 324.279 175.122 324.51C175.199 324.664 175.276 324.896 175.815 324.896H176.432V325.204H172.269V324.896H172.886C173.426 324.896 173.657 324.664 173.657 323.971V318.575C173.657 318.035 173.349 317.727 172.732 317.727H172.192V317.418C172.886 317.418 173.503 317.418 173.811 317.341L174.813 317.187L175.044 317.264ZM173.426 313.796C173.426 313.333 173.811 312.871 174.351 312.871C174.813 312.871 175.276 313.256 175.276 313.796C175.276 314.258 174.89 314.721 174.351 314.721C173.811 314.643 173.426 314.258 173.426 313.796Z" fill="black"/>
<path d="M180.825 317.958C180.825 319.114 180.825 320.193 180.825 321.35C180.825 324.202 180.825 324.279 180.903 324.51C180.98 324.664 181.057 324.895 181.596 324.895H182.213V325.204H178.05V324.895H178.744C179.284 324.895 179.515 324.664 179.515 323.97V317.958H177.665V317.418H179.438V316.262C179.438 314.875 179.746 314.027 180.363 313.41C180.903 312.87 181.75 312.485 182.675 312.485C183.832 312.485 184.68 313.025 184.68 313.718C184.68 314.258 184.371 314.566 183.909 314.566C183.523 314.566 183.138 314.181 183.138 313.795C183.138 313.487 183.292 313.179 183.755 312.87C183.369 312.716 183.292 312.716 182.907 312.716C182.059 312.716 181.365 313.102 181.057 313.795C180.903 314.104 180.903 314.489 180.903 315.106V317.341H182.598V317.881H180.825V317.958Z" fill="black"/>
<path d="M186.915 317.958C186.915 319.114 186.915 320.193 186.915 321.35C186.915 324.202 186.915 324.279 186.992 324.51C187.07 324.664 187.147 324.895 187.686 324.895H188.303V325.204H184.14V324.895H184.834C185.374 324.895 185.605 324.664 185.605 323.97V317.958H183.832V317.418H185.605V316.262C185.605 314.875 185.913 314.027 186.53 313.41C187.07 312.87 187.917 312.485 188.842 312.485C189.999 312.485 190.847 313.025 190.847 313.718C190.847 314.258 190.538 314.566 190.076 314.566C189.69 314.566 189.305 314.181 189.305 313.795C189.305 313.487 189.459 313.179 189.922 312.87C189.536 312.716 189.459 312.716 189.074 312.716C188.226 312.716 187.532 313.102 187.224 313.795C187.07 314.104 187.07 314.489 187.07 315.106V317.341H188.765V317.881H186.915V317.958Z" fill="black"/>
<path d="M198.324 321.812C198.324 324.124 197.707 325.281 196.551 325.281C195.78 325.281 195.318 324.664 195.087 323.354C194.47 324.741 193.699 325.281 192.466 325.281C191.232 325.281 190.153 324.356 190.153 323.277C190.153 322.814 190.385 322.352 190.693 321.966C191.155 321.504 191.772 321.195 193.082 320.964C194.085 320.733 194.239 320.656 194.855 320.424V319.114C194.855 318.112 194.239 317.572 193.082 317.572C192.312 317.572 191.464 317.958 191.464 318.343C191.464 318.497 191.541 318.574 191.772 318.652C192.157 318.883 192.312 319.114 192.312 319.422C192.312 319.885 191.926 320.193 191.541 320.193C191.078 320.193 190.616 319.731 190.616 319.114C190.616 317.958 191.849 317.033 193.468 317.033C195.318 317.033 196.243 317.881 196.243 319.499V323.199C196.243 324.124 196.474 324.664 196.937 324.664C197.553 324.664 197.862 323.97 197.939 322.197V321.812H198.324ZM195.01 320.733C194.624 320.887 194.47 320.964 193.93 321.118C193.082 321.349 191.695 321.735 191.695 323.277C191.695 324.202 192.235 324.818 192.928 324.818C194.085 324.818 195.01 323.585 195.01 322.197V320.733Z" fill="black"/>
<path d="M201.793 317.264C201.793 318.498 201.793 319.808 201.793 321.041C201.793 324.125 201.793 324.279 201.87 324.51C201.947 324.664 202.024 324.896 202.563 324.896H203.18V325.204H199.095V324.896H199.711C200.251 324.896 200.482 324.664 200.482 323.971V318.575C200.482 318.035 200.174 317.727 199.557 317.727H199.018V317.418C199.711 317.418 200.328 317.418 200.636 317.341L201.638 317.187L201.793 317.264ZM200.174 313.796C200.174 313.333 200.559 312.871 201.099 312.871C201.561 312.871 202.024 313.256 202.024 313.796C202.024 314.258 201.638 314.721 201.099 314.721C200.559 314.643 200.174 314.258 200.174 313.796Z" fill="black"/>
<path d="M204.104 317.65C205.954 317.033 206.494 315.568 206.802 313.872H207.188V317.495H209.732V318.035H207.188V323.508C207.188 324.279 207.65 324.818 208.267 324.818C209.5 324.818 210.117 323.585 210.117 321.041H210.348C210.348 323.045 210.117 324.047 209.423 324.664C209.038 325.05 208.421 325.281 207.804 325.281C206.494 325.281 205.723 324.51 205.723 323.122V318.035H204.104V317.65Z" fill="black"/>
<path d="M64.8937 302.233C64.7395 298.225 61.1166 295.064 57.0312 295.064C52.9458 295.064 49.3229 298.225 49.1687 302.233H42V306.858H53.7166V303.158C53.7166 301.308 55.1812 299.843 57.0312 299.843C58.8812 299.843 60.3458 301.308 60.3458 303.158V306.858H72.0624V302.233H64.8937Z" fill="black"/>
<path d="M60.3458 311.406H42V315.954H60.3458V311.406Z" fill="black"/>
<path d="M46.5479 320.656H42V325.204H46.5479V320.656Z" fill="black"/>
<path d="M67.5916 320.656H53.5625V325.204H67.5916H68.5937H72.0624V311.406H67.5916V320.656Z" fill="black"/>
<path d="M81.1582 107.336H86.1686C89.5603 107.336 91.6415 109.725 91.6415 113.348C91.6415 116.894 89.6373 119.206 86.0144 119.206H81.2353V107.336H81.1582ZM85.7061 116.894C87.7873 116.894 88.7894 115.583 88.7894 113.348C88.7894 111.113 87.7873 109.571 85.7832 109.571H83.8561V116.894H85.7061Z" fill="black"/>
<path d="M92.1816 114.967C92.1816 112.423 93.9546 110.419 96.7295 110.419C99.4275 110.419 101.2 112.346 101.2 114.967C101.2 117.511 99.4275 119.515 96.7295 119.515C94.0316 119.515 92.1816 117.511 92.1816 114.967ZM98.6566 114.967C98.6566 113.348 97.9629 112.269 96.7295 112.269C95.4191 112.269 94.8025 113.348 94.8025 114.967C94.8025 116.586 95.4962 117.665 96.7295 117.665C97.9629 117.665 98.6566 116.586 98.6566 114.967Z" fill="black"/>
<path d="M102.202 110.727H104.592V112.038H104.669C105.208 111.035 106.056 110.496 107.212 110.496C108.369 110.496 109.14 111.035 109.525 112.115C110.219 110.958 111.144 110.496 112.223 110.496C114.15 110.496 115.075 111.729 115.075 113.656V119.206H112.608V113.965C112.608 113.04 112.146 112.5 111.375 112.5C110.45 112.5 109.91 113.271 109.91 114.35V119.206H107.367V113.965C107.367 113.04 106.981 112.5 106.133 112.5C105.285 112.5 104.669 113.271 104.669 114.35V119.206H102.125V110.727H102.202Z" fill="black"/>
<path d="M121.703 118.204C121.087 118.975 120.393 119.438 119.082 119.438C117.387 119.438 116.153 118.513 116.153 116.817C116.153 114.89 117.618 114.427 119.545 114.196C121.087 113.965 121.703 113.733 121.703 113.117C121.703 112.5 121.318 112.115 120.47 112.115C119.545 112.115 119.005 112.577 119.005 113.271H116.693C116.77 111.806 117.926 110.419 120.47 110.419C121.549 110.419 122.32 110.573 122.937 110.958C123.785 111.498 124.247 112.346 124.247 113.502V117.896C124.247 118.59 124.324 118.975 124.555 119.052V119.206H122.089C121.857 119.052 121.703 118.667 121.703 118.204ZM121.703 116.2V115.121C121.318 115.352 120.778 115.506 120.239 115.583C119.16 115.815 118.62 116.123 118.62 116.817C118.62 117.588 119.16 117.819 119.853 117.819C120.932 117.819 121.703 117.125 121.703 116.2Z" fill="black"/>
<path d="M125.481 107.336H128.025V109.571H125.481V107.336ZM125.481 110.727H128.025V119.206H125.481V110.727Z" fill="black"/>
<path d="M131.802 112.038C132.341 111.035 133.266 110.496 134.5 110.496C136.35 110.496 137.506 111.729 137.506 113.656V119.206H135.039V114.042C135.039 113.117 134.577 112.5 133.575 112.5C132.573 112.5 131.956 113.271 131.956 114.35V119.206H129.412V110.727H131.879L131.802 112.038Z" fill="black"/>
<path d="M138.354 114.967C138.354 112.423 140.127 110.419 142.748 110.419C143.982 110.419 144.907 110.804 145.677 111.498C146.602 112.423 147.065 113.888 147.065 115.583H140.821C140.975 116.894 141.669 117.665 142.902 117.665C143.673 117.665 144.213 117.356 144.444 116.817H146.911C146.448 118.358 145.061 119.515 142.902 119.515C140.05 119.515 138.354 117.511 138.354 114.967ZM140.821 114.119H144.444C144.367 112.963 143.673 112.192 142.671 112.192C141.592 112.269 141.052 112.963 140.821 114.119Z" fill="black"/>
<path d="M85.2433 124.911C87.0163 124.911 88.0954 124.756 88.0954 124.756C88.2496 124.756 88.2496 124.756 88.3267 124.756H88.5579V135.856C88.5579 136.627 88.9433 137.013 89.6371 137.013H90.1767V137.321H88.7121C88.2496 137.321 87.6329 137.398 87.3246 137.475H87.1704V135.24C86.8621 135.856 86.1683 137.475 84.3954 137.475C82.5454 137.475 80.8496 135.548 80.8496 133.39C80.8496 131.154 82.4684 129.381 84.3954 129.381C85.5517 129.381 86.3996 129.998 87.0933 131.385V126.375C87.0933 125.681 86.7079 125.219 86.0142 125.219H85.1663L85.2433 124.911ZM87.2475 133.158C87.2475 131.231 86.0913 129.69 84.7038 129.69C84.2413 129.69 83.7788 129.844 83.3933 130.229C82.7767 130.846 82.6225 131.694 82.6225 133.544C82.6225 135.394 82.9308 136.319 83.7017 136.858C84.01 137.09 84.3183 137.167 84.7038 137.167C86.1683 137.09 87.2475 135.471 87.2475 133.158Z" fill="black"/>
<path d="M98.1941 134.315C98.04 135.008 97.9629 135.24 97.6545 135.702C96.9608 136.858 95.8816 137.475 94.7254 137.475C92.6441 137.475 91.0254 135.625 91.0254 133.313C91.0254 131.077 92.5671 129.304 94.4941 129.304C96.3441 129.304 97.8858 130.846 98.0399 133.081H92.5671C92.5671 134.315 92.5671 137.09 94.8795 137.09C96.3441 137.09 97.5004 136.01 97.8858 134.315H98.1941ZM96.0358 132.696C96.4212 132.696 96.5754 132.542 96.5754 132.079C96.5754 130.538 95.8045 129.535 94.6483 129.535C93.9546 129.535 93.415 129.998 93.1066 130.769C92.8754 131.385 92.7983 131.694 92.7983 132.696H96.0358Z" fill="black"/>
<path d="M104.514 126.298C104.514 125.604 104.283 125.296 103.744 125.296H103.05V124.988C103.666 124.988 104.36 124.91 104.591 124.91L105.516 124.833H105.902C105.902 128.071 105.902 130.229 105.902 131.771C105.902 136.781 105.902 136.627 106.133 136.858C106.287 136.935 106.441 137.012 106.673 137.012H107.289V137.321H103.204V137.012H103.821C104.36 137.012 104.591 136.781 104.591 136.087L104.514 126.298Z" fill="black"/>
<path d="M116.925 133.929C116.925 136.242 116.308 137.398 115.152 137.398C114.381 137.398 113.918 136.781 113.687 135.471C113.071 136.858 112.3 137.398 111.066 137.398C109.833 137.398 108.754 136.473 108.754 135.394C108.754 134.931 108.985 134.469 109.293 134.083C109.756 133.621 110.373 133.313 111.683 133.081C112.685 132.85 112.839 132.773 113.456 132.542V131.231C113.456 130.229 112.839 129.69 111.683 129.69C110.912 129.69 110.064 130.075 110.064 130.46C110.064 130.615 110.141 130.692 110.373 130.769C110.758 131 110.912 131.231 110.912 131.54C110.912 132.002 110.527 132.31 110.141 132.31C109.679 132.31 109.216 131.848 109.216 131.231C109.216 130.075 110.45 129.15 112.068 129.15C113.918 129.15 114.843 129.998 114.843 131.617V135.394C114.843 136.319 115.075 136.858 115.537 136.858C116.154 136.858 116.462 136.165 116.539 134.392V134.006L116.925 133.929ZM113.533 132.927C113.148 133.081 112.993 133.158 112.454 133.313C111.606 133.544 110.218 133.929 110.218 135.471C110.218 136.396 110.758 137.012 111.452 137.012C112.608 137.012 113.533 135.779 113.533 134.392V132.927Z" fill="black"/>
<path d="M132.187 137.706C131.955 136.55 131.724 135.702 131.339 135.085C130.26 136.858 129.103 137.706 127.562 137.706C124.71 137.706 122.089 134.7 122.089 131.385C122.089 128.61 124.324 124.679 127.639 124.679C129.026 124.679 130.106 125.296 131.185 126.76C131.57 126.298 131.801 125.758 132.033 124.679H132.341L132.649 130.383H132.341C132.033 129.227 131.955 128.842 131.57 128.148C130.799 126.298 129.566 124.91 127.716 124.91C124.478 124.91 124.247 128.61 124.247 131.694C124.247 135.548 125.326 137.321 127.562 137.321C129.335 137.321 130.722 135.856 130.722 134.006V133.004C130.722 132.619 130.491 132.387 130.106 132.387H128.256V132.079H134.345V132.387H133.189C132.726 132.387 132.495 132.619 132.495 133.081V137.706H132.187Z" fill="black"/>
<path d="M143.673 133.929C143.673 136.242 143.056 137.398 141.9 137.398C141.129 137.398 140.667 136.781 140.435 135.471C139.819 136.858 139.048 137.398 137.814 137.398C136.581 137.398 135.502 136.473 135.502 135.394C135.502 134.931 135.733 134.469 136.042 134.083C136.504 133.621 137.121 133.313 138.431 133.081C139.433 132.85 139.587 132.773 140.204 132.542V131.231C140.204 130.229 139.587 129.69 138.431 129.69C137.66 129.69 136.812 130.075 136.812 130.46C136.812 130.615 136.889 130.692 137.121 130.769C137.506 131 137.66 131.231 137.66 131.54C137.66 132.002 137.275 132.31 136.889 132.31C136.427 132.31 135.964 131.848 135.964 131.231C135.964 130.075 137.198 129.15 138.817 129.15C140.667 129.15 141.592 129.998 141.592 131.617V135.394C141.592 136.319 141.823 136.858 142.285 136.858C142.902 136.858 143.21 136.165 143.287 134.392V134.006L143.673 133.929ZM140.281 132.927C139.896 133.081 139.742 133.158 139.202 133.313C138.354 133.544 136.967 133.929 136.967 135.471C136.967 136.396 137.506 137.012 138.2 137.012C139.356 137.012 140.281 135.779 140.281 134.392V132.927Z" fill="black"/>
<path d="M146.139 130.692C146.139 130.152 145.831 129.844 145.214 129.844H144.675V129.535C145.369 129.535 145.985 129.535 146.294 129.458L147.296 129.304H147.527V131.54C147.989 130.46 148.452 129.381 149.685 129.381C150.533 129.381 151.15 129.998 151.15 130.846C151.15 131.385 150.764 131.848 150.379 131.848C149.916 131.848 149.608 131.463 149.608 131C149.608 130.692 149.762 130.46 149.994 130.229C150.148 130.075 150.225 129.998 150.225 129.921C150.225 129.767 150.071 129.613 149.685 129.613C149.3 129.613 148.914 129.767 148.606 129.998C147.527 131 147.527 132.542 147.45 133.775V136.088C147.45 136.781 147.604 137.013 148.221 137.013H148.837V137.321H144.752V137.013H145.369C145.908 137.013 146.139 136.781 146.139 136.088V130.692Z" fill="black"/>
<path d="M159.012 134.315C158.858 135.008 158.781 135.24 158.473 135.702C157.779 136.858 156.7 137.475 155.544 137.475C153.462 137.475 151.844 135.625 151.844 133.313C151.844 131.077 153.385 129.304 155.312 129.304C157.162 129.304 158.704 130.846 158.858 133.081H153.385C153.385 134.315 153.385 137.09 155.698 137.09C157.162 137.09 158.319 136.01 158.704 134.315H159.012ZM156.777 132.696C157.162 132.696 157.317 132.542 157.317 132.079C157.317 130.538 156.546 129.535 155.39 129.535C154.696 129.535 154.156 129.998 153.848 130.769C153.617 131.385 153.54 131.694 153.54 132.696H156.777Z" fill="black"/>
<path d="M162.79 131.694C163.483 129.69 165.025 129.381 165.565 129.381C166.181 129.381 166.875 129.613 167.183 129.998C167.954 130.769 167.954 131.771 168.031 132.465V136.088C168.031 136.781 168.262 137.013 168.802 137.013H169.419V137.321H165.333V137.013H165.95C166.49 137.013 166.721 136.781 166.721 136.088V132.002C166.721 130.461 166.335 129.767 165.333 129.767C163.869 129.767 162.79 131.386 162.79 133.698V136.088C162.79 136.781 162.944 137.013 163.56 137.013H164.177V137.321H160.092V137.013H160.708C161.248 137.013 161.479 136.781 161.479 136.088V130.692C161.479 130.152 161.171 129.921 160.554 129.921H159.938V129.613H160.554C160.708 129.613 161.633 129.536 161.865 129.536C162.25 129.458 162.404 129.458 162.404 129.458H162.79V131.694Z" fill="black"/>
<path d="M173.119 131.694C173.813 129.69 175.354 129.381 175.894 129.381C176.51 129.381 177.204 129.613 177.513 129.998C178.283 130.769 178.283 131.771 178.36 132.465V136.088C178.36 136.781 178.592 137.013 179.131 137.013H179.748V137.321H175.663V137.013H176.279C176.819 137.013 177.05 136.781 177.05 136.088V132.002C177.05 130.461 176.665 129.767 175.663 129.767C174.198 129.767 173.119 131.386 173.119 133.698V136.088C173.119 136.781 173.273 137.013 173.89 137.013H174.506V137.321H170.421V137.013H171.038C171.577 137.013 171.808 136.781 171.808 136.088V130.692C171.808 130.152 171.5 129.921 170.883 129.921H170.421V129.613H171.038C171.192 129.613 172.117 129.536 172.348 129.536C172.733 129.458 172.888 129.458 172.888 129.458H173.273V131.694H173.119Z" fill="black"/>
<path d="M187.841 134.315C187.686 135.008 187.609 135.24 187.301 135.702C186.607 136.858 185.528 137.475 184.372 137.475C182.291 137.475 180.672 135.625 180.672 133.313C180.672 131.077 182.214 129.304 184.141 129.304C185.991 129.304 187.532 130.846 187.686 133.081H182.291C182.291 134.315 182.291 137.09 184.526 137.09C185.991 137.09 187.147 136.01 187.532 134.315H187.841ZM185.682 132.696C186.068 132.696 186.222 132.542 186.222 132.079C186.222 130.538 185.451 129.535 184.295 129.535C183.601 129.535 183.061 129.998 182.753 130.769C182.522 131.385 182.445 131.694 182.445 132.696H185.682Z" fill="black"/>
<path d="M193.006 137.012H194.548C195.164 137.012 195.395 136.704 195.473 135.933V126.221C195.473 125.527 195.164 125.142 194.548 125.142H193.006V124.833H199.481V125.142H198.248C197.631 125.142 197.323 125.527 197.323 126.221V136.01C197.323 136.627 197.554 136.935 198.093 136.935H199.404C201.485 136.935 203.335 135.085 203.875 132.387H204.106L203.952 137.244H193.006V137.012Z" fill="black"/>
<path d="M212.508 134.315C212.353 135.008 212.276 135.24 211.968 135.702C211.274 136.858 210.195 137.475 209.039 137.475C206.958 137.475 205.339 135.625 205.339 133.313C205.339 131.077 206.881 129.304 208.808 129.304C210.658 129.304 212.199 130.846 212.353 133.081H206.958C206.958 134.315 206.958 137.09 209.193 137.09C210.658 137.09 211.814 136.01 212.199 134.315H212.508ZM210.349 132.696C210.735 132.696 210.889 132.542 210.889 132.079C210.889 130.538 210.118 129.535 208.962 129.535C208.268 129.535 207.728 129.998 207.42 130.769C207.189 131.385 207.112 131.694 207.112 132.696H210.349Z" fill="black"/>
<path d="M216.439 132.002C216.979 130.152 217.904 129.304 219.137 129.304C220.91 129.304 221.295 131.077 221.373 131.617C221.989 130.075 222.914 129.304 224.07 129.304C224.687 129.304 225.227 129.535 225.612 129.921C226.306 130.692 226.383 131.617 226.383 132.233V136.165C226.383 136.858 226.537 137.09 227.154 137.09H227.77V137.398H223.685V137.09H224.302C224.841 137.09 225.072 136.858 225.072 136.165V132.002C225.072 130.538 224.687 129.767 223.762 129.767C222.452 129.767 221.45 131.463 221.45 133.621V136.165C221.45 136.858 221.604 137.09 222.22 137.09H222.837V137.398H218.752V137.09H219.368C219.908 137.09 220.139 136.858 220.139 136.165V132.002C220.139 130.46 219.754 129.767 218.906 129.767C217.518 129.767 216.516 131.848 216.516 134.546V136.165C216.516 136.858 216.67 137.09 217.287 137.09H217.904V137.398H213.818V137.09H214.435C214.975 137.09 215.206 136.858 215.206 136.165V130.769C215.206 130.229 214.898 129.921 214.358 129.921H213.818V129.613H214.512C214.898 129.613 215.977 129.535 216.285 129.381H216.593V132.002H216.439Z" fill="black"/>
<path d="M229.157 133.389C229.157 131.231 231.007 129.227 232.934 129.227C235.17 129.227 236.943 131.077 236.943 133.312C236.943 135.779 234.707 137.475 232.934 137.398C230.853 137.321 229.157 135.548 229.157 133.389ZM235.478 133.312C235.478 130.846 234.707 129.612 233.166 129.612C231.47 129.612 230.776 130.769 230.776 133.467C230.776 135.933 231.547 137.167 233.088 137.167C234.707 137.167 235.478 136.01 235.478 133.312Z" fill="black"/>
<path d="M238.1 129.767C239.95 129.15 240.489 127.685 240.72 125.989H241.106V129.612H243.65V130.152H241.106V135.625C241.106 136.396 241.568 136.935 242.185 136.935C243.418 136.935 244.035 135.702 244.035 133.158H244.266C244.266 135.162 244.035 136.164 243.341 136.781C242.956 137.166 242.339 137.398 241.722 137.398C240.412 137.398 239.641 136.627 239.641 135.239V130.152H238.022V129.767H238.1Z" fill="black"/>
<path d="M49.6312 121.827C47.6271 119.823 46.5479 117.279 46.5479 114.504V107.258H42V114.504C42 116.508 42.3854 118.512 43.2333 120.362C44.0042 122.135 45.0833 123.754 46.4708 125.142C47.3958 126.067 48.475 126.914 49.6312 127.531L42 134.083L45.1604 137.552L54.025 129.535V124.602C52.4062 124.139 50.9416 123.06 49.6312 121.827Z" fill="black"/>
<path d="M70.9058 120.363C71.6766 118.513 72.062 116.508 72.062 114.504V107.336H67.437V114.504C67.437 117.279 66.3579 119.9 64.3537 121.904C63.1204 123.138 61.5787 124.217 59.96 124.679V129.536L68.9787 137.552L72.1391 134.083L64.5849 127.531C65.7412 126.838 66.8204 126.067 67.7454 125.065C69.0558 123.754 70.1349 122.136 70.9058 120.363Z" fill="black"/>
<path d="M80.6963 238.706C80.6963 235.16 83.0088 232.462 86.5546 232.462C87.7108 232.385 88.8671 232.771 89.7921 233.387C90.8713 234.158 91.4879 235.392 91.6421 236.702H88.8671C88.7129 235.546 87.6338 234.698 86.4775 234.775C84.3963 234.775 83.3942 236.471 83.3942 238.706C83.3942 240.942 84.5504 242.637 86.4775 242.637C87.7879 242.714 88.8671 241.789 89.0213 240.479H91.7962C91.7192 241.635 91.1796 242.714 90.3317 243.562C89.3296 244.487 87.9421 245.027 86.5546 244.873C83.0859 244.873 80.6963 242.252 80.6963 238.706Z" fill="black"/>
<path d="M95.1873 237.319C95.7269 236.394 96.729 235.854 97.8081 235.854C99.6581 235.854 100.737 237.087 100.737 239.014V244.641H98.2706V239.477C98.3477 238.706 97.8081 238.012 97.0373 237.935C96.9602 237.935 96.8831 237.935 96.806 237.935C95.881 237.935 95.1102 238.706 95.1102 239.631C95.1102 239.708 95.1102 239.708 95.1102 239.785V244.564H92.6436V232.694H95.1873V236.008C95.1873 236.085 95.1873 236.779 95.1873 237.319Z" fill="black"/>
<path d="M107.289 241.558V240.479C106.827 240.71 106.287 240.864 105.825 240.941C104.746 241.173 104.206 241.481 104.206 242.175C104.206 242.946 104.746 243.177 105.439 243.177C106.364 243.254 107.212 242.637 107.289 241.712C107.289 241.635 107.289 241.558 107.289 241.558ZM104.668 232.385H107.135L108.908 234.775H106.75L105.979 233.541L105.208 234.775H102.973L104.668 232.385ZM107.289 243.562C106.75 244.41 105.748 244.873 104.746 244.796C103.05 244.796 101.816 243.871 101.816 242.175C101.816 240.248 103.281 239.785 105.131 239.554C106.673 239.323 107.289 239.091 107.289 238.475C107.289 237.858 106.827 237.473 105.979 237.473C105.131 237.473 104.514 237.935 104.514 238.629H102.125C102.202 237.164 103.358 235.777 105.902 235.777C106.75 235.7 107.598 235.931 108.368 236.316C109.216 236.856 109.756 237.858 109.679 238.86V243.254C109.679 243.948 109.756 244.333 109.987 244.487V244.641H107.521C107.366 244.333 107.289 243.948 107.289 243.562Z" fill="black"/>
<path d="M110.604 236.085H111.915V233.387H114.382V236.085H116V237.704H114.382V241.944C114.382 242.56 114.767 242.791 115.307 242.791C115.461 242.791 115.692 242.791 115.923 242.791H116V244.641C115.538 244.719 114.998 244.796 114.536 244.796C112.917 244.796 111.838 244.256 111.838 242.56V237.781H110.604V236.085Z" fill="black"/>
<path d="M119.16 239.554H122.783C122.706 238.398 122.012 237.627 121.01 237.627C119.854 237.627 119.314 238.398 119.16 239.554ZM116.616 240.402C116.462 238.012 118.312 236.008 120.702 235.854C120.779 235.854 120.933 235.854 121.01 235.854C122.089 235.854 123.168 236.239 123.939 236.933C124.941 238.012 125.404 239.477 125.327 241.018H119.083C119.237 242.329 119.931 243.1 121.164 243.1C121.781 243.177 122.398 242.868 122.706 242.252H125.173C124.71 243.793 123.323 244.95 121.164 244.95C118.775 245.104 116.771 243.254 116.616 240.864C116.616 240.633 116.616 240.479 116.616 240.402Z" fill="black"/>
<path d="M131.493 241.558V240.479C131.031 240.71 130.491 240.864 130.029 240.941C128.95 241.173 128.41 241.481 128.41 242.175C128.41 242.946 128.95 243.177 129.643 243.177C130.568 243.254 131.416 242.637 131.493 241.712C131.493 241.635 131.493 241.635 131.493 241.558ZM131.493 243.562C130.954 244.41 129.952 244.873 128.95 244.796C127.254 244.796 126.021 243.871 126.021 242.175C126.021 240.248 127.485 239.785 129.335 239.554C130.877 239.323 131.493 239.091 131.493 238.475C131.493 237.858 131.108 237.473 130.26 237.473C129.412 237.473 128.795 237.935 128.795 238.629H126.483C126.56 237.164 127.716 235.777 130.26 235.777C131.108 235.7 131.956 235.931 132.727 236.316C133.575 236.856 134.114 237.858 134.037 238.86V243.254C134.037 243.948 134.114 244.333 134.345 244.487V244.641H131.879C131.725 244.333 131.57 243.948 131.493 243.562Z" fill="black"/>
<path d="M140.898 244.641V243.408H140.82C140.281 244.333 139.279 244.95 138.277 244.873C136.35 244.873 135.271 243.639 135.271 241.712V236.085H137.814V241.25C137.814 242.175 138.277 242.714 139.202 242.714C140.127 242.714 140.82 241.943 140.82 241.018C140.82 240.941 140.82 240.941 140.82 240.864V236.008H143.287V244.564H140.898V244.641Z" fill="black"/>
<path d="M87.2476 258.516C87.2476 256.589 86.0913 255.048 84.7038 255.048C84.2413 255.048 83.7017 255.279 83.3934 255.587C82.7768 256.204 82.6226 257.052 82.6226 258.902C82.6226 260.752 82.9309 261.677 83.7017 262.216C84.0101 262.448 84.3184 262.525 84.7038 262.525C86.2455 262.448 87.3247 260.906 87.2476 258.516ZM85.3205 250.269C86.3226 250.269 87.2476 250.269 88.2496 250.114H88.4809H88.7121V261.214C88.7121 261.985 89.0976 262.371 89.7913 262.371H90.3309V262.679H88.7892C88.3267 262.679 87.8642 262.756 87.4017 262.833H87.2476V260.598C87.0163 261.214 86.2455 262.833 84.4726 262.833C82.6997 262.833 80.9268 260.906 80.9268 258.748C80.9268 256.589 82.5455 254.739 84.4726 254.739C85.6288 254.739 86.4767 255.356 87.1705 256.744V251.733C87.2476 251.194 86.7851 250.654 86.2455 250.654C86.1684 250.654 86.1684 250.654 86.0913 250.654H85.2434L85.3205 250.269Z" fill="black"/>
<path d="M96.1129 258.131C96.4984 258.131 96.6525 257.977 96.6525 257.514C96.6525 255.973 95.8817 254.97 94.6484 254.97C93.9546 255.048 93.3379 255.51 93.1067 256.204C92.8755 256.82 92.7213 257.437 92.7984 258.131H96.1129ZM98.2713 259.75C98.1942 260.212 98.04 260.675 97.7317 261.137C97.115 262.216 96.0359 262.833 94.8025 262.91C92.7213 262.91 91.1025 261.06 91.1025 258.748C91.1025 256.512 92.6442 254.739 94.5713 254.739C96.4984 254.739 97.9629 256.281 98.1171 258.516H92.6442C92.6442 259.75 92.6442 262.525 94.9567 262.525C96.4213 262.525 97.5004 261.445 97.8858 259.75H98.2713Z" fill="black"/>
<path d="M113.302 258.131C113.302 258.902 113.148 259.596 112.84 260.289C112.146 261.908 110.604 262.91 108.908 263.064C105.902 263.064 103.358 260.135 103.358 256.666C103.358 252.427 106.365 250.037 108.523 250.037C109.91 250.037 111.221 250.885 111.915 252.118C112.377 251.502 112.763 250.808 112.994 250.037H113.302L113.379 255.664H113.148C112.84 254.046 112.069 252.581 110.99 251.348C110.45 250.731 109.602 250.346 108.754 250.346C106.519 250.346 105.363 252.581 105.363 257.052C105.363 259.518 105.748 260.906 106.827 261.908C107.367 262.448 108.138 262.833 108.908 262.833C110.604 262.756 112.069 261.754 112.763 260.212C112.994 259.595 113.148 258.902 113.225 258.208L113.302 258.131Z" fill="black"/>
<path d="M122.552 261.523C122.552 262.216 122.783 262.448 123.246 262.448H123.862V262.756H119.854V262.525H120.471C121.01 262.525 121.242 262.294 121.242 261.6V257.36C121.242 256.05 120.702 255.202 119.854 255.202C118.544 255.202 117.464 257.129 117.464 259.596V261.523C117.464 262.216 117.696 262.448 118.235 262.448H118.852V262.756H114.689V262.525H115.306C115.846 262.525 116.077 262.294 116.077 261.6V251.656C116.077 251.116 115.692 250.654 115.152 250.654H115.075H114.767V250.346C115.46 250.346 116.231 250.269 116.925 250.114H117.387V257.206C118.081 255.51 118.852 254.739 120.008 254.739C120.625 254.739 121.164 254.971 121.627 255.433C122.244 256.127 122.552 257.129 122.552 258.054V261.523Z" fill="black"/>
<path d="M130.106 258.285C129.721 258.439 129.413 258.593 129.027 258.67C128.179 258.902 126.792 259.287 126.792 260.829C126.792 261.754 127.331 262.37 128.025 262.37C129.104 262.37 130.106 261.137 130.106 259.75V258.285ZM128.333 250.808H129.721L131.571 253.506H131.185L128.95 251.733L126.715 253.506H126.329L128.333 250.808ZM133.421 259.364C133.421 261.677 132.804 262.833 131.648 262.833C130.877 262.833 130.415 262.216 130.183 260.906C129.567 262.293 128.796 262.833 127.64 262.833C126.483 262.91 125.404 261.985 125.327 260.829C125.327 260.366 125.558 259.904 125.867 259.518C126.56 258.902 127.408 258.593 128.333 258.439C128.95 258.285 129.567 258.131 130.106 257.9V256.666C130.106 255.664 129.49 255.125 128.333 255.125C127.563 255.125 126.638 255.51 126.638 255.895C126.638 256.05 126.715 256.127 126.946 256.204C127.408 256.435 127.485 256.666 127.485 256.975C127.485 257.437 127.177 257.745 126.715 257.745C126.175 257.668 125.79 257.206 125.79 256.666C125.79 255.51 127.023 254.585 128.642 254.585C130.492 254.585 131.417 255.433 131.417 257.052V260.52C131.417 261.445 131.648 261.985 132.11 261.985C132.727 261.985 133.035 261.291 133.113 259.518V259.133L133.421 259.364Z" fill="black"/>
<path d="M134.114 255.202C135.964 254.585 136.504 253.121 136.735 251.425H137.12V255.048H139.664V255.587H137.12V261.06C137.12 261.831 137.583 262.37 138.2 262.37C139.433 262.37 140.05 261.137 140.05 258.593H140.281C140.281 260.598 140.05 261.6 139.356 262.216C138.893 262.602 138.354 262.833 137.737 262.833C136.658 262.91 135.733 262.139 135.656 261.06C135.656 260.906 135.656 260.752 135.656 260.675V255.587H134.037L134.114 255.202Z" fill="black"/>
<path d="M146.602 258.131C146.988 258.131 147.142 257.977 147.142 257.514C147.142 255.973 146.371 254.97 145.215 254.97C144.521 254.97 143.904 255.51 143.673 256.204C143.442 256.82 143.288 257.437 143.365 258.131H146.602ZM148.761 259.75C148.683 260.212 148.529 260.675 148.221 261.137C147.604 262.216 146.525 262.833 145.292 262.91C143.211 262.91 141.592 261.06 141.592 258.748C141.592 256.512 143.133 254.739 145.061 254.739C146.988 254.739 148.452 256.281 148.606 258.516H143.133C143.133 259.75 143.133 262.525 145.446 262.525C146.911 262.525 148.067 261.445 148.452 259.75H148.761Z" fill="black"/>
<path d="M154.927 258.285C154.541 258.439 154.233 258.593 153.847 258.671C152.999 258.902 151.612 259.287 151.612 260.829C151.612 261.754 152.152 262.371 152.845 262.371C154.002 262.371 154.927 261.137 154.927 259.75V258.285ZM158.241 259.364C158.241 261.677 157.624 262.833 156.468 262.833C155.697 262.833 155.235 262.216 155.004 260.906C154.387 262.293 153.616 262.833 152.383 262.833C151.227 262.91 150.147 261.985 150.07 260.829C150.07 260.366 150.302 259.904 150.61 259.518C151.304 258.979 152.152 258.593 152.999 258.516C153.616 258.362 154.233 258.208 154.772 257.977V256.666C154.772 255.664 154.156 255.125 152.999 255.125C152.229 255.125 151.381 255.51 151.381 255.896C151.381 256.05 151.458 256.127 151.689 256.204C152.074 256.435 152.229 256.666 152.229 256.975C152.229 257.437 151.92 257.746 151.458 257.746C150.918 257.668 150.533 257.283 150.533 256.743C150.533 255.587 151.766 254.662 153.385 254.662C155.235 254.662 156.16 255.51 156.16 257.129V260.598C156.16 261.523 156.391 262.062 156.854 262.062C157.47 262.062 157.779 261.368 157.856 259.596V259.21L158.241 259.364Z" fill="black"/>
<path d="M158.935 254.97C159.629 254.97 160.323 254.97 160.94 254.816C161.094 254.816 161.248 254.739 161.402 254.739H161.788V260.752C161.788 261.754 162.173 262.293 162.944 262.293C164.254 262.293 165.41 260.52 165.41 258.439V256.05C165.41 255.433 165.102 255.202 164.408 255.202H163.483V254.893H164.563C165.102 254.893 165.565 254.816 166.104 254.739C166.181 254.739 166.258 254.739 166.258 254.739H166.721V261.368C166.721 262.062 167.029 262.37 167.723 262.37H168.108V262.679H166.258C166.258 262.679 166.027 262.679 165.873 262.679H165.41V260.52C164.717 262.062 163.715 262.833 162.558 262.833C161.325 262.833 160.323 261.831 160.4 260.598V260.52V256.05C160.4 255.664 160.015 255.279 159.629 255.279H158.858L158.935 254.97Z" fill="black"/>
<path d="M172.194 258.902C172.194 260.444 172.425 261.291 173.042 261.908C173.427 262.294 173.89 262.525 174.429 262.525C176.356 262.525 176.51 260.289 176.51 258.439C176.51 255.279 175.354 254.971 174.506 254.971C173.119 255.048 172.194 256.589 172.194 258.902ZM170.883 251.656C170.96 251.116 170.498 250.654 169.958 250.654C169.881 250.654 169.804 250.654 169.727 250.654H169.265V250.346C170.113 250.346 170.96 250.269 171.808 250.114H172.194V256.666C172.733 255.356 173.581 254.662 174.583 254.662C176.356 254.662 178.052 256.589 178.052 258.594C178.052 260.829 176.279 262.833 174.429 262.833C173.273 262.833 172.348 262.062 171.654 260.752C171.346 261.369 171.115 262.062 171.038 262.756H170.806L170.883 251.656Z" fill="black"/>
<path d="M181.443 256.127C181.443 255.664 181.135 255.356 180.749 255.279C180.672 255.279 180.595 255.279 180.518 255.279H179.979V254.971C180.672 254.971 181.289 254.971 181.597 254.893L182.599 254.739H182.831V256.821C183.293 255.741 183.756 254.662 184.989 254.662C185.76 254.585 186.453 255.202 186.453 255.973C186.453 256.05 186.453 256.05 186.453 256.127C186.531 256.589 186.145 257.052 185.683 257.129C185.22 257.129 184.912 256.821 184.912 256.358C184.912 256.358 184.912 256.358 184.912 256.281C184.912 255.973 185.066 255.664 185.297 255.51C185.451 255.356 185.528 255.279 185.528 255.202C185.528 255.125 185.374 254.893 184.989 254.893C184.603 254.893 184.218 255.048 183.91 255.279C182.831 256.281 182.831 257.823 182.754 259.056V261.368C182.754 262.062 182.908 262.293 183.524 262.293H184.141V262.602H180.056V262.371H180.749C181.289 262.371 181.52 262.139 181.52 261.446L181.443 256.127Z" fill="black"/>
<path d="M187.995 251.348C187.995 250.885 188.381 250.423 188.92 250.423C189.383 250.423 189.845 250.808 189.845 251.348C189.845 251.887 189.46 252.273 188.92 252.273C188.458 252.273 187.995 251.81 187.995 251.348ZM189.614 254.816C189.614 256.05 189.614 257.36 189.614 258.593C189.614 261.677 189.614 261.831 189.691 262.062C189.768 262.216 189.845 262.448 190.385 262.448H191.001V262.756H186.916V262.525H187.533C188.072 262.525 188.303 262.293 188.303 261.6V256.204C188.303 255.741 187.995 255.433 187.61 255.356C187.533 255.356 187.456 255.356 187.378 255.356H186.839V255.048C187.533 255.048 188.149 255.048 188.458 254.97L189.46 254.816H189.614Z" fill="black"/>
<path d="M197.399 258.285C197.014 258.439 196.705 258.594 196.32 258.671C195.472 258.902 194.085 259.287 194.085 260.829C194.085 261.754 194.624 262.371 195.318 262.371C196.397 262.371 197.399 261.137 197.399 259.75V258.285ZM200.714 259.364C200.714 261.677 200.097 262.833 198.941 262.833C198.17 262.833 197.708 262.216 197.476 260.906C196.86 262.294 196.089 262.833 194.855 262.833C193.699 262.91 192.62 261.985 192.543 260.829C192.543 260.366 192.774 259.904 193.083 259.519C193.776 258.979 194.624 258.594 195.472 258.516C196.089 258.362 196.705 258.208 197.245 257.977V256.666C197.245 255.664 196.628 255.125 195.472 255.125C194.701 255.125 193.853 255.51 193.853 255.896C193.853 256.05 193.93 256.127 194.162 256.204C194.624 256.435 194.701 256.666 194.701 256.975C194.701 257.437 194.393 257.746 193.93 257.746C193.391 257.669 193.005 257.206 193.005 256.666C193.005 255.51 194.239 254.585 195.858 254.585C197.708 254.585 198.633 255.433 198.633 257.052V260.521C198.633 261.446 198.864 261.985 199.326 261.985C199.943 261.985 200.251 261.291 200.328 259.519V259.133L200.714 259.364Z" fill="black"/>
<path d="M204.414 257.129C204.722 255.818 205.878 254.893 207.189 254.739C207.805 254.739 208.345 254.97 208.807 255.356C209.424 256.05 209.655 256.975 209.655 257.823V261.445C209.655 262.062 209.886 262.37 210.349 262.37H210.966V262.679H206.957V262.448H207.574C208.114 262.448 208.345 262.216 208.345 261.523V257.437C208.345 255.895 207.959 255.202 206.957 255.202C205.493 255.202 204.414 256.82 204.414 259.133V261.523C204.414 262.139 204.568 262.448 205.184 262.448H205.801V262.756H201.716V262.525H202.332C202.872 262.525 203.103 262.293 203.103 261.6V256.204C203.103 255.664 202.795 255.433 202.178 255.433H201.562V255.125H202.178C202.332 255.125 203.257 255.048 203.489 255.048L204.028 254.97H204.414V257.129Z" fill="black"/>
<path d="M211.66 255.202C213.51 254.585 214.05 253.121 214.358 251.425H214.743V255.048H217.287V255.587H214.743V261.06C214.743 261.831 215.206 262.37 215.823 262.37C217.056 262.37 217.673 261.137 217.673 258.593H217.904C217.904 260.598 217.673 261.6 216.979 262.216C216.516 262.602 215.977 262.833 215.36 262.833C214.281 262.91 213.356 262.139 213.279 261.06C213.279 260.906 213.279 260.752 213.279 260.675V255.587H211.66V255.202Z" fill="black"/>
<path d="M63.5066 262.756H59.1899V247.571C59.3441 246.414 58.5733 245.412 57.417 245.258C57.2629 245.258 57.1858 245.258 57.0316 245.258C55.8754 245.181 54.8733 246.029 54.8733 247.185C54.8733 247.339 54.8733 247.416 54.8733 247.571V262.756H50.5566V247.493C50.5566 243.948 53.4858 241.018 57.0316 241.018C58.7274 241.018 60.4233 241.712 61.5795 242.946C62.7358 244.179 63.4295 245.798 63.4295 247.493V262.756H63.5066Z" fill="black"/>
<path d="M56.7999 232.616C48.1666 232.616 42 239.4 42 247.648V262.756H46.3167V247.57C46.3167 242.175 50.325 236.702 56.7999 236.702C62.8124 236.779 67.6687 241.558 67.8228 247.57V262.756H72.1395V247.648C72.0624 239.323 65.2791 232.539 56.7999 232.616Z" fill="black"/>
<path d="M81.2471 45.6331H84.716L86.134 50.3427C86.2353 50.6972 86.3365 51.1023 86.4378 51.5581C86.5391 52.0139 86.6404 52.4443 86.7163 52.8748C86.8176 53.3559 86.9189 53.8623 86.9949 54.3687H87.0455C87.1215 53.8623 87.2228 53.3559 87.2987 52.8748C87.3747 52.4443 87.476 52.0139 87.5519 51.5581C87.6532 51.1023 87.7545 50.6972 87.8558 50.3427L89.2484 45.6331H92.768V56.9514H90.3879V51.8873C90.3879 51.5328 90.3879 51.1277 90.4132 50.6466C90.4132 50.1908 90.4638 49.735 90.4638 49.3046C90.4891 48.8235 90.5145 48.3171 90.5651 47.8106H90.5398C90.4385 48.2664 90.3625 48.7475 90.2613 49.2033C90.1853 49.5831 90.084 49.9882 89.9827 50.4187C89.8814 50.8491 89.7802 51.2289 89.6789 51.5581L88.0583 56.9261H85.9314L84.3109 51.5581C84.2096 51.2289 84.1083 50.8491 84.007 50.4187C83.9057 49.9882 83.8045 49.5831 83.7285 49.2033C83.6272 48.7475 83.5259 48.2917 83.45 47.8106H83.4247C83.45 48.3171 83.4753 48.8235 83.5259 49.3046C83.5259 49.735 83.5766 50.1655 83.5766 50.6466C83.5766 51.1023 83.6019 51.5328 83.6019 51.8873V56.9514H81.2724V45.6331H81.2471Z" fill="black"/>
<path d="M99.7558 56.9515V55.7868H99.7052C99.4013 56.2678 99.0722 56.6223 98.6924 56.8249C98.3125 57.0528 97.8315 57.1541 97.2744 57.1541C96.3629 57.1541 95.6539 56.8755 95.1728 56.3438C94.6917 55.8121 94.4385 55.0778 94.4385 54.1915V48.8489H96.8186V53.7358C96.8186 54.1916 96.9199 54.546 97.1478 54.7739C97.3757 55.0271 97.6795 55.1284 98.11 55.1284C98.5404 55.1284 98.9709 54.9765 99.2494 54.6473C99.5279 54.3182 99.6545 53.913 99.6545 53.4066V48.8489H102.009V56.9262H99.7558V56.9515Z" fill="black"/>
<path d="M106.973 57.2048C106.39 57.2048 105.859 57.1288 105.403 57.0022C104.947 56.8756 104.542 56.6731 104.213 56.4452C103.884 56.192 103.63 55.9134 103.428 55.559C103.251 55.2298 103.124 54.85 103.099 54.4448H105.352C105.428 54.8247 105.605 55.1285 105.884 55.3311C106.162 55.5336 106.542 55.6349 106.998 55.6349C107.454 55.6349 107.758 55.559 107.986 55.3817C108.213 55.2298 108.34 55.0019 108.34 54.6981C108.34 54.3942 108.289 54.3689 108.163 54.2676C108.061 54.1663 107.91 54.065 107.707 53.9891C107.504 53.9131 107.302 53.8625 107.049 53.8118C106.795 53.7612 106.542 53.7105 106.238 53.6599C105.884 53.5839 105.529 53.508 105.175 53.4067C104.82 53.3054 104.517 53.1788 104.238 53.0016C103.96 52.8243 103.732 52.5711 103.58 52.2926C103.402 51.9887 103.327 51.6089 103.327 51.1278C103.327 50.6467 103.402 50.3429 103.605 50.039C103.782 49.7352 104.035 49.4567 104.339 49.2541C104.643 49.0515 104.998 48.8743 105.428 48.773C105.833 48.6717 106.289 48.6211 106.77 48.6211C107.884 48.6211 108.745 48.849 109.328 49.2794C109.91 49.7099 110.239 50.2922 110.366 51.0012H108.137C107.986 50.4189 107.53 50.1403 106.77 50.1403C106.011 50.1403 106.112 50.2163 105.884 50.3429C105.656 50.4948 105.555 50.6974 105.555 50.9506C105.555 51.2038 105.605 51.2291 105.707 51.3304C105.808 51.4317 105.96 51.5076 106.137 51.5583C106.314 51.6089 106.542 51.6596 106.77 51.7102C107.023 51.7608 107.277 51.7862 107.555 51.8368C107.91 51.8875 108.289 51.9887 108.644 52.0647C108.998 52.166 109.328 52.3179 109.631 52.4951C109.935 52.6977 110.163 52.9509 110.366 53.2548C110.543 53.5839 110.644 53.9891 110.644 54.4955C110.644 55.0019 110.543 55.3057 110.366 55.6602C110.188 55.9894 109.935 56.2679 109.606 56.4958C109.277 56.7237 108.897 56.8756 108.441 57.0022C107.986 57.1035 107.504 57.1795 106.973 57.1795V57.2048Z" fill="black"/>
<path d="M115.683 57.1795C115.024 57.1795 114.442 57.0782 113.91 56.8503C113.378 56.6224 112.923 56.3439 112.568 55.9387C112.188 55.5589 111.91 55.1032 111.707 54.5967C111.505 54.0903 111.403 53.508 111.403 52.9003C111.403 52.2926 111.505 51.7355 111.707 51.2038C111.91 50.672 112.188 50.2163 112.568 49.8365C112.923 49.4566 113.378 49.1528 113.885 48.9249C114.391 48.697 114.948 48.5957 115.581 48.5957C116.214 48.5957 116.67 48.697 117.151 48.8743C117.607 49.0515 118.012 49.3047 118.367 49.6339C118.822 50.0897 119.151 50.6214 119.379 51.2797C119.582 51.9381 119.683 52.6724 119.683 53.4573H113.783C113.859 54.065 114.062 54.5461 114.391 54.8753C114.72 55.2298 115.176 55.3817 115.733 55.3817C116.29 55.3817 116.417 55.3057 116.645 55.1791C116.873 55.0525 117.075 54.85 117.202 54.5967H119.506C119.405 54.9512 119.253 55.2804 119.025 55.5843C118.797 55.8881 118.544 56.1666 118.215 56.3945C117.885 56.6224 117.531 56.7997 117.1 56.9263C116.67 57.0529 116.214 57.1288 115.683 57.1288V57.1795ZM115.556 50.3175C114.999 50.3175 114.594 50.4695 114.315 50.7986C114.037 51.1278 113.859 51.5583 113.758 52.1153H117.202C117.151 51.5583 116.999 51.1025 116.695 50.7733C116.392 50.4441 116.012 50.2922 115.531 50.2922L115.556 50.3175ZM115.429 45.2028H118.215L116.417 47.6589H114.644L115.455 45.2028H115.429Z" fill="black"/>
<path d="M124.748 57.1793C124.09 57.1793 123.507 57.078 122.976 56.8501C122.444 56.6222 121.988 56.3437 121.634 55.9386C121.254 55.5587 120.975 55.103 120.773 54.5966C120.57 54.0901 120.469 53.5078 120.469 52.9001C120.469 52.2924 120.57 51.7353 120.773 51.2036C120.975 50.6718 121.254 50.2161 121.634 49.8363C121.988 49.4565 122.444 49.1526 122.95 48.9247C123.457 48.6968 124.014 48.5956 124.647 48.5956C125.28 48.5956 125.735 48.6968 126.217 48.8741C126.672 49.0513 127.077 49.3045 127.432 49.6337C127.888 50.0895 128.217 50.6212 128.445 51.2795C128.647 51.9379 128.749 52.6722 128.749 53.4571H122.849C122.925 54.0648 123.127 54.5459 123.457 54.8751C123.786 55.2296 124.242 55.3815 124.799 55.3815C125.356 55.3815 125.482 55.3055 125.71 55.1789C125.938 55.0523 126.141 54.8498 126.267 54.5966H128.571C128.47 54.9511 128.318 55.2802 128.09 55.5841C127.862 55.8879 127.609 56.1664 127.28 56.3943C126.951 56.6222 126.596 56.7995 126.166 56.9261C125.735 57.0527 125.28 57.1286 124.748 57.1286V57.1793ZM124.621 50.3174C124.064 50.3174 123.659 50.4693 123.381 50.7985C123.102 51.1276 122.925 51.5581 122.824 52.1151H126.267C126.217 51.5581 126.065 51.1023 125.761 50.7731C125.457 50.444 125.077 50.292 124.596 50.292L124.621 50.3174Z" fill="black"/>
<path d="M80.6641 63.5601H87.9311C91.476 63.5601 93.4763 66.8264 93.4763 69.08C93.4763 71.3335 92.5901 72.2197 91.7545 73.0553C90.5898 74.2201 89.425 74.9037 87.526 74.9037H80.6894V74.4986H83.2721V64.0158H80.6894V63.5854L80.6641 63.5601ZM85.1965 63.8892V74.5239H87.3994C89.4757 74.5239 91.2228 73.8149 91.2228 69.0547C91.2228 64.2944 90.2606 63.8892 87.5513 63.8892H85.1965Z" fill="black"/>
<path d="M98.9207 66.5987C100.921 66.5987 102.845 68.4218 102.845 70.9286C102.845 73.4353 100.946 75.1318 98.8447 75.1318C96.7431 75.1318 94.9453 73.2074 94.9453 70.9286C94.9453 68.6497 97.0976 66.5987 98.9207 66.5987ZM97.3255 74.119C97.8319 74.6254 98.4142 74.752 98.8953 74.752C99.6296 74.752 100.161 74.4228 100.465 74.119C101.098 73.486 101.149 72.4731 101.149 71.4603C101.149 69.1561 101.149 68.2446 100.415 67.5103C100.237 67.333 99.7562 66.9785 98.9207 66.9785C98.0851 66.9785 97.7053 67.2824 97.4014 67.5862C96.7178 68.2699 96.7178 69.308 96.7178 71.4856C96.7178 73.6632 96.7684 73.5366 97.3761 74.1443L97.3255 74.119Z" fill="black"/>
<path d="M105.251 75.1064V65.1047C105.251 64.2438 104.567 64.0159 103.808 64.0159V63.5348L106.745 63.4082V68.3711C107.201 67.1304 108.213 66.5733 109.176 66.5733C110.999 66.5733 112.847 68.4217 112.847 70.7765C112.847 73.1314 110.999 75.0304 108.948 75.0304C106.897 75.0304 106.745 74.2202 106.314 73.2326C105.96 73.7137 105.732 74.4734 105.656 75.0811H105.251V75.1064ZM107.656 67.5861C106.846 68.3964 106.77 69.4092 106.77 70.574C106.77 72.7769 106.897 73.5871 107.504 74.1948C107.884 74.5746 108.315 74.7266 108.821 74.7266C111.049 74.7266 111.049 72.0679 111.049 70.9538C111.049 69.8397 111.049 68.3457 110.264 67.5355C109.91 67.181 109.53 66.9784 108.998 66.9784C108.467 66.9784 108.061 67.181 107.656 67.5861Z" fill="black"/>
<path d="M116.67 69.1558C117.152 66.9783 118.266 66.7504 118.772 66.7504C119.76 66.7504 120.139 67.51 120.139 68.0164C120.139 68.5228 119.81 69.1305 119.253 69.1305C118.696 69.1305 118.392 68.8267 118.392 68.2443C118.392 67.6619 118.772 67.51 118.772 67.3581C118.772 67.2061 118.721 67.1302 118.57 67.1302C117.43 67.1302 116.797 69.0799 116.797 71.1815V74.3972H118.443V74.853H114.037V74.3972H115.328V68.7254C115.328 67.9151 114.898 67.4847 114.037 67.434V66.9783L116.67 66.8516V69.1305V69.1558Z" fill="black"/>
<path d="M127.963 72.4729C127.912 73.03 127.102 75.1316 124.646 75.1316C122.19 75.1316 120.949 72.5489 120.949 70.8018C120.949 69.0546 122.443 66.5985 124.494 66.5985C126.545 66.5985 127.836 68.2444 127.988 70.6498H122.671V71.3841C122.671 73.3845 123.355 74.4733 124.874 74.4733C126.393 74.4733 127.077 73.739 127.305 72.4729H127.988H127.963ZM126.241 69.2066C126.241 68.3963 126.14 66.9277 124.519 66.9277C122.899 66.9277 122.671 68.3203 122.671 70.0928H126.241V69.2066ZM123.861 65.5097L125.203 64.2943C125.735 63.8133 126.064 63.6107 126.343 63.6107C126.621 63.6107 126.849 63.8386 126.849 64.0918C126.849 64.345 126.722 64.4969 126.393 64.6235L123.912 65.611L123.836 65.5097H123.861Z" fill="black"/>
<path d="M136.016 72.4731C135.965 73.0302 135.155 75.1318 132.699 75.1318C130.243 75.1318 129.002 72.5491 129.002 70.8019C129.002 69.0548 130.496 66.5987 132.547 66.5987C134.598 66.5987 135.889 68.2445 136.041 70.65H130.724V71.3843C130.724 73.3846 131.407 74.4734 132.927 74.4734C134.446 74.4734 135.13 73.7391 135.357 72.4731H136.041H136.016ZM134.294 69.2067C134.294 68.3965 134.193 66.9279 132.572 66.9279C130.952 66.9279 130.724 68.3205 130.724 70.093H134.294V69.2067Z" fill="black"/>
<path fill-rule="evenodd" clip-rule="evenodd" d="M42 45H57.0911C65.4523 45 72.2076 51.7843 72.2076 60.1165C72.2076 68.4776 65.4233 75.2329 57.0911 75.2329H48.6087V51.9379H51.6472V72.1945H57.0911C63.7489 72.1945 69.1691 66.7958 69.1691 60.1165C69.1691 53.4588 63.7705 48.0385 57.0911 48.0385H45.0385V75.2583H42V45Z" fill="black"/>
<path fill-rule="evenodd" clip-rule="evenodd" d="M57.192 54.799H55.9766V51.7605H57.192C61.8291 51.7605 65.5984 55.5298 65.5984 60.167C65.5984 64.8041 61.8291 68.5734 57.192 68.5734H55.9766V65.535H57.192C60.151 65.535 62.56 63.126 62.56 60.167C62.56 57.2079 60.151 54.799 57.192 54.799Z" fill="black"/>
</svg>
