<?xml version="1.0" encoding="utf-8"?>
<!-- Generator: Adobe Illustrator 25.2.3, SVG Export Plug-In . SVG Version: 6.00 Build 0)  -->
<svg version="1.1" id="Calque_1" xmlns="http://www.w3.org/2000/svg" xmlns:xlink="http://www.w3.org/1999/xlink" x="0px" y="0px"
	 viewBox="0 0 265 61.9" style="enable-background:new 0 0 265 61.9;" xml:space="preserve">
<style type="text/css">
	.st0{clip-path:url(#SVGID_2_);fill:#004461;}
	.st1{clip-path:url(#SVGID_2_);fill:#AFCA00;}
	.st2{clip-path:url(#SVGID_2_);fill:#FFFFFF;}
	.st3{enable-background:new    ;}
</style>
<g>
	<defs>
		<rect id="SVGID_1_" y="0" width="121.9" height="61.9"/>
	</defs>
	<clipPath id="SVGID_2_">
		<use xlink:href="#SVGID_1_"  style="overflow:visible;"/>
	</clipPath>
	<path id="Tracé_695" class="st0" d="M59.2,13.4c-0.5-0.3-1.1-0.4-1.7-0.4c-0.8,0-1.6,0.3-2.2,1c-0.6,0.6-0.9,1.4-0.8,2.2v0.4
		L59.2,13.4z"/>
	<path id="Tracé_696" class="st0" d="M109.1,32.1c-0.5-0.3-1.1-0.4-1.7-0.4c-0.8,0-1.6,0.3-2.2,1c-0.6,0.6-0.9,1.4-0.8,2.2v0.4
		L109.1,32.1z"/>
	<path id="Tracé_697" class="st0" d="M34.5,19.1c0.8,0,1.6-0.3,2.2-0.8c0.6-0.6,0.9-1.4,1-2.2c0-0.8-0.3-1.6-1-2.2
		c-0.6-0.6-1.4-0.9-2.2-1c-1.7,0-3.1,1.4-3,3.1c0,0,0,0.1,0,0.1c0,0.8,0.3,1.6,0.8,2.2C32.9,18.8,33.6,19.1,34.5,19.1z"/>
	<path id="Tracé_698" class="st0" d="M83.9,31.6c-1.7,0-3.1,1.4-3,3.1c0,0,0,0.1,0,0.1c0,0.8,0.3,1.6,0.8,2.2
		c0.6,0.6,1.4,0.9,2.2,0.8c0.8,0,1.6-0.3,2.2-0.8c0.6-0.6,0.9-1.4,1-2.2C87,33,85.6,31.6,83.9,31.6z"/>
	<path id="Tracé_699" class="st0" d="M49.1,37.7c0.8,0,1.6-0.3,2.2-0.8c0.6-0.6,0.9-1.4,1-2.2c0-0.8-0.3-1.6-1-2.2
		c-0.6-0.6-1.4-0.9-2.2-1c-1.7,0-3.1,1.4-3,3.1c0,0,0,0.1,0,0.1c0,0.8,0.3,1.6,0.8,2.2C47.5,37.4,48.3,37.7,49.1,37.7z"/>
	<path id="Tracé_700" class="st0" d="M86.9,45.4v-6.1c-0.9,0.7-2,1.1-3.2,1.1c-1.5,0-2.9-0.6-3.9-1.7c-2.2-2.2-2.2-5.8,0-8
		c2.2-2.2,5.8-2.2,8,0c1.1,1.1,1.7,2.5,1.7,4v10.7h-0.3c9.3,0.1,19.9,0.6,32.5,1.4V13.4C76.1-4.3,21-3.3,0,9.6l17.4,52.3
		c2.9-1.8,5.7-3.5,8.6-5l0,0C39.7,49.6,54,45.1,86.9,45.4z M103.5,30.7c1.1-1.1,2.5-1.7,4-1.7c1.1,0,2.3,0.3,3.2,1
		c0.9,0.6,1.6,1.5,2.1,2.5l0.1,0.3l-6.9,4.6c0.5,0.3,1.1,0.4,1.7,0.4c0.8,0,1.6-0.3,2.2-1c0.3-0.3,0.5-0.6,0.6-1h2.8
		c-0.3,1-0.8,2-1.5,2.8c-2.2,2.2-5.8,2.2-8,0c-1.1-1.1-1.7-2.5-1.7-4C101.9,33.1,102.4,31.7,103.5,30.7L103.5,30.7z M91.1,29.2h2.6
		v6.4c0,1.2,1.1,2.2,2.3,2.1c1.2,0,2.1-1,2.1-2.1v-6.4h2.6v6.4c0,1.3-0.6,2.5-1.5,3.3c-1.8,1.8-4.8,1.8-6.7,0
		c-0.9-0.9-1.4-2.1-1.4-3.3v-6.4H91.1z M37.5,31.7h-1.7V40h-2.6v-8.3h-1.7v-2.6h1.7v-3.6h2.6v3.6h1.7L37.5,31.7z M41.9,40.1h-2.6
		V25.5h2.6V40.1z M73.9,25.5h2.6v2.6h-2.6V25.5z M73.9,29.2h2.6v10.9h-2.6V29.2z M66.8,29.2h1.7v-3.6h2.6v3.6h1.7v2.6h-1.7v8.3h-2.6
		v-8.3h-1.7V29.2z M66,33.8v6.4h-2.6v-6.4c0-1.2-1.1-2.2-2.3-2.1c-1.2,0-2.1,1-2.1,2.1v6.4h-2.6v-6.4c0-1.2,0.5-2.4,1.4-3.3
		c1.6-1.8,4.3-2,6.2-0.5c0.2,0.1,0.3,0.3,0.5,0.5C65.4,31.2,66.1,32.5,66,33.8L66,33.8z M53.6,12c1.1-1.1,2.5-1.7,4-1.7
		c1.1,0,2.3,0.3,3.2,1c0.9,0.6,1.6,1.5,2.1,2.5l0.1,0.3l-6.9,4.6c0.5,0.3,1.1,0.4,1.7,0.4c0.8,0,1.6-0.3,2.2-1
		c0.3-0.3,0.5-0.6,0.6-1h2.8c-0.3,1-0.8,2-1.5,2.8c-2.2,2.2-5.8,2.2-8,0c-1.1-1.1-1.7-2.5-1.7-4C51.9,14.5,52.5,13,53.6,12z
		 M46.4,15.2c0-1.3,0.6-2.6,1.5-3.5c0.9-0.9,2.2-1.4,3.5-1.4h0.3V13h-0.3c-0.6,0-1.2,0.2-1.7,0.7c-0.4,0.4-0.7,0.9-0.7,1.5v6.4h-2.6
		L46.4,15.2L46.4,15.2z M49.1,28.9c3.1,0,5.7,2.5,5.7,5.7c0,0,0,0,0,0v5.5h-2.6v-0.8c-0.9,0.7-2,1.1-3.2,1.1c-1.5,0-2.9-0.6-3.9-1.7
		c-2.2-2.2-2.2-5.8,0-8C46.2,29.6,47.6,29,49.1,28.9L49.1,28.9z M41.8,6.9h2.5v2.6h-2.6V6.9H41.8z M41.8,10.5h2.5v10.9h-2.6V10.5
		L41.8,10.5z M30.4,12c2.2-2.2,5.8-2.2,8,0c1.1,1.1,1.7,2.5,1.7,4c0,3.1-2.5,5.7-5.7,5.7s-5.7-2.5-5.7-5.7
		C28.8,14.6,29.4,13.1,30.4,12z M19.9,6.9h2.8v11.9h6v2.8h-8.7V6.9z M21.9,40.1H19l5.1-14.7h3l5.3,14.7h-2.9l-0.8-2.5h-5.8
		L21.9,40.1z"/>
	<path id="Tracé_701" class="st0" d="M23.7,35.3h4l-1.9-5.5L23.7,35.3z"/>
	<path id="Tracé_702" class="st1" d="M26,57h95.6V46.8C66.3,43.5,46.9,45.8,26,57z"/>
	<path id="Tracé_703" class="st1" d="M121.9,46.8"/>
	<path id="Tracé_704" class="st1" d="M121.7,46.8L121.7,46.8c-12.6-0.8-23.3-1.2-32.5-1.4h-2.2C54,45.1,39.7,49.6,26,57l0,0
		C46.9,45.8,66.3,43.5,121.7,46.8z"/>
	<path id="Tracé_705" class="st2" d="M34.5,21.7c3.1,0,5.7-2.5,5.7-5.7c0,0,0,0,0,0c0-3.1-2.5-5.7-5.7-5.7s-5.7,2.5-5.7,5.7
		c0,1.5,0.6,2.9,1.7,4C31.5,21.2,33,21.8,34.5,21.7z M32.2,13.8c0.6-0.6,1.4-0.9,2.2-1c0.8,0.1,1.6,0.4,2.2,1c0.6,0.6,0.9,1.4,1,2.2
		c0,1.7-1.4,3.1-3.1,3c0,0-0.1,0-0.1,0c-0.8,0-1.6-0.3-2.2-0.8c-0.6-0.6-0.9-1.4-0.8-2.2C31.4,15.3,31.7,14.5,32.2,13.8z"/>
	<rect id="Rectangle_526" x="41.8" y="10.5" class="st2" width="2.6" height="10.9"/>
	<path id="Tracé_706" class="st2" d="M49,15.2c0-0.6,0.2-1.1,0.7-1.5c0.4-0.4,1-0.7,1.7-0.7h0.3v-2.6h-0.3c-1.3,0-2.5,0.5-3.5,1.4
		c-1,0.9-1.5,2.1-1.5,3.5v6.4H49L49,15.2L49,15.2z"/>
	<path id="Tracé_707" class="st2" d="M35.8,25.5h-2.6v3.7h-1.7v2.5h1.7v8.4h2.6v-8.4h1.7v-2.5h-1.7V25.5z"/>
	<rect id="Rectangle_527" x="39.3" y="25.5" class="st2" width="2.6" height="14.7"/>
	<path id="Tracé_708" class="st2" d="M45.1,38.6c1,1.1,2.4,1.7,3.9,1.7c1.2,0,2.3-0.4,3.2-1.1v1h2.6v-5.5c0-3.1-2.5-5.7-5.7-5.7
		s-5.7,2.5-5.7,5.7C43.5,36.1,44.1,37.6,45.1,38.6z M47.1,32.5c0.6-0.6,1.4-0.9,2.2-1c0.8,0,1.6,0.3,2.2,1c0.6,0.6,0.9,1.4,1,2.2
		c0,1.7-1.4,3.1-3.1,3c0,0-0.1,0-0.1,0c-0.8,0-1.6-0.3-2.2-0.8c-0.6-0.6-0.9-1.4-0.8-2.2C46,33.9,46.4,33,47.1,32.5z"/>
	<path id="Tracé_709" class="st2" d="M57.9,30.5c-0.9,0.9-1.4,2.1-1.4,3.3v6.4h2.6v-6.4c0-1.2,1.1-2.2,2.3-2.1c1.2,0,2.1,1,2.1,2.1
		v6.4h2.6v-6.4c0-1.3-0.6-2.5-1.5-3.3c-0.9-0.9-2.1-1.5-3.3-1.5C60,28.9,58.7,29.5,57.9,30.5z"/>
	<path id="Tracé_710" class="st2" d="M68.5,40.1h2.6v-8.4h1.7v-2.5h-1.7v-3.7h-2.6v3.7h-1.7v2.5h1.7V40.1z"/>
	<rect id="Rectangle_528" x="73.9" y="29.2" class="st2" width="2.6" height="10.9"/>
	<rect id="Rectangle_529" x="73.9" y="25.5" class="st2" width="2.6" height="2.6"/>
	<path id="Tracé_711" class="st2" d="M89.5,34.6c0-3.1-2.5-5.7-5.7-5.7c-3.1,0-5.7,2.5-5.7,5.7c0,1.5,0.6,2.9,1.7,4
		c1,1.1,2.4,1.7,3.9,1.7c1.2,0,2.3-0.4,3.2-1.1v6.1h2.5V34.6H89.5z M85.9,36.8c-0.6,0.6-1.4,0.9-2.2,0.8c-0.8,0-1.6-0.3-2.2-0.8
		c-0.6-0.6-0.9-1.4-0.8-2.2c0-0.8,0.3-1.6,0.8-2.2c0.6-0.6,1.4-0.9,2.2-1c0.8,0,1.6,0.3,2.2,1c0.6,0.6,0.9,1.4,1,2.2
		C86.9,35.5,86.6,36.3,85.9,36.8L85.9,36.8z"/>
	<path id="Tracé_712" class="st2" d="M86.9,45.4L86.9,45.4z"/>
	<path id="Tracé_713" class="st2" d="M95.9,40.3c1.3,0,2.5-0.5,3.3-1.4c0.9-0.9,1.5-2.1,1.5-3.3v-6.4h-2.6v6.4
		c0,1.2-1.1,2.2-2.3,2.1c-1.2,0-2.1-1-2.1-2.1v-6.4h-2.6v6.4c0,1.2,0.5,2.4,1.4,3.3C93.4,39.8,94.6,40.3,95.9,40.3z"/>
	<path id="Tracé_714" class="st2" d="M57.7,21.7c1.5,0,3-0.6,4-1.7c0.7-0.8,1.2-1.7,1.5-2.8h-2.8c-0.1,0.4-0.3,0.7-0.6,1
		c-0.5,0.7-1.4,1-2.2,1c-0.6,0-1.1-0.1-1.7-0.4l6.9-4.6l-0.1-0.4c-0.4-1-1.1-1.9-2.1-2.5c-0.9-0.7-2-1-3.2-1c-3.1,0-5.7,2.5-5.7,5.7
		c0,0,0,0,0,0c0,1.5,0.6,3,1.7,4C54.7,21.2,56.2,21.8,57.7,21.7z M55.5,13.8c0.6-0.6,1.4-1,2.2-1c0.6,0,1.1,0.1,1.7,0.4l-4.6,3v-0.4
		C54.6,15.2,54.9,14.3,55.5,13.8z"/>
	<path id="Tracé_715" class="st2" d="M107.5,40.3c1.5,0,3-0.6,4-1.7c0.7-0.8,1.2-1.7,1.5-2.8h-2.8c-0.1,0.4-0.3,0.7-0.6,1
		c-0.5,0.7-1.4,1-2.2,1c-0.6,0-1.1-0.1-1.7-0.4l6.9-4.6l-0.1-0.3c-0.4-1-1.1-1.9-2.1-2.5c-0.9-0.7-2-1-3.2-1c-3.1,0-5.7,2.5-5.7,5.7
		c0,1.5,0.6,2.9,1.7,4C104.6,39.7,106,40.3,107.5,40.3z M105.3,32.5c0.6-0.6,1.4-1,2.2-1c0.6,0,1.1,0.1,1.7,0.4l-4.6,3v-0.4
		C104.5,33.8,104.8,33.1,105.3,32.5z"/>
	<path id="Tracé_716" class="st2" d="M28.6,18.8h-6.1V6.9h-2.6v14.7h8.7V18.8z"/>
	<path id="Tracé_717" class="st2" d="M29.5,40.1h2.9l-5.1-14.7h-3l-5.1,14.7H22l0.8-2.5h5.8L29.5,40.1z M23.7,35.3l2.1-5.5l2.1,5.5
		H23.7z"/>
	<rect id="Rectangle_530" x="41.8" y="6.9" class="st2" width="2.6" height="2.6"/>
</g>
<g class="st3">
	<path d="M140.2,19.6h2.1V31h-2.1V19.6z"/>
	<path d="M152.1,26v5h-2v-4.9c0-0.6-0.1-1.1-0.4-1.4c-0.2-0.3-0.6-0.4-1.1-0.4c-0.6,0-1.1,0.2-1.5,0.6c-0.4,0.4-0.6,0.9-0.6,1.5V31
		h-2v-5.8c0-0.9,0-1.6-0.1-2.3h1.9l0.1,1.3c0.3-0.5,0.7-0.9,1.1-1.1s1-0.4,1.6-0.4C151.2,22.7,152.1,23.8,152.1,26z"/>
	<path d="M156.8,22.2v0.7h1.8v1.5h-1.8V31h-2v-6.6h-1.5v-1.5h1.5v-0.8c0-1,0.2-1.7,0.7-2.2s1.2-0.8,2.1-0.8c0.5,0,0.9,0.1,1.3,0.2
		v1.6c-0.3-0.1-0.6-0.1-0.8-0.1C157.2,20.8,156.8,21.3,156.8,22.2z"/>
	<path d="M161.6,30.6c-0.6-0.3-1.1-0.8-1.4-1.5s-0.5-1.4-0.5-2.2s0.2-1.6,0.5-2.2c0.3-0.6,0.8-1.1,1.4-1.5c0.6-0.3,1.3-0.5,2.2-0.5
		c0.8,0,1.5,0.2,2.1,0.5c0.6,0.3,1.1,0.8,1.4,1.5c0.3,0.6,0.5,1.4,0.5,2.2s-0.2,1.6-0.5,2.2s-0.8,1.1-1.4,1.5
		c-0.6,0.3-1.3,0.5-2.1,0.5C162.9,31.1,162.2,31,161.6,30.6z M165.3,28.9c0.4-0.4,0.5-1.1,0.5-2c0-0.9-0.2-1.5-0.5-2
		c-0.4-0.5-0.9-0.7-1.5-0.7c-0.7,0-1.2,0.2-1.6,0.7c-0.4,0.5-0.5,1.1-0.5,2c0,0.9,0.2,1.5,0.5,2c0.4,0.4,0.9,0.7,1.5,0.7
		C164.4,29.6,164.9,29.3,165.3,28.9z"/>
	<path d="M174.7,22.9l0,1.8c-0.3-0.1-0.7-0.2-1.1-0.2c-0.7,0-1.2,0.2-1.6,0.6s-0.5,0.9-0.5,1.6V31h-2v-5.8c0-0.9,0-1.6-0.1-2.3h1.9
		l0.2,1.4c0.2-0.5,0.5-0.9,1-1.2c0.4-0.3,0.9-0.4,1.5-0.4C174.2,22.7,174.5,22.8,174.7,22.9z"/>
	<path d="M187.4,23.5c0.4,0.5,0.7,1.4,0.7,2.5v5h-2v-4.9c0-0.6-0.1-1.1-0.3-1.4c-0.2-0.3-0.6-0.4-1-0.4c-0.6,0-1,0.2-1.3,0.6
		c-0.3,0.4-0.5,0.9-0.5,1.6V31h-2v-4.9c0-0.6-0.1-1.1-0.3-1.4c-0.2-0.3-0.6-0.4-1-0.4c-0.6,0-1,0.2-1.3,0.6
		c-0.3,0.4-0.5,0.9-0.5,1.6V31h-2v-5.8c0-0.9,0-1.6-0.1-2.3h1.9l0.1,1.3c0.2-0.5,0.6-0.8,1-1.1s1-0.4,1.5-0.4c1.2,0,2,0.5,2.4,1.5
		c0.3-0.5,0.6-0.9,1.1-1.1c0.5-0.3,1-0.4,1.6-0.4C186.3,22.7,186.9,23,187.4,23.5z"/>
	<path d="M197.9,22.9V31h-2v-1.3c-0.2,0.4-0.6,0.8-1.1,1c-0.5,0.3-1,0.4-1.6,0.4c-0.7,0-1.3-0.2-1.9-0.5c-0.5-0.3-1-0.8-1.3-1.5
		c-0.3-0.6-0.4-1.4-0.4-2.2s0.2-1.6,0.5-2.2c0.3-0.6,0.7-1.1,1.3-1.5s1.2-0.5,1.9-0.5c0.6,0,1.1,0.1,1.6,0.4c0.5,0.3,0.8,0.6,1.1,1
		v-1.2H197.9z M195.4,28.9c0.4-0.5,0.5-1.1,0.5-1.9c0-0.9-0.2-1.5-0.5-2c-0.4-0.5-0.9-0.7-1.6-0.7c-0.7,0-1.2,0.2-1.5,0.7
		s-0.6,1.1-0.6,2c0,0.8,0.2,1.5,0.6,1.9c0.4,0.4,0.9,0.7,1.6,0.7C194.5,29.6,195,29.3,195.4,28.9z"/>
	<path d="M202.6,24.4V28c0,0.9,0.4,1.4,1.3,1.4c0.2,0,0.5,0,0.8-0.1v1.6c-0.4,0.1-0.8,0.2-1.3,0.2c-0.9,0-1.6-0.3-2.1-0.8
		c-0.5-0.5-0.7-1.2-0.7-2.2v-3.7h-1.6v-1.5h1.6v-2l2-0.7v2.6h2.1v1.5H202.6z"/>
	<path d="M208.2,19.3v2H206v-2H208.2z M206.2,22.9h2V31h-2V22.9z"/>
	<path d="M211.8,30.6c-0.6-0.3-1.1-0.8-1.4-1.5s-0.5-1.4-0.5-2.2s0.2-1.6,0.5-2.2c0.3-0.6,0.8-1.1,1.4-1.5c0.6-0.3,1.3-0.5,2.2-0.5
		c0.8,0,1.5,0.2,2.1,0.5c0.6,0.3,1.1,0.8,1.4,1.5c0.3,0.6,0.5,1.4,0.5,2.2s-0.2,1.6-0.5,2.2s-0.8,1.1-1.4,1.5
		c-0.6,0.3-1.3,0.5-2.1,0.5C213.2,31.1,212.4,31,211.8,30.6z M215.5,28.9c0.4-0.4,0.5-1.1,0.5-2c0-0.9-0.2-1.5-0.5-2
		c-0.4-0.5-0.9-0.7-1.5-0.7c-0.7,0-1.2,0.2-1.6,0.7c-0.4,0.5-0.5,1.1-0.5,2c0,0.9,0.2,1.5,0.5,2c0.4,0.4,0.9,0.7,1.5,0.7
		C214.7,29.6,215.2,29.3,215.5,28.9z"/>
	<path d="M227.3,26v5h-2v-4.9c0-0.6-0.1-1.1-0.4-1.4c-0.2-0.3-0.6-0.4-1.1-0.4c-0.6,0-1.1,0.2-1.5,0.6c-0.4,0.4-0.6,0.9-0.6,1.5V31
		h-2v-5.8c0-0.9,0-1.6-0.1-2.3h1.9l0.1,1.3c0.3-0.5,0.7-0.9,1.1-1.1s1-0.4,1.6-0.4C226.4,22.7,227.3,23.8,227.3,26z"/>
</g>
<g class="st3">
	<path d="M147.8,36.2V48h-2v-1.3c-0.2,0.4-0.6,0.8-1.1,1c-0.5,0.3-1,0.4-1.6,0.4c-0.7,0-1.3-0.2-1.9-0.5c-0.5-0.4-1-0.9-1.3-1.5
		c-0.3-0.6-0.5-1.4-0.5-2.2s0.1-1.6,0.4-2.2c0.3-0.6,0.7-1.1,1.3-1.5c0.5-0.3,1.2-0.5,1.9-0.5c0.6,0,1.1,0.1,1.5,0.4
		c0.5,0.2,0.8,0.6,1,1v-4.9H147.8z M145.3,45.9c0.4-0.5,0.6-1.1,0.6-2s-0.2-1.5-0.5-2c-0.4-0.5-0.9-0.7-1.5-0.7
		c-0.7,0-1.2,0.2-1.6,0.7s-0.6,1.1-0.6,1.9c0,0.8,0.2,1.5,0.6,2c0.4,0.5,0.9,0.7,1.5,0.7C144.4,46.6,144.9,46.3,145.3,45.9z"/>
	<path d="M157.4,39.9V48h-2v-1.2c-0.3,0.4-0.6,0.8-1,1c-0.4,0.2-0.9,0.4-1.5,0.4c-2,0-3-1.1-3-3.3v-4.9h2v4.9c0,0.6,0.1,1,0.4,1.3
		c0.2,0.3,0.6,0.4,1.1,0.4c0.6,0,1.1-0.2,1.4-0.6s0.5-0.9,0.5-1.5v-4.5H157.4z"/>
	<path d="M164.1,36.6h4.2c1.9,0,3.3,0.5,4.3,1.5c1,1,1.5,2.4,1.5,4.2c0,1.8-0.5,3.2-1.5,4.2c-1,1-2.5,1.5-4.3,1.5h-4.2V36.6z
		 M168.1,46.3c2.6,0,3.9-1.3,3.9-4c0-2.7-1.3-4-3.9-4h-2v8H168.1z"/>
	<path d="M183.2,44.1h-5.6c0,0.9,0.3,1.5,0.6,1.9c0.4,0.4,1,0.6,1.7,0.6c0.9,0,1.7-0.3,2.5-0.9l0.6,1.4c-0.4,0.3-0.9,0.6-1.4,0.7
		c-0.6,0.2-1.1,0.3-1.7,0.3c-1.3,0-2.4-0.4-3.1-1.1c-0.8-0.7-1.1-1.8-1.1-3.1c0-0.8,0.2-1.6,0.5-2.2c0.3-0.6,0.8-1.1,1.4-1.5
		c0.6-0.4,1.3-0.5,2-0.5c1.1,0,2,0.4,2.6,1.1c0.6,0.7,1,1.7,1,3V44.1z M178.3,41.6c-0.3,0.3-0.6,0.8-0.6,1.4h3.8
		c-0.1-0.6-0.2-1.1-0.6-1.4c-0.3-0.3-0.7-0.5-1.3-0.5S178.7,41.3,178.3,41.6z M178.9,38.9l1.6-3.3h2l-2.4,3.3H178.9z"/>
	<path d="M191.3,40.2c0.5,0.4,1,0.9,1.3,1.5c0.3,0.6,0.5,1.4,0.5,2.2s-0.1,1.6-0.4,2.2c-0.3,0.6-0.7,1.1-1.3,1.5
		c-0.5,0.3-1.2,0.5-1.9,0.5c-0.6,0-1.1-0.1-1.6-0.4c-0.5-0.2-0.8-0.6-1.1-1v4.8h-2v-9.2c0-0.9,0-1.6-0.1-2.3h1.9l0.2,1.4
		c0.2-0.5,0.6-0.9,1-1.2c0.5-0.3,1-0.4,1.7-0.4C190.2,39.7,190.8,39.9,191.3,40.2z M190.5,45.9c0.4-0.4,0.5-1.1,0.5-1.9
		c0-0.8-0.2-1.5-0.5-2s-0.9-0.7-1.5-0.7c-0.7,0-1.2,0.2-1.6,0.7c-0.4,0.5-0.5,1.1-0.5,2c0,0.8,0.2,1.5,0.5,1.9
		c0.4,0.5,0.9,0.7,1.6,0.7S190.1,46.3,190.5,45.9z"/>
	<path d="M202.5,39.9V48h-2v-1.3c-0.2,0.4-0.6,0.8-1.1,1c-0.5,0.3-1,0.4-1.6,0.4c-0.7,0-1.3-0.2-1.9-0.5c-0.5-0.3-1-0.8-1.3-1.5
		c-0.3-0.6-0.4-1.4-0.4-2.2s0.2-1.6,0.5-2.2c0.3-0.6,0.7-1.1,1.3-1.5s1.2-0.5,1.9-0.5c0.6,0,1.1,0.1,1.6,0.4c0.5,0.3,0.8,0.6,1.1,1
		v-1.2H202.5z M200,45.9c0.4-0.5,0.5-1.1,0.5-1.9c0-0.9-0.2-1.5-0.5-2c-0.4-0.5-0.9-0.7-1.6-0.7c-0.7,0-1.2,0.2-1.5,0.7
		s-0.6,1.1-0.6,2c0,0.8,0.2,1.5,0.6,1.9c0.4,0.4,0.9,0.7,1.6,0.7C199.1,46.6,199.6,46.3,200,45.9z"/>
	<path d="M209.8,39.9l0,1.8c-0.3-0.1-0.7-0.2-1.1-0.2c-0.7,0-1.2,0.2-1.6,0.6s-0.5,0.9-0.5,1.6V48h-2v-5.8c0-0.9,0-1.6-0.1-2.3h1.9
		l0.2,1.4c0.2-0.5,0.5-0.9,1-1.2c0.4-0.3,0.9-0.4,1.5-0.4C209.4,39.7,209.6,39.8,209.8,39.9z"/>
	<path d="M214.2,41.4V45c0,0.9,0.4,1.4,1.3,1.4c0.2,0,0.5,0,0.8-0.1v1.6c-0.4,0.1-0.8,0.2-1.3,0.2c-0.9,0-1.6-0.3-2.1-0.8
		c-0.5-0.5-0.7-1.2-0.7-2.2v-3.7h-1.6v-1.5h1.6v-2l2-0.7v2.6h2.1v1.5H214.2z"/>
	<path d="M224.8,44.1h-5.6c0,0.9,0.3,1.5,0.6,1.9c0.4,0.4,1,0.6,1.7,0.6c0.9,0,1.7-0.3,2.5-0.9l0.6,1.4c-0.4,0.3-0.9,0.6-1.4,0.7
		c-0.6,0.2-1.1,0.3-1.7,0.3c-1.3,0-2.4-0.4-3.1-1.1c-0.8-0.7-1.1-1.8-1.1-3.1c0-0.8,0.2-1.6,0.5-2.2c0.3-0.6,0.8-1.1,1.4-1.5
		s1.3-0.5,2-0.5c1.1,0,2,0.4,2.6,1.1c0.6,0.7,1,1.7,1,3V44.1z M220,41.6c-0.3,0.3-0.6,0.8-0.6,1.4h3.8c-0.1-0.6-0.2-1.1-0.6-1.4
		c-0.3-0.3-0.7-0.5-1.3-0.5S220.3,41.3,220,41.6z"/>
	<path d="M238.1,40.5c0.4,0.5,0.7,1.4,0.7,2.5v5h-2v-4.9c0-0.6-0.1-1.1-0.3-1.4c-0.2-0.3-0.6-0.4-1-0.4c-0.6,0-1,0.2-1.3,0.6
		c-0.3,0.4-0.5,0.9-0.5,1.6V48h-2v-4.9c0-0.6-0.1-1.1-0.3-1.4c-0.2-0.3-0.6-0.4-1-0.4c-0.6,0-1,0.2-1.3,0.6
		c-0.3,0.4-0.5,0.9-0.5,1.6V48h-2v-5.8c0-0.9,0-1.6-0.1-2.3h1.9l0.1,1.3c0.2-0.5,0.6-0.8,1-1.1s1-0.4,1.5-0.4c1.2,0,2,0.5,2.4,1.5
		c0.3-0.5,0.6-0.9,1.1-1.1c0.5-0.3,1-0.4,1.6-0.4C237,39.7,237.7,40,238.1,40.5z"/>
	<path d="M248,44.1h-5.6c0,0.9,0.3,1.5,0.6,1.9c0.4,0.4,1,0.6,1.7,0.6c0.9,0,1.7-0.3,2.5-0.9l0.6,1.4c-0.4,0.3-0.9,0.6-1.4,0.7
		c-0.6,0.2-1.1,0.3-1.7,0.3c-1.3,0-2.4-0.4-3.1-1.1c-0.8-0.7-1.1-1.8-1.1-3.1c0-0.8,0.2-1.6,0.5-2.2c0.3-0.6,0.8-1.1,1.4-1.5
		c0.6-0.4,1.3-0.5,2-0.5c1.1,0,2,0.4,2.6,1.1c0.6,0.7,1,1.7,1,3V44.1z M243.1,41.6c-0.3,0.3-0.6,0.8-0.6,1.4h3.8
		c-0.1-0.6-0.2-1.1-0.6-1.4c-0.3-0.3-0.7-0.5-1.3-0.5S243.5,41.3,243.1,41.6z"/>
	<path d="M257.2,43v5h-2v-4.9c0-0.6-0.1-1.1-0.4-1.4c-0.2-0.3-0.6-0.4-1.1-0.4c-0.6,0-1.1,0.2-1.5,0.6c-0.4,0.4-0.6,0.9-0.6,1.5V48
		h-2v-5.8c0-0.9,0-1.6-0.1-2.3h1.9l0.1,1.3c0.3-0.5,0.7-0.9,1.1-1.1s1-0.4,1.6-0.4C256.2,39.7,257.2,40.8,257.2,43z"/>
	<path d="M261.9,41.4V45c0,0.9,0.4,1.4,1.3,1.4c0.2,0,0.5,0,0.8-0.1v1.6c-0.4,0.1-0.8,0.2-1.3,0.2c-0.9,0-1.6-0.3-2.1-0.8
		c-0.5-0.5-0.7-1.2-0.7-2.2v-3.7h-1.6v-1.5h1.6v-2l2-0.7v2.6h2.1v1.5H261.9z"/>
</g>
</svg>
