<svg id="Calque_1" data-name="Calque 1" xmlns="http://www.w3.org/2000/svg" width="480" height="480" viewBox="0 0 480 480"><defs><style>.cls-1{fill:#dc3545;}.cls-2{fill:none;stroke:#fff;stroke-linecap:round;stroke-linejoin:round;stroke-width:12.5px;}</style></defs><rect class="cls-1" width="480" height="480"/><path class="cls-2" d="M231.34449,138.65852l-25.16017-25.16017a22.602,22.602,0,0,1,0-31.964l0,0a22.602,22.602,0,0,1,31.964,0l25.16016,25.16016Z"/><path class="cls-2" d="M102.12281,267.88019,76.96265,242.72a22.602,22.602,0,0,1,0-31.964l0,0a22.602,22.602,0,0,1,31.964,0l25.16017,25.16016Z"/><path class="cls-2" d="M243.14635,248.96405a32.6825,32.6825,0,1,1-46.22,46.22"/><circle class="cls-2" cx="268.8187" cy="157.50651" r="13.17073"/><circle class="cls-2" cx="152.93484" cy="273.39037" r="13.17073"/><path class="cls-2" d="M231.17456,356.13011l-69.75928-30.944L319.93087,166.6705l30.944,69.75928a31.47836,31.47836,0,0,1-6.51592,35.02245l-78.162,78.162A31.47836,31.47836,0,0,1,231.17456,356.13011Z"/><rect class="cls-2" x="84.45068" y="175.55495" width="254.1456" height="82.4475" transform="translate(514.37886 220.4947) rotate(135)"/><line class="cls-2" x1="173.60097" y1="355.3854" x2="177.30966" y2="351.67671"/><line class="cls-2" x1="346.42149" y1="182.56488" x2="350.13018" y2="178.85619"/><line class="cls-2" x1="77.35226" y1="405.08565" x2="405.61454" y2="405.08565"/><polyline class="cls-2" points="355.838 356.717 345.872 328.091 394.708 348.855 372.984 309.064 409.657 296.256"/></svg>