<svg id="Calque_1" data-name="Calque 1" xmlns="http://www.w3.org/2000/svg" width="480" height="480" viewBox="0 0 480 480"><defs><style>.cls-1{fill:#ffc134;}.cls-2{fill:none;stroke:#000;stroke-linecap:round;stroke-linejoin:round;stroke-width:12.5px;}</style></defs><rect class="cls-1" width="480" height="480"/><line class="cls-2" x1="240" y1="240" x2="240" y2="90.46945"/><polyline class="cls-2" points="282.742 97.477 240 140.219 197.258 97.477"/><line class="cls-2" x1="240" y1="240" x2="345.73407" y2="134.26593"/><polyline class="cls-2" points="371.002 169.444 310.556 169.444 310.556 108.998"/><line class="cls-2" x1="240" y1="240" x2="389.53055" y2="240"/><polyline class="cls-2" points="382.523 282.742 339.781 240 382.523 197.258"/><line class="cls-2" x1="240" y1="240" x2="345.73407" y2="345.73407"/><polyline class="cls-2" points="310.556 371.002 310.556 310.556 371.002 310.556"/><line class="cls-2" x1="240" y1="240" x2="240" y2="389.53055"/><polyline class="cls-2" points="197.258 382.523 240 339.781 282.742 382.523"/><line class="cls-2" x1="240" y1="240" x2="134.26593" y2="345.73407"/><polyline class="cls-2" points="108.998 310.556 169.444 310.556 169.444 371.002"/><line class="cls-2" x1="240" y1="240" x2="90.46945" y2="240"/><polyline class="cls-2" points="97.477 197.258 140.219 240 97.477 282.742"/><line class="cls-2" x1="240" y1="240" x2="134.26593" y2="134.26593"/><polyline class="cls-2" points="169.444 108.998 169.444 169.444 108.998 169.444"/></svg>