<svg id="Calque_1" data-name="Calque 1" xmlns="http://www.w3.org/2000/svg" width="480" height="480" viewBox="0 0 480 480"><defs><style>.cls-1{fill:#dc3545;}.cls-2{fill:none;stroke:#fff;stroke-linecap:round;stroke-linejoin:round;stroke-width:15px;}</style></defs><rect class="cls-1" width="480" height="480" rx="239.99976"/><path class="cls-2" d="M234.46048,175.14145,218.358,159.039a14.46527,14.46527,0,0,1,0-20.457l0,0a14.46526,14.46526,0,0,1,20.457,0l16.10251,16.10251Z"/><path class="cls-2" d="M151.75861,257.84332l-16.1025-16.1025a14.46524,14.46524,0,0,1,0-20.457l0,0a14.46524,14.46524,0,0,1,20.457,0l16.10251,16.1025Z"/><path class="cls-2" d="M242.01368,245.737a20.9168,20.9168,0,1,1-29.58082,29.58082"/><circle class="cls-2" cx="258.44398" cy="187.20416" r="8.42927"/><circle class="cls-2" cx="184.27831" cy="261.36984" r="8.42927"/><path class="cls-2" d="M234.35173,314.32327,189.7058,294.51909l101.45-101.45L310.96,237.71506a20.14618,20.14618,0,0,1-4.17019,22.41437L256.7661,310.15308A20.14614,20.14614,0,0,1,234.35173,314.32327Z"/><rect class="cls-2" x="140.44845" y="198.75517" width="162.65319" height="52.7664" transform="translate(537.79055 227.5166) rotate(135)"/><line class="cls-2" x1="197.50464" y1="313.84665" x2="199.8782" y2="311.47309"/><line class="cls-2" x1="308.10977" y1="203.24152" x2="310.48333" y2="200.86796"/><line class="cls-2" x1="135.90546" y1="345.65481" x2="345.99332" y2="345.65481"/><polyline class="cls-2" points="314.137 314.699 307.758 296.379 339.013 309.667 325.11 284.201 348.581 276.004"/></svg>