<svg id="Calque_1" data-name="Calque 1" xmlns="http://www.w3.org/2000/svg" width="480" height="480" viewBox="0 0 480 480"><defs><style>.cls-1,.cls-3{fill:#dc3545;}.cls-2{fill:none;stroke:#fff;stroke-width:15px;}.cls-2,.cls-3{stroke-linecap:round;stroke-linejoin:round;}.cls-3{stroke:#dc3545;stroke-width:80px;}</style></defs><rect class="cls-1" width="480" height="480" rx="239.99976"/><path class="cls-2" d="M152.13526,212.35776v16.86346a10.71185,10.71185,0,0,1-10.71185,10.71185h0a10.71185,10.71185,0,0,1-10.71185-10.71185V212.35776Z"/><path class="cls-2" d="M238.74535,212.35776v16.86346a10.71185,10.71185,0,0,1-10.71185,10.71185h0a10.71185,10.71185,0,0,1-10.71185-10.71185V212.35776Z"/><path class="cls-2" d="M185.146,171.43687a15.48936,15.48936,0,0,1,30.97871,0"/><circle class="cls-2" cx="145.8932" cy="193.48295" r="6.24206"/><circle class="cls-2" cx="223.5637" cy="193.48295" r="6.24206"/><path class="cls-2" d="M225.07175,139.53516l13.00785,33.74791H131.83544l13.00785-33.74791a14.91867,14.91867,0,0,1,13.92043-9.55317h52.3876A14.91868,14.91868,0,0,1,225.07175,139.53516Z"/><rect class="cls-2" x="124.73336" y="173.28307" width="120.44831" height="39.07469"/><line class="cls-2" x1="244.11636" y1="159.07892" x2="241.63064" y2="159.07892"/><line class="cls-2" x1="128.2844" y1="159.07892" x2="125.79867" y2="159.07892"/><path class="cls-3" d="M207.17773,267.40024v16.86345a10.71185,10.71185,0,0,1-10.71185,10.71185h0A10.71185,10.71185,0,0,1,185.754,284.26369V267.40024Z"/><path class="cls-3" d="M293.78782,267.40024v16.86345A10.71185,10.71185,0,0,1,283.076,294.97554h0a10.71185,10.71185,0,0,1-10.71185-10.71185V267.40024Z"/><path class="cls-3" d="M240.18849,226.47934a15.48936,15.48936,0,0,1,30.97871,0"/><circle class="cls-3" cx="200.93567" cy="248.52542" r="6.24206"/><circle class="cls-3" cx="278.60617" cy="248.52542" r="6.24206"/><path class="cls-3" d="M280.11422,194.57763l13.00785,33.74791H186.87791l13.00785-33.74791a14.91867,14.91867,0,0,1,13.92043-9.55317h52.3876A14.91868,14.91868,0,0,1,280.11422,194.57763Z"/><rect class="cls-3" x="179.77583" y="228.32554" width="120.44831" height="39.07469"/><line class="cls-3" x1="299.15883" y1="214.12139" x2="296.67311" y2="214.12139"/><line class="cls-3" x1="183.32687" y1="214.12139" x2="180.84114" y2="214.12139"/><path class="cls-2" d="M207.17773,267.40024v16.86345a10.71185,10.71185,0,0,1-10.71185,10.71185h0A10.71185,10.71185,0,0,1,185.754,284.26369V267.40024Z"/><path class="cls-2" d="M293.78782,267.40024v16.86345A10.71185,10.71185,0,0,1,283.076,294.97554h0a10.71185,10.71185,0,0,1-10.71185-10.71185V267.40024Z"/><path class="cls-2" d="M240.18849,226.47934a15.48936,15.48936,0,0,1,30.97871,0"/><circle class="cls-2" cx="200.93567" cy="248.52542" r="6.24206"/><circle class="cls-2" cx="278.60617" cy="248.52542" r="6.24206"/><path class="cls-2" d="M280.11422,194.57763l13.00785,33.74791H186.87791l13.00785-33.74791a14.91867,14.91867,0,0,1,13.92043-9.55317h52.3876A14.91868,14.91868,0,0,1,280.11422,194.57763Z"/><rect class="cls-2" x="179.77583" y="228.32554" width="120.44831" height="39.07469"/><line class="cls-2" x1="299.15883" y1="214.12139" x2="296.67311" y2="214.12139"/><line class="cls-2" x1="183.32687" y1="214.12139" x2="180.84114" y2="214.12139"/><path class="cls-3" d="M262.22022,322.44271v16.86345A10.71185,10.71185,0,0,1,251.50837,350.018h0a10.71184,10.71184,0,0,1-10.71184-10.71185V322.44271Z"/><path class="cls-3" d="M348.83031,322.44271v16.86345A10.71185,10.71185,0,0,1,338.11846,350.018h0a10.71184,10.71184,0,0,1-10.71184-10.71185V322.44271Z"/><path class="cls-3" d="M295.231,281.52181a15.48936,15.48936,0,0,1,30.97871,0"/><circle class="cls-3" cx="255.97816" cy="303.56789" r="6.24206"/><circle class="cls-3" cx="333.64866" cy="303.56789" r="6.24206"/><path class="cls-3" d="M335.15671,249.6201,348.16456,283.368H241.9204l13.00785-33.74791a14.91868,14.91868,0,0,1,13.92043-9.55317h52.3876A14.91867,14.91867,0,0,1,335.15671,249.6201Z"/><rect class="cls-3" x="234.81832" y="283.36801" width="120.44831" height="39.07469"/><line class="cls-3" x1="354.20133" y1="269.16386" x2="351.7156" y2="269.16386"/><line class="cls-3" x1="238.36936" y1="269.16386" x2="235.88364" y2="269.16386"/><path class="cls-2" d="M262.22022,322.44271v16.86345A10.71185,10.71185,0,0,1,251.50837,350.018h0a10.71184,10.71184,0,0,1-10.71184-10.71185V322.44271Z"/><path class="cls-2" d="M348.83031,322.44271v16.86345A10.71185,10.71185,0,0,1,338.11846,350.018h0a10.71184,10.71184,0,0,1-10.71184-10.71185V322.44271Z"/><path class="cls-2" d="M295.231,281.52181a15.48936,15.48936,0,0,1,30.97871,0"/><circle class="cls-2" cx="255.97816" cy="303.56789" r="6.24206"/><circle class="cls-2" cx="333.64866" cy="303.56789" r="6.24206"/><path class="cls-2" d="M335.15671,249.6201,348.16456,283.368H241.9204l13.00785-33.74791a14.91868,14.91868,0,0,1,13.92043-9.55317h52.3876A14.91867,14.91867,0,0,1,335.15671,249.6201Z"/><rect class="cls-2" x="234.81832" y="283.36801" width="120.44831" height="39.07469"/><line class="cls-2" x1="354.20133" y1="269.16386" x2="351.7156" y2="269.16386"/><line class="cls-2" x1="238.36936" y1="269.16386" x2="235.88364" y2="269.16386"/></svg>