<svg id="Calque_1" data-name="Calque 1" xmlns="http://www.w3.org/2000/svg" width="480" height="480" viewBox="0 0 480 480"><defs><style>.cls-1{fill:#dc3545;}.cls-2{fill:none;stroke:#fff;stroke-linecap:round;stroke-linejoin:round;stroke-width:15px;}</style></defs><rect class="cls-1" width="480" height="480" rx="239.99976"/><line class="cls-2" x1="240" y1="240" x2="240" y2="144.30045"/><polyline class="cls-2" points="267.355 148.785 240 176.14 212.645 148.785"/><line class="cls-2" x1="240" y1="240" x2="307.6698" y2="172.3302"/><polyline class="cls-2" points="323.841 194.844 285.156 194.844 285.156 156.159"/><line class="cls-2" x1="240" y1="240" x2="335.69955" y2="240"/><polyline class="cls-2" points="331.215 267.355 303.86 240 331.215 212.645"/><line class="cls-2" x1="240" y1="240" x2="307.6698" y2="307.6698"/><polyline class="cls-2" points="285.156 323.841 285.156 285.156 323.841 285.156"/><line class="cls-2" x1="240" y1="240" x2="240" y2="335.69955"/><polyline class="cls-2" points="212.645 331.215 240 303.86 267.355 331.215"/><line class="cls-2" x1="240" y1="240" x2="172.3302" y2="307.6698"/><polyline class="cls-2" points="156.159 285.156 194.844 285.156 194.844 323.841"/><line class="cls-2" x1="240" y1="240" x2="144.30045" y2="240"/><polyline class="cls-2" points="148.785 212.645 176.14 240 148.785 267.355"/><line class="cls-2" x1="240" y1="240" x2="172.3302" y2="172.3302"/><polyline class="cls-2" points="194.844 156.159 194.844 194.844 156.159 194.844"/></svg>