<svg id="Calque_1" data-name="Calque 1" xmlns="http://www.w3.org/2000/svg" width="480" height="480" viewBox="0 0 480 480"><defs><style>.cls-1{fill:#ffc134;}</style></defs><rect class="cls-1" width="480" height="480" rx="239.99976"/><path d="M180.77269,213.35517a9.46387,9.46387,0,1,0,9.46371,9.46385A9.46388,9.46388,0,0,0,180.77269,213.35517Z"/><circle cx="298.53229" cy="222.81903" r="9.46386"/><path d="M357.9369,251.88921a9.858,9.858,0,0,0-9.85816,9.85816v19.49811H320.98645a16.2466,16.2466,0,0,0,.56345-4.24208v-15.709h9.75842a9.858,9.858,0,0,0,9.85815-9.85816V192.19311a9.858,9.858,0,0,0-9.85815-9.85816h-4.00248l-.701-1.819h3.0883a9.85816,9.85816,0,0,0,0-19.71632h-3.76848a9.80729,9.80729,0,0,0-6.10064,2.12388l-9.80655-25.44235a32.67422,32.67422,0,0,0-30.304-20.79669H200.286a32.6753,32.6753,0,0,0-30.304,20.79669l-9.80642,25.442a9.80738,9.80738,0,0,0-6.10024-2.12358h-3.769a9.85816,9.85816,0,0,0,0,19.71632h3.08829l-.701,1.819h-4.00247a9.858,9.858,0,0,0-9.85816,9.85816V251.4362a9.858,9.858,0,0,0,9.85816,9.85816h9.06392v15.709a16.25248,16.25248,0,0,0,.56332,4.24208H131.92126V261.74737a9.85816,9.85816,0,1,0-19.71632,0v29.35627a9.858,9.858,0,0,0,9.85816,9.85816H357.9369a9.858,9.858,0,0,0,9.85816-9.85816V261.74737A9.858,9.858,0,0,0,357.9369,251.88921ZM158.54931,241.578V202.05127H321.45016V241.578ZM252.11852,182.335a13.61948,13.61948,0,0,1,23.30229,0Zm-63.73908-37.76287a12.83845,12.83845,0,0,1,11.9066-8.17127h79.42739A12.83789,12.83789,0,0,1,291.62,144.57208L306.17568,182.335h-9.823a33.33813,33.33813,0,0,0-65.16616,0H173.82379Zm1.857,132.43132v-15.709h98.832v15.709a16.25248,16.25248,0,0,0,.56332,4.24208H189.67308A16.25206,16.25206,0,0,0,190.2364,277.0034Z"/><path d="M359.99068,326.11315a9.85854,9.85854,0,0,0-13.76249,2.22707c-.49419.68513-1.00015,1.41733-1.52857,2.18268-4.43435,6.42877-9.02006,13.07629-24.29882,13.07629s-19.86447-6.64752-24.29936-13.07629c-3.19406-4.6301-7.56851-10.97169-15.85638-10.97169-8.28734,0-12.66179,6.34159-15.85638,10.97169-4.43436,6.42877-9.02007,13.07629-24.29883,13.07629-15.27822,0-19.86447-6.64752-24.29935-13.07629-3.19407-4.6301-7.56852-10.97169-15.85639-10.97169-8.28733,0-12.66179,6.34159-15.85585,10.97169-4.43488,6.42877-9.0206,13.07629-24.29935,13.07629s-19.86447-6.64752-24.29936-13.07575c-.5664-.82152-1.15205-1.67031-1.74518-2.48166a9.85814,9.85814,0,0,0-15.91575,11.637c.43322.5926.91832,1.29591,1.43176,2.04041,5.20666,7.54712,14.89849,21.59628,40.52853,21.59628,25.031,0,34.85976-13.39933,40.1552-21.05663,5.296,7.65676,15.12526,21.05663,40.15574,21.05663,25.031,0,34.85976-13.39933,40.15521-21.05663,5.296,7.65676,15.12526,21.05663,40.15574,21.05663,25.63,0,35.32186-14.04916,40.52852-21.59681.44553-.64609.87126-1.2649,1.28843-1.84306A9.8579,9.8579,0,0,0,359.99068,326.11315Z"/></svg>