<svg id="Calque_1" data-name="Calque 1" xmlns="http://www.w3.org/2000/svg" width="480" height="480" viewBox="0 0 480 480"><defs><style>.cls-1{fill:#ffc134;}.cls-2{fill:none;stroke:#000;stroke-linecap:round;stroke-linejoin:round;stroke-width:15px;}</style></defs><rect class="cls-1" width="480" height="480" rx="239.99976"/><polygon class="cls-2" points="240 123.583 111.943 345.385 368.057 345.385 240 123.583"/><path d="M253.61875,302.32675a11.73642,11.73642,0,0,1-3.94875,8.86313,13.9014,13.9014,0,0,1-14.745,2.65937,15.24909,15.24909,0,0,1-4.27062-2.74,12.28121,12.28121,0,0,1-2.90063-3.94812,11.6809,11.6809,0,0,1,0-9.66938,12.31261,12.31261,0,0,1,2.90063-3.9475,13.92013,13.92013,0,0,1,4.27062-2.65937,14.19927,14.19927,0,0,1,5.31812-.96688,13.46322,13.46322,0,0,1,9.42688,3.62625A11.49176,11.49176,0,0,1,253.61875,302.32675ZM228.64,208.85925a9.81857,9.81857,0,0,1,3.30375-7.3325,11.69544,11.69544,0,0,1,15.95375,0,9.82752,9.82752,0,0,1,3.30375,7.3325L249.59,276.70363a8.90075,8.90075,0,0,1-3.06188,6.36562,9.94108,9.94108,0,0,1-13.53687,0,8.5513,8.5513,0,0,1-2.74-6.36562Z"/></svg>