<svg id="Calque_1" data-name="Calque 1" xmlns="http://www.w3.org/2000/svg" width="480" height="480" viewBox="0 0 480 480"><defs><style>.cls-1{fill:#99e6d1;}</style></defs><rect class="cls-1" width="480" height="480" transform="translate(480 480) rotate(180)"/><g id="Tracé_1117" data-name="Tracé 1117"><path d="M399.79688,140.67432a6.22883,6.22883,0,0,1-4.41895-1.83057L364.0918,107.55811l-31.28614,31.28564a6.24968,6.24968,0,0,1-8.83789-8.83887l40.124-40.12451,40.124,40.12451a6.25,6.25,0,0,1-4.41894,10.66944Z"/></g><g id="Ligne_260" data-name="Ligne 260"><path d="M364.0918,385.79932a6.24984,6.24984,0,0,1-6.25-6.25V98.69922a6.25,6.25,0,0,1,12.5,0v280.8501A6.24984,6.24984,0,0,1,364.0918,385.79932Z"/></g><g id="Tracé_1117-2" data-name="Tracé 1117-2"><path d="M115.502,389.81787l-40.12451-40.124a6.25,6.25,0,1,1,8.83887-8.83887L115.502,372.14014,146.7876,340.855a6.25,6.25,0,1,1,8.83886,8.83887Z"/></g><g id="Ligne_260-2" data-name="Ligne 260-2"><path d="M115.502,387.249a6.25015,6.25015,0,0,1-6.25-6.25V100.14941a6.25,6.25,0,0,1,12.5,0V380.999A6.25015,6.25015,0,0,1,115.502,387.249Z"/></g><g id="Tracé_1117-3" data-name="Tracé 1117-3"><path d="M240.502,389.81787l-40.12451-40.124a6.25,6.25,0,1,1,8.83887-8.83887L240.502,372.14014,271.78809,340.855a6.24968,6.24968,0,1,1,8.83789,8.83887Z"/></g><g id="Ligne_260-3" data-name="Ligne 260-3"><path d="M240.502,387.249a6.25015,6.25015,0,0,1-6.25-6.25V100.14941a6.25,6.25,0,0,1,12.5,0V380.999A6.24984,6.24984,0,0,1,240.502,387.249Z"/></g></svg>