<svg id="Calque_1" data-name="Calque 1" xmlns="http://www.w3.org/2000/svg" width="480" height="480" viewBox="0 0 480 480"><defs><style>.cls-1{fill:#99e6d1;}</style></defs><rect class="cls-1" width="480" height="480"/><g id="Tracé_1117" data-name="Tracé 1117"><path d="M115.9082,390.12012l-40.12451-40.125a6.24968,6.24968,0,0,1,8.83887-8.83789l31.28564,31.28515,31.28565-31.28515a6.24967,6.24967,0,0,1,8.83886,8.83789Z"/></g><g id="Ligne_260" data-name="Ligne 260"><path d="M115.9082,387.55078a6.24984,6.24984,0,0,1-6.25-6.25V100.45068a6.25,6.25,0,0,1,12.5,0v280.8501A6.24984,6.24984,0,0,1,115.9082,387.55078Z"/></g><g id="Tracé_1117-2" data-name="Tracé 1117-2"><path d="M400.20312,140.97559a6.22882,6.22882,0,0,1-4.41894-1.83057l-31.28613-31.28516L333.21191,139.145a6.24968,6.24968,0,1,1-8.83789-8.83887l40.124-40.124,40.124,40.124a6.24952,6.24952,0,0,1-4.41895,10.66944Z"/></g><g id="Ligne_260-2" data-name="Ligne 260-2"><path d="M364.49805,386.10059a6.24953,6.24953,0,0,1-6.25-6.25V99.001a6.25,6.25,0,1,1,12.5,0V379.85059A6.24953,6.24953,0,0,1,364.49805,386.10059Z"/></g><g id="Tracé_1117-3" data-name="Tracé 1117-3"><path d="M275.20312,140.97559a6.22882,6.22882,0,0,1-4.41894-1.83057l-31.28613-31.28516L208.2124,139.145a6.25,6.25,0,0,1-8.83886-8.83887l40.12451-40.124,40.124,40.124a6.24952,6.24952,0,0,1-4.41895,10.66944Z"/></g><g id="Ligne_260-3" data-name="Ligne 260-3"><path d="M239.49805,386.10059a6.24985,6.24985,0,0,1-6.25-6.25V99.001a6.25,6.25,0,0,1,12.5,0V379.85059A6.24953,6.24953,0,0,1,239.49805,386.10059Z"/></g></svg>