<svg id="Calque_1" data-name="Calque 1" xmlns="http://www.w3.org/2000/svg" width="480" height="480" viewBox="0 0 480 480"><defs><style>.cls-1{fill:#dc3545;}.cls-2,.cls-3{fill:none;stroke:#fff;stroke-linecap:round;stroke-width:12.5px;}.cls-2{stroke-linejoin:round;}</style></defs><rect class="cls-1" width="480" height="480"/><path class="cls-2" d="M409.76571,268.909c-7.50513,10.4025-16.85251,28.758-50.26888,28.758-46.6294,0-46.39269-35.741-59.68155-35.741s-13.05216,35.741-59.68156,35.741-46.39268-35.741-59.68155-35.741S167.4,297.667,120.77062,297.667c-33.81442,0-42.983-18.79537-50.53633-29.12628"/><path class="cls-2" d="M409.76571,344.99394c-7.50513,10.4025-16.85251,28.758-50.26888,28.758-46.6294,0-46.39269-35.741-59.68155-35.741s-13.05216,35.741-59.68156,35.741-46.39268-35.741-59.68155-35.741-13.05216,35.741-59.68155,35.741c-33.81442,0-42.983-18.79536-50.53633-29.12628"/><path id="Tracé_1117-2" data-name="Tracé 1117-2" class="cls-3" d="M275.705,181.35112,240,217.05612l-35.705-35.705"/><line id="Ligne_260-2" data-name="Ligne 260-2" class="cls-2" x1="240" y1="217.07612" x2="239.99703" y2="106.24809"/></svg>