<svg id="Calque_1" data-name="Calque 1" xmlns="http://www.w3.org/2000/svg" width="480" height="480" viewBox="0 0 480 480"><defs><style>.cls-1{fill:#dc3545;}.cls-2,.cls-3{fill:none;stroke:#fff;stroke-linecap:round;stroke-width:12.5px;}.cls-2{stroke-linejoin:round;}</style></defs><rect class="cls-1" width="480" height="480"/><path class="cls-2" d="M409.76571,113.23109c-7.50513,10.4025-16.85251,28.758-50.26888,28.758-46.6294,0-46.39269-35.741-59.68155-35.741s-13.05216,35.741-59.68156,35.741-46.39268-35.741-59.68155-35.741-13.05216,35.741-59.68155,35.741c-33.81442,0-42.983-18.79537-50.53633-29.12629"/><path class="cls-2" d="M409.76571,189.316c-7.50513,10.40251-16.85251,28.758-50.26888,28.758-46.6294,0-46.39269-35.741-59.68155-35.741s-13.05216,35.741-59.68156,35.741-46.39268-35.741-59.68155-35.741S167.4,218.074,120.77062,218.074c-33.81442,0-42.983-18.79537-50.53633-29.12628"/><path id="Tracé_1117-2" data-name="Tracé 1117-2" class="cls-3" d="M204.295,298.64888,240,262.94388l35.705,35.705"/><line id="Ligne_260-2" data-name="Ligne 260-2" class="cls-2" x1="240" y1="262.92388" x2="240.00297" y2="373.75191"/></svg>