<svg id="Calque_1" data-name="Calque 1" xmlns="http://www.w3.org/2000/svg" width="480" height="480" viewBox="0 0 480 480"><defs><style>.cls-1{fill:#ffc134;}.cls-2{fill:none;stroke:#000;stroke-linecap:round;stroke-linejoin:round;stroke-width:12.5px;}</style></defs><rect class="cls-1" y="1.44218" width="480" height="480"/><circle class="cls-2" cx="373.04537" cy="373.83031" r="16.73171" transform="translate(-55.06417 64.58256) rotate(-9.2175)"/><path class="cls-2" d="M399.81615,342.75171,216.08789,171.21718a76.07095,76.07095,0,0,0-98.03966-96.28285,21.68714,21.68714,0,0,1,1.91569,1.68441l53.04693,53.04693a21.56676,21.56676,0,0,1,0,30.49986l-14.94468,14.94469a21.56636,21.56636,0,0,1-30.49986,0L74.51937,122.06328a21.72289,21.72289,0,0,1-1.68462-1.91546,76.0604,76.0604,0,0,0,98.18891,97.35856L341.96649,400.60115a40.90581,40.90581,0,0,0,57.84966-57.84944ZM373.04531,390.5622a16.73189,16.73189,0,1,1,16.73189-16.73189A16.73184,16.73184,0,0,1,373.04531,390.5622Z"/><polyline class="cls-2" points="271.577 221.36 355.636 137.301 376.083 142.877 411.401 81.536 404.342 74.477 397.282 67.418 335.941 102.736 341.518 123.182 257.459 207.241"/><path class="cls-2" d="M241.25219,293.463l-96.3388,96.3388a38.6913,38.6913,0,0,1-54.55737,0l-.00005-.00006a38.69128,38.69128,0,0,1,0-54.55736l96.33879-96.3388"/><line class="cls-2" x1="205.08965" y1="255.58772" x2="103.7509" y2="356.92647"/><line class="cls-2" x1="222.74812" y1="275.2462" x2="122.40938" y2="375.58494"/></svg>