<svg id="Calque_1" data-name="Calque 1" xmlns="http://www.w3.org/2000/svg" width="480" height="480" viewBox="0 0 480 480"><defs><style>.cls-1{fill:#dc3545;}.cls-2{fill:none;stroke:#fff;stroke-linecap:round;stroke-linejoin:round;stroke-width:12.5px;}</style></defs><rect class="cls-1" width="480" height="480"/><path class="cls-2" d="M122.47287,79.69682h147.243A17.13972,17.13972,0,0,1,286.8556,96.83654V356.04583a0,0,0,0,1,0,0H105.33314a0,0,0,0,1,0,0V96.83654A17.13972,17.13972,0,0,1,122.47287,79.69682Z"/><path class="cls-2" d="M107.25542,356.04583H284.93332A17.13972,17.13972,0,0,1,302.073,373.18556v27.11762a0,0,0,0,1,0,0H90.11569a0,0,0,0,1,0,0V373.18556A17.13972,17.13972,0,0,1,107.25542,356.04583Z"/><rect class="cls-2" x="142.83329" y="123.43622" width="106.52216" height="60.00922"/><path class="cls-2" d="M377.97921,193.62763v77.64518c0,45.98209-57.60884,47.19218-57.60884.80678V214.741c0-34.62555-33.51479-31.29552-33.51479-31.29552"/><path class="cls-2" d="M326.093,88.55451l-14.11731,12.90725L349.084,141.39358s-2.96962,61.10779,28.89517,52.23405C400.746,187.28751,394.66278,152.0824,326.093,88.55451Z"/></svg>