<svg id="Calque_1" data-name="Calque 1" xmlns="http://www.w3.org/2000/svg" width="480" height="480" viewBox="0 0 480 480"><defs><style>.cls-1{fill:#99e6d1;}.cls-2{fill:none;stroke:#000;stroke-linecap:round;stroke-linejoin:round;stroke-width:12.5px;}</style></defs><rect class="cls-1" width="480" height="480"/><path class="cls-2" d="M167.00849,300.93378v37.50166A23.82145,23.82145,0,0,1,143.187,362.25689h0a23.82145,23.82145,0,0,1-23.82145-23.82145V300.93378Z"/><path class="cls-2" d="M359.61561,300.93378v37.50166a23.82145,23.82145,0,0,1-23.82145,23.82145h0a23.82145,23.82145,0,0,1-23.82145-23.82145V300.93378Z"/><path class="cls-2" d="M240.41919,209.9322a34.44588,34.44588,0,1,1,68.89175,0"/><circle class="cls-2" cx="153.12713" cy="258.95918" r="13.88136"/><circle class="cls-2" cx="325.85402" cy="258.95918" r="13.88136"/><path class="cls-2" d="M329.2077,138.98785l28.9274,75.05H121.8649l28.9274-75.05a33.1768,33.1768,0,0,1,30.95683-21.24474H298.25087A33.1768,33.1768,0,0,1,329.2077,138.98785Z"/><rect class="cls-2" x="106.07101" y="214.03785" width="267.85797" height="86.89593"/><line class="cls-2" x1="371.5599" y1="182.45007" x2="366.03204" y2="182.45007"/><line class="cls-2" x1="113.96796" y1="182.45007" x2="108.4401" y2="182.45007"/></svg>