<svg id="Calque_1" data-name="Calque 1" xmlns="http://www.w3.org/2000/svg" width="480" height="480" viewBox="0 0 480 480"><defs><style>.cls-1,.cls-3{fill:#dc3545;}.cls-2{fill:none;stroke:#fff;stroke-width:12.5px;}.cls-2,.cls-3{stroke-linecap:round;stroke-linejoin:round;}.cls-3{stroke:#dc3545;stroke-width:80px;}</style></defs><rect class="cls-1" width="480" height="480"/><path class="cls-2" d="M102.71134,196.809v26.34915a16.73726,16.73726,0,0,1-16.73726,16.73726h0a16.73726,16.73726,0,0,1-16.73726-16.73726V196.809Z"/><path class="cls-2" d="M238.0396,196.809v26.34915a16.73726,16.73726,0,0,1-16.73725,16.73726h0a16.73726,16.73726,0,0,1-16.73726-16.73726V196.809Z"/><path class="cls-2" d="M154.29065,132.87011a24.20212,24.20212,0,1,1,48.40424,0"/><circle class="cls-2" cx="92.95812" cy="167.3171" r="9.75322"/><circle class="cls-2" cx="214.31827" cy="167.3171" r="9.75322"/><path class="cls-2" d="M216.67461,83.02369l20.32477,52.73111H70.99287L91.31764,83.02369a23.31043,23.31043,0,0,1,21.75067-14.92682h81.85563A23.31044,23.31044,0,0,1,216.67461,83.02369Z"/><rect class="cls-2" x="59.89588" y="135.7548" width="188.20049" height="61.05421"/><line class="cls-2" x1="246.43182" y1="113.56081" x2="242.54787" y2="113.56081"/><line class="cls-2" x1="65.44438" y1="113.56081" x2="61.56043" y2="113.56081"/><path class="cls-3" d="M188.7152,282.81287V309.162a16.73726,16.73726,0,0,1-16.73726,16.73726h0A16.73726,16.73726,0,0,1,155.24065,309.162V282.81287Z"/><path class="cls-3" d="M324.04346,282.81287V309.162a16.73726,16.73726,0,0,1-16.73725,16.73726h0A16.73726,16.73726,0,0,1,290.56891,309.162V282.81287Z"/><path class="cls-3" d="M240.29451,218.874a24.20212,24.20212,0,0,1,48.40424,0"/><circle class="cls-3" cx="178.96198" cy="253.32096" r="9.75322"/><circle class="cls-3" cx="300.32213" cy="253.32096" r="9.75322"/><path class="cls-3" d="M302.67847,169.02755l20.32476,52.73111H156.99673l20.32477-52.73111a23.31043,23.31043,0,0,1,21.75067-14.92683H280.9278A23.31045,23.31045,0,0,1,302.67847,169.02755Z"/><rect class="cls-3" x="145.89974" y="221.75866" width="188.20049" height="61.05421"/><line class="cls-3" x1="332.43568" y1="199.56467" x2="328.55173" y2="199.56467"/><line class="cls-3" x1="151.44824" y1="199.56467" x2="147.56429" y2="199.56467"/><path class="cls-2" d="M188.7152,282.81287V309.162a16.73726,16.73726,0,0,1-16.73726,16.73726h0A16.73726,16.73726,0,0,1,155.24065,309.162V282.81287Z"/><path class="cls-2" d="M324.04346,282.81287V309.162a16.73726,16.73726,0,0,1-16.73725,16.73726h0A16.73726,16.73726,0,0,1,290.56891,309.162V282.81287Z"/><path class="cls-2" d="M240.29451,218.874a24.20212,24.20212,0,0,1,48.40424,0"/><circle class="cls-2" cx="178.96198" cy="253.32096" r="9.75322"/><circle class="cls-2" cx="300.32213" cy="253.32096" r="9.75322"/><path class="cls-2" d="M302.67847,169.02755l20.32476,52.73111H156.99673l20.32477-52.73111a23.31043,23.31043,0,0,1,21.75067-14.92683H280.9278A23.31045,23.31045,0,0,1,302.67847,169.02755Z"/><rect class="cls-2" x="145.89974" y="221.75866" width="188.20049" height="61.05421"/><line class="cls-2" x1="332.43568" y1="199.56467" x2="328.55173" y2="199.56467"/><line class="cls-2" x1="151.44824" y1="199.56467" x2="147.56429" y2="199.56467"/><path class="cls-3" d="M274.71909,368.81673v26.34915a16.73725,16.73725,0,0,1-16.73726,16.73725h0a16.73726,16.73726,0,0,1-16.73726-16.73725V368.81673Z"/><path class="cls-3" d="M410.04736,368.81673v26.34915a16.73726,16.73726,0,0,1-16.73726,16.73725h0a16.73725,16.73725,0,0,1-16.73726-16.73725V368.81673Z"/><path class="cls-3" d="M326.2984,304.87783a24.20212,24.20212,0,0,1,48.40424,0"/><circle class="cls-3" cx="264.96587" cy="339.32482" r="9.75322"/><circle class="cls-3" cx="386.32603" cy="339.32482" r="9.75322"/><path class="cls-3" d="M388.68236,255.03141l20.32477,52.73111H243.00062l20.32477-52.73111a23.31045,23.31045,0,0,1,21.75067-14.92683h81.85563A23.31044,23.31044,0,0,1,388.68236,255.03141Z"/><rect class="cls-3" x="231.90363" y="307.76252" width="188.20049" height="61.05421"/><line class="cls-3" x1="418.43957" y1="285.56853" x2="414.55562" y2="285.56853"/><line class="cls-3" x1="237.45213" y1="285.56853" x2="233.56818" y2="285.56853"/><path class="cls-2" d="M274.71909,368.81673v26.34915a16.73725,16.73725,0,0,1-16.73726,16.73725h0a16.73726,16.73726,0,0,1-16.73726-16.73725V368.81673Z"/><path class="cls-2" d="M410.04736,368.81673v26.34915a16.73726,16.73726,0,0,1-16.73726,16.73725h0a16.73725,16.73725,0,0,1-16.73726-16.73725V368.81673Z"/><path class="cls-2" d="M326.2984,304.87783a24.20212,24.20212,0,0,1,48.40424,0"/><circle class="cls-2" cx="264.96587" cy="339.32482" r="9.75322"/><circle class="cls-2" cx="386.32603" cy="339.32482" r="9.75322"/><path class="cls-2" d="M388.68236,255.03141l20.32477,52.73111H243.00062l20.32477-52.73111a23.31045,23.31045,0,0,1,21.75067-14.92683h81.85563A23.31044,23.31044,0,0,1,388.68236,255.03141Z"/><rect class="cls-2" x="231.90363" y="307.76252" width="188.20049" height="61.05421"/><line class="cls-2" x1="418.43957" y1="285.56853" x2="414.55562" y2="285.56853"/><line class="cls-2" x1="237.45213" y1="285.56853" x2="233.56818" y2="285.56853"/></svg>