<svg id="Calque_1" data-name="Calque 1" xmlns="http://www.w3.org/2000/svg" width="480" height="480" viewBox="0 0 480 480"><defs><style>.cls-1,.cls-2{fill:#ffc134;}.cls-2{stroke:#ffc134;stroke-width:80px;}.cls-2,.cls-3{stroke-linecap:round;stroke-linejoin:round;}.cls-3{fill:none;stroke:#000;stroke-width:12.5px;}</style></defs><rect class="cls-1" width="480" height="480"/><path class="cls-2" d="M126.85592,239.77313v31.619a20.08471,20.08471,0,0,1-20.08471,20.08471h0A20.08471,20.08471,0,0,1,86.68646,271.3921v-31.619Z"/><path class="cls-2" d="M289.24984,239.77313v31.619a20.08471,20.08471,0,0,1-20.08471,20.08471h0a20.08471,20.08471,0,0,1-20.08471-20.08471v-31.619Z"/><path class="cls-2" d="M188.7511,163.04645a29.04254,29.04254,0,1,1,58.08508,0"/><circle class="cls-2" cx="115.15206" cy="204.38284" r="11.70386"/><circle class="cls-2" cx="260.78424" cy="204.38284" r="11.70386"/><path class="cls-2" d="M263.61185,103.23074l24.38972,63.27733H88.79376l24.38972-63.27733a27.97253,27.97253,0,0,1,26.1008-17.91219h98.22677A27.97253,27.97253,0,0,1,263.61185,103.23074Z"/><rect class="cls-2" x="75.47737" y="166.50807" width="225.84059" height="73.26505"/><line class="cls-2" x1="299.3205" y1="139.87529" x2="294.65976" y2="139.87529"/><line class="cls-2" x1="82.13557" y1="139.87529" x2="77.47483" y2="139.87529"/><path class="cls-3" d="M126.85592,239.77313v31.619a20.08471,20.08471,0,0,1-20.08471,20.08471h0A20.08471,20.08471,0,0,1,86.68646,271.3921v-31.619Z"/><path class="cls-3" d="M289.24984,239.77313v31.619a20.08471,20.08471,0,0,1-20.08471,20.08471h0a20.08471,20.08471,0,0,1-20.08471-20.08471v-31.619Z"/><path class="cls-3" d="M188.7511,163.04645a29.04254,29.04254,0,1,1,58.08508,0"/><circle class="cls-3" cx="115.15206" cy="204.38284" r="11.70386"/><circle class="cls-3" cx="260.78424" cy="204.38284" r="11.70386"/><path class="cls-3" d="M263.61185,103.23074l24.38972,63.27733H88.79376l24.38972-63.27733a27.97253,27.97253,0,0,1,26.1008-17.91219h98.22677A27.97253,27.97253,0,0,1,263.61185,103.23074Z"/><rect class="cls-3" x="75.47737" y="166.50807" width="225.84059" height="73.26505"/><line class="cls-3" x1="299.3205" y1="139.87529" x2="294.65976" y2="139.87529"/><line class="cls-3" x1="82.13557" y1="139.87529" x2="77.47483" y2="139.87529"/><path class="cls-2" d="M230.0606,342.97776v31.619a20.08472,20.08472,0,0,1-20.08472,20.08471h0a20.08472,20.08472,0,0,1-20.08471-20.08471v-31.619Z"/><path class="cls-2" d="M392.45451,342.97776v31.619a20.08472,20.08472,0,0,1-20.08471,20.08471h0a20.08472,20.08472,0,0,1-20.08471-20.08471v-31.619Z"/><path class="cls-2" d="M291.95577,266.25108a29.04254,29.04254,0,0,1,58.08509,0"/><circle class="cls-2" cx="218.35673" cy="307.58747" r="11.70386"/><circle class="cls-2" cx="363.98892" cy="307.58747" r="11.70386"/><path class="cls-2" d="M366.81652,206.43538l24.38972,63.27732H191.99843l24.38972-63.27732a27.97252,27.97252,0,0,1,26.1008-17.91219h98.22677A27.97252,27.97252,0,0,1,366.81652,206.43538Z"/><rect class="cls-2" x="178.68204" y="269.7127" width="225.84059" height="73.26505"/><line class="cls-2" x1="402.52517" y1="243.07992" x2="397.86443" y2="243.07992"/><line class="cls-2" x1="185.34024" y1="243.07992" x2="180.6795" y2="243.07992"/><path class="cls-3" d="M230.0606,342.97776v31.619a20.08472,20.08472,0,0,1-20.08472,20.08471h0a20.08472,20.08472,0,0,1-20.08471-20.08471v-31.619Z"/><path class="cls-3" d="M392.45451,342.97776v31.619a20.08472,20.08472,0,0,1-20.08471,20.08471h0a20.08472,20.08472,0,0,1-20.08471-20.08471v-31.619Z"/><path class="cls-3" d="M291.95577,266.25108a29.04254,29.04254,0,0,1,58.08509,0"/><circle class="cls-3" cx="218.35673" cy="307.58747" r="11.70386"/><circle class="cls-3" cx="363.98892" cy="307.58747" r="11.70386"/><path class="cls-3" d="M366.81652,206.43538l24.38972,63.27732H191.99843l24.38972-63.27732a27.97252,27.97252,0,0,1,26.1008-17.91219h98.22677A27.97252,27.97252,0,0,1,366.81652,206.43538Z"/><rect class="cls-3" x="178.68204" y="269.7127" width="225.84059" height="73.26505"/><line class="cls-3" x1="402.52517" y1="243.07992" x2="397.86443" y2="243.07992"/><line class="cls-3" x1="185.34024" y1="243.07992" x2="180.6795" y2="243.07992"/></svg>