<?xml version="1.0" encoding="UTF-8"?><svg id="ds44-icons" xmlns="http://www.w3.org/2000/svg" viewBox="0 0 406.41 480"><defs><style>.cls-1{fill:#1d1d1b;}</style></defs><path class="cls-1" d="m319.93,176.82c-2.25-2.03-5.67-2-7.88.07-2.21,2.06-2.48,5.47-.61,7.86,15.83,17.01,24.27,39.61,23.46,62.83-.81,23.22-10.8,45.18-27.78,61.04-2.35,2.2-2.48,5.88-.29,8.24,2.19,2.35,5.88,2.48,8.24.29,19.25-17.97,30.57-42.84,31.49-69.15.92-26.31-8.66-51.91-26.62-71.17h0Z"/><path class="cls-1" d="m344.6,176.82c-2.25-2.03-5.67-2-7.88.07-2.21,2.06-2.48,5.47-.61,7.86,15.83,17.01,24.27,39.61,23.46,62.83-.81,23.22-10.8,45.18-27.78,61.04-2.35,2.2-2.48,5.88-.29,8.24,2.19,2.35,5.88,2.48,8.24.29,19.25-17.97,30.57-42.84,31.49-69.15.92-26.31-8.66-51.91-26.62-71.17h0Z"/><path class="cls-1" d="m369.27,176.82c-2.25-2.03-5.67-2-7.88.07-2.21,2.06-2.48,5.47-.61,7.86,15.83,17.01,24.27,39.61,23.46,62.83-.81,23.22-10.8,45.18-27.78,61.04-2.35,2.2-2.48,5.88-.29,8.24,2.19,2.35,5.88,2.48,8.24.29,19.25-17.97,30.57-42.84,31.49-69.15.92-26.31-8.66-51.91-26.62-71.17h0Z"/><path class="cls-1" d="m176.24,174.87h66.24c13.06,0,23.6,1.77,31.64,5.31,8.04,3.54,14.68,8.63,19.93,15.25,5.25,6.63,9.05,14.34,11.42,23.13,2.36,8.79,3.54,18.11,3.54,27.95,0,15.42-1.76,27.38-5.27,35.87-3.51,8.5-8.38,15.62-14.62,21.36-6.23,5.74-12.93,9.56-20.08,11.47-9.78,2.62-18.63,3.94-26.57,3.94h-66.24v-144.28Zm44.59,32.68v78.83h10.92c9.32,0,15.94-1.03,19.88-3.1,3.94-2.07,7.02-5.67,9.25-10.83,2.23-5.15,3.35-13.5,3.35-25.05,0-15.29-2.49-25.75-7.48-31.4-4.99-5.64-13.25-8.46-24.8-8.46h-11.12Z"/><path class="cls-1" d="m122.11,302.93h-46.84l-12.09,16.62H16.35l101.98-144.28h42.3v144.28s-38.53,0-38.53,0v-16.62Zm0-33.24v-40.04l-23.42,38.53,23.42,1.51Z"/></svg>