<?xml version="1.0" encoding="UTF-8"?><svg id="ds44-icons" xmlns="http://www.w3.org/2000/svg" viewBox="0 0 610.69 480"><path d="m486.73,127.79c-3.58-3.23-9.04-3.19-12.57.1-3.53,3.29-3.95,8.72-.98,12.52,25.24,27.12,38.69,63.14,37.39,100.16-1.29,37.02-17.22,72.02-44.29,97.31-3.75,3.5-3.96,9.38-.46,13.13,3.5,3.75,9.38,3.96,13.13.46,30.68-28.64,48.74-68.29,50.19-110.24,1.46-41.95-13.8-82.75-42.43-113.45h0Z"/><path d="m526.06,127.79c-3.58-3.23-9.04-3.19-12.57.1-3.53,3.29-3.95,8.72-.98,12.52,25.24,27.12,38.69,63.14,37.39,100.16-1.29,37.02-17.22,72.02-44.29,97.31-3.75,3.5-3.96,9.38-.46,13.13,3.5,3.75,9.38,3.96,13.13.46,30.68-28.64,48.74-68.29,50.19-110.24,1.46-41.95-13.8-82.75-42.43-113.45h0Z"/><path d="m565.39,127.79c-3.58-3.23-9.04-3.19-12.57.1-3.53,3.29-3.95,8.72-.98,12.52,25.24,27.12,38.69,63.14,37.39,100.16-1.29,37.02-17.22,72.02-44.29,97.31-3.75,3.5-3.96,9.38-.46,13.13,3.5,3.75,9.38,3.96,13.13.46,30.68-28.64,48.74-68.29,50.19-110.24,1.46-41.95-13.8-82.75-42.43-113.45h0Z"/><path d="m257.66,124.68h105.59c20.81,0,37.63,2.82,50.44,8.47,12.81,5.65,23.4,13.76,31.77,24.32,8.37,10.57,14.43,22.86,18.2,36.87,3.77,14.02,5.65,28.87,5.65,44.56,0,24.58-2.8,43.64-8.39,57.19-5.6,13.55-13.36,24.89-23.3,34.05-9.94,9.15-20.61,15.25-32.01,18.28-15.59,4.18-29.71,6.28-42.36,6.28h-105.59V124.68Zm71.08,52.09v125.67h17.41c14.85,0,25.42-1.65,31.69-4.94,6.28-3.29,11.19-9.05,14.75-17.26,3.55-8.21,5.33-21.52,5.33-39.93,0-24.37-3.98-41.05-11.92-50.05-7.95-9-21.13-13.49-39.54-13.49h-17.73Z"/><path d="m171.37,328.83h-74.66l-19.27,26.49H2.77L165.35,125.31h67.44v230.01s-61.42,0-61.42,0v-26.49Zm0-52.99v-63.83l-37.33,61.42,37.33,2.41Z"/></svg>