<?xml version="1.0" encoding="utf-8"?>
<!-- Generator: Adobe Illustrator 26.0.3, SVG Export Plug-In . SVG Version: 6.00 Build 0)  -->
<svg version="1.1" id="ds44-icons" xmlns="http://www.w3.org/2000/svg" xmlns:xlink="http://www.w3.org/1999/xlink" x="0px" y="0px"
	 viewBox="0 0 450 480" style="enable-background:new 0 0 450 480;" xml:space="preserve">
<path d="M382.6,297v-91.5c0-68.9-44.5-127.3-106.3-148.3c-4.3-24.6-25.6-43.3-51.4-43.3c-25.9,0-47.3,18.9-51.4,43.6
	C112.1,78.8,68.1,137,68.1,205.5V297c-32.8,22.8-52.3,60.2-52.3,100.2c0,9.6,7.8,17.4,17.4,17.4h124.4c7.8,30,34.8,52.3,67.2,52.3
	s59.5-22.3,67.2-52.3h124.4c9.6,0,17.4-7.8,17.4-17.4C434.2,357.4,415,320,382.6,297z M242.4,427.3c-16.6,9.7-38,4-47.6-12.7h60.3
	C252,419.9,247.6,424.2,242.4,427.3z M277.2,379.8H172.6H52.4c5-24.4,20.2-45.6,41.8-58c5.4-3.1,8.7-8.9,8.7-15.2v-101
	c0-67.4,54.6-122,122-122s122,54.6,122,122v101.1c0,6.2,3.3,12,8.7,15.2c21.6,12.5,36.8,33.6,41.8,58H277.2V379.8z"/>
</svg>
