<?xml version="1.0" encoding="utf-8"?>
<!-- Generator: Adobe Illustrator 26.0.3, SVG Export Plug-In . SVG Version: 6.00 Build 0)  -->
<svg version="1.1" id="ds44-icons" xmlns="http://www.w3.org/2000/svg" xmlns:xlink="http://www.w3.org/1999/xlink" x="0px" y="0px"
	 viewBox="0 0 450 480" style="enable-background:new 0 0 450 480;" xml:space="preserve">
<style type="text/css">
	.st0{fill:none;}
</style>
<path class="st0" d="M370.2,128.2c-10.1,0.9-19-6.6-19.9-16.7c-0.1-1.5-0.1-3.1,0.2-4.6c2.3-14-4.9-24.9-9.4-30.2
	c-8.5-10-21.2-16.5-32.4-16.6c-6.7,0.1-13.3,1.6-19.4,4.5l-8.4,4c-6.3,3-13.8,2.2-19.3-2.1l-7.3-5.8c-35.8-28.1-87.5-21.8-115.6,14
	c-2.4,3-4.5,6.2-6.4,9.5l-4.6,8c-3.5,6-10.1,9.6-17,9.1l-9.2-0.6c-1-0.1-1.9-0.1-2.9-0.1c-22.3,0-41.7,15.3-47,36.9v0.1
	c-3.9,15.1-0.6,31.2,8.8,43.7c8.9,11.4,22.5,18,36.9,17.9h269.5c7,0,19.9-1.3,27.1-9.6c5.8-6.7,7.6-17.4,5.5-31.9
	C396.1,135.8,380.4,127.2,370.2,128.2z"/>
<path d="M382.7,296.6v-91.5c0-68.9-44.5-127.3-106.3-148.3c-4.3-24.6-25.6-43.3-51.4-43.3c-25.9,0-47.3,18.9-51.4,43.6
	c-61.4,21.3-105.4,79.5-105.4,148v91.5c-32.8,22.8-52.3,60.2-52.3,100.2c0,9.6,7.8,17.4,17.4,17.4h124.4c7.8,30,34.8,52.3,67.2,52.3
	s59.5-22.3,67.2-52.3h124.4c9.6,0,17.4-7.8,17.4-17.4C434.3,357,415.1,319.6,382.7,296.6z M242.5,426.9c-16.6,9.7-38,4-47.6-12.7
	h60.3C252.1,419.5,247.7,423.8,242.5,426.9z M277.3,379.4H172.7H52.5c5-24.4,20.2-45.6,41.8-58c5.4-3.1,8.7-8.9,8.7-15.2V205.2
	c0-67.4,54.6-122,122-122s122,54.6,122,122v101.1c0,6.2,3.3,12,8.7,15.2c21.6,12.5,36.8,33.6,41.8,58H277.3z"/>
</svg>
