<?xml version="1.0" encoding="utf-8"?>
<!-- Generator: Adobe Illustrator 26.0.3, SVG Export Plug-In . SVG Version: 6.00 Build 0)  -->
<svg version="1.1" id="ds44-icons" xmlns="http://www.w3.org/2000/svg" xmlns:xlink="http://www.w3.org/1999/xlink" x="0px" y="0px"
	 viewBox="0 0 406.4 480" style="enable-background:new 0 0 406.4 480;" xml:space="preserve">
<path d="M337.8,54.8c-36.1-12-83.9-18.7-134.6-18.7c-50.6,0-98.4,6.6-134.6,18.7C16.4,72.2,5.5,95,5.5,111v258
	c0,16,11,38.8,63.2,56.2c36.2,12.1,83.9,18.7,134.5,18.7c50.6,0,98.4-6.6,134.5-18.7C390,407.8,401,385,401,369V111
	C401,95,390,72.2,337.8,54.8z M77.2,80.4c33.5-11.2,78.2-17.3,126-17.3c47.8,0,92.6,6.1,126,17.3C360.1,90.7,374,103.2,374,111
	s-13.8,20.3-44.7,30.6c-33.5,11.2-78.2,17.3-126,17.3c-47.8,0-92.6-6.1-126-17.3c-30.9-10.3-44.7-22.8-44.7-30.6
	S46.3,90.7,77.2,80.4z M329.2,399.6c-33.5,11.2-78.2,17.3-126,17.3c-47.8,0-92.5-6.1-126-17.3c-30.9-10.3-44.8-22.8-44.8-30.6v-46.2
	c36.2,23.2,103.8,35.2,170.8,35.2c50.6,0,98.4-6.6,134.5-18.7c15.4-5.1,27.2-10.7,36.2-16.5V369C374,376.8,360.1,389.3,329.2,399.6z
	 M329.2,313.6c-33.5,11.2-78.2,17.3-126,17.3c-47.8,0-92.5-6.1-126-17.3c-30.9-10.3-44.8-22.8-44.8-30.6v-46.3
	c9,5.8,20.8,11.4,36.2,16.5c36.2,12.1,83.9,18.7,134.5,18.7s98.4-6.6,134.5-18.7c15.4-5.1,27.2-10.7,36.2-16.5V283
	C374,290.8,360.1,303.3,329.2,313.6z M329.2,227.6c-33.5,11.2-78.2,17.3-126,17.3c-47.8,0-92.5-6.1-126-17.3
	c-30.9-10.3-44.8-22.8-44.8-30.6v-46.2c9,5.8,20.8,11.3,36.2,16.5c36.1,12,83.9,18.7,134.6,18.7s98.4-6.6,134.6-18.7
	c15.4-5.1,27.2-10.7,36.2-16.5V197C374,204.8,360.1,217.3,329.2,227.6z"/>
</svg>
