<?xml version="1.0" encoding="utf-8"?>
<!-- Generator: Adobe Illustrator 26.0.3, SVG Export Plug-In . SVG Version: 6.00 Build 0)  -->
<svg version="1.1" id="ds44-icons" xmlns="http://www.w3.org/2000/svg" xmlns:xlink="http://www.w3.org/1999/xlink" x="0px" y="0px"
	 viewBox="0 0 406.4 480" style="enable-background:new 0 0 406.4 480;" xml:space="preserve">
<g>
	<path d="M385,58.2H21.4c-7.7,0-14,6.3-14,14v55.9c0,7.7,6.3,14,14,14H329v251.7H77.4V184.1c0-7.7-6.3-14-14-14s-14,6.3-14,14v223.7
		c0,7.7,6.3,14,14,14H343c7.7,0,14-6.2,14-14V142.1h28c7.7,0,14-6.3,14-14V72.2C398.9,64.5,392.7,58.2,385,58.2z M371,114.2H35.4
		v-28H371V114.2z"/>
	<path d="M287.1,254c7.7,0,14-6.3,14-14v-55.9c0-7.7-6.2-14-14-14H119.3c-7.7,0-14,6.3-14,14V240c0,7.7,6.3,14,14,14H287.1z
		 M133.3,198.1h139.8v28H133.3V198.1z"/>
</g>
</svg>
