<?xml version="1.0" encoding="utf-8"?>
<!-- Generator: Adobe Illustrator 26.0.3, SVG Export Plug-In . SVG Version: 6.00 Build 0)  -->
<svg version="1.1" id="ds44-icons" xmlns="http://www.w3.org/2000/svg" xmlns:xlink="http://www.w3.org/1999/xlink" x="0px" y="0px"
	 viewBox="0 0 450 480" style="enable-background:new 0 0 450 480;" xml:space="preserve">
<g>
	<path d="M384.5,57.8H65.5c-23.7,0-43,18.2-43,40.5v283.5c0,22.3,19.3,40.5,43,40.5h318.9c23.7,0,43-18.2,43-40.5V98.2
		C427.5,75.9,408.2,57.8,384.5,57.8z M384.5,381.8H65.5c-1.2,0-1.9-0.3-2.3-0.3c-0.1,0-0.2,0-0.2,0.2L62.8,99.2
		c0.1-0.2,1.1-0.9,2.8-0.9h318.9c1.6,0,2.5,0.6,2.5,0.2l0.2,282.4C387.1,381,386.2,381.8,384.5,381.8z"/>
	<path d="M103.5,138.8H225v121.5H103.5V138.8z M245.2,300.8H103.5v40.5h243v-40.5h-81H245.2z M265.5,219.8h81v40.5h-81V219.8z
		 M265.5,138.8h81v40.5h-81V138.8z"/>
</g>
</svg>
