<?xml version="1.0" encoding="UTF-8"?><svg id="Capa_1" xmlns="http://www.w3.org/2000/svg" viewBox="0 0 344 512"><defs><style>.cls-1{fill:#181716;}</style></defs><g id="Calque_9"><polygon class="cls-1" points="261.38 47.7 228.89 15.21 196.4 47.7 196.4 75.32 219.38 52.34 219.38 134.31 238.51 134.31 238.51 52.34 261.38 75.32 261.38 47.7"/><polygon class="cls-1" points="121.34 97.17 121.34 15.21 102.21 15.21 102.21 97.17 79.23 74.19 79.23 101.81 111.72 134.31 144.21 101.81 144.21 74.19 121.34 97.17"/><path class="cls-1" d="m321.49,477.44H32.81V185.7c0-5.32-4.3-9.62-9.62-9.62s-9.62,4.3-9.62,9.62v298.75c-.23.79-.57,1.58-.57,2.49,0,5.32,4.3,9.62,9.62,9.62h298.75c5.32,0,9.62-4.3,9.62-9.62s-4.3-9.62-9.62-9.62l.11.11Z"/><circle class="cls-1" cx="125.42" cy="387.21" r="14.26"/><circle class="cls-1" cx="129.83" cy="214.68" r="30" transform="translate(-93.52 328.97) rotate(-85.93)"/><path class="cls-1" d="m263.87,398.98h-19.02l-16.19-51.85c-1.92-6.23-7.7-10.42-14.15-10.42h-31.81c-5.66-6.45-12.34-11.89-19.92-16.19l-.57-2.15h32.72c6.91,0,13.47-4.42,15.06-11.09,2.38-9.74-4.98-18.45-14.38-18.45h-41.43l-6.23-23.09c-1.81-6.68-7.81-11.77-14.72-11.66-10.08.34-16.53,9.62-14.04,18.68l8.72,32.15c.11,1.7.68,3.4,1.36,4.87l.34,1.25h-3.62c-3.28,0-6.57.23-9.74.68l-7.02-26.49c-1.13-4.08-4.53-7.36-8.83-7.58-7.02-.34-11.66,6-10.08,12.23l7.13,26.72c-27.62,11.21-46.98,38.38-46.98,69.96,0,39.85,32.6,73.58,72.34,75.17,43.02,1.7,78.34-32.72,78.34-75.28,0-6.91-.91-13.7-2.72-20.04h4.98l16.19,51.85c1.92,6.23,7.7,10.42,14.15,10.42h30.57c9.4,0,16.64-8.72,14.38-18.45-1.58-6.68-8.15-11.09-15.06-11.09l.23-.11Zm-137.77,42.34c-30.34,0-54.91-24.57-54.91-54.91s24.57-54.91,54.91-54.91,54.91,24.57,54.91,54.91-24.57,54.91-54.91,54.91Z"/></g></svg>