<?xml version="1.0" encoding="utf-8"?>
<!-- Generator: Adobe Illustrator 27.5.0, SVG Export Plug-In . SVG Version: 6.00 Build 0)  -->
<svg version="1.1" id="Capa_1" xmlns="http://www.w3.org/2000/svg" xmlns:xlink="http://www.w3.org/1999/xlink" x="0px" y="0px"
	 viewBox="0 0 322 488" style="enable-background:new 0 0 322 488;" xml:space="preserve">
<style type="text/css">
	.st0{fill:#181716;}
</style>
<g id="Calque_9">
	<polygon class="st0" points="250.4,35.7 217.9,3.2 185.4,35.7 185.4,63.3 208.4,40.3 208.4,122.3 227.5,122.3 227.5,40.3 
		250.4,63.3 	"/>
	<polygon class="st0" points="110.3,85.2 110.3,3.2 91.2,3.2 91.2,85.2 68.2,62.2 68.2,89.8 100.7,122.3 133.2,89.8 133.2,62.2 	"/>
	<path class="st0" d="M310.5,465.4H21.8V173.7c0-5.3-4.3-9.6-9.6-9.6s-9.6,4.3-9.6,9.6v298.8C2.3,473.2,2,474,2,474.9
		c0,5.3,4.3,9.6,9.6,9.6h298.8c5.3,0,9.6-4.3,9.6-9.6s-4.3-9.6-9.6-9.6L310.5,465.4L310.5,465.4z"/>
	
		<ellipse transform="matrix(7.088905e-02 -0.9975 0.9975 7.088905e-02 -267.9572 462.7438)" class="st0" cx="114.4" cy="375.2" rx="14.3" ry="14.3"/>
	<circle class="st0" cx="118.8" cy="202.7" r="30"/>
	<path class="st0" d="M252.9,387h-19l-16.2-51.9c-1.9-6.2-7.7-10.4-14.1-10.4h-31.8c-5.7-6.5-12.3-11.9-19.9-16.2l-0.6-2.1h32.7
		c6.9,0,13.5-4.4,15.1-11.1c2.4-9.7-5-18.5-14.4-18.5h-41.4l-6.2-23.1c-1.8-6.7-7.8-11.8-14.7-11.7c-10.1,0.3-16.5,9.6-14,18.7
		l8.7,32.1c0.1,1.7,0.7,3.4,1.4,4.9l0.3,1.2H115c-3.3,0-6.6,0.2-9.7,0.7l-7-26.5c-1.1-4.1-4.5-7.4-8.8-7.6c-7-0.3-11.7,6-10.1,12.2
		l7.1,26.7c-27.6,11.2-47,38.4-47,70c0,39.9,32.6,73.6,72.3,75.2c43,1.7,78.3-32.7,78.3-75.3c0-6.9-0.9-13.7-2.7-20h5l16.2,51.9
		c1.9,6.2,7.7,10.4,14.1,10.4h30.6c9.4,0,16.6-8.7,14.4-18.5c-1.6-6.7-8.1-11.1-15.1-11.1L252.9,387L252.9,387z M115.1,429.3
		c-30.3,0-54.9-24.6-54.9-54.9s24.6-54.9,54.9-54.9s54.9,24.6,54.9,54.9S145.4,429.3,115.1,429.3z"/>
</g>
</svg>
