<?xml version="1.0" encoding="UTF-8"?><svg id="Capa_1" xmlns="http://www.w3.org/2000/svg" viewBox="0 0 344 512"><defs><style>.cls-1{fill:#181716;}</style></defs><path class="cls-1" d="m21.28,121.36h301.44c5.43,0,9.71-4.28,9.71-9.71s-4.39-9.71-9.71-9.71h-133.32v-54.46l23.13,23.13v-27.87l-32.72-32.84-.12.12-32.72,32.84v27.87l23.13-23.13v54.35H21.28c-5.43,0-9.71,4.28-9.71,9.71s4.39,9.71,9.71,9.71Z"/><path class="cls-1" d="m322.72,390.19H21.28c-5.43,0-9.71,4.28-9.71,9.71s4.39,9.71,9.71,9.71h133.32v54.69l-23.13-23.13v27.87l32.72,32.84,32.72-32.84v-27.87l-23.13,23.13v-54.69h148.93c5.43,0,9.71-4.28,9.71-9.71s-4.39-9.71-9.71-9.71Z"/><path class="cls-1" d="m100.14,370.3c5.43,0,9.83-4.39,9.83-9.83v-137.14c2.08,11.33,6.71,39.89,8.56,51.57.81,4.86,4.97,8.33,9.71,8.33.46,0,1.04,0,1.5-.12,5.32-.81,9.02-5.9,8.09-11.22v-.12c-.81-4.97-7.86-49.26-9.48-56.77-4.05-18.38-20.47-18.38-29.25-18.38h-26.02c-8.79,0-25.09,0-29.25,18.38-1.62,7.4-8.67,51.69-9.48,56.77-.81,5.32,2.78,10.41,8.09,11.22,5.32.81,10.41-2.78,11.22-8.09,1.85-11.68,6.48-40.24,8.56-51.57v137.14c0,5.43,4.39,9.83,9.83,9.83s9.83-4.39,9.83-9.83v-68.68h8.44v68.68c0,5.43,4.39,9.83,9.83,9.83Z"/><circle class="cls-1" cx="86.15" cy="167.49" r="22.09"/><circle class="cls-1" cx="205.36" cy="315.73" r="10.41" transform="translate(-163.11 237.69) rotate(-45)"/><circle class="cls-1" cx="208.6" cy="189.58" r="21.97" transform="translate(-72.95 203.03) rotate(-45)"/><path class="cls-1" d="m274.16,338.39c1.39,4.51,5.55,7.63,10.29,7.63h22.32c6.82,0,12.26-6.36,10.52-13.53-1.16-4.86-5.9-8.09-10.98-8.09l.35-.12h-13.88l-11.79-37.93c-1.39-4.51-5.55-7.63-10.29-7.63h-23.24c-4.16-4.74-9.02-8.67-14.57-11.79l-.46-1.62h23.94c5.09,0,9.83-3.24,10.98-8.09,1.73-7.17-3.7-13.53-10.52-13.53h-30.29l-4.63-16.88c-1.27-4.86-5.67-8.67-10.75-8.44-7.28.23-12.03,7.05-10.29,13.64l6.36,23.47c0,1.27.46,2.43.93,3.58l.23.93h-2.66c-2.43,0-4.74.12-7.05.46l-5.2-19.31c-.81-3.01-3.35-5.43-6.48-5.55-5.09-.23-8.56,4.39-7.4,8.9l5.2,19.54c-20.12,8.21-34.34,28.1-34.34,51.22,0,29.14,23.82,53.77,52.96,54.92,31.45,1.27,57.35-23.94,57.35-55.04,0-5.09-.69-9.94-1.97-14.68h3.58l11.79,37.93Zm-68.22,16.88c-22.2,0-40.12-17.92-40.12-40.12s17.92-40.12,40.12-40.12,40.12,17.92,40.12,40.12-17.92,40.12-40.12,40.12Z"/><ellipse class="cls-1" cx="303.07" cy="150.15" rx="10.29" ry="11.1"/><ellipse class="cls-1" cx="303.07" cy="183.33" rx="10.29" ry="11.1"/><ellipse class="cls-1" cx="303.07" cy="216.52" rx="10.29" ry="11.1"/></svg>