<?xml version="1.0" encoding="UTF-8"?><svg id="ds44-icons" xmlns="http://www.w3.org/2000/svg" viewBox="0 0 769.2 480"><path d="m478.49,341.17c-2.98,1.18-5.96,2.37-9.12,2.96,1.63,16.7-2.83,30.46-7.05,39.33-19.71,41.33-72.74,62.95-114.94,62.95-6.46,0-12.82-.49-18.89-1.44-15.16-2.39-28.07-11.59-35.43-25.25-7.34-13.61-7.92-29.39-1.62-43.3,2.98-6.58,4.32-16.59,5.74-27.19,3.03-22.61,6.8-50.76,30.58-70.02,15.07-12.2,32.58-18.65,50.64-18.65,6.18,0,12.34.75,18.39,2.19.92-.95,1.92-1.84,2.98-2.67l190.72-147.91c-3.25-7.85-8.15-15.09-15.08-21.1C516.63,40.07,427.78,7.56,328.37,7.56h0C151.28,7.55,7.78,110.62,7.78,237.77s143.49,230.22,320.57,230.22c50.93,0,99.04-8.49,141.8-23.71,19.81-7.05,33.27-23.08,36.66-43.9,3.46-20.75-4.15-40.31-20.75-53.26l-7.57-5.95Zm-49.77-256.01c23.64,0,42.82,19.18,42.82,42.88s-19.18,42.83-42.82,42.83-42.82-19.18-42.82-42.83,19.18-42.88,42.82-42.88ZM80.73,203c0-23.71,19.18-42.88,42.82-42.88s42.82,19.18,42.82,42.88-19.18,42.82-42.82,42.82-42.82-19.17-42.82-42.82Zm114.76,163.62c-23.64,0-42.82-19.18-42.82-42.83s19.18-42.88,42.82-42.88,42.82,19.18,42.82,42.88-19.18,42.83-42.82,42.83Zm58.55-189.08c-23.64,0-42.82-19.18-42.82-42.82s19.18-42.82,42.82-42.82,42.88,19.18,42.88,42.82-19.18,42.82-42.88,42.82Z"/><path d="m643.05,205.8l-107.51,90.89,47.01,14.24c19.26,5.8,38.62,1.58,53.62-11.76,15.05-13.38,21.58-32.04,18.07-51.88-2.44-13.74-6.47-27.62-11.19-41.5Z"/><path d="m756.71,45.41c-1.96-2.42-4.4-4.19-7.01-5.49-.85-.42-1.78-.54-2.67-.84-1.84-.62-3.7-1.14-5.63-1.25-1.58-.08-3.16.08-4.73.36-.79.14-1.6.15-2.38.38-2.42.73-4.78,1.81-6.9,3.45l-118.62,91.99-15.75,12.22-19.13,14.83-51.11,39.64-91.78,71.18-13.78,10.68h0c2.21,1,4.3,2.29,6.29,3.77,3.03,2.27,5.82,5.09,8.52,8.08.75.83,1.53,1.62,2.27,2.48,1.84,2.14,3.65,4.36,5.45,6.58,1.45,1.79,2.83,3.5,4.15,5.16,1.97,2.48,4.42,4.29,7.07,5.61.86.43,1.82.51,2.73.82,1.85.62,3.72,1.18,5.67,1.26,1.67.07,3.33-.18,4.98-.5.84-.17,1.7-.17,2.52-.44,2.51-.82,4.93-2.05,7.07-3.86l29.15-24.65,128.99-109.06,121.85-103.02c4.38-3.7,6.88-8.82,7.38-14.12.5-5.31-1-10.8-4.61-15.26Z"/></svg>