<?xml version="1.0" encoding="UTF-8"?><svg id="ds44-icons" xmlns="http://www.w3.org/2000/svg" viewBox="0 0 551.52 480"><path d="m342.95,311.76c-2.13.85-4.27,1.69-6.52,2.12,1.16,11.95-2.02,21.8-5.05,28.14-14.11,29.57-52.05,45.05-82.25,45.05-4.63,0-9.17-.35-13.52-1.03-10.85-1.71-20.09-8.29-25.36-18.07-5.25-9.74-5.67-21.03-1.16-30.99,2.14-4.71,3.09-11.87,4.11-19.46,2.17-16.18,4.86-36.32,21.88-50.1,10.78-8.73,23.32-13.35,36.24-13.35,4.42,0,8.83.53,13.16,1.57.66-.68,1.37-1.32,2.13-1.91l136.48-105.84c-2.33-5.62-5.84-10.8-10.79-15.1-42.07-36.49-105.65-59.76-176.8-59.76h0c-126.72,0-229.41,73.75-229.41,164.74s102.69,164.75,229.41,164.75c36.45,0,70.87-6.08,101.47-16.96,14.17-5.04,23.8-16.52,26.23-31.41,2.47-14.85-2.97-28.85-14.85-38.11l-5.42-4.26Zm-35.62-183.2c16.92,0,30.65,13.72,30.65,30.69s-13.72,30.65-30.65,30.65-30.64-13.72-30.64-30.65,13.72-30.69,30.64-30.69ZM58.31,212.89c0-16.96,13.72-30.69,30.64-30.69s30.64,13.72,30.64,30.69-13.72,30.64-30.64,30.64-30.64-13.72-30.64-30.64Zm82.12,117.08c-16.92,0-30.64-13.72-30.64-30.65s13.72-30.69,30.64-30.69,30.64,13.72,30.64,30.69-13.72,30.65-30.64,30.65Zm41.9-135.31c-16.92,0-30.64-13.72-30.64-30.64s13.72-30.64,30.64-30.64,30.69,13.72,30.69,30.64-13.72,30.64-30.69,30.64Z"/><path d="m460.71,214.89l-76.94,65.04,33.64,10.19c13.78,4.15,27.63,1.13,38.37-8.41,10.77-9.58,15.44-22.93,12.93-37.13-1.75-9.84-4.63-19.76-8.01-29.7Z"/><path d="m542.05,100.11c-1.4-1.73-3.15-3-5.02-3.93-.61-.3-1.28-.38-1.91-.6-1.31-.44-2.65-.82-4.03-.89-1.13-.06-2.26.06-3.39.26-.57.1-1.14.11-1.7.28-1.73.52-3.42,1.29-4.93,2.47l-84.89,65.83-11.27,8.74-13.69,10.61-36.58,28.36-65.68,50.94-9.86,7.65h0c1.58.72,3.08,1.64,4.5,2.7,2.17,1.62,4.16,3.65,6.1,5.78.54.59,1.09,1.16,1.62,1.77,1.32,1.53,2.61,3.12,3.9,4.71,1.03,1.28,2.03,2.51,2.97,3.7,1.41,1.77,3.16,3.07,5.06,4.01.62.3,1.3.36,1.95.58,1.33.44,2.67.84,4.06.9,1.19.05,2.38-.13,3.56-.36.6-.12,1.21-.12,1.8-.31,1.79-.59,3.53-1.47,5.06-2.76l20.86-17.64,92.31-78.04,87.2-73.72c3.14-2.65,4.92-6.31,5.28-10.11.36-3.8-.71-7.73-3.3-10.92Z"/></svg>