<?xml version="1.0" encoding="UTF-8"?><svg id="ds44-icons" xmlns="http://www.w3.org/2000/svg" viewBox="0 0 406.41 480"><defs><style>.cls-1{fill:#1d1d1b;}</style></defs><path class="cls-1" d="m251.62,293.32c-1.53.61-3.07,1.22-4.7,1.53.84,8.61-1.46,15.71-3.64,20.28-10.16,21.31-37.51,32.46-59.27,32.46-3.33,0-6.61-.25-9.74-.74-7.82-1.23-14.48-5.98-18.27-13.02-3.78-7.02-4.09-15.16-.83-22.33,1.54-3.39,2.23-8.56,2.96-14.02,1.56-11.66,3.51-26.17,15.77-36.1,7.77-6.29,16.8-9.62,26.11-9.62,3.19,0,6.36.38,9.48,1.13.48-.49.99-.95,1.54-1.38l98.35-76.27c-1.68-4.05-4.2-7.78-7.77-10.88-30.32-26.3-76.13-43.06-127.4-43.06h0c-91.31,0-165.31,53.15-165.31,118.71s74,118.72,165.31,118.72c26.26,0,51.07-4.38,73.12-12.22,10.21-3.63,17.15-11.9,18.9-22.64,1.78-10.7-2.14-20.79-10.7-27.46l-3.9-3.07Zm-25.66-132.02c12.19,0,22.08,9.89,22.08,22.11s-9.89,22.08-22.08,22.08-22.08-9.89-22.08-22.08,9.89-22.11,22.08-22.11Zm-179.45,60.77c0-12.22,9.89-22.11,22.08-22.11s22.08,9.89,22.08,22.11-9.89,22.08-22.08,22.08-22.08-9.89-22.08-22.08Zm59.18,84.37c-12.19,0-22.08-9.89-22.08-22.08s9.89-22.11,22.08-22.11,22.08,9.89,22.08,22.11-9.89,22.08-22.08,22.08Zm30.19-97.5c-12.19,0-22.08-9.89-22.08-22.08s9.89-22.08,22.08-22.08,22.11,9.89,22.11,22.08-9.89,22.08-22.11,22.08Z"/><path class="cls-1" d="m336.48,223.51l-55.44,46.87,24.24,7.35c9.93,2.99,19.91.81,27.65-6.06,7.76-6.9,11.13-16.52,9.32-26.75-1.26-7.09-3.33-14.24-5.77-21.4Z"/><path class="cls-1" d="m395.09,140.81c-1.01-1.25-2.27-2.16-3.62-2.83-.44-.22-.92-.28-1.38-.43-.95-.32-1.91-.59-2.9-.64-.82-.04-1.63.04-2.44.18-.41.07-.82.08-1.23.2-1.25.37-2.47.93-3.56,1.78l-61.17,47.44-8.12,6.3-9.86,7.65-26.36,20.44-47.33,36.71-7.1,5.51h0c1.14.52,2.22,1.18,3.25,1.95,1.56,1.17,3,2.63,4.4,4.17.39.43.79.83,1.17,1.28.95,1.11,1.88,2.25,2.81,3.39.75.92,1.46,1.81,2.14,2.66,1.01,1.28,2.28,2.21,3.65,2.89.44.22.94.26,1.41.42.96.32,1.92.61,2.92.65.86.04,1.72-.09,2.57-.26.43-.09.88-.09,1.3-.23,1.29-.43,2.54-1.06,3.64-1.99l15.03-12.71,66.52-56.24,62.83-53.12c2.26-1.91,3.55-4.55,3.81-7.28.26-2.74-.51-5.57-2.38-7.87Z"/></svg>