<?xml version="1.0" encoding="UTF-8"?><svg id="ds44-icons" xmlns="http://www.w3.org/2000/svg" viewBox="0 0 411.43 480"><path d="m393.86,311.19h-87.72c-6.31,0-11.47,5.16-11.47,11.47s5.16,11.47,11.47,11.47h32.68v94.6c0,6.31,5.16,11.47,11.47,11.47s11.47-5.16,11.47-11.47v-94.61s32.68,0,32.68,0c6.31,0,11.47-5.16,11.47-11.47,0-6.3-5.74-11.46-12.05-11.46h0Z"/><path d="m54.97,173.69c12.16-77.21,84.58-129.94,161.75-117.77,26.44,4.17,51.16,15.76,71.28,33.43l-22.32,22.17c-46.44-39.21-115.85-33.33-155.04,13.13-12.98,15.38-21.49,34.03-24.61,53.92-1.35,8.58-9.39,14.45-17.97,13.1-8.58-1.35-14.44-9.4-13.1-17.98h0Z"/><path d="m128.95,179.25c7.99,3.38,17.2-.35,20.59-8.33,11.25-26.67,41.98-39.17,68.64-27.91,3.67,1.55,7.14,3.51,10.37,5.84l22.42-22.44c-35.82-29.35-88.63-24.09-117.96,11.75-5.09,6.22-9.26,13.14-12.38,20.55-3.34,7.98.38,17.16,8.33,20.55h0Z"/><path d="m383.99,59.99l-22.21-22.23L5.52,394.22l22.21,22.23,222.45-222.58c-.64,13.86-6.74,26.91-16.97,36.27-5.82,6.45-5.31,16.39,1.14,22.21,5.53,4.99,13.81,5.42,19.82,1.01,17.45-15.89,27.4-38.4,27.4-62.01-.03-8.53-1.37-16.99-3.98-25.11l16.71-16.67c6.83,14.4,10.41,30.13,10.48,46.08,0,30.72-28.97,63.9-46.31,83.87-5.75,5.88-10.78,12.43-14.98,19.5-2.88,5.98-2.72,12.95-2.51,22.65.73,36.69-3.46,70.19-62.87,73.39-15.43.29-30.55-4.44-43.07-13.47-7.23-4.86-17.04-2.94-21.9,4.3-4.86,7.24-2.94,17.05,4.3,21.91,16.88,11.94,36.96,18.53,57.63,18.92h4.61c94.62-5.24,93.1-77.9,92.52-105.36v-9.17c1.83-2.52,6.23-7.55,9.8-11.69,20.38-23.59,54.22-62.33,54.22-104.84.04-24.37-6.28-48.33-18.34-69.51l66.12-66.15Z"/></svg>