<?xml version="1.0" encoding="UTF-8"?><svg id="ds44-icons" xmlns="http://www.w3.org/2000/svg" viewBox="0 0 377.94 381.21"><path d="m364.9,258.12h-82.03c-5.9,0-10.72,4.83-10.72,10.72s4.83,10.72,10.72,10.72h30.56v88.46c0,5.9,4.83,10.72,10.72,10.72s10.72-4.83,10.72-10.72v-88.47s30.55,0,30.55,0c5.9,0,10.72-4.83,10.72-10.72,0-5.89-5.37-10.72-11.27-10.72h0Z"/><path d="m48.02,129.55C59.39,57.35,127.11,8.05,199.27,19.43c24.73,3.9,47.84,14.74,66.65,31.26l-20.87,20.73c-43.42-36.67-108.33-31.17-144.97,12.27-12.13,14.38-20.09,31.82-23.01,50.42-1.26,8.03-8.78,13.51-16.8,12.25-8.02-1.26-13.51-8.79-12.25-16.81h0Z"/><path d="m117.19,134.75c7.47,3.16,16.08-.33,19.25-7.79,10.52-24.94,39.25-36.63,64.18-26.1,3.43,1.45,6.68,3.28,9.69,5.46l20.97-20.98c-33.49-27.44-82.87-22.53-110.3,10.98-4.76,5.81-8.66,12.29-11.58,19.21-3.13,7.46.35,16.04,7.79,19.21h0Z"/><path d="m355.67,23.24l-20.77-20.78L1.77,335.76l20.77,20.78,208-208.12c-.59,12.96-6.3,25.16-15.87,33.92-5.44,6.03-4.96,15.33,1.07,20.77,5.17,4.67,12.91,5.06,18.53.95,16.32-14.86,25.62-35.91,25.62-57.99-.03-7.97-1.28-15.89-3.72-23.48l15.63-15.59c6.39,13.47,9.74,28.18,9.8,43.09,0,28.72-27.09,59.75-43.31,78.43-5.38,5.5-10.08,11.62-14.01,18.23-2.69,5.59-2.55,12.11-2.35,21.17.69,34.31-3.23,65.63-58.79,68.62-14.43.27-28.56-4.15-40.27-12.6-6.76-4.55-15.93-2.75-20.48,4.02-4.55,6.77-2.75,15.94,4.02,20.49,15.79,11.17,34.56,17.33,53.89,17.69h4.31c88.47-4.9,87.05-72.84,86.51-98.52v-8.58c1.71-2.35,5.83-7.06,9.16-10.93,19.06-22.06,50.7-58.28,50.7-98.03.03-22.79-5.88-45.19-17.15-65l61.82-61.86Z"/></svg>