<?xml version="1.0" encoding="UTF-8"?><svg id="ds44-icons" xmlns="http://www.w3.org/2000/svg" viewBox="0 0 359.52 388.89"><path d="m70.84,323.42c17.55,0,31.82-14.28,31.82-31.82s-14.28-31.82-31.82-31.82-31.82,14.27-31.82,31.82,14.28,31.82,31.82,31.82Z"/><path d="m220.01,90.08c0-17.79-14.48-32.27-32.27-32.27h-15.95c-17.79,0-32.27,14.47-32.27,32.27v4.29h80.49v-4.29Z"/><path d="m179.76,57.03c15.68,0,28.45-12.76,28.45-28.45S195.45.13,179.76.13s-28.45,12.76-28.45,28.45c0,15.69,12.77,28.45,28.45,28.45Z"/><path d="m211.22,291.59c0-17.55-14.28-31.82-31.82-31.82s-31.82,14.27-31.82,31.82,14.28,31.82,31.82,31.82,31.82-14.28,31.82-31.82Z"/><path d="m280.3,104.05H79.22c-6.63,0-11.99,2.89-11.99,6.46v6.15c0,3.57,5.37,6.46,12,6.46h201.08c6.63,0,12-2.89,12-6.46v-6.15c0-3.57-5.37-6.46-12-6.46Z"/><path d="m76.93,132.8v80.31c0,3.57,5.37,6.46,12,6.46h181.68c6.63,0,12-2.89,12-6.46v-80.31H76.93Z"/><path d="m347.01,369.4h-12.9v-9.55c0-17.79-14.48-32.27-32.27-32.27h-26.33c-17.79,0-32.27,14.48-32.27,32.27v9.55h-11.03s0,0,0,0h-7.39v-9.55c0-17.79-14.48-32.27-32.27-32.27h-26.33c-17.79,0-32.27,14.47-32.27,32.27v9.55h-17.69v-9.56c0-17.79-14.48-32.27-32.27-32.27h-26.33c-17.79,0-32.27,14.48-32.27,32.27v9.55h-12.9c-5.35,0-9.68,4.33-9.68,9.68,0,5.35,4.33,9.69,9.68,9.69h225.21s0,0,0,0h109.27c5.35,0,9.68-4.34,9.68-9.68s-4.33-9.68-9.68-9.68Z"/><path d="m320.5,291.59c0-17.55-14.28-31.82-31.82-31.82s-31.82,14.27-31.82,31.82,14.28,31.82,31.82,31.82,31.82-14.27,31.82-31.82Z"/></svg>