<?xml version="1.0" encoding="UTF-8"?><svg id="ds44-icons" xmlns="http://www.w3.org/2000/svg" viewBox="0 0 384.64 270.72"><defs><style>.cls-1{fill-rule:evenodd;}</style></defs><path class="cls-1" d="m148.04,1.47c-17.78,1.14-35.57,3.06-53.35,5.68-10.21,1.49-19.94,8.53-18.72,18.86,2.36,22.81,4.36,45.58,5.38,68.39,0,4.91-1.57,9.2-5.06,12.57-3.53,3.38-7.89,4.96-12.8,4.53-4.04-.39-8.05-1.53-11.58-3.38-4.67-2.39-9.97-3.77-15.58-3.77-18.69,0-33.8,15.2-33.8,33.89s15.07,33.81,33.8,33.81c7.14,0,13.78-2.16,19.24-5.98,5.26-3.61,11.74-3.94,17.35-.82,5.61,3.1,8.75,8.71,8.44,15.11-1.18,21.12-2.75,42.25-5.38,63.41-1.18,10.28,8.6,17.14,18.8,18.78,19.04,3.06,37.88,5.34,56.65,6.67,5.97.43,11.34-2.2,14.72-7.13,3.53-4.99,3.93-10.91,1.18-16.33,0-.39,0-.67-.39-.98-2.36-4.67-3.93-9.95-3.93-15.56,0-18.69,15.11-33.81,33.8-33.81s33.88,15.09,33.88,33.81c0,5.5-.79,11.09-3.14,15.64-2.75,5.42-2.36,11.53.79,16.64,3.53,5.1,8.91,7.79,15.03,7.28,16.45-1.33,32.82-3.42,49.07-6.21,10.17-1.77,20.65-8.73,18.76-18.86-4.28-22.73-6.95-45.43-8.36-68.16,0-4.83,1.18-9.12,4.67-12.57,3.53-3.45,7.65-5.14,12.52-4.91,4.36.39,8.64,1.45,12.72,3.53,4.67,2.39,9.93,3.77,15.55,3.77,18.69,0,33.84-15.09,33.84-33.81s-15.11-33.89-33.84-33.89c-7.03,0-13.54,2.2-19,5.9-5.3,3.65-11.86,3.85-17.47.63-5.61-3.22-8.64-8.97-8.13-15.41,1.57-20.92,4.08-41.87,7.5-62.79,1.57-10.21-8.52-17.41-18.76-18.78-19.63-2.59-39.22-4.53-58.8-5.67-5.38-.39-10.17,1.73-13.58,5.83-3.53,4.08-4.59,9.12-3.53,14.34.79,3.38,1.96,6.6,3.53,9.59,2.36,4.63,3.53,9.95,3.53,15.56,0,18.69-15.07,33.81-33.8,33.81s-33.88-15.13-33.88-33.81c0-7.22,2.36-13.94,6.12-19.47,3.93-5.26,4.08-11.83.79-17.48-3.14-5.65-8.91-8.75-15.39-8.36l.63-.05Z"/></svg>