<?xml version="1.0" encoding="UTF-8"?><svg id="ds44-icons" xmlns="http://www.w3.org/2000/svg" viewBox="0 0 531.99 480"><defs><style>.cls-1{fill-rule:evenodd;}</style></defs><path class="cls-1" d="m205.04,54.67c-24.48,1.57-48.96,4.22-73.44,7.81-14.05,2.05-27.45,11.75-25.78,25.96,3.24,31.4,6,62.75,7.4,94.15,0,6.75-2.16,12.66-6.97,17.31-4.86,4.65-10.86,6.83-17.62,6.23-5.57-.54-11.08-2.11-15.94-4.65-6.43-3.3-13.73-5.19-21.45-5.19-25.72,0-46.53,20.93-46.53,46.65s20.75,46.54,46.53,46.54c9.84,0,18.97-2.97,26.48-8.24,7.24-4.97,16.16-5.43,23.89-1.13,7.73,4.27,12.05,11.99,11.62,20.79-1.62,29.07-3.78,58.16-7.4,87.28-1.62,14.16,11.83,23.59,25.88,25.86,26.21,4.22,52.15,7.35,77.98,9.19,8.21.59,15.62-3.03,20.26-9.82,4.86-6.86,5.4-15.02,1.62-22.48,0-.54,0-.92-.54-1.35-3.24-6.43-5.4-13.7-5.4-21.43,0-25.72,20.81-46.54,46.53-46.54s46.64,20.77,46.64,46.54c0,7.57-1.08,15.27-4.32,21.53-3.78,7.46-3.24,15.88,1.08,22.9,4.86,7.03,12.27,10.73,20.7,10.02,22.64-1.84,45.18-4.7,67.55-8.55,14-2.43,28.42-12.02,25.83-25.96-5.89-31.29-9.56-62.54-11.51-93.83,0-6.65,1.62-12.55,6.43-17.31,4.86-4.76,10.54-7.08,17.24-6.75,6,.54,11.89,2,17.51,4.86,6.43,3.3,13.67,5.19,21.4,5.19,25.72,0,46.58-20.77,46.58-46.54s-20.8-46.65-46.58-46.65c-9.67,0-18.64,3.03-26.15,8.13-7.3,5.03-16.32,5.3-24.05.86-7.73-4.43-11.89-12.35-11.19-21.22,2.16-28.8,5.62-57.64,10.32-86.44,2.16-14.05-11.73-23.97-25.83-25.86-27.02-3.57-53.98-6.24-80.95-7.81-7.4-.54-14,2.38-18.7,8.02-4.86,5.62-6.32,12.55-4.86,19.74,1.08,4.65,2.7,9.09,4.86,13.2,3.24,6.38,4.86,13.7,4.86,21.43,0,25.72-20.75,46.54-46.53,46.54s-46.64-20.82-46.64-46.54c0-9.94,3.24-19.19,8.43-26.81,5.4-7.24,5.62-16.28,1.08-24.06-4.32-7.78-12.27-12.05-21.18-11.5l.86-.08Z"/></svg>