<svg id="ds44-icons" xmlns="http://www.w3.org/2000/svg" width="480" height="480" viewBox="0 0 480 480"><path d="M131.85736,191.34962a17.28006,17.28006,0,1,0,17.27978,17.28A17.28009,17.28009,0,0,0,131.85736,191.34962Z"/><circle cx="346.87445" cy="208.62967" r="17.28005"/><path d="M455.34124,261.70887a17.99965,17.99965,0,0,0-18,18v35.60157H387.87347a29.6651,29.6651,0,0,0,1.02881-7.74561v-28.6831h17.81787a17.99965,17.99965,0,0,0,18-18V152.70985a17.99964,17.99964,0,0,0-18-18H399.412l-1.28-3.32129h5.63892a18,18,0,0,0,0-36h-6.88086a17.90713,17.90713,0,0,0-11.13916,3.878L367.84515,52.81141a59.65982,59.65982,0,0,0-55.332-37.97265H167.48675a59.66179,59.66179,0,0,0-55.332,37.97265L94.2492,99.266a17.90733,17.90733,0,0,0-11.13843-3.87744H76.22894a18,18,0,1,0,0,36h5.63891l-1.28,3.32129h-7.3081a17.99964,17.99964,0,0,0-18,18V260.88173a17.99964,17.99964,0,0,0,18,18h16.5498v28.6831a29.67517,29.67517,0,0,0,1.02857,7.74561H42.6596V279.70887a18,18,0,0,0-36,0v53.60157a17.99965,17.99965,0,0,0,18,18H455.34124a17.99964,17.99964,0,0,0,18-18V279.70887A17.99964,17.99964,0,0,0,455.34124,261.70887ZM91.27972,242.88173V170.70985H388.72015v72.17188Zm170.8479-108.17188a24.86776,24.86776,0,0,1,42.54761,0ZM145.74652,65.75868a23.44169,23.44169,0,0,1,21.74023-14.91992H312.51312a23.44071,23.44071,0,0,1,21.74023,14.91992l26.57715,68.95117H342.89471a60.87206,60.87206,0,0,0-118.98682,0H119.16937Zm3.39062,241.80615v-28.6831H329.59442v28.6831a29.67517,29.67517,0,0,0,1.02856,7.74561H148.10858A29.67559,29.67559,0,0,0,149.13714,307.56483Z"/><path d="M459.09124,397.23426a18.00068,18.00068,0,0,0-25.1289,4.06641c-.90235,1.251-1.82618,2.58789-2.791,3.98535-8.09668,11.73828-16.46973,23.876-44.36719,23.876s-36.2705-12.1377-44.36816-23.876c-5.832-8.4541-13.81934-20.0332-28.95215-20.0332-15.13184,0-23.11914,11.5791-28.95215,20.0332-8.09668,11.73828-16.46972,23.876-44.36719,23.876-27.89648,0-36.2705-12.1377-44.36816-23.876-5.832-8.4541-13.81934-20.0332-28.95215-20.0332-15.13183,0-23.11914,11.5791-28.95117,20.0332-8.09766,11.73828-16.4707,23.876-44.36816,23.876s-36.27051-12.1377-44.36817-23.875c-1.03418-1.5-2.10351-3.04981-3.18652-4.53125A18,18,0,0,0,16.9096,422.0038c.791,1.082,1.67676,2.36621,2.61426,3.72558C29.0307,439.50965,46.727,465.162,93.52484,465.162c45.7041,0,63.65039-24.46582,73.31933-38.44727,9.66992,13.98047,27.61719,38.44727,73.32031,38.44727,45.70411,0,63.6504-24.46582,73.31934-38.44727C323.15374,440.6952,341.101,465.162,386.80413,465.162c46.79785,0,64.49414-25.65235,74.001-39.4336.81348-1.17968,1.59082-2.30957,2.35254-3.36523A17.99955,17.99955,0,0,0,459.09124,397.23426Z"/></svg>