<?xml version="1.0" encoding="utf-8"?>
<!-- Generator: Adobe Illustrator 26.0.3, SVG Export Plug-In . SVG Version: 6.00 Build 0)  -->
<svg version="1.1" id="ds44-icons" xmlns="http://www.w3.org/2000/svg" xmlns:xlink="http://www.w3.org/1999/xlink" x="0px" y="0px"
	 viewBox="0 0 394 322" style="enable-background:new 0 0 394 322;" xml:space="preserve">
<g id="Groupe_1235">
	<path id="Tracé_742" d="M94.6,175.3c-6.2,0-11.3,5-11.3,11.3c0,6.2,5.1,11.3,11.3,11.3c10.5,0,19,8.5,19,19
		c0,6.2,5,11.3,11.3,11.3c6.2,0,11.3-5,11.3-11.3c0.2-22.8-18.1-41.4-40.8-41.6C95,175.3,94.8,175.3,94.6,175.3z"/>
	<path id="Tracé_743" d="M300.4,175.3c-6.2,0-11.3,5.1-11.3,11.3c0,6.2,5,11.3,11.3,11.3c10.5,0,19,8.5,19,19
		c0,6.2,5,11.3,11.3,11.3c6.2,0,11.3-5.1,11.3-11.3C341.9,193.9,323.3,175.3,300.4,175.3z"/>
	<path id="Tracé_744" d="M380.8,203.2c-12.5-48-28.3-95.1-47.4-141C323,35.6,295.3,19.8,267,24.6c-27.6,4.7-48.2,27.9-49.7,55.9
		c-6.1-3.3-12.9-5-19.8-4.9c-6.9,0.1-13.7,1.8-19.8,5.1c-1.5-28-22.1-51.2-49.7-55.9c-28.3-4.9-56.1,10.8-66.4,37.7
		c-18.8,45.9-34.6,93-47.4,141c-7.6,44.5,22.2,86.7,66.7,94.4c0,0,0,0,0.1,0c43.6,7.5,85.2-21.1,93.9-64.5
		c6.8,4.2,14.6,6.4,22.5,6.6c8,0,15.8-2.3,22.5-6.6c8.9,43.2,50.4,71.7,93.9,64.5c44.5-7.5,74.5-49.7,66.9-94.2
		C380.8,203.4,380.8,203.3,380.8,203.2z M94.6,273.9c-31.5,0-57.1-25.6-57.1-57.1c0-31.5,25.6-57.1,57.1-57.1
		c31.5,0.1,57,25.6,57.1,57.1c0.2,31.3-25,56.9-56.3,57.1C95.1,273.9,94.8,273.9,94.6,273.9z M197.5,215.7
		c-10.9-0.1-19.7-8.9-19.8-19.8c0.1-10.9,8.9-19.7,19.8-19.8c10.9,0.1,19.7,8.9,19.8,19.8C217.2,206.8,208.4,215.6,197.5,215.7z
		 M300.4,273.9c-31.5,0-57.1-25.6-57.1-57.1c0.1-31.5,25.6-57,57.1-57.1c31.5,0,57.1,25.6,57.1,57.1c0.1,31.4-25.3,57-56.8,57.1
		C300.6,273.9,300.5,273.9,300.4,273.9z"/>
</g>
</svg>
