<svg id="ds44-icons" xmlns="http://www.w3.org/2000/svg" viewBox="0 0 450 480"><path d="M344.09,457.08H105.91c-15.36,0-29.54-5.86-41-16.93C53.19,428.93,47,414.72,47,399.1V80.9c0-15.6,6.19-29.8,17.89-41.07,11.5-11.06,25.68-16.91,41-16.91H344.09c15.32,0,29.49,5.85,41,16.9C396.82,51.12,403,65.32,403,80.9V399.1c0,15.6-6.19,29.8-17.89,41.07C373.61,451.23,359.43,457.08,344.09,457.08ZM105.91,60.73c-5.68,0-10.24,2-14.81,6.35-4.35,4.19-6.29,8.45-6.29,13.82V399.1c0,5.37,1.94,9.63,6.28,13.81,4.57,4.41,9.14,6.36,14.82,6.36H344.09c5.68,0,10.24-2,14.81-6.35,4.35-4.19,6.29-8.45,6.29-13.82V80.9c0-5.36-1.94-9.63-6.31-13.83-4.55-4.38-9.12-6.34-14.79-6.34Z"/><polygon points="105.91 80.9 105.91 240 155.22 210.23 205.46 240 205.46 80.9 105.91 80.9"/></svg>