<?xml version="1.0" encoding="utf-8"?>
<!-- Generator: Adobe Illustrator 26.0.3, SVG Export Plug-In . SVG Version: 6.00 Build 0)  -->
<svg version="1.1" id="ds44-icons" xmlns="http://www.w3.org/2000/svg" xmlns:xlink="http://www.w3.org/1999/xlink" x="0px" y="0px"
	 viewBox="0 0 450 480" style="enable-background:new 0 0 450 480;" xml:space="preserve">
<g>
	<path d="M325.1,76.8c43.3,0,77,9.1,100.9,27.4v266c0,2.3-1,4.4-3,6.4c-2,2-4.1,3-6.4,3c-1.7,0-3.1-0.3-4.3-0.9
		C389,366.3,359.9,360,325.1,360c-37.1,0-70.4,9.1-100.1,27.4c-24.5-18.2-57.9-27.4-100.1-27.4c-30.8,0-59.9,6.6-87.3,19.7
		c-0.6,0-1.3,0.1-2.1,0.4c-0.9,0.3-1.6,0.4-2.1,0.4c-2.3,0-4.4-0.9-6.4-2.6c-2-1.7-3-3.7-3-6V104.2C48.5,86,82.1,76.8,124.9,76.8
		c42.2,0,75.6,9.1,100.1,27.4C249.5,86,282.9,76.8,325.1,76.8z M389.2,332.6V122.2c-18.8-5.7-40.2-8.6-64.2-8.6
		c-37.1,0-70.4,9.1-100.1,27.4v209.6c29.6-18.2,63-27.4,100.1-27.4C347.3,323.2,368.7,326.4,389.2,332.6z M325.1,186.3
		c-34.2,0-61.6,6-82.1,18v-29.9c22.8-10.3,50.2-15.4,82.1-15.4c14.8,0,30.2,1.4,46.2,4.3v28.2C357.6,188.1,342.2,186.3,325.1,186.3z
		 M243,222.3c24-9.7,51.3-14.5,82.1-14.5c14.8,0,30.2,1.4,46.2,4.3v27.4c-11.4-2.8-26.8-4.3-46.2-4.3c-34.2,0-61.6,6-82.1,18V222.3z
		 M325.1,256.5c14.8,0,30.2,1.4,46.2,4.3v27.4c-11.4-2.8-26.8-4.3-46.2-4.3c-34.2,0-61.6,6-82.1,18V271
		C264.6,261.3,292,256.5,325.1,256.5z"/>
</g>
</svg>
