<svg id="ds44-icons" xmlns="http://www.w3.org/2000/svg" width="480" height="480" viewBox="0 0 480 480"><path d="M58.74652,192.8766A15.3197,15.3197,0,1,0,74.0661,177.557,15.31966,15.31966,0,0,0,58.74652,192.8766Z"/><path d="M164.34344,221.20008H40.13421V161.30067H299.74652v.47461h36V143.30067a17.98872,17.98872,0,0,0-15.06788-17.74048,17.9975,17.9975,0,0,0-5.54638-35.11987h-6.10059a17.89866,17.89866,0,0,0-8.88965,2.36047L285.187,54.00087a54.94831,54.94831,0,0,0-50.96-34.97266H105.65374a54.9483,54.9483,0,0,0-50.96,34.97266L39.7387,92.80079a17.89863,17.89863,0,0,0-8.88965-2.36047H24.74847a17.9975,17.9975,0,0,0-5.54639,35.11987A17.98872,17.98872,0,0,0,4.13421,143.30067v95.89941a17.99964,17.99964,0,0,0,18,18H36.80633v23.38776a26.2898,26.2898,0,0,0,52.57959,0V257.20008h32.929a41.49528,41.49528,0,0,1,37.40576-24.00689Zm29.31274-95.89941a19.91788,19.91788,0,0,1,29.52369,0ZM88.28558,66.94813a18.72677,18.72677,0,0,1,17.36816-11.91992H234.227a18.72677,18.72677,0,0,1,17.36817,11.91992l22.49219,58.35254h-11.302a56.00976,56.00976,0,0,0-108.73486,0H65.79339Z"/><path d="M455.87982,291.80726a18.0031,18.0031,0,0,0-5.54639-35.11987h-6.10059a17.89781,17.89781,0,0,0-8.88867,2.36l-8.49609-22.04217-6.459-16.75726a54.94762,54.94762,0,0,0-50.96093-34.97266H240.85491a54.94731,54.94731,0,0,0-50.96,34.97266l-.36694.95214-6.092,15.80512L175.652,257.20008l-.71215,1.84729a18.31441,18.31441,0,0,0-8.88868-2.36h-6.10058a17.99691,17.99691,0,0,0-5.54688,35.11981,17.98874,17.98874,0,0,0-15.06836,17.74054v95.89941a17.99964,17.99964,0,0,0,18,18h14.67237v23.3877c0,.03766.00268.07465.00293.1123a26.28709,26.28709,0,0,0,52.57373,0c.00024-.03765.00293-.07464.00293-.1123v-23.3877H384.572v23.3877c0,.03766.00268.07465.00268.1123h.00025a26.28709,26.28709,0,0,0,52.57373,0c.00024-.03765.00293-.07464.00293-.1123v-23.3877h15.79614a17.99964,17.99964,0,0,0,18-18V309.54774A17.98872,17.98872,0,0,0,455.87982,291.80726Zm-248.332-17.2605,2.50488-6.499,4.18139-10.84766,9.25269-24.00488a18.72677,18.72677,0,0,1,17.36816-11.91992H369.42816A18.72709,18.72709,0,0,1,386.7973,233.1952l2.6643,6.91223,10.76978,27.94031,2.50488,6.499,6.55322,17.001h-11.303a55.96979,55.96979,0,0,0-96.03638-23.9165c-.1228.13665-.2395.27862-.36084.4165a55.91144,55.91144,0,0,0-12.33667,23.5H200.99456Zm150.83325,17.001H328.85809a19.917,19.917,0,0,1,29.52295,0Zm-7.71485,95.89941H175.33538V327.54774H434.94769v59.89941Z"/><path d="M209.26751,343.80391a15.35952,15.35952,0,1,0,13.00073,7.24383A15.29358,15.29358,0,0,0,209.26751,343.80391Z"/><path d="M399.89154,343.80391a15.3595,15.3595,0,1,0,13.00073,7.24383A15.2942,15.2942,0,0,0,399.89154,343.80391Z"/></svg>