<?xml version="1.0" encoding="UTF-8"?><svg id="ds44-icons" xmlns="http://www.w3.org/2000/svg" viewBox="0 0 394.28 480"><path d="m176.84,62.22c0,22.36-18.07,40.49-40.4,40.6-22.07.11-40.93-18.75-40.81-40.83.12-22.32,18.25-40.38,40.6-40.38s40.6,18.18,40.6,40.6"/><path d="m298.65,62.22c0,22.36-18.07,40.49-40.4,40.6-22.07.11-40.92-18.74-40.81-40.8.11-22.33,18.25-40.4,40.6-40.4s40.6,18.18,40.6,40.6"/><path d="m176.84,184.03c0,22.36-18.07,40.49-40.4,40.6-22.08.11-40.93-18.76-40.81-40.83s18.26-40.37,40.6-40.37,40.6,18.18,40.6,40.6"/><path d="m298.65,184.03c0,22.36-18.07,40.49-40.4,40.6-22.07.11-40.92-18.74-40.81-40.81.11-22.33,18.25-40.39,40.6-40.39s40.6,18.18,40.6,40.6"/><path d="m176.84,305.84c0,22.36-18.07,40.49-40.4,40.6-22.07.11-40.93-18.76-40.81-40.83.12-22.32,18.25-40.37,40.6-40.37s40.6,18.18,40.6,40.6"/><path d="m298.65,305.84c0,22.36-18.07,40.49-40.4,40.6-22.07.11-40.92-18.74-40.81-40.81.11-22.33,18.25-40.4,40.6-40.4s40.6,18.18,40.6,40.6"/><path d="m9.23,393.45h29.43c10.83-.18,22.73,2.64,22.73,15.77,0,5.64-3.34,10.22-8.28,12.68,6.7,1.95,10.84,7.76,10.84,14.89,0,14.98-11.01,19.56-24.49,19.56H9.23v-62.9Zm16.39,24.76h12.69c2.82,0,6.69-1.5,6.69-5.99s-3.26-6.09-6.69-6.09h-12.69v12.08Zm0,25.02h13.13c5.2,0,8.81-1.85,8.81-7.05,0-5.54-3.88-7.39-8.81-7.39h-13.13v14.44Z"/><path d="m72.87,393.45h32.07c11.1,0,22.02,5.02,22.02,17.71,0,6.78-3.26,13.21-9.87,15.77v.17c6.7,1.58,8.63,9.07,9.16,15.06.18,2.64.44,11.9,2.64,14.19h-16.21c-1.41-2.12-1.67-8.28-1.85-10.05-.44-6.34-1.5-12.86-9.16-12.86h-12.42v22.91h-16.39v-62.9Zm16.39,27.3h13.74c4.94,0,7.58-2.64,7.58-7.39s-3.7-6.78-8.28-6.78h-13.04v14.18Z"/><path d="m153.6,393.45h16.65l23.53,62.9h-17.1l-3.87-11.28h-21.94l-3.96,11.28h-16.82l23.52-62.9Zm1.06,39.47h14.27l-6.96-22.03h-.17l-7.14,22.03Z"/><path d="m198.57,393.45h16.38v62.9h-16.38v-62.9Z"/><path d="m226.33,393.45h16.39v48.81h29.34v14.09h-45.73v-62.9Z"/><path d="m280.19,393.45h16.38v48.81h29.34v14.09h-45.72v-62.9Z"/><path d="m334.04,393.45h50.13v13.13h-33.74v11.01h30.83v12.69h-30.83v11.98h34.62v14.09h-51.01v-62.9Z"/></svg>