<?xml version="1.0" encoding="UTF-8"?><svg id="ds44-icons" xmlns="http://www.w3.org/2000/svg" viewBox="0 0 406.41 480"><defs><style>.cls-1{fill:#1d1d1b;}</style></defs><path class="cls-1" d="m187.53,90.5c0,18.7-15.12,33.87-33.8,33.97-18.47.09-34.24-15.69-34.14-34.16.1-18.67,15.27-33.78,33.97-33.78s33.97,15.21,33.97,33.97"/><path class="cls-1" d="m289.43,90.5c0,18.7-15.11,33.87-33.8,33.97-18.46.09-34.23-15.67-34.14-34.14.09-18.68,15.26-33.8,33.97-33.8s33.97,15.21,33.97,33.97"/><path class="cls-1" d="m187.53,192.4c0,18.7-15.12,33.87-33.8,33.97-18.47.09-34.24-15.69-34.14-34.16.11-18.67,15.27-33.77,33.97-33.77s33.97,15.21,33.97,33.97"/><path class="cls-1" d="m289.43,192.4c0,18.7-15.11,33.87-33.8,33.97-18.46.09-34.23-15.68-34.14-34.14.09-18.68,15.27-33.79,33.97-33.79s33.97,15.21,33.97,33.97"/><path class="cls-1" d="m187.53,294.3c0,18.7-15.12,33.88-33.8,33.97-18.47.09-34.24-15.69-34.14-34.16.1-18.67,15.27-33.78,33.97-33.78s33.97,15.21,33.97,33.97"/><path class="cls-1" d="m289.43,294.3c0,18.7-15.11,33.88-33.8,33.97-18.46.09-34.23-15.68-34.14-34.14.09-18.68,15.26-33.8,33.97-33.8s33.97,15.21,33.97,33.97"/><path class="cls-1" d="m47.31,367.59h24.62c9.06-.15,19.01,2.21,19.01,13.19,0,4.72-2.8,8.55-6.93,10.61,5.6,1.63,9.07,6.49,9.07,12.46,0,12.53-9.21,16.36-20.49,16.36h-25.28v-52.62Zm13.71,20.71h10.61c2.36,0,5.6-1.25,5.6-5.01s-2.73-5.09-5.6-5.09h-10.61v10.1Zm0,20.93h10.98c4.35,0,7.37-1.55,7.37-5.9,0-4.64-3.24-6.19-7.37-6.19h-10.98v12.08Z"/><path class="cls-1" d="m100.55,367.59h26.83c9.29,0,18.42,4.2,18.42,14.81,0,5.67-2.73,11.05-8.26,13.19v.14c5.6,1.33,7.22,7.59,7.67,12.6.15,2.21.37,9.95,2.21,11.87h-13.56c-1.18-1.77-1.4-6.93-1.55-8.4-.37-5.31-1.25-10.76-7.67-10.76h-10.39v19.16h-13.71v-52.62Zm13.71,22.84h11.5c4.13,0,6.34-2.21,6.34-6.19s-3.1-5.67-6.93-5.67h-10.91v11.86Z"/><path class="cls-1" d="m168.09,367.59h13.93l19.68,52.62h-14.3l-3.24-9.43h-18.36l-3.32,9.43h-14.07l19.68-52.62Zm.89,33.02h11.94l-5.82-18.43h-.14l-5.97,18.43Z"/><path class="cls-1" d="m205.71,367.59h13.7v52.62h-13.7v-52.62Z"/><path class="cls-1" d="m228.93,367.59h13.71v40.83h24.54v11.79h-38.25v-52.62Z"/><path class="cls-1" d="m273.99,367.59h13.7v40.83h24.54v11.79h-38.25v-52.62Z"/><path class="cls-1" d="m319.04,367.59h41.94v10.98h-28.23v9.21h25.79v10.61h-25.79v10.02h28.96v11.79h-42.67v-52.62Z"/></svg>