<?xml version="1.0" encoding="utf-8"?>
<!-- Generator: Adobe Illustrator 25.3.1, SVG Export Plug-In . SVG Version: 6.00 Build 0)  -->
<svg version="1.1" id="ds44-icons" xmlns="http://www.w3.org/2000/svg" xmlns:xlink="http://www.w3.org/1999/xlink" x="0px" y="0px"
	 viewBox="0 0 406.4 480" style="enable-background:new 0 0 406.4 480;" xml:space="preserve">
<g>
	<path d="M286.3,341.5H91.8c-37.2,0-76.6-36.1-87.7-80.5c-5.3-20.9-3.6-41.9,4.8-60.5c8.2-18.3,22.6-33.9,42.6-46.5
		c1.5-44.2,35.7-86.4,85.4-103.3c27-9.2,55-9.4,80.8-0.8c26.1,8.8,49,26.6,67,52c0.5,0,0.9,0,1.4,0c0.1,0,0.2,0,0.4,0
		c35.3,0,67.9,15.9,91.7,44.9c15.2,18.4,24.4,40.2,26.7,63c2.1,21.1-1.7,42.6-11,62.3c-9.5,20.1-24.1,37.2-42.3,49.4
		C332.2,334.6,309.6,341.5,286.3,341.5z M178.9,78.6c-10.2,0-20.5,1.7-30.8,5.2c-38.2,12.9-64.6,46.6-61.4,78.3
		c0.7,7-2.9,13.8-9.2,17.1c-42.2,22.6-44.8,52.3-39.5,73.2c6.3,25,31.1,54,53.8,54h194.5c32.5,0,61.5-18.9,75.9-49.3
		c14-29.7,9.9-62.7-11.1-88.1c-21.8-26.5-47.2-32.1-64.7-32.1c-0.1,0-0.2,0-0.2,0c-2.7,0-5.3,0.1-7.9,0.4c-0.5,0.1-1,0.1-1.5,0.2
		c-22.7,2.6-41.4,13.9-49.9,24.4c-6.1,7.5-17.1,8.6-24.6,2.5c-7.5-6.1-8.6-17.1-2.5-24.6c11-13.5,27.3-24.2,45.8-30.8
		c-11.4-12.3-24.5-21-39-25.9C197.6,80.1,188.3,78.6,178.9,78.6z"/>
	<path d="M320.7,391.3H85.9c-9.7,0-17.5-7.8-17.5-17.5s7.8-17.5,17.5-17.5h234.8c9.7,0,17.5,7.8,17.5,17.5S330.4,391.3,320.7,391.3z
		"/>
	<path d="M320.7,436.4H85.9c-9.7,0-17.5-7.8-17.5-17.5s7.8-17.5,17.5-17.5h234.8c9.7,0,17.5,7.8,17.5,17.5S330.4,436.4,320.7,436.4z
		"/>
</g>
</svg>
