<?xml version="1.0" encoding="UTF-8"?><svg id="Capa_1" xmlns="http://www.w3.org/2000/svg" viewBox="0 0 344 512"><defs><style>.cls-1{fill:#181716;}</style></defs><g id="Calque_9"><path class="cls-1" d="m8,174.42v42.98c0,10.94,8.9,19.84,19.84,19.84h132.08v-82.66H27.84c-10.94,0-19.84,8.9-19.84,19.84h0Z"/><path class="cls-1" d="m316.16,154.58h-132.08v82.66h132.08c10.94,0,19.84-8.9,19.84-19.84v-42.98c0-10.94-8.9-19.84-19.84-19.84h0Z"/><path class="cls-1" d="m26.4,423.24c0,7.12,5.76,12.89,12.89,12.89h120.64v-184.22H26.4v171.42-.08Z"/><path class="cls-1" d="m184.08,436.12h120.64c7.12,0,12.89-5.76,12.89-12.89v-171.42h-133.52v184.3Z"/><path class="cls-1" d="m87.44,140.59c4.15,2.29,12.63,5.43,37.9,5.43,13.99,0,26.28-.93,26.79-1.02,2.8-.25,5.34-1.78,6.7-4.24,1.36-2.46,1.44-5.43.17-7.88-3.81-7.46-23.65-44.85-37.81-52.73-5.09-2.97-10.94-4.49-16.79-4.49-12.63,0-24.25,6.78-30.35,17.8-9.33,16.7-3.31,37.81,13.39,47.14h0Zm1.27-39c3.14-5.68,9.16-9.16,15.68-9.16,3.05,0,6.02.76,8.73,2.29,5.17,2.88,15.77,18.4,24.84,34.33-3.73.17-8.05.25-12.46.25-22.21,0-28.4-2.54-29.76-3.31-8.65-4.83-11.7-15.68-6.95-24.33h0l-.08-.08Z"/><path class="cls-1" d="m191.8,145c.51,0,12.89,1.02,26.79,1.02,25.35,0,33.74-3.05,37.9-5.43,16.7-9.33,22.72-30.43,13.39-47.14-6.1-10.94-17.72-17.8-30.27-17.8-5.85,0-11.7,1.53-16.87,4.41-14.16,7.88-34,45.36-37.81,52.73-1.27,2.46-1.27,5.43.17,7.88,1.36,2.46,3.9,4.07,6.7,4.24h0v.08Zm39.17-50.36c2.63-1.53,5.68-2.29,8.73-2.29,6.53,0,12.46,3.56,15.68,9.16,4.83,8.65,1.7,19.58-6.95,24.33-1.36.76-7.63,3.31-29.76,3.31-4.41,0-8.73-.08-12.46-.25,9.07-15.94,19.67-31.45,24.84-34.33h0l-.08.08Z"/></g></svg>