<?xml version="1.0" encoding="UTF-8"?><svg id="ds44-icons" xmlns="http://www.w3.org/2000/svg" viewBox="0 0 299.24 251.76"><path d="m216.03,185.39L55.66,91.89c-16.52-9.49-22.24-30.57-12.75-47.1l15.58-27.13C67.98,1.15,89.06-4.57,105.59,4.92l160.37,93.52-49.93,86.96Z"/><path d="m266.92,127.21l30.34,17.41-25.54,44.5-30.34-17.41,25.54-44.5Z"/><path d="m124.7,154.31l-16.27-9.47-35.66,61.23c-3.45-.34-6.95.11-10.25,1.34l-47.22-47.22-13.32,13.32,47.22,47.22c-3.02,8.09-1.3,17.54,5.2,24.04,8.89,8.89,23.28,8.89,32.15,0,7.95-7.95,8.76-20.33,2.47-29.2l35.67-61.25Z"/></svg>