<?xml version="1.0" encoding="UTF-8"?><svg id="ds44-icons" xmlns="http://www.w3.org/2000/svg" viewBox="0 0 459.99 480"><path d="m330.71,336.34L87.49,194.54c-25.05-14.39-33.72-46.37-19.33-71.43l23.63-41.15c14.39-25.05,46.37-33.72,71.43-19.33l243.22,141.83-75.72,131.89Z"/><path d="m407.89,248.1l46.02,26.41-38.74,67.49-46.02-26.41,38.74-67.49Z"/><path d="m192.2,289.2l-24.67-14.37-54.09,92.86c-5.24-.52-10.55.17-15.54,2.03l-71.61-71.61-20.2,20.2,71.61,71.61c-4.58,12.27-1.97,26.6,7.89,36.46,13.48,13.48,35.31,13.48,48.77,0,12.06-12.06,13.28-30.83,3.74-44.28l54.1-92.9Z"/></svg>