<?xml version="1.0" encoding="UTF-8"?><svg id="ds44-icons" xmlns="http://www.w3.org/2000/svg" viewBox="0 0 406.41 480"><defs><style>.cls-1{fill:#1d1d1b;}</style></defs><path class="cls-1" d="m277.58,300.43l-160.37-93.5c-16.52-9.49-22.24-30.57-12.75-47.1l15.58-27.13c9.49-16.52,30.57-22.24,47.1-12.75l160.37,93.52-49.93,86.96Z"/><path class="cls-1" d="m328.47,242.24l30.34,17.41-25.54,44.5-30.34-17.41,25.54-44.5Z"/><path class="cls-1" d="m186.25,269.35l-16.27-9.47-35.66,61.23c-3.45-.34-6.95.11-10.25,1.34l-47.22-47.22-13.32,13.32,47.22,47.22c-3.02,8.09-1.3,17.54,5.2,24.04,8.89,8.89,23.28,8.89,32.15,0,7.95-7.95,8.76-20.33,2.47-29.2l35.67-61.25Z"/></svg>