<?xml version="1.0" encoding="UTF-8"?><svg id="ds44-icons" xmlns="http://www.w3.org/2000/svg" viewBox="0 0 372.92 381.77"><path d="m106.3,213.79h-22.9v160.31h22.9c6.3,0,11.45-5.15,11.45-11.45v-137.41c0-6.3-5.15-11.45-11.45-11.45Z"/><path d="m266.62,213.79c-6.3,0-11.45,5.15-11.45,11.45v137.41c0,6.3,5.15,11.45,11.45,11.45h22.9v-160.31h-22.9Z"/><path d="m369.67,190.88c0-101.2-82.01-183.21-183.21-183.21S3.25,89.68,3.25,190.88c0,21.97,3.87,43.01,10.95,62.55-6.94,11.88-10.95,25.76-10.95,40.51,0,40.37,29.84,73.79,68.71,79.37v-158.74c-11.45,1.65-22.12,5.66-31.42,11.59-1.93-9.59-2.93-19.47-2.93-29.63,0-82.16,66.63-148.86,148.86-148.86s148.86,66.63,148.86,148.86c0,10.16-1,20.04-2.93,29.63-9.3-5.94-19.97-9.95-31.42-11.59v158.67c38.79-5.58,68.71-39,68.71-79.37,0-14.74-4.01-28.63-10.95-40.51,7.08-19.39,10.95-40.51,10.95-62.48h0Z"/></svg>