<?xml version="1.0" encoding="UTF-8"?><svg id="ds44-icons" xmlns="http://www.w3.org/2000/svg" viewBox="0 0 473.38 480"><path d="m136.55,266.38h-28.61v200.28h28.61c7.87,0,14.31-6.44,14.31-14.31v-171.67c0-7.87-6.44-14.31-14.31-14.31Z"/><path d="m336.83,266.38c-7.87,0-14.31,6.44-14.31,14.31v171.67c0,7.87,6.44,14.31,14.31,14.31h28.61v-200.28h-28.61Z"/><path d="m465.59,237.77c0-126.43-102.46-228.9-228.9-228.9S7.8,111.33,7.8,237.77c0,27.45,4.83,53.74,13.68,78.15-8.67,14.84-13.68,32.19-13.68,50.61,0,50.43,37.29,92.18,85.84,99.16v-198.32c-14.31,2.06-27.63,7.07-39.25,14.49-2.41-11.98-3.66-24.32-3.66-37.02,0-102.65,83.24-185.98,185.98-185.98s185.98,83.24,185.98,185.98c0,12.7-1.25,25.04-3.66,37.02-11.62-7.42-24.95-12.43-39.25-14.49v198.23c48.46-6.97,85.84-48.73,85.84-99.16,0-18.42-5.01-35.76-13.68-50.61,8.85-24.23,13.68-50.61,13.68-78.06h0Z"/></svg>