<?xml version="1.0" encoding="UTF-8"?><svg id="ds44-icons" xmlns="http://www.w3.org/2000/svg" viewBox="0 0 406.41 406.07"><defs><style>.cls-1{fill:#1d1d1b;}</style></defs><path class="cls-1" d="m310.83,269.32l4.65-7.81-64.66-38.45c1.39-5.98-.69-12.49-5.87-16.5h0l-46.01-30.99c-3.38-9.37-11.39-35.5-18.54-50.77-7.72-16.5-24.7-19.7-46.65-24.35-24.48-5.18-39.66,12.95-41.34,14.91-.22.25-.43.51-.63.78L19.95,205.19c-5.39,7.12-3.99,17.27,3.13,22.67,7.13,5.39,17.27,3.98,22.66-3.14l54.5-67.53-17.95,57.18-13.62,88.36-41.95,64.8c-4.79,7.54-2.13,17.98,5.41,22.78,7.54,4.78,17.53,2.56,22.33-4.97l44.3-67.56c.97-1.53,1.68-3.22,2.1-4.99l13.3-62.43,52.41,53.37,14.28,75.93c1.46,7.77,8.25,13.18,15.88,13.18.99,0,2-.09,3.01-.28,8.78-1.65,14.56-10.1,12.9-18.88l-12.53-81.2c-.59-3.16-2.11-6.06-4.35-8.35l-56.32-62.05,17.07-70.65c6.91,17.86,13.45,39.19,13.53,39.43,1.04,2.96,2.91,5.54,5.39,7.46l49.78,33.89c2.94,2.27,6.41,3.37,9.86,3.37,4.01,0,7.98-1.49,11.04-4.35l62.4,37.11-.5.12c-.24.05-.47.13-.69.23-.04.02-4.07,1.74-8.55,2.42h-19.27l3.92,21.68,40.39-14.93-12.98-8.53Z"/><path class="cls-1" d="m243.58,271.1c-15.27,0-31.22-12.14-37.24-23.38-4.85-9.06-10.87-8.35-12.59-7.92-4.1,1.04-6.86,5.13-6.86,10.18,0,2.29.57,4.77,1.67,7.22,5.21,11.11,17.74,21.98,26.33,25.68,6.68,2.92,8.86,4.6,9.44,9.08l-.34,90.24c0,5.87,4.8,10.64,10.71,10.64,4.27,0,7.95-2.49,9.67-6.09,1.81,3.3,5.3,5.54,9.31,5.54,5.9,0,10.71-4.8,10.71-10.7v-38.68h18.52l-12.99-71.81h-26.35Z"/><path class="cls-1" d="m285.13,302.2l7.36,40.71.16.86.17.96-.17.03v36.84c0,5.9,4.8,10.7,10.7,10.7,3.73,0,7.02-1.94,8.92-4.88,1.9,2.94,5.18,4.88,8.91,4.88,5.91,0,10.71-4.8,10.71-10.71,0,0-.06-33.89-.07-41.97,6.66-7.9,12.3-33.8,13.36-42.14l3.37-3.38-14.95-9.82-48.47,17.93Z"/><path class="cls-1" d="m396.16,255.4c-.03-.13-.07-.26-.11-.39-.7-2.04-2.53-7.41-40.65-11.73l-10.5-17.85c-.86-1.46-2.52-2.23-4.18-1.94-1.66.29-2.97,1.58-3.29,3.23l-3.79,19.7-10.83,12.53-2.61,2.62-3.47.87s-.13.13-.41.33l40.15,23.59h20.16c1.41,0,2.73-.74,3.46-1.94q16.53-27.12,16.09-29.01Z"/><path class="cls-1" d="m156.88,97.79c19.37,0,35.07-15.71,35.07-35.07s-15.7-35.07-35.07-35.07-35.07,15.7-35.07,35.07,15.7,35.07,35.07,35.07Z"/></svg>