<?xml version="1.0" encoding="UTF-8"?><svg id="ds44-icons" xmlns="http://www.w3.org/2000/svg" viewBox="0 0 473.38 480"><path d="m363.91,311.48l5.7-9.59-79.34-47.18c1.71-7.34-.84-15.33-7.2-20.24h0l-56.46-38.02c-4.14-11.5-13.98-43.56-22.75-62.3-9.48-20.25-30.31-24.18-57.24-29.88-30.04-6.35-48.66,15.89-50.73,18.29-.27.31-.53.63-.78.95L6.97,232.79c-6.61,8.74-4.9,21.19,3.85,27.82,8.76,6.61,21.19,4.89,27.81-3.85l66.88-82.87-22.03,70.17-16.71,108.43-51.47,79.51c-5.88,9.25-2.61,22.06,6.64,27.95,9.25,5.86,21.52,3.15,27.41-6.1l54.36-82.9c1.2-1.88,2.07-3.95,2.57-6.12l16.32-76.61,64.31,65.48,17.53,93.17c1.79,9.53,10.13,16.18,19.48,16.18,1.22,0,2.45-.11,3.69-.34,10.78-2.02,17.87-12.4,15.83-23.17l-15.38-99.64c-.73-3.87-2.58-7.44-5.34-10.25l-69.11-76.14,20.94-86.69c8.48,21.91,16.5,48.09,16.6,48.39,1.28,3.63,3.57,6.8,6.62,9.16l61.09,41.58c3.61,2.78,7.87,4.13,12.09,4.13,4.92,0,9.8-1.83,13.55-5.34l76.57,45.53-.61.15c-.29.06-.57.16-.85.28-.05.02-4.99,2.14-10.49,2.97h-23.65l4.81,26.61,49.56-18.33-15.93-10.46Z"/><path d="m281.39,313.67c-18.73,0-38.31-14.89-45.7-28.69-5.95-11.12-13.33-10.25-15.45-9.71-5.04,1.27-8.42,6.29-8.42,12.5,0,2.81.7,5.85,2.05,8.86,6.39,13.63,21.76,26.97,32.31,31.51,8.2,3.58,10.88,5.65,11.58,11.15l-.42,110.73c0,7.2,5.89,13.05,13.14,13.05,5.23,0,9.76-3.06,11.87-7.47,2.22,4.05,6.51,6.8,11.43,6.8,7.25,0,13.14-5.88,13.14-13.13v-47.47h22.72l-15.93-88.12h-32.33Z"/><path d="m332.37,351.83l9.03,49.96.19,1.06.21,1.18-.21.03v45.2c0,7.24,5.89,13.13,13.13,13.13,4.58,0,8.62-2.39,10.95-5.99,2.33,3.61,6.36,5.99,10.94,5.99,7.25,0,13.14-5.88,13.14-13.14,0,0-.07-41.58-.08-51.5,8.17-9.69,15.09-41.48,16.4-51.72l4.13-4.15-18.35-12.05-59.48,22Z"/><path d="m468.62,294.4c-.04-.16-.09-.32-.14-.48-.86-2.5-3.11-9.09-49.89-14.39l-12.89-21.9c-1.05-1.79-3.09-2.74-5.13-2.39-2.04.35-3.65,1.94-4.04,3.96l-4.66,24.18-13.29,15.37-3.21,3.21-4.26,1.07s-.16.16-.5.41l49.27,28.95h24.74c1.74,0,3.35-.91,4.25-2.39q20.28-33.28,19.74-35.6Z"/><path d="m174.99,100.99c23.77,0,43.04-19.27,43.04-43.04s-19.27-43.03-43.04-43.03-43.03,19.26-43.03,43.03,19.27,43.04,43.03,43.04Z"/></svg>