<?xml version="1.0" encoding="UTF-8"?><svg id="ds44-icons" xmlns="http://www.w3.org/2000/svg" viewBox="0 0 406.41 480"><path d="m231.44,234.44c-.44.1-.87.24-1.29.42-.08.04-7.59,3.25-15.93,4.52h-102.91c-28.47,0-58.21-22.63-69.44-43.6-9.04-16.89-20.26-15.57-23.47-14.75-7.65,1.92-12.8,9.55-12.8,18.98,0,4.28,1.06,8.89,3.12,13.45,9.71,20.71,33.07,40.99,49.1,47.87,12.46,5.44,16.53,8.59,17.6,16.94l-.63,168.25c0,10.94,8.96,19.83,19.97,19.83,7.95,0,14.83-4.65,18.04-11.36,3.37,6.16,9.89,10.35,17.36,10.35,11.01,0,19.97-8.95,19.97-19.95v-72.13h52.67v72.13c0,11,8.95,19.95,19.95,19.95,6.96,0,13.1-3.63,16.64-9.1,3.54,5.47,9.67,9.1,16.62,9.1,11.01,0,19.97-8.95,19.97-19.97,0,0-.1-63.18-.13-78.25,12.42-14.72,22.93-63.03,24.92-78.59l6.28-6.31-73.58-48.3-2,.5Z"/><path d="m76.22,25.8c-5.17,2.15-8.32,4.8-13.32,7.27,43.08,89.59,115.55,182,170.54,200.86l18.26-12.66c-55.73-12.91-131.09-103.32-175.48-195.47Z"/><path d="m400.6,207.54c-.06-.25-.13-.49-.21-.74-1.3-3.81-4.72-13.82-75.8-21.86l-19.58-33.29c-1.59-2.71-4.7-4.16-7.8-3.62-3.1.53-5.55,2.93-6.14,6.02l-7.07,36.73-20.19,23.36-4.88,4.88-6.47,1.62s-.25.25-.76.63l74.86,43.98h37.59c2.64,0,5.08-1.37,6.46-3.63q30.81-50.57,30-54.09Z"/></svg>