<?xml version="1.0" encoding="UTF-8"?><svg id="ds44-icons" xmlns="http://www.w3.org/2000/svg" viewBox="0 0 406.41 480"><defs><style>.cls-1{fill:#1d1d1b;}</style></defs><path class="cls-1" d="m234.92,232.21c-.33.08-.65.18-.97.31-.06.03-5.67,2.43-11.9,3.38h-76.89c-21.27,0-43.49-16.91-51.88-32.58-6.75-12.62-15.14-11.63-17.54-11.02-5.72,1.43-9.56,7.13-9.56,14.18,0,3.19.79,6.64,2.33,10.05,7.25,15.47,24.71,30.62,36.68,35.76,9.31,4.07,12.35,6.42,13.15,12.66l-.47,125.7c0,8.17,6.69,14.82,14.92,14.82,5.94,0,11.08-3.48,13.47-8.48,2.52,4.6,7.39,7.73,12.97,7.73,8.22,0,14.92-6.69,14.92-14.91v-53.89h39.35v53.89c0,8.22,6.69,14.91,14.9,14.91,5.2,0,9.78-2.71,12.43-6.8,2.64,4.09,7.22,6.8,12.42,6.8,8.23,0,14.92-6.69,14.92-14.92,0,0-.08-47.2-.1-58.46,9.28-11,17.13-47.09,18.61-58.72l4.69-4.71-54.97-36.09-1.5.38Z"/><path class="cls-1" d="m118.96,76.35c-3.86,1.61-6.22,3.59-9.95,5.43,32.19,66.93,86.33,135.97,127.41,150.06l13.64-9.46c-41.64-9.64-97.94-77.19-131.1-146.04Z"/><path class="cls-1" d="m361.3,212.12c-.04-.19-.1-.37-.16-.55-.97-2.85-3.53-10.33-56.63-16.33l-14.63-24.87c-1.19-2.02-3.51-3.11-5.83-2.7-2.32.4-4.14,2.19-4.59,4.5l-5.28,27.44-15.08,17.45-3.64,3.64-4.83,1.21s-.19.18-.57.47l55.93,32.86h28.08c1.97,0,3.8-1.03,4.82-2.71q23.02-37.78,22.41-40.41Z"/></svg>