<?xml version="1.0" encoding="UTF-8"?><svg id="Capa_1" xmlns="http://www.w3.org/2000/svg" viewBox="0 0 704 512"><defs><style>.cls-1{fill:#181716;}</style></defs><g id="Calque_9"><path class="cls-1" d="m689,382.5c0-1.39-2.01-34.07-31.9-47.86l-285.58-131.02v-28.81c0-10.69-8.67-19.2-19.36-19.2-15.18,0-27.41-12.23-27.41-27.1s12.39-27.1,27.41-27.1,27.41,12.23,27.41,27.1c0,10.69,8.67,19.2,19.36,19.2s19.36-8.67,19.36-19.2c0-36.24-29.74-65.67-66.13-65.67-17.66,0-34.23,6.81-46.77,19.2-12.54,12.39-19.36,28.96-19.36,46.46,0,28.96,19.36,54.36,46.77,62.72v12.39L47.06,334.49c-30.05,13.94-32.06,46.62-32.06,48.94,0,36.09,29.74,65.51,66.13,65.51h541.74c36.39,0,66.13-29.43,66.13-65.82v-.77.15Zm-66.13,28.03H81.13c-15.02,0-27.26-12.08-27.41-26.02,0-1.08,1.24-11.31,9.6-15.18l288.68-132.41,288.68,132.41c8.36,3.87,9.6,13.94,9.6,14.25-.15,14.71-12.54,26.79-27.41,26.79v.15Z"/></g></svg>