<?xml version="1.0" encoding="utf-8"?>
<!-- Generator: Adobe Illustrator 27.5.0, SVG Export Plug-In . SVG Version: 6.00 Build 0)  -->
<svg version="1.1" id="Capa_1" xmlns="http://www.w3.org/2000/svg" xmlns:xlink="http://www.w3.org/1999/xlink" x="0px" y="0px"
	 viewBox="0 0 680 392.1" style="enable-background:new 0 0 680 392.1;" xml:space="preserve">
<style type="text/css">
	.st0{fill:#181716;}
</style>
<g id="Calque_9">
	<path class="st0" d="M677,322.5c0-1.4-2-34.1-31.9-47.9l-285.6-131v-28.8c0-10.7-8.7-19.2-19.4-19.2c-15.2,0-27.4-12.2-27.4-27.1
		s12.4-27.1,27.4-27.1s27.4,12.2,27.4,27.1c0,10.7,8.7,19.2,19.4,19.2s19.4-8.7,19.4-19.2c0-36.2-29.7-65.7-66.1-65.7
		c-17.7,0-34.2,6.8-46.8,19.2C280.8,34.5,274,51,274,68.5c0,29,19.4,54.4,46.8,62.7v12.4L35.1,274.5C5,288.5,3,321.2,3,323.5
		C3,359.6,32.7,389,69.1,389h541.7c36.4,0,66.1-29.4,66.1-65.8v-0.8V322.5z M610.9,350.6H69.1c-15,0-27.3-12.1-27.4-26
		c0-1.1,1.2-11.3,9.6-15.2L340,177l288.7,132.4c8.4,3.9,9.6,13.9,9.6,14.2c-0.2,14.7-12.5,26.8-27.4,26.8V350.6L610.9,350.6z"/>
</g>
</svg>
