<?xml version="1.0" encoding="UTF-8"?><svg id="Capa_1" xmlns="http://www.w3.org/2000/svg" viewBox="0 0 530.66 512"><defs><style>.cls-1{fill:#181716;}</style></defs><g id="Calque_9"><path class="cls-1" d="m192.73,158.51c7.74,15.6,31.09,1.88,23.34-13.73h0c-3.28-6.33-6.8-12.79-9.62-19.47-2.35-5.16-3.05-10.91-1.64-16.31,1.76-7.51,6.8-11.97,10.91-18.07,11.5-17.24,8.56-40,8.56-59.71,0-17.48-27.22-17.48-27.22,0v24.87c0,3.05.23,6.1-.12,9.15-.94,8.56-6.69,13.73-11.26,20.41-10.91,15.95-10.79,36.25-2.7,53.26,3.17,6.57,6.57,13.02,9.74,19.59Z"/><path class="cls-1" d="m256.89,158.51c7.74,15.6,31.09,1.88,23.34-13.73h0c-3.28-6.33-6.8-12.79-9.62-19.47-2.35-5.16-3.05-10.91-1.64-16.31,1.76-7.51,6.8-11.97,10.91-18.07,11.5-17.24,8.56-40,8.56-59.71,0-17.48-27.22-17.48-27.22,0v24.87c0,3.05.23,6.1-.12,9.15-.94,8.56-6.69,13.73-11.26,20.41-10.91,15.95-10.79,36.25-2.7,53.26,3.17,6.57,6.57,13.02,9.74,19.59Z"/><path class="cls-1" d="m323.17,159.44c7.74,15.6,31.09,1.76,23.34-13.73h0c-3.28-6.33-6.8-12.79-9.62-19.47-2.35-5.16-3.05-10.91-1.64-16.31,1.76-7.51,6.8-11.97,10.91-18.07,11.5-17.24,8.56-40,8.56-59.71,0-17.48-27.22-17.48-27.22,0v24.87c0,3.05.23,6.1-.12,9.15-.94,8.56-6.69,13.73-11.26,20.41-10.91,15.95-10.79,36.25-2.7,53.26,3.17,6.57,6.57,13.02,9.74,19.59Z"/><path class="cls-1" d="m402.47,371.66c6.1,1.88,12.9,2.7,19.83,2.7,36.84,0,67.34-28.15,67.34-62.76s-30.03-62.76-67.34-62.76c-2.23,0-4.58,0-6.8.35-1.53-27.8-5.28-46.81-5.28-46.81H123.04s-27.33,145.7,36.37,216.32h216.55c11.73-13.49,20.41-29.56,26.63-47.16l-.12.12Zm13.73-99.95c1.88-.35,3.75-.7,5.75-.7,23.93,0,43.29,18.3,43.29,40.71s-19.36,40.71-43.29,40.71c-4.58,0-9.15-.7-13.26-2.23,6.1-26.63,7.63-53.96,7.63-78.36l-.12-.12Z"/><path class="cls-1" d="m18.17,437.11c-3.52-.7,1.06,60.88,241.66,56.31h8.33c240.6,4.58,245.18-56.31,245.18-56.31H18.17Z"/></g></svg>