<?xml version="1.0" encoding="utf-8"?>
<!-- Generator: Adobe Illustrator 26.0.3, SVG Export Plug-In . SVG Version: 6.00 Build 0)  -->
<svg version="1.1" id="ds44-icons" xmlns="http://www.w3.org/2000/svg" xmlns:xlink="http://www.w3.org/1999/xlink" x="0px" y="0px"
	 viewBox="0 0 394 308" style="enable-background:new 0 0 394 308;" xml:space="preserve">
<g id="Groupe_1239" transform="translate(4.602)">
	<path id="Tracé_749" d="M244.7,167.4c33.5-28.6,37.4-79,8.7-112.5c-28.6-33.5-79-37.4-112.5-8.7s-37.4,79-8.7,112.5
		c2.7,3.1,5.6,6.1,8.7,8.7c-36.8,19.3-59.9,57.4-59.9,99c0,8.8,7.1,16,16,16s16-7.1,16-16c0-44.1,35.7-79.8,79.8-79.8
		s79.8,35.7,79.8,79.8c0.3,8.8,7.7,15.7,16.5,15.4c8.4-0.3,15.2-7,15.4-15.4C304.6,224.8,281.5,186.7,244.7,167.4z M145,106.7
		c0-26.4,21.5-47.9,47.9-47.8c26.4,0,47.9,21.5,47.8,47.9c0,26.4-21.5,47.8-47.9,47.8C166.5,154.6,145.1,133.2,145,106.7L145,106.7z
		"/>
</g>
<g id="Groupe_1240">
	<path id="Tracé_750" d="M117.7,138.7c0,8.8-7.2,15.9-16,16c-35.2,0.1-63.7,28.6-63.8,63.9c-0.3,8.8-7.7,15.7-16.5,15.4
		c-8.4-0.3-15.2-7-15.4-15.4c-0.1-34.9,18.9-67,49.4-83.8C44,123,37.7,107.2,37.9,90.8C38,55.6,66.5,27.1,101.7,27
		c8.8,0.3,15.7,7.7,15.4,16.5c-0.3,8.4-7,15.2-15.4,15.4C84.1,58.5,69.5,72.4,69,90.1s13.5,32.2,31.2,32.7c0.5,0,1,0,1.5,0
		C110.5,122.7,117.7,129.9,117.7,138.7z"/>
</g>
<g id="Groupe_1241" transform="translate(15.647)">
	<path id="Tracé_751" d="M373.4,218.5c0,8.8-7.1,16-16,16c-8.8,0-16-7.1-16-16c-0.1-35.2-28.6-63.7-63.9-63.9c-8.8,0-16-7.1-16-16
		c0-8.8,7.1-16,16-16l0,0c17.6,0.4,32.2-13.5,32.7-31.2c0.4-17.6-13.5-32.2-31.2-32.7c-0.5,0-1,0-1.5,0c-8.8-0.3-15.7-7.7-15.4-16.5
		c0.3-8.4,7-15.2,15.4-15.4c35.2,0.1,63.7,28.6,63.8,63.8c0.2,16.4-6.2,32.2-17.6,43.9C354.4,151.5,373.4,183.6,373.4,218.5z"/>
</g>
</svg>
