<?xml version="1.0" encoding="UTF-8"?><svg id="Capa_1" xmlns="http://www.w3.org/2000/svg" viewBox="0 0 702 512"><defs><style>.cls-1{fill:#181716;}</style></defs><g id="Calque_9"><path class="cls-1" d="m650.3,60.16H51.7c-21.85,0-39.7,17.86-39.7,39.7v312.05c0,21.85,17.86,39.7,39.7,39.7h598.59c21.85,0,39.7-17.86,39.7-39.7V99.86c0-21.85-17.86-39.7-39.7-39.7Zm18.02,351.76c0,9.89-8.13,18.02-18.02,18.02H51.7c-9.89,0-18.02-8.13-18.02-18.02v-201.87h634.63v201.87Zm0-275.86H33.69v-36.2c0-9.89,8.13-18.02,18.02-18.02h598.59c9.89,0,18.02,8.13,18.02,18.02,0,0,0,36.2,0,36.2Z"/><path class="cls-1" d="m219.13,325.65h28.86v28.86h-28.86v-28.86Z"/><path class="cls-1" d="m327.56,325.65h14.51v28.86h-14.51v-28.86Z"/><path class="cls-1" d="m269.68,325.65h36.04v28.86h-36.04v-28.86Z"/><path class="cls-1" d="m53.14,325.65h36.04v28.86h-36.04s0-28.86,0-28.86Z"/><path class="cls-1" d="m110.86,325.65h28.86v28.86h-28.86s0-28.86,0-28.86Z"/><path class="cls-1" d="m161.41,325.65h36.04v28.86h-36.04v-28.86Z"/><path class="cls-1" d="m520.66,377.95c11.64,0,22-5.42,28.86-13.55,7.02,8.29,17.22,13.55,28.86,13.55,20.89,0,37.95-16.9,37.95-37.95s-16.9-37.95-37.95-37.95c-11.64,0-22,5.42-28.86,13.55-7.02-8.29-17.22-13.55-28.86-13.55-20.89,0-37.95,16.9-37.95,37.95s16.9,37.95,37.95,37.95Z"/></g></svg>