<?xml version="1.0" encoding="UTF-8"?><svg id="ds44-icons" xmlns="http://www.w3.org/2000/svg" viewBox="0 0 295 423.57"><defs><style>.cls-1{fill:#1d1d1b;}</style></defs><path class="cls-1" d="m100.57,86.85h13.07V29.19h-10.34c-1.37,7.86-7.62,11.39-15.96,11.63v8.74h13.23v37.29Z"/><path class="cls-1" d="m155.94,62.55c0-5.45,2.96-9.23,7.38-9.23,4.17,0,6.26,2.81,6.26,7.47v26.06h12.59v-24.3c0-5.45,2.81-9.23,7.29-9.23,4.09,0,6.34,2.81,6.34,7.47v26.06h12.51v-28.15c0-9.46-4.89-15.72-14.35-15.72-5.37,0-10.02,2.41-13.55,8.11h-.16c-2.17-5.3-6.09-8.11-11.71-8.11-6.01,0-10.1,2.81-12.83,7.86h-.24v-6.66h-12.11v42.66h12.59v-24.3Z"/><polygon class="cls-1" points="231.83 129.62 196.67 109.31 196.67 121.47 98.99 121.47 98.99 109.31 63.82 129.62 98.99 149.93 98.99 137.76 196.67 137.76 196.67 149.93 231.83 129.62"/><path class="cls-1" d="m72.23,218.71c13.38,0,24.22-10.84,24.22-24.22s-10.85-24.22-24.22-24.22-24.22,10.84-24.22,24.22,10.85,24.22,24.22,24.22Z"/><path class="cls-1" d="m95.93,222.37h-47.41c-15.1,0-26.49,11.89-26.49,27.66v54.73c0,5.83,4.73,10.55,10.56,10.55s10.56-4.73,10.56-10.55c0-.02,0-.03,0-.05h.05s-.06-55.6-.01-56.03c.18-.79.84-1.39,1.68-1.39.96,0,1.72.77,1.75,1.71h.03v149.25c0,5.82,4.72,10.53,10.53,10.53s10.53-4.72,10.53-10.53v-73.73h9.06v73.74c0,5.81,4.72,10.53,10.53,10.53s10.53-4.71,10.53-10.53v-149.25h.03c.03-.95.8-1.71,1.75-1.71.84,0,1.5.6,1.68,1.39.05.43-.01,56.03-.01,56.03h.05s0,.03,0,.05c0,5.83,4.73,10.56,10.56,10.56s10.55-4.73,10.55-10.56c.01-.32.01-47.31.01-54.72h0c0-15.77-11.39-27.67-26.49-27.67Z"/><path class="cls-1" d="m223.43,218.71c13.38,0,24.22-10.84,24.22-24.22s-10.85-24.22-24.22-24.22-24.22,10.84-24.22,24.22,10.85,24.22,24.22,24.22Z"/><path class="cls-1" d="m247.13,222.37h-47.41c-15.1,0-26.49,11.89-26.49,27.66v54.73c0,5.83,4.73,10.55,10.56,10.55s10.56-4.73,10.56-10.55c0-.02,0-.03,0-.05h.05s-.06-55.6-.01-56.03c.18-.79.84-1.39,1.68-1.39.96,0,1.72.77,1.75,1.71h.03v149.25c0,5.82,4.72,10.53,10.53,10.53s10.53-4.72,10.53-10.53v-73.73h9.06v73.74c0,5.81,4.72,10.53,10.53,10.53s10.53-4.71,10.53-10.53v-149.25h.03c.03-.95.8-1.71,1.75-1.71.84,0,1.5.6,1.68,1.39.05.43-.01,56.03-.01,56.03h.05s0,.03,0,.05c0,5.83,4.73,10.56,10.55,10.56s10.56-4.73,10.56-10.56c0-.32,0-47.31,0-54.72h0c0-15.77-11.39-27.67-26.49-27.67Z"/></svg>