<?xml version="1.0" encoding="UTF-8"?><svg id="ds44-icons" xmlns="http://www.w3.org/2000/svg" viewBox="0 0 406.41 480"><defs><style>.cls-1{fill:#1d1d1b;}</style></defs><path class="cls-1" d="m124.24,75.08h-12.44v-8.22c7.84-.23,13.73-3.55,15.01-10.94h9.73v54.24h-12.3v-35.08Z"/><path class="cls-1" d="m145.76,118.53c3.54-.9,5.8-3.77,5.8-8.22v-.15h-5.88v-12.37h12.52v11.61c0,9.51-5.5,13.81-12.44,14.41v-5.28Z"/><path class="cls-1" d="m163.19,94.92h12.14c.84,4,4.23,6.64,9.35,6.64,5.58,0,9.51-3.85,9.51-9.43s-4.07-9.28-9.28-9.28c-3.85,0-6.79,1.58-8.37,3.54h-11.54l5.58-29.94h32.67v9.88h-23.84l-2.41,11.84h.15c2.49-2.71,5.81-4.38,11.09-4.38,9.8,0,18.33,7.09,18.33,18.41s-8.9,19.24-21.43,19.24-21.12-6.27-21.95-16.52Z"/><path class="cls-1" d="m231.2,70.03h11.39v6.27h.23c2.56-4.75,6.41-7.4,12.07-7.4,5.28,0,8.97,2.64,11.01,7.62h.15c3.32-5.36,7.69-7.62,12.75-7.62,8.9,0,13.5,5.88,13.5,14.78v26.48h-11.76v-24.51c0-4.38-2.11-7.02-5.96-7.02-4.22,0-6.86,3.55-6.86,8.68v22.86h-11.84v-24.51c0-4.38-1.97-7.02-5.88-7.02-4.15,0-6.94,3.55-6.94,8.68v22.86h-11.84v-40.13Z"/><polygon class="cls-1" points="284.67 153.34 250.98 133.88 250.98 145.54 157.39 145.54 157.39 133.88 123.7 153.34 157.39 172.8 157.39 161.14 250.98 161.14 250.98 172.8 284.67 153.34"/><path class="cls-1" d="m131.75,238.7c12.82,0,23.21-10.39,23.21-23.21s-10.39-23.2-23.21-23.2-23.21,10.39-23.21,23.2,10.39,23.21,23.21,23.21Z"/><path class="cls-1" d="m154.46,242.21h-45.42c-14.47,0-25.38,11.39-25.38,26.5v52.44c0,5.59,4.53,10.11,10.11,10.11s10.11-4.53,10.11-10.11c0-.02,0-.03,0-.05h.05s-.06-53.27-.01-53.68c.17-.75.8-1.33,1.61-1.33.92,0,1.65.74,1.68,1.64h.02v143c0,5.58,4.52,10.09,10.09,10.09s10.09-4.52,10.09-10.09v-70.64h8.68v70.65c0,5.57,4.52,10.09,10.09,10.09s10.09-4.52,10.09-10.09v-143h.02c.03-.91.77-1.64,1.68-1.64.8,0,1.44.57,1.61,1.33.05.41-.01,53.68-.01,53.68h.05s0,.03,0,.05c0,5.59,4.53,10.11,10.11,10.11s10.11-4.53,10.11-10.11c.01-.3.01-45.33.01-52.43h0c0-15.11-10.91-26.51-25.38-26.51Z"/><path class="cls-1" d="m276.62,238.7c12.82,0,23.21-10.39,23.21-23.21s-10.39-23.2-23.21-23.2-23.21,10.39-23.21,23.2,10.39,23.21,23.21,23.21Z"/><path class="cls-1" d="m299.33,242.21h-45.42c-14.47,0-25.38,11.39-25.38,26.5v52.44c0,5.59,4.53,10.11,10.11,10.11s10.11-4.53,10.11-10.11c0-.02,0-.03,0-.05h.05s-.06-53.27-.01-53.68c.17-.75.8-1.33,1.61-1.33.92,0,1.65.74,1.68,1.64h.03v143c0,5.58,4.52,10.09,10.09,10.09s10.09-4.52,10.09-10.09v-70.64h8.68v70.65c0,5.57,4.52,10.09,10.09,10.09s10.09-4.52,10.09-10.09v-143h.03c.03-.91.76-1.64,1.68-1.64.8,0,1.44.57,1.61,1.33.05.41-.01,53.68-.01,53.68h.05s0,.03,0,.05c0,5.59,4.53,10.11,10.11,10.11s10.11-4.53,10.11-10.11c0-.3,0-45.33,0-52.43h0c0-15.11-10.91-26.51-25.38-26.51Z"/></svg>