<?xml version="1.0" encoding="UTF-8"?><svg id="ds44-icons" xmlns="http://www.w3.org/2000/svg" viewBox="0 0 316.62 480"><path d="m57.19,32.45h-15.74v-10.39c9.92-.29,17.36-4.49,18.99-13.84h12.31v68.6h-15.55v-44.37Z"/><path d="m84.41,87.41c4.48-1.14,7.34-4.77,7.34-10.39v-.19h-7.44v-15.65h15.84v14.69c0,12.03-6.96,17.46-15.74,18.23v-6.68Z"/><path d="m106.46,57.55h15.36c1.06,5.06,5.34,8.4,11.83,8.4,7.06,0,12.03-4.86,12.03-11.93s-5.15-11.74-11.74-11.74c-4.86,0-8.58,2-10.59,4.48h-14.6l7.06-37.87h41.32v12.5h-30.15l-3.05,14.98h.19c3.15-3.43,7.35-5.54,14.03-5.54,12.4,0,23.19,8.97,23.19,23.28s-11.26,24.33-27.1,24.33-26.72-7.92-27.77-20.9Z"/><path d="m192.48,26.06h14.4v7.92h.29c3.24-6.01,8.11-9.35,15.27-9.35,6.68,0,11.35,3.34,13.93,9.64h.19c4.2-6.77,9.73-9.64,16.12-9.64,11.26,0,17.08,7.44,17.08,18.7v33.49h-14.88v-31.01c0-5.54-2.67-8.88-7.54-8.88-5.34,0-8.68,4.49-8.68,10.98v28.91h-14.98v-31.01c0-5.54-2.49-8.88-7.44-8.88-5.25,0-8.78,4.49-8.78,10.98v28.91h-14.98V26.06Z"/><polygon points="260.11 131.43 217.5 106.82 217.5 121.56 99.12 121.56 99.12 106.82 56.51 131.43 99.12 156.04 99.12 141.31 217.5 141.31 217.5 156.04 260.11 131.43"/><path d="m66.7,239.4c16.21,0,29.35-13.14,29.35-29.35s-13.14-29.35-29.35-29.35-29.35,13.14-29.35,29.35,13.14,29.35,29.35,29.35Z"/><path d="m95.42,243.83h-57.45c-18.3,0-32.1,14.41-32.1,33.52v66.32c0,7.07,5.73,12.79,12.79,12.79s12.79-5.73,12.79-12.79c0-.02,0-.04,0-.06h.06s-.08-67.38-.01-67.9c.21-.95,1.02-1.68,2.04-1.68,1.16,0,2.09.93,2.13,2.08h.03v180.87c0,7.05,5.71,12.76,12.76,12.76s12.76-5.72,12.76-12.76v-89.35h10.98v89.36c0,7.05,5.71,12.76,12.76,12.76s12.76-5.71,12.76-12.76v-180.87h.03c.03-1.15.97-2.08,2.13-2.08,1.02,0,1.82.72,2.04,1.68.06.52-.01,67.9-.01,67.9h.06s0,.03,0,.06c0,7.07,5.73,12.79,12.79,12.79s12.79-5.73,12.79-12.79c.01-.39.01-57.33.01-66.32h0c0-19.12-13.8-33.53-32.1-33.53Z"/><path d="m249.93,239.4c16.21,0,29.35-13.14,29.35-29.35s-13.14-29.35-29.35-29.35-29.35,13.14-29.35,29.35,13.14,29.35,29.35,29.35Z"/><path d="m278.65,243.83h-57.45c-18.3,0-32.1,14.41-32.1,33.52v66.32c0,7.07,5.73,12.79,12.79,12.79s12.79-5.73,12.79-12.79c0-.02,0-.04,0-.06h.06s-.08-67.38-.02-67.9c.21-.95,1.02-1.68,2.04-1.68,1.16,0,2.09.93,2.13,2.08h.03v180.87c0,7.05,5.71,12.76,12.76,12.76s12.76-5.72,12.76-12.76v-89.35h10.98v89.36c0,7.05,5.71,12.76,12.76,12.76s12.76-5.71,12.76-12.76v-180.87h.03c.03-1.15.97-2.08,2.13-2.08,1.02,0,1.82.72,2.04,1.68.06.52-.01,67.9-.01,67.9h.06s0,.03,0,.06c0,7.07,5.73,12.79,12.79,12.79s12.79-5.73,12.79-12.79c.01-.39.01-57.33.01-66.32h0c0-19.12-13.8-33.53-32.1-33.53Z"/></svg>