<?xml version="1.0" encoding="UTF-8"?><svg id="ds44-icons" xmlns="http://www.w3.org/2000/svg" viewBox="0 0 320.11 480"><path d="m102.77,79.8h15.85V9.9h-12.54c-1.66,9.52-9.24,13.81-19.35,14.1v10.59h16.04v45.21Z"/><path d="m169.9,50.34c0-6.61,3.59-11.19,8.95-11.19,5.05,0,7.58,3.4,7.58,9.05v31.59h15.26v-29.46c0-6.61,3.4-11.19,8.84-11.19,4.96,0,7.69,3.4,7.69,9.05v31.59h15.16v-34.13c0-11.47-5.93-19.06-17.4-19.06-6.52,0-12.15,2.92-16.43,9.83h-.2c-2.63-6.42-7.39-9.83-14.2-9.83-7.29,0-12.25,3.4-15.56,9.53h-.29v-8.07h-14.68v51.72h15.26v-29.46Z"/><polygon points="261.9 131.65 219.27 107.03 219.27 121.77 100.85 121.77 100.85 107.03 58.21 131.65 100.85 156.27 100.85 141.53 219.27 141.53 219.27 156.27 261.9 131.65"/><path d="m68.41,239.66c16.22,0,29.37-13.14,29.37-29.37s-13.15-29.36-29.37-29.36-29.37,13.14-29.37,29.36,13.15,29.37,29.37,29.37Z"/><path d="m97.14,244.1h-57.47c-18.31,0-32.12,14.42-32.12,33.53v66.35c0,7.07,5.73,12.79,12.8,12.79s12.8-5.73,12.8-12.79c0-.02,0-.04,0-.06h.06s-.08-67.41-.01-67.93c.21-.95,1.02-1.68,2.04-1.68,1.16,0,2.09.93,2.13,2.08h.03v180.95c0,7.05,5.72,12.77,12.76,12.77s12.76-5.72,12.76-12.77v-89.38h10.98v89.39c0,7.05,5.72,12.76,12.76,12.76s12.76-5.71,12.76-12.76v-180.95h.03c.03-1.15.97-2.08,2.13-2.08,1.02,0,1.82.72,2.04,1.68.06.52-.01,67.93-.01,67.93h.06s0,.03,0,.06c0,7.07,5.73,12.8,12.8,12.8s12.8-5.73,12.8-12.8c.01-.39.01-57.36.01-66.34h0c0-19.12-13.81-33.54-32.12-33.54Z"/><path d="m251.71,239.66c16.22,0,29.37-13.14,29.37-29.37s-13.15-29.36-29.37-29.36-29.37,13.14-29.37,29.36,13.15,29.37,29.37,29.37Z"/><path d="m280.45,244.1h-57.47c-18.31,0-32.12,14.42-32.12,33.53v66.35c0,7.07,5.73,12.79,12.8,12.79s12.8-5.73,12.8-12.79c0-.02,0-.04,0-.06h.06s-.08-67.41-.02-67.93c.21-.95,1.02-1.68,2.04-1.68,1.16,0,2.09.93,2.13,2.08h.03v180.95c0,7.05,5.72,12.77,12.76,12.77s12.76-5.72,12.76-12.77v-89.38h10.98v89.39c0,7.05,5.72,12.76,12.76,12.76s12.76-5.71,12.76-12.76v-180.95h.03c.03-1.15.97-2.08,2.13-2.08,1.02,0,1.82.72,2.04,1.68.06.52-.01,67.93-.01,67.93h.06s0,.03,0,.06c0,7.07,5.73,12.8,12.8,12.8s12.8-5.73,12.8-12.8c.01-.39.01-57.36.01-66.34h0c0-19.12-13.81-33.54-32.12-33.54Z"/></svg>