<svg id="ds44-icons" xmlns="http://www.w3.org/2000/svg" viewBox="0 0 450 480"><path d="M347.29,462.12H102.71c-15.78,0-29.78-5.77-41.59-17.16S43,419.19,43,403.37L44,76.58a57.41,57.41,0,0,1,17.4-41.3,57.44,57.44,0,0,1,41.35-17.4H273.8L407,151.08V403.37c0,15.8-6.27,30.19-18.13,41.61S363.05,462.12,347.29,462.12Zm-244.58-407c-5.89,0-10.52,2-15,6.49s-6.49,9.11-6.49,15l-1,326.79c0,5.7,2.06,10.24,6.69,14.69,4.78,4.61,9.78,6.75,15.75,6.75H347.29c6,0,11-2.14,15.74-6.74s6.7-9,6.7-14.75V166.51L258.36,55.14Z"/><rect x="143.79" y="240" width="162.41" height="41.08"/><rect x="143.79" y="321.21" width="162.41" height="41.08"/><polygon points="245.06 178.86 357.8 178.86 245.06 67.08 245.06 178.86"/></svg>