<?xml version="1.0" encoding="utf-8"?>
<!-- Generator: Adobe Illustrator 25.1.0, SVG Export Plug-In . SVG Version: 6.00 Build 0)  -->
<svg version="1.0" id="ds44-icons" xmlns="http://www.w3.org/2000/svg" xmlns:xlink="http://www.w3.org/1999/xlink" x="0px" y="0px"
	 viewBox="0 0 466.4 480" enable-background="new 0 0 466.4 480" xml:space="preserve">
<g id="Calque_2_1_" transform="translate(3.008 1)">
	<g id="Calque_1">
		<path id="Tracé_2528" d="M219,232.9c6.6,0,12-5.4,12-12s-5.4-12-12-12c-84.7,0-135.8-19-138.5-28.3v-79.2
			c44.1,17.1,91.2,25.3,138.5,24c47.3,1.3,94.4-6.9,138.5-24v41.3c0.1,6.6,5.4,11.9,12,12c6.6,0,12-5.4,12-12v-72
			c0.4-1.6,0.4-3.2,0-4.8C370.6,29.4,276.1,19.5,219,19.5S67.5,29.4,56.5,65.6c-0.2,1.6-0.2,3.2,0,4.8v336
			c0,44.6,104.4,51.1,136.3,52.1l0,0c6.5-0.1,11.7-5.3,12-11.8c0.1-6.5-5-12-11.5-12.2c-85.7-3.6-112.8-23.8-112.8-29.3V320
			c35.8,14,73.9,21.1,112.3,21.1l0,0c6.5-0.1,11.7-5.3,12-11.8c0.3-6.5-4.8-12-11.3-12.2c-0.1,0-0.2,0-0.3,0
			c-85.7-2.6-112.8-22.8-112.8-28.3v-78.7C124.7,226.7,171.7,234.4,219,232.9z M219,43.5c84.2,0,135.4,18.7,138.5,28.3
			c-3.1,9.8-54.2,28.3-138.5,28.3S83.1,81.4,80.5,72.1l0,0C83.1,62.2,134.2,43.5,219,43.5z"/>
		<path id="Tracé_2529" d="M403.8,248.7H274.4c-13.9-23.9-5.8-54.7,18.1-68.6s54.7-5.8,68.6,18.1c1.7,3,3.2,6.1,4.2,9.4
			c2.7,6,9.8,8.7,15.9,6c5.3-2.4,8.1-8.3,6.7-13.9c-13.8-38.6-56.2-58.7-94.8-44.9c-29.2,10.4-48.8,37.9-49.2,68.9
			c0,8.2,1.5,16.3,4.3,24h-16.1c-6.6,0-12,5.4-12,12v172.6c0,6.6,5.4,12,12,12h171.6c6.6,0,12-5.4,12-12V260.7
			C415.8,254.1,410.4,248.7,403.8,248.7z M392.5,420.3H244.2V272.7h148.3V420.3z"/>
	</g>
</g>
</svg>
