<?xml version="1.0" encoding="utf-8"?>
<!-- Generator: Adobe Illustrator 25.1.0, SVG Export Plug-In . SVG Version: 6.00 Build 0)  -->
<svg version="1.0" id="ds44-icons" xmlns="http://www.w3.org/2000/svg" xmlns:xlink="http://www.w3.org/1999/xlink" x="0px" y="0px"
	 viewBox="0 0 466.4 480" enable-background="new 0 0 466.4 480" xml:space="preserve">
<g>
	<path d="M213.1,239.4c10.1-0.1,18.4-8.3,18.4-18.5c0-10.2-8.3-18.5-18.5-18.5c-44.8,0-74.4-5.1-91.4-9.3
		C100.5,187.8,92,182.2,90,180v-68.2c42.5,15.2,86.9,22.4,132,21.1c45.1,1.2,89.5-5.9,132-21.1l0,19c0.2,10.2,8.2,18.2,18.5,18.4
		c10.2,0,18.5-8.3,18.5-18.5V72.4c0.5-2.4,0.4-4.7-0.2-7.1l-0.1-0.3C385.2,46.4,362,32.4,322,23.7c-39.8-8.7-83.2-9.7-100-9.7
		c-16.8,0-60.1,0.9-99.9,9.6c-40,8.7-63.2,22.5-68.8,41.1l-0.2,0.5l-0.1,0.6c-0.2,2-0.3,4,0,6v335.6c0,22.4,19,38.7,56.6,48.2
		c20.8,5.3,46.7,8.4,77,9.4l0.2,0l0.2,0c9.9-0.2,17.9-8.1,18.4-18l0-0.2c0.2-10.1-7.8-18.5-17.7-18.8c-33.1-1.4-60.2-5.4-78.2-11.6
		c-14.7-5.1-18.6-9.8-19.4-10.9v-75c33.7,12.3,61.6,17.2,96.9,17.2c9.9-0.2,17.9-8.1,18.4-18c0.2-4.9-1.5-9.6-4.8-13.2
		c-3.3-3.6-7.9-5.7-12.8-5.8l-0.4,0c-33-1-60-4.7-78.1-10.8c-14.7-4.9-18.6-9.6-19.3-10.8v-68.7
		C132.2,235.3,168.5,240.8,213.1,239.4z M92.3,73c4.4-2.9,14.6-7.7,34.2-12.3c18.7-4.4,50.4-9.7,95.5-9.7c44.8,0,76.6,5.3,95.3,9.7
		c18.5,4.4,29.3,9.1,34.2,12.1c-4.6,2.9-14.7,7.6-34.1,12.1c-18.7,4.4-50.5,9.6-95.4,9.6c-44.5,0-76.3-5.2-95.1-9.6
		C108.1,80.7,97.2,76,92.3,73z"/>
	<path d="M425.2,261.8c0.1-4.9-1.8-9.6-5.3-13.1c-3.5-3.5-8.2-5.5-13.1-5.5H281.3c-9.7-20.3-2.3-45,17.5-56.5
		c20.8-12.1,47.6-5,59.7,15.7c1.7,3.1,2.9,5.6,3.6,8.1l0.1,0.4l0.2,0.4c4.2,9.2,15.1,13.4,24.5,9.3c8.2-3.7,12.5-12.7,10.3-21.4
		l-0.2-0.6c-7.3-20.3-22-36.6-41.4-45.8c-19.5-9.2-41.4-10.3-61.7-3c-31.6,11.2-53.1,41.4-53.5,75c0,5.9,0.7,11.7,2.1,17.5h-7.4
		c-10.2,0-18.5,8.3-18.5,18.5v172.6c0,10.2,8.3,18.5,18.5,18.5h171.6c10.2,0,18.5-8.3,18.5-18.5L425.2,261.8z M253.7,414.8V280.2
		H389v134.6H253.7z"/>
</g>
</svg>
