<?xml version="1.0" encoding="utf-8"?>
<!-- Generator: Adobe Illustrator 27.5.0, SVG Export Plug-In . SVG Version: 6.00 Build 0)  -->
<svg version="1.1" id="Capa_1" xmlns="http://www.w3.org/2000/svg" xmlns:xlink="http://www.w3.org/1999/xlink" x="0px" y="0px"
	 viewBox="0 0 382 478" style="enable-background:new 0 0 382 478;" xml:space="preserve">
<style type="text/css">
	.st0{fill:#181716;}
</style>
<g id="Calque_9">
	<path class="st0" d="M126.5,311.6l-85.8,5.5c0,0-35-80.6-37.6-123.5C0.3,150.8,28.8,26.4,57.5,8c28.6-18.4,56.8,6.4,68.2,28.8
		c10.5,20.9,41.7,95.9,34.2,134.4s-22.9,68.6-26.5,91.9C133.3,263.2,125.4,294.3,126.5,311.6L126.5,311.6z"/>
	<path class="st0" d="M46.7,363.2l86.6-5.5c4.9,15.6,25.6,112-26.4,118.5C59.2,482.3,45.4,432.9,46.7,363.2z"/>
	<path class="st0" d="M249.2,309.6l85.5,9.6c0,0,38.9-78.8,43.7-121.6c4.8-42.7-17.6-168.4-45.4-188c-27.7-19.8-57,3.6-69.4,25.5
		c-11.5,20.3-46.4,93.7-40.7,132.6c5.6,38.9,19.6,69.6,21.9,93.2c0,0,6.5,31.5,4.5,48.7L249.2,309.6L249.2,309.6z"/>
	<path class="st0" d="M326.4,365l-86.2-9.7c-5.7,15.4-30.9,110.6,20.6,119.7C308.1,483.3,324.3,434.6,326.4,365L326.4,365z"/>
</g>
</svg>
