<?xml version="1.0" encoding="utf-8"?>
<!-- Generator: Adobe Illustrator 25.1.0, SVG Export Plug-In . SVG Version: 6.00 Build 0)  -->
<svg version="1.0" id="ds44-icons" xmlns="http://www.w3.org/2000/svg" xmlns:xlink="http://www.w3.org/1999/xlink" x="0px" y="0px"
	 viewBox="0 0 466.4 480" enable-background="new 0 0 466.4 480" xml:space="preserve">
<g id="Calque_2_1_" transform="translate(0.998 1)">
	<g id="Calque_1">
		<path d="M446.7,11.1H256.8c-2.1,0.5-4.1,1.6-5.7,3.1l-82.4,83c-2.2,2.4-3.5,5.5-3.3,8.8c-0.3,0.8-0.3,1.6,0,2.3V158
			c-0.3,1-0.3,2.1,0,3.1c-6.4,3.8-12.3,8.5-17.5,13.9c-36.4,36.2-39.9,93.9-8.2,134.2L8.7,440.4c-5.1,5-5.1,13.2-0.1,18.2
			c0,0,0,0,0.1,0.1c2.4,2.4,5.6,3.7,9,3.6c3.4,0.1,6.7-1.2,9-3.6l131.1-131.1l7,5.2v43.8c0,7.1,5.8,12.9,12.9,12.9h269
			c7.1,0,12.9-5.8,12.9-12.9V24C459.5,16.9,453.8,11.1,446.7,11.1z M247.2,55.2v38.4h-38.4L247.2,55.2z M144.7,247.5
			c-0.3-43.8,35-79.6,78.8-79.9h1c43.4,0.3,78.6,35.4,78.8,78.8c0.3,43.8-35,79.6-78.8,79.9C180.7,326.7,145,291.4,144.7,247.5z
			 M432.7,363.6H190.6v-19.3c9.6,3,19.6,4.7,29.6,4.9c56.9,3.8,106.1-39.2,110-96.2s-39.2-106.1-96.2-110c-14.8-1-29.6,1.2-43.4,6.4
			v-30.1h69.6c7.1,0,12.9-5.8,12.9-12.9V36.9h160.8L432.7,363.6z"/>
	</g>
</g>
</svg>
