<?xml version="1.0" encoding="utf-8"?>
<!-- Generator: Adobe Illustrator 25.1.0, SVG Export Plug-In . SVG Version: 6.00 Build 0)  -->
<svg version="1.0" id="ds44-icons" xmlns="http://www.w3.org/2000/svg" xmlns:xlink="http://www.w3.org/1999/xlink" x="0px" y="0px"
	 viewBox="0 0 466.4 480" enable-background="new 0 0 466.4 480" xml:space="preserve">
<path d="M462.8,28.9c-0.1-10.5-8.7-19.1-19.2-19.1H256.6l-0.7,0.2c-3.2,0.8-6.1,2.4-8.5,4.6l-81,81.6l-0.2,0.2
	c-3.2,3.5-4.9,7.8-5,12.2c-0.3,1.3-0.3,2.7,0,4v47.1c0,0.1,0,0.1,0,0.2c-5.5,3.6-10.6,7.9-15.3,12.7c-36.6,36.5-41.3,93.8-12,135.6
	L9.4,432.9c-3.7,3.6-5.7,8.4-5.7,13.5c0,5.1,2,10,5.6,13.6l0.1,0.1c3.5,3.5,8.1,5.4,13.1,5.4c0.1,0,0.2,0,0.4,0
	c5.1,0.1,10-1.9,13.5-5.5l124.3-124.3V375c0,10.6,8.6,19.2,19.2,19.2h263.9c10.6,0,19.2-8.6,19.2-19.2L462.8,28.9z M225.9,90.8
	l15.5-15.5v15.5H225.9z M225.6,176.4c38.9,0.3,70.7,32,70.9,70.9c0.3,39.3-31.5,71.6-70.9,71.8c-18.9,0.2-36.9-7.1-50.4-20.4
	c-13.6-13.4-21.2-31.3-21.3-50.5c-0.1-19,7.2-37,20.6-50.6c13.4-13.6,31.2-21.1,50.2-21.3H225.6z M198.9,351.8
	c7.4,1.7,14.8,2.6,22.3,2.8c2.4,0.2,4.7,0.2,7.1,0.2c56.2,0,103.7-43.8,107.6-100.7c4.1-59.3-41-110.8-100.4-114.8
	c-12.4-0.8-24.7,0.4-36.5,3.8V129h61.8c10.6,0,19.2-8.6,19.2-19.2V48.2h144.7l-1.1,307.5H198.9V351.8z"/>
</svg>
