<?xml version="1.0" encoding="UTF-8"?><svg id="ds44-icons" xmlns="http://www.w3.org/2000/svg" viewBox="0 0 406.41 480"><defs><style>.cls-1{fill:#1d1d1b;}</style></defs><path class="cls-1" d="m349.67,56.92c-5.87-6.91-13.47-11.23-22.11-11.23-19,0-22.8,16.84-53.54,16.84s-32.12-9.5-46.98-9.5-23.49,11.23-23.49,11.23c0,0-8.64-11.23-23.49-11.23s-17.62,9.5-46.98,9.5c-31.44,0-35.24-16.84-54.24-16.84-8.64,0-16.24,4.32-22.11,11.23-5.53,7.34-8.98,16.84-8.98,27.64,0,23.75,13.47,28.5,13.47,66.93s-7.6,40.16-7.6,59.16,8.98,29.36,8.98,29.36c0,0-8.98,10.79-8.98,29.36s7.6,22.02,7.6,58.72c0,38.87-13.47,43.62-13.47,67.37,0,10.79,3.46,20.29,8.98,27.64,5.87,6.91,13.47,11.23,22.11,11.23,19,0,22.8-16.84,53.54-16.84s32.12,9.5,46.98,9.5,23.49-11.23,23.49-11.23c0,0,8.64,11.23,23.49,11.23s17.62-9.5,46.98-9.5,34.54,16.84,53.54,16.84c8.64,0,16.24-4.32,22.11-11.23,6.22-7.34,9.67-16.84,9.67-27.64,0-23.75-13.47-28.5-13.47-66.93s7.6-40.16,7.6-58.72-8.98-29.36-8.98-29.36c0,0,8.98-10.79,8.98-29.36s-7.6-22.02-7.6-59.16,13.47-43.18,13.47-66.93c0-11.23-3.46-20.73-8.98-28.07h0Zm-49.4,304.42H106.13V118.66h194.14v242.67Z"/><path class="cls-1" d="m260.13,331.93h-113.93c-9.66,0-17.53-7.86-17.53-17.52v-148.82c0-9.66,7.86-17.53,17.53-17.53h113.93c9.66,0,17.53,7.86,17.53,17.53v148.82c0,9.66-7.86,17.52-17.53,17.52Zm-113.93-174.72c-4.62,0-8.39,3.76-8.39,8.39v148.82c0,4.62,3.76,8.38,8.39,8.38h113.93c4.62,0,8.39-3.76,8.39-8.38v-148.82c0-4.62-3.76-8.39-8.39-8.39h-113.93Z"/></svg>