<?xml version="1.0" encoding="UTF-8"?><svg id="ds44-icons" xmlns="http://www.w3.org/2000/svg" viewBox="0 0 370.69 480"><path d="m358.16,21.75c-6.93-8.15-15.9-13.25-26.09-13.25-22.42,0-26.9,19.87-63.18,19.87s-37.9-11.21-55.43-11.21-27.71,13.25-27.71,13.25c0,0-10.19-13.25-27.71-13.25s-20.79,11.21-55.43,11.21c-37.09,0-41.58-19.87-63.99-19.87-10.19,0-19.16,5.1-26.09,13.25C6.01,30.41,1.93,41.62,1.93,54.35c0,28.02,15.9,33.63,15.9,78.97s-8.97,47.38-8.97,69.8,10.6,34.64,10.6,34.64c0,0-10.6,12.74-10.6,34.64s8.97,25.98,8.97,69.29c0,45.86-15.9,51.46-15.9,79.49,0,12.74,4.08,23.95,10.6,32.61,6.93,8.15,15.9,13.25,26.09,13.25,22.42,0,26.9-19.87,63.18-19.87s37.9,11.21,55.43,11.21,27.71-13.25,27.71-13.25c0,0,10.19,13.25,27.71,13.25s20.79-11.21,55.43-11.21,40.76,19.87,63.18,19.87c10.19,0,19.16-5.1,26.09-13.25,7.34-8.66,11.42-19.87,11.42-32.61,0-28.02-15.9-33.63-15.9-78.97s8.97-47.38,8.97-69.29-10.6-34.64-10.6-34.64c0,0,10.6-12.74,10.6-34.64s-8.97-25.98-8.97-69.8,15.9-50.95,15.9-78.97c0-13.25-4.08-24.46-10.6-33.12h0Zm-58.29,359.18H70.81V94.6h229.06v286.33Z"/><path d="m252.51,346.23H118.09c-11.4,0-20.68-9.27-20.68-20.67v-175.59c0-11.4,9.28-20.68,20.68-20.68h134.42c11.4,0,20.68,9.28,20.68,20.68v175.59c0,11.4-9.28,20.67-20.68,20.67ZM118.09,140.08c-5.46,0-9.89,4.44-9.89,9.89v175.59c0,5.46,4.44,9.89,9.89,9.89h134.42c5.46,0,9.89-4.43,9.89-9.89v-175.59c0-5.46-4.44-9.89-9.89-9.89H118.09Z"/></svg>