<?xml version="1.0" encoding="UTF-8"?><svg id="ds44-icons" xmlns="http://www.w3.org/2000/svg" viewBox="0 0 308.17 480"><path d="m260.18,93.85c-13.13-3.89-27.23-2.43-39.87,3.4l-16.52-65.14h6.32c6.32,0,11.18-4.86,11.18-11.18v-2.92c0-6.32-4.86-11.18-11.18-11.18h-111.82c-6.32,0-11.18,4.86-11.18,11.18v2.92c0,6.32,4.86,11.18,11.18,11.18h6.32l-17.02,65.15c-13.13-5.83-26.74-7.29-39.87-3.4C11.26,105.03-5.76,152.68,8.83,202.27c3.89,15.56,11.18,28.69,19.45,39.87h0c-2.92,16.53.49,52.03,2.92,68.07,10.7,37.44,27.23,72.44,48.62,103.56l21.88,32.09-9.24,14.1c-2.43,3.89,0,8.75,4.86,8.75h113.28c4.37,0,7.29-4.86,4.86-8.75l-9.24-14.1,21.88-32.09c21.39-31.61,37.92-67.1,48.62-105.02h0s0,0,0,0c1.94-15.07,4.86-51.06,1.94-66.61,8.75-11.18,15.56-24.31,20.42-39.87,15.07-50.08-1.94-97.72-38.9-108.42Zm-8.75,30.64h0c18.48,5.35,26.74,37.92,17.5,69.04-.97,2.43-1.46,4.86-2.43,7.29-8.75-19.93-19.93-38.41-32.57-53.97l-4.37-17.5c6.81-5.34,14.59-7.29,21.88-4.86Zm-195.45,0h0c1.94-.48,3.89-.97,5.83-.97,5.35,0,11.18,1.94,16.53,5.83l-4.37,17.5c-12.64,15.56-24.31,34.03-32.57,53.97-.97-2.43-1.94-4.86-2.43-7.29-9.72-31.6-1.46-63.69,17.02-69.04Z"/></svg>