<?xml version="1.0" encoding="utf-8"?>
<!-- Generator: Adobe Illustrator 27.5.0, SVG Export Plug-In . SVG Version: 6.00 Build 0)  -->
<svg version="1.1" id="ds44-icons" xmlns="http://www.w3.org/2000/svg" xmlns:xlink="http://www.w3.org/1999/xlink" x="0px" y="0px"
	 viewBox="0 0 390.4 387.2" style="enable-background:new 0 0 390.4 387.2;" xml:space="preserve">
<style type="text/css">
	.st0{fill:#1D1D1B;}
</style>
<path class="st0" d="M386.7,336.4c-0.2-39.2,0-78.4,0.1-117.7c0.1-16.7,0.4-33.4,0.5-50.2c0.1-17.2,0-34.5,0-52.6
	c-2.6,1.1-4.3,1.7-6,2.4c-22.4,9.7-45.9,15.4-70.1,17.8c-33.7,3.3-67,8.4-100.1,15.1c-4.1,0.8-5.5,2.4-5.5,6.8
	c0.2,73.4,0.1,146.8,0.1,220.2c0,1.8,0.2,3.6,0.2,5.5c1.2,0,1.7,0.1,2.2,0c37.6-7.3,75.6-12.3,113.7-16.4
	c20.4-2.2,39.7-8.6,57.9-18.5C384.8,345.9,386.7,342.3,386.7,336.4L386.7,336.4z M226.9,184c0.1-1.4,2.1-3.5,3.5-3.7
	c20.8-3.9,41.6-8.2,62.6-11.1c19.4-2.7,38.3-6.9,56.6-13.7c1.3-0.5,2.6-0.8,4-1.2c0.1,0.8,0.3,1.3,0.3,1.8
	c0.4,15.6,0.5,16.3-14.6,19.9c-15.7,3.7-31.7,6-47.6,8.9c-21.3,4-42.7,8-64.9,12.1C226.8,193,226.5,188.5,226.9,184L226.9,184z
	 M226.9,215.8c0.1-1.4,2.2-3.4,3.7-3.7c16.7-3.4,33.3-7.5,50.2-9.4c24.3-2.8,48.1-7,71-15.9c0.5-0.2,1-0.1,1.7-0.2
	c0.2,0.6,0.4,0.7,0.4,0.9c-0.9,20.3,2.9,15.8-15.5,20.7c-16.9,4.5-34.5,6.2-51.7,9.5c-18.9,3.7-37.7,7.9-56.6,11.8
	c-0.8,0.2-1.6,0.4-3.4,0.7C226.8,225,226.5,220.4,226.9,215.8L226.9,215.8z M353.1,329.5c-0.2,1.3-2.3,3-3.7,3.3
	c-16.7,4-33.3,9-50.3,11.2c-23.4,3.1-46.4,7.2-69,13.5c-0.8,0.2-1.6,0.4-3.3,0.7c0-5.1-0.3-9.8,0.2-14.4c0.1-1.3,2.3-3.3,3.8-3.6
	c17.9-3.5,35.7-7.8,53.8-9.9c23-2.7,45.3-7.1,66.9-15.4c0.6-0.2,1.3-0.4,2.6-0.8C353.8,319.6,353.8,324.6,353.1,329.5L353.1,329.5z
	 M227,311.4c0.1-1.2,2.2-2.9,3.7-3.2c19.1-3.6,38.2-7.9,57.5-10.3c21.2-2.6,41.8-7,61.8-14.3c1.1-0.4,2.3-0.7,3.6-1.2
	c0.3,0.8,0.4,0.9,0.4,1.1c0.4,16.3,0.6,17-15.1,20.6c-17.8,4.1-35.9,6.4-53.8,9.8c-17.9,3.5-35.7,7.4-53.6,11.1
	c-1.2,0.2-2.3,0.5-4.7,1C226.8,320.9,226.5,316.1,227,311.4L227,311.4z M353.2,233c-0.2,1.5-2.3,3.4-3.9,3.8
	c-16.4,3.9-32.6,8.8-49.2,11c-23.8,3.2-47.4,7.2-70.5,13.8c-0.6,0.2-1.3,0.1-2.8,0.3c0-4.9-0.2-9.6,0.2-14.2
	c0.1-1.3,2.1-3.2,3.4-3.4c18.6-3.6,37.1-8,55.9-10.2c22.1-2.6,43.6-7,64.3-14.8c0.9-0.4,1.9-0.6,3.5-1.1
	C353.8,223.4,353.9,228.2,353.2,233L353.2,233z"/>
<path class="st0" d="M53.8,130.6c-15.4-3.1-30.3-8.9-46-13.7c0,1.5,0,3.4,0,5.3C8,194,8.3,265.9,8.5,337.7c0,5.1,1.7,7.9,6,10.3
	c22.2,12.3,46.2,17.9,71.2,20.8c25.9,3,51.8,6.6,77.7,10.1c8.7,1.2,17.4,3,26.7,4.6v-6.7c0-72.4,0-144.7,0-217.1
	c0-1.4-0.1-2.8,0-4.2c0.3-2.9-1.1-4.1-3.8-4.5c-23.5-3.8-47-7.9-70.6-11.5C95.1,136.3,74.2,134.7,53.8,130.6L53.8,130.6z
	 M133.9,205.1c-2.1,11.8-7.6,22-14.7,31.4c-0.7,0.9-1.4,1.8-2,2.7c12.6,6.7,24.9,12.9,36.8,19.7c4.3,2.5,8,6.2,11.2,10.1
	c5.8,7,5.2,15-0.6,21.9c-1.1,1.4-1.9,3.5-1.9,5.3c0,6.7-1.5,12.4-7.9,15.9c-1.1,0.6-1.9,2.2-2.3,3.6c-1.7,7-4.9,12.5-12.6,14.5
	c-1.2,0.3-2.5,2.1-3,3.4c-2.5,7-6.1,9.9-13.5,10c-2.9,0-6.2,0.4-8.8-0.6c-8.4-3.3-17.1-4.2-26-4.3c-8.9-0.1-16.2-4.3-22.2-10.3
	c-5.6-5.6-10.5-12.1-15.9-17.9c-1.5-1.6-3.8-3-5.8-3.1c-6.6-0.5-13.2-0.3-19.8-0.3c-2.7,0-4.7-0.5-5.4-3.6
	c-4.2-18.3-4.7-36.5,1.7-54.5c1.2-3.5,2.7-4.9,6.7-4.5c7.3,0.7,14.6,0.9,21.9,0.8c2.1,0,4.7-1.1,6.2-2.6
	c12.9-13.5,25.3-27.4,40.8-38c5.7-3.9,6.3-10.2,7.2-16.2c0.8-5.3,1.1-10.7,1.4-16.1c0.4-6.7,2.8-8.1,9.1-5.2
	C128.5,173.4,136.7,189.6,133.9,205.1L133.9,205.1z"/>
<path class="st0" d="M155.6,27.4c-20.2,22.8-27.7,50.1-28.8,80.7c0.4,4.1,0.9,8.9,1.1,13.8c0.1,2.9,1.5,3.7,4.2,4.1
	c18.2,3,36.4,6.2,54.6,9.2c5.3,0.9,10.8,2.7,15.9,1.9c19.9-3.1,39.7-7.2,59.6-10.6c3.4-0.6,4.8-2,5.3-5.1c1.1-7.2,2.8-14.4,3.4-21.6
	c2.1-24.4-3-47.2-17.4-67.3C228.3-2.4,184-4.7,155.6,27.4L155.6,27.4z M167.3,86.8c-2.1-0.4-4.9-3.5-5.1-5.6
	c-0.2-4.9,0.2-10.1,1.9-14.6c0.9-2.3,4.9-4.8,7.5-4.9c4-0.1,5.3,3.9,5.8,7.5c0.2,1.2,0.2,2.4,0.2,3.6c0.2,0.1,0.5,0.2,0.8,0.3
	c-1.3,3.5-2.1,7.4-4.2,10.4C172.8,85.5,169.3,87.2,167.3,86.8L167.3,86.8z M173.1,104.5c14.3,13.9,30.6,13.9,48.2,10.7
	C205.8,133.7,183.4,128.9,173.1,104.5z M235.3,92.2c-1.1,1.8-4.4,3.4-6.4,3.1c-2-0.3-4.3-2.8-5.2-4.8c-2.3-5.4-1.5-11.1,1.8-15.8
	c1.5-2.2,4.9-4.5,7.3-4.4c1.9,0.1,3.9,3.6,5.5,5.8c0.8,1.2,0.6,3,1.2,6C238.4,84.7,237.4,88.8,235.3,92.2L235.3,92.2z"/>
<path class="st0" d="M109.2,191.5c-1.2,6.3-2.2,13.1-8,17c-16.4,11-29.2,25.7-42.7,39.9c-1.4,1.5-4.1,2.7-6.2,2.7
	c-7.1,0.1-14.3-0.3-21.4-0.8c-3.3-0.2-4.6,1.2-5.4,4.1c-4.2,14.4-4.5,28.8-1,43.3c0.3,1.4,2.4,3.1,3.8,3.2
	c6.4,0.5,12.9,0.6,19.3,0.5c3.1,0,4.7,1.3,6.7,3.6c7,8.1,14.2,16.1,22.1,23.4c3.1,2.8,8.1,3.5,12.3,5.2c0.2-0.5,0.5-1,0.7-1.5
	c-1.1-0.8-2.1-1.6-3.2-2.4c-7.7-5.3-8.4-8.9-3.5-17c0.5-0.8,1.2-2,0.9-2.7c-2.2-6-0.2-10.9,3.9-15.3c0.7-0.8,1.1-2.1,1.2-3.2
	c0.6-5.8,3.4-10,8.3-13.1c1.2-0.8,2.4-2.4,2.7-3.9c2-10.7,10.4-17,20.8-14.1c8.1,2.2,15.6,6.2,23.9,9.6c-2,2.5-3,3.9-3.8,4.9
	c-6.2-2.8-11.8-6.1-17.9-7.8c-3.9-1.1-8.6-0.6-12.5,0.6c-2.1,0.7-4,4.3-4.5,6.9c-0.3,1.4,2.3,4,4.2,5c5.8,2.9,11.7,5.5,17.7,7.6
	c6.2,2.2,12.5,4.4,19,5.2c7.4,1,13.8-3.3,16-9.2c2.5-6.7-1.7-11.2-6.1-14.8c-12.7-10.4-26.9-17.9-42.8-22c-5.6-1.4-6.6-4.2-3-8.5
	c8.9-10.8,16.1-22.3,17.8-36.6c1.4-11.7-6.6-25.1-17-28.2C110.8,179.2,110.3,185.4,109.2,191.5L109.2,191.5z"/>
<path class="st0" d="M138.9,297c-11.2-3.6-22-8.5-32.8-13.2c-4-1.7-7.2-0.9-10.2,3.6c-2.7,4.1-0.8,6.7,2.9,8.3
	c11,4.8,21.8,10.1,33.2,13.5c5.4,1.6,12-0.1,17.8-1.3c4.8-1,7.4-4.8,7.1-9.7C150.7,297.8,144.4,298.8,138.9,297L138.9,297z"/>
<path class="st0" d="M92.2,298.8c-5.4,5.6-5.4,8.6,1.3,12c9.7,5,19.7,9.6,29.9,13.3c4.3,1.6,9.6,0.9,14.4,0.4c5-0.5,7.8-3.9,8.5-9.4
	C125.7,317.7,109.4,307.7,92.2,298.8L92.2,298.8z"/>
<path class="st0" d="M89.3,324.8c6.9,4,13.9,8,21.2,11.1c3.8,1.7,8.4,2,12.7,2.2c3.7,0.2,6.6-1.7,7.5-4.8
	c-14.2-5.7-28.3-11.4-42.8-17.2C84.2,319.5,84.1,321.6,89.3,324.8L89.3,324.8z"/>
</svg>
