<?xml version="1.0" encoding="UTF-8"?><svg id="ds44-icons" xmlns="http://www.w3.org/2000/svg" viewBox="0 0 379.62 382.88"><path d="m378.99,333.59c-.19-39.22-.04-78.44.09-117.65.06-16.73.4-33.45.49-50.18.09-17.23.02-34.46.02-52.64-2.59,1.05-4.34,1.72-6.05,2.45-22.41,9.67-45.86,15.45-70.07,17.79-33.66,3.26-67,8.37-100.13,15.08-4.14.84-5.54,2.39-5.53,6.82.16,73.38.11,146.77.12,220.15,0,1.82.16,3.64.24,5.45,1.17,0,1.69.08,2.18-.01,37.62-7.3,75.55-12.34,113.67-16.37,20.36-2.16,39.73-8.6,57.85-18.52,5.23-2.86,7.14-6.39,7.11-12.37Zm-159.74-152.35c.14-1.39,2.08-3.48,3.48-3.74,20.84-3.9,41.63-8.16,62.62-11.06,19.41-2.68,38.28-6.93,56.62-13.72,1.27-.47,2.59-.81,3.97-1.23.14.76.31,1.26.32,1.75.39,15.65.53,16.28-14.64,19.86-15.69,3.7-31.72,5.98-47.59,8.92-21.33,3.96-42.66,7.96-64.94,12.12,0-3.91-.28-8.44.17-12.89Zm0,31.76c.14-1.39,2.24-3.4,3.73-3.71,16.69-3.37,33.33-7.45,50.2-9.39,24.31-2.8,48.13-7.04,70.99-15.95.46-.18,1.01-.15,1.73-.24.23.55.36.71.35.87-.92,20.34,2.94,15.78-15.51,20.71-16.87,4.51-34.49,6.17-51.69,9.52-18.92,3.68-37.73,7.86-56.6,11.81-.81.17-1.62.35-3.37.74,0-5.07-.29-9.75.18-14.35Zm126.21,113.74c-.18,1.29-2.26,2.99-3.74,3.34-16.72,3.96-33.32,8.96-50.29,11.18-23.35,3.06-46.37,7.23-69.04,13.47-.79.22-1.61.35-3.32.71,0-5.11-.29-9.79.18-14.39.14-1.34,2.32-3.26,3.83-3.56,17.9-3.54,35.74-7.8,53.82-9.93,22.95-2.7,45.32-7.14,66.91-15.37.62-.24,1.28-.38,2.59-.76-.27,5.39-.27,10.39-.94,15.31Zm-126.19-18.12c.11-1.2,2.25-2.92,3.69-3.19,19.12-3.64,38.16-7.94,57.45-10.31,21.2-2.61,41.79-6.99,61.81-14.32,1.12-.41,2.27-.73,3.61-1.16.29.77.4.93.41,1.09.41,16.26.58,17.02-15.06,20.61-17.75,4.07-35.89,6.38-53.78,9.84-17.9,3.46-35.71,7.39-53.57,11.12-1.17.24-2.34.52-4.73,1.05,0-5.19-.25-10,.18-14.73Zm126.24-78.42c-.22,1.46-2.31,3.41-3.88,3.79-16.36,3.93-32.62,8.82-49.23,11.03-23.84,3.17-47.39,7.22-70.51,13.82-.62.18-1.31.13-2.81.27,0-4.94-.25-9.61.16-14.22.11-1.27,2.05-3.16,3.41-3.42,18.59-3.63,37.11-7.98,55.88-10.21,22.08-2.62,43.56-6.98,64.33-14.83.94-.35,1.92-.61,3.54-1.11-.26,5.3-.2,10.15-.9,14.88Z"/><path d="m46.06,127.85C30.65,124.79,15.78,118.97,0,114.18c0,1.5,0,3.39,0,5.28.29,71.83.64,143.65.76,215.48,0,5.07,1.69,7.9,5.99,10.29,22.18,12.34,46.23,17.86,71.2,20.75,25.94,3,51.81,6.56,77.69,10.08,8.73,1.19,17.38,2.98,26.74,4.61v-6.73c0-72.36,0-144.72,0-217.08,0-1.39-.14-2.8.02-4.18.33-2.89-1.08-4.05-3.75-4.48-23.53-3.84-47.02-7.94-70.6-11.53-20.64-3.14-41.56-4.77-62-8.82Zm80.18,74.52c-2.08,11.79-7.58,21.95-14.67,31.38-.67.89-1.36,1.77-2.01,2.67,12.56,6.66,24.9,12.85,36.83,19.73,4.26,2.45,7.99,6.23,11.16,10.07,5.8,7.01,5.21,14.98-.57,21.9-1.15,1.38-1.92,3.55-1.91,5.34.03,6.7-1.47,12.37-7.92,15.85-1.1.59-1.94,2.25-2.27,3.57-1.74,7.02-4.95,12.55-12.64,14.46-1.24.31-2.53,2.07-3.01,3.44-2.48,7.01-6.08,9.9-13.47,10.04-2.95.05-6.19.41-8.8-.63-8.41-3.34-17.11-4.18-26-4.29-8.93-.1-16.16-4.28-22.18-10.3-5.64-5.64-10.46-12.09-15.9-17.94-1.45-1.56-3.81-2.99-5.85-3.13-6.59-.45-13.23-.34-19.84-.31-2.72.02-4.69-.5-5.4-3.59-4.24-18.34-4.71-36.51,1.69-54.54,1.23-3.47,2.67-4.9,6.67-4.51,7.26.71,14.61.86,21.91.78,2.09-.02,4.71-1.14,6.15-2.65,12.87-13.47,25.27-27.42,40.84-38,5.67-3.85,6.3-10.2,7.24-16.17.84-5.31,1.06-10.73,1.42-16.11.44-6.73,2.82-8.13,9.13-5.23,13.93,6.43,22.13,22.66,19.39,38.17Z"/><path d="m147.86,24.6c-20.21,22.76-27.69,50.14-28.84,80.68.35,4.05.89,8.9,1.14,13.75.15,2.85,1.48,3.71,4.17,4.15,18.2,2.98,36.37,6.19,54.56,9.22,5.28.88,10.82,2.69,15.9,1.9,19.93-3.1,39.7-7.18,59.58-10.63,3.36-.58,4.84-2.03,5.33-5.14,1.13-7.21,2.79-14.37,3.42-21.62,2.14-24.42-3-47.17-17.44-67.26-25.04-34.84-69.38-37.08-97.81-5.07Zm11.75,59.48c-2.07-.41-4.95-3.52-5.06-5.58-.24-4.86.21-10.06,1.87-14.58.86-2.35,4.85-4.85,7.49-4.93,3.98-.13,5.28,3.86,5.76,7.51.16,1.2.16,2.43.23,3.64.25.1.5.21.75.31-1.34,3.5-2.14,7.38-4.22,10.36-1.31,1.89-4.77,3.67-6.83,3.26Zm5.83,17.69c14.29,13.95,30.59,13.94,48.24,10.71-15.53,18.51-38,13.67-48.24-10.71Zm62.14-12.32c-1.12,1.78-4.39,3.38-6.4,3.09-1.97-.29-4.34-2.76-5.21-4.83-2.28-5.43-1.48-11.12,1.81-15.84,1.54-2.22,4.89-4.48,7.31-4.38,1.93.08,3.94,3.57,5.48,5.84.79,1.17.63,2.98,1.17,5.98-1.03,2.68-2.03,6.77-4.16,10.15Z"/><path d="m101.47,188.77c-1.17,6.31-2.19,13.1-8.04,17.02-16.4,11.01-29.24,25.74-42.68,39.88-1.44,1.52-4.07,2.66-6.16,2.68-7.13.06-14.28-.3-21.4-.82-3.3-.24-4.56,1.16-5.42,4.08-4.23,14.38-4.51,28.84-.98,43.34.33,1.36,2.44,3.14,3.83,3.25,6.42.49,12.88.62,19.32.54,3.14-.04,4.73,1.32,6.74,3.63,7.04,8.1,14.23,16.14,22.11,23.39,3.07,2.83,8.12,3.51,12.27,5.17.23-.51.46-1.03.69-1.55-1.07-.8-2.11-1.64-3.21-2.4-7.66-5.32-8.39-8.94-3.49-16.98.5-.82,1.16-2.01.9-2.73-2.19-6.03-.16-10.85,3.86-15.3.72-.79,1.06-2.12,1.17-3.24.55-5.83,3.45-10.03,8.34-13.15,1.25-.8,2.45-2.44,2.71-3.87,1.98-10.66,10.37-17.01,20.85-14.15,8.05,2.2,15.61,6.18,23.94,9.59-1.96,2.54-3,3.89-3.75,4.86-6.17-2.79-11.8-6.1-17.89-7.84-3.86-1.1-8.63-.64-12.51.61-2.12.68-4,4.33-4.49,6.92-.26,1.39,2.31,4.05,4.19,4.99,5.75,2.87,11.66,5.5,17.72,7.63,6.19,2.18,12.54,4.4,18.99,5.23,7.39.96,13.83-3.33,16.01-9.25,2.49-6.72-1.67-11.17-6.12-14.81-12.67-10.37-26.91-17.93-42.84-22.02-5.55-1.43-6.61-4.16-3.01-8.52,8.86-10.75,16.11-22.3,17.79-36.57,1.38-11.73-6.62-25.09-17.03-28.2-.79,6.22-1.3,12.47-2.43,18.61Z"/><path d="m131.17,294.2c-11.2-3.61-21.99-8.5-32.82-13.19-3.97-1.72-7.24-.88-10.16,3.57-2.68,4.08-.76,6.72,2.86,8.29,10.97,4.76,21.8,10.07,33.19,13.5,5.36,1.6,11.98-.1,17.83-1.29,4.83-.99,7.44-4.75,7.08-9.69-6.11-.31-12.48.6-17.99-1.18Z"/><path d="m84.46,296.05c-5.36,5.61-5.43,8.57,1.27,12.03,9.7,5.01,19.69,9.61,29.94,13.33,4.29,1.56,9.6.87,14.36.38,5.01-.52,7.77-3.93,8.5-9.39-20.49,2.54-36.84-7.43-54.07-16.35Z"/><path d="m81.65,321.98c6.88,4.05,13.91,7.96,21.22,11.12,3.85,1.67,8.43,1.98,12.72,2.21,3.71.2,6.63-1.71,7.51-4.75-14.23-5.71-28.28-11.35-42.84-17.19-3.79,3.39-3.89,5.5,1.39,8.61Z"/></svg>