<?xml version="1.0" encoding="utf-8"?>
<!-- Generator: Adobe Illustrator 26.0.3, SVG Export Plug-In . SVG Version: 6.00 Build 0)  -->
<svg version="1.1" id="ds44-icons" xmlns="http://www.w3.org/2000/svg" xmlns:xlink="http://www.w3.org/1999/xlink" x="0px" y="0px"
	 viewBox="0 0 450 480" style="enable-background:new 0 0 450 480;" xml:space="preserve">
<g>
	<path d="M248.3,224.4v29.4c19.5-11.4,45.6-17.1,78.2-17.1c18.5,0,33.1,1.4,44,4.1v-26.1c-15.2-2.8-29.9-4.1-44-4.1
		C297.2,210.6,271.2,215.2,248.3,224.4z"/>
	<path d="M248.3,270.8v29.4c19.5-11.4,45.6-17.1,78.2-17.1c18.5,0,33.1,1.4,44,4.1v-26.1c-15.2-2.8-29.9-4.1-44-4.1
		C295,257,268.9,261.5,248.3,270.8z"/>
	<path d="M326.5,85.9c-40.2,0-72,8.8-95.3,26.1c-23.3-17.4-55.1-26.1-95.3-26.1c-40.7,0-72.7,8.8-96.1,26.1v254.9
		c0,2.2,1,4.1,2.9,5.7c1.9,1.6,3.9,2.5,6.1,2.5c0.5,0,1.1-0.1,2-0.4c0.8-0.3,1.4-0.4,2-0.4c26.1-12.5,53.8-18.8,83.1-18.8
		c40.2,0,72,8.8,95.3,26.1c28.3-17.4,60-26.1,95.3-26.1c33.1,0,60.8,6,83,17.8c1.1,0.6,2.5,0.9,4.1,0.9c2.2,0,4.2-1,6.1-2.9
		s2.9-3.9,2.9-6.1V112C399.8,94.6,367.7,85.9,326.5,85.9z M99.8,169.5c9.5,0,17.2,7.7,17.2,17.2c0,9.5-7.7,17.2-17.2,17.2
		c-9.5,0-17.2-7.7-17.2-17.2C82.6,177.2,90.3,169.5,99.8,169.5z M182.5,244c-4.3,19.1-24.7,32.9-48.4,32.9S90,263.1,85.7,244
		c-1.2-5.4,2.2-10.7,7.5-12c5.4-1.2,10.7,2.2,12,7.5c2.2,9.9,14.7,17.3,28.9,17.3s26.7-7.5,28.9-17.3c1.2-5.4,6.6-8.8,12-7.5
		C180.4,233.3,183.7,238.6,182.5,244z M168.4,203.9c-9.5,0-17.2-7.7-17.2-17.2c0-9.5,7.7-17.2,17.2-17.2c9.5,0,17.2,7.7,17.2,17.2
		C185.6,196.2,177.9,203.9,168.4,203.9z M387.5,329.4c-19.5-5.9-39.9-8.9-61.1-8.9c-35.3,0-67.1,8.8-95.3,26.1V147
		c28.3-17.4,60-26.1,95.3-26.1c22.8,0,43.2,2.8,61.1,8.2V329.4z"/>
	<path d="M248.3,207.3c19.5-11.4,45.6-17.1,78.2-17.1c16.3,0,30.9,1.7,44,5v-26.8c-15.2-2.8-29.9-4.1-44-4.1
		c-30.4,0-56.5,4.9-78.2,14.7V207.3z"/>
</g>
</svg>
