<?xml version="1.0" encoding="UTF-8"?><svg id="ds44-icons" xmlns="http://www.w3.org/2000/svg" viewBox="0 0 406.41 332.99"><defs><style>.cls-1{fill:#1d1d1b;}</style></defs><path class="cls-1" d="m350.59,148.49c9,0,16.31-7.3,16.31-16.31s-7.3-16.31-16.31-16.31-16.31,7.3-16.31,16.31,7.3,16.31,16.31,16.31Z"/><path class="cls-1" d="m396.79,205.32h0s-17.28-36.11-17.28-36.11c-2.14-5.05-8.35-13.01-19.61-13.01h-18.83c-11.06,0-17.47,8.15-19.61,13.01l-7.73,16.15c-1.39-8.42-2.77-16.55-3.32-19.03-2.98-13.41-14.87-13.41-21.26-13.41h-49.99l-14.26-29.81c-2.96-7-11.57-18.03-27.18-18.03h-26.1c-15.34,0-24.22,11.3-27.18,18.03l-15.22,31.82-15.13-31.61c-2.9-6.87-11.69-18.07-27.11-18.07h-26.01c-15.42,0-24.21,11.2-27.11,18.07l-24.01,50.14c-2.34,4.9-.28,10.76,4.62,13.11,4.9,2.35,10.76.27,13.11-4.62l22.52-47.03v134.45c0,5.43,4.4,9.83,9.83,9.83s9.83-4.4,9.83-9.83v-68.8s8.45,0,8.45,0v68.8c0,5.43,4.4,9.83,9.83,9.83s9.83-4.4,9.83-9.83v-134.49s22.52,47.08,22.52,47.08c1.69,3.52,5.2,5.58,8.87,5.58,1.42,0,2.87-.31,4.24-.97,1.43-.69,2.59-1.7,3.5-2.88.2-.24.38-.51.56-.77.08-.13.16-.24.23-.37.16-.26.35-.5.49-.77l22.6-47.09c.54-.54,1.08-.81,1.88-.54.81.27,1.35,1.35.81,2.15l-23.41,84.76h20.45v48.17c0,5.38,4.31,9.96,9.96,9.96s9.96-4.31,9.96-9.96v-48.44h8.34v48.17c0,5.38,4.31,9.96,9.96,9.96s9.96-4.31,9.96-9.96v-48.17h20.45l-23.41-84.76c-.27-.81,0-1.88.81-2.15.81-.27,1.61,0,1.88.54l22.6,47.09c2.42,4.84,8.07,7,13.19,4.57,4.84-2.15,7-8.07,4.57-12.92h0s-2.86-5.99-2.86-5.99h16.39v104.87c0,3.94,3.19,7.13,7.13,7.13s7.13-3.19,7.13-7.13v-49.94h6.14v49.95c0,3.94,3.19,7.13,7.13,7.13s7.13-3.19,7.13-7.13v-99.75c1.49,8.24,4.85,29.05,6.19,37.52.56,3.51,3.59,6.01,7.04,6.01.37,0,.75-.03,1.13-.09,1.63-.26,3.03-1.05,4.08-2.17.04-.04.08-.08.12-.12.03-.03.06-.07.09-.1.13-.15.27-.3.39-.46.14-.17.27-.37.4-.56.06-.09.12-.18.17-.27.12-.19.25-.36.35-.56l16.31-33.97c.39-.39.78-.58,1.36-.39.58.19.97.97.58,1.55l-16.89,61.15h14.75v34.75c0,3.88,3.11,7.18,7.18,7.18s7.18-3.11,7.18-7.18v-34.94h6.02v34.75c0,3.88,3.11,7.18,7.18,7.18s7.18-3.11,7.18-7.18v-34.75h14.75l-16.89-61.15c-.19-.58,0-1.36.58-1.55.58-.19,1.16,0,1.36.39l16.31,33.97c1.75,3.49,5.82,5.05,9.51,3.3,3.49-1.55,5.05-5.82,3.3-9.32Z"/><circle class="cls-1" cx="73.98" cy="74.05" r="22.6"/><path class="cls-1" d="m184.82,96.4c12.48,0,22.6-10.12,22.6-22.6s-10.12-22.61-22.6-22.61-22.61,10.12-22.61,22.61,10.12,22.6,22.61,22.6Z"/><path class="cls-1" d="m279.73,145.26c9.06,0,16.41-7.35,16.41-16.41s-7.35-16.41-16.41-16.41-16.41,7.34-16.41,16.41,7.35,16.41,16.41,16.41Z"/></svg>