<?xml version="1.0" encoding="UTF-8"?><svg id="ds44-icons" xmlns="http://www.w3.org/2000/svg" viewBox="0 0 559.34 480"><path d="m488.45,212.27c12.76,0,23.1-10.34,23.1-23.1s-10.34-23.1-23.1-23.1-23.1,10.34-23.1,23.1,10.34,23.1,23.1,23.1Z"/><path d="m553.89,292.76h0s-24.47-51.15-24.47-51.15c-3.02-7.15-11.82-18.42-27.77-18.42h-26.67c-15.67,0-24.75,11.55-27.77,18.42l-10.95,22.88c-1.96-11.93-3.92-23.44-4.7-26.96-4.22-18.99-21.07-18.99-30.12-18.99h-70.81l-20.2-42.22c-4.19-9.91-16.39-25.54-38.5-25.54h-36.97c-21.73,0-34.3,16.01-38.5,25.54l-21.57,45.07-21.44-44.77c-4.1-9.74-16.56-25.6-38.4-25.6h-36.84c-21.84,0-34.3,15.87-38.4,25.6L5.79,247.64c-3.32,6.93-.39,15.24,6.54,18.56,6.93,3.32,15.25.39,18.56-6.54l31.9-66.62v190.44c0,7.69,6.23,13.92,13.92,13.92s13.92-6.23,13.92-13.92v-97.46s11.96,0,11.96,0v97.46c0,7.69,6.23,13.92,13.92,13.92s13.92-6.23,13.92-13.92v-190.51s31.9,66.69,31.9,66.69c2.39,4.99,7.37,7.91,12.56,7.91,2.01,0,4.06-.44,6-1.37,2.03-.97,3.67-2.41,4.96-4.08.28-.34.53-.72.79-1.09.11-.18.23-.35.33-.53.23-.37.49-.7.69-1.1l32.02-66.71c.76-.76,1.52-1.14,2.67-.76,1.14.38,1.91,1.91,1.14,3.05l-33.16,120.07h28.97v68.23c0,7.62,6.1,14.1,14.1,14.1s14.1-6.1,14.1-14.1v-68.61h11.82v68.24c0,7.62,6.1,14.1,14.11,14.1s14.1-6.1,14.1-14.1v-68.23h28.97l-33.16-120.07c-.38-1.14,0-2.67,1.14-3.05,1.14-.38,2.29,0,2.67.76l32.02,66.71c3.43,6.86,11.44,9.91,18.68,6.48,6.86-3.05,9.91-11.44,6.48-18.3h0s-4.05-8.48-4.05-8.48h23.22v148.55c0,5.58,4.52,10.1,10.1,10.1s10.1-4.52,10.1-10.1v-70.74h8.69v70.75c0,5.58,4.52,10.1,10.1,10.1s10.1-4.52,10.1-10.1v-141.3c2.11,11.67,6.87,41.15,8.77,53.15.79,4.98,5.08,8.52,9.97,8.52.53,0,1.06-.04,1.6-.13,2.3-.37,4.29-1.49,5.77-3.07.06-.06.11-.11.16-.17.04-.05.08-.1.13-.15.19-.21.38-.42.55-.65.21-.25.39-.52.57-.79.08-.13.17-.25.24-.38.16-.26.36-.51.5-.79l23.1-48.12c.55-.55,1.1-.82,1.93-.55.82.27,1.38,1.38.82,2.2l-23.92,86.61h20.9v49.22c0,5.5,4.4,10.17,10.17,10.17s10.17-4.4,10.17-10.17v-49.49h8.52v49.22c0,5.5,4.4,10.17,10.18,10.17s10.17-4.4,10.17-10.17v-49.22h20.9l-23.92-86.61c-.27-.82,0-1.93.82-2.2.82-.27,1.65,0,1.93.55l23.1,48.12c2.47,4.95,8.25,7.15,13.47,4.67,4.95-2.2,7.15-8.25,4.67-13.2Z"/><circle cx="96.62" cy="106.83" r="32.02"/><path d="m253.62,138.48c17.68,0,32.02-14.34,32.02-32.02s-14.34-32.02-32.02-32.02-32.02,14.34-32.02,32.02,14.34,32.02,32.02,32.02Z"/><path d="m388.07,207.69c12.84,0,23.24-10.41,23.24-23.24s-10.41-23.24-23.24-23.24-23.24,10.4-23.24,23.24,10.41,23.24,23.24,23.24Z"/></svg>