<?xml version="1.0" encoding="UTF-8"?><svg id="ds44-icons" xmlns="http://www.w3.org/2000/svg" viewBox="0 0 797.1 480"><path d="m698.05,201.19c18.3,0,33.13-14.84,33.13-33.13s-14.84-33.14-33.13-33.14-33.14,14.84-33.14,33.14,14.84,33.13,33.14,33.13Z"/><path d="m791.92,316.66h0s-35.11-73.38-35.11-73.38c-4.34-10.25-16.96-26.43-39.84-26.43h-38.26c-22.48,0-35.5,16.57-39.84,26.43l-15.71,32.82c-2.82-17.11-5.62-33.63-6.74-38.67-6.06-27.25-30.22-27.25-43.21-27.25h-101.58l-28.98-60.57c-6.01-14.22-23.51-36.64-55.23-36.64h-53.04c-31.17,0-49.21,22.97-55.23,36.64l-30.94,64.65-30.75-64.22c-5.89-13.97-23.75-36.73-55.08-36.73h-52.85c-31.33,0-49.2,22.76-55.08,36.73L5.68,251.93c-4.76,9.95-.56,21.87,9.38,26.63,9.95,4.77,21.87.56,26.63-9.38l45.77-95.57v273.19c0,11.03,8.94,19.97,19.97,19.97s19.97-8.94,19.97-19.97v-139.8s17.16,0,17.16,0v139.8c0,11.03,8.94,19.97,19.97,19.97s19.97-8.94,19.97-19.97V173.52s45.76,95.66,45.76,95.66c3.43,7.16,10.57,11.35,18.02,11.35,2.89,0,5.82-.64,8.61-1.96,2.91-1.4,5.26-3.45,7.11-5.85.41-.49.77-1.03,1.13-1.56.16-.26.33-.5.48-.76.33-.53.71-1.01.99-1.57l45.93-95.69c1.09-1.09,2.19-1.64,3.83-1.09,1.64.55,2.73,2.73,1.64,4.37l-47.57,172.24h41.56v97.88c0,10.94,8.75,20.23,20.23,20.23s20.23-8.75,20.23-20.23v-98.42h16.95v97.89c0,10.94,8.76,20.23,20.24,20.23s20.23-8.75,20.23-20.23v-97.88h41.56l-47.57-172.24c-.55-1.64,0-3.83,1.64-4.37,1.64-.55,3.28,0,3.83,1.09l45.93,95.69c4.92,9.84,16.4,14.22,26.79,9.3,9.84-4.37,14.22-16.4,9.29-26.25h0s-5.81-12.16-5.81-12.16h33.31v213.09c0,8.01,6.49,14.49,14.49,14.49s14.49-6.49,14.49-14.49v-101.48h12.47v101.49c0,8.01,6.49,14.49,14.49,14.49s14.49-6.49,14.49-14.49v-202.7c3.03,16.74,9.85,59.03,12.58,76.25,1.14,7.14,7.29,12.22,14.3,12.22.75,0,1.53-.06,2.3-.18,3.3-.53,6.16-2.14,8.28-4.4.08-.08.16-.16.24-.24.06-.07.12-.14.18-.21.27-.3.55-.6.79-.93.29-.35.55-.74.82-1.13.12-.18.24-.36.34-.55.24-.38.51-.73.71-1.13l33.13-69.03c.79-.79,1.58-1.18,2.76-.79,1.18.39,1.97,1.97,1.18,3.16l-34.32,124.25h29.98v70.61c0,7.89,6.31,14.59,14.59,14.59s14.59-6.31,14.59-14.59v-71h12.23v70.61c0,7.89,6.32,14.59,14.6,14.59s14.59-6.31,14.59-14.59v-70.61h29.98l-34.32-124.25c-.39-1.18,0-2.76,1.18-3.16,1.18-.39,2.37,0,2.76.79l33.13,69.03c3.55,7.1,11.83,10.25,19.33,6.71,7.1-3.16,10.25-11.83,6.7-18.93Z"/><circle cx="135.97" cy="49.93" r="45.93"/><path d="m361.19,95.34c25.36,0,45.93-20.57,45.93-45.93S386.55,3.48,361.19,3.48s-45.93,20.57-45.93,45.93,20.57,45.93,45.93,45.93Z"/><path d="m554.05,194.62c18.41,0,33.34-14.93,33.34-33.34s-14.93-33.34-33.34-33.34-33.34,14.92-33.34,33.34,14.93,33.34,33.34,33.34Z"/></svg>