<svg id="ds44-icons" xmlns="http://www.w3.org/2000/svg" width="390" height="480" viewBox="0 0 390 480"><path d="M375.91,135.41579,253.7889,13.2947a18.37691,18.37691,0,0,0-12.99317-5.38184H88.14388A79.52568,79.52568,0,0,0,8.70833,87.34841V392.65163a79.52568,79.52568,0,0,0,79.43555,79.43555h213.7124a79.52568,79.52568,0,0,0,79.43555-79.43555V148.409A18.37815,18.37815,0,0,0,375.91,135.41579Zm-47.82861,4.144H253.40022V64.87844Zm-26.2251,295.77735H88.14388a42.73424,42.73424,0,0,1-42.68555-42.68555V87.34841A42.73393,42.73393,0,0,1,88.14388,44.66286H216.65022v113.272a18.37474,18.37474,0,0,0,18.375,18.375H344.54183v216.3418A42.73424,42.73424,0,0,1,301.85628,435.33718Z"/></svg>