<svg id="ds44-icons" xmlns="http://www.w3.org/2000/svg" viewBox="0 0 450 480"><path d="M248.56,443.69H202.37a43.84,43.84,0,0,1-43.64-43.63V269.47C53.3,135,35.57,112.19,32,107.43c-7.15-8.55-10.78-17.79-10.78-27.49A42.74,42.74,0,0,1,34.07,49.15a42.74,42.74,0,0,1,30.8-12.84H385A43.84,43.84,0,0,1,428.59,78.5c.74,7.06-.63,17.14-9.85,28.06L291.12,269.46v130.6a43.78,43.78,0,0,1-11.76,30.22A40.84,40.84,0,0,1,248.56,443.69ZM64.13,83.6c4,5.42,47.87,61.46,130.34,166.62l4.26,5.43V400.06a2.85,2.85,0,0,0,1.1,2.48,2.91,2.91,0,0,0,2.54,1.15h46.19a3.2,3.2,0,0,0,.92-.09,2.94,2.94,0,0,0,.48-.44,3.85,3.85,0,0,0,1.16-3.1V255.66l137-174.79c.22-.25.4-.47.55-.66v-.27a2.93,2.93,0,0,0-1.15-2.53,2.86,2.86,0,0,0-2.49-1.1H64.87a2.92,2.92,0,0,0-2.51,1.12,2.84,2.84,0,0,0-1.12,2.18A9.86,9.86,0,0,0,62.85,82l.81.94Zm.14.22.07.1A.61.61,0,0,0,64.27,83.82Z"/></svg>