<svg id="ds44-icons" xmlns="http://www.w3.org/2000/svg" width="480" height="480" viewBox="0 0 480 480"><path d="M181.49847,470.93739a18.37473,18.37473,0,0,1-18.375-18.375c0-73.96094-60.17188-134.13281-134.13281-134.13281a18.375,18.375,0,0,1,0-36.75c94.22558,0,170.88281,76.65722,170.88281,170.88281A18.37473,18.37473,0,0,1,181.49847,470.93739Z"/><path d="M318.642,472.62a18.37475,18.37475,0,0,1-18.375-18.375,271.55932,271.55932,0,0,0-80.0625-193.28711A271.56021,271.56021,0,0,0,26.91839,180.89637a18.375,18.375,0,1,1,0-36.75,308.069,308.069,0,0,1,219.27246,90.8252A308.06817,308.06817,0,0,1,337.017,454.245,18.37474,18.37474,0,0,1,318.642,472.62Z"/><path d="M449.9096,472.62a18.37474,18.37474,0,0,1-18.375-18.375,402.06563,402.06563,0,0,0-31.78906-157.48926,403.28739,403.28739,0,0,0-86.7207-128.61817A403.287,403.287,0,0,0,26.91839,49.62782a18.375,18.375,0,0,1,0-36.75A440.04347,440.04347,0,0,1,339.01116,142.15126a439.86864,439.86864,0,0,1,94.58106,140.28808A438.61434,438.61434,0,0,1,468.2846,454.245,18.37474,18.37474,0,0,1,449.9096,472.62Z"/><path d="M39.27386,467.19325a24.79639,24.79639,0,1,1,24.79687-24.7959A24.82354,24.82354,0,0,1,39.27386,467.19325Z"/></svg>