<svg id="ds44-icons" xmlns="http://www.w3.org/2000/svg" width="480" height="480" viewBox="0 0 480 480"><path d="M476.66253,239.99989a18.37473,18.37473,0,0,0-18.375-18.375H440.02288l21.02735-21.02734a18.37511,18.37511,0,0,0-25.98633-25.98633l-47.01367,47.01367H284.36151l73.31884-73.31934h66.48706a18.375,18.375,0,0,0,0-36.75h-29.7373l12.915-12.915a18.37511,18.37511,0,1,0-25.98633-25.98632L368.44476,85.56831V55.83192a18.375,18.375,0,1,0-36.75,0v66.48663l-73.31934,73.31983V91.95008l47.01367-47.01367a18.37511,18.37511,0,1,0-25.98632-25.98633L258.37542,39.97743V21.71278a18.375,18.375,0,0,0-36.75,0V39.97743L200.59808,18.95008a18.37511,18.37511,0,0,0-25.98633,25.98633l47.01367,47.01367V195.63856l-73.32031-73.32031V55.83192a18.375,18.375,0,1,0-36.75,0V85.56825L98.64105,72.65419A18.37511,18.37511,0,0,0,72.65472,98.64051l12.915,12.915H55.83245a18.375,18.375,0,1,0,0,36.75h66.48731l73.31933,73.31934H91.94964L44.936,174.61122a18.37511,18.37511,0,0,0-25.98633,25.98633L39.977,221.62489H21.71234a18.375,18.375,0,0,0,0,36.75H39.977L18.94964,279.40223A18.37511,18.37511,0,0,0,44.936,305.38856l47.01367-47.01367H195.63909l-73.31933,73.31934H55.83245a18.375,18.375,0,0,0,0,36.75H85.56976l-12.915,12.915a18.37511,18.37511,0,0,0,25.98633,25.98633l12.91406-12.91406v29.73633a18.375,18.375,0,1,0,36.75,0V357.68153l73.32031-73.32031V388.05067l-47.01367,47.01367a18.37511,18.37511,0,0,0,25.98633,25.98633l21.02734-21.02734V458.287a18.375,18.375,0,0,0,36.75,0V440.02333l21.02735,21.02734a18.37511,18.37511,0,0,0,25.98632-25.98633l-47.01367-47.01367V284.3614l73.31934,73.31982v66.48664a18.375,18.375,0,0,0,36.75,0V394.43147l12.91406,12.91412a18.37511,18.37511,0,1,0,25.98633-25.98633l-12.915-12.915h29.7373a18.375,18.375,0,0,0,0-36.75H357.68035l-73.31884-73.31934H388.05023l47.01367,47.01367a18.37511,18.37511,0,0,0,25.98633-25.98633l-21.02735-21.02734h18.26465A18.37473,18.37473,0,0,0,476.66253,239.99989Z"/></svg>