<?xml version="1.0" encoding="UTF-8"?><svg id="ds44-icons" xmlns="http://www.w3.org/2000/svg" viewBox="0 0 1312.82 480"><path d="m171.4,316.75h-.87c-12.87,23.98-35.99,34.23-62.61,34.23-31,0-56.16-11.41-74-30.42-19.02-20.48-28.96-49.16-28.96-82.51,0-37.16,13.46-69.62,37.74-90.08,17.54-14.93,40.07-23.41,68.74-23.41,55,0,87.17,29.25,95.07,70.79h-49.73c-5.26-16.08-19.02-29.53-43.87-29.53-38.62,0-57.34,31.3-57.34,72.24s22.23,72.26,57.93,72.26c30.71,0,49.14-20.77,49.43-42.71v-.88h-43.88v-37.16h90.97v116.42h-34.51l-4.1-29.25Z"/><path d="m242.9,128.37h103.56c42.41,0,74.29,22.51,74.29,62.31,0,25.44-12.58,43.87-40.36,52.95v.86c21.64,6.74,31.3,18.72,34.23,42.13,4.1,29.53,2.33,54.11,9.36,57.04v2.33h-49.15c-5.85-3.22-5.26-26.32-7.9-50.3-2.63-21.65-13.46-32.77-37.44-32.77h-36.86v83.08h-49.73v-217.63Zm49.73,97.7h44.17c22.23,0,34.23-11.41,34.23-28.68s-10.83-29.53-32.76-29.53h-45.64v58.21Z"/><path d="m517.99,128.37h51.78l78.68,217.63h-52.65l-13.74-41.54h-78.98l-13.46,41.54h-50.02l78.39-217.63Zm-3.22,140.41h55.88l-13.17-40.66c-9.36-29.84-14.04-57.93-14.04-57.93h-.58s-7.6,36.56-14.62,57.93l-13.46,40.66Z"/><path d="m633.64,128.37h179.6v42.42h-64.93v175.21h-50.04v-175.21h-64.63v-42.42Z"/><path d="m837.34,270.23v-141.86h49.73v143.03c0,23.7,12.58,38.32,40.66,38.32,26.03,0,39.49-15.51,39.49-39.2v-142.15h50.02v141.86c0,50.61-31.3,79.86-89.51,79.86s-90.39-28.68-90.39-79.86Z"/><path d="m1051.56,128.37h50.04v217.63h-50.04v-217.63Z"/><path d="m1128.25,128.37h179.61v42.42h-64.95v175.21h-50.02v-175.21h-64.64v-42.42Z"/></svg>