<?xml version="1.0" encoding="UTF-8"?><svg id="ds44-icons" xmlns="http://www.w3.org/2000/svg" viewBox="0 0 406.41 173.42"><defs><style>.cls-1{fill:#1d1d1b;}</style></defs><path class="cls-1" d="m58.52,110.27h-.26c-3.84,7.15-10.74,10.21-18.68,10.21-9.25,0-16.75-3.4-22.08-9.07-5.67-6.11-8.64-14.67-8.64-24.61,0-11.08,4.01-20.77,11.26-26.87,5.23-4.45,11.95-6.98,20.51-6.98,16.41,0,26.01,8.73,28.36,21.12h-14.84c-1.57-4.8-5.67-8.81-13.09-8.81-11.52,0-17.11,9.34-17.11,21.55s6.63,21.56,17.28,21.56c9.16,0,14.66-6.2,14.75-12.74v-.26h-13.09v-11.08h27.14v34.73h-10.3l-1.22-8.73Z"/><path class="cls-1" d="m79.85,54.08h30.89c12.65,0,22.16,6.71,22.16,18.59,0,7.59-3.75,13.09-12.04,15.79v.26c6.46,2.01,9.34,5.58,10.21,12.57,1.22,8.81.7,16.14,2.79,17.02v.7h-14.66c-1.74-.96-1.57-7.85-2.36-15.01-.79-6.46-4.01-9.78-11.17-9.78h-11v24.78h-14.84V54.08Zm14.84,29.15h13.18c6.63,0,10.21-3.4,10.21-8.55s-3.23-8.81-9.77-8.81h-13.61v17.37Z"/><path class="cls-1" d="m161.91,54.08h15.45l23.47,64.92h-15.71l-4.1-12.39h-23.56l-4.01,12.39h-14.92l23.38-64.92Zm-.96,41.89h16.67l-3.93-12.13c-2.79-8.9-4.19-17.28-4.19-17.28h-.17s-2.27,10.91-4.36,17.28l-4.01,12.13Z"/><path class="cls-1" d="m196.41,54.08h53.58v12.65h-19.37v52.27h-14.93v-52.27h-19.28v-12.65Z"/><path class="cls-1" d="m257.18,96.4v-42.32h14.84v42.67c0,7.07,3.75,11.43,12.13,11.43,7.77,0,11.78-4.63,11.78-11.7v-42.4h14.92v42.32c0,15.1-9.34,23.82-26.7,23.82s-26.96-8.55-26.96-23.82Z"/><path class="cls-1" d="m321.08,54.08h14.93v64.92h-14.93V54.08Z"/><path class="cls-1" d="m343.96,54.08h53.58v12.65h-19.38v52.27h-14.92v-52.27h-19.28v-12.65Z"/></svg>