<?xml version="1.0" encoding="UTF-8"?><svg id="ds44-icons" xmlns="http://www.w3.org/2000/svg" viewBox="0 0 897.57 480"><path d="m119.35,291.41h-.59c-8.74,16.29-24.44,23.25-42.52,23.25-21.06,0-38.15-7.75-50.27-20.66-12.92-13.91-19.67-33.39-19.67-56.04,0-25.24,9.14-47.29,25.63-61.19,11.92-10.14,27.22-15.9,46.69-15.9,37.36,0,59.21,19.87,64.57,48.08h-33.78c-3.58-10.92-12.92-20.06-29.8-20.06-26.23,0-38.95,21.26-38.95,49.07s15.1,49.08,39.34,49.08c20.86,0,33.38-14.11,33.58-29.01v-.6h-29.81v-25.24h61.79v79.08h-23.44l-2.78-19.87Z"/><path d="m167.91,163.46h70.34c28.8,0,50.46,15.29,50.46,42.32,0,17.28-8.54,29.8-27.41,35.96v.58c14.7,4.58,21.26,12.72,23.25,28.62,2.78,20.06,1.59,36.76,6.36,38.75v1.59h-33.38c-3.97-2.18-3.58-17.88-5.36-34.17-1.79-14.71-9.14-22.26-25.43-22.26h-25.04v56.43h-33.78v-147.82Zm33.78,66.36h30c15.1,0,23.25-7.75,23.25-19.48s-7.35-20.06-22.25-20.06h-31v39.54Z"/><path d="m354.76,163.46h35.17l53.44,147.82h-35.76l-9.33-28.21h-53.65l-9.14,28.21h-33.97l53.24-147.82Zm-2.18,95.37h37.95l-8.95-27.62c-6.36-20.27-9.54-39.34-9.54-39.34h-.4s-5.16,24.83-9.93,39.34l-9.14,27.62Z"/><path d="m433.31,163.46h121.99v28.81h-44.1v119.01h-33.99v-119.01h-43.9v-28.81Z"/><path d="m571.68,259.82v-96.36h33.78v97.15c0,16.1,8.54,26.03,27.62,26.03,17.68,0,26.82-10.53,26.82-26.63v-96.55h33.97v96.36c0,34.38-21.26,54.24-60.8,54.24s-61.4-19.48-61.4-54.24Z"/><path d="m717.18,163.46h33.99v147.82h-33.99v-147.82Z"/><path d="m769.27,163.46h122v28.81h-44.12v119.01h-33.97v-119.01h-43.91v-28.81Z"/></svg>