<svg id="ds44-icons" xmlns="http://www.w3.org/2000/svg" width="408.57625" height="480" viewBox="0 0 408.57625 480"><path d="M401.05352,131.45005a31.44441,31.44441,0,0,0-10.14941-9.13867C388.43633,93.10777,379.39434,62.391,378.951,60.89927a18,18,0,0,0-34.51172,10.24414c.11133.374,11.082,37.73047,11.082,64.83008v18h16.60888c.53076,3.54737.1753,11.2876-3.626,22.50879-5.70557,16.84375-3.97315,30.729-2.7085,40.86768.416,3.332.9834,7.8833.6582,9.32959-1.72461,4.55957-7.03125,8.74853-8.8916,9.95361l-8.11328,4.70752-.46924,9.78369c-.01806.37891-1.98047,38.29248-16.15674,75.894-7.96,21.11377-18.103,37.71924-30.14648,49.3545-14.19336,13.71142-30.75684,20.377-50.63672,20.377-38.13721,0-60.97656-7.75208-73.35986-14.17773a110.48826,110.48826,0,0,0-3.40869-24.26136,88.55288,88.55288,0,0,0,13.95556-4.54248,3.12684,3.12684,0,0,0-.46631-5.93872c-40.22558-9.06152-51.99414-37.95648-51.99414-48.01184,15.98926,11.54767,47.08448,11.22791,59.668,10.56159a5.79811,5.79811,0,0,0,5.48291-5.79432V281.733s34.31592-11.303,38.83692-16.95453c4.521-5.65155-7.91211-30.51812-29.3877-67.818,2.26025-33.90906-14.69385-146.90149-14.69385-146.90149H-.00019V373.28734s90.42432,59.90594,142.418,56.515c12.57324-.82,20.97754-5.42981,26.50781-11.93964,17.75733,7.86377,44.43946,14.88715,83.11426,14.88715,51.93994,0,91.52246-32.16992,114.46875-93.03125,12.05176-31.9668,16.33106-63.59033,17.7627-78.333,5.457-4.79492,12.29589-12.33447,15.97851-22.30127,3.3916-9.17822,2.26367-18.21679,1.269-26.19092-1.01611-8.14306-1.97509-15.83447,1.08252-24.86181C407.27716,174.22691,413.29376,148.51939,401.05352,131.45005ZM97.20587,164.93516s8.28906-21.85248,25.62011-21.85248c17.33155,0,25.62012,21.85248,25.62012,21.85248A102.60159,102.60159,0,0,0,122.826,161.921,102.60145,102.60145,0,0,0,97.20587,164.93516Z"/><path d="M317.36358,164.93516s-8.28906-21.85248-25.62012-21.85248c-17.33154,0-25.62011,21.85248-25.62011,21.85248a110.39153,110.39153,0,0,1,51.24023,0Z"/><path d="M178.54766,326.54875s18.58155,17.72748,57.43409,17.72748,57.43408-17.72748,57.43408-17.72748-23.64942,2.44513-57.43408,2.44513S178.54766,326.54875,178.54766,326.54875Z"/></svg>