<svg id="ds44-icons" xmlns="http://www.w3.org/2000/svg" width="391.68642" height="480" viewBox="0 0 391.68642 480"><path d="M387.75433,226.20433c-.531-1.16895-13.345-28.95166-43.41113-56.39942a206.90545,206.90545,0,0,0-26.68555-20.60833L384.092,82.76243a18.00006,18.00006,0,0,0-25.45581-25.456l-74.30371,74.3034c-24.1062-10.06158-53.46265-17.0578-88.5503-17.0578-72.76367,0-120.95019,30.04688-148.56054,55.25293C17.15521,197.25267,4.34076,225.03538,3.81048,226.20433L.43255,233.64476l3.37793,7.44043c.53077,1.16894,13.34473,28.95166,43.41114,56.39941A207.24021,207.24021,0,0,0,88.95013,326.992L18.705,397.23753a18.00015,18.00015,0,0,0,25.45605,25.45606L124.748,342.106a233.33489,233.33489,0,0,0,71.03418,10.631c72.76392,0,120.95044-30.04638,148.561-55.25244,30.06592-27.44775,42.88013-55.23047,43.41113-56.39941l3.37744-7.44043Zm-347.0542,7.44238a172.608,172.608,0,0,1,109.13526-78.11884,17.9912,17.9912,0,0,0,24.103,19.22138,62.80754,62.80754,0,1,1-40.9497,58.89551,18,18,0,0,0-36,0,98.52429,98.52429,0,0,0,30.78222,71.59033A170.074,170.074,0,0,1,72.6225,271.91917,171.36821,171.36821,0,0,1,40.70013,233.64671Zm278.24195,38.27246a170.07824,170.07824,0,0,1-55.1482,33.316,98.64089,98.64089,0,0,0-.00049-143.1814q7.24184,2.6683,14.16382,5.949a17.84832,17.84832,0,0,0,4.677,2.31464,173.4708,173.4708,0,0,1,68.23023,63.32537A171.31379,171.31379,0,0,1,318.94208,271.91917Z"/><path d="M195.78216,268.14769a34.50315,34.50315,0,1,0,0-69.00629c-.30664,0-.61035.0152-.915.02319a39.75271,39.75271,0,0,1-33.50488,36.75965A34.49915,34.49915,0,0,0,195.78216,268.14769Z"/></svg>