<svg id="ds44-icons" xmlns="http://www.w3.org/2000/svg" width="334.52682" height="480" viewBox="0 0 334.52682 480"><path d="M331.17618,357.33757,265.89371,255.40849a21.42115,21.42115,0,0,0-6.02515-9.40723l-.33032-.51593-.13891.089a21.2166,21.2166,0,0,0-13.88379-5.189H163.10147v-31.4187h78.021a15.31945,15.31945,0,0,0,15.27466-15.27448v-.00006a15.31945,15.31945,0,0,0-15.27466-15.27447h-78.021V149.381a29.01613,29.01613,0,0,0-28.93115-28.931h0a29.01613,29.01613,0,0,0-28.93115,28.931v30.0055A133.56759,133.56759,0,0,0,.446,309.8123c0,73.6333,59.905,133.53808,133.53833,133.53808,65.47168,0,120.08667-47.36248,131.38965-109.62414l29.86474,46.629a21.33845,21.33845,0,1,0,35.9375-23.0177ZM133.98429,407.35038A97.54786,97.54786,0,0,1,105.23917,216.589v66.47345H227.81485a97.63745,97.63745,0,0,1-93.83056,124.2879Z"/><circle cx="134.17026" cy="69.68199" r="33.03228" transform="translate(-12.42045 32.69009) rotate(-13.28253)"/></svg>