<svg id="ds44-icons" xmlns="http://www.w3.org/2000/svg" width="377.5691" height="480" viewBox="0 0 377.5691 480"><path d="M236.18178,215.28209A17.99206,17.99206,0,0,0,260.88,209.118c15.792-26.29785,12.52392-47.55029,7.00146-60.748-8.26611-19.7544-26.61425-33.02686-45.65771-33.02686-16.84375,0-30.05615,5.01416-39.27246,14.90527-7.66407,8.22706-11.1543,18.187-11.81494,24.21631a18.00013,18.00013,0,0,0,35.69336,4.63477,11.29617,11.29617,0,0,1,2.46191-4.31152c2.65283-2.84717,8.49658-3.44483,12.93213-3.44483,3.78808,0,9.625,4.17627,12.44775,10.92334,3.36572,8.043,1.79981,17.57031-4.65429,28.31738A18.0002,18.0002,0,0,0,236.18178,215.28209Z"/><path d="M177.37318,247.24742a18.0005,18.0005,0,0,0-25.45605,0L5.44447,393.72105A18,18,0,1,0,30.9,419.17711L177.37318,272.70347A18.0005,18.0005,0,0,0,177.37318,247.24742Z"/><path d="M371.95668,52.66392a17.99994,17.99994,0,0,0-25.45557,0l-44.82178,44.8219a110.84194,110.84194,0,0,0-20.88818-19.18371,101.373,101.373,0,0,0-58.56738-18.959c-43.0127,0-68.74219,19.31983-82.75293,35.52735-18.021,20.84619-24.4419,45.31933-24.4419,61.272,0,30.28271,12.87842,60.68066,13.42676,61.96a18,18,0,0,0,33.1001-14.15576c-.10547-.24756-10.52686-25.04053-10.52686-47.8042,0-9.75342,4.84717-25.20215,15.67627-37.729,13.2334-15.3081,31.9126-23.07031,55.51856-23.07031,27.00586,0,52.76855,18.20752,64.1084,45.30664,14.13769,33.78906,3.40478,72.28321-29.44825,105.61182-37.63867,38.18457-48.03125,76.63721-55.61914,104.71387-7.98437,29.54248-11.94629,39.49462-28.3706,44.27246-10.43408,3.03515-18.83643.9541-26.44385-6.54786a50.92735,50.92735,0,0,1-10.41894-15.54541l.04394.11475L102.38295,385.951a86.17669,86.17669,0,0,0,17.62353,27.20606c12.43262,12.81543,27.67334,19.43359,44.13282,19.4331a67.284,67.284,0,0,0,18.81054-2.7749c37.22608-10.82959,45.27979-40.62891,53.06787-69.44775,7.27051-26.90088,15.51075-57.39063,46.50489-88.8335,22.54394-22.87061,36.97851-47.89111,42.90332-74.3667a116.01843,116.01843,0,0,0-4.8125-67.70386L371.95668,78.12A17.99964,17.99964,0,0,0,371.95668,52.66392Z"/></svg>