<svg id="ds44-icons" xmlns="http://www.w3.org/2000/svg" viewBox="0 0 450 480"><path d="M31.54,46.54,90,107q23.19-23.16,63-39.8t73-16.62q33.25,0,73.05,16.62T362,107q56.44,56.45,56.42,135.53T362,377q-56.43,56.44-137,56.42T88,377Q31.55,321.63,31.54,242H74.86q0,61.47,43.33,104.79,18.13,18.13,49.88,31.23T225,391.14q25.2,0,56.43-13.1t49.37-31.23q18.13-18.13,31.24-48.87T375.14,242q0-25.19-13.1-55.93T330.8,137.22Q286.48,93.92,224.5,94.4T118.19,139.24l59.45,60.46H31.54ZM236.08,154.35V245l74.57,45.34-15.12,26.2-91.69-55.42V154.35Z"/></svg>