<?xml version="1.0" encoding="utf-8"?>
<!-- Generator: Adobe Illustrator 25.3.1, SVG Export Plug-In . SVG Version: 6.00 Build 0)  -->
<svg version="1.1" id="ds44-icons" xmlns="http://www.w3.org/2000/svg" xmlns:xlink="http://www.w3.org/1999/xlink" x="0px" y="0px"
	 viewBox="0 0 406.4 480" style="enable-background:new 0 0 406.4 480;" xml:space="preserve">
<path d="M32.2,324.3c-8.9,0-14.7-1.1-15.9-1.3l7.5-36.2l-0.2,0c0.1,0,13.5,2.4,29.8-2.6c21.4-6.6,38.2-22.6,50-47.6
	c18.9-40,52.1-66.5,96-76.4c32.3-7.3,59.3-3,60.4-2.8c7.6,1.3,13.8,7.1,15.3,14.7c1.5,7.6-1.8,15.2-8.4,19.2
	c-1,0.7-18.4,12.4-21,29.7c-1.6,10.8,3,22.8,13.7,35.4c27.3,32.4,98.9,30,124.1,26.4c10.1-1.4,19.5,5.5,21,15.7
	c1.5,10.1-5.5,19.5-15.6,21c-1.1,0.2-27.6,4-59.5,1.6c-45.3-3.4-78.3-17.1-98.3-40.7c-18-21.3-25.4-43.3-21.9-65.3
	c1.2-7.5,3.5-14.2,6.5-20.3c-3,0.5-6.1,1.1-9.2,1.8c-32.3,7.6-55.7,26.4-69.6,55.9c-21,44.5-52.3,61.4-74.8,67.8
	C50.6,323.4,40.2,324.3,32.2,324.3z"/>
</svg>
