<svg id="ds44-icons" xmlns="http://www.w3.org/2000/svg" width="403" height="480" viewBox="0 0 403 480"><path d="M201.50028,435.99989c-108.0752,0-196-87.92481-196-196s87.9248-196,196-196,196,87.9248,196,196S309.57547,435.99989,201.50028,435.99989Zm0-355.25c-87.81055,0-159.25,71.43945-159.25,159.25s71.43945,159.25,159.25,159.25,159.25-71.43945,159.25-159.25S289.31082,80.74989,201.50028,80.74989Z"/><path d="M198.49637,351.25477h-10a18.375,18.375,0,0,1-18.21484-20.79785l13.79-103.667a18.376,18.376,0,0,1,10.53907-33.42871h10a18.375,18.375,0,0,1,18.21484,20.79785l-13.79,103.667a18.376,18.376,0,0,1-10.53906,33.42871Z"/><g id="Tracé_1107" data-name="Tracé 1107"><path d="M211.59891,177.88465q-.89941,0-1.79981-.08984c-.59961-.06055-1.20019-.15039-1.79-.27051a17.58742,17.58742,0,0,1-1.74023-.43945,18.03479,18.03479,0,0,1-1.69922-.61035,16.70447,16.70447,0,0,1-1.62012-.75977c-.53027-.28027-1.0498-.58984-1.5498-.91992-.5-.33984-.99023-.70019-1.4502-1.08008a17.05305,17.05305,0,0,1-1.33984-1.21,16.84942,16.84942,0,0,1-1.21-1.33984c-.38086-.46-.74023-.9502-1.08008-1.4502-.33008-.5-.64062-1.0205-.91992-1.5498a16.10042,16.10042,0,0,1-.76074-1.62012c-.22949-.56055-.43946-1.12012-.60938-1.69043a15.93208,15.93208,0,0,1-.44043-1.75c-.12011-.58984-.21-1.18945-.26953-1.7793a18.08273,18.08273,0,0,1,0-3.62011c.05957-.58985.14942-1.19043.26953-1.78028a15.39577,15.39577,0,0,1,.44043-1.75c.16992-.57031.37989-1.13964.59961-1.69043.23047-.5498.49024-1.09961.77051-1.62988.2793-.51953.58984-1.04.91992-1.54.33985-.5.69922-.98926,1.06934-1.44922a17.19347,17.19347,0,0,1,1.2207-1.34082,15.42369,15.42369,0,0,1,1.33984-1.21972,16.97245,16.97245,0,0,1,1.4502-1.07032c.5-.3291,1.01953-.63964,1.5498-.91992.51954-.27929,1.06934-.54,1.62012-.76953.55957-.23047,1.12988-.42969,1.69922-.61035.57031-.16992,1.16016-.31934,1.74023-.43945.58985-.11036,1.19043-.2002,1.79-.26075a16.7753,16.7753,0,0,1,3.61036,0c.58984.06055,1.18945.15039,1.77929.26075.59082.12011,1.1709.26953,1.75.43945.57031.18066,1.14063.37988,1.69043.61035.54981.22949,1.09961.49024,1.62988.76953.52051.28028,1.04981.59082,1.54.91992a16.97087,16.97087,0,0,1,1.4502,1.07032,19.25535,19.25535,0,0,1,2.55957,2.56054,16.95784,16.95784,0,0,1,1.07031,1.44922c.33008.5.63965,1.02051.91992,1.54.28028.53027.54,1.08008.77051,1.62988.22949.55079.42969,1.12012.60938,1.69043.16992.58008.32031,1.16016.44043,1.75s.20019,1.19043.25976,1.78028a16.49544,16.49544,0,0,1,0,3.62011c-.05957.58985-.13965,1.18946-.25976,1.7793-.12012.58008-.27051,1.16992-.44043,1.75-.17969.57031-.37989,1.12988-.60938,1.69043-.23047.54981-.49023,1.09961-.77051,1.62012-.28027.5293-.58984,1.0498-.91992,1.5498a16.9729,16.9729,0,0,1-1.07031,1.4502,18.50309,18.50309,0,0,1-2.55957,2.5498c-.46.37989-.9502.74024-1.4502,1.08008-.5.33008-1.01953.63965-1.5498.91992a15.8812,15.8812,0,0,1-1.62012.75977,16.85724,16.85724,0,0,1-1.69043.61035,17.63388,17.63388,0,0,1-1.75.43945c-.58984.12012-1.18945.21-1.77929.27051C212.80887,177.85438,212.19949,177.88465,211.59891,177.88465Z"/></g></svg>