<?xml version="1.0" encoding="UTF-8"?><svg id="ds44-icons" xmlns="http://www.w3.org/2000/svg" viewBox="0 0 406.41 377.34"><defs><style>.cls-1{fill:#1d1d1b;}</style></defs><path class="cls-1" d="m224.32,196.88l57.13,58.99c4.35,4.66,11.8,4.66,16.46.31,4.66-4.35,4.66-11.8.31-16.46l-42.54-44.09,13.66-12.73,4.66,15.21v.31c1.24,4.35,5.59,7.14,9.94,6.52l22.67-1.86c5.28-.31,9.32-4.97,9-10.25-.31-5.28-4.97-9.32-10.25-9l-14.9,1.24-3.73-12.42c-.93-2.79-2.17-5.28-3.73-7.45l-8.38-11.49c-2.17-3.11-5.9-5.28-9.62-5.59-4.04-.31-7.76.93-10.56,3.73l-29.19,28.57c-2.17,2.17-3.73,4.97-3.73,8.07,0,1.24.31,2.48.62,3.73,0,1.86.93,3.42,2.17,4.66h0Z"/><path class="cls-1" d="m314.83,131.29c7.6,8.16,7.15,20.93-1.01,28.52-8.16,7.6-20.93,7.15-28.52-1.01-7.6-8.15-7.15-20.93,1.01-28.52,8.15-7.6,20.93-7.15,28.52,1.01"/><path class="cls-1" d="m350.06,300.9h-24.22c-10.56,0-21.11-4.35-28.57-12.11l-103.7-105.57c-3.42-3.42-7.45-5.9-11.8-7.76v-72.34c0-3.73-1.55-7.14-4.35-9.62l-45.02-37.26c-4.66-3.73-11.49-3.73-15.83,0l-44.71,37.57c-2.79,2.17-4.35,5.59-4.35,9.32v210.2c0,6.83,5.59,12.42,12.42,12.42s12.42-5.59,12.42-12.42v-18.01h64.58v18.01c0,6.83,5.59,12.42,12.42,12.42s12.42-5.59,12.42-12.42v-107.12s98.12,99.98,98.12,99.98c12.11,12.42,28.87,19.25,46.26,19.25h24.22c6.83,0,12.42-5.59,12.42-12.42s-5.9-12.11-12.73-12.11h0ZM124.65,101.25c11.8,0,21.11,9.62,21.11,21.11s-9.32,21.11-21.11,21.11-21.11-9.32-21.11-21.11,9.32-21.11,21.11-21.11Zm32.29,169.53h-64.58v-23.91h64.58v23.91Zm0-48.75h-64.58v-23.91h64.58v23.91Z"/></svg>