<?xml version="1.0" encoding="UTF-8"?><svg id="ds44-icons" xmlns="http://www.w3.org/2000/svg" viewBox="0 0 487.89 480"><path d="m258.57,257.73l91.17,94.14c6.94,7.43,18.83,7.43,26.26.49,7.43-6.94,7.43-18.83.49-26.26l-67.88-70.36,21.8-20.32,7.43,24.28v.49c1.98,6.94,8.92,11.39,15.86,10.41l36.17-2.97c8.42-.49,14.86-7.93,14.37-16.35-.49-8.42-7.93-14.86-16.35-14.37l-23.78,1.98-5.94-19.82c-1.49-4.46-3.47-8.42-5.94-11.89l-13.38-18.33c-3.47-4.96-9.41-8.42-15.36-8.92-6.44-.49-12.39,1.49-16.85,5.94l-46.57,45.58c-3.47,3.47-5.94,7.93-5.94,12.88,0,1.98.49,3.96.99,5.94,0,2.97,1.48,5.45,3.47,7.43h0Z"/><path d="m403,153.06c12.12,13.02,11.4,33.39-1.61,45.52-13.02,12.12-33.39,11.4-45.52-1.61-12.12-13.01-11.4-33.39,1.61-45.51,13.01-12.12,33.39-11.4,45.51,1.61"/><path d="m459.23,423.71h-38.65c-16.85,0-33.69-6.94-45.58-19.32l-165.49-168.46c-5.45-5.45-11.89-9.41-18.83-12.39v-115.44c0-5.94-2.48-11.39-6.94-15.36l-71.84-59.46c-7.43-5.94-18.33-5.94-25.27,0L15.29,93.23c-4.46,3.47-6.94,8.92-6.94,14.86v335.43c0,10.9,8.92,19.82,19.82,19.82s19.82-8.92,19.82-19.82v-28.74h103.06v28.74c0,10.9,8.92,19.82,19.82,19.82s19.82-8.92,19.82-19.82v-170.94s156.57,159.54,156.57,159.54c19.32,19.82,46.08,30.72,73.83,30.72h38.65c10.9,0,19.82-8.92,19.82-19.82s-9.41-19.32-20.31-19.32h0ZM99.52,105.12c18.83,0,33.69,15.36,33.69,33.69s-14.86,33.69-33.69,33.69-33.69-14.86-33.69-33.69,14.86-33.69,33.69-33.69Zm51.53,270.53H47.99v-38.15h103.06v38.15Zm0-77.79H47.99v-38.15h103.06v38.15Z"/></svg>