<?xml version="1.0" encoding="UTF-8"?><svg id="ds44-icons" xmlns="http://www.w3.org/2000/svg" viewBox="0 0 493.48 480"><path d="m276.23,249.99c18.53,0,33.97-15.44,33.97-33.97,0-15.44-11.32-36.03-20.59-50.96-3.09-4.63-7.72-7.21-13.38-7.21-5.15,0-10.29,2.57-13.38,7.21-9.26,14.41-20.59,35.52-20.59,50.96,0,18.53,15.44,33.97,33.97,33.97Z"/><path d="m475.42,158.89h-24.19v-24.71h23.16c5.66,0,10.29-4.63,10.29-10.29v-49.41c0-5.66-4.63-10.29-10.29-10.29h-109.63c-5.66,0-10.29,4.63-10.29,10.29v14.41h-57.65c-16.99,0-30.37,13.9-30.37,30.37v14.41c0,5.66,4.63,10.29,10.29,10.29s10.29-4.63,10.29-10.29v-14.41c0-5.66,4.63-10.29,10.29-10.29h58.16v14.41c0,5.66,4.63,10.3,10.29,10.3h24.19v24.7h-24.19c-5.66,0-10.29,4.63-10.29,10.3v212.58c0,5.66,4.63,10.29,10.29,10.29h109.63c5.66,0,10.29-4.63,10.29-10.29v-212.06c0-5.66-4.63-10.29-10.29-10.29Zm-20.68,97.7h-22.41v22.53h-24.13v-22.53h-22.54v-21.69h22.54v-22.29h24.13v22.29h22.41v21.69Z"/><path d="m304.63,269.71l-55.44,17.6v4.4c-.88,15.84-12.32,29.04-27.72,32.56l-2.2.44c-20.68,4.4-42.24,7.48-63.37,8.36l-18.04.44c-2.64,0-5.28-.88-7.48-2.64-2.2-1.76-3.08-4.4-3.08-7.04s.88-5.28,2.64-7.48c1.76-2.2,4.4-3.08,7.04-3.08l18.04-.88c19.36-.88,38.72-3.08,57.64-7.48l3.52-.88c6.6-1.32,11.88-7.48,11.88-14.08,0-3.96-1.32-7.92-3.96-11-2.64-2.63-6.16-4.4-10.12-4.4l-89.77-2.64c-9.68-.44-19.36,2.64-27.72,8.36L12.01,346.27c-5.28,4.4-5.72,12.32-.88,17.16l48.4,47.08c3.96,3.96,10.56,4.4,14.96.88l20.24-16.28c3.08-2.64,7.48-3.96,11.44-3.52l67.76,6.16c12.76,1.32,25.96-2.64,36.08-10.56l110.01-86.68c4.4-2.65,7.04-7.49,7.48-12.33h0c.44-5.28-1.32-9.68-4.84-13.64-4.4-4.84-11.88-6.6-18.04-4.84Z"/></svg>