<?xml version="1.0" encoding="UTF-8"?><svg id="ds44-icons" xmlns="http://www.w3.org/2000/svg" viewBox="0 0 406.41 480"><defs><style>.cls-1,.cls-2{fill:#1d1d1b;}.cls-2{fill-rule:evenodd;}</style></defs><path class="cls-2" d="m91.34,267.6c37.73-27.61,75.57-55.29,113.61-82.47,26.26-18.75,45.33,13.94,30.58,28.68-13.26,13.26-26.51,26.51-39.76,39.76-.37.37-.69.85-.79,1.37-1.55,8.5,33.96,2.54,36.37,2.05,36.56-7.47,73.24-14.27,109.86-21.39,33.77-6.57,35.34,27.44,8.12,34.73-15.16,4.06-31.17,7.09-46.57,10.19-17.22,3.46-36.4,6.45-53.24,10.96-11.05,2.96-10,13.37,5.82,11.98,19.24-1.68,38.58-3.01,57.85-4.26,18.59-1.2,41.21-3.39,59.66-2.51,21.3,1.01,21.41,35.22-3.75,34.84-18.04-.26-36.37.28-54.4.72-19.33.48-39.47.69-58.74,2.11-12.26.9-9.49,10.47-1.13,11.4,6.22.68,13.52.57,19.8.67,11.11.16,22.21.2,33.32.24,17.08.06,34.32-.15,51.38.27,20.86.51,23.97,35.5-3.24,35.98-36.13.65-72.7-2.96-108.74-2.96-9.46,0-10.86,11.01,1.55,12.32,28.57,3.01,57.38,4.72,85.89,8.04,22.18,2.58,20.66,40.97-11.7,36.28-57.83-8.38-116.46-15.05-174.49-22.29-13.62-1.7-25.71-5.18-38.55-9.86-30.19-10.99-49.27-17.35-82.34-19l-2.59-.13v-111.23l66.19-6.51h0Zm250.76-158.57H119.75v-51.62h170.73c28.39,0,51.62,23.23,51.62,51.62h0Zm0,8.48h-90.86v45.93h90.86v-45.93Z"/><path class="cls-1" d="m296.24,233.53c2.96.09,5.91-.45,8.65-1.59,2.74-1.14,5.2-2.84,7.23-5,1.98-2.36,3.44-5.11,4.28-8.08.84-2.96,1.06-6.07.62-9.12-1.38-12.24-18.32-35.87-19.04-36.87-.42-.53-1.07-.84-1.75-.84s-1.32.31-1.75.84c-.72,1-17.66,24.63-19.04,36.87-.44,3.05-.23,6.16.62,9.12.84,2.96,2.3,5.72,4.28,8.08,2.03,2.16,4.49,3.87,7.23,5,2.74,1.14,5.69,1.68,8.65,1.59h0Z"/></svg>