<?xml version="1.0" encoding="UTF-8"?><svg id="ds44-icons" xmlns="http://www.w3.org/2000/svg" viewBox="0 0 406.41 480"><defs><style>.cls-1{fill:#1d1d1b;}</style></defs><path class="cls-1" d="m226.62,255.95c14.72,0,26.98-12.26,26.98-26.98,0-12.26-8.99-28.61-16.35-40.47-2.45-3.68-6.13-5.72-10.63-5.72-4.09,0-8.18,2.04-10.63,5.72-7.36,11.45-16.35,28.21-16.35,40.47,0,14.72,12.26,26.98,26.98,26.98Z"/><path class="cls-1" d="m384.83,183.59h-19.21v-19.63h18.4c4.5,0,8.18-3.68,8.18-8.17v-39.25c0-4.49-3.68-8.17-8.18-8.17h-87.07c-4.5,0-8.18,3.68-8.18,8.17v11.45h-45.79c-13.49,0-24.12,11.04-24.12,24.12v11.45c0,4.49,3.68,8.17,8.18,8.17s8.18-3.68,8.18-8.17v-11.45c0-4.5,3.68-8.17,8.18-8.17h46.19v11.44c0,4.5,3.68,8.18,8.18,8.18h19.21v19.62h-19.21c-4.5,0-8.18,3.68-8.18,8.18v168.83c0,4.49,3.68,8.17,8.18,8.17h87.07c4.5,0,8.18-3.68,8.18-8.17v-168.43c0-4.49-3.68-8.17-8.18-8.17Zm-16.43,77.6h-17.8v17.89h-19.16v-17.89h-17.9v-17.22h17.9v-17.7h19.16v17.7h17.8v17.22Z"/><path class="cls-1" d="m249.18,271.61l-44.03,13.98v3.5c-.7,12.58-9.79,23.06-22.02,25.86l-1.75.35c-16.43,3.5-33.55,5.94-50.33,6.64l-14.33.35c-2.1,0-4.19-.7-5.94-2.1-1.75-1.4-2.45-3.5-2.45-5.59s.7-4.19,2.1-5.94c1.4-1.75,3.5-2.45,5.59-2.45l14.33-.7c15.38-.7,30.75-2.45,45.78-5.94l2.8-.7c5.24-1.05,9.44-5.94,9.44-11.19,0-3.14-1.05-6.29-3.15-8.74-2.1-2.09-4.89-3.49-8.04-3.49l-71.29-2.1c-7.69-.35-15.38,2.1-22.02,6.64l-67.1,52.42c-4.19,3.5-4.54,9.79-.7,13.63l38.44,37.39c3.14,3.14,8.39,3.5,11.88.7l16.08-12.93c2.45-2.1,5.94-3.14,9.09-2.79l53.82,4.89c10.13,1.05,20.62-2.1,28.66-8.39l87.37-68.84c3.5-2.1,5.59-5.95,5.94-9.79h0c.35-4.19-1.05-7.69-3.84-10.83-3.5-3.84-9.44-5.24-14.33-3.84Z"/></svg>