<?xml version="1.0" encoding="UTF-8"?><svg id="ds44-icons" xmlns="http://www.w3.org/2000/svg" viewBox="0 0 438.22 480"><defs><style>.cls-1{fill-rule:evenodd;}</style></defs><path class="cls-1" d="m86.34,262.88c44.21-32.35,88.55-64.79,133.12-96.63,30.76-21.97,53.11,16.33,35.84,33.6-15.53,15.53-31.06,31.06-46.58,46.59-.43.43-.81,1-.92,1.61-1.82,9.96,39.79,2.98,42.62,2.4,42.84-8.75,85.81-16.72,128.72-25.06,39.57-7.7,41.41,32.16,9.52,40.7-17.76,4.76-36.52,8.31-54.57,11.94-20.17,4.05-42.65,7.56-62.38,12.85-12.94,3.47-11.72,15.66,6.82,14.04,22.54-1.97,45.21-3.53,67.79-5,21.78-1.41,48.29-3.97,69.91-2.94,24.96,1.19,25.08,41.27-4.4,40.83-21.13-.31-42.61.32-63.74.84-22.65.56-46.25.81-68.82,2.48-14.37,1.06-11.12,12.27-1.32,13.36,7.29.8,15.84.67,23.19.78,13.02.19,26.03.24,39.04.28,20.01.07,40.22-.17,60.21.32,24.44.6,28.08,41.59-3.8,42.16-42.34.76-85.18-3.47-127.41-3.47-11.09,0-12.72,12.91,1.82,14.44,33.47,3.52,67.23,5.54,100.64,9.42,25.99,3.02,24.2,48.01-13.71,42.51-67.76-9.82-136.46-17.63-204.45-26.11-15.96-1.99-30.13-6.07-45.17-11.55-35.37-12.87-57.73-20.33-96.48-22.26l-3.04-.15v-130.33l77.56-7.63h0ZM380.15,77.08H119.62V16.59h200.04c33.27,0,60.49,27.22,60.49,60.48h0Zm0,9.93h-106.46v53.81h106.46v-53.81Z"/><path d="m326.41,222.96c3.47.1,6.93-.53,10.14-1.86,3.21-1.33,6.1-3.33,8.48-5.86,2.32-2.77,4.03-5.99,5.02-9.47.99-3.47,1.24-7.12.72-10.69-1.61-14.34-21.47-42.02-22.31-43.2-.5-.62-1.25-.99-2.05-.99s-1.55.36-2.05.99c-.84,1.18-20.69,28.86-22.31,43.2-.51,3.57-.27,7.22.72,10.69.99,3.47,2.7,6.7,5.02,9.47,2.38,2.53,5.27,4.53,8.48,5.86,3.21,1.33,6.66,1.97,10.14,1.86h0Z"/></svg>