<?xml version="1.0" encoding="utf-8"?>
<!-- Generator: Adobe Illustrator 26.0.3, SVG Export Plug-In . SVG Version: 6.00 Build 0)  -->
<svg version="1.1" id="ds44-icons" xmlns="http://www.w3.org/2000/svg" xmlns:xlink="http://www.w3.org/1999/xlink" x="0px" y="0px"
	 viewBox="0 0 394 480" style="enable-background:new 0 0 394 480;" xml:space="preserve">
<g id="Groupe_1237">
	<path id="Tracé_745" d="M124.2,89.8c0-29.8-24.1-53.9-53.9-53.9S16.4,60,16.4,89.8c-0.1,23.5,15.4,44.2,37.9,50.9v48.7
		c-28.1,8.4-44.1,37.9-35.7,66c5.1,17.2,18.6,30.6,35.7,35.7v48.7c-28.2,9-43.9,39.1-34.9,67.3c9,28.2,39.1,43.9,67.3,34.9
		c22.1-7,37.1-27.4,37.4-50.5c0.1-23.5-15.4-44.2-38-50.9v-49.1c28.1-8.5,43.9-38.1,35.5-66.2c-5.2-17.2-18.7-30.5-35.9-35.6v-49.1
		C108.3,133.8,123.8,113.3,124.2,89.8z M47.9,89.8c0-12.4,10.1-22.5,22.5-22.5c12.4,0,22.5,10.1,22.5,22.5s-10.1,22.5-22.5,22.5l0,0
		C57.9,112.2,47.9,102.2,47.9,89.8z M92.8,391.5c0,12.4-10.1,22.5-22.5,22.5s-22.5-10.1-22.5-22.5c0-12.4,10.1-22.5,22.5-22.5
		C82.7,369.1,92.7,379.2,92.8,391.5L92.8,391.5z M92.8,240.7c0,12.4-10.1,22.5-22.5,22.5s-22.5-10.1-22.5-22.5
		c0-12.4,10.1-22.5,22.5-22.5c12.3-0.1,22.3,9.8,22.4,22.1C92.7,240.4,92.7,240.5,92.8,240.7L92.8,240.7z"/>
	<path id="Tracé_746" d="M175.5,105.3h187.9c8.6-0.3,15.3-7.5,15-16.1c-0.3-8.1-6.8-14.7-15-15H175.5c-8.6-0.3-15.8,6.4-16.1,15
		c-0.3,8.6,6.4,15.8,15,16.1C174.7,105.3,175.1,105.3,175.5,105.3z"/>
	<path id="Tracé_747" d="M363.4,225.1H175.5c-8.6,0-15.5,6.9-15.5,15.5c0,8.6,6.9,15.5,15.5,15.5h187.9c8.6,0,15.5-6.9,15.5-15.5
		C378.9,232.1,372,225.1,363.4,225.1z"/>
	<path id="Tracé_748" d="M363.4,376H175.5c-8.6,0-15.5,6.9-15.5,15.5c0,8.6,6.9,15.5,15.5,15.5h187.9c8.6,0,15.5-6.9,15.5-15.5
		C378.9,383,372,376,363.4,376z"/>
</g>
</svg>
