<?xml version="1.0" encoding="UTF-8"?><svg id="ds44-icons" xmlns="http://www.w3.org/2000/svg" viewBox="0 0 406.41 480"><defs><style>.cls-1{fill:#1d1d1b;}</style></defs><path class="cls-1" d="m329.9,133.48c-1.81-5.99-8.14-9.39-14.14-7.57l-68.91,21.03-.87-4.69,68.07-44.61c5.09-3.38,6.59-10.19,3.38-15.39-3.28-5.33-10.27-6.99-15.6-3.71l-.21.14-69.31,43.29-4.14-3.3,49.37-57.8c1.79-2.11,2.74-4.8,2.68-7.56-.13-6.26-5.31-11.23-11.57-11.1-3.07.07-5.97,1.37-8.07,3.6l-58.27,63.1-18.88,9.3-10.76.18-5.39-6.5,1.41-29.21c.02-.45.02-.9-.01-1.35l-1.82-25.79c-.43-5.9-5.31-10.48-11.22-10.52-6.26-.05-11.38,4.99-11.43,11.26l-.17,26.33-6.2,26.79c-.11.46-.18.92-.23,1.38l-3.41,32.73-23.52,61.5c-2.02,5.27.15,11.23,5.09,13.97l40.65,22.58c4.93,2.74,11.13,1.44,14.54-3.06l10.94-14.43,55.65-19.59,64.58,11.62c5.84,1.03,11.49-2.62,12.95-8.37,1.55-6.07-2.12-12.24-8.19-13.79l-58-14.54.28-6.35,73.58-25.54c5.74-2.01,8.87-8.17,7.11-13.99Z"/><path class="cls-1" d="m299.68,323.59l-83.79-18.91-17.49-11.69-5.53-9.23,2.94-7.91,26-13.38c.4-.21.78-.43,1.16-.69l21.42-14.47c3.15-2.14,5.02-5.73,4.96-9.54-.09-6.26-5.24-11.27-11.5-11.18-1.9.03-3.76.53-5.41,1.47l-22.9,13.03-26.29,8.02c-.45.14-.89.3-1.31.49l-30.06,13.42-65.01,10.39c-5.57.89-9.64,5.74-9.55,11.38l.77,46.5c.09,5.64,4.32,10.36,9.92,11.06l17.96,2.26,44.8,38.39,22.23,61.74c2.02,5.61,8.04,8.7,13.78,7.06,6.02-1.72,9.51-8,7.79-14.02l-16.41-57.49,5.64-2.93,58.91,50.95c4.6,3.96,11.5,3.59,15.65-.83,4.29-4.56,4.07-11.74-.49-16.03l-52.67-49.16,3.63-3.11,72.68,36.65c5.46,2.69,12.08.6,14.98-4.76,2.99-5.51.95-12.39-4.55-15.38l-.22-.12h-.02s-72.14-38.37-72.14-38.37l.79-5.22,74.75,13.85c5.96,1.08,11.71-2.71,13.07-8.62,1.41-6.11-2.41-12.2-8.51-13.61Z"/></svg>