<svg id="ds44-icons" xmlns="http://www.w3.org/2000/svg" viewBox="0 0 406.4 480"><path d="M385.3,118.38c-2.69-15.26-15.39-24.86-32.29-24.55a35.87,35.87,0,0,0-25.38,11.56A34.61,34.61,0,0,0,318.21,131c.3,5.31.71,10.66,1.17,15.94l-6.47-12.66c-15.42-30.14-31.36-61.32-47-92C259,28.7,247.42,22.5,232.37,24.33c-12.83,1.56-22.33,8.36-27.63,19.74-11.12-12.42-25.62-22.54-44.05-13.52-17.94,8.78-20.35,23-16.92,42.71-14.68-1.57-26.76,4.66-34.3,17.82-7.77,13.59-6.11,28.26,4.8,42.43l3.8,4.9A36.26,36.26,0,0,0,96.2,155.62,32.05,32.05,0,0,0,93.81,182c2.87,8.25,8.78,15.43,14.17,21.37,9,9.93,18.53,19.68,27.72,29.1q5.1,5.25,10.19,10.5l-8.21-1.6c-17.12-3.34-33.29-6.49-49.62-9.44-10.31-1.87-20.07.39-27.48,6.37-7.21,5.82-11.37,14.56-11.71,24.61-.2,5.91,1.29,11.55,2.73,17l.3,1.15c-20,1.87-33.81,7.57-37.25,25.66a44.73,44.73,0,0,0,1.35,21c3.47,11.12,12.36,16.38,21,19.69-10.33,11.09-12.72,24.08-6.87,38,8.62,20.47,26.65,22.72,42.29,22.38-4.43,10.91-3.74,22.37,2,31.8,6.07,10,16.77,15.92,29.37,16.32,1.46,0,2.94.07,4.45.07,5.8,0,12-.34,19.27-1.05,31.65-3.09,63.82-6.38,94.93-9.57L235.91,444q8-.83,16.08-1.61c15.22-1.51,31-3.07,46.43-5,19.54-2.45,30.82-13.21,34.49-32.9,1.66-9,2.92-16.24,4-22.92.82-5.33,1.67-10.65,2.51-16,2.85-18.05,5.8-36.71,8.07-55.18.62-5.12,1.38-6.09,4.06-7.26,18.18-7.9,28.74-22.48,31.4-43.33.83-6.52,2.25-13.18,3.63-19.62,1.16-5.44,2.37-11.08,3.24-16.73C395.58,186.11,390.77,149.38,385.3,118.38ZM108.73,414.09l14.21-1.7c9.05-1.07,18.4-2.19,27.6-3.36l2-.22c3.57-.34,7.62-.73,10.76-3.29a24.82,24.82,0,0,0,8-13.32c1.32-6-8.13-10.84-11.31-11.56-5.61-1.25-11.22-1-16.63-1.05-4.88,0-9.8-.06-14.68-.06h-25v.18l-6.39,0c-10.32,0-21,.05-31.46-.12a18.33,18.33,0,0,1-7.3-1.8c-2.16-1-4.48-2.91-3.16-8.26.6-2.46,1.84-4.74,6.71-4.79q23.16-.24,46.31-.55,18.12-.23,36.25-.43c9.09-.11,14.59-1.72,17.85-5.23a11.54,11.54,0,0,0,2.94-8.95c-.82-12.82-11.59-13.85-17.37-14.4-.79-.08-1.58-.15-2.34-.25-13.68-1.69-27.58-3.36-41-5-14.21-1.7-28.9-3.46-43.33-5.26a94.55,94.55,0,0,1-12.72-2.82l-.28-.08c-8.2-2.21-7.45-5.62-6.9-8.12.67-3.05,2.25-5.8,9.2-5.19,11.23,1,22.66,2.45,33.71,3.87l3,.38c14.35,1.85,28.94,3.79,43.05,5.66L149.52,321a19.41,19.41,0,0,0,2.11.19c5.49.15,9.88-1.25,12.7-4a11.26,11.26,0,0,0,3.33-8.38c0-5.3-4.64-13.18-10.31-15-9.94-3.23-20.17-5.87-30.06-8.43-5.08-1.31-10.34-2.67-15.47-4.08-9.59-2.65-19.79-5.53-29.7-8.95-6.7-2.31-6.67-5.7-5.63-9s2.19-5.21,9.32-3.78c38.17,7.64,77,15.24,114.55,22.58L221,286.13a106.86,106.86,0,0,0,11.13,1.69c11.82,1,17.52-4.82,20.22-9.91,4.35-8.2,3-17-3.55-23.4a193.78,193.78,0,0,0-20.15-16.72c-4-3-8.26-5.7-12.36-8.31-2.34-1.5-4.76-3-7.08-4.61-2.66-1.79-8.42-6.6-4.65-12.68,1.42-2.28,3-4.88,11.84.53,30.12,18.49,61.49,39,84.83,68.45,3.14,4,5.78,7.18,8.12,10,6.13,7.48,9.2,11.23,10.14,14.84s.14,8.64-1.48,18.59c-.48,2.95-1,6.32-1.62,10.19-2.53,16.66-5.37,33.57-8.11,49.92q-1.14,6.76-2.27,13.53c-1.45,8.73-3.39,10.67-11.53,11.56-30.44,3.31-61.42,6.47-91.38,9.53l-33.33,3.41-45.13,4.64-11.5,1.18-1,.1c-.72.08-1.4.16-2,.18-12.55.46-12.87-4.81-13-7.35C97.05,419.13,96.82,415.54,108.73,414.09Zm13.7-247.78a5.69,5.69,0,0,1,3.73-1.42c2.86,0,5.58,2.13,7.22,3.74,9.06,8.88,18.16,18,27,26.87l3.8,3.81c10.27,10.3,10.27,10.3,12.85,24A32.94,32.94,0,0,0,192,245.92c4.86,3.16,9.74,6.42,14.56,9.66-3.68-.72-7.37-1.48-11-2.32-.47-.11-1.82-.62-4.2-3.07-18.38-18.9-38-39.2-63.57-65.82a62,62,0,0,1-5.24-6.54C120.12,174.54,118.16,169.87,122.43,166.31Zm107.94,23.56L227.28,188c-7.3-4.38-12.65-6.33-17.9-6.33s-10.48,2-17.45,5.46q-5.7-7.22-11.38-14.37c-14.21-17.94-28.9-36.48-43.11-54.73a26.35,26.35,0,0,1-4.6-9.7,6,6,0,0,1,.56-4.57,3.65,3.65,0,0,1,2.5-1.61c3.64-.67,8.19.5,9.22,1.62,7.36,8,14.27,16.72,20.95,25.19q3.78,4.82,7.6,9.59,13.2,16.38,26.38,32.79c7.85,9.77,15.24,8.15,20.06,5.06,4.11-2.63,10-8.8,2.9-20.56Q212.89,139,202.7,122.08c-9-14.88-18.23-30.27-27.29-45.43a70.51,70.51,0,0,1-5.6-11.81c-2.35-6.39.64-7.93,2.25-8.75,1.4-.72,5.65-2.89,9.52,2.75,5.83,8.49,11.12,17.24,16.95,27,5.68,9.47,11.39,19.14,16.92,28.49,5.9,10,12,20.29,18.06,30.4,3.82,6.36,9,10.08,14.2,10.19a11.29,11.29,0,0,0,9.82-5.48c3-4.53,3.7-12.15,1.62-17.33-4.89-12.19-10.25-24.39-15.43-36.19-2.87-6.56-5.85-13.34-8.7-20a119.92,119.92,0,0,1-5.13-15c-1.58-5.68,1-7.52,4-8.66s5.46-1.51,8.4,4.26c16,31.49,32.36,63.47,48.17,94.4l16,31.28c5,9.71,12.35,20.48,25.53,17.64,10.54-2.26,16.67-12.59,16.4-27.63-.16-8.63-.82-17.32-1.46-25.73-.35-4.59-.7-9.33-1-14-.37-6.53,2-10.12,7.18-10.7,1.42-.16,3.35-.16,4.45.73s1.33,2.44,1.45,3.66c.57,6,1.3,12.12,2,18,1.79,14.95,3.64,30.41,3,45.31-.72,17-3.59,34.3-6.37,51.06-1.19,7.14-2.41,14.51-3.46,21.8-1.35,9.34-8.78,13-17.4,17.17l-.73.36a7,7,0,0,1-1.35-1.07c-7.27-8-15.77-17.53-23.77-27.16C288.54,224.72,259,207,230.37,189.87Z"/></svg>