<?xml version="1.0" encoding="UTF-8"?><svg id="ds44-icons" xmlns="http://www.w3.org/2000/svg" viewBox="0 0 309.29 480"><path d="m292,116.07c-1.97-6.53-8.87-10.23-15.41-8.25l-75.09,22.91-.95-5.12,74.18-48.61c5.55-3.69,7.18-11.1,3.68-16.77-3.58-5.81-11.19-7.62-17-4.04l-.22.15-75.53,47.17-4.51-3.6,53.8-62.98c1.95-2.3,2.98-5.23,2.92-8.24-.14-6.82-5.79-12.24-12.61-12.1-3.34.07-6.51,1.49-8.79,3.93l-63.49,68.76-20.57,10.13-11.72.19-5.87-7.09,1.54-31.83c.02-.49.02-.98-.01-1.47l-1.98-28.1c-.46-6.43-5.79-11.42-12.23-11.47-6.82-.05-12.4,5.44-12.45,12.26l-.18,28.69-6.76,29.19c-.12.5-.2,1-.25,1.51l-3.71,35.67-25.63,67.01c-2.2,5.75.17,12.23,5.54,15.22l44.3,24.6c5.38,2.98,12.13,1.56,15.84-3.34l11.92-15.73,60.65-21.35,70.37,12.66c6.37,1.12,12.52-2.86,14.11-9.12,1.68-6.61-2.31-13.34-8.93-15.02l-63.2-15.84.3-6.92,80.19-27.84c6.25-2.18,9.67-8.9,7.75-15.24Z"/><path d="m259.06,323.23l-91.3-20.6-19.06-12.74-6.03-10.06,3.21-8.62,28.33-14.58c.44-.23.85-.47,1.26-.75l23.35-15.77c3.44-2.34,5.47-6.24,5.41-10.4-.09-6.82-5.71-12.28-12.53-12.18-2.07.03-4.09.58-5.9,1.6l-24.95,14.19-28.65,8.74c-.49.15-.97.33-1.43.54l-32.76,14.62-70.84,11.32c-6.07.97-10.5,6.26-10.41,12.4l.84,50.67c.1,6.15,4.71,11.29,10.81,12.05l19.57,2.46,48.81,41.84,24.23,67.28c2.2,6.12,8.77,9.48,15.02,7.7,6.56-1.88,10.36-8.71,8.49-15.28l-17.88-62.65,6.14-3.19,64.2,55.52c5.01,4.31,12.53,3.91,17.05-.91,4.68-4.97,4.43-12.79-.54-17.47l-57.39-53.57,3.96-3.39,79.2,39.94c5.95,2.94,13.16.65,16.32-5.18,3.26-6,1.03-13.5-4.96-16.76l-.24-.13h-.02s-78.61-41.82-78.61-41.82l.86-5.69,81.45,15.09c6.49,1.18,12.77-2.96,14.24-9.39,1.53-6.66-2.62-13.3-9.27-14.83Z"/></svg>