<?xml version="1.0" encoding="utf-8"?>
<!-- Generator: Adobe Illustrator 25.3.1, SVG Export Plug-In . SVG Version: 6.00 Build 0)  -->
<svg version="1.1" id="ds44-icons" xmlns="http://www.w3.org/2000/svg" xmlns:xlink="http://www.w3.org/1999/xlink" x="0px" y="0px"
	 viewBox="0 0 406.4 480" style="enable-background:new 0 0 406.4 480;" xml:space="preserve">
<g>
	<path d="M8.9,117.5c8.5,12.4,24.4,35.4,66.5,35.4c38.3,0,54.9-19.1,64-31.8c9.1,12.8,25.7,31.8,64,31.8c38.3,0,54.9-19.1,64-31.8
		c9.1,12.8,25.7,31.8,64,31.8c42,0,57.9-23,66.5-35.4c0.7-1,1.4-2,2-2.9c5.8-8.1,4-19.3-4.1-25.1c-8.1-5.8-19.3-4-25.1,4.1
		c-0.8,1.1-1.6,2.3-2.5,3.5c-7,10.2-13.7,19.8-36.8,19.8c-23.1,0-29.8-9.6-36.8-19.8c-5.1-7.4-12.7-18.5-27.2-18.5
		s-22.1,11.1-27.2,18.5c-7,10.2-13.7,19.8-36.8,19.8c-23.1,0-29.8-9.6-36.8-19.8c-5.1-7.4-12.7-18.5-27.2-18.5s-22.1,11.1-27.2,18.5
		c-7,10.2-13.7,19.8-36.8,19.8c-23.1,0-29.8-9.6-36.8-19.8c-0.9-1.3-1.9-2.7-2.8-4c-5.9-8-17.1-9.8-25.2-3.9
		c-8,5.9-9.8,17.1-3.9,25.2C7.4,115.3,8.1,116.4,8.9,117.5z"/>
	<path d="M395.7,171.1c-8.1-5.8-19.3-4-25.1,4.1c-0.8,1.1-1.6,2.3-2.5,3.5c-7,10.2-13.7,19.8-36.8,19.8s-29.8-9.6-36.8-19.8
		c-5.1-7.4-12.7-18.5-27.2-18.5s-22.1,11.1-27.2,18.5c-7,10.2-13.7,19.8-36.8,19.8c-23.1,0-29.8-9.6-36.8-19.8
		c-5.1-7.4-12.7-18.5-27.2-18.5s-22.1,11.1-27.2,18.5c-7,10.2-13.7,19.8-36.8,19.8s-29.8-9.6-36.8-19.8c-0.9-1.3-1.9-2.7-2.8-4
		c-5.9-8-17.1-9.8-25.2-3.9c-8,5.9-9.8,17.1-3.9,25.2c0.7,1,1.5,2.1,2.2,3.2c8.5,12.4,24.4,35.4,66.5,35.4c38.3,0,54.9-19.1,64-31.8
		c9.1,12.8,25.7,31.8,64,31.8c38.3,0,54.9-19.1,64-31.8c9.1,12.8,25.7,31.8,64,31.8c42,0,57.9-23,66.5-35.4c0.7-1,1.4-2,2-2.9
		C405.6,188.1,403.8,176.9,395.7,171.1z"/>
	<path d="M216.1,252.1c-0.1-0.2-0.3-0.3-0.4-0.4l-12.5-12.5l-12.5,12.5c-0.2,0.1-0.3,0.3-0.5,0.5l-38.1,38.1c-7,7-7,18.4,0,25.5
		c7,7,18.4,7,25.5,0l7.5-7.5l0,75.3c0,9.9,8.1,18,18,18c9.9,0,18-8.1,18-18l0-75.3l7.5,7.5c3.5,3.5,8.1,5.3,12.7,5.3
		s9.2-1.8,12.7-5.3c7-7,7-18.4,0-25.5L216.1,252.1z"/>
</g>
</svg>
