<?xml version="1.0" encoding="UTF-8"?><svg id="ds44-icons" xmlns="http://www.w3.org/2000/svg" viewBox="0 0 321.01 384.56"><path d="m306.59,213.72c1.77-23.08,1.81-46.27.13-69.36-.25-3.51,1.11-6.94,3.71-9.3,5.65-4.85,8.98-11.86,9.19-19.3,1.74-25.22-72.39-102.99-135.51-112.01C113.87-4.39,90.29,28.87,83.4,43.56c-1.92,4.01-5.26,7.17-9.37,8.87C29.37,71.4,2,123.99,1.98,146.29c0,9.28,4.43,12.56,7.08,13.69,2.29.97,2.28,11.51,2.28,19.19-.34,11.66.58,23.31,2.75,34.77-12.33,8.24-16.56,24.77-10.71,43.48,4.33,12.16,13.23,22.15,24.82,27.83,4.98,2.53,10.47,3.9,16.05,3.99,1.32,0,2.64-.1,3.95-.29,3.21,10.47,7.89,20.42,13.9,29.57,1.02,2.88,2.32,5.67,3.87,8.31,15.87,26.68,57.64,55.25,94.55,55.25s78.67-28.57,94.55-55.25c1.57-2.67,2.87-5.48,3.9-8.4,5.99-9.12,10.66-19.05,13.87-29.48,1.31.19,2.63.29,3.95.29,5.58-.09,11.07-1.46,16.05-3.99,11.58-5.68,20.49-15.66,24.82-27.82,5.89-18.88,1.52-35.55-11.06-43.71Zm-273.77,62.14c-9-4.42-15.97-12.13-19.44-21.54-4.76-15.24-1.25-28.21,8.94-33.07,5.62-2.72,12.07-3.18,18.01-1.27,0,4.51,0,9.91.18,16.02-3.82-1.88-8.04-2.8-12.3-2.65-2.88.24-5.02,2.77-4.78,5.66.24,2.88,2.77,5.02,5.66,4.78,4.75.1,9.22,2.29,12.21,5.99.8,9.73,2.24,19.41,4.28,28.96-4.43.19-8.84-.8-12.77-2.87Zm26.31,12.94c-1-2.99-1.89-6.09-2.65-9.31-3.12-13.72-4.93-27.71-5.43-41.77,5.28,7.99,11.01,15.66,17.18,22.99-4.86,8.67-7.96,18.21-9.11,28.08h.01Zm186.93,32.69c-14.11,23.72-52.7,50.13-85.54,50.13s-71.43-26.42-85.54-50.13c-9.2-15.47-7.45-40.61,4.06-58.49,14.02-21.76,57.08-33.79,81.48-33.79s67.46,12.03,81.48,33.79c11.5,17.87,13.25,43.01,4.05,58.49h.01Zm18.49-41.99c-.74,3.19-1.66,6.22-2.66,9.18-1.17-9.82-4.25-19.32-9.09-27.95,6.16-7.33,11.9-15,17.18-22.99-.49,14.06-2.31,28.04-5.43,41.76Zm-18-27.65c-18.99-21.63-60.7-33.1-86.04-33.1s-67.05,11.48-86.04,33.1c-6.28-7.68-18.17-23.11-23.63-36.16,1.43-46.38,20.93-104.88,60.7-124.87h0c2.29-1.17,4.43-2.61,6.37-4.29,9.65-8.18,23.55-11.75,38.35-11.75,20.91.01,41.33,6.41,58.51,18.32,39.07,29.2,54.23,84.1,55.41,122.6-5.47,13.02-17.35,28.46-23.64,36.14h0Zm61.1,2.48c-3.48,9.41-10.44,17.12-19.44,21.54-3.93,2.06-8.34,3.04-12.77,2.85,2.05-9.55,3.48-19.22,4.28-28.96,2.98-3.74,7.48-5.93,12.26-5.98,2.88.23,5.4-1.92,5.63-4.8.23-2.88-1.92-5.4-4.8-5.63-4.26-.14-8.48.77-12.3,2.65.2-6.12.2-11.51.18-16.03,5.95-1.91,12.4-1.45,18.02,1.27,10.19,4.87,13.7,17.83,8.93,33.07h0Z"/><path d="m246.26,167.3c-14.31-7.76-31.16-9.38-46.69-4.49-3.19,1.14-5.03,4.48-4.29,7.79h0c.72,3.47,4.01,5.79,7.52,5.31,8.21-1.13,22.89-2.54,33.32-.02,7.81,1.88,10.99.04,12.21-2.21,1.12-2.34.21-5.15-2.08-6.38Z"/><rect x="207.92" y="199.95" width="21.72" height="28.36" rx="10.86" ry="10.86"/><path d="m75.38,167.3c14.31-7.76,31.16-9.38,46.68-4.49,3.19,1.14,5.03,4.48,4.29,7.79h0c-.72,3.47-4.01,5.79-7.52,5.31-8.21-1.13-22.89-2.54-33.33-.02-7.81,1.88-10.98.04-12.21-2.21-1.12-2.34-.2-5.15,2.08-6.38Z"/><rect x="91.99" y="199.95" width="21.72" height="28.36" rx="10.86" ry="10.86"/><path d="m237.79,208.05c-1.29,0-2.53-.47-3.49-1.33-7.58-5.95-17.92-6.96-26.51-2.6-2.52,1.42-5.71.53-7.13-1.98-1.42-2.52-.53-5.71,1.98-7.13,12.5-6.59,27.73-5.05,38.65,3.91,2.15,1.93,2.33,5.24.4,7.39-.99,1.11-2.41,1.74-3.89,1.74h-.01Z"/><path d="m83.21,208.05c-2.89,0-5.23-2.35-5.23-5.24,0-1.49.63-2.9,1.74-3.89,10.93-8.96,26.16-10.51,38.66-3.91,2.52,1.42,3.41,4.62,1.99,7.14-1.42,2.52-4.62,3.41-7.14,1.99-8.59-4.37-18.93-3.35-26.51,2.6-.96.86-2.21,1.32-3.5,1.32Z"/><path d="m90.93,276.65c-2.89,0-5.24-2.33-5.25-5.22,0-1.5.64-2.93,1.76-3.93,20.55-17.22,46.27-27.07,73.06-27.98,26.79.92,52.5,10.77,73.04,27.98,2.16,1.92,2.36,5.22.44,7.39s-5.22,2.36-7.39.44c-18.65-15.48-41.88-24.39-66.1-25.35-24.22.96-47.45,9.87-66.1,25.35-.96.85-2.19,1.32-3.47,1.32Z"/></svg>