<?xml version="1.0" encoding="UTF-8"?><svg id="ds44-icons" xmlns="http://www.w3.org/2000/svg" xmlns:xlink="http://www.w3.org/1999/xlink" viewBox="0 0 370.56 286.31"><defs><style>.cls-1{fill:none;}.cls-2{clip-path:url(#clippath);}</style><clipPath id="clippath"><rect class="cls-1" width="370.47" height="286.22"/></clipPath></defs><g class="cls-2"><path d="m202.14,159.97h-33.63v33.72h33.63v-33.72Z"/><path d="m8.45,286.22h353.66c4.62,0,8.45-3.83,8.45-8.45V109.44c0-.7-.18-1.39-.35-2.09-.43-2.7-2.7-4.62-5.05-5.84l-1.57-.61H8.36c-4.62,0-8.36,3.83-8.36,8.45v50.54c0,4.62,3.75,8.45,8.45,8.45,13.85,0,25.27,11.41,25.27,25.27s-11.33,25.27-25.27,25.27c-4.62,0-8.45,3.75-8.45,8.45v50.54c0,4.62,3.75,8.45,8.45,8.45m235.86-134.61h67.35c4.62,0,8.45,3.75,8.45,8.45s-3.83,8.45-8.45,8.45h-67.35c-4.62,0-8.45-3.75-8.45-8.45s3.75-8.45,8.45-8.45Zm0,33.72h50.54c4.62,0,8.45,3.75,8.45,8.45s-3.75,8.45-8.45,8.45h-50.54c-4.62,0-8.45-3.83-8.45-8.45s3.75-8.45,8.45-8.45Zm-92.62-33.72c0-4.62,3.75-8.45,8.45-8.45h50.53c4.62,0,8.45,3.75,8.45,8.45v50.53c0,4.62-3.75,8.45-8.45,8.45h-50.53c-4.62,0-8.45-3.84-8.45-8.45v-50.53Zm-50.53-16.82c0-4.62,3.75-8.45,8.45-8.45s8.45,3.83,8.45,8.45v16.82c0,4.62-3.75,8.45-8.45,8.45s-8.45-3.83-8.45-8.45v-16.82Zm0,50.53c0-4.62,3.75-8.45,8.45-8.45s8.45,3.75,8.45,8.45v16.82c0,4.62-3.75,8.45-8.45,8.45s-8.45-3.84-8.45-8.45v-16.82Zm0,50.53c0-4.62,3.75-8.45,8.45-8.45s8.45,3.83,8.45,8.45v16.82c0,4.62-3.75,8.45-8.45,8.45s-8.45-3.75-8.45-8.45v-16.82Z"/><path d="m73.45,63.52c9.06,3.14,14.9,11.59,16.03,20.65h229.41L97.24.53c-4.36-1.57-9.15.61-10.89,4.88l-17.86,47.22c-1.66,4.18.7,9.32,4.88,10.89"/></g></svg>