<?xml version="1.0" encoding="utf-8"?>
<!-- Generator: Adobe Illustrator 27.5.0, SVG Export Plug-In . SVG Version: 6.00 Build 0)  -->
<svg version="1.1" id="ds44-icons" xmlns="http://www.w3.org/2000/svg" xmlns:xlink="http://www.w3.org/1999/xlink" x="0px" y="0px"
	 viewBox="0 0 370.6 286.3" style="enable-background:new 0 0 370.6 286.3;" xml:space="preserve">
<g>
	<path d="M202.1,160h-33.6v33.7h33.6V160z"/>
	<path d="M8.4,286.2h353.7c4.6,0,8.5-3.8,8.5-8.5V109.4c0-0.7-0.2-1.4-0.4-2.1c-0.4-2.7-2.7-4.6-5-5.8l-1.6-0.6H8.4
		c-4.6,0-8.4,3.8-8.4,8.4v50.5c0,4.6,3.8,8.4,8.4,8.4c13.8,0,25.3,11.4,25.3,25.3s-11.3,25.3-25.3,25.3c-4.6,0-8.4,3.8-8.4,8.4v50.5
		c0,4.6,3.8,8.5,8.4,8.5 M244.3,151.7h67.4c4.6,0,8.5,3.8,8.5,8.4s-3.8,8.4-8.5,8.4h-67.4c-4.6,0-8.4-3.8-8.4-8.4
		S239.6,151.7,244.3,151.7z M244.3,185.4h50.5c4.6,0,8.5,3.8,8.5,8.4s-3.8,8.4-8.5,8.4h-50.5c-4.6,0-8.4-3.8-8.4-8.4
		S239.6,185.4,244.3,185.4z M151.7,151.7c0-4.6,3.8-8.4,8.4-8.4h50.5c4.6,0,8.4,3.8,8.4,8.4v50.5c0,4.6-3.8,8.4-8.4,8.4h-50.5
		c-4.6,0-8.4-3.8-8.4-8.4V151.7z M101.2,134.9c0-4.6,3.8-8.4,8.4-8.4s8.4,3.8,8.4,8.4v16.8c0,4.6-3.8,8.4-8.4,8.4s-8.4-3.8-8.4-8.4
		V134.9z M101.2,185.4c0-4.6,3.8-8.4,8.4-8.4s8.4,3.8,8.4,8.4v16.8c0,4.6-3.8,8.4-8.4,8.4s-8.4-3.8-8.4-8.4V185.4z M101.2,236
		c0-4.6,3.8-8.4,8.4-8.4s8.4,3.8,8.4,8.4v16.8c0,4.6-3.8,8.5-8.4,8.5s-8.4-3.8-8.4-8.5V236L101.2,236z"/>
	<path d="M73.4,63.5c9.1,3.1,14.9,11.6,16,20.6h229.4L97.2,0.5C92.9-1,88.1,1.1,86.3,5.4L68.5,52.6C66.8,56.8,69.2,61.9,73.4,63.5"
		/>
</g>
</svg>
