<?xml version="1.0" encoding="utf-8"?>
<!-- Generator: Adobe Illustrator 27.5.0, SVG Export Plug-In . SVG Version: 6.00 Build 0)  -->
<svg version="1.1" id="ds44-icons" xmlns="http://www.w3.org/2000/svg" xmlns:xlink="http://www.w3.org/1999/xlink" x="0px" y="0px"
	 viewBox="0 0 392.4 480" style="enable-background:new 0 0 392.4 480;" xml:space="preserve">
<path d="M213.6,258.1h-35.2v35.3h35.2V258.1z"/>
<path d="M10.8,390.2h370.3c4.8,0,8.9-4,8.9-8.9V205.1c0-0.7-0.2-1.5-0.4-2.2c-0.4-2.8-2.8-4.8-5.2-6.1l-1.7-0.6H10.8
	c-4.8,0-8.8,4-8.8,8.8v52.9c0,4.8,4,8.8,8.8,8.8c14.5,0,26.5,11.9,26.5,26.5s-11.8,26.5-26.5,26.5c-4.8,0-8.8,4-8.8,8.8v52.9
	C2,386.1,6,390.2,10.8,390.2 M257.8,249.4h70.6c4.8,0,8.9,4,8.9,8.8c0,4.8-4,8.8-8.9,8.8h-70.6c-4.8,0-8.8-4-8.8-8.8
	C249,253.4,252.9,249.4,257.8,249.4L257.8,249.4z M257.8,284.7h52.9c4.8,0,8.9,4,8.9,8.8s-4,8.8-8.9,8.8h-52.9c-4.8,0-8.8-4-8.8-8.8
	S252.9,284.7,257.8,284.7z M160.8,249.4c0-4.8,4-8.8,8.8-8.8h52.9c4.8,0,8.8,4,8.8,8.8v52.9c0,4.8-4,8.8-8.8,8.8h-52.9
	c-4.8,0-8.8-4-8.8-8.8V249.4z M107.9,231.8c0-4.8,4-8.8,8.8-8.8c4.8,0,8.8,4,8.8,8.8v17.6c0,4.8-4,8.8-8.8,8.8s-8.8-4-8.8-8.8V231.8
	L107.9,231.8z M107.9,284.7c0-4.8,4-8.8,8.8-8.8c4.8,0,8.8,4,8.8,8.8v17.6c0,4.8-4,8.8-8.8,8.8s-8.8-4-8.8-8.8V284.7z M107.9,337.6
	c0-4.8,4-8.8,8.8-8.8c4.8,0,8.8,4,8.8,8.8v17.6c0,4.8-4,8.9-8.8,8.9s-8.8-4-8.8-8.9V337.6L107.9,337.6z"/>
<path d="M78.8,157c9.5,3.2,15.6,12.1,16.8,21.6h240.2l-232-87.5c-4.5-1.6-9.5,0.6-11.4,5.1l-18.6,49.4C71.9,150,74.4,155.4,78.8,157
	"/>
</svg>
