<svg id="ds44-icons" xmlns="http://www.w3.org/2000/svg" width="565" height="480" viewBox="0 0 565 480"><path d="M184.05023,278.11512a100.12891,100.12891,0,1,1,100.12988-100.1289A100.24147,100.24147,0,0,1,184.05023,278.11512Zm0-165.86523a65.73633,65.73633,0,1,0,65.7373,65.73633A65.81086,65.81086,0,0,0,184.05023,112.24989Z"/><path d="M184.05023,70.663a17.19652,17.19652,0,0,1-17.19629-17.19629V21.55946a17.19629,17.19629,0,1,1,34.39258,0V53.46669A17.19652,17.19652,0,0,1,184.05023,70.663Z"/><path d="M272.09905,107.13368A17.19629,17.19629,0,0,1,259.9389,77.77723l22.56152-22.56152A17.19706,17.19706,0,0,1,306.82073,79.536l-22.56152,22.56153A17.14494,17.14494,0,0,1,272.09905,107.13368Z"/><path d="M340.477,195.18251H308.56976a17.19629,17.19629,0,1,1,0-34.39258H340.477a17.19629,17.19629,0,0,1,0,34.39258Z"/><path d="M73.44085,305.79286A17.19628,17.19628,0,0,1,61.2807,276.43739l22.56152-22.5625a17.19637,17.19637,0,1,1,24.32031,24.31836L85.601,300.75575A17.1402,17.1402,0,0,1,73.44085,305.79286Z"/><path d="M59.5307,195.18251H27.62445a17.19629,17.19629,0,1,1,0-34.39258H59.5307a17.19629,17.19629,0,0,1,0,34.39258Z"/><path d="M96.00238,107.13368a17.14494,17.14494,0,0,1-12.16016-5.03613L61.2807,79.536A17.19706,17.19706,0,0,1,85.601,55.21571l22.56152,22.56152a17.19629,17.19629,0,0,1-12.16015,29.35645Z"/><path d="M512.63226,477.036c-.05469,0-.11035,0-.165-.001l-.57031-.00489H220.72405a83.10482,83.10482,0,0,1-65.93261-32.15429c-.05176-.06641-.10352-.13379-.1543-.2002a87.869,87.869,0,0,1-15.27246-74.94922,84.99432,84.99432,0,0,1,85.67578-64.79785,119.03131,119.03131,0,0,1,102.0293-57.60937,117.73894,117.73894,0,0,1,71.84375,24.19238,83.387,83.387,0,0,1,33.18945-7.21387c.07422-.00195.14746-.001.22363-.001,22.18067.10352,44.74219,11.18262,60.35157,29.63672,10.252,12.12012,16.40039,26.05664,18.06152,40.501A65.94029,65.94029,0,0,1,536.016,347.62977c9.59179,8.09278,21.43261,22.81836,23.36816,47.02051,1.64551,20.56152-2.22266,49.4248-18.01562,68.76465A36.97916,36.97916,0,0,1,512.63226,477.036Zm-328.792-54.6709a46.58584,46.58584,0,0,0,36.88378,17.915H511.98089c.05469,0,.11035,0,.165.001l.5127.00391a.30107.30107,0,0,0,.25488-.126c7.09863-8.69336,11.14746-26.207,9.83789-42.57813-.74317-9.29394-4.25293-16.64843-10.43262-21.86132-6.5-5.48536-14.04883-6.96094-18.54394-6.55762a18.37463,18.37463,0,0,1-19.77442-21.26465c2.28028-13.958-4.89844-24.93164-9.38086-30.23047-8.46875-10.01172-21.1582-16.52637-32.3584-16.61914a46.35586,46.35586,0,0,0-19.39746,4.49805l-8.41015,4.02051a18.37277,18.37277,0,0,1-19.28125-2.13282l-7.3291-5.76172A82.25867,82.25867,0,0,0,262.31585,315.497a82.53351,82.53351,0,0,0-6.52246,9.624l-4.63672,8.00489a18.3936,18.3936,0,0,1-16.98828,9.13378l-9.2334-.54785c-.96972-.05761-1.94824-.08691-2.91211-.08691a48.345,48.345,0,0,0-46.98633,36.9375c-.00976.03711-.01855.07422-.02832.11133A51.30412,51.30412,0,0,0,183.84027,422.36512Z"/></svg>