<svg id="ds44-icons" xmlns="http://www.w3.org/2000/svg" viewBox="0 0 450 480"><defs><style>.cls-1{fill:none;}</style></defs><path class="cls-1" d="M370.22,128.16a18.38,18.38,0,0,1-19.78-21.26c2.28-14-4.9-24.94-9.38-30.23-8.47-10-21.16-16.53-32.36-16.62a46.37,46.37,0,0,0-19.4,4.49l-8.41,4a18.39,18.39,0,0,1-19.28-2.14l-7.33-5.76a82.33,82.33,0,0,0-122,23.45l-4.63,8a18.38,18.38,0,0,1-17,9.14l-9.24-.55q-1.45-.09-2.91-.09a48.34,48.34,0,0,0-47,36.94l0,.11a51.31,51.31,0,0,0,8.83,43.69,46.58,46.58,0,0,0,36.88,17.92h269.5c7,0,19.9-1.26,27.15-9.63,5.77-6.67,7.62-17.4,5.51-31.9C396.14,135.83,380.35,127.23,370.22,128.16Z"/><path d="M435.69,152.47c-3.59-24.74-16-39.3-25.76-47.16a63.9,63.9,0,0,0-22.74-11.78c-1.64-14.48-7.8-28.45-18.07-40.6C353.51,34.48,331,23.4,308.77,23.3a1.77,1.77,0,0,0-.23,0,83.32,83.32,0,0,0-33.19,7.21A119,119,0,0,0,109.86,51.78a120.72,120.72,0,0,0-8.38,12.15,85,85,0,0,0-85.68,64.8,87.85,87.85,0,0,0,15.28,74.94l.15.2A83.09,83.09,0,0,0,97.16,236h269.5c23,0,42.48-7.94,54.94-22.34C437.87,194.9,438.24,170,435.69,152.47Zm-41.88,37.19c-7.25,8.37-20.12,9.63-27.15,9.63H97.16a46.58,46.58,0,0,1-36.88-17.92,51.31,51.31,0,0,1-8.83-43.69l0-.11a48.34,48.34,0,0,1,47-36.94q1.46,0,2.91.09l9.24.55a18.38,18.38,0,0,0,17-9.14l4.63-8A82.27,82.27,0,0,1,254.28,60.67l7.33,5.76a18.39,18.39,0,0,0,19.28,2.14l8.41-4a46.37,46.37,0,0,1,19.4-4.49c11.2.09,23.89,6.6,32.36,16.62,4.48,5.29,11.66,16.27,9.38,30.23a18.38,18.38,0,0,0,19.78,21.26c10.13-.93,25.92,7.67,29.1,29.6C401.43,172.26,399.58,183,393.81,189.66Z"/><path d="M181.37,344.75H167.63V271.48a17.48,17.48,0,0,0-34-5.68l-31.21,90.74a17.47,17.47,0,0,0,16.52,23.15h13.74V453a17.48,17.48,0,0,0,14.59,17.23,17.82,17.82,0,0,0,2.9.24,17.47,17.47,0,0,0,16.51-11.79l31.22-90.73a17.47,17.47,0,0,0-16.53-23.16Z"/><path d="M333.85,344.75H320.1V271.48a17.47,17.47,0,0,0-34-5.68l-31.22,90.74a17.47,17.47,0,0,0,16.52,23.15h13.75V453a17.48,17.48,0,0,0,14.59,17.23,17.7,17.7,0,0,0,2.89.24,17.46,17.46,0,0,0,16.51-11.79l31.22-90.73a17.47,17.47,0,0,0-16.52-23.16Z"/></svg>