<svg version="1.1" baseProfile="tiny" id="ds44-icons"
	 xmlns="http://www.w3.org/2000/svg" x="0px" y="0px" viewBox="0 0 450 480"
	 overflow="visible" xml:space="preserve">
<path fill="none" d="M370.2,128.2c-10.1,0.9-19-6.6-19.9-16.7c-0.1-1.5-0.1-3.1,0.2-4.6c2.3-14-4.9-24.9-9.4-30.2
	c-8.5-10-21.2-16.5-32.4-16.6c-6.7,0.1-13.3,1.6-19.4,4.5l-8.4,4c-6.3,3-13.8,2.2-19.3-2.1l-7.3-5.8c-35.8-28.1-87.5-21.8-115.6,14
	c-2.4,3-4.5,6.2-6.4,9.5l-4.6,8c-3.5,6-10.1,9.6-17,9.1l-9.2-0.6c-1-0.1-1.9-0.1-2.9-0.1c-22.3,0-41.7,15.3-47,36.9v0.1
	c-3.9,15.1-0.6,31.2,8.8,43.7c8.9,11.4,22.5,18,36.9,17.9h269.5c7,0,19.9-1.3,27.1-9.6c5.8-6.7,7.6-17.4,5.5-31.9
	C396.1,135.8,380.4,127.2,370.2,128.2z"/>
<path d="M435.7,152.5c-3.6-24.7-16-39.3-25.8-47.2c-6.7-5.4-14.4-9.4-22.7-11.8c-1.6-14.5-7.8-28.4-18.1-40.6
	c-15.6-18.5-38.1-29.5-60.4-29.6c-0.1,0-0.2,0-0.2,0c-11.4,0.1-22.7,2.6-33.2,7.2C223.6-8.7,150,0.7,109.9,51.8
	c-3,3.9-5.8,7.9-8.4,12.2c-40.3-1.5-76.1,25.6-85.7,64.8c-6.6,26-1,53.6,15.3,74.9l0.1,0.2C47,224.2,71.4,236.1,97.2,236h269.5
	c23,0,42.5-7.9,54.9-22.3C437.9,194.9,438.2,170,435.7,152.5z M393.8,189.7c-7.2,8.4-20.1,9.6-27.1,9.6H97.2
	c-14.4,0-28-6.6-36.9-17.9c-9.4-12.5-12.7-28.5-8.8-43.7v-0.1c5.3-21.7,24.7-37,47-36.9c1,0,1.9,0,2.9,0.1l9.2,0.6
	c6.9,0.4,13.5-3.1,17-9.1l4.6-8c22.8-39.3,73.1-52.7,112.4-30c3.4,1.9,6.6,4.1,9.6,6.5l7.3,5.8c5.5,4.3,13,5.1,19.3,2.1l8.4-4
	c6.1-2.9,12.7-4.4,19.4-4.5c11.2,0.1,23.9,6.6,32.4,16.6c4.5,5.3,11.7,16.3,9.4,30.2c-1.6,10,5.2,19.5,15.2,21.1
	c1.5,0.2,3.1,0.3,4.6,0.2c10.1-0.9,25.9,7.7,29.1,29.6C401.4,172.3,399.6,183,393.8,189.7z"/>
<path d="M181.4,344.8h-13.7v-73.3c0-9.7-7.9-17.5-17.5-17.4c-7.4,0-14.1,4.7-16.5,11.8l-31.2,90.7c-3.1,9.1,1.7,19.1,10.8,22.2
	c1.8,0.6,3.7,0.9,5.7,0.9h13.7V453c0,8.5,6.2,15.8,14.6,17.2c1,0.2,1.9,0.2,2.9,0.2c7.5,0,14.1-4.7,16.5-11.8l31.2-90.7
	c3.1-9.1-1.7-19.1-10.8-22.2C185.2,345.1,183.3,344.8,181.4,344.8L181.4,344.8z"/>
<path d="M333.9,344.8h-13.8v-73.3c0-9.6-7.8-17.5-17.4-17.5c-7.5,0-14.1,4.7-16.6,11.8l-31.2,90.7c-3.1,9.1,1.7,19.1,10.8,22.2
	c1.8,0.6,3.7,0.9,5.7,0.9h13.8V453c0,8.5,6.2,15.8,14.6,17.2c1,0.2,1.9,0.2,2.9,0.2c7.5,0,14.1-4.7,16.5-11.8l31.2-90.7
	c3.1-9.1-1.7-19.1-10.8-22.2C337.7,345.1,335.8,344.8,333.9,344.8L333.9,344.8z"/>
</svg>
