<?xml version="1.0" encoding="UTF-8"?><svg id="Capa_1" xmlns="http://www.w3.org/2000/svg" viewBox="0 0 294 512"><defs><style>.cls-1{fill:#181716;}</style></defs><g id="Calque_9"><path class="cls-1" d="m14.82,34.24v443.3c0,8.96,7.39,16.35,16.35,16.35h231.67c8.96,0,16.35-7.39,16.35-16.35V34.24c0-8.96-7.39-16.35-16.35-16.35H31.16c-8.96,0-16.35,7.39-16.35,16.35Zm135.38,448.57c-11.09,2.13-20.6-7.39-18.48-18.48,1.01-6.38,6.38-11.09,12.65-12.65,11.09-2.13,20.6,7.39,18.48,18.48-1.57,6.83-6.38,11.65-12.65,12.65Zm92.71-50.61H51.21c-3.02,0-5.04-2.02-5.04-5.04V73.99c0-2.58,2.58-5.04,5.04-5.04h191.81c3.02,0,5.04,2.02,5.04,5.04v353.28c0,3.02-2.58,5.04-5.04,5.04l-.11-.11ZM109.99,41.74c0,4.26-3.7,7.95-7.95,7.95s-7.95-3.7-7.95-7.95,3.7-7.95,7.95-7.95,7.95,3.7,7.95,7.95Zm95.18,0h0c0,4.26-3.7,7.95-7.95,7.95h-68.75c-4.26,0-7.95-3.7-7.95-7.95h0c0-4.25,3.7-7.95,7.95-7.95h68.75c4.25,0,7.95,3.7,7.95,7.95Z"/></g></svg>