<?xml version="1.0" encoding="utf-8"?>
<!-- Generator: Adobe Illustrator 27.5.0, SVG Export Plug-In . SVG Version: 6.00 Build 0)  -->
<svg version="1.1" id="Capa_1" xmlns="http://www.w3.org/2000/svg" xmlns:xlink="http://www.w3.org/1999/xlink" x="0px" y="0px"
	 viewBox="0 0 270 480" style="enable-background:new 0 0 270 480;" xml:space="preserve">
<style type="text/css">
	.st0{fill:#181716;}
</style>
<g id="Calque_9">
	<path class="st0" d="M2.8,18.2v443.3c0,9,7.4,16.4,16.4,16.4h231.7c9,0,16.4-7.4,16.4-16.4V18.2c0-9-7.4-16.4-16.4-16.4H19.2
		C10.2,1.9,2.8,9.3,2.8,18.2L2.8,18.2z M138.2,466.8c-11.1,2.1-20.6-7.4-18.5-18.5c1-6.4,6.4-11.1,12.6-12.6
		c11.1-2.1,20.6,7.4,18.5,18.5C149.3,461,144.5,465.8,138.2,466.8z M230.9,416.2H39.2c-3,0-5-2-5-5V58c0-2.6,2.6-5,5-5H231
		c3,0,5,2,5,5v353.3c0,3-2.6,5-5,5L230.9,416.2L230.9,416.2z M98,25.7c0,4.3-3.7,8-7.9,8s-7.9-3.7-7.9-8s3.7-8,7.9-8
		S98,21.5,98,25.7z M193.2,25.7L193.2,25.7c0,4.3-3.7,8-7.9,8h-68.8c-4.3,0-7.9-3.7-7.9-8l0,0c0-4.2,3.7-8,7.9-8h68.8
		C189.5,17.8,193.2,21.5,193.2,25.7z"/>
</g>
</svg>
