<?xml version="1.0" encoding="utf-8"?>
<!-- Generator: Adobe Illustrator 27.5.0, SVG Export Plug-In . SVG Version: 6.00 Build 0)  -->
<svg version="1.1" id="Capa_1" xmlns="http://www.w3.org/2000/svg" xmlns:xlink="http://www.w3.org/1999/xlink" x="0px" y="0px"
	 viewBox="0 0 476.7 372" style="enable-background:new 0 0 476.7 372;" xml:space="preserve">
<style type="text/css">
	.st0{fill:#181716;}
</style>
<g id="Calque_9">
	<path class="st0" d="M420.5,102c-33.9-3.9-52.5-24.2-57.6-46.3H114.4c-2.7,11.8-9.2,22.3-18.8,30.4c-10.3,8.7-23.9,14.1-39.4,15.9
		v70.6c30.8,3.7,52.6,21.1,58.3,46.2l126.5-0.3c18.5-16,57.4-24.3,96-24.3c12.2,0,24.4,0.8,36.1,2.4c10.7-13.2,27.3-21.8,47.5-24.1
		v-70.6L420.5,102L420.5,102z M266.5,122.1l-4.4,11.3h-31.2c-0.1,1.8-0.2,3.3-0.2,4.7c0,0.6,0.1,2.1,0.2,4.7h27.9L254,154h-20.9
		c2.4,9.4,8.3,14.2,18.1,14.2c6.5,0,13.3-2.7,20.4-8.1v20.5c-6.1,3.3-13.2,5.1-21.3,5.1c-11.1,0-20-3.3-26.9-10.1
		c-5.9-5.8-9.6-12.9-11.2-21.5h-11.8l4.4-11.3h5.9v-2.1c-0.1-0.9-0.1-1.9-0.1-2.8c0-1.8,0.1-3.2,0.2-4.4h-10.4l4.4-11.3h7.6
		c2.2-9.2,6.6-16.6,12.6-22.1c7.1-6.2,16-9.3,26.7-9.3c7.5,0,15.8,2.2,24.4,6.7l-6.8,17.9c-6.9-4.4-13.2-6.6-18.8-6.6
		c-8.4,0-14.2,4.6-17.5,13.4h33.4L266.5,122.1L266.5,122.1z"/>
	<path class="st0" d="M251,239.9c0,7.4,29.2,24.6,85.9,24.6s85.9-17.3,85.9-24.6s-29.2-24.6-85.9-24.6S251,232.6,251,239.9z"/>
	<path class="st0" d="M251,268.4v23c0,8.7,32.6,24.6,85.9,24.6s82.6-15.1,86.6-23v-25.1c-20.5,11.7-53.6,17.8-86.6,17.8
		s-65.4-5.9-85.9-17.4V268.4L251,268.4z"/>
	<path class="st0" d="M474.4,24.5c0-12.3-10-22.3-22.3-22.3H24.7c-12.3,0-22.3,10-22.3,22.3v225.3c0,12.3,10,22.3,22.3,22.3h205.2
		v-32.8l-124.7,0.3l0,0c-5.7,0-10.3-4.4-10.6-10.1c-1-22.3-19.9-36.4-49.2-36.9c-5.8,0-10.3-4.8-10.3-10.6V91.9
		c0-5.8,4.7-10.4,10.3-10.6c28.9-0.4,48.2-15,49.2-36.8c0.2-5.7,4.9-10.1,10.6-10.1h266.9c5.7,0,10.3,4.4,10.5,10.1
		c1,22,20.1,36.4,48.6,36.8c5.8,0,10.3,4.8,10.3,10.6v90.4c0,5.8-4.7,10.4-10.3,10.6c-13,0.2-24.3,3.3-32.9,8.9
		c22.6,6.3,39.7,16.5,44.4,30.4c1.1,1.7,1.8,3.8,1.8,5.9v34h7.4c12.3,0,22.3-10,22.3-22.3L474.4,24.5L474.4,24.5z"/>
	<path class="st0" d="M265.3,326.3L265.3,326.3c-5.5-2-10.3-4.1-14.3-6.3v25.3c0,2.7,5.7,9.1,21,14.6c17,6.2,39.7,9.7,64.2,9.7
		c54.7,0,85.5-16.1,87.4-25.1v-24.6c-20.8,11.4-53.7,17.2-86.6,17.2c-27,0-52.4-3.8-71.7-10.8H265.3L265.3,326.3z"/>
</g>
</svg>
