<?xml version="1.0" encoding="UTF-8"?><svg id="Capa_1" xmlns="http://www.w3.org/2000/svg" viewBox="0 0 506.69 512"><defs><style>.cls-1{fill:#181716;}</style></defs><g id="Calque_9"><path class="cls-1" d="m435.51,171.97c-33.86-3.89-52.51-24.2-57.61-46.29h-248.54c-2.66,11.77-9.21,22.31-18.76,30.42-10.32,8.66-23.87,14.1-39.41,15.87v70.6c30.75,3.66,52.62,21.09,58.28,46.18l126.55-.33c18.54-15.98,57.39-24.31,96.02-24.31,12.21,0,24.42.78,36.08,2.44,10.66-13.21,27.31-21.76,47.51-24.09v-70.6l-.11.11Zm-153.97,20.09l-4.44,11.32h-31.19c-.11,1.78-.22,3.33-.22,4.66,0,.56.11,2.11.22,4.66h27.86l-4.77,11.32h-20.87c2.44,9.44,8.33,14.21,18.09,14.21,6.55,0,13.32-2.66,20.43-8.1v20.54c-6.11,3.33-13.21,5.11-21.31,5.11-11.1,0-19.98-3.33-26.86-10.1-5.88-5.77-9.55-12.88-11.21-21.54h-11.77l4.44-11.32h5.88v-2.11c-.11-.89-.11-1.89-.11-2.78,0-1.78.11-3.22.22-4.44h-10.43l4.44-11.32h7.55c2.22-9.21,6.55-16.65,12.65-22.09,7.1-6.22,15.98-9.32,26.75-9.32,7.55,0,15.76,2.22,24.42,6.66l-6.77,17.87c-6.88-4.44-13.21-6.55-18.76-6.55-8.44,0-14.21,4.55-17.54,13.43h33.41l-.11-.11Z"/><path class="cls-1" d="m266,309.95c0,7.44,29.19,24.64,85.92,24.64s85.92-17.32,85.92-24.64-29.19-24.64-85.92-24.64-85.92,17.32-85.92,24.64Z"/><path class="cls-1" d="m266,338.37v22.98c0,8.66,32.64,24.64,85.92,24.64s82.59-15.1,86.59-22.98v-25.09c-20.54,11.66-53.62,17.76-86.59,17.76s-65.38-5.88-85.92-17.43v.11Z"/><path class="cls-1" d="m489.35,94.49c0-12.32-9.99-22.31-22.31-22.31H39.66c-12.32,0-22.31,9.99-22.31,22.31v225.34c0,12.32,9.99,22.31,22.31,22.31h205.25v-32.75l-124.66.33h0c-5.66,0-10.32-4.44-10.55-10.1-1-22.31-19.87-36.41-49.18-36.85-5.77,0-10.32-4.77-10.32-10.55v-90.36c0-5.77,4.66-10.43,10.32-10.55,28.86-.44,48.18-14.99,49.18-36.85.22-5.66,4.88-10.1,10.55-10.1h266.86c5.66,0,10.32,4.44,10.55,10.1,1,21.98,20.09,36.41,48.62,36.85,5.77,0,10.32,4.77,10.32,10.55v90.36c0,5.77-4.66,10.43-10.32,10.55-12.99.22-24.31,3.33-32.86,8.88,22.65,6.33,39.74,16.54,44.4,30.42,1.11,1.67,1.78,3.77,1.78,5.88v33.97h7.44c12.32,0,22.31-9.99,22.31-22.31V94.49Z"/><path class="cls-1" d="m280.32,396.31h0c-5.55-2-10.32-4.11-14.32-6.33v25.31c0,2.66,5.66,9.1,20.98,14.65,16.98,6.22,39.74,9.66,64.16,9.66,54.73,0,85.48-16.1,87.36-25.09v-24.64c-20.76,11.43-53.73,17.21-86.59,17.21-26.97,0-52.4-3.77-71.71-10.77h.11Z"/></g></svg>