<svg id="ds44-icons" xmlns="http://www.w3.org/2000/svg" width="410" height="480" viewBox="0 0 410 480"><path d="M394.92053,67.57662c-.0144-.14746-.04541-.29175-.06335-.43872-.05481-.44922-.11268-.89819-.20044-1.343-.0243-.12207-.06165-.24023-.08826-.36181-.10181-.46583-.21069-.93018-.34912-1.38843-.02344-.07715-.0553-.15137-.07971-.22827-.1565-.49463-.32654-.9856-.526-1.46827-.01771-.043-.04053-.08349-.05872-.12646-.21375-.50659-.44605-1.00684-.70728-1.49634-.02234-.042-.04968-.081-.07238-.1228-.26148-.48071-.53955-.95459-.84717-1.41553-.06824-.10254-.14893-.197-.21924-.29834-.27173-.38989-.54688-.77856-.8523-1.15112-.30554-.37329-.63781-.727-.974-1.07739-.08838-.09229-.16443-.19165-.255-.28223-.07593-.07593-.15942-.13916-.23633-.21362-.3645-.352-.73449-.69727-1.124-1.01587-.37952-.31128-.775-.5918-1.17261-.86817-.094-.06494-.18164-.14013-.27673-.20337-.46472-.31005-.94251-.59082-1.42761-.85424-.03772-.02027-.073-.04517-.11084-.06543-.4917-.26221-.99414-.49561-1.50293-.71-.04077-.01734-.07959-.03907-.12036-.05616-.48389-.1997-.97608-.37011-1.47193-.52685-.07568-.02393-.14856-.05567-.22461-.07862-.45971-.13867-.92553-.248-1.39294-.35009-.11988-.02613-.2367-.06324-.35706-.08716-.44763-.08838-.89917-.14649-1.35132-.20142-.144-.01758-.28564-.04785-.43042-.062q-.895-.08752-1.79443-.08887h-.001l-89.9375.00782a18.375,18.375,0,0,0,.00391,36.75L332.26916,87.75,192.00647,228.01217a18.37511,18.37511,0,0,0,25.98633,25.98632L358.2594,113.73238v45.584a18.375,18.375,0,0,0,36.75,0V69.37105Q395.0094,68.47275,394.92053,67.57662Z"/><path d="M374.62365,247.72115a18.37505,18.37505,0,0,0-18.375,18.375V381.08248a11.18435,11.18435,0,0,1-11.17089,11.17187H62.91174a11.18436,11.18436,0,0,1-11.1709-11.17187V98.91744a11.184,11.184,0,0,1,11.1709-11.17139h119.002a18.375,18.375,0,0,0,0-36.75H62.91174a47.97539,47.97539,0,0,0-47.9209,47.92139v282.165a47.97549,47.97549,0,0,0,47.9209,47.92187h282.166a47.97549,47.97549,0,0,0,47.92089-47.92187V266.09615A18.375,18.375,0,0,0,374.62365,247.72115Z"/></svg>