<?xml version="1.0" encoding="utf-8"?>
<!-- Generator: Adobe Illustrator 26.0.3, SVG Export Plug-In . SVG Version: 6.00 Build 0)  -->
<svg version="1.1" id="ds44-icons" xmlns="http://www.w3.org/2000/svg" xmlns:xlink="http://www.w3.org/1999/xlink" x="0px" y="0px"
	 viewBox="0 0 450 480" style="enable-background:new 0 0 450 480;" xml:space="preserve">
<g>
	<g>
		<g>
			<path d="M413.6,222.9h-51.4V62.7c0-16.7-11.8-28.4-28.4-28.4H49.5c-16.7,0-30.2,13.5-30.2,30.2v351.1c0,16.7,13.5,30.2,30.2,30.2
				h329.9c28.4,0,51.4-23,51.4-51.4V240C430.8,230.5,423.1,222.9,413.6,222.9z M53.5,68.5h274.3V240v154.3c0,0.8,0,1.5,0.1,2.3
				c0.2,5.2,1.2,10.2,2.9,14.8H53.5V68.5z M396.5,394.3c0,9.5-7.7,17.1-17.1,17.1c-0.4,0-0.8,0-1.1-0.1c-7.7-0.7-15.3-8.2-15.9-15.9
				c0-0.4-0.1-0.8-0.1-1.1V257.1h34.3L396.5,394.3L396.5,394.3z"/>
			<path d="M87.8,205.7h102.9c9.5,0,17.1-7.7,17.1-17.1v-85.7c0-9.5-7.7-17.1-17.1-17.1H87.8c-9.5,0-17.1,7.7-17.1,17.1v85.7
				C70.7,198,78.4,205.7,87.8,205.7z M105,120h68.6v51.4H105V120z"/>
			<path d="M293.6,240H87.8c-9.5,0-17.1,7.7-17.1,17.1s7.7,17.1,17.1,17.1h205.8c9.5,0,17.1-7.7,17.1-17.1
				C310.7,247.7,303.1,240,293.6,240z"/>
			<path d="M156.4,291.4H87.8c-9.5,0-17.1,7.7-17.1,17.1s7.7,17.1,17.1,17.1h68.6c9.5,0,17.1-7.7,17.1-17.1
				C173.6,299.1,165.9,291.4,156.4,291.4z"/>
			<path d="M293.6,102.8h-51.4c-9.5,0-17.1,7.7-17.1,17.1s7.7,17.1,17.1,17.1h51.4c9.5,0,17.1-7.7,17.1-17.1
				C310.7,110.5,303.1,102.8,293.6,102.8z"/>
			<path d="M293.6,154.3h-51.4c-9.5,0-17.1,7.7-17.1,17.1c0,9.5,7.7,17.1,17.1,17.1h51.4c9.5,0,17.1-7.7,17.1-17.1
				C310.7,161.9,303.1,154.3,293.6,154.3z"/>
			<path d="M293.6,291.4H225c-9.5,0-17.1,7.7-17.1,17.1s7.7,17.1,17.1,17.1h68.6c9.5,0,17.1-7.7,17.1-17.1
				C310.7,299.1,303.1,291.4,293.6,291.4z"/>
			<path d="M156.4,342.9H87.8c-9.5,0-17.1,7.7-17.1,17.1s7.7,17.1,17.1,17.1h68.6c9.5,0,17.1-7.7,17.1-17.1
				C173.6,350.6,165.9,342.9,156.4,342.9z"/>
			<path d="M293.6,342.9H225c-9.5,0-17.1,7.7-17.1,17.1s7.7,17.1,17.1,17.1h68.6c9.5,0,17.1-7.7,17.1-17.1
				C310.7,350.6,303.1,342.9,293.6,342.9z"/>
		</g>
	</g>
</g>
</svg>
