<?xml version="1.0" encoding="utf-8"?>
<!-- Generator: Adobe Illustrator 25.3.1, SVG Export Plug-In . SVG Version: 6.00 Build 0)  -->
<svg version="1.1" id="ds44-icons" xmlns="http://www.w3.org/2000/svg" xmlns:xlink="http://www.w3.org/1999/xlink" x="0px" y="0px"
	 viewBox="0 0 406.4 480" style="enable-background:new 0 0 406.4 480;" xml:space="preserve">
<path d="M384.2,338.9c-0.1-0.1-0.2-0.2-0.4-0.4L257.5,220.7l73.4-73.4l13.4,3.7c6.6,1.8,13.5-1.1,16.9-7l37.6-65.4
	c3.4-5.9,2.4-13.3-2.4-18.1l-15-15c-4.8-4.8-12.2-5.8-18.1-2.4L298,80.7c-5.9,3.4-8.8,10.4-7,16.9l3.7,13.4L220,185.7L194.7,162
	c5-21.4,2.6-43.7-7.2-63.8c-11.2-23.1-30.8-40.4-55-48.8c-20.8-7.2-43.7-7-64.4,0.6c-5.1,1.9-8.8,6.4-9.7,11.8
	c-0.8,5.4,1.3,10.8,5.6,14.2c0.2,0.2,0.5,0.4,0.7,0.6l56.5,56.5c1.5,1.5,2.3,3.5,2.3,5.6s-0.8,4.1-2.3,5.6l-15.9,15.9
	c-3.1,3.1-8.2,3.1-11.3,0l-56.5-56.5c-0.2-0.2-0.4-0.5-0.6-0.7c-3.4-4.3-8.8-6.4-14.2-5.6c-5.4,0.8-9.9,4.5-11.8,9.7
	c-18.2,49.7,7.4,105,57.2,123.2c18.4,6.7,38.3,7.7,57.1,2.8l2.7,2.9l-94.8,94.8c-21.7,21.9-21.7,57.4,0.1,79.4
	c10.9,10.9,25.3,16.3,39.6,16.3c14.4,0,28.7-5.4,39.7-16.3l92.1-92.1l96.4,103.2c0.1,0.1,0.2,0.3,0.4,0.4
	c11.1,11.1,25.8,17.1,41.4,17.1c0,0,0,0,0,0c15.7,0,30.4-6.1,41.4-17.2C407,398.9,407,361.8,384.2,338.9z M365.5,76.5L341,119
	l-10.6-2.9c-1.3-0.4-2.6-0.5-3.9-0.5c0,0,0,0,0,0c0-1.3-0.2-2.7-0.5-4l-2.9-10.6L365.5,76.5z M91.3,389
	c-10.2,10.1-26.8,10.1-36.9,0.1c-10.1-10.2-10.1-26.8,0-37l94.1-94.1l35.7,38.2L91.3,389z M362.9,400.5c-5.4,5.4-12.6,8.4-20.2,8.4
	c0,0,0,0,0,0c-7.6,0-14.7-2.9-20-8.2l-182-194.9c-4.1-4.4-10.6-5.9-16.2-3.8c-14.8,5.6-31.1,5.6-46,0.2
	c-25.5-9.3-41.8-32.8-43.2-58.3l37.6,37.6c14.8,14.8,38.9,14.8,53.7,0l15.9-15.9c7.2-7.2,11.1-16.7,11.1-26.9
	c0-10.1-4-19.7-11.1-26.9l-37.5-37.5c6,0.3,12,1.5,17.8,3.5c16.7,5.8,30.1,17.7,37.8,33.5c7.7,15.9,8.8,33.8,3,50.5
	c-1.9,5.6-0.4,11.8,3.9,15.9l195.6,182.6C374.1,371.4,374,389.5,362.9,400.5z"/>
</svg>
