<svg id="ds44-icons" xmlns="http://www.w3.org/2000/svg" viewBox="0 0 450 480"><path d="M306.07,118.63h30.34V350.94q0,46.47-32.24,79.17t-78.7,32.71q-46.46,0-79.17-32.71t-32.71-79.17V98.72q0-33.18,24.18-57.36t57.36-24.18q33.18,0,56.89,24.18t23.71,57.36V311.11a50.19,50.19,0,0,1-50.26,50.26,50,50,0,0,1-36-14.7Q174.26,332,174.27,311.11V118.63h30.34V311.11a18.54,18.54,0,0,0,6.17,14.23A20.92,20.92,0,0,0,225.47,331a19.45,19.45,0,0,0,19.92-19.92V98.72a50.07,50.07,0,0,0-14.7-36Q216,47.54,195.13,47.52t-36,15.17q-15.18,15.18-15.17,36V350.94q0,33.19,24.18,57.36t57.36,24.18q33.18,0,56.9-24.18t23.7-57.36Z"/></svg>