<?xml version="1.0" encoding="UTF-8"?><svg id="ds44-icons" xmlns="http://www.w3.org/2000/svg" viewBox="0 0 438.78 480"><path d="m287.58,216.55c-.76-1.52-2.27-2.27-3.79-2.27l-33.34-5.3c-1.52-6.06-4.55-12.12-7.58-18.18,2.27-3.03,5.3-7.58,9.85-12.88,4.55-5.3,7.58-9.85,9.09-12.12.76-1.52,1.52-3.03,1.52-4.55s-.76-3.03-1.52-3.79c-4.55-6.06-14.4-16.67-30.31-31.07-1.52-1.52-3.03-1.52-4.55-1.52s-3.03.76-4.55,1.52l-26.52,19.7c-5.3-2.27-10.61-4.55-16.67-6.82l-5.3-34.1c0-1.52-.76-3.03-2.27-3.79-1.52-.76-3.03-1.52-4.55-1.52h-40.92c-3.79,0-6.06,1.52-6.82,5.3-1.52,6.06-3.79,17.43-5.3,34.1-6.06,1.52-11.37,3.79-16.67,6.82l-25.76-19.7c-1.52-1.52-3.03-1.52-4.55-1.52-3.03,0-8.33,4.55-17.43,12.88-9.09,9.09-15.15,15.15-18.18,19.7-.76,1.52-1.52,3.03-1.52,4.55s.76,3.03,1.52,4.55c8.33,9.85,15.15,18.18,19.7,25.76-3.03,5.3-5.3,11.37-7.58,16.67l-34.1,5.3c-1.52,0-2.27.76-3.79,2.27-1.52,1.52-1.52,3.03-1.52,4.55v40.92c0,1.52.76,3.03,1.52,4.55.76,1.52,2.27,2.27,3.79,2.27l33.34,5.3c1.52,6.06,4.55,12.12,7.58,18.18-2.27,3.03-5.3,7.58-9.85,12.88-4.55,5.3-7.58,9.85-9.09,12.12-.76,1.52-1.52,3.03-1.52,4.55s.76,3.03,1.52,4.55c4.55,6.82,15.15,16.67,30.31,31.07,1.52,1.52,3.03,2.27,4.55,2.27s3.03-.76,4.55-1.52l25.76-19.7c5.3,2.27,10.61,4.55,16.67,6.82l5.3,34.1c0,1.52.76,3.03,2.27,3.79,1.52.76,3.03,1.52,4.55,1.52h40.92c3.79,0,6.06-1.52,6.82-5.3,1.52-6.06,3.03-17.43,5.3-34.1,6.06-1.52,11.37-3.79,16.67-6.82l25.76,19.7c1.52.76,3.03,1.52,4.55,1.52,3.03,0,8.33-4.55,17.43-12.88,9.09-9.09,15.15-15.15,18.18-19.7,1.52-1.52,1.52-2.27,1.52-4.55s-.76-3.03-1.52-4.55c-9.09-10.61-15.15-18.94-19.7-25,2.27-4.55,4.55-9.85,7.58-16.67l34.1-5.3c1.52,0,3.03-.76,3.79-2.27.76-1.52,1.52-3.03,1.52-4.55v-40.92c0-3.79,0-5.3-.76-6.82Zm-140.18,87.14c-34.85,0-62.89-28.04-62.89-62.89s28.04-62.89,62.89-62.89,62.89,28.04,62.89,62.89-28.79,62.89-62.89,62.89Z"/><path d="m433.82,79.41c-.76-.76-1.52-1.52-2.27-1.52l-21.22-3.03c-1.52-3.79-3.03-7.58-4.55-11.37,1.52-2.27,3.79-4.55,6.06-8.33,3.03-3.79,4.55-6.06,6.06-7.58.76-.76.76-1.52.76-3.03,0-.76,0-2.27-.76-2.27-3.03-3.79-9.09-10.61-18.94-19.7-.76-.76-1.52-1.52-3.03-1.52s-2.27,0-3.03.76l-16.67,12.12c-3.03-1.52-6.82-3.03-10.61-4.55l-3.03-21.22c0-.76-.76-1.52-1.52-2.27-.76-.76-1.52-.76-3.03-.76h-25.76c-2.27,0-3.79.76-3.79,3.03-.76,3.79-2.27,11.37-3.03,21.22-3.79,1.52-6.82,2.27-10.61,4.55l-15.91-12.12c-.76-.76-2.27-1.52-3.03-1.52-1.52,0-5.3,3.03-10.61,8.33-5.3,5.3-9.09,9.85-11.37,12.12-.76.76-.76,1.52-.76,2.27s0,1.52,1.52,3.03c5.3,6.06,9.09,11.37,12.12,15.91-2.27,3.79-3.79,6.82-4.55,10.61l-21.22,3.03c-.76,0-1.52.76-2.27,1.52-.76.76-.76,1.52-.76,2.27v25.76c0,.76,0,1.52.76,3.03.76.76,1.52,1.52,2.27,1.52l21.22,3.03c.76,3.79,2.27,7.58,4.55,11.37-1.52,2.27-3.79,4.55-6.06,8.33-3.03,3.79-4.55,6.06-6.06,7.58-.76.76-.76,1.52-.76,3.03,0,.76,0,1.52.76,2.27,3.03,4.55,9.09,10.61,18.94,19.7.76.76,1.52,1.52,3.03,1.52s2.27,0,3.03-.76l16.67-12.12c3.03,1.52,6.82,3.03,10.61,4.55l3.03,21.22c0,.76.76,1.52,1.52,2.27.76.76,1.52.76,3.03.76h25.76c2.27,0,3.79-.76,3.79-3.03.76-3.79,2.27-11.37,3.03-21.22,3.79-1.52,6.82-2.27,10.61-4.55l15.91,12.88c.76.76,2.27.76,3.03.76,1.52,0,5.3-3.03,10.61-8.33,5.3-5.3,9.09-9.85,11.37-12.88.76-.76.76-1.52.76-2.27s0-2.27-1.52-3.03c-5.3-6.82-9.85-12.12-12.12-15.91,1.52-3.03,3.03-6.06,4.55-10.61l21.22-3.03c.76,0,1.52-.76,2.27-1.52.76-.76.76-1.52.76-2.27v-25.76c0-.76,0-1.52-.76-2.27Zm-87.89,54.55c-21.97,0-39.4-17.43-39.4-39.4s17.43-39.4,39.4-39.4,39.4,17.43,39.4,39.4-17.43,39.4-39.4,39.4Z"/><path d="m433.82,367.34c-.76-.76-1.52-1.52-2.27-1.52l-21.22-3.03c-1.52-3.79-3.03-7.58-4.55-11.37,1.52-2.27,3.79-4.55,6.06-8.33,3.03-3.79,4.55-6.06,6.06-7.58.76-.76.76-1.52.76-3.03,0-.76,0-2.27-.76-2.27-3.03-3.79-9.09-10.61-18.94-19.7-.76-.76-1.52-1.52-3.03-1.52s-2.27,0-3.03.76l-16.67,12.12c-3.03-1.52-6.82-3.03-10.61-4.55l-3.03-21.22c0-.76-.76-1.52-1.52-2.27-.76-.76-1.52-.76-3.03-.76h-25.76c-2.27,0-3.79.76-3.79,3.03-.76,3.79-2.27,11.37-3.03,21.22-3.79,1.52-6.82,2.27-10.61,4.55l-15.91-12.12c-.76-.76-2.27-1.52-3.03-1.52-1.52,0-5.3,3.03-10.61,8.33-5.3,5.3-9.09,9.85-11.37,12.12-.76.76-.76,1.52-.76,2.27s0,1.52,1.52,3.03c5.3,6.06,9.09,11.37,12.12,15.91-2.27,3.79-3.79,6.82-4.55,10.61l-21.22,3.03c-.76,0-1.52.76-2.27,1.52-.76.76-.76,1.52-.76,2.27v25.76c0,.76,0,1.52.76,3.03.76.76,1.52,1.52,2.27,1.52l21.22,3.03c.76,3.79,2.27,7.58,4.55,11.37-1.52,2.27-3.79,4.55-6.06,8.33-3.03,3.79-4.55,6.06-6.06,7.58-.76.76-.76,1.52-.76,3.03,0,.76,0,1.52.76,2.27,3.03,4.55,9.09,10.61,18.94,19.7.76.76,1.52,1.52,3.03,1.52s2.27,0,3.03-.76l16.67-12.12c3.03,1.52,6.82,3.03,10.61,4.55l3.03,21.22c0,.76.76,1.52,1.52,2.27.76.76,1.52.76,3.03.76h25.76c2.27,0,3.79-.76,3.79-3.03.76-3.79,2.27-11.37,3.03-21.22,3.79-1.52,6.82-2.27,10.61-4.55l15.91,12.88c.76.76,2.27.76,3.03.76,1.52,0,5.3-3.03,10.61-8.33,5.3-5.3,9.09-9.85,11.37-12.88.76-.76.76-1.52.76-2.27s0-2.27-1.52-3.03c-5.3-6.82-9.85-12.12-12.12-15.91,1.52-3.03,3.03-6.06,4.55-10.61l21.22-3.03c.76,0,1.52-.76,2.27-1.52.76-.76.76-1.52.76-2.27v-25.76c0-.76,0-1.52-.76-2.27Zm-87.89,54.55c-21.97,0-39.4-17.43-39.4-39.4s17.43-39.4,39.4-39.4,39.4,17.43,39.4,39.4-17.43,39.4-39.4,39.4Z"/></svg>