<?xml version="1.0" encoding="UTF-8"?><svg id="ds44-icons" xmlns="http://www.w3.org/2000/svg" viewBox="0 0 406.41 480"><defs><style>.cls-1{fill:#1d1d1b;}</style></defs><path class="cls-1" d="m260.17,222.28c-.63-1.27-1.9-1.9-3.16-1.9l-27.85-4.43c-1.27-5.06-3.8-10.13-6.33-15.19,1.9-2.53,4.43-6.33,8.23-10.76,3.8-4.43,6.33-8.23,7.6-10.13.63-1.27,1.27-2.53,1.27-3.8s-.63-2.53-1.27-3.16c-3.8-5.06-12.03-13.92-25.32-25.95-1.27-1.27-2.53-1.27-3.8-1.27s-2.53.63-3.8,1.27l-22.15,16.46c-4.43-1.9-8.86-3.8-13.92-5.7l-4.43-28.48c0-1.27-.63-2.53-1.9-3.16-1.27-.63-2.53-1.27-3.8-1.27h-34.18c-3.16,0-5.06,1.27-5.7,4.43-1.27,5.06-3.16,14.56-4.43,28.48-5.06,1.27-9.49,3.16-13.92,5.7l-21.52-16.46c-1.27-1.27-2.53-1.27-3.8-1.27-2.53,0-6.96,3.8-14.56,10.76-7.6,7.6-12.66,12.66-15.19,16.46-.63,1.27-1.27,2.53-1.27,3.8s.63,2.53,1.27,3.8c6.96,8.23,12.66,15.19,16.46,21.52-2.53,4.43-4.43,9.49-6.33,13.92l-28.48,4.43c-1.27,0-1.9.63-3.16,1.9-1.27,1.27-1.27,2.53-1.27,3.8v34.18c0,1.27.63,2.53,1.27,3.8.63,1.27,1.9,1.9,3.16,1.9l27.85,4.43c1.27,5.06,3.8,10.13,6.33,15.19-1.9,2.53-4.43,6.33-8.23,10.76-3.8,4.43-6.33,8.23-7.6,10.13-.63,1.27-1.27,2.53-1.27,3.8s.63,2.53,1.27,3.8c3.8,5.7,12.66,13.92,25.32,25.95,1.27,1.27,2.53,1.9,3.8,1.9s2.53-.63,3.8-1.27l21.52-16.46c4.43,1.9,8.86,3.8,13.92,5.7l4.43,28.48c0,1.27.63,2.53,1.9,3.16,1.27.63,2.53,1.27,3.8,1.27h34.18c3.16,0,5.06-1.27,5.7-4.43,1.27-5.06,2.53-14.56,4.43-28.48,5.06-1.27,9.49-3.16,13.92-5.7l21.52,16.46c1.27.63,2.53,1.27,3.8,1.27,2.53,0,6.96-3.8,14.56-10.76,7.6-7.6,12.66-12.66,15.19-16.46,1.27-1.27,1.27-1.9,1.27-3.8s-.63-2.53-1.27-3.8c-7.6-8.86-12.66-15.82-16.46-20.89,1.9-3.8,3.8-8.23,6.33-13.92l28.48-4.43c1.27,0,2.53-.63,3.16-1.9.63-1.27,1.27-2.53,1.27-3.8v-34.18c0-3.16,0-4.43-.63-5.7Zm-117.09,72.79c-29.11,0-52.53-23.42-52.53-52.53s23.42-52.53,52.53-52.53,52.53,23.42,52.53,52.53-24.05,52.53-52.53,52.53Z"/><path class="cls-1" d="m382.32,107.72c-.63-.63-1.27-1.27-1.9-1.27l-17.72-2.53c-1.27-3.16-2.53-6.33-3.8-9.49,1.27-1.9,3.16-3.8,5.06-6.96,2.53-3.16,3.8-5.06,5.06-6.33.63-.63.63-1.27.63-2.53,0-.63,0-1.9-.63-1.9-2.53-3.16-7.6-8.86-15.82-16.46-.63-.63-1.27-1.27-2.53-1.27s-1.9,0-2.53.63l-13.92,10.13c-2.53-1.27-5.7-2.53-8.86-3.8l-2.53-17.72c0-.63-.63-1.27-1.27-1.9-.63-.63-1.27-.63-2.53-.63h-21.52c-1.9,0-3.16.63-3.16,2.53-.63,3.16-1.9,9.49-2.53,17.72-3.16,1.27-5.7,1.9-8.86,3.8l-13.29-10.13c-.63-.63-1.9-1.27-2.53-1.27-1.27,0-4.43,2.53-8.86,6.96-4.43,4.43-7.6,8.23-9.49,10.13-.63.63-.63,1.27-.63,1.9s0,1.27,1.27,2.53c4.43,5.06,7.6,9.49,10.13,13.29-1.9,3.16-3.16,5.7-3.8,8.86l-17.72,2.53c-.63,0-1.27.63-1.9,1.27-.63.63-.63,1.27-.63,1.9v21.52c0,.63,0,1.27.63,2.53.63.63,1.27,1.27,1.9,1.27l17.72,2.53c.63,3.16,1.9,6.33,3.8,9.49-1.27,1.9-3.16,3.8-5.06,6.96-2.53,3.16-3.8,5.06-5.06,6.33-.63.63-.63,1.27-.63,2.53,0,.63,0,1.27.63,1.9,2.53,3.8,7.6,8.86,15.82,16.46.63.63,1.27,1.27,2.53,1.27s1.9,0,2.53-.63l13.92-10.13c2.53,1.27,5.7,2.53,8.86,3.8l2.53,17.72c0,.63.63,1.27,1.27,1.9.63.63,1.27.63,2.53.63h21.52c1.9,0,3.16-.63,3.16-2.53.63-3.16,1.9-9.49,2.53-17.72,3.16-1.27,5.7-1.9,8.86-3.8l13.29,10.76c.63.63,1.9.63,2.53.63,1.27,0,4.43-2.53,8.86-6.96,4.43-4.43,7.6-8.23,9.49-10.76.63-.63.63-1.27.63-1.9s0-1.9-1.27-2.53c-4.43-5.7-8.23-10.13-10.13-13.29,1.27-2.53,2.53-5.06,3.8-8.86l17.72-2.53c.63,0,1.27-.63,1.9-1.27.63-.63.63-1.27.63-1.9v-21.52c0-.63,0-1.27-.63-1.9Zm-73.42,45.57c-18.35,0-32.91-14.56-32.91-32.91s14.56-32.91,32.91-32.91,32.91,14.56,32.91,32.91-14.56,32.91-32.91,32.91Z"/><path class="cls-1" d="m382.32,348.23c-.63-.63-1.27-1.27-1.9-1.27l-17.72-2.53c-1.27-3.16-2.53-6.33-3.8-9.49,1.27-1.9,3.16-3.8,5.06-6.96,2.53-3.16,3.8-5.06,5.06-6.33.63-.63.63-1.27.63-2.53,0-.63,0-1.9-.63-1.9-2.53-3.16-7.6-8.86-15.82-16.46-.63-.63-1.27-1.27-2.53-1.27s-1.9,0-2.53.63l-13.92,10.13c-2.53-1.27-5.7-2.53-8.86-3.8l-2.53-17.72c0-.63-.63-1.27-1.27-1.9-.63-.63-1.27-.63-2.53-.63h-21.52c-1.9,0-3.16.63-3.16,2.53-.63,3.16-1.9,9.49-2.53,17.72-3.16,1.27-5.7,1.9-8.86,3.8l-13.29-10.13c-.63-.63-1.9-1.27-2.53-1.27-1.27,0-4.43,2.53-8.86,6.96-4.43,4.43-7.6,8.23-9.49,10.13-.63.63-.63,1.27-.63,1.9s0,1.27,1.27,2.53c4.43,5.06,7.6,9.49,10.13,13.29-1.9,3.16-3.16,5.7-3.8,8.86l-17.72,2.53c-.63,0-1.27.63-1.9,1.27-.63.63-.63,1.27-.63,1.9v21.52c0,.63,0,1.27.63,2.53.63.63,1.27,1.27,1.9,1.27l17.72,2.53c.63,3.16,1.9,6.33,3.8,9.49-1.27,1.9-3.16,3.8-5.06,6.96-2.53,3.16-3.8,5.06-5.06,6.33-.63.63-.63,1.27-.63,2.53,0,.63,0,1.27.63,1.9,2.53,3.8,7.6,8.86,15.82,16.46.63.63,1.27,1.27,2.53,1.27s1.9,0,2.53-.63l13.92-10.13c2.53,1.27,5.7,2.53,8.86,3.8l2.53,17.72c0,.63.63,1.27,1.27,1.9.63.63,1.27.63,2.53.63h21.52c1.9,0,3.16-.63,3.16-2.53.63-3.16,1.9-9.49,2.53-17.72,3.16-1.27,5.7-1.9,8.86-3.8l13.29,10.76c.63.63,1.9.63,2.53.63,1.27,0,4.43-2.53,8.86-6.96,4.43-4.43,7.6-8.23,9.49-10.76.63-.63.63-1.27.63-1.9s0-1.9-1.27-2.53c-4.43-5.7-8.23-10.13-10.13-13.29,1.27-2.53,2.53-5.06,3.8-8.86l17.72-2.53c.63,0,1.27-.63,1.9-1.27.63-.63.63-1.27.63-1.9v-21.52c0-.63,0-1.27-.63-1.9Zm-73.42,45.57c-18.35,0-32.91-14.56-32.91-32.91s14.56-32.91,32.91-32.91,32.91,14.56,32.91,32.91-14.56,32.91-32.91,32.91Z"/></svg>