<?xml version="1.0" encoding="UTF-8"?><svg id="ds44-icons" xmlns="http://www.w3.org/2000/svg" viewBox="0 0 406.41 480"><defs><style>.cls-1{fill:#1d1d1b;}</style></defs><path class="cls-1" d="m290.21,368.14v-40.95h19.45c19.52,0,35.32-15.81,35.32-35.31,0-7.51-2.35-14.46-6.35-20.18,2.17-4.59,3.4-9.72,3.4-15.13,0-17.87-13.29-32.64-30.54-34.98-5.5-12.32-17.87-20.92-32.24-20.92-.52,0-1.02.06-1.53.07,6.69,9.87,10.34,21.56,10.34,33.89,0,33.4-27.17,60.58-60.57,60.58h-18.72c1.67,17.95,16.77,32,35.17,32h21.74v37.84c-17.41-1.7-36.91-2.66-57.5-2.66-6.62,0-13.12.1-19.49.29v-75.35h38.81c29.07,0,52.71-23.64,52.71-52.7,0-11.99-3.99-23.3-11.18-32.45-2.75-3.49-5.94-6.68-9.59-9.46l-1.36-1.04-.16-1.7c-1.93-19.18-14.2-35.77-31.99-43.27l-2.32-.98-.09-2.52c-.93-28.6-24.06-50.98-52.67-50.98-20.75,0-39.65,12.26-48.13,31.24l-.89,2-2.17.29c-25.98,3.52-45.56,25.97-45.56,52.21,0,7.89,1.7,15.49,5.07,22.57l.98,2.06-1.31,1.87c-6.2,8.87-9.47,19.29-9.47,30.12,0,29.06,23.64,52.7,52.71,52.7h35.12v77.12c-48.34,4.1-82.36,13.83-82.36,25.18h266.66c0-8.73-20.09-16.49-51.32-21.47h0Z"/></svg>