<?xml version="1.0" encoding="UTF-8"?><svg id="ds44-icons" xmlns="http://www.w3.org/2000/svg" viewBox="0 0 406.41 480"><defs><style>.cls-1{fill:#1d1d1b;}</style></defs><path class="cls-1" d="m103.8,381.16h-.19c-2.78,5.18-7.77,7.39-13.52,7.39-6.7,0-12.13-2.46-15.98-6.57-4.1-4.42-6.25-10.61-6.25-17.81,0-8.02,2.91-15.03,8.15-19.45,3.8-3.22,8.66-5.05,14.85-5.05,11.87,0,18.82,6.32,20.53,15.29h-10.74c-1.14-3.47-4.1-6.38-9.47-6.38-8.34,0-12.38,6.76-12.38,15.6s4.8,15.6,12.5,15.6c6.63,0,10.61-4.48,10.68-9.22v-.19h-9.47v-8.02h19.64v25.14h-7.45l-.88-6.32Z"/><path class="cls-1" d="m119.23,340.49h22.36c9.16,0,16.05,4.86,16.05,13.45,0,5.5-2.72,9.47-8.72,11.43v.19c4.68,1.45,6.76,4.04,7.39,9.1.88,6.38.5,11.69,2.02,12.31v.51h-10.61c-1.27-.69-1.14-5.68-1.71-10.86-.57-4.67-2.9-7.07-8.08-7.07h-7.95v17.94h-10.74v-46.99Zm10.74,21.1h9.53c4.8,0,7.39-2.46,7.39-6.19s-2.34-6.38-7.08-6.38h-9.85v12.57Z"/><path class="cls-1" d="m178.62,340.49h11.18l16.99,46.99h-11.37l-2.97-8.97h-17.06l-2.9,8.97h-10.8l16.92-46.99Zm-.69,30.32h12.06l-2.84-8.78c-2.02-6.44-3.03-12.51-3.03-12.51h-.13s-1.64,7.9-3.15,12.51l-2.91,8.78Z"/><path class="cls-1" d="m203.6,340.49h38.77v9.16h-14.02v37.83h-10.8v-37.83h-13.95v-9.16Z"/><path class="cls-1" d="m247.58,371.12v-30.63h10.73v30.88c0,5.12,2.72,8.28,8.78,8.28,5.62,0,8.53-3.35,8.53-8.46v-30.7h10.8v30.63c0,10.93-6.76,17.24-19.33,17.24s-19.51-6.19-19.51-17.24Z"/><path class="cls-1" d="m293.84,340.49h10.8v46.99h-10.8v-46.99Z"/><path class="cls-1" d="m310.39,340.49h38.78v9.16h-14.02v37.83h-10.8v-37.83h-13.96v-9.16Z"/><path class="cls-1" d="m138.29,93.28h94.12c25.02,0,43.79,6.82,56.59,19.62,12.79,12.8,20.19,29.86,20.19,50.61,0,40.1-27.3,67.96-71.09,67.96h-50.62v73.36h-49.2V93.28Zm49.2,99.81h41.23c20.48,0,31.57-11.66,31.57-29.58s-11.37-29.01-31.28-29.01h-41.51v58.58Z"/></svg>