<?xml version="1.0" encoding="UTF-8"?><svg id="ds44-icons" xmlns="http://www.w3.org/2000/svg" viewBox="0 0 213.02 300.84"><circle cx="128.94" cy="163.1" r="16.5"/><circle cx="126.5" cy="257.99" r="7.85"/><path d="m202.66,264.44h-10.45s-8.88-28.49-8.88-28.49c-1.06-3.4-4.2-5.71-7.76-5.71h-17.48c-3.11-3.55-6.81-6.56-10.95-8.89l-.33-1.21h18.01c3.8,0,7.39-2.42,8.28-6.11,1.29-5.36-2.74-10.15-7.89-10.15h-22.81l-3.45-12.69c-1-3.67-4.27-6.5-8.07-6.39-5.52.16-9.08,5.3-7.73,10.27l4.8,17.67c.09.96.34,1.87.73,2.7l.18.67c-.65-.03-1.3-.05-1.96-.05-1.81,0-3.58.13-5.33.35l-3.88-14.54c-.6-2.25-2.5-4.07-4.83-4.17-3.86-.18-6.43,3.32-5.52,6.7l3.93,14.72c-15.34,6.25-26.1,21.42-25.81,39.08.36,21.97,18.87,40.45,40.84,40.76,23.17.33,42.06-18.35,42.06-41.45,0-3.82-.53-7.51-1.49-11.03h2.73l8.88,28.49c1.06,3.4,4.2,5.71,7.76,5.71h16.82c5.15,0,9.18-4.78,7.89-10.15-.89-3.69-4.48-6.11-8.28-6.11Zm-75.76,23.28c-16.68,0-30.2-13.52-30.2-30.2s13.52-30.2,30.2-30.2,30.2,13.52,30.2,30.2-13.52,30.2-30.2,30.2Z"/><path d="m4.5,3.7h92.4c24.56,0,42.99,6.7,55.55,19.26,12.56,12.56,19.82,29.31,19.82,49.69,0,39.36-26.8,66.72-69.79,66.72h-49.69v72.02H4.5V3.7Zm48.3,97.99h40.48c20.1,0,30.99-11.45,30.99-29.04s-11.17-28.48-30.71-28.48h-40.76v57.51Z"/></svg>