<?xml version="1.0" encoding="UTF-8"?><svg id="ds44-icons" xmlns="http://www.w3.org/2000/svg" viewBox="0 0 492.36 480"><path d="m214.32,234.65c-35.3,0-63.99,28.24-63.99,63.54s28.68,63.99,63.99,63.99,63.99-28.24,63.99-63.55-28.68-63.98-63.99-63.98Z"/><path d="m478.64,135.22l-46.08-16.38,21-44.17c3.82-8.02-.39-13.15-1.78-14.53-1.38-1.36-6.52-5.57-14.53-1.78l-44.17,20.99-16.38-46.07c-2.97-8.37-9.58-9.02-11.54-9.02s-8.56.66-11.54,9.02l-16.38,46.07-44.17-20.99c-8.04-3.81-13.17.41-14.54,1.79-1.38,1.38-5.59,6.52-1.77,14.52l21,44.17-21.63,7.69h-124.03c-17.65,0-33.98,10.15-41.48,26.04l-3.97,8.39h-45.01c-31.33,0-56.93,25.6-56.93,56.93v180.93c0,31.34,25.6,56.94,56.93,56.94h304.94c31.33,0,56.93-25.6,56.93-56.94v-170.19l13.74,6.54c8.03,3.81,13.16-.41,14.53-1.78,1.38-1.38,5.59-6.52,1.78-14.53l-21-44.17,46.09-16.39c8.36-2.98,9.01-9.58,9.01-11.54s-.65-8.55-9.02-11.53Zm-394.94,127.24c-12.43,0-22.51-10.08-22.51-22.51s10.08-22.5,22.51-22.5,22.51,10.08,22.51,22.5-10.08,22.51-22.51,22.51Zm211.77-132h0c-5.72-2.54-11.97-3.93-18.47-3.93,6.51,0,12.76,1.39,18.48,3.93Zm-81.14,262.62c-52.07,0-94.44-42.81-94.44-94.89s42.36-94.43,94.44-94.43,94.44,42.81,94.44,94.87-42.36,94.45-94.44,94.45Zm206.22-235.76c-4.14,1.47-7.46,4.61-9.11,8.6-1.66,3.99-1.53,8.56.36,12.54l13.54,28.48-3.09-1.47-25.4-12.07c-3.96-1.88-8.53-2.02-12.53-.36-3.99,1.65-7.12,4.96-8.59,9.1l-10.57,29.72-10.57-29.72c-2.38-6.69-8.97-11.1-15.9-11.1-1.15,0-2.32.12-3.48.38l-15.6,3.45,1.8-19.31c.72-7.78-4.28-15.62-11.64-18.24l-29.72-10.57,26.46-9.41,3.26-1.15c4.14-1.47,7.46-4.61,9.12-8.61,1.65-3.99,1.52-8.56-.36-12.53l-13.54-28.48,28.48,13.54c3.97,1.88,8.54,2.03,12.53.36,3.99-1.65,7.13-4.97,8.6-9.11l10.57-29.72,10.57,29.72c1.47,4.14,4.61,7.46,8.6,9.11,3.98,1.65,8.55,1.51,12.52-.36l28.49-13.54-13.54,28.48c-1.89,3.97-2.02,8.54-.37,12.53,1.66,4,4.98,7.13,9.12,8.61l29.72,10.57-29.72,10.57Z"/></svg>