<?xml version="1.0" encoding="UTF-8"?><svg id="ds44-icons" xmlns="http://www.w3.org/2000/svg" viewBox="0 0 406.41 379.28"><defs><style>.cls-1{fill:#1d1d1b;}</style></defs><path class="cls-1" d="m194.72,191.18c-25.59,0-46.37,20.47-46.37,46.05s20.79,46.38,46.37,46.38,46.37-20.47,46.37-46.06-20.79-46.37-46.37-46.37Z"/><path class="cls-1" d="m386.28,119.11l-33.4-11.87,15.22-32.01c2.77-5.81-.28-9.53-1.29-10.53-1-.99-4.72-4.04-10.53-1.29l-32.01,15.21-11.87-33.39c-2.16-6.06-6.94-6.54-8.36-6.54s-6.2.48-8.36,6.54l-11.87,33.39-32.01-15.21c-5.83-2.76-9.54.3-10.54,1.3-1,1-4.05,4.72-1.28,10.53l15.22,32.01-15.67,5.57h-89.89c-12.79,0-24.63,7.35-30.06,18.87l-2.88,6.08h-32.62c-22.71,0-41.26,18.55-41.26,41.26v131.13c0,22.71,18.55,41.26,41.26,41.26h221c22.71,0,41.26-18.55,41.26-41.26v-123.34l9.96,4.74c5.82,2.76,9.54-.3,10.53-1.29,1-1,4.05-4.72,1.29-10.53l-15.22-32.01,33.4-11.88c6.06-2.16,6.53-6.94,6.53-8.36s-.47-6.19-6.54-8.36ZM100.05,211.33c-9.01,0-16.31-7.3-16.31-16.32s7.3-16.31,16.31-16.31,16.31,7.3,16.31,16.31-7.3,16.32-16.31,16.32Zm153.47-95.66h0c-4.14-1.84-8.68-2.85-13.39-2.85,4.71,0,9.25,1.01,13.39,2.85Zm-58.81,190.33c-37.74,0-68.44-31.03-68.44-68.77s30.7-68.44,68.44-68.44,68.44,31.03,68.44,68.76-30.7,68.45-68.44,68.45Zm149.46-170.87c-3,1.07-5.4,3.34-6.6,6.23s-1.11,6.2.26,9.08l9.82,20.64-2.24-1.07-18.41-8.75c-2.87-1.36-6.18-1.46-9.08-.26-2.89,1.2-5.16,3.6-6.23,6.6l-7.66,21.54-7.66-21.54c-1.72-4.85-6.5-8.05-11.52-8.05-.84,0-1.68.09-2.52.27l-11.31,2.5,1.3-13.99c.52-5.64-3.1-11.32-8.44-13.22l-21.54-7.66,19.18-6.82,2.36-.84c3-1.07,5.41-3.34,6.61-6.24,1.2-2.89,1.1-6.2-.26-9.08l-9.81-20.64,20.64,9.81c2.88,1.36,6.19,1.47,9.08.26,2.89-1.2,5.17-3.61,6.23-6.6l7.66-21.54,7.66,21.54c1.07,3,3.34,5.41,6.23,6.6,2.89,1.2,6.2,1.1,9.08-.26l20.65-9.81-9.81,20.64c-1.37,2.88-1.46,6.19-.27,9.08,1.2,2.9,3.61,5.17,6.61,6.24l21.54,7.66-21.54,7.66Z"/></svg>