<?xml version="1.0" encoding="UTF-8"?><svg id="ds44-icons" xmlns="http://www.w3.org/2000/svg" viewBox="0 0 308.17 243.09"><path d="m154.24,80.6c-25.59,0-46.38,20.48-46.38,46.06s20.79,46.38,46.38,46.38,46.38-20.47,46.38-46.06-20.79-46.38-46.38-46.38Z"/><path d="m305.85,68.45c.32-22.71-18.23-41.26-40.94-41.26h-32.3l-2.88-6.08c-5.76-11.51-17.27-18.87-30.06-18.87h-90.51c-12.79,0-24.63,7.35-30.06,18.87l-2.88,6.08h-32.62C20.87,27.19,2.32,45.74,2.32,76.56v131.14c0,14.59,18.55,33.14,41.26,33.14h221.01c22.71,0,41.26-18.55,41.26-41.26V68.45ZM59.57,100.75c-9.01,0-16.31-7.3-16.31-16.31s7.3-16.32,16.31-16.32,16.31,7.3,16.31,16.32-7.3,16.31-16.31,16.31Zm94.67,94.68c-37.74,0-68.44-31.03-68.44-68.77s30.7-68.45,68.44-68.45,68.44,31.03,68.44,68.77-30.7,68.45-68.44,68.45Z"/></svg>