<?xml version="1.0" encoding="UTF-8"?><svg id="ds44-icons" xmlns="http://www.w3.org/2000/svg" viewBox="0 0 529.2 480"><path d="m264.86,171.02c-43.11,0-78.13,34.5-78.13,77.6s35.03,78.14,78.13,78.14,78.13-34.49,78.13-77.6-35.02-78.14-78.13-78.14Z"/><path d="m520.28,150.55c.54-38.26-30.71-69.52-68.97-69.52h-54.42l-4.85-10.24c-9.7-19.4-29.1-31.79-50.65-31.79h-152.49c-21.55,0-41.49,12.39-50.65,31.79l-4.85,10.24h-54.96c-38.26,0-69.51,31.26-69.51,83.18v220.94c0,24.59,31.25,55.84,69.51,55.84h372.34c38.26,0,69.51-31.26,69.51-69.51v-220.94Zm-414.91,54.42c-15.18,0-27.48-12.31-27.48-27.48s12.3-27.49,27.48-27.49,27.48,12.31,27.48,27.49-12.3,27.48-27.48,27.48Zm159.5,159.51c-63.58,0-115.31-52.27-115.31-115.86s51.73-115.31,115.31-115.31,115.31,52.27,115.31,115.86-51.73,115.31-115.31,115.31Z"/></svg>