<?xml version="1.0" encoding="UTF-8"?><svg id="ds44-icons" xmlns="http://www.w3.org/2000/svg" viewBox="0 0 406.41 379.28"><defs><style>.cls-1{fill:#1d1d1b;}</style></defs><path class="cls-1" d="m209.98,154.11c-25.59,0-46.38,20.48-46.38,46.06s20.79,46.38,46.38,46.38,46.38-20.47,46.38-46.06-20.79-46.38-46.38-46.38Z"/><path class="cls-1" d="m361.58,141.96c.32-22.71-18.23-41.26-40.94-41.26h-32.3l-2.88-6.08c-5.76-11.51-17.27-18.87-30.06-18.87h-90.51c-12.79,0-24.63,7.35-30.06,18.87l-2.88,6.08h-32.62c-22.71,0-41.26,18.55-41.26,49.37v131.14c0,14.59,18.55,33.14,41.26,33.14h221.01c22.71,0,41.26-18.55,41.26-41.26v-131.14Zm-246.27,32.3c-9.01,0-16.31-7.3-16.31-16.31s7.3-16.32,16.31-16.32,16.31,7.3,16.31,16.32-7.3,16.31-16.31,16.31Zm94.67,94.68c-37.74,0-68.44-31.03-68.44-68.77s30.7-68.45,68.44-68.45,68.44,31.03,68.44,68.77-30.7,68.45-68.44,68.45Z"/></svg>