<?xml version="1.0" encoding="UTF-8"?><svg id="ds44-icons" xmlns="http://www.w3.org/2000/svg" viewBox="0 0 470.03 480"><path d="m455.41,429.07h-117.76v-155.41h41.08c34,0,61.65-27.65,61.65-61.64,0-12.67-3.82-24.85-11.07-35.23l-1.53-2.19,1.15-2.42c3.94-8.29,5.93-17.17,5.93-26.4,0-30.7-22.9-56.95-53.28-61.07l-2.54-.34-1.04-2.34c-9.92-22.21-32.02-36.54-56.29-36.54-33.45,0-60.5,26.18-61.59,59.62l-.1,2.94-2.71,1.15c-20.81,8.78-35.15,28.17-37.41,50.6l-.19,1.99-1.59,1.21c-4.26,3.25-7.99,6.98-11.21,11.06-8.41,10.71-13.08,23.93-13.08,37.95,0,33.99,27.65,61.64,61.65,61.64h45.39v155.4h-47.65v-52.97h-67.69c-5.34,0-9.67.5-9.67,5.84v47.13h-27.79v-74.92h58.02c5.34,0,9.67-4.33,9.67-9.67s-4.33-9.67-9.67-9.67H70.68c-5.34,0-9.67,4.33-9.67,9.67s4.33,9.67,9.67,9.67h58.02v74.92h-30.23v-44.69c0-5.34-4.33-8.28-9.67-8.28H21.11v52.97h-6.49c-4.86,0-8.8,3.94-8.8,8.8s3.94,8.8,8.8,8.8h440.79c4.86,0,8.8-3.94,8.8-8.8s-3.94-8.8-8.8-8.8Z"/></svg>