<?xml version="1.0" encoding="UTF-8"?><svg id="ds44-icons" xmlns="http://www.w3.org/2000/svg" viewBox="0 0 406.41 377.34"><defs><style>.cls-1{fill:#1d1d1b;}</style></defs><path class="cls-1" d="m354.47,307.45h-75.85v-100.11h26.46c21.9,0,39.71-17.81,39.71-39.7,0-8.16-2.46-16.01-7.13-22.69l-.99-1.41.74-1.56c2.54-5.34,3.82-11.06,3.82-17.01,0-19.77-14.75-36.68-34.32-39.34l-1.64-.22-.67-1.51c-6.39-14.3-20.63-23.54-36.26-23.54-21.55,0-38.97,16.86-39.68,38.41l-.07,1.89-1.75.74c-13.4,5.65-22.64,18.14-24.1,32.6l-.12,1.28-1.02.78c-2.74,2.09-5.15,4.49-7.22,7.13-5.42,6.9-8.42,15.41-8.42,24.45,0,21.89,17.81,39.7,39.71,39.7h29.23v100.1h-30.7v-34.12h-43.6c-3.44,0-6.23.32-6.23,3.76v30.36h-17.9v-48.26h37.37c3.44,0,6.23-2.79,6.23-6.23s-2.79-6.23-6.23-6.23h-87.21c-3.44,0-6.23,2.79-6.23,6.23s2.79,6.23,6.23,6.23h37.37v48.26h-19.47v-28.79c0-3.44-2.79-5.33-6.23-5.33h-43.6v34.12h-4.18c-3.13,0-5.67,2.54-5.67,5.67s2.54,5.67,5.67,5.67h283.93c3.13,0,5.67-2.54,5.67-5.67s-2.54-5.67-5.67-5.67Z"/></svg>