<?xml version="1.0" encoding="UTF-8"?><svg id="ds44-icons" xmlns="http://www.w3.org/2000/svg" viewBox="0 0 459.99 480"><path d="m421.39,8.85H40.19C21.03,8.85,5.5,24.38,5.5,43.54v205.97c0,19.16,15.53,34.69,34.69,34.69h41.79c10.27,9.97,24.22,16.16,39.66,16.16s29.4-6.19,39.66-16.16h97.39c3.81,24.4,21.63,44.03,44.98,50.75,5.57,1.61,11.33,2.74,17.42,2.74s11.85-1.13,17.42-2.74c23.34-6.73,41.17-26.35,44.98-50.75h38.89s.01-.09,0-.11c18.68-.54,33.69-15.77,33.69-34.59V43.53c0-19.15-15.53-34.68-34.68-34.68Zm9.66,137.67v102.98c0,5.33-4.32,9.66-9.66,9.66h-4.48s-.02,0-.03,0h-34.52c-6.85-27.5-31.65-47.9-61.27-47.9s-54.41,20.4-61.27,47.9h-83.67c1.47-5.05,2.5-10.29,2.5-15.82,0-31.48-25.53-57.01-57.01-57.01s-57.01,25.52-57.01,57.01c0,5.53,1.03,10.76,2.5,15.82h-26.95c-5.33,0-9.66-4.32-9.66-9.66V43.53c0-5.33,4.32-9.65,9.66-9.65h381.2c5.33,0,9.66,4.32,9.66,9.65v102.99Z"/><path d="m289.98,139.73l-73.94-62.23s.02-.03.02-.03c-3.29-2.77-8.21-2.35-10.98.94-1.23,1.46-1.83,3.25-1.83,5.02v125.46c0,4.3,3.49,7.79,7.79,7.79,2.18,0,4.15-.9,5.57-2.34l73.95-62.25-4.99-5.93,5.02,5.96c3.29-2.77,3.72-7.69.94-10.98-.46-.55-.99-1.02-1.56-1.41Z"/><path d="m229.69,337.69c-10.93-17.54-29.83-28.71-52.26-28.71h-111.58c-35.54,0-62.35,27.99-62.35,65.09v92.63h167.88v-49.26c0-39.47,23.98-70.7,58.3-79.74Z"/><path d="m408.84,352.25c-7.94-3.17-16.61-5.01-25.89-5.01h-123.71c-8.3,0-16.03,1.65-23.28,4.2-27.19,9.59-45.85,35.49-45.85,67.96v47.28h261.98c0-38.3,0-46,0-46.7,0,.09,0,.23,0,.38v-.96c0-31.46-17.44-56.88-43.24-67.15Z"/></svg>