<?xml version="1.0" encoding="UTF-8"?><svg id="ds44-icons" xmlns="http://www.w3.org/2000/svg" viewBox="0 0 366.22 375.07"><path d="m336.16,4.32H31.25C15.93,4.32,3.5,16.74,3.5,32.07v164.75c0,15.33,12.42,27.74,27.75,27.74h33.43c8.21,7.97,19.37,12.93,31.72,12.93s23.51-4.95,31.72-12.93h77.9c3.05,19.52,17.3,35.22,35.98,40.6,4.45,1.28,9.06,2.19,13.93,2.19s9.48-.91,13.93-2.19c18.67-5.38,32.93-21.08,35.98-40.6h31.11s0-.07,0-.09c14.94-.43,26.94-12.61,26.94-27.67V32.06c0-15.32-12.42-27.74-27.74-27.74Zm7.72,110.12v82.37c0,4.27-3.46,7.73-7.72,7.73h-3.59s-.02,0-.02,0h-27.61c-5.48-21.99-25.31-38.31-49.01-38.31s-43.52,16.32-49.01,38.31h-66.93c1.17-4.04,2-8.23,2-12.65,0-25.18-20.42-45.6-45.6-45.6s-45.6,20.41-45.6,45.6c0,4.42.83,8.61,2,12.65h-21.56c-4.27,0-7.72-3.46-7.72-7.72V32.06c0-4.26,3.46-7.72,7.72-7.72h304.91c4.27,0,7.72,3.46,7.72,7.72v82.38Z"/><path d="m231.05,109.01l-59.14-49.78s.02-.02.02-.02c-2.63-2.22-6.57-1.88-8.78.75-.98,1.17-1.46,2.6-1.46,4.01v100.35c0,3.44,2.79,6.23,6.23,6.23,1.74,0,3.32-.72,4.45-1.87l59.15-49.79-3.99-4.75,4.01,4.77c2.63-2.22,2.97-6.15.75-8.78-.37-.44-.79-.82-1.25-1.13Z"/><path d="m182.83,267.35c-8.74-14.03-23.86-22.97-41.8-22.97H51.78c-28.43,0-49.87,22.38-49.87,52.06v74.09h134.28v-39.4c0-31.57,19.18-56.55,46.64-63.78Z"/><path d="m326.12,279c-6.35-2.53-13.29-4.01-20.71-4.01h-98.96c-6.64,0-12.82,1.32-18.62,3.36-21.75,7.67-36.68,28.39-36.68,54.36v37.82h209.55c0-30.63,0-36.79,0-37.36,0,.07,0,.18,0,.31v-.77c0-25.16-13.95-45.49-34.59-53.72Z"/></svg>