<?xml version="1.0" encoding="utf-8"?>
<!-- Generator: Adobe Illustrator 26.0.3, SVG Export Plug-In . SVG Version: 6.00 Build 0)  -->
<svg version="1.1" id="ds44-icons" xmlns="http://www.w3.org/2000/svg" xmlns:xlink="http://www.w3.org/1999/xlink" x="0px" y="0px"
	 viewBox="0 0 394 416" style="enable-background:new 0 0 394 416;" xml:space="preserve">
<g>
	<path id="Tracé_752" d="M297.6,24.5H97.3c-46,0.1-83.2,37.3-83.3,83.3v133.4c0,39.6,27.9,73.8,66.7,81.8v51.7
		c0,6.2,3.4,11.8,8.8,14.7c5.4,2.9,12,2.6,17.1-0.8l95.9-63.9h95.1c46-0.1,83.3-37.4,83.4-83.4V107.8
		C380.9,61.8,343.6,24.5,297.6,24.5z M347.6,241.3c0,27.6-22.4,50-50,50.1H197.5c-0.5,0-0.9,0.2-1.4,0.3c-1.1,0.1-2.3,0.3-3.4,0.7
		c-1.1,0.3-2.1,0.7-3.1,1.3c-0.5,0.2-0.9,0.3-1.4,0.6l-74.2,49.4v-35.5c0-9.2-7.4-16.7-16.6-16.7c0,0,0,0,0,0
		c-27.6,0-50-22.4-50-50.1V107.8c0.1-27.6,22.4-49.9,50-50h200.3c27.6,0.1,49.9,22.4,50,50L347.6,241.3z"/>
	<path id="Tracé_753" d="M197.5,74.5c-27.6,0-50,22.4-50,50c0,9.2,7.5,16.7,16.7,16.7s16.7-7.5,16.7-16.7c0,0,0,0,0,0
		c0-9.2,7.5-16.7,16.7-16.7c9.2,0,16.7,7.5,16.7,16.7c0,5.3-2.5,10.3-6.8,13.4c-16.2,11.1-26.1,29.3-26.5,48.9v4.4
		c0,9.2,7.5,16.7,16.7,16.7c9.2,0,16.7-7.5,16.7-16.7c0,0,0,0,0,0v-4.4c0.6-8.9,5.4-17.1,12.9-22c22.3-16.3,27.1-47.7,10.8-70
		C228.4,82.1,213.4,74.5,197.5,74.5z"/>
	<circle id="Ellipse_35" cx="197.5" cy="241.3" r="16.7"/>
</g>
</svg>
