<?xml version="1.0" encoding="UTF-8"?><svg id="ds44-icons" xmlns="http://www.w3.org/2000/svg" viewBox="0 0 406.41 480"><defs><style>.cls-1{fill:#1d1d1b;}</style></defs><path class="cls-1" d="m197.51,421.28c69.18,0,131.2-31.14,172.88-80.1l25.37-38.37L10.65,322.98c41,59.33,109.46,98.3,186.87,98.3Z"/><circle class="cls-1" cx="159.29" cy="88.27" r="27.72"/><circle class="cls-1" cx="160.77" cy="247.7" r="13.19"/><path class="cls-1" d="m288.99,254.06l-17.54.61-16.57-47.31c-1.98-5.64-7.39-9.34-13.37-9.13l-29.35,1.02c-5.43-5.78-11.82-10.62-18.91-14.27l-.62-2.01,30.22-1.06c6.38-.22,12.26-4.49,13.54-10.75,1.85-9.08-5.19-16.88-13.84-16.58l-38.29,1.34-6.53-21.1c-1.89-6.1-7.55-10.65-13.92-10.25-9.25.59-14.93,9.44-12.37,17.7l9.09,29.38c.2,1.6.69,3.11,1.39,4.49l.35,1.12c-1.09-.01-2.19,0-3.3.03-3.03.11-6.01.43-8.92.9l-7.36-24.19c-1.14-3.74-4.44-6.68-8.35-6.72-6.48-.07-10.59,5.94-8.88,11.58l7.45,24.48c-25.11,11.27-42.18,36.92-41.08,66.14,1.38,36.78,32.42,66.87,69.23,67.02,39.75.16,71.31-32.7,69.94-72.06-.22-6.41-1.33-12.58-3.16-18.42l4.58-.16,16.57,47.31c1.98,5.64,7.39,9.34,13.37,9.14l28.24-.99c8.64-.3,15.13-8.57,12.65-17.5-1.71-6.15-7.87-10-14.25-9.78Zm-125.81,43.53c-28,.98-51.49-20.93-52.47-48.93-.98-28,20.93-51.49,48.93-52.47,28-.98,51.49,20.93,52.47,48.93.98,28-20.93,51.49-48.93,52.47Z"/></svg>