<?xml version="1.0" encoding="UTF-8"?><svg id="ds44-icons" xmlns="http://www.w3.org/2000/svg" viewBox="0 0 389.66 346.05"><path d="m387.39,226.65l-25.37,38.38c-41.68,48.96-103.69,80.1-172.88,80.1-77.41,0-145.87-38.97-186.87-98.3l385.12-20.18Z"/><circle cx="226.02" cy="48.21" r="22.11"/><circle cx="227.2" cy="175.39" r="10.52"/><path d="m329.48,180.46l-13.99.49-13.22-37.74c-1.58-4.5-5.9-7.45-10.66-7.29l-23.41.82c-4.33-4.61-9.43-8.47-15.08-11.39l-.5-1.6,24.11-.84c5.09-.18,9.78-3.58,10.8-8.57,1.48-7.24-4.14-13.46-11.04-13.22l-30.55,1.07-5.21-16.83c-1.51-4.86-6.02-8.5-11.1-8.17-7.38.47-11.91,7.53-9.87,14.12l7.25,23.44c.16,1.28.55,2.48,1.11,3.58l.28.89c-.87-.01-1.75,0-2.63.03-2.42.08-4.79.34-7.12.72l-5.87-19.3c-.91-2.98-3.54-5.33-6.66-5.36-5.17-.06-8.45,4.74-7.08,9.23l5.95,19.53c-20.03,8.99-33.64,29.45-32.77,52.76,1.1,29.34,25.86,53.35,55.22,53.46,31.71.13,56.89-26.09,55.79-57.48-.18-5.12-1.06-10.04-2.52-14.7l3.66-.13,13.22,37.74c1.58,4.5,5.9,7.45,10.66,7.29l22.53-.79c6.89-.24,12.07-6.84,10.09-13.96-1.36-4.91-6.28-7.98-11.37-7.8Zm-100.36,34.72c-22.34.78-41.08-16.69-41.86-39.03-.78-22.34,16.69-41.08,39.03-41.86,22.34-.78,41.08,16.69,41.86,39.03.78,22.34-16.69,41.08-39.03,41.86Z"/><path d="m122.19,43.93c-15.1,4.54-29.75-7.33-28.45-23.05.72-8.73,6.99-16.47,15.38-18.99,15.1-4.54,29.75,7.33,28.45,23.04-.72,8.73-6.99,16.47-15.38,18.99Z"/><path d="m39.59,120.75l38.97-60.24c.11-.18.22-.36.34-.53.92-1.33,9.2-13.63,24.8-12,13.99,1.46,24.79,2.34,30.69,12.13,5.46,9.05,12.17,24.82,14.89,30.45l30.73,16.31c4.77,2.94,6.26,9.18,3.33,13.96h0c-1.72,2.79-4.56,4.46-7.59,4.78-2.15.23-4.38-.23-6.37-1.45l-33.27-17.88c-1.67-1.03-3.01-2.53-3.85-4.3-.07-.14-5.54-13.02-11.02-23.7l-6.01,45.18,39.19,35.01c1.55,1.28,2.69,2.99,3.26,4.92l13.14,49.83c1.61,5.36-1.44,11.02-6.81,12.62-.62.18-1.24.31-1.86.37-4.76.5-9.35-2.43-10.77-7.18l-13.89-46.42-7.1-5.85-32.56,8.89-.73,6.93c-.14,1.13-.47,2.23-.98,3.25l-23.2,45.04c-2.5,5.01-8.59,7.05-13.6,4.56-5.02-2.5-7.36-8.83-4.87-13.85l21.91-43.16,2.7-56,7.45-36.84-29.56,45.69c-2.9,4.8-9.13,6.34-13.93,3.44-4.8-2.9-6.34-9.13-3.44-13.93Z"/><path d="m189.14,345.12c69.18,0,131.2-31.14,172.88-80.1l25.37-38.38L2.27,246.83c41,59.33,109.45,98.3,186.87,98.3Z"/></svg>