<?xml version="1.0" encoding="UTF-8"?><svg id="ds44-icons" xmlns="http://www.w3.org/2000/svg" viewBox="0 0 483.43 480"><path d="m475.06,311.07l-30.74,46.51c-50.51,59.33-125.66,97.07-209.5,97.07-93.81,0-176.76-47.23-226.45-119.12l466.7-24.46Z"/><circle cx="279.52" cy="94.83" r="26.79"/><circle cx="280.94" cy="248.95" r="12.75"/><path d="m404.89,255.1l-16.96.59-16.02-45.74c-1.91-5.45-7.15-9.03-12.92-8.83l-28.37.99c-5.25-5.58-11.42-10.26-18.28-13.8l-.6-1.94,29.22-1.02c6.17-.22,11.85-4.34,13.09-10.39,1.79-8.78-5.02-16.32-13.38-16.02l-37.02,1.29-6.31-20.4c-1.82-5.9-7.3-10.3-13.46-9.91-8.94.57-14.43,9.12-11.96,17.11l8.79,28.41c.19,1.55.66,3.01,1.34,4.34l.34,1.08c-1.06-.01-2.12,0-3.19.03-2.93.1-5.81.41-8.63.87l-7.12-23.38c-1.1-3.62-4.29-6.46-8.07-6.5-6.27-.07-10.24,5.75-8.58,11.19l7.21,23.67c-24.27,10.9-40.77,35.69-39.72,63.93,1.33,35.56,31.34,64.65,66.92,64.79,38.43.15,68.94-31.61,67.61-69.66-.22-6.2-1.28-12.17-3.05-17.81l4.43-.15,16.02,45.74c1.91,5.45,7.15,9.03,12.92,8.83l27.3-.95c8.35-.29,14.62-8.28,12.23-16.92-1.65-5.95-7.61-9.67-13.78-9.45Zm-121.62,42.08c-27.07.95-49.78-20.23-50.72-47.3-.95-27.07,20.23-49.78,47.3-50.72,27.07-.95,49.78,20.23,50.72,47.3.95,27.07-20.23,49.78-47.3,50.72Z"/><path d="m153.69,89.65c-18.3,5.5-36.06-8.88-34.48-27.93.88-10.58,8.47-19.96,18.64-23.01,18.3-5.5,36.06,8.88,34.48,27.93-.88,10.58-8.47,19.96-18.64,23.01Z"/><path d="m53.59,182.74l47.22-73c.13-.22.27-.43.42-.64,1.12-1.61,11.15-16.52,30.06-14.55,16.96,1.77,30.04,2.84,37.19,14.7,6.61,10.97,14.75,30.08,18.04,36.89l37.24,19.76c5.78,3.56,7.58,11.12,4.03,16.91h0c-2.08,3.38-5.53,5.4-9.2,5.79-2.6.27-5.31-.28-7.72-1.76l-40.32-21.66c-2.03-1.25-3.65-3.06-4.67-5.21-.08-.17-6.72-15.78-13.36-28.72l-7.29,54.75,47.5,42.43c1.88,1.55,3.26,3.63,3.95,5.96l15.92,60.38c1.95,6.5-1.74,13.35-8.25,15.3-.75.22-1.5.37-2.25.45-5.76.61-11.33-2.95-13.05-8.71l-16.83-56.25-8.6-7.09-39.46,10.77-.89,8.39c-.17,1.37-.57,2.7-1.19,3.94l-28.12,54.58c-3.03,6.08-10.41,8.55-16.48,5.53-6.08-3.03-8.92-10.7-5.9-16.78l26.55-52.31,3.27-67.87,9.03-44.64-35.83,55.37c-3.51,5.81-11.06,7.68-16.88,4.17-5.81-3.51-7.68-11.07-4.17-16.88Z"/><path d="m234.82,454.64c83.84,0,158.99-37.74,209.5-97.07l30.74-46.51L8.37,335.52c49.69,71.89,132.64,119.12,226.45,119.12Z"/></svg>