<?xml version="1.0" encoding="UTF-8"?><svg id="ds44-icons" xmlns="http://www.w3.org/2000/svg" viewBox="0 0 480.08 480"><path d="m233.25,461.34c82.57,0,156.58-37.17,206.33-95.6l30.28-45.8L10.23,344.02c48.93,70.8,130.63,117.31,223.02,117.31Z"/><circle cx="187.64" cy="63.91" r="33.08"/><circle cx="189.4" cy="254.18" r="15.74"/><path d="m342.42,261.77l-20.94.73-19.77-56.47c-2.36-6.73-8.82-11.15-15.95-10.9l-35.03,1.22c-6.48-6.89-14.1-12.67-22.57-17.04l-.74-2.4,36.07-1.26c7.61-.27,14.63-5.36,16.15-12.83,2.21-10.84-6.2-20.14-16.51-19.78l-45.7,1.6-7.79-25.18c-2.25-7.28-9.01-12.72-16.61-12.23-11.04.71-17.81,11.26-14.76,21.12l10.85,35.07c.24,1.92.82,3.72,1.66,5.36l.41,1.34c-1.31-.02-2.62,0-3.94.04-3.62.13-7.17.51-10.65,1.08l-8.79-28.87c-1.36-4.46-5.3-7.97-9.97-8.02-7.74-.09-12.64,7.09-10.6,13.82l8.9,29.22c-29.96,13.45-50.34,44.06-49.03,78.93,1.64,43.9,38.69,79.81,82.62,79.99,47.44.19,85.11-39.03,83.47-86-.27-7.65-1.58-15.02-3.77-21.99l5.47-.19,19.77,56.46c2.36,6.73,8.82,11.15,15.95,10.9l33.7-1.18c10.31-.36,18.05-10.23,15.09-20.89-2.04-7.34-9.4-11.93-17.01-11.67Zm-150.15,51.95c-33.42,1.17-61.45-24.98-62.62-58.39-1.17-33.42,24.98-61.45,58.39-62.62,33.42-1.17,61.45,24.98,62.62,58.39,1.17,33.42-24.98,61.45-58.39,62.62Z"/></svg>