<?xml version="1.0" encoding="UTF-8"?><svg id="ds44-icons" xmlns="http://www.w3.org/2000/svg" viewBox="0 0 328.27 480"><path d="m322.56,437.57l-16.65-92.56c-2.45-13.22-14.2-23.02-27.42-23.02h-32.81c32.81-69.54,60.72-139.08,60.72-174.34,0-78.35-63.66-142.51-142.51-142.51S21.38,68.82,21.38,147.66c0,35.26,27.91,104.8,60.72,174.34h-32.81c-13.71,0-24.98,9.79-27.42,23.02l-16.16,92.56c-2.94,17.14,10.28,32.81,27.42,32.81h262c17.14,0,30.36-15.67,27.42-32.81ZM163.89,38.45c60.23,0,108.72,48.97,108.72,108.72,0,33.3-35.75,121.45-97.45,241.92-3.43,6.37-8.81,6.86-11.26,6.86s-8.33-.49-11.26-6.86c-62.19-120.47-97.45-208.62-97.45-241.43,0-60.23,48.48-109.21,108.72-109.21Z"/><circle cx="163.89" cy="147.66" r="58.77"/></svg>