<?xml version="1.0" encoding="UTF-8"?><svg id="ds44-icons" xmlns="http://www.w3.org/2000/svg" viewBox="0 0 267.99 397.4"><path d="m266.33,365.6l-13.91-77.31c-2.05-11.04-11.86-19.23-22.91-19.23h-27.41c27.41-58.09,50.73-116.18,50.73-145.63,0-65.45-53.18-119.04-119.04-119.04S14.75,57.57,14.75,123.43c0,29.45,23.32,87.54,50.73,145.63h-27.41c-11.45,0-20.86,8.18-22.91,19.23L1.66,365.6c-2.45,14.32,8.59,27.41,22.91,27.41h218.85c14.32,0,25.36-13.09,22.91-27.41ZM133.79,32.2c50.32,0,90.81,40.91,90.81,90.81,0,27.82-29.86,101.45-81.41,202.08-2.86,5.32-7.36,5.73-9.41,5.73s-6.95-.41-9.41-5.73C72.43,224.47,42.98,150.84,42.98,123.43c0-50.32,40.5-91.22,90.81-91.22Z"/><circle cx="133.79" cy="123.43" r="49.09"/></svg>