<?xml version="1.0" encoding="utf-8"?>
<!-- Generator: Adobe Illustrator 25.3.1, SVG Export Plug-In . SVG Version: 6.00 Build 0)  -->
<svg version="1.1" id="ds44-icons" xmlns="http://www.w3.org/2000/svg" xmlns:xlink="http://www.w3.org/1999/xlink" x="0px" y="0px"
	 viewBox="0 0 406.4 480" style="enable-background:new 0 0 406.4 480;" xml:space="preserve">
<g>
	<path d="M214.5,84.3H85.9c-8.3,0-15,6.7-15,15v72.4c0,8.3,6.7,15,15,15h128.5c8.3,0,15-6.7,15-15V99.3
		C229.5,91.1,222.8,84.3,214.5,84.3z M199.5,156.8h-98.5v-42.4h98.5V156.8z"/>
	<path d="M382.5,119.9c-13.7-21.5-35.6-46.3-65.2-73.7c-5.7-5.3-14.6-5.3-20.3-0.1l-17,15.6c-3,2.7-4.7,6.5-4.9,10.5
		c-0.2,4,1.3,7.9,4,10.8l40.6,43.7c0,15.8,2.2,50.6,21.4,65.9c3.3,2.6,7.8,5.3,13.6,6.6v78.5c0,18.9-10.2,27.3-20.3,27.3
		c-8.9,0-19.2-6.9-19.2-26.3v-69.2c0-21.1-8.6-33.3-15.8-39.8c-7.8-7.1-17-10.4-24.7-11.9V67.2c0-19.7-16-35.7-35.7-35.7H61.4
		c-19.7,0-35.7,16-35.7,35.7v302.3c-10.9,6.1-18.4,17.8-18.4,31.2v32.7c0,8.3,6.7,15,15,15h255.8c8.3,0,15-6.7,15-15v-32.7
		c0-13.4-7.4-25.1-18.4-31.2V189c1.6,0.7,3.2,1.7,4.6,2.9c3.9,3.5,5.9,9.4,5.9,17.6v69.2c0,21.1,8,34.1,14.7,41.3
		c9,9.7,21.3,15.1,34.5,15.1c13.2,0,26-5.6,35.2-15.4c6.9-7.4,15.1-20.6,15.1-41.9v-84.2c6.7-4.5,11.3-11.1,13.3-19.3
		C401.5,159.9,396.3,141.6,382.5,119.9z M55.7,67.2c0-3.1,2.5-5.7,5.7-5.7h177.7c3.1,0,5.7,2.5,5.7,5.7v104.4c0,0,0,0,0,0V365H55.7
		V67.2z M263.1,418.4H37.3v-17.7c0-3.1,2.5-5.7,5.7-5.7h214.4c3.1,0,5.7,2.5,5.7,5.7V418.4z M349.7,125.1
		c21.7,29.4,19.3,41.4,19.1,42.1c-0.2,0.8-0.4,1.6-3.2,2.4c-4,1.1-5.2,0.1-5.9-0.4C352.7,163.5,349.5,141.1,349.7,125.1z"/>
</g>
</svg>
