<?xml version="1.0" encoding="utf-8"?>
<!-- Generator: Adobe Illustrator 26.0.3, SVG Export Plug-In . SVG Version: 6.00 Build 0)  -->
<svg version="1.1" id="ds44-icons" xmlns="http://www.w3.org/2000/svg" xmlns:xlink="http://www.w3.org/1999/xlink" x="0px" y="0px"
	 viewBox="0 0 406.4 480" style="enable-background:new 0 0 406.4 480;" xml:space="preserve">
<g>
	<path d="M173.9,319.8C173.9,319.8,173.9,319.8,173.9,319.8c3.8,0,7.6-1,10.8-3l98-58.8c9.9-6,13.2-18.9,7.2-28.8
		c-1.8-2.9-4.3-5.4-7.2-7.2l-98-58.8c-4.8-2.9-10.4-3.7-15.9-2.4c-5.4,1.4-10,4.8-12.9,9.6c-2,3.3-3,7-3,10.8v117.5
		c0,5.6,2.2,10.9,6.1,14.8S168.2,319.7,173.9,319.8L173.9,319.8z M194.8,261.7v-43.4L231,240L194.8,261.7z"/>
	<path d="M203.2,42.7c-26.1-0.1-51.5,5-75.6,14.9s-45.6,24.4-64,42.9C59.2,105,53.5,111,47.9,117v-24c0-11.6-9.4-21-21-21
		c-11.6,0-21,9.4-21,21v79.5c0,0.4,0,1.1,0.2,2c0,0.2,0.1,0.4,0.1,0.6c0,0.2,0.1,0.5,0.1,0.7c0.1,0.6,0.3,1.1,0.4,1.4
		c0.1,0.3,0.2,0.7,0.3,1c0.1,0.3,0.2,0.6,0.3,0.8c0.1,0.3,0.3,0.7,0.5,1.1l0.1,0.2c0.1,0.2,0.2,0.4,0.3,0.6c0.2,0.4,0.4,0.7,0.6,1.1
		l0.4,0.6l0.9,1.3c0.2,0.2,0.3,0.4,0.5,0.7l0.1,0.1c0.1,0.2,0.3,0.4,0.5,0.6c0.3,0.3,0.5,0.6,0.8,0.9l0.1,0.1
		c0.1,0.1,0.3,0.3,0.5,0.5c0.2,0.2,0.4,0.4,0.6,0.6l0.3,0.3c0.2,0.2,0.5,0.4,0.7,0.6l0.2,0.1c0.3,0.2,0.5,0.4,0.7,0.5
		c0.3,0.2,0.6,0.4,1,0.6c0.3,0.2,0.6,0.4,1,0.6l0.8,0.4c0.3,0.2,0.6,0.3,1,0.5c0.3,0.1,0.6,0.2,1,0.4c0.3,0.1,0.6,0.2,0.9,0.3
		l0.8,0.2l2.6,0.6H24c0.1,0,0.2,0,0.3,0c0.4,0.1,0.9,0.1,1.3,0.1l79.6,0c11.6,0,21-9.4,21-21s-9.4-21-21-21H74.1
		c8.3-9,14.8-15.8,19.2-20.3c28.8-28.9,68.6-45.4,109.4-45.4c0.2,0,0.3,0,0.5,0c85.7,0,155.3,69.7,155.3,155.3
		c0,85.7-69.7,155.3-155.4,155.3c-0.1,0-0.3,0-0.4,0c-40.8,0-80.6-16.6-109.4-45.5c-8.2-8.2-21.5-8.2-29.7,0c-4,4-6.1,9.2-6.1,14.8
		s2.2,10.9,6.1,14.8c18.4,18.5,39.9,32.9,64,42.9c23.9,9.9,49.1,14.9,75,14.9c0.2,0,0.4,0,0.5,0c108.8,0,197.3-88.5,197.3-197.3
		C400.5,131.2,312,42.7,203.2,42.7z"/>
</g>
</svg>
