<svg id="ds44-icons" xmlns="http://www.w3.org/2000/svg" viewBox="0 0 406.4 480"><path d="M176,307a12.45,12.45,0,0,0,6.43-1.78l90.83-54.5a12.5,12.5,0,0,0,0-21.44l-90.83-54.5a12.5,12.5,0,0,0-18.93,10.72v109A12.49,12.49,0,0,0,176,307Zm12.5-99.42,54,32.42-54,32.42Z"/><path d="M203.2,64A174.85,174.85,0,0,0,78.75,115.55c-6.88,6.87-17.2,18-26.55,28.29V103.75a12.5,12.5,0,1,0-25,0v72.67c0,.11,0,.23,0,.34s0,.45,0,.67,0,.4.07.6a5.58,5.58,0,0,0,.09.59,5.84,5.84,0,0,0,.13.63c0,.19.09.37.14.55s.12.42.19.62.13.37.2.55.15.38.24.57.17.37.26.55.18.35.28.52l.33.55.32.47c.13.17.25.34.39.51s.25.32.38.47.27.3.41.44.31.32.48.47a2.72,2.72,0,0,0,.24.24l.17.14c.17.15.36.29.54.43s.29.23.44.33a6.65,6.65,0,0,0,.56.36c.16.1.32.21.49.3l.56.29c.18.09.35.18.54.26s.38.15.57.22.37.15.56.21l.6.17.58.15.59.11c.21,0,.42.07.63.09a5.48,5.48,0,0,0,.57.05l.68,0h72.89a12.5,12.5,0,0,0,0-25H67.74c9.9-10.91,21.46-23.47,28.69-30.69A150,150,0,0,1,203.2,89c83.26,0,151,67.74,151,151s-67.74,151-151,151A150,150,0,0,1,96.43,346.77a12.5,12.5,0,0,0-17.68,17.68A174.85,174.85,0,0,0,203.2,416c97.05,0,176-78.95,176-176S300.25,64,203.2,64Z"/></svg>