<?xml version="1.0" encoding="utf-8"?>
<!-- Generator: Adobe Illustrator 26.0.3, SVG Export Plug-In . SVG Version: 6.00 Build 0)  -->
<svg version="1.1" id="ds44-icons" xmlns="http://www.w3.org/2000/svg" xmlns:xlink="http://www.w3.org/1999/xlink" x="0px" y="0px"
	 viewBox="0 0 450 480" style="enable-background:new 0 0 450 480;" xml:space="preserve">
<g>
	<g>
		<path d="M410.9,167.2l29.1-14.7L225,43.9L10,152.5l70.9,35.8V357c0,22.9,16.3,43.7,45.8,58.5c26.5,13.2,61.4,20.5,98.3,20.5
			c36.9,0,71.8-7.3,98.3-20.5c29.6-14.8,45.8-35.5,45.8-58.5V188.3l13.9-7v56.6c-2.9,3.3-4.6,7.6-4.6,12.3
			c0,10.3,8.3,18.6,18.6,18.6c10.3,0,18.6-8.3,18.6-18.6c0-4.7-1.8-9-4.6-12.3L410.9,167.2L410.9,167.2z M310.8,390.6
			c-22.7,11.3-53.2,17.6-85.8,17.6s-63.1-6.2-85.8-17.6c-19.3-9.7-30.4-21.9-30.4-33.5V202.4L225,261.1l116.2-58.7V357l0,0
			C341.2,368.7,330.1,380.9,310.8,390.6z M225,229.9L71.9,152.5L225,75.2l153.1,77.3L225,229.9z"/>
	</g>
</g>
</svg>
