<svg id="ds44-icons" xmlns="http://www.w3.org/2000/svg" viewBox="0 0 450 480"><path d="M362.5,334q27.92,0,47.27,19.88T429.1,400.6q0,27.94-19.87,47.8T362.5,468.27q-26.87,0-46.73-19.87T295.9,400.6q0-10.73,1.07-15L134.77,291Q114.34,309.3,87.5,309.29q-27.94,0-48.34-20.41T18.75,240.54q0-27.93,20.41-48.34T87.5,171.79q26.84,0,47.27,18.26L295.9,96.59q-2.16-10.73-2.15-16.11,0-27.93,20.41-48.34T362.5,11.73q27.92,0,48.34,20.41t20.41,48.34q0,27.94-20.41,48.34T362.5,149.23q-25.78,0-47.27-19.34L154.1,224.42q2.15,10.76,2.15,16.12t-2.15,16.11l163.28,94.53A65.83,65.83,0,0,1,362.5,334Z"/></svg>