<?xml version="1.0" encoding="utf-8"?>
<!-- Generator: Adobe Illustrator 27.5.0, SVG Export Plug-In . SVG Version: 6.00 Build 0)  -->
<svg version="1.1" id="Capa_1" xmlns="http://www.w3.org/2000/svg" xmlns:xlink="http://www.w3.org/1999/xlink" x="0px" y="0px"
	 viewBox="0 0 478.7 400" style="enable-background:new 0 0 478.7 400;" xml:space="preserve">
<style type="text/css">
	.st0{fill:#181716;}
</style>
<g id="Calque_9">
	<polygon class="st0" points="158.4,300.4 161.1,252.2 156,241.7 114.1,261.7 119.1,272.2 	"/>
	<path class="st0" d="M47.8,14.4c-3.7-7.5-11-12.5-19.3-13.2c-8.3-0.5-16.3,3.3-21,10.2c-4.7,6.9-5.3,15.7-1.7,23.3l1.7,3.1l42-19.6
		L47.8,14.4L47.8,14.4z"/>
	<polygon class="st0" points="107,246.7 148.9,226.7 104.7,133.8 56.5,32.8 14.6,52.8 50.1,127.3 	"/>
	<path class="st0" d="M464.9,138.7H125.4l42.1,88.4L177,247l0,0c0.6,1.2,0.9,2.7,0.8,4l-3.2,56.7h33.8c4.6,0,8.2,3.7,8.2,8.2
		s-3.7,8.2-8.2,8.2H92c-4.6,0-8.2-3.7-8.2-8.2s3.7-8.2,8.2-8.2h48.4l-32.5-23.4c-1.1-0.8-2-1.9-2.6-3.1L96,261.6L38.2,139.2H27
		c-5.7,0-10.3,4.6-10.5,10.2v238.8c0,5.8,4.7,10.5,10.5,10.5h437.8c5.8,0,10.5-4.8,10.5-10.5V149.4c0-5.8-4.5-10.4-10.3-10.5
		L464.9,138.7L464.9,138.7z M409,249.5H278.9c-7.4,0-13.5-6-13.5-13.5s6.1-13.5,13.5-13.5H409c7.4,0,13.5,6,13.5,13.5
		S416.4,249.5,409,249.5z M409,202.1H278.9c-7.4,0-13.5-6-13.5-13.5s6.1-13.5,13.5-13.5H409c7.4,0,13.5,6.1,13.5,13.5
		S416.4,202.1,409,202.1z"/>
</g>
</svg>
