<?xml version="1.0" encoding="UTF-8"?><svg id="Capa_1" xmlns="http://www.w3.org/2000/svg" viewBox="0 0 506.69 512"><defs><style>.cls-1{fill:#181716;}</style></defs><g id="Calque_9"><polygon class="cls-1" points="172.37 356.4 175.14 308.25 170.04 297.71 128.1 317.68 133.09 328.22 172.37 356.4"/><path class="cls-1" d="m61.75,70.38c-3.66-7.54-10.98-12.54-19.3-13.2-8.32-.55-16.31,3.33-20.97,10.21-4.66,6.88-5.33,15.75-1.66,23.3l1.66,3.11,42.05-19.64s-1.78-3.77-1.78-3.77Z"/><polygon class="cls-1" points="121 302.7 162.94 282.73 118.67 189.76 70.52 88.8 28.58 108.77 64.08 183.32 121 302.7"/><path class="cls-1" d="m478.92,194.75H139.42l42.05,88.43,9.54,19.86h0c.55,1.22.89,2.66.78,3.99l-3.22,56.69h33.84c4.55,0,8.21,3.66,8.21,8.21s-3.66,8.21-8.21,8.21h-116.38c-4.55,0-8.21-3.66-8.21-8.21s3.66-8.21,8.21-8.21h48.37l-32.51-23.41c-1.11-.78-2-1.89-2.55-3.11l-9.32-19.64-57.8-122.38h-11.21c-5.66,0-10.32,4.55-10.54,10.21v238.76c0,5.77,4.66,10.54,10.54,10.54h437.8c5.77,0,10.54-4.77,10.54-10.54v-238.76c0-5.77-4.55-10.43-10.32-10.54l-.11-.11Zm-55.92,110.73h-130.14c-7.43,0-13.54-5.99-13.54-13.54s6.1-13.54,13.54-13.54h130.14c7.43,0,13.54,5.99,13.54,13.54s-6.1,13.54-13.54,13.54Zm0-47.37h-130.14c-7.43,0-13.54-5.99-13.54-13.54s6.1-13.54,13.54-13.54h130.14c7.43,0,13.54,6.1,13.54,13.54s-6.1,13.54-13.54,13.54Z"/></g></svg>