<?xml version="1.0" encoding="utf-8"?>
<!-- Generator: Adobe Illustrator 25.1.0, SVG Export Plug-In . SVG Version: 6.00 Build 0)  -->
<svg version="1.0" id="ds44-icons" xmlns="http://www.w3.org/2000/svg" xmlns:xlink="http://www.w3.org/1999/xlink" x="0px" y="0px"
	 viewBox="0 0 466.4 480" enable-background="new 0 0 466.4 480" xml:space="preserve">
<g>
	<path d="M459.5,238.4c-0.6-9.1-7.5-16.5-16.5-17.5l-0.7,0c-10.3,0-18.7,8.4-18.7,18.7c-0.2,50.5-20,97.8-55.8,133.3
		c-35.6,35.4-82.9,54.8-133.1,54.8c-0.2,0-0.5,0-0.7,0c-50.4-0.2-97.7-20.1-133.3-55.9C65.1,336,45.7,288.5,45.8,238
		c0.2-50,19.7-97.1,55.1-132.6c35.3-35.4,82.3-55.2,132.3-55.6h12c4.6,0.3,9.1-1.1,12.7-4.1c3.7-3.1,5.9-7.4,6.2-12.1l0-1.3
		c0.7-10-6.8-18.9-16.8-19.9l-14.1,0c-60.4,0-117.2,23.6-160,66.4c-42.8,42.8-66.3,99.6-66.3,160c0,60.5,23.5,117.3,66.3,160
		c42.7,42.7,99.6,66.3,160,66.3s117.3-23.5,160-66.3c42.7-42.7,66.3-99.6,66.3-160L459.5,238.4z"/>
	<path d="M295.7,60.3l0.2,0.1c40,14,74.7,41.3,97.6,77l0.1,0.1c3.5,5.3,9.4,8.5,15.6,8.5c3.6,0,7.1-1.1,10.1-3
		c4.2-2.7,7.1-6.9,8.2-11.8c1.1-4.9,0.2-9.9-2.5-14.1c-27.1-42.6-68.5-75.3-116.3-92c-9.2-3.3-19.2,1.1-23.1,9.7l-0.2,0.2l-0.5,1.4
		C281.5,46,286.2,56.5,295.7,60.3z"/>
	<path d="M160.7,327.8l-0.1,0.1c-1.9,5.1-1.9,10.7,0,15.7l0.2,0.5c2.5,5.2,6.9,9,12.3,10.8c2.5,0.9,5,1.3,7.6,1.3
		c2.6,0,5.1-0.4,7.6-1.3c5.1-1.7,9.3-5.4,11.8-10.2l105-193.6l0.2-1.1c0.2-1.2,0.2-2.5,0-3.7c0-0.1,0-0.2,0-0.2
		c1.2-5.2,0.4-10.5-2.3-14.9c-2.8-4.7-7.2-8.1-12.6-9.5c-4.7-1.4-9.7-1.4-14.4,0c-5.1,1.6-9.4,5-11.9,9.7L162.3,323.9L160.7,327.8z"
		/>
	<path d="M319.1,256l-0.2-0.1c-7.2-3.1-14.8-4.6-22.6-4.5c-7.7-0.2-15.6,1.4-22.7,4.5c-6.5,2.9-12.2,7.1-17,12.7l-0.1,0.1
		c-4.4,5.3-7.8,11.6-10.2,18.6l-0.1,0.2c-2.2,7.2-3.3,14.6-3.2,22.2c-0.1,7.3,1,14.8,3.2,22.4c2.1,6.8,5.4,13.1,10,18.7
		c4.6,5.5,10.5,9.9,17,12.8c7.2,3.2,15.1,4.8,22.9,4.7c0.2,0,0.5,0,0.7,0c7.7,0,15.1-1.6,22-4.7c6.5-2.9,12.2-7.1,17-12.7l0.1-0.1
		c4.5-5.4,7.9-11.7,10.2-18.4l0.1-0.2c2.2-7.2,3.3-14.8,3.2-22.4c0.1-7.6-1-15-3.2-22.2c-2.2-6.8-5.6-13.1-10.3-18.8
		C331.5,263.4,325.7,259,319.1,256z M284.8,308.9c-0.2-5,0.9-9.8,3.3-13.9c1.9-2.4,4.9-3.7,8-3.5l0.4,0l0.4,0
		c3.1-0.2,5.9,1.1,7.6,3.5c2.5,4.2,3.8,9.1,3.5,13.9l0,0.3l0,0.3c0.3,4.9-0.7,9.6-2.7,13.8l-0.8,1.2c-1.7,2.5-4.6,3.9-7.5,3.7
		l-0.5,0l-0.5,0c-3,0.2-5.9-1.1-7.7-3.6c-2.5-4.6-3.7-9.9-3.4-15.1l0-0.3L284.8,308.9z"/>
	<path d="M172.1,227.5c7.4,0,14.9-1.6,21.7-4.5c6.5-2.9,12.2-7.1,17-12.7l0.1-0.1c4.5-5.5,7.8-11.7,9.9-18.5
		c2.4-7.3,3.6-14.9,3.5-22.7c0.1-7.6-1.1-15.1-3.5-22.2c-2.1-6.8-5.4-13-10-18.6c-4.6-5.5-10.5-9.9-17-12.8
		c-14.8-6.5-31.7-6.5-46.5,0c-6.6,2.9-12.5,7.3-17.2,12.8c-4.7,5.6-8.1,11.9-10,18.8l-0.1,0.6c-1.3,6.9-1.6,14.2-0.9,21.7
		c-0.1,7.7,1.1,15.3,3.5,22.5c2.2,6.8,5.6,13,10.1,18.4c3.7,5,8.4,9.2,14,12.5l0.4,0.2l0.4,0.2c7.1,3,14.9,4.6,22.7,4.5
		C170.8,227.5,171.5,227.5,172.1,227.5z M179.2,154c2.5,4.1,3.7,9,3.4,13.9l0,0.4l0,0.4c0.3,5.3-0.9,10.5-3.5,15.2
		c-1.7,2.4-4.5,3.7-7.4,3.5l-0.5,0l-0.5,0c-3,0.2-5.9-1.1-7.7-3.5c-2.5-4.7-3.7-9.9-3.5-15.1l0-0.1l0-0.7c-0.3-4.9,0.9-9.7,3.4-13.9
		c1.7-2.4,4.7-3.7,7.7-3.5l0.5,0l0.5,0C174.6,150.3,177.5,151.6,179.2,154z"/>
</g>
</svg>
