<?xml version="1.0" encoding="utf-8"?>
<!-- Generator: Adobe Illustrator 25.1.0, SVG Export Plug-In . SVG Version: 6.00 Build 0)  -->
<svg version="1.0" id="ds44-icons" xmlns="http://www.w3.org/2000/svg" xmlns:xlink="http://www.w3.org/1999/xlink" x="0px" y="0px"
	 viewBox="0 0 466.4 480" enable-background="new 0 0 466.4 480" xml:space="preserve">
<g id="Calque_2_2_" transform="translate(1 1)">
	<g id="Calque_1_1_">
		<path id="Tracé_2523" d="M448.9,225.9c-7,0-12.7,5.7-12.7,12.7c-0.4,111.9-91.4,202.2-203.3,201.8
			C121.1,439.9,30.8,348.9,31.2,237c0.4-111,90.1-200.9,201-201.8h12.7c6.4,0.6,12.1-4.2,12.6-10.6c0-0.4,0-0.7,0-1.1
			c0.6-6.9-4.5-13-11.4-13.7h-13.9C106.4,9.9,4.3,111.9,4.3,237.8s102,227.9,227.9,227.9s227.9-102,227.9-227.9
			C459.7,231.6,455,226.6,448.9,225.9z"/>
		<path id="Tracé_2524" d="M299.5,46.4c43.1,15.1,79.9,44.1,104.6,82.5c2.4,3.6,6.3,5.8,10.6,5.8c2.4,0,4.8-0.7,6.8-2
			c5.9-3.8,7.6-11.6,3.8-17.5c-27.5-43.2-68.8-75.8-117.2-92.7c-6.4-2.3-13.6,1-15.9,7.4c0,0.1,0,0.1-0.1,0.2
			C289.8,36.7,293.1,43.9,299.5,46.4z"/>
		<path id="Tracé_2525" d="M163.3,332.5c-1.4,3.8-1.4,7.9,0,11.6c1.8,3.7,5,6.5,8.9,7.8c3.7,1.3,7.7,1.3,11.4,0
			c3.7-1.2,6.7-3.9,8.4-7.3l108.4-199.8c0.1-0.6,0.1-1.2,0-1.8c-0.1-0.8-0.1-1.5,0-2.3c1-3.7,0.5-7.6-1.5-10.9
			c-2-3.4-5.3-5.8-9.1-6.8c-3.6-1.1-7.5-1.1-11.1,0c-3.6,1.1-6.6,3.5-8.4,6.8L164.6,329.2L163.3,332.5z"/>
		<path id="Tracé_2526" d="M308.1,251.4c-6.6-2.8-13.6-4.2-20.8-4.1c-7.1-0.2-14.2,1.2-20.8,4.1c-5.9,2.6-11,6.5-15.2,11.4
			c-4.2,5.1-7.3,11-9.4,17.2c-2.1,6.8-3.1,13.9-3,21c-0.1,7.2,1,14.4,3,21.3c1.9,6.2,5,12,9.1,17c4.1,4.9,9.3,8.8,15.2,11.4
			c6.6,2.9,13.8,4.4,21,4.3c7.2,0.1,14.2-1.3,20.8-4.3c5.9-2.6,11-6.5,15.2-11.4c4.1-5,7.3-10.8,9.4-17c2.1-6.9,3.1-14.1,3-21.3
			c0.1-7.1-0.9-14.2-3-21c-2-6.3-5.2-12.1-9.4-17.2C319.2,258,314,254.1,308.1,251.4z M301.3,320.1c-3.1,4.6-8.4,7.2-13.9,6.8
			c-5.6,0.4-11-2.2-14.2-6.8c-3.4-6-5-12.9-4.6-19.7c-0.3-6.5,1.2-12.9,4.6-18.5c3.3-4.4,8.6-6.9,14.2-6.6
			c5.5-0.3,10.7,2.1,13.9,6.6c3.4,5.5,5.1,12,4.8,18.5c0.4,6.9-1.1,13.7-4.6,19.7L301.3,320.1z"/>
		<path id="Tracé_2527" d="M199,225.6c5.9-2.6,11-6.5,15.2-11.4c4.1-5,7.2-10.8,9.1-17c2.3-6.9,3.4-14.2,3.3-21.5
			c0.1-7.1-1-14.2-3.3-21c-1.9-6.2-5-12-9.1-17c-4.1-4.9-9.3-8.8-15.2-11.4c-13.6-6-29.2-6-42.8,0c-5.9,2.6-11.2,6.5-15.4,11.4
			c-4.2,5-7.3,10.7-9.1,17c-1.3,6.9-1.5,14-0.8,21c-0.1,7.3,1,14.6,3.3,21.5c2,6.2,5.2,12,9.4,17c3.4,4.6,7.7,8.4,12.7,11.4
			c6.6,2.8,13.8,4.2,21,4.1C184.7,230,192.2,228.6,199,225.6z M159.5,175c-0.4-6.5,1.2-12.9,4.6-18.5c3.2-4.6,8.6-7.1,14.2-6.6
			c5.5-0.4,10.8,2.1,13.9,6.6c3.4,5.5,5,12,4.6,18.5c0.4,6.9-1.2,13.7-4.6,19.7c-3.1,4.6-8.4,7.2-13.9,6.8c-5.6,0.4-11-2.2-14.2-6.8
			c-3.3-6-4.9-12.7-4.6-19.5V175z"/>
	</g>
</g>
</svg>
