<?xml version="1.0" encoding="utf-8"?>
<!-- Generator: Adobe Illustrator 28.3.0, SVG Export Plug-In . SVG Version: 6.00 Build 0)  -->
<svg version="1.1" id="ds44-icons" xmlns="http://www.w3.org/2000/svg" xmlns:xlink="http://www.w3.org/1999/xlink" x="0px" y="0px"
	 viewBox="0 0 440.3 480" style="enable-background:new 0 0 440.3 480;" xml:space="preserve">
<path d="M220.1,29.9c-116,0-210.1,94-210.1,210.1s94,210.1,210.1,210.1S430.2,356,430.2,240S336.2,29.9,220.1,29.9z M322.1,219.5
	c-19-2.1-37-7-52.3-19.1c-0.3-0.2-0.7-0.4-1.7-0.9c0,4.6,0,8.5,0,12.5c0,24.2,0,48.4-0.1,72.6c-0.1,18.1-4.5,35-15.5,49.6
	c-16.9,22.5-40.3,30.4-67.5,28c-34.3-3.1-60.6-26.9-67.7-60.4c-8-37.5,12.7-77.6,46.7-90.7c12-4.6,24.4-5.5,37.1-4.1
	c2.7,0.3,3.2,1.4,3.2,3.8c-0.1,12.7-0.1,25.4,0.1,38.2c0,3-0.7,3.5-3.7,3.2c-13.8-1.4-26.4,1.5-34.9,13.4c-8.6,11.9-9,25.2-2.5,38
	c5.9,11.7,16.9,16.1,29.3,15.9c14.2-0.2,24.9-6.9,31-19.8c3.4-7.2,3.2-15.2,3.2-23c0-51.8,0-103.7,0-155.5c0-0.8,0.1-1.7,0-2.5
	c-0.2-2,0.3-2.8,2.6-2.8c12,0.2,24.1,0.2,36.1,0.1c2.4,0,2.9,0.8,3,3c0.5,9.7,2.9,18.9,7.3,27.5c9.1,18.1,24.2,27.6,43.9,30.3
	c6.7,0.9,6.7,0.8,6.7,7.6c0,10.4-0.2,20.8,0.1,31.2C326.6,219.3,325.3,219.8,322.1,219.5z"/>
</svg>
