<?xml version="1.0" encoding="UTF-8"?><svg id="ds44-icons" xmlns="http://www.w3.org/2000/svg" viewBox="0 0 411.63 480"><path d="m146.97,59.39c8.18,0,14.89-6.65,14.89-14.83s-6.71-14.89-14.89-14.89-14.94,6.65-14.94,14.89,6.71,14.83,14.94,14.83m170.26,316.79c-15.11,0-27.32-12.32-27.32-27.32s12.22-27.38,27.32-27.38,27.32,12.22,27.32,27.38-12.22,27.32-27.32,27.32m-225.28,0c-15.11,0-27.32-12.32-27.32-27.32s12.22-27.38,27.32-27.38,27.32,12.22,27.32,27.38-12.27,27.32-27.32,27.32M52.19,125.37h304.74v87.58H52.19v-87.58Zm69.59-40.68h165.51c6.27,0,11.29,5.07,11.29,11.23s-5.02,11.23-11.29,11.23H121.78c-6.16,0-11.18-4.96-11.18-11.23s5.02-11.23,11.18-11.23m198.67,317.99c13.85-1.2,53.33,2.56,53.33-26.99V107.16c0-33.43-25.9-42.37-53.72-42.37H89.05c-27.76,0-53.72,8.94-53.72,42.37v268.53c0,29.56,42.05,25.79,55.84,26.99L4.74,462.34l98.54.16,41.72-59.66h121.67l41.72,59.66,98.49-.16-86.44-59.66Zm-58.24-343.29c8.23,0,14.83-6.65,14.83-14.83s-6.6-14.89-14.83-14.89-14.89,6.65-14.89,14.89,6.71,14.83,14.89,14.83"/></svg>