<?xml version="1.0" encoding="UTF-8"?><svg id="ds44-icons" xmlns="http://www.w3.org/2000/svg" viewBox="0 0 281.02 300.02"><path d="m100.37,23.57c5.58,0,10.16-4.54,10.16-10.12s-4.58-10.16-10.16-10.16-10.19,4.54-10.19,10.16,4.58,10.12,10.19,10.12m116.15,216.11c-10.31,0-18.64-8.41-18.64-18.64s8.33-18.68,18.64-18.68,18.64,8.33,18.64,18.68-8.33,18.64-18.64,18.64m-153.68,0c-10.31,0-18.64-8.41-18.64-18.64s8.33-18.68,18.64-18.68,18.64,8.33,18.64,18.68-8.37,18.64-18.64,18.64m-27.12-171.09h207.89v59.75H35.71v-59.75Zm47.47-27.75h112.91c4.28,0,7.7,3.46,7.7,7.66s-3.42,7.66-7.7,7.66h-112.91c-4.2,0-7.63-3.39-7.63-7.66s3.42-7.66,7.63-7.66m135.53,216.93c9.45-.82,36.38,1.75,36.38-18.41V56.15c0-22.8-17.67-28.91-36.64-28.91H60.86c-18.94,0-36.64,6.1-36.64,28.91v183.18c0,20.16,28.68,17.6,38.1,18.41L3.35,298.45l67.22.11,28.46-40.7h83l28.46,40.7,67.19-.11-58.97-40.7ZM178.98,23.57c5.62,0,10.12-4.54,10.12-10.12s-4.5-10.16-10.12-10.16-10.16,4.54-10.16,10.16,4.58,10.12,10.16,10.12"/></svg>