<?xml version="1.0" encoding="UTF-8"?><svg id="ds44-icons" xmlns="http://www.w3.org/2000/svg" viewBox="0 0 423.15 480"><path d="m192.26,456.32h224.06l-78.93-137.49c-24.44,11.71-38.7,32.59-51.94,50.41l-.37-.22c-1.15,2.51-2.49,4.95-4.25,7.19-.67.85-1.43,1.56-2.15,2.35l-97.28-81.27c1.88-2.74,3.1-5.96,3.2-9.55l1.7-61.55,9.06-57.82c.16-1.02.23-2.05.22-3.07-.13-9.99-5.5-24.28-20.11-32.46-4.25-3.06-21.51-15.44-27.09-19.33-4.4-3.07-8.54-4.68-12.33-5.47-.04-.09-.07-.18-.12-.27-.47-.04-.98-.21-1.44-.21h-1.72c-1.68-.14-3.28-.15-4.77,0h-63.27c-10.69,0-17.82,5.6-23.42,14.77l-32.08,52.45c-5.09,10.18-1.53,23.42,5.6,26.48l38.73,22.59-5.37,10.25c-1.58,2.96-9.22,18.52-7.1,40.04,1.47,14.91,10.14,67.7,12.24,80.33l-10.19,81.26c-1.26,10.03,5.85,19.18,15.89,20.44.77.1,1.54.14,2.3.14,9.09,0,16.98-6.77,18.14-16.03l10.52-83.9c.22-1.76.18-3.54-.11-5.28-2.51-15.09-6.67-40.67-9.5-59.59l32.27,60.55,2.38,86.45c.27,9.94,8.41,17.8,18.29,17.8.17,0,.34,0,.51-.01,10.11-.27,18.07-8.69,17.79-18.8l-2.5-90.75c-.08-2.83-.81-5.61-2.14-8.11l-32.85-61.63,6.03-13.64,19.71,15.39c2.11,3.04,4.98,5.24,8.18,6.53l-.04,1.45c-.11,4.02,1.21,7.66,3.34,10.72l-.25.3,1.21,1.01c1.24,1.48,2.63,2.83,4.28,3.86.09-.01.19-.04.28-.05l106.63,89.09c-18.01,10.73-36.74,5.91-50.87,21.37-9.68,11.71-16.8,26.99-20.37,43.28ZM70.04,192.37l-24.98-12.49,24.25-39.22h27.8l-27.07,51.71Zm79.7,31.65l-.7,16.25-12.6-9.98,16.96-30.61-3.45,22.01c-.12.77-.19,1.55-.21,2.33Z"/><path d="m167.62,115.51c20.73,10.53,46.08,2.26,56.61-18.47,10.53-20.73,2.26-46.08-18.47-56.61-20.73-10.53-46.08-2.26-56.61,18.47-10.53,20.73-2.26,46.08,18.47,56.61Z"/></svg>