<?xml version="1.0" encoding="UTF-8"?><svg id="ds44-icons" xmlns="http://www.w3.org/2000/svg" viewBox="0 0 406.41 377.34"><defs><style>.cls-1{fill:#1d1d1b;}</style></defs><path class="cls-1" d="m196.28,337.22h157.35l-55.43-96.55c-17.17,8.22-27.18,22.89-36.48,35.4l-.26-.15c-.8,1.77-1.75,3.48-2.99,5.05-.47.6-1.01,1.1-1.51,1.65l-68.31-57.07c1.32-1.92,2.18-4.19,2.24-6.7l1.2-43.22,6.36-40.6c.11-.71.16-1.44.15-2.16-.09-7.01-3.87-17.05-14.12-22.79-2.98-2.15-15.11-10.84-19.03-13.57-3.09-2.16-5.99-3.29-8.66-3.84-.03-.06-.05-.13-.08-.19-.33-.03-.69-.15-1.01-.15h-1.21c-1.18-.1-2.3-.1-3.35,0h-44.43c-7.51,0-12.52,3.93-16.45,10.37l-22.53,36.83c-3.58,7.15-1.07,16.45,3.93,18.6l27.2,15.87-3.77,7.2c-1.11,2.08-6.48,13.01-4.99,28.12,1.03,10.47,7.12,47.55,8.59,56.42l-7.16,57.06c-.88,7.05,4.11,13.47,11.16,14.35.54.07,1.08.1,1.62.1,6.38,0,11.92-4.75,12.74-11.26l7.39-58.92c.15-1.24.13-2.48-.08-3.71-1.77-10.6-4.68-28.56-6.67-41.85l22.66,42.52,1.67,60.71c.19,6.98,5.91,12.5,12.84,12.5.12,0,.24,0,.36,0,7.1-.19,12.69-6.1,12.5-13.2l-1.76-63.73c-.05-1.99-.57-3.94-1.51-5.69l-23.07-43.28,4.24-9.58,13.84,10.81c1.48,2.13,3.5,3.68,5.74,4.58l-.03,1.02c-.08,2.82.85,5.38,2.35,7.53l-.17.21.85.71c.87,1.04,1.85,1.99,3,2.71.07,0,.13-.03.2-.04l74.88,62.57c-12.65,7.54-25.8,4.15-35.72,15.01-6.79,8.22-11.8,18.95-14.3,30.4Zm-85.83-185.36l-17.54-8.77,17.03-27.54h19.52l-19.01,36.31Zm55.97,22.23l-.49,11.41-8.85-7.01,11.91-21.5-2.42,15.46c-.08.54-.13,1.09-.15,1.64Z"/><path class="cls-1" d="m178.98,97.89c14.56,7.39,32.36,1.59,39.75-12.97,7.39-14.56,1.59-32.36-12.97-39.75-14.56-7.39-32.36-1.59-39.75,12.97-7.39,14.56-1.59,32.36,12.97,39.75Z"/></svg>