<svg id="ds44-icons" xmlns="http://www.w3.org/2000/svg" width="455" height="480" viewBox="0 0 455 480"><path d="M92.48977,209.851a48.96289,48.96289,0,1,0-48.96289-48.96289A49.01858,49.01858,0,0,0,92.48977,209.851Zm0-61.92578a12.96289,12.96289,0,1,1-12.96289,12.96289A12.97764,12.97764,0,0,1,92.48977,147.92526Z"/><path d="M450.70656,285.58932c-.71777-10.45605-4.123-30.40429-18.88232-46.53222-14.98633-16.34473-37.3667-24.66895-66.56494-24.74317h-.3125c-21.04053,0-38.61524,4.37226-52.52173,12.9809-2.23218-10.36871-7.0127-23.249-17.15112-34.3266-14.98633-16.3457-37.36719-24.66992-66.56592-24.74414h-.3125c-28.99561,0-51.44629,8.26074-66.71973,24.54394-10.3457,11.01416-15.42444,23.79462-17.90954,34.09113-13.64344-8.26929-30.90223-12.49261-51.609-12.54523h-.3125c-28.9961,0-51.44678,8.26074-66.72071,24.54492C10.03225,254.92624,6.147,274.75436,5.17434,285.144q-.07838.83643-.07862,1.67774V395.39889a18,18,0,0,0,36,0V287.728c.65186-5.96,2.86231-16.3379,10.27686-24.23145,8.20508-8.74707,21.82178-13.18262,40.47217-13.18262h.26709c18.68213.04688,32.16552,4.44532,40.06445,13.06055,7.12012,7.7793,8.99853,18.2207,9.47021,24.1123V396.16452a18,18,0,0,0,36,0V241.63717c.65186-5.959,2.86231-16.33691,10.27735-24.23046,8.20508-8.74707,21.82129-13.18262,40.47168-13.18262h.26709c18.68261.04687,32.1665,4.44531,40.06543,13.06055,7.12011,7.78027,8.998,18.21875,9.46924,24.10937V395.39889a18,18,0,0,0,36,0V287.728c.65185-5.959,2.8623-16.33692,10.27734-24.23145,8.20508-8.74707,21.82178-13.18262,40.47217-13.18262h.26709c18.68213.04688,32.16552,4.44532,40.06445,13.06055,7.12012,7.7793,8.99854,18.2207,9.47021,24.1123V396.16452a18,18,0,1,0,36,0V286.82175Q450.74855,286.205,450.70656,285.58932Z"/><path d="M365.59182,209.851a48.96289,48.96289,0,1,0-48.96289-48.96289A49.01858,49.01858,0,0,0,365.59182,209.851Zm0-61.92578a12.96289,12.96289,0,1,1-12.96289,12.96289A12.97764,12.97764,0,0,1,365.59182,147.92526Z"/><path d="M229.04055,163.76022a48.9624,48.9624,0,1,0-48.96241-48.96191A49.01775,49.01775,0,0,0,229.04055,163.76022Zm0-61.9248a12.9624,12.9624,0,1,1-12.96241,12.96289A12.97764,12.97764,0,0,1,229.04055,101.83542Z"/></svg>