<?xml version="1.0" encoding="UTF-8"?><svg id="ds44-icons" xmlns="http://www.w3.org/2000/svg" viewBox="0 0 361.77 272.11"><defs><style>.cls-1{fill:#1d1d1b;}</style></defs><path class="cls-1" d="m300.63,157.46c-3.73,0-7.46.44-11.1,1.31l-17.47-51.84,6.38-3.03c.45-.21.86-.5,1.2-.85,1.37.98,3.03,1.51,4.74,1.51,4.53,0,8.22-3.69,8.22-8.22s-3.69-8.21-8.22-8.21-7.85,3.32-8.19,7.54c-.5.05-1,.18-1.46.4l-9.86,4.67c-1.98.93-2.96,3.21-2.26,5.3l3.77,11.16-77.44,24.11-1.31-3.65h3.66c2.39,0,4.33-1.94,4.33-4.33v-5.3c0-2.39-1.94-4.34-4.33-4.34l-31.69,2.77,11.14,5.01c1.42,2.28,6.28.3,5.67,2.93-.1.45-.25.88-.41,1.3l-.74,1.96h3.16l2.24,6.22-3.22,1.01c-.93.29-1.74.89-2.29,1.69l-38.55,56.26c-.91,1.33-1,3.05-.26,4.46.75,1.43,2.22,2.32,3.84,2.32h67.21l.45-.05c.15-.01.29-.03.49-.07l.37-.11c.19-.06.36-.12.49-.19l.43-.23c.15-.09.29-.19.58-.42l64.07-67.93,7.04,20.9c-17.37,7.67-28.51,24.69-28.51,43.75,0,26.38,21.45,47.83,47.82,47.83s47.83-21.46,47.83-47.83-21.46-47.83-47.83-47.83Zm-152.23,43.49l33.05-48.22,2.15-.67,17.62,48.89h-52.82Zm60.67-3.78l-17.19-47.69,77.26-24.05,1.98,5.88-62.06,65.86Zm91.56,45.02c-20.36,0-36.91-16.56-36.91-36.91,0-14.31,8.23-27.24,21.1-33.35l11.7,34.74c.75,2.2,3.21,3.47,5.5,2.72,1.1-.37,1.98-1.15,2.5-2.18.51-1.04.59-2.22.23-3.31l-11.71-34.74c2.5-.53,5.05-.79,7.6-.79,20.36,0,36.91,16.56,36.91,36.91s-16.56,36.91-36.91,36.91Z"/><path class="cls-1" d="m100.05,47.04c0-10.38,8.41-18.79,18.79-18.79,10.38,0,18.79,8.41,18.79,18.79,0,10.38-8.41,18.79-18.79,18.79-10.38,0-18.79-8.41-18.79-18.79"/><path class="cls-1" d="m177.37,127.89c4.82.48,8.59,4.49,8.59,9.43,0,5.26-4.26,9.53-9.53,9.53-.49,0-.96-.07-1.43-.14v.07s-31.92-6.45-34.48-7c-2.55-.55-5-3.56-5.78-5.22-.78-1.67-8.45-16.68-8.45-16.68l-5.89,28.57s26.79,28.46,27.57,29.35c.78.89,4.23,3,3.89,12.67-.3,8.69-.06,47.07,0,54.78,0,.07,0,.15,0,.22,0,.06,0,.12,0,.17,0,.62,0,.98,0,.98h-.06c-.57,5.66-5.36,10.08-11.17,10.08s-10.6-4.42-11.17-10.08h-.06v-50.58s-28.68-28.69-28.68-28.69c0,0-5.01,30.13-5.45,32.46-.44,2.33-1.22,4.11-4.22,7.67-2.7,3.2-30.7,36.12-36.27,42.66-2.02,2.84-5.34,4.7-9.09,4.7-6.16,0-11.15-5-11.15-11.16,0-3.22,1.37-6.12,3.56-8.15l30.39-36.61,8.67-49.36s8.56-41.69,9.23-43.69l-9.34,5.22-14.91,28.19c-1.02,4.25-4.83,7.42-9.4,7.42-5.34,0-9.67-4.33-9.67-9.67,0-2.27.79-4.36,2.09-6.01l15.99-30.05s2-4,4.23-5.12c2.22-1.11,36.47-20.68,36.47-20.68,0,0,6.89-3.56,13.79-1.33,6.89,2.22,11.78,7.34,13.56,9.34,1.78,2,20.02,40.47,20.46,41.14.44.67-.89.22.44.67,1.17.39,22.07,4.01,27.29,4.91h0Z"/><path class="cls-1" d="m140.88,253.32c-25.46,0-46.17-20.71-46.17-46.17s20.71-46.17,46.17-46.17,46.17,20.71,46.17,46.17-20.71,46.17-46.17,46.17Zm0-82.04c-19.78,0-35.87,16.09-35.87,35.87s16.09,35.87,35.87,35.87,35.87-16.09,35.87-35.87-16.09-35.87-35.87-35.87Z"/></svg>