<?xml version="1.0" encoding="UTF-8"?><svg id="ds44-icons" xmlns="http://www.w3.org/2000/svg" viewBox="0 0 406.41 480"><defs><style>.cls-1{fill:#1d1d1b;}</style></defs><path class="cls-1" d="m371.64,227.9l-.02-.02c-15.02-15.03-34.94-23.3-56.09-23.3-8.64,0-17.6,1.45-26.01,4.2l-33.04-69.77c-3.25-6.51-9.86-10.71-16.82-10.71h-20.23c-4.82,0-8.59,3.77-8.59,8.59s3.77,8.59,8.59,8.59h20.23c.58,0,1.19.46,1.28.64l8.84,18.41-86.39-.4-1.15-3.06h1.55c4.82,0,8.59-3.77,8.59-8.59s-3.77-8.59-8.59-8.59h-30.35c-4.82,0-8.59,3.78-8.59,8.59s3.77,8.59,8.59,8.59h10.13l4.25,10.63-23.94,39.5c-9.81-4.61-21.04-7.04-32.6-7.04-44,.43-79.8,36.04-79.8,79.4,0,21.14,8.13,40.92,22.88,55.68,15.03,15.03,34.95,23.3,56.52,23.3,40.08,0,73.65-29.6,78.76-69.12h30.4c3.13,0,5.85-1.55,7.52-4.32l54.31-98.03,12.06,25.17c-5.47,3.26-10.22,6.94-14.48,11.2-15.04,14.61-23.32,34.39-23.32,55.7s8.13,40.92,22.88,55.68c15.03,15.03,34.95,23.3,56.52,23.3,43.35,0,78.97-35.23,79.4-78.59-.43-20.86-8.7-40.61-23.28-55.62Zm-52.52,63.08c3.95-2.13,5.65-6.72,3.97-11.17l-26.06-54.96c6.41-1.82,12.37-2.68,18.91-2.68,16.76,0,32.31,6.54,43.79,18.43,11.78,11.77,18.01,26.92,18.01,43.77-.41,33.62-28.52,60.98-62.64,60.98-16.63,0-32.33-6.55-44.22-18.43-11.61-11.62-18-27.02-18-43.37s6.54-31.89,18.43-43.38c3.11-3.11,6.24-5.67,9.72-7.92l26.1,55.06c1.48,2.97,4.54,4.82,7.97,4.82.94,0,2.66,0,4.02-1.16Zm-237.41-10.48c-1.64,2.7-1.64,5.94,0,8.64s4.35,4.26,7.48,4.26h63.18c-5.06,29.76-31.13,51.95-61.5,51.95-16.63,0-32.33-6.55-44.21-18.43-11.61-11.61-18-27.01-18-43.37,0-33.84,27.91-61.38,62.63-61.38,7.78,0,15.65,1.52,23.42,4.53l-33,53.79Zm48.48-44.48c1.69,1.31,3.29,2.55,4.9,4.16,9.64,9.64,15.77,22.38,17.39,36.05h-48.2l25.01-40.92c.3.24.6.47.9.71Zm57.46,40.21h-17.95c-1.65-18.42-9.49-35.11-22.74-48.35-2.7-2.7-5.63-5.29-8.55-7.58l16.99-27.84,32.25,83.77Zm59.82-93.69l-45.86,81.91-31.36-82.3,77.21.39Z"/></svg>