<?xml version="1.0" encoding="UTF-8"?><svg id="ds44-icons" xmlns="http://www.w3.org/2000/svg" viewBox="0 0 567.15 480"><path d="m527.84,223.85l-.03-.03c-21.78-21.79-50.67-33.79-81.35-33.79-12.53,0-25.52,2.1-37.71,6.1l-47.91-101.18c-4.72-9.44-14.29-15.54-24.39-15.54h-29.34c-6.98,0-12.45,5.47-12.45,12.45s5.47,12.45,12.45,12.45h29.34c.85,0,1.73.67,1.86.93l12.82,26.7-125.28-.59-1.66-4.43h2.25c6.98,0,12.45-5.47,12.45-12.45s-5.47-12.46-12.45-12.46h-44.01c-6.98,0-12.45,5.48-12.45,12.46s5.47,12.45,12.45,12.45h14.69l6.17,15.42-34.72,57.28c-14.23-6.68-30.51-10.2-47.28-10.2-63.81.62-115.72,52.27-115.72,115.14,0,30.66,11.78,59.34,33.18,80.74,21.79,21.79,50.68,33.78,81.96,33.78,58.12,0,106.81-42.92,114.22-100.24h44.08c4.54,0,8.49-2.25,10.91-6.26l78.76-142.16,17.48,36.5c-7.93,4.73-14.82,10.07-21,16.25-21.81,21.19-33.82,49.87-33.82,80.77s11.78,59.35,33.18,80.74c21.79,21.79,50.69,33.79,81.96,33.79,62.86,0,114.51-51.09,115.14-113.97-.63-30.25-12.62-58.9-33.76-80.66Zm-76.16,91.48c5.73-3.08,8.19-9.74,5.76-16.2l-37.79-79.69c9.3-2.65,17.93-3.89,27.43-3.89,24.31,0,46.85,9.48,63.5,26.72,17.08,17.07,26.12,39.04,26.12,63.48-.6,48.76-41.35,88.42-90.84,88.42-24.11,0-46.88-9.49-64.13-26.72-16.83-16.84-26.11-39.18-26.11-62.89s9.48-46.25,26.72-62.9c4.52-4.52,9.05-8.22,14.09-11.48l37.85,79.85c2.14,4.31,6.58,6.98,11.56,6.98,1.37,0,3.86,0,5.82-1.68Zm-344.28-15.2c-2.37,3.92-2.37,8.62-.01,12.54,2.36,3.92,6.32,6.18,10.85,6.18h91.62c-7.34,43.16-45.14,75.33-89.18,75.33-24.11,0-46.88-9.49-64.11-26.72-16.83-16.83-26.11-39.17-26.11-62.89,0-49.08,40.47-89.01,90.83-89.01,11.28,0,22.69,2.21,33.96,6.57l-47.86,78.01Zm70.3-64.5c2.46,1.9,4.77,3.7,7.1,6.03,13.98,13.98,22.87,32.45,25.22,52.28h-69.9l36.27-59.34c.43.35.87.68,1.31,1.02Zm83.33,58.31h-26.02c-2.39-26.71-13.76-50.91-32.98-70.12-3.91-3.91-8.17-7.67-12.4-10.99l24.63-40.37,46.77,121.47Zm86.75-135.86l-66.5,118.79-45.47-119.35,111.97.56Z"/></svg>