<?xml version="1.0" encoding="UTF-8"?><svg id="ds44-icons" xmlns="http://www.w3.org/2000/svg" viewBox="0 0 479.79 407.83"><defs><style>.cls-1{fill-rule:evenodd;}</style></defs><g id="Page-1"><g id="Dribbble-Light-Preview"><g id="icons"><path id="vimeo-_144_" class="cls-1" d="m479.56,94.35c-2.16,45.88-34.76,108.74-97.85,188.51-65.23,83.32-120.43,124.97-165.58,124.97-27.97,0-51.63-25.42-70.96-76.24l-38.72-139.79c-14.35-50.85-29.75-76.28-46.23-76.28-3.6,0-16.15,7.43-37.64,22.27L0,109.19c23.65-20.49,46.95-40.97,69.88-61.44C101.43,20.91,125.08,6.8,140.84,5.38c37.28-3.51,60.21,21.53,68.83,75.19,9.31,57.91,15.76,93.9,19.36,108.04,10.75,48,22.57,72.02,35.48,72.02,10.03,0,25.09-15.52,45.15-46.6,20.08-31.08,30.83-54.73,32.27-70.96,2.85-26.84-7.89-40.24-32.27-40.24-11.47,0-23.29,2.46-35.48,7.4C297.83,34.69,343.01-2.03,409.67.09c49.44,1.42,72.76,32.82,69.88,94.26h0Z"/></g></g></g></svg>