<?xml version="1.0" encoding="UTF-8"?><svg id="ds44-icons" xmlns="http://www.w3.org/2000/svg" viewBox="0 0 491.66 480"><defs><style>.cls-1{fill:#010102;fill-rule:evenodd;}</style></defs><g id="Calque_9"><g id="Page-1"><g id="Dribbble-Light-Preview"><g id="icons"><path id="vimeo-" class="cls-1" d="m485.43,130.51c-2.14,45.83-34.77,108.72-97.79,188.44-65.16,83.36-120.39,124.91-165.59,124.91-28,0-51.6-25.35-70.92-76.21l-38.67-139.73c-14.31-50.84-29.76-76.21-46.2-76.21-3.64,0-16.2,7.41-37.66,22.22l-22.6-28.62c23.61-20.46,46.96-40.92,69.93-61.39,31.51-26.74,55.11-40.92,70.92-42.31,37.28-3.51,60.25,21.47,68.8,75.2,9.28,57.87,15.83,93.91,19.33,107.96,10.8,47.95,22.6,72.06,35.53,72.06,10.05,0,25.11-15.57,45.19-46.58,20.08-31.01,30.75-54.74,32.27-70.92,2.89-26.87-7.91-40.17-32.27-40.17-11.42,0-23.35,2.51-35.53,7.41,23.61-75.7,68.8-112.36,135.34-110.36,49.47,1.39,72.69,32.76,69.93,94.29h-.01Z"/></g></g></g></g></svg>