<?xml version="1.0" encoding="UTF-8"?><svg id="Capa_1" xmlns="http://www.w3.org/2000/svg" viewBox="0 0 344 512"><defs><style>.cls-1{fill:#010102;fill-rule:evenodd;}</style></defs><g id="Calque_9"><g id="Page-1"><g id="Dribbble-Light-Preview"><g id="icons"><path id="vimeo-" class="cls-1" d="m337.85,180.13c-1.48,31.74-24.08,75.3-67.73,130.51-45.13,57.73-83.38,86.51-114.68,86.51-19.39,0-35.74-17.56-49.12-52.78l-26.78-96.77c-9.91-35.21-20.61-52.78-32-52.78-2.52,0-11.22,5.13-26.08,15.39l-15.65-19.82c16.35-14.17,32.52-28.34,48.43-42.52,21.82-18.52,38.17-28.34,49.12-29.3,25.82-2.43,41.73,14.87,47.65,52.08,6.43,40.08,10.96,65.04,13.39,74.77,7.48,33.21,15.65,49.91,24.61,49.91,6.96,0,17.39-10.78,31.3-32.26,13.91-21.48,21.3-37.91,22.35-49.12,2-18.61-5.48-27.82-22.35-27.82-7.91,0-16.17,1.74-24.61,5.13,16.35-52.43,47.65-77.82,93.73-76.43,34.26.96,50.34,22.69,48.43,65.3h0Z"/></g></g></g></g></svg>