<?xml version="1.0" encoding="UTF-8" standalone="no"?>
<svg
   xmlns:dc="http://purl.org/dc/elements/1.1/"
   xmlns:cc="http://creativecommons.org/ns#"
   xmlns:rdf="http://www.w3.org/1999/02/22-rdf-syntax-ns#"
   xmlns:svg="http://www.w3.org/2000/svg"
   xmlns="http://www.w3.org/2000/svg"
   version="1.1"
   viewBox="0 0 391.68642 480"
   height="480"
   width="391.68642"
   id="ds44-icons">
  <metadata
     id="metadata11">
    <rdf:RDF>
      <cc:Work
         rdf:about="">
        <dc:format>image/svg+xml</dc:format>
        <dc:type
           rdf:resource="http://purl.org/dc/dcmitype/StillImage" />
        <dc:title></dc:title>
      </cc:Work>
    </rdf:RDF>
  </metadata>
  <defs
     id="defs9" />
  <g
     id="g818">
    <path
       d="m 387.75433,226.20433 c -0.531,-1.16895 -13.345,-28.95166 -43.41113,-56.39942 -40.57124,-34.36094 -74.46831,-52.64545 -143.52738,-53.09561 -72.76367,0 -125.98383,27.88961 -153.59418,53.09566 -30.06643,27.44771 -42.88088,55.23042 -43.41116,56.39937 l -3.37793,7.44043 3.37793,7.44043 c 0.53077,1.16894 13.34473,28.95166 43.41114,56.39941 43.519744,37.57293 96.27116,55.25568 148.56056,55.2524 72.76392,0 120.95044,-30.04638 148.561,-55.25244 30.06592,-27.44775 42.88013,-55.23047 43.41113,-56.39941 l 3.37744,-7.44043 z m -347.0542,7.44238 c 24.350736,-39.69568 63.70819,-67.86768 109.13526,-78.11884 -1.7764,13.44299 11.39236,23.94467 24.103,19.22138 25.7319,-9.55214 54.68648,-1.28873 71.49944,20.40502 16.81288,21.69365 17.58878,51.79142 1.92,74.32688 -15.66877,22.53547 -44.15296,32.28887 -70.34347,24.08252 -26.19064,-8.2064 -44.01951,-32.47125 -44.02567,-59.91891 0,-9.94113 -8.05887,-17.99999 -18,-17.99999 -9.94113,0 -18,8.05886 -18,17.99999 -0.01368,27.07969 11.11909,52.97122 30.78222,71.59033 C 107.43325,297.74509 88.714612,286.4369 72.6225,271.91917 60.173561,260.78541 49.419068,247.8916 40.70013,233.64671 Z m 278.24195,38.27246 c -16.09211,14.51765 -34.81066,25.82586 -55.1482,33.316 41.04285,-38.90354 41.04263,-104.27814 -4.9e-4,-143.1814 4.82789,1.77887 9.54917,3.76187 14.16382,5.949 1.43718,0.99652 3.01302,1.7764 4.677,2.31464 28.08807,14.49794 51.68101,36.39485 68.23023,63.32537 -8.71799,14.24673 -19.47256,27.14197 -31.92236,38.27639 z"
       id="path2" />
    <path
       d="M195.78216,268.14769a34.50315,34.50315,0,1,0,0-69.00629c-.30664,0-.61035.0152-.915.02319a39.75271,39.75271,0,0,1-33.50488,36.75965A34.49915,34.49915,0,0,0,195.78216,268.14769Z"
       id="path4" />
  </g>
</svg>
