<?xml version="1.0" encoding="UTF-8"?><svg id="ds44-icons" xmlns="http://www.w3.org/2000/svg" viewBox="0 0 406.41 377.34"><defs><style>.cls-1{fill:#1d1d1b;}</style></defs><path class="cls-1" d="m291.98,156.66c-1.25,5.88-5.78,10.47-11.47,11.5,5.69-1.03,10.22-5.63,11.47-11.5.19-1.03.31-2.13.31-3.22,0-8.25-6.38-14.97-14.28-14.97h-31.1c-7.88,0-14.31,6.72-14.31,14.97,0,1.16.16,2.28.41,3.34l-32,.06c.22-1.09.41-2.22.41-3.41,0-8.25-6.41-14.97-14.31-14.97h-31.1c-7.88,0-14.28,6.72-14.28,14.97,0,1.22.16,2.38.44,3.53l-28.75.06c22.22-83.91,46.85-75.66,46.85-75.66,0,0,74.5-2.56,108.88-.22,34.41,2.34,48.28,75.47,48.28,75.47l-25.44.03Zm16.72,63.75l-23.72.03c-3.25,0-5.91-2.78-5.91-6.19l-.03-18.6c-.03-3.41,2.63-6.22,5.88-6.22l23.75-.03c3.22,0,5.91,2.78,5.91,6.19l.03,18.6c0,3.41-2.66,6.19-5.91,6.22m-15.16,35.56l-160.04.31c-8.13,0-14.81-5.56-14.84-12.34,0-6.84,6.69-12.44,14.81-12.47l160.04-.31c8.13-.03,14.78,5.56,14.81,12.38,0,6.81-6.63,12.41-14.78,12.44m-175.98-60c0-3.38,2.59-6.19,5.91-6.19l23.69-.03c3.25-.03,5.94,2.75,5.94,6.16l.03,18.56c0,3.44-2.66,6.22-5.91,6.25l-23.72.03c-3.25,0-5.91-2.75-5.91-6.16l-.03-18.63Zm242.89-58.69c-20.66-10.75-34.91,6.28-34.91,6.28-27.25-78.04-53-78.01-53-78.01l-112.29.22c-30.75,1.03-45.38,46.88-53.5,77.51-3.06-3.09-16.28-14.91-34.28-5.44,0,0-15.47,21.56,17.5,20.38,0,0,10.47,2.94,9.56,10.81-.13.94-.09,1.28.06,1.19-5.84,27.69-8.88,113.95-8.88,113.95l251.01-.5c3.41-22.78-8.22-115.1-8.22-115.1-.97-7.84,9.5-10.84,9.5-10.84,33,1.03,17.44-20.44,17.44-20.44m-192.73-40.53c-9.84,0-17.81,8.34-17.81,18.63s7.97,18.63,17.81,18.63,17.81-8.34,17.81-18.63-7.97-18.63-17.81-18.63m90.91,0c-9.84,0-17.81,8.34-17.81,18.63s7.97,18.63,17.81,18.63,17.78-8.34,17.78-18.63-7.97-18.63-17.78-18.63m-130.32,193.42h-.03l-33.94.06.03,13.28c0,5.22,3.84,9.53,8.72,10.03.31.06.66.06.97.06l14.56-.03c.72,0,1.44-.09,2.09-.25,2.91-.66,5.31-2.72,6.63-5.44.63-1.38,1-2.88,1-4.47v-3.16l-.03-10.09Zm176.26-.38v13.25c0,5.59,4.41,10.16,9.75,10.16l14.53-.06c5.38,0,9.72-4.56,9.69-10.16v-13.28l-33.97.09Z"/></svg>