<?xml version="1.0" encoding="UTF-8"?><svg id="ds44-icons" xmlns="http://www.w3.org/2000/svg" viewBox="0 0 621.85 480"><path d="m310.92,349.92c-30.95,0-56.07,25.12-56.07,56.07s25.12,56.07,56.07,56.07,56.07-25.12,56.07-56.07-25.12-56.07-56.07-56.07Zm300.45-196.05C536.38,64.63,426.87,13.47,310.92,13.47S85.48,64.63,10.47,153.86c-9.96,11.85-8.43,29.53,3.44,39.49,5.25,4.41,11.63,6.58,18,6.58,8,0,15.94-3.4,21.5-10,64.3-76.5,158.17-120.39,257.51-120.39s193.22,43.89,257.51,120.37c5.55,6.6,13.5,10,21.5,10,6.37,0,12.77-2.15,18.02-6.58,11.85-9.95,13.38-27.65,3.42-39.48Zm-300.45-28.24c-82.82,0-161.03,36.54-214.6,100.26-9.96,11.85-8.43,29.53,3.44,39.49,5.25,4.41,11.64,6.58,18.02,6.58,8,0,15.94-3.4,21.48-10,42.86-51.01,105.44-80.26,171.66-80.26s128.8,29.25,171.68,80.26c5.55,6.62,13.5,10,21.48,10,6.37,0,12.77-2.15,18.02-6.58,11.87-9.96,13.4-27.66,3.44-39.49-53.59-63.72-131.8-100.26-214.62-100.26Zm0,112.15c-49.72,0-96.65,21.92-128.77,60.15-9.96,11.85-8.43,29.53,3.44,39.49,5.25,4.41,11.64,6.58,18.02,6.58,8,0,15.94-3.4,21.48-10,21.44-25.51,52.73-40.15,85.83-40.15s64.39,14.64,85.83,40.15c5.55,6.62,13.5,10,21.48,10,6.37,0,12.77-2.15,18.02-6.58,11.87-9.96,13.4-27.65,3.44-39.49-32.11-38.22-79.05-60.15-128.77-60.15Z"/></svg>