<?xml version="1.0" encoding="UTF-8"?><svg id="ds44-icons" xmlns="http://www.w3.org/2000/svg" viewBox="0 0 377.38 309.54"><path d="m188.69,210.75c-18.69,0-33.85,15.17-33.85,33.85s15.17,33.85,33.85,33.85,33.85-15.17,33.85-33.85-15.17-33.85-33.85-33.85Zm181.38-118.36C324.8,38.53,258.69,7.64,188.69,7.64S52.59,38.53,7.31,92.4c-6.01,7.15-5.09,17.83,2.08,23.84,3.17,2.66,7.02,3.97,10.87,3.97,4.83,0,9.63-2.05,12.98-6.04,38.82-46.18,95.49-72.68,155.46-72.68s116.64,26.49,155.46,72.67c3.35,3.98,8.15,6.04,12.98,6.04,3.85,0,7.71-1.3,10.88-3.97,7.15-6,8.08-16.69,2.07-23.83Zm-181.38-17.05c-50,0-97.21,22.06-129.55,60.53-6.01,7.15-5.09,17.83,2.08,23.84,3.17,2.66,7.03,3.97,10.88,3.97,4.83,0,9.63-2.05,12.97-6.04,25.87-30.79,63.65-48.45,103.63-48.45s77.76,17.66,103.64,48.45c3.35,3.99,8.15,6.04,12.96,6.04,3.85,0,7.71-1.3,10.88-3.97,7.17-6.01,8.09-16.7,2.08-23.84-32.35-38.47-79.56-60.53-129.56-60.53Zm0,67.7c-30.02,0-58.35,13.24-77.74,36.31-6.01,7.15-5.09,17.83,2.08,23.84,3.17,2.66,7.03,3.97,10.88,3.97,4.83,0,9.63-2.05,12.97-6.04,12.94-15.4,31.83-24.24,51.82-24.24s38.87,8.84,51.82,24.24c3.35,3.99,8.15,6.04,12.97,6.04,3.85,0,7.71-1.3,10.88-3.97,7.17-6.01,8.09-16.69,2.08-23.84-19.39-23.08-47.72-36.31-77.74-36.31Z"/></svg>