<?xml version="1.0" encoding="utf-8"?>
<!-- Generator: Adobe Illustrator 28.3.0, SVG Export Plug-In . SVG Version: 6.00 Build 0)  -->
<svg version="1.1" id="ds44-icons" xmlns="http://www.w3.org/2000/svg" xmlns:xlink="http://www.w3.org/1999/xlink" x="0px" y="0px"
	 viewBox="0 0 440.3 480" style="enable-background:new 0 0 440.3 480;" xml:space="preserve">
<g id="layer1">
	<g id="path1009">
		<path d="M301.3,431.5c-1.3,0-2.4-0.6-3.2-1.6L191,286.8L58.3,430.2c-0.8,0.8-1.8,1.3-2.9,1.3H20.1c-1.6,0-3-0.9-3.7-2.4
			c-0.6-1.5-0.3-3.2,0.7-4.3l153.9-165.4L18.6,54.7c-0.9-1.2-1-2.8-0.4-4.2c0.7-1.4,2.1-2.2,3.6-2.2h117.5c1.3,0,2.4,0.6,3.2,1.6
			L241.2,182L363.9,49.6c0.8-0.8,1.8-1.3,2.9-1.3h35.2c1.6,0,3,0.9,3.7,2.4s0.4,3.2-0.7,4.3L262,209.5l161.7,215.6
			c0.9,1.2,1.1,2.8,0.4,4.2c-0.7,1.4-2.1,2.2-3.6,2.2H301.3z M361.3,397.5L125.6,82.3H81l235.8,315.2H361.3z"/>
		<path d="M402,52.3l-145.2,157l163.7,218.2H301.3l-110-146.9l-136,146.9H20.1l156.1-167.9L21.8,52.3h117.5l101.6,136l125.9-136H402
			 M73,78.3L73,78.3L73,78.3l241.7,323.2h54.6L127.6,78.3H73 M402,44.3h-35.2c-2.2,0-4.4,0.9-5.9,2.6L241.5,175.8L145.7,47.5
			c-1.5-2-3.9-3.2-6.4-3.2H21.8c-3,0-5.8,1.7-7.1,4.4c-1.4,2.7-1.1,5.9,0.7,8.4l150.5,202L14.3,422c-2.2,2.3-2.7,5.7-1.5,8.6
			s4.2,4.8,7.3,4.8h35.2c2.2,0,4.4-0.9,5.9-2.6l129.5-139.8l104.2,139.2c1.5,2,3.9,3.2,6.4,3.2h119.2c3,0,5.8-1.7,7.2-4.4
			s1.1-6-0.8-8.4L267.2,209.8L407.9,57.7c2.2-2.3,2.7-5.7,1.5-8.6C408.1,46.2,405.2,44.3,402,44.3L402,44.3z M402,60.3L402,60.3
			L402,60.3L402,60.3z M89,86.3h34.6l229.8,307.2h-34.6L89,86.3L89,86.3z"/>
	</g>
</g>
</svg>
