<?xml version="1.0" encoding="utf-8"?>
<!-- Generator: Adobe Illustrator 28.3.0, SVG Export Plug-In . SVG Version: 6.00 Build 0)  -->
<svg version="1.1" id="ds44-icons" xmlns="http://www.w3.org/2000/svg" xmlns:xlink="http://www.w3.org/1999/xlink" x="0px" y="0px"
	 viewBox="0 0 440.3 480" style="enable-background:new 0 0 440.3 480;" xml:space="preserve">
<path d="M428.5,421.4L269.8,209.9L409.3,59.1c2.7-2.8,3.4-7,1.9-10.8c-1.6-3.6-5.3-6-9.2-6h-35.2c-2.9,0-5.6,1.2-7.4,3.2
	L241.7,172.7L147.3,46.3c-1.9-2.5-4.9-4-8-4H21.8c-3.8,0-7.3,2.2-8.9,5.5c-1.7,3.3-1.4,7.4,0.9,10.5L163.3,259L12.9,420.6
	c-2.7,2.8-3.4,7-1.9,10.7c1.5,3.6,5.2,6,9.1,6h35.2c2.9,0,5.6-1.2,7.4-3.2l127.9-138l102.8,137.3c1.9,2.5,4.9,4,8,4h119.2
	c3.8,0,7.2-2.1,9-5.5C431.2,428.5,430.8,424.4,428.5,421.4z M93,88.3h29.6l226.8,303.2h-29.6L93,88.3z"/>
</svg>
