<?xml version="1.0" standalone="no"?>
<!DOCTYPE svg PUBLIC "-//W3C//DTD SVG 1.1//EN" "http://www.w3.org/Graphics/SVG/1.1/DTD/svg11.dtd" >
<svg xmlns="http://www.w3.org/2000/svg" xmlns:xlink="http://www.w3.org/1999/xlink" version="1.1">
<metadata>
Created by FontForge 20170731 at Tue Nov 14 13:02:30 2023
 By Aleksey,,,
Copyright (c) 1992, 2002 Adobe Systems Incorporated.  All Rights Reserved.  (c) Copyright 1992, 2002 The Monotype Corporation plc. All Rights Reserved.
</metadata>
<defs>
<font id="ModernMTStd-Wide" horiz-adv-x="1216" >
  <font-face 
    font-family="Modern MT Std Wide"
    font-weight="400"
    font-stretch="normal"
    units-per-em="2048"
    panose-1="2 7 5 7 5 4 5 2 3 4"
    ascent="1411"
    descent="-637"
    x-height="1047"
    cap-height="1503"
    bbox="-324 -512 2357 2028"
    underline-thickness="102"
    underline-position="-307"
    unicode-range="U+0020-FB02"
  />
<missing-glyph horiz-adv-x="1024" 
d="M0 0v1434h1024v-1434h-1024zM512 809l348 522h-696zM573 717l349 -522v1044zM164 102h696l-348 523zM102 1239v-1044l349 522z" />
    <glyph glyph-name=".notdef" horiz-adv-x="1024" 
d="M0 0v1434h1024v-1434h-1024zM512 809l348 522h-696zM573 717l349 -522v1044zM164 102h696l-348 523zM102 1239v-1044l349 522z" />
    <glyph glyph-name=".null" horiz-adv-x="0" 
 />
    <glyph glyph-name="nonmarkingreturn" horiz-adv-x="682" 
 />
    <glyph glyph-name="space" unicode=" " horiz-adv-x="608" 
 />
    <glyph glyph-name="exclam" unicode="!" horiz-adv-x="661" 
d="M350 492v-84h-43v110q0 105 -16.5 211t-35.5 177.5t-35.5 157t-16.5 155.5q0 57 10 102.5t40.5 80t78.5 34.5q46 0 75.5 -33t39.5 -77t10 -99q0 -75 -16.5 -158.5t-37 -150.5t-37 -181.5t-16.5 -244.5zM330 229q54 0 92.5 -38.5t38.5 -92.5t-38.5 -91.5t-92.5 -37.5
q-52 0 -90.5 38.5t-38.5 90.5q0 54 38 92.5t91 38.5z" />
    <glyph glyph-name="quotedbl" unicode="&#x22;" horiz-adv-x="1153" 
d="M422 936h-43l-55 297q-4 22 -8.5 49.5t-6.5 37t-4 24t-2.5 21.5t-1 16.5t-0.5 21.5q0 56 26 86.5t72 30.5q48 0 75.5 -31t27.5 -86q0 -36 -8 -72zM772 936h-43l-74 395q-4 36 -4 55q0 69 24 101.5t75 32.5q48 0 75 -31t27 -86q0 -33 -8 -72z" />
    <glyph glyph-name="numbersign" unicode="#" horiz-adv-x="1228" 
d="M1055 561l6 -102h-221l-64 -459h-114l65 459h-278l-64 -459h-115l66 459h-221l-6 102h241l43 311h-219l-6 103h240l63 459h115l-66 -459h279l63 459h115l-66 -459h203l6 -103h-223l-43 -311h201zM784 872h-278l-43 -311h278z" />
    <glyph glyph-name="dollar" unicode="$" horiz-adv-x="1472" 
d="M616 1524v-74h65t37 0.5t25 -0.5t22.5 -1t38 -3.5t62.5 -5.5v84h45v-92q112 -15 196 -54.5t129 -91.5t66 -105t21 -108q0 -68 -40 -108.5t-95 -40.5q-54 0 -88.5 32.5t-34.5 79.5q0 57 34.5 91t86.5 34q18 0 31.5 7.5t13.5 23.5q0 51 -92.5 111.5t-227.5 82.5v-573
q455 -91 455 -446q0 -23 -6 -51.5t-21.5 -72t-48.5 -86t-80.5 -83.5t-125.5 -74.5t-175 -50.5v-185h-41v181q-111 -15 -252 0v-181h-45v189q-194 21 -328 138t-134 255q0 77 45 119.5t102 42.5t95 -37.5t38 -95.5q0 -56 -36.5 -91.5t-102.5 -35.5q-12 0 -19.5 -1.5t-13.5 -8
t-6 -19.5q0 -18 24 -50t66 -68t114.5 -66t155.5 -39v637q-237 58 -340 158q-40 42 -74 115t-34 161q0 43 14.5 89.5t48.5 95.5t84 88.5t128 68.5t173 37v78h45zM571 893v508q-335 -42 -335 -254q0 -79 63 -139q39 -39 103.5 -64t168.5 -51zM866 825v570q-60 9 -125 12
q-84 0 -125 -2v-522zM909 561v-567q147 25 235.5 111t88.5 184q0 190 -324 272zM866 571l-250 56v-637q120 -14 250 -2v583z" />
    <glyph glyph-name="percent" unicode="%" horiz-adv-x="2304" 
d="M1677 217v164q0 41 -2.5 72.5t-11 64.5t-22.5 54.5t-38 35t-57 13.5q-133 0 -133 -222v-194q0 -33 1 -54.5t4.5 -56.5t12 -57.5t22 -45.5t37 -34.5t54.5 -11.5q35 0 60 15.5t39 39.5t22 62t10 72.5t2 82.5zM1550 647q120 0 204.5 -104.5t84.5 -259.5q0 -153 -85 -257
t-214 -104q-126 0 -207.5 104.5t-81.5 268.5q0 86 33.5 165t103.5 133t162 54zM895 975v164q0 52 -5 90.5t-18 74.5t-40 55t-68 19q-135 0 -135 -221v-194q0 -34 1 -55t4.5 -56t12 -57.5t22.5 -46t38 -35t55 -11.5q29 0 51.5 10t37 30.5t23.5 43.5t13.5 57t6 63t1.5 69z
M766 1405q121 0 206 -105t85 -260q0 -152 -85 -256t-214 -104q-128 0 -209.5 104.5t-81.5 268.5q0 86 33.5 165t103.5 133t162 54zM594 -76l1024 1479h84l-1022 -1479h-86z" />
    <glyph glyph-name="ampersand" unicode="&#x26;" horiz-adv-x="1748" 
d="M678 1477q-70 0 -104.5 -45t-34.5 -105q0 -118 131 -338q82 57 117.5 126t35.5 190q0 77 -39 124.5t-106 47.5zM518 858q-107 -72 -153 -137.5t-46 -167.5q0 -43 13.5 -105t42.5 -132.5t67.5 -130.5t96 -100t120.5 -40q57 0 127 29t129 102q-232 319 -397 682zM1546 504
h45q-6 -143 -40 -248t-87 -163t-113 -84.5t-128 -26.5q-73 0 -148.5 40.5t-130.5 116.5q-78 -82 -177.5 -119.5t-191.5 -37.5q-187 0 -311.5 109.5t-124.5 287.5q0 42 9.5 87t35 101.5t65 110.5t106 113.5t151.5 111.5q-57 162 -57 297q0 50 9.5 99t33.5 102t75 86t123 33
q43 0 79 -16t59.5 -41.5t40 -58.5t23.5 -65t7 -63q0 -92 -55 -178t-152 -146q87 -147 367 -594q145 280 145 441q0 186 -200 186h-33v64h608v-64h-43q-90 0 -160 -70q-44 -43 -85.5 -125.5t-69.5 -162t-65 -170t-71 -140.5q71 -125 124.5 -182t113.5 -57q86 0 148.5 112.5
t74.5 313.5z" />
    <glyph glyph-name="quotesingle" unicode="'" horiz-adv-x="661" 
d="M352 936h-43l-73 395q-5 45 -5 55q0 69 24 101.5t75 32.5q48 0 75 -31t27 -86q0 -33 -8 -72z" />
    <glyph glyph-name="parenleft" unicode="(" horiz-adv-x="811" 
d="M537 1503h34q-233 -390 -233 -823q0 -456 235 -830h-32q-158 167 -243 380.5t-85 443.5q0 458 324 829z" />
    <glyph glyph-name="parenright" unicode=")" horiz-adv-x="811" 
d="M240 1503h34q324 -371 324 -829q0 -230 -85 -443.5t-243 -380.5h-32q235 374 235 830q0 433 -233 823z" />
    <glyph glyph-name="asterisk" unicode="*" horiz-adv-x="1044" 
d="M500 1010l12 10q-2 68 -18.5 115.5t-32 85t-15.5 82.5q0 43 22.5 69.5t55.5 26.5q35 0 55.5 -30t18.5 -75q0 -33 -31.5 -120t-31.5 -138q0 -3 1 -8.5t1 -7.5l10 -6q37 17 64 42t55 60.5t43 50.5q57 60 116 60q27 0 47.5 -22t20.5 -50q0 -30 -23 -53q-28 -28 -66.5 -41.5
t-73.5 -15.5t-82.5 -15t-86.5 -39v-16q49 -28 112.5 -40.5t112.5 -24t78 -40.5t29 -65q0 -30 -22.5 -48t-49.5 -18q-52 0 -112 60q-15 14 -39.5 46t-52.5 58.5t-68 48.5l-12 -6v-10q0 -63 32.5 -149.5t32.5 -120.5q0 -44 -23 -73.5t-51 -29.5q-36 1 -59 31t-23 68
q0 43 33 127.5t33 138.5v18l-12 4q-38 -17 -64 -41t-53.5 -59.5t-46.5 -54.5q-58 -58 -113 -58q-32 0 -49.5 23.5t-17.5 48.5q0 30 26 59q30 29 81.5 41.5t114 26t107.5 41.5v12q-46 29 -108 41t-112 22.5t-79 39.5q-32 32 -32 67q0 27 22 46.5t49 19.5q50 0 117 -64
q26 -26 50.5 -57.5t45.5 -51t62 -42.5z" />
    <glyph glyph-name="plus" unicode="+" horiz-adv-x="1228" 
d="M555 578v458h119v-458h456v-119h-456v-459h-119v459h-457v119h457z" />
    <glyph glyph-name="comma" unicode="," horiz-adv-x="661" 
d="M211 -221l8 76q79 -14 134 32t55 111q0 32 -19 68q-9 -36 -34.5 -56t-61.5 -20q-56 0 -94.5 37t-38.5 92q0 66 45.5 102.5t105.5 36.5q77 0 134 -56.5t57 -164.5q0 -44 -13 -87.5t-39.5 -84t-74.5 -65.5t-111 -25q-17 0 -53 4z" />
    <glyph glyph-name="hyphen" unicode="-" horiz-adv-x="811" 
d="M182 449v155h449v-155h-449z" />
    <glyph glyph-name="period" unicode="." horiz-adv-x="661" 
d="M332 215q54 0 91.5 -37.5t37.5 -91.5t-37.5 -91.5t-91.5 -37.5t-91.5 37.5t-37.5 91.5t37.5 91.5t91.5 37.5z" />
    <glyph glyph-name="slash" unicode="/" horiz-adv-x="681" 
d="M-6 -391l627 1894h67l-625 -1894h-69z" />
    <glyph glyph-name="zero" unicode="0" 
d="M858 557v328q0 188 -17 286t-81 162t-154 64q-83 0 -143 -60q-68 -70 -86.5 -191t-18.5 -382v-157t1.5 -126t4 -108.5t7.5 -83.5t12 -72.5t17.5 -53t24 -49t32.5 -38.5q33 -32 66 -49t83 -17q88 0 152 64t82 165t18 318zM610 1448q74 0 146 -29t137 -91t114 -149t78 -212
t29 -271q0 -165 -42 -306.5t-112 -234.5t-160.5 -145.5t-187.5 -52.5q-144 0 -260.5 96t-183 266.5t-66.5 382.5q0 170 41 312t110.5 236t161.5 146t195 52z" />
    <glyph glyph-name="one" unicode="1" 
d="M197 1229v59q149 0 252.5 37t197.5 111h86v-1196q0 -97 29.5 -138t122.5 -41h145v-61h-799v59h123q104 0 141 30t37 124v860q0 51 -2.5 76t-14.5 46t-35.5 27.5t-65.5 6.5h-217z" />
    <glyph glyph-name="two" unicode="2" 
d="M1092 0h-988q65 125 169.5 261t304.5 355q132 145 196 255.5t64 226.5q0 145 -85.5 224t-205.5 79q-79 0 -149.5 -27.5t-116.5 -70.5t-72.5 -92.5t-26.5 -94.5q0 -29 11.5 -41t25.5 -12q16 0 41 14q26 13 59 13q68 0 107 -42.5t39 -97.5q0 -56 -39 -100.5t-113 -44.5
q-84 0 -137 61.5t-53 169.5q0 62 16.5 120.5t53.5 112.5t91 94.5t134.5 64.5t177.5 24q113 0 205 -36.5t146.5 -93.5t83 -121.5t28.5 -127.5q0 -145 -115 -260q-44 -44 -106.5 -93t-121.5 -93t-126 -100.5t-143 -141t-150 -188.5h451q68 0 114.5 5.5t78 19.5t49 32.5
t27 50.5t13.5 66.5t8 87.5v6h54v-465z" />
    <glyph glyph-name="three" unicode="3" 
d="M586 1456q168 0 297 -102.5t129 -239.5q0 -120 -94 -210.5t-281 -133.5q108 -17 193 -57t137 -94t79 -115t27 -125q0 -80 -38 -155.5t-104 -133.5t-163 -93.5t-207 -35.5q-175 0 -293 90t-118 236q0 66 40 122t117 56q56 0 94.5 -41t38.5 -96q0 -47 -38.5 -90t-100.5 -43
q-26 0 -35.5 -7.5t-9.5 -25.5q0 -43 74.5 -95.5t187.5 -52.5q69 0 127 25.5t95 66t62.5 92t36.5 101.5t11 96q0 54 -17.5 111t-51.5 109t-93.5 85t-134.5 33q-39 0 -108 -24.5t-85 -24.5q-22 0 -22 25t42.5 41.5t143.5 31.5q64 10 114 38t78.5 63t46.5 78t24 77.5t6 67.5
q0 56 -14.5 107t-43.5 95t-80 70.5t-118 26.5t-134.5 -27t-109 -66t-41.5 -75q0 -37 37 -37q74 0 110.5 -44t36.5 -93q0 -55 -40.5 -93t-96.5 -38q-53 0 -90 32t-51.5 74.5t-14.5 89.5q0 134 130.5 231t312.5 97z" />
    <glyph glyph-name="four" unicode="4" 
d="M618 481v701q-255 -357 -417 -701h417zM143 385v94q96 216 259.5 472t334.5 485h94v-957h267v-96h-269v-219q0 -60 29.5 -82t114.5 -23h94v-59h-684v61h106q73 0 100 26t27 77v221h-473z" />
    <glyph glyph-name="five" unicode="5" 
d="M244 745l57 699q104 -64 262 -64q70 0 144.5 18t123.5 36t56 18q16 0 16 -10q0 -8 -12 -31t-45 -59.5t-80.5 -68.5t-130.5 -55.5t-184 -23.5q-76 0 -115 8l-35 -421q126 137 313 137q128 0 234 -66t164.5 -172.5t58.5 -226.5q0 -97 -41.5 -189t-112.5 -161.5t-171 -111.5
t-211 -42q-84 0 -152 21.5t-110 54.5t-70.5 74t-39.5 77.5t-11 67.5q0 75 45.5 119.5t105.5 44.5q65 0 107.5 -42t42.5 -102q0 -34 -19 -66.5t-51 -49.5q-9 -5 -32 -12.5t-31.5 -15.5t-8.5 -24q0 -38 59.5 -66t145.5 -28q71 0 132 26t97 62q97 97 97 336q0 44 -2 80t-8.5 83
t-17.5 83.5t-31.5 74t-48.5 62t-69.5 40t-93.5 15.5q-26 0 -56 -6.5t-68 -22t-74.5 -48.5t-61.5 -80q-12 -21 -18 -61t-13 -65.5t-24 -25.5q-13 0 -18 9t-5 34q0 19 5 73.5t6 63.5z" />
    <glyph glyph-name="six" unicode="6" 
d="M655 858q-28 0 -59 -7.5t-71.5 -32t-71.5 -62t-52.5 -105.5t-21.5 -155q0 -98 11.5 -179t39 -155t80.5 -116t129 -42q61 0 105.5 24.5t68.5 60.5t38 91.5t17.5 101t3.5 105.5q0 72 -2.5 123.5t-9.5 110t-22 97.5t-38 73t-60 50.5t-85 16.5zM694 1448q126 0 214.5 -84.5
t88.5 -185.5q0 -63 -39.5 -106.5t-103.5 -43.5q-48 0 -80 24t-42.5 50.5t-10.5 50.5q0 33 11.5 59t28 41t33.5 26.5t28.5 23t11.5 22.5q0 34 -46 54t-100 20q-52 0 -95 -15t-73.5 -45t-53.5 -65t-38 -87t-25 -97.5t-15 -110t-7.5 -111.5t-3.5 -114q127 159 305 159
q114 0 210.5 -64.5t151 -170t54.5 -225.5q0 -121 -61.5 -235.5t-164.5 -186.5t-215 -72q-149 0 -268.5 97t-183.5 256t-64 347q0 149 38.5 290t107.5 252.5t175.5 179t231.5 67.5z" />
    <glyph glyph-name="seven" unicode="7" 
d="M180 932l84 577h41q6 -51 28 -71.5t79 -20.5h645q-1 -52 -13 -105.5t-25.5 -91.5t-39 -86.5t-39 -70t-41.5 -63t-31 -46.5q-103 -162 -144.5 -320.5t-41.5 -402.5q0 -47 -3.5 -82t-15 -81.5t-40 -72.5t-72.5 -26q-46 0 -82.5 39.5t-36.5 122.5q0 219 137 453
q57 99 151 236.5t158 237t83 154.5h-537q-53 0 -86.5 -13t-54.5 -48.5t-31.5 -84.5t-18.5 -134h-53z" />
    <glyph glyph-name="eight" unicode="8" 
d="M586 1399q-82 0 -146.5 -26.5t-100.5 -67t-54.5 -83t-18.5 -81.5q0 -46 13.5 -79.5t40.5 -61.5t84.5 -56t127 -53.5t187.5 -63.5q160 94 160 267q0 138 -80.5 221.5t-212.5 83.5zM477 645q-81 -40 -134.5 -98.5t-72 -108t-18.5 -94.5q0 -153 92 -246.5t260 -93.5
q103 0 180.5 30.5t117 77.5t57.5 93t18 88q0 57 -22 101.5t-54 73t-86.5 54.5t-101.5 41.5t-118 39t-118 42.5zM580 1456q93 0 169 -23t124 -58.5t81 -81.5t46.5 -89t13.5 -84q0 -187 -223 -321q158 -73 236.5 -183t78.5 -239q0 -183 -139 -305.5t-365 -122.5
q-106 0 -192 25t-140 63.5t-90.5 87.5t-51.5 95t-15 89q0 40 13.5 85t44.5 96.5t92 99t145 78.5q-261 151 -261 401q0 50 16 102.5t51 103.5t84 91.5t122.5 65t159.5 24.5z" />
    <glyph glyph-name="nine" unicode="9" 
d="M561 543q49 0 96 20t89 60.5t68 115t26 172.5q0 27 -2 60t-9 83t-18.5 96.5t-32 94.5t-47.5 83.5t-68 58t-90 22.5q-46 0 -82 -17.5t-59.5 -43.5t-40.5 -67.5t-25.5 -78t-13 -88.5t-5.5 -84.5t-1 -79.5q0 -37 1 -66.5t6 -73.5t13 -78t24.5 -71.5t38.5 -61.5t56 -40
t76 -16zM530 -35q-139 0 -231 77t-92 175q0 60 42 102.5t105 42.5q48 0 89.5 -36.5t41.5 -94.5q0 -40 -15.5 -66t-34.5 -36t-34.5 -22t-15.5 -27q0 -30 40.5 -48t94.5 -18q121 0 207 86q30 30 52 66t35 76.5t21 88t11 99.5t4 112t0 126q-55 -87 -140 -141t-184 -54
q-73 0 -145.5 33.5t-131.5 92t-95.5 146.5t-36.5 189q0 87 32.5 178.5t89 170t145.5 129t191 50.5q95 0 178.5 -44.5t144 -118.5t104.5 -170t66 -200.5t22 -207.5q0 -108 -26 -217.5t-76 -205.5t-117 -171t-155.5 -118.5t-185.5 -43.5z" />
    <glyph glyph-name="colon" unicode=":" horiz-adv-x="661" 
d="M332 225q54 0 91.5 -37.5t37.5 -91.5t-37.5 -91.5t-91.5 -37.5t-91.5 37.5t-37.5 91.5t37.5 91.5t91.5 37.5zM332 1090q54 0 91.5 -37.5t37.5 -91.5t-37.5 -92t-91.5 -38t-91.5 38t-37.5 92t37.5 91.5t91.5 37.5z" />
    <glyph glyph-name="semicolon" unicode=";" horiz-adv-x="661" 
d="M213 -221l6 76q79 -14 134 32t55 111q0 32 -19 68q-9 -36 -34.5 -56t-61.5 -20q-56 0 -94.5 37t-38.5 92q0 66 45.5 102.5t105.5 36.5q77 0 134 -56.5t57 -164.5q0 -44 -13 -87.5t-39.5 -84t-74.5 -65.5t-111 -25q-15 0 -51 4zM317 1090q54 0 91.5 -37.5t37.5 -91.5
t-37.5 -92t-91.5 -38t-91.5 38t-37.5 92t37.5 91.5t91.5 37.5z" />
    <glyph glyph-name="less" unicode="&#x3c;" horiz-adv-x="1228" 
d="M1135 111v-127l-1041 475v119l1041 475v-127l-893 -408z" />
    <glyph glyph-name="equal" unicode="=" horiz-adv-x="1228" 
d="M1130 780v-118h-1032v118h1032zM1130 375v-119h-1032v119h1032z" />
    <glyph glyph-name="greater" unicode="&#x3e;" horiz-adv-x="1228" 
d="M94 111l893 407l-893 408v127l1041 -475v-119l-1041 -475v127z" />
    <glyph glyph-name="question" unicode="?" horiz-adv-x="1067" 
d="M412 346v119q0 98 18 172.5t72 128.5q34 34 80 66t78 53.5t62.5 51.5t46 74t15.5 105q0 101 -67.5 181.5t-184.5 80.5q-50 0 -98 -12.5t-83.5 -41t-35.5 -67.5q0 -19 6.5 -30.5t13 -15.5t22.5 -9t22 -8q61 -34 61 -94q0 -42 -34.5 -75.5t-77.5 -33.5q-46 0 -86.5 41
t-40.5 109q0 121 94.5 201.5t241.5 80.5q64 0 122.5 -27t107 -79.5t77 -138.5t28.5 -195q0 -137 -114 -248q-45 -46 -97 -77t-85 -45t-62.5 -36.5t-43 -67.5t-13.5 -122v-41h-45zM446 217q54 0 91.5 -37.5t37.5 -91.5t-37.5 -91.5t-91.5 -37.5t-91.5 37.5t-37.5 91.5
t37.5 91.5t91.5 37.5z" />
    <glyph glyph-name="at" unicode="@" horiz-adv-x="1638" 
d="M1305 154l28 -58q-234 -121 -450 -121q-161 0 -298.5 46t-230 120.5t-158 169t-95 190t-29.5 185.5q0 169 63.5 315t171 245.5t250.5 155.5t301 56q196 0 358.5 -81.5t256.5 -227t94 -324.5q0 -66 -16.5 -136.5t-51 -137.5t-81 -120t-113 -85.5t-140.5 -32.5
q-50 0 -90.5 19.5t-61.5 46t-31.5 50t-8.5 36.5h-12q-17 -38 -86.5 -91t-151.5 -61q-23 0 -45.5 4t-54 20.5t-54 43.5t-39 78.5t-16.5 120.5q0 49 16 113.5t51 135.5t83 130.5t120.5 98t155.5 38.5q43 0 73.5 -16.5t43.5 -35t30 -49.5q3 -7 5 -10l20 86h148l-140 -549
q-4 -17 -4.5 -36t3.5 -43.5t24.5 -40t54.5 -15.5q84 0 150.5 68.5t99.5 167t33 202.5q0 76 -26.5 155.5t-80 154t-126.5 133t-174.5 94t-215.5 35.5q-128 0 -240.5 -49.5t-197.5 -140.5t-134.5 -232t-49.5 -313q0 -117 48 -228t131.5 -195.5t205 -136t258.5 -51.5
q131 0 222 25.5t204 77.5zM965 1006q-41 0 -91.5 -30t-97.5 -81.5t-78.5 -133t-31.5 -173.5q0 -91 38.5 -135.5t100.5 -44.5q33 0 71.5 30t75 84.5t65 145t38.5 198.5q0 140 -90 140z" />
    <glyph glyph-name="A" unicode="A" horiz-adv-x="1748" 
d="M1042 528l-241 666l-254 -666h495zM444 395l430 1123h54l475 -1330q30 -86 61.5 -109.5t102.5 -23.5h123v-55h-785v55h207q76 0 76 49q0 20 -8 41l-119 330h-533q-96 -237 -96 -287q0 -70 61.5 -101.5t202.5 -31.5h33v-55h-670v55h31q130 0 207.5 79t146.5 261z" />
    <glyph glyph-name="B" unicode="B" horiz-adv-x="1748" 
d="M971 1464h-281v-653h191q98 0 180 26.5t129 73.5q47 46 60.5 97.5t13.5 148.5q0 81 -18.5 139.5t-45 90t-68.5 50t-77.5 23t-83.5 4.5zM881 766h-191v-723h273q180 0 271 81t91 269q0 87 -20 151.5t-68.5 116.5t-137.5 78.5t-218 26.5zM106 1446v57h938
q123 0 221.5 -31.5t157 -83t89 -111.5t30.5 -122q0 -55 -27 -108.5t-83 -103.5t-153.5 -90.5t-225.5 -61.5q106 -13 194.5 -38.5t142 -55.5t79 -48t40.5 -33q40 -40 70.5 -101.5t30.5 -127.5q0 -29 -9.5 -63.5t-32 -80.5t-68 -87.5t-109 -77t-164.5 -57t-226 -21.5h-892v57
h325v1389h-328z" />
    <glyph glyph-name="C" unicode="C" horiz-adv-x="1472" 
d="M1360 547h43q-17 -173 -93 -307t-207.5 -211.5t-297.5 -77.5q-103 0 -201 34.5t-176.5 92.5t-144.5 135.5t-110 163.5t-68.5 176.5t-24.5 173.5q0 109 36.5 224t102.5 216t150.5 181t189 127t209.5 47q65 0 123 -14t97 -34t76.5 -49t57 -50.5t42 -48t28.5 -32.5
q16 -16 31 -16q17 0 37 34t37 85t25 79.5t13 47.5h45l21 -688h-43q-47 168 -120 298t-146 201q-139 142 -318 142q-163 0 -266 -103q-80 -80 -108.5 -210t-28.5 -373q0 -214 19.5 -351.5t52.5 -208.5t89 -127q111 -108 267 -108q80 0 154.5 20t142.5 63.5t121.5 107t91 156
t51.5 204.5z" />
    <glyph glyph-name="D" unicode="D" horiz-adv-x="1878" 
d="M979 1460h-313v-1411h290q64 0 115 7t105 26.5t95 53t79 89t62 130.5t38 181.5t14 239.5q0 261 -47.5 408.5t-151 211.5t-286.5 64zM66 1446v57h962q135 0 255.5 -47.5t206.5 -124.5t149 -173.5t93.5 -195.5t30.5 -190q0 -149 -67 -291t-160 -235q-126 -126 -254 -186
t-307 -60h-907v55h342v1391h-344z" />
    <glyph glyph-name="E" unicode="E" horiz-adv-x="1748" 
d="M76 1446v57h1446v-530h-41q-38 218 -136.5 350.5t-240.5 132.5h-410v-655h166q77 0 121 28.5t76 115.5t51 255h41v-868h-43q-12 111 -28 186t-36 122.5t-51.5 72.5t-66 34t-86.5 9h-144v-709h391q103 0 159.5 19.5t105.5 68.5q56 54 114 186.5t76 294.5h43l-8 -616h-1485
v57h348v1389h-362z" />
    <glyph glyph-name="F" unicode="F" horiz-adv-x="1622" 
d="M90 1446l2 57h1407v-567h-43q-14 67 -34 131.5t-54 137.5t-75 127t-100 90t-126 36h-389v-645h125q38 0 72 8t72 33.5t65.5 67.5t46 116t20.5 172h45v-864h-43q-3 87 -18.5 156.5t-34.5 113t-50 75t-55 46.5t-59.5 23t-53 9t-46.5 1h-86v-715h334v-55h-906v55h316v1391
h-332z" />
    <glyph glyph-name="G" unicode="G" horiz-adv-x="1748" 
d="M1470 -45h-51q-15 65 -24.5 103.5t-24 89.5t-28.5 76.5t-27 25.5q-11 0 -20.5 -14t-33.5 -51t-61 -74q-32 -31 -61.5 -53.5t-75.5 -49t-106 -41t-128 -14.5q-138 0 -270.5 66t-227 170.5t-152.5 238.5t-58 266q0 112 31 221.5t84 199t124 166.5t149 129.5t161 82
t159 29.5q46 0 89.5 -7t76 -16.5t65 -26t53 -29.5t45 -34t35 -32t29 -31t21.5 -23q20 -20 41 -20q39 0 114 202q3 9 5 13h43l12 -687h-37q-18 78 -43.5 151t-61.5 148t-84 136t-106 109t-132.5 75t-157.5 27q-88 0 -154 -25t-125 -82q-87 -87 -117 -224.5t-30 -430.5
q0 -236 25 -359q74 -358 388 -358q51 0 101 8.5t108.5 34.5t101.5 67.5t72 115t29 169.5v187h-307v57h764v-57h-222v-625z" />
    <glyph glyph-name="H" unicode="H" horiz-adv-x="2027" 
d="M88 1446v57h868v-57h-305v-639h729v639h-307v57h869v-57h-306v-1389h303v-57h-864v57h305v691h-729v-691h307v-57h-870v57h307v1389h-307z" />
    <glyph glyph-name="I" unicode="I" horiz-adv-x="1067" 
d="M84 1446v57h901v-57h-323v-1391h323v-55h-899v55h320v1391h-322z" />
    <glyph glyph-name="J" unicode="J" horiz-adv-x="1343" 
d="M436 1446v57h862v-57h-299v-895q0 -167 -41.5 -266.5t-111.5 -171.5q-77 -77 -175.5 -119.5t-197.5 -42.5q-85 0 -162 34t-129.5 87.5t-83 120t-30.5 131.5q0 80 43.5 140t124.5 60q67 0 115 -50.5t48 -119.5q0 -33 -13 -63t-28 -45q-22 -22 -60 -34t-59.5 -26.5
t-21.5 -50.5q0 -45 67.5 -91t180.5 -46q128 0 203 87.5t75 281.5v1079h-307z" />
    <glyph glyph-name="K" unicode="K" horiz-adv-x="2027" 
d="M113 1446v57h805v-57h-259v-797l574 598q41 44 41 96q0 45 -40.5 74t-129.5 29h-74v57h793v-57h-80q-151 0 -268 -65.5t-263 -219.5l-188 -196l539 -760q50 -70 78 -98t63 -40t100 -12h162v-55h-915v55h166q94 0 94 45q0 22 -27 60l-440 618l-185 -194v-529h252v-55h-802
v55h299v1391h-295z" />
    <glyph glyph-name="L" unicode="L" horiz-adv-x="1622" 
d="M80 1446v57h979v-57h-369v-1399h316q31 0 49 0.5t54 6t61 15.5t61 31t62.5 50t59 75t56.5 104t47.5 138.5t40.5 177.5h49l-22 -645h-1444v57h354v1389h-354z" />
    <glyph glyph-name="M" unicode="M" horiz-adv-x="2027" 
d="M47 1446v57h617l354 -1085l354 1085h610v-57h-296v-1391h294v-55h-866v55h316v1391h-25l-469 -1446h-45l-475 1446h-23v-1114q0 -142 50 -209.5t180 -67.5h94v-55h-672v55h53q141 0 192.5 75.5t51.5 248.5v819q0 248 -197 248h-98z" />
    <glyph glyph-name="N" unicode="N" horiz-adv-x="1878" 
d="M1839 1501v-55h-80q-136 0 -198 -78t-62 -270v-1098h-47l-981 1268v-832q0 -101 14.5 -168t52.5 -117t106.5 -73t172.5 -23h76v-55h-846v55h82q165 0 231 93.5t60 271.5v911q-53 68 -112 91.5t-173 23.5h-51v57h524l836 -1077v688q0 87 -15.5 149t-39.5 97t-64.5 55
t-79 25.5t-94.5 5.5h-86v57z" />
    <glyph glyph-name="O" unicode="O" horiz-adv-x="1748" 
d="M881 1522q138 0 268.5 -66.5t226 -175.5t153.5 -256.5t58 -302.5q0 -101 -32 -208t-95 -206t-147.5 -178t-199 -126.5t-239.5 -47.5q-140 0 -271.5 63.5t-229 169t-156.5 251.5t-59 302q0 85 27.5 186t87 207t142 192t204.5 141t262 55zM866 0q89 0 158.5 26t114 62
t76 104t47 122t24 148t9.5 150t1 158q0 83 -1.5 135.5t-10 135t-24 136t-46.5 115.5t-74.5 98.5t-110.5 61.5t-152 25q-90 0 -158.5 -26t-113.5 -61.5t-76 -107.5t-46.5 -127.5t-23.5 -161t-9 -168t-1 -186.5q0 -54 1 -93.5t5.5 -95.5t12.5 -97.5t23.5 -90.5t36.5 -85
t52.5 -71t71.5 -57t94.5 -35.5t119.5 -13.5z" />
    <glyph glyph-name="P" unicode="P" horiz-adv-x="1622" 
d="M854 1458h-197v-706h234q75 0 133 10.5t97.5 27.5t67.5 45.5t43 56t23.5 68.5t10.5 73.5t2 80.5q0 42 -2 73t-9 66t-20 59.5t-33.5 49.5t-51.5 41t-72.5 29.5t-98.5 19.5t-127 6zM68 1446v57h850q119 0 228.5 -26t199.5 -75.5t144 -131.5t54 -185q0 -70 -35 -136
t-101 -120t-174.5 -87t-242.5 -33h-336v-654h330v-55h-907v55h323v1391h-333z" />
    <glyph glyph-name="Q" unicode="Q" horiz-adv-x="1748" 
d="M1606 98h57q-1 -47 -8.5 -89t-29 -87t-55.5 -77.5t-91 -53t-131 -20.5q-127 0 -200 56.5t-85 154.5q-30 -9 -88 -19q-70 -8 -105 -8q-139 0 -269.5 63.5t-227 169t-155 251.5t-58.5 302q0 70 20 153t58 171t99.5 169.5t138.5 146t182 103t223 38.5q136 0 266 -66
t225.5 -174t154 -254.5t58.5 -300.5q0 -174 -89 -354.5t-255 -298.5q115 -189 223 -189q63 0 102.5 48.5t39.5 123.5v41zM874 418q103 0 172.5 -65.5t145.5 -207.5q30 36 51 99t31 122t15.5 147.5t6 136t0.5 126.5q0 81 -1.5 134.5t-10 134.5t-24.5 134.5t-46.5 115
t-74 97.5t-110 60.5t-150.5 24.5q-88 0 -157 -25.5t-114 -62.5t-76.5 -103t-47 -121t-24 -145.5t-10 -147t-1.5 -151.5q0 -122 4 -203.5t16.5 -160t36 -131.5t61 -97.5t92.5 -77.5q-32 51 -32 121q0 99 67 172.5t180 73.5zM864 373q-79 0 -135.5 -59.5t-56.5 -139.5
q0 -81 65 -156q49 -18 137 -18q101 0 181 37q-4 43 -7 68.5t-9.5 65.5t-15 64.5t-22.5 53.5t-32.5 45.5t-45 27.5t-59.5 11z" />
    <glyph glyph-name="R" unicode="R" horiz-adv-x="1878" 
d="M936 1460h-207v-661h199q199 0 303 81.5t104 274.5q0 64 -13 113t-30.5 81t-52.5 54t-62 33t-77 16.5t-79 6.5t-85 1zM88 1446v57h930q286 0 437 -102t151 -256q0 -15 -2.5 -32.5t-14 -51.5t-31.5 -64.5t-60.5 -67.5t-94.5 -66.5t-139.5 -54.5t-190.5 -38
q150 -61 227.5 -147t124.5 -209q24 -60 44 -138.5t30.5 -125.5t32 -81t55.5 -34q70 0 113 83t43 218v72h47v-76q0 -367 -287 -367q-126 0 -205 89t-79 253v76q0 53 -2 87.5t-9 77.5t-19.5 70t-36 55.5t-57.5 44.5t-83 26t-113 10h-170v-697h334v-57h-952v57h362v1389h-385z
" />
    <glyph glyph-name="S" unicode="S" horiz-adv-x="1343" 
d="M143 616h43q39 -128 99.5 -238.5t138.5 -195t175 -132.5t200 -48q139 0 243.5 81t104.5 204q0 108 -74 182q-49 49 -133 84t-175.5 57t-184.5 45.5t-181 63t-143 94.5q-59 57 -92 130t-33 183q0 173 119.5 283.5t292.5 110.5q184 0 340 -156q46 -48 59 -53q4 -2 8 -2
q26 0 62.5 90t42.5 121h47v-562h-47q-32 127 -91.5 228.5t-129.5 163t-143.5 93.5t-143.5 32q-140 0 -234 -77.5t-94 -178.5q0 -43 17.5 -83t39.5 -61q48 -48 135.5 -84t185.5 -60t197.5 -49t193.5 -66.5t151 -98.5q114 -114 114 -303q0 -215 -129.5 -336t-332.5 -121
q-110 0 -211.5 54t-167.5 120q-15 15 -33.5 35.5t-28 30.5t-20.5 18t-19 8q-44 0 -123 -266h-45v659z" />
    <glyph glyph-name="T" unicode="T" horiz-adv-x="1622" 
d="M109 897v606h1404v-608h-45q-44 196 -105.5 326.5t-98.5 167.5q-41 41 -74 54t-86 13h-166v-1401h395v-55h-1044v55h393v1403h-154q-62 0 -88 -7t-59 -40q-68 -66 -131 -211t-98 -303h-43z" />
    <glyph glyph-name="U" unicode="U" horiz-adv-x="1878" 
d="M59 1446v57h875v-57h-324v-944q0 -48 3 -89.5t12.5 -91.5t25 -90t43.5 -79t64.5 -65t91 -42t121.5 -16q94 0 176 31t149.5 94.5t106.5 173t39 252.5v493q0 120 -14.5 193t-51.5 113t-88.5 53.5t-138.5 13.5h-100v57h772v-57h-90q-108 0 -165 -62.5t-57 -214.5v-587
q0 -134 -34 -242t-89.5 -178.5t-131 -117.5t-155 -67t-163.5 -20q-81 0 -160.5 17.5t-156.5 57.5t-135.5 97t-94 143.5t-35.5 190.5v983h-295z" />
    <glyph glyph-name="V" unicode="V" horiz-adv-x="1748" 
d="M45 1446v57h811v-57h-244q-43 0 -43 -21q0 -10 19 -61l387 -1038l311 804q47 121 47 191q0 57 -33.5 91t-85.5 34h-100v57h590v-57q-55 0 -99.5 -11.5t-93.5 -42.5t-93 -94.5t-81 -158.5l-450 -1174h-49l-519 1387q-24 63 -44 78.5t-70 15.5h-160z" />
    <glyph glyph-name="W" unicode="W" horiz-adv-x="2410" 
d="M53 1446v57h692v-57h-124q-70 0 -70 -21q0 -6 8 -26l359 -1034l270 790l-82 250q-9 30 -19 35.5t-51 5.5h-157v57h710v-57h-184q-33 0 -33 -23q0 -6 8 -34l332 -1035l225 637q4 12 17.5 49.5l18 50t14.5 42.5t13.5 45t9 37.5t7.5 40t2 34.5q0 65 -42.5 110.5t-125.5 45.5
h-98v57h604v-57q-46 0 -67 -2t-55 -13t-55 -36.5t-51.5 -70.5t-60 -116.5t-65.5 -173.5l-379 -1069h-53l-357 1112l-380 -1110h-43l-498 1422q-12 38 -24.5 47.5t-53.5 9.5h-162z" />
    <glyph glyph-name="X" unicode="X" horiz-adv-x="2027" 
d="M104 1446v57h850v-57h-149q-56 0 -81.5 -7.5t-25.5 -27.5q0 -23 37 -72l305 -424l291 375q25 32 25 62q0 40 -40.5 67t-101.5 27h-118v57h723v-57h-31q-272 0 -453 -229l-264 -343l457 -632q34 -46 52.5 -70t43.5 -49t43.5 -35t48 -19.5t61.5 -11.5t81 -2h100v-55h-920
v55h191q76 0 76 43q0 20 -21 47l-377 521l-237 -301q-7 -9 -24 -31t-22.5 -29t-17.5 -23.5t-16 -23.5t-11 -20.5t-9.5 -22.5t-4.5 -21t-2 -24q0 -57 52 -86t122 -29h144v-55h-809v55h57q142 0 230.5 50t181.5 169l338 433l-379 522q-44 60 -65 87.5t-49.5 59t-49.5 43
t-48 19.5t-61 8h-123z" />
    <glyph glyph-name="Y" unicode="Y" horiz-adv-x="1878" 
d="M55 1446v57h828v-57h-226q-57 0 -57 -25q0 -7 6 -16l441 -739l317 544q35 57 35 107q0 65 -60.5 97t-134.5 32h-88v57h707v-57h-76q-189 0 -309 -205l-369 -631v-555h324v-55h-906v55h328v508l-491 817q-25 42 -42.5 54t-48.5 12h-178z" />
    <glyph glyph-name="Z" unicode="Z" horiz-adv-x="1472" 
d="M219 969l12 534h1192l-1028 -1452h375q57 0 99 3.5t94 17t91.5 37.5t84 67t80 102.5t71 147t64.5 199.5h45l-17 -625h-1333l1030 1456h-413q-68 0 -135 -33.5t-123 -94t-94.5 -154.5t-47.5 -205h-47z" />
    <glyph glyph-name="bracketleft" unicode="[" horiz-adv-x="811" 
d="M229 1503h435v-35h-330v-1572h332v-35h-437v1642z" />
    <glyph glyph-name="backslash" unicode="\" horiz-adv-x="681" 
d="M61 1503l627 -1894h-70l-624 1894h67z" />
    <glyph glyph-name="bracketright" unicode="]" horiz-adv-x="811" 
d="M147 1503h435v-1642h-437v35h332v1572h-330v35z" />
    <glyph glyph-name="asciicircum" unicode="^" horiz-adv-x="1228" 
d="M555 1434h119l467 -930h-131l-398 790l-393 -790h-131z" />
    <glyph glyph-name="underscore" unicode="_" horiz-adv-x="1024" 
d="M1024 -256h-1024v102h1024v-102z" />
    <glyph glyph-name="grave" unicode="`" horiz-adv-x="681" 
d="M442 1243l-12 -14l-319 131q-66 28 -66 74q0 27 20 45t50 18q49 0 149 -90z" />
    <glyph glyph-name="a" unicode="a" 
d="M719 475v150q-59 -34 -130.5 -61t-119.5 -49.5t-84 -59.5q-68 -65 -68 -195q0 -104 45 -160.5t117 -56.5q40 0 79 21.5t76.5 68t61 135t23.5 207.5zM719 684v109q0 61 -17 106.5t-42 70.5t-59 40t-60.5 19.5t-55.5 4.5q-83 0 -133.5 -28.5t-50.5 -59.5q0 -11 11.5 -21
t28.5 -19t33.5 -21.5t28 -35.5t11.5 -54q0 -22 -11 -49t-43 -52.5t-79 -25.5q-60 0 -103 42.5t-43 102.5q0 113 106 192.5t287 79.5q96 0 168.5 -21t113 -52.5t65.5 -76t32.5 -83t7.5 -82.5v-502q0 -162 91 -162q102 0 102 269v80h61v-33q0 -62 -1.5 -106.5t-7 -93.5
t-15.5 -82.5t-27 -65.5t-40.5 -50.5t-57.5 -30t-78 -11.5q-111 0 -156 66.5t-45 203.5q-84 -270 -344 -270q-43 0 -83 7t-80 24.5t-69.5 44.5t-48 70.5t-18.5 98.5q0 102 97 199q56 56 139 95t196 80.5t189 82.5z" />
    <glyph glyph-name="b" unicode="b" horiz-adv-x="1343" 
d="M731 1051q-99 0 -178 -82q-74 -72 -96.5 -164.5t-22.5 -231.5q0 -222 19.5 -321t78.5 -158q71 -71 177 -71q61 0 109 21t78.5 51.5t52.5 80t32 88.5t16 97.5t6.5 87.5t0.5 75q0 77 -2 123.5t-11 116.5t-32 122.5t-60 90.5q-74 74 -168 74zM287 -29h-54v1325
q0 144 -192 144v63l389 17v-660q42 118 131 178t193 60q90 0 178 -43.5t155.5 -117t109.5 -178t42 -218.5q0 -118 -42.5 -223.5t-113.5 -179.5t-165 -117.5t-195 -43.5q-119 0 -211 67.5t-139 172.5q-34 -45 -57 -113.5t-29 -132.5z" />
    <glyph glyph-name="c" unicode="c" horiz-adv-x="1067" 
d="M934 406h65q-3 -62 -18 -121t-47 -116t-78.5 -99.5t-117 -68.5t-156.5 -26q-82 0 -160 33t-138.5 88.5t-106.5 125.5t-70.5 148t-24.5 152q0 100 38 202t104 185.5t164 136t208 52.5q164 0 277.5 -88.5t113.5 -223.5q0 -75 -45.5 -113t-95.5 -38q-58 0 -96.5 40.5
t-38.5 92.5q0 39 13.5 70t32.5 48.5t38.5 30t33 22.5t13.5 19q0 13 -24 34.5t-76.5 41t-116.5 19.5q-50 0 -91.5 -11.5t-71.5 -30.5t-54.5 -49t-40 -60t-27 -71.5t-17.5 -75.5t-9.5 -80.5t-4 -78t-0.5 -74.5v-43q0 -213 83.5 -323.5t209.5 -110.5q35 0 73.5 9t84 34t82 63.5
t62.5 104.5t30 150z" />
    <glyph glyph-name="d" unicode="d" horiz-adv-x="1343" 
d="M338 543q0 -200 18 -301t76 -160q63 -59 148 -59q99 0 172.5 75t111 203t37.5 291q0 122 -37.5 226t-110 168.5t-165.5 64.5q-88 0 -152 -64q-57 -57 -77.5 -165.5t-20.5 -278.5zM649 1503l447 8v-1216q0 -59 6.5 -95.5t26.5 -67.5t60 -44.5t103 -13.5v-64l-391 -10v274
q-46 -142 -127.5 -219.5t-198.5 -77.5q-82 0 -165.5 42.5t-151.5 115.5t-111 181t-43 229q0 139 70.5 268.5t181 207t224.5 77.5q105 0 191 -69.5t130 -192.5v413q0 36 -4.5 64t-15.5 47.5t-22 34t-32 23.5t-36 14t-44 7t-46 2.5t-52 0.5v61z" />
    <glyph glyph-name="e" unicode="e" horiz-adv-x="1067" 
d="M778 637v117q0 29 -1 51.5t-6.5 55.5t-14.5 58.5t-26 52.5t-40.5 44.5t-59.5 29t-81 11.5q-64 0 -110 -22.5t-71.5 -57t-40 -93t-18.5 -113.5t-4 -134h473zM915 322h93q-3 -27 -17 -66t-48.5 -91t-81.5 -95t-124.5 -73t-169.5 -30q-87 0 -161 26t-126.5 71.5t-92.5 102.5
t-64 122.5t-35.5 128.5t-11.5 123q0 143 59.5 270t169 207t242.5 80q198 0 323.5 -148.5t139.5 -388.5h-707v-96q0 -410 291 -410q111 0 205 73t116 194z" />
    <glyph glyph-name="f" unicode="f" horiz-adv-x="811" 
d="M59 1006h193q-2 136 32.5 236.5t99.5 160t149.5 87.5t189.5 28q65 0 112 -14t70 -37t33 -46t10 -47q0 -42 -28 -71t-70 -29q-45 0 -71.5 31.5t-26.5 60.5q0 45 34 82q-41 14 -96 14q-34 0 -64.5 -7.5t-64 -29.5t-57.5 -57t-39.5 -95.5t-15.5 -139.5v-127h256v-99h-256
v-848h221l-2 -59h-596v59h180v848h-193v99z" />
    <glyph glyph-name="g" unicode="g" 
d="M541 1057q-36 0 -67 -10.5t-63.5 -38t-51.5 -87.5t-19 -147q0 -47 2 -80t7.5 -73t18 -66t32 -49.5t51 -35t73.5 -11.5q128 0 174.5 61t46.5 205q0 57 -3 96.5t-14.5 87.5t-32.5 77.5t-60 50t-94 20.5zM711 98q-236 0 -346.5 -34.5t-110.5 -114.5q0 -28 13.5 -52t47 -47
t100.5 -36t163 -13q108 0 195.5 19.5t142.5 60t55 96.5q0 58 -58.5 89.5t-201.5 31.5zM549 1098q76 0 157 -41.5t152 -122.5q-3 75 41.5 119.5t114.5 44.5q63 0 114.5 -43.5t51.5 -106.5q0 -38 -26 -65t-64 -27q-43 0 -70 26.5t-27 55.5t20.5 56t57.5 38q-25 25 -63 25
q-45 0 -78 -36t-33 -95q0 -27 18 -92q19 -55 19 -97q0 -52 -25.5 -106.5t-74.5 -103.5t-133.5 -80t-188.5 -31q-18 0 -77 4t-73 4q-77 0 -119 -25.5t-42 -58.5q0 -22 13.5 -37t39.5 -21t49 -8t55 -2q25 0 73.5 1.5t100.5 3t100 3.5t80 3.5t33 1.5q163 0 242.5 -72.5
t79.5 -183.5q0 -35 -10.5 -68t-43.5 -71t-85.5 -66t-145.5 -47t-215 -19q-127 0 -223 19.5t-147 50.5t-75 62.5t-24 62.5q0 27 13 48t33 35.5t56 27.5t68.5 21t85.5 19q-52 5 -92.5 21t-63.5 37t-37.5 46.5t-19 45.5t-4.5 39q0 175 230 172q-115 51 -163 126.5t-48 158.5
q0 82 54.5 163t146.5 133t192 52z" />
    <glyph glyph-name="h" unicode="h" horiz-adv-x="1343" 
d="M455 1522v-686q45 113 131.5 177t201.5 64q88 0 155 -31t105 -83.5t56 -114.5t18 -131v-658h189v-59h-588v59h203v691q0 62 -7 105.5t-26 83.5t-58 60.5t-98 20.5q-24 0 -50.5 -8t-59.5 -26.5t-62.5 -55t-54.5 -87t-40 -130.5t-15 -178v-476h178v-59h-576v59h201v1231
q0 83 -51 118.5t-150 35.5v59z" />
    <glyph glyph-name="i" unicode="i" horiz-adv-x="661" 
d="M330 1520q57 0 98 -41t41 -99q0 -57 -41 -98t-98 -41t-98.5 41t-41.5 98q0 58 41.5 99t98.5 41zM573 59v-59h-487v59h158v787q0 123 -154 141v60l316 32h34v-1020h133z" />
    <glyph glyph-name="j" unicode="j" horiz-adv-x="811" 
d="M473 1522q58 0 98.5 -41.5t40.5 -98.5q0 -58 -40 -98.5t-99 -40.5t-99 40.5t-40 98.5q0 57 40.5 98.5t98.5 41.5zM557 1079h35v-860q0 -214 -88 -330t-228 -116q-59 0 -105 19t-70.5 48.5t-37 58.5t-12.5 54q0 64 35 102.5t84 38.5t83 -34t34 -80q0 -44 -30.5 -74.5
t-76.5 -30.5q-23 0 -47 6q37 -63 125 -63q137 0 137 207v745q0 62 -7 97t-32 65.5t-76.5 42.5t-136.5 12v60z" />
    <glyph glyph-name="k" unicode="k" horiz-adv-x="1343" 
d="M47 1442l-2 59l420 19v-1090l352 340q35 35 47.5 56t12.5 48q0 52 -34 82.5t-95 30.5h-82v60h591v-60q-48 -8 -92 -22.5t-88.5 -41.5t-76.5 -49.5t-81 -67.5t-75.5 -71t-83.5 -84l389 -592h149v-59h-579v59h178l-289 447l-145 -139v-308h178v-59h-592v59h217v1225
q0 158 -180 158h-39z" />
    <glyph glyph-name="l" unicode="l" horiz-adv-x="661" 
d="M406 1520h34v-1461h168v-59h-557v59h193v1229q0 73 -41.5 112.5t-145.5 43.5v59z" />
    <glyph glyph-name="m" unicode="m" horiz-adv-x="2027" 
d="M1296 59v-59h-553v59h187v695q0 138 -44 207t-122 69q-84 0 -162 -78q-67 -67 -104 -206.5t-37 -426.5v-260h182v-59h-567v59h188v795q0 133 -196 133v60l368 26h25v-293q25 82 63.5 143.5t83 94.5t88 49t86.5 16q117 0 208 -75t128 -248q34 159 126.5 241t215.5 82
q70 0 127.5 -24t95 -63.5t62.5 -92t36 -106t11 -109.5v-629h188v-59h-567v59h182v701q0 134 -48 203t-124 69q-35 0 -79 -18.5t-70 -44.5q-35 -35 -58.5 -73t-45.5 -105t-33 -174.5t-11 -258.5v-299h170z" />
    <glyph glyph-name="n" unicode="n" horiz-adv-x="1343" 
d="M455 1073v-301q27 89 66.5 152t85.5 96t89.5 47t91.5 14q69 0 127.5 -26t97 -68t66 -97t39.5 -112t12 -114v-605h170v-59h-552v59h186v693q0 139 -46 207.5t-128 68.5q-86 0 -156 -70q-32 -32 -55 -72t-46.5 -113t-35.5 -195t-12 -289v-230h182v-59h-571v59h192v795
q0 133 -197 133v60l369 26h25z" />
    <glyph glyph-name="o" unicode="o" 
d="M84 526q0 126 48.5 236.5t125 182.5t169.5 113.5t185 41.5q98 0 192.5 -43.5t167 -118.5t117 -183t44.5 -229q0 -112 -44 -216t-116.5 -178t-170 -118.5t-200.5 -44.5q-99 0 -194 45t-166 119.5t-114.5 178t-43.5 214.5zM313 455q0 -125 16 -212t70 -141q87 -84 207 -84
q123 0 207 84q57 57 73.5 141.5t16.5 213.5q0 97 -0.5 140t-3 107.5t-8.5 94t-17 68.5t-27.5 64t-41.5 50q-72 72 -199 72q-118 0 -200 -82q-64 -64 -78.5 -166t-14.5 -350z" />
    <glyph glyph-name="p" unicode="p" horiz-adv-x="1343" 
d="M762 66q86 0 147 61q53 53 70.5 157t17.5 294q0 54 -0.5 81.5t-2 76t-5.5 74.5t-11.5 65.5t-18.5 60.5t-28 47t-39 39t-52 22t-66 9q-15 0 -30.5 -1.5t-48.5 -11.5t-61 -27.5t-61 -54t-56 -86t-38.5 -128.5t-15.5 -177q0 -61 7.5 -124t29 -132.5t53.5 -122.5t86 -87.5
t123 -34.5zM672 -156v-57h-602v57h190v965q0 99 -45.5 139.5t-151.5 40.5v60l392 18v-272q9 54 34 106t63.5 96.5t96 71.5t123.5 27q90 0 176.5 -48t147.5 -122.5t98 -168t37 -182.5q0 -104 -39.5 -205t-103 -176.5t-148 -122t-170.5 -46.5q-106 0 -187.5 69t-127.5 197
v-447h217z" />
    <glyph glyph-name="q" unicode="q" horiz-adv-x="1343" 
d="M588 68q104 0 188 84q67 67 91 162.5t24 297.5q0 165 -16.5 240t-73.5 131q-72 72 -185 72q-99 0 -159 -60q-56 -58 -72 -165.5t-16 -346.5q0 -150 18.5 -233t58.5 -125q23 -23 62.5 -40t79.5 -17zM1294 -213h-606v57h207v406q-119 -227 -315 -227q-72 0 -149 37.5
t-142.5 103t-107.5 166.5t-42 215q0 108 42.5 211.5t110.5 178t156 120t177 45.5q116 0 208.5 -84t133.5 -195q40 108 75 262h50v-1239h202v-57z" />
    <glyph glyph-name="r" unicode="r" horiz-adv-x="937" 
d="M446 1063v-303q18 82 47.5 143.5t58.5 93.5t64.5 51t59.5 24t49 5q89 0 134.5 -53t45.5 -115q0 -60 -33 -103.5t-86 -43.5q-46 0 -79 31t-33 86q0 35 12 60t24.5 38t12.5 20q0 29 -27 29q-72 0 -126 -77t-80.5 -197.5t-26.5 -264.5v-426h217v-61h-586v61h172v754
q0 161 -170 170v62z" />
    <glyph glyph-name="s" unicode="s" horiz-adv-x="937" 
d="M86 434h39q21 -86 56.5 -159t85 -133.5t118 -95t147.5 -34.5q41 0 81 11.5t75 35t56.5 63.5t21.5 91q0 64 -49 113q-30 30 -86 52.5t-118 37t-125.5 30t-124 42t-97.5 63.5q-40 41 -61 102t-21 115q0 133 90 226t221 93q168 0 299 -167q51 69 82 159h35v-420h-41
q-36 97 -78.5 169t-80.5 112t-80.5 64t-74 31t-65.5 7q-84 0 -145.5 -54.5t-61.5 -131.5q0 -65 52 -117q29 -29 81 -48.5t111 -31.5t120.5 -26t122.5 -42.5t103 -70.5q35 -35 56.5 -69.5t29.5 -67t10 -51t2 -45.5q0 -83 -32 -147.5t-83 -100.5t-106 -54t-110 -18
q-174 0 -328 154q-51 -64 -84 -152h-43v465z" />
    <glyph glyph-name="t" unicode="t" horiz-adv-x="937" 
d="M102 950v62q152 80 223 194t81 316h61v-465h293v-107h-293v-737q0 -176 123 -176q53 0 94.5 33t65.5 89.5t36.5 125t12.5 145.5v92h65v-82q0 -79 -9 -147t-31.5 -131.5t-56.5 -107.5t-87.5 -70.5t-122.5 -26.5q-128 0 -207.5 72.5t-79.5 210.5v710h-168z" />
    <glyph glyph-name="u" unicode="u" horiz-adv-x="1343" 
d="M936 0v342q-19 -89 -58.5 -157.5t-82 -105t-93 -59.5t-85.5 -29.5t-66 -6.5q-59 0 -113.5 18.5t-99.5 54.5t-72.5 95t-27.5 133v596q0 30 -13 51t-28.5 31t-41.5 15.5t-40.5 6t-36.5 0.5v64h356v-787q0 -57 17.5 -99t46.5 -63.5t59 -31t61 -9.5q45 0 87.5 17.5t82 59
t69 102.5t47.5 154.5t18 209.5v279q0 53 -34.5 78.5t-111.5 25.5h-94v64h436v-809q0 -34 6.5 -60t24 -50.5t53 -38.5t88.5 -17v-62z" />
    <glyph glyph-name="v" unicode="v" horiz-adv-x="1343" 
d="M63 987v60h584v-60h-139q-43 0 -43 -24q0 -15 12 -45l242 -662l225 514q31 70 31 115q0 102 -158 102h-53v60h516v-60h-59q-66 0 -112.5 -46.5t-90.5 -143.5l-367 -828h-37l-352 965q-11 32 -24 42.5t-45 10.5h-130z" />
    <glyph glyph-name="w" unicode="w" horiz-adv-x="1748" 
d="M1270 987v60h422v-60q-39 -4 -71 -20.5t-52 -35.5t-39.5 -53t-28.5 -56t-24 -62l-291 -785h-47l-269 730l-260 -728h-45l-350 938q-10 28 -17 40.5t-25.5 22t-51.5 9.5h-64v60h480v-60h-68q-30 0 -42.5 -5.5t-12.5 -20.5q0 -13 12 -43l238 -633l176 497l-60 162
q-9 26 -24 34.5t-51 8.5h-70v60h522v-60h-90q-37 0 -53.5 -7.5t-16.5 -29.5q0 -20 15 -61l225 -613l184 496q19 55 19 92q0 60 -37 91.5t-82 31.5h-51z" />
    <glyph glyph-name="x" unicode="x" horiz-adv-x="1343" 
d="M94 987v60h594v-60h-82q-78 0 -78 -33q0 -14 21 -49l166 -262l168 213q28 39 28 72q0 27 -17.5 43t-51.5 16h-78v60h442v-60q-30 0 -46.5 -1t-49.5 -11t-61 -29t-68.5 -57.5t-83.5 -93.5l-152 -197l297 -467q15 -23 27 -36.5t42.5 -25.5t74.5 -12h76v-57h-594v57h96
q67 0 67 23q0 8 -28 59l-187 295l-178 -227q-37 -50 -37 -86q0 -64 121 -64h47v-57h-485v57h45q64 0 118.5 28.5t117.5 109.5l223 284l-248 389q-46 72 -83.5 95.5t-106.5 23.5h-56z" />
    <glyph glyph-name="y" unicode="y" horiz-adv-x="1343" 
d="M125 987v60h575v-60h-139q-43 0 -43 -16q0 -5 3 -13.5t8.5 -23.5t9.5 -27l219 -608l229 520q21 54 21 82q0 86 -119 86h-64v60h492v-60h-41q-91 0 -145.5 -41t-96.5 -139l-370 -856q-35 -79 -99.5 -126.5t-144.5 -47.5q-60 0 -103.5 17.5t-64.5 44t-30 50.5t-9 45
q0 31 8 56.5t34.5 47t68.5 21.5q49 0 77.5 -33.5t28.5 -74.5q0 -31 -10.5 -51t-23.5 -26.5t-23.5 -11.5t-10.5 -9q0 -17 12 -21t44 -4q154 0 223 211l-301 848q-26 72 -48 86t-91 14h-76z" />
    <glyph glyph-name="z" unicode="z" horiz-adv-x="1067" 
d="M190 647l15 400h805v-72l-723 -922h276q47 0 86 9.5t80.5 36t73 71t59.5 119t45 174.5h58l-11 -463h-897v82l717 911h-229q-117 0 -194.5 -91t-110.5 -255h-50z" />
    <glyph glyph-name="braceleft" unicode="{" horiz-adv-x="681" 
d="M571 1507v-30q-176 -51 -176 -211q0 -46 21 -142q16 -85 16 -137q0 -101 -60.5 -183.5t-166.5 -125.5q105 -44 166 -128.5t61 -184.5q0 -53 -16 -138q-21 -96 -21 -141q0 -160 176 -211v-31q-132 20 -211 119t-79 242q0 56 16 127q20 88 20 135q0 72 -49 125t-127 67v35
q78 12 127 66.5t49 126.5q0 43 -20 135q-16 75 -16 139q0 131 82 229t208 117z" />
    <glyph glyph-name="bar" unicode="|" horiz-adv-x="454" 
d="M168 -512v2048h119v-2048h-119z" />
    <glyph glyph-name="braceright" unicode="}" horiz-adv-x="681" 
d="M111 1477v30q126 -19 208 -117t82 -229q0 -64 -16 -139q-20 -92 -20 -135q0 -72 49 -126.5t127 -66.5v-35q-78 -14 -127 -67t-49 -125q0 -47 20 -135q16 -71 16 -127q0 -143 -79 -242t-211 -119v31q176 51 176 211q0 45 -21 141q-16 85 -16 138q0 100 61 184.5t166 128.5
q-106 43 -166.5 125.5t-60.5 183.5q0 52 16 137q21 96 21 142q0 160 -176 211z" />
    <glyph glyph-name="asciitilde" unicode="~" horiz-adv-x="1228" 
d="M215 383l-78 74q51 86 111 133t143 47q46 0 91.5 -11.5t67 -21.5t83.5 -39q4 -2 22.5 -11t24 -11t22 -9.5t23.5 -10t21.5 -8t23.5 -7.5t21.5 -5t24 -4t22.5 -1q90 0 176 139l78 -74q-52 -87 -112 -135t-142 -45q-109 0 -238 70q-65 34 -112 51.5t-97 17.5
q-90 0 -176 -139z" />
    <glyph glyph-name="uni00A0" unicode="&#xa0;" horiz-adv-x="608" 
 />
    <glyph glyph-name="exclamdown" unicode="&#xa1;" horiz-adv-x="661" 
d="M309 717v84h43v-111q0 -105 16.5 -211t36 -177t36 -156.5t16.5 -155.5q0 -57 -10 -102.5t-40.5 -80t-78.5 -34.5q-46 0 -75.5 33t-39.5 77t-10 99q0 75 16.5 158.5t36.5 150.5t36.5 181.5t16.5 244.5zM330 979q-52 0 -90.5 38.5t-38.5 90.5q0 54 38 92.5t91 38.5
q54 0 92.5 -38.5t38.5 -92.5q0 -53 -38.5 -91t-92.5 -38z" />
    <glyph glyph-name="cent" unicode="&#xa2;" horiz-adv-x="1067" 
d="M453 96l274 744q9 24 29.5 44t39.5 30t33.5 22.5t14.5 24.5q0 26 -68.5 59t-142.5 33q-50 0 -92 -11.5t-73 -30t-55.5 -49.5t-40.5 -61t-27.5 -73.5t-17.5 -79t-9.5 -85t-4 -84t-0.5 -83.5q0 -54 3.5 -96.5t16 -102.5t43 -112t77.5 -89zM807 1051l90 245h53l-98 -268
q139 -97 139 -240q0 -64 -40.5 -108.5t-102.5 -44.5q-39 0 -71.5 19t-45.5 51l-233 -633q56 -27 112 -27q30 0 66 8.5t82 33t83 62.5t63.5 104t29.5 150h63v-28q0 -32 -8.5 -70.5t-26.5 -85t-50 -89t-75 -77.5t-107 -56.5t-140 -21.5q-86 0 -121 21l-68 -186h-55l74 200
q-129 51 -233.5 195.5t-104.5 312.5q0 106 40.5 211.5t108 186.5t163.5 131.5t200 50.5q131 0 213 -47z" />
    <glyph glyph-name="sterling" unicode="&#xa3;" 
d="M432 160q-85 71 -172 71q-70 0 -112 -36t-42 -86q0 -39 34 -70t87 -31q64 0 118 44.5t87 107.5zM94 711h244q-66 143 -66 276q0 103 35 192t93 149t134.5 94t159.5 34q145 0 238.5 -81.5t93.5 -188.5q0 -69 -42 -116.5t-97 -47.5q-63 0 -99 40t-36 81q0 49 23.5 80.5
t51 42t51 23t23.5 28.5q0 32 -62.5 63t-136.5 31q-106 0 -184 -71.5t-78 -194.5q0 -70 25.5 -134t62 -142.5t52.5 -157.5h338v-74h-324q10 -62 10 -111q0 -177 -69 -301q81 -35 140 -48t124 -13q291 0 313 260h45q-6 -116 -41.5 -208t-90 -147t-117.5 -83.5t-130 -28.5
q-65 0 -139 42.5t-166 123.5q-48 -72 -112.5 -116t-133.5 -44q-73 0 -119.5 43t-46.5 109q0 65 58.5 118.5t169.5 53.5q11 0 22 -0.5t23 -2.5t20.5 -3t20.5 -4.5t18.5 -5t20 -5.5t17.5 -5.5t19 -6.5t17 -6q8 27 8 65q0 120 -106 324h-275v74z" />
    <glyph glyph-name="currency" unicode="&#xa4;" horiz-adv-x="1228" 
d="M616 961q-133 0 -226 -96.5t-93 -227.5q0 -130 92.5 -225t226.5 -95q131 0 223.5 95t92.5 225t-92.5 227t-223.5 97zM61 176l201 201q-88 109 -88 260q0 75 24.5 145t63.5 115l-201 201l95 94l196 -201q117 88 264 88q74 0 143 -24t118 -64l196 201l94 -94l-196 -201
q84 -113 84 -260q0 -156 -84 -260l196 -201l-94 -94l-196 201q-104 -84 -261 -84q-160 0 -264 84l-196 -201z" />
    <glyph glyph-name="yen" unicode="&#xa5;" horiz-adv-x="1878" 
d="M1069 662h487v-58h-487v-184h487v-58h-487v-307h324v-55h-906v55h328v307h-483v58h483v184h-483v58h483v6l-409 714q-25 42 -42 53t-49 11h-178v57h766v-57h-164q-57 0 -57 -23q0 -7 6 -16l359 -637l235 442q3 7 10.5 24t10 24t7 19.5t6 21.5t1.5 18q0 45 -33 75
t-74.5 41t-87.5 11h-88v57h707v-57h-76q-190 0 -309 -203l-287 -528v-53z" />
    <glyph glyph-name="brokenbar" unicode="&#xa6;" horiz-adv-x="454" 
d="M168 -358v716h119v-716h-119zM168 666v716h119v-716h-119z" />
    <glyph glyph-name="section" unicode="&#xa7;" 
d="M838 324q45 30 74.5 75t29.5 93q0 51 -23 90t-75.5 76t-111 70t-156.5 93t-185 125q-108 -81 -108 -178q0 -56 47 -104.5t113.5 -85t183 -107.5t211.5 -147zM610 1526q173 0 272 -75.5t99 -170.5q0 -60 -36 -107t-99 -47q-56 0 -91.5 36.5t-35.5 90.5q0 20 10 44t23 36
q12 12 30 23t27.5 19t9.5 20q0 35 -60.5 58.5t-133.5 23.5q-64 0 -113 -14.5t-75.5 -35t-43 -47t-21.5 -46t-5 -36.5q0 -28 14.5 -64t46.5 -67q34 -34 140.5 -97t222.5 -135t172 -128q92 -92 92 -211q0 -79 -45.5 -155.5t-135.5 -139.5q105 -94 105 -233q0 -117 -104.5 -209
t-258.5 -92q-84 0 -151 17.5t-106.5 44t-65.5 60.5t-35.5 64t-9.5 57q0 70 41 111t100 41q55 0 93 -35t38 -86q0 -29 -10 -52t-21 -33t-27.5 -22.5t-21.5 -17.5q-14 -14 -14 -31q0 -27 51 -47t119 -20q114 0 189 50t75 132q0 56 -55 111q-36 36 -151 105t-236 143.5
t-170 123.5q-84 81 -84 215q0 67 44.5 141.5t147.5 135.5q-56 46 -88 108t-32 129q0 48 19.5 99t60.5 101t117.5 82t176.5 32z" />
    <glyph glyph-name="dieresis" unicode="&#xa8;" horiz-adv-x="681" 
d="M575 1464q41 0 72 -30.5t31 -71.5q0 -43 -31 -74t-72 -31q-43 0 -73.5 31t-30.5 74q0 41 30.5 71.5t73.5 30.5zM109 1464q41 0 71.5 -30.5t30.5 -71.5q0 -43 -30.5 -74t-71.5 -31q-43 0 -74 31t-31 74q0 41 31 71.5t74 30.5z" />
    <glyph glyph-name="copyright" unicode="&#xa9;" horiz-adv-x="1638" 
d="M1546 715q0 -150 -57.5 -286.5t-154.5 -236t-231 -158.5t-282 -59q-149 0 -284.5 59t-232.5 158.5t-154.5 236t-57.5 286.5q0 151 57.5 288.5t154.5 237t232.5 158.5t284.5 59q197 0 364 -99.5t264 -270.5t97 -373zM207 715q0 -170 82.5 -320t225 -241t306.5 -91
t305.5 91t223.5 241t82 320q0 172 -82 323t-223.5 241.5t-305.5 90.5q-125 0 -239 -53.5t-196 -143t-130.5 -209.5t-48.5 -249zM1178 530l-33 -143q0 -17 -12 -25.5t-41 -19.5q-124 -33 -230 -33q-95 0 -174.5 24t-142.5 73.5t-98 133t-35 195.5q0 69 29 139.5t84 133
t147.5 102t206.5 39.5q52 0 97 -7.5t63 -13t61 -20.5q45 -11 45 -45v-148h-41q-3 77 -61 129t-177 52q-139 0 -219 -97t-80 -256q-3 -177 77 -279t239 -102q192 0 258 168h37z" />
    <glyph glyph-name="ordfeminine" unicode="&#xaa;" horiz-adv-x="811" 
d="M467 1096v90q-35 -18 -111 -46t-106 -57q-43 -38 -43 -116q0 -62 29 -95.5t75 -33.5q26 0 51.5 12.5t50 40t39.5 81t15 124.5zM467 1221v65q0 45 -16 76.5t-42 45.5t-48 19t-46 5q-54 0 -86 -17t-32 -37q0 -8 11 -15.5t24.5 -14t24.5 -22.5t11 -38q0 -23 -21 -49.5
t-65 -26.5q-38 0 -66 25.5t-28 60.5q0 68 69 116t187 48q77 0 130 -18t78 -48.5t34.5 -59.5t9.5 -62v-301q0 -99 57 -99q68 0 68 162v47h39v-18q0 -53 -2.5 -88t-11 -71.5t-24 -57.5t-43 -34t-67.5 -13q-72 0 -101.5 40t-29.5 122q-55 -162 -223 -162q-79 0 -137 34.5
t-58 112.5q0 61 64 119q36 34 89.5 57.5t128 48.5t122.5 48z" />
    <glyph glyph-name="guillemotleft" unicode="&#xab;" horiz-adv-x="811" 
d="M549 641l110 -348h-32l-199 346l197 352h32zM270 645l185 -436h-39l-287 434l287 438h37z" />
    <glyph glyph-name="logicalnot" unicode="&#xac;" horiz-adv-x="1228" 
d="M1012 221v441h-914v118h1032v-559h-118z" />
    <glyph glyph-name="uni00AD" unicode="&#xad;" horiz-adv-x="811" 
d="M182 449v155h449v-155h-449z" />
    <glyph glyph-name="registered" unicode="&#xae;" horiz-adv-x="1638" 
d="M475 1094v28h371q106 0 179 -49.5t73 -144.5q0 -81 -48.5 -140.5t-125.5 -85.5l125 -172q102 -139 170 -182v-18h-127q-21 0 -41.5 14.5t-44.5 48.5t-46.5 70.5t-62 100.5t-76.5 118h-112v-213v-12q0 -63 12 -74.5t86 -19.5q5 -1 8 -1v-32h-340v32q36 4 46.5 4.5t28 7.5
t19.5 8.5t7 19t4.5 25.5t-0.5 42v516v10q0 66 -12 78t-85 20q-5 1 -8 1zM709 1083v-364h100q78 0 119 53.5t41 147.5q0 86 -46.5 124.5t-119.5 38.5h-94zM1546 715q0 -150 -57.5 -286.5t-154.5 -236t-231 -158.5t-282 -59q-149 0 -284.5 59t-232.5 158.5t-154.5 236
t-57.5 286.5q0 151 57.5 288.5t154.5 237t232.5 158.5t284.5 59q197 0 364 -99.5t264 -270.5t97 -373zM207 715q0 -170 82.5 -320t225 -241t306.5 -91t305.5 91t223.5 241t82 320q0 172 -82 323t-223.5 241.5t-305.5 90.5q-125 0 -239 -53.5t-196 -143t-130.5 -209.5
t-48.5 -249z" />
    <glyph glyph-name="macron" unicode="&#xaf;" horiz-adv-x="681" 
d="M621 1298h-558v127h558v-127z" />
    <glyph glyph-name="degree" unicode="&#xb0;" horiz-adv-x="819" 
d="M412 1458q123 0 209 -86t86 -209q0 -126 -86 -212.5t-209 -86.5q-126 0 -212.5 86.5t-86.5 212.5q0 123 86.5 209t212.5 86zM412 1389q-91 0 -156.5 -68t-65.5 -158q0 -93 65 -161t157 -68q89 0 153 68t64 161q0 90 -64.5 158t-152.5 68z" />
    <glyph glyph-name="plusminus" unicode="&#xb1;" horiz-adv-x="1228" 
d="M555 678v371h119v-371h456v-119h-456v-377h-119v377h-457v119h457zM98 -37v119h1032v-119h-1032z" />
    <glyph glyph-name="two.superior" unicode="&#xb2;" horiz-adv-x="681" 
d="M80 752v22q64 72 136.5 146t105 107t63.5 73.5t41 73.5t10 77q0 69 -39 117.5t-108 48.5q-72 0 -120 -42.5t-48 -96.5q0 -31 12 -31q6 0 29 13.5t37 13.5q32 0 51.5 -23.5t19.5 -50.5q0 -28 -21 -53t-56 -25q-46 0 -73.5 36.5t-27.5 101.5q0 92 69.5 147t186.5 55
q32 0 64.5 -6.5t66 -22.5t59 -39t42 -59t16.5 -80q0 -74 -76 -147q-36 -36 -136.5 -100.5t-174.5 -133.5h313q22 0 34 3.5t19 18t9 27.5t6 50h24l-20 -221h-514z" />
    <glyph glyph-name="three.superior" unicode="&#xb3;" horiz-adv-x="681" 
d="M344 1462q102 0 178 -47t76 -133q0 -66 -55.5 -104t-139.5 -52q222 -37 222 -196q0 -79 -76.5 -137t-218.5 -58q-107 0 -175.5 42.5t-68.5 121.5q0 38 25.5 64t62.5 26q33 0 53.5 -17.5t20.5 -49.5t-14.5 -49t-32.5 -19.5t-32.5 -8.5t-14.5 -18q0 -28 46 -45.5t85 -17.5
q80 0 130 46.5t50 125.5q0 66 -35.5 116t-93.5 50q-21 0 -50 -7.5t-34 -7.5q-16 0 -16 21q0 18 29 21.5t71 9t63 26.5q41 41 41 125q0 61 -31 102.5t-96 41.5q-46 0 -93.5 -20.5t-47.5 -47.5q0 -8 15.5 -11t34.5 -5t34.5 -20.5t15.5 -53.5q0 -29 -21 -47.5t-52 -18.5
q-40 0 -62 29t-22 72q0 72 68 111.5t161 39.5z" />
    <glyph glyph-name="acute" unicode="&#xb4;" horiz-adv-x="681" 
d="M281 1233l-11 12l179 162q55 49 89.5 69.5t61.5 20.5q29 0 48.5 -19t19.5 -44q0 -48 -60 -70z" />
    <glyph glyph-name="mu" unicode="&#xb5;" horiz-adv-x="1343" 
d="M1290 74v-62l-354 -12v342q-19 -89 -58.5 -157.5t-82 -105t-93 -59.5t-85.5 -29.5t-66 -6.5q-133 0 -217 84q9 -115 36 -220.5t27 -142.5q0 -71 -28.5 -115.5t-81.5 -44.5q-51 0 -78 44.5t-27 115.5q0 38 14 98.5t28 166t14 251.5v660q0 30 -13 51t-28.5 31t-41.5 15.5
t-40.5 6t-36.5 0.5v64h356v-787q0 -57 17.5 -99t46.5 -63.5t59 -31t61 -9.5q45 0 87.5 17.5t82 59t69 102.5t47.5 154.5t18 209.5v279q0 53 -34.5 78.5t-111.5 25.5h-94v64h436v-809q0 -34 6.5 -60t24 -50.5t53 -38.5t88.5 -17z" />
    <glyph glyph-name="paragraph" unicode="&#xb6;" horiz-adv-x="1269" 
d="M561 1503h508v-45q-131 -12 -160 -41q-12 -24 -12 -168v-1257q0 -112 8 -152q1 -7 4.5 -12.5t10 -10t12.5 -8t17 -6.5t19 -5t22.5 -4t23.5 -3.5t27 -4t28 -3.5v-45h-291v1692h-119v-1692h-290v45q10 1 28 3.5t27 4t23.5 3.5t22.5 4t19 5t16.5 6.5t12 8t10 10t4.5 12.5
q9 33 9 152v688q-102 1 -182.5 37.5t-129 96.5t-73.5 132.5t-25 151.5q0 75 28.5 146.5t81 129.5t136 93.5t184.5 35.5z" />
    <glyph glyph-name="periodcentered" unicode="&#xb7;" horiz-adv-x="661" 
d="M162 518q0 51 36.5 87t86.5 36q49 0 86 -36.5t37 -86.5q0 -46 -37 -84.5t-84 -38.5q-51 0 -88 36.5t-37 86.5z" />
    <glyph glyph-name="cedilla" unicode="&#xb8;" horiz-adv-x="681" 
d="M195 -158l110 170h45l-53 -92q76 -19 107.5 -52t31.5 -81q0 -58 -47.5 -107t-116.5 -63q-41 -8 -153 -8v39q74 8 95.5 14t45.5 27q33 33 33 75q0 38 -23 56.5t-75 21.5z" />
    <glyph glyph-name="one.superior" unicode="&#xb9;" horiz-adv-x="681" 
d="M160 1446h55q96 0 195 16h26v-624q0 -34 14 -48t52 -14h67v-24h-411v24h65q39 0 56.5 15.5t17.5 64.5v508q0 57 -70 57h-67v25z" />
    <glyph glyph-name="ordmasculine" unicode="&#xba;" horiz-adv-x="811" 
d="M408 1462q132 0 234.5 -99t102.5 -245q0 -137 -104 -235.5t-242 -98.5q-132 0 -234 100t-102 234q0 76 31.5 142t82 109.5t111 68t120.5 24.5zM403 1436q-77 0 -131 -50q-41 -38 -50 -99.5t-9 -211.5q0 -73 10.5 -125.5t44.5 -85.5q54 -49 135 -49t134 49q37 34 48 85
t11 128q0 154 -10 214.5t-54 101.5q-49 43 -129 43z" />
    <glyph glyph-name="guillemotright" unicode="&#xbb;" horiz-adv-x="811" 
d="M262 647l-110 348h32l199 -346l-197 -352h-32zM541 643l-185 436h39l287 -434l-287 -438h-37z" />
    <glyph glyph-name="onequarter" unicode="&#xbc;" horiz-adv-x="2068" 
d="M1358 188v306l-246 -306h246zM1081 193l379 466h23v-469h166v-65h-166v-94q0 -34 15 -47t50 -13h68v-22h-395v22h71q39 0 52.5 16.5t13.5 55.5v82h-277v68zM350 1393h56q64 0 194 14h27v-623q0 -34 13.5 -47.5t51.5 -13.5h68v-25h-412v25h66q39 0 56 15.5t17 64.5v508
q0 57 -69 57h-68v25zM489 -68l1022 1475h84l-1020 -1475h-86z" />
    <glyph glyph-name="onehalf" unicode="&#xbd;" horiz-adv-x="2068" 
d="M1229 -51v22q64 72 135.5 147t104 108.5t63.5 74t41 73.5t10 77q0 68 -39 115.5t-108 47.5q-71 0 -118.5 -42t-47.5 -95q0 -31 12 -31q6 0 28 13.5t36 13.5q33 0 52 -23t19 -51t-21.5 -52.5t-56.5 -24.5q-45 0 -71.5 36t-26.5 101q0 92 69 146t187 54q40 0 80.5 -11.5
t79 -34t62.5 -64t24 -94.5q0 -75 -76 -148q-37 -38 -136.5 -102t-172.5 -133h311q42 0 51.5 17t16.5 81h24l-22 -221h-510zM350 1393h56q64 0 194 14h27v-623q0 -34 13.5 -47.5t51.5 -13.5h68v-25h-412v25h66q39 0 56 15.5t17 64.5v508q0 57 -69 57h-68v25zM489 -68
l1022 1475h84l-1020 -1475h-86z" />
    <glyph glyph-name="threequarters" unicode="&#xbe;" horiz-adv-x="2068" 
d="M1360 188v306l-246 -306h246zM1083 193l379 466h23v-469h166v-65h-166v-94q0 -34 15 -47t50 -13h68v-22h-395v22h71q39 0 52.5 16.5t13.5 55.5v82h-277v68zM543 1411q102 0 178 -47t76 -133q0 -122 -195 -158q221 -37 221 -194q0 -79 -76.5 -137t-216.5 -58
q-108 0 -175.5 42.5t-67.5 121.5q0 37 25.5 63.5t62.5 26.5q32 0 51.5 -18.5t19.5 -49.5q0 -32 -14.5 -49t-31.5 -19.5t-31.5 -8t-14.5 -17.5q0 -28 45.5 -45.5t83.5 -17.5q81 0 131 46t50 126q0 64 -35 114t-92 50q-22 0 -51 -6.5t-35 -6.5q-17 0 -17 19q0 18 29.5 21.5
t71.5 9t63 26.5q41 41 41 125q0 61 -31 103t-96 42q-46 0 -93.5 -20t-47.5 -47q0 -9 15.5 -12t34.5 -4.5t34.5 -20t15.5 -53.5q0 -30 -21.5 -49t-52.5 -19q-40 0 -62 29t-22 74q0 72 68.5 111.5t161.5 39.5zM492 -68l1021 1477h84l-1019 -1477h-86z" />
    <glyph glyph-name="questiondown" unicode="&#xbf;" horiz-adv-x="1067" 
d="M655 852v-119q0 -98 -18 -172.5t-72 -128.5q-34 -34 -80 -66t-78 -53.5t-62.5 -51.5t-46 -74t-15.5 -105q0 -101 67.5 -181.5t184.5 -80.5q50 0 98 12.5t83.5 41t35.5 67.5q0 19 -6.5 30.5t-13 15.5t-22.5 9t-22 8q-61 34 -61 94q0 42 34.5 75.5t77.5 33.5q46 0 86.5 -41
t40.5 -109q0 -121 -94.5 -201.5t-241.5 -80.5q-64 0 -122.5 27t-107 79.5t-77 138.5t-28.5 195q0 137 114 248q45 46 97 77t85 45t62.5 36.5t43 67.5t13.5 122v41h45zM621 981q-54 0 -91.5 37.5t-37.5 91.5t37.5 91.5t91.5 37.5t91.5 -37.5t37.5 -91.5t-37.5 -91.5
t-91.5 -37.5z" />
    <glyph glyph-name="Agrave" unicode="&#xc0;" horiz-adv-x="1748" 
d="M1042 528l-241 666l-254 -666h495zM444 395l430 1123h54l475 -1330q30 -86 61.5 -109.5t102.5 -23.5h123v-55h-785v55h207q76 0 76 49q0 20 -8 41l-119 330h-533q-96 -237 -96 -287q0 -70 61.5 -101.5t202.5 -31.5h33v-55h-670v55h31q130 0 207.5 79t146.5 261zM977 1700
l-12 -14l-320 131q-65 28 -65 73q0 27 19.5 45.5t49.5 18.5q50 0 150 -90z" />
    <glyph glyph-name="Aacute" unicode="&#xc1;" horiz-adv-x="1748" 
d="M1042 528l-241 666l-254 -666h495zM444 395l430 1123h54l475 -1330q30 -86 61.5 -109.5t102.5 -23.5h123v-55h-785v55h207q76 0 76 49q0 20 -8 41l-119 330h-533q-96 -237 -96 -287q0 -70 61.5 -101.5t202.5 -31.5h33v-55h-670v55h31q130 0 207.5 79t146.5 261zM815 1690
l-10 12l178 162q103 90 152 90q29 0 48 -19t19 -45q0 -47 -59 -69z" />
    <glyph glyph-name="Acircumflex" unicode="&#xc2;" horiz-adv-x="1748" 
d="M1042 528l-241 666l-254 -666h495zM444 395l430 1123h54l475 -1330q30 -86 61.5 -109.5t102.5 -23.5h123v-55h-785v55h207q76 0 76 49q0 20 -8 41l-119 330h-533q-96 -237 -96 -287q0 -70 61.5 -101.5t202.5 -31.5h33v-55h-670v55h31q130 0 207.5 79t146.5 261zM590 1667
l207 356h157l207 -356h-43l-244 215l-239 -215h-45z" />
    <glyph glyph-name="Atilde" unicode="&#xc3;" horiz-adv-x="1748" 
d="M1042 528l-241 666l-254 -666h495zM444 395l430 1123h54l475 -1330q30 -86 61.5 -109.5t102.5 -23.5h123v-55h-785v55h207q76 0 76 49q0 20 -8 41l-119 330h-533q-96 -237 -96 -287q0 -70 61.5 -101.5t202.5 -31.5h33v-55h-670v55h31q130 0 207.5 79t146.5 261zM604 1686
h-26q1 30 6.5 61.5t20 70t35 68.5t55.5 50t79 20q79 0 205 -78q44 -29 63.5 -41t51 -25.5t53.5 -13.5q53 0 84 43.5t39 112.5h24q-3 -71 -23.5 -126t-51 -85.5t-63.5 -45.5t-66 -14q-61 0 -187 78q-99 58 -136 69q-22 7 -40 7q-115 0 -123 -151z" />
    <glyph glyph-name="Adieresis" unicode="&#xc4;" horiz-adv-x="1748" 
d="M1042 528l-241 666l-254 -666h495zM444 395l430 1123h54l475 -1330q30 -86 61.5 -109.5t102.5 -23.5h123v-55h-785v55h207q76 0 76 49q0 20 -8 41l-119 330h-533q-96 -237 -96 -287q0 -70 61.5 -101.5t202.5 -31.5h33v-55h-670v55h31q130 0 207.5 79t146.5 261z
M1110 1921q41 0 71.5 -30.5t30.5 -71.5q0 -43 -30.5 -74t-71.5 -31q-43 0 -73.5 31t-30.5 74q0 41 30.5 71.5t73.5 30.5zM643 1921q41 0 71.5 -30.5t30.5 -71.5q0 -43 -30.5 -74t-71.5 -31q-43 0 -73.5 31t-30.5 74q0 41 30.5 71.5t73.5 30.5z" />
    <glyph glyph-name="Aring" unicode="&#xc5;" horiz-adv-x="1748" 
d="M1042 528l-241 666l-254 -666h495zM444 395l430 1123h54l475 -1330q30 -86 61.5 -109.5t102.5 -23.5h123v-55h-785v55h207q76 0 76 49q0 20 -8 41l-119 330h-533q-96 -237 -96 -287q0 -70 61.5 -101.5t202.5 -31.5h33v-55h-670v55h31q130 0 207.5 79t146.5 261zM926 2028
q73 0 125.5 -52.5t52.5 -126.5q0 -75 -52 -126.5t-126 -51.5t-125 51.5t-51 126.5q0 74 51.5 126.5t124.5 52.5zM926 1974q-52 0 -88.5 -37t-36.5 -88q0 -53 36.5 -90t88.5 -37t88.5 37t36.5 90q0 51 -36.5 88t-88.5 37z" />
    <glyph glyph-name="AE" unicode="&#xc6;" horiz-adv-x="2410" 
d="M1169 1460h-51l-383 -698h434v698zM451 328l512 950q47 87 47 117q0 17 -10 28t-28.5 15.5t-35.5 6t-41 1.5h-168v57h1507v-545h-47q-66 268 -160 383t-233 115h-369v-655h72q36 0 62 2.5t59.5 12.5t57.5 27.5t49.5 50.5t42.5 78.5t29 114t15 154.5h48v-913h-50
q-5 105 -23.5 182.5t-45 124t-64.5 74.5t-76.5 37.5t-87.5 9.5h-88v-709h301q118 0 193 25.5t131 81.5q60 60 114.5 168t76.5 264h45v-586h-1448v57h331v654h-460q-45 -84 -95.5 -176.5t-74.5 -136.5t-47 -90t-31 -72.5t-8 -49.5q0 -131 198 -131h60v-55h-660v55h27
q103 0 201 69t172 204z" />
    <glyph glyph-name="Ccedilla" unicode="&#xc7;" horiz-adv-x="1472" 
d="M666 -158l75 115q-113 11 -218 63.5t-184 132.5t-138.5 176.5t-90 199.5t-30.5 198q0 109 36.5 224t102.5 216t150.5 181t189 127t209.5 47q65 0 123 -14t97 -34t76.5 -49t57 -50.5t42 -48t28.5 -32.5q16 -16 31 -16q17 0 37 34t37 85t25 79.5t13 47.5h45l21 -688h-43
q-47 168 -120 298t-146 201q-139 142 -318 142q-163 0 -266 -103q-80 -80 -108.5 -210t-28.5 -373q0 -214 19.5 -351.5t52.5 -208.5t89 -127q111 -108 267 -108q80 0 154.5 20t142.5 63.5t121.5 107t91 156t51.5 204.5h43q-17 -173 -93 -307t-207.5 -211.5t-297.5 -77.5
q-11 0 -19 2l-18 -33q76 -19 107.5 -52t31.5 -81q0 -58 -47.5 -107t-116.5 -63q-41 -8 -153 -8v39q74 8 95.5 14t45.5 27q33 33 33 75q0 38 -23 56.5t-75 21.5z" />
    <glyph glyph-name="Egrave" unicode="&#xc8;" horiz-adv-x="1748" 
d="M76 1446v57h1446v-530h-41q-38 218 -136.5 350.5t-240.5 132.5h-410v-655h166q77 0 121 28.5t76 115.5t51 255h41v-868h-43q-12 111 -28 186t-36 122.5t-51.5 72.5t-66 34t-86.5 9h-144v-709h391q103 0 159.5 19.5t105.5 68.5q56 54 114 186.5t76 294.5h43l-8 -616h-1485
v57h348v1389h-362zM1038 1700l-12 -14l-319 131q-66 28 -66 73q0 27 20 45.5t50 18.5q49 0 149 -90z" />
    <glyph glyph-name="Eacute" unicode="&#xc9;" horiz-adv-x="1748" 
d="M76 1446v57h1446v-530h-41q-38 218 -136.5 350.5t-240.5 132.5h-410v-655h166q77 0 121 28.5t76 115.5t51 255h41v-868h-43q-12 111 -28 186t-36 122.5t-51.5 72.5t-66 34t-86.5 9h-144v-709h391q103 0 159.5 19.5t105.5 68.5q56 54 114 186.5t76 294.5h43l-8 -616h-1485
v57h348v1389h-362zM877 1690l-11 12l178 162q103 90 152 90q29 0 48.5 -19.5t19.5 -44.5q0 -47 -60 -69z" />
    <glyph glyph-name="Ecircumflex" unicode="&#xca;" horiz-adv-x="1748" 
d="M76 1446v57h1446v-530h-41q-38 218 -136.5 350.5t-240.5 132.5h-410v-655h166q77 0 121 28.5t76 115.5t51 255h41v-868h-43q-12 111 -28 186t-36 122.5t-51.5 72.5t-66 34t-86.5 9h-144v-709h391q103 0 159.5 19.5t105.5 68.5q56 54 114 186.5t76 294.5h43l-8 -616h-1485
v57h348v1389h-362zM651 1667l207 356h158l207 -356h-43l-244 215l-240 -215h-45z" />
    <glyph glyph-name="Edieresis" unicode="&#xcb;" horiz-adv-x="1748" 
d="M76 1446v57h1446v-530h-41q-38 218 -136.5 350.5t-240.5 132.5h-410v-655h166q77 0 121 28.5t76 115.5t51 255h41v-868h-43q-12 111 -28 186t-36 122.5t-51.5 72.5t-66 34t-86.5 9h-144v-709h391q103 0 159.5 19.5t105.5 68.5q56 54 114 186.5t76 294.5h43l-8 -616h-1485
v57h348v1389h-362zM1171 1921q41 0 72 -30.5t31 -71.5q0 -43 -31 -74t-72 -31q-43 0 -73.5 31t-30.5 74q0 41 30.5 71.5t73.5 30.5zM705 1921q41 0 71.5 -30.5t30.5 -71.5q0 -43 -30.5 -74t-71.5 -31q-43 0 -74 31t-31 74q0 41 31 71.5t74 30.5z" />
    <glyph glyph-name="Igrave" unicode="&#xcc;" horiz-adv-x="1067" 
d="M84 1446v57h901v-57h-323v-1391h323v-55h-899v55h320v1391h-322zM635 1700l-12 -14l-320 131q-65 28 -65 73q0 27 19.5 45.5t49.5 18.5q50 0 150 -90z" />
    <glyph glyph-name="Iacute" unicode="&#xcd;" horiz-adv-x="1067" 
d="M84 1446v57h901v-57h-323v-1391h323v-55h-899v55h320v1391h-322zM473 1690l-10 12l178 162q103 90 152 90q29 0 48 -19t19 -45q0 -47 -59 -69z" />
    <glyph glyph-name="Icircumflex" unicode="&#xce;" horiz-adv-x="1067" 
d="M84 1446v57h901v-57h-323v-1391h323v-55h-899v55h320v1391h-322zM248 1667l207 356h157l207 -356h-43l-244 215l-239 -215h-45z" />
    <glyph glyph-name="Idieresis" unicode="&#xcf;" horiz-adv-x="1067" 
d="M84 1446v57h901v-57h-323v-1391h323v-55h-899v55h320v1391h-322zM768 1921q41 0 71.5 -30.5t30.5 -71.5q0 -43 -30.5 -74t-71.5 -31q-43 0 -73.5 31t-30.5 74q0 41 30.5 71.5t73.5 30.5zM301 1921q41 0 71.5 -30.5t30.5 -71.5q0 -43 -30.5 -74t-71.5 -31q-43 0 -73.5 31
t-30.5 74q0 41 30.5 71.5t73.5 30.5z" />
    <glyph glyph-name="Eth" unicode="&#xd0;" horiz-adv-x="1878" 
d="M666 805h354v-60h-354v-696h290q64 0 115 7t105 26.5t95 53t79 89t62 130.5t38 181.5t14 239.5q0 261 -47.5 408.5t-151 211.5t-286.5 64h-313v-655zM410 745h-342v60h342v641h-344v57h962q135 0 255.5 -47.5t206.5 -124.5t149 -173.5t93.5 -195.5t30.5 -190
q0 -149 -67 -291t-160 -235q-126 -126 -254 -186t-307 -60h-907v55h342v690z" />
    <glyph glyph-name="Ntilde" unicode="&#xd1;" horiz-adv-x="1878" 
d="M1839 1501v-55h-80q-136 0 -198 -78t-62 -270v-1098h-47l-981 1268v-832q0 -101 14.5 -168t52.5 -117t106.5 -73t172.5 -23h76v-55h-846v55h82q165 0 231 93.5t60 271.5v911q-53 68 -112 91.5t-173 23.5h-51v57h524l836 -1077v688q0 87 -15.5 149t-39.5 97t-64.5 55
t-79 25.5t-94.5 5.5h-86v57zM606 1686h-26q1 30 6.5 61.5t20 70t35 68.5t55.5 50t79 20q79 0 205 -78q44 -29 63.5 -41t51 -25.5t53.5 -13.5q53 0 84 43.5t39 112.5h24q-3 -71 -23.5 -126t-51 -85.5t-63.5 -45.5t-66 -14q-61 0 -187 78q-99 58 -136 69q-22 7 -40 7
q-115 0 -123 -151z" />
    <glyph glyph-name="Ograve" unicode="&#xd2;" horiz-adv-x="1748" 
d="M881 1522q138 0 268.5 -66.5t226 -175.5t153.5 -256.5t58 -302.5q0 -101 -32 -208t-95 -206t-147.5 -178t-199 -126.5t-239.5 -47.5q-140 0 -271.5 63.5t-229 169t-156.5 251.5t-59 302q0 85 27.5 186t87 207t142 192t204.5 141t262 55zM866 0q89 0 158.5 26t114 62
t76 104t47 122t24 148t9.5 150t1 158q0 83 -1.5 135.5t-10 135t-24 136t-46.5 115.5t-74.5 98.5t-110.5 61.5t-152 25q-90 0 -158.5 -26t-113.5 -61.5t-76 -107.5t-46.5 -127.5t-23.5 -161t-9 -168t-1 -186.5q0 -54 1 -93.5t5.5 -95.5t12.5 -97.5t23.5 -90.5t36.5 -85
t52.5 -71t71.5 -57t94.5 -35.5t119.5 -13.5zM977 1700l-12 -14l-320 131q-65 28 -65 73q0 27 19.5 45.5t49.5 18.5q50 0 150 -90z" />
    <glyph glyph-name="Oacute" unicode="&#xd3;" horiz-adv-x="1748" 
d="M881 1522q138 0 268.5 -66.5t226 -175.5t153.5 -256.5t58 -302.5q0 -101 -32 -208t-95 -206t-147.5 -178t-199 -126.5t-239.5 -47.5q-140 0 -271.5 63.5t-229 169t-156.5 251.5t-59 302q0 85 27.5 186t87 207t142 192t204.5 141t262 55zM866 0q89 0 158.5 26t114 62
t76 104t47 122t24 148t9.5 150t1 158q0 83 -1.5 135.5t-10 135t-24 136t-46.5 115.5t-74.5 98.5t-110.5 61.5t-152 25q-90 0 -158.5 -26t-113.5 -61.5t-76 -107.5t-46.5 -127.5t-23.5 -161t-9 -168t-1 -186.5q0 -54 1 -93.5t5.5 -95.5t12.5 -97.5t23.5 -90.5t36.5 -85
t52.5 -71t71.5 -57t94.5 -35.5t119.5 -13.5zM815 1690l-10 12l178 162q103 90 152 90q29 0 48 -19t19 -45q0 -47 -59 -69z" />
    <glyph glyph-name="Ocircumflex" unicode="&#xd4;" horiz-adv-x="1748" 
d="M881 1522q138 0 268.5 -66.5t226 -175.5t153.5 -256.5t58 -302.5q0 -101 -32 -208t-95 -206t-147.5 -178t-199 -126.5t-239.5 -47.5q-140 0 -271.5 63.5t-229 169t-156.5 251.5t-59 302q0 85 27.5 186t87 207t142 192t204.5 141t262 55zM866 0q89 0 158.5 26t114 62
t76 104t47 122t24 148t9.5 150t1 158q0 83 -1.5 135.5t-10 135t-24 136t-46.5 115.5t-74.5 98.5t-110.5 61.5t-152 25q-90 0 -158.5 -26t-113.5 -61.5t-76 -107.5t-46.5 -127.5t-23.5 -161t-9 -168t-1 -186.5q0 -54 1 -93.5t5.5 -95.5t12.5 -97.5t23.5 -90.5t36.5 -85
t52.5 -71t71.5 -57t94.5 -35.5t119.5 -13.5zM590 1667l207 356h157l207 -356h-43l-244 215l-239 -215h-45z" />
    <glyph glyph-name="Otilde" unicode="&#xd5;" horiz-adv-x="1748" 
d="M881 1522q138 0 268.5 -66.5t226 -175.5t153.5 -256.5t58 -302.5q0 -101 -32 -208t-95 -206t-147.5 -178t-199 -126.5t-239.5 -47.5q-140 0 -271.5 63.5t-229 169t-156.5 251.5t-59 302q0 85 27.5 186t87 207t142 192t204.5 141t262 55zM866 0q89 0 158.5 26t114 62
t76 104t47 122t24 148t9.5 150t1 158q0 83 -1.5 135.5t-10 135t-24 136t-46.5 115.5t-74.5 98.5t-110.5 61.5t-152 25q-90 0 -158.5 -26t-113.5 -61.5t-76 -107.5t-46.5 -127.5t-23.5 -161t-9 -168t-1 -186.5q0 -54 1 -93.5t5.5 -95.5t12.5 -97.5t23.5 -90.5t36.5 -85
t52.5 -71t71.5 -57t94.5 -35.5t119.5 -13.5zM543 1686h-27q1 30 7 61.5t20 70t35 68.5t56 50t79 20q79 0 205 -78q46 -30 64 -41t49.5 -25t53.5 -14q53 0 84 43.5t39 112.5h25q-3 -71 -23.5 -126t-51.5 -85.5t-64 -45.5t-66 -14q-60 0 -186 78q-99 58 -136 69q-22 7 -40 7
q-115 0 -123 -151z" />
    <glyph glyph-name="Odieresis" unicode="&#xd6;" horiz-adv-x="1748" 
d="M881 1522q138 0 268.5 -66.5t226 -175.5t153.5 -256.5t58 -302.5q0 -101 -32 -208t-95 -206t-147.5 -178t-199 -126.5t-239.5 -47.5q-140 0 -271.5 63.5t-229 169t-156.5 251.5t-59 302q0 85 27.5 186t87 207t142 192t204.5 141t262 55zM866 0q89 0 158.5 26t114 62
t76 104t47 122t24 148t9.5 150t1 158q0 83 -1.5 135.5t-10 135t-24 136t-46.5 115.5t-74.5 98.5t-110.5 61.5t-152 25q-90 0 -158.5 -26t-113.5 -61.5t-76 -107.5t-46.5 -127.5t-23.5 -161t-9 -168t-1 -186.5q0 -54 1 -93.5t5.5 -95.5t12.5 -97.5t23.5 -90.5t36.5 -85
t52.5 -71t71.5 -57t94.5 -35.5t119.5 -13.5zM1110 1921q41 0 71.5 -30.5t30.5 -71.5q0 -43 -30.5 -74t-71.5 -31q-43 0 -73.5 31t-30.5 74q0 41 30.5 71.5t73.5 30.5zM643 1921q41 0 71.5 -30.5t30.5 -71.5q0 -43 -30.5 -74t-71.5 -31q-43 0 -73.5 31t-30.5 74
q0 41 30.5 71.5t73.5 30.5z" />
    <glyph glyph-name="multiply" unicode="&#xd7;" horiz-adv-x="1228" 
d="M530 518l-391 391l84 84l389 -393l394 393l84 -84l-394 -391l394 -391l-84 -84l-394 393l-389 -393l-84 84z" />
    <glyph glyph-name="Oslash" unicode="&#xd8;" horiz-adv-x="1748" 
d="M1262 1153l-773 -887q83 -266 377 -266q89 0 158.5 26t114 62t76 104t47 122t24 148t9.5 150t1 158q0 258 -34 383zM1348 1311l184 211l31 -27l-187 -215q99 -113 155 -258.5t56 -300.5q0 -101 -32 -208t-95 -206t-147.5 -178t-199 -126.5t-239.5 -47.5
q-130 0 -252.5 54.5t-220.5 152.5l-176 -205l-30 33l176 203q-100 110 -156.5 252t-56.5 296q0 85 27.5 186t87 207t142 192t204.5 141t262 55q129 0 249 -56t218 -155zM475 317l774 885q-82 275 -372 275q-90 0 -158.5 -26t-113.5 -61.5t-76 -107.5t-46.5 -127.5
t-23.5 -161t-9 -168t-1 -186.5q0 -214 26 -322z" />
    <glyph glyph-name="Ugrave" unicode="&#xd9;" horiz-adv-x="1878" 
d="M59 1446v57h875v-57h-324v-944q0 -48 3 -89.5t12.5 -91.5t25 -90t43.5 -79t64.5 -65t91 -42t121.5 -16q94 0 176 31t149.5 94.5t106.5 173t39 252.5v493q0 120 -14.5 193t-51.5 113t-88.5 53.5t-138.5 13.5h-100v57h772v-57h-90q-108 0 -165 -62.5t-57 -214.5v-587
q0 -134 -34 -242t-89.5 -178.5t-131 -117.5t-155 -67t-163.5 -20q-81 0 -160.5 17.5t-156.5 57.5t-135.5 97t-94 143.5t-35.5 190.5v983h-295zM1040 1700l-12 -14l-319 131q-66 28 -66 73q0 27 20 45.5t50 18.5q49 0 149 -90z" />
    <glyph glyph-name="Uacute" unicode="&#xda;" horiz-adv-x="1878" 
d="M59 1446v57h875v-57h-324v-944q0 -48 3 -89.5t12.5 -91.5t25 -90t43.5 -79t64.5 -65t91 -42t121.5 -16q94 0 176 31t149.5 94.5t106.5 173t39 252.5v493q0 120 -14.5 193t-51.5 113t-88.5 53.5t-138.5 13.5h-100v57h772v-57h-90q-108 0 -165 -62.5t-57 -214.5v-587
q0 -134 -34 -242t-89.5 -178.5t-131 -117.5t-155 -67t-163.5 -20q-81 0 -160.5 17.5t-156.5 57.5t-135.5 97t-94 143.5t-35.5 190.5v983h-295zM879 1690l-11 12l179 162q55 49 89.5 69.5t61.5 20.5q29 0 48.5 -19.5t19.5 -44.5q0 -47 -60 -69z" />
    <glyph glyph-name="Ucircumflex" unicode="&#xdb;" horiz-adv-x="1878" 
d="M59 1446v57h875v-57h-324v-944q0 -48 3 -89.5t12.5 -91.5t25 -90t43.5 -79t64.5 -65t91 -42t121.5 -16q94 0 176 31t149.5 94.5t106.5 173t39 252.5v493q0 120 -14.5 193t-51.5 113t-88.5 53.5t-138.5 13.5h-100v57h772v-57h-90q-108 0 -165 -62.5t-57 -214.5v-587
q0 -134 -34 -242t-89.5 -178.5t-131 -117.5t-155 -67t-163.5 -20q-81 0 -160.5 17.5t-156.5 57.5t-135.5 97t-94 143.5t-35.5 190.5v983h-295zM653 1667l207 356h158l207 -356h-43l-244 215l-240 -215h-45z" />
    <glyph glyph-name="Udieresis" unicode="&#xdc;" horiz-adv-x="1878" 
d="M59 1446v57h875v-57h-324v-944q0 -48 3 -89.5t12.5 -91.5t25 -90t43.5 -79t64.5 -65t91 -42t121.5 -16q94 0 176 31t149.5 94.5t106.5 173t39 252.5v493q0 120 -14.5 193t-51.5 113t-88.5 53.5t-138.5 13.5h-100v57h772v-57h-90q-108 0 -165 -62.5t-57 -214.5v-587
q0 -134 -34 -242t-89.5 -178.5t-131 -117.5t-155 -67t-163.5 -20q-81 0 -160.5 17.5t-156.5 57.5t-135.5 97t-94 143.5t-35.5 190.5v983h-295zM1174 1921q41 0 71.5 -30.5t30.5 -71.5q0 -43 -30.5 -74t-71.5 -31q-43 0 -74 31t-31 74q0 41 31 71.5t74 30.5zM707 1921
q41 0 71.5 -30.5t30.5 -71.5q0 -43 -30.5 -74t-71.5 -31q-43 0 -74 31t-31 74q0 41 31 71.5t74 30.5z" />
    <glyph glyph-name="Yacute" unicode="&#xdd;" horiz-adv-x="1878" 
d="M55 1446v57h828v-57h-226q-57 0 -57 -25q0 -7 6 -16l441 -739l317 544q35 57 35 107q0 65 -60.5 97t-134.5 32h-88v57h707v-57h-76q-189 0 -309 -205l-369 -631v-555h324v-55h-906v55h328v508l-491 817q-25 42 -42.5 54t-48.5 12h-178zM879 1690l-11 12l179 162
q55 49 89.5 69.5t61.5 20.5q29 0 48.5 -19.5t19.5 -44.5q0 -47 -60 -69z" />
    <glyph glyph-name="Thorn" unicode="&#xde;" horiz-adv-x="1622" 
d="M854 1151h-197v-707h234q75 0 133 10.5t97.5 27.5t67.5 45.5t43 56t23.5 69t10.5 74t2 80.5q0 42 -2 73t-9 66t-20 59.5t-33.5 49.5t-51.5 41t-72.5 29.5t-98.5 19.5t-127 6zM68 1446v57h917v-57h-330v-250h263q119 0 228.5 -26t199.5 -75.5t144 -131.5t54 -185
q0 -70 -35 -136t-101 -120.5t-174.5 -87.5t-242.5 -33h-336v-346h330v-55h-907v55h323v1391h-333z" />
    <glyph glyph-name="germandbls" unicode="&#xdf;" horiz-adv-x="1343" 
d="M279 57v1002q0 106 29 190t73 134t103 82.5t113 44.5t108 12q195 0 324.5 -103.5t129.5 -253.5q0 -54 -17 -104t-53.5 -97t-100.5 -83.5t-150 -55.5q164 -16 270 -127.5t106 -294.5q0 -112 -50 -210t-134.5 -155.5t-181.5 -57.5q-94 0 -166 58t-72 159q0 46 31.5 89.5
t85.5 43.5q42 0 76.5 -30t34.5 -83q0 -39 -17 -66t-37.5 -37t-37.5 -19.5t-17 -18.5q0 -19 34.5 -35t76.5 -16q31 0 55.5 10.5t40 25.5t26.5 45.5t16.5 55t8.5 70t3.5 74.5t0.5 85q0 82 -6 140t-23 109.5t-47 82t-78 48t-116 17.5h-57v62q164 0 222 71t58 255
q0 290 -239 290q-107 0 -169.5 -70.5t-62.5 -211.5v-1127h117v-57h-469v57h158z" />
    <glyph glyph-name="agrave" unicode="&#xe0;" 
d="M719 475v150q-59 -34 -130.5 -61t-119.5 -49.5t-84 -59.5q-68 -65 -68 -195q0 -104 45 -160.5t117 -56.5q40 0 79 21.5t76.5 68t61 135t23.5 207.5zM719 684v109q0 61 -17 106.5t-42 70.5t-59 40t-60.5 19.5t-55.5 4.5q-83 0 -133.5 -28.5t-50.5 -59.5q0 -11 11.5 -21
t28.5 -19t33.5 -21.5t28 -35.5t11.5 -54q0 -22 -11 -49t-43 -52.5t-79 -25.5q-60 0 -103 42.5t-43 102.5q0 113 106 192.5t287 79.5q96 0 168.5 -21t113 -52.5t65.5 -76t32.5 -83t7.5 -82.5v-502q0 -162 91 -162q102 0 102 269v80h61v-33q0 -62 -1.5 -106.5t-7 -93.5
t-15.5 -82.5t-27 -65.5t-40.5 -50.5t-57.5 -30t-78 -11.5q-111 0 -156 66.5t-45 203.5q-84 -270 -344 -270q-43 0 -83 7t-80 24.5t-69.5 44.5t-48 70.5t-18.5 98.5q0 102 97 199q56 56 139 95t196 80.5t189 82.5zM711 1243l-13 -14l-319 131q-66 28 -66 74q0 27 20 45t50 18
q49 0 149 -90z" />
    <glyph glyph-name="aacute" unicode="&#xe1;" 
d="M719 475v150q-59 -34 -130.5 -61t-119.5 -49.5t-84 -59.5q-68 -65 -68 -195q0 -104 45 -160.5t117 -56.5q40 0 79 21.5t76.5 68t61 135t23.5 207.5zM719 684v109q0 61 -17 106.5t-42 70.5t-59 40t-60.5 19.5t-55.5 4.5q-83 0 -133.5 -28.5t-50.5 -59.5q0 -11 11.5 -21
t28.5 -19t33.5 -21.5t28 -35.5t11.5 -54q0 -22 -11 -49t-43 -52.5t-79 -25.5q-60 0 -103 42.5t-43 102.5q0 113 106 192.5t287 79.5q96 0 168.5 -21t113 -52.5t65.5 -76t32.5 -83t7.5 -82.5v-502q0 -162 91 -162q102 0 102 269v80h61v-33q0 -62 -1.5 -106.5t-7 -93.5
t-15.5 -82.5t-27 -65.5t-40.5 -50.5t-57.5 -30t-78 -11.5q-111 0 -156 66.5t-45 203.5q-84 -270 -344 -270q-43 0 -83 7t-80 24.5t-69.5 44.5t-48 70.5t-18.5 98.5q0 102 97 199q56 56 139 95t196 80.5t189 82.5zM487 1233l-10 12l178 162q103 90 152 90q29 0 48 -19t19 -44
q0 -48 -59 -70z" />
    <glyph glyph-name="acircumflex" unicode="&#xe2;" 
d="M719 475v150q-59 -34 -130.5 -61t-119.5 -49.5t-84 -59.5q-68 -65 -68 -195q0 -104 45 -160.5t117 -56.5q40 0 79 21.5t76.5 68t61 135t23.5 207.5zM719 684v109q0 61 -17 106.5t-42 70.5t-59 40t-60.5 19.5t-55.5 4.5q-83 0 -133.5 -28.5t-50.5 -59.5q0 -11 11.5 -21
t28.5 -19t33.5 -21.5t28 -35.5t11.5 -54q0 -22 -11 -49t-43 -52.5t-79 -25.5q-60 0 -103 42.5t-43 102.5q0 113 106 192.5t287 79.5q96 0 168.5 -21t113 -52.5t65.5 -76t32.5 -83t7.5 -82.5v-502q0 -162 91 -162q102 0 102 269v80h61v-33q0 -62 -1.5 -106.5t-7 -93.5
t-15.5 -82.5t-27 -65.5t-40.5 -50.5t-57.5 -30t-78 -11.5q-111 0 -156 66.5t-45 203.5q-84 -270 -344 -270q-43 0 -83 7t-80 24.5t-69.5 44.5t-48 70.5t-18.5 98.5q0 102 97 199q56 56 139 95t196 80.5t189 82.5zM262 1210l207 357h158l207 -357h-43l-244 215l-240 -215h-45
z" />
    <glyph glyph-name="atilde" unicode="&#xe3;" 
d="M719 475v150q-59 -34 -130.5 -61t-119.5 -49.5t-84 -59.5q-68 -65 -68 -195q0 -104 45 -160.5t117 -56.5q40 0 79 21.5t76.5 68t61 135t23.5 207.5zM719 684v109q0 61 -17 106.5t-42 70.5t-59 40t-60.5 19.5t-55.5 4.5q-83 0 -133.5 -28.5t-50.5 -59.5q0 -11 11.5 -21
t28.5 -19t33.5 -21.5t28 -35.5t11.5 -54q0 -22 -11 -49t-43 -52.5t-79 -25.5q-60 0 -103 42.5t-43 102.5q0 113 106 192.5t287 79.5q96 0 168.5 -21t113 -52.5t65.5 -76t32.5 -83t7.5 -82.5v-502q0 -162 91 -162q102 0 102 269v80h61v-33q0 -62 -1.5 -106.5t-7 -93.5
t-15.5 -82.5t-27 -65.5t-40.5 -50.5t-57.5 -30t-78 -11.5q-111 0 -156 66.5t-45 203.5q-84 -270 -344 -270q-43 0 -83 7t-80 24.5t-69.5 44.5t-48 70.5t-18.5 98.5q0 102 97 199q56 56 139 95t196 80.5t189 82.5zM215 1229h-27q1 30 7 61.5t20 70t35 68.5t56 50t79 20
q79 0 205 -78q44 -29 63.5 -41t51 -25.5t53.5 -13.5q53 0 84 43.5t39 112.5h24q-3 -71 -23.5 -126t-51.5 -85t-64 -45t-66 -14q-60 0 -186 78q-46 27 -65.5 38t-53 24t-57.5 13q-115 0 -123 -151z" />
    <glyph glyph-name="adieresis" unicode="&#xe4;" 
d="M719 475v150q-59 -34 -130.5 -61t-119.5 -49.5t-84 -59.5q-68 -65 -68 -195q0 -104 45 -160.5t117 -56.5q40 0 79 21.5t76.5 68t61 135t23.5 207.5zM719 684v109q0 61 -17 106.5t-42 70.5t-59 40t-60.5 19.5t-55.5 4.5q-83 0 -133.5 -28.5t-50.5 -59.5q0 -11 11.5 -21
t28.5 -19t33.5 -21.5t28 -35.5t11.5 -54q0 -22 -11 -49t-43 -52.5t-79 -25.5q-60 0 -103 42.5t-43 102.5q0 113 106 192.5t287 79.5q96 0 168.5 -21t113 -52.5t65.5 -76t32.5 -83t7.5 -82.5v-502q0 -162 91 -162q102 0 102 269v80h61v-33q0 -62 -1.5 -106.5t-7 -93.5
t-15.5 -82.5t-27 -65.5t-40.5 -50.5t-57.5 -30t-78 -11.5q-111 0 -156 66.5t-45 203.5q-84 -270 -344 -270q-43 0 -83 7t-80 24.5t-69.5 44.5t-48 70.5t-18.5 98.5q0 102 97 199q56 56 139 95t196 80.5t189 82.5zM782 1464q41 0 72 -30.5t31 -71.5q0 -43 -31 -74t-72 -31
q-43 0 -73.5 31t-30.5 74q0 41 30.5 71.5t73.5 30.5zM315 1464q41 0 72 -30.5t31 -71.5q0 -43 -31 -74t-72 -31q-43 0 -73.5 31t-30.5 74q0 41 30.5 71.5t73.5 30.5z" />
    <glyph glyph-name="aring" unicode="&#xe5;" 
d="M719 475v150q-59 -34 -130.5 -61t-119.5 -49.5t-84 -59.5q-68 -65 -68 -195q0 -104 45 -160.5t117 -56.5q40 0 79 21.5t76.5 68t61 135t23.5 207.5zM719 684v109q0 61 -17 106.5t-42 70.5t-59 40t-60.5 19.5t-55.5 4.5q-83 0 -133.5 -28.5t-50.5 -59.5q0 -11 11.5 -21
t28.5 -19t33.5 -21.5t28 -35.5t11.5 -54q0 -22 -11 -49t-43 -52.5t-79 -25.5q-60 0 -103 42.5t-43 102.5q0 113 106 192.5t287 79.5q96 0 168.5 -21t113 -52.5t65.5 -76t32.5 -83t7.5 -82.5v-502q0 -162 91 -162q102 0 102 269v80h61v-33q0 -62 -1.5 -106.5t-7 -93.5
t-15.5 -82.5t-27 -65.5t-40.5 -50.5t-57.5 -30t-78 -11.5q-111 0 -156 66.5t-45 203.5q-84 -270 -344 -270q-43 0 -83 7t-80 24.5t-69.5 44.5t-48 70.5t-18.5 98.5q0 102 97 199q56 56 139 95t196 80.5t189 82.5zM547 1571q73 0 125.5 -52.5t52.5 -125.5q0 -75 -52 -127
t-126 -52t-125 52t-51 127q0 74 51.5 126t124.5 52zM547 1518q-52 0 -88.5 -37t-36.5 -88q0 -53 36.5 -90t88.5 -37t88.5 37t36.5 90q0 51 -36.5 88t-88.5 37z" />
    <glyph glyph-name="ae" unicode="&#xe6;" horiz-adv-x="1622" 
d="M1343 618v119q0 140 -58 217.5t-159 77.5q-241 0 -241 -327v-87h458zM1477 381h77q-25 -200 -136.5 -304t-274.5 -104q-148 0 -259.5 86t-154.5 228q-38 -154 -131.5 -234t-228.5 -80q-139 0 -218 77.5t-79 178.5t71 172q49 50 156.5 96.5t222 89.5t162.5 77
q0 43 -1 68.5t-3.5 62t-6.5 58.5t-12 50t-19.5 44.5t-28.5 34t-39 27t-51.5 15.5t-65.5 6q-92 0 -158 -39t-66 -69q0 -10 12.5 -18.5t30.5 -18.5t36.5 -24t31 -41.5t12.5 -63.5q0 -62 -33 -95.5t-85 -33.5q-60 0 -98 46t-38 111q0 123 101.5 209t259.5 86q130 0 221 -55.5
t125 -149.5q47 106 131 154.5t188 48.5q87 0 160 -31.5t121.5 -82t82.5 -115t49 -129.5t15 -127v-49h-671v-158q0 -144 75 -239t193 -95q132 0 215.5 84.5t108.5 245.5zM684 459v145q-34 -31 -163 -86t-159 -86q-71 -71 -71 -213q0 -89 31 -137.5t108 -48.5q35 0 76.5 18
t75.5 51q102 102 102 357z" />
    <glyph glyph-name="ccedilla" unicode="&#xe7;" horiz-adv-x="1067" 
d="M420 -158l92 142q-119 21 -220 107t-155.5 201.5t-54.5 229.5q0 100 38 202t104 185.5t164 136t208 52.5q164 0 277.5 -88.5t113.5 -223.5q0 -75 -45.5 -113t-95.5 -38q-58 0 -96.5 40.5t-38.5 92.5q0 39 13.5 70t32.5 48.5t38.5 30t33 22.5t13.5 19q0 13 -24 34.5
t-76.5 41t-116.5 19.5q-50 0 -91.5 -11.5t-71.5 -30.5t-54.5 -49t-40 -60t-27 -71.5t-17.5 -75.5t-9.5 -80.5t-4 -78t-0.5 -74.5v-43q0 -213 83.5 -323.5t209.5 -110.5q35 0 73.5 9t84 34t82 63.5t62.5 104.5t30 150h65q-3 -62 -18 -121t-47 -116t-78.5 -99.5t-117 -68.5
t-156.5 -26q-19 0 -27 2l-33 -57q76 -19 108 -52t32 -81q0 -58 -47.5 -107t-116.5 -63q-41 -8 -154 -8v39q74 8 95.5 14t45.5 27q33 33 33 75q0 38 -23 56.5t-75 21.5z" />
    <glyph glyph-name="egrave" unicode="&#xe8;" horiz-adv-x="1067" 
d="M778 637v117q0 29 -1 51.5t-6.5 55.5t-14.5 58.5t-26 52.5t-40.5 44.5t-59.5 29t-81 11.5q-64 0 -110 -22.5t-71.5 -57t-40 -93t-18.5 -113.5t-4 -134h473zM915 322h93q-3 -27 -17 -66t-48.5 -91t-81.5 -95t-124.5 -73t-169.5 -30q-87 0 -161 26t-126.5 71.5t-92.5 102.5
t-64 122.5t-35.5 128.5t-11.5 123q0 143 59.5 270t169 207t242.5 80q198 0 323.5 -148.5t139.5 -388.5h-707v-96q0 -410 291 -410q111 0 205 73t116 194zM635 1243l-12 -14l-320 131q-65 28 -65 74q0 27 19.5 45t49.5 18q50 0 150 -90z" />
    <glyph glyph-name="eacute" unicode="&#xe9;" horiz-adv-x="1067" 
d="M778 637v117q0 29 -1 51.5t-6.5 55.5t-14.5 58.5t-26 52.5t-40.5 44.5t-59.5 29t-81 11.5q-64 0 -110 -22.5t-71.5 -57t-40 -93t-18.5 -113.5t-4 -134h473zM915 322h93q-3 -27 -17 -66t-48.5 -91t-81.5 -95t-124.5 -73t-169.5 -30q-87 0 -161 26t-126.5 71.5t-92.5 102.5
t-64 122.5t-35.5 128.5t-11.5 123q0 143 59.5 270t169 207t242.5 80q198 0 323.5 -148.5t139.5 -388.5h-707v-96q0 -410 291 -410q111 0 205 73t116 194zM473 1233l-10 12l178 162q103 90 152 90q29 0 48 -19t19 -44q0 -48 -59 -70z" />
    <glyph glyph-name="ecircumflex" unicode="&#xea;" horiz-adv-x="1067" 
d="M778 637v117q0 29 -1 51.5t-6.5 55.5t-14.5 58.5t-26 52.5t-40.5 44.5t-59.5 29t-81 11.5q-64 0 -110 -22.5t-71.5 -57t-40 -93t-18.5 -113.5t-4 -134h473zM915 322h93q-3 -27 -17 -66t-48.5 -91t-81.5 -95t-124.5 -73t-169.5 -30q-87 0 -161 26t-126.5 71.5t-92.5 102.5
t-64 122.5t-35.5 128.5t-11.5 123q0 143 59.5 270t169 207t242.5 80q198 0 323.5 -148.5t139.5 -388.5h-707v-96q0 -410 291 -410q111 0 205 73t116 194zM248 1210l207 357h157l207 -357h-43l-244 215l-239 -215h-45z" />
    <glyph glyph-name="edieresis" unicode="&#xeb;" horiz-adv-x="1067" 
d="M778 637v117q0 29 -1 51.5t-6.5 55.5t-14.5 58.5t-26 52.5t-40.5 44.5t-59.5 29t-81 11.5q-64 0 -110 -22.5t-71.5 -57t-40 -93t-18.5 -113.5t-4 -134h473zM915 322h93q-3 -27 -17 -66t-48.5 -91t-81.5 -95t-124.5 -73t-169.5 -30q-87 0 -161 26t-126.5 71.5t-92.5 102.5
t-64 122.5t-35.5 128.5t-11.5 123q0 143 59.5 270t169 207t242.5 80q198 0 323.5 -148.5t139.5 -388.5h-707v-96q0 -410 291 -410q111 0 205 73t116 194zM768 1464q41 0 71.5 -30.5t30.5 -71.5q0 -43 -30.5 -74t-71.5 -31q-43 0 -73.5 31t-30.5 74q0 41 30.5 71.5t73.5 30.5
zM301 1464q41 0 71.5 -30.5t30.5 -71.5q0 -43 -30.5 -74t-71.5 -31q-43 0 -73.5 31t-30.5 74q0 41 30.5 71.5t73.5 30.5z" />
    <glyph glyph-name="igrave" unicode="&#xec;" horiz-adv-x="661" 
d="M573 59v-59h-487v59h158v789q0 123 -154 139v60l316 32h34v-1020h133zM432 1243l-12 -14l-320 131q-65 28 -65 74q0 27 19.5 45t49.5 18q50 0 150 -90z" />
    <glyph glyph-name="iacute" unicode="&#xed;" horiz-adv-x="661" 
d="M573 59v-59h-487v59h158v789q0 123 -154 139v60l316 32h34v-1020h133zM270 1233l-10 12l178 162q103 90 152 90q29 0 48 -19t19 -44q0 -48 -59 -70z" />
    <glyph glyph-name="icircumflex" unicode="&#xee;" horiz-adv-x="661" 
d="M573 59v-59h-487v59h158v789q0 123 -154 139v60l316 32h34v-1020h133zM45 1210l207 357h158l206 -357h-43l-243 215l-240 -215h-45z" />
    <glyph glyph-name="idieresis" unicode="&#xef;" horiz-adv-x="661" 
d="M573 59v-59h-487v59h158v789q0 123 -154 139v60l316 32h34v-1020h133zM565 1464q41 0 72 -30.5t31 -71.5q0 -43 -31 -74t-72 -31q-43 0 -73.5 31t-30.5 74q0 41 30.5 71.5t73.5 30.5zM98 1464q41 0 72 -30.5t31 -71.5q0 -43 -31 -74t-72 -31q-43 0 -73.5 31t-30.5 74
q0 41 30.5 71.5t73.5 30.5z" />
    <glyph glyph-name="eth" unicode="&#xf0;" 
d="M606 23q124 0 207 83q57 57 73.5 141.5t16.5 213.5q0 95 -0.5 137.5t-3 106t-8.5 93t-17 68t-28 64t-41 49.5q-72 72 -199 72q-118 0 -200 -82q-27 -27 -45 -64t-27.5 -72t-14 -102t-5.5 -117.5t-1 -154.5q0 -125 16 -212t70 -141q86 -83 207 -83zM629 1382
q-116 80 -250 109l53 37q186 -55 285 -109l287 117l16 -53l-242 -99q355 -226 355 -725q0 -159 -43.5 -290.5t-117.5 -217t-169.5 -132t-200.5 -46.5q-99 0 -194 45t-166 119.5t-114.5 178t-43.5 214.5q0 124 48.5 233t125 181t170 113t184.5 41q143 0 262 -80
q-45 197 -194 325l-291 -118l-16 53z" />
    <glyph glyph-name="ntilde" unicode="&#xf1;" horiz-adv-x="1343" 
d="M455 1073v-301q27 89 66.5 152t85.5 96t89.5 47t91.5 14q69 0 127.5 -26t97 -68t66 -97t39.5 -112t12 -114v-605h170v-59h-552v59h186v693q0 139 -46 207.5t-128 68.5q-86 0 -156 -70q-32 -32 -55 -72t-46.5 -113t-35.5 -195t-12 -289v-230h182v-59h-571v59h192v795
q0 133 -197 133v60l369 26h25zM340 1229h-27q1 30 7 61.5t20 70t35 68.5t56 50t79 20q79 0 205 -78q44 -29 63.5 -41t51 -25.5t53.5 -13.5q53 0 84 43.5t39 112.5h24q-3 -71 -23.5 -126t-51.5 -85t-64 -45t-66 -14q-60 0 -186 78q-46 27 -65.5 38t-53 24t-57.5 13
q-115 0 -123 -151z" />
    <glyph glyph-name="ograve" unicode="&#xf2;" 
d="M84 526q0 126 48.5 236.5t125 182.5t169.5 113.5t185 41.5q98 0 192.5 -43.5t167 -118.5t117 -183t44.5 -229q0 -112 -44 -216t-116.5 -178t-170 -118.5t-200.5 -44.5q-99 0 -194 45t-166 119.5t-114.5 178t-43.5 214.5zM313 455q0 -125 16 -212t70 -141q87 -84 207 -84
q123 0 207 84q57 57 73.5 141.5t16.5 213.5q0 97 -0.5 140t-3 107.5t-8.5 94t-17 68.5t-27.5 64t-41.5 50q-72 72 -199 72q-118 0 -200 -82q-64 -64 -78.5 -166t-14.5 -350zM711 1243l-13 -14l-319 131q-66 28 -66 74q0 27 20 45t50 18q49 0 149 -90z" />
    <glyph glyph-name="oacute" unicode="&#xf3;" 
d="M84 526q0 126 48.5 236.5t125 182.5t169.5 113.5t185 41.5q98 0 192.5 -43.5t167 -118.5t117 -183t44.5 -229q0 -112 -44 -216t-116.5 -178t-170 -118.5t-200.5 -44.5q-99 0 -194 45t-166 119.5t-114.5 178t-43.5 214.5zM313 455q0 -125 16 -212t70 -141q87 -84 207 -84
q123 0 207 84q57 57 73.5 141.5t16.5 213.5q0 97 -0.5 140t-3 107.5t-8.5 94t-17 68.5t-27.5 64t-41.5 50q-72 72 -199 72q-118 0 -200 -82q-64 -64 -78.5 -166t-14.5 -350zM549 1233l-10 12l178 162q55 49 89.5 69.5t61.5 20.5q29 0 48.5 -19t19.5 -44q0 -48 -59 -70z" />
    <glyph glyph-name="ocircumflex" unicode="&#xf4;" 
d="M84 526q0 126 48.5 236.5t125 182.5t169.5 113.5t185 41.5q98 0 192.5 -43.5t167 -118.5t117 -183t44.5 -229q0 -112 -44 -216t-116.5 -178t-170 -118.5t-200.5 -44.5q-99 0 -194 45t-166 119.5t-114.5 178t-43.5 214.5zM313 455q0 -125 16 -212t70 -141q87 -84 207 -84
q123 0 207 84q57 57 73.5 141.5t16.5 213.5q0 97 -0.5 140t-3 107.5t-8.5 94t-17 68.5t-27.5 64t-41.5 50q-72 72 -199 72q-118 0 -200 -82q-64 -64 -78.5 -166t-14.5 -350zM324 1210l206 357h158l207 -357h-43l-244 215l-239 -215h-45z" />
    <glyph glyph-name="otilde" unicode="&#xf5;" 
d="M84 526q0 126 48.5 236.5t125 182.5t169.5 113.5t185 41.5q98 0 192.5 -43.5t167 -118.5t117 -183t44.5 -229q0 -112 -44 -216t-116.5 -178t-170 -118.5t-200.5 -44.5q-99 0 -194 45t-166 119.5t-114.5 178t-43.5 214.5zM313 455q0 -125 16 -212t70 -141q87 -84 207 -84
q123 0 207 84q57 57 73.5 141.5t16.5 213.5q0 97 -0.5 140t-3 107.5t-8.5 94t-17 68.5t-27.5 64t-41.5 50q-72 72 -199 72q-118 0 -200 -82q-64 -64 -78.5 -166t-14.5 -350zM276 1229h-26q1 30 6.5 61.5t20 70t35 68.5t55.5 50t79 20q79 0 205 -78q44 -29 63.5 -41t51 -25.5
t53.5 -13.5q53 0 84 43.5t39 112.5h25q-3 -71 -23.5 -126t-51.5 -85t-64 -45t-66 -14q-61 0 -187 78q-46 27 -65.5 38t-53 24t-57.5 13q-115 0 -123 -151z" />
    <glyph glyph-name="odieresis" unicode="&#xf6;" 
d="M84 526q0 126 48.5 236.5t125 182.5t169.5 113.5t185 41.5q98 0 192.5 -43.5t167 -118.5t117 -183t44.5 -229q0 -112 -44 -216t-116.5 -178t-170 -118.5t-200.5 -44.5q-99 0 -194 45t-166 119.5t-114.5 178t-43.5 214.5zM313 455q0 -125 16 -212t70 -141q87 -84 207 -84
q123 0 207 84q57 57 73.5 141.5t16.5 213.5q0 97 -0.5 140t-3 107.5t-8.5 94t-17 68.5t-27.5 64t-41.5 50q-72 72 -199 72q-118 0 -200 -82q-64 -64 -78.5 -166t-14.5 -350zM844 1464q41 0 71.5 -30.5t30.5 -71.5q0 -43 -30.5 -74t-71.5 -31q-43 0 -74 31t-31 74
q0 41 31 71.5t74 30.5zM377 1464q41 0 71.5 -30.5t30.5 -71.5q0 -43 -30.5 -74t-71.5 -31q-43 0 -74 31t-31 74q0 41 31 71.5t74 30.5z" />
    <glyph glyph-name="divide" unicode="&#xf7;" horiz-adv-x="1228" 
d="M1130 459h-1032v119h1032v-119zM492 942q0 51 36 87t86 36t86.5 -36.5t36.5 -86.5q0 -46 -37 -84.5t-84 -38.5q-51 0 -87.5 36.5t-36.5 86.5zM492 94q0 51 36 87t86 36t86.5 -36.5t36.5 -86.5q0 -46 -37 -84.5t-84 -38.5q-51 0 -87.5 36.5t-36.5 86.5z" />
    <glyph glyph-name="oslash" unicode="&#xf8;" 
d="M870 877q-17 56 -65 104q-72 72 -199 72q-118 0 -200 -82q-64 -64 -78.5 -166t-14.5 -348q0 -122 15 -201zM268 113l-118 -136l-41 29l124 144q-70 76 -109.5 174.5t-39.5 205.5q0 124 48.5 233t125 181t170 113t184.5 41q186 0 334 -135l123 139l39 -31l-127 -145
q152 -165 152 -396q0 -112 -44 -216t-116.5 -178t-170 -118.5t-200.5 -44.5q-184 0 -334 140zM344 199q19 -61 55 -97q87 -84 207 -84q123 0 207 84q57 57 73.5 142t16.5 215q0 276 -16 358z" />
    <glyph glyph-name="ugrave" unicode="&#xf9;" horiz-adv-x="1343" 
d="M936 0v342q-19 -89 -58.5 -157.5t-82 -105t-93 -59.5t-85.5 -29.5t-66 -6.5q-59 0 -113.5 18.5t-99.5 54.5t-72.5 95t-27.5 133v596q0 30 -13 51t-28.5 31t-41.5 15.5t-40.5 6t-36.5 0.5v64h356v-787q0 -57 17.5 -99t46.5 -63.5t59 -31t61 -9.5q45 0 87.5 17.5t82 59
t69 102.5t47.5 154.5t18 209.5v279q0 53 -34.5 78.5t-111.5 25.5h-94v64h436v-809q0 -34 6.5 -60t24 -50.5t53 -38.5t88.5 -17v-62zM774 1243l-12 -14l-320 131q-65 28 -65 74q0 27 19.5 45t49.5 18q50 0 150 -90z" />
    <glyph glyph-name="uacute" unicode="&#xfa;" horiz-adv-x="1343" 
d="M936 0v342q-19 -89 -58.5 -157.5t-82 -105t-93 -59.5t-85.5 -29.5t-66 -6.5q-59 0 -113.5 18.5t-99.5 54.5t-72.5 95t-27.5 133v596q0 30 -13 51t-28.5 31t-41.5 15.5t-40.5 6t-36.5 0.5v64h356v-787q0 -57 17.5 -99t46.5 -63.5t59 -31t61 -9.5q45 0 87.5 17.5t82 59
t69 102.5t47.5 154.5t18 209.5v279q0 53 -34.5 78.5t-111.5 25.5h-94v64h436v-809q0 -34 6.5 -60t24 -50.5t53 -38.5t88.5 -17v-62zM571 1233l-10 12l178 162q103 90 152 90q29 0 48 -19t19 -44q0 -48 -59 -70z" />
    <glyph glyph-name="ucircumflex" unicode="&#xfb;" horiz-adv-x="1343" 
d="M936 0v342q-19 -89 -58.5 -157.5t-82 -105t-93 -59.5t-85.5 -29.5t-66 -6.5q-59 0 -113.5 18.5t-99.5 54.5t-72.5 95t-27.5 133v596q0 30 -13 51t-28.5 31t-41.5 15.5t-40.5 6t-36.5 0.5v64h356v-787q0 -57 17.5 -99t46.5 -63.5t59 -31t61 -9.5q45 0 87.5 17.5t82 59
t69 102.5t47.5 154.5t18 209.5v279q0 53 -34.5 78.5t-111.5 25.5h-94v64h436v-809q0 -34 6.5 -60t24 -50.5t53 -38.5t88.5 -17v-62zM387 1210l207 357h158l206 -357h-43l-243 215l-240 -215h-45z" />
    <glyph glyph-name="udieresis" unicode="&#xfc;" horiz-adv-x="1343" 
d="M936 0v342q-19 -89 -58.5 -157.5t-82 -105t-93 -59.5t-85.5 -29.5t-66 -6.5q-59 0 -113.5 18.5t-99.5 54.5t-72.5 95t-27.5 133v596q0 30 -13 51t-28.5 31t-41.5 15.5t-40.5 6t-36.5 0.5v64h356v-787q0 -57 17.5 -99t46.5 -63.5t59 -31t61 -9.5q45 0 87.5 17.5t82 59
t69 102.5t47.5 154.5t18 209.5v279q0 53 -34.5 78.5t-111.5 25.5h-94v64h436v-809q0 -34 6.5 -60t24 -50.5t53 -38.5t88.5 -17v-62zM907 1464q41 0 72 -30.5t31 -71.5q0 -43 -31 -74t-72 -31q-43 0 -73.5 31t-30.5 74q0 41 30.5 71.5t73.5 30.5zM440 1464q41 0 72 -30.5
t31 -71.5q0 -43 -31 -74t-72 -31q-43 0 -73.5 31t-30.5 74q0 41 30.5 71.5t73.5 30.5z" />
    <glyph glyph-name="yacute" unicode="&#xfd;" horiz-adv-x="1343" 
d="M125 987v60h575v-60h-139q-43 0 -43 -16q0 -5 3 -13.5t8.5 -23.5t9.5 -27l219 -608l229 520q21 54 21 82q0 86 -119 86h-64v60h492v-60h-41q-91 0 -145.5 -41t-96.5 -139l-370 -856q-35 -79 -99.5 -126.5t-144.5 -47.5q-60 0 -103.5 17.5t-64.5 44t-30 50.5t-9 45
q0 31 8 56.5t34.5 47t68.5 21.5q49 0 77.5 -33.5t28.5 -74.5q0 -31 -10.5 -51t-23.5 -26.5t-23.5 -11.5t-10.5 -9q0 -17 12 -21t44 -4q154 0 223 211l-301 848q-26 72 -48 86t-91 14h-76zM674 1233l-10 12l178 162q55 49 89.5 69.5t61.5 20.5q29 0 48.5 -19t19.5 -44
q0 -48 -60 -70z" />
    <glyph glyph-name="thorn" unicode="&#xfe;" horiz-adv-x="1343" 
d="M762 66q86 0 147 61q53 53 70.5 157t17.5 294q0 54 -0.5 81.5t-2 76t-5.5 74.5t-11.5 65.5t-18.5 60.5t-28 47t-39 39t-52 22t-66 9q-15 0 -30.5 -1.5t-48.5 -11.5t-61 -27.5t-61 -54t-56 -86t-38.5 -128.5t-15.5 -177q0 -61 7.5 -124t29 -132.5t53.5 -122.5t86 -87.5
t123 -34.5zM672 -156v-57h-602v57h190v1420q0 99 -45.5 139.5t-151.5 40.5v59l392 19v-727q9 54 34 106t63.5 96.5t96 71.5t123.5 27q90 0 176.5 -48t147.5 -122.5t98 -168t37 -182.5q0 -104 -39.5 -205t-103 -176.5t-148 -122t-170.5 -46.5q-106 0 -187.5 69t-127.5 197
v-447h217z" />
    <glyph glyph-name="ydieresis" unicode="&#xff;" horiz-adv-x="1343" 
d="M125 987v60h575v-60h-139q-43 0 -43 -16q0 -5 3 -13.5t8.5 -23.5t9.5 -27l219 -608l229 520q21 54 21 82q0 86 -119 86h-64v60h492v-60h-41q-91 0 -145.5 -41t-96.5 -139l-370 -856q-35 -79 -99.5 -126.5t-144.5 -47.5q-60 0 -103.5 17.5t-64.5 44t-30 50.5t-9 45
q0 31 8 56.5t34.5 47t68.5 21.5q49 0 77.5 -33.5t28.5 -74.5q0 -31 -10.5 -51t-23.5 -26.5t-23.5 -11.5t-10.5 -9q0 -17 12 -21t44 -4q154 0 223 211l-301 848q-26 72 -48 86t-91 14h-76zM969 1464q41 0 71.5 -30.5t30.5 -71.5q0 -43 -30.5 -74t-71.5 -31q-43 0 -74 31
t-31 74q0 41 31 71.5t74 30.5zM502 1464q41 0 71.5 -30.5t30.5 -71.5q0 -43 -30.5 -74t-71.5 -31q-43 0 -74 31t-31 74q0 41 31 71.5t74 30.5z" />
    <glyph glyph-name="dotlessi" unicode="&#x131;" horiz-adv-x="661" 
d="M573 59v-59h-487v59h158v789q0 123 -154 139v60l316 32h34v-1020h133z" />
    <glyph glyph-name="Lslash" unicode="&#x141;" horiz-adv-x="1622" 
d="M690 868l404 332v-65l-404 -334v-754h316q31 0 49 0.5t54 6t61 15.5t61 31t62.5 50t59 75t56.5 104t47.5 138.5t40.5 177.5h49l-22 -645h-1444v57h354v551l-278 -231v69l278 232v768h-354v57h979v-57h-369v-578z" />
    <glyph glyph-name="lslash" unicode="&#x142;" horiz-adv-x="661" 
d="M244 659l-193 -155v78l193 155v551q0 73 -41.5 112.5t-145.5 43.5v59l349 17h34v-643l168 135v-78l-168 -135v-740h168v-59h-557v59h193v600z" />
    <glyph glyph-name="OE" unicode="&#x152;" horiz-adv-x="2410" 
d="M2298 0h-1249q-68 0 -170 -4q-77 -6 -111 -6q-134 0 -262 68.5t-220 176.5t-148 246t-56 273q0 92 31.5 198t93.5 208t143.5 185.5t191 135t226.5 51.5q78 0 193 -14q165 -15 194 -15h1100v-516h-41q-47 224 -149 346.5t-255 122.5h-407v-655h80q58 0 99 8t80.5 33t64 69
t41 117t20.5 176h49v-868h-49q-1 127 -17 208.5t-53 128.5t-89.5 65t-133.5 18h-92v-709h346q81 0 150.5 23t118.5 59.5t89.5 88.5t66 102.5t45 109t29 101t15.5 85.5h43zM1149 457v641q0 86 -21.5 154t-56 111.5t-82.5 72t-97.5 40t-103.5 11.5q-85 0 -152.5 -25
t-110.5 -61t-74 -98.5t-46 -114.5t-23 -133.5t-9.5 -130.5t-1.5 -129q0 -81 1.5 -140t6.5 -129t13.5 -120.5t24 -105.5t37 -92.5t52.5 -73.5t70.5 -57t92 -33.5t115.5 -12.5q52 0 97 8.5t96.5 36t87.5 72.5t60 124.5t24 184.5z" />
    <glyph glyph-name="oe" unicode="&#x153;" horiz-adv-x="1878" 
d="M1583 631v137q0 140 -63.5 205t-169.5 65q-38 0 -73.5 -8.5t-73 -31t-64.5 -57.5t-44.5 -94t-17.5 -134v-82h506zM1729 369h83q-30 -182 -153 -287t-283 -105q-85 0 -156.5 25t-119.5 66.5t-78.5 87t-46.5 94.5q-62 -118 -162.5 -193t-237.5 -75q-125 0 -239 76.5
t-183 202.5t-69 265q0 112 47.5 217t121.5 178t167 117.5t182 44.5q110 0 211 -72t164 -214q115 284 383 284q103 0 190.5 -49.5t140.5 -126t81.5 -164.5t25.5 -170h-721v-149q0 -169 82.5 -269t212.5 -100q59 0 116 20.5t106.5 58.5t85.5 99.5t49 137.5zM580 23
q63 0 105.5 18.5t80.5 56.5q74 72 92.5 175t18.5 331q0 82 -7 144.5t-25.5 119t-49 93t-79.5 58t-116 21.5q-62 0 -110 -18.5t-79 -43.5t-52.5 -76.5t-32.5 -91t-16 -115.5t-6 -121.5t-1 -135.5q0 -415 277 -415z" />
    <glyph glyph-name="Scaron" unicode="&#x160;" horiz-adv-x="1343" 
d="M143 616h43q39 -128 99.5 -238.5t138.5 -195t175 -132.5t200 -48q139 0 243.5 81t104.5 204q0 108 -74 182q-49 49 -133 84t-175.5 57t-184.5 45.5t-181 63t-143 94.5q-59 57 -92 130t-33 183q0 173 119.5 283.5t292.5 110.5q184 0 340 -156q46 -48 59 -53q4 -2 8 -2
q26 0 62.5 90t42.5 121h47v-562h-47q-32 127 -91.5 228.5t-129.5 163t-143.5 93.5t-143.5 32q-140 0 -234 -77.5t-94 -178.5q0 -43 17.5 -83t39.5 -61q48 -48 135.5 -84t185.5 -60t197.5 -49t193.5 -66.5t151 -98.5q114 -114 114 -303q0 -215 -129.5 -336t-332.5 -121
q-110 0 -211.5 54t-167.5 120q-15 15 -33.5 35.5t-28 30.5t-20.5 18t-19 8q-44 0 -123 -266h-45v659zM535 1667l-207 356h43l241 -215l240 215h43l-207 -356h-153z" />
    <glyph glyph-name="scaron" unicode="&#x161;" horiz-adv-x="937" 
d="M86 434h39q21 -86 56.5 -159t85 -133.5t118 -95t147.5 -34.5q41 0 81 11.5t75 35t56.5 63.5t21.5 91q0 64 -49 113q-30 30 -86 52.5t-118 37t-125.5 30t-124 42t-97.5 63.5q-40 41 -61 102t-21 115q0 133 90 226t221 93q168 0 299 -167q51 69 82 159h35v-420h-41
q-36 97 -78.5 169t-80.5 112t-80.5 64t-74 31t-65.5 7q-84 0 -145.5 -54.5t-61.5 -131.5q0 -65 52 -117q29 -29 81 -48.5t111 -31.5t120.5 -26t122.5 -42.5t103 -70.5q35 -35 56.5 -69.5t29.5 -67t10 -51t2 -45.5q0 -83 -32 -147.5t-83 -100.5t-106 -54t-110 -18
q-174 0 -328 154q-51 -64 -84 -152h-43v465zM393 1210l-207 357h43l242 -215l240 215h43l-207 -357h-154z" />
    <glyph glyph-name="Ydieresis" unicode="&#x178;" horiz-adv-x="1878" 
d="M55 1446v57h828v-57h-226q-57 0 -57 -25q0 -7 6 -16l441 -739l317 544q35 57 35 107q0 65 -60.5 97t-134.5 32h-88v57h707v-57h-76q-189 0 -309 -205l-369 -631v-555h324v-55h-906v55h328v508l-491 817q-25 42 -42.5 54t-48.5 12h-178zM1174 1921q41 0 71.5 -30.5
t30.5 -71.5q0 -43 -30.5 -74t-71.5 -31q-43 0 -74 31t-31 74q0 41 31 71.5t74 30.5zM707 1921q41 0 71.5 -30.5t30.5 -71.5q0 -43 -30.5 -74t-71.5 -31q-43 0 -74 31t-31 74q0 41 31 71.5t74 30.5z" />
    <glyph glyph-name="Zcaron" unicode="&#x17d;" horiz-adv-x="1472" 
d="M219 969l12 534h1192l-1028 -1452h375q57 0 99 3.5t94 17t91.5 37.5t84 67t80 102.5t71 147t64.5 199.5h45l-17 -625h-1333l1030 1456h-413q-68 0 -135 -33.5t-123 -94t-94.5 -154.5t-47.5 -205h-47zM659 1667l-206 356h43l241 -215l240 215h43l-207 -356h-154z" />
    <glyph glyph-name="zcaron" unicode="&#x17e;" horiz-adv-x="1067" 
d="M190 647l15 400h805v-72l-723 -922h276q47 0 86 9.5t80.5 36t73 71t59.5 119t45 174.5h58l-11 -463h-897v82l717 911h-229q-117 0 -194.5 -91t-110.5 -255h-50zM457 1210l-207 357h43l242 -215l239 215h43l-207 -357h-153z" />
    <glyph glyph-name="florin" unicode="&#x192;" horiz-adv-x="811" 
d="M530 940h179l-17 -66h-174q-22 -121 -84 -374q-79 -305 -102 -383q-133 -482 -365 -482q-54 0 -87.5 30t-33.5 79q0 34 24 60t56 26q23 0 43.5 -17.5t20.5 -37.5q0 -25 -10 -35q-15 -18 -15 -25t8 -13.5t17 -6.5q105 0 166 297l86 424l104 420l8 38h-176l15 66
q51 4 71 5.5t47.5 10t36 15.5t24 30.5t24 47t24.5 71.5q13 40 21.5 64t25 63t31.5 63.5t37.5 54.5t46 47t55.5 28.5t68 11.5q61 0 100 -31.5t39 -81.5q0 -32 -19.5 -53.5t-48.5 -21.5q-25 0 -44 17t-19 40q0 19 12 37q8 18 8 24q0 29 -37 29q-28 0 -55.5 -25t-38.5 -59
q-12 -34 -24 -121z" />
    <glyph glyph-name="circumflex" unicode="&#x2c6;" horiz-adv-x="681" 
d="M55 1210l207 357h158l207 -357h-43l-244 215l-240 -215h-45z" />
    <glyph glyph-name="caron" unicode="&#x2c7;" horiz-adv-x="681" 
d="M264 1210l-207 357h43l242 -215l240 215h43l-207 -357h-154z" />
    <glyph glyph-name="uni02C9" unicode="&#x2c9;" horiz-adv-x="681" 
d="M621 1298h-558v127h558v-127z" />
    <glyph glyph-name="breve" unicode="&#x2d8;" horiz-adv-x="681" 
d="M604 1462h31q-23 -135 -102 -207.5t-189 -72.5q-116 0 -199.5 77.5t-95.5 202.5h33q64 -131 256 -131q196 0 266 131z" />
    <glyph glyph-name="dotaccent" unicode="&#x2d9;" horiz-adv-x="681" 
d="M340 1505q49 0 84 -35.5t35 -83.5q0 -50 -35 -85t-84 -35t-84 35t-35 85q0 48 35 83.5t84 35.5z" />
    <glyph glyph-name="ring" unicode="&#x2da;" horiz-adv-x="681" 
d="M340 1571q74 0 126 -52.5t52 -125.5q0 -75 -52 -127t-126 -52t-125 52t-51 127q0 74 51.5 126t124.5 52zM340 1518q-52 0 -88.5 -37t-36.5 -88q0 -53 36.5 -90t88.5 -37t88.5 37t36.5 90q0 51 -36.5 88t-88.5 37z" />
    <glyph glyph-name="ogonek" unicode="&#x2db;" horiz-adv-x="681" 
d="M545 -289l18 -35q-111 -63 -223 -63q-98 0 -158.5 54t-60.5 143q0 80 84 190h43q-39 -62 -39 -111q0 -94 60.5 -147t166.5 -53q49 0 109 22z" />
    <glyph glyph-name="tilde" unicode="&#x2dc;" horiz-adv-x="681" 
d="M8 1229h-26q1 30 6.5 61.5t20 70t35 68.5t55.5 50t79 20q79 0 205 -78q44 -29 63.5 -41t51 -25.5t53.5 -13.5q53 0 84 43.5t39 112.5h24q-3 -71 -23.5 -126t-51 -85t-63.5 -45t-66 -14q-61 0 -187 78q-46 27 -65.5 38t-53 24t-57.5 13q-115 0 -123 -151z" />
    <glyph glyph-name="hungarumlaut" unicode="&#x2dd;" horiz-adv-x="681" 
d="M117 1233l-11 12l179 162q55 49 89.5 69.5t61.5 20.5q29 0 48.5 -19t19.5 -44q0 -48 -60 -70zM485 1233l-10 12l178 162q103 90 152 90q29 0 48 -19t19 -44q0 -48 -59 -70z" />
    <glyph glyph-name="uni03A9" unicode="&#x3a9;" horiz-adv-x="1591" 
d="M1518 326l-58 -326h-528l-19 45q10 20 60 112.5t75.5 146.5t62 144t53.5 175.5t16 169.5q-1 158 -32.5 276.5t-87 185.5t-122 99t-145.5 32q-67 0 -122.5 -19t-104 -63.5t-82.5 -113t-53 -171.5t-19 -235q0 -96 20.5 -192.5t62 -193.5t74.5 -162t85 -159q12 -22 18 -32
l-19 -45h-528l-51 326l59 2q34 -98 67.5 -127t102.5 -29h217q-39 31 -66 53.5t-68.5 62.5t-71 76t-62 87t-53 102t-34 115.5t-13.5 132.5q0 196 85.5 347t232 230.5t329.5 79.5q186 0 329.5 -76.5t225.5 -223t82 -343.5q0 -84 -24.5 -165.5t-59 -142.5t-91 -128.5t-99 -109
t-105.5 -97.5h235q69 0 98 27.5t64 128.5z" />
    <glyph glyph-name="uni03BC" unicode="&#x3bc;" horiz-adv-x="1343" 
d="M1290 74v-62l-354 -12v342q-19 -89 -58.5 -157.5t-82 -105t-93 -59.5t-85.5 -29.5t-66 -6.5q-133 0 -217 84q9 -115 36 -220.5t27 -142.5q0 -71 -28.5 -115.5t-81.5 -44.5q-51 0 -78 44.5t-27 115.5q0 38 14 98.5t28 166t14 251.5v660q0 30 -13 51t-28.5 31t-41.5 15.5
t-40.5 6t-36.5 0.5v64h356v-787q0 -57 17.5 -99t46.5 -63.5t59 -31t61 -9.5q45 0 87.5 17.5t82 59t69 102.5t47.5 154.5t18 209.5v279q0 53 -34.5 78.5t-111.5 25.5h-94v64h436v-809q0 -34 6.5 -60t24 -50.5t53 -38.5t88.5 -17z" />
    <glyph glyph-name="pi" unicode="&#x3c0;" horiz-adv-x="1239" 
d="M1126 1001l56 -18q-10 -61 -33.5 -124t-46.5 -93q-44 -10 -144 -10q-8 -105 -8 -455q0 -186 90 -186q30 0 52 13t51 42l26 -51q-39 -67 -104 -106.5t-131 -39.5q-97 0 -151 62.5t-54 214.5q0 176 21 512q-65 0 -170 1t-142 1v-31q0 -167 -16.5 -306.5t-42 -222.5
t-46 -129t-36.5 -65q-77 -31 -137 -37l-15 41q73 93 120.5 238.5t64 271.5t16.5 244q-94 1 -147.5 -19t-128.5 -71l-33 55q4 5 20.5 25t23 28t24 27t28.5 28t31.5 24.5t37.5 23.5t41.5 19t49 16t55.5 8.5t64 3.5q77 0 277 -3t308 -3q51 0 77 14t52 57z" />
    <glyph glyph-name="endash" unicode="&#x2013;" horiz-adv-x="1024" 
d="M0 487v62h1024v-62h-1024z" />
    <glyph glyph-name="emdash" unicode="&#x2014;" horiz-adv-x="2048" 
d="M0 487v62h2048v-62h-2048z" />
    <glyph glyph-name="quoteleft" unicode="&#x2018;" horiz-adv-x="661" 
d="M485 1518v-56q-92 -29 -145 -83t-53 -91q0 -19 9.5 -27.5t20 -10t35.5 -1.5q48 0 84.5 -32t36.5 -93q0 -51 -34.5 -94t-106.5 -43t-118 54t-46 143q0 28 6.5 59t27.5 73t53.5 78t92.5 70.5t137 53.5z" />
    <glyph glyph-name="quoteright" unicode="&#x2019;" horiz-adv-x="661" 
d="M176 987v55q92 29 145.5 83.5t53.5 91.5q0 11 -3.5 18.5t-8 11.5t-15 6t-17 2h-22.5q-48 0 -84.5 32t-36.5 93q0 51 35 94.5t107 43.5t118 -54t46 -143q0 -28 -6.5 -59t-27.5 -73t-54 -78t-93 -70.5t-137 -53.5z" />
    <glyph glyph-name="quotesinglbase" unicode="&#x201a;" horiz-adv-x="661" 
d="M176 -274v55q93 29 146 83.5t53 90.5q0 18 -9.5 27t-20.5 10.5t-36 1.5q-48 0 -84.5 32t-36.5 93q0 51 35 94t107 43t118 -54t46 -143q0 -28 -6.5 -59t-27.5 -73t-54 -78t-93 -70t-137 -53z" />
    <glyph glyph-name="quotedblleft" unicode="&#x201c;" horiz-adv-x="1153" 
d="M961 1518v-56q-93 -29 -146 -83.5t-53 -90.5q0 -19 9.5 -27.5t20 -10t35.5 -1.5q48 0 84.5 -32t36.5 -93q0 -51 -34.5 -94t-106.5 -43t-118 54t-46 143q0 28 6.5 59t27.5 73t54 78t93 70.5t137 53.5zM485 1518v-56q-92 -29 -145 -83t-53 -91q0 -19 9.5 -27.5t20 -10
t35.5 -1.5q48 0 84.5 -32t36.5 -93q0 -51 -34.5 -94t-106.5 -43t-118 54t-46 143q0 28 6.5 59t27.5 73t53.5 78t92.5 70.5t137 53.5z" />
    <glyph glyph-name="quotedblright" unicode="&#x201d;" horiz-adv-x="1153" 
d="M666 987v55q94 29 147 83.5t53 91.5q0 18 -9.5 27t-20 10t-35.5 1q-50 0 -86.5 32t-36.5 93q0 51 34.5 94.5t106.5 43.5q73 0 119.5 -53.5t46.5 -143.5q0 -28 -6.5 -59t-27.5 -73t-54 -78t-93 -70.5t-138 -53.5zM193 987v55q92 28 145 83t53 92q0 18 -9.5 27t-20 10
t-35.5 1q-48 0 -84.5 32t-36.5 93q0 51 34.5 94.5t106.5 43.5t118 -54t46 -143q0 -28 -6.5 -59t-27.5 -73t-53.5 -78t-92.5 -70.5t-137 -53.5z" />
    <glyph glyph-name="quotedblbase" unicode="&#x201e;" horiz-adv-x="1153" 
d="M666 -274v55q94 29 147 83t53 91q0 19 -9.5 27.5t-20 10t-35.5 1.5q-50 0 -86.5 32t-36.5 93q0 51 34.5 94t106.5 43q73 0 119.5 -53.5t46.5 -143.5q0 -28 -6.5 -59t-27.5 -73t-54 -78t-93 -70t-138 -53zM193 -274v55q92 28 145 82.5t53 91.5q0 19 -9.5 27.5t-20 10
t-35.5 1.5q-48 0 -84.5 32t-36.5 93q0 51 34.5 94t106.5 43t118 -54t46 -143q0 -23 -5 -48t-16.5 -58.5t-35 -65t-57 -62.5t-86 -57t-117.5 -42z" />
    <glyph glyph-name="dagger" unicode="&#x2020;" horiz-adv-x="1044" 
d="M506 -444v196q0 176 -26.5 464t-59.5 448q79 73 86 213h-21q-53 0 -144.5 -31t-133.5 -31q-43 0 -74 21.5t-31 54.5q0 39 32 58.5t79 19.5q37 0 134 -31t149 -31h10v21q0 61 -38 170.5t-38 167.5q0 49 25.5 92t66.5 43q39 0 65.5 -44t26.5 -93q0 -56 -39.5 -169
t-39.5 -175v-13h8q57 0 153.5 31t128.5 31q51 0 84 -23t33 -51q0 -35 -30.5 -57.5t-73.5 -22.5q-48 0 -136 29.5t-155 29.5h-10q7 -136 86 -212q-37 -185 -60.5 -480.5t-23.5 -498.5v-127h-33z" />
    <glyph glyph-name="daggerdbl" unicode="&#x2021;" horiz-adv-x="1044" 
d="M539 -27h4q60 0 139.5 29t110.5 29q39 0 73.5 -23t34.5 -53q0 -26 -30 -50t-72 -24q-41 0 -115 29t-141 29h-4v-5q0 -50 32.5 -143.5t32.5 -136.5q0 -52 -25.5 -82.5t-56.5 -30.5q-34 0 -57 34t-23 81q0 42 32 133t32 150h-8q-61 0 -136 -29t-114 -29q-40 0 -70.5 23.5
t-30.5 50.5q0 32 33 54t70 22q43 0 114 -29t140 -29q2 87 -66 166q68 127 68 334q0 210 -70 336q34 41 51.5 77t18.5 89h-21q-54 0 -126 -28.5t-109 -28.5q-35 0 -71 22t-36 55q0 28 33 51t78 23q31 0 108 -29q73 -30 132 -30h10q-2 70 -34 159t-32 127q0 40 22.5 76.5
t61.5 36.5q31 0 56.5 -34t25.5 -79q0 -40 -33.5 -135t-33.5 -151h16q47 0 129 28q81 29 117 29q46 0 74 -27t28 -45q0 -33 -33.5 -55t-70.5 -22q-42 0 -115.5 28.5t-138.5 28.5h-4q6 -103 69 -166q-67 -120 -67 -328q0 -121 16.5 -198t52.5 -144q-33 -36 -49 -72.5
t-22 -93.5z" />
    <glyph glyph-name="bullet" unicode="&#x2022;" horiz-adv-x="1024" 
d="M512 987q114 0 190 -78t76 -192q0 -108 -76.5 -185t-189.5 -77q-110 0 -188 77t-78 185q-3 113 76 191.5t190 78.5z" />
    <glyph glyph-name="ellipsis" unicode="&#x2026;" horiz-adv-x="2048" 
d="M1706 215q54 0 91.5 -37.5t37.5 -91.5t-37.5 -91.5t-91.5 -37.5t-91.5 37.5t-37.5 91.5t37.5 91.5t91.5 37.5zM1024 215q54 0 91.5 -37.5t37.5 -91.5t-37.5 -91.5t-91.5 -37.5t-91.5 37.5t-37.5 91.5t37.5 91.5t91.5 37.5zM342 215q54 0 91.5 -37.5t37.5 -91.5
t-37.5 -91.5t-91.5 -37.5t-91.5 37.5t-37.5 91.5t37.5 91.5t91.5 37.5z" />
    <glyph glyph-name="perthousand" unicode="&#x2030;" horiz-adv-x="2304" 
d="M1319 217v164q0 41 -2.5 72.5t-11 64.5t-22.5 54.5t-38 35t-57 13.5q-133 0 -133 -222v-194q0 -33 1 -54.5t4.5 -56.5t12 -57.5t22 -45.5t37 -34.5t54.5 -11.5q35 0 60 15.5t39 39.5t22 62t10 72.5t2 82.5zM1192 647q120 0 204.5 -104.5t84.5 -259.5q0 -153 -85 -257
t-214 -104q-126 0 -207.5 104.5t-81.5 268.5q0 86 33.5 165t103.5 133t162 54zM537 975v164q0 52 -5 90.5t-18 74.5t-40 55t-68 19q-136 0 -136 -221v-194q0 -34 1 -55t4.5 -56t12 -57.5t22.5 -46t38 -35t55 -11.5q35 0 60.5 15.5t39.5 39.5t22 62.5t10 73t2 82.5zM408 1405
q121 0 205.5 -105t84.5 -260q0 -152 -85 -256t-214 -104q-128 0 -209 104.5t-81 268.5q0 86 33.5 165t103.5 133t162 54zM2036 217v164q0 41 -2.5 72.5t-11 64.5t-22.5 54.5t-38 35t-57 13.5q-133 0 -133 -222v-194q0 -33 1 -54.5t4.5 -56.5t12 -57.5t22 -45.5t37 -34.5
t54.5 -11.5q35 0 60 15.5t39 39.5t22 62t10 72.5t2 82.5zM1909 647q120 0 204.5 -104.5t84.5 -259.5q0 -153 -85 -257t-215 -104q-126 0 -207 104.5t-81 268.5q0 86 33.5 165t103.5 133t162 54zM236 -76l1024 1479h83l-1021 -1479h-86z" />
    <glyph glyph-name="guilsinglleft" unicode="&#x2039;" horiz-adv-x="661" 
d="M303 645l180 -436h-32l-289 434l289 438h34z" />
    <glyph glyph-name="guilsinglright" unicode="&#x203a;" horiz-adv-x="661" 
d="M358 645l-180 436h33l289 -434l-289 -438h-35z" />
    <glyph glyph-name="fraction" unicode="&#x2044;" horiz-adv-x="681" 
d="M-324 -70l1287 1473h86l-1287 -1473h-86z" />
    <glyph glyph-name="Euro" unicode="&#x20ac;" 
d="M1042 649l-18 -76h-563q7 -158 29 -269.5t57.5 -174.5t77.5 -91t96 -28q154 0 242 97.5t131 312.5h47q-35 -212 -140.5 -337.5t-273.5 -125.5q-84 0 -161 36t-135.5 96.5t-105 140t-75 166.5t-41.5 177h-135l16 76h113q-2 14 -2 45q0 43 2 66h-129l16 76h121
q17 124 64 233.5t118.5 194.5t173.5 134.5t221 49.5q84 0 152 -21.5t109.5 -54.5t69.5 -74t39 -77.5t11 -67.5q0 -75 -45.5 -119.5t-105.5 -44.5q-65 0 -107.5 42t-42.5 102q0 34 19 66.5t51 49.5q10 5 32 12.5t31 15t9 23.5q0 38 -59 67.5t-146 29.5q-59 0 -107 -11.5
t-83 -35t-61 -52t-43 -71t-28 -82.5t-16.5 -96.5t-7.5 -102.5t-2 -110h606l-19 -76h-587v-6q0 -72 2 -105h583z" />
    <glyph glyph-name="afii61289" unicode="&#x2113;" horiz-adv-x="915" 
d="M834 256l45 -41q-138 -254 -377 -254q-151 0 -230 82q-41 49 -59 115t-18 196v152l-127 -90l-29 59l156 115v276q0 244 22.5 354t89.5 191q91 115 213 115q101 0 155 -81.5t54 -203.5q0 -172 -80 -313.5t-239 -294.5v-176q0 -199 44.5 -279t141.5 -80q131 0 238 158z
M410 987v-248q86 101 138 229t52 267q0 98 -23.5 158.5t-70.5 60.5q-57 0 -76.5 -98.5t-19.5 -368.5z" />
    <glyph glyph-name="trademark" unicode="&#x2122;" horiz-adv-x="2048" 
d="M496 1464v-635q0 -71 7 -85q9 -18 53 -24q10 -1 42 -5v-39h-334v39q33 4 44.5 5t28 7.5t19 9.5t7.5 19.5t4.5 28.5t-0.5 44v635h-105q-106 0 -139 -141h-39v180h694v-180h-39q-33 141 -139 141h-104zM1378 670l-311 637h-4v-461q0 -68 21 -96t85 -35v-39h-266v39
q66 7 87.5 35t21.5 96v516q-19 45 -59 73.5t-83 28.5v39h236l321 -645l336 645h201v-39q-64 -3 -90.5 -31.5t-26.5 -84.5v-519q0 -35 -0.5 -44.5t4.5 -27.5t7 -20t18.5 -9.5t28 -8t45.5 -4.5v-39h-334v39h1h1h1l2 1q69 7 82 18q15 12 15 62v22v11v484h-4l-317 -643h-19z" />
    <glyph glyph-name="Omega" unicode="&#x2126;" horiz-adv-x="1591" 
d="M1518 326l-58 -326h-528l-19 45q10 20 60 112.5t75.5 146.5t62 144t53.5 175.5t16 169.5q-1 158 -32.5 276.5t-87 185.5t-122 99t-145.5 32q-67 0 -122.5 -19t-104 -63.5t-82.5 -113t-53 -171.5t-19 -235q0 -96 20.5 -192.5t62 -193.5t74.5 -162t85 -159q12 -22 18 -32
l-19 -45h-528l-51 326l59 2q34 -98 67.5 -127t102.5 -29h217q-39 31 -66 53.5t-68.5 62.5t-71 76t-62 87t-53 102t-34 115.5t-13.5 132.5q0 196 85.5 347t232 230.5t329.5 79.5q186 0 329.5 -76.5t225.5 -223t82 -343.5q0 -84 -24.5 -165.5t-59 -142.5t-91 -128.5t-99 -109
t-105.5 -97.5h235q69 0 98 27.5t64 128.5z" />
    <glyph glyph-name="estimated" unicode="&#x212e;" horiz-adv-x="1794" 
d="M1722 680h-1337q-12 0 -12 -8v-406q0 -23 18 -45q99 -104 229.5 -162.5t276.5 -58.5q158 0 296 65.5t237 180.5h120q-115 -133 -287 -210t-368 -77q-168 0 -320.5 58.5t-263 157.5t-176 236.5t-65.5 288.5q0 152 65.5 289.5t176 237t263 158.5t320.5 59q169 0 322.5 -59
t264 -158.5t175.5 -237t65 -289.5v-20zM1419 733v408q0 29 -20 49q-100 99 -229.5 155t-272.5 56t-274 -58.5t-230 -160.5q-20 -20 -20 -49v-400q0 -12 12 -12h1026q8 0 8 12z" />
    <glyph glyph-name="partialdiff" unicode="&#x2202;" horiz-adv-x="1167" 
d="M571 889h2q79 0 156.5 -35.5t124.5 -103.5q18 155 20 225q7 188 -55 325q-33 73 -104 125t-158 52q-145 0 -307 -131q-29 -3 -60 56t-14 99q141 86 311 86q297 0 461 -299q60 -110 85.5 -241t25.5 -246q0 -134 -26 -273t-81 -247q-157 -320 -456 -320q-184 0 -294 114
t-110 308q0 105 35.5 196.5t93.5 155.5q63 71 155.5 112.5t194.5 41.5zM629 797h-2q-135 0 -219 -119q-47 -73 -71 -180t-24 -222q-2 -108 47.5 -175.5t137.5 -67.5q133 0 231 217q42 88 64.5 177t42.5 228q-23 50 -80.5 96t-126.5 46z" />
    <glyph glyph-name="Delta" unicode="&#x2206;" horiz-adv-x="1392" 
d="M1315 0h-1241v63l561 1367l100 26l580 -1393v-63zM1034 113l-420 1038l-409 -1038h829z" />
    <glyph glyph-name="product" unicode="&#x220f;" horiz-adv-x="1513" 
d="M1452 1448v-62q-50 -4 -79.5 -7.5t-54 -12t-35 -17.5t-18 -29.5t-9 -41t-1.5 -59.5v-1147q0 -42 1.5 -66.5t9 -47t18.5 -33t35 -19.5t52.5 -13t76.5 -8v-61h-592v61q45 3 69.5 6t47 11.5t31.5 18t16.5 32.5t8.5 47.5t1 69.5v1226q0 48 -14.5 60t-65.5 12h-395
q-48 0 -61 -10.5t-13 -52.5v-1235v-50.5t2.5 -39t6 -32t11.5 -21.5t18.5 -17t28.5 -10.5t39 -9t52 -5.5v-61h-578v61q48 4 76 7.5t52 12.5t35 19.5t19 32.5t9.5 46.5t1.5 66.5v1149q0 39 -1.5 60t-9.5 41.5t-18.5 29.5t-35.5 17t-54 11.5t-80 7.5v62h1397z" />
    <glyph glyph-name="summation" unicode="&#x2211;" horiz-adv-x="1210" 
d="M1159 240l-96 -428h-1006v59l478 696l-465 819v62h991q3 -25 26 -358l-63 -13q-29 141 -76 221q-24 43 -67 58.5t-158 15.5h-375l379 -659l-477 -713h538q54 0 82.5 1.5t60 11t47.5 23.5t37.5 45.5t38.5 70t42 104.5z" />
    <glyph glyph-name="minus" unicode="&#x2212;" horiz-adv-x="1228" 
d="M1130 459h-1032v119h1032v-119z" />
    <glyph glyph-name="uni2215" unicode="&#x2215;" horiz-adv-x="681" 
d="M-324 -70l1287 1473h86l-1287 -1473h-86z" />
    <glyph glyph-name="uni2219" unicode="&#x2219;" horiz-adv-x="661" 
d="M162 518q0 51 36.5 87t86.5 36q49 0 86 -36.5t37 -86.5q0 -46 -37 -84.5t-84 -38.5q-51 0 -88 36.5t-37 86.5z" />
    <glyph glyph-name="radical" unicode="&#x221a;" horiz-adv-x="1193" 
d="M1163 1833l-364 -2152l-54 -27l-462 1141l-187 -88l-26 75l360 168l342 -878h6l293 1781z" />
    <glyph glyph-name="infinity" unicode="&#x221e;" horiz-adv-x="1609" 
d="M1507 596v-4q0 -156 -97.5 -253t-229.5 -97q-94 0 -183 54.5t-190 182.5q-47 -56 -84 -93t-85.5 -73t-102 -53.5t-113.5 -17.5q-132 0 -228 97.5t-96 244.5q0 153 96.5 250.5t243.5 97.5q107 0 195.5 -60.5t181.5 -173.5q5 6 15 17q35 41 55 62t59.5 56t72 52.5t79.5 32
t96 14.5q137 -2 226 -94.5t89 -241.5zM438 375h2q40 0 78.5 15t76.5 47.5t61.5 56.5t61.5 67q10 12 15 17q-36 48 -52.5 69t-50.5 58t-60 53.5t-63 30.5t-77 14q-89 0 -141.5 -62.5t-52.5 -158.5q0 -86 57.5 -146.5t144.5 -60.5zM1178 803h-2q-31 0 -63 -12t-54 -24.5
t-54 -43t-44 -43t-43.5 -50t-34.5 -40.5q100 -121 163 -168t138 -47q85 0 135.5 65t50.5 144q0 98 -53 158.5t-139 60.5z" />
    <glyph glyph-name="integral" unicode="&#x222b;" horiz-adv-x="827" 
d="M344 6l-43 844q-5 139 -3 252t16.5 202.5t33 157t46.5 117.5t57 83t63.5 53t67 28t67.5 8q52 0 97.5 -29.5t46.5 -79.5q0 -51 -32 -78.5t-75 -27.5q-26 0 -44 18t-25.5 39.5t-20 39.5t-27.5 18q-90 0 -75 -336l41 -787q7 -185 1 -328t-31 -249t-57 -178.5t-76.5 -117
t-91.5 -64t-100 -19.5q-61 0 -102 33.5t-41 79.5q-1 47 38 79.5t87 32.5q21 0 37 -19t24 -42.5t20 -42.5t27 -19q45 0 64 89t10 243z" />
    <glyph glyph-name="approxequal" unicode="&#x2248;" horiz-adv-x="1159" 
d="M983 922l90 -84q-115 -207 -282 -207q-60 0 -109.5 19t-126.5 65q-56 34 -96.5 50.5t-87.5 16.5q-43 0 -82 -23t-63 -50t-56 -74l-92 80q49 92 130.5 149.5t174.5 57.5q24 0 48.5 -4.5t40.5 -8.5t40.5 -15t32 -15t33.5 -19t28 -16q5 -3 21.5 -13t21 -12.5t18.5 -10.5
t18.5 -10t16.5 -7.5t17.5 -7.5t16 -5.5t18.5 -4.5t17.5 -2t19.5 -1q57 0 101.5 38t90.5 114zM983 545l90 -82q-115 -207 -282 -207q-59 0 -108.5 19t-127.5 63q-58 36 -97.5 53t-84.5 17q-65 0 -110 -39t-93 -111l-92 80q48 93 130.5 150t174.5 57q21 0 40.5 -2t39 -8
t33 -10t32.5 -13.5t26.5 -13.5t28 -15.5t23.5 -13.5q7 -4 29.5 -17.5t31 -18.5t27.5 -14.5t31.5 -13t30.5 -7t35 -3.5q57 0 99 36t93 114z" />
    <glyph glyph-name="notequal" unicode="&#x2260;" horiz-adv-x="1159" 
d="M844 1051l-84 -187h295v-139h-350l-127 -285h477v-139h-533l-106 -238l-111 48l86 190h-291v139h346l125 285h-471v139h527l106 234z" />
    <glyph glyph-name="lessequal" unicode="&#x2264;" horiz-adv-x="1159" 
d="M1051 211l-938 461v149l938 459v-162l-795 -368v-7l795 -370v-162zM1057 -10h-955v141h955v-141z" />
    <glyph glyph-name="greaterequal" unicode="&#x2265;" horiz-adv-x="1159" 
d="M115 1280l938 -461v-149l-938 -459v162l794 370v5l-794 370v162zM1053 -10h-949v141h949v-141z" />
    <glyph glyph-name="lozenge" unicode="&#x25ca;" horiz-adv-x="1214" 
d="M1112 694l-422 -844h-168l-422 844l426 848h164zM952 694l-340 701h-8l-344 -699l346 -702h6z" />
    <glyph glyph-name="f_i" unicode="&#xfb01;" horiz-adv-x="1343" 
d="M459 1059h655v-1000h174v-59h-536v59h166v902h-459v-900h168v-61h-521v59h156v902h-203v98h203q-1 104 33 188.5t85.5 135.5t116.5 85.5t121 48t103 13.5q166 0 258 -72.5t92 -165.5q0 -52 -36.5 -90.5t-86.5 -38.5q-56 0 -87.5 39t-31.5 80q0 31 14 54.5t30.5 35
t30.5 24t14 23.5q0 29 -62 47.5t-117 18.5q-280 0 -280 -291v-135z" />
    <glyph glyph-name="f_l" unicode="&#xfb02;" horiz-adv-x="1343" 
d="M901 59v902h-459v-900h220l-3 -61h-593v61h180v900h-187v98h187q-1 54 16.5 115t54.5 123t88.5 112t127.5 81.5t163 31.5h402v-1463h192v-59h-557v59h168zM901 1059v123q-34 16 -54 51t-20 63q0 39 25.5 72t81.5 49q-89 66 -211 66q-94 0 -159 -46t-93.5 -118.5
t-28.5 -163.5v-96h459z" />
    </font>
</defs>
</svg>
