<?xml version="1.0" encoding="utf-8"?>
<!-- Generator: Adobe Illustrator 15.0.0, SVG Export Plug-In . SVG Version: 6.00 Build 0)  -->
<!DOCTYPE svg PUBLIC "-//W3C//DTD SVG 1.1//EN" "http://www.w3.org/Graphics/SVG/1.1/DTD/svg11.dtd">
<svg version="1.1" id="svg2" xmlns="http://www.w3.org/2000/svg" xmlns:xlink="http://www.w3.org/1999/xlink" x="0px" y="0px"
	 width="800px" height="800px" viewBox="0 0 800 800" enable-background="new 0 0 800 800" xml:space="preserve">
<polygon fill="#CC0000" stroke="#CC0000" stroke-width="2" stroke-miterlimit="10" points="636.59,336.975 584.31,336.975 
	580.22,341.225 580.22,325.415 474.59,219.785 458.78,219.785 463.03,215.695 463.03,163.415 426.06,126.595 373.94,126.595 
	373.94,126.595 336.97,163.415 336.97,215.695 341.06,219.785 325.408,219.785 219.78,325.415 219.78,341.225 215.69,336.975 
	163.41,336.975 126.44,373.945 126.44,426.065 163.41,463.035 215.69,463.035 219.78,458.785 219.78,474.595 264.94,519.755 
	285.41,499.315 248.78,462.695 248.78,423.385 214.28,423.385 203.59,434.065 175.5,434.065 155.41,414.125 155.41,385.885 
	175.5,365.945 203.59,365.945 214.28,376.625 248.78,376.625 248.78,337.315 285.41,300.695 282.72,298.035 245.03,335.725 
	245.03,372.885 215.88,372.885 205.19,362.225 173.91,362.225 151.69,384.255 151.69,415.755 173.91,437.785 205.19,437.785 
	215.88,427.125 245.03,427.125 245.03,464.095 280.06,499.315 264.94,514.445 223.53,473.005 223.53,449.695 214.09,459.125 
	165,459.125 130.34,424.445 130.34,375.565 165,340.695 214.09,340.695 223.53,350.315 223.53,327.005 326.84,223.695 
	350.31,223.695 340.69,214.095 340.69,165.005 375.38,130.345 424.44,130.345 459.118,165.005 459.118,214.095 449.69,223.695 
	473,223.695 523.31,274.035 508.19,289.125 464.09,245.035 427.118,245.035 427.118,215.885 437.78,205.195 437.78,173.915 
	415.56,151.845 384.25,151.845 362.22,173.915 362.22,205.195 372.88,215.885 372.88,245.035 335.72,245.035 298.03,282.915 
	300.69,285.565 337.31,248.785 376.618,248.785 376.618,214.445 365.94,203.595 365.94,175.505 385.88,155.595 414.118,155.595 
	434.06,175.505 434.06,203.595 423.22,214.445 423.22,248.785 462.69,248.785 551.22,337.315 551.22,376.625 585.56,376.625 
	596.408,365.945 624.5,365.945 644.408,385.885 644.408,414.125 624.5,434.065 596.408,434.065 585.56,423.385 551.22,423.385 
	551.22,462.695 514.44,499.315 517.09,501.975 554.97,464.095 554.97,427.125 583.94,427.125 594.81,437.785 626.09,437.785 
	648.158,415.755 648.158,384.255 626.09,362.225 594.81,362.225 583.94,372.885 554.97,372.885 554.97,335.725 510.88,291.815 
	525.97,276.695 576.31,327.005 576.31,350.315 585.908,340.695 635,340.695 669.658,375.565 669.658,424.445 635,459.125 
	585.908,459.125 576.31,449.695 576.31,473.005 473,576.315 449.69,576.315 459.118,585.915 459.118,635.005 424.44,669.665 
	375.38,669.665 340.69,635.005 340.69,585.915 350.31,576.315 326.84,576.315 276.5,525.975 291.62,510.885 335.72,554.975 
	372.88,554.975 372.88,583.945 362.22,594.815 362.22,626.095 384.25,648.165 415.56,648.165 437.78,626.095 437.78,594.815 
	427.118,583.945 427.118,554.975 464.09,554.975 501.97,517.095 499.31,514.445 462.69,551.225 423.22,551.225 423.22,585.565 
	434.06,596.225 434.06,624.505 414.118,644.415 385.88,644.415 365.94,624.505 365.94,596.225 376.618,585.565 376.618,551.225 
	337.31,551.225 294.28,508.195 309.59,493.095 346.22,529.725 398.118,529.725 398.118,588.945 401.88,588.945 401.88,529.725 
	453.78,529.725 529.72,453.785 529.72,401.885 588.94,401.885 588.94,398.125 529.72,398.125 529.72,346.225 499.31,315.815 
	496.658,318.475 525.97,347.815 525.97,452.195 452.19,525.975 347.81,525.975 312.248,490.415 327.38,475.315 356.69,504.665 
	443.31,504.665 466.408,481.535 463.748,478.885 441.69,500.725 358.118,500.725 330.03,472.625 345.158,457.535 366.998,479.415 
	432.81,479.415 479.408,432.815 479.408,367.195 457.34,345.165 472.618,330.035 500.72,358.315 500.72,441.695 478.88,463.755 
	481.53,466.415 504.47,443.315 504.47,356.695 443.31,295.345 356.69,295.345 327.38,324.695 312.248,309.595 347.81,274.035 
	452.19,274.035 481.53,303.345 484.19,300.695 453.78,270.285 401.88,270.285 401.88,211.065 398.118,211.065 398.118,270.285 
	346.22,270.285 270.09,346.225 270.09,398.125 210.91,398.125 210.91,401.885 270.09,401.885 270.09,453.785 300.69,484.195 
	303.34,481.535 274.03,452.195 274.03,347.815 309.59,312.255 324.69,327.385 295.34,356.695 295.34,443.315 318.47,466.415 
	321.118,463.755 299.09,441.695 299.09,358.315 358.118,299.285 441.69,299.285 469.97,327.385 454.69,342.475 432.81,320.595 
	366.998,320.595 320.59,367.195 320.59,432.815 336.248,448.625 338.908,445.785 324.34,431.385 324.34,368.625 345.158,347.815 
	360.248,363.095 345.84,377.505 345.84,422.505 354.03,430.695 356.69,428.005 349.59,420.915 349.59,379.095 379.09,349.595 
	420.908,349.595 427.998,356.695 430.69,354.035 422.498,345.845 377.498,345.845 362.94,360.445 347.81,345.165 368.618,324.345 
	431.22,324.345 475.47,368.625 475.47,431.385 454.69,452.195 439.56,436.915 454.158,422.505 454.158,377.505 445.78,369.315 
	443.118,372.005 450.408,379.095 450.408,420.915 420.908,450.415 382.498,450.415 378.748,454.165 422.498,454.165 
	436.908,439.565 451.998,454.845 431.22,475.665 368.618,475.665 347.81,454.845 374.47,428.005 362.22,415.755 362.22,384.255 
	384.248,362.225 415.56,362.225 437.78,384.255 437.78,415.755 415.56,437.785 384.248,437.785 380.88,434.225 360.248,454.845 
	372.34,466.785 427.658,466.785 439.56,454.845 436.908,452.195 426.06,463.035 373.94,463.035 365.59,454.845 380.88,439.565 
	382.658,441.535 417.158,441.535 441.53,417.165 441.53,382.845 430.69,372.005 445.78,356.695 463.03,373.945 463.03,426.065 
	451.998,436.915 454.69,439.565 466.78,427.665 466.78,372.345 427.658,333.225 372.34,333.225 360.248,345.165 362.94,347.815 
	373.94,336.975 426.06,336.975 443.118,354.035 427.998,369.315 417.158,358.475 382.658,358.475 358.31,382.845 358.31,417.165 
	369.158,428.005 354.03,443.125 336.97,426.065 336.97,373.945 347.81,363.095 345.158,360.445 333.22,372.345 333.22,427.665 
	351.38,445.785 336.248,461.095 311.72,436.535 311.72,363.475 363.47,311.725 436.53,311.725 454.69,330.035 457.34,327.385 
	438.158,307.975 361.84,307.975 307.97,361.845 307.97,438.165 333.59,463.755 318.47,478.885 286.47,447.035 286.47,352.975 
	312.248,327.385 309.59,324.695 282.72,351.535 282.72,448.475 315.81,481.535 300.69,496.665 261.41,457.345 261.41,410.755 
	209.12,410.755 198.44,421.445 180.66,421.445 168.03,408.814 168.03,391.195 180.66,378.565 198.44,378.565 209.12,389.255 
	261.41,389.255 261.41,342.665 342.47,261.415 389.248,261.415 389.248,209.125 378.56,198.445 378.56,180.665 391.03,168.225 
	408.81,168.225 421.44,180.665 421.44,198.445 410.748,209.125 410.748,261.415 457.34,261.415 496.658,300.695 481.53,315.815 
	448.47,282.915 351.38,282.915 324.69,309.595 327.38,312.255 352.97,286.665 446.84,286.665 513.34,352.975 513.34,447.035 
	481.53,478.885 466.408,463.755 492.03,438.165 492.03,361.845 472.618,342.475 469.97,345.165 488.09,363.475 488.09,436.535 
	436.53,488.095 363.47,488.095 345.158,469.975 342.47,472.625 361.84,492.035 438.158,492.035 463.748,466.415 478.88,481.535 
	446.84,513.345 352.97,513.345 327.38,487.755 324.69,490.415 351.38,517.095 448.47,517.095 517.09,448.475 517.09,351.535 
	484.19,318.475 499.31,303.345 538.59,342.665 538.59,389.255 590.88,389.255 601.56,378.565 619.34,378.565 631.78,391.195 
	631.78,408.814 619.34,421.445 601.56,421.445 590.88,410.755 538.59,410.755 538.59,457.345 457.34,538.595 410.748,538.595 
	410.748,590.885 421.44,601.565 421.44,619.345 408.81,631.785 391.03,631.785 378.56,619.345 378.56,601.565 389.248,590.885 
	389.248,538.595 342.47,538.595 309.59,505.535 306.908,508.195 341.06,542.345 385.498,542.345 385.498,588.945 374.84,599.975 
	374.84,620.755 389.59,635.535 410.408,635.535 425.158,620.755 425.158,599.975 414.498,588.945 414.498,542.345 458.94,542.345 
	499.31,501.975 514.44,517.095 467.84,563.845 435.84,563.845 435.84,580.415 446.498,591.065 446.498,629.665 419.28,657.035 
	380.72,657.035 353.31,629.665 353.31,591.065 363.998,580.415 363.998,563.845 332.158,563.845 291.62,523.315 288.94,525.975 
	330.56,567.595 360.248,567.595 360.248,578.785 349.59,589.475 349.59,631.255 379.09,660.785 420.908,660.785 450.408,631.255 
	450.408,589.475 439.748,578.785 439.748,567.595 469.44,567.595 567.59,469.445 567.59,439.755 578.78,439.755 589.47,450.415 
	631.25,450.415 660.78,420.915 660.78,379.095 631.25,349.595 589.47,349.595 578.78,360.255 567.59,360.255 567.59,330.565 
	525.97,289.125 523.31,291.815 563.84,332.165 563.84,364.165 580.408,364.165 591.06,353.315 629.658,353.315 657.03,380.725 
	657.03,419.285 629.658,446.695 591.06,446.695 580.408,435.845 563.84,435.845 563.84,467.845 517.09,514.445 501.97,499.314 
	542.34,458.945 542.34,414.505 589.28,414.505 599.97,425.165 620.75,425.165 635.53,410.415 635.53,389.595 620.75,374.845 
	599.97,374.845 589.28,385.505 542.34,385.505 542.34,341.065 458.94,257.665 414.498,257.665 414.498,210.725 425.158,200.035 
	425.158,179.255 410.408,164.475 389.59,164.475 374.84,179.255 374.84,200.035 385.498,210.725 385.498,257.665 341.06,257.665 
	300.69,298.035 285.41,282.915 332.158,236.165 363.998,236.165 363.998,219.595 353.31,208.945 353.31,170.345 380.72,142.975 
	419.28,142.975 446.498,170.345 446.498,208.945 435.84,219.595 435.84,236.165 467.84,236.165 508.19,276.695 510.88,274.035 
	469.44,232.415 439.748,232.415 439.748,221.225 450.408,210.535 450.408,168.755 420.908,139.225 379.09,139.225 349.59,168.755 
	349.59,210.535 360.248,221.225 360.248,232.415 330.56,232.415 232.41,330.565 232.41,360.255 221.03,360.255 210.34,349.595 
	168.56,349.595 139.06,379.095 139.06,420.915 168.56,450.415 210.34,450.415 221.03,439.755 232.41,439.755 232.41,469.445 
	264.94,501.975 267.62,499.314 236.16,467.845 236.16,435.845 219.59,435.845 208.75,446.695 170.16,446.695 142.97,419.285 
	142.97,380.725 170.16,353.315 208.75,353.315 219.59,364.165 236.16,364.165 236.16,332.165 282.72,285.565 298.03,300.695 
	257.47,341.065 257.47,385.505 210.72,385.505 200.03,374.845 179.06,374.845 164.31,389.595 164.31,410.415 179.06,425.165 
	200.03,425.165 210.72,414.505 257.47,414.505 257.47,458.945 298.03,499.314 271.16,525.975 325.408,580.225 341.06,580.225 
	336.97,584.314 336.97,636.415 373.94,673.415 426.06,673.415 463.03,636.415 463.03,584.314 458.78,580.225 474.59,580.225 
	580.22,474.595 580.22,458.785 584.31,463.035 636.59,463.035 673.408,426.064 673.408,373.945 "/>
<g id="layer1">
	<path id="path21" d="M96.376,95.493l3.201-68.1h9.958l20.627,47.112l20.626-47.112h10.137l3.2,68.1h-8.538L153.1,42.855
		l-22.938,52.638l-22.938-52.638l-2.49,52.638H96.376z"/>
	<path id="path23" d="M218.19,27.375l-4.81,0.375l-4.79,0.875l-4.47,1.781l-4.24,2.312l-3.91,3.031l-3.56,3.375l-2.852,3.906
		l-2.31,4.281l-1.78,4.438l-1.06,4.781l-0.382,5l0.382,4.781l1.06,4.813l1.78,4.437l2.31,4.282l2.852,3.906l3.56,3.562l3.91,2.844
		l4.24,2.312l4.47,1.781l4.79,0.875l4.81,0.375l4.972-0.375l4.618-0.875l4.632-1.781l4.278-2.312l3.9-2.844l3.38-3.562l3.03-3.906
		l2.31-4.282l1.602-4.437l1.06-4.813l0.34-4.781l-0.34-5l-1.06-4.781l-1.602-4.438l-2.31-4.28l-3.03-3.906l-3.38-3.375l-3.9-3.031
		l-4.278-2.312l-4.632-1.781l-4.618-0.875L218.19,27.375z M217.47,32.375l3.91,0.687l3.74,1.25l3.38,1.782l3.56,2.844l3.19,3.374
		l2.66,3.75l2.31,4.094l1.62,4.25l0.88,4.438l0.53,4.625l-0.34,4.625l-0.722,4.468L240.59,77l-1.78,3.375l-2.31,3.187l-2.84,2.5
		l-3.382,2.126l-3.56,1.437l-3.91,0.719L218.91,90.5l-3.75-0.688l-3.722-1.25l-3.41-1.781l-3.528-2.843l-3.222-3.376l-2.84-3.75
		l-2.13-4.093l-1.59-4.25L193.66,64l-0.382-4.594l0.19-4.625l0.87-4.469l1.438-4.437l1.78-3.375l2.47-3.031l2.852-2.657l3.398-2.124
		l3.53-1.438l3.75-0.719L217.47,32.375L217.47,32.375z"/>
	<path id="path3318" d="M278.62,95.5V47.312l0.38-3.031l1.06-2.843l1.602-2.5l2.118-2.126L287,34.688l3.38-1.626L294.12,32
		l3.908-0.344L301.94,32l3.72,1.062l3.37,1.626l3.222,2.124l2.13,2.126l1.59,2.5l1.09,2.843l0.35,3.031V95.5h8.342V50.312
		l-0.342-3.906l-1.07-3.906l-1.78-3.562l-2.12-3.376l-2.85-2.843l-3.37-2.312l-3.562-1.594l-3.908-1.062l-4.092-0.375l-4.998,0.187
		l-5.16,1.063l-4.78,1.437l-4.63,2.126l-4.47,2.656v-7.469h-8.342V95.5H278.62z"/>
	<path id="path27" d="M425.875,95.493l3.198-68.1h10.139l20.625,47.112l20.625-47.112h9.963l3.198,68.1h-8.361l-2.487-52.638
		l-22.938,52.638L436.9,42.855l-2.487,52.638H425.875z"/>
	<path id="path29" d="M673.748,33.43l-20.273,0.362l1.425-6.4h48.727l-1.602,6.4l-19.912-0.362v62.062h-8.362V33.43H673.748z"/>
	<path id="path3286" d="M550.158,27.375l-4.778,0.187l-4.82,0.719l-4.62,1.407l-4.25,2.156l-4.1,2.656l-3.562,3.188l-3.22,3.75
		l-2.47,4.25l-1.96,4.468l-1.262,4.625l-0.68,4.781l0.15,4.813l0.72,4.781l1.44,4.625l2.13,4.469l2.648,3.906l3.222,3.719
		l3.72,3.031l4.09,2.656l4.44,1.969l4.618,1.25l4.82,0.719h4.78l4.81-0.719l4.63-1.438l4.432-2.125v-6.031l-3,2.124l-3.21,1.594
		l-3.38,1.062L551.94,90.5l-3.56-0.156l-3.54-0.532l-3.37-1.25l-3.03-1.781l-4.1-3.219l-3.37-3.718l-2.852-4.282l-2.31-4.624
		l-1.43-4.782l-0.521-5l32.891,0.375l1.591-6.593l-34.42,0.374l0.64-4.812l1.6-4.625l1.78-3.375l2.312-3.031l3.028-2.657l3.19-2.124
		l3.75-1.438l3.72-0.719l3.9-0.156l3.938,0.687l3.53,1.25l3.38,1.782l3.562,2.844l1.97-7.813l-4.44-1.969l-4.81-1.25L550.158,27.375
		L550.158,27.375z"/>
	<path id="path3341" d="M396.188,27.393V75.58l-0.375,3.025l-1.062,2.85l-1.588,2.5l-2.125,2.125l-3.225,2.125l-3.375,1.625
		l-3.75,1.062l-3.9,0.337l-3.912-0.337l-3.713-1.062l-3.375-1.625l-3.225-2.125l-2.125-2.125l-1.588-2.5l-1.101-2.85l-0.338-3.025
		V27.393h-8.35V72.58l0.35,3.9l1.062,3.913l1.774,3.562l2.125,3.375l2.851,2.837l3.375,2.312l3.562,1.6l3.9,1.062l4.1,0.375l5-0.188
		l5.15-1.062l4.787-1.438l4.625-2.125l4.463-2.663v7.475h8.35V27.393H396.188L396.188,27.393z"/>
	<path id="path3349" d="M595.323,95.505V47.317l0.375-3.037l1.062-2.838l1.601-2.5l2.125-2.125l3.212-2.125l3.375-1.625l3.75-1.062
		l3.913-0.35l3.899,0.35l3.726,1.062l3.375,1.625l3.212,2.125l2.125,2.125l1.602,2.5l1.087,2.838l0.351,3.037v48.188h8.337V50.317
		l-0.337-3.913l-1.062-3.9l-1.788-3.562l-2.125-3.375l-2.837-2.85l-3.375-2.312l-3.562-1.588l-3.913-1.062l-4.087-0.375l-5,0.188
		L609.2,28.63l-4.773,1.438l-4.625,2.125l-4.477,2.65V27.38h-8.337v68.125H595.323L595.323,95.505z"/>
	<path id="path33" d="M274.013,710.567l-20.263,0.351l1.6-6.4h48.537l-1.601,6.4l-19.911-0.351v62.05h-8.362V710.567z"/>
	<path id="path35" d="M187.775,772.617v-68.101h-8.537v68.101H187.775L187.775,772.617z"/>
	<path id="path37" d="M464.988,772.617v-68.101h-8.524v68.101H464.988L464.988,772.617z"/>
	<path id="path41" d="M340.158,704.5l-4.778,0.19l-4.82,1.06l-4.62,1.78l-4.28,2.31l-3.908,2.852l-3.37,3.56l-3.04,3.91l-2.312,4.28
		l-1.59,4.438l-1.06,4.812l-0.352,4.778l0.352,5l1.06,4.591l1.59,4.631l2.312,4.278l3.04,3.91l3.37,3.37l3.908,3.03l4.28,2.31
		l4.62,1.602l4.82,1.06l4.778,0.37l4.812-0.37l4.81-1.06l4.602-1.602l4.278-2.31l3.9-3.03l3.38-3.37l2.84-3.91l2.312-4.278
		l1.79-4.631l1.06-4.591l0.37-5l-0.37-4.778l-1.06-4.812l-1.79-4.438l-2.312-4.28l-2.84-3.91l-3.38-3.56l-3.9-2.852l-4.278-2.31
		l-4.602-1.78l-4.81-1.06L340.158,704.5z M339.47,709.5l3.72,0.53l3.72,1.41l3.4,1.778l3.72,2.841l3.222,3.381l2.658,3.75l2.12,4.09
		l1.59,4.25l1.102,4.47l0.34,4.59l-0.18,4.63L364,749.69l-1.44,4.43l-1.78,3.38l-2.47,3.03l-2.84,2.66l-3.22,2.119l-3.722,1.439
		l-3.75,0.72l-3.898,0.15l-3.91-0.68l-3.562-1.25l-3.568-1.972l-3.562-2.84l-3.188-3.188l-2.65-3.75l-2.16-4.102l-1.59-4.25
		l-1.07-4.43l-0.34-4.63l0.16-4.62l0.9-4.471l1.41-4.439l1.778-3.38l2.312-3.181l3.04-2.5l3.18-2.13l3.56-1.431l3.91-0.72
		L339.47,709.5L339.47,709.5z"/>
	<path id="path3244" d="M529.19,771.03l25.97,14.38l8-6.03l-5-0.72l-4.778-1.78l-17.972-8.54l3.9-2.5l3.75-3.18l3.19-3.72l2.5-3.94
		l2.13-4.439l1.238-4.619l0.722-4.78l0.158-4.82l-0.688-4.81l-1.43-4.62l-1.94-4.44l-2.5-4.09l-3.22-3.57l-3.53-3.368l-3.939-2.66
		l-4.439-1.97l-4.62-1.4l-4.78-0.91h-4.818l-4.812,0.53l-4.62,1.25l-4.438,1.97l-4.102,2.5l-3.71,3l-3.22,3.561l-2.85,3.909
		l-2.12,4.472l-1.44,4.43l-0.87,4.79l-0.188,4.81l0.529,4.812l1.25,4.778l1.779,4.472l2.5,4.06l3.03,3.75l3.38,3.38l4.09,2.841
		l4.25,2.131l4.44,1.619l4.81,0.881l4.812,0.18l4.789-0.37L529.19,771.03 M518.158,709.5l3.9,0.53l3.56,1.41l3.38,1.778l3.75,2.841
		l3.19,3.381l2.65,3.75l2.159,4.09l1.591,4.25l1.068,4.47l0.341,4.59l-0.159,4.63l-0.9,4.472l-1.41,4.43l-1.78,3.38l-2.31,3.03
		l-3.03,2.66l-3.188,2.119l-3.75,1.439l-3.722,0.72l-3.908,0.15l-3.932-0.68l-3.54-1.25l-3.369-1.972l-3.75-2.84l-3.189-3.188
		l-2.69-3.75L497,749.84l-1.592-4.25l-1.068-4.43l-0.37-4.63l0.188-4.62l0.87-4.47l1.44-4.44l1.779-3.38l2.471-3.18l2.87-2.5
		l3.188-2.13l3.721-1.432l3.75-0.72L518.158,709.5L518.158,709.5z"/>
	<path id="path45" d="M100.644,772.617h8.357v-34.312h35.741v34.312h8.531v-68.101h-8.531v27.912h-35.741v-27.912h-8.357V772.617
		L100.644,772.617z"/>
	<path id="path49" d="M393.34,704.5v68.12h8.35V741.5h11.22l24.682,31.12h10.88l-27.562-31.65l3.182-2.13l2.66-2.68l2.31-3.19
		l1.63-3.56l1.062-3.72l0.34-3.94l-0.34-3.72l-1.062-3.22l-1.438-2.842l-2.132-2.658l-2.5-1.972l-3.028-1.59l-3-0.87l-3.37-0.38
		L393.34,704.5L393.34,704.5z M401.69,710.19h13.69l1.96,0.368l1.778,1.062l2.132,2.13l1.59,2.69l0.91,2.84l0.34,3l-0.34,2.84
		l-1.092,2.85l-1.6,2.69l-2.12,2.12l-2.66,1.6l-2.84,0.9l-2.85,0.34h-8.9L401.69,710.19L401.69,710.19z"/>
	<path id="path51" d="M237.563,751.28l-1.236-3.2l-2.139-2.838l-2.675-2.312l-12.976-9.787l-2.312-1.949l-1.773-2.487l-1.25-2.675
		l-0.889-2.838l-0.175-3.024l0.35-3.025l0.889-2.85l1.425-2.663l1.963-2.312l2.312-1.95l2.661-1.425l2.851-0.889l4.613-0.537h4.625
		l4.625,0.714l4.448,1.6v7.825l-3.375-1.775l-3.387-1.425l-3.726-0.888l-3.737-0.362l-2.138,0.362l-2.139,0.713l-1.6,1.412
		l-1.412,1.788l-0.713,1.948l-0.362,2.139l0.537,3.199l1.425,2.839l2.312,2.5l18.138,14.398l1.775,2.312l1.236,2.486l0.9,2.852
		l0.175,2.837l-0.361,3.562l-0.889,3.552l-1.425,3.198l-2.125,3.025l-2.488,2.487l-3.023,2.138l-3.2,1.425l-3.562,0.888l-3.55,0.351
		l-4.625-0.351l-4.45-0.888l-4.263-1.787l-3.912-2.125l-1.25-8.713l3.024,2.838l3.562,2.139l3.727,1.773l4.087,0.888l4.101,0.362
		l2.837-0.175l2.677-1.075l2.312-1.6l1.949-1.95l1.25-2.487l0.888-2.675v-2.838L237.563,751.28"/>
	<path id="path3301" d="M684.948,705.03l-4.773,0.188l-4.812,0.712l-4.625,1.413l-4.25,2.149l-4.101,2.663l-3.562,3.188l-3.212,3.75
		l-2.476,4.25l-1.962,4.462l-1.25,4.625l-0.688,4.788l0.149,4.812l0.726,4.773l1.438,4.625l2.125,4.477l2.648,3.898l3.227,3.727
		l3.712,3.023l4.101,2.663l4.438,1.962l4.625,1.25l4.812,0.727h4.774l4.812-0.727l4.625-1.438l4.438-2.125v-6.024l-3,2.125
		l-3.212,1.587l-3.375,1.062l-3.562,0.538l-3.562-0.163l-3.538-0.524l-3.375-1.25l-3.024-1.788l-4.101-3.212l-3.375-3.726
		l-2.837-4.274l-2.312-4.625l-1.438-4.788l-0.525-5l32.9,0.375l1.587-6.587l-34.425,0.375l0.649-4.812l1.587-4.625l1.788-3.375
		l2.312-3.038l3.023-2.649l3.188-2.125l3.75-1.438l3.726-0.727l3.899-0.148l3.938,0.688l3.538,1.25l3.375,1.774l3.562,2.851
		l1.962-7.812l-4.438-1.977l-4.812-1.25L684.948,705.03L684.948,705.03z"/>
	<path id="path3347" d="M618.813,704.492v48.188l-0.375,3.038l-1.062,2.837l-1.588,2.5l-2.125,2.125l-3.225,2.125l-3.375,1.625
		l-3.75,1.062l-3.9,0.351l-3.912-0.351l-3.713-1.062l-3.375-1.625l-3.225-2.125l-2.125-2.125l-1.588-2.5l-1.1-2.837l-0.339-3.038
		v-48.188h-8.35v45.188l0.35,3.913l1.062,3.899l1.774,3.562L577,764.43l2.85,2.852l3.375,2.312l3.562,1.587l3.9,1.062l4.1,0.375
		l5-0.188l5.15-1.062l4.787-1.438l4.625-2.125l4.463-2.648v7.462h8.35v-68.125H618.813L618.813,704.492z"/>
</g>
</svg>
