<?xml version="1.0" encoding="utf-8"?>
<!-- Generator: Adobe Illustrator 25.1.0, SVG Export Plug-In . SVG Version: 6.00 Build 0)  -->
<svg version="1.1" id="Calque_1" xmlns="http://www.w3.org/2000/svg" xmlns:xlink="http://www.w3.org/1999/xlink" x="0px" y="0px"
	 viewBox="0 0 489.3 209.9" style="enable-background:new 0 0 489.3 209.9;" xml:space="preserve">
<style type="text/css">
	.st0{fill:#521E13;}
	.st1{fill:#FFFFFF;}
</style>
<g>
	<g>
		<path class="st0" d="M105.4,49.6c13.3,0,26.6,0.2,39.9-0.1c9.6-0.2,14.5,7.8,14.5,14.5c-0.1,26.9,0,53.7,0,80.6
			c0,6.4-3.8,11.9-9.3,13.8c-1.3,0.4-2.7,0.7-4.1,0.7c-27.3,0-54.5-0.1-81.8,0c-7.2,0-12.3-5.2-13.5-11.4c-0.2-0.9-0.3-1.7-0.3-2.6
			c0-27.1,0-54.3,0-81.4c0-6.2,4.1-11.9,9.7-13.5c1.4-0.4,2.8-0.5,4.3-0.5C78.4,49.6,91.9,49.6,105.4,49.6z M77.8,114.5
			c0.1,0.3,0.1,0.4,0.2,0.5c2,8.5,3.9,17.1,6.2,25.5c1,3.6,2.6,6.9,4.9,9.8c0.3,0.4,0.7,1,1.3,0.9c0.7-0.2,0.7-0.9,0.8-1.5
			c0.2-3.2,0.2-6.5-0.6-9.6c-1.8-6.9-3.7-13.7-5.5-20.5c-0.6-2.2-1.2-4.4-1.8-6.8c0.4,0.2,0.7,0.3,0.9,0.4
			c6.1,3.1,12.1,6.3,18.3,9.1c2,0.9,4.2,1.4,6.4,1.3c1.5-0.1,1.7-0.5,0.9-1.8c-1.7-2.5-3.9-4.4-6.6-5.8c-6.5-3.3-13.3-6.3-20-9.2
			c-0.8-0.4-1.3-0.8-1.6-1.7c-3-10.3-6.4-20.4-9.8-30.6c-0.7-2.1-1.4-4.1-2.5-6.1c-0.2-0.3-0.4-0.8-0.9-0.7
			c-0.5,0.1-0.5,0.7-0.5,1.1c-0.1,2,0.3,3.9,0.6,5.8c1.8,11,4.4,21.8,7.2,32.5c0.2,0.8,0.1,1.4-0.4,2.1c-4.1,5.4-8.2,10.8-12.3,16.3
			c-1.9,2.5-3,5.4-3.7,8.5c-0.1,0.6-0.4,1.5,0.2,1.9c0.6,0.4,1.3-0.2,1.8-0.6c3.2-2.2,5.8-4.8,7.9-8.1
			C71.9,123.1,74.8,118.9,77.8,114.5z M119.1,77.5c0.5-0.2,0.9-0.4,1.2-0.6c6.3-2.8,12.8-5.4,18.9-8.6c1.8-0.9,3.3-2.2,4.5-3.9
			c0.9-1.2,0.6-1.6-0.8-1.7c-2.9-0.3-5.7,0.2-8.4,1.3c-6.8,2.9-13.4,6.3-20,9.8c-0.9,0.5-1.6,0.5-2.6,0.1c-9.2-3.9-18.5-7.5-27.9-11
			c-2.6-1-5.2-2.1-8.1-2.5c-0.4-0.1-1-0.3-1.2,0.3c-0.2,0.4,0.3,0.8,0.6,1.1c1.2,1.1,2.7,1.9,4.1,2.7c9.7,5.6,19.7,10.5,29.9,15.2
			c1.1,0.5,1.7,1.1,2,2.3c1.5,6.6,3.1,13.2,4.8,19.7c0.8,3.2,2.4,6,4.6,8.4c0.9,0.9,1.5,0.7,1.6-0.5c0.4-3,0.5-6.1-0.3-9
			c-0.9-3.4-2-6.8-3-10.2c-0.7-2.5-1.5-5-2.3-7.7c2.2,1.1,4.2,2.1,6.2,3c6.2,3,12.3,6.2,18.7,8.8c3.3,1.4,6.8,2.2,10.5,2.1
			c0.4,0,0.9,0,1.1-0.5c0.1-0.4-0.1-0.8-0.4-1.1c-0.2-0.3-0.5-0.6-0.7-0.8c-2.5-2.2-5.1-4.2-8.2-5.6
			C135.9,85.1,127.6,81.3,119.1,77.5z"/>
		<path class="st0" d="M303.7,158.9c-5.4,0-10.1-0.4-14.6-2c-6.9-2.4-10.8-7.2-11.8-14.3c-0.6-4.1-0.7-8.2,0.3-12.3
			c1.5-6.2,5.2-10.5,11.1-12.7c9.2-3.3,18.6-3.6,27.9-0.1c7.2,2.7,10.8,8.4,11.8,15.8c0.5,4,0.4,8-0.6,11.9
			c-1.7,6.8-6.3,10.6-12.9,12.3C311,158.6,307.1,158.9,303.7,158.9z M308.9,138.4c0.1-2,0-3.9-1.1-5.7c-1.1-2-2.9-3.1-5.2-3.1
			c-2.2,0.1-4,1.2-4.9,3.3c-1.4,3.1-1.3,6.3,0.3,9.3c1,1.9,2.7,2.8,4.8,2.8c2.2,0,4-0.9,5.1-3C308.6,141,308.9,139.7,308.9,138.4z"
			/>
		<path class="st0" d="M219.6,137c0-5.9,0-11.8,0-17.7c0-0.9,0.2-1.2,1.2-1.2c11.2,0,22.5-0.1,33.7,0.1c6.3,0.1,12.6,3.4,14.1,10.9
			c0.7,3.6,0.7,7.2-0.7,10.6c-2,5-5.9,7.6-11.2,8.1c-5.5,0.5-11.1,0.2-16.7,0.3c-0.9,0-1.2,0.2-1.2,1.2c0.1,2,0,4.1,0,6.1
			c0,0.6-0.1,0.9-0.8,0.9c-5.9,0-11.8,0-17.6,0c-0.9,0-0.9-0.4-0.9-1.1C219.6,149.1,219.6,143,219.6,137z M243.6,137.3
			c1.1-0.1,2.6,0.2,3.9-0.1c1.8-0.5,3-2.4,2.8-4.2c-0.2-1.8-1.6-3-3.8-3c-2.2-0.1-4.5,0-6.7,0c-0.5,0-0.8,0.1-0.8,0.7c0,2,0,4,0,6
			c0,0.6,0.2,0.7,0.8,0.7C240.9,137.2,242.1,137.3,243.6,137.3z"/>
		<path class="st0" d="M191.5,54.4c3.6-0.3,7.3-0.3,10.8,0.5c8.5,2,13.4,8.7,13,17.3c-0.1,1.6-0.2,3.1-0.4,4.6
			c-0.7,4.5-3.4,7.8-7,10.3c-1,0.7-1.2,1.3-0.7,2.5c2.8,5.9,5.5,11.8,8.2,17.7c1.2,2.6,1.2,2.7-1.7,2.5c-2.3-0.1-4.6-0.1-6.9,0.1
			c-1.2,0.1-1.9-0.4-2.4-1.5c-2.3-5.3-4.6-10.5-6.8-15.8c-0.5-1.3-1.4-1.9-2.7-2c-3.3-0.4-6.7-0.1-10,0c-1,0-1,0.9-1,1.6
			c0,3.2,0.1,6.4,0.2,9.6c0.1,2.3,0.1,4.6,0.2,6.9c0,1-0.3,1.4-1.3,1.3c-2.7-0.4-5.5-0.4-8.2-0.1c-1.1,0.1-1.2-0.5-1.2-1.4
			c0-4.9,0.2-9.7,0.5-14.6c0.5-9.7,0.4-19.3-0.1-29c-0.1-2.9-0.3-5.8-0.5-8.7c-0.1-1.5,0.1-1.7,1.6-1.8c2.4,0,4.9-0.1,7.3-0.1
			C185.3,54.4,188.4,54.4,191.5,54.4z M183.5,72.7c0,2.7,0,4.9,0,7.1c0,2.5,0,2.6,2.5,2.8c4,0.2,8.1,0.5,12.1-0.1
			c3.8-0.6,6.3-2.9,7-6.4c0.3-1.7,0.3-3.5,0-5.2c-0.5-4.4-2.9-7-7.2-7.9c-1.6-0.3-3.2-0.5-4.9-0.6c-2.7-0.2-5.5-0.2-8.2,0.3
			c-0.7,0.1-1,0.5-1.1,1.2C183.4,67.1,183.6,70.2,183.5,72.7z"/>
		<path class="st0" d="M349.8,102.2c-0.8,0.7-1.5,1.4-2.3,2c-6.1,4.8-15.6,3.7-20.9-2.5c-3.6-4.1-4.7-9-4.3-14.3
			c0.4-5.4,2.6-10.1,7-13.5c5-4,14.9-4.8,19.8,2.1c0.2,0.3,0.4,0.8,0.9,0.6c0.4-0.2,0.2-0.7,0.2-1.1c0-1.4-0.2-2.8-0.1-4.2
			c0.1-0.8,0.3-1.1,1.2-0.9c2.3,0.5,4.7,0.9,7.1,1.3c1,0.2,1.4,0.6,1.4,1.7c-0.1,6.9,0,13.8-0.1,20.6c-0.1,4.1,0.1,8.2-0.3,12.3
			c-1,8.2-6,13.2-14.3,13.7c-4.8,0.3-9.7,0.1-14.3-1.6c-1.2-0.4-2.3-1-3.3-1.6c-0.7-0.4-0.9-0.9-0.7-1.7c0.4-1.6,0.6-3.1,0.9-4.7
			c0.2-1.3,0.5-1.4,1.6-0.8c3.7,2,7.5,3.2,11.8,3.2c1.9,0,3.8-0.4,5.5-1.3c2.4-1.3,3.6-3.3,3.6-6
			C350.1,104.5,350.2,103.4,349.8,102.2z M350.1,88.8c0-1-0.2-2.5-0.8-3.9c-1.4-3.6-3.8-6-7.9-6.3c-3.5-0.3-6.2,1.2-8.1,4.1
			c-2.7,4-2.5,10,0.4,13.9c3.7,4.9,10.4,4.9,14.1,0C349.4,94.4,350.1,92,350.1,88.8z"/>
		<path class="st0" d="M173.5,137.2c0-5.9,0-11.8,0-17.7c0-1,0.3-1.2,1.2-1.2c5.8,0,11.7,0,17.5,0c1,0,1.2,0.3,1.2,1.2
			c0,7.1,0,14.1,0,21.2c0,0.9,0.2,1.2,1.2,1.2c4.8-0.1,9.6,0,14.4,0c0.8,0,1.2,0.1,1.2,1.1c-0.1,4.1,0,8.2,0,12.3c0,0.8-0.2,1-1,1
			c-11.5,0-23,0-34.5,0c-0.9,0-1-0.3-1-1.1C173.5,149.2,173.5,143.2,173.5,137.2z"/>
		<path class="st0" d="M363.3,91c0-7,2.6-12.8,8.1-17.1c9.7-7.5,24.6-3.2,27.6,10.8c0.3,1.6,0.5,3.3,0.3,5c-0.3,1.8-1.5,3-3.2,3.2
			c-4.8,0.7-9.7,1-14.5,1.4c-2.8,0.2-5.6,0.5-8.4,0.7c-0.8,0-0.8,0.3-0.6,0.9c1.3,4,4.2,6.2,8.1,7c5,1.1,9.5-0.6,13.6-3.6
			c1.8-1.3,1.8-1.4,2.8,0.6c0.5,1,1,2,1.5,3c0.5,0.9,0.3,1.4-0.3,2.1c-3.4,3.5-7.5,5.5-12.4,5.9c-4.7,0.4-9.3-0.1-13.4-2.5
			c-5.3-3.1-8.1-7.8-9-13.8c-0.1-0.7-0.2-1.4-0.2-2.1C363.3,91.9,363.3,91.4,363.3,91z M381.5,78c-4.2,0-8.6,3.9-9.1,8.1
			c-0.2,1.9,0.1,2.2,2,2.1c2.2-0.1,4.5-0.2,6.7-0.4c2.6-0.3,5.1-0.6,7.7-1c0.7-0.1,1.2-0.3,1.1-1.2C389.5,81.6,385.5,78,381.5,78z"
			/>
		<path class="st0" d="M227,95c0.6,4.5,6.2,9,12.6,8.1c3.8-0.5,7.1-2,10-4.5c0.8-0.7,1.2-0.6,1.6,0.3c0.7,1.4,1.3,2.7,2.1,4
			c0.5,0.8,0.3,1.3-0.3,1.9c-2.7,2.8-6,4.8-9.8,5.6c-5.4,1.1-10.6,0.8-15.5-1.8c-5.4-2.8-8.5-7.5-9.4-13.5c-1-6.3,0.1-12.2,4-17.4
			c5.3-7,14.4-9.5,21.9-5.7c5.9,3,9.1,8,9.7,14.5c0.1,1,0.3,2,0.1,3.1c-0.3,1.8-1.5,2.9-3.2,3.2c-4.8,0.7-9.7,1-14.5,1.4
			C233.1,94.5,230.1,94.8,227,95z M235.9,78c-0.3,0-0.8,0.1-1.3,0.2c-3.9,0.6-7.6,4.9-7.6,8.7c0,0.8,0.2,1.2,1,1.3
			c0.8,0.1,1.5-0.1,2.3-0.1c4.4-0.1,8.7-0.6,13-1.3c0.7-0.1,1.4-0.3,1.3-1.3C244,81.6,240.1,78,235.9,78z"/>
		<path class="st0" d="M308.4,84.8c0-3.2,0-6.5,0-9.7c0-2,0.4-2.4,2.4-2.4c1.8,0,3.6,0,5.4,0c1.3,0,1.6,0.3,1.6,1.6
			c-0.1,3.4-0.2,6.7-0.3,10.1c-0.2,6.6-0.1,13.1,0.1,19.6c0.1,1.5,0,3,0.1,4.6c0,1-0.4,1.4-1.4,1.4c-2.2,0-4.4,0-6.6,0.1
			c-1.1,0.1-1.3-0.5-1.4-1.3c-0.1-1.1-0.1-2.1-0.2-3.2c0-0.5,0.2-1.1-0.3-1.3c-0.4-0.1-0.8,0.5-1.1,0.7c-2.7,2.2-5.5,4-8.9,4.7
			c-4.2,0.9-8.3,0.7-11.9-1.8c-2.8-2-3.9-5-4.3-8.2c-1-8.3-0.9-16.6,0.7-24.9c0.4-2,0.7-2.2,2.7-2.2c1.7,0,3.4,0.1,5.1,0.1
			c1.2,0,1.4,0.5,1.4,1.5c-0.1,2.6-0.7,5.2-0.9,7.8c-0.4,4.9-0.6,9.8,0.2,14.7c0.8,5,5.7,7.5,10.5,5.7c2.1-0.8,3.9-2.2,5.5-3.7
			c1.5-1.4,1.7-3.2,1.7-5.2C308.3,90.6,308.4,87.7,308.4,84.8C308.4,84.8,308.4,84.8,308.4,84.8z"/>
		<path class="st0" d="M260.5,95.3c0-4.3,0-8.6,0-13c0-1.4-0.3-1.7-1.8-1.8c-1.1,0-2.5,0.4-3.3-0.3c-0.8-0.7-0.3-2.1-0.4-3.2
			c-0.1-0.9,0-1.8-0.1-2.8c-0.1-0.9,0.3-1.3,1.2-1.4c0.9-0.1,1.7-0.4,2.6-0.4c1.2,0,1.3-0.5,1.2-1.4c-0.2-2.8-0.1-5.5,0.4-8.2
			c0.7-3.9,3-6.6,6.4-8.4c3-1.6,6.2-2.4,9.6-2.4c0.7,0,1,0.2,1.1,0.9c0.3,1.9,0.7,3.8,1.1,5.6c0.2,0.8,0,1.2-0.9,1.3
			c-1.2,0.1-2.4,0.2-3.6,0.4c-2.5,0.3-3.8,1.4-4.5,3.8c-0.7,2.5-0.8,5.1-0.8,7.7c0,0.6,0.3,0.6,0.7,0.6c2.4,0.1,4.8,0.2,7.2,0.2
			c1.1,0,1.4,0.4,1.4,1.4c0,1.8,0,3.7,0.1,5.5c0,0.9-0.3,1.3-1.2,1.2c-2.3-0.1-4.6-0.1-6.8-0.3c-0.9-0.1-1,0.2-1,1.1
			c-0.1,8.9,0.2,17.7,0.4,26.6c0.1,1.9,0,1.9-1.9,1.9c-1.9,0-3.8,0-5.8,0c-1.2,0-1.5-0.5-1.5-1.6C260.6,104,260.5,99.7,260.5,95.3z"
			/>
		<path class="st0" d="M406.7,102.4c1.7,0.1,3.4,0,4.9-0.7c2.9-1.3,3.4-4.4,1-6.5c-1.1-1-2.5-1.6-3.8-2.3c-0.8-0.4-1.5-0.9-2.3-1.3
			c-7-3.3-6.4-13.5-1-17.6c3.1-2.3,6.6-3.2,10.4-3.3c0.7,0,1.1,0.3,1.3,0.9c0.5,1.8,1,3.6,1.5,5.4c0.2,0.9,0,1.3-1,1.4
			c-1.6,0.1-3.2,0.4-4.7,0.7c-1.5,0.3-2.6,1-3,2.6c-0.4,1.5,0.6,2.4,1.6,3.2c1.3,1,2.8,1.8,4.3,2.6c4.7,2.5,7,6.3,6.4,11.5
			c-0.5,5.3-3.9,8.5-8.6,10.3c-2.8,1.1-5.7,1.2-8.7,1c-0.7,0-1-0.4-1.1-1c-0.2-2-0.4-4-0.5-6c-0.1-0.7,0.3-1,0.9-1
			C405.1,102.4,405.9,102.4,406.7,102.4z"/>
		<path class="st0" d="M424,55.5c0-5.5,4.1-9.7,9.5-9.7c5.3,0,9.5,4.3,9.5,9.6c0,5.4-4.3,9.8-9.5,9.8C428.2,65.1,424,60.8,424,55.5z
			 M433.4,63.8c4.5,0,8.3-3.7,8.3-8.3c0.1-4.5-3.7-8.5-8.1-8.5c-4.5,0-8.3,3.7-8.4,8.2C425.2,60,428.8,63.8,433.4,63.8z"/>
		<path class="st1" d="M77.8,114.5c-3,4.4-5.9,8.6-8.7,12.9c-2.1,3.3-4.7,5.9-7.9,8.1c-0.5,0.4-1.2,1-1.8,0.6
			c-0.6-0.4-0.4-1.3-0.2-1.9c0.7-3.1,1.8-6,3.7-8.5c4.1-5.4,8.2-10.9,12.3-16.3c0.5-0.7,0.6-1.2,0.4-2.1
			c-2.8-10.8-5.3-21.6-7.2-32.5c-0.3-1.9-0.7-3.9-0.6-5.8c0-0.4,0-1,0.5-1.1c0.4-0.1,0.7,0.4,0.9,0.7c1.1,1.9,1.8,4,2.5,6.1
			c3.4,10.1,6.8,20.3,9.8,30.6c0.3,0.9,0.7,1.4,1.6,1.7c6.7,2.9,13.4,5.8,20,9.2c2.7,1.4,4.9,3.3,6.6,5.8c0.8,1.3,0.7,1.7-0.9,1.8
			c-2.2,0.1-4.4-0.4-6.4-1.3c-6.2-2.8-12.2-6-18.3-9.1c-0.2-0.1-0.5-0.2-0.9-0.4c0.6,2.4,1.2,4.6,1.8,6.8c1.8,6.8,3.7,13.7,5.5,20.5
			c0.8,3.2,0.8,6.4,0.6,9.6c0,0.6-0.1,1.3-0.8,1.5c-0.6,0.1-1-0.5-1.3-0.9c-2.3-2.9-3.9-6.2-4.9-9.8c-2.3-8.4-4.2-17-6.2-25.5
			C78,115,77.9,114.9,77.8,114.5z"/>
		<path class="st1" d="M119.1,77.5c8.5,3.8,16.8,7.5,25,11.2c3,1.4,5.7,3.3,8.2,5.6c0.3,0.2,0.5,0.5,0.7,0.8
			c0.2,0.3,0.5,0.7,0.4,1.1c-0.2,0.5-0.7,0.5-1.1,0.5c-3.7,0.1-7.1-0.8-10.5-2.1c-6.4-2.6-12.5-5.8-18.7-8.8c-2-1-4-2-6.2-3
			c0.8,2.7,1.5,5.2,2.3,7.7c1,3.4,2.1,6.8,3,10.2c0.8,3,0.7,6,0.3,9c-0.2,1.2-0.8,1.4-1.6,0.5c-2.3-2.4-3.8-5.2-4.6-8.4
			c-1.7-6.6-3.3-13.1-4.8-19.7c-0.3-1.3-0.9-1.8-2-2.3C99.4,75,89.4,70.1,79.7,64.5c-1.4-0.8-2.8-1.6-4.1-2.7
			c-0.3-0.3-0.8-0.6-0.6-1.1c0.2-0.5,0.8-0.3,1.2-0.3c2.8,0.4,5.4,1.5,8.1,2.5c9.3,3.5,18.7,7.1,27.9,11c0.9,0.4,1.6,0.4,2.6-0.1
			c6.6-3.4,13.2-6.8,20-9.8c2.7-1.2,5.5-1.6,8.4-1.3c1.4,0.1,1.6,0.6,0.8,1.7c-1.2,1.6-2.7,2.9-4.5,3.9c-6.2,3.2-12.6,5.8-18.9,8.6
			C120,77.1,119.7,77.3,119.1,77.5z"/>
		<path class="st1" d="M308.9,138.4c0,1.3-0.3,2.6-0.9,3.8c-1.1,2-2.9,2.9-5.1,3c-2.1,0-3.8-0.9-4.8-2.8c-1.5-3-1.7-6.2-0.3-9.3
			c0.9-2.1,2.7-3.2,4.9-3.3c2.3-0.1,4,1.1,5.2,3.1C308.9,134.5,309,136.4,308.9,138.4z"/>
		<path class="st1" d="M243.6,137.3c-1.5,0-2.7,0-3.8,0c-0.6,0-0.8-0.1-0.8-0.7c0-2,0-4,0-6c0-0.6,0.2-0.7,0.8-0.7
			c2.2,0,4.5-0.1,6.7,0c2.3,0.1,3.6,1.2,3.8,3c0.2,1.9-1,3.7-2.8,4.2C246.1,137.5,244.7,137.2,243.6,137.3z"/>
		<path class="st1" d="M183.5,72.7c0.1-2.5-0.1-5.6,0.2-8.7c0.1-0.8,0.4-1.1,1.1-1.2c2.7-0.5,5.5-0.5,8.2-0.3
			c1.6,0.1,3.3,0.2,4.9,0.6c4.4,0.9,6.7,3.4,7.2,7.9c0.2,1.7,0.3,3.5,0,5.2c-0.7,3.5-3.2,5.8-7,6.4c-4,0.6-8,0.3-12.1,0.1
			c-2.5-0.2-2.5-0.3-2.5-2.8C183.5,77.7,183.5,75.5,183.5,72.7z"/>
		<path class="st1" d="M350.1,88.8c0,3.2-0.7,5.6-2.3,7.7c-3.7,4.9-10.4,4.9-14.1,0c-2.9-3.8-3-9.9-0.4-13.9
			c1.9-2.9,4.6-4.4,8.1-4.1c4.1,0.3,6.5,2.7,7.9,6.3C349.9,86.3,350.2,87.8,350.1,88.8z"/>
		<path class="st1" d="M381.5,78c4,0,8,3.6,8.4,7.6c0.1,0.9-0.4,1.1-1.1,1.2c-2.6,0.3-5.1,0.7-7.7,1c-2.2,0.2-4.5,0.3-6.7,0.4
			c-1.9,0.1-2.2-0.2-2-2.1C372.9,82,377.2,78.1,381.5,78z"/>
		<path class="st1" d="M235.9,78c4.3,0,8.1,3.5,8.6,7.5c0.1,1-0.5,1.2-1.3,1.3c-4.3,0.7-8.6,1.2-13,1.3c-0.8,0-1.5,0.2-2.3,0.1
			c-0.8-0.1-1-0.5-1-1.3c0.1-3.8,3.8-8.1,7.6-8.7C235.1,78.1,235.6,78.1,235.9,78z"/>
		<path class="st1" d="M433.4,63.8c-4.5,0-8.2-3.9-8.2-8.6c0-4.5,3.8-8.3,8.4-8.2c4.5,0,8.2,4,8.1,8.5
			C441.6,60.1,437.9,63.9,433.4,63.8z M436.2,58.9c-2.6,0.6-4,0.4-5-1c-0.9-1.1-1-3.2-0.1-4.5c1.3-2,3.2-1.8,5.2-1.1
			c0.2-2,0.1-2.1-1.8-2.2c-0.5,0-1,0-1.6,0.1c-2.8,0.3-4.6,2.3-4.7,5.2c-0.1,3,1.5,5.1,4.3,5.5c0.7,0.1,1.4,0.1,2.2,0.1
			C436.4,60.9,436.5,60.8,436.2,58.9z"/>
		<path class="st0" d="M436.2,58.9c0.3,1.9,0.2,2-1.6,2.1c-0.7,0-1.4,0.1-2.2-0.1c-2.8-0.5-4.4-2.5-4.3-5.5c0.1-2.9,1.9-4.9,4.7-5.2
			c0.5,0,1-0.1,1.6-0.1c1.9,0.1,2,0.1,1.8,2.2c-1.9-0.7-3.8-0.9-5.2,1.1c-0.8,1.3-0.7,3.4,0.1,4.5C432.2,59.2,433.6,59.5,436.2,58.9
			z"/>
	</g>
</g>
</svg>
