<?xml version="1.0" encoding="utf-8"?>
<!-- Generator: Adobe Illustrator 25.1.0, SVG Export Plug-In . SVG Version: 6.00 Build 0)  -->
<svg version="1.1" id="Calque_1" xmlns="http://www.w3.org/2000/svg" xmlns:xlink="http://www.w3.org/1999/xlink" x="0px" y="0px"
	 viewBox="0 0 620.9 630.4" style="enable-background:new 0 0 620.9 630.4;" xml:space="preserve">
<style type="text/css">
	.st0{fill:#3C005A;}
	.st1{fill:#3C015B;}
	.st2{fill:#FEFEFE;}
	.st3{fill:#959595;}
	.st4{fill:#969696;}
	.st5{fill:#979797;}
	.st6{fill:#3D045B;}
	.st7{fill:#3E055C;}
	.st8{fill:#3E045B;}
	.st9{fill:#3E045C;}
	.st10{fill:#3F065D;}
	.st11{fill:#41085E;}
	.st12{fill:#42095E;}
	.st13{fill:#41095E;}
	.st14{fill:#989898;}
	.st15{fill:#ABABAB;}
	.st16{fill:#896F9F;}
	.st17{fill:#A28CB4;}
	.st18{fill:#FDFDFD;}
	.st19{fill:#FCFCFC;}
	.st20{fill:#FBFBFB;}
	.st21{fill:#E3DCE8;}
	.st22{fill:#EFE8F1;}
	.st23{fill:#F9F7F9;}
	.st24{fill:#F9F8F9;}
	.st25{fill:#E2D9E5;}
	.st26{fill:#DFD5E3;}
	.st27{fill:#F9F9F9;}
</style>
<g>
	<g>
		<path class="st0" d="M601.1,20c0,196.9,0,393.9,0,590.8c-195.3,0-390.6,0-585.9,0c-0.9-1.7-0.5-3.6-0.5-5.4c0-193.3,0-386.7,0-580
			c0-1.8-0.5-3.7,0.5-5.4C210.5,20,405.8,20,601.1,20z"/>
		<path class="st1" d="M594.1,35.9c1.6,1.5,1,3.4,1,5.2c0,185.7,0,371.5,0,557.2c0,1.5,0.7,4.5-0.7,4.4c-2-0.2-5,2.1-6.4-1.7
			c-0.3-0.8-2.7-1-4.1-1.2c-1.3-0.2-2.7-0.1-4-0.1c-182.6,0-365.2,0-547.8,0c-3.7,0-8-1.3-10.4,3.8c1.6-2.9-3.7-3.8-1.5-6.8l0,0
			c0-177.1,0-354.2,0-531.2c0-11.3,1-22.6-1.1-33.8c-0.6-3.1,0.6-3.8,3.3-3.7c187.9,2.3,375.8,0.4,563.7,1c0.1,0.8-0.3,1.3-1,1.4
			c-1.3,0.2-2.7,0.1-4,0.1c-183.4,0-366.7,0-550.1,0c183.7,0,367.4,0,551.1,0c1.5,0,3,0.1,4.5-0.3c0.3-0.1,1,0.3,0.7-0.4
			c-0.1-0.3-0.8-0.5-1.2-0.8c5.3-1.9,7.8-0.6,7.2,4.3C593.1,34.7,593.7,35.1,594.1,35.9c-1,2.1-0.5,4.3-0.5,6.4
			c0,182.1,0,364.2,0,546.2c0,1.8,0.4,3.6,0.1,4.5c0-0.7,0-2.3,0-4c0-182.6,0-365.2,0-547.7C593.7,39.5,593.2,37.7,594.1,35.9z"/>
		<path class="st2" d="M307.7,31.8c92.6,0,185.3,0,277.9-0.1c4.3,0,5.8,0.8,5.8,5.6c-0.1,185.3-0.1,370.5,0,555.8c0,5.3-1.7,6-6.3,6
			c-185.3-0.1-370.6-0.1-555.8,0c-4,0-5.3-0.7-5.3-5c0.1-185.6,0.1-371.2,0-556.8c0-4.8,1.6-5.5,5.8-5.5
			C122.4,31.8,215.1,31.8,307.7,31.8z"/>
		<path class="st0" d="M586.1,29c2,0.4,4,0.9,6.1,1.3c0,0.2-0.1,0.4-0.1,0.6c-188.5,0-377,0-565.5,0c0-0.3-0.1-0.6-0.1-0.9
			c1.8,0,3.5,0,5.3,0c182.7,0,365.5,0,548.2,0C582,29.9,584.3,30.8,586.1,29L586.1,29z"/>
		<path class="st0" d="M594.1,35.9c0,186.5,0,373,0,559.9c-1.7-1.4-1-2.9-1-4.1c0-183.5,0-367.1,0-550.6
			C593.2,39.4,592.5,37.4,594.1,35.9L594.1,35.9z"/>
		<path class="st0" d="M21.7,35.1c-0.4-2.2-4.1-5.5,2.1-5.8C23.8,31.6,21.7,33,21.7,35.1z"/>
		<path class="st0" d="M20.2,596.8c0.9-0.3,1.9-0.9,2.5,0.4c0.4,0.7,0,1.3-0.8,1.5C20.7,598.8,20.4,597.8,20.2,596.8L20.2,596.8z"/>
		<path class="st0" d="M593,602.4c0-2.1,0-3.1,0-4.5C594.5,599,594.3,600,593,602.4z"/>
		<path class="st0" d="M245.2,141.8c-44.3,11.1-84.8,29.8-119.9,59.6c-3.2,2.7-3.7,4.6-1.6,8.4c17.1,30.7,38.3,58.4,63.5,82.9
			c0.7,0.7,1.8,1,1.7,2.3c-13.9,0.2-64.5-38.2-89.4-67.9c-19.6,22.4-35.9,46.8-48.5,73.7c-2.4-0.3-1-1.9-1-3
			c3.5-34.1,12.8-66.5,30.4-96.2c1.5-2.5,1.9-4.5,0.7-7.3c-11.1-27-13.1-55.1-10.5-83.8c1.8-19.9,6.1-39.4,12.6-58.3
			c0.6-1.7,1.3-3.4,2.4-5.1c-0.4,42,5.9,82.7,20.1,122.8c8.6-7.6,17.5-13.9,27.4-18.9c24.5-12.4,50.8-17.3,78-18.1
			c8-0.2,16,0.1,24,0.2c4.6-0.7,7.9,1.4,10.4,5C246.3,139.4,247.3,140.7,245.2,141.8z"/>
		<path class="st3" d="M245.2,141.8c0-3.1-3.9-7.4-7.4-7.9c-0.9-0.1-2,0.2-2.7-0.7c0.8-0.2,1.6-0.4,2.8-0.7
			c-20.7-18.7-43.1-34.2-67.6-46.7c0.8-2.4,2.5-1.2,4-0.9c24.1,2.9,47.1,9.7,69.2,19.6c24.7,11.1,46.1,26.3,62.2,48.5
			c2.1,3,4.2,6,5.9,9.2c1.7,3.3,3.3,2.9,5.7,0.9c14.9-12,29.1-24.8,41.7-39.2c3.9-4.5,8.5-8.4,11.1-13.8c5.9,0.4,10.6,3.1,14.1,7.9
			c-8.2,18.5-18,36-30.8,51.7c-7.1,8.7-14.7,16.8-23.7,23.5c-3,2.2-3.5,4.3-2.7,8c7.9,33.1,6.9,66.3,1,99.5c-0.2,1-0.3,2-1.6,2.7
			c-3-19.3-7.6-38.1-14-56.5c-3.6-10.5-8-20.8-12.4-31c-1.2-2.8-2.6-3.2-5.3-2c-28.8,12-59,15.7-89.9,14.8
			c-9.9-0.3-19.9-0.9-31.1-3.3c11.3-2.4,21.4-4.5,31.2-7.3c26-7.3,51-17.3,74.7-30.3c3-1.6,3.2-2.8,1.4-5.5
			c-9.1-13.6-19.4-26.2-30.9-37.9C248.9,142.9,247.5,141.6,245.2,141.8z"/>
		<path class="st0" d="M384.2,117.9c-4.4-3.1-9.2-5.6-14.1-7.9c-0.2-0.1-0.5-0.2-0.7-0.3c0.6-2.6,2.8-0.7,4-1.5
			c4.9-0.5,9.6-0.1,13.8,2.7c15.9,4,31.8,8.2,46.9,14.9c15,6.7,29,14.9,41.2,26c2.7,2.5,4.2,2.2,6.9,0.3
			c27.9-19.5,59.3-29.4,92.6-34.1c0.6-0.1,1.3,0,3.3,0c-5,2.6-8.8,4.6-12.7,6.7c-24.7,13.1-47.2,29.3-67.6,48.4
			c-1.7,1.6-2.3,2.6-1,4.9c17.4,30,20.8,62.7,18.7,96.5c-0.6,9.3-1.8,18.5-3.5,27.7c-0.2,1.1,0,2.4-1.6,3.2
			c-5.8-37.1-18-71.9-38-104.5c-24.1,30.8-40.9,64.9-53,101.8c-0.1-2.8-0.3-5.5-0.4-8.3c0-2.8,0-5.7,0.2-8.5
			c1.5-34.2,8.3-66.9,26.8-96.4c1.9-3,3.7-6,6-8.6c2.6-2.9,2.6-4.8-0.1-7.8C432.2,151.2,409.9,132.5,384.2,117.9z"/>
		<path class="st3" d="M145.9,457.7c-11.8,0-11.7,0-10.9-11c0.9-11.6,1.6-23.2,2.2-34.8c0.2-3.2,1.1-4.4,4.4-4.2
			c4.8,0.3,9.7,0,14.5,0.1c10.9,0.2,17.7,6,19.8,16.7c2.4,12.2-2.5,24.8-12,30C158,457.7,151.5,458,145.9,457.7z"/>
		<path class="st4" d="M322.5,358.1c6.3,3.3,8.5,7.5,7.4,13.5c-1.1,6.4-6.3,11.4-13.5,12c-6.1,0.5-12.3,0.1-18.4,0.2
			c-2.4,0-2.5-1-2.4-3.1c1-13.2,1.8-26.5,2.7-39.8c0.5-7,0.4-7,7.5-7c3.8,0,7.7,0,11.5,0c6.7,0,11.2,2.7,12.8,7.5
			c2,6-0.1,11.4-6,15.4C323.6,357.2,323.3,357.5,322.5,358.1z"/>
		<path class="st4" d="M309.3,407.8c2.8,0,5.7-0.1,8.5,0c6.5,0.4,10.5,3.4,11.8,8.8c1.4,5.5-0.6,11.3-5.6,14.3
			c-2.6,1.5-2.2,2.2-0.9,4.6c3.5,6.1,4,13.3,5.8,20c0.1,0.4,0.1,1.3-0.1,1.4c-3.1,1.7-6.4,0.5-9.7,0.8c-2.2,0.2-2.6-1.5-3-3.2
			c-0.9-4.2-1.8-8.4-2.9-12.6c-0.6-2.2-1.7-4.2-4.4-4c-3.1,0.2-2.1,3-2.3,4.7c-0.5,3.8-0.8,7.6-0.8,11.4c0,3-1.2,3.9-4.2,3.9
			c-9.6-0.2-7.9,0.2-7.4-7.7c0.7-12.5,1.8-24.9,2.4-37.3c0.2-3.9,1.6-5.7,5.7-5C304.6,408,307,407.7,309.3,407.8
			C309.3,407.7,309.3,407.8,309.3,407.8z"/>
		<path class="st4" d="M242.4,383.8c6.6-16.4,12.9-32.1,19.2-47.7c0.6-1.6,1.8-2.3,3.5-2.1c0.8,0.1,1.7,0,2.5,0c7.9,0,7.9,0,9.9,7.8
			c3.2,12.7,6.3,25.4,9.8,38c0.9,3.5,0.1,4.5-3.3,4.1c-1.1-0.1-2.3-0.1-3.5,0c-3.3,0.4-5.5-0.4-5.5-4.3c0.1-5.9-3.1-7.2-8.6-6.9
			c-8.1,0.5-8.2,0.1-11.1,7.7c-1,2.6-2.2,3.8-5,3.5C248,383.6,245.7,383.8,242.4,383.8z"/>
		<path class="st4" d="M226.9,441.8c3.3-10.3,6.5-20.6,9.8-30.8c0.9-2.7,10.6-4.9,12.5-2.9c0.8,0.9,0.1,1.9-0.2,2.8
			c-5.5,14.6-11,29.2-16.4,43.9c-0.8,2.3-2,3.2-4.4,3c-2-0.1-4-0.2-6,0c-2.7,0.3-3.7-0.8-4.3-3.5c-3.1-14.3-6.4-28.5-9.8-42.7
			c-0.8-3.3,0-3.9,3.2-3.9c8.6,0,8.6-0.2,10.2,8.2c1.6,8.6,3.1,17.3,4.6,25.9C226.3,441.8,226.6,441.8,226.9,441.8z"/>
		<path class="st4" d="M353.7,383.8c-2.3,0-4.7,0.1-7,0c-8.4-0.2-7.9,1.8-7.3-7.7c0.7-12.9,1.9-25.9,2.8-38.8c0.2-2.6,1-3.5,3.6-3.4
			c7.3,0.1,14.7,0.2,22,0c2.9-0.1,3.8,1,3.6,3.8c-0.3,2.5,0.6,5.6-3.8,5.2c-2.8-0.3-5.7,0.2-8.5-0.1c-4.4-0.5-5.7,1-6.1,5.6
			c-0.4,5,1.1,6.1,5.4,5.5c1.8-0.2,3.7,0,5.5,0c5.2,0,6.9,2.9,4.8,7.8c-0.7,1.6-1.8,1.1-2.9,1.2c-2.7,0.1-5.3-0.1-8,0.1
			c-1.9,0.1-4.5-1.1-5.4,1.1c-1.2,3-1.5,6.5-0.9,9.8c0.3,1.5,1.8,1.1,2.9,1.2c3.8,0,7.7,0.2,11.5,0c3.2-0.2,3.6,1.5,3.4,4
			c-0.3,2.3,0.7,5.3-3.5,5C361.7,383.6,357.7,383.8,353.7,383.8z"/>
		<path class="st4" d="M269,457.7c-3.7,0-7.3-0.2-11,0.1c-3.1,0.2-4.1-0.9-3.8-4c1.1-14.4,2.1-28.8,3-43.2c0.1-2.1,1.1-2.9,3.1-2.8
			c7.6,0.1,15.3,0.1,22.9,0c3-0.1,3.2,1.6,3,3.8c-0.3,2.2,1,5.4-3.3,5.2c-3.8-0.1-7.6-0.1-11.5,0c-5.7,0.1-2.6,4.6-3.3,7.1
			c-0.7,2.6,0.3,4.1,3.3,3.9s6,0.1,9-0.1c2.7-0.1,4,0.6,3.7,3.6c-0.3,2.5,0.1,5.1-3.8,4.9c-3.3-0.2-6.6,0.3-9.9,0.1
			c-2.6-0.2-3.3,0.7-3.5,3.3c-0.8,9.1-0.9,9.1,8.3,9.1c1.3,0,2.7,0,4,0c2.6,0,5.2-0.7,5.1,3.8c-0.1,4.1-1.2,5.7-5.4,5.3
			C275.7,457.4,272.3,457.7,269,457.7z"/>
		<path class="st4" d="M456,457.7c-3.8,0-7.7-0.1-11.5,0c-2.6,0.1-3.5-0.8-3.3-3.5c0.9-11.1,1.6-22.2,2.4-33.3
			c0.1-1.8,0.4-3.6,0.4-5.5c0.3-7.8,0.3-7.8,8.3-7.8c5.8,0,11.7,0.2,17.5-0.1c3.1-0.1,3.7,1.3,3.4,3.9c-0.3,2.2,0.9,5.3-3.4,5.2
			c-3.8-0.2-7.7-0.2-11.5,0c-5.6,0.2-2.5,4.7-3.3,7.2c-0.8,2.6,0.4,4,3.4,3.8c2.6-0.2,5.3,0.1,8-0.1c3.1-0.2,5,0.3,4.7,4.2
			c-0.2,3.4-1.1,5-4.7,4.3c-1.3-0.3-2.7-0.1-4-0.1c-8.7,0-9.6,1-9.3,9.8c0.1,2.2,0.9,2.9,3,2.8c3.8-0.1,7.7,0.1,11.5-0.1
			c2.9-0.2,3.9,1,3.5,3.8c-0.3,2.5,0.8,5.6-3.7,5.3C463.7,457.5,459.9,457.7,456,457.7z"/>
		<path class="st4" d="M358.1,406.9c2.8-0.3,5.5,0.5,8.3,0.9c2.3,0.3,3,1.3,2.9,3.6c-0.1,6-0.1,6.1-6,4.7c-1.6-0.4-3.3-0.3-5-0.4
			c-2.9-0.1-5.3,1-6.1,4c-0.8,3.1,0.9,5,3.5,6.3c1.9,0.9,3.9,1.9,5.8,2.8c5.2,2.6,8.4,6.4,8.4,12.4c0,6.6-2.7,11.6-8.5,14.7
			c-6.9,3.7-14.3,3-21.3,0.7c-4.5-1.5-1.5-5.4-1.1-8.1c0.5-3.6,2.8-1,4.1-0.6c3.5,1,6.9,2.4,10.6,0.7c4.5-2.1,5.1-7.1,1-9.9
			c-2-1.4-4.4-2.3-6.7-3.4c-6.7-3.4-8.9-7-8.4-13.7c0.6-7.5,4-11.8,10.8-13.9C353,407.1,355.5,406.6,358.1,406.9z"/>
		<path class="st4" d="M419.3,407.7c4.5,0,9,0.1,13.5,0c3-0.1,3.9,1.1,3.4,3.8c-0.4,2.1,1.2,5.1-3.1,5.4c-8.5,0.5-8.4,0.7-8.9,9.5
			c-0.5,9.3-1.4,18.5-1.9,27.8c-0.1,2.9-1.3,3.8-4,3.5c-0.2,0-0.3,0-0.5,0c-8.5-0.2-8,1.8-7.2-8s1.4-19.5,2.3-29.3
			c0.2-2.5-0.4-3.8-3.2-3.6c-0.8,0.1-1.7,0.1-2.5,0c-2-0.4-5.6,1.6-5.1-3c0.3-3.1-0.4-6.8,5-6.1
			C411.2,408.1,415.3,407.7,419.3,407.7z"/>
		<path class="st4" d="M223.8,383.8c-2,0-4,0-6,0c-8.8-0.2-7.9,1.6-7.4-8.1c0.7-12.8,1.9-25.5,2.7-38.3c0.2-2.9,1.2-3.5,3.9-3.6
			c8.8-0.2,8.7-0.1,7.8,8.6c-1,9.7-1.5,19.5-2.4,29.3c-0.2,2.6,0.9,3.1,3.2,3.1c3.2-0.1,6.3-0.1,9.5,0c1.6,0.1,4.5-0.9,3.6,2.2
			c-0.7,2.4,1.8,7.1-3.9,6.7C231.1,383.7,227.4,383.8,223.8,383.8z"/>
		<path class="st4" d="M392.3,384c-4.5-0.2-10.6,1.3-12.9-1.1c-2.2-2.2-0.4-8.4-0.1-12.8c0.7-10.4,1.6-20.8,2.2-31.3
			c0.2-4.1,1.8-5.2,5.8-5c6.3,0.3,6.3,0.1,5.9,6.2c-0.7,10.1-1.2,20.2-2.1,30.3c-0.3,3.5,0.7,4.9,4.3,4.5c2.1-0.2,4.4,0.2,6.5-0.1
			c4.6-0.7,5.7,1.2,5.3,5.5c-0.3,2.9-1.3,3.7-4,3.6c-3.7-0.2-7.3,0-11,0C392.3,383.9,392.3,384,392.3,384z"/>
		<path class="st0" d="M332.2,101.3c0,7.6-5.4,13.5-12.5,13.4c-8.4-0.1-16.4-8.8-16.3-17.8c0.1-7.3,5.4-13,12.4-13.1
			C324.4,83.9,332.2,92,332.2,101.3z"/>
		<path class="st0" d="M144,112.2c0.2,8.7-6.1,16.1-13.7,16.2c-7.5,0.1-13.9-7.3-13.9-16c0-8.5,6.1-15.7,13.5-15.9
			C137.4,96.2,143.8,103.3,144,112.2z"/>
		<path class="st4" d="M495,104.2c0,8.9-6.6,16.6-14.4,16.8c-7.1,0.1-13-6.3-13-14.1c0.1-10,6.4-17.7,14.5-17.7
			C489.3,89.2,495,95.9,495,104.2z"/>
		<path class="st4" d="M394.4,414.5c-1,13-2.2,26.1-2.9,39.1c-0.2,3.4-1.4,4.4-4.5,4.1c-1.5-0.2-3-0.2-4.5,0
			c-2.8,0.3-3.4-1.1-3.2-3.6c1.1-14.4,2.1-28.8,3-43.1c0.2-2.5,1.4-3.6,3.8-3.3c0.5,0.1,1,0,1.5,0
			C394.4,407.7,394.4,407.7,394.4,414.5z"/>
		<path class="st4" d="M199.3,415.3c-1,12.9-2.1,25.8-2.9,38.7c-0.2,3.2-1.4,4.1-4.2,3.8c-1.2-0.1-2.3-0.2-3.5,0
			c-4.1,0.7-4.6-1.4-4.3-4.9c1.1-13.2,1.9-26.5,2.9-39.7c0.1-1.9-0.7-4.7,1.8-5.1c3.2-0.6,6.9-0.9,9.7,0.3
			C200.7,409.1,198.8,412.9,199.3,415.3z"/>
		<path class="st4" d="M387.1,111c-4.7-0.7-9.3-1.4-14-2.2c-0.3-0.2-0.4-0.4-0.3-0.6s0.2-0.3,0.3-0.3c8.3-11.3,17-22.5,24.6-34.4
			C396,86.5,391.3,98.7,387.1,111z"/>
		<path class="st5" d="M549.4,562.4c-0.8-0.1-1.3-0.2-1.7-0.1c-3.9,0.9-7.7,1.3-9.7-3.4c-1.8-4.3-0.3-10.7,3.2-13.2
			c2.2-1.6,4.6-1.8,7.1-1c0.8,0.3,1.7,1.2,2.2,1c7.4-3.7,5.2,1.8,5,5.2c-0.1,3.5-0.2,7-0.6,10.4c-0.9,7.3-7.2,11.2-14.1,9
			c-1.4-0.5-3-0.9-2.3-3c0.6-1.9,1.8-1.3,3.2-1C545.2,567.3,548.2,567,549.4,562.4z"/>
		<path class="st4" d="M339.8,556.1c0.9-2.6,1.7-5.2,2.6-7.7c0.7-2.2,1.4-3.8,4.4-3.7c2.8,0.2,2.9,1.8,3.6,3.8
			c0.8,2.5,0.4,5.3,2.4,7.8c1.2-3.1,2.4-6,3.3-8.9c0.7-2.2,2-3.2,4-2.5c2.3,0.8,0.7,2.5,0.3,3.6c-1.4,3.9-2.9,7.8-4.3,11.7
			c-0.7,2-2,2.7-4.1,2.7c-2.4,0-3.1-1.4-3.5-3.3c-0.6-2.7-1.2-5.4-2.7-8.2c-1,2.8-2.2,5.6-3,8.5c-0.7,2.3-1.9,3.1-4.3,3.1
			c-2.5,0-2.9-1.4-3.4-3.4c-0.9-3.9-2.1-7.7-3.1-11.5c-0.3-1.1-1.5-2.7,0.7-3.2c1.8-0.4,3.7-0.4,4.3,2.1c0.7,3,1.4,6,2.1,9
			C339.2,556.1,339.5,556.1,339.8,556.1z"/>
		<path class="st4" d="M370.7,556.6c2.1-2.9,2.6-5.9,3.5-8.6c0.7-2.1,1.6-3.2,4.2-3.3c3,0,3.1,2,3.5,3.8c0.6,2.4,1.1,4.9,1.7,7.8
			c2.5-2.5,2.7-5.7,3.7-8.4c0.8-2.1,1.9-3.8,4.3-2.9c3,1.1,0.5,3.1,0.1,4.4c-1.1,3.6-2.8,7.1-4,10.7c-0.8,2.4-2.1,2.9-4.4,2.9
			c-2.5,0-2.9-1.3-3.3-3.4c-0.5-2.8-1.3-5.5-2.1-8.6c-2.2,3.1-2.7,6.4-3.9,9.4c-0.8,2.1-2.2,2.5-4.2,2.6c-2.3,0.1-2.7-1.4-3.2-3
			c-1.1-4-2.3-8-3.2-12c-0.2-1-1.6-2.8,0.8-3c1.5-0.1,3.5-0.7,4,1.7C369,549.7,369.8,552.9,370.7,556.6z"/>
		<path class="st4" d="M307.6,557.4c1.4-4,2.6-6.9,3.5-9.9c0.6-2.2,1.9-2.7,4-2.8c2.5-0.1,3,1.2,3.4,3.3c0.5,2.7,1.3,5.4,2,8.1
			c4.2-2.8,1.1-11.2,9.6-11.3c-2.2,5.8-4.1,10.9-6,16.1c-0.9,2.4-2.7,1.9-4.5,2c-2.1,0.1-2.4-1.4-2.7-2.9c-0.7-2.9-1.3-5.7-2.1-9
			c-2.3,2.7-2.6,5.7-3.6,8.5c-0.8,2.3-1.8,3.7-4.5,3.5c-2.8-0.2-3-2.1-3.5-4c-1-3.7-2.1-7.4-2.9-11.1c-0.2-1-1.6-2.8,0.9-3
			c1.5-0.1,3.5-0.7,4,1.8C305.8,549.8,306.6,553,307.6,557.4z"/>
		<path class="st6" d="M543.4,514.1c-0.2,2.8-0.6,5.6-0.7,8.4c-0.1,2.7-2,2.1-3.6,2.1c-2.1,0-1.7-1.5-1.6-2.8
			c0.4-5,0.8-9.9,1.1-14.9c0.1-1.8-0.2-3.8,2.7-3.7c2.4,0.1,4.6-0.2,5.2,3.1c0.6,3,1.9,5.8,3.5,8.6c0.2-3.1,0.5-6.2,0.7-9.3
			c0.1-1.9,1.1-2.5,2.9-2.4c2,0,2.6,0.9,2.4,2.8c-0.5,5.1-0.8,10.3-1.2,15.4c-0.1,1.7-0.1,3.5-2.6,3.2c-2-0.2-4.4,0.9-5.1-2.4
			c-0.6-2.8-1.7-5.5-2.6-8.3C544.1,514,543.7,514.1,543.4,514.1z"/>
		<path class="st7" d="M284.9,516.5c0.3-4.4,0.6-7.3,0.8-10.3c0.1-1.9,0.4-3.2,2.8-3c2.4,0.1,2.6,1.4,2.5,3.3
			c-0.4,5-0.7,10-1.2,14.9c-0.1,1.6,0,3.6-2.6,3.2c-2-0.3-4.4,0.9-5.2-2.4c-0.6-2.8-1.7-5.5-3.6-8.2c-0.2,2.5-0.5,5-0.6,7.5
			c-0.1,2.2-0.8,3.3-3.3,3.2c-2.9-0.1-2.1-1.8-1.9-3.4c0.4-5,0.7-10,1-14.9c0.1-1.9,0.6-3.3,2.9-3.1c1.9,0.2,4-0.7,4.8,2.2
			C282.2,508.8,283.4,512,284.9,516.5z"/>
		<path class="st6" d="M386.1,516.6c-1.5,1.9-0.9,3.8-1,5.5c-0.1,2.9-1.9,2.4-3.8,2.6c-2.3,0.2-2.3-1.2-2.2-2.9
			c0.4-5.5,0.7-10.9,1.1-16.4c0-0.5,0.1-1.1,0.3-1.4c1-1.3,11.2-1,12.9,0.6c2.7,2.7,2.3,5.4-0.2,8.3c-2.5,3,1.4,5.6,0.9,8.5
			c-0.2,1.1,1.5,2.9-0.9,3.1c-1.7,0.1-4.2,1.2-4.9-1.7c-0.2-0.8-0.2-1.6-0.4-2.4C387.7,519.1,387.8,517.7,386.1,516.6z"/>
		<path class="st8" d="M322.4,516.6c-0.2,1.9-0.4,3.6-0.5,5.2c-0.1,2.3-1.2,3-3.5,2.9c-2.6,0-2.5-1.5-2.4-3.2c0.3-4,0.3-8,0.9-11.9
			c0.3-2.1-1.2-5.6,1.5-6.1c3.9-0.6,8.4-1.2,12,1.3c2.1,1.5,2.6,4.6,0.9,6.2c-3.2,2.9-1.2,5.7-0.8,8.6c0.2,1.6,2.4,4-0.6,4.9
			c-3.1,1-4.9-0.5-5.1-3.9C324.7,519.3,324.8,517.5,322.4,516.6z"/>
		<path class="st6" d="M294,515.2c0-7.3,4.2-12.4,10.3-12.2c5.2,0.1,8.4,3.8,8.4,9.7c0,7.3-3.7,12-9.8,12.1
			C297.3,524.9,294.1,521.4,294,515.2z"/>
		<path class="st8" d="M534.3,513.4c-0.1,7.2-4.1,11.6-10.4,11.4c-5.4-0.2-8.5-4.1-8.3-10.3c0.2-6.9,4.6-11.8,10.5-11.5
			C531.5,503.2,534.4,507,534.3,513.4z"/>
		<path class="st9" d="M234.2,524.3c2.6-6.3,5.2-12.6,7.6-18.9c0.9-2.4,2.6-2,4.4-2.1c2-0.1,3,0.5,3.4,2.6c1.4,6.1,3,12.2,4.6,18.5
			c-3,0.1-5.8,1.6-6.9-2.8c-0.6-2.3-5.4-2.5-6.2-0.3C239.9,525,237.5,525,234.2,524.3z"/>
		<path class="st9" d="M478.8,503.3c2.5-0.4,3.8,0.5,4.3,2.9c1.1,5,2.5,9.9,3.6,14.9c0.3,1.2,1.5,3.2-1.1,3.3
			c-1.6,0.1-4,1.2-4.4-1.7c-0.3-1.9-0.9-3-3.1-3s-3.7,0.4-4.4,2.9c-0.7,2.7-3.3,2.3-4.9,1.6c-1.9-0.8-0.3-2.5,0.2-3.7
			c1.9-4.9,4.1-9.8,5.9-14.7C475.6,503.7,476.9,503,478.8,503.3z"/>
		<path class="st10" d="M368.4,524.6c-7.1-0.1-6.3,1.2-6-6.4c0.1-2.3,0.3-4.6,0.7-6.9c0.4-2.6-1-6.6,1.1-7.4
			c3.2-1.3,7.2-0.5,10.8-0.6c1.4,0,1.5,1.1,1.4,2.1c-0.1,1.1,0.1,2.5-1.7,2.4c-1,0-2,0-3,0c-1.3,0-2.7-0.2-2.7,1.9
			c-0.1,2.1,1.4,1.8,2.6,2c1.4,0.3,3.9-1.3,3.8,2.1c-0.2,3.2-2.5,1.8-4,2s-3-0.2-3.1,2.1c-0.2,2.5,1.6,1.8,2.9,2.1
			c1.6,0.3,4.4-1.4,4.5,2.1c0,3.6-2.8,2.3-4.7,2.5C370.1,524.7,369.2,524.6,368.4,524.6z"/>
		<path class="st5" d="M511.7,544.3c5.5,0,9,3.7,8.9,9.1c-0.1,6-4.7,10.4-10.5,10.2c-5-0.2-8.7-3.9-8.8-8.9
			C501.2,549,505.9,544.3,511.7,544.3z"/>
		<path class="st5" d="M477.6,553.3c0,6.1-4.3,10.4-10.3,10.3c-5.3,0-9-4-8.9-9.3c0.1-5.5,4.8-10,10.3-10.1
			C474.2,544.3,477.6,547.7,477.6,553.3z"/>
		<path class="st5" d="M449.2,558.3c0.3-1.8,0.6-3.6,0.7-5.4c0.2-1.9,0-3.8-2.3-4.3c-2.1-0.4-3.7,1-4.1,2.8c-0.7,2.7-1,5.5-1.2,8.3
			c-0.1,1.9-0.4,3.2-2.8,3.1c-2.6-0.1-2.4-1.8-2.3-3.4c0.3-4,0.7-7.9,0.9-11.9c0.1-1.7,0.6-3.4,2.5-2.7c2.8,1,5.1-0.1,7.7-0.5
			c4.1-0.7,6.8,2.4,6.6,7.2c-0.1,2.3-0.4,4.6-0.7,6.9c-0.2,1.9,0.8,4.7-2.9,4.4C447.8,562.6,449.8,560,449.2,558.3z"/>
		<path class="st5" d="M405.6,549.4c-1-2.8-0.1-4.1,2.7-4.6c8.1-1.6,11.1,1,10.8,9.3c-0.1,1.7-0.3,3.3-0.4,5c-0.1,3-0.9,5.2-4.4,3.3
			c-1.4-0.8-2.2,0.3-3.2,0.6c-4.1,1.3-7.7-0.1-8.6-3.4c-0.9-3.2,1.6-6.6,5.6-7.5c1-0.2,2,0.1,3-0.3c1.1-0.4,3.5,1.3,3.1-1.6
			c-0.3-2-2.1-2.4-3.9-2.1C408.7,548.3,407.2,548.9,405.6,549.4z"/>
		<path class="st7" d="M451,514.5c0.1-8.1,6.6-13.3,13.9-11.2c1.7,0.5,2.5,1.1,2.2,3c-0.3,2-1,2.1-2.9,1.7c-4.6-0.9-6.9,1.3-7.1,5.9
			c-0.2,4.4,1.6,6.1,6.4,5.9c1.3-0.1,2.6-0.7,2.6,1.6c0,1.8-0.5,2.7-2.2,3.3C456.7,526.8,450.9,522.2,451,514.5z"/>
		<path class="st10" d="M356.6,507.8c-4.5-0.4-6.9,1.9-6.9,6.2c0,4,1.7,6.4,6.1,5.8c1.3-0.2,2.8-0.8,2.9,1.4c0.1,1.7-0.3,3-2.2,3.3
			c-4.3,0.6-8.4,0.4-11.3-3.5c-2.6-3.5-2-10.9,1.1-14.5c2.6-3,8.4-4.4,11.9-3.1c1.7,0.6,1.6,1.6,1.5,3
			C359.4,509.5,357.6,508.1,356.6,507.8z"/>
		<path class="st10" d="M425.1,516.5c0.1-1.7,0.2-3.3,0.4-5c0.8-8.7,2.3-9.8,10.9-8.3c1.3,0.2,2.4,0.5,2.2,2
			c-0.2,1.2-0.2,2.8-2.2,2.5c-1.1-0.1-2.3,0-3.5,0c-1.3,0.1-1.5,1.1-1.5,2.1c-0.1,1.3,0.7,1.5,1.8,1.8c1.5,0.5,4.5-1.8,4.5,1.9
			c0,3.9-3.1,1.8-4.9,2.2c-3.1,0.7-1.3,3.3-2,4.9c-0.6,1.3,0.5,3.6-2,3.8c-2.2,0.2-4.5,0.5-3.8-3.1c0.3-1.6,0.1-3.3,0.1-5
			C425,516.5,425.1,516.5,425.1,516.5z"/>
		<path class="st10" d="M257,518.6c0.3-3.2,0.5-5.2,0.6-7.1c0.9-8.8,1.9-9.6,10.8-8.2c1.3,0.2,2.3,0.4,2.2,2
			c-0.1,1.3-0.1,2.8-2.1,2.6c-1-0.1-2,0-3,0c-1.5,0-2,0.8-2.1,2.2c-0.2,1.8,1.1,1.6,2.2,1.8c1.4,0.4,3.9-1.5,4.1,1.7
			c0.1,3.4-2.5,2.4-4.2,2.4c-3.5-0.1-2,2.7-2.6,4.3c-0.6,1.8,0.6,4.6-3.1,4.5c-2-0.1-3.1-0.5-2.8-2.8
			C257.2,520.4,257,518.9,257,518.6z"/>
		<path class="st11" d="M496.7,503.3c1.5,0,3,0,4.5,0c1.3,0.1,2.9-0.3,2.6,1.9c-0.2,1.3,0.1,2.9-2,2.6c-2.8-0.4-2.7,1.4-2.8,3.3
			c-0.2,3.5-0.7,6.9-0.7,10.4c0,2.8-1.4,3.1-3.8,3.2c-2.7,0-2.4-1.7-2.2-3.3c0.2-3.1,0.6-6.3,0.7-9.4c0.1-1.9,1.3-4.7-2.7-4.2
			c-1.5,0.2-1.3-1-1.3-2c0-1.2,0.1-2.4,1.7-2.4C492.7,503.3,494.7,503.3,496.7,503.3L496.7,503.3z"/>
		<path class="st5" d="M425.2,556.8c-0.9-2.9,3.2-7.3-2.5-8.9c-0.2-0.1-0.1-2.2,0.1-2.2c4-0.5,3.2-4.3,4.7-6.6c1.2-2,3.2-3,5.4-3
			c1.2,0,2.9,0,3.1,1.8c0.2,1.5-0.3,2.5-2.3,2.3c-1.7-0.2-2.2,1.2-2.4,2.6c-0.2,1.6,0.7,1.9,2,2.1c2.6,0.4,2.4,3,0.9,3.3
			c-5.1,1-3.4,4.8-4,7.8c-0.1,0.3,0,0.7-0.1,1c-0.7,2.1,1.7,6.2-3,5.8C423,562.4,426.2,558.7,425.2,556.8z"/>
		<path class="st11" d="M405.5,503.3c1.7,0,3.3,0,5,0c1.1,0,2.6-0.1,2.4,1.7c-0.1,1.2,0.2,3.1-1.9,2.8c-3.2-0.5-2.9,1.6-3,3.6
			c-0.2,3.3-0.7,6.6-0.7,9.9c0,2.6-0.9,3.4-3.5,3.4c-3,0-2.7-1.6-2.5-3.5c0.3-3,0.5-5.9,0.7-8.9c0.1-2.1,1.2-4.9-2.9-4.6
			c-1.4,0.1-1.1-1.4-1.1-2.3c0-1.3,0.4-2.2,2-2.2C401.8,503.3,403.7,503.3,405.5,503.3z"/>
		<path class="st12" d="M512.3,510.5c-0.4,4.5-0.9,7.8-0.9,11.1c0,2.8-1.2,3.2-3.6,3.2c-3-0.1-2.4-1.8-2.2-3.7
			c0.4-4.9,0.9-9.9,1-14.8c0.1-3,1.8-3,3.9-3c2.8,0,2,1.9,1.9,3.5C512.3,508.4,512.3,510,512.3,510.5z"/>
		<path class="st13" d="M441,515.4c0.2-3,0.5-5.9,0.6-8.9c0.1-2.4,1-3.4,3.6-3.3c3,0.1,2.4,1.9,2.3,3.7c-0.4,4.9-0.9,9.9-1.1,14.8
			c-0.1,2.9-1.6,3-3.8,3c-2.8,0-2.2-1.8-2.1-3.4c0.1-2,0.4-3.9,0.6-5.9C441.1,515.4,441.1,515.4,441,515.4z"/>
		<path class="st11" d="M421.3,512c-0.3,3.1-0.9,6.2-0.8,9.4s-1.5,3.4-3.9,3.3c-3.3-0.2-2-2.4-1.9-4c0.2-4.6,0.8-9.2,0.9-13.8
			c0.1-2.7,0.9-3.8,3.8-3.6c3.2,0.2,2.2,2.2,2,3.9c-0.1,1.6-0.2,3.3-0.3,5C421.2,512,421.3,512,421.3,512z"/>
		<path class="st14" d="M528.5,544.8c1.5,1.2,3.2,0.4,4.9-0.2c1.2-0.4,2.4-0.4,2.6,1.2c0.1,1.1,0.5,2.7-1,2.9
			c-6.2,0.9-5.3,5.7-5.8,9.8c-0.1,0.7-0.1,1.3-0.1,2c-0.1,2-1.3,2.4-3,2.3c-1.9-0.1-2-1.3-1.9-2.7c0.3-4.4,0.7-8.9,1-13.3
			C525.2,544.6,526.7,544.8,528.5,544.8z"/>
		<path class="st5" d="M481.3,558.9c0.3-4.1,0.6-7.8,0.9-11.4c0.1-1.1-0.2-2.9,1.4-2.6c2.8,0.6,5.5,0.5,8.2-0.3
			c0.9-0.2,1.3,0.8,1.3,1.7c0,1,0,2.2-1.3,2.4c-6,0.8-5,5.6-5.6,9.5c-0.3,1.9,0.9,4.7-2.8,4.5C479.8,562.7,481.8,560,481.3,558.9z"
			/>
		<path class="st14" d="M468.1,394.4c-5,4.4-5.7,12.5-14.4,10.1C456.1,394,456.9,393.3,468.1,394.4z"/>
		<path class="st5" d="M398.3,560c0.1,1.7-0.3,2.8-2.4,2.9c-1.8,0-2.8-0.6-2.7-2.5c0.1-1.8,0.8-2.7,2.7-2.6
			C397.5,557.8,398.4,558.3,398.3,560z"/>
		<path class="st4" d="M497.1,560.3c0.1,2-0.8,2.6-2.7,2.6c-2.1,0-2.4-1.1-2.4-2.8c0.1-1.7,0.8-2.3,2.5-2.3
			C496.4,557.7,497.4,558.3,497.1,560.3z"/>
		<path class="st15" d="M174.3,84.9c-1.3,0.4-2.9-0.4-4,0.9c-0.9-0.3-1.9-0.3-2.4-1.8C170.2,83.9,172.3,83.6,174.3,84.9z"/>
		<path class="st16" d="M50.1,297.7c0.6,0.9-0.2,2.3,1,3c-0.2,0.9-0.4,1.8-1.7,2.4C49.1,301.2,49,299.4,50.1,297.7z"/>
		<path class="st17" d="M373.1,107.8c0,0.3,0,0.6,0,1c-1.2,0.6-2.8-0.4-3.8,1c-0.5-0.3-1.1-0.7-1.6-1c0.3-0.3,0.6-0.8,0.9-0.8
			C370.1,107.9,371.6,107.9,373.1,107.8z"/>
		<path class="st18" d="M147.2,442.1c0.6-7.8,1.2-14.7,1.5-21.7c0.2-3.1,1.4-4,4.4-3.7c4.8,0.4,8.3,2.6,9.6,7.3
			c1.8,6.4,1.3,12.8-1.9,18.8c-1.7,3.1-4.5,4.8-7.9,5.6c-4.9,1.1-5.9,0.3-5.7-4.7C147.2,442.9,147.2,442.1,147.2,442.1z"/>
		<path class="st19" d="M311.9,362.7c3.1-0.1,5.4,0.6,6.1,3.2c0.7,2.8,0.7,5.7-1.9,7.7c-2.2,1.6-4.8,2.2-7.5,1.6
			c-1.1-0.2-1.1-1.5-1-2.5c0.2-2,0.6-3.9,0.5-5.9C308,363.5,309.1,362,311.9,362.7z"/>
		<path class="st20" d="M309.2,348.8c0.7-2.4-1.2-6.6,3.7-6.5c3.5,0,6.3,1.9,6,5.8c-0.2,3.8-2.5,5.8-6.6,6
			C307.9,354.2,309.5,351.1,309.2,348.8z"/>
		<path class="st19" d="M307.3,424.4c1.9-2-2.4-7.5,3.6-8.1c4.3-0.4,7.2,2.5,7,6c-0.2,3.9-3.8,6.6-7.9,6.7
			C306.7,428.9,307.2,426.9,307.3,424.4z"/>
		<path class="st19" d="M267.8,345.1c2.1,5.4,2.3,10.5,3.3,15.5c0.2,1.1,0.8,3-1.3,3.1c-2.6,0.2-5.4,0.4-7.9-0.3
			c-1.3-0.4,0-2.4,0.4-3.5C264,355.2,265.9,350.4,267.8,345.1z"/>
		<path class="st19" d="M550.3,553.1c-0.1,2.8-0.5,5.5-4.1,5.6c-3.1,0.1-3.8-2.5-3.6-4.8c0.2-2.4,0.6-5.2,3.9-5.4
			C549.7,548.4,550.3,550.5,550.3,553.1z"/>
		<path class="st21" d="M386.9,507.7c1.3,0.1,2.2,0.5,2.3,1.6c0.2,1.6-0.6,2.5-2.2,2.6c-1.3,0.1-1.7-0.5-1.5-1.8
			C385.6,509,385.5,507.8,386.9,507.7z"/>
		<path class="st22" d="M326.1,509.5c-0.2,1.4-0.9,2.2-2.2,2.4c-1.3,0.2-1.7-0.5-1.6-1.7c0.1-1-0.4-2.5,1.4-2.5
			C325,507.7,325.9,508.3,326.1,509.5z"/>
		<path class="st23" d="M300.1,513.2c0.2-1.8,0.3-5.7,3.6-5.5c4,0.2,2.9,4.4,2.8,7.3c0,0.8-0.2,1.7-0.5,2.4
			c-0.6,1.6-1.4,3.3-3.4,3.1c-1.8-0.2-2.6-1.9-2.6-3.7C300.1,515.9,300.1,515.1,300.1,513.2z"/>
		<path class="st24" d="M528.4,513c-0.4,3.2,0,7-3.9,7.3c-3,0.2-2.9-3.2-2.8-5.4c0.2-2.9-0.3-6.8,3.6-7.2
			C529,507.3,527.9,511,528.4,513z"/>
		<path class="st25" d="M245.3,510.3c0.5,1.9,1.9,3.8,0.2,5.5c-0.3,0.3-1.6,0.2-1.8-0.1C242.5,513.4,244.2,511.9,245.3,510.3z"/>
		<path class="st26" d="M478.7,509.7c-0.4,2.1,2.4,4.2,0,6.1c-0.4,0.3-1.7,0.2-1.8-0.1C475.9,513.3,477.9,511.7,478.7,509.7z"/>
		<path class="st19" d="M515.3,553.2c-0.1,3.2-0.9,6.2-4.7,6.2c-2.8,0-4-2.4-3.9-4.8c0.1-3,0.7-6.2,4.9-6.1
			C514.5,548.6,515.3,550.6,515.3,553.2z"/>
		<path class="st19" d="M472.6,553.1c-0.4,3.1-1,6.3-4.9,6.3c-3.1,0-3.9-2.6-3.8-5.3c0.1-3.1,1.1-5.6,4.7-5.6
			C471.8,548.5,472.3,550.8,472.6,553.1z"/>
		<path class="st27" d="M414,556.5c-0.6,1.9-1.9,3.2-4.2,3.2c-1.2,0-2.5-0.5-2.4-1.8c0.2-2.5,2.1-3,4.2-3.1
			C412.7,554.8,414.1,554.4,414,556.5z"/>
	</g>
</g>
</svg>
