<?xml version="1.0" encoding="utf-8"?>
<!-- Generator: Adobe Illustrator 25.1.0, SVG Export Plug-In . SVG Version: 6.00 Build 0)  -->
<svg version="1.1" id="Calque_1" xmlns="http://www.w3.org/2000/svg" xmlns:xlink="http://www.w3.org/1999/xlink" x="0px" y="0px"
	 viewBox="0 0 675.6 595.3" style="enable-background:new 0 0 675.6 595.3;" xml:space="preserve">
<style type="text/css">
	.st0{fill:#E32B1D;}
	.st1{fill:#2E406D;}
	.st2{fill:#FEFEFE;}
</style>
<g id="U56r5N.tif">
	<g>
		<g>
			<path class="st0" d="M223.3,374.7c2.2-0.4,4.5-0.7,6.7-1.1c0,0-0.2,0.1-0.2,0.1c1.7-0.3,3.5-0.7,5.2-1c0,0-0.2,0.1-0.2,0.1
				c2.7-0.4,5.4-0.7,8.1-1.1c0,0,0,0.1,0,0.1c4-0.4,7.9-0.8,11.9-1.2c0,0,0,0,0,0c2.6-0.3,5.2-0.6,7.8-0.9c1.8-0.1,3.6-0.3,5.4-0.4
				c4.5,0.5,8.9-0.1,13.4-0.5c0,0-0.3,0.1-0.3,0.1c2.9-0.4,5.8-0.8,8.7-1.3c0,0,0.1,0,0.1,0l0.2,0c4.3,0.3,8.5-0.8,12.7-1.3
				c8.6-2,17.4-3.6,25.8-6.5c10.7-3.6,20.6-8.7,30.7-13.7c0.8-0.5,1.7-1,2.5-1.5c0,0-0.1,0.1-0.1,0.1c0.7-0.4,1.4-0.8,2.1-1.2
				c0,0-0.2,0-0.2,0c0.7-0.4,1.4-0.8,2.1-1.2c0,0-0.2,0.1-0.2,0.1c7.6-5.1,15.2-10.2,22.2-16c2.7-2.2,2.6-3.5-0.9-4.4
				c-9.5-2.3-17.8-7.3-26.6-11.2c-13.7-6.1-27.8-9.5-42.5-3.4c-13.6,5.6-19,17.3-21.9,30.7c-1.3,6-1.2,6-6.4,2.7
				c-18.7-11.6-39.5-18.1-60.6-23.8c-10.4-2.9-21-5.1-31.7-6.7c-3.7-0.6-3.4-1.9-2.3-4.5c5.2-12.9,10.3-25.9,15.5-38.9
				c9.1-23.2,13.2-47,6.6-73.1c10.3,22.1,12.6,43.8,9,66.2c-2.3,14.3-5.6,28.4-9.7,42.2c-1.3,4.5,0,5.8,4.3,6.2
				c17.9,1.7,35.7,4.1,53.2,8.1c6.3,1.5,12.6,3.3,18.6,5.7c1.9,0.8,3.3,1.1,4.5-1.2c9.8-19.4,27.2-25.1,47.1-26.1
				c13.6-0.7,26.8,1.9,39.9,5.4c2.6,0.7,5.2,1.2,7.8,1.7c12.8,2.3,23-0.4,31.4-11.7c30.3-41.1,46.8-86.5,44.9-138
				c-0.8-20.5-5.7-40-13.5-58.9c-0.4-0.9-0.9-1.8-0.5-2.8c0.2-0.2,0.3-0.3,0.5-0.4c12.9,17.9,21.3,37.8,26,59.2
				c11,49.9,3.4,97-24.3,140.1c-24.1,37.5-57.7,62.9-100.6,75.9c-2.2,0.7-6.3,0.6-6,3.3c0.4,3.3,4.4,1.9,6.7,2.1
				c34.9,2.7,69.4,7.6,103.9,13.5c43.6,7.4,87.4,13.8,131.7,16.3c18.6,1,37.3,1.1,55.8-1.8c1.7-0.3,3.7,0.1,4.6-1.7
				c-11.7,9.9-21.6,13.9-42.1,17c-36.5,5.5-73,3.9-109.6,1c-43.2-3.4-85.8-10.8-128.5-17.5c-40.8-6.3-81.9-10.5-123.2-11.2
				c-25.3-0.4-50.6,0.7-75.5,5.7c-1,0.2-2.1,0.2-3.3-0.4c16.7-9.4,35.1-13.3,53.5-17C223.5,374.5,223.3,374.7,223.3,374.7z"/>
			<path class="st1" d="M268.1,369.1c-1.8,0.1-3.6,0.3-5.4,0.4c-10.4-3.8-21.3-6.4-31.6-10.7C152.9,326.3,106.3,242,122,159
				c13.1-69.2,53.9-115.9,119.5-141.1c2.7-1,5.4-2.1,8.5-1.5c0.6,1.8-1,1.9-1.9,2.3c-37.4,20.5-64.8,50.3-83,88.7
				c-2.5,5.2-2.3,5.3,3.7,6.6c9.5,2,19.2,2.8,28.9,2.5c26.3-1,41.2-16.4,41-42.6c0-5,1.2-5.1,5.5-4.2c26.4,5.9,50.5-5.6,63.1-30.4
				c2.4-4.7,5.2-5.8,10.2-6.2c9.1-0.7,14.9,2.1,20.2,10c10.3,15.6,24.1,28.3,37.7,41c21.5,19.9,45.3,36.7,69.7,52.7
				c0.8,0.5,1.6,1.1,2.9,2c-13.1,8.9-23.9,19.8-33.4,32c-9.4,12.2-17.2,25.2-21,40.3c-1.5-8.4,0.1-16.4,2-24.4
				c3.1-13.1,8.2-25.3,15.4-36.6c4.1-6.4,8.8-12.2,15.3-16.1c2.8-1.7,2.1-2.5-0.2-4c-11.3-6.9-22.8-13.8-33.9-21.1
				c-27.9-18.4-54.6-38.3-77.1-63.3c-4-4.5-4-4.5-6.8,0.7c-6,11.2-13.2,21.6-23.5,29.4c-11.9,8.9-25.1,14.3-40.4,12
				c-3.3-0.5-3.8,0.8-4.3,3.6c-4.1,24.1-16.9,37.3-40.2,41.3c-6.4,1.1-12.9,1.5-19.4,1c-7-0.5-13.9-1.1-20.9-2c-2.8-0.4-4.2,0.2-5,3
				c-25.7,87.7,9.5,183.7,92.8,225.5C254.2,363.6,261.2,366.2,268.1,369.1z"/>
			<path class="st1" d="M95.7,515.3c-10.6,0.4-20.9-5.2-30.9-11.1c-3.6-2.1-6.9-2.9-11.2-2.1c-12.7,2.3-24.2-3.2-29.5-12.6
				c-7.8-13.9-0.3-34.1,19.2-36.6c2.8-0.4,5.7-0.5,8.5-0.2c10.1,0.9,18.6,4.7,22.4,14.7c3.9,10,1.9,19.4-5.8,27
				c-2.8,2.7-2.7,3.8,0.8,5.3c6.2,2.7,12.2,6,18.6,8.3c8,2.8,16.1,4,24.5,2.5c1.1-0.2,3.3-0.1,3.4,0.2c0.6,2.4-1.8,1.8-2.9,2.2
				C108,514.5,102.7,515.3,95.7,515.3z M65.9,479.3c0.1-8.8-2.3-16-9.7-20.6c-7.9-4.9-20.2-2.5-22.9,5c-2.9,8-3.2,16.3,0.5,24.2
				c3.4,7.3,12.2,11.8,19.8,10.5c7.2-1.3,11.3-6.7,12.1-16.1C65.8,481.1,65.9,480,65.9,479.3z"/>
			<path class="st1" d="M505.7,552c-4.2,8.4-8.5,16.8-12.7,25.2c-0.7,1.4-1.1,3.6-3,3.7c-2,0.1-2.3-2.1-3.1-3.5
				c-3.4-6.4-6.8-12.9-10.1-19.4c-1-1.8-1.9-3.7-3.4-6.6c-1.6,8.9-2.9,16.5-4.2,24.1c-0.9,5,4,3,6.7,5.5c-6.4,0-11.7,0-17.1,0
				c5.9-1.2,5.1-6.2,5.8-10.2c2-11.8,3.9-23.6,5.8-35.4c0.2-1.3-0.1-2.9,1.7-3.2c1.7-0.3,2,1.5,2.6,2.6c4.9,9.4,9.7,18.9,14.6,28.4
				c0.7,1.4,1,3.8,2.6,3.8c2,0,2.2-2.6,3-4.1c4.7-9.2,9.3-18.4,13.9-27.6c0.6-1.3,0.8-3.3,2.7-3.1c2,0.2,1.5,2.3,1.7,3.6
				c1.8,11.3,3.5,22.7,5.3,34c1.3,8.2,1.4,8.2,8.4,10.5c-1.8,1.1-14.7,1.6-16,0.6c-1.1-0.8-0.3-1.8-0.4-2.7
				c-1-8.7-2.1-17.3-3.2-25.9C506.8,552.1,506.3,552,505.7,552z"/>
			<path class="st1" d="M123,532.1c19.9,0.3,31.3,15,25,32.8c-6.2,17.5-25.1,20.3-38.4,15.1c-13.1-5.1-18.7-21-12.3-34.2
				C101.6,537,110.9,532,123,532.1z M139.4,558.8c0-4.7-0.8-9.3-3.1-13.4c-4-7.2-11.8-10.8-19.8-9.1c-6.9,1.5-11.1,6.8-11.9,15.3
				c-0.5,4.9,0.6,9.5,1.7,14.2c1.7,7.1,11.7,13.5,19.9,12.4c7.1-1,11.9-6.5,12.9-15.4C139.3,561.5,139.3,560.2,139.4,558.8z"/>
			<path class="st1" d="M283.6,581.1c-6.8,0-13.5,0-20.3,0c5.8-1.6,5.2-6.3,5.2-10.4c0.1-8.8,0-17.6,0-26.4c0-7.6,0-7.6-6.2-10.3
				c0.4-0.3,0.8-0.8,1.1-0.8c7.6,0,15.3-0.1,22.9,0.2c5.3,0.2,9.9,2,12,7.3c2.2,5.4,0.6,10.5-3.5,14.1c-4.3,3.7-3.2,6.3,0.1,9.5
				c2,1.9,3.7,4.2,5.6,6.4c3.8,4.4,7.6,8.7,14.8,9.2c-6.7,3.3-15.5,1.9-19.9-3c-3.4-3.8-6.5-8-9.6-12.1c-1.4-1.8-2.8-3.1-5.3-3.1
				c-2.2,0.1-3.5,0.6-3.4,3.1c0.1,2.2,0.1,4.3,0.1,6.5c-0.1,4.5-0.1,8.9,6.9,8.4C284,580.1,283.8,580.6,283.6,581.1z M277.2,547.2
				C277.2,547.2,277.1,547.2,277.2,547.2c0,2,0.2,4-0.1,6c-0.4,3.5,1.1,4.8,4.4,4.9c5.3,0.2,8.4-2.5,9-8.4
				c0.7-6.6-2.4-11.5-7.9-12.6c-3.8-0.7-6.3-0.1-5.5,4.7C277.4,543.5,277.2,545.4,277.2,547.2z"/>
			<path class="st1" d="M123.3,453.7c6.8,0,13.5,0,20.3,0c-5.6,1.4-5.1,5.6-5,9.6c0.1,7.6-0.1,15.3,0.4,22.9
				c0.6,8.2,5.6,12.5,12.9,12.3c7.2-0.3,11.6-4.5,12-12.5c0.4-8.6,0.1-17.3,0.3-25.9c0.1-4.3-3-4.8-6.6-5c0.2-0.4,0.5-0.8,0.7-1.3
				c5.9,0,11.8,0,17.7,0c-6.4,1.3-5.1,6.3-5.2,10.6c-0.1,6.1,0,12.3-0.2,18.4c-0.3,7.8-2.8,14.6-10.5,17.8c-7.9,3.2-16,3.2-23.5-1.5
				c-5.3-3.3-6.9-8.8-7.2-14.6c-0.3-6.8-0.2-13.6-0.2-20.4C129.2,459.6,130.2,454.5,123.3,453.7z"/>
			<path class="st1" d="M178.7,533.3c6.7,0,13.4,0,20.1,0c-6.1,1.8-4.8,6.7-4.7,10.8c0,7.5-0.2,15,0.4,22.4
				c0.7,8.6,7.9,13.3,16,11.1c5-1.4,8-4.7,8.6-9.8c1.2-9.6,0.4-19.3,0.5-28.9c0-4.1-3.7-3.5-5.8-5.4c5.8,0,11.7,0,17.5,0
				c-6.7,1.4-4.8,6.7-5,11c-0.4,7.3,0.6,14.6-0.6,21.9c-1.8,10.9-9.5,16.4-22.2,15.8c-11.3-0.5-17.7-6.5-18.3-17.6
				c-0.4-7-0.3-14-0.3-20.9C184.7,536.4,184.7,536.4,178.7,533.3z"/>
			<path class="st1" d="M589.4,571c1.5,9.2,0.4,10.6-8,10.5c-7,0-14-0.1-20.9-0.1c-1.1,0-2.4,0.4-3.2-1.5c5.7-0.3,5.3-4.6,5.3-8.4
				c0.1-9.3,0-18.6,0-27.9c0-7.2,0-7.2-6.5-9.7c1.8-1.6,3.8-0.8,5.6-0.8c7.6-0.1,15.3,0.2,22.9-0.2c3.5-0.2,4.2,0.7,3.4,3.7
				c-0.5,1.9,0.4,4-1.3,6c-2.2-1.1-1.4-4.5-4.5-5.1c-8.4-1.8-10.5-0.5-10.5,8c0,1.5,0.1,3,0,4.5c-0.2,2.7,0.7,4.1,3.7,3.7
				c3.2-0.4,6.6,0.6,9.8-1.1c1.5-0.8,2.4-0.2,2.1,1.4c-0.5,2.9,0.2,5.9-1.5,9.4c-1.5-2.3-1.4-5.5-4.6-5.5c-2.5,0-5-0.1-7.5-0.1
				c-1.9,0-2,1.3-2,2.7c0,4.2,0,8.3,0,12.5c0,2.8,1.5,4.1,4.2,4.5C582.9,578.2,585.1,577.3,589.4,571z"/>
			<path class="st1" d="M555.8,454.8c2.2-2.3,4.1-1.5,5.8-1.5c8-0.1,16,0,23.9-0.2c2.1-0.1,3.3,0.1,2.8,2.5
				c-0.5,2.3,0.1,4.9-1.6,8.1c-2-8-7.7-5.8-12.5-6.1c-1.7-0.1-2.4,0.8-2.3,2.4c0,1.3,0,2.7-0.1,4c-0.1,10,2.6,12.2,12.5,9.1
				c3.5-1.1,3.2,0.1,2.9,2.5c-0.3,2.4-0.5,4.8-0.8,8.5c-2.1-2.7-2.1-5.5-5.1-6c-8.1-1.5-9.5-0.6-9.5,7.6c0,0.8,0,1.7,0,2.5
				c0,9.1,3.4,11.6,12.3,9.2c3.1-0.8,3.4-3.7,4.9-6.1c2.6,7.8,0.6,10.6-6.8,10.5c-6.8-0.1-13.6,0-20.4-0.1c-1.6,0-3.2,0.4-5.5-1.1
				c7-0.5,6.3-5.1,6.3-9.4c0-8.6,0.1-17.3,0-25.9C562.6,460.5,564.4,454.6,555.8,454.8z"/>
			<path class="st1" d="M268.3,501.5c-5.3,0-10.5,0-15.8,0c-0.9,0-1.9-0.4-1.4-1.4c1.2-2.6-0.5-4.5-1.3-6.6c-4-9.8-1.5-7.9-11.9-8.2
				c-2.2,0-5.2-1.1-6.5,1.1c-2,3.4-3.7,7.1-4.3,11.1c-0.4,2.6,2.8,1.6,3.9,3c-3.2,1.3-13.5,1.4-17.5-0.3c7.6,0.2,8.3-5.9,10.4-10.5
				c4.8-11.1,9.4-22.3,14.1-33.5c0.6-1.5,0.8-3.8,2.7-3.9c2.3-0.1,2.4,2.4,3.1,4c5,11.6,9.9,23.2,14.8,34.9
				c1.9,4.5,3.8,8.9,10.1,8.9C268.5,500.5,268.4,501,268.3,501.5z M239.5,466.9c-2.2,2.4-2.6,4.9-3.5,7.1c-3.2,7.8-3.1,7.8,5.3,7.3
				c0.2,0,0.3,0,0.5,0c2.3,0.1,3-0.9,2.1-3C242.5,474.7,241.2,471.2,239.5,466.9z"/>
			<path class="st1" d="M33.6,580.8c4.9-0.8,5.1-4.1,5.1-7.7c0-10.6-0.1-21.3,0.1-31.9c0.1-3.2-1.1-4.1-4.1-3.8
				c-4.9,0.6-10.7-1.5-13.6,5.4c-1.7-3.7-0.2-6.5,0.4-9.2c0.3-1.5,1.6-1.2,2.9-1c11.9,1.4,23.9,0.7,35.9,0.4
				c4.5-0.1,6.2,0.6,5.3,5.1c-0.3,1.4,0.4,3-1,4.7c-2.6-6.5-8.2-5.1-13.2-5.4c-2.9-0.2-3.7,1.1-3.6,3.8c0.1,10,0.1,20,0.1,29.9
				c0,4.7-0.2,9.6,7.7,8.2c-0.3,0.5-0.6,0.9-0.9,1.4C47.7,580.8,40.7,580.8,33.6,580.8z"/>
			<path class="st1" d="M508.1,463.3c-2.9-4.8-11.3-7.4-15.6-5.5c-1.4,0.6-1.3,1.8-1.3,2.9c0,11.5,0.2,22.9,0.1,34.4
				c0,5,4.3,3.9,6.8,6c-7,0-14.1,0-21.1,0c5.8-1.2,5-5.8,5.1-9.8c0.1-9.8-0.2-19.6,0.1-29.4c0.1-3.6-1.2-4.4-4.5-4.3
				c-9.2,0.2-9.2,0.1-13.3,4.8c-1.4-3-0.1-5.6,0.5-8.2c0.4-1.7,1.7-1.6,3.2-1.4c12.1,1.2,24.3,0.7,36.4,0.4c3.8-0.1,5.3,0.5,4.6,4.3
				C508.6,459.2,509.3,461.1,508.1,463.3z"/>
			<path class="st1" d="M400.9,566.8c1.2,6.5,3,11.1,9.2,11.5c3.7,0.3,7.1-0.5,8.9-4.1c1.8-3.5,0.5-6.6-2.1-9
				c-2.5-2.4-5.4-4.4-8.1-6.6c-3.6-3-7-6.2-8-11c-1.4-6.6,1.6-11.9,7.9-14.1c3.4-1.2,6.8-1.4,10.3-1.1c7.7,0.5,9.4,3.9,5.5,11.9
				c-1.6-4.7-3.9-8.4-9.3-8.3c-3,0.1-5.7,0.9-7,3.8c-1.4,3-0.1,5.5,2.2,7.5c3.9,3.4,8,6.4,11.8,9.9c4.8,4.3,6.4,9.7,4.3,15.8
				c-2.1,6-7,8.5-13.1,9.2c-1.5,0.2-3,0.2-4.5,0.2C398.8,582.1,396.5,578.4,400.9,566.8z"/>
			<path class="st1" d="M311.5,500.4c6-0.6,6.4-3.9,6.4-7.9c-0.1-9.1,0.1-18.3,0-27.4c0-4.6,1.4-10-5.6-11.4c6.8,0,13.7,0,20.5,0
				c-6.9,0.8-5.7,5.9-5.7,10.2c0,8.6-0.1,17.3,0.1,25.9c0.1,3-0.8,6.9,3.8,8c6.7,1.5,11.5-0.1,13.8-4.6c0.4-0.7,0.5-1.6,1.5-1.8
				c2.4,6.9,0,10.4-6.8,10.3c-8.6-0.1-17.3-0.1-25.9-0.2C313.4,501.5,313.1,501.2,311.5,500.4z"/>
			<path class="st1" d="M341.6,533.4c6.5,0,13,0,19.4,0c-6.1,1.2-5.1,5.9-5.1,9.9c-0.1,8.8-0.1,17.6,0,26.4c0,8,0.1,8,6.6,11.1
				c-6.9,0-13.8,0-20.7,0c5.8-0.9,5-5.3,5-9.1c0.1-9.8,0.1-19.6,0-29.4C346.9,536.3,346.9,536.3,341.6,533.4z"/>
			<path class="st1" d="M416.4,501.3c-6.9,0-13.9,0-20.8,0c5.8-1.5,5.2-5.9,5.2-10c0-9.6,0-19.3,0-28.9c0-3.7,0.7-8-6.7-6.8
				c0.5-0.5,1-1.1,1.4-1.6c6.4,0,12.8,0,19.3,0c-6,1.1-4.9,5.7-4.9,9.7c0,9-0.2,18,0.1,26.9C410.2,499.7,408.4,497.7,416.4,501.3z"
				/>
			<path class="st1" d="M569.5,448.4c2.7-4.1,7-6.3,10.8-9.1c0.9-0.7,2-0.6,2.7,0.3c1,1.3,2.2,2.6,2,4.4c-0.2,1.3-1.5,0.9-2.5,1
				C578.1,445.6,574,447.5,569.5,448.4z"/>
			<polygon class="st1" points="242.9,371.6 243,371.6 242.6,371.5 			"/>
			<polygon class="st1" points="254.8,370.5 254.8,370.4 254.7,370.3 			"/>
			<polygon class="st1" points="223.3,374.7 223.5,374.5 223.2,374.3 			"/>
			<path class="st0" d="M453.8,90.5c-0.7-0.2-1.2-0.6-1.1-1.3c0-0.2,0.4-0.4,0.6-0.6c0.4,0.5,0.7,1,1.1,1.5
				C454.2,90.2,454,90.3,453.8,90.5z"/>
			<path class="st1" d="M229.8,373.6c0,0,0.2-0.1,0.2-0.1C230,373.5,229.8,373.6,229.8,373.6z"/>
			<path class="st1" d="M234.9,372.7c0,0,0.2-0.1,0.2-0.1C235.1,372.6,234.9,372.7,234.9,372.7z"/>
			<path class="st1" d="M361.7,344.5c0,0,0.1-0.1,0.1-0.1C361.9,344.4,361.7,344.5,361.7,344.5z"/>
			<path class="st1" d="M363.7,343.4c0,0,0.2,0,0.2,0S363.7,343.4,363.7,343.4z"/>
			<path class="st1" d="M365.5,342.3c0,0,0.2-0.1,0.2-0.1C365.7,342.2,365.5,342.3,365.5,342.3z"/>
			<path class="st2" d="M65.9,479.3c0,0.6-0.1,1.8-0.2,3c-0.8,9.3-4.8,14.7-12.1,16.1c-7.5,1.4-16.3-3.2-19.8-10.5
				c-3.7-7.9-3.4-16.2-0.5-24.2c2.7-7.4,15-9.9,22.9-5C63.6,463.4,66,470.5,65.9,479.3z"/>
			<path class="st2" d="M139.4,558.8c-0.1,1.3-0.1,2.7-0.3,4c-1,9-5.8,14.5-12.9,15.4c-8.2,1.1-18.2-5.3-19.9-12.4
				c-1.1-4.7-2.2-9.4-1.7-14.2c0.8-8.5,5-13.9,11.9-15.3c8.1-1.7,15.8,1.8,19.8,9.1C138.6,549.6,139.5,554.1,139.4,558.8z"/>
			<path class="st2" d="M277.2,547.2c0-1.8,0.2-3.7,0-5.5c-0.7-4.7,1.8-5.4,5.5-4.7c5.4,1,8.6,6,7.9,12.6c-0.6,5.9-3.7,8.6-9,8.4
				c-3.3-0.1-4.9-1.4-4.4-4.9C277.3,551.2,277.1,549.2,277.2,547.2C277.1,547.2,277.2,547.2,277.2,547.2z"/>
			<path class="st2" d="M239.5,466.9c1.7,4.3,3,7.9,4.5,11.4c0.9,2.2,0.2,3.2-2.1,3c-0.2,0-0.3,0-0.5,0c-8.5,0.5-8.5,0.5-5.3-7.3
				C236.9,471.8,237.3,469.3,239.5,466.9z"/>
		</g>
	</g>
</g>
</svg>
