<?xml version="1.0" encoding="utf-8"?>
<!-- Generator: Adobe Illustrator 25.1.0, SVG Export Plug-In . SVG Version: 6.00 Build 0)  -->
<svg version="1.1" id="Calque_1" xmlns="http://www.w3.org/2000/svg" xmlns:xlink="http://www.w3.org/1999/xlink" x="0px" y="0px"
	 viewBox="0 0 1327.3 1674.1" style="enable-background:new 0 0 1327.3 1674.1;" xml:space="preserve">
<style type="text/css">
	.st0{fill:#1E8D62;}
	.st1{fill:#FFFFFF;}
	.st2{fill:#FDFEFD;}
	.st3{fill:#D12B26;}
	.st4{fill:#4459A1;}
	.st5{fill:#E39E30;}
</style>
<g id="TFlP2g.tif">
	<g>
		<g>
			<path class="st0" d="M1273.4,64.4c0,411,0,822,0,1232.9c-404.1,0-808.1,0-1212.2,0.1c-4.4,0-5.7-0.9-5.7-5.6
				c0.1-407.3,0.1-814.5,0-1221.8c0-4.4,0.9-5.7,5.6-5.7c345,0.1,689.9,0.1,1034.9,0.1c1.6,0,3.2,0,4.7,0c0,0.6,0.1,0.9,0,0.9
				c-10.9,6.4-21.9,12.7-32.7,19.1c-59,34.9-116.3,71.9-165.2,120.6c-13.9,13.8-28,27.5-40.1,43c-0.5,0.6-1,1.1-1.6,1.7
				c-0.2,0.3-0.5,0.6-0.7,0.9c-0.3,0.4-0.6,0.8-1,1.1c-0.4,0.4-0.8,0.8-1.2,1.2c0.8,0.5,1.4,0.4,1.9-0.5c0.3-0.3,0.7-0.7,1-1
				c0.3-0.3,0.7-0.7,1-1c0.5-0.5,1-1,1.4-1.5c2-2,4.1-3.9,6.1-5.9c37.8-38.7,79.3-72.9,125.3-101.6c31.4-19.6,62.4-40.2,95.7-56.6
				c14.4-7.1,30.3-10.7,44.4-18.6c2.9-1.6,5.9-2,9.1-2C1187.2,64.4,1230.3,64.4,1273.4,64.4z M911.3,281.8c13.2-4.6,27-5.4,40.7-6.7
				c4.7-0.4,9.2,1.1,11.7,5.3c4.5,7.5,11.6,10.9,19.3,14c8,3.2,15.3,8.2,20.9,14.8c3,3.6,4.5,8.5,9.8,9.9c0.8,0.2,1.5,1.4,1.8,2.2
				c3.1,8.4,9,14.7,15.6,20.3c1.9,1.7,3.5,3.6,3.2,5.9c-1,9.7,5.7,14.2,12.4,18.8c1.4,0.9,3.4,1.6,3.6,3.3c1.2,8,7.9,13.7,8.9,21.8
				c0.5,3.9,3,7,6.2,9.3c6.1,4.4,6.3,15.2,0.5,20.2c-4.3,3.6-8.4,7.4-13.4,11.8c6,0.4,11.1,0.7,16.2,1.1c8,0.6,14.7-2,20.3-7.6
				c2.8-2.8,5.9-5.4,8.9-8c5.8-4.9,5.3-16.4-1-20.7c-2.6-1.7-5-4-5.5-6.8c-1.3-7.2-5.9-12.8-8.1-19.4c-1.9-5.9-4.6-10.2-9.9-13.6
				c-6-3.8-11-8.5-10.2-16.9c0.3-2.7-0.8-5.6-3.4-7.4c-5-3.4-8.5-8.3-12.2-13.1c-4-5.1-5-12.8-12.8-14.9c-0.6-0.2-1.1-1.3-1.4-2
				c-5.7-11.7-16.5-17.4-27.6-22.2c-7.5-3.3-14.4-6.6-18.8-14c-2.8-4.7-7.4-6.6-12.8-6.3c-13,0.7-25.9,2.2-38.4,5.4
				c-9.6,2.5-17.9,7.8-25.1,14.7c-0.4,0.1-1,0.1-0.6,0.7C910.2,282.1,910.9,281.9,911.3,281.8z M829.9,671.9
				c-0.2-0.2-0.3-0.5-0.5-0.7c-0.1,0.2-0.1,0.4-0.2,0.7c0.2,0,0.5-0.1,0.7-0.1c3.7,8.8,8.4,16.9,16.6,22.1
				c6.6,4.2,13.6,7.7,20.4,11.5c2.5,1.4,4.8,3,5.5,6.1c0.9,4.3,3.8,5.1,7.5,4.3c6.2-1.4,10.8,0.6,13.5,6.4c1.8,3.8,4.6,4.8,8.5,3.8
				c6.3-1.7,12.2-0.7,17.2,3.9c1,0.9,2.2,1.5,3.3,2.2c2.4,1.6,4.5,1.9,7.2-0.1c5.2-3.8,6.8-3.2,10.6,1.6c3,3.8,5.9,6.6,12.1,4.5
				c6-2.1,12.6-1.1,16.8,5.2c1.6,2.4,3.8,4.1,6.3,5.6c1.7,0.9,3.5,1.7,5.1,0.4c3.3-2.7,6.6-1.6,9.8-0.2c3.5,1.5,6.9,3.3,10.5,4.7
				c3.2,1.3,6.6,3.3,9.6-0.9c0.7-1,3.2-1.3,4.7-1c7.2,1.5,13.3-1.7,19.7-4.1c3.9-1.5,6.3-3.9,6.9-8.3c1.8-14.2,4.6-28.1,9.2-41.8
				c1.3-3.9,2.8-7.3,5.5-10.3c2.8-3.1,5.8-7,4.1-11.2c-2.7-6.6,0-11.2,4-15.7c2.7-3.1,4.7-6.7,3.7-10.9c-1.2-5.2,0.2-9.5,3.3-13.5
				c2.2-2.9,4-6.1,3.9-10c-0.6-21.7,4-42.8,7.7-64.1c0.4-2.4,1-4.8-0.2-7.3c-3.3-6.9-3.9-14.8-7.1-21.7c-0.5-1.1-0.3-2.8,0.2-3.9
				c3-6.4,1.1-11.8-2.4-17.3c-3.5-5.4-7.8-10.9-7.9-17.5c-0.2-12.1-5.5-21.8-12.9-30.5c-5.3-6.2-10.9-12.1-16.7-17.8
				c-3.3-3.3-6.1-6.3-1.2-11.1c-6.6-0.6-12-1.1-17.5-1.5c-2.9-0.2-5.6,0.6-8.1,2.1c-4.1,2.5-4.4,5.3-1.1,8.8
				c5.6,5.9,11.4,11.7,16.7,17.9c6.8,8,12,16.8,11.7,27.8c-0.1,2.9,1.3,5.5,2.7,8c2,3.8,4.2,7.6,6.4,11.3c2.3,3.7,2.7,7.4,1.3,11.4
				c-0.6,1.7-1.6,3.4-0.9,5.3c2.2,6.6,4.3,13.3,6.6,19.8c0.5,1.5,1.1,2.8,0.8,4.3c-2,9.8-2.9,19.7-4.7,29.4
				c-1.8,9.9-3.1,19.7-2.8,29.7c0.1,4.9-1.1,9.1-4.1,13c-1.9,2.4-3.7,5.2-3,8.2c1.7,6.7-0.9,11.6-5.1,16.3c-1.8,2.1-4,4.6-2.6,7.6
				c3,6.5,0.1,11.2-3.9,15.7c-1.6,1.8-2.8,3.6-3.5,5.9c-4,13.5-7.5,27.2-9.1,41.3c-0.2,2-0.9,4.2-2.7,5.1c-6.2,3-12.1,7-19.6,5.9
				c-2.5-0.4-5.4-0.7-7.1,1.4c-2,2.5-4.2,1.9-6.3,1.2c-3.3-1.1-6.5-2.6-9.7-4c-3.8-1.7-7.4-4-11.6-0.7c-1.4,1.1-3.2,0.1-4.7-0.7
				c-2.4-1.3-4.3-3.2-5.9-5.3c-3.8-5.3-9.6-6.5-14.7-4.6c-6.5,2.5-9.5-0.9-12.3-5c-2.1-3-4.6-3.9-7-1.8c-4.5,4-8.3,2.4-11.9-0.8
				c-4.9-4.4-10.4-5-16.3-3.5c-3.3,0.8-5.7-0.1-7.1-2.9c-2.8-5.7-7-8.1-13.4-6.4c-3.1,0.8-5.7-0.3-6.4-3.8c-0.6-3.2-3-4.7-5.4-6.1
				C845.1,680.6,837.5,676.3,829.9,671.9z M396.2,623.7c-14.8,3.2-23.8,13.7-32.8,24.2c-0.7,0.9-1,2.6-0.7,3.8
				c1.2,5-0.8,9.1-2.9,13.3c-3.8,7.4-7.9,14.7-7.5,23.4c0.1,1.4-0.7,3-1.6,4.1c-4.4,5-5,11-4.9,17.3c0,3.4,0.6,7-1.5,10.2
				c-1,1.4,0.3,2.5,1.3,3.4c3.7,3.3,3.6,7.1,1.9,11.4c-1.3,3.3-2,6.7-1.1,10.2c0.5,2.2,1.6,3.9,4.2,2.9c4.7-1.8,4.5,1,4.2,4.2
				c-0.7,8.6-1.3,17.2-2.1,25.9c-0.2,2.8,0.2,5.1,3.6,5.3c4.1,0.2,5.2,2,4.8,6.1c-0.7,6.5,1.3,8.7,7.6,10.3c2.2,0.5,2.8,1.8,3,3.9
				c0.3,3,0.8,5.9,1.5,8.8c0.7,3.1,2.5,4.2,5.5,2.4c2-1.2,3.7-1.9,5.7,0.3c4.4,4.9,9.2,9.4,10.4,16.6c0.6,3.8,2.6,6.9,7.3,7.7
				c8.5,1.3,8.5,1.5,9.3,10.3c0.4,4.4,1.5,9.1,6.1,9.9c7.1,1.3,8.8,6,10,11.8c0.7,3.2,1.8,6.5,5.6,6.8c5.4,0.4,5.9,3.6,5.8,7.9
				c-0.1,2.9,0,6.4,3.7,6.5c6.7,0.2,8.3,4.1,8.9,9.7c0.7,6.4,3.2,9,9.7,9.9c2.1,0.3,2.5,1.3,2.6,2.9c0.1,2,0,4,0.2,6
				c0.4,3.5,4.8,8.4,7.3,7.5c3-1.2,3.1,0.8,3.7,2.3c1.7,4.4,1.8,9.1,2.2,13.7c0.5,4.7,1.4,5.2,5.7,3.1c4.2-2.1,7.8-5.1,11.3-8.2
				c1.8-1.6,3.8-2.4,5.8-0.9c4,2.9,6.1,1.1,8.2-2.5c2.9-4.8,6.8-8.2,13.1-7.1c2,0.4,3.8-0.5,5.5-1.8c5.3-4,11.2-5.9,17.8-4.2
				c3,0.7,4.4-0.5,5.3-3c0.6-1.6,1.1-3.1,1.8-4.6c2.3-4.9,3.6-5.5,8.3-2.6c5.1,3.2,9.6,2.9,14.1-1.1c1.4-1.2,2.9-2.2,4.5-3.2
				c2.9-1.8,5.5-2.4,8.6,0.3c3.6,3.1,8.1,2.3,11.6-1.4c2.2-2.4,4.4-4.5,7.4-5.8c1-0.5,2.9-1.3,3.2-0.9c3.6,4.4,4.2-0.6,5.1-1.9
				c3-4.2,5.5-8.7,8.3-13c1.1-1.6,2-3.5,4.2-4.2c0.4,0.9,0.9,1.8,1.3,2.7c2.7,6.1,5.8,7,11.2,3.2c2.6-1.8,4.9-4,7.3-6.1
				c1.7-1.5,2.9-2.3,4.6,0.4c2.3,3.6,4.6,2.9,6.6-0.7c1.3-2.5,3-4.8,4.8-7c0.8-1,1.9-2.3,3.3-1c5.3,4.5,8.4,0.6,11.6-2.9
				c2.8-3.1,5.5-6.3,8.3-9.3c1.3-1.4,3.1-2.6,4.8-1.2c3.5,2.9,6,1.3,7.7-1.8c2.9-5.6,9.1-7.4,12.9-12c1.4-1.8,3.2-0.6,3.9,1.1
				c1.4,3.5,3.6,2.5,6,1.5c4.6-1.9,7.3-5.6,10-9.4c3.6-5.1,4.9-5.3,9-0.8c2.4,2.6,4.3,2.8,6.5,0c1.1-1.5,2.3-2.8,3.2-4.4
				c3.5-6.3,7.9-10.9,15-13.8c6.6-2.7,13.3-6.6,13.3-15.7c0-1.1,0.9-2.6,1.9-3.4c5.6-4.8,7.5-11.2,7.6-18.3c0.1-2.6,0.8-4.8,3.3-6.3
				c8-4.9,9.8-11.9,7.5-20.6c-1.3-4.6-2.3-9.4-0.4-14.2c5.9-15,6-30.6,4.4-46.2c-1.2-11.3-4.4-22.2-6.6-33.2
				c-0.7-3.4,0.2-3.9,3.2-3.8c7.2,0.2,14.3-0.1,21.5,0.1c3.4,0.1,5.5-1.1,7.6-3.6c7.4-9,14.9-17.9,22.5-26.8c2-2.4,3-4.8,3-8.1
				c-0.1-41.3-0.1-82.6,0-123.9c0-2.7-0.5-5.2-1.6-7.7c-15.3-32.6-30.7-65.3-45.8-98c-1.8-3.9-3.9-4.8-7.9-4.8
				c-14.3,0.2-28.6,0-43,0.2c-3.3,0-4.4-1-4.1-4.2c0.3-3.6-1-7.8,0.4-10.9c1.4-3.2-0.4-5.4-0.3-8c0-1.1-0.5-2.5,1-3
				c1.3-0.4,2.3-0.9,1.7-2.4c-0.6-1.3-2-0.8-3.1-0.8c-6.2,0-12.3-0.1-18.5,0c-2.4,0-7-1.2-2.4,3.9c1,1.1,1.1,3.8-0.5,5.5
				c-0.4,0.4-1.4,0.9-0.9,1.4c3.9,4.6,0.8,10.1,1.8,15c0.5,2.6-0.7,3.4-3.3,3.4c-16.5-0.1-33-0.1-49.4,0c-2.6,0-3.5-0.7-3.4-3.3
				c0.2-3.8-1.1-8.2,0.4-11.3c1.7-3.5-0.5-5.8-0.3-8.7c0.1-1-0.6-2.5,1.2-2.8c1.2-0.2,1.9-0.7,1.7-1.9c-0.4-1.7-1.8-1.1-2.9-1.1
				c-6-0.1-12,0-18,0c-4.7,0-4.6,0-3.1,4c0.3,0.7,0.4,1.9,0.1,2.4c-1.8,2.8-0.2,5.5,0,8.3c0.2,3.3-0.3,6.7,0.1,10
				c0.5,4-1.2,4.6-4.8,4.5c-12-0.2-24,0.1-36-0.2c-3.7-0.1-5.1,1.1-6.2,4.6c-5.1,16.3-10.5,32.6-15.8,48.9c-0.4,1.2-0.1,2.8-2,3.3
				c-7.9-21.9-15.7-43.8-23.9-66.5c-0.8,1.8-1.2,2.7-1.5,3.6c-7.9,20.8-15.7,41.7-23.6,62.5c-2.1,5.5-0.7,7.5,5.4,7.5
				c12.8,0,25.6,0,38.5,0.1c1.2,0,2.6-0.7,3.7,0.8c-1.2,2.1-3.3,1.3-4.9,1.3c-12,0.1-24,0.2-36,0c-3.7-0.1-5,0.7-5,4.8
				c0.1,65.6,0.1,131.2,0,196.8c0,4.1,1,5.3,5.2,5.2c38.8-0.2,77.6-0.2,116.4,0c4.7,0,5.4-1.5,5.4-5.6c-0.2-29,0-57.9-0.2-86.9
				c-0.1-8.4,3.1-15.3,8.6-21.1c10.8-11.5,24.5-12.9,39.1-10.5c15.1,2.4,28.2,18.6,27.7,34.3c-0.9,28.4-0.2,56.9-0.3,85.4
				c0,3.4,0.8,4.6,4.4,4.5c13.1-0.2,26.3-0.1,39.5-0.1c2.1,0,4-0.4,4.7,2.8c4,17.5,5.3,35,0.1,52.3c-2.1,6.9-2.7,13.1-0.9,19.9
				c1.6,6.4,0.4,12.4-5.7,16.2c-3.6,2.2-4.9,5.2-4.9,9.1c0,5.4-1.9,10-6,13.8c-1.5,1.4-2.9,3.1-2.8,5.1c0.2,5.1-2.8,8.5-6.7,10.3
				c-9.4,4.5-17.1,10.4-22.1,19.8c-1.6,2.9-4.1,2.8-6.5,0.1c-3.8-4.2-4.3-4.2-7.6,0.6c-2.5,3.6-5.1,7.1-9.2,8.8
				c-2.3,1-4.7,2.2-6.1-1.5c-0.7-1.7-2-2.1-3.5-0.6c-4,4.1-9.5,6.6-12.5,11.8c-1.2,2.1-3.3,3-5.5,1.2c-2.3-1.8-4-1-5.6,0.8
				c-2.8,3.1-5.5,6.3-8.2,9.4c-2.3,2.6-5.6,4.6-8.3,2.6c-3.7-2.7-4.6-0.1-6.1,1.8c-1.1,1.4-2,3.1-2.9,4.7c-1.7,3.2-4.1,3.7-6.1,0.7
				c-1.8-2.7-3-1.7-4.6-0.2c-1,0.9-1.9,1.8-3,2.7c-8,6.7-10.4,6.3-15.4-2.8c-0.5,0.4-1.1,0.8-1.5,1.3c-3.3,5-6.4,10.1-9.7,15.1
				c-0.8,1.2-1.8,3.6-3,2.8c-5.7-3.6-7.8,1.6-10.7,4.2c-4,3.6-7.9,4.5-12.4,1.2c-2.2-1.6-3.9-1.4-5.9-0.2c-1.8,1.1-3.7,2.3-5.3,3.7
				c-4.1,3.5-8.3,3.9-12.7,0.8c-3.7-2.6-6.1-1.6-7.6,2.5c-0.5,1.4-1.2,2.8-1.6,4.2c-0.8,2.5-2.3,3.6-4.9,2.8
				c-6-1.8-11.1,0.3-15.9,3.5c-1.5,1-3.1,2.3-5,1.9c-6.9-1.3-10.5,2.9-13.6,7.9c-1.5,2.4-3.1,3.4-5.6,1.6c-2.9-2.2-5.1-0.9-7.5,1.1
				c-2.8,2.4-5.7,4.6-8.9,6.4c-4.4,2.6-6.1,1.6-6.3-3.4c-0.1-3.9-0.5-7.6-1.7-11.3c-0.4-1-0.3-2.8-1.7-2.8c-8.3,0-8.9-5.5-8.9-11.7
				c0-1.3,0.4-3.1-1.6-3.1c-7.6-0.1-9.2-5.3-10-11.3c-0.4-3.1-1.3-6.4-5-6.5c-6-0.1-6.7-3.6-6.4-8.3c0.1-2.1,0-4.7-2.4-4.8
				c-6.5-0.3-7.6-4.8-8.7-9.7c-0.9-4-2.6-7.1-7.4-7.6c-3.4-0.3-5.2-2.9-6-5.9c-0.6-2.4-1-4.9-1.1-7.4c-0.2-3.4-1.9-5.5-5.2-5.5
				c-6.8,0.1-9.4-3.9-10.5-9.7c-1.2-6-5.9-9.5-9.6-13.7c-1.2-1.3-2.4-0.7-3.6,0.1c-4.1,2.6-5.7,0.3-6.5-3.4
				c-0.3-1.6-0.8-3.3-0.8-4.9c0-3.6-1-5.9-5.1-5.5c-2.1,0.2-2.9-1.4-3.6-2.9c-1.3-2.5-1.5-5.1-1.2-7.8c0.2-2.4-0.4-4.1-3-4.1
				c-4.2,0-4.8-2.3-4.4-5.9c0.8-7.8,1.2-15.6,1.8-23.4c0.1-1.9,0.9-4.7-2.5-3.6c-4.6,1.4-5.2-1.2-5.5-4.5c-0.2-2.7,0.1-5.3,1.2-7.8
				c1.6-3.7,1.5-7.1-1.7-10c-1.2-1.1-2-2.4-1.1-4c1.6-2.5,1.1-5.1,1.1-7.8c0.1-6.2,0.3-12.3,4.7-17.4c1.4-1.7,1.9-4,1.9-6.1
				c-0.2-5.2,1.7-9.7,4-14.2c1.7-3.4,4.6-6.9,4.7-10.3C387.8,634.4,389.9,628.3,396.2,623.7z M440.3,324.2c-6-5.8-10-12.4-17.1-15.7
				c-2-0.9-3.7-2.5-4.4-4.6c-2.3-6.1-4.5-12.1-6.3-18.3c-0.9-3-0.7-6.4,3.1-8c2.8-1.1,1.8-3,1-4.9c-2.3-5.9-4.6-11.7-6.9-17.6
				c-1.5-3.7-1.3-7.1,2-9.9c3.6-3.1,3.7-6.8,1.2-10.7c-1.4-2.1-2.8-4.1-4-6.3c-2.7-5.1-4.2-10.9-0.6-15.6c3.5-4.6,2.8-8.4,0.8-12.8
				c-0.7-1.5-1.3-3.1-1.7-4.7c-0.2-1-0.7-2.5,1.4-2.2c5.7,0.6,4.2-2.7,2.7-5.5c-1-1.9-2.5-3.5-3.8-5.2c-1.8-2.4-1.5-4.6,1.5-5.4
				c7.2-1.9,14.5-4.1,21.8-5c6.6-0.8,12.8-3.5,19.5-3.7c1.2,0,2.8-0.9,3.4-1.9c2.2-3.6,5.1-2.9,8.3-2.1c4.8,1.1,9.4,2.2,12.9-2.9
				c1-1.5,3-1.4,4.6-0.9c3.2,0.9,5.7-0.4,7.1-3c2-3.6,5.1-4.3,8.5-3.3c2.9,0.8,5.5,0.4,7.6-1.1c4.6-3.2,8.8-2.1,13,0.3
				c3,1.7,6.1,2,9.1,0.5c3.3-1.6,6.5-1.3,9.7-0.1c3.7,1.4,7.4,3,11.1,4.5c1.7,0.7,3.9,1.8,5.1,0.2c2.6-3.2,5.1-1.4,7.6-0.3
				c6.9,3.3,13.9,6.4,21.4,7.9c4.4,0.9,6.4-0.8,6.2-5.2c-0.1-1.6-0.6-3.3-1.2-4.8c-3-7-2.5-13.9,0-20.9c0.6-1.6,1.1-3.1,1.4-4.8
				c0.9-6.7,0.9-6.7,7.6-5.9c1.2,0.1,2.3,0.4,3.4,0.6c3,0.4,5.5,0.4,6.6-3.3c0.9-3,3.6-3.8,6.5-3.1c2.6,0.6,5.1,1.5,7.6,2.5
				c1.9,0.7,4.1,1.5,5.7,0.2c4.6-3.6,8.4-1.6,12.2,1.2c2.4,1.7,4.9,3.4,7.4,5.1c2.4,1.7,5.1,2.1,7.3,0c2.4-2.2,4.4-1.6,6.6,0
				c3,2.2,5.8,4.4,8.8,6.5c2.3,1.6,4.9,4.3,7.2,4.2c5-0.3,7,3,9.6,5.9c2.5,2.9,4.7,6.1,7.2,9c2.9,3.4,6.8,5,10.6,2.3
				c3.9-2.8,5.7-1.2,7.4,1.9c4.1,7.3,10.1,12.6,17.1,17.1c9.2,6,17.5,13.3,26.2,20c19.7,15.3,26.5,35.3,25.3,59.7
				c-1.4,28.4-1.2,56.9-0.3,85.4c0.2,5.8,0.7,11.9,4.9,17.2c3.6-4.6,7-8.7,3.7-14.7c-0.7-1.2-0.8-2.9-0.9-4.4
				c-1.7-13.4-1.3-26.9-1.3-40.4c0-23.6,0.4-47.3,0.6-70.9c0.1-12.6-2.8-24.4-10.2-34.8c-6.5-9.3-15.4-16.1-23.6-23.5
				c-14-12.6-32.8-19.6-42.3-37.3c-1-1.9-2.7-1.1-4.3-0.1c-5.7,3.4-9.7,2.6-13.9-2.6c-3.4-4.1-6.7-8.3-10.1-12.4
				c-1.1-1.3-2.4-3.2-3.9-2.8c-4.5,1.1-7.2-2-10.3-4c-3.6-2.4-7-5.1-10.4-7.7c-2.2-1.6-4.3-2.2-6.7-0.1c-2.8,2.4-5.7,2-8.7-0.1
				c-3.7-2.6-7.4-5-11.2-7.5c-2.5-1.7-5-2.2-7.8-0.1c-2.8,2.1-5.8,1.9-9,0.5c-2.4-1.1-5.1-1.6-7.6-2.5c-2.9-1-5.6,0.3-6.3,2.6
				c-1.8,5.4-5.2,4.9-9.4,4c-8.5-1.8-8.5-1.7-10.2,6.9c-0.2,1-0.5,1.9-0.9,2.8c-3.2,8.2-4,16.4-0.2,24.7c0.4,0.9,0.7,1.9,0.8,2.9
				c1,6.2-1.3,8.5-7.4,7.3c-7.9-1.5-15.2-4.6-22.4-8.2c-2.8-1.4-5.5-3.1-8.4,0.3c-1.4,1.6-3.5,0.5-5.1-0.2c-3.1-1.2-6.1-2.7-9.1-3.9
				c-4.5-1.8-8.9-3.4-13.9-1c-3.5,1.7-7,1-10.5-1c-4-2.3-8.1-3.4-12.6-0.3c-2.6,1.9-5.9,2.1-9.1,1.4c-3.7-0.8-6.8-0.2-8.9,3.6
				c-1.5,2.8-4,4.2-7.5,3.3c-2.1-0.5-4.5-0.6-5.9,1.5c-2.8,4.2-6.7,4.2-11,3.2c-4.2-1-8.6-2.7-11.9,2.3c-0.9,1.4-3.1,1.9-5,2
				c-8.1,0.4-15.8,3.5-23.9,4.3c-6.2,0.6-12.2,2.9-18.4,4.5c-3.6,0.9-4.2,2.9-1.9,5.7c1.8,2.2,3.7,4.3,4.7,7
				c0.9,2.4,0.7,5.5-2.4,5.1c-4.5-0.5-3.2,1.4-2.4,3.7c0.7,1.9,1.4,3.7,2.2,5.6c1.6,3.8,1.8,7.1-1.2,10.6c-2.6,3-2.9,6.9-2.3,10.9
				c0.9,5.1,3.8,9.1,6.5,13.4c3.3,5.2,3.2,8.4-1.1,12.5c-3.3,3.2-3.7,6.3-2.1,10.3c2.6,6.5,5.1,13,7.7,19.5c0.9,2.2,1.5,4.3-1.4,5.4
				c-3.6,1.4-3.7,4.3-3.5,7.4c0.4,5.8,3.8,10.6,5.1,16.1c1.1,4.8,4,8.4,8.4,10.6c3.6,1.8,6.4,4.6,9.1,7.7
				C418.8,314.4,427.3,321.6,440.3,324.2z M483.7,603c12.7-4.8,18.3-13.7,20.2-25.5c1.2-7.8-1.9-10.3-9.3-7.6
				c-0.8,0.3-1.5,0.6-2.3,0.9c-14.1,6-28.1,12.1-42.2,17.8c-13.8,5.6-27.5,11.7-41.7,16.5c-3,1-6.5,2.1-8.9-0.5
				c-2.6-2.7-5.4-2.9-8.6-2.7c-3.5,0.2-7.7,0.9-10.1-1.7c-4.3-4.6-9.8-5.3-15.2-6.5c-4.5-1-8.1-3.3-9.4-7.9c-1.3-4.5-4.4-7-8.3-8.6
				c-2.8-1.1-4.7-2.8-4.6-5.8c0.1-5.2-2.8-6.9-7.4-7.3c-2.9-0.2-5.4-1.4-5.8-4.5c-1.3-8.2-7.2-11.3-14.2-13.4
				c-1.5-0.5-3.2-0.9-3.5-2.5c-0.9-5.6-4.3-8.6-9.4-10.4c-0.6-0.2-1.4-0.8-1.5-1.3c-0.9-5.4-5.3-5-9.1-5.6c-6.7-1-7.5-2.5-4.1-8.3
				c2.7-4.7,6.8-8.5,9-13.6c1.3-3.2,2-6-0.5-8.8c-1.3-1.5-0.8-2.6-0.2-4.6c2.2-7.4,3.1-15.2,6.8-22.2c0.1-0.1,0-0.3,0-0.5
				c-2.2-6,1.4-9.8,5.1-13.5c1.9-1.9,3.8-3.7,5.7-5.6c1.3-1.4,1.9-2.4-0.6-3.6c-4.3-2.3-4.4-3.9-0.7-7.4c3.3-3,6.9-5.8,10.2-8.8
				c1.6-1.4,3.7-3.6,1.9-5.5c-4.8-5.2-0.5-7.2,2.8-9.6c5.3-3.7,9.2-8.1,8.7-15.2c-0.1-2.4,1.2-4.1,3-5.5c2.6-2.1,5.2-4.1,7.9-6.1
				c1.6-1.2,3.2-2.5,2.8-4.9c-0.4-2.7,1.2-3.8,3.4-4.7c5.2-2.3,10.3-4.7,15.3-7.2c1.7-0.9,3.7-1.9,3.1-4.5c-1-4.8,1.8-6.2,5.8-6.5
				c5.1-0.3,10-1.2,13.9-4.7c5.7-5.1,12.3-6.9,19.8-6.3c1.5,0.1,3.1,0.2,4.5-0.2c6.1-1.7,12.1-1,17.6,1.4
				c13.1,5.8,26.8,3.6,40.3,3.7c4.4,0,5.4-2.2,3.8-6.3c-3-7.4-11.5-13-20.6-13.6c0.5,0.9,0.9,1.8,1.3,2.7c4,7.8,2.7,10.2-6,10.2
				c-9.8,0-19.6,0.4-29.4-0.9c-2.3-0.3-4.7-0.6-6.7-1.6c-13.1-6.9-26.7-3.1-40.1-2.2c-1.7,0.1-3.5,1.3-4.9,2.4
				c-6.2,5.1-13,8.5-21.3,8.7c-3.1,0.1-6.1,1.7-5.2,5.7c0.8,3.4-0.9,5-3.5,6.2c-4.8,2.3-9.6,4.7-14.4,6.8c-3.3,1.4-6.5,2.6-5.7,7.3
				c0.3,1.7-1.2,2.6-2.4,3.6c-2.2,1.7-4.6,3.3-6.8,5.1c-3.3,2.6-5.7,5.3-5.7,10.3c0.1,6-4.1,10.3-8.8,13.7c-1.6,1.2-3.3,2.3-4.7,3.7
				c-1.5,1.4-2,3.2-0.3,4.8c3.8,3.5,1.5,6.3-1.2,8.8c-3.5,3.3-7.4,6.2-10.9,9.5c-3.8,3.6-3.6,5.2,1.2,7.1c3.3,1.3,2.3,2.5,0.7,4.1
				c-3.2,3.4-6.6,6.6-9.7,10c-1.9,2.1-3.5,4.6-2.7,7.7c1.1,3.9,0,7.2-2,10.4c-2.1,3.3-4.1,6.6-2.7,11.1c0.7,2.2-0.2,4.7-2,6.4
				c-1.6,1.5-1.5,2.8-0.2,4.2c3.3,3.6,2.1,7.2,0.4,11c-2.3,5-6.2,8.9-9.1,13.5c-3.9,6.3-3,7.8,4,9c2.1,0.4,4.3,0.8,6.3,1.3
				c1.1,0.3,2.5,0.4,2.6,1.9c0.2,3.8,3.2,5,5.9,5.9c3.4,1.2,5.4,3.2,5.9,6.7c0.6,3.6,2.7,5.1,6.2,6.1c5.7,1.6,11.6,4.5,12.9,10.5
				c1.4,6,4.1,8.7,9.8,9.1c3.6,0.2,5.2,2.1,5.3,5.8c0,3.7,1.6,6.5,5.6,7.9c3.3,1.2,6.8,2.9,7.7,6.6c2,7.9,7.5,10.8,14.8,12
				c3.4,0.6,7.5,0.6,9.7,3.4c3.4,4.2,7.6,4.8,12.5,4.7c4.2-0.1,8.6-0.8,11.8,3.5c1,1.4,3.3,1.4,5.2,0.8c3.5-1.1,7-2,10.4-3.4
				c28.2-11.3,56.4-22.6,84.2-34.9c2.1-0.9,4.4-1.6,6.7-1.9c4-0.5,6.3,1.2,6.3,5.6C488.4,590.9,486.6,596.6,483.7,603z
				 M339.9,1085.5c2.5,14.1,12.3,24.2,26.2,27c10.2,2.1,20.1,1.1,29.9-2.4c13.6-4.8,22-14,22.7-28.5c1-21.1,1.5-42.2-0.3-63.3
				c-1.1-12.6-8.2-21-19.8-25.9c-5.9-2.5-12-4.3-18.3-4.5c-14.5-0.6-28,2-35.7,16c-9.4,17-10.1,35.1-2.5,52.9
				c6.9,16.2,23.2,24.3,38.9,20.8c6.6-1.5,11.5-5.4,15.9-11.1c0.6,5.5,0,10-1.5,14.4c-4.7,14.7-20.7,18.1-31,6.6
				c-1.1-1.2-1.9-2.1-3.7-2C353.9,1085.6,346.9,1085.5,339.9,1085.5z M1097.9,1036.8c-5.3-6.4-10.2-12.4-15.2-18.4
				c-1.6-1.9-0.3-2.5,1-3.4c4-2.7,7.7-5.8,10.7-9.6c9.2-11.7,6.4-29.7-5.8-37.3c-9.8-6.1-25.6-5.6-35.1,1
				c-7.5,5.3-11.1,12.5-11,21.7c0.1,7.8,3.7,14,8.7,19.6c2.3,2.5,2,3.8-1,5.4c-4.7,2.5-8.9,5.8-12.5,9.8
				c-11.9,12.9-9.7,37.3,4.1,46.7c13.7,9.3,39.2,8.3,51.9-2.5c2.9-2.5,4.1-1.7,6,0.9c1.7,2.3,2.8,5.8,6.2,5.9
				c7.7,0.3,15.4,0.1,24.2,0.1c-6.3-7.7-11.7-14.5-17.5-21.1c-2.3-2.6-2.5-4.4-0.4-7.2c4.6-6.2,7.8-13.2,9.2-20.8
				c1.2-6.8-0.9-9.4-7.6-9.6c-2.3,0-4.7,0.2-7,0c-3.1-0.3-4.1,1.1-4.3,3.9C1102.3,1027,1100.9,1031.8,1097.9,1036.8z M658,1000.4
				c-0.2-2.5-0.3-3.9-0.4-5.4c0-6,0-12,0-18c-0.1-8.9-4.3-13.2-13.1-13.3c-1.7,0-3.3,0.2-5,0c-3-0.4-4,0.8-4,3.9
				c0.1,25-0.2,49.9,0.2,74.9c0.1,11,3,21.2,13.1,27.6c10,6.3,21,9.2,32.8,8.2c12.6-1.1,24-4.9,29.9-17.5
				c8.5-18.2,8.8-36.7-0.3-54.8C699.9,983.6,671.5,982.1,658,1000.4z M255.2,1163.4c-1.4,0.4-1.7-0.3-2.1-0.8
				c-10.7-15-37-15.1-49,3.4c-9.5,14.6-10.3,30.6-6.9,47c3.7,17.9,12.9,26.4,30.8,29c3.6,0.5,7.4,0.7,10.9,0.3
				c28.1-3.4,37.7-14.9,38.2-36.5c0.5-22.1,0.2-44.2,0.1-66.4c0-6.9-4.9-11.3-11.8-11.5c-1.8,0-3.7,0.2-5.5,0c-4-0.6-5,1.2-4.9,5
				C255.4,1143.2,255.2,1153.4,255.2,1163.4z M830.8,1214.3c-6,0-11.6,0-17.3,0c-2.9,0-5,1.5-6.8,3.6c-5.3,6.4-12.4,6.7-19.6,4.8
				c-7.1-1.9-9.9-7.7-11.3-14.4c-0.8-3.8,0.1-5.2,4.3-5.1c15.6,0.3,31.3-0.1,46.9,0.2c4.6,0.1,5.8-1.4,5.4-5.6
				c-0.4-3.6-0.1-7.3-0.7-10.9c-2.4-15.5-9.2-27.7-25.2-32.8c-18.2-5.9-37.4-0.6-46.5,13.2c-7.6,11.4-8.5,24.3-7.2,37.4
				c2.4,25.3,17.6,38.7,42.8,37.8C812.7,1241.8,826.4,1231.1,830.8,1214.3z M859.6,1050.4c-6.2,0-12,0-17.8,0c-2.5,0-4.5,1.3-6,3.2
				c-5.4,6.7-12.5,7.2-19.9,5.2c-7.6-2.1-10.2-8.2-11.5-15.4c-0.6-3.5,0.4-4.3,3.7-4.3c13.3,0.1,26.6,0,39.9,0c14,0,14,0,12.7-14.1
				c-1.9-21.7-14.1-34.4-35.5-37c-21.5-2.5-37.8,9-42.6,30.1c-0.6,2.7-1.1,5.6-1.3,8.4c-0.8,11.3,0,22.3,5.3,32.6
				c10.5,20.4,40.5,26.1,59.8,11.7C853.2,1065.7,857.5,1059.1,859.6,1050.4z M1007.7,1203.3c6.5,0,13,0,19.5,0c9.8,0,9.8,0,9.3-9.9
				c-1.3-26.2-14.1-39.8-39-41.5c-18.6-1.3-33.5,9.2-38.8,27c-2.4,8.1-2.5,16.4-2,24.7c1.6,25.6,18.3,40.6,43.9,38.7
				c14.6-1.1,26-7.7,32.2-21.6c2.9-6.4,2.8-6.4-4.3-6.4c-3.2,0-6.3,0.1-9.5,0c-3.4-0.1-6.1,1.2-8.3,3.8c-5.5,6.5-12.7,6.8-20.1,4.6
				c-7.3-2.2-9.8-8.4-10.9-15.3c-0.5-2.9,0.2-4.1,3.5-4C991.4,1203.4,999.6,1203.3,1007.7,1203.3z M341.3,1203.3c6.3,0,12.7,0,19,0
				c9.4,0,9.4,0,9.2-9.6c-0.7-25.9-14.1-40.2-39.1-41.9c-18.1-1.2-32.5,8.6-38.2,25.8c-2.6,8-3.2,16.3-2.6,24.7
				c1.9,26.8,17.4,41.1,43.2,40.1c15.6-0.6,28.7-9.8,34-23.6c1.2-3.1,1.5-4.9-2.9-4.6c-4.1,0.3-8.3,0.1-12.5,0.1
				c-2.8,0-5.4,0.9-7.1,3.1c-5.4,7-12.8,7.4-20.3,5.3c-7.3-2-9.9-8.1-11.3-15c-0.8-3.9,0.7-4.5,4-4.4
				C325,1203.4,333.2,1203.3,341.3,1203.3z M890.7,1048.4c-2.3,0-4.7,0.2-7-0.1c-3.5-0.4-4.3,1.2-3.9,4.3c0.8,6.9,3.2,12.9,8.4,17.5
				c13.2,11.8,47.9,11.2,60.8-1.1c13.2-12.5,9.6-33.4-7-40.6c-5.3-2.3-10.9-3.9-16.6-5.1c-6.1-1.3-12.4-2.4-18-5.6
				c-1.9-1.1-3.6-2.6-3.4-5.1c0.2-2.7,1.5-4.7,4-5.9c7.2-3.5,18.1-1.2,23.1,5.2c2.3,3,5.2,4.6,8.9,4.6c3.7,0.1,7.3-0.1,11,0.1
				c2.8,0.2,2.9-1.3,2.6-3.3c-1.4-7.9-4.5-15-11.6-19c-15.6-8.8-31.8-9.4-47.6-0.9c-9.5,5.1-13.4,14-12.6,24.8
				c0.7,9.6,6.6,15.2,15,18.8c7.2,3.1,14.8,5,22.4,6.6c3.3,0.7,6.5,1.4,9.5,2.8c2.8,1.3,5.4,3,5.3,6.5c0,3.7-2.4,5.7-5.6,6.9
				c-7.1,2.6-14,2.2-20.8-1.1c-2.2-1.1-4.3-2.8-4.6-5c-0.6-5.8-4.4-5.6-8.5-5.3C893.4,1048.5,892.1,1048.4,890.7,1048.4z
				 M1059.5,1212.2c-2.3,0-4.7,0.2-7,0c-3.4-0.4-4.2,1-3.9,4.2c0.9,9.5,5,17.4,13.7,21.2c17.2,7.5,34.8,7.4,51.4-1.6
				c9.5-5.1,12.6-14.7,11.8-25.2c-0.7-9.6-6.5-15.2-15.1-18.5c-5.3-2-10.6-3.8-16.2-4.9c-6-1.2-12.1-2.4-17.6-5.3
				c-2.3-1.2-4.1-2.8-3.8-5.8c0.3-2.7,1.8-4.5,4.3-5.6c7.7-3.3,17.3-1.1,22.6,5.3c2,2.4,4.3,4.3,7.5,4.5c4.3,0.2,8.7,0,13,0.1
				c2.1,0.1,2.5-0.8,2.2-2.7c-1.3-7.7-4.4-14.4-10.8-19c-12.6-9.1-37-9.5-49.8-0.7c-8.6,5.9-12.1,14.3-11.2,24.6
				c0.8,9.2,6.6,14.5,14.5,18.1c7.2,3.2,14.7,5.1,22.4,6.7c3.9,0.8,7.8,1.7,11.3,3.7c2.2,1.3,4,2.9,4,5.9c-0.1,3.1-1.7,5.1-4.3,6.2
				c-7.6,3.4-15.2,3-22.6-0.8c-2-1-3.9-2.7-4.1-4.8c-0.5-5.8-4.3-5.6-8.4-5.3C1062.1,1212.3,1060.8,1212.2,1059.5,1212.2z
				 M535.2,1032.9c0,2.5-0.2,5,0,7.5c1.7,20.4,10.9,32.3,28.7,36.6c19.6,4.8,43.7-1.5,49.7-30.2c1.8-8.5,2-17.2,0.3-25.8
				c-3-14.9-9.9-27.2-25.6-31.4c-15.7-4.2-30.9-3.1-42.8,9.8C536.8,1008.9,535.1,1020.7,535.2,1032.9z M472.3,1196.5
				c0,2.2-0.1,4.3,0,6.5c1.5,21.2,10.4,33.4,28.4,38c18.9,4.8,43.6-0.4,50-29.6c1.9-8.9,1.9-17.8,0.3-26.8
				c-3.6-20.3-17.5-32.3-37.9-32.9c-20.9-0.5-34.8,10.1-39.6,30.5C472.5,1186.8,472,1191.6,472.3,1196.5z M588.7,1184.2
				C588.7,1184.2,588.7,1184.2,588.7,1184.2c0-8.8-0.1-17.7,0-26.5c0-2.8-0.5-4.3-3.8-4.1c-5.1,0.3-10.3,0.2-15.5,0
				c-2.6-0.1-3.5,0.7-3.5,3.4c0.2,18.1-0.1,36.3,0.4,54.4c0.4,13.8,7.1,23.5,20.8,27.9c6.7,2.2,13.6,3.9,20.6,3
				c26.5-3.5,33.6-13.7,34.1-36.2c0.3-14.6,0.1-29.3,0.1-44c0-8.5,0-8.5-8.3-8.5c-10.4,0-14,3.7-14.1,14.2
				c-0.1,14.6-0.1,29.3-0.3,43.9c-0.1,5.8-3.4,9.5-8.7,11.6c-11.1,4.5-21.3-1.9-21.8-13.8C588.4,1201.2,588.7,1192.6,588.7,1184.2z
				 M463.1,1046.4c0-8.8-0.1-17.6,0-26.5c0.1-6.9,3.7-11.5,10-13.2c11.4-3.2,20.5,3.5,20.5,15.3c0.1,12.1,0,24.3,0,36.4
				c0,16.7,2.5,19.1,19.2,18.3c0.2,0,0.3,0,0.5,0c2.1,0.2,2.9-0.6,2.9-2.8c-0.1-18.1,0.4-36.3-0.4-54.4c-0.8-17.2-8.7-25.7-25.5-30
				c-6.7-1.7-13.5-2.3-20.2-0.8c-21,4.9-27.7,12.7-29.2,28.4c-1.8,19.1-0.4,38.2-0.7,57.4c0,2.3,1.4,2.2,3,2.2
				c5.3,0,10.7-0.2,16,0.1c3,0.1,4-0.9,4-3.9C462.9,1064,463.1,1055.2,463.1,1046.4z M460.1,1214.2c-4.4,0-8.4,0.2-12.4,0
				c-5.3-0.3-9.4,1.1-13.2,5.2c-7.7,8.1-23.5,5.1-27.8-5.3c-4.8-11.5-4.8-23.5,0.4-34.9c4.3-9.6,19.6-12.1,26.1-3.9
				c3.8,4.7,7.6,5.5,12.7,5.1c3.3-0.2,6.7-0.2,10,0c2.8,0.1,3.9-0.3,2.7-3.6c-4.8-13.4-14-21.7-28-24.1
				c-14.8-2.4-28.7-0.7-39.1,11.7c-12.9,15.3-13.5,47.1-1.4,63.4c9.4,12.7,26.2,17.9,43.6,13.2
				C447.2,1237.3,456.2,1228.7,460.1,1214.2z M655.8,1153.6c10.1,28.8,19.9,56.8,29.6,84.9c0.8,2.3,2.3,2.5,4.2,2.4
				c5-0.1,10-0.3,15,0.1c3.6,0.2,5.2-1.1,6.4-4.5c8.2-23.7,16.6-47.3,25-71c1.3-3.7,2.4-7.6,3.6-11.3c-4-1.2-8.1-0.5-12.2-0.5
				c-10.3-0.1-12.6,1.7-15.5,11.6c-4.7,16.2-9.4,32.5-14.1,48.8c-1.4-1.1-1.5-2.5-1.8-3.8c-5-17.6-10-35.2-15-52.7
				c-0.6-2-0.7-4.2-3.9-4C670.2,1153.8,663.4,1153.6,655.8,1153.6z M232.9,1050.5c-4.3-15-8.3-29.5-12.5-44
				c-1.6-5.4-1.8-12.4-5.4-15.7c-3.7-3.4-10.8-0.7-16.4-1c-1-0.1-2,0.1-3,0c-3.6-0.4-3.7,0.9-2.6,4c9.3,26.4,18.5,52.9,27.7,79.4
				c0.9,2.6,2,3.8,4.9,3.6c5.3-0.3,10.6-0.2,16,0c2.9,0.1,4-1,4.9-3.6c3.6-10.7,7.5-21.3,11.2-31.9c5.6-15.8,11.1-31.6,16.8-47.4
				c1.3-3.5,0.6-4.4-3-4.2c-3.5,0.2-7,0-10.5,0.1c-7.8,0-10.6,2.1-12.9,9.7c-4,13.5-7.8,27.1-11.8,40.6
				C235.5,1043.4,235.1,1046.9,232.9,1050.5z M910.6,1179.5c0,15.5-0.1,31,0,46.4c0.1,9.4,4.4,13.9,13.4,14.6
				c3.6,0.3,7.3,0.6,10.9,0.7c11.3,0.3,11.1,0.2,11.4-10.8c0.2-5-0.9-7.1-6.4-6.7c-5.5,0.5-7.2-1.3-7.2-6.4
				c-0.1-14.8,0-29.6-0.1-44.4c0-2.2,0.5-3.3,3-3.3c3.7,0,6.7-1.7,8.8-4.9c1.9-2.8,2.6-6.2,1.5-9.1c-1.1-2.8-4.4-0.9-6.7-1.3
				c-1-0.2-2-0.1-3,0c-2.9,0.4-3.7-1-3.6-3.7c0.2-3.8,0.1-7.7,0-11.5c-0.2-6.2-4.5-10.6-10.7-10.8c-2.2-0.1-4.4,0.2-6.5-0.1
				c-3.8-0.5-5.1,0.8-5,4.8C910.8,1148.6,910.6,1164.1,910.6,1179.5z M739.4,1020.3c0,17.1,0.1,34.3-0.1,51.4c0,3.7,0.7,5.5,4.9,5.1
				c4.1-0.4,8.3-0.4,12.5,0c4.2,0.4,5.6-0.8,5.6-5.3c-0.2-31.5-0.1-62.9-0.1-94.4c0-8.9-3.8-12.7-12.6-13c-1.8-0.1-3.7,0.2-5.5,0
				c-3.9-0.5-4.7,1.2-4.7,4.8C739.5,986,739.4,1003.2,739.4,1020.3z M846.7,1215.4c-0.1,0-0.2,0-0.4,0c0,7.3,0.1,14.6-0.1,22
				c-0.1,2.9,1,3.8,3.8,3.7c5-0.2,10-0.2,15,0c3.1,0.1,4-0.8,3.9-3.9c-0.2-12.3-0.1-24.6-0.1-36.9c0-3.8,0-7.6,0.9-11.4
				c1.5-6.4,5.5-10.2,11.8-11.2c3.4-0.6,7-0.5,10.4-0.5c2.2,0,3.4-0.5,3.3-3.1c-0.1-5.8-0.1-11.6,0-17.5c0-2.6-1.3-3.1-3.4-2.9
				c-3.1,0.3-6.3,0.5-9.4,0.9c-20.9,2.5-34,15.6-35.7,36.4C846.1,1199,846.7,1207.2,846.7,1215.4z M298.8,1033.1
				c0,13.1,0.1,26.3-0.1,39.4c0,3.1,0.7,4.5,4.1,4.3c5.1-0.3,10.3-0.2,15.5,0c2.3,0.1,3.2-0.7,3.2-3.1c-0.1-24.3,0-48.6-0.1-72.9
				c0-6.4-4.7-10.7-11.2-11c-2.3-0.1-4.7,0.2-7-0.1c-3.5-0.4-4.6,0.9-4.5,4.4C299,1007.1,298.9,1020.1,298.8,1033.1z M904.5,225.7
				c-0.5-0.1-1-0.4-1.1-0.3c-1.1,0.9-2.3,1.9-3.3,3c-24.5,23.8-46.1,50.1-66.7,77.3c-14.2,18.8-27.8,38.1-40.6,58
				c-0.7,1.1-2.1,2.3-1.4,3.5c0.9,1.6,2.7,0.7,4.1,0.3c5.8-1.9,11.7-3.8,17.5-5.8c6.7-2.3,13.4-4.6,19-9.3c-2.9,0.6-5.6,1.8-8.5,2.4
				c-3.7,0.8-8.5,3.6-11.1-0.2c-2.6-3.8,1.3-7.4,3.4-10.6c18.4-27.7,38-54.6,58.6-80.7C884.2,250.6,894.4,238.2,904.5,225.7z
				 M309.9,982.2c3,0,6,0,9,0c1.1,0,2.2,0.2,2.7-1.5c2.3-7.3-2.6-15.4-10.2-16.4c-1.8-0.2-3.6-0.2-5.5-0.2c-8,0.1-7-0.8-7,6.8
				C298.8,982.2,298.9,982.2,309.9,982.2z M352.6,1127.6c-0.5-0.7-1-1.5-1.5-2.2c-4.6,0-9.2,0-13.9,0c-2.2,0-4,1.1-5,2.8
				c-3.4,5.6-6.6,11.3-10.3,17.7c5-0.9,9,1.3,12.6-2C340.4,1138.3,346.6,1133,352.6,1127.6z"/>
			<path class="st1" d="M1273.4,64.4c-43.1,0-86.2,0-129.3,0c-3.2,0-6.2,0.4-9.1,2c-14.1,7.9-30,11.5-44.4,18.6
				c-33.3,16.4-64.2,37-95.7,56.6c-46,28.7-87.5,62.8-125.3,101.6c-2,2-4.1,3.9-6.1,5.9c-0.3-0.3-0.6-0.7-0.9-1
				c12.2-15.5,26.2-29.1,40.1-43c48.9-48.7,106.3-85.7,165.2-120.6c10.9-6.4,21.8-12.7,32.7-19.1c0.1,0,0-0.3,0-0.9
				c-1.6,0-3.1,0-4.7,0c-345,0-689.9,0-1034.9-0.1c-4.7,0-5.6,1.4-5.6,5.7c0.1,407.3,0.1,814.5,0,1221.8c0,4.7,1.3,5.6,5.7,5.6
				c404.1-0.1,808.1-0.1,1212.2-0.1c0,106.6,0,213.1,0.1,319.7c0,3.4-0.7,4.1-4.1,4.1c-403.6-0.1-807.2-0.1-1210.8,0
				c-3.4,0-4.1-0.7-4.1-4.1c0.1-516.6,0.1-1033.1,0-1549.7c0-3.4,0.7-4.1,4.1-4.1c403.6,0.1,807.2,0.1,1210.8,0.2
				C1270.7,63.5,1272.5,62.4,1273.4,64.4z M672.7,1418.8c4.8-1.9,2.7-6.8,3.8-10.1c0.7-2.2-3.2-1.7-5-2.5c-2.3-0.9-1.4-2.6,0.1-3.8
				c2.2-1.7,4.7-0.8,7.8-0.3c-4.2-2.8-8.5-3-10.4-0.5c-2.7,3.4-0.8,6.2,1.7,8.7c2.4,2.4,4.5,4.6,1.3,7.8c-1,0.3-1.2,0.9-0.7,1.7
				C671.7,1419.6,672.2,1419.2,672.7,1418.8z M843,1442.2c0,0.2-0.1,0.5-0.1,0.7c0.2,0,0.4,0,0.6-0.1c-0.2-0.2-0.4-0.4-0.5-0.6
				c-2.1-6.7-4.7-13.1-7.4-19.5c-1.3-3.2-5.6-6.5-4-9.3c1.5-2.5,6.3-3.2,9.6-4.6c4.7-2,9.4-3.9,14.1-5.9c-9.6-0.6-18.2,2.2-27.2,5.2
				c-1.5-9-1.6-18-3.9-26.7c-0.5,0-1,0.1-1.5,0.1c0,8.1,0,16.2,0,25.2c-8.4-4.4-16-8.3-24.2-10.4c7.2,5.4,14.9,9.9,21.6,16.2
				c-6,5.7-13.1,9.4-19.2,14.4c7.4-1.1,14.4-3.4,20.3-7.9c2.9-2.2,4.5-1.6,6.2,1.1c3.5,5.4,7.1,10.8,10.9,16.1
				C839.6,1438.4,840.1,1441.3,843,1442.2z M817.5,1438.9c-6.4,5.2-9.8,12.5-13.4,19.6c-4.1,8-8.2,16-14.2,22.8
				c-5.4,6.1-11.3,11.6-20.3,13.8c0.8-2.4,1.4-4.3,2-6.1c2.1-6.5,3.6-13.2,2.6-20.1c-1.1-8.6-7.3-11.1-14.2-6
				c-11.5,8.5-12.5,27.9-1.9,37.3c1.3,1.2,2.1,1.8,0.8,3.5c-3.9,5.2-8,10.2-13.9,13.4c-7.8,4.2-15.7,2.6-20.4-3.9
				c-5.1-7.1-4.3-17.9,1.8-23.3c1.6-1.4,3.7-2.5,6.2-4.2c-6.2-0.6-9.9,2-12.7,5.9c-3.8,5.1-4.6,11-3.7,17.1
				c2.3,16.4,18.3,23.6,32.2,14.5c5.2-3.4,9.3-8.1,12.6-13.3c2.7-4.2,5.1-8.1,11.1-8.3c3.6-0.1,6.8-2.5,9.8-4.7
				c8.3-6,14.5-13.7,18.9-22.8c5.7-11.6,10.2-23.8,17.4-34.6c0.8-0.3,1.4-0.7,0.8-1.7C818.4,1438.1,817.9,1438.5,817.5,1438.9z
				 M615.1,1409.3c-0.1-0.2-0.2-0.5-0.4-0.7c8.2-4.4,16.3-8.8,24.5-13.2c1.9-1,4-1.7,4-4.4c0-3.1-2.7-3.2-4.7-4
				c4.4-3.6,8.3-7.5,14.1-9.2c3.5-1,4.8-4,1.5-7.3c-0.7-3.2-3.6-2.7-5.8-3.3c-1.3,0-2.7,0-4-0.1c-16.2-0.7-29.7,5.8-40.6,16.9
				c-4.8,4.9-8.7,10.5-14.3,14.7c-2,1.5-3.4,3.9-2.4,6.6c0.7,2-0.3,3-1.3,4.3c-2.4,3.2-3.4,6.1,1,9.2c2.1,1.5,4.1,4.8,3.4,7.8
				c-0.6,2.3-2.8,4.5-0.7,6.8c2,2.2,4.9,1.7,7.5,1c3.8-1,7.6-2.2,12.5-3.7c-3.3,3.3-6.5,4.7-8.1,7.8c-2.1,4-0.8,6.5,3.7,6.7
				c3.3,0.1,6.6-0.1,10-0.2c5.8-0.2,6.7,0.8,6.5,6.5c-0.2,5-1.2,10.1,1.6,14.9c0.1-5.1,0.4-10.2,1.2-15.2c1-6.8-1.2-9.1-8.1-9.2
				c-3.9-0.1-7.7,0-12.4,0c2.8-4.4,6.4-6.2,9.6-8.4c3-2,6.5-3.5,9.1-6c0.9-0.9,2-1.9,1.3-3.5c-0.8-1.6-2.2-2-3.8-1.6
				c-2.4,0.6-4.7,1.6-7.1,2.3c-5.4,1.6-10.6,4.1-17.8,4.7c3.7-3.8,7-5.6,10.4-7.2c8.4-3.9,17-7.6,25.4-11.5c2.4-1.2,6.8-1.9,4.9-5.9
				c-1.7-3.6-4.9-1.1-7.5-0.3C623.7,1406.1,619.8,1408.8,615.1,1409.3z M680.6,1442c-0.4-0.4-0.8-0.8-1.1-1.2
				c2.5-6.1,5.2-12.2,7.5-18.4c0.9-2.4,1.6-5.7-1.8-6.8c-3.4-1-5.4,1.9-6,4.6c-1.1,5.6-3.5,10.7-5.4,16c-0.6,0.8-1.4,1.5-1.8,2.3
				c-3.2,6.2-8.2,8-15,6.7c-7-1.4-13.7-3.9-20.6-5.6c6,4.2,12.2,7.8,19.3,9.7c2.2,0.6,3,1.3,2.7,4c-1.1,9.7,3.7,16.2,13.1,18.9
				c4.8,1.4,9.8,1.8,14.8,1.8c12.2,0,24.2,1.2,35.8,5.2c0.9,0.3,1.9,1,2.6-0.7c-2.2-3-5.6-4.3-9-5.5c-9.7-3.3-19.7-4.7-29.8-5.2
				c-4-0.2-8.2,0.1-12-1.9c4.1,0.2,7.2-1.6,10-4.4c5.2-5.3,10.5-10.5,15.8-15.7c0.3,0.3,0.7,0.6,1,0.9c-0.9,1.4-1.8,2.8-2.5,4.3
				c-1,2.1-2,4.5,0,6.5c2.2,2.1,4.6,1,6.8-0.5c3.8-2.7,7-6.1,10.1-9.6c5.7-6.6,11-13.7,17.4-19.7c0.4,0.3,0.9,0.7,1.3,1
				c-0.4,1.7-1.8,3.5,0.1,5c1.8,1.4,3.8,0.7,5.6-0.3c1.2-0.7,2.3-1.3,3.4-2c10.2-6.3,19.7-13.6,29-21.1c2.8-2.3,5.3-4.8,9.4-6.7
				c-0.9,3.7-2.8,6.2-4.4,8.9c-2.4,4.2-5.1,8.2-6,13c-0.9,4.7,0.8,6,6.6,4.9c-6.3-0.7-5.6-3.9-3.6-7.4c2.5-4.5,5.4-8.8,7.8-13.3
				c1.4-2.8,5.3-6,2.4-8.8c-3.1-3-6.3,0.7-9.1,2.6c-9.9,6.9-19.1,14.9-29.6,21c-0.4-0.3-0.8-0.7-1.2-1c3.4-4.5,6.8-8.9,10.1-13.5
				c1.1-1.4,1.4-3.2,0.2-4.6c-1.3-1.6-3.3-1.5-5-0.4c-2.4,1.5-4.8,3-7,4.7c-6.6,5.1-12,11.3-18,17.1c-0.3-0.3-0.6-0.6-0.9-1
				c0.3-0.6,0.6-1.1,1-1.7c1.3-2.3,4.2-4.7,1.5-7.5c-2.7-2.9-5.7-0.5-8,1.2c-4.1,3.1-7.9,6.5-11.8,9.9c-0.4-0.4-0.8-0.8-1.2-1.2
				c1-3.3,5-7.1,1.1-9.8c-3.7-2.6-6.2,2.1-8.9,4.3c-0.3,0.2-0.5,0.5-0.7,0.7C690.5,1427.9,686,1435.3,680.6,1442z M657.9,1557.4
				c-5.2-5.8-6.7-12.5-5.6-19.9c0.4-3,0.7-5.9,1-8.9c1.1-11.9,2.9-11.9-11.8-16.7c-0.3-0.1-0.6-0.2-1-0.3
				c-13.4-3.1-26.5,1.9-32.4,12.8c-4.4,8.1-4.6,16.5,0.8,24.1c5.3,7.5,13.4,8.6,21.9,7.3c6.3-1,11.4-4.3,15.6-9.4
				C648.6,1551.9,651.3,1556.4,657.9,1557.4z M598.5,1479.7c-0.5-4.5-2.8-6.7-5.7-8.3c-10-5.7-22.8-4-31.6,4.7
				c-3.3,3.3-6,5.2-10.5,2.6c-1.6-0.9-4.4-1.9-5.5-0.2c-1.2,2,1.5,3.4,2.9,4.5c3.1,2.5,3.2,4.5,1.1,8.2c-6.3,10.9-13.6,20.5-26,24.9
				c-0.9,0.3-2.1,0.8-1.6,2.1c0.4,1.2,1.7,0.8,2.6,0.7c6.6-0.9,12.3-3.8,17.4-8c5.7-4.7,10.4-10.2,14.8-16.1c1.4-2,2.4-2.4,4.7-0.9
				c2.4,1.6,5.2,5.9,7.6,3.6c1.9-1.9-1.7-5.6-3.5-7.9c-2.1-2.7-1.5-4.4,0.6-6.7C572.1,1475.4,585.3,1471.3,598.5,1479.7z
				 M677.7,1553.2c2.1-1.8,1.3-3.9,1.4-5.8c0.6-9.4,0.3-19,2.9-28.2c2.3-8.3,6.6-9.6,13.3-4c4.7,4,8.3,9.1,11.8,14.1
				c2.4,3.4,4.9,6.8,8.5,9c2.7,1.6,5.5,2.9,8.8,0.4c-4.4-1.3-7.3-4-9.6-7.3c-2.8-4.1-5.3-8.4-8.2-12.5c-3.3-4.8-7.1-9.2-12.4-12.1
				c-7.8-4.2-14.2-1.8-17.1,6.4c-0.9,2.4-1.4,5-2.3,8.5c-1.5-4.3-2.7-7.7-4-11c-0.5-1.3-0.9-3.2-3-2.7c-1.7,0.5-2,2.1-2,3.7
				c0,1,0,2,0.2,3c2.1,8.5,4.2,17.1,6.5,25.6C673.9,1544.7,674.9,1549.2,677.7,1553.2z M566.5,1541.4c-0.2,1.4-0.2,2.9,1.2,3.4
				c1.4,0.5,1.8-1,2.5-2c4.8-7.2,9.5-14.4,14.5-21.5c7.2-10.2,14.8-20,29.3-19.4c1.1,0,2.6-0.4,2.6-1.8c0-1.8-1.7-1.9-3-1.9
				c-5.3-0.4-10.6-0.8-15.8,0.7c-1.8,0.5-4,1.7-3.4-2.1c0.2-1.3-0.6-2.7-2.1-2.9c-2-0.3-1.7,1.4-2.3,2.5c-1.8,3.7-3.7,7.4-5.7,11
				c-5.1,9.3-10.3,18.6-15.6,27.8C567.6,1537.2,566.8,1539.2,566.5,1541.4z M654.5,1427.8c4.4,1.1,7.6,3.8,11.5,5.1
				c1.8,0.6,4.4,1.7,5.3-1.5c0.7-2.5,2.4-5.5-1.4-7.3C667.3,1422.9,656.7,1425.2,654.5,1427.8z M660.9,1396.4
				c-4.3-5.4-9.3-6-14.9-1.8C651.4,1393.8,656.2,1394.5,660.9,1396.4z M648.3,1402c3.1-0.7,4.9-1.3,5.6,1.5c0.3,1.3,2.2,1.1,3.5,1.2
				c0.8,0.1,0.9-0.8,0.9-1.4c-0.1-1.4-0.8-2.5-2.1-3C653.8,1399.3,651.5,1399.3,648.3,1402z"/>
			<path class="st1" d="M396.2,623.7c-6.3,4.6-8.4,10.8-8.5,18.4c0,3.5-2.9,7-4.7,10.3c-2.3,4.5-4.3,9-4,14.2
				c0.1,2.2-0.4,4.5-1.9,6.1c-4.4,5.1-4.6,11.2-4.7,17.4c0,2.6,0.4,5.3-1.1,7.8c-1,1.5-0.1,2.9,1.1,4c3.2,2.9,3.3,6.3,1.7,10
				c-1.1,2.5-1.4,5.1-1.2,7.8c0.3,3.3,0.9,6,5.5,4.5c3.4-1.1,2.7,1.7,2.5,3.6c-0.6,7.8-1,15.6-1.8,23.4c-0.4,3.6,0.2,5.9,4.4,5.9
				c2.6,0,3.2,1.7,3,4.1c-0.2,2.7,0,5.3,1.2,7.8c0.8,1.5,1.6,3,3.6,2.9c4.1-0.4,5.1,2,5.1,5.5c0,1.6,0.4,3.3,0.8,4.9
				c0.8,3.7,2.4,6,6.5,3.4c1.2-0.7,2.4-1.4,3.6-0.1c3.7,4.2,8.4,7.7,9.6,13.7c1.1,5.8,3.7,9.8,10.5,9.7c3.3,0,5,2.1,5.2,5.5
				c0.1,2.5,0.5,5,1.1,7.4c0.8,3.1,2.7,5.6,6,5.9c4.7,0.5,6.5,3.6,7.4,7.6c1.1,4.9,2.1,9.5,8.7,9.7c2.4,0.1,2.6,2.7,2.4,4.8
				c-0.3,4.7,0.4,8.2,6.4,8.3c3.7,0.1,4.6,3.4,5,6.5c0.8,6,2.4,11.2,10,11.3c1.9,0,1.6,1.8,1.6,3.1c0,6.2,0.6,11.7,8.9,11.7
				c1.3,0,1.3,1.8,1.7,2.8c1.2,3.6,1.6,7.4,1.7,11.3c0.2,5,1.8,6,6.3,3.4c3.1-1.8,6.1-4,8.9-6.4c2.4-2,4.6-3.2,7.5-1.1
				c2.5,1.8,4.1,0.8,5.6-1.6c3.1-5,6.7-9.2,13.6-7.9c1.9,0.4,3.4-0.9,5-1.9c4.8-3.2,9.9-5.4,15.9-3.5c2.6,0.8,4.1-0.4,4.9-2.8
				c0.4-1.4,1.1-2.8,1.6-4.2c1.5-4.1,3.9-5.1,7.6-2.5c4.4,3.2,8.6,2.7,12.7-0.8c1.6-1.4,3.5-2.5,5.3-3.7c2-1.2,3.7-1.4,5.9,0.2
				c4.5,3.3,8.4,2.5,12.4-1.2c2.8-2.6,5-7.8,10.7-4.2c1.1,0.7,2.2-1.7,3-2.8c3.3-5,6.5-10.1,9.7-15.1c0.3-0.5,1-0.8,1.5-1.3
				c5,9.1,7.4,9.5,15.4,2.8c1-0.9,2-1.8,3-2.7c1.6-1.5,2.8-2.5,4.6,0.2c2,2.9,4.4,2.5,6.1-0.7c0.9-1.6,1.7-3.2,2.9-4.7
				c1.5-1.9,2.5-4.5,6.1-1.8c2.7,2,6,0,8.3-2.6c2.7-3.1,5.4-6.3,8.2-9.4c1.6-1.8,3.3-2.6,5.6-0.8c2.2,1.8,4.3,0.9,5.5-1.2
				c3-5.2,8.5-7.7,12.5-11.8c1.5-1.5,2.8-1.2,3.5,0.6c1.4,3.6,3.8,2.4,6.1,1.5c4.2-1.8,6.8-5.2,9.2-8.8c3.3-4.8,3.8-4.9,7.6-0.6
				c2.4,2.7,4.9,2.8,6.5-0.1c5-9.3,12.7-15.3,22.1-19.8c3.9-1.8,6.9-5.2,6.7-10.3c-0.1-2,1.4-3.7,2.8-5.1c4.1-3.7,6-8.3,6-13.8
				c0-3.9,1.3-6.9,4.9-9.1c6.1-3.8,7.3-9.8,5.7-16.2c-1.7-6.8-1.1-13.1,0.9-19.9c5.2-17.3,3.9-34.8-0.1-52.3
				c-0.7-3.2-2.6-2.8-4.7-2.8c-13.2,0-26.3-0.1-39.5,0.1c-3.6,0.1-4.4-1.1-4.4-4.5c0.1-28.5-0.6-57,0.3-85.4
				c0.5-15.6-12.6-31.8-27.7-34.3c-14.6-2.4-28.3-1-39.1,10.5c-5.5,5.9-8.6,12.7-8.6,21.1c0.2,29,0,57.9,0.2,86.9
				c0,4.2-0.7,5.7-5.4,5.6c-38.8-0.2-77.6-0.2-116.4,0c-4.2,0-5.2-1.1-5.2-5.2c0.1-65.6,0.1-131.2,0-196.8c0-4.1,1.3-4.9,5-4.8
				c12,0.2,24,0.1,36,0c1.6,0,3.7,0.8,4.9-1.3c-1.1-1.5-2.5-0.8-3.7-0.8c-12.8-0.1-25.6,0-38.5-0.1c-6.1,0-7.4-2.1-5.4-7.5
				c7.9-20.8,15.7-41.6,23.6-62.5c0.3-0.9,0.8-1.8,1.5-3.6c8.2,22.7,16,44.6,23.9,66.5c1.9-0.5,1.6-2.1,2-3.3
				c5.3-16.3,10.7-32.5,15.8-48.9c1.1-3.5,2.5-4.7,6.2-4.6c12,0.3,24,0,36,0.2c3.5,0.1,5.2-0.5,4.8-4.5c-0.4-3.3,0.1-6.7-0.1-10
				c-0.2-2.8-1.8-5.4,0-8.3c0.4-0.6,0.2-1.7-0.1-2.4c-1.5-4-1.6-4,3.1-4c6,0,12,0,18,0c1,0,2.5-0.6,2.9,1.1c0.3,1.2-0.5,1.7-1.7,1.9
				c-1.7,0.3-1.1,1.8-1.2,2.8c-0.2,2.8,2,5.2,0.3,8.7c-1.5,3.1-0.2,7.5-0.4,11.3c-0.1,2.7,0.8,3.4,3.4,3.3c16.5-0.1,33-0.1,49.4,0
				c2.6,0,3.8-0.8,3.3-3.4c-1-5,2.2-10.4-1.8-15c-0.5-0.5,0.5-0.9,0.9-1.4c1.6-1.7,1.5-4.4,0.5-5.5c-4.6-5,0.1-3.8,2.4-3.9
				c6.2-0.1,12.3-0.1,18.5,0c1.1,0,2.5-0.5,3.1,0.8c0.7,1.5-0.4,2-1.7,2.4c-1.5,0.5-1,1.9-1,3c-0.1,2.6,1.7,4.8,0.3,8
				c-1.4,3-0.1,7.2-0.4,10.9c-0.2,3.2,0.8,4.3,4.1,4.2c14.3-0.2,28.6,0.1,43-0.2c3.9-0.1,6.1,0.9,7.9,4.8
				c15.1,32.7,30.4,65.4,45.8,98c1.2,2.5,1.6,5,1.6,7.7c-0.1,41.3-0.1,82.6,0,123.9c0,3.2-1,5.7-3,8.1c-7.6,8.9-15.1,17.8-22.5,26.8
				c-2.1,2.5-4.2,3.7-7.6,3.6c-7.1-0.3-14.3,0-21.5-0.1c-3-0.1-3.9,0.5-3.2,3.8c2.3,11.1,5.5,22,6.6,33.2
				c1.6,15.7,1.5,31.3-4.4,46.2c-1.9,4.8-0.9,9.6,0.4,14.2c2.4,8.8,0.5,15.8-7.5,20.6c-2.4,1.5-3.2,3.7-3.3,6.3
				c-0.1,7.1-2,13.4-7.6,18.3c-0.9,0.8-1.9,2.2-1.9,3.4c0,9.1-6.7,13-13.3,15.7c-7.1,2.8-11.5,7.5-15,13.8c-0.9,1.6-2.1,3-3.2,4.4
				c-2.1,2.8-4.1,2.6-6.5,0c-4.1-4.5-5.4-4.4-9,0.8c-2.7,3.9-5.4,7.6-10,9.4c-2.5,1-4.6,2-6-1.5c-0.7-1.7-2.5-2.9-3.9-1.1
				c-3.7,4.6-10,6.4-12.9,12c-1.6,3.1-4.1,4.7-7.7,1.8c-1.7-1.4-3.5-0.2-4.8,1.2c-2.8,3.1-5.5,6.3-8.3,9.3
				c-3.2,3.5-6.4,7.4-11.6,2.9c-1.4-1.2-2.6,0.1-3.3,1c-1.7,2.2-3.4,4.5-4.8,7c-2,3.7-4.3,4.3-6.6,0.7c-1.7-2.7-2.9-1.8-4.6-0.4
				c-2.4,2.1-4.7,4.3-7.3,6.1c-5.4,3.8-8.5,2.9-11.2-3.2c-0.4-0.9-0.9-1.8-1.3-2.7c-2.2,0.7-3.1,2.6-4.2,4.2
				c-2.8,4.3-5.3,8.9-8.3,13c-1,1.3-1.5,6.3-5.1,1.9c-0.3-0.4-2.2,0.4-3.2,0.9c-2.9,1.3-5.2,3.5-7.4,5.8c-3.5,3.8-8,4.5-11.6,1.4
				c-3.1-2.6-5.7-2.1-8.6-0.3c-1.5,1-3.1,2-4.5,3.2c-4.4,4-8.9,4.3-14.1,1.1c-4.7-2.9-6-2.3-8.3,2.6c-0.7,1.5-1.3,3.1-1.8,4.6
				c-0.9,2.5-2.3,3.8-5.3,3c-6.6-1.6-12.5,0.3-17.8,4.2c-1.7,1.3-3.5,2.2-5.5,1.8c-6.3-1.1-10.2,2.3-13.1,7.1
				c-2.1,3.6-4.2,5.4-8.2,2.5c-2-1.5-4-0.7-5.8,0.9c-3.5,3.1-7.1,6.1-11.3,8.2c-4.3,2.1-5.2,1.6-5.7-3.1c-0.5-4.6-0.6-9.3-2.2-13.7
				c-0.6-1.5-0.6-3.5-3.7-2.3c-2.4,0.9-6.9-4-7.3-7.5c-0.2-2-0.1-4-0.2-6c-0.1-1.6-0.5-2.6-2.6-2.9c-6.4-0.9-9-3.5-9.7-9.9
				c-0.6-5.6-2.2-9.5-8.9-9.7c-3.8-0.1-3.8-3.7-3.7-6.5c0.2-4.3-0.4-7.5-5.8-7.9c-3.8-0.2-5-3.6-5.6-6.8c-1.2-5.8-2.9-10.5-10-11.8
				c-4.5-0.8-5.7-5.6-6.1-9.9c-0.8-8.8-0.8-9-9.3-10.3c-4.8-0.7-6.7-3.9-7.3-7.7c-1.2-7.1-6-11.7-10.4-16.6c-2-2.2-3.7-1.5-5.7-0.3
				c-2.9,1.8-4.8,0.7-5.5-2.4c-0.7-2.9-1.2-5.9-1.5-8.8c-0.2-2.1-0.8-3.3-3-3.9c-6.3-1.5-8.2-3.8-7.6-10.3c0.4-4.1-0.6-5.9-4.8-6.1
				c-3.4-0.2-3.8-2.5-3.6-5.3c0.7-8.6,1.3-17.2,2.1-25.9c0.3-3.2,0.5-6-4.2-4.2c-2.6,1-3.6-0.7-4.2-2.9c-0.9-3.5-0.3-7,1.1-10.2
				c1.7-4.2,1.8-8.1-1.9-11.4c-1-0.9-2.2-2-1.3-3.4c2.1-3.2,1.6-6.8,1.5-10.2c-0.1-6.3,0.6-12.2,4.9-17.3c0.9-1.1,1.7-2.7,1.6-4.1
				c-0.3-8.8,3.7-16.1,7.5-23.4c2.2-4.2,4.1-8.3,2.9-13.3c-0.3-1.2,0-3,0.7-3.8C372.4,637.4,381.4,626.8,396.2,623.7z"/>
			<path class="st2" d="M440.3,324.2c-13-2.6-21.5-9.8-28.9-18.6c-2.6-3.1-5.4-5.8-9.1-7.7c-4.4-2.2-7.3-5.8-8.4-10.6
				c-1.3-5.5-4.7-10.3-5.1-16.1c-0.2-3.1-0.1-6,3.5-7.4c2.9-1.1,2.2-3.2,1.4-5.4c-2.6-6.5-5-13-7.7-19.5c-1.6-4-1.3-7.1,2.1-10.3
				c4.2-4.1,4.3-7.3,1.1-12.5c-2.6-4.2-5.6-8.2-6.5-13.4c-0.7-4-0.4-7.9,2.3-10.9c3-3.5,2.8-6.8,1.2-10.6c-0.8-1.8-1.4-3.7-2.2-5.6
				c-0.9-2.3-2.1-4.2,2.4-3.7c3.1,0.3,3.3-2.7,2.4-5.1c-1-2.7-3-4.8-4.7-7c-2.3-2.9-1.7-4.8,1.9-5.7c6.1-1.6,12.1-3.9,18.4-4.5
				c8.1-0.8,15.7-3.9,23.9-4.3c1.9-0.1,4.1-0.6,5-2c3.3-5,7.7-3.4,11.9-2.3c4.4,1.1,8.2,1,11-3.2c1.4-2.1,3.9-2,5.9-1.5
				c3.5,0.9,6-0.5,7.5-3.3c2-3.8,5.2-4.4,8.9-3.6c3.3,0.7,6.5,0.5,9.1-1.4c4.4-3.1,8.5-2,12.6,0.3c3.5,2,7,2.6,10.5,1
				c5-2.4,9.4-0.8,13.9,1c3.1,1.2,6.1,2.7,9.1,3.9c1.7,0.7,3.8,1.8,5.1,0.2c2.9-3.4,5.6-1.7,8.4-0.3c7.1,3.7,14.5,6.7,22.4,8.2
				c6.1,1.2,8.4-1.2,7.4-7.3c-0.2-1-0.4-2-0.8-2.9c-3.8-8.3-3-16.5,0.2-24.7c0.4-0.9,0.7-1.9,0.9-2.8c1.7-8.6,1.7-8.7,10.2-6.9
				c4.2,0.9,7.7,1.3,9.4-4c0.7-2.2,3.4-3.5,6.3-2.6c2.5,0.8,5.2,1.4,7.6,2.5c3.2,1.4,6.2,1.6,9-0.5c2.7-2.1,5.2-1.5,7.8,0.1
				c3.8,2.5,7.5,4.9,11.2,7.5c2.9,2.1,5.9,2.5,8.7,0.1c2.4-2.1,4.5-1.5,6.7,0.1c3.5,2.6,6.9,5.3,10.4,7.7c3.1,2.1,5.8,5.1,10.3,4
				c1.5-0.4,2.8,1.5,3.9,2.8c3.4,4.1,6.7,8.3,10.1,12.4c4.2,5.2,8.2,6,13.9,2.6c1.6-1,3.3-1.7,4.3,0.1c9.4,17.7,28.3,24.8,42.3,37.3
				c8.3,7.4,17.2,14.3,23.6,23.5c7.3,10.5,10.3,22.2,10.2,34.8c-0.2,23.6-0.6,47.3-0.6,70.9c0,13.5-0.4,27,1.3,40.4
				c0.2,1.5,0.3,3.1,0.9,4.4c3.3,6-0.1,10.1-3.7,14.7c-4.2-5.2-4.7-11.3-4.9-17.2c-0.9-28.5-1.1-57,0.3-85.4
				c1.2-24.4-5.6-44.4-25.3-59.7c-8.7-6.7-16.9-14-26.2-20c-7-4.5-13-9.8-17.1-17.1c-1.7-3.1-3.5-4.8-7.4-1.9
				c-3.8,2.8-7.7,1.1-10.6-2.3c-2.5-2.9-4.7-6.1-7.2-9c-2.5-2.9-4.5-6.2-9.6-5.9c-2.3,0.1-4.8-2.6-7.2-4.2c-3-2.1-5.9-4.4-8.8-6.5
				c-2.2-1.6-4.2-2.2-6.6,0c-2.2,2.1-4.9,1.7-7.3,0c-2.5-1.7-4.9-3.4-7.4-5.1c-3.9-2.7-7.6-4.7-12.2-1.2c-1.7,1.3-3.8,0.6-5.7-0.2
				c-2.5-0.9-5-1.8-7.6-2.5c-2.9-0.7-5.6,0.1-6.5,3.1c-1.2,3.7-3.7,3.7-6.6,3.3c-1.1-0.2-2.3-0.4-3.4-0.6c-6.7-0.8-6.7-0.8-7.6,5.9
				c-0.2,1.6-0.8,3.2-1.4,4.8c-2.5,7-3.1,13.9,0,20.9c0.7,1.5,1.1,3.2,1.2,4.8c0.2,4.4-1.8,6.1-6.2,5.2c-7.6-1.5-14.5-4.6-21.4-7.9
				c-2.4-1.2-4.9-2.9-7.6,0.3c-1.3,1.5-3.4,0.5-5.1-0.2c-3.7-1.5-7.3-3.1-11.1-4.5c-3.2-1.2-6.4-1.5-9.7,0.1c-3,1.4-6,1.1-9.1-0.5
				c-4.2-2.3-8.5-3.5-13-0.3c-2.1,1.5-4.8,1.9-7.6,1.1c-3.4-1-6.5-0.3-8.5,3.3c-1.5,2.7-3.9,3.9-7.1,3c-1.6-0.4-3.7-0.5-4.6,0.9
				c-3.4,5.2-8.1,4-12.9,2.9c-3.1-0.7-6.1-1.5-8.3,2.1c-0.6,1-2.2,1.9-3.4,1.9c-6.7,0.2-12.8,2.9-19.5,3.7c-7.4,0.8-14.6,3.1-21.8,5
				c-3,0.8-3.3,2.9-1.5,5.4c1.3,1.7,2.8,3.3,3.8,5.2c1.5,2.8,3,6.1-2.7,5.5c-2.1-0.2-1.6,1.3-1.4,2.2c0.4,1.6,1,3.2,1.7,4.7
				c2,4.4,2.8,8.2-0.8,12.8c-3.6,4.7-2,10.5,0.6,15.6c1.2,2.2,2.6,4.2,4,6.3c2.5,3.9,2.5,7.6-1.2,10.7c-3.3,2.9-3.4,6.2-2,9.9
				c2.3,5.9,4.6,11.8,6.9,17.6c0.8,1.9,1.8,3.8-1,4.9c-3.8,1.6-4,4.9-3.1,8c1.8,6.2,4,12.3,6.3,18.3c0.8,2,2.4,3.7,4.4,4.6
				C430.3,311.8,434.3,318.4,440.3,324.2z"/>
			<path class="st2" d="M829.9,671.9c7.6,4.4,15.3,8.7,22.9,13.1c2.5,1.4,4.8,2.9,5.4,6.1c0.7,3.5,3.2,4.6,6.4,3.8
				c6.4-1.7,10.6,0.7,13.4,6.4c1.4,2.9,3.8,3.8,7.1,2.9c5.9-1.5,11.4-0.9,16.3,3.5c3.5,3.2,7.3,4.8,11.9,0.8c2.4-2.1,4.9-1.2,7,1.8
				c2.8,4.1,5.8,7.5,12.3,5c5.1-2,10.9-0.7,14.7,4.6c1.5,2.1,3.5,4,5.9,5.3c1.5,0.8,3.3,1.8,4.7,0.7c4.2-3.2,7.8-1,11.6,0.7
				c3.2,1.4,6.4,2.9,9.7,4c2.1,0.7,4.3,1.3,6.3-1.2c1.7-2.1,4.6-1.7,7.1-1.4c7.5,1.2,13.4-2.9,19.6-5.9c1.9-0.9,2.5-3.1,2.7-5.1
				c1.5-14.1,5.1-27.7,9.1-41.3c0.7-2.3,1.9-4.2,3.5-5.9c4.1-4.5,6.9-9.3,3.9-15.7c-1.4-3,0.8-5.5,2.6-7.6c4.1-4.8,6.8-9.7,5.1-16.3
				c-0.8-3,1.1-5.9,3-8.2c3.1-3.8,4.2-8.1,4.1-13c-0.2-10,1-19.8,2.8-29.7c1.8-9.7,2.7-19.7,4.7-29.4c0.3-1.5-0.2-2.9-0.8-4.3
				c-2.3-6.6-4.4-13.2-6.6-19.8c-0.6-1.9,0.4-3.6,0.9-5.3c1.4-4.1,0.9-7.8-1.3-11.4c-2.3-3.7-4.4-7.4-6.4-11.3
				c-1.3-2.5-2.7-5.1-2.7-8c0.2-11-5-19.8-11.7-27.8c-5.3-6.2-11.1-11.9-16.7-17.9c-3.3-3.5-3-6.3,1.1-8.8c2.5-1.5,5.2-2.3,8.1-2.1
				c5.5,0.4,10.9,0.9,17.5,1.5c-4.9,4.8-2.1,7.8,1.2,11.1c5.8,5.7,11.4,11.6,16.7,17.8c7.4,8.8,12.7,18.4,12.9,30.5
				c0.1,6.6,4.4,12.1,7.9,17.5c3.6,5.5,5.5,10.9,2.4,17.3c-0.5,1.1-0.7,2.8-0.2,3.9c3.3,7,3.8,14.8,7.1,21.7
				c1.2,2.5,0.6,4.9,0.2,7.3c-3.7,21.2-8.2,42.3-7.7,64.1c0.1,3.9-1.7,7.1-3.9,10c-3.1,4.1-4.5,8.3-3.3,13.5c1,4.3-1,7.8-3.7,10.9
				c-4,4.6-6.7,9.1-4,15.7c1.7,4.2-1.4,8-4.1,11.2c-2.7,3.1-4.2,6.4-5.5,10.3c-4.5,13.6-7.3,27.6-9.2,41.8c-0.6,4.4-2.9,6.8-6.9,8.3
				c-6.3,2.4-12.4,5.6-19.7,4.1c-1.5-0.3-4,0-4.7,1c-3,4.2-6.4,2.2-9.6,0.9c-3.6-1.4-6.9-3.2-10.5-4.7c-3.3-1.4-6.5-2.5-9.8,0.2
				c-1.6,1.3-3.5,0.6-5.1-0.4c-2.5-1.4-4.7-3.2-6.3-5.6c-4.2-6.3-10.8-7.3-16.8-5.2c-6.1,2.1-9.1-0.7-12.1-4.5
				c-3.8-4.8-5.5-5.4-10.6-1.6c-2.7,2-4.8,1.6-7.2,0.1c-1.1-0.7-2.4-1.3-3.3-2.2c-5-4.6-10.8-5.6-17.2-3.9c-4,1.1-6.7,0.1-8.5-3.8
				c-2.7-5.8-7.3-7.8-13.5-6.4c-3.7,0.9-6.6,0-7.5-4.3c-0.6-3.1-3-4.7-5.5-6.1c-6.8-3.8-13.8-7.3-20.4-11.5
				c-8.2-5.2-12.9-13.3-16.6-22.1L829.9,671.9z"/>
			<path class="st2" d="M483.7,603c2.9-6.5,4.7-12.1,4.7-18.2c0-4.3-2.3-6.1-6.3-5.6c-2.3,0.3-4.6,1-6.7,1.9
				c-27.8,12.3-56,23.6-84.2,34.9c-3.4,1.4-6.9,2.3-10.4,3.4c-1.9,0.6-4.2,0.6-5.2-0.8c-3.2-4.3-7.5-3.6-11.8-3.5
				c-4.8,0.1-9-0.5-12.5-4.7c-2.3-2.8-6.3-2.8-9.7-3.4c-7.3-1.2-12.8-4.1-14.8-12c-0.9-3.6-4.5-5.4-7.7-6.6c-4-1.4-5.5-4.2-5.6-7.9
				c0-3.7-1.6-5.6-5.3-5.8c-5.8-0.4-8.4-3.1-9.8-9.1c-1.4-6-7.2-8.9-12.9-10.5c-3.5-1-5.6-2.4-6.2-6.1c-0.6-3.4-2.6-5.5-5.9-6.7
				c-2.7-1-5.7-2.2-5.9-5.9c-0.1-1.5-1.5-1.6-2.6-1.9c-2.1-0.5-4.2-0.9-6.3-1.3c-7-1.2-7.9-2.7-4-9c2.9-4.6,6.8-8.5,9.1-13.5
				c1.8-3.9,3-7.4-0.4-11c-1.3-1.4-1.4-2.7,0.2-4.2c1.7-1.7,2.7-4.2,2-6.4c-1.5-4.4,0.5-7.7,2.7-11.1c2.1-3.2,3.1-6.5,2-10.4
				c-0.9-3.1,0.8-5.6,2.7-7.7c3.1-3.5,6.5-6.7,9.7-10c1.6-1.6,2.6-2.8-0.7-4.1c-4.8-1.9-5-3.5-1.2-7.1c3.5-3.3,7.4-6.2,10.9-9.5
				c2.7-2.5,5-5.2,1.2-8.8c-1.7-1.6-1.2-3.4,0.3-4.8c1.5-1.3,3.1-2.5,4.7-3.7c4.8-3.4,8.9-7.8,8.8-13.7c-0.1-5,2.3-7.7,5.7-10.3
				c2.2-1.8,4.6-3.3,6.8-5.1c1.2-0.9,2.7-1.9,2.4-3.6c-0.8-4.7,2.5-5.8,5.7-7.3c4.9-2.1,9.6-4.5,14.4-6.8c2.6-1.2,4.3-2.8,3.5-6.2
				c-0.9-4,2.1-5.7,5.2-5.7c8.3-0.1,15-3.6,21.3-8.7c1.4-1.1,3.2-2.3,4.9-2.4c13.4-0.9,27-4.7,40.1,2.2c2,1,4.4,1.3,6.7,1.6
				c9.8,1.3,19.6,0.9,29.4,0.9c8.7,0,10-2.4,6-10.2c-0.4-0.9-0.9-1.8-1.3-2.7c9.1,0.6,17.6,6.3,20.6,13.6c1.7,4.1,0.7,6.3-3.8,6.3
				c-13.5-0.1-27.2,2.1-40.3-3.7c-5.5-2.4-11.5-3.1-17.6-1.4c-1.4,0.4-3,0.3-4.5,0.2c-7.5-0.7-14.1,1.2-19.8,6.3
				c-3.9,3.5-8.9,4.4-13.9,4.7c-4.1,0.3-6.9,1.7-5.8,6.5c0.6,2.6-1.4,3.6-3.1,4.5c-5.1,2.5-10.2,4.9-15.3,7.2c-2.1,1-3.8,2-3.4,4.7
				c0.4,2.3-1.2,3.6-2.8,4.9c-2.7,2-5.3,4-7.9,6.1c-1.7,1.4-3.1,3.1-3,5.5c0.4,7-3.5,11.4-8.7,15.2c-3.4,2.4-7.6,4.4-2.8,9.6
				c1.8,1.9-0.3,4.1-1.9,5.5c-3.3,3-6.9,5.8-10.2,8.8c-3.7,3.4-3.6,5.1,0.7,7.4c2.4,1.3,1.9,2.2,0.6,3.6c-1.8,1.9-3.8,3.7-5.7,5.6
				c-3.8,3.7-7.3,7.5-5.1,13.5c0.1,0.1,0.1,0.4,0,0.5c-3.7,7-4.6,14.8-6.8,22.2c-0.6,2-1.1,3.1,0.2,4.6c2.4,2.8,1.8,5.7,0.5,8.8
				c-2.2,5.1-6.2,8.9-9,13.6c-3.4,5.8-2.6,7.3,4.1,8.3c3.8,0.6,8.2,0.2,9.1,5.6c0.1,0.5,0.9,1.1,1.5,1.3c5.1,1.7,8.5,4.8,9.4,10.4
				c0.3,1.6,2,2,3.5,2.5c6.9,2.1,12.9,5.2,14.2,13.4c0.5,3.1,2.9,4.3,5.8,4.5c4.5,0.3,7.5,2,7.4,7.3c-0.1,3,1.8,4.7,4.6,5.8
				c4,1.5,7.1,4.1,8.3,8.6c1.3,4.6,4.9,6.9,9.4,7.9c5.5,1.2,10.9,1.9,15.2,6.5c2.4,2.6,6.6,1.9,10.1,1.7c3.2-0.2,6,0,8.6,2.7
				c2.5,2.6,5.9,1.5,8.9,0.5c14.2-4.8,27.8-10.9,41.7-16.5c14.2-5.8,28.2-11.9,42.2-17.8c0.8-0.3,1.5-0.7,2.3-0.9
				c7.4-2.7,10.6-0.1,9.3,7.6C502,589.3,496.4,598.3,483.7,603z"/>
			<path class="st2" d="M339.9,1085.5c7,0,14,0.1,21,0c1.7,0,2.6,0.9,3.7,2c10.3,11.4,26.3,8,31-6.6c1.4-4.4,2.1-9,1.5-14.4
				c-4.5,5.6-9.4,9.6-15.9,11.1c-15.8,3.6-32-4.5-38.9-20.8c-7.6-17.8-6.8-35.8,2.5-52.9c7.7-14,21.2-16.6,35.7-16
				c6.3,0.3,12.4,2.1,18.3,4.5c11.6,4.8,18.8,13.3,19.8,25.9c1.8,21.1,1.3,42.2,0.3,63.3c-0.7,14.5-9.1,23.7-22.7,28.5
				c-9.8,3.4-19.7,4.5-29.9,2.4C352.2,1109.7,342.3,1099.6,339.9,1085.5z M359.5,1033.2c0,5.9,0.5,10.5,1.9,14.9
				c2,6.4,6.1,10.5,13,11.3c7.8,0.9,14.6-0.7,18.9-8c5.9-9.8,5.1-28.8-1.7-38.1c-3.7-5.1-8.7-6.8-14.8-6.4c-6.5,0.5-11.4,3.1-14,9.4
				C360.5,1022.2,359.6,1028.2,359.5,1033.2z"/>
			<path class="st2" d="M910.7,281.2c7.2-6.9,15.5-12.2,25.1-14.7c12.6-3.2,25.5-4.7,38.4-5.4c5.4-0.3,10,1.7,12.8,6.3
				c4.4,7.4,11.3,10.7,18.8,14c11.1,4.9,21.9,10.5,27.6,22.2c0.4,0.7,0.8,1.8,1.4,2c7.7,2,8.7,9.7,12.8,14.9
				c3.7,4.7,7.2,9.6,12.2,13.1c2.6,1.8,3.7,4.7,3.4,7.4c-0.9,8.4,4.2,13.1,10.2,16.9c5.3,3.4,7.9,7.7,9.9,13.6
				c2.2,6.6,6.8,12.2,8.1,19.4c0.5,2.8,3,5.1,5.5,6.8c6.3,4.3,6.8,15.8,1,20.7c-3,2.6-6.1,5.2-8.9,8c-5.7,5.6-12.4,8.2-20.3,7.6
				c-5.1-0.4-10.1-0.7-16.2-1.1c5-4.4,9.1-8.2,13.4-11.8c5.8-4.9,5.6-15.7-0.5-20.2c-3.2-2.3-5.7-5.5-6.2-9.3
				c-1-8.2-7.8-13.8-8.9-21.8c-0.2-1.7-2.2-2.3-3.6-3.3c-6.6-4.6-13.3-9-12.4-18.8c0.2-2.3-1.3-4.2-3.2-5.9
				c-6.6-5.7-12.5-11.9-15.6-20.3c-0.3-0.9-1-2.1-1.8-2.2c-5.3-1.4-6.8-6.3-9.8-9.9c-5.6-6.7-12.8-11.6-20.9-14.8
				c-7.7-3.1-14.8-6.5-19.3-14c-2.5-4.2-7-5.7-11.7-5.3c-13.7,1.2-27.5,2.1-40.7,6.7C911.1,281.6,911,281.4,910.7,281.2z"/>
			<path class="st2" d="M1097.9,1036.8c3-5,4.4-9.8,4.7-14.8c0.2-2.8,1.2-4.2,4.3-3.9c2.3,0.2,4.7,0,7,0c6.7,0.1,8.8,2.7,7.6,9.6
				c-1.4,7.6-4.6,14.6-9.2,20.8c-2.1,2.8-1.9,4.6,0.4,7.2c5.8,6.6,11.2,13.4,17.5,21.1c-8.8,0-16.5,0.2-24.2-0.1
				c-3.4-0.1-4.5-3.7-6.2-5.9c-1.9-2.6-3.1-3.4-6-0.9c-12.7,10.8-38.2,11.8-51.9,2.5c-13.8-9.4-16-33.8-4.1-46.7
				c3.6-4,7.8-7.3,12.5-9.8c3-1.6,3.3-2.8,1-5.4c-5-5.6-8.6-11.8-8.7-19.6c-0.2-9.2,3.5-16.4,11-21.7c9.5-6.6,25.3-7.1,35.1-1
				c12.1,7.6,14.9,25.6,5.8,37.3c-3,3.8-6.7,6.9-10.7,9.6c-1.3,0.9-2.6,1.5-1,3.4C1087.8,1024.3,1092.7,1030.4,1097.9,1036.8z
				 M1067.6,1061c5.6-0.2,10.7-1.9,15.2-5.5c2-1.6,2.6-2.8,0.7-5.1c-4.4-5.2-8.5-10.6-12.8-16c-6.5-8.2-6.8-8.2-14.3-0.7
				c-4.6,4.6-6.1,11.7-3.7,17.5C1055.1,1057.2,1060.9,1061,1067.6,1061z M1071.6,980.2c-7.8,0-11.2,6.1-7.6,14
				c1.6,3.5,3.6,7.3,7.3,8.9c2,0.8,8.2-6.7,9.2-10.4C1082.5,985.3,1078.9,980.2,1071.6,980.2z"/>
			<path class="st2" d="M658,1000.4c13.6-18.3,41.9-16.8,53.2,5.7c9.1,18.1,8.8,36.6,0.3,54.8c-5.9,12.5-17.3,16.4-29.9,17.5
				c-11.8,1-22.8-1.9-32.8-8.2c-10.1-6.4-13-16.6-13.1-27.6c-0.3-25-0.1-49.9-0.2-74.9c0-3.1,1-4.2,4-3.9c1.6,0.2,3.3,0,5,0
				c8.8,0.1,13,4.3,13.1,13.3c0,6,0,12,0,18C657.6,996.5,657.8,997.9,658,1000.4z M695.1,1036c0.1-8-0.5-13.5-2.9-18.5
				c-3.5-7.2-9.2-10.6-17.3-10.1c-7.5,0.5-12.5,4.3-15,11.2c-3.5,9.7-3.3,19.6-0.2,29.3c2.4,7.5,8,11.5,15.6,11.7
				c8,0.2,13.8-3.3,17-10.6C694.5,1044.1,695.1,1038.9,695.1,1036z"/>
			<path class="st2" d="M255.2,1163.4c0-10.1,0.2-20.3-0.1-30.5c-0.1-3.8,0.9-5.6,4.9-5c1.8,0.2,3.7,0,5.5,0
				c6.9,0.1,11.8,4.6,11.8,11.5c0.1,22.1,0.4,44.3-0.1,66.4c-0.5,21.6-10.2,33.1-38.2,36.5c-3.6,0.4-7.4,0.3-10.9-0.3
				c-17.9-2.6-27.2-11.2-30.8-29c-3.4-16.4-2.6-32.4,6.9-47c12.1-18.5,38.3-18.4,49-3.4C253.5,1163.1,253.9,1163.8,255.2,1163.4z
				 M255.3,1196c0.1-4-0.5-9.1-2.6-13.9c-3-7-8.4-10.5-15.9-10.7c-7.5-0.2-13,3.2-15.9,9.8c-4.9,11.1-4.5,22.4,0.4,33.3
				c3.2,7,9.3,9.5,16.8,9.1c7.1-0.4,11.8-4,14.5-10.4C254.7,1208.1,255.3,1202.6,255.3,1196z"/>
			<path class="st2" d="M830.8,1214.3c-4.4,16.8-18.1,27.5-35.2,28.1c-25.2,0.9-40.3-12.4-42.8-37.8c-1.3-13.2-0.4-26,7.2-37.4
				c9.2-13.8,28.3-19.1,46.5-13.2c15.9,5.1,22.8,17.3,25.2,32.8c0.6,3.6,0.3,7.3,0.7,10.9c0.5,4.2-0.7,5.7-5.4,5.6
				c-15.6-0.3-31.3,0-46.9-0.2c-4.3-0.1-5.1,1.3-4.3,5.1c1.4,6.8,4.2,12.6,11.3,14.4c7.2,1.9,14.3,1.6,19.6-4.8
				c1.8-2.2,3.9-3.6,6.8-3.6C819.2,1214.3,824.8,1214.3,830.8,1214.3z M792,1188.6c4.7,0,9.3,0,14,0c1.9,0,3.1-0.1,2.9-2.6
				c-0.4-8.9-6.7-15.1-15.8-15.3c-9.6-0.2-16.7,5.9-17.4,14.8c-0.2,2.5,0.5,3.3,2.9,3.2C783,1188.5,787.5,1188.6,792,1188.6z"/>
			<path class="st2" d="M859.6,1050.4c-2.2,8.6-6.4,15.3-13.2,20.3c-19.4,14.4-49.3,8.7-59.8-11.7c-5.3-10.2-6.1-21.3-5.3-32.6
				c0.2-2.8,0.7-5.6,1.3-8.4c4.8-21.1,21.2-32.7,42.6-30.1c21.4,2.5,33.7,15.3,35.5,37c1.2,14.1,1.2,14.1-12.7,14.1
				c-13.3,0-26.6,0.1-39.9,0c-3.3,0-4.3,0.8-3.7,4.3c1.3,7.2,3.9,13.3,11.5,15.4c7.4,2,14.5,1.5,19.9-5.2c1.5-1.9,3.5-3.1,6-3.2
				C847.6,1050.4,853.4,1050.4,859.6,1050.4z M820.8,1024.6c4.8,0,9.6-0.1,14.5,0c2.4,0.1,2.7-0.9,2.4-2.9
				c-1.2-9.6-7.1-15.1-16.6-15.1c-9.2,0-15.6,5.9-16.8,15.1c-0.3,2.3,0.4,2.9,2.5,2.9C811.5,1024.5,816.1,1024.6,820.8,1024.6z"/>
			<path class="st2" d="M1007.7,1203.3c-8.2,0-16.3,0.2-24.5-0.1c-3.3-0.1-4,1.1-3.5,4c1.2,6.9,3.6,13.1,10.9,15.3
				c7.4,2.2,14.5,1.9,20.1-4.6c2.2-2.6,4.9-3.8,8.3-3.8c3.2,0.1,6.3,0,9.5,0c7.1,0,7.2,0,4.3,6.4c-6.2,13.9-17.6,20.5-32.2,21.6
				c-25.6,1.9-42.3-13-43.9-38.7c-0.5-8.3-0.4-16.6,2-24.7c5.2-17.8,20.2-28.3,38.8-27c24.9,1.7,37.7,15.3,39,41.5
				c0.5,9.9,0.5,9.9-9.3,9.9C1020.7,1203.3,1014.2,1203.3,1007.7,1203.3z M996.2,1188.6c4.3,0,8.7-0.2,13,0.1
				c3.7,0.3,4.1-1.3,3.5-4.4c-1.5-8.9-7.4-13.8-16.7-13.7c-8.9,0.2-15.2,5.9-16.3,14.5c-0.3,2.5,0.1,3.7,3,3.5
				C987.2,1188.5,991.7,1188.6,996.2,1188.6z"/>
			<path class="st2" d="M341.3,1203.3c-8.2,0-16.3,0.1-24.5-0.1c-3.4-0.1-4.8,0.5-4,4.4c1.4,7,3.9,13.1,11.3,15
				c7.5,2,14.9,1.7,20.3-5.3c1.7-2.2,4.2-3.1,7.1-3.1c4.2,0,8.3,0.2,12.5-0.1c4.4-0.3,4.1,1.5,2.9,4.6c-5.3,13.8-18.4,23-34,23.6
				c-25.9,1-41.3-13.3-43.2-40.1c-0.6-8.4,0-16.6,2.6-24.7c5.7-17.2,20.1-26.9,38.2-25.8c25,1.6,38.4,15.9,39.1,41.9
				c0.3,9.6,0.3,9.6-9.2,9.6C354,1203.3,347.7,1203.3,341.3,1203.3z M329.2,1188.6c4.8,0,9.6,0,14.4,0c1.8,0,2.6-0.3,2.5-2.5
				c-0.6-9.3-6.8-15.3-16.2-15.5c-9.5-0.2-16.3,5.8-17.3,15c-0.2,2.2,0.3,3,2.6,3C319.9,1188.6,324.5,1188.6,329.2,1188.6z"/>
			<path class="st2" d="M890.7,1048.4c1.3,0,2.7,0.1,4,0c4.1-0.3,7.9-0.5,8.5,5.3c0.2,2.2,2.4,3.9,4.6,5c6.8,3.3,13.7,3.7,20.8,1.1
				c3.2-1.2,5.5-3.2,5.6-6.9c0-3.6-2.5-5.2-5.3-6.5c-3-1.4-6.3-2.2-9.5-2.8c-7.7-1.5-15.2-3.5-22.4-6.6c-8.3-3.6-14.3-9.2-15-18.8
				c-0.8-10.7,3.1-19.7,12.6-24.8c15.8-8.4,32.1-7.8,47.6,0.9c7.1,4,10.2,11.1,11.6,19c0.4,2.1,0.2,3.5-2.6,3.3
				c-3.6-0.2-7.3,0-11-0.1c-3.7-0.1-6.6-1.6-8.9-4.6c-4.9-6.3-15.9-8.7-23.1-5.2c-2.5,1.2-3.8,3.2-4,5.9c-0.2,2.5,1.4,4,3.4,5.1
				c5.6,3.2,11.9,4.4,18,5.6c5.7,1.2,11.3,2.8,16.6,5.1c16.6,7.2,20.1,28.1,7,40.6c-12.9,12.3-47.6,12.9-60.8,1.1
				c-5.2-4.7-7.7-10.7-8.4-17.5c-0.4-3.1,0.4-4.7,3.9-4.3C886,1048.6,888.4,1048.4,890.7,1048.4z"/>
			<path class="st2" d="M1059.5,1212.2c1.3,0,2.7,0.1,4,0c4.1-0.3,7.9-0.5,8.4,5.3c0.2,2.1,2.1,3.8,4.1,4.8
				c7.4,3.8,14.9,4.2,22.6,0.8c2.6-1.1,4.2-3.2,4.3-6.2c0.1-2.9-1.7-4.6-4-5.9c-3.5-2-7.4-2.9-11.3-3.7c-7.7-1.6-15.2-3.5-22.4-6.7
				c-7.9-3.5-13.7-8.9-14.5-18.1c-0.9-10.3,2.6-18.7,11.2-24.6c12.8-8.8,37.2-8.4,49.8,0.7c6.4,4.6,9.6,11.3,10.8,19
				c0.3,1.9-0.1,2.8-2.2,2.7c-4.3-0.1-8.7,0.1-13-0.1c-3.2-0.2-5.5-2.1-7.5-4.5c-5.3-6.4-14.9-8.6-22.6-5.3c-2.5,1.1-4,2.9-4.3,5.6
				c-0.3,3,1.5,4.6,3.8,5.8c5.5,2.9,11.6,4.1,17.6,5.3c5.6,1.1,10.9,2.9,16.2,4.9c8.6,3.3,14.4,8.9,15.1,18.5
				c0.7,10.5-2.3,20.1-11.8,25.2c-16.6,9-34.2,9.1-51.4,1.6c-8.7-3.8-12.8-11.6-13.7-21.2c-0.3-3.3,0.5-4.6,3.9-4.2
				C1054.8,1212.4,1057.1,1212.2,1059.5,1212.2z"/>
			<path class="st2" d="M535.2,1032.9c-0.1-12.2,1.6-24.1,10.3-33.4c11.9-12.8,27.1-14,42.8-9.8c15.7,4.2,22.6,16.5,25.6,31.4
				c1.7,8.6,1.5,17.2-0.3,25.8c-6,28.7-30.1,34.9-49.7,30.2c-17.8-4.3-27-16.3-28.7-36.6C535,1037.9,535.2,1035.4,535.2,1032.9z
				 M557,1031.6c-0.1,5.8,0.4,11.1,2,16.2c2.5,7.8,7.3,11.7,15.1,12.4c6.1,0.5,12.6-3.1,15.4-9.8c4.6-11,5-22.4,0.5-33.5
				c-2.8-6.9-9-10.6-15.8-10.1c-7.5,0.6-12.7,4.1-15.3,11.5C557.3,1022.8,556.9,1027.4,557,1031.6z"/>
			<path class="st2" d="M472.3,1196.5c-0.3-4.8,0.2-9.6,1.4-14.3c4.8-20.4,18.7-31,39.6-30.5c20.3,0.5,34.2,12.6,37.9,32.9
				c1.6,8.9,1.6,17.9-0.3,26.8c-6.4,29.2-31.1,34.4-50,29.6c-18-4.6-27-16.7-28.4-38C472.2,1200.8,472.3,1198.6,472.3,1196.5z
				 M494.1,1195.8c-0.1,5.5,0.6,10.9,2.1,16.3c2,7.3,7.1,11.1,14.3,12.1c6.3,0.9,12.7-2.4,15.8-9.1c5.1-11.2,5.5-22.9,0.7-34.4
				c-2.7-6.5-8.1-10.1-15.4-9.9c-7.7,0.2-12.9,4.4-15.6,11.8C494.5,1186.8,494.1,1191.3,494.1,1195.8z"/>
			<path class="st2" d="M588.7,1184.2c0,8.5-0.3,17,0.1,25.5c0.5,11.9,10.7,18.2,21.8,13.8c5.2-2.1,8.6-5.8,8.7-11.6
				c0.2-14.6,0.3-29.3,0.3-43.9c0.1-10.5,3.7-14.2,14.1-14.2c8.3,0,8.3,0,8.3,8.5c0,14.7,0.3,29.3-0.1,44
				c-0.5,22.5-7.6,32.8-34.1,36.2c-7,0.9-13.9-0.8-20.6-3c-13.7-4.4-20.4-14.1-20.8-27.9c-0.5-18.1-0.2-36.3-0.4-54.4
				c0-2.7,0.9-3.5,3.5-3.4c5.2,0.2,10.3,0.2,15.5,0c3.3-0.2,3.9,1.3,3.8,4.1C588.6,1166.5,588.6,1175.3,588.7,1184.2
				C588.7,1184.2,588.7,1184.2,588.7,1184.2z"/>
			<path class="st2" d="M463.1,1046.4c0,8.8-0.1,17.6,0.1,26.5c0.1,3.1-0.9,4.1-4,3.9c-5.3-0.2-10.6-0.1-16-0.1c-1.6,0-3,0.1-3-2.2
				c0.3-19.1-1.1-38.3,0.7-57.4c1.4-15.7,8.2-23.6,29.2-28.4c6.8-1.6,13.5-1,20.2,0.8c16.7,4.4,24.7,12.8,25.5,30
				c0.9,18.1,0.3,36.3,0.4,54.4c0,2.2-0.8,3.1-2.9,2.8c-0.2,0-0.3,0-0.5,0c-16.6,0.8-19.2-1.7-19.2-18.3c0-12.1,0-24.3,0-36.4
				c-0.1-11.8-9.1-18.5-20.5-15.3c-6.3,1.8-9.9,6.3-10,13.2C463,1028.7,463.1,1037.6,463.1,1046.4z"/>
			<path class="st2" d="M460.1,1214.2c-3.9,14.5-12.9,23.1-26.6,26.8c-17.4,4.7-34.2-0.5-43.6-13.2c-12-16.3-11.4-48.1,1.4-63.4
				c10.4-12.4,24.3-14.1,39.1-11.7c14,2.3,23.2,10.7,28,24.1c1.2,3.2,0.1,3.7-2.7,3.6c-3.3-0.1-6.7-0.2-10,0
				c-5.1,0.3-8.9-0.4-12.7-5.1c-6.5-8.2-21.8-5.7-26.1,3.9c-5.2,11.4-5.1,23.4-0.4,34.9c4.3,10.4,20.2,13.4,27.8,5.3
				c3.9-4.1,7.9-5.5,13.2-5.2C451.6,1214.4,455.6,1214.2,460.1,1214.2z"/>
			<path class="st2" d="M655.8,1153.6c7.6,0,14.4,0.2,21.2-0.1c3.2-0.1,3.3,2,3.9,4c5,17.6,10,35.2,15,52.7c0.4,1.3,0.5,2.6,1.8,3.8
				c4.7-16.4,9.4-32.6,14.1-48.8c2.9-10,5.2-11.8,15.5-11.6c4.1,0.1,8.2-0.7,12.2,0.5c-1.2,3.8-2.3,7.6-3.6,11.3
				c-8.3,23.7-16.8,47.3-25,71c-1.2,3.4-2.8,4.7-6.4,4.5c-5-0.3-10-0.1-15-0.1c-1.9,0-3.4-0.1-4.2-2.4
				C675.7,1210.5,665.9,1182.4,655.8,1153.6z"/>
			<path class="st2" d="M232.9,1050.5c2.2-3.5,2.6-7,3.6-10.3c4-13.5,7.8-27.1,11.8-40.6c2.3-7.7,5.1-9.7,12.9-9.7
				c3.5,0,7,0.2,10.5-0.1c3.6-0.2,4.2,0.7,3,4.2c-5.7,15.7-11.2,31.6-16.8,47.4c-3.8,10.6-7.6,21.3-11.2,31.9
				c-0.9,2.6-2,3.7-4.9,3.6c-5.3-0.2-10.6-0.3-16,0c-2.9,0.1-4-1.1-4.9-3.6c-9.2-26.5-18.4-53-27.7-79.4c-1.1-3.1-0.9-4.4,2.6-4
				c1,0.1,2,0,3,0c5.6,0.3,12.7-2.3,16.4,1c3.6,3.3,3.8,10.3,5.4,15.7C224.6,1021,228.6,1035.4,232.9,1050.5z"/>
			<path class="st2" d="M910.6,1179.5c0-15.5,0.1-31-0.1-46.4c-0.1-4.1,1.2-5.3,5-4.8c2.1,0.3,4.3,0,6.5,0.1
				c6.2,0.2,10.5,4.5,10.7,10.8c0.1,3.8,0.2,7.7,0,11.5c-0.1,2.7,0.6,4.1,3.6,3.7c1-0.1,2-0.2,3,0c2.3,0.4,5.6-1.5,6.7,1.3
				c1.1,2.9,0.4,6.3-1.5,9.1c-2.1,3.1-5.1,4.8-8.8,4.9c-2.5,0-3,1.1-3,3.3c0.1,14.8,0,29.6,0.1,44.4c0,5.1,1.7,6.9,7.2,6.4
				c5.5-0.5,6.6,1.7,6.4,6.7c-0.3,11-0.1,11.1-11.4,10.8c-3.7-0.1-7.3-0.4-10.9-0.7c-9-0.7-13.3-5.2-13.4-14.6
				C910.5,1210.5,910.6,1195,910.6,1179.5z"/>
			<path class="st2" d="M739.4,1020.3c0-17.1,0.1-34.3-0.1-51.4c0-3.6,0.8-5.3,4.7-4.8c1.8,0.2,3.7,0,5.5,0
				c8.9,0.3,12.6,4.1,12.6,13c0,31.5-0.1,62.9,0.1,94.4c0,4.6-1.3,5.7-5.6,5.3c-4.1-0.4-8.3-0.4-12.5,0c-4.2,0.4-4.9-1.4-4.9-5.1
				C739.5,1054.6,739.4,1037.5,739.4,1020.3z"/>
			<path class="st2" d="M846.7,1215.4c0-8.1-0.6-16.3,0.1-24.4c1.7-20.8,14.8-33.9,35.7-36.4c3.1-0.4,6.3-0.6,9.4-0.9
				c2.1-0.2,3.5,0.3,3.4,2.9c-0.1,5.8-0.1,11.6,0,17.5c0,2.5-1.1,3.1-3.3,3.1c-3.5,0-7-0.1-10.4,0.5c-6.3,1-10.3,4.9-11.8,11.2
				c-0.9,3.8-0.9,7.6-0.9,11.4c0,12.3-0.1,24.6,0.1,36.9c0,3.1-0.9,4.1-3.9,3.9c-5-0.2-10-0.2-15,0c-2.8,0.1-3.8-0.8-3.8-3.7
				c0.2-7.3,0.1-14.6,0.1-22C846.4,1215.4,846.6,1215.4,846.7,1215.4z"/>
			<path class="st2" d="M298.9,1033.1c0-13,0.1-26-0.1-38.9c-0.1-3.5,1.1-4.8,4.5-4.4c2.3,0.2,4.7,0,7,0.1c6.5,0.3,11.2,4.6,11.2,11
				c0.1,24.3,0,48.6,0.1,72.9c0,2.4-0.9,3.1-3.2,3.1c-5.2-0.1-10.3-0.3-15.5,0c-3.4,0.2-4.2-1.2-4.1-4.3
				C298.9,1059.4,298.8,1046.2,298.9,1033.1z"/>
			<path class="st2" d="M904.5,225.7c-10.1,12.6-20.3,25-30.2,37.6c-20.6,26.1-40.1,53-58.6,80.7c-2.1,3.2-6.1,6.9-3.4,10.6
				c2.7,3.8,7.4,1,11.1,0.2c2.9-0.6,5.6-1.7,8.5-2.4c-5.6,4.7-12.3,7-19,9.3c-5.8,2-11.6,3.9-17.5,5.8c-1.4,0.4-3.1,1.3-4.1-0.3
				c-0.7-1.2,0.7-2.4,1.4-3.5c12.8-19.9,26.3-39.2,40.6-58c20.6-27.2,42.2-53.5,66.7-77.3c1.1-1,2.2-2,3.3-3
				C903.6,225.3,904,225.5,904.5,225.7z"/>
			<path class="st2" d="M309.9,982.2c-11,0-11.1,0-11-11.2c0-7.6-1-6.7,7-6.8c1.8,0,3.7,0,5.5,0.2c7.7,1,12.6,9,10.2,16.4
				c-0.5,1.6-1.6,1.4-2.7,1.5C315.9,982.2,312.9,982.2,309.9,982.2z"/>
			<path class="st2" d="M352.6,1127.6c-6.1,5.4-12.2,10.7-18.2,16.3c-3.5,3.3-7.6,1.1-12.6,2c3.7-6.5,6.9-12.2,10.3-17.7
				c1-1.7,2.8-2.8,5-2.8c4.6,0,9.2,0,13.9,0C351.6,1126.1,352.1,1126.8,352.6,1127.6z"/>
			<path class="st1" d="M860,252.5c-0.5,0.8-1.1,0.9-1.9,0.5c0.4-0.4,0.8-0.8,1.2-1.2C859.6,252,859.8,252.2,860,252.5z"/>
			<path class="st1" d="M861,249.7c0.5-0.6,1-1.1,1.6-1.7c0.3,0.3,0.6,0.7,0.9,1c-0.5,0.5-1,1-1.4,1.5
				C861.7,250.2,861.4,250,861,249.7z"/>
			<path class="st2" d="M829.9,671.8c-0.2,0-0.5,0.1-0.7,0.1c0.1-0.2,0.1-0.4,0.2-0.7c0.2,0.2,0.3,0.5,0.5,0.7
				C829.9,671.9,829.9,671.8,829.9,671.8z"/>
			<path class="st2" d="M911.3,281.8c-0.4,0-1.1,0.3-1.2,0.1c-0.3-0.6,0.2-0.6,0.6-0.7C911,281.4,911.1,281.6,911.3,281.8z"/>
			<path class="st1" d="M861.1,251.5c-0.3,0.3-0.7,0.7-1,1c-0.2-0.2-0.5-0.5-0.7-0.7c0.3-0.4,0.6-0.8,1-1.1
				C860.5,250.9,860.8,251.2,861.1,251.5z"/>
			<path class="st1" d="M862.1,250.5c-0.3,0.3-0.7,0.7-1,1c-0.3-0.3-0.5-0.6-0.8-0.9c0.2-0.3,0.5-0.6,0.7-0.9
				C861.4,250,861.7,250.2,862.1,250.5z"/>
			<path class="st3" d="M745.3,1424.6c10.5-6.1,19.7-14.1,29.6-21c2.8-1.9,6-5.6,9.1-2.6c2.8,2.8-1,6-2.4,8.8
				c-2.4,4.6-5.2,8.9-7.8,13.3c-2,3.5-2.7,6.6,3.6,7.4c-5.8,1.1-7.4-0.2-6.6-4.9c0.9-4.8,3.6-8.9,6-13c1.5-2.7,3.5-5.1,4.4-8.9
				c-4,1.9-6.6,4.4-9.4,6.7c-9.3,7.6-18.8,14.8-29,21.1c-1.1,0.7-2.3,1.4-3.4,2c-1.8,1-3.7,1.7-5.6,0.3c-1.9-1.5-0.5-3.3-0.1-5
				c0.2-0.4,0.4-0.8,0.6-1.1c0.4-0.5,1.1-0.9,0.5-1.6c-0.7-0.7-1,0.2-1.4,0.5c-0.3,0.4-0.6,0.8-1,1.1c-6.4,6-11.7,13.1-17.4,19.7
				c-3,3.5-6.2,6.9-10.1,9.6c-2.1,1.5-4.6,2.6-6.8,0.5c-2.1-1.9-1.1-4.3,0-6.5c0.7-1.5,1.7-2.8,2.5-4.3c0.5-0.7,1.8-1.5,0.9-2.2
				c-0.9-0.7-1.4,0.6-1.9,1.3c-5.3,5.2-10.6,10.4-15.8,15.7c-2.8,2.8-5.9,4.7-10,4.4c0,0,0.1,0.1,0.1,0.1c-0.8-2.4-2.1-2-3.6-0.6
				c-6.3-1.9-8.2-7.1-9.4-12.7c-0.3-1.6,0.3-2.2,2-2.6c7-2,10.1-6.1,10.7-13.9c1.9-5.3,4.2-10.4,5.4-16c0.5-2.7,2.6-5.6,6-4.6
				c3.5,1,2.7,4.3,1.8,6.8c-2.3,6.2-5,12.3-7.5,18.4c-0.1,0.8-1.8,1.3-0.8,2.3c0.6,0.5,1.5-0.2,1.9-1c5.4-6.7,9.8-14.1,16-20.2
				c0.2-0.2,0.4-0.5,0.7-0.7c2.7-2.2,5.2-6.8,8.9-4.3c3.9,2.7,0,6.5-1.1,9.8c-0.6,0.8-2.3,1.5-1.5,2.4c0.8,0.9,2.1-0.1,2.7-1.2
				c3.9-3.3,7.7-6.8,11.8-9.9c2.3-1.7,5.2-4,8-1.2c2.6,2.7-0.2,5.1-1.5,7.5c-0.3,0.6-0.6,1.1-1,1.7c-0.5,0.6-0.9,1.2-1.4,1.8
				c-0.2,0.5-1.1,0.8-0.4,1.4c0.7,0.5,0.9-0.3,1.2-0.7c0.5-0.5,1-1,1.5-1.5c5.9-5.7,11.4-12,18-17.1c2.2-1.7,4.6-3.2,7-4.7
				c1.7-1.1,3.6-1.2,5,0.4c1.2,1.4,0.8,3.2-0.2,4.6c-3.3,4.5-6.7,9-10.1,13.4c-0.7,0.7-1.9,1.2-1.8,2.6
				C743.8,1426.3,744.5,1425.4,745.3,1424.6z M735.8,1424.7c-0.1-0.1-0.2-0.2-0.3-0.2c-0.4,0.2-0.5,0.4,0,0.6c0.1,0,0.2-0.1,0.3-0.1
				C735.8,1424.9,735.8,1424.8,735.8,1424.7z"/>
			<path class="st4" d="M654.1,1370.5c3.3,3.2,2,6.3-1.5,7.3c-5.8,1.6-9.6,5.6-14.1,9.2c2,0.9,4.7,0.9,4.7,4c0,2.8-2.1,3.4-4,4.4
				c-8.2,4.3-16.3,8.8-24.5,13.2c-0.7,0.5-2.3,0.3-1.9,1.3c0.3,0.7,1.7,0.5,2.3-0.6c4.7-0.5,8.7-3.2,13-4.6c2.5-0.8,5.8-3.3,7.5,0.3
				c1.9,4.1-2.5,4.8-4.9,5.9c-8.4,4-16.9,7.7-25.4,11.5c-3.4,1.6-6.7,3.4-10.4,7.2c7.2-0.6,12.4-3.1,17.8-4.7
				c2.4-0.7,4.7-1.6,7.1-2.3c1.6-0.4,3,0,3.8,1.6c0.7,1.5-0.3,2.5-1.3,3.5c-2.7,2.6-6.1,4-9.1,6c-3.3,2.2-6.9,4-9.6,8.4
				c4.7,0,8.6-0.1,12.4,0c6.9,0.1,9.1,2.5,8.1,9.2c-0.7,5-1.1,10.1-1.2,15.2c-2.8-4.8-1.7-9.9-1.6-14.9c0.2-5.7-0.7-6.7-6.5-6.5
				c-3.3,0.1-6.7,0.3-10,0.2c-4.5-0.2-5.8-2.7-3.7-6.7c1.6-3.1,4.8-4.5,8.1-7.8c-4.9,1.5-8.7,2.6-12.5,3.7c-2.6,0.7-5.5,1.2-7.5-1
				c-2.1-2.3,0.2-4.5,0.7-6.8c0.7-3-1.3-6.3-3.4-7.8c-4.3-3.1-3.4-5.9-1-9.2c1-1.4,2-2.4,1.3-4.3c-1-2.7,0.5-5.1,2.4-6.6
				c5.5-4.2,9.5-9.9,14.3-14.7c10.9-11.1,24.4-17.6,40.6-16.9c1.3,0.1,2.7,0.1,4,0.1c-0.2,2.1-1.9,1.4-3,1.4
				c-5.3-0.1-10.3,1-15.3,2.6c-0.1,0-0.1,0.1-0.2,0.1c0.1,0,0.2,0,0.2-0.1C638,1370.1,646,1368.5,654.1,1370.5z M621,1386.2
				c-1.8,0.7-3.5,1.4-5.3,2.1c0.1,0.2,0.2,0.4,0.3,0.5C617.6,1388,619.3,1387.1,621,1386.2c0.1,0,0.3-0.1,0.5-0.1
				c-0.1,0.1-0.1,0.2-0.2,0.3C621.2,1386.3,621.1,1386.2,621,1386.2z M626.6,1377.6c5.2-0.9,10.5-0.6,15.8-2.9
				c-3,0.3-5.6,0.4-8.2,0.9C631.6,1376,629.2,1376.9,626.6,1377.6z M608.7,1392.2c2.5-0.4,3.7-1.3,4.7-2.7
				C612.1,1390.2,610.8,1391,608.7,1392.2z"/>
			<path class="st4" d="M818,1439.3c-7.2,10.8-11.7,23-17.4,34.6c-4.5,9.1-10.6,16.8-18.9,22.8c-3,2.2-6.2,4.6-9.8,4.7
				c-6,0.2-8.4,4-11.1,8.3c-3.3,5.2-7.3,9.9-12.6,13.3c-13.9,9.1-29.9,2-32.2-14.5c-0.9-6.1-0.1-12,3.7-17.1
				c2.9-3.9,6.5-6.4,12.7-5.9c-2.6,1.7-4.6,2.7-6.2,4.2c-6.1,5.4-6.9,16.2-1.8,23.3c4.7,6.6,12.7,8.1,20.4,3.9
				c5.9-3.2,9.9-8.2,13.9-13.4c1.3-1.7,0.5-2.4-0.8-3.5c-10.6-9.5-9.6-28.8,1.9-37.3c6.9-5.2,13.1-2.6,14.2,6
				c0.9,6.9-0.5,13.6-2.6,20.1c-0.6,1.8-1.2,3.7-2,6.1c9.1-2.1,14.9-7.7,20.3-13.8c6-6.8,10.1-14.8,14.2-22.8
				c3.6-7.1,7-14.4,13.4-19.6C817.6,1439,817.8,1439.2,818,1439.3z M768.9,1474.7c0-1,0-2-0.2-3c-0.3-1.7-0.1-4.1-2.1-4.7
				c-1.9-0.5-3.2,1.4-4.4,2.7c-5.1,5.9-5.6,17-1.1,22.8c1.6,2.1,2.8,2.6,3.9-0.5C767.1,1486.5,768.6,1480.7,768.9,1474.7z"/>
			<path class="st4" d="M657.9,1557.4c-6.6-1-9.3-5.5-11.4-11.1c-4.2,5.1-9.3,8.4-15.6,9.4c-8.5,1.3-16.6,0.3-21.9-7.3
				c-5.4-7.6-5.2-16-0.8-24.1c5.9-10.9,19-15.9,32.4-12.8c0.3,0.1,0.6,0.2,1,0.3c14.6,4.8,12.9,4.8,11.8,16.7c-0.3,3-0.5,6-1,8.9
				C651.2,1544.9,652.7,1551.6,657.9,1557.4z M626.8,1550.1c4.7,0.2,8.8-1.5,12.3-4.5c7.5-6.3,8.1-15.1,8.8-24
				c0.1-1-0.5-1.5-1.3-1.9c-11.6-6-29.1-3.4-33.6,11.8C610.1,1541.7,616.3,1550.1,626.8,1550.1z"/>
			<path class="st4" d="M598.5,1479.7c-13.1-8.4-26.4-4.2-32.9,3.1c-2.1,2.3-2.6,3.9-0.6,6.7c1.8,2.4,5.4,6,3.5,7.9
				c-2.4,2.3-5.2-2-7.6-3.6c-2.2-1.5-3.2-1.1-4.7,0.9c-4.3,5.9-9.1,11.5-14.8,16.1c-5.1,4.2-10.8,7.1-17.4,8
				c-0.9,0.1-2.2,0.4-2.6-0.7c-0.5-1.2,0.7-1.7,1.6-2.1c12.4-4.4,19.7-14,26-24.9c2.1-3.7,2-5.7-1.1-8.2c-1.4-1.1-4.1-2.5-2.9-4.5
				c1.1-1.8,3.9-0.7,5.5,0.2c4.6,2.6,7.3,0.6,10.5-2.6c8.8-8.8,21.7-10.5,31.6-4.7C595.7,1473,598,1475.2,598.5,1479.7z"/>
			<path class="st4" d="M677.7,1553.2c-2.8-4-3.8-8.5-5-12.9c-2.3-8.5-4.3-17.1-6.5-25.6c-0.2-1-0.3-2-0.2-3c0-1.5,0.3-3.2,2-3.7
				c2-0.6,2.4,1.4,3,2.7c1.3,3.3,2.4,6.6,4,11c0.9-3.5,1.4-6.1,2.3-8.5c2.9-8.2,9.2-10.6,17.1-6.4c5.3,2.8,9.1,7.2,12.4,12.1
				c2.8,4.1,5.3,8.4,8.2,12.5c2.3,3.3,5.2,6,9.6,7.3c-3.3,2.5-6.2,1.2-8.8-0.4c-3.6-2.2-6.1-5.6-8.5-9c-3.5-5-7.1-10.1-11.8-14.1
				c-6.7-5.6-11-4.3-13.3,4c-2.5,9.2-2.3,18.8-2.9,28.2C679,1549.3,679.8,1551.4,677.7,1553.2z"/>
			<path class="st5" d="M843,1442.2c-2.8-0.9-3.4-3.7-4.8-5.7c-3.7-5.3-7.3-10.7-10.9-16.1c-1.8-2.7-3.3-3.3-6.2-1.1
				c-5.9,4.5-12.8,6.7-20.3,7.9c6.1-5,13.2-8.7,19.2-14.4c-6.7-6.3-14.4-10.8-21.6-16.2c8.2,2.1,15.8,5.9,24.2,10.4
				c0-9,0-17.1,0-25.2c0.5,0,1-0.1,1.5-0.1c2.3,8.6,2.4,17.6,3.9,26.7c9-2.9,17.6-5.8,27.2-5.2c-4.7,1.9-9.4,3.9-14.1,5.9
				c-3.4,1.4-8.1,2.1-9.6,4.6c-1.6,2.7,2.7,6,4,9.3c2.7,6.4,5.3,12.9,7.4,19.5L843,1442.2z"/>
			<path class="st4" d="M673.8,1436.3c-0.6,7.8-3.7,11.9-10.7,13.9c-1.7,0.5-2.3,1.1-2,2.6c1.2,5.7,3.1,10.8,9.4,12.7
				c1.1,0.7,2.2,1.4,3.6,0.6c0,0-0.1-0.1-0.1-0.1c3.8,2,7.9,1.7,12,1.9c10.2,0.6,20.2,1.9,29.8,5.2c3.4,1.2,6.8,2.5,9,5.5
				c-0.7,1.7-1.8,1-2.6,0.7c-11.6-4-23.6-5.2-35.8-5.2c-5,0-10-0.4-14.8-1.8c-9.4-2.7-14.2-9.2-13.1-18.9c0.3-2.8-0.5-3.4-2.7-4
				c-7.1-1.9-13.3-5.5-19.3-9.7c6.9,1.7,13.6,4.2,20.6,5.6c6.8,1.3,11.7-0.5,15-6.7C672.5,1437.7,673.2,1437,673.8,1436.3z"/>
			<path class="st4" d="M566.5,1541.4c0.3-2.2,1.1-4.1,2.2-6.1c5.2-9.3,10.4-18.5,15.6-27.8c2-3.6,3.9-7.3,5.7-11
				c0.5-1.1,0.2-2.9,2.3-2.5c1.6,0.3,2.4,1.6,2.1,2.9c-0.6,3.8,1.7,2.6,3.4,2.1c5.2-1.5,10.5-1.1,15.8-0.7c1.3,0.1,3,0.2,3,1.9
				c0,1.4-1.5,1.8-2.6,1.8c-14.5-0.6-22,9.2-29.3,19.4c-5,7-9.7,14.3-14.5,21.5c-0.6,0.9-1.1,2.5-2.5,2
				C566.3,1544.3,566.3,1542.7,566.5,1541.4z"/>
			<path class="st4" d="M654.5,1427.8c2.3-2.6,12.8-4.9,15.4-3.7c3.7,1.8,2,4.7,1.4,7.3c-0.8,3.2-3.4,2.1-5.3,1.5
				C662.1,1431.6,658.8,1428.9,654.5,1427.8z"/>
			<path class="st4" d="M671.9,1418.2c3.2-3.2,1.1-5.5-1.3-7.8c-2.5-2.4-4.4-5.3-1.7-8.7c2-2.4,6.2-2.3,10.4,0.5
				c-3.1-0.6-5.6-1.4-7.8,0.3c-1.5,1.2-2.4,2.8-0.1,3.8c1.9,0.8,5.8,0.3,5,2.5c-1.1,3.3,1,8.2-3.8,10.1
				C672.4,1418.6,672.2,1418.4,671.9,1418.2z"/>
			<path class="st2" d="M630,1371.3c5-1.7,10-2.7,15.3-2.6c1.1,0,2.8,0.7,3-1.4c2.2,0.6,5.1,0.1,5.8,3.3
				C646,1368.5,638,1370.1,630,1371.3L630,1371.3z"/>
			<path class="st4" d="M660.9,1396.4c-4.7-1.9-9.5-2.6-14.9-1.8C651.6,1390.4,656.6,1391,660.9,1396.4z"/>
			<path class="st4" d="M648.3,1402c3.2-2.7,5.5-2.7,7.9-1.8c1.3,0.5,2,1.6,2.1,3c0,0.7-0.1,1.5-0.9,1.4c-1.3-0.1-3.2,0.1-3.5-1.2
				C653.2,1400.7,651.4,1401.3,648.3,1402z"/>
			<path class="st4" d="M672.7,1418.8c-0.5,0.4-0.9,0.7-1.4,1.1c-0.5-0.9-0.3-1.5,0.7-1.7C672.2,1418.4,672.4,1418.6,672.7,1418.8z"
				/>
			<path class="st4" d="M817.5,1438.9c0.4-0.4,0.9-0.8,1.3-1.2c0.6,1,0,1.4-0.8,1.7C817.8,1439.2,817.6,1439,817.5,1438.9z"/>
			<path class="st5" d="M842.9,1442.2c0.2,0.2,0.4,0.4,0.5,0.6c-0.2,0-0.4,0-0.6,0.1c0-0.2,0.1-0.5,0.1-0.7
				C843,1442.2,842.9,1442.2,842.9,1442.2z"/>
			<path class="st0" d="M359.5,1033.2c0.1-5,1-11,3.4-16.8c2.6-6.3,7.5-8.9,14-9.4c6.1-0.4,11.1,1.3,14.8,6.4
				c6.7,9.3,7.6,28.3,1.7,38.1c-4.4,7.3-11.1,8.9-18.9,8c-6.9-0.8-11-4.9-13-11.3C360,1043.7,359.5,1039.1,359.5,1033.2z"/>
			<path class="st0" d="M1067.6,1061c-6.7,0-12.4-3.8-14.9-9.8c-2.4-5.8-0.9-12.9,3.7-17.5c7.4-7.5,7.8-7.4,14.3,0.7
				c4.2,5.3,8.3,10.8,12.8,16c2,2.3,1.3,3.5-0.7,5.1C1078.3,1059.1,1073.2,1060.8,1067.6,1061z"/>
			<path class="st0" d="M1071.6,980.2c7.3,0,10.9,5.1,8.9,12.5c-1,3.7-7.2,11.2-9.2,10.4c-3.7-1.6-5.7-5.3-7.3-8.9
				C1060.4,986.3,1063.8,980.2,1071.6,980.2z"/>
			<path class="st0" d="M695.1,1036c0,2.9-0.6,8.1-2.8,13.1c-3.2,7.3-8.9,10.8-17,10.6c-7.6-0.2-13.2-4.1-15.6-11.7
				c-3.1-9.7-3.3-19.6,0.2-29.3c2.5-6.9,7.5-10.7,15-11.2c8.1-0.5,13.7,2.9,17.3,10.1C694.7,1022.5,695.2,1028,695.1,1036z"/>
			<path class="st0" d="M255.3,1196c0,6.7-0.5,12.1-2.7,17.3c-2.7,6.4-7.4,10-14.5,10.4c-7.5,0.4-13.6-2.1-16.8-9.1
				c-5-10.9-5.3-22.2-0.4-33.3c2.9-6.7,8.4-10.1,15.9-9.8c7.5,0.2,12.9,3.7,15.9,10.7C254.7,1186.9,255.3,1191.9,255.3,1196z"/>
			<path class="st0" d="M792,1188.6c-4.5,0-9-0.1-13.5,0c-2.4,0.1-3.1-0.7-2.9-3.2c0.7-8.9,7.8-15,17.4-14.8
				c9.1,0.2,15.4,6.5,15.8,15.3c0.1,2.5-1,2.7-2.9,2.6C801.3,1188.6,796.7,1188.6,792,1188.6z"/>
			<path class="st0" d="M820.8,1024.6c-4.7,0-9.3-0.1-14,0c-2.2,0-2.8-0.6-2.5-2.9c1.2-9.2,7.6-15.1,16.8-15.1
				c9.5,0,15.4,5.4,16.6,15.1c0.3,2.1,0,3-2.4,2.9C830.4,1024.5,825.6,1024.6,820.8,1024.6z"/>
			<path class="st0" d="M996.2,1188.6c-4.5,0-9-0.2-13.5,0.1c-2.9,0.1-3.3-1.1-3-3.5c1-8.6,7.4-14.3,16.3-14.5
				c9.3-0.2,15.2,4.7,16.7,13.7c0.5,3,0.1,4.6-3.5,4.4C1004.9,1188.4,1000.5,1188.6,996.2,1188.6z"/>
			<path class="st0" d="M329.2,1188.6c-4.6,0-9.3-0.1-13.9,0c-2.2,0-2.8-0.8-2.6-3c1-9.2,7.8-15.2,17.3-15
				c9.4,0.2,15.5,6.2,16.2,15.5c0.1,2.2-0.7,2.5-2.5,2.5C338.8,1188.6,334,1188.6,329.2,1188.6z"/>
			<path class="st0" d="M557,1031.6c-0.1-4.3,0.3-8.8,1.9-13.3c2.6-7.3,7.9-10.9,15.3-11.5c6.8-0.5,12.9,3.2,15.8,10.1
				c4.6,11.1,4.1,22.5-0.5,33.5c-2.8,6.8-9.3,10.4-15.4,9.8c-7.8-0.7-12.6-4.6-15.1-12.4C557.4,1042.7,556.9,1037.4,557,1031.6z"/>
			<path class="st0" d="M494.1,1195.8c-0.1-4.5,0.4-9,1.9-13.2c2.7-7.5,8-11.6,15.6-11.8c7.3-0.2,12.6,3.5,15.4,9.9
				c4.8,11.4,4.4,23.2-0.7,34.4c-3,6.7-9.5,10-15.8,9.1c-7.2-1-12.2-4.8-14.3-12.1C494.8,1206.7,494,1201.3,494.1,1195.8z"/>
			<path class="st1" d="M745.3,1424.6c-0.8,0.8-1.5,1.7-3,1.6c-0.1-1.4,1-1.9,1.8-2.6C744.5,1423.9,744.9,1424.3,745.3,1424.6z"/>
			<path class="st1" d="M706.4,1427.8c-0.6,1.1-1.9,2.1-2.7,1.2c-0.8-0.9,0.9-1.6,1.5-2.4C705.6,1427,706,1427.4,706.4,1427.8z"/>
			<path class="st1" d="M674.1,1466.2c-1.4,0.7-2.5,0-3.6-0.6C672,1464.2,673.3,1463.7,674.1,1466.2z"/>
			<path class="st1" d="M699.7,1446c0.5-0.7,1-2,1.9-1.3c0.9,0.7-0.3,1.5-0.9,2.2C700.4,1446.6,700.1,1446.3,699.7,1446z"/>
			<path class="st1" d="M680.6,1442c-0.4,0.8-1.3,1.6-1.9,1c-1.1-0.9,0.6-1.4,0.8-2.3C679.9,1441.2,680.3,1441.6,680.6,1442z"/>
			<path class="st1" d="M722.3,1427.7c0.5-0.6,0.9-1.2,1.4-1.8c0.3,0.3,0.6,0.6,0.9,1c-0.5,0.5-1,1-1.5,1.5
				C722.8,1428.2,722.5,1427.9,722.3,1427.7z"/>
			<path class="st1" d="M723.1,1428.4c-0.3,0.5-0.5,1.3-1.2,0.7c-0.7-0.5,0.2-0.9,0.4-1.4C722.5,1427.9,722.8,1428.2,723.1,1428.4z"
				/>
			<path class="st1" d="M732.5,1427.7c0.3-0.4,0.6-0.8,1-1.1c0.3,0.3,0.6,0.7,0.9,1c-0.2,0.4-0.4,0.8-0.6,1.1
				C733.4,1428.4,732.9,1428.1,732.5,1427.7z"/>
			<path class="st1" d="M733.5,1426.6c0.4-0.3,0.7-1.3,1.4-0.5c0.6,0.7-0.2,1.1-0.5,1.6C734,1427.3,733.8,1426.9,733.5,1426.6z"/>
			<path class="st1" d="M735.8,1424.7c0,0.1,0,0.2,0,0.3c-0.1,0.1-0.2,0.2-0.3,0.1c-0.4-0.2-0.4-0.4,0-0.6
				C735.6,1424.5,735.7,1424.6,735.8,1424.7z"/>
			<path class="st2" d="M626.6,1377.6c2.5-0.7,5-1.5,7.5-2c2.6-0.5,5.2-0.6,8.2-0.9C637.2,1376.9,631.8,1376.7,626.6,1377.6z"/>
			<path class="st2" d="M620.9,1386.3c-1.7,0.9-3.3,1.7-5,2.6c-0.1-0.2-0.2-0.4-0.3-0.5C617.5,1387.6,619.2,1386.9,620.9,1386.3
				L620.9,1386.3z"/>
			<path class="st2" d="M608.7,1392.2c2.1-1.2,3.4-2,4.7-2.7C612.4,1390.9,611.2,1391.8,608.7,1392.2z"/>
			<path class="st1" d="M615.1,1409.3c-0.5,1.1-2,1.3-2.3,0.6c-0.4-1,1.2-0.9,1.9-1.3C614.8,1408.8,615,1409,615.1,1409.3z"/>
			<path class="st2" d="M621,1386.2c0.1,0.1,0.2,0.1,0.3,0.2c0.1-0.1,0.1-0.2,0.2-0.3C621.3,1386.1,621.1,1386.2,621,1386.2
				C620.9,1386.3,621,1386.2,621,1386.2z"/>
			<path class="st2" d="M630.1,1371.3c-0.1,0-0.2,0-0.2,0.1C629.9,1371.3,629.9,1371.3,630.1,1371.3
				C630,1371.3,630.1,1371.3,630.1,1371.3z"/>
			<path class="st2" d="M768.9,1474.7c-0.3,6-1.7,11.8-3.9,17.4c-1.2,3.1-2.3,2.6-3.9,0.5c-4.5-5.8-4-16.9,1.1-22.8
				c1.2-1.4,2.5-3.2,4.4-2.7c2,0.5,1.8,2.9,2.1,4.7C768.9,1472.7,768.8,1473.7,768.9,1474.7z"/>
			<path class="st2" d="M626.8,1550.1c-10.5,0-16.7-8.5-13.8-18.6c4.5-15.2,22-17.8,33.6-11.8c0.8,0.4,1.3,1,1.3,1.9
				c-0.6,8.8-1.3,17.7-8.8,24C635.6,1548.6,631.5,1550.3,626.8,1550.1z"/>
		</g>
	</g>
</g>
</svg>
