<?xml version="1.0" encoding="utf-8"?>
<!-- Generator: Adobe Illustrator 25.1.0, SVG Export Plug-In . SVG Version: 6.00 Build 0)  -->
<svg version="1.1" id="Calque_1" xmlns="http://www.w3.org/2000/svg" xmlns:xlink="http://www.w3.org/1999/xlink" x="0px" y="0px"
	 viewBox="0 0 557.9 569.3" style="enable-background:new 0 0 557.9 569.3;" xml:space="preserve">
<style type="text/css">
	.st0{fill:#522665;}
	.st1{fill:#FEFEFE;}
	.st2{fill:#9C9E9F;}
</style>
<g>
	<g>
		<path class="st0" d="M21,284c0-85.2,0-170.3,0-255.5c0-1.7,0.3-2.2,2.2-2.2c170.5,0.1,341,0.1,511.5,0c2,0,2.3,0.5,2.3,2.4
			c-0.1,170.4-0.1,340.8,0,511.3c0,1.9-0.3,2.4-2.3,2.4c-170.4-0.1-340.9-0.1-511.3,0c-2.1,0-2.4-0.6-2.4-2.5
			C21.1,454.5,21,369.3,21,284z M526.4,284.3c0-81.5,0-163,0.1-244.5c0-2.3-0.4-3-2.9-3c-163.1,0.1-326.2,0.1-489.2,0
			c-2.4,0-2.8,0.7-2.8,2.9c0.1,163.1,0.1,326.1,0,489.2c0,2.2,0.4,2.9,2.8,2.9c163.1-0.1,326.2-0.1,489.2,0c2.5,0,2.9-0.7,2.9-3
			C526.4,447.3,526.4,365.8,526.4,284.3z"/>
		<path class="st1" d="M526.4,284.3c0,81.5,0,163,0.1,244.5c0,2.3-0.4,3-2.9,3c-163.1-0.1-326.2-0.1-489.2,0c-2.4,0-2.8-0.6-2.8-2.9
			c0.1-163.1,0.1-326.1,0-489.2c0-2.2,0.4-2.9,2.8-2.9c163.1,0.1,326.2,0.1,489.2,0c2.5,0,2.9,0.7,2.9,3
			C526.4,121.3,526.4,202.8,526.4,284.3z M241.8,174.1c-0.1-1-0.2-2.1-0.2-3.1c0-16.1,0-32.1,0-48.2c0-18.7,0-37.4,0-56.1
			c0-2-0.5-2.6-2.6-2.6c-6.1,0.1-12.3,0.1-18.5,0.1c-4.2-5.7-8.4-11.4-12.7-17.2c-0.6,0.6-1.2,1.1-1.8,1.7
			c-5.4,5.2-10.8,10.4-16.2,15.6c-0.3,0-0.6-0.1-1-0.1c-43.2,0-86.4,0-129.6-0.1c-2.1,0-2.3,0.8-2.3,2.5c0,66.9,0,133.7,0,200.6
			c0,2.2,0.7,2.8,2.9,2.8c59.6-0.1,119.2-0.1,178.7,0c2.4,0,2.9-0.8,2.9-3c-0.1-15.9-0.1-31.8,0-47.7c0-1.1,0.1-2.2,0.2-3.3
			c20.4,0,40.8,0,61.4,0c-1.6-3.7-2.7-7.1-3-10.7c0-0.3-0.1-0.8-0.3-0.8c-2.1-0.5-3.5-2.2-5.9-2.2c-17.4,0.1-34.8,0-52.2,0
			c-0.5-4.8-0.2-9.6-0.2-14.3c0.8,0,1.6-0.1,2.4-0.1c19.1,0,38.2,0,57.3,0c1.6,0,2.4-0.4,3.1-1.9c1.1-2.5,2.5-4.8,3.8-7.2
			c0.8-1.6,2.2-2.8,2.8-4.7C287.8,174.1,264.8,174.1,241.8,174.1z M313.6,228.1c-0.1,0.5-0.2,0.7-0.2,1c0,13,0,26.1-0.1,39.1
			c0,2,1,1.9,2.4,1.9c59.8,0,119.6,0,179.5,0c1.8,0,2.5-0.4,2.4-2.4c-0.1-8.5,0-17,0-25.4c0-5.4,0-5.4-5.5-4.7
			c-22,2.9-43.7,6.9-65.3,11.7c-30.3,6.7-60.9,11.4-91.6,15.9c-4.1,0.6-7.8-0.4-10.6-3.7c-1.5-1.7-2.2-3.7-1.3-6
			c0.9-2.4,2.9-3.3,5.3-3.5c12.4-1.1,24.7-3.2,36.9-5.7c23.9-4.9,47.6-10.4,71.7-14.4c19.2-3.2,38.5-6.2,57.9-8.3
			c2.1-0.2,2.6-0.9,2.6-2.9c-0.1-51.3-0.1-102.5,0-153.8c0-2.2-0.7-2.8-2.8-2.8c-59.6,0.1-119.2,0.1-178.7,0c-2.3,0-2.8,0.7-2.8,2.8
			c0.1,33.9,0,67.8,0.1,101.7c0,0.7-0.3,1.4,0.4,2.1c0.3-0.2,0.5-0.4,0.7-0.6c17.6-19.9,40.2-31.5,65.2-39c7-2.1,14.2-2.3,21.2,0.7
			c5.8,2.5,8.3,6.8,7.5,13c-0.2,1.8-0.8,3.6-1.5,5.3c-1.6,3.8-3.9,7.2-6.6,10.3c-12.8,14.9-28.1,26.7-45.5,35.8
			c-10.2,5.3-20.7,9.8-32.2,11.3c-2.5,0.3-5,0.3-7.7,0.5c0.6,1,1,1.8,1.5,2.5c3.9,5.7,9.5,8.9,16,10.6c10.2,2.6,20.5,1.8,30.7-0.1
			c16.7-3.1,32.8-8.3,48.8-13.8c17.8-6.1,35.2-13.1,52.7-19.8c6.4-2.4,12.9-4.1,19.8-4.1c1.7,0,3.3,0.3,4,2.1
			c0.7,1.7-0.1,3.1-1.2,4.4c-1.1,1.2-2.5,2-3.9,2.7c-30,14.3-60.7,27.1-92.6,36.8c-13.1,4-26.4,7.2-40.2,7.3
			C337.7,236.5,325.1,235.1,313.6,228.1z M388.5,140.4c0,0.1,0,0.1,0,0.2c-1,0-1.9-0.1-2.9,0c-1.3,0.2-2.7,0.4-4,0.7
			c-14.8,3.9-28.3,10.2-40.5,19.5c-10.8,8.2-19.4,18.2-25,30.7c-1.2,2.8-1.2,2.9,1.9,2.7c5.4-0.4,10.6-1.6,15.6-3.5
			c20-7.5,37-19.7,52.3-34.3c3.5-3.3,6.7-6.9,8.5-11.4c1.1-2.6,0.5-3.5-2.2-4C391,140.6,389.7,140.6,388.5,140.4z M293.9,317.9
			c0.5-0.9,1.3-1,1.9-1.3c4.8-2.6,7.4-7.9,6.4-13.3c-1-5.1-4.3-8.2-10.2-8.9c-6-0.7-12-0.1-18-0.3c-2.1-0.1-2.7,0.6-2.8,2.7
			c-0.3,6.4-0.8,12.8-1.3,19.1c-0.6,8.3-1.1,16.6-1.7,24.9c-0.1,1.9,0.5,2.3,2.3,2.3c4.3-0.1,8.6-0.1,13,0c2.7,0,5.4-0.1,8.1-0.9
			c6.3-2,9.8-6.1,10.3-12.7C302.1,323.7,299.7,319.6,293.9,317.9z M194.4,380c-2,0-4,0.2-6,0c-2.3-0.2-3,0.7-2.8,2.8
			c0,0.4,0,0.8,0,1.2c-0.3,4.2-0.3,4.3,4.1,4.5c1.3,0.1,2,0.3,1.8,1.8c-0.2,2.6-0.4,5.3-0.5,7.9c-0.1,1-0.6,1.3-1.5,1.6
			c-5.6,1.3-11-1.4-13-6.8c-1.9-5-1.6-10,0.1-15c2.6-7.4,8-10.9,15.8-10.5c2.8,0.2,5.4,0.9,7.9,2c1.1,0.5,1.7,0.5,1.8-1
			c0.2-2.1,0.5-4.1,0.9-6.2c0.3-1.5-0.3-2.1-1.8-2.5c-4.5-1.2-9-1.5-13.5-1.3c-11.1,0.6-19.6,7.2-22.9,17.8
			c-1.7,5.5-2,11.2-0.7,16.8c1.7,8.1,6.6,13.2,14.6,15.1c7.1,1.6,14.1,0.7,21.1-1.2c0.9-0.2,1.6-0.6,1.7-1.7
			c0.5-7.8,1-15.6,1.6-23.4c0.1-1.5-0.6-1.8-1.8-1.7C198.9,380.1,196.7,380,194.4,380z M254.6,343.1c1.4,0,2.7,0,4.1,0
			c1.4,0.1,2-0.2,1.6-1.9c-3.8-15.1-7.6-30.2-11.4-45.3c-0.3-1.3-1-1.8-2.3-1.8c-3,0.1-5.9,0.1-8.9,0c-1.4,0-2.1,0.5-2.6,1.8
			c-2.2,5.7-4.6,11.4-6.8,17.1c-3.7,9.3-7.4,18.5-11.2,27.8c-0.8,1.8-0.5,2.4,1.5,2.3c2.3-0.1,4.6-0.1,6.9,0
			c1.5,0.1,2.1-0.5,2.6-1.8c0.8-2.3,1.9-4.6,2.6-7c0.5-1.8,1.5-2.3,3.3-2.2c2.4,0.1,4.8,0,7.2,0c5.5,0,5.5,0,6.5,5.3
			C248.7,343.1,248.7,343.1,254.6,343.1z M246.3,407.9c1.4,0,2.7-0.1,4.1,0c1.5,0.1,1.9-0.3,1.5-1.9c-3.8-15-7.6-30-11.3-45.1
			c-0.3-1.4-1-1.7-2.3-1.7c-3,0.1-5.9,0.1-8.9,0c-1.5-0.1-2.2,0.6-2.8,1.9c-2.2,5.6-4.4,11.1-6.7,16.7c-3.7,9.3-7.4,18.5-11.2,27.8
			c-0.8,1.8-0.4,2.4,1.6,2.3c2.3-0.1,4.6-0.1,6.9,0c1.3,0.1,2-0.4,2.5-1.7c0.8-2.4,1.9-4.8,2.7-7.2c0.5-1.5,1.3-2,2.8-1.9
			c2.7,0.1,5.4,0,8.1,0c5,0,5,0,6,4.8C240.5,407.9,240.5,407.9,246.3,407.9z M400.8,389.3c1.4-0.2,2.5-0.2,3.6-0.5
			c7.4-1.5,13.9-5.1,19.8-9.6c4.1-3.1,8-6.4,10.7-10.9c3.4-5.6,1-9.8-5.5-9.9c-4.2-0.1-8,1.4-11.7,3.1c-9.7,4.3-18.3,9.8-22.6,20.2
			c-0.2,0.5-0.4,0.8-1,0.8c-1.3,0-2.2,0.7-2.3,2c-0.2,1.1,0.4,2.2,1.4,2.8c0.8,0.5,1.1,1.1,1.3,1.9c1,5,4.2,8.1,9,9.6
			c5.9,1.9,11.8,1.8,17.8,0.6c11.3-2.3,22-6.5,32.5-11c3.9-1.6,7.7-3.5,11.5-5.3c1.2-0.5,2.5-1.3,2-2.8c-0.4-1.5-1.8-1.3-3-1.2
			c-3,0.1-5.8,1.1-8.5,2.2c-9.8,3.8-19.6,7.7-29.7,10.5c-5.6,1.5-11.1,2.9-17,2.2C405.8,393.5,402.8,392.4,400.8,389.3z
			 M370.6,408.2c3.2,0,6.4,0,9.6,0c4.7,0,4.7,0,5.3-4.6c0.1-0.6,0.1-1.3,0.2-1.9c0.4-1.8-0.3-2.4-2.2-2.3c-4.4,0.1-8.8,0-13.2,0.1
			c-1.7,0-2.5-0.3-2.3-2.3c0.3-2.8,0.4-5.6,0.6-8.4c0.1-1.3,0.7-1.6,1.8-1.6c2.6,0,5.3,0,7.9,0c6.9,0,6.8,0,7.1-6.9
			c0.1-1.5-0.5-1.7-1.7-1.7c-3.9,0.1-7.8-0.1-11.8,0.1c-1.9,0.1-2.8-0.4-2.5-2.5c0.3-2.1,0.5-4.1,0.5-6.2c0-1.7,0.7-2,2.2-2
			c3,0.1,6.1,0,9.1,0c6.1,0,6.1,0,6.5-6.2c0.1-1.8-0.3-2.5-2.3-2.5c-7.8,0.1-15.7,0.1-23.5,0c-1.8,0-2.4,0.5-2.6,2.4
			c-1,14.8-2,29.5-3.2,44.2c-0.1,1.9,0.5,2.3,2.2,2.3C362.5,408.1,366.5,408.2,370.6,408.2z M139.1,408.2c2.7,0,5.4,0,8.2,0
			c6.6,0,6.6,0,6.8-6.6c0-1.7-0.5-2.2-2.2-2.2c-4.6,0.1-9.1,0-13.7,0c-1.4,0-2.1-0.3-1.9-1.9c0.3-2.8,0.6-5.6,0.7-8.4
			c0.1-1.6,0.8-2,2.2-2c4.1,0.1,8.2,0,12.2,0c1.4,0,2.1-0.3,2.1-1.8c0-1.6,0.1-3.2,0.4-4.8c0.2-1.6-0.3-2.1-1.9-2.1
			c-4.2,0.1-8.3,0-12.5,0c-1.4,0-1.9-0.4-1.7-1.8c0.2-2.2,0.4-4.5,0.5-6.7c0.1-1.6,0.6-2.3,2.3-2.2c3,0.1,5.9,0,8.9,0
			c6.3,0,6.3,0,6.5-6.3c0.1-1.8-0.4-2.4-2.2-2.3c-7.9,0.1-15.8,0.1-23.8,0c-1.9,0-2.3,0.7-2.4,2.4c-0.2,3.8-0.5,7.7-0.7,11.5
			c-0.7,10.9-1.5,21.8-2.3,32.8c-0.1,1.9,0.5,2.4,2.3,2.3C131,408.1,135,408.2,139.1,408.2z M325.1,343.1c3.4,0,6.9,0,10.3,0
			c4.1,0,4.1,0,4.4-4.2c0.1-0.7,0.1-1.4,0.2-2.1c0.4-1.8-0.2-2.4-2.1-2.4c-4.6,0.1-9.1,0-13.7,0.1c-1.4,0-2-0.4-1.9-1.9
			c0.2-2.9,0.4-5.7,0.6-8.6c0.1-1.3,0.7-1.6,1.9-1.6c2.8,0,5.6,0,8.4,0c6.6,0,6.6,0,6.6-6.8c0-1.5-0.5-1.9-1.9-1.9
			c-3.9,0.1-7.8-0.1-11.8,0c-1.7,0-2.5-0.4-2.3-2.3c0.3-2.1,0.4-4.3,0.5-6.5c0-1.6,0.5-2.3,2.2-2.2c2.9,0.1,5.8,0,8.6,0
			c6.8,0,6.7,0,6.9-6.7c0-1.4-0.3-2-1.8-2c-8.2,0.1-16.3,0.1-24.5,0c-1.4,0-1.9,0.4-2,1.9c-1,15-2.1,30-3.2,44.9
			c-0.1,1.8,0.5,2.2,2.1,2.1C316.8,343,321,343.1,325.1,343.1z M335,359.3c-4.8,0-9.6,0-14.4,0c-1,0-2-0.1-2,1.4
			c-0.1,1.9-0.2,3.8-0.4,5.7c-0.1,1.2,0.3,1.7,1.6,1.7c2.2-0.1,4.5,0.1,6.7,0c1.9-0.1,2.3,0.6,2.1,2.3c-0.9,11.9-1.7,23.7-2.6,35.6
			c-0.1,1.5,0.4,2,1.8,1.9c2.3-0.1,4.7-0.2,6.9,0c2.4,0.2,2.9-0.8,3-3c0.7-11,1.5-22,2.3-33c0.3-3.9,0.3-3.9,4.4-3.9
			c6.9,0,6.9,0,6.9-6.9c0-1.5-0.5-1.9-1.9-1.9C344.6,359.3,339.8,359.3,335,359.3z M198.3,343.1c2.5,0,5,0,7.4,0
			c6.7,0,6.6,0,6.9-6.7c0.1-1.9-0.6-2.3-2.3-2.2c-3.7,0.1-7.4-0.1-11,0.1c-1.9,0.1-2.8-0.5-2.5-2.5c0.3-3.1,0.5-6.2,0.7-9.3
			c0.6-8.7,1.2-17.4,1.8-26c0.1-1.5-0.3-2.2-1.9-2.1c-2.6,0.1-5.1,0.1-7.7,0c-1.5-0.1-1.9,0.5-2,1.9c-1,15-2.1,30.1-3.2,45.1
			c-0.1,1.6,0.5,1.9,1.9,1.8C190.3,343,194.3,343.1,198.3,343.1z M362.9,343.1c2.5,0,5,0,7.4,0c6.8,0,6.7,0,6.9-6.9
			c0-1.6-0.5-2.1-2-2.1c-3.7,0.1-7.3,0-11,0c-3,0-2.9,0-2.7-3.1c0.9-11.7,1.7-23.4,2.5-35.1c0.1-1.5-0.5-1.8-1.8-1.8
			c-2.6,0.1-5.1,0.1-7.7,0c-1.7-0.1-2.2,0.5-2.3,2.2c-0.2,4.1-0.5,8.3-0.8,12.4c-0.7,10.7-1.4,21.3-2.2,32c-0.1,1.8,0.3,2.4,2.2,2.4
			C355.2,343,359.1,343.1,362.9,343.1z M273.5,407.9c2.6,0,5.1,0,7.7,0c6.8,0,6.7,0,6.8-6.9c0-1.4-0.4-2-1.9-2
			c-3.9,0.1-7.8-0.1-11.8,0.1c-1.8,0-2.4-0.4-2.3-2.3c0.5-5.5,0.8-11,1.2-16.5c0.4-6.3,0.8-12.6,1.3-18.9c0.1-1.7-0.4-2.3-2.1-2.2
			c-2.5,0.1-5,0.1-7.4,0c-1.4,0-2,0.4-2.1,1.9c-1,15-2,30-3.1,45c-0.1,1.4,0.3,1.9,1.7,1.8C265.5,407.9,269.5,407.9,273.5,407.9z
			 M301.4,407.9c1.1,0,2.3-0.1,3.4,0c2.1,0.3,2.7-0.6,2.8-2.7c0.1-3.7,0.5-7.5,0.7-11.2c0.7-10.8,1.5-21.7,2.2-32.5
			c0.1-1.6-0.2-2.4-2-2.3c-2.6,0.1-5.1,0.1-7.7,0c-1.3,0-1.8,0.4-1.9,1.8c-0.9,13.8-2,27.6-2.9,41.3
			C295.7,407.9,295.8,407.9,301.4,407.9z M407.7,411.4c8-1.3,16-2.4,23.9-3.9c11.7-2.2,23.2-5,35-6.6c2.8-0.4,5.7-0.5,8.6-0.8
			c1.3-0.1,2.7-0.4,3-1.9c0.3-1.3-0.7-2.2-1.7-2.9c-1.6-1.2-3.4-1.2-5.3-1c-9.5,0.9-19,2.5-28.4,4.1c-12.6,2.2-24.9,5.8-37.6,7
			c-1.2,0.1-2,0.7-2.2,1.8c-0.2,1.2,0.2,2.2,1.2,3C405.1,411.1,406.3,411.3,407.7,411.4z M335.5,489.7c0.2,0,0.4,0,0.6,0
			c0.7,2.9,1.3,5.9,2,8.8c0.2,0.9,0.3,2.1,1.7,1.8c1.4-0.2,3.3,1,4.2-1.2c1.7-4.4,3.3-8.8,5-13.2c0.4-1.1,0-1.3-1-1.4
			c-1.7-0.2-2.8,0.2-3.4,2.1c-0.8,2.9-2,5.7-3,8.6c-1.1-2.8-1.7-5.6-2.3-8.3c-0.3-1.1-0.2-2.5-2-2.3c-1.7,0.1-3.5-0.6-4.2,2
			c-0.8,3-1.9,5.8-2.9,8.7c-1.1-3.2-1.8-6.3-2.6-9.4c-0.6-2.3-2.5-1.3-3.8-1.1c-1.4,0.1-0.5,1.4-0.4,2.1c1,3.9,2,7.7,3,11.6
			c0.3,1.3,0.7,2.2,2.3,2c1.5-0.2,3.1,0.4,3.8-1.9C333.3,495.6,334.5,492.7,335.5,489.7z M308.4,488.7c0.8,3.5,1.4,6.4,2,9.3
			c0.2,1.1,0.1,2.5,1.9,2.4c1.7-0.1,3.6,0.6,4.4-2c1.2-3.8,2.8-7.5,4.2-11.2c0.3-0.7,1-1.6,0.4-2.2c-0.7-0.7-1.8-0.3-2.8-0.3
			c-1.1,0.1-1.1,1-1.4,1.7c-1,2.8-2,5.6-3,8.4c-0.2,0-0.4,0-0.7-0.1c-0.6-2.5-1.1-5.1-1.7-7.6c-0.3-1.3-0.3-2.7-2.4-2.6
			c-1.8,0.1-3.4-0.1-4,2.3c-0.7,2.8-1.8,5.4-2.8,8.1c-1.2-3.1-1.9-6.1-2.7-9.1c-0.6-2.3-2.5-1.2-3.8-1.1c-1.4,0.1-0.5,1.4-0.4,2.1
			c1,3.9,2.1,7.7,3.1,11.6c0.3,1.3,0.7,2.3,2.3,2.1c1.5-0.2,3.1,0.5,3.8-1.8C305.8,495.4,307,492.4,308.4,488.7z M280.5,489.5
			c0.2,0,0.3,0,0.5,0c0.7,3,1.3,6.1,2,9.1c0.2,0.9,0.3,1.9,1.5,1.8c1.4-0.2,3.4,0.9,4.1-0.9c1.9-4.5,3.5-9.1,5.2-13.6
			c0.2-0.6,0.4-1.2-0.5-1.2c-1.5-0.1-3.1-0.5-3.8,1.8c-0.8,3-2.1,5.9-3.4,9.5c-0.8-3.6-1.5-6.3-2.1-9.1c-0.3-1.2-0.4-2.4-2.1-2.2
			c-1.6,0.2-3.3-0.6-4,1.9c-0.8,2.9-1.9,5.7-2.9,8.5c-0.8-0.2-0.7-0.7-0.8-1c-0.6-2.6-1.2-5.3-1.9-7.9c-0.5-2.4-2.5-1.4-3.7-1.3
			c-1.8,0.1-0.6,1.5-0.5,2.2c1,4,2.1,7.9,3.1,11.8c0.3,1.3,0.9,1.9,2.3,1.8c1.4-0.1,3,0.5,3.7-1.7
			C278.3,495.6,279.5,492.6,280.5,489.5z M252.8,455.6c0.1,0,0.3,0,0.4-0.1c0.8,2.5,1.6,5.1,2.4,7.6c1.2,3.7,1.2,3.7,5.1,3.7
			c1.3,0,1.8-0.3,1.9-1.6c0.3-5.2,0.7-10.3,1.1-15.5c0-0.5,0.1-0.9-0.4-1.3c-1.7-1-4.1,0.2-4.2,2.2c-0.2,2.9-0.4,5.8-0.6,8.7
			c-1.2-2.6-2.3-5.1-2.8-7.7c-0.5-2.9-2-3.5-4.7-3.4c-1.9,0.1-2.3,0.8-2.4,2.3c-0.3,4.7-0.6,9.4-0.9,14.1c-0.1,0.9-0.7,2.3,1.2,2.2
			c1.4-0.1,3.3,0.8,3.3-1.9C252.3,461.8,252.6,458.7,252.8,455.6z M489.3,459c-0.2,0-0.4,0-0.6,0c-0.7-2.3-1.5-4.7-2.2-7
			c-1.2-3.9-1.2-3.9-5.4-3.7c-1.2,0-1.7,0.5-1.7,1.7c-0.3,5-0.7,10-1,15c-0.1,1-0.2,2.1,1.3,1.8c1.1-0.2,2.9,1,3.1-1.6
			c0.3-3.2,0.1-6.4,1-10.1c0.9,3,1.7,5.5,2.4,8c1.2,3.9,1.2,3.8,5.3,3.8c1.4,0,1.7-0.5,1.8-1.8c0.3-4.9,0.6-9.9,1-14.8
			c0.1-1.1,0.3-2.2-1.4-1.9c-1.2,0.2-3-0.8-3.1,1.7C489.9,453.1,489.5,456,489.3,459z M485.5,498.9c0.1,4.3-2.8,5.9-7.5,4.3
			c-0.6-0.2-1.6-1.1-1.8,0.3c-0.1,0.9-1.1,2.1,0.5,3c5.6,3,12.8-0.6,13.4-6.9c0.4-4.2,0.7-8.4,0.9-12.6c0-0.8,0.6-2-0.6-2.2
			c-1-0.2-2.4-0.7-3.1,0.4c-0.6,1-0.9,0.4-1.5,0.1c-4-2.1-8-0.7-9.9,3.4c-0.9,2-1,4-0.8,6.1c0.3,4.5,4.1,6.9,8.4,5.2
			C484.1,499.7,484.7,499.3,485.5,498.9z M351.3,457.6c2.7-1.6,3.6-3.4,3.1-5.8c-0.6-2.8-2.8-3.2-5.1-3.3c-2-0.1-4,0-6-0.2
			c-1.4-0.1-1.7,0.5-1.8,1.8c-0.2,4.5-0.6,9.1-0.9,13.6c-0.2,3.2-0.2,3.1,3,3.2c1.5,0,2-0.4,2-1.8c0-1.3,0.2-2.5,0.3-3.8
			c0.1-0.5-0.4-1.5,0.6-1.5c0.7,0,1.1,0.6,1.3,1.3c0.4,1.5,0.7,3,1,4.4c0.1,0.6,0,1.4,1,1.3c1.4,0,2.9,0.3,4.2-0.2
			c0.1,0,0.1-0.5,0.1-0.7C353.2,463.1,353.4,460,351.3,457.6z M296.3,457.5c2.7-1.6,3.6-3.2,3-5.8c-0.5-2.5-2.4-3.1-4.7-3.2
			c-2.2-0.1-4.3-0.1-6.5-0.2c-1.2-0.1-1.7,0.4-1.7,1.6c-0.2,4.6-0.5,9.3-1,13.9c-0.2,2.3,0.2,3.3,2.8,3.1c1.6-0.1,2.3-0.5,2.3-2.1
			c0-1.3,0.1-2.6,0.2-3.8c0-0.4-0.1-1,0.5-1.2c0.7-0.2,1.1,0.3,1.3,0.8c0.4,1.5,0.7,2.9,1,4.4c0.2,0.7-0.1,1.8,1.1,1.8
			c1.3,0,2.7,0.3,4-0.2c0.1-0.1,0.2-0.6,0.2-0.9C298.1,463,298.2,460,296.3,457.5z M282.7,456.7c0.1-5.2-2.6-8.5-7.2-8.6
			c-3.7-0.1-6.7,1.8-8.1,5.1c-1.8,4.1-1.2,9.4,1.2,11.7c1.2,1.1,2.6,1.8,4.3,1.9C278.7,467.5,282.6,463.5,282.7,456.7z M468.3,448.2
			c-5.5,0-9.4,4.9-8.8,11.1c0.4,4.5,2.7,7.3,6.4,7.7c4.5,0.5,8-1.7,9.3-6c0.7-2.2,0.9-4.3,0.5-6.6
			C474.8,450.4,472.2,448.1,468.3,448.2z M214.1,467.1c2.2-1,4.6,1.2,5.6-2c0.6-1.9,3.7-3,5.6-2.1c0.4,0.2,0.6,0.5,0.6,0.9
			c-0.2,3.1,1.9,2.9,4.1,2.9c1.6,0,1.6-0.6,1.3-1.8c-1.2-4.5-2.4-8.9-3.3-13.4c-0.5-2.6-1.5-3.6-4.2-3.4c-1.7,0.1-2.6,0.6-3.1,2.2
			c-0.3,1.1-0.9,2.2-1.3,3.3C217.7,458,216,462.3,214.1,467.1z M417.5,466.8c1.4,0,2.5,0,3.6,0c1,0.1,1.3-0.4,1.7-1.2
			c0.5-1,0.2-2.6,1.9-2.6c1.2,0,2.4,0,3.6,0c0.7,0,0.8,0.5,0.8,1c-0.1,3.1,2,2.9,4.1,2.9c1.4,0,1.6-0.4,1.3-1.7
			c-1.3-5-2.5-10-3.8-15.1c-0.2-0.8-0.2-2-1.5-1.7c-1.6,0.3-3.8-1.1-4.7,1C422.1,455,419.9,460.8,417.5,466.8z M331.6,466.8
			c1.4,0,2.7,0,4.1,0c1.1,0.1,1.6-0.1,1.8-1.5c0.2-1.8-0.2-2.6-2.2-2.3c-0.9,0.1-1.9,0-2.9,0c-1,0.1-1.3-0.3-1.4-1.3
			c-0.1-1.8,0.3-3,2.4-2.5c0.6,0.1,1.3-0.1,1.9,0c1.9,0.3,1.9-0.8,2.1-2.2c0.1-1.9-1-1.6-2.1-1.6c-0.6,0-1.1,0-1.7,0
			c-1.1,0-2.2,0.4-2.1-1.6c0-1.9,1-1.8,2.3-1.8c1,0,2.1,0,3.1,0c1.8,0.1,1.1-1.4,1.3-2.2c0.2-1.1-0.2-1.6-1.4-1.6
			c-2.7,0.1-5.4,0.1-8.1,0c-1.3,0-1.8,0.4-1.9,1.8c-0.2,4.5-0.6,9.1-0.9,13.6c-0.2,3.1-0.2,3.1,3.1,3.1
			C329.8,466.8,330.7,466.8,331.6,466.8z M460.2,492c0.1-4.8-2.9-7.9-7.7-7.9c-5.1,0-8.9,3.7-9,8.9c-0.1,4.5,3,7.7,7.6,7.8
			C456.3,500.9,460.2,497.2,460.2,492z M422.8,491.8c0-4.7-2.9-7.6-7.6-7.7c-5.2-0.1-8.9,3.7-8.9,9.1c0,4.7,3,7.6,7.7,7.6
			C419.2,500.8,422.8,497.1,422.8,491.8z M371.9,491.3c0,0.2,0-0.1,0-0.4c0-2.3,0.1-4.6-2.3-5.9c-2.9-1.5-5.9-1-8.8,0
			c-1.4,0.5-1.1,2-0.8,2.9c0.4,1.3,1.3,0.2,1.8,0c1.5-0.5,2.9-0.8,4.5-0.4c1,0.2,1.7,1,1.7,2c0,1.4-1.3,0.9-2,0.9
			c-1.9,0.1-3.8,0.2-5.6,1c-2.1,1-3.2,3.2-2.8,5.6c0.4,2.2,2,3.1,4,3.6c1.8,0.4,3.3-0.1,4.8-1.1c0.5-0.3,1-1.2,1.5,0.2
			c0.4,1.2,1.8,0.6,2.8,0.6c1.1,0,0.8-1,0.9-1.6C371.6,496.5,371.7,494.2,371.9,491.3z M398.2,497.1c0,0.3,0,0.6,0,1
			c-0.1,1.2-0.3,2.4,1.6,2.4c1.7,0,2.7-0.3,2.7-2.3c0-2.5,0.3-4.9,0.4-7.4c0.3-5.8-3.5-8.2-8.7-5.6c-0.6,0.3-0.9,1-1.7-0.1
			c-0.7-1-2.1-0.5-3.1-0.4c-1.2,0.2-0.8,1.4-0.9,2.2c-0.3,3.7-0.5,7.3-0.9,11c-0.2,2,0.3,2.7,2.4,2.6c1.5-0.1,1.7-0.7,1.9-2
			c0.4-2.9-0.1-6,1.2-8.7c0.7-1.5,1.9-2.5,3.6-2.1c1.7,0.4,1.9,1.8,1.8,3.2C398.6,492.9,398.4,495,398.2,497.1z M322.6,462.2
			c-1,0.3-1.8,0.6-2.6,0.7c-1.9,0.3-3.5-0.3-4.5-2c-1.3-2.4-0.9-4.9,0.5-7c1.4-2.1,3.6-2.1,5.8-1.3c0.5,0.2,1.1,0.9,1.5-0.2
			c1.1-2.6,0.3-3.9-2.5-4.1c-1-0.1-1.9-0.1-2.9,0c-5.3,0.4-8.7,4.9-8.4,10.9c0.3,5.3,3.4,8.1,9,7.9
			C322.9,466.9,322.9,466.8,322.6,462.2z M387,448.3c-1.1,0-2.2,0.1-3.3,0c-1.8-0.2-2.3,0.4-2.4,2.2c-0.2,4.5-0.4,9.1-1,13.6
			c-0.3,2.5,0.5,2.9,2.7,2.8c1.6-0.1,2.3-0.4,2.2-2.1c-0.1-1.1,0.2-2.2,0.2-3.3c0-1.5,0.5-2.2,2.1-2c0.6,0.1,1.3-0.1,1.9,0
			c2,0.3,1.9-1.1,2-2.4c0.2-1.9-1.1-1.3-2-1.4c-0.6,0-1.3,0-1.9,0c-1,0-1.8-0.1-1.5-1.4c0.2-1-0.3-2.4,1.6-2.3
			c0.7,0.1,1.4-0.1,2.1,0c1.8,0.3,2.5-0.5,2.6-2.3c0.1-2.2-1.4-1.4-2.4-1.5C388.9,448.3,388,448.3,387,448.3z M415.9,462.2
			c-0.4,0.1-0.6,0.2-0.8,0.3c-2.2,0.8-4.2,1-5.9-1c-1.4-1.7-1.3-5.5,0.1-7.5c1.5-2.1,3.6-2.4,5.8-1.4c1.7,0.7,1.6-0.2,1.8-1.3
			c0.3-1.7,0-2.8-2-2.9c-1.2-0.1-2.4-0.2-3.6-0.1c-5.4,0.4-8.7,4.8-8.3,11.3c0.2,4.9,3.5,7.6,8.9,7.4
			C416.1,466.9,416.4,466.6,415.9,462.2z M240.8,448.3c-1.4,0-2.9,0-4.3,0c-0.8,0-1.3,0.2-1.4,1.2c-0.3,5.3-0.7,10.7-1.1,16
			c0,0.5-0.1,1,0.7,1.3c2.5,0.8,4.1-0.2,4.3-2.8c0-0.3,0.1-0.6,0.2-0.9c0.4-3.5,0.4-3.6,3.9-3.5c2.1,0.1,2-0.9,2.2-2.4
			c0.1-1.9-1.2-1.3-2-1.4c-0.5-0.1-1,0-1.4,0c-1.3,0.1-2.1,0-2-1.7c0.1-1.6,0.5-2.2,2.1-1.9c0.6,0.1,1.3-0.1,1.9,0
			c1.9,0.3,2.2-0.6,2.3-2.3c0.1-1.9-1.2-1.5-2.2-1.5C242.9,448.3,241.8,448.3,240.8,448.3z M363.7,448.3c-1.6,0-3.2,0.1-4.8,0
			c-1.9-0.2-1.9,0.8-2.1,2.3c-0.2,1.8,0.7,1.8,1.9,1.7c1.4-0.1,1.9,0.2,1.7,1.9c-0.4,3.6-0.5,7.1-0.7,10.7c0,0.8-0.6,2.3,1.1,1.9
			c1.3-0.3,3.6,1.5,3.8-1.5c0.3-3.6,0.6-7.3,0.8-10.9c0.1-1.6,0.5-2.3,2.1-2c2.3,0.4,2.2-1.2,2.2-2.6c0.1-2-1.4-1.2-2.3-1.3
			C366.3,448.3,365,448.3,363.7,448.3z M439.4,459.6C439.4,459.6,439.4,459.6,439.4,459.6c-0.2,1.7-0.3,3.5-0.4,5.2
			c0,1-0.4,2.3,1.3,2c1.3-0.3,3.5,1.3,3.7-1.7c0.1-3.3,0.6-6.5,0.6-9.8c0-2,0.3-3.4,2.8-3c2,0.3,1.3-1.5,1.5-2.5
			c0.3-1.3-0.5-1.4-1.5-1.4c-3.1,0-6.2,0.1-9.3,0c-1.8-0.1-2,0.8-2.1,2.3c-0.1,1.7,0.6,1.9,1.9,1.7c1.7-0.2,2,0.5,1.7,2.1
			C439.5,456.1,439.5,457.8,439.4,459.6z M377.2,496.4C377.2,496.4,377.2,496.4,377.2,496.4c-0.1,0.5,0,1-0.1,1.4
			c0,1.3-0.4,2.6,1.7,2.6c1.8,0,2.6-0.4,2.6-2.4c0-2.5,0.4-5.1,0.4-7.6c0-1.8,0.2-3.2,2.5-2.9c1.1,0.1,1.3-0.6,1.4-1.5
			c0-1-0.2-1.5-1.3-1.5c-1.2,0.1-2.3,0-2-1.7c0.2-1.5,0.7-2.8,2.5-2.4c2,0.5,1.3-1.2,1.5-1.9c0.4-1.1-0.4-1.3-1.3-1.5
			c-3.8-0.7-6.6,1.3-7,5.3c-0.2,1.5-0.3,2.5-2.1,2.3c-1.2-0.1-1.1,0.8-1.2,1.6c-0.1,0.9,0.3,1.4,1.2,1.3c1.7-0.1,1.7,1,1.6,2.2
			C377.5,492,377.3,494.2,377.2,496.4z M450.7,463.5C450.7,463.5,450.6,463.5,450.7,463.5c-0.1,0.2-0.1,0.5-0.1,0.7
			c0.1,1.1-0.9,2.8,1.5,2.6c1.7-0.1,3.6,0.6,3.7-2.4c0.1-4.7,0.6-9.4,0.9-14.1c0.1-1.1,0.2-2.3-1.4-1.9c-1.4,0.3-3.6-1.3-3.7,1.8
			C451.4,454.6,451,459.1,450.7,463.5z M400.2,450.5c0.1-2,0.1-2-1.4-2.1c-3.4-0.2-3.5-0.2-3.7,2.6c-0.4,4.7-0.7,9.4-1,14.1
			c-0.1,1.1,0,2.1,1.4,1.8c1.3-0.3,3.5,1.4,3.7-1.4C399.5,460.7,399.8,456,400.2,450.5z M371.5,464c-0.2,2.7-0.2,2.7,1.3,2.8
			c3.6,0.3,3.6,0.3,3.8-2.5c0.3-4.7,0.7-9.4,1-14.1c0.1-1.1,0.1-2.3-1.5-1.9c-1.3,0.3-3.5-1.2-3.7,1.6
			C372.1,454.7,371.8,459.4,371.5,464z M467.8,486.9c0.5-1.9-0.1-2.4-1.6-2.4c-1.6,0-2.1,0.6-2.1,2.1c-0.2,3.9-0.5,7.8-0.7,11.7
			c-0.1,1.1-0.4,2.2,1.3,2.1c1.3-0.1,2.7,0.5,2.9-1.7c0.2-2.4,0.1-4.8,0.7-7.1c0.5-2,1.5-3.4,3.8-3.2c0.5,0,1.2,0.2,1.4-0.5
			c0.2-1.1,0.6-2.4-0.1-3.2c-0.8-0.9-2-0.4-2.9,0.2C469.6,485.2,469,485.9,467.8,486.9z M426.1,497c0,0.2,0,0.5,0,0.7
			c0.2,1-1,2.6,1.3,2.8c2.2,0.1,3-0.7,2.9-2.8c-0.1-2.1,0.1-4.2,0.6-6.2c0.4-1.7,1.3-3.1,3.4-3.2c0.6,0,1.6,0.5,1.8-0.6
			c0.1-1.1,0.6-2.3-0.2-3.2c-0.7-0.7-1.7-0.3-2.5,0.1c-0.6,0.3-1.1,0.7-1.6,1.1c-0.5,0.4-0.8,0.8-1.1-0.2c-0.5-1.6-1.8-0.8-2.8-0.9
			c-1.2,0-1,1.1-1.1,1.8C426.5,489.9,426.3,493.5,426.1,497z M150.5,345.9c-3.4,0-6.1,0-8.8,0c-0.6,0-1.1,0.1-1.4,0.7
			c-1.3,2.8-2.5,5.7-3.8,8.5c-0.2,0.4-0.3,0.7,0.2,1c0.7,0.5,5.9,0.1,6.4-0.6C145.5,352.6,147.8,349.5,150.5,345.9z M382.1,345.9
			c-3.3,0-5.9,0-8.6,0c-0.9,0-1.5,0.3-1.8,1.2c-1.1,2.6-2.2,5.1-3.4,7.7c-0.2,0.5-0.7,1,0.1,1.4c0.7,0.4,5.7,0.1,6.2-0.5
			C377.1,352.6,379.5,349.5,382.1,345.9z M439.8,498.2c0.2-2.7-1.4-2-2.4-2.1c-2.3-0.3-2,1.4-2.1,2.8c-0.2,1.9,1.1,1.4,2.2,1.6
			C439.8,500.8,439.8,499.2,439.8,498.2z M351.7,500.4c2.4,0.7,2-1.4,2.2-2.8c0.3-1.9-1.1-1.4-2.2-1.5c-2.1-0.3-2.3,0.9-2.4,2.5
			C349.2,500.4,350.2,500.5,351.7,500.4z"/>
		<path class="st2" d="M241.9,216c-0.1,1.1-0.2,2.2-0.2,3.3c0,15.9-0.1,31.8,0,47.7c0,2.2-0.5,3-2.9,3c-59.6-0.1-119.2-0.1-178.7,0
			c-2.2,0-2.9-0.5-2.9-2.8c0.1-66.9,0-133.7,0-200.6c0-1.7,0.2-2.5,2.3-2.5c43.2,0.1,86.4,0.1,129.6,0.1c0.3,0,0.6,0,1,0.1
			c-0.3,0.4-0.6,0.8-0.9,1.1c-8.2,8-16.5,16.1-24.7,24.1c-0.9,0.9-2.6,1.6-1,3.5c1.2,1.5,1.9,3.1,4.5,1.9c5-2.3,10.2-4.1,15.3-6.1
			c13.6-5.3,27.2-10.7,40.8-16c1.6-0.6,2-1.2,0.8-2.6c-1.5-1.9-2.8-3.9-4.2-5.8c6.2,0,12.3,0.1,18.5-0.1c2,0,2.6,0.6,2.6,2.6
			c-0.1,18.7,0,37.4,0,56.1c0,16.1,0,32.1,0,48.2c0,1,0.1,2.1,0.2,3.1c-8.3,0-16.6,0.1-24.9,0c-1.8,0-2.4,0.4-2.4,2.3
			c0.1,2.9,0.2,5.9,0,8.9c-0.1,2.1,0.6,2.8,2.7,2.7c8.1-0.1,16.3,0,24.4,0c0,4.8-0.3,9.6,0.2,14.3c-8.2,0-16.5,0.1-24.7,0
			c-1.9,0-2.7,0.5-2.6,2.5c0.2,2.9,0.2,5.8,0,8.6c-0.1,2.1,0.7,2.5,2.6,2.5C225.4,215.9,233.6,216,241.9,216z M147.9,212.2
			c4.1,0,8.2-0.5,12.1-1.4c15.5-3.8,28.6-12,40.6-22.2c3.3-2.8,2.5-2.1-0.1-4.6c-1.5-1.4-2.5-1.4-4,0.1c-1.9,1.9-4,3.5-6,5.1
			c-7.6,5.9-15.6,11.3-25.2,13.5c-12.1,2.7-21.7-3.7-24-15.9c-0.3-1.7,0-2.4,1.6-3c11.6-4.9,23.3-9.8,34.8-14.9
			c12.2-5.4,23.2-12.7,31.2-23.6c4.2-5.8,7.3-12,7.1-19.4c-0.3-11-9.2-19.9-20.3-19.8c-8.3,0.1-16.4,1.5-24.3,4.1
			c-18.8,6.2-33.8,17.9-45.8,33.4c-5.7,7.4-11.2,15-13.2,24.5c-1.8,8.4-2.1,16.8,2,24.6C121.5,205.9,133.1,211.9,147.9,212.2z"/>
		<path class="st2" d="M313.6,228.1c11.5,7,24.1,8.4,36.9,8.3c13.8-0.1,27.1-3.3,40.2-7.3c31.9-9.7,62.6-22.4,92.6-36.8
			c1.4-0.7,2.9-1.4,3.9-2.7c1.1-1.3,1.8-2.7,1.2-4.4c-0.7-1.8-2.3-2-4-2.1c-6.9-0.1-13.5,1.6-19.8,4.1c-17.5,6.7-35,13.7-52.7,19.8
			c-16,5.5-32.1,10.7-48.8,13.8c-10.2,1.9-20.5,2.7-30.7,0.1c-6.5-1.7-12.2-4.8-16-10.6c-0.5-0.7-0.9-1.5-1.5-2.5
			c2.8-0.2,5.3-0.1,7.7-0.5c11.5-1.5,22-5.9,32.2-11.3c17.4-9.1,32.7-20.9,45.5-35.8c2.7-3.1,4.9-6.5,6.6-10.3
			c0.7-1.7,1.3-3.4,1.5-5.3c0.8-6.1-1.7-10.5-7.5-13c-7-3-14.2-2.7-21.2-0.7c-25,7.5-47.6,19.1-65.2,39c-0.2,0.2-0.5,0.4-0.7,0.6
			c-0.7-0.7-0.4-1.4-0.4-2.1c0-33.9,0-67.8-0.1-101.7c0-2.1,0.5-2.8,2.8-2.8c59.6,0.1,119.2,0.1,178.7,0c2.2,0,2.8,0.5,2.8,2.8
			c-0.1,51.3-0.1,102.5,0,153.8c0,2-0.5,2.7-2.6,2.9c-19.4,2.1-38.7,5.1-57.9,8.3c-24,4-47.8,9.5-71.7,14.4
			c-12.2,2.5-24.5,4.6-36.9,5.7c-2.4,0.2-4.3,1.2-5.3,3.5c-0.9,2.3-0.2,4.3,1.3,6c2.8,3.3,6.6,4.3,10.6,3.7
			c30.7-4.5,61.3-9.1,91.6-15.9c21.6-4.8,43.4-8.8,65.3-11.7c5.5-0.7,5.5-0.7,5.5,4.7c0,8.5-0.1,17,0,25.4c0,1.9-0.6,2.4-2.4,2.4
			c-59.8,0-119.6,0-179.5,0c-1.4,0-2.4,0-2.4-1.9c0.1-13,0-26.1,0.1-39.1C313.4,228.9,313.5,228.6,313.6,228.1z"/>
		<path class="st2" d="M388.5,140.4c1.3,0.1,2.5,0.2,3.8,0.4c2.7,0.5,3.2,1.5,2.2,4c-1.9,4.5-5.1,8.1-8.5,11.4
			c-15.3,14.6-32.3,26.8-52.3,34.3c-5,1.9-10.2,3.1-15.6,3.5c-3.1,0.2-3.2,0.1-1.9-2.7c5.6-12.5,14.2-22.5,25-30.7
			c12.2-9.3,25.7-15.7,40.5-19.5c1.3-0.3,2.7-0.5,4-0.7c0.9-0.1,1.9,0,2.9,0C388.5,140.6,388.5,140.5,388.5,140.4z"/>
		<path class="st0" d="M241.7,188c-8.1,0-16.3-0.1-24.4,0c-2.1,0-2.8-0.6-2.7-2.7c0.2-2.9,0.1-5.9,0-8.9c-0.1-1.8,0.6-2.3,2.4-2.3
			c8.3,0.1,16.6,0,24.9,0c23,0,46,0,69.2,0c-0.6,1.9-2,3.2-2.8,4.7c-1.3,2.4-2.7,4.7-3.8,7.2c-0.7,1.5-1.5,1.9-3.1,1.9
			c-19.1,0-38.2,0-57.3,0C243.3,187.9,242.5,187.9,241.7,188z"/>
		<path class="st2" d="M293.9,317.9c5.8,1.6,8.2,5.7,7.8,11.5c-0.5,6.6-3.9,10.7-10.3,12.7c-2.6,0.8-5.3,0.9-8.1,0.9
			c-4.3,0-8.6-0.1-13,0c-1.8,0-2.4-0.4-2.3-2.3c0.6-8.3,1.1-16.6,1.7-24.9c0.4-6.4,1-12.7,1.3-19.1c0.1-2,0.7-2.8,2.8-2.7
			c6,0.3,12-0.3,18,0.3c5.9,0.7,9.2,3.7,10.2,8.9c1,5.4-1.5,10.8-6.4,13.3C295.2,317,294.3,317,293.9,317.9z M284,322.3
			c-3.4,0-3.4,0-3.7,3.3c-0.1,1.6-0.1,3.2-0.3,4.8c-0.4,5-0.4,5,4.6,4.2c4-0.6,6.1-3.2,5.8-7.3C290.2,323.6,288.4,322.3,284,322.3z
			 M283.5,314c4.8,0,7.6-2.6,7.4-6.5c-0.2-3.5-2.9-5.3-7.2-5.1c-1.2,0.1-1.7,0.5-1.8,1.7c-0.1,2.4-0.2,4.8-0.5,7.1
			C281,313.3,281.4,314.4,283.5,314z"/>
		<path class="st2" d="M194.4,380c2.2,0,4.5,0,6.7,0c1.3,0,2,0.3,1.8,1.7c-0.6,7.8-1.1,15.6-1.6,23.4c-0.1,1.1-0.8,1.5-1.7,1.7
			c-6.9,2-14,2.8-21.1,1.2c-8-1.8-12.9-7-14.6-15.1c-1.2-5.7-1-11.3,0.7-16.8c3.2-10.5,11.8-17.1,22.9-17.8
			c4.6-0.3,9.1,0.1,13.5,1.3c1.5,0.4,2,1,1.8,2.5c-0.4,2-0.7,4.1-0.9,6.2c-0.1,1.5-0.7,1.5-1.8,1c-2.5-1.1-5.1-1.8-7.9-2
			c-7.8-0.5-13.2,3-15.8,10.5c-1.7,5-2,10-0.1,15c2.1,5.4,7.5,8.1,13,6.8c0.9-0.2,1.4-0.6,1.5-1.6c0.1-2.6,0.3-5.3,0.5-7.9
			c0.1-1.4-0.6-1.7-1.8-1.8c-4.4-0.2-4.4-0.2-4.1-4.5c0-0.4,0.1-0.8,0-1.2c-0.2-2.1,0.5-3.1,2.8-2.8
			C190.4,380.2,192.4,380,194.4,380z"/>
		<path class="st0" d="M241.9,216c-8.2,0-16.5-0.1-24.7,0c-1.9,0-2.7-0.5-2.6-2.5c0.2-2.9,0.2-5.8,0-8.6c-0.1-2.1,0.7-2.5,2.6-2.5
			c8.2,0.1,16.5,0,24.7,0c17.4,0,34.8,0.1,52.2,0c2.4,0,3.9,1.7,5.9,2.2c0.2,0,0.3,0.5,0.3,0.8c0.3,3.6,1.4,7,3,10.7
			C282.6,216,262.3,216,241.9,216z"/>
		<path class="st0" d="M220.7,64.3c1.4,2,2.7,4,4.2,5.8c1.2,1.5,0.8,2-0.8,2.6c-13.6,5.3-27.2,10.7-40.8,16
			c-5.1,2-10.3,3.8-15.3,6.1c-2.6,1.2-3.3-0.4-4.5-1.9c-1.5-1.8,0.1-2.6,1-3.5c8.2-8.1,16.4-16.1,24.7-24.1c0.3-0.3,0.6-0.7,0.9-1.1
			c5.4-5.2,10.8-10.4,16.2-15.6c0.6-0.5,1.1-1.1,1.8-1.7C212.2,52.9,216.5,58.6,220.7,64.3z"/>
		<path class="st2" d="M254.6,343.1c-5.9,0-5.9,0-7-5.6c-1.1-5.3-1.1-5.3-6.5-5.3c-2.4,0-4.8,0.1-7.2,0c-1.8-0.1-2.8,0.4-3.3,2.2
			c-0.7,2.4-1.8,4.6-2.6,7c-0.4,1.3-1.1,1.9-2.6,1.8c-2.3-0.1-4.6-0.1-6.9,0c-2,0.1-2.3-0.4-1.5-2.3c3.8-9.2,7.5-18.5,11.2-27.8
			c2.3-5.7,4.6-11.4,6.8-17.1c0.5-1.3,1.2-1.8,2.6-1.8c3,0.1,5.9,0.1,8.9,0c1.4,0,2,0.4,2.3,1.8c3.8,15.1,7.5,30.2,11.4,45.3
			c0.4,1.7-0.2,1.9-1.6,1.9C257.3,343,255.9,343.1,254.6,343.1z M241.5,304.7c-0.2,0-0.3,0-0.5,0c-1.6,4.4-3.2,8.7-4.6,13.1
			c-0.6,1.9-2.5,4.2-1.5,5.7c0.7,1,3.7,0.3,5.7,0.3c4.3,0,4.3,0,3.6-4.1C243.3,314.7,242.4,309.7,241.5,304.7z"/>
		<path class="st2" d="M246.3,407.9c-5.8,0-5.8,0-7-5.9c-1-4.8-1-4.8-6-4.8c-2.7,0-5.4,0.1-8.1,0c-1.5-0.1-2.3,0.4-2.8,1.9
			c-0.8,2.4-1.8,4.8-2.7,7.2c-0.4,1.3-1.1,1.7-2.5,1.7c-2.3-0.1-4.6-0.1-6.9,0c-2,0.1-2.3-0.5-1.6-2.3c3.8-9.2,7.5-18.5,11.2-27.8
			c2.2-5.6,4.5-11.1,6.7-16.7c0.5-1.4,1.2-2,2.8-1.9c3,0.1,5.9,0.1,8.9,0c1.3,0,2,0.3,2.3,1.7c3.7,15,7.5,30,11.3,45.1
			c0.4,1.6,0,2-1.5,1.9C249.1,407.9,247.7,407.9,246.3,407.9z M233.2,369.5c-0.1,0-0.3,0-0.4,0c-2.1,5.9-4.2,11.9-6.4,17.8
			c-0.4,1.1-0.1,1.5,1,1.4c2.6,0,5.1,0,7.7,0c0.7,0,1.5,0,1.3-1.1C235.3,381.6,234.2,375.5,233.2,369.5z"/>
		<path class="st0" d="M400.8,389.3c2.1,3.2,5,4.2,8.2,4.6c5.8,0.7,11.4-0.7,17-2.2c10.2-2.8,20-6.6,29.7-10.5
			c2.7-1.1,5.5-2.1,8.5-2.2c1.2,0,2.6-0.2,3,1.2c0.4,1.6-0.9,2.3-2,2.8c-3.8,1.8-7.6,3.6-11.5,5.3c-10.6,4.5-21.2,8.7-32.5,11
			c-5.9,1.2-11.9,1.3-17.8-0.6c-4.8-1.5-8-4.6-9-9.6c-0.2-0.8-0.5-1.4-1.3-1.9c-1-0.6-1.6-1.7-1.4-2.8c0.2-1.2,1-2,2.3-2
			c0.6,0,0.8-0.3,1-0.8c4.3-10.3,13-15.9,22.6-20.2c3.7-1.7,7.5-3.2,11.7-3.1c6.5,0.1,8.9,4.4,5.5,9.9c-2.7,4.5-6.6,7.8-10.7,10.9
			c-6,4.5-12.4,8.1-19.8,9.6C403.3,389.1,402.2,389.1,400.8,389.3z M400.5,383.4c1.6-0.3,2.9-0.4,4.1-0.8
			c8.2-2.3,14.9-7.1,21.2-12.6c1.5-1.3,2.9-2.7,4-4.5c0.3-0.5,0.9-1.1,0.6-1.7c-0.4-0.8-1.2-0.6-1.9-0.6c-2.1,0-4.1,0.7-6,1.4
			C413,368.1,405.3,373.5,400.5,383.4z"/>
		<path class="st2" d="M370.6,408.2c-4.1,0-8.2-0.1-12.2,0c-1.7,0-2.4-0.4-2.2-2.3c1.1-14.7,2.2-29.5,3.2-44.2
			c0.1-1.9,0.8-2.4,2.6-2.4c7.8,0.1,15.7,0.1,23.5,0c2,0,2.4,0.7,2.3,2.5c-0.4,6.2-0.3,6.2-6.5,6.2c-3,0-6.1,0.1-9.1,0
			c-1.5,0-2.2,0.3-2.2,2c0,2.1-0.2,4.2-0.5,6.2c-0.3,2.1,0.6,2.6,2.5,2.5c3.9-0.1,7.8,0,11.8-0.1c1.3,0,1.8,0.2,1.7,1.7
			c-0.3,6.9-0.2,6.9-7.1,6.9c-2.6,0-5.3,0-7.9,0c-1.1,0-1.8,0.3-1.8,1.6c-0.1,2.8-0.3,5.6-0.6,8.4c-0.2,1.9,0.7,2.3,2.3,2.3
			c4.4-0.1,8.8,0,13.2-0.1c1.8,0,2.5,0.5,2.2,2.3c-0.1,0.6-0.1,1.3-0.2,1.9c-0.5,4.6-0.5,4.6-5.3,4.6
			C377,408.2,373.8,408.2,370.6,408.2z"/>
		<path class="st2" d="M139.1,408.2c-4.1,0-8.2-0.1-12.2,0c-1.8,0-2.4-0.5-2.3-2.3c0.8-10.9,1.5-21.8,2.3-32.8
			c0.3-3.8,0.6-7.7,0.7-11.5c0.1-1.6,0.5-2.4,2.4-2.4c7.9,0.1,15.8,0.1,23.8,0c1.8,0,2.3,0.6,2.2,2.3c-0.3,6.3-0.2,6.3-6.5,6.3
			c-3,0-5.9,0.1-8.9,0c-1.7-0.1-2.3,0.6-2.3,2.2c-0.1,2.2-0.2,4.5-0.5,6.7c-0.1,1.4,0.3,1.8,1.7,1.8c4.2-0.1,8.3,0,12.5,0
			c1.6,0,2.2,0.5,1.9,2.1c-0.2,1.6-0.4,3.2-0.4,4.8c0,1.5-0.7,1.8-2.1,1.8c-4.1-0.1-8.2,0-12.2,0c-1.5,0-2.2,0.4-2.2,2
			c-0.1,2.8-0.4,5.6-0.7,8.4c-0.2,1.6,0.5,1.9,1.9,1.9c4.6-0.1,9.1,0,13.7,0c1.6,0,2.2,0.4,2.2,2.2c-0.2,6.6-0.1,6.6-6.8,6.6
			C144.6,408.2,141.8,408.2,139.1,408.2z"/>
		<path class="st2" d="M325.1,343.1c-4.2,0-8.3-0.1-12.5,0c-1.6,0-2.3-0.3-2.1-2.1c1.1-15,2.2-30,3.2-44.9c0.1-1.5,0.6-1.9,2-1.9
			c8.2,0,16.3,0.1,24.5,0c1.5,0,1.9,0.5,1.8,2c-0.2,6.7-0.2,6.7-6.9,6.7c-2.9,0-5.8,0.1-8.6,0c-1.7-0.1-2.2,0.6-2.2,2.2
			c0,2.2-0.2,4.3-0.5,6.5c-0.2,1.9,0.5,2.3,2.3,2.3c3.9-0.1,7.8,0,11.8,0c1.4,0,2,0.4,1.9,1.9c0,6.8,0,6.8-6.6,6.8
			c-2.8,0-5.6,0-8.4,0c-1.1,0-1.8,0.3-1.9,1.6c-0.1,2.9-0.3,5.7-0.6,8.6c-0.1,1.5,0.5,1.9,1.9,1.9c4.6-0.1,9.1,0.1,13.7-0.1
			c1.9-0.1,2.4,0.6,2.1,2.4c-0.1,0.7-0.2,1.4-0.2,2.1c-0.3,4.2-0.3,4.2-4.4,4.2C332,343.1,328.5,343.1,325.1,343.1z"/>
		<path class="st2" d="M335,359.3c4.8,0,9.6,0,14.4,0c1.4,0,1.9,0.4,1.9,1.9c0,6.9,0,6.9-6.9,6.9c-4,0-4.1,0-4.4,3.9
			c-0.8,11-1.6,22-2.3,33c-0.1,2.2-0.6,3.2-3,3c-2.3-0.2-4.6-0.1-6.9,0c-1.5,0.1-1.9-0.4-1.8-1.9c0.9-11.9,1.7-23.7,2.6-35.6
			c0.1-1.8-0.3-2.5-2.1-2.3c-2.2,0.1-4.5,0-6.7,0c-1.3,0-1.7-0.5-1.6-1.7c0.2-1.9,0.4-3.8,0.4-5.7c0.1-1.5,1.1-1.4,2-1.4
			C325.4,359.3,330.2,359.3,335,359.3z"/>
		<path class="st2" d="M198.3,343.1c-4,0-8,0-12,0c-1.4,0-2-0.2-1.9-1.8c1.1-15,2.2-30.1,3.2-45.1c0.1-1.4,0.5-2,2-1.9
			c2.6,0.1,5.1,0.1,7.7,0c1.6-0.1,2.1,0.6,1.9,2.1c-0.6,8.7-1.2,17.4-1.8,26c-0.2,3.1-0.4,6.2-0.7,9.3c-0.2,2.1,0.6,2.6,2.5,2.5
			c3.7-0.1,7.3,0,11-0.1c1.7,0,2.4,0.3,2.3,2.2c-0.2,6.7-0.2,6.7-6.9,6.7C203.2,343.1,200.8,343.1,198.3,343.1z"/>
		<path class="st2" d="M362.9,343.1c-3.8,0-7.7-0.1-11.5,0c-1.9,0.1-2.3-0.6-2.2-2.4c0.8-10.7,1.5-21.3,2.2-32
			c0.3-4.1,0.6-8.3,0.8-12.4c0.1-1.6,0.7-2.2,2.3-2.2c2.6,0.1,5.1,0.1,7.7,0c1.3,0,1.9,0.3,1.8,1.8c-0.9,11.7-1.7,23.4-2.5,35.1
			c-0.2,3.1-0.3,3.1,2.7,3.1c3.7,0,7.3,0.1,11,0c1.5,0,2.1,0.5,2,2.1c-0.2,6.9-0.1,6.9-6.9,6.9C367.9,343.1,365.4,343.1,362.9,343.1
			z"/>
		<path class="st2" d="M273.5,407.9c-4,0-8,0-12,0c-1.4,0-1.8-0.5-1.7-1.8c1.1-15,2.1-30,3.1-45c0.1-1.5,0.7-1.9,2.1-1.9
			c2.5,0.1,5,0.1,7.4,0c1.7-0.1,2.2,0.5,2.1,2.2c-0.5,6.3-0.9,12.6-1.3,18.9c-0.4,5.5-0.7,11-1.2,16.5c-0.2,1.9,0.5,2.3,2.3,2.3
			c3.9-0.1,7.8,0,11.8-0.1c1.5,0,1.9,0.5,1.9,2c0,6.9,0,6.9-6.8,6.9C278.6,407.9,276,407.9,273.5,407.9z"/>
		<path class="st2" d="M301.4,407.9c-5.6,0-5.7,0-5.3-5.5c0.9-13.8,1.9-27.6,2.9-41.3c0.1-1.3,0.6-1.8,1.9-1.8
			c2.6,0.1,5.1,0.1,7.7,0c1.8-0.1,2.1,0.7,2,2.3c-0.8,10.8-1.5,21.7-2.2,32.5c-0.3,3.7-0.6,7.5-0.7,11.2c-0.1,2-0.7,2.9-2.8,2.7
			C303.6,407.8,302.5,407.9,301.4,407.9z"/>
		<path class="st0" d="M407.7,411.4c-1.3,0-2.6-0.3-3.6-1.1c-0.9-0.7-1.4-1.8-1.2-3c0.2-1.1,1.1-1.7,2.2-1.8
			c12.8-1.2,25.1-4.8,37.6-7c9.4-1.6,18.9-3.2,28.4-4.1c1.8-0.2,3.7-0.2,5.3,1c1,0.7,2,1.6,1.7,2.9c-0.3,1.5-1.7,1.8-3,1.9
			c-2.9,0.3-5.7,0.4-8.6,0.8c-11.8,1.6-23.4,4.4-35,6.6C423.6,409,415.6,410.1,407.7,411.4z"/>
		<path class="st2" d="M335.5,489.7c-1,2.9-2.2,5.8-3,8.8c-0.6,2.3-2.2,1.7-3.8,1.9c-1.6,0.2-2-0.8-2.3-2c-1-3.9-2.1-7.7-3-11.6
			c-0.2-0.7-1-2,0.4-2.1c1.3-0.1,3.2-1.1,3.8,1.1c0.8,3.1,1.5,6.2,2.6,9.4c1-2.9,2.2-5.7,2.9-8.7c0.7-2.6,2.5-1.9,4.2-2
			c1.8-0.1,1.8,1.2,2,2.3c0.6,2.8,1.3,5.6,2.3,8.3c1-2.8,2.1-5.7,3-8.6c0.5-1.9,1.6-2.3,3.4-2.1c1,0.1,1.5,0.3,1,1.4
			c-1.7,4.4-3.3,8.8-5,13.2c-0.8,2.2-2.7,1-4.2,1.2c-1.4,0.2-1.5-0.9-1.7-1.8c-0.7-2.9-1.3-5.9-2-8.8
			C335.9,489.7,335.7,489.7,335.5,489.7z"/>
		<path class="st2" d="M308.4,488.7c-1.3,3.7-2.6,6.7-3.5,9.9c-0.6,2.3-2.3,1.7-3.8,1.8c-1.6,0.2-2-0.8-2.3-2.1
			c-1-3.9-2.1-7.7-3.1-11.6c-0.2-0.7-1-2,0.4-2.1c1.3-0.1,3.2-1.2,3.8,1.1c0.8,3,1.4,6,2.7,9.1c1-2.7,2.1-5.4,2.8-8.1
			c0.6-2.4,2.2-2.2,4-2.3c2-0.1,2.1,1.3,2.4,2.6c0.6,2.5,1.2,5.1,1.7,7.6c0.2,0,0.4,0,0.7,0.1c1-2.8,2-5.6,3-8.4
			c0.3-0.7,0.3-1.7,1.4-1.7c0.9,0,2.1-0.4,2.8,0.3c0.6,0.6-0.1,1.5-0.4,2.2c-1.4,3.7-3,7.4-4.2,11.2c-0.8,2.6-2.7,1.9-4.4,2
			c-1.8,0.1-1.7-1.3-1.9-2.4C309.8,495.1,309.1,492.2,308.4,488.7z"/>
		<path class="st2" d="M280.5,489.5c-1.1,3.1-2.3,6.1-3.2,9.2c-0.6,2.2-2.3,1.5-3.7,1.7c-1.4,0.1-2-0.5-2.3-1.8
			c-1-4-2.1-7.9-3.1-11.8c-0.2-0.7-1.4-2.1,0.5-2.2c1.3-0.1,3.2-1.1,3.7,1.3c0.6,2.6,1.2,5.3,1.9,7.9c0.1,0.3,0,0.8,0.8,1
			c1-2.8,2.2-5.6,2.9-8.5c0.6-2.5,2.4-1.8,4-1.9c1.7-0.2,1.9,1,2.1,2.2c0.6,2.8,1.3,5.6,2.1,9.1c1.3-3.6,2.5-6.5,3.4-9.5
			c0.6-2.3,2.2-1.8,3.8-1.8c0.9,0,0.7,0.7,0.5,1.2c-1.7,4.6-3.3,9.2-5.2,13.6c-0.8,1.8-2.7,0.7-4.1,0.9c-1.2,0.1-1.3-0.9-1.5-1.8
			c-0.7-3-1.3-6.1-2-9.1C280.9,489.5,280.7,489.5,280.5,489.5z"/>
		<path class="st0" d="M252.8,455.6c-0.2,3.1-0.6,6.1-0.6,9.2c0,2.8-2,1.8-3.3,1.9c-1.9,0.1-1.2-1.2-1.2-2.2
			c0.3-4.7,0.7-9.4,0.9-14.1c0.1-1.6,0.5-2.3,2.4-2.3c2.7-0.1,4.2,0.5,4.7,3.4c0.5,2.6,1.5,5.1,2.8,7.7c0.2-2.9,0.4-5.8,0.6-8.7
			c0.1-2,2.5-3.2,4.2-2.2c0.5,0.3,0.4,0.8,0.4,1.3c-0.4,5.2-0.8,10.3-1.1,15.5c-0.1,1.4-0.6,1.6-1.9,1.6c-4,0-4,0.1-5.1-3.7
			c-0.8-2.5-1.6-5.1-2.4-7.6C253.1,455.6,253,455.6,252.8,455.6z"/>
		<path class="st0" d="M489.3,459c0.2-3,0.6-6,0.6-8.9c0-2.6,1.8-1.6,3.1-1.7c1.7-0.2,1.5,0.8,1.4,1.9c-0.4,4.9-0.7,9.9-1,14.8
			c-0.1,1.3-0.4,1.8-1.8,1.8c-4.1,0-4.1,0.1-5.3-3.8c-0.8-2.5-1.5-5-2.4-8c-0.8,3.7-0.7,6.9-1,10.1c-0.2,2.6-2,1.4-3.1,1.6
			c-1.5,0.3-1.4-0.8-1.3-1.8c0.4-5,0.7-10,1-15c0.1-1.2,0.5-1.6,1.7-1.7c4.2-0.2,4.2-0.2,5.4,3.7c0.7,2.3,1.5,4.7,2.2,7
			C489,459.1,489.1,459,489.3,459z"/>
		<path class="st2" d="M485.5,498.9c-0.7,0.4-1.4,0.8-2.1,1.1c-4.2,1.7-8-0.7-8.4-5.2c-0.1-2.1-0.1-4.1,0.8-6.1
			c1.9-4.2,5.8-5.6,9.9-3.4c0.5,0.3,0.8,0.9,1.5-0.1c0.7-1.1,2.1-0.6,3.1-0.4c1.2,0.3,0.7,1.5,0.6,2.2c-0.2,4.2-0.5,8.4-0.9,12.6
			c-0.6,6.3-7.8,10-13.4,6.9c-1.5-0.8-0.6-2-0.5-3c0.2-1.5,1.2-0.5,1.8-0.3C482.7,504.8,485.5,503.2,485.5,498.9z M486.2,492.1
			c0-2.8-0.9-4.3-2.5-4.6c-1.9-0.3-3.6,1.1-4.1,3.5c-0.4,1.9-0.4,3.8,1.2,5.3c0.9,0.9,2,0.9,3.1,0.4
			C485.8,495.7,486.1,493.8,486.2,492.1z"/>
		<path class="st0" d="M351.3,457.6c2,2.4,1.8,5.5,2.7,8.3c0.1,0.2,0,0.6-0.1,0.7c-1.4,0.5-2.8,0.2-4.2,0.2c-0.9,0-0.8-0.7-1-1.3
			c-0.3-1.5-0.6-3-1-4.4c-0.2-0.6-0.6-1.3-1.3-1.3c-1,0-0.6,0.9-0.6,1.5c-0.2,1.3-0.4,2.5-0.3,3.8c0,1.4-0.5,1.9-2,1.8
			c-3.1-0.1-3.2,0-3-3.2c0.3-4.5,0.7-9.1,0.9-13.6c0.1-1.3,0.4-1.9,1.8-1.8c2,0.1,4,0.1,6,0.2c2.4,0.1,4.5,0.6,5.1,3.3
			C355,454.2,354,456,351.3,457.6z M346,454.3c0.1,0.8-0.4,1.7,1,1.7c1.3-0.1,2.1-0.5,2.3-1.9c0.1-1.3-0.7-1.9-1.8-2
			C345.5,451.8,346.6,453.6,346,454.3z"/>
		<path class="st0" d="M296.3,457.5c1.9,2.5,1.9,5.5,2.6,8.2c0.1,0.3,0,0.8-0.2,0.9c-1.3,0.5-2.7,0.2-4,0.2c-1.2,0-1-1-1.1-1.8
			c-0.3-1.5-0.6-3-1-4.4c-0.1-0.5-0.6-1-1.3-0.8c-0.6,0.2-0.5,0.7-0.5,1.2c-0.1,1.3-0.2,2.6-0.2,3.8c0,1.6-0.7,2-2.3,2.1
			c-2.6,0.2-3-0.8-2.8-3.1c0.5-4.6,0.7-9.2,1-13.9c0.1-1.3,0.5-1.7,1.7-1.6c2.2,0.1,4.3,0.1,6.5,0.2c2.2,0.1,4.1,0.7,4.7,3.2
			C299.9,454.3,299,455.9,296.3,457.5z M291.1,454c-0.1,1-0.3,1.9,1.1,1.8c1.2-0.1,1.9-0.7,2-1.9c0.1-1.3-0.7-1.9-1.9-2
			C290.4,451.8,291.5,453.4,291.1,454z"/>
		<path class="st0" d="M282.7,456.7c-0.1,6.7-4,10.8-9.8,10.2c-1.6-0.2-3.1-0.8-4.3-1.9c-2.5-2.4-3-7.6-1.2-11.7
			c1.4-3.3,4.4-5.2,8.1-5.1C280,448.3,282.7,451.5,282.7,456.7z M277.5,456.9c-0.1-0.8,0-1.6-0.2-2.4c-0.2-1.3-0.6-2.6-2.2-2.7
			c-1.4-0.1-2.2,0.7-2.7,1.9c-1,2.4-1.2,5-0.6,7.5c0.2,1.1,0.9,1.9,2.1,2.1c1.2,0.1,1.9-0.6,2.5-1.6
			C277.2,460.3,277.4,458.6,277.5,456.9z"/>
		<path class="st0" d="M468.3,448.2c3.9,0,6.6,2.2,7.3,6.1c0.4,2.3,0.2,4.4-0.5,6.6c-1.4,4.3-4.8,6.5-9.3,6c-3.7-0.4-6-3.1-6.4-7.7
			C458.9,453,462.8,448.2,468.3,448.2z M464.6,458.8c0,0.4,0,0.9,0.1,1.5c0.3,1.4,0.6,2.8,2.2,3c1.7,0.2,2.6-1.1,3-2.5
			c0.6-2.2,1-4.3,0.4-6.6c-0.3-1.1-0.7-2.2-2-2.3c-1.4-0.2-2.2,0.7-2.8,1.9C464.8,455.3,464.6,456.9,464.6,458.8z"/>
		<path class="st0" d="M214.1,467.1c1.9-4.8,3.6-9.1,5.3-13.3c0.4-1.1,1-2.2,1.3-3.3c0.5-1.6,1.4-2.1,3.1-2.2
			c2.7-0.2,3.7,0.8,4.2,3.4c0.9,4.5,2.1,9,3.3,13.4c0.3,1.3,0.3,1.8-1.3,1.8c-2.2,0-4.2,0.2-4.1-2.9c0-0.4-0.2-0.7-0.6-0.9
			c-1.9-0.9-5,0.2-5.6,2.1C218.8,468.3,216.3,466.2,214.1,467.1z M223.8,453.2c-0.6,1.7-1.2,3.3-1.7,4.8c-0.1,0.3-0.4,0.9,0.1,1
			c0.8,0.2,1.6,0.2,2.4,0.1c0.5-0.1,0.5-0.6,0.4-1C224.4,456.6,224.8,454.8,223.8,453.2z"/>
		<path class="st0" d="M417.5,466.8c2.4-6,4.6-11.8,7.1-17.5c0.9-2.1,3.1-0.7,4.7-1c1.3-0.2,1.3,1,1.5,1.7c1.3,5,2.5,10.1,3.8,15.1
			c0.3,1.3,0.1,1.7-1.3,1.7c-2.2,0.1-4.2,0.2-4.1-2.9c0-0.5-0.1-1-0.8-1c-1.2,0-2.4,0-3.6,0c-1.7,0-1.5,1.6-1.9,2.6
			c-0.4,0.8-0.8,1.3-1.7,1.2C420,466.8,418.9,466.8,417.5,466.8z M427.3,452.9c-1,2.3-1.7,4.2-2.1,6.2c3.2,0.4,3.2,0.4,2.7-2.7
			C427.7,455.4,427.5,454.4,427.3,452.9z"/>
		<path class="st0" d="M331.6,466.8c-0.9,0-1.8,0-2.6,0c-3.3,0-3.3,0-3.1-3.1c0.3-4.5,0.7-9.1,0.9-13.6c0.1-1.4,0.6-1.8,1.9-1.8
			c2.7,0.1,5.4,0.1,8.1,0c1.2,0,1.6,0.5,1.4,1.6c-0.2,0.9,0.5,2.3-1.3,2.2c-1,0-2.1,0-3.1,0c-1.2,0-2.3-0.1-2.3,1.8
			c0,1.9,1.1,1.5,2.1,1.6c0.6,0,1.1,0,1.7,0c1.1,0,2.2-0.3,2.1,1.6c-0.1,1.5-0.2,2.5-2.1,2.2c-0.6-0.1-1.3,0.1-1.9,0
			c-2.2-0.4-2.5,0.7-2.4,2.5c0,1.1,0.4,1.4,1.4,1.3c1-0.1,1.9,0.1,2.9,0c2-0.3,2.4,0.5,2.2,2.3c-0.1,1.3-0.7,1.5-1.8,1.5
			C334.3,466.8,332.9,466.8,331.6,466.8z"/>
		<path class="st2" d="M460.2,492c-0.1,5.2-3.9,8.9-9,8.8c-4.6-0.1-7.7-3.3-7.6-7.8c0.1-5.2,3.9-9,9-8.9
			C457.3,484.2,460.3,487.3,460.2,492z M448.1,493c0,2.6,1.1,4.2,3.1,4.5c1.9,0.3,3.6-1,4.3-3.4c0.2-0.8,0.4-1.7,0.4-2.6
			c0-2-0.9-3.5-2.9-3.9c-2-0.4-3.4,0.6-4.3,2.3C448.1,490.9,448.1,491.9,448.1,493z"/>
		<path class="st2" d="M422.8,491.8c0,5.3-3.6,9-8.8,9c-4.7,0-7.7-2.9-7.7-7.6c0-5.4,3.7-9.2,8.9-9.1
			C419.9,484.2,422.8,487.1,422.8,491.8z M410.7,492.8c0,2.8,1.1,4.3,3,4.6c2,0.3,3.7-1,4.4-3.5c0.3-1.1,0.4-2.2,0.2-3.3
			c-0.2-1.5-1-2.7-2.6-3.1c-1.6-0.4-3,0.2-4,1.5C411,490.3,410.6,491.6,410.7,492.8z"/>
		<path class="st2" d="M371.9,491.3c-0.2,2.8-0.3,5.1-0.5,7.4c0,0.7,0.2,1.6-0.9,1.6c-1,0-2.3,0.7-2.8-0.6c-0.5-1.4-1-0.5-1.5-0.2
			c-1.5,0.9-3,1.4-4.8,1.1c-2-0.4-3.6-1.3-4-3.6c-0.4-2.3,0.7-4.5,2.8-5.6c1.8-0.9,3.7-1,5.6-1c0.7,0,2,0.5,2-0.9
			c0-1.1-0.7-1.8-1.7-2c-1.5-0.4-3-0.1-4.5,0.4c-0.6,0.2-1.5,1.3-1.8,0c-0.2-0.9-0.6-2.4,0.8-2.9c2.9-1.1,5.9-1.5,8.8,0
			c2.4,1.2,2.3,3.6,2.3,5.9C371.9,491.2,371.9,491.5,371.9,491.3z M363.9,497.6c1.9,0,3.8-1.9,3.6-3.4c-0.2-1.5-1.4-0.9-2.2-0.9
			c-2.3,0-4,1.2-3.9,2.7C361.6,497.3,362.7,497.6,363.9,497.6z"/>
		<path class="st2" d="M398.3,497.1c0.2-2.1,0.4-4.1,0.5-6.2c0.1-1.4-0.1-2.9-1.8-3.2c-1.7-0.4-2.9,0.6-3.6,2.1
			c-1.3,2.8-0.8,5.8-1.2,8.7c-0.2,1.3-0.4,2-1.9,2c-2.1,0.1-2.6-0.6-2.4-2.6c0.4-3.6,0.6-7.3,0.9-11c0.1-0.8-0.3-2,0.9-2.2
			c1-0.2,2.5-0.7,3.1,0.4c0.7,1.1,1.1,0.4,1.7,0.1c5.2-2.7,9-0.2,8.7,5.6c-0.1,2.5-0.4,4.9-0.4,7.4c0,2-0.9,2.3-2.7,2.3
			c-1.9,0-1.7-1.2-1.6-2.4C398.3,497.7,398.2,497.4,398.3,497.1z"/>
		<path class="st0" d="M322.6,462.2c0.4,4.6,0.3,4.7-4,4.8c-5.6,0.1-8.8-2.7-9-7.9c-0.3-6,3.2-10.5,8.4-10.9c1-0.1,1.9-0.1,2.9,0
			c2.8,0.2,3.5,1.6,2.5,4.1c-0.4,1.1-1,0.3-1.5,0.2c-2.2-0.8-4.4-0.7-5.8,1.3c-1.5,2.2-1.8,4.6-0.5,7c0.9,1.7,2.6,2.3,4.5,2
			C320.8,462.8,321.6,462.4,322.6,462.2z"/>
		<path class="st0" d="M387,448.3c1,0,1.9-0.1,2.9,0c1,0.1,2.5-0.7,2.4,1.5c-0.1,1.8-0.8,2.5-2.6,2.3c-0.7-0.1-1.4,0-2.1,0
			c-1.9-0.2-1.4,1.3-1.6,2.3c-0.3,1.3,0.6,1.4,1.5,1.4c0.6,0,1.3,0,1.9,0c0.9,0.1,2.2-0.5,2,1.4c-0.1,1.3,0,2.7-2,2.4
			c-0.6-0.1-1.3,0.1-1.9,0c-1.6-0.2-2.1,0.4-2.1,2c0,1.1-0.3,2.2-0.2,3.3c0.1,1.7-0.6,2-2.2,2.1c-2.2,0.1-3.1-0.3-2.7-2.8
			c0.6-4.5,0.8-9,1-13.6c0.1-1.7,0.6-2.4,2.4-2.2C384.8,448.5,385.9,448.3,387,448.3z"/>
		<path class="st0" d="M415.9,462.2c0.4,4.4,0.2,4.7-3.9,4.8c-5.5,0.1-8.7-2.5-8.9-7.4c-0.3-6.5,2.9-10.9,8.3-11.3
			c1.2-0.1,2.4,0,3.6,0.1c1.9,0.1,2.3,1.3,2,2.9c-0.2,1.1-0.1,2-1.8,1.3c-2.2-0.9-4.3-0.6-5.8,1.4c-1.5,2-1.5,5.7-0.1,7.5
			c1.6,2,3.7,1.8,5.9,1C415.3,462.4,415.6,462.3,415.9,462.2z"/>
		<path class="st0" d="M240.8,448.3c1,0,2.1,0,3.1,0c1,0,2.3-0.4,2.2,1.5c-0.1,1.6-0.5,2.6-2.3,2.3c-0.6-0.1-1.3,0.1-1.9,0
			c-1.5-0.2-2,0.4-2.1,1.9c-0.1,1.7,0.7,1.8,2,1.7c0.5,0,1-0.1,1.4,0c0.9,0.1,2.2-0.6,2,1.4c-0.1,1.5-0.1,2.5-2.2,2.4
			c-3.5-0.1-3.5,0-3.9,3.5c0,0.3-0.1,0.6-0.2,0.9c-0.3,2.6-1.8,3.6-4.3,2.8c-0.8-0.2-0.7-0.8-0.7-1.3c0.3-5.3,0.7-10.7,1.1-16
			c0.1-1,0.5-1.2,1.4-1.2C237.9,448.4,239.4,448.3,240.8,448.3z"/>
		<path class="st0" d="M363.7,448.3c1.3,0,2.6-0.1,3.8,0c0.9,0.1,2.4-0.7,2.3,1.3c-0.1,1.5,0,3-2.2,2.6c-1.6-0.3-2,0.4-2.1,2
			c-0.1,3.7-0.5,7.3-0.8,10.9c-0.2,3-2.5,1.2-3.8,1.5c-1.7,0.4-1.2-1.1-1.1-1.9c0.2-3.6,0.3-7.2,0.7-10.7c0.2-1.6-0.3-2-1.7-1.9
			c-1.2,0.1-2.1,0.1-1.9-1.7c0.1-1.5,0.2-2.5,2.1-2.3C360.5,448.5,362.2,448.3,363.7,448.3z"/>
		<path class="st0" d="M439.4,459.6c0.1-1.7,0.1-3.5,0.3-5.2c0.2-1.5-0.1-2.3-1.7-2.1c-1.3,0.2-2.1,0-1.9-1.7
			c0.1-1.5,0.3-2.3,2.1-2.3c3.1,0.1,6.2,0.1,9.3,0c1,0,1.8,0.1,1.5,1.4c-0.2,1,0.5,2.8-1.5,2.5c-2.5-0.3-2.8,1-2.8,3
			c-0.1,3.3-0.5,6.5-0.6,9.8c-0.1,3-2.4,1.5-3.7,1.7c-1.8,0.4-1.4-1-1.3-2C439.1,463.1,439.2,461.3,439.4,459.6
			C439.4,459.6,439.4,459.6,439.4,459.6z"/>
		<path class="st2" d="M377.2,496.4c0.2-2.2,0.3-4.4,0.5-6.7c0.1-1.2,0.1-2.3-1.6-2.2c-0.9,0.1-1.3-0.4-1.2-1.3
			c0.1-0.8,0.1-1.8,1.2-1.6c1.8,0.2,2-0.8,2.1-2.3c0.4-3.9,3.2-6,7-5.3c0.9,0.2,1.7,0.4,1.3,1.5c-0.3,0.7,0.5,2.3-1.5,1.9
			c-1.8-0.4-2.3,0.9-2.5,2.4c-0.3,1.7,0.8,1.8,2,1.7c1.1-0.1,1.4,0.5,1.3,1.5c0,0.9-0.3,1.7-1.4,1.5c-2.4-0.3-2.5,1.1-2.5,2.9
			c-0.1,2.5-0.4,5.1-0.4,7.6c0,1.9-0.8,2.4-2.6,2.4c-2.1,0-1.7-1.3-1.7-2.6C377.1,497.4,377.1,496.9,377.2,496.4
			C377.2,496.4,377.2,496.4,377.2,496.4z"/>
		<path class="st0" d="M450.7,463.5c0.3-4.5,0.7-8.9,0.9-13.4c0.1-3.1,2.4-1.5,3.7-1.8c1.7-0.4,1.5,0.9,1.4,1.9
			c-0.3,4.7-0.9,9.4-0.9,14.1c-0.1,3-1.9,2.3-3.7,2.4c-2.4,0.2-1.4-1.5-1.5-2.6C450.6,464,450.6,463.8,450.7,463.5
			C450.6,463.5,450.7,463.5,450.7,463.5z"/>
		<path class="st0" d="M400.2,450.5c-0.4,5.5-0.6,10.2-1,14.9c-0.2,2.8-2.4,1.1-3.7,1.4c-1.4,0.4-1.5-0.7-1.4-1.8
			c0.4-4.7,0.7-9.4,1-14.1c0.2-2.8,0.3-2.8,3.7-2.6C400.2,448.4,400.2,448.4,400.2,450.5z"/>
		<path class="st0" d="M371.5,464c0.3-4.7,0.6-9.4,0.9-14.1c0.2-2.8,2.4-1.3,3.7-1.6c1.6-0.4,1.6,0.8,1.5,1.9
			c-0.3,4.7-0.7,9.4-1,14.1c-0.2,2.7-0.2,2.7-3.8,2.5C371.3,466.7,371.3,466.7,371.5,464z"/>
		<path class="st2" d="M467.8,486.9c1.1-0.9,1.8-1.6,2.6-2.1c0.9-0.5,2.1-1.1,2.9-0.2c0.7,0.8,0.3,2.1,0.1,3.2
			c-0.1,0.8-0.8,0.6-1.4,0.5c-2.3-0.2-3.3,1.2-3.8,3.2c-0.6,2.3-0.5,4.8-0.7,7.1c-0.2,2.2-1.7,1.7-2.9,1.7c-1.7,0.1-1.4-1-1.3-2.1
			c0.3-3.9,0.5-7.8,0.7-11.7c0.1-1.5,0.6-2.1,2.1-2.1C467.8,484.5,468.3,485,467.8,486.9z"/>
		<path class="st2" d="M426.1,497c0.2-3.5,0.5-7,0.8-10.5c0.1-0.7-0.1-1.8,1.1-1.8c1,0,2.3-0.8,2.8,0.9c0.3,1,0.6,0.6,1.1,0.2
			c0.5-0.4,1-0.8,1.6-1.1c0.8-0.4,1.8-0.8,2.5-0.1c0.9,0.9,0.4,2.1,0.2,3.2c-0.1,1.1-1.1,0.6-1.8,0.6c-2.1,0.1-2.9,1.4-3.4,3.2
			c-0.5,2-0.6,4.1-0.6,6.2c0.1,2.1-0.7,3-2.9,2.8c-2.4-0.2-1.1-1.8-1.3-2.8C426,497.4,426.1,497.2,426.1,497z"/>
		<path class="st2" d="M150.5,345.9c-2.7,3.6-5,6.6-7.3,9.6c-0.5,0.7-5.7,1.1-6.4,0.6c-0.5-0.3-0.3-0.7-0.2-1
			c1.2-2.8,2.5-5.7,3.8-8.5c0.3-0.6,0.8-0.7,1.4-0.7C144.5,345.9,147.2,345.9,150.5,345.9z"/>
		<path class="st2" d="M382.1,345.9c-2.7,3.6-5,6.7-7.4,9.7c-0.5,0.7-5.5,1-6.2,0.5c-0.8-0.4-0.3-1-0.1-1.4c1.1-2.6,2.3-5.1,3.4-7.7
			c0.4-0.9,0.9-1.2,1.8-1.2C376.2,346,378.8,345.9,382.1,345.9z"/>
		<path class="st2" d="M439.8,498.2c0,1,0,2.6-2.4,2.2c-1.1-0.2-2.4,0.3-2.2-1.6c0.1-1.4-0.2-3.1,2.1-2.8
			C438.5,496.2,440,495.5,439.8,498.2z"/>
		<path class="st2" d="M351.7,500.4c-1.5,0.1-2.5,0.1-2.4-1.8c0.1-1.7,0.4-2.8,2.4-2.5c1,0.2,2.5-0.3,2.2,1.5
			C353.7,499,354.1,501,351.7,500.4z"/>
		<path class="st0" d="M147.9,212.2c-14.8-0.3-26.4-6.3-33.4-19.7c-4.1-7.8-3.8-16.2-2-24.6c2-9.5,7.5-17.1,13.2-24.5
			c12-15.5,27-27.2,45.8-33.4c7.9-2.6,16-4,24.3-4.1c11-0.1,20,8.8,20.3,19.8c0.2,7.5-2.9,13.7-7.1,19.4c-8,11-19,18.2-31.2,23.6
			c-11.5,5.1-23.2,10-34.8,14.9c-1.6,0.7-1.9,1.4-1.6,3c2.3,12.2,11.9,18.6,24,15.9c9.6-2.2,17.5-7.6,25.2-13.5
			c2.1-1.6,4.2-3.2,6-5.1c1.5-1.5,2.5-1.4,4-0.1c2.6,2.4,3.4,1.7,0.1,4.6c-12,10.2-25.1,18.5-40.6,22.2
			C156.1,211.7,152,212.2,147.9,212.2z M199.4,125.8c0.2-10-7-15.7-16-13.2c-4.2,1.2-7.9,3.4-11.1,6.5c-3.2,3-6.3,6.2-9.1,9.6
			c-11.1,13.2-19.1,27.9-22.4,45c-0.6,3.1-0.5,3.1,2.4,2.2c19.2-6.5,35.4-17.5,49-32.5C196.9,138.2,198.8,131.9,199.4,125.8z"/>
		<path class="st1" d="M284,322.3c4.4,0,6.2,1.4,6.5,5c0.3,4.1-1.8,6.8-5.8,7.3c-5.1,0.7-5,0.7-4.6-4.2c0.1-1.6,0.1-3.2,0.3-4.8
			C280.6,322.2,280.6,322.2,284,322.3z"/>
		<path class="st1" d="M283.5,314c-2.2,0.5-2.5-0.7-2.2-2.8c0.4-2.4,0.4-4.8,0.5-7.1c0.1-1.2,0.6-1.6,1.8-1.7
			c4.3-0.2,7.1,1.6,7.2,5.1C291.1,311.4,288.4,313.9,283.5,314z"/>
		<path class="st1" d="M241.5,304.7c0.9,5,1.8,10,2.7,15c0.7,4.1,0.7,4.1-3.6,4.1c-2,0-5.1,0.6-5.7-0.3c-1-1.5,0.8-3.8,1.5-5.7
			c1.5-4.4,3.1-8.7,4.6-13.1C241.1,304.8,241.3,304.7,241.5,304.7z"/>
		<path class="st1" d="M233.2,369.5c1.1,6,2.2,12,3.2,18.1c0.2,1.1-0.6,1.1-1.3,1.1c-2.6,0-5.1,0-7.7,0c-1.1,0-1.4-0.4-1-1.4
			c2.1-5.9,4.2-11.9,6.4-17.8C232.9,369.5,233,369.5,233.2,369.5z"/>
		<path class="st1" d="M400.5,383.4c4.8-9.9,12.5-15.3,21.9-18.7c1.9-0.7,3.9-1.4,6-1.4c0.7,0,1.5-0.2,1.9,0.6
			c0.3,0.7-0.3,1.2-0.6,1.7c-1,1.7-2.5,3.1-4,4.5c-6.3,5.5-13,10.4-21.2,12.6C403.4,382.9,402.1,383.1,400.5,383.4z"/>
		<path class="st1" d="M486.2,492.1c-0.1,1.7-0.4,3.6-2.4,4.6c-1.1,0.6-2.2,0.5-3.1-0.4c-1.6-1.5-1.6-3.4-1.2-5.3
			c0.5-2.4,2.3-3.8,4.1-3.5C485.4,487.8,486.3,489.4,486.2,492.1z"/>
		<path class="st1" d="M346,454.3c0.5-0.7-0.5-2.5,1.5-2.2c1.2,0.1,1.9,0.7,1.8,2c-0.1,1.3-1,1.8-2.3,1.9
			C345.7,456,346.1,455,346,454.3z"/>
		<path class="st1" d="M291.1,454c0.4-0.6-0.7-2.2,1.3-2c1.2,0.1,2,0.7,1.9,2c-0.1,1.2-0.8,1.8-2,1.9C290.8,456,291,455,291.1,454z"
			/>
		<path class="st1" d="M277.5,456.9c-0.1,1.7-0.3,3.4-1.1,4.9c-0.5,1-1.3,1.7-2.5,1.6c-1.2-0.1-1.8-1-2.1-2.1
			c-0.6-2.6-0.4-5.1,0.6-7.5c0.5-1.2,1.3-2.1,2.7-1.9c1.6,0.1,2,1.4,2.2,2.7C277.4,455.3,277.4,456.1,277.5,456.9z"/>
		<path class="st1" d="M464.6,458.8c0-1.9,0.2-3.5,0.9-5.1c0.5-1.2,1.3-2,2.8-1.9c1.4,0.2,1.7,1.2,2,2.3c0.6,2.3,0.2,4.4-0.4,6.6
			c-0.4,1.5-1.2,2.7-3,2.5c-1.7-0.2-2-1.7-2.2-3C464.6,459.7,464.6,459.2,464.6,458.8z"/>
		<path class="st1" d="M223.8,453.2c1,1.7,0.6,3.4,1.1,5c0.1,0.4,0.2,0.9-0.4,1c-0.8,0.1-1.6,0.1-2.4-0.1c-0.4-0.1-0.2-0.7-0.1-1
			C222.7,456.5,223.2,454.9,223.8,453.2z"/>
		<path class="st1" d="M427.3,452.9c0.3,1.5,0.4,2.5,0.6,3.5c0.5,3,0.5,3-2.7,2.7C425.6,457.1,426.3,455.2,427.3,452.9z"/>
		<path class="st1" d="M448.1,493c0-1,0-2.1,0.6-3c0.9-1.7,2.3-2.7,4.3-2.3c2,0.4,2.9,1.9,2.9,3.9c0,0.9-0.1,1.8-0.4,2.6
			c-0.7,2.4-2.4,3.6-4.3,3.4C449.2,497.2,448.1,495.6,448.1,493z"/>
		<path class="st1" d="M410.7,492.8c-0.1-1.3,0.3-2.5,1.1-3.7c1-1.4,2.3-1.9,4-1.5c1.6,0.4,2.4,1.5,2.6,3.1c0.2,1.1,0.1,2.2-0.2,3.3
			c-0.7,2.4-2.4,3.8-4.4,3.5C411.8,497.2,410.8,495.6,410.7,492.8z"/>
		<path class="st1" d="M363.9,497.6c-1.2,0-2.3-0.3-2.5-1.7c-0.2-1.5,1.5-2.7,3.9-2.7c0.8,0,2.1-0.6,2.2,0.9
			C367.7,495.7,365.8,497.6,363.9,497.6z"/>
		<path class="st2" d="M199.4,125.8c-0.6,6.1-2.5,12.3-7.2,17.5c-13.6,15-29.8,26-49,32.5c-2.9,1-3,0.9-2.4-2.2
			c3.3-17.1,11.3-31.8,22.4-45c2.8-3.4,5.9-6.5,9.1-9.6c3.2-3,6.8-5.3,11.1-6.5C192.4,110.1,199.7,115.8,199.4,125.8z"/>
	</g>
</g>
</svg>
