<svg width="64" height="56" viewBox="0 0 64 56" fill="none" xmlns="http://www.w3.org/2000/svg">
<g clip-path="url(#clip0_2547_1707)">
<path d="M57.2583 54.9015C57.1703 54.9015 57.1559 54.9733 57.1461 55.0255C57.101 55.2702 57.0267 55.3859 56.8702 55.4522C56.7049 55.523 56.4272 55.523 56.2612 55.523C55.5874 55.523 55.5159 55.4322 55.5033 55.0438C55.499 54.9176 55.5008 54.6003 55.5026 54.3455L55.5033 54.0913V53.6058C55.5033 53.5915 55.5044 53.5855 55.5055 53.5827C55.6894 53.5827 56.3247 53.5894 56.4438 53.6009C56.6992 53.6265 56.7587 53.7275 56.7811 53.8123C56.794 53.8656 56.7984 53.9206 56.802 53.9697C56.8034 53.99 56.8049 54.0093 56.807 54.0282V54.0237C56.807 54.0829 56.8438 54.118 56.907 54.118C57.0062 54.118 57.0062 54.0086 57.0062 53.9623C57.0062 53.921 57.0195 53.6759 57.0325 53.5543C57.0462 53.3356 57.0668 53.2227 57.0776 53.1617C57.083 53.1329 57.0859 53.1154 57.0859 53.101C57.0859 53.0467 57.0527 53.013 56.9997 53.013C56.9513 53.013 56.9185 53.0481 56.8723 53.0961L56.864 53.1056C56.8135 53.1575 56.7183 53.1743 56.5704 53.1852C56.473 53.1932 56.0971 53.1974 55.5105 53.1974C55.5073 53.1974 55.5069 53.1974 55.5062 53.1971C55.5051 53.1943 55.5033 53.1883 55.5033 53.1687V51.6126C55.5033 51.5972 55.5055 51.5923 55.5062 51.5902C55.5069 51.5898 55.5073 51.5898 55.5105 51.5898C55.657 51.5898 56.3417 51.6024 56.4499 51.614C56.7713 51.6501 56.8236 51.7181 56.8629 51.8117C56.8922 51.8762 56.8997 51.9723 56.8997 52.0182C56.8997 52.1016 56.9336 52.143 56.9997 52.143C57.0552 52.143 57.0902 52.11 57.105 52.0452C57.114 51.9943 57.1223 51.8667 57.1292 51.7644C57.1335 51.7062 57.1367 51.6564 57.1385 51.635C57.1519 51.445 57.1707 51.3518 57.1822 51.2961C57.1883 51.2677 57.1916 51.2484 57.1916 51.2308C57.1916 51.146 57.1357 51.1369 57.1119 51.1369C57.0852 51.1369 57.0581 51.1453 57.0339 51.1523C57.0209 51.1569 57.009 51.1604 56.9986 51.1621C56.9383 51.1758 56.8085 51.1895 56.7165 51.1982C56.6054 51.2035 55.5203 51.2042 55.0589 51.2042C54.9809 51.2042 54.8615 51.2011 54.7234 51.1972C54.5372 51.1919 54.3056 51.1863 54.1015 51.1863C54.0362 51.1863 53.9153 51.1863 53.9153 51.2803C53.9153 51.3742 54.0264 51.3746 54.0679 51.3746C54.1711 51.3746 54.2739 51.3819 54.3183 51.3921C54.5235 51.4321 54.561 51.5176 54.5737 51.7069C54.5867 51.9025 54.5867 52.0718 54.5867 53.0092V54.0913C54.5867 54.655 54.5867 55.1412 54.5538 55.3971C54.5253 55.5843 54.4929 55.6835 54.3929 55.7018C54.3157 55.7182 54.2403 55.726 54.1617 55.726C54.0643 55.726 54.0152 55.7554 54.0152 55.8136C54.0152 55.8802 54.0737 55.9142 54.188 55.9142C54.3396 55.9142 54.539 55.9082 54.714 55.903C54.8457 55.8991 54.96 55.8956 55.025 55.8956C55.1754 55.8956 55.3316 55.9009 55.5289 55.9079C55.8493 55.9188 56.2486 55.9321 56.8665 55.9321C57.1227 55.9321 57.2093 55.9321 57.2637 55.7442C57.2987 55.6155 57.3517 55.1952 57.3517 55.0511C57.3517 54.9916 57.3517 54.9011 57.2587 54.9011M50.8411 55.7256C50.7509 55.7256 50.6243 55.7189 50.4403 55.6657C50.2747 55.6194 50.2051 55.482 50.143 55.0764L49.5377 51.2736C49.5294 51.2186 49.5027 51.05 49.379 51.05C49.2845 51.05 49.235 51.138 49.1964 51.2207C49.1968 51.2196 47.6734 54.1783 47.4241 54.6631L45.6457 51.2624C45.5573 51.0997 45.5079 51.05 45.431 51.05C45.3784 51.05 45.3087 51.0833 45.2784 51.2424C45.2784 51.2431 44.6197 55.2538 44.6197 55.2541C44.5851 55.4718 44.5321 55.6779 44.3787 55.7081C44.2839 55.726 44.2391 55.726 44.1879 55.726C44.0905 55.726 44.0418 55.7536 44.0418 55.808C44.0418 55.8784 44.0952 55.9142 44.2013 55.9142C44.3221 55.9142 44.4754 55.9082 44.6107 55.903C44.7146 55.8991 44.8048 55.8956 44.8589 55.8956C44.9058 55.8956 44.9826 55.8988 45.0717 55.9023C45.2124 55.9079 45.3877 55.9142 45.5573 55.9142C45.6219 55.9142 45.7568 55.9142 45.7568 55.808C45.7568 55.7887 45.747 55.726 45.6175 55.726C45.5331 55.726 45.4422 55.7161 45.347 55.6958C45.1962 55.6625 45.1785 55.5892 45.1785 55.537C45.1785 55.4357 45.1857 55.3558 45.1987 55.2524C45.1987 55.2531 45.4714 53.3173 45.532 52.8893L45.8047 53.4256C45.9819 53.7734 46.1493 54.1012 46.1861 54.1804C46.2654 54.3525 46.7827 55.2801 46.9515 55.5794L46.9714 55.6145C47.0796 55.8034 47.1395 55.9075 47.2192 55.9075C47.3076 55.9075 47.3484 55.8297 47.5006 55.5419C47.5013 55.5419 48.6889 53.2514 48.9136 52.8185L49.3 55.4434C49.3249 55.605 49.3032 55.6593 49.2935 55.6657C49.2592 55.6797 49.1928 55.7056 49.1928 55.7705C49.1928 55.8518 49.2924 55.8662 49.4226 55.8763C49.6849 55.8949 50.6019 55.9135 50.7754 55.9135C50.9605 55.9135 50.9879 55.8469 50.9879 55.8073C50.9879 55.7252 50.8822 55.7253 50.8418 55.7253M39.8529 53.0386L39.6664 52.9089C39.0848 52.5009 38.9784 52.3011 38.9784 52.0546C38.9784 51.6932 39.2735 51.4601 39.7299 51.4601C40.1314 51.4601 40.3182 51.6242 40.4232 51.7476C40.5592 51.9032 40.5863 52.0876 40.5863 52.1286C40.5863 52.2527 40.6447 52.2786 40.6934 52.2786C40.8063 52.2786 40.8063 52.1388 40.8063 52.055C40.8063 51.715 40.8193 51.5295 40.828 51.4187C40.8312 51.3739 40.833 51.3413 40.833 51.3171C40.833 51.2312 40.7425 51.2126 40.7085 51.2049C40.5112 51.1565 40.2306 51.1001 39.8157 51.1001C38.8882 51.1001 38.2403 51.594 38.2403 52.3011C38.2403 52.8374 38.5394 53.283 39.2403 53.7902L39.5462 54.0118C40.0736 54.3879 40.1819 54.6645 40.1819 54.9646C40.1819 55.286 39.8835 55.6274 39.3309 55.6274C39.061 55.6274 38.5841 55.55 38.4186 55.0336C38.3839 54.9235 38.3601 54.8023 38.3601 54.7311C38.3601 54.6361 38.3248 54.5881 38.2541 54.5881C38.1487 54.5881 38.1379 54.7304 38.1347 54.784L38.1332 54.8089C38.1245 54.9369 38.1015 55.2769 38.1015 55.592C38.1015 55.7421 38.13 55.788 38.2523 55.8374C38.5304 55.9517 38.8262 56.0004 39.2378 56.0004C39.6696 56.0004 40.0228 55.9159 40.315 55.7421C40.8756 55.4034 40.9593 54.9057 40.9593 54.6392C40.9593 54.044 40.6692 53.6251 39.8529 53.0393M34.4616 55.726C34.3616 55.726 34.2152 55.713 34.1279 55.7014C33.9562 55.6807 33.9154 55.5948 33.8956 55.4339C33.87 55.1724 33.87 54.6957 33.87 54.0913V53.0092C33.87 52.0715 33.87 51.9025 33.8826 51.7069C33.8956 51.4945 33.9479 51.418 34.0961 51.3925C34.1708 51.3809 34.2238 51.3746 34.2888 51.3746C34.3245 51.3746 34.4345 51.3746 34.4345 51.2743C34.4345 51.1867 34.3043 51.1867 34.2552 51.1867C34.1149 51.1867 33.9316 51.1923 33.7689 51.1968C33.6398 51.2011 33.5175 51.2049 33.4439 51.2049C33.3545 51.2049 33.2156 51.2007 33.068 51.1961C32.8952 51.1912 32.7156 51.1867 32.5799 51.1867C32.5103 51.1867 32.3805 51.1867 32.3805 51.2743C32.3805 51.3746 32.4908 51.3746 32.5266 51.3746C32.616 51.3746 32.695 51.3826 32.7556 51.3977C32.8837 51.4247 32.94 51.5137 32.9519 51.7069C32.9652 51.9025 32.9652 52.0718 32.9652 53.0092V54.0913C32.9652 54.6957 32.9652 55.1721 32.9324 55.428C32.9111 55.6145 32.8707 55.6839 32.7711 55.7021C32.6943 55.7186 32.6185 55.7263 32.5392 55.7263C32.4421 55.7263 32.3927 55.7557 32.3927 55.8139C32.3927 55.8805 32.4512 55.9145 32.5659 55.9145C32.7177 55.9145 32.9165 55.9086 33.0922 55.9033C33.2242 55.8995 33.3379 55.896 33.4035 55.896C33.4728 55.896 33.577 55.8988 33.7087 55.9023C33.915 55.9082 34.1723 55.9145 34.4406 55.9145C34.5907 55.9145 34.607 55.8444 34.607 55.8139C34.607 55.7813 34.5878 55.7263 34.4609 55.7263M27.1623 53.5308C27.0512 53.6055 26.9747 53.6286 26.7132 53.6286C26.5252 53.6286 26.3409 53.6069 26.2197 53.5687C26.1991 53.5606 26.1883 53.5557 26.1883 53.4951V51.6252C26.1883 51.5863 26.1955 51.5825 26.219 51.5768C26.2767 51.5604 26.3817 51.5534 26.5606 51.5534C26.9235 51.5534 27.5378 51.7826 27.5378 52.6404C27.5378 53.1936 27.303 53.4362 27.163 53.5308M29.8574 55.7263C29.8076 55.7263 29.7506 55.7203 29.6778 55.7081C29.6789 55.7084 29.6706 55.707 29.6706 55.707C29.5714 55.6884 29.308 55.6383 28.9556 55.3007C28.6168 54.9716 28.233 54.5232 27.7467 53.9553L27.5411 53.7152C28.1432 53.2556 28.4022 52.8399 28.4022 52.3326C28.4022 51.8741 28.0948 51.5593 27.9321 51.4573C27.5559 51.2189 27.092 51.1867 26.6876 51.1867C26.5866 51.1867 26.417 51.1909 26.2381 51.1951C26.0548 51.2 25.8658 51.2049 25.7504 51.2049C25.6973 51.2049 25.6035 51.2025 25.4852 51.1986C25.294 51.193 25.057 51.1867 24.8399 51.1867C24.7749 51.1867 24.6534 51.1867 24.6534 51.2806C24.6534 51.3746 24.7648 51.3749 24.8067 51.3749C24.9095 51.3749 25.0123 51.3823 25.0563 51.3925C25.2616 51.4324 25.2994 51.5187 25.3113 51.7072C25.3247 51.9029 25.3247 52.0722 25.3247 53.0095V54.0917C25.3247 54.6554 25.3247 55.1416 25.2919 55.3975C25.2641 55.5847 25.2309 55.6839 25.1313 55.7021C25.0541 55.7186 24.978 55.7263 24.899 55.7263C24.8023 55.7263 24.7529 55.7557 24.7529 55.8139C24.7529 55.8805 24.8114 55.9145 24.9257 55.9145C25.0841 55.9145 25.2969 55.9079 25.4679 55.9026C25.5848 55.8991 25.6862 55.896 25.7367 55.896C25.7699 55.896 25.8496 55.8981 25.9506 55.9009C26.1526 55.9065 26.4574 55.9145 26.7136 55.9145C26.8283 55.9145 26.8863 55.8805 26.8863 55.8139C26.8863 55.7715 26.855 55.7263 26.7666 55.7263C26.6869 55.7263 26.5411 55.7137 26.4462 55.7018C26.2828 55.6814 26.2424 55.5833 26.2211 55.3978C26.1883 55.1416 26.1883 54.6526 26.1883 54.0854V53.9995C26.1883 53.9925 26.1894 53.9911 26.1894 53.9907C26.1908 53.9907 26.1937 53.9893 26.2017 53.9893C26.2009 53.9893 26.7788 54.0016 26.7788 54.0016C26.8268 54.0016 26.8492 54.009 26.8694 54.0314C26.9177 54.0836 27.0404 54.2449 27.1822 54.4317L27.5256 54.8783C27.9163 55.3758 28.1663 55.6534 28.4502 55.794C28.6341 55.8851 28.8116 55.9149 29.1792 55.9149H29.8105C29.8556 55.9149 29.9768 55.9149 29.9768 55.8143C29.9768 55.7719 29.9454 55.7267 29.8571 55.7267M21.3057 51.187C21.1383 51.187 20.9074 51.1944 20.7386 51.1997C20.6477 51.2028 20.5755 51.2053 20.5474 51.2053C20.5481 51.2053 20.529 51.2046 20.529 51.2046C20.1592 51.1902 19.9193 51.187 19.7833 51.187C19.7249 51.187 19.6037 51.187 19.6037 51.281C19.6037 51.3749 19.7148 51.3753 19.7566 51.3753C19.8324 51.3753 19.9395 51.3819 19.9868 51.3928C20.1924 51.4328 20.2299 51.5183 20.2418 51.7076C20.2552 51.9032 20.2552 52.0725 20.2552 53.0099V53.7783C20.2552 54.4307 20.2278 54.9554 19.8818 55.2758C19.5683 55.5657 19.1553 55.5973 18.9922 55.5973C18.7523 55.5973 18.4688 55.5682 18.1856 55.3533C17.9244 55.1563 17.6827 54.8398 17.6827 53.8705V53.0095C17.6827 52.0718 17.6827 51.9029 17.6954 51.7072C17.7087 51.4948 17.7603 51.4184 17.9086 51.3928C17.9879 51.3805 18.0244 51.3749 18.0943 51.3749C18.1304 51.3749 18.2408 51.3749 18.2408 51.2806C18.2408 51.1863 18.1196 51.1867 18.0547 51.1867C17.9223 51.1867 17.734 51.1923 17.568 51.1968C17.4345 51.2011 17.3083 51.2049 17.2369 51.2049C17.1521 51.2049 17.0269 51.2018 16.8822 51.1979C16.6882 51.1926 16.4681 51.187 16.2665 51.187C16.2012 51.187 16.0803 51.187 16.0803 51.281C16.0803 51.3749 16.1911 51.3753 16.2333 51.3753C16.3361 51.3753 16.4389 51.3826 16.4833 51.3928C16.6889 51.4328 16.7264 51.519 16.7383 51.7076C16.7517 51.9032 16.7517 52.0725 16.7517 53.0099V53.908C16.7517 54.6957 16.9443 55.2226 17.357 55.5675C17.8754 56.0015 18.5644 56.0015 18.8588 56.0015C19.2498 56.0015 19.7628 55.9503 20.2667 55.55C20.8345 55.0995 20.9125 54.3795 20.9125 53.6682V53.0102C20.9125 52.0725 20.9125 51.9036 20.9258 51.7079C20.9392 51.4955 20.9907 51.4191 21.139 51.3935C21.2184 51.3812 21.2548 51.3756 21.3244 51.3756C21.3724 51.3756 21.4842 51.3756 21.4842 51.2813C21.4842 51.187 21.363 51.1874 21.3046 51.1874M10.5256 55.6166C9.9275 55.6166 9.41993 55.3905 9.05775 54.9632C8.71432 54.5579 8.52493 53.9886 8.52493 53.3608C8.52493 51.7185 9.52419 51.4738 10.1201 51.4738C11.2431 51.4738 12.0277 52.3761 12.0277 53.6682C12.0277 55.4266 10.9773 55.6166 10.5252 55.6166M12.3026 51.7328C11.8214 51.3195 11.1338 51.1011 10.3128 51.1011C8.39903 51.1011 7.52748 52.3712 7.52748 53.5508C7.52748 54.7304 8.37811 56.0011 10.2457 56.0011C11.0678 56.0011 11.7723 55.7438 12.2831 55.2573C12.7698 54.7935 13.0378 54.1481 13.0378 53.44C13.0378 52.7319 12.7835 52.1458 12.3026 51.7325M4.47921 51.1439C4.46153 51.1439 4.43881 51.1485 4.4049 51.1551C4.31615 51.1727 4.15165 51.2049 3.84106 51.2049H1.20944C0.997685 51.2049 0.744805 51.1933 0.548922 51.1744C0.452243 51.167 0.390917 51.1425 0.346546 51.1243C0.3148 51.1117 0.287384 51.1008 0.258885 51.1008C0.176997 51.1008 0.15427 51.1923 0.140562 51.247C0.130461 51.2834 -0.000488281 51.8566 -0.000488281 51.9635C-0.000488281 52.001 -0.000488281 52.1006 0.0990766 52.1006C0.183129 52.1006 0.203692 52.0234 0.210907 51.9979C0.219564 51.9652 0.245177 51.8958 0.317686 51.7956C0.4021 51.6813 0.533771 51.6459 0.930948 51.6329C0.930948 51.6329 1.69428 51.6144 1.88006 51.6094V54.0917C1.88006 54.6554 1.88006 55.1416 1.84723 55.3975C1.82451 55.5998 1.77941 55.6849 1.6867 55.7021C1.60914 55.7186 1.53375 55.7263 1.45475 55.7263C1.35771 55.7263 1.30865 55.7557 1.30865 55.8139C1.30865 55.8805 1.36672 55.9145 1.48108 55.9145C1.63295 55.9145 1.83208 55.9086 2.0074 55.9033C2.13943 55.8995 2.25343 55.896 2.31872 55.896C2.39195 55.896 2.50378 55.8991 2.63365 55.9023C2.83927 55.9082 3.09612 55.9145 3.36235 55.9145C3.51206 55.9145 3.52865 55.8444 3.52865 55.8139C3.52865 55.7813 3.50953 55.7263 3.38219 55.7263C3.28263 55.7263 3.1358 55.7133 3.04887 55.7018C2.88509 55.6814 2.84432 55.5861 2.8234 55.4038C2.79057 55.1416 2.79057 54.655 2.79057 54.0913V51.6091L3.58709 51.6263C4.04524 51.6361 4.31723 51.749 4.33275 51.9355C4.33275 51.9362 4.3396 52.0038 4.3396 52.0038C4.34429 52.0697 4.35114 52.1616 4.45215 52.1616C4.53729 52.1616 4.54739 52.0683 4.55172 52.029V52.0245C4.55172 51.9407 4.55713 51.7851 4.56254 51.6343C4.56723 51.4997 4.57192 51.3728 4.57192 51.3108C4.57192 51.2361 4.57192 51.1432 4.47849 51.1432M55.2966 42.9978C55.315 42.9978 55.3352 42.9884 55.3853 42.9649L55.4268 42.9452C55.6671 42.8254 56.1891 42.6287 56.5509 42.5863C56.6458 42.5772 56.701 42.5814 56.7378 42.5845C56.7518 42.5856 56.7623 42.5863 56.7724 42.5863C56.8067 42.5863 56.8359 42.5723 56.8507 42.5481C56.8684 42.5197 56.8647 42.4822 56.8406 42.437C56.7529 42.2536 56.6963 42.1453 56.6472 42.0668C56.6151 42.0124 56.5913 41.9739 56.5192 41.9739C56.4824 41.9739 56.4246 41.9967 56.3648 42.0356C56.2634 42.0945 55.5621 42.5747 55.2894 42.8138C55.2493 42.851 55.2162 42.8818 55.2162 42.9228C55.2162 42.9715 55.2638 42.9982 55.2962 42.9982M54.0661 43.5826C54.1689 43.5826 54.2717 43.5899 54.3168 43.6001C54.5217 43.6404 54.5592 43.7263 54.5719 43.9156C54.5849 44.1108 54.5849 44.2798 54.5849 45.2172V46.3C54.5849 46.863 54.5849 47.3492 54.552 47.6051C54.5235 47.7927 54.4911 47.8919 54.3911 47.9097C54.341 47.9206 54.2627 47.9346 54.1599 47.9346C54.0625 47.9346 54.0134 47.9644 54.0134 48.0226C54.0134 48.0889 54.0719 48.1225 54.1862 48.1225C54.3377 48.1225 54.5372 48.1166 54.7122 48.1113C54.8439 48.1071 54.9582 48.1039 55.0232 48.1039C55.1736 48.1039 55.3298 48.1099 55.5271 48.1162C55.8475 48.1274 56.2468 48.1411 56.8647 48.1411C57.1209 48.1411 57.2074 48.1411 57.2619 47.9529C57.2969 47.8242 57.3499 47.4032 57.3499 47.2591C57.3499 47.1995 57.3499 47.1098 57.2569 47.1098C57.1688 47.1098 57.1544 47.1809 57.1447 47.2335C57.0996 47.4782 57.0253 47.5939 56.8687 47.6608C56.7035 47.7313 56.4257 47.7313 56.2598 47.7313C55.5859 47.7313 55.5145 47.6405 55.5019 47.2521C55.4975 47.1256 55.4993 46.8083 55.5011 46.5535L55.5019 46.3V45.8138C55.5019 45.7998 55.5029 45.7945 55.504 45.791C55.657 45.791 56.3175 45.797 56.4423 45.8096C56.6977 45.8345 56.7572 45.9358 56.7796 46.0206C56.7926 46.0739 56.7969 46.1289 56.8005 46.1777C56.802 46.198 56.8034 46.2176 56.8056 46.2359V46.2317C56.8056 46.2909 56.8424 46.326 56.9055 46.326C57.0047 46.326 57.0047 46.2166 57.0047 46.1703C57.0047 46.1289 57.0181 45.8836 57.031 45.7619C57.0448 45.5432 57.0653 45.4306 57.0761 45.37C57.0815 45.3409 57.0844 45.3234 57.0844 45.309C57.0844 45.255 57.0513 45.2214 56.9982 45.2214C56.9495 45.2214 56.9163 45.2564 56.8705 45.3052L56.8626 45.3139C56.8121 45.3654 56.7168 45.3819 56.5689 45.3935C56.4715 45.4016 56.0956 45.4058 55.5091 45.4058C55.5058 45.4058 55.5055 45.4058 55.5047 45.4054C55.5037 45.4026 55.5019 45.3963 55.5019 45.377V43.8206C55.5019 43.8052 55.504 43.7999 55.5047 43.7985C55.5055 43.7985 55.5062 43.7985 55.5091 43.7985C55.6335 43.7985 56.3373 43.8108 56.4484 43.8223C56.7699 43.8584 56.8222 43.9271 56.8615 44.0204C56.8907 44.0845 56.8983 44.1802 56.8983 44.2269C56.8983 44.3099 56.9322 44.352 56.9982 44.352C57.0538 44.352 57.0888 44.3194 57.1036 44.2539C57.1126 44.2034 57.1209 44.0758 57.1277 43.9734C57.1321 43.9152 57.1353 43.8651 57.1371 43.8437C57.1505 43.6534 57.1692 43.5605 57.1808 43.5047C57.1869 43.4763 57.1901 43.4571 57.1901 43.4392C57.1901 43.3543 57.1342 43.3456 57.1104 43.3456C57.0841 43.3456 57.057 43.3533 57.0332 43.3614C57.0199 43.3652 57.0076 43.3687 56.9971 43.3705C56.9369 43.3845 56.8074 43.3982 56.715 43.4069C56.6039 43.4122 55.5188 43.4125 55.0574 43.4125C54.9795 43.4125 54.8601 43.4094 54.7219 43.4062C54.5358 43.401 54.3042 43.395 54.1 43.395C54.0347 43.395 53.9139 43.395 53.9139 43.489C53.9139 43.5829 54.025 43.5829 54.0665 43.5829M44.7297 44.3089C44.8134 44.3089 44.8336 44.2346 44.8416 44.2065C44.8499 44.1736 44.8758 44.1045 44.948 44.0032C45.0328 43.8889 45.1644 43.8542 45.5616 43.8409C45.5612 43.8409 46.3246 43.8216 46.5111 43.8174V46.3004C46.5111 46.8633 46.5111 47.3496 46.4775 47.6055C46.4552 47.8077 46.4101 47.8933 46.3174 47.9101C46.2669 47.921 46.1889 47.935 46.0854 47.935C45.9887 47.935 45.9397 47.9648 45.9397 48.023C45.9397 48.0892 45.9977 48.1229 46.1125 48.1229C46.264 48.1229 46.4624 48.1169 46.6381 48.1117C46.7705 48.1074 46.8844 48.1043 46.9501 48.1043C47.0226 48.1043 47.1344 48.1074 47.2647 48.111C47.4707 48.1166 47.7268 48.1232 47.9937 48.1232C48.1427 48.1232 48.1593 48.0531 48.1593 48.0233C48.1593 47.99 48.1402 47.9353 48.0132 47.9353C47.9151 47.9353 47.7686 47.9224 47.6799 47.9104C47.5168 47.8905 47.4761 47.7944 47.4548 47.6118C47.4216 47.3499 47.4216 46.8633 47.4216 46.3004V43.8174L48.2185 43.8346C48.6766 43.8448 48.9486 43.9576 48.9641 44.1445L48.9713 44.2125C48.9757 44.2784 48.9822 44.3702 49.0839 44.3702C49.1694 44.3702 49.1799 44.2731 49.1835 44.237C49.1835 44.1497 49.1892 43.9937 49.1946 43.8437C49.1993 43.7091 49.2033 43.5815 49.2033 43.5198C49.2033 43.4451 49.2033 43.3519 49.1102 43.3519C49.0929 43.3519 49.0698 43.3564 49.0363 43.3631C48.9475 43.3806 48.783 43.4129 48.4721 43.4129H45.8401C45.6291 43.4129 45.3762 43.4017 45.1792 43.3827C45.0825 43.3754 45.0216 43.3508 44.9772 43.333C44.9455 43.3203 44.9177 43.3088 44.8899 43.3088C44.808 43.3088 44.7849 43.4003 44.7712 43.455C44.7604 43.4949 44.6302 44.0663 44.6302 44.1718C44.6302 44.2093 44.6302 44.3092 44.7301 44.3092M38.8229 48.1043C38.8922 48.1043 38.9961 48.1071 39.1274 48.111C39.3341 48.1166 39.5913 48.1232 39.8594 48.1232C40.0094 48.1232 40.0257 48.0531 40.0257 48.0233C40.0257 47.99 40.0069 47.9353 39.8799 47.9353C39.7811 47.9353 39.6375 47.9224 39.5462 47.9104C39.3752 47.8894 39.3338 47.8039 39.3146 47.6433C39.2879 47.3815 39.2879 46.9044 39.2879 46.3007V45.2179C39.2879 44.2801 39.2879 44.1112 39.3013 43.9163C39.3146 43.7031 39.3659 43.6267 39.5141 43.6015C39.591 43.5896 39.6433 43.5833 39.7064 43.5833C39.7425 43.5833 39.8529 43.5833 39.8529 43.483C39.8529 43.3954 39.7223 43.3954 39.6732 43.3954C39.5329 43.3954 39.3493 43.4006 39.1866 43.4055C39.0574 43.4097 38.9359 43.4129 38.8623 43.4129C38.7732 43.4129 38.6339 43.409 38.4864 43.4052C38.3129 43.3999 38.1336 43.3954 37.9983 43.3954C37.9283 43.3954 37.7992 43.3954 37.7992 43.483C37.7992 43.5833 37.9088 43.5833 37.9453 43.5833C38.0336 43.5833 38.1137 43.5913 38.1747 43.6067C38.3017 43.6334 38.3579 43.7231 38.3702 43.9163C38.3839 44.1115 38.3839 44.2805 38.3839 45.2179V46.3007C38.3839 46.9044 38.3839 47.3811 38.3511 47.6367C38.3302 47.8232 38.2894 47.8926 38.1902 47.9108C38.1108 47.9276 38.0372 47.9357 37.9582 47.9357C37.8619 47.9357 37.8125 47.9655 37.8125 48.0237C37.8125 48.0899 37.8709 48.1236 37.9849 48.1236C38.1368 48.1236 38.3363 48.1176 38.5109 48.1124C38.6433 48.1081 38.7573 48.105 38.8226 48.105M32.9544 47.9476C33.0078 47.765 33.0543 47.3019 33.0543 47.2297C33.0543 47.1725 33.0543 47.0863 32.962 47.0863C32.8642 47.0863 32.8541 47.1753 32.8494 47.2132C32.8372 47.3226 32.7596 47.4877 32.6874 47.5595C32.5374 47.7092 32.3043 47.7201 31.9385 47.7201C31.4137 47.7201 31.26 47.6756 31.1601 47.5935C31.0349 47.4943 31.0349 47.0453 31.0349 46.3011V45.2182C31.0349 44.2805 31.0349 44.1115 31.0479 43.9166C31.0605 43.7035 31.1124 43.6271 31.2603 43.6018C31.3412 43.5892 31.4458 43.5836 31.5132 43.5836C31.5612 43.5836 31.6723 43.5836 31.6723 43.4897C31.6723 43.3957 31.5511 43.3957 31.4934 43.3957C31.3476 43.3957 31.1305 43.4013 30.94 43.4062C30.7889 43.4101 30.6586 43.4132 30.589 43.4132C30.5122 43.4132 30.3917 43.4101 30.2524 43.4066C30.0667 43.401 29.8567 43.3957 29.6785 43.3957C29.6136 43.3957 29.4923 43.3957 29.4923 43.4897C29.4923 43.5836 29.6035 43.5836 29.6453 43.5836C29.7304 43.5836 29.8069 43.5899 29.8556 43.6011C30.0609 43.6414 30.0988 43.7273 30.111 43.9166C30.1247 44.1119 30.1247 44.2808 30.1247 45.2182V46.3011C30.1247 46.8641 30.1247 47.3503 30.0915 47.6062C30.0634 47.7937 30.0306 47.8929 29.9307 47.9108C29.8506 47.9276 29.7773 47.9357 29.6987 47.9357C29.6017 47.9357 29.5526 47.9655 29.5526 48.0237C29.5526 48.0899 29.611 48.1236 29.725 48.1236C29.8765 48.1236 30.076 48.1176 30.2521 48.1124C30.383 48.1081 30.4974 48.105 30.5627 48.105C30.7928 48.105 31.0039 48.1124 31.2474 48.1197C31.5767 48.1302 31.9494 48.1422 32.497 48.1422C32.8408 48.1422 32.9046 48.1148 32.9551 47.9472M21.6862 46.1325L22.293 44.6307L22.8843 46.1325H21.6859H21.6862ZM25.2677 48.0233C25.2677 47.9353 25.1786 47.9353 25.1414 47.9353C25.0765 47.9353 24.9762 47.9304 24.8698 47.9104C24.7273 47.8796 24.5487 47.7779 24.3139 47.2633C24.0744 46.7368 23.6252 45.6943 23.2645 44.8561C22.9806 44.1971 22.7353 43.6274 22.6649 43.4788C22.6051 43.3505 22.5549 43.2593 22.4629 43.2593C22.3655 43.2593 22.3172 43.3564 22.2404 43.5286C22.2404 43.5289 20.5719 47.3923 20.5719 47.3923C20.4309 47.7183 20.31 47.8901 20.0384 47.9224C19.989 47.9283 19.8984 47.935 19.8371 47.935C19.7386 47.935 19.7177 47.9827 19.7177 48.023C19.7177 48.1229 19.8299 48.1229 19.884 48.1229C20.1217 48.1229 20.363 48.1145 20.5229 48.1089C20.5939 48.106 20.6459 48.1039 20.6682 48.1039C20.7696 48.1039 20.8937 48.1092 21.0135 48.1131C21.1372 48.118 21.2645 48.1225 21.3728 48.1225C21.4142 48.1225 21.5257 48.1225 21.5257 48.0226C21.5257 47.9346 21.4388 47.9346 21.3861 47.9346H21.2862C21.0871 47.9346 21.0604 47.8572 21.0604 47.7818C21.0604 47.7162 21.0903 47.575 21.1567 47.4218C21.157 47.4207 21.516 46.5412 21.516 46.5412C21.5232 46.5209 21.5272 46.5177 21.5272 46.5174C21.5272 46.5174 21.53 46.5163 21.5387 46.5163H23.021C23.0387 46.5163 23.0441 46.5202 23.0506 46.5363C23.0506 46.5352 23.5823 47.8393 23.5823 47.8393C23.5928 47.8624 23.5935 47.8824 23.5848 47.8992C23.578 47.9136 23.5643 47.9252 23.5495 47.929C23.5037 47.9339 23.4265 47.9437 23.4265 48.0226C23.4265 48.1015 23.5181 48.1032 23.6343 48.1089L23.6635 48.1103C24.197 48.1225 24.6869 48.1225 24.9217 48.1225C25.1566 48.1225 25.2677 48.1176 25.2677 48.0226M15.6842 43.3947C15.5165 43.3947 15.2856 43.402 15.1175 43.4073C15.0266 43.4104 14.9544 43.4125 14.9263 43.4125C14.927 43.4125 14.9079 43.4118 14.9079 43.4118C14.5378 43.3975 14.2979 43.3947 14.1615 43.3947C14.1038 43.3947 13.9822 43.3947 13.9822 43.4886C13.9822 43.5825 14.0933 43.5826 14.1352 43.5826C14.2106 43.5826 14.3177 43.5889 14.3653 43.6001C14.5702 43.6404 14.6085 43.7263 14.62 43.9156C14.6334 44.1108 14.6334 44.2798 14.6334 45.2172V45.9859C14.6334 46.6386 14.6063 47.1638 14.2607 47.4838C13.9469 47.7737 13.5338 47.8053 13.3708 47.8053C13.1305 47.8053 12.847 47.7762 12.5642 47.5609C12.303 47.3636 12.0609 47.0477 12.0609 46.0778V45.2172C12.0609 44.2794 12.0609 44.1105 12.0743 43.9156C12.0876 43.7024 12.1396 43.626 12.2875 43.6008C12.2868 43.6008 12.2914 43.6001 12.2914 43.6001C12.3672 43.5885 12.4047 43.5826 12.4733 43.5826C12.5097 43.5826 12.6197 43.5825 12.6197 43.4886C12.6197 43.3947 12.4985 43.3947 12.4336 43.3947C12.3012 43.3947 12.1129 43.3999 11.9469 43.4048C11.8135 43.409 11.6868 43.4122 11.6161 43.4122C11.5306 43.4122 11.4058 43.409 11.2612 43.4055C11.0671 43.3999 10.8467 43.3947 10.645 43.3947C10.5801 43.3947 10.4592 43.3947 10.4592 43.4886C10.4592 43.5825 10.57 43.5826 10.6118 43.5826C10.7143 43.5826 10.8171 43.5899 10.8618 43.6001C11.0671 43.6404 11.1053 43.7263 11.1169 43.9156C11.1302 44.1108 11.1302 44.2798 11.1302 45.2172V46.1153C11.1302 46.903 11.3225 47.4298 11.7355 47.7748C12.2539 48.2084 12.9433 48.2084 13.2373 48.2084C13.6284 48.2084 14.142 48.1576 14.6453 47.7569C15.2131 47.3068 15.291 46.5864 15.291 45.8755V45.2172C15.291 44.2794 15.291 44.1105 15.3044 43.9156C15.3173 43.7024 15.3693 43.626 15.5176 43.6008C15.5168 43.6008 15.5215 43.6001 15.5215 43.6001C15.5969 43.5885 15.6348 43.5826 15.7033 43.5826C15.751 43.5826 15.8628 43.5825 15.8628 43.4886C15.8628 43.3947 15.7419 43.3947 15.6835 43.3947M3.26206 47.8235C2.30502 47.8235 1.27474 47.1235 1.27474 45.5863C1.27474 44.3755 1.86094 43.6811 2.88328 43.6811C3.81508 43.6811 4.75734 44.4242 4.75734 45.8447C4.75734 47.5666 3.82085 47.8235 3.2617 47.8235M10.0386 48.9866C10.0736 48.9726 10.1414 48.9453 10.1414 48.8773C10.1414 48.8257 10.0967 48.7833 10.0419 48.7833C10.017 48.7833 9.99243 48.7928 9.96646 48.8029C9.95455 48.8078 9.94229 48.8121 9.92966 48.8159C9.39649 49.0087 8.85429 49.0294 8.64578 49.0294C7.84926 49.0294 6.95895 48.7914 5.9247 48.3013L4.65092 47.6966C4.93266 47.5084 5.76778 46.8497 5.76778 45.6781C5.76778 44.9679 5.50372 44.3681 5.00409 43.9436C4.51456 43.5275 3.83384 43.3081 3.03588 43.3081C1.0067 43.3081 0.270429 44.7551 0.270429 45.7272C0.270429 46.3456 0.501304 46.951 0.903171 47.3895C1.39414 47.9252 2.12464 48.2084 3.01568 48.2084C3.35586 48.2084 3.77937 48.1446 4.05534 48.0521C4.17979 48.1197 5.08381 48.6098 5.08381 48.6101C6.12672 49.1679 6.85037 49.4518 7.91419 49.4518C8.63424 49.4518 9.34887 49.2951 10.0382 48.9866" fill="black"/>
<path d="M31.33 2.21057L29.2918 2.15308C26.9996 7.26024 22.0928 5.56603 22.0928 5.56603C22.2494 11.7802 16.7383 9.78875 14.5299 9.66746C16.5807 4.98832 20.3209 1.44462 24.7699 0C24.5073 0.052933 24.2439 0.110073 23.9813 0.174574C14.1377 2.58741 8.1707 12.2976 10.6533 21.8627C12.4264 28.6925 18.0269 33.6009 24.6689 34.973C17.3296 32.9054 12.233 25.1313 12.8982 16.2655C13.0216 14.6211 13.3376 13.0436 13.8156 11.5555L14.08 11.6028C15.817 11.7687 21.7137 13.2792 22.1534 7.40537C22.1534 7.40537 26.5224 8.66103 29.3737 2.90185C30.8271 5.12995 38.7108 10.1824 41.7392 11.7862C39.4269 12.7484 36.8057 18.3159 37.6516 19.8127C37.6639 17.1559 41.7219 13.1526 43.1457 12.4659C40.4463 10.8905 33.5911 5.45666 31.3304 2.21022" fill="black"/>
<path d="M63.9449 37.8521C63.8893 37.8082 63.8089 37.8103 63.7551 37.8566C63.6678 37.9229 61.3375 39.5221 43.7275 36.4197C39.2283 35.6268 35.3734 35.1956 32.0964 35.0017C39.896 33.4867 46.0571 27.1214 46.7627 19.0335C47.1682 14.3897 45.7014 10.0107 42.9735 6.59912C46.1304 11.8682 45.8403 19.3626 41.6655 25.7097C41.1341 26.5177 40.5587 27.2774 39.9462 27.9876C38.6825 28.7311 36.4228 28.0416 35.3081 27.8985C28.0878 26.9703 27.3631 30.5438 27.3631 30.5438C25.0789 29.4343 19.3723 28.9807 18.7609 28.9348C18.7269 29.0073 18.7064 29.0108 18.7064 28.9306C18.7064 28.9306 18.7266 28.932 18.7609 28.9348C19.0422 28.3493 20.3178 23.3004 20.3178 22.5176C20.4347 21.0383 20.0678 19.3556 19.3297 17.8153C19.6912 19.2557 19.7598 20.7669 19.5397 22.1215C19.4719 22.94 17.2703 28.5278 16.942 29.1465C17.5549 29.177 23.8899 30.2577 27.1261 32.5265C27.7123 28.0331 31.9175 28.1565 34.3518 29.2527C35.044 29.5644 36.2933 30.2623 37.4542 30.4439C34.3983 32.998 30.7988 34.5362 27.2372 34.8773C26.5143 34.8857 25.8336 34.9071 25.1904 34.9386C24.9097 34.9285 24.6305 34.9134 24.3527 34.8878C24.4743 34.9148 24.5973 34.9386 24.7203 34.9632C23.0876 35.0578 21.7186 35.2187 20.5931 35.4017C16.1166 36.1323 14.433 37.3403 14.3634 37.3918C14.3032 37.4363 14.2873 37.518 14.327 37.5807C14.367 37.6438 14.4489 37.667 14.5171 37.6347C14.5716 37.6091 20.2294 35.0778 38.1619 38.1683C61.3375 42.1635 63.8847 38.2037 63.9817 38.0326C64.0163 37.9723 64.0012 37.8955 63.9449 37.8521Z" fill="black"/>
</g>
<defs>
<clipPath id="clip0_2547_1707">
<rect width="64" height="56" fill="white"/>
</clipPath>
</defs>
</svg>
