<svg width="25" height="17" viewBox="0 0 25 17" fill="none" xmlns="http://www.w3.org/2000/svg">
<g clip-path="url(#clip0_1366_2893)">
<path d="M25 0H0V17.0002H25V0Z" fill="white"/>
<path d="M10.9375 -0.000244141H14.0625V6.90598H25V10.0935H14.0625V16.9997H10.9375V10.0935H0V6.90598H10.9375V-0.000244141Z" fill="#D80027"/>
<path d="M5.77219 11.4563L-2.38419e-05 14.7273V11.4563H5.77219ZM9.78259 11.4563L-2.38419e-05 16.9998V15.4322L7.01624 11.4563H9.78259ZM2.60574 16.9998L9.78259 12.9325V16.9998H2.60574Z" fill="#0052B4"/>
<path d="M9.78259 11.4563L-2.38419e-05 16.9998V15.4322L7.01624 11.4563H9.78259Z" fill="white"/>
<path d="M9.78259 11.4563L-2.38419e-05 16.9998V15.4322L7.01624 11.4563H9.78259Z" fill="#D80027"/>
<path d="M20.5888 11.4563L25 13.956V11.4563H20.5888ZM15.2174 12.1612V16.9998H23.7553L15.2174 12.1612Z" fill="#0052B4"/>
<path d="M17.9837 11.4563L25 15.4322V16.9998L15.2174 11.4563H17.9837Z" fill="#D80027"/>
<path d="M19.2278 5.54322L25 2.27225V5.54322H19.2278ZM15.2174 5.54322L25 -0.000244141V1.56731L17.9837 5.54322H15.2174ZM22.3942 -0.000244141L15.2174 4.06701V-0.000244141H22.3942Z" fill="#0052B4"/>
<path d="M15.2174 5.54322L25 -0.000244141V1.56731L17.9837 5.54322H15.2174Z" fill="white"/>
<path d="M15.2174 5.54322L25 -0.000244141V1.56731L17.9837 5.54322H15.2174Z" fill="#D80027"/>
<path d="M4.41116 5.54352L-2.38419e-05 3.04382V5.54352H4.41116ZM9.78259 4.83858V0H1.24465L9.78259 4.83858Z" fill="#0052B4"/>
<path d="M7.01624 5.54322L-2.38419e-05 1.56731V-0.000244141L9.78259 5.54322H7.01624Z" fill="#D80027"/>
</g>
<defs>
<clipPath id="clip0_1366_2893">
<rect width="25" height="17" fill="white" transform="matrix(-1 0 0 1 25 0)"/>
</clipPath>
</defs>
</svg>
