<svg width="110" height="110" version="1.1" id="ds44-icons" xmlns="http://www.w3.org/2000/svg" xmlns:xlink="http://www.w3.org/1999/xlink" x="0px" y="0px"
	 viewBox="0 0 110 110" style="enable-background:new 0 0 110 110;" xml:space="preserve">
<g>
	<path d="M97.5,87.3L58.1,19.1c-1-1.7-3.1-2.3-4.8-1.3c-0.5,0.3-1,0.8-1.3,1.3L12.5,87.3c-1,1.7-0.4,3.9,1.3,4.8
		c0.5,0.3,1.1,0.5,1.8,0.5h78.8c2,0,3.5-1.6,3.5-3.5C97.9,88.5,97.8,87.9,97.5,87.3z M21.8,85.6L55,28l33.2,57.6H21.8z"/>
	<path d="M55.1,72c-0.6,0-1.1,0.1-1.6,0.3c-0.5,0.2-0.9,0.5-1.3,0.8c-0.4,0.3-0.7,0.8-0.9,1.2c-0.4,0.9-0.4,2,0,3
		c0.2,0.5,0.5,0.9,0.9,1.2c0.4,0.4,0.8,0.6,1.3,0.8c1.5,0.6,3.3,0.3,4.5-0.8c0.8-0.7,1.2-1.7,1.2-2.7c0-1-0.4-2-1.2-2.7
		C57.2,72.4,56.1,72,55.1,72z"/>
	<path d="M52.5,44.9c-0.6,0.6-1,1.4-1,2.3L52,68c0,0.7,0.3,1.5,0.8,2c1.2,1.1,3,1.1,4.2,0c0.6-0.5,0.9-1.2,0.9-2l0.5-20.9
		c0-0.9-0.4-1.7-1-2.3C56,43.6,53.9,43.6,52.5,44.9L52.5,44.9z"/>
</g>
</svg>
