<?xml version="1.0" encoding="UTF-8"?><svg id="ds44-icons" xmlns="http://www.w3.org/2000/svg" viewBox="0 0 326.88 480"><circle cx="196.25" cy="263.64" r="24.62"/><circle cx="192.62" cy="405.21" r="11.71"/><path d="m306.24,414.83h-15.59s-13.24-42.51-13.24-42.51c-1.58-5.07-6.27-8.52-11.58-8.52h-26.09c-4.64-5.3-10.16-9.79-16.34-13.26l-.49-1.8h26.86c5.67,0,11.02-3.61,12.35-9.12,1.93-8-4.09-15.14-11.77-15.14h-34.03l-5.14-18.93c-1.49-5.47-6.37-9.69-12.04-9.53-8.23.24-13.54,7.91-11.53,15.33l7.16,26.37c.13,1.43.51,2.79,1.09,4.03l.27,1.01c-.97-.05-1.95-.07-2.93-.07-2.7,0-5.35.19-7.95.53l-5.79-21.7c-.89-3.36-3.74-6.07-7.21-6.23-5.75-.27-9.59,4.95-8.24,10l5.86,21.97c-22.89,9.33-38.94,31.96-38.51,58.3.53,32.79,28.15,60.35,60.94,60.82,34.57.49,62.75-27.38,62.75-61.84,0-5.7-.79-11.21-2.23-16.45h4.07l13.24,42.51c1.58,5.07,6.27,8.52,11.58,8.52h25.1c7.68,0,13.7-7.14,11.77-15.14-1.33-5.51-6.68-9.12-12.35-9.12Zm-113.04,34.74c-24.89,0-45.06-20.17-45.06-45.06s20.17-45.06,45.06-45.06,45.06,20.17,45.06,45.06-20.18,45.06-45.06,45.06Z"/><path d="m10.58,25.8h137.87c36.65,0,64.14,9.99,82.89,28.74,18.74,18.74,29.57,43.73,29.57,74.14,0,58.73-39.99,99.55-104.13,99.55h-74.14v107.46H10.58V25.8Zm72.06,146.2h60.4c29.99,0,46.23-17.08,46.23-43.32s-16.66-42.49-45.82-42.49h-60.81v85.81Z"/></svg>