<svg width="110" height="110" xmlns="http://www.w3.org/2000/svg" x="0px" y="0px"
	 viewBox="0 0 110 110" style="enable-background:new 0 0 110 110;" xml:space="preserve">
<style type="text/css">
	.st0{fill:#FFFFFF;}
</style>
<g>
	<path d="M81.4,83.3c-0.6-0.5-1.6-0.5-2.1,0.1c-0.9,1-3.7,3.7-6.2,4.1c-2,0.3-8.9-0.2-14.5-0.5c-3.9-0.3-7.3-0.5-9.2-0.5
		C45.9,86.5,36,83.7,28,81c-7.1-2.4-7.7-4.2-8.1-6.2c0.3-1,0.7-1.3,0.8-1.4c1.1-0.6,3.4,0.1,5.3,0.7c0.6,0.2,1.1,0.4,1.6,0.5
		c13.2,3.8,17,3.7,19.5,3.6c0.3,0,0.5,0,0.8,0c2.9,0,6.6-2.5,7-2.8c0.4-0.3,0.7-0.8,0.6-1.4c0-0.5-0.4-1-0.9-1.2l-6.7-3.1
		c-1.1-0.4-3.5-1.8-3.8-3.1c0-0.2-0.1-0.6,0.6-1.5c1-0.2,5,1,8.6,2.7c0.1,0,0.1,0.1,0.2,0.1c0.1,0,6.6,2,10,3.5
		c3.8,1.6,8.5,1.6,8.7,1.6h7.6c0.8,0,1.5-0.7,1.5-1.5s-0.7-1.5-1.5-1.5h-7.6c0,0-4.3,0-7.5-1.4c-3.4-1.5-9.3-3.3-10.2-3.6
		c-6.3-3-10.3-3.7-11.8-2.2c-1.7,1.7-1.8,3.3-1.6,4.3c0.7,3.2,5.1,5.1,5.5,5.2l4,1.8c-1,0.5-2.1,0.9-2.9,0.9c-0.3,0-0.5,0-0.8,0
		c-0.6,0-1.2,0-2,0l-3.6-5.5c-0.2-0.4-2.5-3.7-5.8-3.7c-1.5,0-3,0.8-3.7,2.1c-0.8,1.3-0.8,2.8-0.1,4.2c0,0.1,0.1,0.1,0.1,0.2
		l0.2,0.3c-1.1-0.3-2.3-0.6-3.6-1c-0.5-0.1-1-0.3-1.5-0.5c-2.6-0.8-5.5-1.8-7.7-0.5c-1.2,0.7-2,1.9-2.3,3.6c0,0.2,0,0.4,0,0.5
		c0.6,3.8,2.4,6.2,10.1,8.8c5.1,1.7,17.5,5.7,22.3,5.7c1.7,0,5.2,0.2,9,0.5c4.7,0.3,9.6,0.6,12.7,0.6c1,0,1.9,0,2.4-0.1
		c4.1-0.6,7.9-4.9,8-5.1C82.1,84.8,82,83.9,81.4,83.3z M36.2,73.4l-1.8-2.5c-0.2-0.5-0.1-0.9,0.1-1.2c0.2-0.4,0.7-0.6,1.2-0.6
		c1.4,0,2.9,1.8,3.3,2.4l2.2,3.4c-1.3-0.2-2.9-0.5-4.8-1C36.3,73.8,36.3,73.6,36.2,73.4z"/>
	<path class="st0" d="M91.6,96.6H80.4c-0.8,0-1.5-0.7-1.5-1.5v-29c0-0.8,0.7-1.5,1.5-1.5h11.2c0.8,0,1.5,0.7,1.5,1.5v29
		C93.1,96,92.4,96.6,91.6,96.6z M81.9,93.6h8.2v-26h-8.2V93.6z"/>
	<path class="st0" d="M51.7,58.4c-5.4,0-11.2-11.6-12.3-13.9c-0.5-1.1-0.8-2.4-0.8-3.6c0-4.6,3.8-8.4,8.4-8.4c2.2,0,4.2,0.8,5.8,2.3
		c1.5-1.5,3.6-2.3,5.8-2.3c5.3,0,8.4,3.1,8.4,8.4C67,44.6,57.3,58.4,51.7,58.4z M47.1,35.5c-3,0-5.4,2.4-5.4,5.4
		c0,0.8,0.2,1.6,0.5,2.3c2.3,4.9,7,12.2,9.6,12.2c3.5,0,12.1-12.2,12.3-14.5c0-3.6-1.8-5.4-5.4-5.4c-1.8,0-3.5,0.9-4.5,2.5
		c-0.6,0.9-2,0.9-2.5,0C50.6,36.5,48.9,35.5,47.1,35.5z"/>
	<path class="st0" d="M82.2,44.8H72c-0.8,0-1.5-0.7-1.5-1.5s0.7-1.5,1.5-1.5h10.2c0.8,0,1.5,0.7,1.5,1.5S83.1,44.8,82.2,44.8z"/>
	<path class="st0" d="M70.4,36.8c-0.6,0-1.1-0.3-1.4-0.9c-0.4-0.7,0-1.6,0.7-2l9.2-4.4c0.7-0.4,1.6,0,2,0.7c0.4,0.7,0,1.6-0.7,2
		L71,36.6C70.8,36.7,70.6,36.8,70.4,36.8z"/>
	<path class="st0" d="M65.4,30.3c-0.3,0-0.7-0.1-0.9-0.3c-0.6-0.5-0.8-1.5-0.2-2.1l6.4-8c0.5-0.6,1.5-0.8,2.1-0.2
		c0.6,0.5,0.8,1.5,0.2,2.1l-6.4,8C66.3,30.1,65.9,30.3,65.4,30.3z"/>
	<path class="st0" d="M58.2,26.6c-0.1,0-0.2,0-0.3,0c-0.8-0.2-1.3-1-1.1-1.8l2.3-10c0.2-0.8,1-1.3,1.8-1.1c0.8,0.2,1.3,1,1.1,1.8
		l-2.3,10C59.5,26.1,58.9,26.6,58.2,26.6z"/>
	<path class="st0" d="M50,26.3c-0.7,0-1.3-0.5-1.5-1.2l-2.2-10c-0.2-0.8,0.3-1.6,1.1-1.8c0.8-0.2,1.6,0.3,1.8,1.1l2.2,10
		c0.2,0.8-0.3,1.6-1.1,1.8C50.2,26.3,50.1,26.3,50,26.3z"/>
	<path class="st0" d="M42.6,29.7c-0.4,0-0.9-0.2-1.2-0.6l-6.3-8c-0.5-0.7-0.4-1.6,0.3-2.1c0.6-0.5,1.6-0.4,2.1,0.3l6.3,8
		c0.5,0.7,0.4,1.6-0.3,2.1C43.2,29.6,42.9,29.7,42.6,29.7z"/>
	<path class="st0" d="M37.3,35.9c-0.2,0-0.4,0-0.7-0.2l-9.2-4.5c-0.7-0.4-1-1.3-0.7-2c0.4-0.7,1.3-1,2-0.7l9.2,4.5
		c0.7,0.4,1,1.3,0.7,2C38.4,35.6,37.8,35.9,37.3,35.9z"/>
	<path class="st0" d="M35.2,43.8C35.2,43.8,35.2,43.8,35.2,43.8L25,43.7c-0.8,0-1.5-0.7-1.5-1.5c0-0.8,0.7-1.5,1.5-1.5l10.2,0.1
		c0.8,0,1.5,0.7,1.5,1.5C36.7,43.1,36,43.8,35.2,43.8z"/>
</g>
</svg>
