<?xml version="1.0" encoding="utf-8"?>
<!-- Generator: Adobe Illustrator 28.3.0, SVG Export Plug-In . SVG Version: 6.00 Build 0)  -->
<svg version="1.1" id="ds44-icons" xmlns="http://www.w3.org/2000/svg" xmlns:xlink="http://www.w3.org/1999/xlink" x="0px" y="0px"
	 viewBox="0 0 110 110" style="enable-background:new 0 0 110 110;" xml:space="preserve">
<g>
	<path d="M76.7,32.4C71.9,18.6,58.8,8.7,43.4,8.7C24,8.7,8.2,24.5,8.2,43.9c0,15.9,10.6,29.4,25.1,33.7
		c4.8,13.8,17.9,23.7,33.3,23.7c19.4,0,35.2-15.8,35.2-35.2C101.8,50.2,91.2,36.7,76.7,32.4z M39.4,71.3
		c-13.6-2-23.6-13.6-23.6-27.3c0-15.2,12.4-27.6,27.6-27.6c15.3,0,27.6,12.4,27.6,27.6c0,8.4-3.8,16.4-10.4,21.6
		c-0.4,0.3-0.9,0.7-1.3,1c-0.1,0-0.1,0.1-0.2,0.1c-4.4,3-9.5,4.7-14.8,4.9c-0.3,0-0.6,0-0.9,0C42.1,71.5,40.7,71.4,39.4,71.3
		L39.4,71.3z M66.6,93.7c-10.2,0-19.6-5.6-24.4-14.6c0.4,0,0.8,0,1.3,0c4.1,0,8.1-0.7,11.9-2.1c5.6,7.6,16.1,9.6,24.2,4.7
		c1.8-1.1,2.4-3.4,1.3-5.2c-1.1-1.8-3.4-2.4-5.2-1.3c-4,2.4-9,2-12.5-1h6.4c2.1,0,3.8-1.7,3.8-3.8c0-1.8-1.3-3.4-3-3.7
		c0.6-0.6,1.1-1.3,1.6-2c0.6-0.5,1.1-1.1,1.3-1.9c1.2-1.8,2.1-3.7,2.9-5.7c1.9,0.8,4.2-0.1,5-2c0.7-1.7,0.1-3.8-1.5-4.7
		c-0.4-0.3-0.9-0.5-1.3-0.7c0.3-1.9,0.5-3.8,0.5-5.8c0-0.9,0-1.8-0.1-2.7c9.5,4.6,15.6,14.3,15.6,24.9
		C94.2,81.3,81.8,93.7,66.6,93.7z"/>
	<path d="M46.9,62.2c3.3,0,6.6-0.9,9.5-2.7c1.8-1.1,2.4-3.4,1.3-5.2c-1.1-1.8-3.4-2.4-5.2-1.3c-4,2.4-9,2-12.5-1h6.4
		c2.1,0,3.8-1.7,3.8-3.8s-1.7-3.8-3.8-3.8H36.2c0-0.2,0-0.4,0-0.6c0-0.2,0-0.4,0-0.6h10.2c2.1,0,3.8-1.7,3.8-3.8
		c0-2.1-1.7-3.8-3.8-3.8H40c3.5-3,8.6-3.4,12.5-1c1.8,1.1,4.1,0.5,5.2-1.3c1.1-1.8,0.5-4.1-1.3-5.2c-8.6-5.2-19.9-2.5-25.2,6.2
		c-0.3,0.4-0.5,0.9-0.7,1.3h-5.7c-2.1,0-3.8,1.7-3.8,3.8c0,2.1,1.7,3.8,3.8,3.8h3.8c0,0.2,0,0.4,0,0.6s0,0.4,0,0.6h-3.8
		c-2.1,0-3.8,1.7-3.8,3.8s1.7,3.8,3.8,3.8l0,0h5.7c1.9,3.8,5,6.8,8.9,8.6c1.5,0.7,3.1,1.2,4.8,1.4C45.1,62.2,46,62.2,46.9,62.2z"/>
</g>
</svg>
