<?xml version="1.0" encoding="utf-8"?>
<!-- Generator: Adobe Illustrator 25.1.0, SVG Export Plug-In . SVG Version: 6.00 Build 0)  -->
<svg version="1.0" id="Calque_1" xmlns="http://www.w3.org/2000/svg" xmlns:xlink="http://www.w3.org/1999/xlink" x="0px" y="0px"
	 viewBox="0 0 150 150" enable-background="new 0 0 150 150" xml:space="preserve">
<g>
	<path d="M123.5,70.3h-6.7V58.7c0-2.3-1.9-4.2-4.2-4.2h-6.3v-4.5l-0.6-0.6h-0.3V49L79.3,22.9l-0.1-0.1H37.1v19.3h-9.8
		c-2.3,0-4.2,1.9-4.2,4.2v76.8c0,0.9,0.3,1.8,0.8,2.4c0.8,1,1.9,1.6,3.2,1.6h78.6c1.8,0,3.3-1.2,3.8-2.7l17.9-49.2l0-0.2
		C127.4,72.2,125.8,70.3,123.5,70.3z M79.9,49.2V26.9l22.4,22.4H79.9z M106.3,70.3V56.8h6.3c1.1,0,1.9,0.8,1.9,1.9v11.6H106.3z
		 M25.7,124.2C25.7,124.2,25.7,124.1,25.7,124.2c-0.2-0.3-0.4-0.8-0.3-1.3v0l12.2-33.3l5.8-15.8c0.1-0.6,0.8-1.1,1.5-1.1h78.7
		c0.3,0,1.3,0.1,1.5,2v0.1l-17.9,48.9c-0.2,0.7-0.8,1.1-1.5,1.1H27C26.5,124.8,26,124.6,25.7,124.2z M103.9,51.5v18.8h-59
		c-0.2,0-0.4,0-0.7,0.1c-1.5,0.3-2.7,1.3-3,2.7l-1.7,4.5V25.2h38v26.3H103.9z M37.1,83.9l-11.7,31.9V46.4c0-1.1,0.8-1.9,1.9-1.9h9.8
		V83.9z"/>
	<path d="M50.6,51.5h17.6c0.6,0,1.2-0.5,1.2-1.2s-0.5-1.2-1.2-1.2H50.6c-0.6,0-1.2,0.5-1.2,1.2S50,51.5,50.6,51.5z"/>
	<path d="M50.6,39.3h17.6c0.6,0,1.2-0.5,1.2-1.2c0-0.7-0.5-1.2-1.2-1.2H50.6c-0.6,0-1.2,0.5-1.2,1.2C49.4,38.7,50,39.3,50.6,39.3z"
		/>
	<path d="M49.4,62.7c0,0.6,0.5,1.2,1.2,1.2h42.2c0.6,0,1.2-0.5,1.2-1.2s-0.5-1.2-1.2-1.2H50.6C50,61.6,49.4,62.1,49.4,62.7z"/>
</g>
</svg>
