<svg width="110" height="110" xmlns="http://www.w3.org/2000/svg" x="0px" y="0px"
	 viewBox="0 0 110 110" style="enable-background:new 0 0 110 110;" xml:space="preserve">
<style type="text/css">
	.st0{fill:#FFFFFF;}
</style>
<g>
	<path d="M34.9,26c-0.5,0-0.8,0.4-0.8,0.8l0,4.5c0,0.2,0.1,0.4,0.2,0.6c0.1,0.1,0.2,0.1,0.2,0.2c0.1,0.1,0.2,0.1,0.4,0.1l16-0.1
		L44,44c-0.1,0.2-0.2,0.5,0,0.8c0.4,0.7,0.9,1.3,1.7,1.7c0.2,0.1,0.4,0.2,0.6,0.2c1.2,0.2,2.5-0.4,3.8-1.7l12.3-12.9l12.5,0
		c3.7,0,6.5-2.1,6.5-4.9c-0.1-1.4-0.8-2.8-2-3.5c-1.3-0.9-2.9-1.3-4.5-1.3l-14.4,0.1L49.9,11.6c-1.3-1.3-2.6-1.9-3.8-1.7
		c-1,0.3-1.9,1-2.3,2c-0.1,0.2-0.1,0.5,0,0.8l5.8,9.8l-6,0.1l-7.3-5.9c-0.3-0.2-0.7-0.2-1,0l-3.8,2.7c-0.2,0.1-0.3,0.4-0.3,0.6
		c0,0.2,0.1,0.5,0.2,0.7l4.9,5.3L34.9,26z M45.6,12.2c0.2-0.3,0.5-0.5,0.9-0.6c0.6-0.1,1.4,0.3,2.3,1.2l9.3,9.7l-6.3,0L45.6,12.2z
		 M33.4,20.2l2.5-1.8l7,5.6c0.2,0.1,0.3,0.2,0.5,0.2l31.3-0.1c1.3,0,2.5,0.3,3.5,1c0.8,0.4,1.3,1.2,1.3,2.1c0,1.7-2.2,3.1-4.8,3.1
		l-10.8,0.1l1.3-1.4c0.3-0.3,0.3-0.9,0-1.2c-0.3-0.3-0.9-0.3-1.2,0l-15.1,16c-0.9,0.9-1.6,1.3-2.2,1.2c-0.4-0.1-0.7-0.3-0.9-0.6
		l9.1-15.5c0.2-0.4,0.1-0.9-0.3-1.2c-0.4-0.2-0.9-0.1-1.2,0.3l-1.4,2.4l-16.1,0l0-2.8l2.7,0c0.3,0,0.6-0.2,0.8-0.5
		c0.1-0.3,0.1-0.7-0.1-0.9L33.4,20.2z"/>
	<path d="M77,98.4h-0.8V57c0-0.5-0.4-0.8-0.8-0.8c-0.1,0-0.3,0-0.4,0.1L58,64.7c-0.3,0.1-0.5,0.4-0.5,0.8v9.3h-9.3
		c-0.5,0-0.8,0.4-0.8,0.8v22.8H30.6v-5.1c3.2-0.5,5.5-3.5,5-6.7c-0.2-1.5-1-2.9-2.2-3.8c1.2-2,0.5-4.6-1.6-5.8
		c-2-1.2-4.6-0.5-5.8,1.6c-0.8,1.3-0.8,2.9,0,4.2c-2.6,2-3,5.7-1,8.3c0.9,1.2,2.3,2,3.8,2.2v1.2l-2.2-1.1c-0.4-0.2-0.9,0-1.1,0.4
		s0,0.9,0.4,1.1c0,0,0,0,0,0l2.9,1.5v2h-8.2c-0.5,0-0.8,0.4-0.8,0.8s0.4,0.8,0.8,0.8H77c0.5,0,0.8-0.4,0.8-0.8S77.5,98.4,77,98.4z
		 M25.6,87.4c0-1.5,0.8-3,2.2-3.7c0.4-0.2,0.6-0.7,0.3-1.1c0-0.1-0.1-0.1-0.1-0.2c-1-1-0.9-2.6,0.1-3.6s2.6-0.9,3.6,0.1
		c0.9,1,0.9,2.5,0,3.5c-0.3,0.3-0.3,0.9,0,1.2c0.1,0,0.1,0.1,0.2,0.1c2,1.1,2.8,3.7,1.7,5.7c-0.6,1.1-1.6,1.8-2.9,2.1v-3.3
		c0-0.5-0.4-0.8-0.8-0.8c-0.5,0-0.8,0.4-0.8,0.8v3.3C27,91.2,25.6,89.5,25.6,87.4z M49.1,76.5h8.5v22h-8.5V76.5z M62.6,98.4V90H66
		v8.5H62.6z M67.7,98.4V90h3.4v8.5H67.7z M72.8,98.4v-9.3c0-0.5-0.4-0.8-0.8-0.8H61.8c-0.5,0-0.8,0.4-0.8,0.8v9.3h-1.7V66l15.2-7.6
		v40.1H72.8z"/>
	<path d="M89.2,98.4h-9.7c-0.5,0-0.8,0.4-0.8,0.8s0.4,0.8,0.8,0.8h9.7c0.5,0,0.8-0.4,0.8-0.8S89.7,98.4,89.2,98.4z"/>
	<path d="M29.8,86.6c0.5,0,0.8-0.4,0.8-0.8v-0.8c0-0.5-0.4-0.8-0.8-0.8c-0.5,0-0.8,0.4-0.8,0.8v0.8C28.9,86.2,29.3,86.6,29.8,86.6z"
		/>
	<path class="st0" d="M35.6,64.6h15.2c1.9,0,3.4-1.5,3.4-3.4c0-1.9-1.5-3.4-3.4-3.4h-3.4c-0.5-3.2-3.5-5.5-6.7-5
		c-2.6,0.4-4.6,2.4-5,5h-0.1c-1.9,0-3.4,1.5-3.4,3.4C32.2,63.1,33.7,64.6,35.6,64.6z M34.4,60c0.3-0.3,0.7-0.5,1.2-0.5h0.8
		c0.5,0,0.8-0.4,0.8-0.8c0-2.3,1.9-4.2,4.2-4.2s4.2,1.9,4.2,4.2c0,0.5,0.4,0.8,0.8,0.8h4.2c0.9,0,1.7,0.8,1.7,1.7
		c0,0.9-0.8,1.7-1.7,1.7H35.6c-0.9,0-1.7-0.8-1.7-1.7C33.9,60.8,34,60.4,34.4,60z"/>
	<path d="M71.9,74.9H61.8c-0.5,0-0.8,0.4-0.8,0.8V80c0,0.5,0.4,0.8,0.8,0.8h10.1c0.5,0,0.8-0.4,0.8-0.8v-4.2
		C72.8,75.3,72.4,74.9,71.9,74.9z M71.1,79.1h-8.5v-2.5h8.5V79.1z"/>
	<path d="M71.9,67.2H61.8c-0.5,0-0.8,0.4-0.8,0.8v4.2c0,0.5,0.4,0.8,0.8,0.8h10.1c0.5,0,0.8-0.4,0.8-0.8V68
		C72.8,67.5,72.4,67.2,71.9,67.2z M71.1,71.4h-8.5v-2.5h8.5V71.4z"/>
	<path d="M55,78.1h-4.2c-0.5,0-0.8,0.4-0.8,0.8v4.2c0,0.5,0.4,0.8,0.8,0.8H55c0.5,0,0.8-0.4,0.8-0.8V79C55.8,78.5,55.5,78.1,55,78.1
		z M54.2,82.4h-2.5v-2.5h2.5V82.4z"/>
	<path d="M55,85.9h-4.2c-0.5,0-0.8,0.4-0.8,0.8V91c0,0.5,0.4,0.8,0.8,0.8H55c0.5,0,0.8-0.4,0.8-0.8v-4.2
		C55.8,86.3,55.5,85.9,55,85.9z M54.2,90.1h-2.5v-2.5h2.5V90.1z"/>
	<path d="M40.4,35"/>
	<path d="M19.9,64.1c-0.2,0-0.4-0.1-0.5-0.2c-0.4-0.3-0.5-0.8-0.2-1.2l20.3-28c0.3-0.4,0.8-0.5,1.2-0.2c0.4,0.3,0.5,0.8,0.2,1.2
		l-20.3,28C20.5,63.9,20.2,64.1,19.9,64.1z"/>
	<path d="M90.1,64.1c-0.3,0-0.5-0.1-0.7-0.4l-20.3-28c-0.3-0.4-0.2-1,0.2-1.2c0.4-0.3,1-0.2,1.2,0.2l20.3,28c0.3,0.4,0.2,1-0.2,1.2
		C90.4,64,90.3,64.1,90.1,64.1z"/>
</g>
</svg>
