<svg width="110" height="110" xmlns="http://www.w3.org/2000/svg" x="0px" y="0px"
	 viewBox="0 0 110 110" style="enable-background:new 0 0 110 110;" xml:space="preserve">
<style type="text/css">
	.st0{fill:#FFFFFF;}
</style>
<g id="Calque_2_5_">
	<g id="Calque_1-2_4_">
		<path class="st0" d="M99,65.7H10c-0.8,0-1.5-0.7-1.5-1.5s0.7-1.5,1.5-1.5H99c0.8,0,1.5,0.7,1.5,1.5S99.9,65.7,99,65.7z"/>
		<path class="st0" d="M78,77.9c-0.4,0-0.7-0.1-1-0.4c-0.1-0.1-9.4-8.3-22.5-8.3c-8.2,0.1-16,2.8-22.6,7.9c-0.7,0.5-1.6,0.4-2.1-0.3
			c-0.5-0.7-0.4-1.6,0.3-2.1c7.1-5.5,15.6-8.4,24.4-8.5c14.3,0,24.1,8.7,24.5,9.1c0.6,0.6,0.7,1.5,0.1,2.1
			C78.9,77.8,78.4,77.9,78,77.9z"/>
		<path d="M100.7,52.5L90.5,47c-0.1,0-0.1-0.1-0.2-0.1v-3.6c0,0,0,0,0-0.1c0-0.1,0-0.1,0-0.2c0-0.1,0-0.1,0-0.2c0,0,0,0,0-0.1
			l-5.4-17.6c-0.2-0.6-0.8-1.1-1.4-1.1c-0.7,0-1.2,0.4-1.4,1.1l-5,16.5H32.1l-5-16.5c-0.2-0.6-0.8-1.1-1.4-1.1
			c-0.7,0-1.2,0.4-1.4,1.1l-5.4,17.6c0,0,0,0,0,0.1c0,0.1,0,0.1,0,0.2c0,0.1,0,0.1,0,0.2c0,0,0,0,0,0.1v4.2l-9.5,5.1
			c-0.7,0.4-1,1.3-0.6,2c0.3,0.5,0.8,0.8,1.3,0.8c0.2,0,0.5-0.1,0.7-0.2l8.1-4.3v33.5c0,0.8,0.7,1.5,1.5,1.5H31
			c0.8,0,1.5-0.7,1.5-1.5V44.8h44.1v39.6c0,0.8,0.7,1.5,1.5,1.5h10.7c0.8,0,1.5-0.7,1.5-1.5V50.3l9,4.9c0.2,0.1,0.5,0.2,0.7,0.2
			c0.5,0,1.1-0.3,1.3-0.8C101.7,53.8,101.5,52.9,100.7,52.5z M83.4,30.8l3.3,11h-6.7L83.4,30.8z M25.6,30.8l3.3,11h-6.7L25.6,30.8z
			 M29.5,82.8h-7.7V44.8h7.7V82.8z M87.3,82.8h-7.7V44.8h7.7V82.8z"/>
	</g>
</g>
</svg>
