<svg width="110" height="110" version="1.1" id="ds44-icons" xmlns="http://www.w3.org/2000/svg" xmlns:xlink="http://www.w3.org/1999/xlink" x="0px" y="0px"
	 viewBox="0 0 110 110" style="enable-background:new 0 0 110 110;" xml:space="preserve">
<path d="M58,58.2l17.3,17.9c1.3,1.4,3.6,1.4,5,0.1c1.4-1.3,1.4-3.6,0.1-5L67.5,57.8l4.1-3.9l1.4,4.6v0.1c0.4,1.3,1.7,2.2,3,2
	l6.9-0.6c1.6-0.1,2.8-1.5,2.7-3.1c-0.1-1.6-1.5-2.8-3.1-2.7l-4.5,0.4l-1.1-3.8c-0.3-0.8-0.7-1.6-1.1-2.3l-2.5-3.5
	c-0.7-0.9-1.8-1.6-2.9-1.7c-1.2-0.1-2.4,0.3-3.2,1.1l-8.9,8.7c-0.7,0.7-1.1,1.5-1.1,2.4c0,0.4,0.1,0.8,0.2,1.1
	C57.4,57.3,57.6,57.8,58,58.2L58,58.2L58,58.2z"/>
<path d="M85.5,38.3c2.3,2.5,2.2,6.3-0.3,8.7c-2.5,2.3-6.3,2.2-8.7-0.3c-2.3-2.5-2.2-6.3,0.3-8.7C79.3,35.7,83.2,35.8,85.5,38.3"/>
<path d="M96.2,89.7h-7.3c-3.2,0-6.4-1.3-8.7-3.7L48.7,54c-1-1-2.3-1.8-3.6-2.4v-22c0-1.1-0.5-2.2-1.3-2.9L30.1,15.5
	c-1.4-1.1-3.5-1.1-4.8,0L11.8,26.9c-0.8,0.7-1.3,1.7-1.3,2.8v63.8c0,2.1,1.7,3.8,3.8,3.8s3.8-1.7,3.8-3.8v-5.5h19.6v5.5
	c0,2.1,1.7,3.8,3.8,3.8c2.1,0,3.8-1.7,3.8-3.8V61l29.8,30.3c3.7,3.8,8.8,5.8,14,5.8h7.3c2.1,0,3.8-1.7,3.8-3.8
	C100,91.3,98.2,89.7,96.2,89.7L96.2,89.7L96.2,89.7z M27.8,29.2c3.6,0,6.4,2.9,6.4,6.4c0,3.5-2.8,6.4-6.4,6.4s-6.4-2.8-6.4-6.4
	S24.2,29.2,27.8,29.2z M37.6,80.6H18v-7.3h19.6V80.6L37.6,80.6z M37.6,65.8H18v-7.3h19.6V65.8L37.6,65.8z"/>
</svg>
