<?xml version="1.0" encoding="UTF-8"?><svg id="ds44-icons" xmlns="http://www.w3.org/2000/svg" viewBox="0 0 428.32 480"><path d="m62.83,448.76h-.28c-4.01,7.49-11.23,10.68-19.53,10.68-9.68,0-17.53-3.56-23.1-9.49-5.93-6.39-9.03-15.34-9.03-25.74,0-11.59,4.2-21.73,11.77-28.11,5.48-4.66,12.51-7.3,21.46-7.3,17.16,0,27.19,9.13,29.66,22.09h-15.52c-1.64-5.02-5.93-9.22-13.69-9.22-12.05,0-17.89,9.77-17.89,22.55s6.94,22.55,18.07,22.55c9.59,0,15.34-6.48,15.43-13.33v-.27h-13.69v-11.59h28.39v36.33h-10.77l-1.28-9.13Z"/><path d="m85.13,389.98h32.31c13.24,0,23.19,7.03,23.19,19.44,0,7.94-3.93,13.69-12.6,16.52v.27c6.76,2.1,9.77,5.84,10.68,13.15,1.28,9.22.72,16.89,2.92,17.8v.73h-15.33c-1.83-1-1.64-8.21-2.47-15.7-.82-6.75-4.19-10.22-11.68-10.22h-11.5v25.92h-15.52v-67.91Zm15.52,30.49h13.78c6.94,0,10.68-3.56,10.68-8.95s-3.38-9.22-10.23-9.22h-14.23v18.16Z"/><path d="m170.96,389.98h16.16l24.55,67.91h-16.43l-4.29-12.96h-24.65l-4.19,12.96h-15.61l24.45-67.91Zm-1,43.81h17.44l-4.11-12.69c-2.92-9.31-4.38-18.07-4.38-18.07h-.19s-2.37,11.41-4.56,18.07l-4.2,12.69Z"/><path d="m207.06,389.98h56.04v13.24h-20.26v54.68h-15.61v-54.68h-20.17v-13.24Z"/><path d="m270.62,434.25v-44.27h15.51v44.63c0,7.39,3.93,11.96,12.69,11.96,8.12,0,12.33-4.84,12.33-12.23v-44.36h15.61v44.27c0,15.79-9.77,24.92-27.93,24.92s-28.2-8.95-28.2-24.92Z"/><path d="m337.47,389.98h15.61v67.91h-15.61v-67.91Z"/><path d="m361.4,389.98h56.04v13.24h-20.26v54.68h-15.61v-54.68h-20.17v-13.24Z"/><path d="m112.68,32.72h136.03c36.17,0,63.29,9.86,81.78,28.36,18.49,18.49,29.17,43.15,29.17,73.15,0,57.94-39.45,98.22-102.73,98.22h-73.15v106.02h-71.1V32.72Zm71.1,144.25h59.59c29.59,0,45.62-16.85,45.62-42.74s-16.44-41.92-45.21-41.92h-60v84.66Z"/></svg>