<svg width="110" height="110" xmlns="http://www.w3.org/2000/svg" x="0px" y="0px"
	 viewBox="0 0 110 110" style="enable-background:new 0 0 110 110;" xml:space="preserve">
<g>
	<path d="M81.8,38.9c0,0-1.8-4.7-5.5-4.7s-5.5,4.7-5.5,4.7C74.4,38,78.2,38,81.8,38.9z"/>
	<path d="M52,73.6c0,0,4,3.8,12.3,3.8s12.3-3.8,12.3-3.8s-5.1,0.5-12.3,0.5C57.1,74.1,52,73.6,52,73.6z"/>
	<path d="M95.2,33c-0.4-0.5-0.8-0.9-1.4-1.2l-1.2-0.6l-0.1-1.3c-0.4-5.1-1.8-10.5-2.4-12.6l0-0.1c-0.2-0.7-1-1.1-1.7-0.9
		c-0.7,0.2-1.1,1-0.9,1.7c0.1,0.3,2.5,8.5,2.5,14.6v1.4h3.2l0.3,2.1c0.2,1.5-0.1,3.7-0.9,6c-1,3.1-0.7,5.6-0.5,7.6l0,0.1
		c0.2,1.4,0.2,2.1,0.1,2.8l-0.1,0.3c-0.7,1.9-2.7,3.2-2.9,3.4l-0.6,0.4l0,0.7l0,0c-0.1,1.1-0.6,9-3.6,17l0,0
		c-1.9,4.9-4.2,8.8-7.1,11.5c-3.5,3.4-7.7,5.1-12.6,5.1c-6.2,0-10.7-0.9-13.8-2c0.2-1,0.5-2.1,0.7-3.4c-0.1-1.8-0.3-3.5-0.7-5.2
		c1-0.2,2-0.6,3-1c0.3-0.1,0.5-0.5,0.4-0.9c-0.1-0.2-0.3-0.3-0.5-0.4c-8.6-1.9-11.2-8.1-11.2-10.3c3.4,2.5,10.1,2.4,12.8,2.3
		c0.7,0,1.2-0.6,1.2-1.2V64c0,0,7.4-2.4,8.3-3.6s-1.7-6.5-6.3-14.5c0.5-7.3-3.2-31.5-3.2-31.5H13.8v69.3c0,0,19.4,12.8,30.5,12.1
		c2.7-0.2,4.5-1.2,5.7-2.6c0,0,0.3-0.6,0.6-1.6c4.1,1.4,9,2.1,14.6,2.1c7,0,16.5-3.2,22.2-18.3c2.5-6.5,3.3-12.9,3.7-16.2l0.1-1
		l0.7-0.7c0.9-0.8,2.1-2.1,2.7-3.8c0.5-1.4,0.3-2.9,0.1-4.4c-0.2-1.9-0.5-4,0.3-6.5C95.8,40.9,97.2,35.9,95.2,33z M34.6,38.9
		c0,0,1.8-4.7,5.5-4.7s5.5,4.7,5.5,4.7c-1.8-0.4-3.6-0.7-5.5-0.6C38.2,38.2,36.4,38.5,34.6,38.9z"/>
</g>
</svg>
