<?xml version="1.0" encoding="utf-8"?>
<!-- Generator: Adobe Illustrator 28.3.0, SVG Export Plug-In . SVG Version: 6.00 Build 0)  -->
<svg version="1.1" id="ds44-icons" xmlns="http://www.w3.org/2000/svg" xmlns:xlink="http://www.w3.org/1999/xlink" x="0px" y="0px"
	 viewBox="0 0 110 110" style="enable-background:new 0 0 110 110;" xml:space="preserve">
<g>
	<path d="M50.8,18.3c0,4.6-3.8,8.4-8.4,8.4c-4.6,0-8.5-3.9-8.5-8.5c0-4.6,3.8-8.4,8.4-8.4S50.8,13.7,50.8,18.3"/>
	<path d="M76.1,18.3c0,4.6-3.8,8.4-8.4,8.4c-4.6,0-8.5-3.9-8.5-8.5c0-4.6,3.8-8.4,8.4-8.4S76.1,13.7,76.1,18.3"/>
	<path d="M50.8,43.6c0,4.6-3.8,8.4-8.4,8.4c-4.6,0-8.5-3.9-8.5-8.5s3.8-8.4,8.4-8.4S50.8,38.9,50.8,43.6"/>
	<path d="M76.1,43.6c0,4.6-3.8,8.4-8.4,8.4c-4.6,0-8.5-3.9-8.5-8.5c0-4.6,3.8-8.4,8.4-8.4S76.1,38.9,76.1,43.6"/>
	<path d="M50.8,68.9c0,4.6-3.8,8.4-8.4,8.4c-4.6,0-8.5-3.9-8.5-8.5c0-4.6,3.8-8.4,8.4-8.4S50.8,64.2,50.8,68.9"/>
	<path d="M76.1,68.9c0,4.6-3.8,8.4-8.4,8.4c-4.6,0-8.5-3.9-8.5-8.5c0-4.6,3.8-8.4,8.4-8.4S76.1,64.2,76.1,68.9"/>
	<path d="M16,87.1h6.1c2.2,0,4.7,0.5,4.7,3.3c0,1.2-0.7,2.1-1.7,2.6c1.4,0.4,2.2,1.6,2.2,3.1c0,3.1-2.3,4.1-5.1,4.1H16V87.1z
		 M19.4,92.2H22c0.6,0,1.4-0.3,1.4-1.2s-0.7-1.3-1.4-1.3h-2.6V92.2z M19.4,97.4h2.7c1.1,0,1.8-0.4,1.8-1.5c0-1.1-0.8-1.5-1.8-1.5
		h-2.7V97.4z"/>
	<path d="M29.2,87.1h6.7c2.3,0,4.6,1,4.6,3.7c0,1.4-0.7,2.7-2,3.3v0c1.4,0.3,1.8,1.9,1.9,3.1c0,0.5,0.1,2.5,0.5,2.9h-3.4
		c-0.3-0.4-0.3-1.7-0.4-2.1c-0.1-1.3-0.3-2.7-1.9-2.7h-2.6v4.8h-3.4L29.2,87.1L29.2,87.1z M32.6,92.7h2.9c1,0,1.6-0.5,1.6-1.5
		c0-1-0.8-1.4-1.7-1.4h-2.7V92.7L32.6,92.7z"/>
	<path d="M46,87.1h3.5l4.9,13.1h-3.5L50,97.8h-4.6l-0.8,2.3h-3.5L46,87.1L46,87.1z M46.2,95.3h3l-1.4-4.6h0L46.2,95.3z"/>
	<path d="M55.3,87.1h3.4v13.1h-3.4V87.1z"/>
	<path d="M61.1,87.1h3.4v10.1h6.1v2.9h-9.5V87.1z"/>
	<path d="M72.2,87.1h3.4v10.1h6.1v2.9h-9.5V87.1z"/>
	<path d="M83.4,87.1h10.4v2.7h-7v2.3h6.4v2.6h-6.4v2.5H94v2.9H83.4V87.1L83.4,87.1z"/>
</g>
</svg>
