<svg width="110" height="110" xmlns="http://www.w3.org/2000/svg" x="0px" y="0px"
	 viewBox="0 0 110 110" style="enable-background:new 0 0 110 110;" xml:space="preserve">
<style type="text/css">
	.st0{fill:#1D1D1B;}
	.st1{fill:#FFFFFF;}
</style>
<g id="picto-map" transform="translate(-10.1 -16.2)">
	<path id="Tracé_2628" class="st0" d="M27.3,103.1c0.5-0.1,1-0.3,1.4-0.5c4.8-2.1,9.5-4.2,14.2-6.4c0.9-0.3,1.4-1.1,1.3-2V69
		c0-0.4,0-0.8,0-1.1c0.2-0.5,0.5-0.9,0.9-1.3c0.3,0.4,0.8,0.9,0.8,1.3c0.1,3.9,0,7.9,0,11.7v14.8c-0.1,0.7,0.2,1.4,0.9,1.8
		c5.7,2.3,11.3,4.7,17,7c0.3,0.1,0.5,0.2,0.8,0.2V55.2c0-0.9,0.1-1.9-1.1-2.2c-0.3-0.3-0.4-0.7-0.4-1.1c0-0.2,0.8-0.5,1-0.4
		c1.2,0.7,2.2,0.1,3.3-0.3c5.7-2.2,11.3-4.6,17-6.8c0.9-0.3,1.9-0.2,2.7,0.1c5.5,2.3,11,4.9,16.4,7.3c0.9,0.3,1.4,1.1,1.3,2V104
		c0,1.9-0.4,2-2.1,1.3c-5.3-2.5-10.4-4.9-15.6-7.3c-0.8-0.6-1.9-0.8-2.8-0.3c-5.8,2.5-11.6,4.9-17.4,7.3c-1,0.4-2,0.4-3,0
		c-5.9-2.6-11.8-4.9-17.7-7.4c-0.7-0.2-1.5-0.2-2.2,0c-5.3,2.5-10.8,4.9-16.3,7.4c-1.8,0.8-2.1,0.5-2.1-1.3V56.3
		c-0.1-0.9,0.4-1.8,1.2-2.1c2.6-1.4,5.3-2.9,7.9-4.5c0.6-0.3,1.3-0.9,1.9-0.1c0.5,0.9-0.3,1.2-0.9,1.6c-2.5,1.4-4.9,2.7-7.2,4.2
		c-0.5,0.4-0.9,0.9-1,1.6c-0.1,15,0,29.9,0,45C27.2,102.3,27.1,102.7,27.3,103.1z M84.9,46.1c-0.5,0.1-1,0.3-1.5,0.5
		c-5.2,2.1-10.4,4.2-15.6,6.3c-0.9,0.3-1.4,1.1-1.3,2v46.8c0,0.4,0.1,0.9,0.1,1.5c0.5-0.2,1-0.4,1.5-0.6c5-2.1,10.2-4.2,15.4-6.4
		c1-0.3,1.7-1.3,1.5-2.3L84.9,46.1L84.9,46.1z M103.1,103.2c0.1-0.3,0.1-0.5,0.1-0.8V54.5c0-0.7-0.4-1.4-1.1-1.5
		c-4.7-2-9.4-4.2-14-6.2c-0.4-0.2-0.8-0.3-1.3-0.4c-0.1,0.4-0.1,0.8-0.1,1.1v47.2c-0.1,0.8,0.4,1.5,1.1,1.6c4.2,1.9,8.6,4,12.8,6
		C101.4,102.5,102.3,102.8,103.1,103.2L103.1,103.2z"/>
	<path id="Tracé_2629" class="st1" d="M49.7,36.7c9.1,0,14.8,8.6,11.9,15.7c-2.2,5.5-5.5,10.4-8.8,15.4c-2.3,3.4-2.6,3.4-4.7,0
		c-2.8-4.3-5.5-8.8-8-13.5c-2.2-4.1-2.3-8.3,0.4-12.3C42.5,38.8,46,36.8,49.7,36.7z M50.3,68c0.7-0.8,1.2-1.6,1.8-2.5
		c2.6-4.2,5-8.6,7.4-13c1.3-2.5,1.3-5.4,0.1-8c-2.2-5-7.9-7.3-13-5.4c-4.6,1.8-8,7.3-5.7,12.8C43.4,57.7,46.7,62.7,50.3,68z"/>
	<path id="Tracé_2630" class="st1" d="M57.5,48.8c0,3.8-3.1,7-6.9,7h-0.1c-3.9,0-7.1-3.2-7.1-7.1s3.2-7.1,7.1-7.1
		C54.3,41.6,57.5,44.8,57.5,48.8C57.5,48.7,57.5,48.8,57.5,48.8z M45,48.7c0,2.9,2.4,5.3,5.3,5.3c2.9,0,5.3-2.4,5.3-5.3
		c0-2.9-2.3-5.2-5.2-5.2C47.5,43.5,45.1,45.8,45,48.7z"/>
</g>
</svg>
