<svg width="110" height="110" xmlns="http://www.w3.org/2000/svg" x="0px" y="0px"
	 viewBox="0 0 110 110" style="enable-background:new 0 0 110 110;" xml:space="preserve">
<style type="text/css">
	.st0{fill:#FFFFFF;}
	.st1{fill:none;}
</style>
<g>
	<path class="st0" d="M32.9,64.3l-1-0.5c-0.2-0.1-16.1-8.7-9-23.9l0.5-1.2l1.2,0.5c0.4,0.2,9.6,4.1,11.8,11.8
		c1.1,4,0.2,8.1-2.8,12.3L32.9,64.3z M24.7,42.2c-1.9,4.9-1.2,9.5,2.1,13.7c1.8,2.3,4,4,5.3,4.8c1.9-3.2,2.5-6.2,1.7-9
		C32.4,46.8,27.1,43.5,24.7,42.2z"/>
	<path class="st0" d="M8.5,81.9c-0.6,0-1.3,0-1.9-0.1l-1.1-0.1l-0.1-1.1c0-0.3-0.9-8.5,4-12.7c2.9-2.5,7.2-3.1,12.6-1.7l0.9,0.2
		l0.1,1c0,0.3,0.3,6.5-4,10.7C16.3,80.6,12.9,81.9,8.5,81.9z M7.9,79.2c3.9,0.1,7-0.9,9-2.9c2.6-2.5,3.1-6,3.2-7.7
		c-4-0.9-7.1-0.4-9.1,1.3C8.1,72.4,7.9,77.1,7.9,79.2z"/>
	<g>
		<path class="st1" d="M53.8,39.5c-0.4,1.9-0.1,3.5,1,4.9c1.8,2.2,5,3.2,7.4,3.2c1.5,0,5.8-2,10.9-4.6c-2.2-2.1-4.7-4.5-7.4-6.8
			c-0.4-0.3-0.7-0.6-1.1-0.9C58.7,35.8,54.4,37.1,53.8,39.5z"/>
		<path class="st1" d="M86.4,35.5c-4.3-0.4-8.9-0.7-13.3-0.7c-1.6,0-3.1,0-4.6,0.1c2.6,2.3,5,4.6,7.1,6.7
			C79.2,39.7,83.1,37.5,86.4,35.5z"/>
		<path class="st1" d="M52.8,46.1c-1.6-2-2.1-4.5-1.5-7.1c0.7-3.1,4.2-5.2,10.6-6.1c-11.5-9.4-16.6-10-18.6-9.5
			c-1.9,0.5-3.3,1.5-4,3c-1.1,2-1.1,4.8,0,7.9c0,0,0,0.1,0,0.1c0.1,0.2,5.2,20.8,17.7,20.8c0.1,0,0.2,0,0.3,0c0.5,0,0.9,0.2,1.2,0.6
			c0.3,0.4,0.3,0.9,0.1,1.3l-0.8,1.7c1.9-0.9,4.2-2.3,5.6-4.4c0.3-0.4,0.7-0.6,1.1-0.6c0.1,0,0.2,0,0.3,0L82.6,58
			c0.4,0.1,0.7,0.3,0.9,0.7c0.1,0.1,7.4,13.3,16.3,11.4l2.2-14L82,51.7c-0.3-0.1-0.5-0.2-0.7-0.4c0,0-2.5-2.7-6.2-6.3
			c-9.8,5.1-12.5,5.3-12.9,5.3C59.4,50.3,55.2,49.2,52.8,46.1z"/>
	</g>
	<path d="M45.4,28.9c0,0.6-0.5,1.1-1.1,1.1c-0.6,0-1.1-0.5-1.1-1.1c0-0.6,0.5-1.1,1.1-1.1C44.9,27.8,45.4,28.3,45.4,28.9"/>
	<path class="st0" d="M84.1,75.7C79.7,70,72,69.1,71.7,69.1l-0.3,0c-4.7-3-8.9-4.1-9.3-4.2l-0.7,2.6c0.1,0,4.2,1.2,8.6,4
		c-1.4,10.4,9.2,16.1,15.2,17.7l1.5,0.4l0.2-1.5C87.5,83.1,86.6,79,84.1,75.7z M84.4,86c-1.5-0.5-3.9-1.6-6.2-3.2
		c-3.8-2.7-5.7-5.9-5.6-9.6c2.5,2,4.9,4.6,6.4,7.8l2.4-1.1c-1.2-2.5-2.8-4.7-4.6-6.5c1.8,0.9,3.8,2.1,5.2,4
		C83.8,79.7,84.6,82.6,84.4,86z"/>
	<path d="M103.7,53.7L83,49.1c-0.9-1-2.8-3-5.4-5.6c3.7-2,8.1-4.5,13.6-7.9c0.5-0.3,0.7-0.9,0.6-1.4c-0.1-0.6-0.6-1-1.1-1
		c-0.1,0-9.2-1.1-18.4-1.1c-2.5,0-4.7,0.1-6.7,0.3c-8.3-7-17.5-13.1-23-11.7c-2.6,0.7-4.6,2.2-5.7,4.3c-0.1,0.3-0.3,0.6-0.4,0.8
		l-10.2,3.9c-0.6,0.2-0.9,0.8-0.9,1.4c0.1,0.6,0.5,1.1,1.1,1.2l9.8,1.8c0.1,0.3,0.2,0.6,0.3,0.9c0.2,0.6,1.5,6,4.6,11.3
		c3.8,6.8,8.6,10.7,14,11.4l-1.3,2.8c-0.8,1.2-1.8,2.6-2.3,3.3c-0.3,0-0.7,0-1.2,0.1c-0.7,0-1.9,0.1-2.2,0.1c-0.4-0.1-0.9,0-1.3,0.3
		c-0.2,0.2-0.3,0.4-0.3,0.6h-8.8c-3.4,0-7.1-9.5-8.6-16.2l-2.6,0.6c0,0.2,1,4.5,2.8,8.8c1.2,3,2.4,5.2,3.7,6.8h-4.7
		c-1.2-0.3-9.4-2.7-11.1-7.4l-2.5,0.9c1.4,3.8,5.8,6.3,9.1,7.7c-4.4,1.2-9.6,3.7-12.3,8.4l2.3,1.3c4.2-7.4,16.6-8.2,17.2-8.3h49
		v-2.7h-26c0.4-0.6,1-1.4,1.8-2.5c1.5-0.5,6.2-2.2,9-5.7l16.5,4C82.9,63,89.3,73,97.9,72.9c1.1,0,2.2-0.2,3.4-0.5
		c0.5-0.2,0.8-0.6,0.9-1.1l2.5-16.1C104.9,54.5,104.4,53.9,103.7,53.7z M31.7,30.5l4-1.5c-0.1,0.7,0,1.5,0,2.3L31.7,30.5z
		 M68.5,34.9c1.5-0.1,3-0.1,4.6-0.1c4.4,0,9,0.2,13.3,0.7c-3.4,2-7.2,4.2-10.8,6.1c-0.9,0.5-1.7,0.9-2.5,1.3
		c-5.1,2.7-9.4,4.6-10.9,4.6c-2.4,0-5.6-1-7.4-3.2c-1.1-1.4-1.4-3-1-4.9c0.5-2.4,4.9-3.7,10.8-4.3C65.9,35.1,67.1,35,68.5,34.9z
		 M99.7,70.1C90.9,72,83.5,58.8,83.5,58.7c-0.2-0.3-0.5-0.6-0.9-0.7l-17.9-4.3c-0.1,0-0.2,0-0.3,0c-0.4,0-0.9,0.2-1.1,0.6
		c-1.4,2.1-3.7,3.5-5.6,4.4l0.8-1.7c0.2-0.4,0.2-0.9-0.1-1.3c-0.3-0.4-0.7-0.6-1.2-0.6c-0.1,0-0.2,0-0.3,0
		c-12.5,0-17.7-20.6-17.7-20.8c0,0,0-0.1,0-0.1c-0.2-0.5-0.3-1-0.4-1.5l-0.3-4c0.1-0.9,0.4-1.7,0.7-2.4c0.8-1.5,2.1-2.5,4-3
		c2-0.5,7.1,0.1,18.6,9.5c-6.4,1-9.9,3-10.6,6.1c-0.6,2.7-0.1,5.1,1.5,7.1c2.5,3.1,6.6,4.2,9.4,4.2c0.4,0,3.1-0.2,12.9-5.3
		c3.7,3.6,6.1,6.3,6.2,6.3c0.2,0.2,0.4,0.3,0.7,0.4l19.9,4.4L99.7,70.1z"/>
</g>
</svg>
