<svg width="110" height="110" xmlns="http://www.w3.org/2000/svg" x="0px" y="0px"
	 viewBox="0 0 110 110" style="enable-background:new 0 0 110 110;" xml:space="preserve">
<style type="text/css">
	.st0{fill:#1D1D1B;}
	.st1{fill:#FFFFFF;}
</style>
<g>
	<path class="st0" d="M55,24.3v32.5c0,1.1,0.9,2,2,2h32.5c-1,17-15.2,30.6-32.5,30.6c-4.1,0-8.1-0.7-11.9-2.2l9.1-26.5
		c0.3-0.8,0-1.6-0.5-2.1c-0.4-0.3-0.9-0.5-1.4-0.5c-0.3,0-0.6,0.1-0.8,0.2l-24.7,11c-1.6-3.9-2.4-8.1-2.4-12.3
		C24.4,39.5,37.9,25.4,55,24.3 M57,22.3c-19.1,0-34.6,15.5-34.6,34.6c0,5.4,1.2,10.5,3.4,15L52.3,60l-9.7,28.3
		c4.4,2,9.2,3.1,14.4,3.1c19.1,0,34.6-15.5,34.6-34.6H57V22.3L57,22.3z"/>
	<path class="st1" d="M43.2,70l-8.7,23c-6.5-2.8-11.2-9.8-13.2-13.1L43.2,70 M46.8,66.2L46.8,66.2L46.8,66.2z M46.8,66.2L18.5,79
		c0,0,6.5,13.4,17.1,16.6L46.8,66.2L46.8,66.2z"/>
	<path class="st1" d="M67.1,16.4v35.4H62V16.4H67.1 M69.1,14.4H60v39.4h9.1V14.4L69.1,14.4z"/>
	<path class="st1" d="M78.2,32.6v19.3h-5.1V32.6H78.2 M80.2,30.6h-9.1v23.3h9.1V30.6L80.2,30.6z"/>
	<path class="st1" d="M89.4,24v27.8h-5.1V24H89.4 M91.4,22h-9.1v31.8h9.1V22L91.4,22z"/>
</g>
</svg>
