<svg width="110" height="110" xmlns="http://www.w3.org/2000/svg" x="0px" y="0px"
	 viewBox="0 0 110 110" style="enable-background:new 0 0 110 110;" xml:space="preserve">
<style type="text/css">
	.st0{fill:#FFFFFF;}
</style>
<g>
	<path d="M45.7,77.1c-0.4,0-0.9-0.2-1.2-0.6L38.4,69c0,0-0.1-0.1-0.1-0.1c-0.6-0.9-2.7-3.4-4.8-3.4c-0.8,0-1.6,0.4-2,1.1
		c-0.4,0.6-0.4,1.3-0.1,2l3.3,4c0.5,0.6,0.4,1.6-0.2,2.1c-0.6,0.5-1.6,0.4-2.1-0.2l-3.4-4.1c-0.1-0.1-0.1-0.2-0.2-0.3
		c-0.8-1.7-0.8-3.5,0.2-5.1c1-1.5,2.7-2.5,4.6-2.5c4,0,6.9,4,7.3,4.7l6.1,7.4c0.5,0.6,0.4,1.6-0.2,2.1C46.3,77,46,77.1,45.7,77.1z"
		/>
	<path class="st0" d="M89.5,68.3h-62c-6.3,0-11.5-5.2-11.5-11.5V27.3c0-6.3,5.2-11.5,11.5-11.5h62c6.3,0,11.5,5.2,11.5,11.5v29.5
		C101,63.1,95.8,68.3,89.5,68.3z M27.5,18.8c-4.7,0-8.5,3.8-8.5,8.5v29.5c0,4.7,3.8,8.5,8.5,8.5h62c4.7,0,8.5-3.8,8.5-8.5V27.3
		c0-4.7-3.8-8.5-8.5-8.5H27.5z"/>
	<g>
		<path class="st0" d="M51.2,56.3h-3.3l-1.8-4.8c-0.1-0.4-0.4-0.6-0.7-0.8c-0.3-0.1-0.7-0.2-1.1-0.2h-2v5.8h-3.1V41.9h6.4
			c1.7,0,2.9,0.4,3.8,1.1c0.9,0.7,1.3,1.8,1.3,3.1c0,1-0.3,1.8-0.8,2.5c-0.5,0.7-1.2,1.2-2.2,1.5c0.8,0.2,1.5,0.8,1.8,1.8L51.2,56.3
			z M45.1,48.1c0.9,0,1.6-0.2,2-0.5c0.4-0.3,0.6-0.8,0.6-1.4c0-0.6-0.2-1.1-0.6-1.4c-0.4-0.3-1.1-0.5-2-0.5h-2.9v3.7H45.1z"/>
		<path class="st0" d="M55.2,56c-1-0.3-1.8-0.7-2.5-1.2l1-2.3c1.4,1,2.9,1.4,4.6,1.4c0.9,0,1.6-0.1,2.1-0.4c0.5-0.3,0.7-0.7,0.7-1.2
			c0-0.5-0.2-0.8-0.7-1.1c-0.4-0.3-1.2-0.5-2.4-0.8c-1.3-0.3-2.3-0.6-3-0.9c-0.7-0.4-1.3-0.8-1.6-1.3c-0.3-0.5-0.5-1.2-0.5-2
			c0-0.9,0.2-1.6,0.7-2.3c0.5-0.7,1.1-1.2,2-1.6c0.9-0.4,1.9-0.6,3-0.6c1,0,2,0.1,2.9,0.4c0.9,0.3,1.7,0.7,2.3,1.2l-1,2.3
			c-1.3-1-2.7-1.4-4.2-1.4c-0.8,0-1.4,0.2-1.9,0.5C56.3,45,56,45.4,56,46c0,0.3,0.1,0.6,0.3,0.8c0.2,0.2,0.5,0.4,0.9,0.6
			c0.4,0.2,1,0.3,1.8,0.5c1.8,0.4,3.2,0.9,4,1.6c0.8,0.6,1.2,1.5,1.2,2.6c0,1.3-0.5,2.4-1.6,3.2c-1,0.8-2.5,1.2-4.4,1.2
			C57.2,56.4,56.2,56.3,55.2,56z"/>
		<path class="st0" d="M75.9,53.1h-6.7l-1.4,3.2h-3.2l6.6-14.3h2.5l6.6,14.3h-3.1L75.9,53.1z M74.9,50.7l-2.3-5.4l-2.3,5.4H74.9z"/>
	</g>
	<path d="M80.8,94.2c-4.1,0-10.6-0.4-16.9-0.9c-5-0.3-9.7-0.6-12-0.6c-6.5,0-24.3-5.8-29.6-7.5C12,81.8,9.9,78.8,9,73.8
		c0-0.2,0-0.4,0-0.5c0.4-2.1,1.4-3.7,2.8-4.5c2.8-1.6,6.6-0.4,9.9,0.7c0.7,0.2,1.4,0.5,2,0.6c17.1,4.9,21.8,4.8,24.9,4.7
		c0.4,0,0.7,0,1.1,0c1.5,0,3.4-0.8,5-1.7l-6.3-2.9c-0.6-0.2-6.3-2.6-7.1-6.6c-0.3-1.3-0.1-3.2,1.9-5.3c1.3-1.3,4.9-1.8,15.2,3
		c1,0.3,9.1,2.8,13.6,4.8C76.5,68,82.3,68,82.4,68h10.2c0.8,0,1.5,0.7,1.5,1.5S93.4,71,92.6,71H82.4c-0.3,0-6.5,0-11.4-2.2
		c-4.6-2-13.3-4.7-13.4-4.7c-0.1,0-0.1,0-0.2-0.1c-5.3-2.5-10.8-4.2-11.9-3.6c-1.3,1.3-1.1,2.2-1.1,2.5c0.4,2.1,4.1,4,5.4,4.5
		l8.9,4.1c0.5,0.2,0.8,0.7,0.9,1.2c0.1,0.5-0.2,1.1-0.6,1.4c-0.5,0.4-5.2,3.7-9,3.7c-0.3,0-0.7,0-1,0C45.5,77.9,40.5,78,23,73
		c-0.7-0.2-1.4-0.4-2.2-0.7c-2.7-0.9-5.8-1.9-7.4-0.9c-0.7,0.4-1.1,1.1-1.4,2.2c0.6,3.3,1.8,5.6,11.2,8.7
		c10.7,3.6,23.9,7.4,28.7,7.4c2.4,0,7.2,0.3,12.2,0.7c7.5,0.5,16.7,1.1,19.5,0.7c3.4-0.5,7.4-4.2,8.6-5.6c0.5-0.6,1.5-0.7,2.1-0.1
		c0.6,0.5,0.7,1.5,0.1,2.1c-0.2,0.2-5.2,5.9-10.4,6.6C83.2,94.2,82.1,94.2,80.8,94.2z"/>
	<path class="st0" d="M31.4,34.9c-7.7,0-13.7-9.5-13.9-9.9c-0.4-0.7-0.2-1.6,0.5-2.1c0.7-0.4,1.6-0.2,2.1,0.5
		c0.1,0.1,5.4,8.5,11.4,8.5h55.5c0,0,10.6-0.7,10.6-6.1c0-0.8,0.7-1.5,1.5-1.5s1.5,0.7,1.5,1.5c0,8.3-12.9,9.1-13.5,9.1L31.4,34.9z"
		/>
</g>
</svg>
