<svg width="110" height="110" xmlns="http://www.w3.org/2000/svg" x="0px" y="0px"
	 viewBox="0 0 110 110" style="enable-background:new 0 0 110 110;" xml:space="preserve">
<style type="text/css">
	.st0{fill:#FFFFFF;}
</style>
<g>
	<path d="M44.5,88.4c-0.4,0-0.8-0.2-1.1-0.5l-3.1-3.3c-0.1-0.1-0.2-0.2-0.2-0.3l-0.9-1.6c-0.3-0.1-0.5-0.3-0.7-0.5l-3-3.8L34.6,77
		l-3.2-1.1l-5.1-1.2c-0.1,0-0.1,0-0.2-0.1L24.4,74c-0.3-0.1-0.6-0.4-0.8-0.7l-0.1-0.2c-0.3-0.6-0.2-1.3,0.3-1.8l2.1-2
		c0.2-0.2,0.5-0.3,0.7-0.4l1-0.2l0.4-1.4l-1.1-2.6c-0.1-0.3-0.2-0.6-0.1-1l0.3-1.3l-1.8,1.3c-0.1,0.1-0.2,0.1-0.3,0.2l-3,1.4
		c-0.5,0.2-1.1,0.2-1.5-0.1l-1.9-1.3l-2.2-1.7c0,0.2-0.1,0.4-0.2,0.6c-0.3,0.5-0.8,0.7-1.4,0.7l-1.8-0.1c-0.1,0-0.1,0-0.2,0l-0.2,0
		c-0.1,0-0.2,0-0.3-0.1l-2.1-0.8c-0.2-0.1-0.3-0.2-0.5-0.3l-2.7-1.2c-0.5-0.2-0.8-0.6-0.9-1.1c-0.1-0.5,0.1-1,0.5-1.3l0.8-0.7
		c0.3-0.2,0.6-0.4,1-0.4l0.2-0.5l-1-2.1c-0.3-0.1-0.7-0.4-1.3-0.8c-0.5-0.3-0.8-0.8-0.7-1.3c0-0.5,0.3-1,0.8-1.3l4.8-2.5
		c0,0,0,0,0,0c-0.4-0.4-0.5-0.9-0.4-1.4s0.5-0.9,1.1-1l1.2-0.3l3.5-1.5c-0.1-0.3-0.1-0.7,0-1.1l0.3-0.7l-0.1-1.8
		c0-0.5,0.2-1,0.6-1.3l1.5-1.1c0.4-0.3,1-0.4,1.4-0.2c0.5,0.2,0.8,0.6,0.9,1.1l0,0.2l1.4-0.2c0.1,0,0.2,0,0.2,0l1.5,0l0-0.3
		c0-0.1,0-0.2,0.1-0.3l0.9-2.7c0.1-0.4,0.4-0.7,0.8-0.9c0.4-0.2,0.8-0.2,1.2,0l0.8,0.3l1.1,0.1c0.4,0,0.8,0.2,1,0.6l0.1-0.1
		c0.2-0.2,0.5-0.3,0.7-0.3l1.8-0.2c0.3,0,0.6,0,0.9,0.2l0.1-0.4c0.1-0.5,0.5-0.9,1-1l1.5-0.4l0-1.4c-0.3-0.3-0.5-0.8-0.5-1.2
		l0.1-1.5c0-0.2,0.1-0.5,0.2-0.6l2.7-4.4l0.2-0.9c0.1-0.4,0.3-0.7,0.6-0.9l0.2-0.2c0.2-0.1,0.5-0.2,0.8-0.2l1.1,0l1.8-1.9
		c0.4-0.5,1.1-0.6,1.7-0.3c0.5,0.2,0.8,0.7,0.9,1.2l0,0l4-2.3c0.2-0.1,0.4-0.2,0.6-0.2l0.5-0.1c0.1,0,0.1,0,0.2,0l5.8,0.1
		c0.1,0,0.2,0,0.3,0l1,0.2c0.2-0.2,0.4-0.4,0.7-0.4l1.1-0.3c0.2-0.1,0.4-0.1,0.6,0l0.3,0l1.4-3.1c0.1-0.2,0.3-0.4,0.5-0.6l0.4-0.3
		c0.2-0.2,0.5-0.3,0.9-0.3l0.2-0.3c0.2-0.2,0.4-0.4,0.6-0.6l0.5-0.2c0,0,0.1,0,0.1-0.1l3.9-1.5l0.3-0.2c0.3-0.2,0.7-0.3,1-0.3
		l-0.2-0.9c-0.1-0.4,0-0.9,0.3-1.3c0.3-0.4,0.7-0.6,1.2-0.6l0.8,0c0.1,0,0.2,0,0.3,0l2.9,0.6c0.4,0,0.7,0.2,1,0.4l0.2,0.2l2.1,1.8
		l1.1,0.4l5.2,1.5c0.7,0.2,1.1,0.8,1.1,1.5l-0.1,0.9l0.3,1.5c0,0.3,0,0.5-0.1,0.8l3.2,2.3c0.5,0.4,0.7,1,0.6,1.7l0,0.1l0,0.1
		c0,0.1,0,0.2,0,0.2l0,0.6c0.2,0.2,0.4,0.4,0.5,0.6l1.1,2.6c0.1,0,0.1,0,0.2,0.1l6.4,2.3c0.5,0.2,0.8,0.6,1,1.1l0.1,0.3
		c0.2,0.7-0.3,1.5-1,1.7l-5.2,1.8c-0.2,0.1-0.5,0.1-0.7,0.1l-1.5-0.2c0.1,0.1,0.1,0.2,0.1,0.4l0.1,0.3c0,0.3,0,0.5-0.1,0.8l1.7,1.2
		l4.1,0.1c0.1,0,0.2,0,0.3,0l3.4,0.7c0.5,0.1,0.9,0.4,1.1,0.9l0.4,0.9c0.2,0.5,0.1,1-0.1,1.4l0.4,0.9c0.1,0.3,0.1,0.5,0.1,0.8
		l-0.4,2.5c0,0,0,0.1,0,0.1c0.6,0.3,0.9,1.1,0.7,1.7l-0.6,1.9c-0.1,0.4-0.4,0.7-0.7,0.9l-0.6,0.3c-0.1,0.1-0.2,0.1-0.3,0.1l-3.6,0.9
		c-0.1,0-0.3,0.1-0.4,0.1l-4.5-0.1c-0.2,0-0.3,0-0.5-0.1l-2.2,0.2l-1.7,1.1c-0.2,0.1-0.4,0.2-0.7,0.2L87,51.8l-2.4,0.5l-0.5,0.4
		c0.1,0.1,0.2,0.1,0.2,0.2l0.8,1c0.2,0.2,0.3,0.5,0.4,0.8l0.2,1.4l1.3,1.3l0.2-0.2c0.3-0.4,0.8-0.5,1.3-0.5l0.5,0.1
		c0.7,0.1,1.2,0.6,1.3,1.3l0.3,2l0.2,0.1c0.5,0.3,0.7,0.8,0.7,1.3l0,1.1l0.1,0c0.7,0.5,0.9,1.4,0.4,2.1l-1.5,2.3
		c-0.1,0.2-0.3,0.3-0.4,0.4l-1.8,1.2c0.1,0.3,0,0.6-0.1,0.9l0,0.1l2.4,0.4c0.5,0.1,0.9,0.4,1.1,0.9l0.4,0.9l2.4,3.1
		c0.3,0.4,0.4,0.8,0.3,1.2c-0.1,0.4-0.4,0.8-0.8,1l-1.7,0.9c-0.4,0.2-0.8,0.2-1.1,0.1l-2.7-0.8c-0.2-0.1-0.4-0.1-0.5-0.3L85,74.7
		l-0.3,0.8c0.1,0.2,0,0.5,0,0.7c-0.2,0.7-0.9,1.2-1.7,1.1L81.3,77c-0.1,0.1-0.3,0.2-0.4,0.3l-0.1,1.4c0,0.2,0,0.3-0.1,0.4l-0.2,0.4
		c0.6,0.5,0.8,1.4,0.4,2l-1.8,2.7c-0.3,0.5-0.9,0.8-1.5,0.7l-2-0.3l-0.5,0.4c-0.7,0.5-1.6,0.4-2.1-0.3c-0.5-0.7-0.4-1.6,0.3-2.1
		l1-0.8c0.3-0.3,0.7-0.4,1.2-0.3l1.7,0.3l0.5-0.7c-0.4-0.4-0.5-1-0.3-1.5l0.5-1.3l0.1-2.5c0-0.7,0.6-1.3,1.3-1.4
		c0.3-0.4,0.8-0.6,1.3-0.5l1.3,0.2l0.9-2c0.1-0.2,0.2-0.3,0.3-0.5l0.6-0.5c0.2-0.2,0.4-0.3,0.6-0.4c0-0.1,0.1-0.2,0.1-0.3l0.7-1.6
		l-0.1-0.2c-0.3-0.6-0.1-1.4,0.5-1.8l1.1-0.8l1.5-1l0.6-0.9c-0.3-0.4-0.4-0.8-0.3-1.3l0.1-0.3l0-0.3l0,0c-0.4-0.2-0.7-0.6-0.7-1.1
		l-0.1-0.6l-0.2,0.1c-0.6,0.3-1.2,0.1-1.7-0.3l-2.5-2.5c-0.2-0.2-0.4-0.6-0.4-0.9l-0.2-1.5l-0.3,0c-0.1,0-0.1,0-0.2,0l-2.1,0
		c-0.6,0-1.2-0.4-1.4-1s0-1.3,0.5-1.7l3.9-3.1c0.2-0.1,0.4-0.2,0.6-0.3l2.8-0.6c0.1,0,0.1,0,0.2,0l1.1-0.1l1.7-1.1
		c0.2-0.1,0.4-0.2,0.7-0.2l3.1-0.2c0.3,0,0.5,0,0.8,0.1l3.8,0.1l3.1-0.8l0.1-0.3l-1-0.9l-0.4-0.2c-0.8-0.3-1.2-1.2-0.9-1.9
		c0.3-0.8,1.2-1.2,1.9-0.9l0,0l0,0l0.1,0l0.1-0.7l-0.6-1.3c-0.1-0.3-0.1-0.6-0.1-0.9l-2-0.4l-4.4-0.1c-0.3,0-0.6-0.1-0.8-0.3
		l-3.5-2.4c-0.4-0.3-0.6-0.7-0.6-1.1c0-0.1,0-0.2,0-0.4c-0.4-0.3-0.7-0.9-0.6-1.4l0.3-2.1c0.1-0.8,0.9-1.4,1.7-1.3l3.7,0.5l1.2-0.4
		l-2.6-1l-0.5,0c-0.4,0-0.8-0.1-1.1-0.4c-0.3-0.3-0.4-0.6-0.4-1l-0.9-2c-0.6-0.2-1-0.7-1.1-1.3l-0.1-1.6l-0.1-0.4c0-0.1,0-0.2,0-0.3
		l-3.7-2.6c-0.4-0.3-0.6-0.7-0.7-1.1L84,17.7c0-0.4,0.1-0.8,0.4-1.1c0.1-0.1,0.1-0.1,0.2-0.2l0-0.3c0-0.1,0-0.2,0-0.3l-4.1-1.2
		l-1.4-0.5c-0.2-0.1-0.4-0.2-0.5-0.3L76.2,12c0,0,0,0,0,0l-1.3-0.3L75,12c0.2,0.7-0.2,1.5-0.9,1.8l-1.5,0.6
		c-0.3,0.1-0.6,0.1-0.9,0.1c0,0-0.1,0-0.1,0.1L67.5,16l-0.4,0.7c-0.3,0.5-0.8,0.8-1.4,0.7l0,0l-1.6,3.5c-0.3,0.6-0.9,1-1.6,0.9
		l-1.1-0.2l-0.1,0.1c-0.3,0.7-1,1.1-1.7,0.9l-2-0.5L51.9,22l-0.1,0l-5,2.8C46.6,25,46.3,25,46,25l-0.6,0c-0.4,0-0.8-0.2-1-0.5L44,25
		c-0.3,0.3-0.6,0.5-1,0.5l-0.8,0l0,0.1c0,0.2-0.1,0.3-0.2,0.5l-2.7,4.3l0,0.4c0.3,0.3,0.4,0.6,0.4,1l0,2.7c0,0.1,0,0.2,0,0.2
		l-0.1,0.6c-0.1,0.6-0.5,1-1.1,1.2l-1.7,0.5l-0.4,1.4c-0.1,0.5-0.6,0.9-1.1,1.1l-1.8,0.4c-0.5,0.1-0.9,0-1.3-0.3
		c-0.2-0.2-0.4-0.4-0.5-0.7l-1,0.7c-0.4,0.3-0.8,0.3-1.2,0.2c-0.4-0.1-0.8-0.4-1-0.8l-0.3-0.6l-0.4,0l-0.4,1.1L27.3,41
		c-0.1,0.8-0.7,1.4-1.5,1.4l-2.7-0.1l-2.3,0.3c-0.3,0-0.6,0-0.8-0.1l0,0.3c0,0.2,0,0.3-0.1,0.5c0.1,0.1,0.2,0.2,0.3,0.4
		c0.1,0,0.1,0.1,0.2,0.2c0.3,0.3,0.4,0.8,0.3,1.2l0,0.1c-0.1,0.5-0.4,0.9-0.9,1.1l-4.6,2c0.1,0.2,0.2,0.4,0.2,0.7
		c0,0.6-0.3,1.2-0.8,1.4l-4.5,2.3c0,0,0,0.1,0.1,0.1l1.5,3.2c0.2,0.4,0.2,0.8,0,1.2l-0.5,1.2c0,0.2,0,0.5-0.1,0.7l0,0.1l0.4,0.2
		c0.1,0.1,0.3,0.1,0.4,0.2l1.5,0.6c0.1-0.1,0.1-0.2,0.2-0.2l0.2-0.2c0.1-0.1,0.1-0.1,0.2-0.2l0.9-0.6c0.2-0.1,0.4-0.2,0.6-0.2
		l0.8-0.1c0.4-0.1,0.8,0,1.1,0.3l3,2.3l1.1,0.8l2.1-1l3-2.2c0.2-0.1,0.4-0.2,0.6-0.3l0.3-0.1l0.4-0.3c0.1,0,0.1-0.1,0.2-0.1l1.5-0.8
		c0.2-0.1,0.4-0.2,0.5-0.2l3.9-0.4c0.3,0,0.6,0,0.9,0.2l2,1.2c0.5,0.3,0.7,0.7,0.8,1.3c0,0.5-0.3,1-0.7,1.3l-1.2,0.7
		c-0.2,0.1-0.3,0.2-0.5,0.2l-5.3,0.9c0,0,0,0,0,0L29.9,64l1.1,2.7c0.1,0.3,0.2,0.7,0.1,1l-0.9,2.8c-0.2,0.5-0.6,0.9-1.1,1l-1.4,0.3
		l-0.2,0.2l4.6,1.1c0.1,0,0.1,0,0.2,0l3.7,1.3c0.3,0.1,0.6,0.3,0.7,0.6l1.2,1.7l2,2.6c0,0,0.1,0,0.1,0c0.8,0,1.5,0.6,1.5,1.4l0,0.2
		l1,1.8l2.1,2.3l2.7-1.6c0.7-0.4,1.6-0.2,2.1,0.5c0.4,0.7,0.2,1.6-0.5,2.1l-3.8,2.2C45,88.3,44.7,88.4,44.5,88.4z M89.5,74.6
		l1.1,0.3l-1.1-1.4c-0.1-0.1-0.1-0.2-0.2-0.3l-0.2-0.4l-1.9-0.3l-0.2,0.1L89.5,74.6z"/>
	<g>
		<path class="st0" d="M44.3,68c0.2-0.4,0.3-0.9,0.3-1.4c0-2.4-1.9-4.3-4.3-4.3s-4.3,1.9-4.3,4.3s1.9,4.3,4.3,4.3
			c0.8,0,1.4-0.2,2.1-0.6l8.4,7.7v22.1c0,0.8,0.7,1.5,1.5,1.5s1.5-0.7,1.5-1.5V77.3c0-0.4-0.2-0.8-0.5-1.1L44.3,68z M40.3,67.8
			c-0.7,0-1.3-0.6-1.3-1.3s0.6-1.3,1.3-1.3s1.3,0.6,1.3,1.3S41,67.8,40.3,67.8z"/>
		<path class="st0" d="M47.9,54.1c0.9-0.8,1.4-1.9,1.4-3.1c0-2.4-1.9-4.3-4.3-4.3s-4.3,1.9-4.3,4.3s1.9,4.3,4.3,4.3c0,0,0.1,0,0.1,0
			l9.6,22.4v22.4c0,0.8,0.7,1.5,1.5,1.5s1.5-0.7,1.5-1.5V77.3c0-0.2,0-0.4-0.1-0.6L47.9,54.1z M43.8,51c0-0.7,0.6-1.3,1.3-1.3
			s1.3,0.6,1.3,1.3s-0.6,1.3-1.3,1.3S43.8,51.7,43.8,51z"/>
		<path class="st0" d="M79.8,42.2c0-2.4-1.9-4.3-4.3-4.3s-4.3,1.9-4.3,4.3c0,1.3,0.6,2.5,1.6,3.3l-8,31.5c0,0.1,0,0.2,0,0.4v22.7
			c0,0.8,0.7,1.5,1.5,1.5s1.5-0.7,1.5-1.5V77.5l7.9-31.1C78,46.3,79.8,44.5,79.8,42.2z M75.6,40.9c0.7,0,1.3,0.6,1.3,1.3
			s-0.6,1.3-1.3,1.3s-1.3-0.6-1.3-1.3S74.9,40.9,75.6,40.9z"/>
		<path class="st0" d="M65.6,38.8c0-2.4-1.9-4.3-4.3-4.3s-4.3,1.9-4.3,4.3c0,1.8,1.1,3.3,2.7,4v57.3c0,0.8,0.7,1.5,1.5,1.5
			s1.5-0.7,1.5-1.5V42.8C64.4,42.2,65.6,40.6,65.6,38.8z M61.3,37.5c0.7,0,1.3,0.6,1.3,1.3S62,40,61.3,40s-1.3-0.6-1.3-1.3
			S60.6,37.5,61.3,37.5z"/>
		<path class="st0" d="M78.6,62.3c-2.4,0-4.3,1.9-4.3,4.3c0,0.7,0.2,1.4,0.5,1.9l-5.8,8c-0.2,0.3-0.3,0.6-0.3,0.9v22.7
			c0,0.8,0.7,1.5,1.5,1.5s1.5-0.7,1.5-1.5V77.8l5.3-7.3c0.5,0.2,1,0.3,1.5,0.3c2.4,0,4.3-1.9,4.3-4.3S81,62.3,78.6,62.3z M78.6,67.8
			c-0.7,0-1.3-0.6-1.3-1.3s0.6-1.3,1.3-1.3s1.3,0.6,1.3,1.3S79.3,67.8,78.6,67.8z"/>
	</g>
</g>
</svg>
