<svg width="110" height="110" xmlns="http://www.w3.org/2000/svg" x="0px" y="0px"
	 viewBox="0 0 110 110" style="enable-background:new 0 0 110 110;" xml:space="preserve">
<style type="text/css">
	.st0{fill:#FFFFFF;}
	.st1{fill:none;}
</style>
<g>
	<path class="st0" d="M96.1,91.5H62.9c-3.3,0-5.9-2.7-5.9-5.9v-1.7c0-3.3,2.7-5.9,5.9-5.9h33.3c3.3,0,5.9,2.7,5.9,5.9v1.7
		C102.1,88.8,99.4,91.5,96.1,91.5z M62.9,80.8c-1.7,0-3.2,1.4-3.2,3.2v1.7c0,1.7,1.4,3.2,3.2,3.2h33.3c1.7,0,3.2-1.4,3.2-3.2v-1.7
		c0-1.7-1.4-3.2-3.2-3.2H62.9z"/>
	<path class="st1" d="M11.2,70.2c-0.2,0.1-0.4,0.2-0.4,0.5c-0.1,0.2-0.1,0.4,0,0.6l0.4,0.9c0.2,0.4,0.7,0.6,1.1,0.4l52.6-23.3
		L63.8,47L11.2,70.2z"/>
	<path d="M93.5,52.3c-1.2-2.6-3.8-4-6.6-3.8l-8.4-18.6c0-0.1-0.1-0.1-0.1-0.2c2-1.8,2.7-4.8,1.5-7.4c-0.7-1.6-2-2.8-3.6-3.4
		c-1.6-0.6-3.4-0.6-4.9,0.2l-15.6,7c-1.6,0.7-2.8,2-3.4,3.6c-0.6,1.6-0.6,3.4,0.2,4.9c1.3,2.8,4.3,4.3,7.2,3.7c0,0,0,0,0,0l2.8,6.1
		L10.1,67.7c-0.9,0.4-1.6,1.1-1.9,2c-0.3,0.9-0.3,1.9,0.1,2.8l0.4,0.9c0.6,1.3,1.9,2.2,3.3,2.2c0.5,0,1-0.1,1.5-0.3L66,52l2.2,4.8
		c-2.4,1.8-3.3,5-2,7.8c1.1,2.4,3.4,3.8,5.9,3.8c0.9,0,1.8-0.2,2.7-0.6l15.6-7C93.6,59.3,95,55.5,93.5,52.3z M55.2,33.5
		c-0.4-0.9-0.4-1.9-0.1-2.8c0.3-0.9,1-1.6,1.9-2.1l15.6-7c0.9-0.4,1.9-0.4,2.8-0.1s1.6,1,2.1,1.9c0.8,1.7,0.1,3.7-1.5,4.7
		c-0.1,0.1-0.3,0.2-0.4,0.3c0,0-0.1,0-0.1,0l-14.9,6.7c-0.2,0-0.3,0-0.4,0.1l-0.1,0C58.2,36.2,56,35.3,55.2,33.5z M12.3,72.7
		c-0.4,0.2-0.9,0-1.1-0.4l-0.4-0.9c-0.1-0.2-0.1-0.4,0-0.6c0.1-0.2,0.2-0.4,0.4-0.5L63.8,47l1.1,2.4L12.3,72.7z M67.4,48.3l-1.1-2.4
		l-1.1-2.5l-2.7-6l13.6-6.1l8.2,18l-13.6,6.1l-2.1-4.6L67.4,48.3z M89.2,58.3l-15.6,7c-1.8,0.8-4,0-4.9-1.8c-0.8-1.8,0-4,1.8-4.9
		c0.2-0.1,0.3-0.2,0.4-0.3l15-6.8c0,0,0.1-0.1,0.1-0.1c0.1,0,0.3,0,0.4,0c1.8-0.5,3.7,0.3,4.4,2C91.8,55.2,91,57.4,89.2,58.3z"/>
</g>
</svg>
