<?xml version="1.0" encoding="utf-8"?>
<!-- Generator: Adobe Illustrator 28.3.0, SVG Export Plug-In . SVG Version: 6.00 Build 0)  -->
<svg version="1.1" id="ds44-icons" xmlns="http://www.w3.org/2000/svg" xmlns:xlink="http://www.w3.org/1999/xlink" x="0px" y="0px"
	 viewBox="0 0 110 110" style="enable-background:new 0 0 110 110;" xml:space="preserve">
<g>
	<path d="M87.6,59.8c-1.1,0-2.2,0.1-3.3,0.4l-5.2-15.5l1.9-0.9c0.1-0.1,0.3-0.1,0.4-0.3c0.4,0.3,0.9,0.5,1.4,0.5
		c1.4,0,2.5-1.1,2.5-2.5c0-1.4-1.1-2.5-2.5-2.5c-1.4,0-2.3,1-2.4,2.3c-0.1,0-0.3,0.1-0.4,0.1l-2.9,1.4c-0.6,0.3-0.9,1-0.7,1.6
		l1.1,3.3L54.2,55l-0.4-1.1h1.1c0.7,0,1.3-0.6,1.3-1.3V51c0-0.7-0.6-1.3-1.3-1.3l-9.5,0.8l3.3,1.5c0.4,0.7,1.9,0.1,1.7,0.9
		c0,0.1-0.1,0.3-0.1,0.4l-0.2,0.6h0.9l0.7,1.9l-1,0.3c-0.3,0.1-0.5,0.3-0.7,0.5L38.6,73.3c-0.3,0.4-0.3,0.9-0.1,1.3
		c0.2,0.4,0.7,0.7,1.1,0.7h20.1l0.1,0c0,0,0.1,0,0.1,0l0.1,0c0.1,0,0.1,0,0.1-0.1l0.1-0.1c0,0,0.1-0.1,0.2-0.1l19.2-20.3l2.1,6.2
		c-5.2,2.3-8.5,7.4-8.5,13.1c0,7.9,6.4,14.3,14.3,14.3s14.3-6.4,14.3-14.3S95.5,59.8,87.6,59.8L87.6,59.8z M42.1,72.8L52,58.4
		l0.6-0.2l5.3,14.6L42.1,72.8L42.1,72.8z M60.3,71.7l-5.1-14.3l23.1-7.2l0.6,1.8L60.3,71.7z M87.6,85.1c-6.1,0-11-4.9-11-11
		c0-4.3,2.5-8.1,6.3-10l3.5,10.4c0.2,0.7,1,1,1.6,0.8c0.3-0.1,0.6-0.3,0.7-0.7s0.2-0.7,0.1-1l-3.5-10.4c0.7-0.2,1.5-0.2,2.3-0.2
		c6.1,0,11,4.9,11,11C98.7,80.2,93.7,85.1,87.6,85.1L87.6,85.1z"/>
	<path d="M27.7,26.8c0-3.1,2.5-5.6,5.6-5.6s5.6,2.5,5.6,5.6s-2.5,5.6-5.6,5.6S27.7,29.9,27.7,26.8"/>
	<path d="M50.8,50.9c1.4,0.1,2.6,1.3,2.6,2.8c0,1.6-1.3,2.8-2.8,2.8c-0.1,0-0.3,0-0.4,0l0,0c0,0-9.5-1.9-10.3-2.1
		c-0.8-0.2-1.5-1.1-1.7-1.6c-0.2-0.5-2.5-5-2.5-5l-1.8,8.5c0,0,8,8.5,8.2,8.8c0.2,0.3,1.3,0.9,1.2,3.8c-0.1,2.6,0,14.1,0,16.4
		c0,0,0,0,0,0.1c0,0,0,0,0,0.1c0,0.2,0,0.3,0,0.3h0c-0.2,1.7-1.6,3-3.3,3s-3.2-1.3-3.3-3h0V70.7l-8.6-8.6c0,0-1.5,9-1.6,9.7
		c-0.1,0.7-0.4,1.2-1.3,2.3c-0.8,1-9.2,10.8-10.8,12.8c-0.6,0.8-1.6,1.4-2.7,1.4c-1.8,0-3.3-1.5-3.3-3.3c0-1,0.4-1.8,1.1-2.4
		l9.1-10.9l2.6-14.8c0,0,2.6-12.5,2.8-13.1l-2.8,1.6l-4.5,8.4C16,55,14.9,56,13.5,56c-1.6,0-2.9-1.3-2.9-2.9c0-0.7,0.2-1.3,0.6-1.8
		l4.8-9c0,0,0.6-1.2,1.3-1.5c0.7-0.3,10.9-6.2,10.9-6.2s2.1-1.1,4.1-0.4s3.5,2.2,4.1,2.8c0.5,0.6,6,12.1,6.1,12.3
		c0.1,0.2-0.3,0.1,0.1,0.2C43,49.6,49.2,50.7,50.8,50.9L50.8,50.9L50.8,50.9z"/>
	<path d="M39.9,88.4c-7.6,0-13.8-6.2-13.8-13.8s6.2-13.8,13.8-13.8S53.7,67,53.7,74.6S47.5,88.4,39.9,88.4L39.9,88.4z M39.9,63.9
		c-5.9,0-10.7,4.8-10.7,10.7c0,5.9,4.8,10.7,10.7,10.7s10.7-4.8,10.7-10.7C50.6,68.7,45.8,63.9,39.9,63.9z"/>
</g>
</svg>
