<svg width="110" height="110" xmlns="http://www.w3.org/2000/svg" x="0px" y="0px"
	 viewBox="0 0 110 110" style="enable-background:new 0 0 110 110;" xml:space="preserve">
<style type="text/css">
	.st0{fill:none;}
	.st1{fill:#FFFFFF;}
</style>
<g>
	<g>
		<path class="st0" d="M55,43.9c-12.9,0-23.9,8.5-27.6,20.2h55.1C78.9,52.4,68,43.9,55,43.9z"/>
		<path class="st1" d="M55,40.9c-14.6,0-26.9,9.8-30.7,23.2h3.1C30.4,54.9,37.7,47.8,47,45c1,2.2,3.4,4.8,8,4.8
			c4.9,0,7.5-2.6,8.5-4.7c9.1,2.8,16.2,9.9,19.1,18.9h3.1C81.9,50.7,69.6,40.9,55,40.9z M55,46.9c-2.9,0-4.4-1.4-5-2.5
			c1.7-0.3,3.3-0.5,5.1-0.5c1.9,0,3.7,0.2,5.5,0.5C59.8,45.5,58.2,46.9,55,46.9z"/>
	</g>
	<path d="M95.1,64.1h-9.3h-3.1H27.5h-3.1h-9.4c-0.8,0-1.5,0.7-1.5,1.5v6.1c0,0.8,0.7,1.5,1.5,1.5h4.6v28.5c0,0.8,0.7,1.5,1.5,1.5
		s1.5-0.6,1.5-1.5v-28h4.1v8.7v19.3c0,0.8,0.7,1.5,1.5,1.5s1.5-0.6,1.5-1.5V83.8h52.3v17.8c0,0.8,0.7,1.5,1.5,1.5s1.5-0.6,1.5-1.5
		V82.3v-8.7H89v28c0,0.8,0.7,1.5,1.5,1.5s1.5-0.6,1.5-1.5V73.2h3.1c0.8,0,1.5-0.7,1.5-1.5v-6.1C96.6,64.8,95.9,64.1,95.1,64.1z
		 M29.6,80.8v-7.6h52.3v7.6H29.6z M93.6,70.2h-6.7h-3h-0.4H28.1h-1.8h-3h-6.8v-3.1h7.2h3h56.6h3h7.1V70.2z"/>
	<path d="M54.9,43.1c-1.3,0-2.5-0.1-3.8-0.4c0,0,0,0,0,0c-1.9-0.4-3.7-1.1-5.3-2.1c-5.5-3.2-8.9-9.2-8.9-15.6
		c0-10,8.1-18.1,18.1-18.1S73,15,73,25c0,6.4-3.4,12.4-8.9,15.6c-1.7,1-3.5,1.7-5.3,2.1c0,0,0,0-0.1,0
		C57.4,42.9,56.2,43.1,54.9,43.1z M58.4,41.2L58.4,41.2L58.4,41.2z M51.7,39.7C51.7,39.7,51.7,39.7,51.7,39.7c2.1,0.5,4.3,0.5,6.4,0
		c0,0,0,0,0.1,0c1.6-0.3,3-0.9,4.4-1.7c4.6-2.7,7.5-7.7,7.5-13c0-8.3-6.8-15.1-15.1-15.1S39.9,16.7,39.9,25c0,5.3,2.9,10.3,7.5,13
		C48.7,38.8,50.2,39.4,51.7,39.7z"/>
	<path d="M50.7,22.9c0,1.1-0.9,1.9-1.9,1.9c-1.1,0-1.9-0.9-1.9-1.9c0-1.1,0.9-1.9,1.9-1.9C49.9,21,50.7,21.9,50.7,22.9"/>
	<path d="M62.6,22.9c0,1.1-0.9,1.9-1.9,1.9c-1.1,0-1.9-0.9-1.9-1.9c0-1.1,0.9-1.9,1.9-1.9C61.7,21,62.6,21.9,62.6,22.9"/>
</g>
</svg>
