<svg width="110" height="110" xmlns="http://www.w3.org/2000/svg" x="0px" y="0px"
	 viewBox="0 0 110 110" style="enable-background:new 0 0 110 110;" xml:space="preserve">
<style type="text/css">
	.st0{fill:none;}
</style>
<g>
	<path class="st0" d="M98.8,57.5l-0.2-0.1c-2.7-1.3-4.8-3.6-5.7-6.4l-0.1-0.2l-0.2,0c-3.4-0.7-6.3-3-7.8-6.2
		c-1.4-2.7-1.5-5.9-0.4-8.8l0.2-0.5l-0.5-0.1c-3.2-0.6-5.9-2.6-7.6-5.3l-0.1-0.1l-0.2,0c-2.8-0.8-5.7-1.2-8.6-1.2
		c-17.3,0-31.4,14-31.4,31.3c0,17.3,14,31.4,31.3,31.4c0,0,0,0,0.1,0c17.3,0,31.4-14.1,31.4-31.4c0-0.7,0-1.3-0.1-2L98.8,57.5z
		 M42.7,57.9c-0.6,0.6-1.5,0.6-2,0c-0.6-0.6-0.6-1.5,0-2l0,0c0.6-0.4,1.4-0.4,2,0C43.2,56.4,43.3,57.3,42.7,57.9
		C42.7,57.9,42.7,57.9,42.7,57.9z M50.7,38.2c0.6-0.6,1.5-0.6,2,0c0.6,0.6,0.6,1.5,0,2c-0.6,0.6-1.5,0.6-2,0c0,0,0,0,0,0
		C50.1,39.7,50.1,38.8,50.7,38.2C50.6,38.2,50.6,38.2,50.7,38.2z M52.7,72.9c-1.8,0-3.2-1.4-3.2-3.2c0-1.8,1.4-3.2,3.2-3.2
		c1.8,0,3.2,1.4,3.2,3.2c0,0,0,0,0,0C55.9,71.4,54.4,72.9,52.7,72.9L52.7,72.9z M59.1,83.9c-0.6,0.6-1.5,0.6-2,0s-0.6-1.5,0-2
		c0.6-0.6,1.5-0.6,2,0C59.6,82.4,59.6,83.3,59.1,83.9C59.1,83.9,59.1,83.9,59.1,83.9L59.1,83.9z M68.6,60.8c-0.6,0.6-1.5,0.6-2,0
		c-0.6-0.6-0.6-1.5,0-2c0.6-0.6,1.5-0.6,2,0c0,0,0,0,0,0C69.2,59.3,69.2,60.2,68.6,60.8C68.7,60.8,68.7,60.8,68.6,60.8z M72.4,42.4
		c-1.8,0-3.2-1.4-3.2-3.2c0-1.3,0.7-2.4,1.9-2.9c2-0.9,4.4,0.1,4.5,2.6c0.2,1.8-1.2,3.3-2.9,3.5C72.6,42.4,72.5,42.4,72.4,42.4z
		 M78.1,83.9c-0.6,0.6-1.5,0.6-2,0c-0.6-0.6-0.6-1.5,0-2c0.6-0.6,1.5-0.6,2,0c0,0,0,0,0,0C78.6,82.4,78.7,83.3,78.1,83.9
		C78.1,83.9,78.1,83.9,78.1,83.9L78.1,83.9z M82.6,55.8c-0.6,0.6-1.5,0.6-2,0c-0.6-0.6-0.6-1.5,0-2s1.5-0.6,2,0c0,0,0,0,0,0
		C83.1,54.3,83.2,55.1,82.6,55.8C82.6,55.7,82.6,55.7,82.6,55.8z M86.5,74.3c-1.8,0-3.2-1.4-3.2-3.2c0-1.8,1.4-3.2,3.2-3.2
		c1.8,0,3.2,1.4,3.2,3.2v0C89.7,72.9,88.2,74.3,86.5,74.3z"/>
	<path class="st0" d="M34.2,59.8c0-16.4,11.9-30.4,28.1-32.9l0.9-0.1l-0.7-0.6c-13.2-11.1-32.9-9.4-44,3.8s-9.4,32.9,3.8,44
		c5.3,4.5,12,7.1,19,7.3l0.9,0l-0.6-0.7C36.8,74.7,34.3,67.4,34.2,59.8z M18.6,54.3c-0.6,0.6-1.5,0.6-2,0s-0.6-1.5,0-2
		c0.6-0.6,1.5-0.6,2,0C19.2,52.8,19.2,53.7,18.6,54.3C18.6,54.3,18.6,54.3,18.6,54.3z M28,70.7c-0.6,0.6-1.5,0.6-2,0s-0.6-1.5,0-2
		c0.6-0.6,1.5-0.6,2,0c0,0,0,0,0,0C28.6,69.2,28.6,70.1,28,70.7C28.1,70.7,28,70.7,28,70.7z M28,44.7c-1.5,0.8-3.4,0.3-4.4-1.2
		c-0.9-1.4-0.5-3.2,0.8-4.2c0.1-0.1,0.2-0.1,0.3-0.2c1.5-0.9,3.5-0.4,4.4,1.2S29.6,43.9,28,44.7z M32.8,27c-0.6,0.6-1.5,0.6-2,0
		c-0.6-0.6-0.6-1.5,0-2c0,0,0,0,0,0c0.5-0.6,1.4-0.6,2,0c0,0,0,0,0,0C33.4,25.5,33.4,26.4,32.8,27C32.9,27,32.8,27,32.8,27z"/>
	<path d="M52.7,40.2c0.6-0.6,0.6-1.5,0-2c-0.6-0.6-1.5-0.6-2,0s-0.6,1.5,0,2c0,0,0,0,0,0C51.2,40.8,52.1,40.8,52.7,40.2
		C52.7,40.3,52.7,40.3,52.7,40.2z"/>
	<path d="M66.6,58.8c-0.6,0.6-0.6,1.5,0,2c0.6,0.6,1.5,0.6,2,0c0.6-0.6,0.6-1.5,0-2c0,0,0,0,0,0C68.1,58.2,67.2,58.2,66.6,58.8
		C66.6,58.8,66.6,58.8,66.6,58.8z"/>
	<path d="M40.7,55.9c-0.6,0.6-0.6,1.5,0,2c0.6,0.6,1.5,0.6,2,0s0.6-1.5,0-2C42.1,55.5,41.3,55.5,40.7,55.9z"/>
	<path d="M82.6,53.7c-0.6-0.6-1.5-0.6-2,0c-0.6,0.6-0.6,1.5,0,2s1.5,0.6,2,0c0,0,0,0,0,0C83.1,55.2,83.2,54.3,82.6,53.7
		C82.6,53.8,82.6,53.7,82.6,53.7z"/>
	<circle cx="77.1" cy="82.9" r="1.4"/>
	<path d="M57,81.9c-0.6,0.6-0.6,1.5,0,2c0.6,0.6,1.5,0.6,2,0c0.6-0.6,0.6-1.5,0-2c0,0,0,0,0,0C58.5,81.3,57.6,81.3,57,81.9
		C57.1,81.8,57.1,81.9,57,81.9z"/>
	<path d="M52.7,66.5c-1.8,0-3.2,1.4-3.2,3.2c0,1.8,1.4,3.2,3.2,3.2c1.8,0,3.2-1.4,3.2-3.2c0,0,0,0,0,0
		C55.9,67.9,54.4,66.5,52.7,66.5z"/>
	<path d="M86.5,67.9c-1.8,0-3.2,1.4-3.2,3.2c0,1.8,1.4,3.2,3.2,3.2c1.8,0,3.2-1.4,3.2-3.2c0,0,0,0,0,0C89.7,69.4,88.2,68,86.5,67.9z
		"/>
	<path d="M71.1,36.3c-1.1,0.5-1.9,1.6-1.9,2.9c0,1.8,1.4,3.2,3.2,3.2s3.2-1.4,3.2-3.2c0-0.1,0-0.2,0-0.3
		C75.5,36.5,73.1,35.5,71.1,36.3z"/>
	<path d="M24.8,39.2c-1.5,0.7-2.1,2.5-1.3,4c0.1,0.1,0.1,0.2,0.2,0.3c0.9,1.5,2.8,2,4.4,1.2c1.5-0.9,2-2.8,1.2-4.4
		C28.3,38.9,26.4,38.3,24.8,39.2z"/>
	<path d="M30.8,25c-0.6,0.6-0.6,1.5,0,2.1c0.6,0.6,1.5,0.6,2.1,0c0.6-0.6,0.6-1.5,0-2.1c0,0,0,0,0,0C32.3,24.5,31.4,24.4,30.8,25
		C30.8,25,30.8,25,30.8,25z"/>
	<path d="M26,68.7c-0.6,0.6-0.6,1.5,0,2c0.6,0.6,1.5,0.6,2,0s0.6-1.5,0-2l0,0C27.5,68.1,26.6,68.1,26,68.7C26,68.6,26,68.7,26,68.7z
		"/>
	<path d="M16.6,52.3c-0.6,0.6-0.6,1.5,0,2c0.6,0.6,1.5,0.6,2,0c0.6-0.6,0.6-1.5,0-2c0,0,0,0,0,0C18.1,51.7,17.2,51.7,16.6,52.3
		C16.6,52.3,16.6,52.3,16.6,52.3z"/>
	<path d="M100.3,56c-2.8-1-4.8-3.4-5.5-6.2c-0.1-0.4-0.5-0.7-0.9-0.7c-3.1-0.3-5.9-2.3-7.2-5.2c-1.4-2.8-1.2-6.1,0.4-8.8
		c0.2-0.3,0.2-0.7,0-1c-0.2-0.3-0.6-0.5-1-0.5c-3.5,0-6.6-2-8.2-5c-0.6-1.2-6.8-2-10.9-2c-0.4,0-0.7,0-0.9,0l-0.2,0l-0.1-0.1
		c-6.2-6.2-14.6-9.7-23.4-9.7c-5.9,0-11.7,1.6-16.8,4.5c-7.7,4.4-13.3,11.8-15.5,20.3C7.8,50.2,9,59.3,13.4,67
		c6.1,10.1,17,16.3,28.8,16.4h0c0.5,0,1,0,1.5,0l0.2,0l0.1,0.1c6.2,6.3,14.7,9.8,23.5,9.7c18.4,0,33.4-15,33.4-33.4c0-1,0-2-0.1-3
		C100.8,56.4,100.6,56.1,100.3,56z M41.2,81.3c-17.3-0.6-30.8-15-30.3-32.3s15-30.8,32.3-30.3c7.1,0.2,13.9,2.9,19.3,7.5l0.7,0.6
		l-0.9,0.1c-18.2,2.9-30.6,20-27.7,38.1c0.9,5.7,3.3,11.1,6.9,15.6l0.6,0.7L41.2,81.3z M90.7,80.8C79.1,93.7,59.3,94.6,46.5,83
		c-6.5-5.9-10.3-14.4-10.3-23.2c0.1-17.3,14.1-31.3,31.4-31.4c2.9,0,5.8,0.4,8.6,1.2l0.2,0l0.1,0.1c1.6,2.8,4.4,4.7,7.6,5.3l0.5,0.1
		l-0.2,0.5c-1.1,2.9-1,6.1,0.4,8.8c1.5,3.2,4.4,5.4,7.8,6.2l0.2,0l0.1,0.2c1,2.8,3,5.1,5.7,6.4l0.2,0.1l0,0.2
		C99.3,66.2,96.4,74.6,90.7,80.8L90.7,80.8z"/>
</g>
</svg>
