<svg width="110" height="110" xmlns="http://www.w3.org/2000/svg" x="0px" y="0px"
	 viewBox="0 0 110 110" style="enable-background:new 0 0 110 110;" xml:space="preserve">
<style type="text/css">
	.st0{fill:#FFFFFF;}
</style>
<g id="Calque_2_1_">
	<g id="Pictos">
		<g id="Calque_2-2">
			<g id="Calque_1-2">
				<path class="st0" d="M99.6,62.3H9.4c-1.1,0.1-2,1-1.9,2.2c0.1,1,0.9,1.9,1.9,1.9h39c-6.9,1.1-13.5,3.9-19,8.3
					c-0.9,0.6-1.2,1.9-0.6,2.8c0.6,0.9,1.9,1.2,2.8,0.6c0.1-0.1,0.1-0.1,0.3-0.2c6.4-5,14.4-7.8,22.6-7.9c13.1,0,22.4,8.3,22.4,8.3
					c0.3,0.3,0.8,0.6,1.3,0.6c1.1,0,2-0.9,2.1-2c0-0.6-0.2-1.1-0.7-1.5c-5.5-4.6-12.2-7.6-19.2-8.8h39.1c1.1-0.1,2-1,1.9-2.2
					C101.5,63.2,100.6,62.3,99.6,62.3L99.6,62.3z"/>
				<path d="M101.6,52l-10.3-5.5v-3.4V43v-0.2l-0.1-0.2v-0.1l-5.5-17.8c-0.3-1-1.5-1.7-2.5-1.3c-0.6,0.2-1.2,0.7-1.3,1.3l-5,16.4
					H32.2l-5-16.4c-0.3-1-1.5-1.7-2.5-1.3c-0.6,0.2-1.2,0.7-1.3,1.3l-5.5,17.8v0.1l-0.1,0.2V43v0.1V47l-9.4,5
					c-1,0.6-1.4,1.7-0.8,2.7c0.3,0.7,1,1.1,1.8,1c0.3,0,0.6-0.1,1-0.2l7.4-4v33.1c0,1.1,0.9,2,2,2l0,0h10.8c1.1,0,2-0.9,2-2l0,0
					V45.1h43.6v39.6c0,1.1,0.9,2,2,2l0,0h10.8c1.1,0,2-0.9,2-2l0,0V51.1l8.4,4.5c0.3,0.1,0.6,0.2,1,0.2c1.1,0,2-0.9,2-2
					C102.7,53.1,102.3,52.4,101.6,52L101.6,52z M83.8,32.3l2.7,8.8h-5.4L83.8,32.3z M25.3,32.3l2.7,8.8h-5.4L25.3,32.3z M28.6,82.7
					h-6.8V45.1h6.8V82.7z M87.1,82.7h-6.8V45.1h6.8V82.7z"/>
			</g>
		</g>
	</g>
</g>
</svg>
