<svg width="110" height="110" version="1.1" id="ds44-icons" xmlns="http://www.w3.org/2000/svg" xmlns:xlink="http://www.w3.org/1999/xlink" x="0px" y="0px"
	 viewBox="0 0 110 110" style="enable-background:new 0 0 110 110;" xml:space="preserve">
<style type="text/css">
	.st0{fill:#181716;}
</style>
<g id="Calque_9">
	<polygon class="st0" points="73.1,12.9 66.5,6.4 59.9,12.9 59.9,18.5 64.6,13.9 64.6,30.4 68.4,30.4 68.4,13.9 73.1,18.5 	"/>
	<polygon class="st0" points="44.8,22.9 44.8,6.4 40.9,6.4 40.9,22.9 36.2,18.3 36.2,23.9 42.8,30.4 49.4,23.9 49.4,18.3 	"/>
	<path class="st0" d="M85.2,99.8H26.9v-59c0-1.1-0.9-1.9-1.9-1.9c-1.1,0-1.9,0.9-1.9,1.9v60.4c-0.1,0.1-0.1,0.3-0.1,0.5
		c0,1.1,0.9,1.9,1.9,1.9h60.4c1.1,0,1.9-0.9,1.9-1.9C87.1,100.6,86.3,99.8,85.2,99.8L85.2,99.8L85.2,99.8z"/>
	<ellipse class="st0" cx="45.6" cy="81.6" rx="2.9" ry="2.9"/>
	<circle class="st0" cx="46.5" cy="46.7" r="6.1"/>
	<path class="st0" d="M73.6,83.9h-3.8l-3.3-10.5c-0.4-1.3-1.6-2.1-2.8-2.1h-6.4c-1.2-1.3-2.5-2.4-4-3.3L53,67.6h6.6
		c1.4,0,2.7-0.9,3.1-2.2c0.5-2-1-3.7-2.9-3.7h-8.4L50.2,57c-0.4-1.4-1.6-2.4-3-2.4c-2,0.1-3.3,1.9-2.8,3.8l1.8,6.5
		c0,0.3,0.1,0.7,0.3,1l0.1,0.2h-0.8c-0.7,0-1.3,0-2,0.1l-1.4-5.4c-0.2-0.8-0.9-1.5-1.8-1.5c-1.4-0.1-2.4,1.2-2,2.5l1.4,5.4
		c-5.6,2.3-9.5,7.8-9.5,14.1c0,8.1,6.6,14.9,14.6,15.2c8.7,0.3,15.8-6.6,15.8-15.2c0-1.4-0.2-2.8-0.5-4h1l3.3,10.5
		c0.4,1.3,1.6,2.1,2.8,2.1h6.2c1.9,0,3.4-1.8,2.9-3.7C76.2,84.8,74.9,83.9,73.6,83.9L73.6,83.9L73.6,83.9z M45.7,92.5
		c-6.1,0-11.1-5-11.1-11.1s5-11.1,11.1-11.1s11.1,5,11.1,11.1S51.8,92.5,45.7,92.5z"/>
</g>
</svg>
