<svg width="110" height="110" xmlns="http://www.w3.org/2000/svg" x="0px" y="0px"
	 viewBox="0 0 110 110" style="enable-background:new 0 0 110 110;" xml:space="preserve">
<path d="M59.3,21c0,0.7,0,1.2,0,1.6c0,4.4,0,8.7,0,13.1c0,1.2-0.4,1.7-1.7,1.6c-4.4-0.1-8.7,0-13.1,0c-0.5,0-1,0-1.6,0
	c0,2.2,0,4.2,0,6.3c0,0.5,0.1,0.9-0.1,1.3c-0.1,0.3-0.5,0.7-0.8,0.7s-0.7-0.5-0.7-0.8c-0.1-2.8-0.1-5.6,0-8.4c0-0.4,0.4-0.8,0.7-1.1
	c5.1-5.1,10.1-10.2,15.3-15.2c0.5-0.5,1.3-0.8,1.9-0.8c11.9,0,23.7,0,35.6-0.1c1.2,0,1.6,0.5,1.6,1.6c0,22.9,0,45.7,0,68.6
	c0,1.2-0.4,1.6-1.6,1.6c-17.3,0-34.6,0-52,0c-1.2,0-1.6-0.4-1.6-1.6c0-4.9,0-9.8,0.1-14.7c0-0.5,0.5-1,0.8-1.4
	c0.3,0.5,0.8,1,0.8,1.4c0.1,4.3,0,8.5,0,12.8c0,0.5,0,1.1,0,1.7c0.6,0,1,0.1,1.5,0.1c16.2,0,32.5,0,48.7,0c1.3,0,1.6-0.4,1.6-1.6
	c0-21.7,0-43.4,0-65.1c0-1.2-0.2-1.6-1.6-1.6c-10.8,0.1-21.5,0-32.3,0C60.4,21,60,21,59.3,21z M57.5,22.8C53.3,27,49,31.3,44.7,35.5
	c4.1,0,8.4,0,12.8,0C57.5,31.2,57.5,26.9,57.5,22.8z"/>
<path d="M33.6,69.3c-1.4,1.4-2.8,2.8-4.1,4.2C25.3,77.7,21.2,81.8,17,86c-0.3,0.3-0.5,0.6-0.8,0.7c-0.4,0.2-1,0.2-1.4,0.2
	c0.1-0.5,0-1.1,0.3-1.4c1.6-1.7,3.2-3.2,4.8-4.8c4.2-4.2,8.4-8.3,12.6-12.6c-2.7-3.4-3.7-7.2-2.7-11.4c0.7-3,2.5-5.4,5-7.2
	c5-3.5,12.2-2.7,16.3,1.7c4.3,4.6,4.5,11.8,0.6,16.6C47.9,72.3,40.4,74.5,33.6,69.3z M42,49c-6,0-10.9,4.8-10.9,10.7
	c-0.1,5.9,4.8,10.9,10.8,10.9c6,0.1,10.9-4.9,10.9-10.9C52.8,53.8,47.9,49,42,49z"/>
<path d="M75.5,42.4c-3.6,0-7.2,0-10.8,0c-1.7,0-1.8-0.1-1.8-1.7c0-3.9,0-7.7,0-11.6c0-1.3,0.4-1.7,1.7-1.7c7.3,0,14.6,0,21.9,0
	c1.3,0,1.7,0.5,1.6,1.7c0,3.9,0,7.8,0,11.7c0,1.2-0.5,1.6-1.6,1.6C82.9,42.4,79.2,42.4,75.5,42.4z M86.3,40.6c0-3.9,0-7.6,0-11.4
	c-7.3,0-14.4,0-21.6,0c0,3.8,0,7.6,0,11.4C72,40.6,79.1,40.6,86.3,40.6z"/>
<path d="M69.2,47.3c5.7,0,11.4,0,17,0c0.4,0,0.8-0.1,1.1,0c0.3,0.1,0.7,0.5,0.7,0.7c0,0.3-0.3,0.8-0.6,0.9C87,49.1,86.5,49,86.1,49
	c-11.3,0-22.5,0-33.8,0c-0.3,0-0.6,0.1-0.8,0c-0.4-0.3-0.8-0.6-1.2-0.9c0.4-0.2,0.8-0.7,1.3-0.7c4.5,0,9.1,0,13.6,0
	C66.5,47.3,67.9,47.3,69.2,47.3z"/>
<path d="M71.1,68.4c-5,0-9.9,0-14.9,0c-0.4,0-0.8,0.1-1.1,0s-0.7-0.5-0.7-0.8s0.4-0.7,0.7-0.8c0.3-0.1,0.7-0.1,1.1-0.1
	c10,0,20,0,30,0c0.1,0,0.3,0,0.4,0c0.5,0.3,1.3,0.5,1.4,0.8c0.1,0.9-0.7,0.8-1.4,0.8C81.5,68.4,76.3,68.4,71.1,68.4z"/>
<path d="M71.7,60.2c4.3,0,8.6,0,12.9,0c0.4,0,0.8-0.1,1.1,0.1c0.3,0.1,0.7,0.5,0.7,0.8s-0.4,0.6-0.7,0.8C85.5,62,85.1,62,84.8,62
	c-8.9,0-17.7,0-26.6,0c-0.3,0-0.6,0.1-0.8,0c-0.3-0.2-0.6-0.5-0.9-0.7c0.3-0.3,0.5-0.7,0.8-0.9s0.7-0.1,1.1-0.1
	C62.9,60.2,67.3,60.2,71.7,60.2z"/>
<path d="M64.2,74.9c-4.4,0-8.9,0-13.3,0c-0.6,0-1.5,0.1-1.4-0.8c0-0.3,0.9-0.8,1.3-0.8c8.9-0.1,17.9,0,26.8,0c0.6,0,1.4,0,1.4,0.9
	S78.2,75,77.5,75C73.1,74.9,68.7,74.9,64.2,74.9z"/>
<path d="M69.3,53.8c4.1,0,8.2,0,12.2,0c0.6,0,1.6-0.2,1.5,0.9c0,0.3-1,0.8-1.5,0.8c-8.2,0.1-16.4,0-24.6,0c-0.2,0-0.4,0.1-0.5,0
	c-0.4-0.3-0.7-0.6-1-0.9c0.3-0.3,0.7-0.8,1-0.8c2.4-0.1,4.8,0,7.2,0C65.5,53.8,67.4,53.8,69.3,53.8z"/>
<path d="M81.5,81.4c-1.8,0-3.6,0.1-5.4,0c-0.5,0-0.9-0.5-1.3-0.8c0.4-0.3,0.8-0.8,1.3-0.8c3.6-0.1,7.2-0.1,10.9,0
	c0.4,0,0.8,0.5,1.2,0.8c-0.4,0.3-0.8,0.8-1.2,0.8C85.1,81.5,83.3,81.4,81.5,81.4z"/>
</svg>
