<svg width="110" height="110" version="1.1" id="ds44-icons" xmlns="http://www.w3.org/2000/svg" xmlns:xlink="http://www.w3.org/1999/xlink" x="0px" y="0px"
	 viewBox="0 0 110 110" style="enable-background:new 0 0 110 110;" xml:space="preserve">
<path d="M75.6,26.4c-2.6-0.8-5.3-0.5-7.8,0.7l-3.2-12.7h1.2c1.2,0,2.2-0.9,2.2-2.2v-0.6c0-1.2-0.9-2.2-2.2-2.2H44.1
	c-1.2,0-2.2,0.9-2.2,2.2v0.6c0,1.2,0.9,2.2,2.2,2.2h1.2L42,27.1c-2.6-1.1-5.2-1.4-7.8-0.7c-7.1,2.2-10.4,11.5-7.6,21.1
	c0.8,3,2.2,5.6,3.8,7.8l0,0c-0.6,3.2,0.1,10.1,0.6,13.3c2.1,7.3,5.3,14.1,9.5,20.2l4.3,6.3l-1.8,2.7c-0.5,0.8,0,1.7,0.9,1.7h22.1
	c0.9,0,1.4-0.9,0.9-1.7L65.1,95l4.3-6.3c4.2-6.2,7.4-13.1,9.5-20.5l0,0l0,0c0.4-2.9,0.9-9.9,0.4-13c1.7-2.2,3-4.7,4-7.8
	C86.1,37.8,82.8,28.5,75.6,26.4L75.6,26.4z M73.9,32.4L73.9,32.4c3.6,1,5.2,7.4,3.4,13.4c-0.2,0.5-0.3,0.9-0.5,1.4
	c-1.7-3.9-3.9-7.5-6.3-10.5l-0.9-3.4C71,32.3,72.5,31.9,73.9,32.4L73.9,32.4z M35.8,32.4L35.8,32.4c0.4-0.1,0.8-0.2,1.1-0.2
	c1,0,2.2,0.4,3.2,1.1l-0.9,3.4c-2.5,3-4.7,6.6-6.3,10.5c-0.2-0.5-0.4-0.9-0.5-1.4C30.6,39.7,32.2,33.5,35.8,32.4L35.8,32.4z"/>
</svg>
