<svg width="110" height="110" xmlns="http://www.w3.org/2000/svg" x="0px" y="0px"
	 viewBox="0 0 110 110" style="enable-background:new 0 0 110 110;" xml:space="preserve">
<g>
	<path d="M55,12c-23.7,0-43,19.3-43,43s19.3,43,43,43s43-19.3,43-43S78.7,12,55,12z M55,95.7c-22.4,0-40.7-18.2-40.7-40.7
		S32.6,14.3,55,14.3S95.7,32.5,95.7,55S77.4,95.7,55,95.7z"/>
	<path d="M55,74c-0.7,0-1.2,0.5-1.2,1.2v3.3c0,0.7,0.5,1.2,1.2,1.2s1.2-0.5,1.2-1.2v-3.3C56.2,74.5,55.7,74,55,74z"/>
	<path d="M55.3,27H55c-3.4,0-6.6,1.3-9,3.8s-3.8,5.7-3.8,9.2c0,0.7,0.5,1.2,1.2,1.2c0.7,0,1.2-0.5,1.2-1.2c0-2.8,1.2-5.6,3.1-7.4
		c2-2,4.7-3,7.3-3h0.3c5.6,0.1,10.3,4.8,10.4,10.4c0.1,3.7-1.8,7.1-4.8,9c-4.3,2.8-6.8,7.7-6.8,13.2v4.6c0,0.7,0.5,1.2,1.2,1.2
		c0.7,0,1.2-0.5,1.2-1.2v-4.8c0-4.6,2.3-8.9,5.8-11.2c3.6-2.4,5.8-6.6,5.8-11C67.8,32.9,62.1,27.2,55.3,27z"/>
</g>
</svg>
