<svg width="110" height="110" xmlns="http://www.w3.org/2000/svg" x="0px" y="0px"
	 viewBox="0 0 110 110" style="enable-background:new 0 0 110 110;" xml:space="preserve">
<g id="arrow-up">
	<g>
		<g>
			<path d="M92.7,52.8c0-0.4-0.1-0.8-0.4-1.1L56.1,15.6c-0.3-0.4-0.8-0.5-1.1-0.5c-0.5,0-0.9,0.2-1.1,0.4L17.8,51.7
				c-0.3,0.3-0.4,0.7-0.4,1.1c0,0.4,0.2,0.8,0.5,1.1c0.3,0.3,0.6,0.4,1,0.4c0.3,0,0.8-0.1,1-0.4l33.5-33.5v74.5
				c0,0.8,0.7,1.5,1.5,1.5s1.6-0.7,1.6-1.5V20.5L90.1,54c0.3,0.3,0.6,0.4,1,0.4c0.4,0,0.8-0.2,1.1-0.5
				C92.5,53.6,92.7,53.2,92.7,52.8z"/>
		</g>
	</g>
</g>
</svg>
