<svg width="110" height="110" xmlns="http://www.w3.org/2000/svg" x="0px" y="0px"
	 viewBox="0 0 110 110" style="enable-background:new 0 0 110 110;" xml:space="preserve">
<style type="text/css">
	.st0{fill:none;}
	.st1{fill:none;stroke:#FFFFFF;stroke-width:0;stroke-linecap:round;stroke-linejoin:round;}
</style>
<g>
	<path d="M-64.8,38.9c0,0-1.8-4.7-5.5-4.7s-5.5,4.7-5.5,4.7C-72.2,38-68.4,38-64.8,38.9z"/>
	<path d="M-94.6,73.6c0,0,4,3.8,12.3,3.8s12.3-3.8,12.3-3.8s-5.1,0.5-12.3,0.5C-89.5,74.1-94.6,73.6-94.6,73.6z"/>
	<path d="M-51.4,33c-0.4-0.5-0.8-0.9-1.4-1.2l-1.2-0.6l-0.1-1.3c-0.4-5.1-1.8-10.5-2.4-12.6l0-0.1c-0.2-0.7-1-1.1-1.7-0.9
		c-0.7,0.2-1.1,1-0.9,1.7c0.1,0.3,2.5,8.5,2.5,14.6v1.4h3.2l0.3,2.1c0.2,1.5-0.1,3.7-0.9,6c-1,3.1-0.7,5.6-0.5,7.6l0,0.1
		c0.2,1.4,0.2,2.1,0.1,2.8l-0.1,0.3c-0.7,1.9-2.7,3.2-2.9,3.4l-0.6,0.4l0,0.7l0,0c-0.1,1.1-0.6,9-3.6,17l0,0
		c-1.9,4.9-4.2,8.8-7.1,11.5c-3.5,3.4-7.7,5.1-12.6,5.1c-6.2,0-10.7-0.9-13.8-2c0.2-1,0.5-2.1,0.7-3.4c-0.1-1.8-0.3-3.5-0.7-5.2
		c1-0.2,2-0.6,3-1c0.3-0.1,0.5-0.5,0.4-0.9c-0.1-0.2-0.3-0.3-0.5-0.4c-8.6-1.9-11.2-8.1-11.2-10.3c3.4,2.5,10.1,2.4,12.8,2.3
		c0.7,0,1.2-0.6,1.2-1.2V64c0,0,7.4-2.4,8.3-3.6s-1.7-6.5-6.3-14.5c0.5-7.3-3.2-31.5-3.2-31.5h-42.2v69.3c0,0,19.4,12.8,30.5,12.1
		c2.7-0.2,4.5-1.2,5.7-2.6c0,0,0.3-0.6,0.6-1.6c4.1,1.4,9,2.1,14.6,2.1c7,0,16.5-3.2,22.2-18.3c2.5-6.5,3.3-12.9,3.7-16.2l0.1-1
		l0.7-0.7c0.9-0.8,2.1-2.1,2.7-3.8c0.5-1.4,0.3-2.9,0.1-4.4c-0.2-1.9-0.5-4,0.3-6.5C-50.8,40.9-49.4,35.9-51.4,33z M-112,38.9
		c0,0,1.8-4.7,5.5-4.7s5.5,4.7,5.5,4.7c-1.8-0.4-3.6-0.7-5.5-0.6C-108.4,38.2-110.2,38.5-112,38.9z"/>
</g>
<g>
	<path class="st0" d="M41.7,64.2V50C33,52.7,27,60.8,27,69.9c0,11.5,9.3,20.9,20.8,20.9l0,0c1.9,0,3.8-0.3,5.7-0.8
		c11.1-3.1,17.5-14.7,14.4-25.8H41.7z"/>
	<path d="M90,80.1L90,80.1l-14-21.8c-0.2-0.8-0.7-1.5-1.3-2l-0.1-0.1l0,0c-0.8-0.7-1.9-1.1-3-1.1H54.1v-6.7h16.7
		c1.8,0,3.3-1.5,3.3-3.3c0-1.8-1.5-3.3-3.3-3.3H54.1v-6.2c0-3.4-2.8-6.2-6.2-6.2c-3.4,0-6.2,2.8-6.2,6.2v6.4
		c-13.1,2.9-22.4,14.5-22.4,27.9c0,15.7,12.8,28.5,28.5,28.5c14,0,25.7-10.1,28.1-23.4l6.4,10c1.4,2.1,4.2,2.6,6.3,1.2
		C90.7,84.9,91.3,82.2,90,80.1z M87.4,84.3c-0.4,0.3-0.8,0.4-1.3,0.4c-0.8,0-1.4-0.4-1.9-1l-6.4-9.9l-3.2-4.9l-1,5.8
		c-2.3,12.5-13.1,21.5-25.8,21.5c-14.5,0-26.2-11.8-26.2-26.2c0-12.4,8.5-23,20.6-25.6l1.8-0.4v-1.8v-6.4c0-2.1,1.7-3.9,3.9-3.9
		c2.1,0,3.9,1.8,3.9,3.9v6.2v2.3h2.3h16.7c0.5,0,1,0.4,1,1c0,0.5-0.4,1-1,1H54.1h-2.3v2.3v6.7v2.3h2.3h17.6c0.5,0,1,0.2,1.4,0.5
		l0.1,0.1c0.3,0.3,0.5,0.6,0.6,1l0.1,0.3l0.2,0.3L88,81.2l0,0.1C88.7,82.3,88.4,83.7,87.4,84.3z"/>
	<path d="M69.7,61.9h-1.7H44V50v-3.1l-3,0.9c-9.8,3-16.3,11.9-16.3,22.1c0,6.2,2.4,12,6.8,16.4c4.2,4.2,9.8,6.6,15.8,6.8l0,0l0.5,0
		c2.1,0,4.3-0.3,6.3-0.9c12.3-3.5,19.5-16.3,16-28.6L69.7,61.9z M53.5,90c-1.8,0.5-3.8,0.8-5.7,0.8l0,0C36.3,90.8,27,81.4,27,69.9
		c0-9.1,6-17.2,14.7-19.9v14.2h26.2C71.1,75.3,64.6,86.8,53.5,90z"/>
	<path d="M49.5,25.5c3.8-0.9,6.1-4.7,5.3-8.5c-0.9-3.8-4.7-6.1-8.5-5.3c-3.8,0.9-6.1,4.7-5.3,8.5C41.9,24,45.7,26.4,49.5,25.5z
		 M46.8,14c0.4-0.1,0.7-0.1,1.1-0.1h0h0c2.2,0,4.1,1.5,4.6,3.7c0.3,1.2,0.1,2.5-0.6,3.6s-1.7,1.8-3,2.1c-0.4,0.1-0.7,0.1-1.1,0.1
		c-2.2,0-4.1-1.5-4.6-3.7C42.7,17.1,44.3,14.6,46.8,14z"/>
	<line class="st1" x1="47.9" y1="13.8" x2="47.9" y2="13.8"/>
</g>
</svg>
