<svg width="110" height="110" xmlns="http://www.w3.org/2000/svg" x="0px" y="0px"
	 viewBox="0 0 110 110" style="enable-background:new 0 0 110 110;" xml:space="preserve">
<g>
	<g>
		<path d="M27.1,31.1c4.2,0,7.6,3.4,7.6,7.6c0,4.2-3.4,7.6-7.6,7.6s-7.6-3.4-7.6-7.6C19.5,34.5,22.9,31.1,27.1,31.1 M27.1,43.9
			c2.9,0,5.2-2.3,5.2-5.2c0-2.9-2.3-5.2-5.2-5.2c-2.9,0-5.2,2.3-5.2,5.2C21.9,41.6,24.2,43.9,27.1,43.9"/>
	</g>
	<g>
		<path d="M55.2,42.7c5.3,0,9.3,1.5,11.9,4.3c1.4,1.6,2.4,3.6,2.9,5.9l0.7,3.5l3-1.9c2.5-1.5,5.7-2.3,9.5-2.3l0,0
			c5.3,0,9.3,1.5,11.9,4.3c2.5,2.8,3.1,6.2,3.2,8c0,0,0,0.1,0,0.1v22.5c0,0.7-0.5,1.2-1.2,1.2S96,87.9,96,87.2V64.8v-0.1l0-0.1
			c-0.1-1.5-0.6-4.3-2.6-6.5c-2.1-2.3-5.5-3.5-10.1-3.5h-0.1c-4.6,0-8,1.2-10.2,3.5c-2,2.2-2.6,5-2.8,6.4l0,0.1v0.1V87
			c0,0.7-0.5,1.2-1.2,1.2c-0.7,0-1.2-0.5-1.2-1.2V55.3v-0.1l0-0.1c-0.1-1.5-0.6-4.3-2.6-6.5c-2.1-2.3-5.5-3.5-10.1-3.5h-0.1
			c-4.6,0-8,1.2-10.2,3.5c-2,2.2-2.6,5-2.8,6.4l0,0.1v0.1v31.9c0,0.7-0.5,1.2-1.2,1.2c-0.7,0-1.2-0.5-1.2-1.2V64.8v-0.1l0-0.1
			c-0.1-1.5-0.6-4.3-2.6-6.5c-2.1-2.3-5.5-3.5-10.1-3.5h-0.1c-4.6,0-8,1.2-10.2,3.5c-2,2.2-2.6,5-2.8,6.4l0,0.1v0.1V87
			c0,0.7-0.5,1.2-1.2,1.2c-0.7,0-1.2-0.5-1.2-1.2l0-22.4c0-0.1,0-0.1,0-0.2c0.2-1.8,0.9-5.3,3.4-8c2.7-2.8,6.7-4.3,11.9-4.3l0.1,0
			c3.8,0,6.9,0.8,9.3,2.2l2.9,1.8l0.8-3.3c0.6-2.3,1.6-4.3,3.1-5.9C45.8,44.2,49.8,42.7,55.2,42.7L55.2,42.7"/>
	</g>
	<g>
		<path d="M83.4,31.1c4.2,0,7.6,3.4,7.6,7.6c0,4.2-3.4,7.6-7.6,7.6s-7.6-3.4-7.6-7.6C75.8,34.5,79.2,31.1,83.4,31.1 M83.4,43.9
			c2.9,0,5.2-2.3,5.2-5.2c0-2.9-2.3-5.2-5.2-5.2c-2.9,0-5.2,2.3-5.2,5.2C78.2,41.6,80.5,43.9,83.4,43.9"/>
	</g>
	<g>
		<path d="M55.2,21.6c4.2,0,7.6,3.4,7.6,7.6s-3.4,7.6-7.6,7.6s-7.6-3.4-7.6-7.6S51,21.6,55.2,21.6 M55.2,34.4c2.9,0,5.2-2.3,5.2-5.2
			c0-2.9-2.3-5.2-5.2-5.2S50,26.4,50,29.2C50,32.1,52.4,34.4,55.2,34.4"/>
	</g>
</g>
</svg>
