<svg width="110" height="110" xmlns="http://www.w3.org/2000/svg" x="0px" y="0px"
	 viewBox="0 0 110 110" style="enable-background:new 0 0 110 110;" xml:space="preserve">
<style type="text/css">
	.st0{fill:none;}
	.st1{fill:#FFFFFF;}
</style>
<g>
	<path d="M41.7,68.3c-0.8,0-1.4-0.6-1.4-1.4V55.5c0-4-3.3-7.3-7.3-7.3h-2.4c-4,0-7.3,3.3-7.3,7.3v11.4c0,0.8-0.6,1.4-1.4,1.4
		c-0.8,0-1.4-0.6-1.4-1.4V55.5c0-5.6,4.6-10.2,10.2-10.2H33c5.6,0,10.2,4.6,10.2,10.2v11.4C43.2,67.6,42.5,68.3,41.7,68.3z"/>
	<g>
		<path class="st0" d="M48.4,68c-0.4,0-0.9,0.2-1.1,0.6c-0.1,0.2-0.2,0.5-0.1,0.8h3.6C50.2,68.8,49.3,68,48.4,68z"/>
		<path class="st0" d="M16.6,69.4h27.6c-0.1-0.8,0.1-1.6,0.6-2.3c0.7-1.2,2.1-1.9,3.5-1.9c3.1,0,5.2,3.1,5.5,3.5l0.5,0.8H81V42H16.6
			V69.4z"/>
		<polygon class="st0" points="18.5,17.4 9.8,39.1 15.2,39.1 82.5,39.1 86.6,39.1 79.1,17.4 		"/>
		<path class="st1" d="M90,40.1l-8.5-24.6c-0.2-0.6-0.7-1-1.4-1H17.6c-0.6,0-1.1,0.4-1.3,0.9L6.3,40c-0.2,0.4-0.1,0.9,0.1,1.3
			C6.7,41.8,7.2,42,7.6,42h6.1v28.9c0,0.8,0.6,1.4,1.4,1.4h30.2h3.3h4.1h3.4h26.3c0.8,0,1.4-0.6,1.4-1.4V42h4.7
			c0.5,0,0.9-0.2,1.2-0.6C90.1,41,90.1,40.5,90,40.1z M81,69.4H54.3h-3.5h-3.6h-2.9H16.6V42H81V69.4z M82.5,39.1H15.2H9.8l8.8-21.8
			h60.5l7.5,21.8H82.5z"/>
	</g>
	<path d="M68.3,59.5H54.1c-0.8,0-1.4-0.6-1.4-1.4V47.7c0-0.8,0.6-1.4,1.4-1.4h14.2c0.8,0,1.4,0.6,1.4,1.4V58
		C69.7,58.8,69.1,59.5,68.3,59.5z M55.5,56.6h11.3v-7.5H55.5V56.6z"/>
	<path d="M47.3,68.6c0.2-0.4,0.6-0.6,1.1-0.6c0.9,0,1.8,0.7,2.4,1.4h3.5l-0.5-0.8c-0.2-0.4-2.4-3.5-5.5-3.5c-1.4,0-2.8,0.7-3.5,1.9
		c-0.4,0.7-0.6,1.5-0.6,2.3h2.9C47.1,69.1,47.2,68.8,47.3,68.6z"/>
	<path d="M102.4,65.6H91.9c-0.8,0-1.4,0.6-1.4,1.4v3.8h-6.1c0,0-4,0-7-1.3c-3.2-1.4-8.7-3.1-9.5-3.3c-5.9-2.8-9.6-3.5-11-2
		c-1.6,1.6-1.7,3.1-1.5,4.1c0.6,3,4.8,4.7,5.2,4.9l3.7,1.7c-0.9,0.4-1.9,0.8-2.6,0.8c-0.3,0-0.5,0-0.8,0c-0.7,0-1.5,0-2.6-0.1
		c0-0.1-0.1-0.2-0.1-0.2l-1.9-3h-3.4l1.8,2.7c-1.3-0.2-2.9-0.6-4.9-1.1l-0.9-1.7h-3.3l0.4,0.7c-0.7-0.2-1.4-0.4-2.2-0.6
		c-0.4-0.1-0.9-0.3-1.4-0.4c-2.4-0.8-5.1-1.7-7.2-0.4c-1.1,0.7-1.9,1.8-2.2,3.4c0,0.2,0,0.3,0,0.5c0.6,3.6,2.2,5.8,9.5,8.2
		c4.8,1.6,16.3,5.3,20.8,5.3c1.6,0,4.9,0.2,8.4,0.4c4.4,0.3,8.9,0.6,11.8,0.6c1,0,1.7,0,2.3-0.1c1.8-0.3,3.6-1.3,5-2.4v6.7
		c0,0.8,0.6,1.4,1.4,1.4h10.4c0.8,0,1.4-0.6,1.4-1.4v-27C103.8,66.3,103.2,65.6,102.4,65.6z M85.1,87c-1.9,0.3-8.3-0.2-13.5-0.5
		c-3.7-0.2-6.8-0.5-8.5-0.5c-3.3,0-12.5-2.7-19.9-5.1c-6.6-2.2-7.2-3.9-7.5-5.7c0.2-0.6,0.4-1,0.8-1.2c1-0.6,3.1,0.1,4.9,0.7
		c0.5,0.2,1,0.3,1.5,0.5c12.3,3.5,15.8,3.4,18.2,3.4c0.2,0,0.5,0,0.7,0c2.7,0,6.1-2.4,6.5-2.6c0.4-0.3,0.6-0.8,0.6-1.3
		c0-0.5-0.4-1-0.8-1.2l-6.2-2.9c-1.3-0.5-3.3-1.8-3.5-2.8c0-0.1-0.1-0.6,0.6-1.3c1-0.2,4.6,1,8,2.5c0.1,0,0.1,0.1,0.2,0.1
		c0.1,0,6.1,1.9,9.3,3.3c3.5,1.5,8,1.5,8.1,1.5h6.1v9.8C89.4,84.7,87.1,86.7,85.1,87z M100.9,92.6h-7.6V68.5h7.6V92.6z"/>
</g>
</svg>
