<?xml version="1.0" encoding="utf-8"?>
<!-- Generator: Adobe Illustrator 25.1.0, SVG Export Plug-In . SVG Version: 6.00 Build 0)  -->
<svg version="1.0" id="Calque_1" xmlns="http://www.w3.org/2000/svg" xmlns:xlink="http://www.w3.org/1999/xlink" x="0px" y="0px"
	 viewBox="0 0 150 150" enable-background="new 0 0 150 150" xml:space="preserve">
<g>
	<path fill="#1D1D1B" d="M64.6,72.5c0.4,0.2,0.8,0.2,1.2,0l23.9-15.2c0.3-0.2,0.5-0.6,0.5-1c0-0.4-0.2-0.8-0.5-1L65.8,40.1
		c-0.4-0.2-0.8-0.2-1.2,0c-0.4,0.2-0.6,0.6-0.6,1v30.4C64,71.9,64.2,72.3,64.6,72.5z M66.3,43.3l20.5,13.1L66.3,69.4V43.3z"/>
	<path fill="#1D1D1B" d="M18.4,18.3v117.3h115.1V18.3H18.4z M131.2,133.2H20.8V96.5h110.4V133.2z M131.2,94.2H20.8V20.6h110.4V94.2z
		"/>
	<path fill="#1D1D1B" d="M54.3,116H64v5.3c0,0.6,0.5,1.2,1.2,1.2s1.2-0.5,1.2-1.2V116h53.1c0.6,0,1.2-0.5,1.2-1.2
		c0-0.6-0.5-1.2-1.2-1.2H66.3v-5.3c0-0.6-0.5-1.2-1.2-1.2s-1.2,0.5-1.2,1.2v5.3h-9.7c-0.6,0-1.2,0.5-1.2,1.2
		C53.1,115.5,53.7,116,54.3,116z"/>
	<path fill="#1D1D1B" d="M32.6,122.5c0.6,0,1.2-0.5,1.2-1.2v-13c0-0.6-0.5-1.2-1.2-1.2s-1.2,0.5-1.2,1.2v13
		C31.4,122,32,122.5,32.6,122.5z"/>
	<path fill="#1D1D1B" d="M41.3,122.5c0.6,0,1.2-0.5,1.2-1.2v-13c0-0.6-0.5-1.2-1.2-1.2s-1.2,0.5-1.2,1.2v13
		C40.1,122,40.6,122.5,41.3,122.5z"/>
</g>
</svg>
