<svg width="110" height="110" xmlns="http://www.w3.org/2000/svg" x="0px" y="0px"
	 viewBox="0 0 110 110" style="enable-background:new 0 0 110 110;" xml:space="preserve">
<g>
	<path d="M55.1,47.3c0,0.2,0,0.4,0,0.5c0,4.3-3.5,7.8-7.8,7.8c-0.1,0-0.1,0-0.1,0c0.3,4,3.6,7.2,7.7,7.2c4.3,0,7.8-3.5,7.8-7.8
		C62.7,50.8,59.3,47.3,55.1,47.3z"/>
	<g>
		<path d="M33.7,55c0,11.5,9.4,20.9,20.9,20.9c11.5,0,20.9-9.4,20.9-20.9c0-11.5-9.4-20.9-20.9-20.9C43,34.1,33.7,43.5,33.7,55z
			 M72.9,55c0,10.1-8.2,18.4-18.4,18.4S36.2,65.1,36.2,55s8.2-18.4,18.4-18.4S72.9,44.9,72.9,55z"/>
		<path d="M98.4,14.1c-0.5-0.5-1.3-0.5-1.8,0L75.5,35.2C68.4,31.1,61.3,29,54.6,29c-9.7,0-20.2,4.4-30.2,12.7
			C16.8,47.9,12.1,54,11.9,54.3c-0.3,0.4-0.3,1.1,0,1.5c0.2,0.3,4.8,6.4,12.4,12.6c3.5,2.9,7.1,5.3,10.7,7.2l-21,21
			c-0.5,0.5-0.5,1.3,0,1.8c0.2,0.2,0.6,0.4,0.9,0.4s0.6-0.1,0.9-0.4l21.5-21.5c5.9,2.8,11.7,4.3,17.2,4.3c9.7,0,20.2-4.4,30.2-12.7
			c7.6-6.2,12.2-12.4,12.4-12.6c0.3-0.4,0.3-1.1,0-1.5C97,54,92.4,47.9,84.8,41.7c-2.4-1.9-4.7-3.7-7.1-5.2l20.7-20.7
			C98.8,15.4,98.8,14.6,98.4,14.1z M94.6,55.1c-3.3,4.1-20.2,23.6-40,23.6s-36.7-19.5-40-23.6c3.3-4.1,20.2-23.6,40-23.6
			S91.3,51,94.6,55.1z"/>
	</g>
</g>
</svg>
