<svg width="110" height="110" version="1.1" id="ds44-icons" xmlns="http://www.w3.org/2000/svg" xmlns:xlink="http://www.w3.org/1999/xlink" x="0px" y="0px"
	 viewBox="0 0 110 110" style="enable-background:new 0 0 110 110;" xml:space="preserve">
<g>
	<path d="M30.1,84.4c4,0,7.3-3.3,7.3-7.3c0-4-3.3-7.3-7.3-7.3s-7.3,3.3-7.3,7.3S26.1,84.4,30.1,84.4z"/>
	<path d="M64.2,31.2c0-4.1-3.3-7.4-7.4-7.4h-3.6c-4.1,0-7.4,3.3-7.4,7.4v1h18.4L64.2,31.2L64.2,31.2z"/>
	<path d="M55,23.6c3.6,0,6.5-2.9,6.5-6.5s-2.9-6.5-6.5-6.5s-6.5,2.9-6.5,6.5S51.4,23.6,55,23.6z"/>
	<path d="M62.2,77.2c0-4-3.3-7.3-7.3-7.3s-7.3,3.3-7.3,7.3s3.3,7.3,7.3,7.3S62.2,81.2,62.2,77.2L62.2,77.2z"/>
	<path d="M78,34.4H32c-1.5,0-2.7,0.7-2.7,1.5v1.4c0,0.8,1.2,1.5,2.7,1.5H78c1.5,0,2.7-0.7,2.7-1.5v-1.4C80.7,35,79.5,34.4,78,34.4
		L78,34.4z"/>
	<path d="M31.5,40.9v18.3c0,0.8,1.2,1.5,2.7,1.5h41.5c1.5,0,2.7-0.7,2.7-1.5V40.9L31.5,40.9L31.5,40.9z"/>
	<path d="M93.2,94.9h-2.9v-2.2c0-4.1-3.3-7.4-7.4-7.4h-6c-4.1,0-7.4,3.3-7.4,7.4v2.2H67l0,0h-1.7v-2.2c0-4.1-3.3-7.4-7.4-7.4h-6
		c-4.1,0-7.4,3.3-7.4,7.4v2.2h-4v-2.2c0-4.1-3.3-7.4-7.4-7.4h-6c-4.1,0-7.4,3.3-7.4,7.4v2.2h-2.9c-1.2,0-2.2,1-2.2,2.2
		c0,1.2,1,2.2,2.2,2.2h51.4l0,0h25c1.2,0,2.2-1,2.2-2.2C95.4,95.9,94.4,95,93.2,94.9L93.2,94.9z"/>
	<path d="M87.1,77.2c0-4-3.3-7.3-7.3-7.3c-4,0-7.3,3.3-7.3,7.3s3.3,7.3,7.3,7.3C83.9,84.4,87.1,81.2,87.1,77.2z"/>
</g>
</svg>
