<?xml version="1.0" encoding="utf-8"?>
<!-- Generator: Adobe Illustrator 25.1.0, SVG Export Plug-In . SVG Version: 6.00 Build 0)  -->
<svg version="1.0" id="Calque_1" xmlns="http://www.w3.org/2000/svg" xmlns:xlink="http://www.w3.org/1999/xlink" x="0px" y="0px"
	 viewBox="0 0 150 150" enable-background="new 0 0 150 150" xml:space="preserve">
<g>
	<path fill="#1D1D1B" d="M133.7,69.6h-8.5V55.2c0-2.7-2.2-4.8-4.8-4.8h-8v-5.7l-0.5-0.5h-0.6l0-0.6L79.7,11.9H29v23.5H16.8
		c-2.7,0-4.8,2.2-4.8,4.8v92.3h0l0,1c0,1,0.3,2,0.9,2.7c0.9,1.1,2.1,1.8,3.6,1.8H112c2,0,3.8-1.3,4.3-3.1l21.8-59.8v-0.2
		C138.1,71.8,136.2,69.6,133.7,69.6z M112.4,52.6h8c1.4,0,2.6,1.1,2.6,2.6v14.4h-10.5V52.6z M80.4,15.8L108.6,44H80.4V15.8z
		 M31.3,14.2h46.8v32h32v23.4h-72c-0.2,0-0.5,0-0.7,0.1c-1.7,0.3-3.1,1.5-3.5,3.1l-2.6,7.1V14.2z M14.2,40.3c0-1.4,1.1-2.6,2.6-2.6
		H29v48.2l-14.8,40.4V40.3z M135.7,75l-21.6,59.2c-0.3,0.9-1.1,1.6-2.1,1.6H16.4c-0.7,0-1.3-0.3-1.8-0.9c-0.1-0.2-0.6-0.9-0.4-1.7
		l0-0.1L29,92.6v0l7-19.2c0.2-0.9,1.1-1.6,2.1-1.6h95.6c0.4,0,1.8,0.2,2.1,2.7l0,0.2L135.7,75z"/>
	<path fill="#1D1D1B" d="M45.1,46.2h21.4c0.6,0,1.1-0.5,1.1-1.1S67.1,44,66.5,44H45.1c-0.6,0-1.1,0.5-1.1,1.1S44.5,46.2,45.1,46.2z"
		/>
	<path fill="#1D1D1B" d="M45.1,31.3h21.4c0.6,0,1.1-0.5,1.1-1.1S67.1,29,66.5,29H45.1c-0.6,0-1.1,0.5-1.1,1.1S44.5,31.3,45.1,31.3z"
		/>
	<path fill="#1D1D1B" d="M45.1,61.2h51.2c0.6,0,1.1-0.5,1.1-1.1c0-0.6-0.5-1.1-1.1-1.1H45.1c-0.6,0-1.1,0.5-1.1,1.1
		C44,60.7,44.5,61.2,45.1,61.2z"/>
</g>
</svg>
