<?xml version="1.0" encoding="utf-8"?>
<!-- Generator: Adobe Illustrator 28.3.0, SVG Export Plug-In . SVG Version: 6.00 Build 0)  -->
<svg version="1.1" id="ds44-icons" xmlns="http://www.w3.org/2000/svg" xmlns:xlink="http://www.w3.org/1999/xlink" x="0px" y="0px"
	 viewBox="0 0 110 110" style="enable-background:new 0 0 110 110;" xml:space="preserve">
<path d="M55.2,71.3c-4.4,0-8,3.6-8,8s3.6,8,8,8s8-3.6,8-8S59.7,71.3,55.2,71.3z M98.2,43.2c-10.7-12.8-26.4-20.1-43-20.1
	s-32.3,7.3-43,20.1c-1.4,1.7-1.2,4.2,0.5,5.7c0.8,0.6,1.7,0.9,2.6,0.9c1.1,0,2.3-0.5,3.1-1.4c9.2-11,22.6-17.2,36.9-17.2
	s27.7,6.3,36.9,17.2c0.8,0.9,1.9,1.4,3.1,1.4c0.9,0,1.8-0.3,2.6-0.9C99.5,47.4,99.7,44.9,98.2,43.2L98.2,43.2z M55.2,39.2
	c-11.9,0-23.1,5.2-30.7,14.4c-1.4,1.7-1.2,4.2,0.5,5.7c0.8,0.6,1.7,0.9,2.6,0.9c1.1,0,2.3-0.5,3.1-1.4c6.1-7.3,15.1-11.5,24.6-11.5
	s18.4,4.2,24.6,11.5c0.8,0.9,1.9,1.4,3.1,1.4c0.9,0,1.8-0.3,2.6-0.9c1.7-1.4,1.9-4,0.5-5.7C78.3,44.4,67.1,39.2,55.2,39.2L55.2,39.2
	z M55.2,55.2c-7.1,0-13.8,3.1-18.4,8.6c-1.4,1.7-1.2,4.2,0.5,5.7c0.8,0.6,1.7,0.9,2.6,0.9c1.1,0,2.3-0.5,3.1-1.4
	c3.1-3.7,7.6-5.7,12.3-5.7s9.2,2.1,12.3,5.7c0.8,0.9,1.9,1.4,3.1,1.4c0.9,0,1.8-0.3,2.6-0.9c1.7-1.4,1.9-4,0.5-5.7
	C69.1,58.4,62.3,55.2,55.2,55.2L55.2,55.2z"/>
</svg>
