<svg width="110" height="110" xmlns="http://www.w3.org/2000/svg" x="0px" y="0px"
	 viewBox="0 0 110 110" style="enable-background:new 0 0 110 110;" xml:space="preserve">
<style type="text/css">
	.st0{fill:#99E6D1;}
</style>
<path d="M57.5,17.6c0,0.8,0,1.3,0,1.8c0,4.8,0,9.6,0,14.4c0,1.3-0.4,1.9-1.9,1.8c-4.8-0.1-9.6,0-14.4,0c-0.6,0-1.1,0-1.8,0
	c0,2.4,0,4.6,0,6.9c0,0.6,0.1,1-0.1,1.4c-0.1,0.3-0.6,0.8-0.9,0.8s-0.8-0.6-0.8-0.9c-0.1-3.1-0.1-6.2,0-9.2c0-0.4,0.4-0.9,0.8-1.2
	c5.6-5.6,11.1-11.2,16.8-16.7c0.6-0.6,1.4-0.9,2.1-0.9c13.1,0,26.1,0,39.2-0.1c1.3,0,1.8,0.6,1.8,1.8c0,25.2,0,50.3,0,75.5
	c0,1.3-0.4,1.8-1.8,1.8c-19,0-38.1,0-57.2,0c-1.3,0-1.8-0.4-1.8-1.8c0-5.4,0-10.8,0.1-16.2c0-0.6,0.6-1.1,0.9-1.5
	c0.3,0.6,0.9,1.1,0.9,1.5c0.1,4.7,0,9.4,0,14.1c0,0.6,0,1.2,0,1.9c0.7,0,1.1,0.1,1.7,0.1c17.8,0,35.8,0,53.6,0
	c1.4,0,1.8-0.4,1.8-1.8c0-23.9,0-47.7,0-71.6c0-1.3-0.2-1.8-1.8-1.8c-11.9,0.1-23.7,0-35.5,0C58.7,17.6,58.2,17.6,57.5,17.6z
	 M55.5,19.6c-4.6,4.6-9.4,9.4-14.1,14c4.5,0,9.2,0,14.1,0C55.5,28.8,55.5,24.1,55.5,19.6z"/>
<path class="st0" d="M29.2,70.7c-1.5,1.5-3.1,3.1-4.5,4.6c-4.6,4.6-9.1,9.1-13.8,13.8c-0.3,0.3-0.6,0.7-0.9,0.8
	c-0.4,0.2-1.1,0.2-1.5,0.2c0.1-0.6,0-1.2,0.3-1.5c1.8-1.9,3.5-3.5,5.3-5.3c4.6-4.6,9.2-9.1,13.9-13.9c-3-3.7-4.1-7.9-3-12.5
	c0.8-3.3,2.8-5.9,5.5-7.9c5.5-3.9,13.4-3,17.9,1.9c4.7,5.1,5,13,0.7,18.3C44.9,74,36.7,76.4,29.2,70.7z M38.4,48.4
	c-6.6,0-12,5.3-12,11.8c-0.1,6.5,5.3,12,11.9,12c6.6,0.1,12-5.4,12-12C50.3,53.7,44.9,48.4,38.4,48.4z"/>
<path d="M75.3,41.1c-4,0-7.9,0-11.9,0c-1.9,0-2-0.1-2-1.9c0-4.3,0-8.5,0-12.8c0-1.4,0.4-1.9,1.9-1.9c8,0,16.1,0,24.1,0
	c1.4,0,1.9,0.6,1.8,1.9c0,4.3,0,8.6,0,12.9c0,1.3-0.6,1.8-1.8,1.8C83.4,41.1,79.4,41.1,75.3,41.1z M87.2,39.1c0-4.3,0-8.4,0-12.5
	c-8,0-15.8,0-23.8,0c0,4.2,0,8.4,0,12.5C71.4,39.1,79.3,39.1,87.2,39.1z"/>
<path d="M68.4,46.5c6.3,0,12.5,0,18.7,0c0.4,0,0.9-0.1,1.2,0s0.8,0.6,0.8,0.8c0,0.3-0.3,0.9-0.7,1c-0.4,0.2-1,0.1-1.4,0.1
	c-12.4,0-24.8,0-37.2,0c-0.3,0-0.7,0.1-0.9,0c-0.4-0.3-0.9-0.7-1.3-1c0.4-0.2,0.9-0.8,1.4-0.8c5,0,10,0,15,0
	C65.4,46.5,66.9,46.5,68.4,46.5z"/>
<path d="M70.5,69.7c-5.5,0-10.9,0-16.4,0c-0.4,0-0.9,0.1-1.2,0s-0.8-0.6-0.8-0.9s0.4-0.8,0.8-0.9c0.3-0.1,0.8-0.1,1.2-0.1
	c11,0,22,0,33,0c0.1,0,0.3,0,0.4,0c0.6,0.3,1.4,0.6,1.5,0.9c0.1,1-0.8,0.9-1.5,0.9C81.9,69.7,76.2,69.7,70.5,69.7z"/>
<path d="M71.1,60.7c4.7,0,9.5,0,14.2,0c0.4,0,0.9-0.1,1.2,0.1c0.3,0.1,0.8,0.6,0.8,0.9c0,0.3-0.4,0.7-0.8,0.9
	c-0.2,0.1-0.7,0.1-1,0.1c-9.8,0-19.5,0-29.3,0c-0.3,0-0.7,0.1-0.9,0c-0.3-0.2-0.7-0.6-1-0.8c0.3-0.3,0.6-0.8,0.9-1
	c0.3-0.2,0.8-0.1,1.2-0.1C61.4,60.7,66.3,60.7,71.1,60.7z"/>
<path d="M62.9,76.9c-4.8,0-9.8,0-14.6,0c-0.7,0-1.7,0.1-1.5-0.9c0-0.3,1-0.9,1.4-0.9c9.8-0.1,19.7,0,29.5,0c0.7,0,1.5,0,1.5,1
	S78.3,77,77.5,77C72.7,76.9,67.8,76.9,62.9,76.9z"/>
<path d="M68.5,53.7c4.5,0,9,0,13.4,0c0.7,0,1.8-0.2,1.7,1c0,0.3-1.1,0.9-1.7,0.9c-9,0.1-18,0-27.1,0c-0.2,0-0.4,0.1-0.6,0
	c-0.4-0.3-0.8-0.7-1.1-1c0.3-0.3,0.8-0.9,1.1-0.9c2.6-0.1,5.3,0,7.9,0C64.3,53.7,66.4,53.7,68.5,53.7z"/>
<path d="M81.9,84c-2,0-4,0.1-5.9,0c-0.6,0-1-0.6-1.4-0.9c0.4-0.3,0.9-0.9,1.4-0.9c4-0.1,7.9-0.1,12,0c0.4,0,0.9,0.6,1.3,0.9
	c-0.5,0.4-0.9,0.9-1.4,0.9C85.9,84.1,83.9,84,81.9,84z"/>
</svg>
