<svg width="110" height="110" xmlns="http://www.w3.org/2000/svg" x="0px" y="0px"
	 viewBox="0 0 110 110" style="enable-background:new 0 0 110 110;" xml:space="preserve">
<g>
	<g>
		<path d="M56.4,58.8c12.2,0,21.5,3.4,27.6,10.1c8.7,9.6,7.6,22.7,7.6,22.8C91.6,92.5,91,93,90.2,93H21.8c-0.7,0-1.3-0.6-1.4-1.3
			c0-0.5-0.8-13.4,8.2-22.9c6.2-6.6,15.5-10,27.6-10H56.4 M89.1,90.2l-0.3-3.3c-0.5-4.5-2-10.9-6.8-16.2c-5.6-6.1-14.1-9.1-25.5-9.2
			h-0.1c-11.3,0-19.9,3-25.5,9.1c-5,5.3-6.7,11.7-7.3,16.2L23,90.2l3.4,0l59.3,0L89.1,90.2"/>
	</g>
	<g>
		<path d="M56.6,16.2c9.1,0,16.5,7.4,16.5,16.5c0,9.1-7.4,16.5-16.5,16.5c-9.1,0-16.5-7.4-16.5-16.5C40.1,23.6,47.5,16.2,56.6,16.2
			L56.6,16.2 M56.6,46.3L56.6,46.3c3.7,0,7.1-1.4,9.7-4c2.6-2.6,4-6,4-9.7c0-7.5-6.1-13.7-13.7-13.7c-7.5,0-13.7,6.1-13.7,13.7
			C42.9,40.2,49,46.3,56.6,46.3"/>
	</g>
</g>
</svg>
