<svg xmlns="http://www.w3.org/2000/svg" width="110" height="110" viewBox="0 0 110 110"><g transform="translate(-3801 -2572)"><rect width="110" height="110" transform="translate(3801 2572)" fill="#fff" opacity="0"/><g transform="translate(3820 2586)"><g transform="translate(0 0)"><path d="M95.03,47.392H81.4a1.187,1.187,0,1,0,0,2.373H95.03a1.187,1.187,0,0,0,0-2.373Z" transform="translate(-71.887 -39.894)"/><path d="M95.03,82H81.4a1.187,1.187,0,0,0,0,2.373H95.03a1.187,1.187,0,0,0,0-2.373Z" transform="translate(-71.887 -69.027)"/><path d="M184.942,203.6,159.8,180.3q1.72-1.906,3.237-3.844a5,5,0,0,0,6.411-7.614L158.972,158.3a5,5,0,0,0-8.075,5.632,76.922,76.922,0,0,0-13.536,13.443,5,5,0,0,0-5.689,8.039l10.471,10.543A5,5,0,0,0,149.8,189.6q1.949-1.5,3.875-3.218l23.128,25.3a4.1,4.1,0,0,0,5.911.143l2.327-2.312A4.094,4.094,0,0,0,184.942,203.6Zm-31.365-43.643a2.627,2.627,0,0,1,3.711.013l10.471,10.543a2.624,2.624,0,1,1-3.724,3.7l-10.471-10.543A2.627,2.627,0,0,1,153.578,159.962Zm-1.231,5.852,8.95,9.011a74.5,74.5,0,0,1-13.117,13.028l-8.95-9.011A74.547,74.547,0,0,1,152.347,165.814ZM147.539,194.3a2.624,2.624,0,0,1-3.711-.013l-10.471-10.543a2.624,2.624,0,0,1,3.724-3.7l10.472,10.543A2.627,2.627,0,0,1,147.539,194.3Zm35.833,13.534-2.327,2.312a1.722,1.722,0,0,1-2.487-.06l-23.133-25.31c.466-.441.93-.887,1.391-1.345s.916-.925,1.363-1.39l25.151,23.306A1.723,1.723,0,0,1,183.372,207.833Z" transform="translate(-113.983 -132.017)" fill="#fff"/><path d="M84.409,78.574a4.16,4.16,0,0,1-.674.055H34.057a4.1,4.1,0,0,1-4.1-4.1V6.47a4.1,4.1,0,0,1,4.1-4.1H72.725a2.842,2.842,0,0,1,.471.042v8.123a6.478,6.478,0,0,0,6.47,6.47h8.123a2.844,2.844,0,0,1,.042.471V58.886a1.187,1.187,0,1,0,2.373,0V17.48a5.156,5.156,0,0,0-1.52-3.669L76.394,1.52A5.154,5.154,0,0,0,72.725,0H34.057a6.478,6.478,0,0,0-6.47,6.47V74.531A6.478,6.478,0,0,0,34.057,81H83.734a6.529,6.529,0,0,0,1.061-.087,1.186,1.186,0,1,0-.387-2.341Zm1.745-63.939H79.667a4.1,4.1,0,0,1-4.1-4.1V4.051Z" transform="translate(-27.587 0)"/></g></g></g></svg>