<svg width="110" height="110" version="1.1" id="ds44-icons" xmlns="http://www.w3.org/2000/svg" xmlns:xlink="http://www.w3.org/1999/xlink" x="0px" y="0px"
	 viewBox="0 0 110 110" style="enable-background:new 0 0 110 110;" xml:space="preserve">
<g>
	<path id="Tracé_752" d="M79.2,10.6H30.7c-11.1,0-20.1,9-20.2,20.2v32.3c0,9.6,6.8,17.9,16.1,19.8v12.5c0,1.5,0.8,2.9,2.1,3.6
		c1.3,0.7,2.9,0.6,4.1-0.2l23.2-15.5h23c11.1,0,20.2-9.1,20.2-20.2V30.8C99.4,19.6,90.4,10.6,79.2,10.6z M91.3,63.1
		c0,6.7-5.4,12.1-12.1,12.1H55c-0.1,0-0.2,0-0.3,0.1c-0.3,0-0.6,0.1-0.8,0.2c-0.3,0.1-0.5,0.2-0.8,0.3c-0.1,0-0.2,0.1-0.3,0.1
		l-18,12v-8.6c0-2.2-1.8-4-4-4l0,0c-6.7,0-12.1-5.4-12.1-12.1V30.8c0-6.7,5.4-12.1,12.1-12.1h48.5c6.7,0,12.1,5.4,12.1,12.1
		L91.3,63.1z"/>
	<path id="Tracé_753" d="M55,22.7c-6.7,0-12.1,5.4-12.1,12.1c0,2.2,1.8,4,4,4s4-1.8,4-4l0,0c0-2.2,1.8-4,4-4c2.2,0,4,1.8,4,4
		c0,1.3-0.6,2.5-1.6,3.2c-3.9,2.7-6.3,7.1-6.4,11.8v1.1c0,2.2,1.8,4,4,4s4-1.8,4-4l0,0v-1.1c0.1-2.2,1.3-4.1,3.1-5.3
		c5.4-3.9,6.6-11.5,2.6-16.9C62.5,24.5,58.8,22.7,55,22.7z"/>
	<circle id="Ellipse_35" cx="55" cy="63.1" r="4"/>
</g>
</svg>
