<?xml version="1.0" encoding="utf-8"?>
<!-- Generator: Adobe Illustrator 25.1.0, SVG Export Plug-In . SVG Version: 6.00 Build 0)  -->
<svg version="1.0" id="Calque_1" xmlns="http://www.w3.org/2000/svg" xmlns:xlink="http://www.w3.org/1999/xlink" x="0px" y="0px"
	 viewBox="0 0 170.1 170.1" enable-background="new 0 0 170.1 170.1" xml:space="preserve">
<g id="Calque_2_1_">
	<g id="Pictos">
		<g id="Calque_2-2">
			<g id="Calque_1-2">
				<path d="M70.4,31.1c-1.6-0.4-3.2,0.6-3.6,2.2L43.5,135.1c-0.4,1.6,0.6,3.2,2.2,3.6c0,0,0,0,0,0c0.2,0,0.4,0.1,0.7,0.1
					c1.4,0,2.6-1,2.9-2.3L72.7,34.7C73.1,33.1,72,31.5,70.4,31.1z"/>
				<path d="M126.6,135.1L103.8,33.4c-0.4-1.6-2-2.6-3.6-2.3s-2.6,2-2.3,3.6l22.8,101.8c0.3,1.4,1.5,2.3,2.9,2.3
					c0.2,0,0.4,0,0.7-0.1C125.9,138.4,126.9,136.8,126.6,135.1C126.6,135.1,126.6,135.1,126.6,135.1z"/>
				<path fill="#FFFFFF" d="M86.1,31c-1.7,0-3,1.3-3,3v5c0,1.7,1.3,3,3,3s3-1.3,3-3v-5C89.1,32.4,87.8,31,86.1,31z"/>
				<path fill="#FFFFFF" d="M86.1,103.4c-1.7,0-3,1.3-3,3v6.2c0,1.7,1.3,3,3,3s3-1.3,3-3v-6.2C89.1,104.8,87.8,103.4,86.1,103.4z"/>
				<path fill="#FFFFFF" d="M86.1,54c-1.7,0-3,1.3-3,3v6.2c0,1.7,1.3,3,3,3s3-1.3,3-3V57C89.1,55.4,87.8,54,86.1,54z"/>
				<path fill="#FFFFFF" d="M86.1,78.7c-1.7,0-3,1.3-3,3v6.2c0,1.7,1.3,3,3,3s3-1.3,3-3v-6.2C89.1,80.1,87.8,78.7,86.1,78.7z"/>
				<path fill="#FFFFFF" d="M86.1,128c-1.7,0-3,1.3-3,3v5c0,1.7,1.3,3,3,3s3-1.3,3-3v-5C89.1,129.4,87.8,128,86.1,128z"/>
			</g>
		</g>
	</g>
</g>
</svg>
