<svg width="110" height="110" xmlns="http://www.w3.org/2000/svg" x="0px" y="0px"
	 viewBox="0 0 110 110" style="enable-background:new 0 0 110 110;" xml:space="preserve">
<style type="text/css">
	.st0{fill:#FFFFFF;}
</style>
<g>
	<g>
		<path class="st0" d="M46.1,21.1c0.3-0.7-0.4-2.1,0.8-2c1,0,0.6,1.2,0.6,2c0.1,1,0.1,2.1,0.2,3.1c0,0.8,0.1,1.8-1.2,1
			c-0.3-0.2-0.4,0-0.6,0.1c-1.1,0.7-2.1,0.4-2.7-0.6c-0.7-1-0.7-2.1,0-3.1C44,20.5,45.1,20.4,46.1,21.1z M45.2,21.8
			c-0.6,0.1-1,0.6-1,1.3c0,0.7,0.3,1.2,1,1.3c0.8,0,1.2-0.6,1.1-1.3C46.3,22.4,46,21.8,45.2,21.8z"/>
		<path class="st0" d="M33.2,28.1c-1.4,0-2.4-0.9-2.4-2.4c-0.1-1.5,0.8-2.5,2.3-2.4c1.1,0,2,0.5,2,1.7
			C35.2,27.4,34.7,28.1,33.2,28.1z M34,25.9c-0.5,0.2-1.1,0.2-1.5,0.8c0.8,0.7,1.4,0.2,1.9-0.4c0.1-0.1,0.4-0.3,0.2-0.5
			C34.5,25.8,34.2,25.9,34,25.9z M33.6,24.9c-0.2-0.4-0.5-0.5-0.8-0.5c-0.5,0.1-0.8,0.4-0.8,0.9c0,0.3,0.2,0.4,0.4,0.3
			C32.9,25.4,33.4,25.4,33.6,24.9z"/>
		<path class="st0" d="M61.9,25.6c-0.2-1-2-0.6-1.3-1.6c0.6-0.8,1.6-0.1,2.3,0.5c1,0.8,0.6,4.4-0.6,4.5c-1,0.1-2.1-0.4-3-1.2
			c-0.5-0.4-0.6-1-0.3-1.6c0.6-1,1.5-0.8,2.3-0.6C61.5,25.7,61.7,25.6,61.9,25.6z M60.9,26.4c-0.4,0-0.7,0.2-0.7,0.6
			c0.1,0.5,0.5,0.6,1,0.6c0.3,0,0.7-0.2,0.6-0.6C61.8,26.6,61.3,26.5,60.9,26.4z"/>
		<path class="st0" d="M37.5,21.9c0.3,0.3,0.4,0.2,0.6,0c0.7-0.7,1.7-0.9,2.3-0.2c0.8,1,0.8,2.3,1,3.6c0,0.3-0.3,0.5-0.6,0.5
			c-0.3,0-0.5-0.1-0.6-0.4c-0.2-0.6-0.3-1.2-0.5-1.7c-0.1-0.5-0.3-1-1-0.9c-0.6,0.1-0.6,0.7-0.5,1.2c0.1,0.5,0.3,1.1,0.4,1.6
			c0.1,0.4,0,0.8-0.5,0.9c-0.4,0.1-0.8-0.1-0.9-0.6c-0.2-1.1-0.5-2.1-0.7-3.2C36.5,22.1,36.8,21.6,37.5,21.9z"/>
		<path class="st0" d="M55.4,25.3c1-1-0.3-2.8,1.2-3.9c0.7-0.5,1.1-0.6,1.2,0.3c0.1,0.4,0.1,0.6,0.5,0.9c0.6,0.4,0.5,1-0.3,1.1
			c-1.4,0.2-1.1,1.3-1,2.1c0,0.3,0.9,0.5,0.4,1.2c-0.3,0.4-0.7,0.2-1.1,0.1c-0.6-0.2-1-0.5-1-1.2C55.3,25.7,55.3,25.6,55.4,25.3z"/>
		<path d="M98.9,37.1c-1-0.2-1.7-0.7-1.7-1.7c0-1.1,0.7-1.8,1.8-1.8c1.1,0,1.8,0.8,1.7,1.8C100.6,36.4,99.9,36.9,98.9,37.1z"/>
		<path d="M98.2,66c-1-0.2-1.7-0.8-1.7-1.8c0-1,0.7-1.7,1.7-1.7c1,0,1.8,0.7,1.7,1.8C99.9,65.4,99.1,65.8,98.2,66z"/>
		<path d="M100.7,23.7c-0.2,1-0.8,1.7-1.9,1.7c-1,0-1.6-0.7-1.7-1.7c0-1.1,0.7-1.8,1.7-1.8C100,21.9,100.6,22.6,100.7,23.7z"/>
		<path d="M98.9,48.7c-1-0.2-1.8-0.8-1.7-1.9c0.1-1,0.8-1.6,1.8-1.6c1,0,1.7,0.6,1.7,1.6C100.7,47.9,99.9,48.4,98.9,48.7z"/>
		<path d="M98.9,60.2c-1-0.2-1.7-0.7-1.7-1.7c0-1,0.7-1.7,1.7-1.7c1.1,0,1.8,0.7,1.8,1.8C100.7,59.6,99.9,60.1,98.9,60.2z"/>
		<path d="M97.7,69.5c-0.2,1-0.7,1.8-1.8,1.8c-1.1,0-1.6-0.7-1.6-1.7c0-1,0.5-1.7,1.5-1.8C96.9,67.7,97.5,68.5,97.7,69.5z"/>
		<path d="M39.5,53.8c-0.2,1.1-0.7,1.7-1.7,1.8c-1,0-1.7-0.6-1.7-1.6c0-1.1,0.6-1.8,1.7-1.8C38.8,52.2,39.3,53,39.5,53.8z"/>
		<path d="M87.6,75.7c1.1,0.1,1.7,0.8,1.7,1.7c0.1,1.1-0.6,1.8-1.7,1.8c-1.1,0-1.7-0.8-1.7-1.8C86,76.4,86.6,75.8,87.6,75.7z"/>
		<path d="M68.3,41.1c-0.3,1.1-0.8,1.8-1.9,1.7c-1-0.1-1.6-0.8-1.6-1.8c0.1-1.1,0.7-1.7,1.9-1.6C67.8,39.5,68.2,40.3,68.3,41.1z"/>
		<path d="M65.6,74.1c1.1,0.1,1.7,0.7,1.7,1.7c0,1-0.6,1.7-1.6,1.8c-1.1,0-1.8-0.7-1.8-1.7C64,74.9,64.6,74.3,65.6,74.1z"/>
		<path d="M48.8,70.6c-1-0.2-1.8-0.7-1.8-1.8c0-1,0.7-1.6,1.7-1.7c1,0,1.7,0.5,1.8,1.6C50.6,69.8,49.8,70.3,48.8,70.6z"/>
		<path d="M83.3,36.8c1.1,0.2,1.8,0.8,1.8,1.8c0,1-0.7,1.7-1.7,1.7c-1.1,0-1.8-0.7-1.7-1.8C81.7,37.3,82.5,37,83.3,36.8z"/>
		<path d="M58.8,55.3c0,1.1-0.6,1.7-1.6,1.7c-1.1,0-1.8-0.7-1.8-1.8c0-1,0.7-1.7,1.6-1.7C58.2,53.5,58.9,54.1,58.8,55.3z"/>
		<path d="M77.5,39.5c-1.1,0-1.7-0.7-1.6-1.7c0-1,0.7-1.8,1.8-1.7c1.1,0.1,1.6,0.8,1.5,1.8C79.2,38.9,78.7,39.6,77.5,39.5z"/>
		<path d="M84,79.4c-0.2,1.1-0.8,1.8-1.9,1.7c-1-0.1-1.6-0.8-1.5-1.8c0-1,0.6-1.7,1.6-1.7C83.3,77.7,83.8,78.4,84,79.4z"/>
		<path d="M36.4,57.7c1,0.2,1.7,0.6,1.8,1.7c0.1,1.1-0.6,1.8-1.7,1.9c-0.9,0-1.7-0.5-1.7-1.6C34.7,58.5,35.4,58,36.4,57.7z"/>
		<path d="M54.6,50.8c-0.1,1-0.7,1.6-1.7,1.6c-1.1,0-1.8-0.7-1.7-1.8c0-1.1,0.8-1.6,1.8-1.6C53.9,49.1,54.5,49.7,54.6,50.8z"/>
		<path d="M55.6,66c-0.1,1.1-0.6,1.7-1.6,1.8c-1,0-1.7-0.5-1.7-1.5c-0.1-1.1,0.5-1.8,1.7-1.8C54.9,64.4,55.4,65.1,55.6,66z"/>
		<path d="M70.7,76.9c1,0.1,1.7,0.5,1.7,1.6c0,1.1-0.7,1.8-1.7,1.8c-1,0-1.7-0.6-1.7-1.7C69,77.5,69.7,77,70.7,76.9z"/>
		<path d="M100.7,52.7c-0.2,1-0.8,1.7-1.9,1.6c-1-0.1-1.7-0.7-1.6-1.7c0-1.1,0.8-1.7,1.8-1.6C100,51.1,100.6,51.7,100.7,52.7z"/>
		<path d="M99,39.4c1.1,0,1.7,0.6,1.7,1.6c0,1-0.6,1.8-1.8,1.8c-1,0-1.7-0.7-1.7-1.7C97.2,40.1,97.8,39.4,99,39.4z"/>
		<path d="M98.9,27.7c1.1,0.1,1.8,0.7,1.8,1.7c0,1.1-0.7,1.8-1.8,1.8c-1,0-1.7-0.7-1.7-1.7C97.2,28.4,97.9,27.8,98.9,27.7z"/>
		<path d="M36.8,64.8c0-1.1,0.7-1.6,1.7-1.6c1,0,1.7,0.6,1.7,1.7c0,1.1-0.7,1.8-1.8,1.7C37.4,66.6,36.8,65.9,36.8,64.8z"/>
		<path d="M49.1,48.8c-0.2,0.9-0.7,1.6-1.8,1.6c-1.1-0.1-1.7-0.8-1.6-1.9c0.1-1.1,0.8-1.5,1.8-1.5C48.6,47.1,49.1,47.7,49.1,48.8z"
			/>
		<path d="M58.8,51.5c-1-0.1-1.6-0.7-1.6-1.7c0-1.1,0.7-1.7,1.8-1.7c1,0,1.7,0.7,1.7,1.7C60.7,50.8,60,51.4,58.8,51.5z"/>
		<path d="M63.9,44.9c0,1-0.6,1.7-1.6,1.8c-1.1,0.1-1.8-0.6-1.8-1.7c0-1.1,0.6-1.7,1.6-1.7C63.1,43.2,63.8,43.8,63.9,44.9z"/>
		<path d="M43.2,66.7c0.9,0.2,1.7,0.7,1.6,1.7c0,1-0.7,1.6-1.7,1.6c-1.1,0-1.8-0.7-1.7-1.8C41.4,67.3,42.1,66.7,43.2,66.7z"/>
		<path d="M76.5,81.4c-1-0.1-1.7-0.5-1.7-1.6c0-1.2,0.6-1.8,1.7-1.8c1,0,1.7,0.7,1.7,1.7C78.2,80.8,77.5,81.3,76.5,81.4z"/>
		<path d="M56.6,59.3c1.1,0.1,1.7,0.7,1.7,1.7c0,1-0.7,1.8-1.8,1.7c-1,0-1.7-0.7-1.7-1.7C54.9,60,55.6,59.4,56.6,59.3z"/>
		<path d="M71.8,37c1,0.1,1.7,0.6,1.7,1.6c0,1.1-0.6,1.8-1.7,1.8c-1,0-1.6-0.7-1.7-1.7C70.1,37.7,70.8,37.1,71.8,37z"/>
		<path d="M14.8,38.9c0.1-1.1,0.7-1.6,1.7-1.5c1.1,0,1.7,0.6,1.7,1.7c0,1.1-0.7,1.8-1.8,1.7C15.4,40.7,14.8,40,14.8,38.9z"/>
		<path d="M90.7,73.7c0-0.7,0.6-1.3,1.6-1.4c1.1,0,1.8,0.6,1.8,1.7c0,1.1-0.7,1.6-1.7,1.6C91.4,75.7,90.7,75.2,90.7,73.7z"/>
		<path d="M41.9,51.5c-1.2,0-1.7-0.7-1.7-1.7c0-1,0.6-1.7,1.6-1.7c1.1,0,1.7,0.7,1.7,1.8C43.5,50.9,42.8,51.5,41.9,51.5z"/>
		<path d="M15.6,43.8c-0.2,0.9-0.7,1.7-1.8,1.6c-1-0.1-1.5-0.8-1.4-1.7c0.1-0.9,0.6-1.7,1.7-1.6C15.1,42.2,15.4,42.9,15.6,43.8z"/>
		<path d="M92.3,67.7c-0.2,0.9-0.7,1.6-1.7,1.5c-0.8-0.1-1.5-0.7-1.4-1.5c0-0.9,0.7-1.6,1.6-1.5C91.7,66.2,92.2,66.8,92.3,67.7z"/>
		<path d="M93.5,51.8c0.9,0.1,1.5,0.7,1.5,1.5c0,0.9-0.5,1.6-1.5,1.6c-0.9,0-1.4-0.7-1.4-1.6C92.1,52.4,92.6,52,93.5,51.8z"/>
		<path d="M32.7,60.7c-0.1,0.9-0.7,1.5-1.6,1.5c-0.8,0-1.5-0.6-1.5-1.5c0-0.8,0.4-1.5,1.4-1.5C32.1,59.2,32.6,59.8,32.7,60.7z"/>
		<path d="M32.7,64.1c0.9,0.2,1.6,0.7,1.5,1.7c-0.1,0.9-0.7,1.5-1.5,1.4c-0.9,0-1.5-0.6-1.5-1.6C31.2,64.7,31.8,64.3,32.7,64.1z"/>
		<path d="M13.6,48.7c-0.1,0.9-0.6,1.6-1.5,1.6c-0.9,0-1.4-0.6-1.5-1.5c0-1,0.5-1.6,1.5-1.6C12.9,47.3,13.5,47.8,13.6,48.7z"/>
		<path d="M58.5,70.5C57.6,70.3,57,69.8,57,69c0-0.9,0.6-1.6,1.6-1.5c0.9,0.1,1.5,0.7,1.4,1.7C60,69.9,59.3,70.5,58.5,70.5z"/>
		<path d="M32.9,55.2c0,1.4-0.6,1.9-1.5,1.9c-0.8,0-1.4-0.6-1.4-1.5c0-1,0.6-1.6,1.5-1.6C32.3,54.2,32.8,54.7,32.9,55.2z"/>
		<path d="M61.1,63.1c0.8,0.1,1.5,0.5,1.6,1.4c0.1,1-0.6,1.6-1.5,1.6c-0.9,0-1.5-0.6-1.5-1.4C59.7,63.7,60.3,63.2,61.1,63.1z"/>
		<path d="M66.7,49.9c-0.2,0.9-0.6,1.6-1.6,1.5c-0.9,0-1.4-0.7-1.4-1.5c0-0.9,0.6-1.5,1.6-1.5C66.1,48.4,66.5,49.1,66.7,49.9z"/>
		<path d="M70.4,71.4c-0.1,0.8-0.5,1.5-1.4,1.6c-1,0.1-1.6-0.5-1.7-1.4c-0.1-0.8,0.5-1.5,1.3-1.6C69.7,69.9,70.1,70.6,70.4,71.4z"/>
		<path d="M93.4,59.8c-0.8-0.1-1.4-0.5-1.4-1.4c0-1,0.6-1.6,1.5-1.5c0.8,0,1.4,0.6,1.4,1.5C95,59.2,94.4,59.8,93.4,59.8z"/>
		<path d="M42.5,44.4c-0.2,0.9-0.7,1.4-1.6,1.4c-0.9,0-1.5-0.5-1.5-1.4c0-1,0.7-1.6,1.6-1.5C41.8,42.9,42.4,43.5,42.5,44.4z"/>
		<path d="M93.4,46.9c0.9,0,1.5,0.5,1.6,1.4c0.1,1-0.5,1.6-1.5,1.6c-0.8,0-1.4-0.5-1.5-1.5C92,47.5,92.6,47.1,93.4,46.9z"/>
		<path d="M38.1,47c-0.2,0.8-0.6,1.4-1.5,1.4c-1,0-1.6-0.6-1.5-1.6c0-0.8,0.6-1.4,1.5-1.4C37.5,45.4,37.9,46.1,38.1,47z"/>
		<path d="M92,43.5c0.2-0.9,0.6-1.5,1.5-1.5c0.9,0,1.4,0.7,1.4,1.5c0,0.9-0.6,1.6-1.6,1.5C92.5,44.9,92.1,44.3,92,43.5z"/>
		<path d="M54.6,73.7c-0.9-0.1-1.5-0.5-1.5-1.4c0-1,0.6-1.5,1.4-1.5c0.9,0,1.6,0.5,1.6,1.5C56.1,73.2,55.5,73.6,54.6,73.7z"/>
		<path d="M33,49.4c1.2,0,1.7,0.6,1.7,1.5c0,0.8-0.6,1.4-1.4,1.5c-1,0-1.6-0.6-1.6-1.5C31.7,50,32.2,49.4,33,49.4z"/>
		<path d="M74.8,73.6c-0.1,1.1-0.7,1.7-1.6,1.6c-0.8,0-1.4-0.6-1.4-1.5c0-0.9,0.6-1.5,1.4-1.5C74.2,72.2,74.6,72.8,74.8,73.6z"/>
		<path d="M78.1,72.9c0.8,0,1.5,0.5,1.5,1.3c0.1,1-0.6,1.6-1.5,1.6c-0.8,0-1.4-0.5-1.5-1.4C76.7,73.5,77.2,73.1,78.1,72.9z"/>
		<path d="M55.6,44.5c0.9,0.1,1.5,0.6,1.5,1.5c0,0.9-0.4,1.5-1.3,1.5c-1,0-1.6-0.5-1.6-1.5C54.2,45.1,54.8,44.7,55.6,44.5z"/>
		<path d="M95,38.5c-0.1,0.9-0.6,1.5-1.5,1.5c-0.9,0-1.5-0.6-1.5-1.6c0.1-0.9,0.7-1.4,1.6-1.3C94.5,37.1,94.9,37.7,95,38.5z"/>
		<path d="M94.4,63.1c-0.1,1-0.6,1.7-1.6,1.7c-0.9,0-1.4-0.6-1.5-1.4c0-0.9,0.5-1.5,1.4-1.6C93.8,61.6,94.2,62.3,94.4,63.1z"/>
		<path d="M49.9,75.6c-0.9-0.1-1.5-0.6-1.5-1.4c0-0.9,0.5-1.6,1.5-1.6c0.9,0,1.4,0.6,1.4,1.5C51.3,75,50.7,75.5,49.9,75.6z"/>
		<path d="M64.4,54.6c-0.1,0.9-0.7,1.4-1.6,1.4c-0.9,0-1.6-0.6-1.5-1.6c0.1-0.9,0.7-1.4,1.6-1.3C63.9,53.1,64.4,53.7,64.4,54.6z"/>
		<path d="M10.9,55.5c-0.9,0-1.4-0.5-1.5-1.4c0-0.9,0.5-1.4,1.3-1.4c0.9-0.1,1.5,0.5,1.6,1.4C12.4,54.8,11.9,55.4,10.9,55.5z"/>
		<path d="M83.1,75.1c-1-0.1-1.6-0.6-1.6-1.5c0-0.9,0.6-1.5,1.4-1.5c0.9,0,1.6,0.6,1.6,1.5C84.5,74.5,83.9,74.9,83.1,75.1z"/>
		<path d="M70.2,46c0,1.1-0.5,1.7-1.4,1.7c-0.9,0.1-1.6-0.4-1.6-1.5c0-0.9,0.6-1.4,1.5-1.5C69.5,44.7,70,45.3,70.2,46z"/>
		<path d="M74.8,43.8c-0.1,1-0.6,1.6-1.5,1.6c-0.9,0-1.4-0.6-1.5-1.4c-0.1-0.9,0.5-1.5,1.3-1.6C74.1,42.3,74.6,42.9,74.8,43.8z"/>
		<path d="M51.1,42.3c0.9,0.2,1.4,0.6,1.4,1.5c0,1-0.6,1.6-1.6,1.5c-0.9-0.1-1.5-0.7-1.4-1.7C49.6,42.8,50.2,42.4,51.1,42.3z"/>
		<path d="M79.8,43.3c-0.1,0.9-0.6,1.4-1.5,1.4c-0.9,0-1.6-0.6-1.5-1.6c0-0.9,0.7-1.5,1.6-1.4C79.3,41.8,79.7,42.4,79.8,43.3z"/>
		<path d="M47.4,43.2C47.3,44,47,44.7,46,44.7c-0.9,0.1-1.5-0.5-1.5-1.4c-0.1-0.9,0.4-1.6,1.4-1.6C46.9,41.7,47.2,42.4,47.4,43.2z"
			/>
		<path d="M88.8,71.7c0,0.4-0.5,1-1.4,1c-0.9,0-1.5-0.5-1.6-1.4c-0.1-0.9,0.5-1.6,1.5-1.6C88.2,69.7,88.8,70.3,88.8,71.7z"/>
		<path d="M63.8,59.5c-0.1,0.8-0.5,1.5-1.4,1.5c-1,0.1-1.6-0.4-1.6-1.4c0-1,0.6-1.6,1.5-1.6C63.2,58.1,63.6,58.7,63.8,59.5z"/>
		<path d="M46.2,74.3c0,0.9-0.6,1.4-1.4,1.4c-0.9,0-1.5-0.4-1.6-1.3c-0.1-1,0.6-1.6,1.5-1.6C45.5,72.8,46.2,73.3,46.2,74.3z"/>
		<path d="M35.6,68.3c1,0.1,1.5,0.6,1.5,1.5c0,0.9-0.5,1.6-1.5,1.5c-1,0-1.4-0.7-1.4-1.5C34.2,68.9,34.7,68.4,35.6,68.3z"/>
		<path d="M41.3,72.8c-0.1,0.8-0.4,1.5-1.4,1.6c-1,0.1-1.6-0.6-1.6-1.5c0-0.8,0.5-1.5,1.4-1.5C40.7,71.3,41.1,71.9,41.3,72.8z"/>
		<path d="M84.8,44.1c0.1,1-0.5,1.5-1.3,1.5c-1,0.1-1.6-0.5-1.6-1.5c0-0.9,0.6-1.4,1.5-1.5C84.2,42.7,84.8,43.2,84.8,44.1z"/>
		<path d="M95,33.5c-0.1,0.8-0.5,1.5-1.4,1.5c-1,0-1.5-0.6-1.5-1.6c0-0.9,0.5-1.4,1.5-1.4C94.5,32.1,94.8,32.7,95,33.5z"/>
		<path d="M93.5,30.1c-0.8-0.1-1.4-0.5-1.4-1.4c-0.1-0.9,0.5-1.5,1.4-1.5c1-0.1,1.6,0.5,1.6,1.5C95,29.5,94.5,30,93.5,30.1z"/>
		<path d="M95,23.6c-0.1,0.8-0.5,1.5-1.4,1.5c-0.9,0-1.5-0.5-1.5-1.4c0-0.9,0.5-1.6,1.5-1.6C94.5,22.1,94.8,22.8,95,23.6z"/>
		<path d="M12,59.4c-0.1,0.8-0.6,1.3-1.4,1.3c-0.8,0-1.3-0.6-1.3-1.4c0-0.8,0.6-1.3,1.4-1.3C11.5,58.1,11.9,58.6,12,59.4z"/>
		<path d="M12.4,64.8c-0.2,0.7-0.6,1.2-1.3,1.2c-0.7,0-1.2-0.5-1.2-1.2c0-0.8,0.5-1.4,1.3-1.3C12,63.5,12.3,64,12.4,64.8z"/>
		<path d="M36.5,39.2c0.7,0.1,1.2,0.5,1.2,1.2c0,0.8-0.5,1.2-1.3,1.2c-0.7-0.1-1.1-0.5-1.1-1.2C35.4,39.6,35.9,39.3,36.5,39.2z"/>
		<path d="M89.2,38.4c-0.1,0.6-0.4,1.1-1.2,1.1c-0.8,0-1.3-0.5-1.2-1.2c0-0.8,0.6-1.2,1.3-1.1C88.8,37.2,89.3,37.7,89.2,38.4z"/>
		<path d="M51.3,38.1c-0.1,0.7-0.4,1.2-1.1,1.2c-0.7,0-1.3-0.4-1.3-1.2c-0.1-0.8,0.5-1.2,1.2-1.2C50.8,36.9,51.2,37.4,51.3,38.1z"/>
		<path d="M88.1,34.7c-0.7-0.1-1.2-0.5-1.3-1.2c0-0.7,0.5-1.2,1.1-1.2c0.8-0.1,1.2,0.4,1.3,1.2C89.3,34.1,88.8,34.5,88.1,34.7z"/>
		<path d="M87,48.4c0-0.8,0.5-1.1,1.2-1.1c0.7,0,1.2,0.4,1.2,1.1c0,0.8-0.5,1.2-1.3,1.2C87.5,49.5,87,49.1,87,48.4z"/>
		<path d="M39.4,78.1c-0.2,0.7-0.5,1.3-1.3,1.2c-0.7,0-1.1-0.5-1.1-1.2c0-0.8,0.5-1.2,1.3-1.2C39,76.9,39.3,77.4,39.4,78.1z"/>
		<path d="M34.2,74.5c0.7,0.1,1.1,0.6,1.1,1.2c0,0.7-0.5,1.3-1.3,1.2c-0.6-0.1-1.1-0.5-1.1-1.2C33,75,33.5,74.6,34.2,74.5z"/>
		<path d="M74.2,67.2c0.6,0,1.1,0.4,1.2,1.1c0.1,0.7-0.4,1.2-1,1.2c-0.7,0.1-1.3-0.3-1.3-1.1C73,67.6,73.5,67.3,74.2,67.2z"/>
		<path d="M78.8,70.2c-0.7-0.1-1.1-0.5-1.1-1.2c0-0.7,0.5-1.2,1.2-1.1c0.7,0,1.2,0.6,1.2,1.3C80,69.7,79.5,70.1,78.8,70.2z"/>
		<path d="M29.3,68.8c-0.1,0.7-0.5,1.2-1.2,1.1c-0.7-0.1-1.3-0.5-1.2-1.3c0.1-0.7,0.6-1.2,1.4-1.1C28.9,67.6,29.3,68.1,29.3,68.8z"
			/>
		<path d="M88.7,55.2c-0.1,0.7-0.4,1.2-1.1,1.2c-0.7,0.1-1.2-0.4-1.2-1c-0.1-0.8,0.3-1.3,1.1-1.3C88.2,54.1,88.6,54.6,88.7,55.2z"/>
		<path d="M45.5,36.7c0.7,0.1,1.2,0.5,1.2,1.2c0,0.7-0.5,1.3-1.3,1.2c-0.7,0-1.1-0.6-1.1-1.2C44.3,37.2,44.7,36.7,45.5,36.7z"/>
		<path d="M27.2,55.1c-0.1,0.6-0.4,1.2-1.1,1.2c-0.7,0-1.2-0.4-1.2-1.1c-0.1-0.8,0.4-1.3,1.1-1.3C26.7,53.9,27,54.4,27.2,55.1z"/>
		<path d="M88.1,29.8c-0.7-0.1-1.2-0.5-1.3-1.2c0-0.7,0.4-1.1,1.1-1.1c0.8,0,1.2,0.4,1.2,1.2C89.2,29.3,88.8,29.7,88.1,29.8z"/>
		<path d="M43.9,79.4c0,0.7-0.4,1.2-1.1,1.2c-0.8,0.1-1.3-0.4-1.3-1.2c0-0.7,0.5-1.1,1.1-1.2C43.4,78.3,43.8,78.7,43.9,79.4z"/>
		<path d="M59.9,41.7c-0.1,0.7-0.5,1.1-1.2,1.1c-0.7,0-1.2-0.5-1.1-1.2c0-0.8,0.5-1.2,1.3-1.2C59.5,40.5,59.9,41,59.9,41.7z"/>
		<path d="M47.3,78.6c0.8,0.1,1.3,0.4,1.3,1.2c0,0.8-0.5,1.2-1.2,1.2c-0.7,0-1.1-0.5-1.1-1.2C46.2,79.1,46.7,78.8,47.3,78.6z"/>
		<path d="M68.8,58.5c0,0.8-0.5,1.1-1.1,1.1c-0.7,0-1.2-0.5-1.2-1.3c0.1-0.7,0.5-1.1,1.2-1C68.5,57.3,68.9,57.7,68.8,58.5z"/>
		<path d="M26.9,59.8c-0.1,0.8-0.5,1.2-1.2,1.2c-0.8,0-1.2-0.6-1.1-1.3c0.1-0.7,0.5-1.1,1.2-1C26.5,58.7,26.8,59.1,26.9,59.8z"/>
		<path d="M86.5,65.4c-0.7,0-1.1-0.4-1.1-1.1c0-0.7,0.5-1.1,1.1-1.2c0.7,0,1.3,0.4,1.2,1.2C87.7,65,87.2,65.4,86.5,65.4z"/>
		<path d="M89.3,23.6c-0.1,0.7-0.3,1.2-1.1,1.3c-0.8,0.1-1.3-0.4-1.3-1.2c0-0.6,0.4-1.1,1.2-1.2C88.8,22.4,89.1,22.9,89.3,23.6z"/>
		<path d="M65.8,68.7c-0.7,0-1.1-0.4-1.1-1.1c0-0.8,0.3-1.3,1.2-1.2c0.8,0,1.1,0.6,1.1,1.2C67,68.1,66.6,68.7,65.8,68.7z"/>
		<path d="M79.8,49.1c0-0.7,0.5-1.2,1.1-1.2c0.7,0,1.2,0.4,1.3,1.2c0,0.7-0.5,1.2-1.2,1.2C80.3,50.3,79.8,49.8,79.8,49.1z"/>
		<path d="M71.5,65.6c0,0.7-0.4,1.2-1.1,1.3c-0.7,0-1.3-0.4-1.3-1.2c0-0.7,0.5-1.2,1.2-1.2C71,64.5,71.4,64.9,71.5,65.6z"/>
		<path d="M32.7,41.9c0.6,0.1,1.1,0.4,1.2,1.1c0.1,0.8-0.5,1.3-1.2,1.3c-0.6,0-1.1-0.4-1.2-1.2C31.5,42.4,32,42.1,32.7,41.9z"/>
		<path d="M13.6,70c-0.1,0.7-0.5,1.2-1.2,1.2c-0.7,0-1.2-0.5-1.2-1.3c0.1-0.7,0.6-1.1,1.3-1.1C13.1,68.8,13.6,69.3,13.6,70z"/>
		<path d="M26.4,65.6c-0.6-0.2-1.2-0.4-1.2-1.2c0-0.8,0.5-1.2,1.3-1.2c0.7,0,1.1,0.5,1.1,1.2C27.5,65.2,27,65.4,26.4,65.6z"/>
		<path d="M77.5,48.7c0,0.8-0.5,1.2-1.1,1.2c-0.7,0-1.3-0.4-1.3-1.2c0-0.7,0.5-1.2,1.1-1.2C77,47.5,77.4,48,77.5,48.7z"/>
		<path d="M67.1,61.8c0.7,0.1,1.2,0.4,1.3,1.1c0.1,0.8-0.5,1.3-1.2,1.3c-0.6,0-1.1-0.5-1.2-1.2C66.1,62.4,66.6,62,67.1,61.8z"/>
		<path d="M71.9,49.3c0.7,0,1.2,0.3,1.2,1c0.1,0.7-0.3,1.2-1,1.3c-0.7,0.1-1.3-0.3-1.3-1.1C70.8,49.8,71.2,49.4,71.9,49.3z"/>
		<path d="M61.4,74.9c-0.2,0.6-0.5,1.1-1.3,1.1c-0.7,0-1.2-0.5-1.1-1.2c0-0.7,0.5-1.3,1.3-1.2C61,73.7,61.3,74.3,61.4,74.9z"/>
		<path d="M88.1,61.1c-0.7,0-1.2-0.4-1.3-1.1c-0.1-0.8,0.4-1.2,1.2-1.3c0.7,0,1.1,0.4,1.1,1.1C89.2,60.5,88.8,61,88.1,61.1z"/>
		<path d="M63.4,72.7c-0.7,0-1.1-0.6-1.1-1.2c0-0.6,0.4-1.2,1.1-1.2c0.8,0,1.3,0.5,1.2,1.2C64.6,72.2,64.1,72.7,63.4,72.7z"/>
		<path d="M51.9,80.3c-0.7-0.1-1.1-0.5-1.1-1.2c0-0.8,0.5-1.2,1.3-1.2c0.7,0,1.1,0.6,1.1,1.2C53.1,79.8,52.7,80.3,51.9,80.3z"/>
		<path d="M89.3,43.3c-0.1,0.6-0.4,1.2-1.2,1.2c-0.7,0-1.2-0.5-1.2-1.1c0-0.7,0.4-1.2,1.3-1.2C88.9,42.1,89.1,42.6,89.3,43.3z"/>
		<path d="M30.8,46.6c-0.1,0.7-0.5,1.1-1.2,1.2c-0.7,0-1.2-0.4-1.2-1.1c0-0.8,0.4-1.3,1.2-1.2C30.4,45.4,30.7,45.9,30.8,46.6z"/>
		<path d="M55.8,39.3c-0.1,0.8-0.5,1.2-1.2,1.2c-0.7,0-1.2-0.4-1.2-1.1c0-0.8,0.5-1.3,1.2-1.2C55.3,38.2,55.7,38.7,55.8,39.3z"/>
		<path d="M40.8,37.4c0.8,0,1.2,0.4,1.2,1.1c0.1,0.8-0.4,1.2-1.2,1.2c-0.7,0-1.2-0.5-1.1-1.2C39.7,38,40.1,37.5,40.8,37.4z"/>
		<path d="M84.9,52.7c-0.6-0.2-1.2-0.6-1.1-1.3c0.1-0.8,0.5-1.2,1.3-1.1c0.7,0.1,1.1,0.6,1,1.3C86,52.2,85.5,52.6,84.9,52.7z"/>
		<path d="M28.5,50.7c-0.1,0.7-0.5,1.1-1.2,1.1c-0.7,0-1.2-0.4-1.2-1.1c0-0.8,0.4-1.3,1.2-1.2C28.1,49.5,28.5,50,28.5,50.7z"/>
		<path d="M30.6,71.3c0.8,0,1.2,0.4,1.3,1.1c0.1,0.7-0.3,1.2-1,1.2c-0.8,0.1-1.3-0.3-1.3-1.1C29.6,71.8,30.1,71.5,30.6,71.3z"/>
		<path d="M68.9,55.2c-0.7-0.1-1.1-0.5-1.2-1.2c0-0.7,0.4-1.2,1.1-1.2c0.7,0,1.3,0.4,1.2,1.2C70.1,54.7,69.6,55.1,68.9,55.2z"/>
		<path d="M84.5,67.4c-0.1,0.7-0.4,1.2-1.1,1.2c-0.7,0.1-1.2-0.3-1.2-1c-0.1-0.8,0.3-1.3,1.1-1.3C83.9,66.3,84.3,66.8,84.5,67.4z"/>
		<path d="M56.2,76.3c0.8,0.1,1.2,0.5,1.2,1.1c0,0.7-0.4,1.2-1.1,1.2c-0.8,0.1-1.2-0.4-1.3-1.2C55.1,76.8,55.6,76.4,56.2,76.3z"/>
		<path d="M15.6,74.9c-0.2,0.6-0.5,1.1-1.1,1.1c-0.7,0-1.1-0.5-1.1-1.1c0-0.6,0.5-1,1.1-1.1C15.1,73.8,15.4,74.3,15.6,74.9z"/>
		<path d="M17.2,78.5c0.5,0.1,1,0.3,1,0.9c0.1,0.7-0.4,1.1-0.9,1.1c-0.6,0.1-1-0.4-1-1C16.2,78.9,16.6,78.6,17.2,78.5z"/>
		<path d="M21.5,83.7c-0.1,0.5-0.4,0.9-0.9,0.9c-0.5,0-0.9-0.5-0.9-1c0-0.5,0.4-0.8,0.9-0.8C21.1,82.7,21.5,83.1,21.5,83.7z"/>
		<path d="M25.5,87.2c-0.1,0.5-0.4,0.8-0.9,0.8c-0.4,0-0.7-0.3-0.7-0.7c0-0.5,0.3-0.8,0.8-0.9C25.1,86.4,25.3,86.8,25.5,87.2z"/>
		<path d="M29.9,90.2c-0.1,0.4-0.3,0.7-0.7,0.7c-0.5,0-0.7-0.3-0.7-0.8c0-0.4,0.3-0.8,0.7-0.8C29.6,89.4,29.8,89.7,29.9,90.2z"/>
		<g>
			<path class="st0" d="M28.5,26.3c-1.1-0.6-2-0.3-2.7,0.8c-0.1,0.2-0.3,0.4-0.5,0.4c-1.4,0.1-1,0.8-0.5,1.5
				c0.6,0.9,1.2,1.9,1.8,2.8c0.3,0.5,0.5,1.5,1.4,0.9c0.8-0.6,0-1.1-0.4-1.9c1.3,0,2.1-0.6,2.3-1.7C30.2,27.8,29.5,26.9,28.5,26.3z
				 M27.6,29.8c-0.8,0.1-1.2-0.5-1.3-1.2c-0.1-0.6,0.3-1.1,1-1.1c0.8,0,1.2,0.5,1.3,1.1C28.6,29.4,28.3,29.7,27.6,29.8z"/>
			<path class="st0" d="M22.1,30.2c-1.2,0-2.6,1.4-2.6,2.6c0,1.2,1.2,2.5,2.4,2.5c1.3,0,2.7-1.4,2.6-2.7
				C24.6,31.4,23.4,30.2,22.1,30.2z M22.1,33.9c-0.7-0.1-1.3-0.5-1.2-1.3c0.1-0.7,0.5-1,1.2-1.1c0.7,0.1,1.2,0.6,1.2,1.4
				C23.3,33.6,22.8,34,22.1,33.9z"/>
		</g>
	</g>
	<g>
		<path class="st0" d="M50.7,21.1c-0.3,0.1-0.7,0.2-0.6,0.6c0,0.4,0.4,0.5,0.7,0.5c0.6,0,1.3-0.2,1.5,0.7c-0.2,0-0.3,0.1-0.4,0.1
			c-1-0.2-2-0.3-2.5,0.9c-0.3,0.6-0.1,1.2,0.5,1.6c1,0.6,2.2,0.2,3.4,0.3c0.1,0,0.2-0.4,0.3-0.7c0.1-0.5,0.2-1,0.3-1.5
			C54,21.8,52.5,20.6,50.7,21.1z M51.5,25c-0.4,0-0.9-0.1-1-0.6c0-0.4,0.2-0.6,0.7-0.6c0.4,0.1,0.9,0.2,0.9,0.7
			C52.2,24.8,51.9,25,51.5,25z"/>
	</g>
</g>
</svg>
