<svg width="110" height="110" xmlns="http://www.w3.org/2000/svg" x="0px" y="0px"
	 viewBox="0 0 110 110" style="enable-background:new 0 0 110 110;" xml:space="preserve">
<g>
	<path d="M72.4,66.1l0.3-0.3c4.4-5.9,6.8-12.9,6.8-20.1C79.4,27.1,64.3,12,45.7,12S12,27.1,12,45.6c0,18.6,15.1,33.7,33.7,33.7
		c7.3,0,14.4-2.3,20.1-6.8l0.3-0.3L91.8,98l6.2-6.2L72.4,66.1z M68.4,70.6l1.8-1.8l0.8-0.8l24,24l-3,3l-24-24L68.4,70.6z M77.2,45.6
		C77.2,63,63.1,77,45.8,77S14.3,63,14.3,45.6s14.1-31.4,31.4-31.4S77.2,28.3,77.2,45.6z"/>
</g>
</svg>
