<?xml version="1.0" encoding="utf-8"?>
<!-- Generator: Adobe Illustrator 25.1.0, SVG Export Plug-In . SVG Version: 6.00 Build 0)  -->
<svg version="1.0" id="Calque_1" xmlns="http://www.w3.org/2000/svg" xmlns:xlink="http://www.w3.org/1999/xlink" x="0px" y="0px"
	 viewBox="0 0 150 150" enable-background="new 0 0 150 150" xml:space="preserve">
<g>
	<path d="M75,23.5c-28.4,0-51.5,23.1-51.5,51.5s23.1,51.5,51.5,51.5s51.5-23.1,51.5-51.5S103.4,23.5,75,23.5z M75,123.7
		c-26.8,0-48.7-21.8-48.7-48.7S48.2,26.3,75,26.3s48.7,21.8,48.7,48.7S101.8,123.7,75,123.7z"/>
	<path d="M75,97.7c-0.8,0-1.4,0.6-1.4,1.4v4c0,0.8,0.6,1.4,1.4,1.4s1.4-0.6,1.4-1.4v-4C76.4,98.3,75.8,97.7,75,97.7z"/>
	<path d="M75.3,41.5H75c-4.1,0-7.9,1.6-10.8,4.5c-2.9,2.9-4.6,6.8-4.6,11c0,0.8,0.6,1.4,1.4,1.4c0.8,0,1.4-0.6,1.4-1.4
		c0-3.4,1.4-6.7,3.7-8.9c2.4-2.4,5.6-3.6,8.8-3.6h0.3c6.7,0.1,12.3,5.8,12.4,12.4c0.1,4.4-2.1,8.5-5.8,10.8
		c-5.2,3.3-8.2,9.2-8.2,15.8V89c0,0.8,0.6,1.4,1.4,1.4c0.8,0,1.4-0.6,1.4-1.4v-5.7c0-5.5,2.7-10.7,7-13.4c4.3-2.9,6.9-7.9,6.9-13.2
		C90.3,48.5,83.5,41.7,75.3,41.5z"/>
</g>
</svg>
