<svg width="110" height="110" xmlns="http://www.w3.org/2000/svg" x="0px" y="0px"
	 viewBox="0 0 110 110" style="enable-background:new 0 0 110 110;" xml:space="preserve">
<style type="text/css">
	.st0{fill:#FFFFFF;}
	.st1{fill:none;}
</style>
<g>
	<g>
		<g>
			<path d="M64.1,32.1h-7.7c-0.8,0-1.5,0.7-1.5,1.5v7.7c0,0.8,0.7,1.5,1.5,1.5h7.7c0.8,0,1.5-0.7,1.5-1.5v-7.7
				C65.6,32.8,64.9,32.1,64.1,32.1z M62.6,39.9h-4.7v-4.7h4.7V39.9z"/>
			<path d="M78.1,32.1h-7.7c-0.8,0-1.5,0.7-1.5,1.5v7.7c0,0.8,0.7,1.5,1.5,1.5h7.7c0.8,0,1.5-0.7,1.5-1.5v-7.7
				C79.6,32.8,78.9,32.1,78.1,32.1z M76.6,39.9h-4.7v-4.7h4.7V39.9z"/>
			<path d="M54.9,56.5c0,0.8,0.7,1.5,1.5,1.5h7.7c0.8,0,1.5-0.7,1.5-1.5v-7.7c0-0.8-0.7-1.5-1.5-1.5h-7.7c-0.8,0-1.5,0.7-1.5,1.5
				V56.5z M57.9,50.2h4.7V55h-4.7V50.2z"/>
			<path d="M68.9,56.5c0,0.8,0.7,1.5,1.5,1.5h7.7c0.8,0,1.5-0.7,1.5-1.5v-7.7c0-0.8-0.7-1.5-1.5-1.5h-7.7c-0.8,0-1.5,0.7-1.5,1.5
				V56.5z M71.9,50.2h4.7V55h-4.7V50.2z"/>
			<path d="M79.7,63.1c0-0.8-0.7-1.5-1.5-1.5h-7.7c-0.8,0-1.5,0.7-1.5,1.5v7.7c0,0.8,0.7,1.5,1.5,1.5h7.7c0.8,0,1.5-0.7,1.5-1.5
				V63.1z M76.7,69.3H72v-4.7h4.7V69.3z"/>
			<path d="M78.2,76.7h-7.7c-0.8,0-1.5,0.7-1.5,1.5v7.7c0,0.8,0.7,1.5,1.5,1.5h7.7c0.8,0,1.5-0.7,1.5-1.5v-7.7
				C79.7,77.4,79,76.7,78.2,76.7z M76.7,84.4H72v-4.7h4.7V84.4z"/>
			<path d="M87.8,28.5L67.5,9.7c-0.6-0.5-1.5-0.5-2.1,0L46.7,28.5c-0.3,0.3-0.4,0.7-0.4,1.1v21.3l3,2.8V30.2l17.3-17.3l18.7,17.4
				v67.5H59.9v1.5c0,0.8-0.7,1.5-1.5,1.5h28.4c0.8,0,1.5-0.7,1.5-1.5V29.6C88.3,29.2,88.1,28.8,87.8,28.5z"/>
		</g>
		<path class="st0" d="M59.9,99.2v-1.5h-3h-7.7h-3v1.5c0,0.8,0.7,1.5,1.5,1.5h10.7C59.2,100.7,59.9,100,59.9,99.2z"/>
	</g>
	<g>
		<path class="st0" d="M35.8,66.8H28c-0.8,0-1.5,0.7-1.5,1.5V76c0,0.8,0.7,1.5,1.5,1.5h7.7c0.8,0,1.5-0.7,1.5-1.5v-7.7
			C37.3,67.4,36.6,66.8,35.8,66.8z M34.3,74.5h-4.7v-4.7h4.7V74.5z"/>
		<path class="st0" d="M40.5,68.3V76c0,0.8,0.7,1.5,1.5,1.5h7.7c0.8,0,1.5-0.7,1.5-1.5v-7.7c0-0.8-0.7-1.5-1.5-1.5H42
			C41.2,66.8,40.5,67.4,40.5,68.3z M43.5,69.8h4.7v4.7h-4.7V69.8z"/>
		<path class="st0" d="M35.8,81.9H28c-0.8,0-1.5,0.7-1.5,1.5v7.7c0,0.8,0.7,1.5,1.5,1.5h7.7c0.8,0,1.5-0.7,1.5-1.5v-7.7
			C37.3,82.5,36.6,81.9,35.8,81.9z M34.3,89.6h-4.7v-4.7h4.7V89.6z"/>
		<path class="st0" d="M49.8,81.9H42c-0.8,0-1.5,0.7-1.5,1.5v7.7c0,0.8,0.7,1.5,1.5,1.5h7.7c0.8,0,1.5-0.7,1.5-1.5v-7.7
			C51.3,82.5,50.6,81.9,49.8,81.9z M48.3,89.6h-4.7v-4.7h4.7V89.6z"/>
		<g>
			<rect x="59.9" y="64.6" class="st1" width="2.8" height="4.7"/>
			<path class="st1" d="M55,85.9v-7.7c0-0.8,0.7-1.5,1.5-1.5h0.4v-4.4h-0.4c-0.8,0-1.5-0.7-1.5-1.5v-7.7c0,0,0,0,0,0l-5.8-5.3
				l-3-2.8l-8-7.5L20.9,64.8v32.9h25.4h10.7V87.4h-0.4C55.6,87.4,55,86.8,55,85.9z"/>
			<rect x="59.9" y="79.7" class="st1" width="2.8" height="4.7"/>
			<path d="M59.9,64.2v0.4h2.8v4.7h-2.8v3h4.3c0.8,0,1.5-0.7,1.5-1.5v-7.7c0-0.8-0.7-1.5-1.5-1.5h-6.4l1.6,1.5
				C59.7,63.4,59.9,63.8,59.9,64.2z"/>
			<path d="M62.7,79.7v4.7h-2.8v3h4.3c0.8,0,1.5-0.7,1.5-1.5v-7.7c0-0.8-0.7-1.5-1.5-1.5h-4.3v3H62.7z"/>
			<path class="st0" d="M101.4,97.7H59.9V87.4v-3v-4.7v-3v-4.4v-3v-4.7v-0.4c0-0.4-0.2-0.8-0.5-1.1l-1.6-1.5l-8.6-8l-3-2.8l-7.1-6.5
				c-0.6-0.5-1.5-0.5-2.1,0L18.3,63.1c-0.3,0.3-0.4,0.7-0.4,1.1v33.5H8.6c-0.8,0-1.5,0.7-1.5,1.5s0.7,1.5,1.5,1.5h10.8h28.4h53.7
				c0.8,0,1.5-0.7,1.5-1.5S102.2,97.7,101.4,97.7z M56.9,72.3v4.4v10.7v10.3H46.2H20.9V64.8l17.3-17.3l8,7.5l3,2.8l5.8,5.3l1.9,1.8
				V72.3z"/>
		</g>
	</g>
</g>
</svg>
