<svg width="110" height="110" xmlns="http://www.w3.org/2000/svg" x="0px" y="0px"
	 viewBox="0 0 110 110" style="enable-background:new 0 0 110 110;" xml:space="preserve">
<path d="M17.8,86.7c0.5-0.2,1-0.3,1.4-0.5c4.7-2.1,9.3-4.2,14-6.3c1-0.4,1.3-1,1.3-2c0-8.3,0-16.6,0-24.8c0-0.4-0.1-0.8,0-1.1
	c0.2-0.5,0.6-0.9,0.9-1.3c0.3,0.4,0.8,0.9,0.8,1.3c0.1,3.8,0,7.7,0,11.5c0,4.9,0,9.7,0,14.6c0,0.8,0.1,1.3,0.9,1.7
	c5.6,2.3,11.1,4.6,16.7,6.9c0.2,0.1,0.3,0.1,0.8,0.2c0-0.7,0-1.2,0-1.7c0-15.2,0-30.4,0-45.6c0-0.9,0.1-1.8-1.1-2.2
	c-0.2-0.1-0.4-0.8-0.4-1.1c0-0.2,0.8-0.5,1-0.4c1.2,0.7,2.2,0.1,3.2-0.3c5.6-2.2,11.1-4.5,16.8-6.7c0.8-0.3,1.9-0.3,2.7,0.1
	c5.4,2.3,10.8,4.8,16.2,7.2c1,0.4,1.3,1,1.3,2c0,16.5,0,32.9,0,49.4c0,1.8-0.4,2-2.1,1.3c-5.2-2.4-10.3-4.8-15.4-7.2
	C75.8,81,75,81,74,81.4c-5.7,2.4-11.4,4.8-17.1,7.2c-1,0.4-1.9,0.4-3,0c-5.8-2.5-11.6-4.9-17.4-7.3c-0.6-0.3-1.6-0.2-2.2,0
	c-5.4,2.4-10.8,4.8-16.2,7.3c-1.7,0.8-2.1,0.5-2.1-1.3c0-15.6,0-31.1,0-46.7c0-1,0.3-1.6,1.2-2.1c2.6-1.4,5.2-2.9,7.8-4.4
	c0.6-0.3,1.3-0.9,1.8-0.1c0.5,0.9-0.3,1.2-0.9,1.6c-2.4,1.4-4.8,2.7-7.1,4.1c-0.5,0.3-1,1.1-1,1.6c-0.1,14.8,0,29.5,0,44.3
	C17.6,86,17.7,86.3,17.8,86.7z M74.5,30.6c-0.7,0.2-1.1,0.3-1.5,0.5c-5.1,2.1-10.3,4.2-15.4,6.2c-1,0.4-1.3,0.9-1.3,2
	c0,15.4,0,30.8,0,46.1c0,0.4,0.1,0.9,0.1,1.5c0.6-0.2,1.1-0.4,1.5-0.6c5-2.1,10-4.2,15.1-6.3c1.1-0.5,1.5-1,1.5-2.3
	c0-15.1,0-30.3,0-45.4C74.5,31.8,74.5,31.3,74.5,30.6z M92.4,86.8c0.1-0.5,0.1-0.6,0.1-0.8c0-15.7,0-31.4,0-47.1
	c0-0.9-0.4-1.2-1.1-1.5c-4.6-2-9.2-4.1-13.8-6.1c-0.4-0.2-0.8-0.3-1.3-0.4c-0.1,0.4-0.1,0.8-0.1,1.1c0,15.5,0,31,0,46.4
	c0,0.9,0.3,1.3,1.1,1.6c4.2,1.9,8.4,3.9,12.6,5.9C90.7,86,91.4,86.3,92.4,86.8z"/>
<path d="M39.9,21.3c9,0,14.5,8.4,11.7,15.5c-2.2,5.4-5.4,10.3-8.7,15.1c-2.3,3.3-2.5,3.4-4.6,0c-2.8-4.3-5.4-8.7-7.9-13.3
	c-2.2-4-2.3-8.2,0.4-12.1C33,23.1,36.4,21.4,39.9,21.3z M40.5,52.1c0.7-1,1.3-1.6,1.7-2.4c2.5-4.2,5-8.4,7.3-12.8
	c1.3-2.5,1.3-5.2,0.1-7.8c-2.2-4.9-7.8-7.2-12.8-5.3c-4.5,1.7-7.8,7.2-5.6,12.6C33.6,42,36.9,46.9,40.5,52.1z"/>
<path d="M47.5,33.2c0,3.9-3.1,6.9-7,6.9s-7-3.2-6.9-7.1s3.2-6.8,7.1-6.8C44.5,26.2,47.5,29.3,47.5,33.2z M35.3,33.1
	c0,2.9,2.4,5.2,5.3,5.2c2.8,0,5.1-2.4,5.1-5.2S43.4,28,40.6,28C37.7,27.9,35.3,30.3,35.3,33.1z"/>
</svg>
