<?xml version="1.0" encoding="utf-8"?>
<!-- Generator: Adobe Illustrator 25.1.0, SVG Export Plug-In . SVG Version: 6.00 Build 0)  -->
<svg version="1.0" id="Calque_1" xmlns="http://www.w3.org/2000/svg" xmlns:xlink="http://www.w3.org/1999/xlink" x="0px" y="0px"
	 viewBox="0 0 150 150" enable-background="new 0 0 150 150" xml:space="preserve">
<g>
	<path fill="#1D1D1B" d="M101.1,63.6V36.9c0-13.9-12.2-25.2-27.2-25.2c-15,0-27.2,11.3-27.2,25.2v26.7H26.4v74.7h97.2V63.6H101.1z
		 M49.2,36.9c0-12.5,11.1-22.7,24.7-22.7s24.7,10.2,24.7,22.7v26.7H49.2V36.9z M121.1,135.8H28.9v-11h92.2V135.8z M121.1,122.2H28.9
		V66.1h92.2V122.2z"/>
	<path fill="#1D1D1B" d="M75,111.2c4.4,0,8-3.6,8-8V89.7c0-4.4-3.6-8-8-8c-4.4,0-8,3.6-8,8v13.5C67,107.6,70.6,111.2,75,111.2z
		 M69.5,89.7c0-3,2.5-5.5,5.5-5.5c3,0,5.5,2.5,5.5,5.5v13.5c0,3-2.5,5.5-5.5,5.5c-3,0-5.5-2.5-5.5-5.5V89.7z"/>
</g>
</svg>
