<svg width="110" height="110" xmlns="http://www.w3.org/2000/svg" x="0px" y="0px"
	 viewBox="0 0 110 110" style="enable-background:new 0 0 110 110;" xml:space="preserve">
<style type="text/css">
	.st0{fill:#FFFFFF;}
</style>
<g>
	<path d="M24.5,49.1c-0.3,0-0.7-0.1-0.9-0.4L11.9,37.2c-0.5-0.5-0.5-1.3,0-1.9c0.5-0.5,1.3-0.5,1.9,0l11.7,11.5
		c0.5,0.5,0.5,1.3,0,1.9C25.2,49,24.9,49.1,24.5,49.1z"/>
	<path d="M86,49.1c-0.3,0-0.7-0.1-0.9-0.4c-0.5-0.5-0.5-1.4,0-1.9l11.6-11.4c0.5-0.5,1.4-0.5,1.9,0c0.5,0.5,0.5,1.4,0,1.9L86.9,48.7
		C86.7,49,86.3,49.1,86,49.1z"/>
	<g>
		<path d="M29.7,79.7c-0.5,0.6-0.4,1.4,0.2,1.9c0.2,0.2,0.5,0.3,0.8,0.3c0.4,0,0.8-0.2,1-0.5l14.9-18.1c-0.4-0.8-0.9-1.7-1.3-2.6
			L29.7,79.7z"/>
		<path d="M81.1,19.4c-0.6-0.5-1.4-0.4-1.9,0.2L61.4,41.2h3.4l16.4-20C81.7,20.6,81.6,19.8,81.1,19.4z"/>
		<path class="st0" d="M68.2,41.2h-3.4h-3.4H43.2c-0.7,0-1.3,0.6-1.3,1.3c0,7.7,1.5,13.6,3.5,18.1c0.4,0.9,0.8,1.8,1.3,2.6
			c1.7,3.2,3.6,5.6,5.1,7.5c1.4,1.8,2.6,3.3,2.6,4.3c0,0.7,0.6,1.3,1.3,1.3s1.3-0.6,1.3-1.3c0-1.2,1.1-2.5,2.7-4.2
			c3.7-4.2,9.9-11.2,9.9-28.3C69.6,41.8,69,41.2,68.2,41.2z M57.7,69.1c-0.8,0.9-1.5,1.7-2,2.5c-0.5-0.7-1.1-1.5-1.8-2.4
			c-1.6-2.1-3.6-4.7-5.4-8.1c-0.4-0.8-0.8-1.7-1.2-2.7c-1.5-3.8-2.6-8.5-2.8-14.5h14.7h3.4h4.3C66.6,59,61.3,65.1,57.7,69.1z"/>
	</g>
	<path class="st0" d="M79.2,91.9H30.8c-0.7,0-1.3-0.6-1.3-1.3V45.9l-8.3,8.9c-0.2,0.3-0.6,0.4-0.9,0.4c-0.4,0-0.7-0.1-1-0.4
		l-13-12.6c-0.3-0.2-0.4-0.6-0.4-0.9c0-0.4,0.1-0.7,0.4-0.9l17.9-17.9c0.2-0.2,4.8-4.3,9.9-4.3h10c0.4,0,0.8,0.2,1.1,0.5
		c0,0.1,4.8,6.4,9.9,6.4c5.2,0,9.9-6.3,9.9-6.4c0.2-0.3,0.6-0.5,1.1-0.5h10c5.1,0,9.7,4,9.9,4.2l18,18c0.3,0.3,0.4,0.6,0.4,0.9
		c0,0.4-0.1,0.7-0.4,0.9l-13,12.6c-0.3,0.2-0.6,0.4-1,0.4c-0.4,0-0.7-0.2-0.9-0.4l-8.3-8.9v44.7C80.6,91.3,80,91.9,79.2,91.9z
		 M32.1,89.2h45.8V42.5c0-0.5,0.3-1,0.8-1.2c0.5-0.2,1.1-0.1,1.5,0.3L89.9,52L101,41.2l-17-17l0,0c0,0-3.9-3.5-8-3.5h-9.3
		c-1.4,1.7-6.1,6.9-11.6,6.9c-5.5,0-10.2-5.2-11.6-6.9H34c-4.1,0-8,3.5-8.1,3.5L9,41.2L20.1,52l9.7-10.4c0.4-0.4,0.9-0.5,1.5-0.3
		c0.5,0.2,0.8,0.7,0.8,1.2V89.2z"/>
</g>
</svg>
