<svg width="110" height="110" xmlns="http://www.w3.org/2000/svg" x="0px" y="0px"
	 viewBox="0 0 110 110" style="enable-background:new 0 0 110 110;" xml:space="preserve">
<style type="text/css">
	.st0{fill:none;}
</style>
<g>
	<path class="st0" d="M62,82.5l0.1,4.1c5.2-1.5,10.7-2.6,16.1-3.2c4.8-0.4,9.6-1.5,14.1-3.2l0.1-4.2c-4.6,1.9-9.6,3.1-14.6,3.6
		C72.5,80.2,67.2,81.1,62,82.5z"/>
	<path class="st0" d="M62,51.8l0.1,4.1c5.2-1.5,10.7-2.6,16.1-3.2c4.8-0.4,9.6-1.5,14.1-3.2l0.1-4.2c-4.6,1.9-9.6,3.1-14.6,3.6
		C72.5,49.5,67.2,50.5,62,51.8z"/>
	<path class="st0" d="M62,59.5l0.1,4.1c5.2-1.5,10.7-2.6,16.1-3.2c4.8-0.4,9.6-1.5,14.1-3.2l0.1-4.2c-4.6,1.9-9.6,3.1-14.6,3.6
		C72.5,57.2,67.2,58.2,62,59.5z"/>
	<path class="st0" d="M63.5,25.2c-1.1-0.2-2.1,1.1-2.4,2.8c-0.3,1.7,0.4,3.2,1.4,3.4c1.1,0.2,2.1-1.1,2.4-2.8
		C65.2,26.9,64.5,25.4,63.5,25.2z"/>
	<path class="st0" d="M54.5,36.4c-2.1-0.4-4-1.5-5.5-3c0,0,2.1,5.2,5.8,5.5c2.4,0.1,4.6-0.9,6.2-2.8C58.7,36.6,56.6,36.7,54.5,36.4z
		"/>
	<path class="st0" d="M62,90.1l0.1,4.1c5.2-1.5,10.7-2.6,16.1-3.2c4.8-0.4,9.6-1.5,14.1-3.2l0.1-4.2c-4.6,1.8-9.6,3.1-14.6,3.6
		C72.5,87.9,67.2,88.8,62,90.1z"/>
	<path class="st0" d="M50.3,26.7c0.3-1.7-0.4-3.2-1.4-3.4c-1.1-0.2-2.1,1.1-2.4,2.8c-0.3,1.7,0.4,3.2,1.4,3.4
		C48.8,29.7,50,28.4,50.3,26.7z"/>
	<path class="st0" d="M62,67.2l0.1,4.1c5.2-1.5,10.7-2.6,16.1-3.2c4.8-0.4,9.6-1.5,14.1-3.2l0.1-4.2c-4.6,1.8-9.6,3.1-14.6,3.6
		C72.5,64.9,67.2,65.8,62,67.2z"/>
	<path class="st0" d="M20.5,67.3c-0.6,0-7.3-0.3-7.3-0.3L13,67.5c-0.8,2.2-1.3,4.4-1.4,6.8c0,2.4,0.3,4.8,0.9,7.2
		c0.2,0.7,0.8,0.6,2.1,0.5c0,0,4.1,0.1,4.8,0.1c0.8,1.2,3.6,5.3,7.2,7c1.5,0.7,5,0.6,5.9,0.5c0.2,0.1,0.4,0.2,0.6,0.3l0,0
		c2.4,1.1,5.4,1.3,6.7-0.1c0.5-0.5,0.8-1.1,0.9-1.8c0-0.1,0-0.2-0.1-0.3c0.1,0,0.1,0,0.1,0c1.1-0.1,2.1-0.7,2.8-1.6
		c0.5-0.7,0.8-1.5,0.9-2.3c0-0.1-0.1-0.2-0.1-0.3c1-0.3,1.8-1.1,2.2-2.1c0.2-0.5,0.3-1.1,0.3-1.6c0-0.3-0.1-0.7-0.3-1
		c1.1-0.7,1.7-1.9,1.8-3.2c0-0.3,0-0.6-0.1-0.9c-0.5-2.3-3.6-4.6-9.5-7.4c-1-0.5-2.1-0.8-3.2-1.1c1.6-1.9,4.4-5.9,4.4-10.3
		c0-4.3-4.2-7.6-5.9-7.7c-0.5-0.1-1,0.3-1.1,0.8l0,0v0.4c-0.2,5.8-1.1,7.1-1.3,7.5c-0.5,0.5-1,0.9-1.6,1.3l-2.8,2.2
		C25.6,61.6,21.5,66.2,20.5,67.3z M38.6,88.9c-0.6,0.7-2.9,0.7-4.9-0.2l0,0c-0.2-0.1-0.4-0.2-0.6-0.3c0,0-0.1,0-0.1-0.1l-0.2-0.1
		h-0.1c-2.1-1-4.2-2.2-4.4-2.7c-0.1-0.6,0.2-1.3,0.7-1.6c2.2,1.4,4.6,2.5,7.2,3.4c0.8,0.3,1.7,0.4,2.5,0.5l0,0
		c0.1,0,0.3,0.1,0.4,0.2C39.2,88,39.2,88.3,38.6,88.9L38.6,88.9z M42.2,85.3c-0.5,0.5-1.2,0.9-1.9,0.9l0,0c-1.2,0.2-2.4,0.1-3.6-0.3
		c-3.1-1.1-7.5-3.2-7.7-4c-0.1-0.8,0.3-1.6,0.9-2c1.6,1.4,5.3,2.8,8.5,3.9c1.5,0.4,3,0.4,4.5,0.1C42.7,84.4,42.5,84.9,42.2,85.3
		L42.2,85.3z M45,81c-0.2,0.7-1.3,1.2-2,1.4c-1.4,0.3-2.8,0.3-4.2,0c-4.9-1.6-8.3-3.3-8.4-4c-0.1-1.6,1.9-2.3,2-2.4
		c1.1,0.9,3.2,1.8,6.5,2.9l1.1,0.4c1.5,0.6,3.2,0.7,4.8,0.3v0.1c0,0,0.1,0,0.1-0.1c0,0,0.2-0.1,0.4-0.1v0.1
		C45.3,80.1,45.2,80.6,45,81L45,81z M30.8,59.3c0.8-0.4,1.5-1,2-1.7c0.7-1.1,1.4-3.5,1.5-7.9c1.2,0.4,4.1,2.7,4.1,6.1
		c0,4.8-4.1,9.5-4.9,10.3l0.5,1.2c1.4,0.2,2.7,0.6,4,1.2c6.7,3,8.4,5.1,8.7,6.4c0,0.2,0.1,0.4,0.1,0.6c0,1.5-1.3,2.3-2,2.7
		c-1.4,0.5-2.9,0.4-4.3-0.2l-1.1-0.4c-4-1.4-6.2-2.5-6.4-3c0.2-1.9,1.4-2.3,2.6-2.4c1.3-0.1,4.3,1.3,5.8,2.3l0.9-1.1
		c-0.4-0.3-4.5-2.9-6.8-2.6c-2.4,0.3-3.6,1.5-3.8,3.7c0,0.1,0,0.2,0,0.3c-0.8,0.4-2.7,1.5-2.6,3.7c0,0.1,0,0.2,0.1,0.3
		c-1.1,0.8-1.7,2.1-1.5,3.5c0.1,0.2,0.2,0.5,0.4,0.7c-0.9,0.7-1.3,1.8-1,2.9c0.2,0.7,1.3,1.5,2.7,2.3c-0.8,0-1.6-0.1-2.4-0.4
		c-3.9-1.7-7-6.8-7-6.9l-0.2-0.3l-5.7-0.1c0,0-0.5,0-0.8,0C13.3,78.7,13,76.9,13,75c0-0.2,0-0.4,0-0.6c0.1-2,0.5-3.9,1.2-5.9
		c0.9,0,7,0.3,7,0.3l0.2-0.2c0-0.1,5.1-5.7,6.9-7.2L30.8,59.3z"/>
	<path d="M38.8,87.9L38.8,87.9c-0.9-0.1-1.7-0.2-2.5-0.5c-2.5-0.9-4.9-2-7.2-3.4c-0.6,0.3-0.8,1-0.7,1.6c0.3,0.5,2.3,1.7,4.4,2.7
		h0.1l0.2,0.1c0,0,0.1,0,0.1,0.1c0.2,0.1,0.4,0.2,0.6,0.3l0,0c2,0.9,4.3,1,4.9,0.2c0.6-0.7,0.5-0.9,0.5-0.9
		C39,87.9,38.9,87.9,38.8,87.9z"/>
	<path d="M80.8,41.7c-7.9,0.8-15.7,2-23.5,3.6v54.6c8.1-1.6,16.1-2.8,24.3-3.6c10.4-0.7,16.7-4.5,18.2-5.7c0-3.3,0.2-46.5,0.2-53.8
		C93.9,39.5,87.5,41.2,80.8,41.7z M92.3,87.9c-4.5,1.7-9.3,2.7-14.1,3.2c-5.4,0.6-10.9,1.7-16.1,3.2L62,90.2
		c5.2-1.3,10.5-2.3,15.9-2.8c5-0.6,9.9-1.8,14.6-3.6L92.3,87.9z M92.3,80.2c-4.5,1.7-9.3,2.7-14.1,3.2c-5.4,0.6-10.9,1.7-16.1,3.2
		L62,82.5c5.2-1.3,10.5-2.3,15.9-2.8c5-0.6,9.9-1.8,14.6-3.6L92.3,80.2z M92.3,64.9c-4.5,1.7-9.3,2.7-14.1,3.2
		c-5.4,0.6-10.9,1.7-16.1,3.2L62,67.2c5.2-1.3,10.5-2.3,15.9-2.8c5-0.6,9.9-1.8,14.6-3.6L92.3,64.9z M92.3,57.2
		c-4.5,1.7-9.3,2.7-14.1,3.2c-5.4,0.6-10.9,1.7-16.1,3.2L62,59.5c5.2-1.3,10.5-2.3,15.9-2.8c5-0.6,9.9-1.8,14.6-3.6L92.3,57.2z
		 M92.3,49.5c-4.5,1.7-9.3,2.7-14.1,3.2c-5.4,0.6-10.9,1.7-16.1,3.2L62,51.8c5.2-1.3,10.5-2.3,15.9-2.8c5-0.6,9.9-1.8,14.6-3.6
		L92.3,49.5z"/>
	<path d="M21.3,68.5l-0.2,0.2c0,0-6.1-0.2-7-0.3c-0.6,1.9-1,3.9-1.1,6c0,0.2,0,0.4,0,0.6c0.1,1.9,0.3,3.8,0.7,5.7c0.3,0,0.8,0,0.8,0
		l5.7,0.1l0.2,0.3c0,0.1,3,5,6.8,6.8c0.8,0.3,1.6,0.4,2.4,0.4c-1.4-0.8-2.5-1.6-2.7-2.3c-0.2-1.1,0.2-2.2,1-2.9
		c-0.2-0.2-0.3-0.4-0.4-0.7c-0.2-1.3,0.4-2.7,1.5-3.5c0-0.1,0-0.2-0.1-0.3c-0.1-2.2,1.8-3.3,2.6-3.7c0-0.1,0-0.2,0-0.3
		c0.2-2.2,1.5-3.5,3.8-3.7c2.2-0.2,6.4,2.3,6.8,2.6l-0.9,1.1c-1.4-1.1-4.4-2.5-5.8-2.3c-1.2,0.1-2.4,0.5-2.6,2.4
		c0.2,0.6,2.3,1.6,6.4,3l1.1,0.4c1.4,0.6,2.9,0.6,4.3,0.2c0.7-0.4,2-1.2,2-2.7c0-0.2,0-0.4-0.1-0.6c-0.3-1.2-2-3.3-8.7-6.4
		c-1.3-0.6-2.6-1-4-1.2L33.3,66c1.1-0.7,5.2-5.2,5.2-10.2c0-3.3-3-5.7-4.1-6.1c-0.2,4.2-0.8,6.7-1.5,7.9c-0.5,0.7-1.2,1.3-2,1.7
		l-2.5,2C26.4,62.8,21.4,68.4,21.3,68.5z"/>
	<path d="M10,36.8c0,3.2,0,13,0.1,23.4c0.1,13.7,0.1,28.6,0.1,30.5c1.4,1.1,7.9,4.8,18.6,5.8c8.1,0.7,16.1,1.9,24.1,3.4V45.2
		c-7.7-1.6-15.4-2.7-23.2-3.5C22.8,41.2,16.2,39.5,10,36.8z M31.6,56.8c0.3-0.4,1.2-1.8,1.3-7.5v-0.4c0.1-0.5,0.6-0.9,1.1-0.8l0,0
		c1.7,0.1,5.9,3.3,5.9,7.7c0,4.4-2.8,8.4-4.4,10.3c1.1,0.2,2.2,0.6,3.2,1.1c5.9,2.6,9,5,9.5,7.4c0.1,0.3,0.1,0.6,0.1,0.9
		c-0.1,1.3-0.7,2.5-1.8,3.2c0.2,0.3,0.3,0.6,0.3,1c0,0.6-0.1,1.1-0.3,1.6c-0.4,1-1.2,1.8-2.2,2.1c0,0.1,0.1,0.2,0.1,0.3
		c-0.1,0.8-0.4,1.6-0.9,2.3c-0.7,0.9-1.7,1.5-2.8,1.6c0,0,0,0-0.1,0c0,0.1,0.1,0.2,0.1,0.3c-0.1,0.7-0.4,1.3-0.9,1.8
		c-1.2,1.4-4.2,1.2-6.7,0.1l0,0c-0.2-0.1-0.4-0.2-0.6-0.3c-0.8,0-4.3,0.1-5.9-0.5c-3.5-1.6-6.4-5.8-7.2-7c-0.7,0-4.7-0.1-4.8-0.1
		c-1.3,0.1-1.9,0.1-2.1-0.5c-0.6-2.3-0.9-4.7-0.9-7.2c0.1-2.3,0.6-4.6,1.4-6.8l0.2-0.5c0,0,6.7,0.2,7.3,0.3c1-1,5.1-5.5,6.8-7.1
		l2.7-2.1C30.6,57.7,31.1,57.3,31.6,56.8z"/>
	<path d="M38.4,83.8c-3.1-1-6.9-2.4-8.5-3.9c-0.6,0.5-1,1.2-0.9,2c0.3,0.8,4.5,2.9,7.7,4c1.1,0.4,2.4,0.5,3.6,0.3l0,0
		c0.7,0,1.4-0.4,1.9-0.9c0.3-0.4,0.5-0.9,0.7-1.5C41.4,84.2,39.8,84.1,38.4,83.8z"/>
	<path d="M44.9,79.7l-0.1,0.1v-0.1c-1.6,0.4-3.3,0.3-4.8-0.3L38.9,79c-3.2-1.1-5.3-2-6.5-2.9c-0.1,0-2.1,0.7-2,2.4
		c0.2,0.7,3.4,2.4,8.4,4c1.4,0.3,2.8,0.3,4.2,0c0.7-0.2,1.8-0.7,2-1.4c0.1-0.4,0.2-0.8,0.2-1.3v-0.1C45.1,79.6,44.9,79.7,44.9,79.7z
		"/>
	<path d="M71.8,34.7c1.9-11.9-4.1-22.9-13.6-24.4c-9.1-1.4-17.5,6.9-19.4,19.3c-0.5,2.8-0.5,5.8-0.1,8.7c8.1,1.1,14.7,2.5,16.6,2.9
		c1.8-0.4,8-1.7,15.6-2.8C71.4,37.1,71.6,35.9,71.8,34.7z M46.3,26.1c0.3-1.7,1.3-3,2.4-2.8c1.1,0.2,1.7,1.7,1.4,3.4
		c-0.3,1.7-1.4,3-2.4,2.8C46.7,29.3,46.1,27.8,46.3,26.1z M54.7,38.8c-3.6-0.3-5.8-5.5-5.8-5.5c1.5,1.5,3.4,2.6,5.5,3
		c2.1,0.3,4.3,0.2,6.5-0.3C59.4,37.9,57.1,39,54.7,38.8z M64.9,28.6c-0.3,1.7-1.4,3-2.4,2.8c-1.1-0.2-1.7-1.7-1.4-3.4
		c0.3-1.7,1.3-3,2.4-2.8C64.5,25.4,65.2,26.9,64.9,28.6z"/>
</g>
</svg>
