<svg width="110" height="110" xmlns="http://www.w3.org/2000/svg" x="0px" y="0px"
	 viewBox="0 0 110 110" style="enable-background:new 0 0 110 110;" xml:space="preserve">
<style type="text/css">
	.st0{fill:#FFFFFF;}
</style>
<g>
	<path d="M42.3,75.1c-0.5,0-1-0.3-1.3-0.7l-4.8-7.4c-0.4-0.6-2-2.5-3.5-2.5c-0.5,0-1,0.3-1.2,0.7c-0.2,0.3-0.3,0.7,0,1.3l2.6,4.7
		c0.4,0.8,0.1,1.7-0.6,2.1c-0.8,0.4-1.7,0.1-2.1-0.6l-2.7-4.8c-0.8-1.5-0.7-3.1,0.1-4.4c0.8-1.3,2.3-2.1,3.9-2.1
		c3.5,0,5.8,3.5,6.1,3.9l4.8,7.4c0.5,0.7,0.3,1.7-0.5,2.2C42.8,75,42.6,75.1,42.3,75.1z"/>
	<path class="st0" d="M69.2,33.4c0-0.4-0.1-0.7-0.1-1.1v-7.1c0.1-0.4,0.1-0.7,0.1-1.1c0-5.4-8.5-9.4-19.8-9.4s-19.8,4-19.8,9.4v37.1
		c0,0.1,0,0.1,0,0.2l0,0c0,0.3,0.1,0.6,0.1,0.9l0,0c0,0,0,0,0,0c0,0.1,0,0.1,0,0.2c1.3,4.7,9.5,8,19.6,8c10.8,0,19.6-4.4,19.6-9.8
		c0-0.1,0-0.2,0-0.4c0,0,0-0.1,0-0.1c0,0,0,0,0,0v-0.1c0-0.7,0-1.1,0-1.4v-15c0.1-0.4,0.1-0.7,0.1-1.1c0-0.4-0.1-0.7-0.1-1.1v-7.1
		C69.2,34.2,69.2,33.8,69.2,33.4z M32.8,38.6c0.4,0.3,0.8,0.5,1.2,0.8c3.7,2.2,9.3,3.4,15.4,3.4s11.7-1.2,15.4-3.4
		c0.4-0.2,0.7-0.5,1.1-0.7v4.7c-0.3,0.9-1.2,1.8-2.7,2.6c-3.2,1.9-8.4,3-13.9,3c-9.5,0-16.7-3.3-16.7-6.3V38.6z M66,34.1
		c-0.3,0.9-1.2,1.8-2.6,2.6c-3.2,1.9-8.4,3-13.9,3s-10.7-1.1-13.9-3c-1.8-1-2.8-2.2-2.8-3.3v-4.1c3.5,2.6,9.5,4.2,16.7,4.2
		c6.1,0,11.7-1.2,15.4-3.4c0.4-0.2,0.7-0.5,1.1-0.7V34.1z M32.8,47.9c3.5,2.6,9.5,4.2,16.7,4.2c6.1,0,11.7-1.2,15.4-3.4
		c0.4-0.2,0.7-0.5,1.1-0.7v4.7c-0.3,0.9-1.2,1.8-2.6,2.6c-3.2,1.9-8.4,3-13.9,3c-9.5,0-16.7-3.3-16.7-6.3V47.9z M49.4,17.9
		c9.5,0,16.7,3.3,16.7,6.3c0,0.2,0,0.3-0.1,0.5c-0.3,0.9-1.2,1.9-2.7,2.8c-3.2,1.9-8.4,3-13.9,3c-9.5,0-16.7-3.3-16.7-6.3
		C32.8,21.2,39.9,17.9,49.4,17.9z M65.9,60.9c0,3.1-7.2,6.7-16.5,6.7c-9.2,0-15.7-2.9-16.6-5.7l-0.1-0.7v-4
		c3.5,2.6,9.5,4.2,16.7,4.2c6.1,0,11.7-1.2,15.4-3.4c0.4-0.2,0.7-0.5,1.1-0.7v1.3c0,0.1,0,0.3,0,0.4v1.2c0,0.1,0,0.1,0,0.2
		C65.9,60.6,65.9,60.8,65.9,60.9z"/>
	<path d="M93.2,61.9H81.5c-0.9,0-1.6,0.7-1.6,1.6v4.3H73c0,0-4.5,0-7.9-1.5c-3.5-1.5-9.7-3.5-10.7-3.7c-6.6-3.1-10.7-3.9-12.3-2.3
		c-1.8,1.8-1.9,3.4-1.6,4.5c0.7,3.4,5.3,5.3,5.8,5.5l4.2,1.9c-1,0.5-2.1,0.9-3,0.9c-0.3,0-0.6,0-0.9,0c-2.4,0-6.1,0.1-19.4-3.7
		c-0.5-0.1-1-0.3-1.6-0.5C23,68,20,67,17.7,68.4c-1.2,0.7-2.1,2-2.4,3.8c0,0.2,0,0.4,0,0.6c0.7,4,2.5,6.5,10.6,9.2
		c5.3,1.8,18.3,5.9,23.3,5.9c1.8,0,5.5,0.2,9.4,0.5c4.9,0.3,10,0.7,13.3,0.7c1.1,0,1.9,0,2.5-0.1c2.1-0.3,4.1-1.5,5.6-2.7v7.6
		c0,0.9,0.7,1.6,1.6,1.6h11.7c0.9,0,1.6-0.7,1.6-1.6V63.4C94.8,62.6,94.1,61.9,93.2,61.9z M73.9,85.8c-2.1,0.3-9.3-0.2-15.1-0.6
		c-4.1-0.3-7.7-0.5-9.6-0.5c-3.7,0-14-3-22.3-5.8c-7.5-2.5-8.1-4.3-8.5-6.4c0.3-1.1,0.7-1.3,0.9-1.4c1.1-0.7,3.5,0.1,5.5,0.8
		c0.6,0.2,1.2,0.4,1.7,0.5c13.8,3.9,17.7,3.8,20.3,3.8c0.3,0,0.5,0,0.8,0c3.1,0,6.9-2.6,7.3-2.9c0.5-0.3,0.7-0.9,0.6-1.4
		c-0.1-0.6-0.4-1-0.9-1.3l-7-3.2c-1.2-0.5-3.7-1.9-4-3.2c0-0.2-0.1-0.7,0.7-1.5c1.1-0.2,5.2,1.1,8.9,2.9c0.1,0,0.1,0.1,0.2,0.1
		c0.1,0,6.9,2.1,10.5,3.7c4,1.7,8.9,1.7,9.1,1.7H80v11.1C78.8,83.2,76.2,85.4,73.9,85.8z M91.6,92.1h-8.6V65h8.6V92.1z"/>
</g>
</svg>
