<?xml version="1.0" encoding="utf-8"?>
<!-- Generator: Adobe Illustrator 28.3.0, SVG Export Plug-In . SVG Version: 6.00 Build 0)  -->
<svg version="1.1" id="ds44-icons" xmlns="http://www.w3.org/2000/svg" xmlns:xlink="http://www.w3.org/1999/xlink" x="0px" y="0px"
	 viewBox="0 0 110 110" style="enable-background:new 0 0 110 110;" xml:space="preserve">
<style type="text/css">
	.st0{fill:#181716;}
</style>
<g>
	<path class="st0" d="M24.8,28.1h60.4c1.1,0,1.9-0.9,1.9-1.9c0-1.1-0.9-1.9-1.9-1.9H58.5V13.3l4.6,4.6v-5.6l-6.6-6.6l0,0L50,12.3
		v5.6l4.6-4.6v10.9H24.8c-1.1,0-1.9,0.9-1.9,1.9C22.9,27.2,23.7,28.1,24.8,28.1L24.8,28.1z"/>
	<path class="st0" d="M85.2,81.9H24.8c-1.1,0-1.9,0.9-1.9,1.9c0,1.1,0.9,1.9,1.9,1.9h26.7v11l-4.6-4.6v5.6l6.6,6.6l6.6-6.6v-5.6
		l-4.6,4.6v-11h29.8c1.1,0,1.9-0.9,1.9-1.9C87.1,82.8,86.3,81.9,85.2,81.9L85.2,81.9z"/>
	<path class="st0" d="M40.6,77.9c1.1,0,2-0.9,2-2V48.5c0.4,2.3,1.3,8,1.7,10.3c0.2,1,1,1.7,1.9,1.7c0.1,0,0.2,0,0.3,0
		c1.1-0.2,1.8-1.2,1.6-2.2v0c-0.2-1-1.6-9.9-1.9-11.4c-0.8-3.7-4.1-3.7-5.9-3.7h-5.2c-1.8,0-5,0-5.9,3.7c-0.3,1.5-1.7,10.4-1.9,11.4
		c-0.2,1.1,0.6,2.1,1.6,2.2c1.1,0.2,2.1-0.6,2.2-1.6c0.4-2.3,1.3-8.1,1.7-10.3v27.5c0,1.1,0.9,2,2,2c1.1,0,2-0.9,2-2V62.2h1.7v13.8
		C38.6,77,39.5,77.9,40.6,77.9L40.6,77.9z"/>
	<circle class="st0" cx="37.8" cy="37.3" r="4.4"/>
	<circle class="st0" cx="61.7" cy="67" r="2.1"/>
	<circle class="st0" cx="62.3" cy="41.7" r="4.4"/>
	<path class="st0" d="M75.5,71.5c0.3,0.9,1.1,1.5,2.1,1.5H82c1.4,0,2.5-1.3,2.1-2.7c-0.2-1-1.2-1.6-2.2-1.6l0.1,0h-2.8l-2.4-7.6
		c-0.3-0.9-1.1-1.5-2.1-1.5h-4.6c-0.8-0.9-1.8-1.7-2.9-2.4l-0.1-0.3h4.8c1,0,2-0.6,2.2-1.6c0.3-1.4-0.7-2.7-2.1-2.7h-6.1L65,49.2
		c-0.3-1-1.1-1.7-2.2-1.7c-1.5,0-2.4,1.4-2.1,2.7l1.3,4.7c0,0.3,0.1,0.5,0.2,0.7l0,0.2h-0.5c-0.5,0-0.9,0-1.4,0.1l-1-3.9
		C59.1,51.5,58.6,51,58,51c-1,0-1.7,0.9-1.5,1.8l1,3.9c-4,1.6-6.9,5.6-6.9,10.3c0,5.8,4.8,10.8,10.6,11c6.3,0.3,11.5-4.8,11.5-11
		c0-1-0.1-2-0.4-2.9h0.7L75.5,71.5L75.5,71.5z M61.8,74.9c-4.4,0-8-3.6-8-8c0-4.4,3.6-8,8-8s8,3.6,8,8
		C69.8,71.3,66.2,74.9,61.8,74.9z"/>
	<ellipse class="st0" cx="81.3" cy="33.8" rx="2.1" ry="2.2"/>
	<ellipse class="st0" cx="81.3" cy="40.5" rx="2.1" ry="2.2"/>
	<ellipse class="st0" cx="81.3" cy="47.1" rx="2.1" ry="2.2"/>
</g>
</svg>
