<svg width="110" height="110" xmlns="http://www.w3.org/2000/svg" x="0px" y="0px"
	 viewBox="0 0 110 110" style="enable-background:new 0 0 110 110;" xml:space="preserve">
<style type="text/css">
	.st0{fill:#FFFFFF;}
</style>
<g>
	<path d="M88.7,28.7H75.9c-0.2-6.4-5.5-11.5-11.9-11.5H46.1c-6.5,0-11.7,5.1-11.9,11.5H21.3c-7,0-12.7,5.7-12.7,12.7v38.8
		c0,7,5.7,12.7,12.7,12.7h67.5c7,0,12.7-5.7,12.7-12.7V41.4C101.4,34.4,95.7,28.7,88.7,28.7z M46.1,20.2h17.9c4.8,0,8.7,3.8,8.9,8.5
		h-1.7c-0.6-4-4.1-7-8.2-7H47c-4.1,0-7.6,3-8.2,7h-1.7C37.4,24,41.3,20.2,46.1,20.2z M68.1,28.7H41.9c0.6-2.3,2.7-4,5.2-4H63
		C65.4,24.7,67.5,26.4,68.1,28.7z M98.4,80.2c0,5.3-4.3,9.7-9.7,9.7H21.3c-5.3,0-9.7-4.3-9.7-9.7V41.4c0-5.3,4.3-9.7,9.7-9.7h67.5
		c5.3,0,9.7,4.3,9.7,9.7V80.2z"/>
	<path class="st0" d="M78.5,49.6c-6.2-1-11.3-0.1-15.2,2.8c-3,2.2-5.1,5.6-6.5,10c0.2-3.7-0.5-7-2.2-9.9
		c-6-10.3-21.6-12.1-22.3-12.2l-1.4-0.1l-0.3,1.4c-3.6,19.2,14.8,28.7,20.3,31.1l0.5,10.8l3-0.1l-0.2-4h0.2c0-2.3,1-5.3,2.9-8.2
		c1.5,0.3,2.9,0.4,4.2,0.4c3.9,0,7.3-1.1,10.2-3.3c7.3-5.7,8-16.6,8-17.1l0.1-1.3L78.5,49.6z M33.4,43.6c3.8,0.7,14.3,3.2,18.6,10.5
		c2,3.5,2.4,7.6,1.2,12.5c-1.2-5.1-4.7-14.2-13.7-16.9l-0.9,2.9c8.8,2.6,11.4,13.4,12,16.7c-2.3-1.1-5.6-2.9-8.8-5.6
		C35.3,58,32.4,51.3,33.4,43.6z M69.9,65.9c-2.8,2.1-6.3,3-10.5,2.5c2.9-3.3,7-6.3,12.4-7.8L71,57.7c-4.7,1.3-8.5,3.6-11.4,6.3
		c1.2-4.1,3-7.2,5.6-9.2c2.9-2.2,6.7-3,11.5-2.5C76.2,55.3,74.7,62.1,69.9,65.9z"/>
</g>
</svg>
