<svg width="110" height="110" xmlns="http://www.w3.org/2000/svg" x="0px" y="0px"
	 viewBox="0 0 110 110" style="enable-background:new 0 0 110 110;" xml:space="preserve">
<g>
	<path d="M-43.5,65.7l0.3-0.3c4.4-5.9,6.8-12.9,6.8-20.1c-0.1-18.6-15.2-33.7-33.8-33.7s-33.7,15.1-33.7,33.6
		c0,18.6,15.1,33.7,33.7,33.7c7.3,0,14.4-2.3,20.1-6.8l0.3-0.3l25.7,25.8l6.2-6.2L-43.5,65.7z M-47.5,70.2l1.8-1.8l0.8-0.8l24,24
		l-3,3l-24-24L-47.5,70.2z M-38.7,45.2c0,17.4-14.1,31.4-31.4,31.4s-31.5-14-31.5-31.4s14.1-31.4,31.4-31.4S-38.7,27.9-38.7,45.2z"
		/>
</g>
<g>
	<g>
		<path d="M44.1,13.4c13.2,0,25.1,8.4,29.4,20.9l0.3,1l1,0.3C87.9,39.6,97,51.8,97,65.4c0,17.2-14,31.1-31.1,31.1
			c-13.2,0-25.1-8.4-29.4-20.9l-0.3-1l-1-0.3C22.1,70.4,13,58.2,13,44.6C13,27.4,27,13.4,44.1,13.4 M44.1,72.6L44.1,72.6L44.1,72.6
			c0.3,0,0.6,0,0.9,0c5.4-0.2,10.6-1.9,15-4.9l0.2-0.1c0.5-0.3,0.9-0.7,1.3-1c2.7-2.1,4.9-4.7,6.7-7.7c0.5-0.8,0.9-1.6,1.3-2.5
			c1.7-3.7,2.6-7.7,2.6-11.7c0-15.4-12.6-28-28-28c-15.4,0-28,12.6-28,28c0,6.7,2.4,13.2,6.8,18.3s10.5,8.4,17.1,9.4
			C41.4,72.5,42.8,72.6,44.1,72.6 M76.2,55.3c-0.2,0-0.4,0-0.6-0.1l-1.9-0.8L73,56.3c-0.7,1.7-1.6,3.4-2.6,5l-0.1,0.2l-0.1,0.3
			c-0.1,0.3-0.3,0.6-0.5,0.8l-0.2,0.2L69.2,63c-0.4,0.6-0.9,1.2-1.4,1.8l-2.2,2.6L69,68c0.7,0.1,1.3,0.8,1.3,1.5
			c0,0.9-0.7,1.6-1.6,1.6L62.5,70l-3.6,2l2.4,2.6c2.2,1.9,5,2.9,7.9,2.9c2.2,0,4.4-0.6,6.3-1.7c0.2-0.2,0.5-0.2,0.8-0.2
			c0.6,0,1.1,0.3,1.3,0.8c0.2,0.4,0.3,0.8,0.2,1.2c-0.1,0.4-0.4,0.8-0.7,1c-2.4,1.4-5.1,2.2-7.9,2.2c-4.8,0-9.3-2.3-12.2-6.1
			l-0.9-1.2l-1.4,0.5c-3.4,1.2-6.9,1.8-10.6,1.8c-0.4,0-0.7,0-1.1,0l-3.5-0.1l1.6,3.1c4.9,9.1,14.3,14.8,24.7,14.8
			c15.4,0,28-12.6,28-28c0-10.7-6.2-20.6-15.8-25.2l-3.1-1.5l0.3,3.5c0.1,0.8,0.1,1.6,0.1,2.4c0,1.7-0.1,3.4-0.4,5.1l-0.2,1.5
			l1.3,0.7c0.4,0.2,0.8,0.4,1.1,0.6c0.7,0.4,0.9,1.2,0.6,1.9C77.4,54.9,76.9,55.3,76.2,55.3"/>
	</g>
	<g>
		<path d="M47.4,29.3c2.8,0,5.5,0.8,7.8,2.2c0.7,0.5,1,1.4,0.5,2.1c-0.3,0.5-0.8,0.8-1.4,0.8c-0.3,0-0.5-0.1-0.8-0.2
			c-0.3-0.2-0.6-0.4-1-0.6c-1.6-0.8-3.4-1.2-5.2-1.2c-2.9,0-6,0.9-8.2,2.8l-3.1,3.4l4.7,0.2h6c0.9,0,1.6,0.7,1.6,1.6
			c0,0.9-0.7,1.6-1.6,1.6h-9.6h-1.8l-0.1,1.8c0,0.2,0,0.5,0,0.7c0,0.1,0,0.2,0,0.3c0,0.1,0,0.1,0,0.2v2h2h9.6c0.9,0,1.6,0.7,1.6,1.6
			s-0.7,1.6-1.6,1.6h-6l-4.3-0.1l3,3.6c2.2,1.9,5,2.9,7.9,2.9c2.2,0,4.4-0.6,6.2-1.7c0.3-0.2,0.5-0.2,0.8-0.2c0.6,0,1.1,0.3,1.3,0.7
			c0.4,0.7,0.2,1.7-0.5,2.2c-1.1,0.6-2.2,1.2-3.4,1.5c-1.5,0.4-3,0.7-4.5,0.7c-0.8,0-1.5-0.1-2.3-0.2c-1.4-0.2-2.7-0.6-3.9-1.2
			c-3.2-1.4-5.8-4-7.4-7.1l-0.6-1.1H32h-5.3c-0.9,0-1.6-0.7-1.6-1.6s0.7-1.6,1.6-1.6h3.5h2v-2v-0.5V44v-2h-2h-3.5
			c-0.9,0-1.6-0.7-1.6-1.6c0-0.9,0.7-1.6,1.6-1.6H32h1.2l0.6-1.1c0.2-0.4,0.4-0.8,0.6-1.1C37.2,32.1,42.1,29.3,47.4,29.3"/>
	</g>
</g>
</svg>
