<svg width="110" height="110" version="1.1" id="ds44-icons" xmlns="http://www.w3.org/2000/svg" xmlns:xlink="http://www.w3.org/1999/xlink" x="0px" y="0px"
	 viewBox="0 0 110 110" style="enable-background:new 0 0 110 110;" xml:space="preserve">
<g>
	<path d="M90.2,50.7c2.1,0,3.9-1.7,3.9-3.9c0-2.1-1.7-3.9-3.9-3.9s-3.9,1.7-3.9,3.9C86.3,49,88,50.7,90.2,50.7z"/>
	<path d="M101.2,64.3L101.2,64.3l-4.1-8.6c-0.5-1.2-2-3.1-4.7-3.1h-4.5c-2.6,0-4.2,1.9-4.7,3.1l-1.8,3.9c-0.3-2-0.7-3.9-0.8-4.5
		c-0.7-3.2-3.5-3.2-5.1-3.2H63.6l-3.4-7.1c-0.7-1.7-2.8-4.3-6.5-4.3h-6.2c-3.7,0-5.8,2.7-6.5,4.3l-3.6,7.6l-3.6-7.5
		c-0.7-1.6-2.8-4.3-6.5-4.3h-6.2c-3.7,0-5.8,2.7-6.5,4.3l-5.7,12c-0.6,1.2-0.1,2.6,1.1,3.1s2.6,0.1,3.1-1.1l5.4-11.2v32.1
		c0,1.3,1,2.3,2.3,2.3c1.3,0,2.3-1,2.3-2.3V63.1h2v16.4c0,1.3,1,2.3,2.3,2.3c1.3,0,2.3-1,2.3-2.3V47.5l5.4,11.2
		c0.4,0.8,1.2,1.3,2.1,1.3c0.3,0,0.7-0.1,1-0.2c0.3-0.2,0.6-0.4,0.8-0.7c0-0.1,0.1-0.1,0.1-0.2c0,0,0-0.1,0.1-0.1
		c0-0.1,0.1-0.1,0.1-0.2l5.4-11.2c0.1-0.1,0.3-0.2,0.4-0.1c0.2,0.1,0.3,0.3,0.2,0.5L40,68h4.9v11.5c0,1.3,1,2.4,2.4,2.4
		s2.4-1,2.4-2.4V68h2v11.5c0,1.3,1,2.4,2.4,2.4c1.3,0,2.4-1,2.4-2.4V68h4.9l-5.6-20.2c-0.1-0.2,0-0.4,0.2-0.5s0.4,0,0.4,0.1
		l5.4,11.2c0.6,1.2,1.9,1.7,3.1,1.1c1.2-0.5,1.7-1.9,1.1-3.1l0,0l-0.7-1.4h3.9v25c0,0.9,0.8,1.7,1.7,1.7c0.9,0,1.7-0.8,1.7-1.7V68.3
		H74v11.9c0,0.9,0.8,1.7,1.7,1.7s1.7-0.8,1.7-1.7V56.4c0.4,2,1.2,6.9,1.5,9c0.1,0.8,0.9,1.4,1.7,1.4c0.1,0,0.2,0,0.3,0
		c0.4-0.1,0.7-0.3,1-0.5c0,0,0,0,0,0c0,0,0,0,0,0c0,0,0.1-0.1,0.1-0.1c0,0,0.1-0.1,0.1-0.1c0,0,0,0,0-0.1c0,0,0.1-0.1,0.1-0.1
		l3.9-8.1c0.1-0.1,0.2-0.1,0.3-0.1c0.1,0,0.2,0.2,0.1,0.4l-4,14.6H86v8.3c0,0.9,0.7,1.7,1.7,1.7s1.7-0.7,1.7-1.7v-8.3h1.4v8.3
		c0,0.9,0.7,1.7,1.7,1.7c1,0,1.7-0.7,1.7-1.7v-8.3h3.5l-4-14.6c0-0.1,0-0.3,0.1-0.4c0.1,0,0.3,0,0.3,0.1l3.9,8.1
		c0.4,0.8,1.4,1.2,2.3,0.8C101.2,66.1,101.6,65.1,101.2,64.3L101.2,64.3z"/>
	<circle cx="24.2" cy="33" r="5.4"/>
	<path d="M50.6,38.3c3,0,5.4-2.4,5.4-5.4s-2.4-5.4-5.4-5.4s-5.4,2.4-5.4,5.4S47.6,38.3,50.6,38.3L50.6,38.3z"/>
	<path d="M73.3,49.9c2.2,0,3.9-1.8,3.9-3.9c0-2.2-1.8-3.9-3.9-3.9s-3.9,1.8-3.9,3.9C69.3,48.2,71.1,49.9,73.3,49.9z"/>
</g>
</svg>
