<?xml version="1.0" encoding="utf-8"?>
<!-- Generator: Adobe Illustrator 28.3.0, SVG Export Plug-In . SVG Version: 6.00 Build 0)  -->
<svg version="1.1" id="ds44-icons" xmlns="http://www.w3.org/2000/svg" xmlns:xlink="http://www.w3.org/1999/xlink" x="0px" y="0px"
	 viewBox="0 0 110 110" style="enable-background:new 0 0 110 110;" xml:space="preserve">
<path d="M96,50.7L96,50.7c-3.7-3.7-8.5-5.7-13.7-5.7c-2.1,0-4.3,0.4-6.3,1l-8.1-17c-0.8-1.6-2.4-2.6-4.1-2.6H59
	c-1.2,0-2.1,0.9-2.1,2.1s0.9,2.1,2.1,2.1h4.9c0.1,0,0.3,0.1,0.3,0.2l2.2,4.5l-21.1-0.1L45,34.4h0.4c1.2,0,2.1-0.9,2.1-2.1
	c0-1.2-0.9-2.1-2.1-2.1H38c-1.2,0-2.1,0.9-2.1,2.1c0,1.2,0.9,2.1,2.1,2.1h2.5l1,2.6l-5.8,9.6c-2.4-1.1-5.1-1.7-7.9-1.7
	C17,45,8.3,53.7,8.3,64.3c0,5.2,2,10,5.6,13.6c3.7,3.7,8.5,5.7,13.8,5.7c9.8,0,18-7.2,19.2-16.8h7.4c0.8,0,1.4-0.4,1.8-1.1
	l13.2-23.9l2.9,6.1c-1.3,0.8-2.5,1.7-3.5,2.7C65,54.2,63,59,63,64.2s2,10,5.6,13.6c3.7,3.7,8.5,5.7,13.8,5.7
	c10.6,0,19.2-8.6,19.4-19.2C101.6,59.2,99.6,54.4,96,50.7L96,50.7z M83.2,66.1c1-0.5,1.4-1.6,1-2.7L77.9,50c1.6-0.4,3-0.7,4.6-0.7
	c4.1,0,7.9,1.6,10.7,4.5c2.9,2.9,4.4,6.6,4.4,10.7c-0.1,8.2-6.9,14.9-15.3,14.9c-4.1,0-7.9-1.6-10.8-4.5c-2.8-2.8-4.4-6.6-4.4-10.6
	s1.6-7.8,4.5-10.6c0.8-0.8,1.5-1.4,2.4-1.9l6.4,13.4c0.4,0.7,1.1,1.2,1.9,1.2C82.5,66.4,82.9,66.4,83.2,66.1L83.2,66.1z M25.4,63.6
	c-0.4,0.7-0.4,1.4,0,2.1c0.4,0.7,1.1,1,1.8,1h15.4c-1.2,7.3-7.6,12.7-15,12.7c-4.1,0-7.9-1.6-10.8-4.5c-2.8-2.8-4.4-6.6-4.4-10.6
	c0-8.2,6.8-15,15.3-15c1.9,0,3.8,0.4,5.7,1.1L25.4,63.6L25.4,63.6z M37.2,52.7c0.4,0.3,0.8,0.6,1.2,1c2.3,2.3,3.8,5.5,4.2,8.8H30.9
	l6.1-10C37.1,52.6,37.1,52.7,37.2,52.7L37.2,52.7z M51.2,62.5h-4.4c-0.4-4.5-2.3-8.6-5.5-11.8c-0.7-0.7-1.4-1.3-2.1-1.8l4.1-6.8
	L51.2,62.5L51.2,62.5z M65.8,39.7l-11.2,20L47,39.6L65.8,39.7L65.8,39.7z"/>
</svg>
