<svg width="110" height="110" version="1.1" id="ds44-icons" xmlns="http://www.w3.org/2000/svg" xmlns:xlink="http://www.w3.org/1999/xlink" x="0px" y="0px"
	 viewBox="0 0 110 110" style="enable-background:new 0 0 110 110;" xml:space="preserve">
<style type="text/css">
	.st0{fill:#181716;}
</style>
<g id="Calque_9">
	<path class="st0" d="M96.4,27.9H13.6c-3,0-5.5,2.5-5.5,5.5v43.2c0,3,2.5,5.5,5.5,5.5h82.8c3,0,5.5-2.5,5.5-5.5V33.4
		C101.9,30.4,99.4,27.9,96.4,27.9L96.4,27.9z M98.9,76.6c0,1.4-1.1,2.5-2.5,2.5H13.6c-1.4,0-2.5-1.1-2.5-2.5V48.7h87.8V76.6
		L98.9,76.6z M98.9,38.4H11.1v-5c0-1.4,1.1-2.5,2.5-2.5h82.8c1.4,0,2.5,1.1,2.5,2.5V38.4L98.9,38.4z"/>
	<path class="st0" d="M36.7,64.6h4v4h-4V64.6L36.7,64.6z"/>
	<path class="st0" d="M51.8,64.6h2v4h-2V64.6L51.8,64.6z"/>
	<path class="st0" d="M43.7,64.6h5v4h-5V64.6L43.7,64.6z"/>
	<path class="st0" d="M13.8,64.6h5v4h-5V64.6L13.8,64.6z"/>
	<path class="st0" d="M21.8,64.6h4v4h-4V64.6L21.8,64.6z"/>
	<path class="st0" d="M28.8,64.6h5v4h-5V64.6L28.8,64.6z"/>
	<path class="st0" d="M78.5,71.9c1.6,0,3-0.7,4-1.9c1,1.1,2.4,1.9,4,1.9c2.9,0,5.3-2.3,5.3-5.3s-2.3-5.3-5.3-5.3c-1.6,0-3,0.7-4,1.9
		c-1-1.1-2.4-1.9-4-1.9c-2.9,0-5.3,2.3-5.3,5.3S75.6,71.9,78.5,71.9z"/>
</g>
</svg>
