<?xml version="1.0" encoding="utf-8"?>
<!-- Generator: Adobe Illustrator 28.3.0, SVG Export Plug-In . SVG Version: 6.00 Build 0)  -->
<svg version="1.1" id="ds44-icons" xmlns="http://www.w3.org/2000/svg" xmlns:xlink="http://www.w3.org/1999/xlink" x="0px" y="0px"
	 viewBox="0 0 110 110" style="enable-background:new 0 0 110 110;" xml:space="preserve">
<path d="M99.7,69.8l-5.9,8.9c-9.6,11.3-23.9,18.5-39.9,18.5c-17.9,0-33.7-9-43.1-22.7L99.7,69.8L99.7,69.8z"/>
<circle cx="62.4" cy="28.6" r="5.1"/>
<circle cx="62.7" cy="57.9" r="2.4"/>
<path d="M86.3,59.1l-3.2,0.1l-3-8.7c-0.4-1-1.4-1.7-2.5-1.7L72.2,49c-1-1.1-2.2-2-3.5-2.6L68.6,46l5.6-0.2c1.2,0,2.3-0.8,2.5-2
	c0.3-1.7-1-3.1-2.5-3L67,41l-1.2-3.9c-0.3-1.1-1.4-2-2.6-1.9c-1.7,0.1-2.7,1.7-2.3,3.3l1.7,5.4c0,0.3,0.1,0.6,0.3,0.8L63,45
	c-0.2,0-0.4,0-0.6,0c-0.6,0-1.1,0.1-1.6,0.2l-1.4-4.5c-0.2-0.7-0.8-1.2-1.5-1.2c-1.2,0-1.9,1.1-1.6,2.1l1.4,4.5
	c-4.6,2.1-7.8,6.8-7.6,12.2c0.3,6.8,6,12.3,12.7,12.3c7.3,0,13.1-6,12.9-13.3c0-1.2-0.2-2.3-0.6-3.4l0.8,0l3,8.7
	c0.4,1,1.4,1.7,2.5,1.7l5.2-0.2c1.6-0.1,2.8-1.6,2.3-3.2C88.6,59.8,87.5,59.1,86.3,59.1L86.3,59.1z M63.1,67.1
	c-5.2,0.2-9.5-3.9-9.7-9c-0.2-5.2,3.9-9.5,9-9.7c5.2-0.2,9.5,3.9,9.7,9C72.3,62.6,68.3,66.9,63.1,67.1z"/>
<path d="M38.5,27.6c-3.5,1-6.9-1.7-6.6-5.3c0.2-2,1.6-3.8,3.5-4.4c3.5-1,6.9,1.7,6.6,5.3C41.9,25.2,40.4,27,38.5,27.6z"/>
<path d="M19.4,45.3l9-13.9c0,0,0.1-0.1,0.1-0.1c0.2-0.3,2.1-3.1,5.7-2.8c3.2,0.3,5.7,0.5,7.1,2.8c1.3,2.1,2.8,5.7,3.4,7l7.1,3.8
	c1.1,0.7,1.4,2.1,0.8,3.2l0,0c-0.4,0.6-1.1,1-1.8,1.1c-0.5,0.1-1-0.1-1.5-0.3L41.7,42c-0.4-0.2-0.7-0.6-0.9-1c0,0-1.3-3-2.5-5.5
	l-1.4,10.4l9,8.1c0.4,0.3,0.6,0.7,0.8,1.1l3,11.5c0.4,1.2-0.3,2.5-1.6,2.9c-0.1,0-0.3,0.1-0.4,0.1c-1.1,0.1-2.2-0.6-2.5-1.7L42,57.3
	l-1.6-1.3L32.9,58l-0.2,1.6c0,0.3-0.1,0.5-0.2,0.8l-5.4,10.4c-0.6,1.2-2,1.6-3.1,1.1c-1.2-0.6-1.7-2-1.1-3.2l5.1-10l0.6-12.9
	l1.7-8.5l-6.8,10.5c-0.7,1.1-2.1,1.5-3.2,0.8C19.1,47.9,18.7,46.4,19.4,45.3L19.4,45.3z"/>
<path d="M53.9,97.1c16,0,30.3-7.2,39.9-18.5l5.9-8.9l-88.8,4.7C20.3,88.1,36.1,97.1,53.9,97.1L53.9,97.1z"/>
</svg>
