<svg width="110" height="110" xmlns="http://www.w3.org/2000/svg" x="0px" y="0px"
	 viewBox="0 0 110 110" style="enable-background:new 0 0 110 110;" xml:space="preserve">
<path d="M12.2,91.4c0.6-0.2,1.1-0.3,1.6-0.6c5.4-2.4,10.7-4.8,16.1-7.2c1.1-0.5,1.5-1.1,1.5-2.3c0-9.5,0-19.1,0-28.5
	c0-0.5-0.1-0.9,0-1.3c0.2-0.6,0.7-1,1-1.5c0.3,0.5,0.9,1,0.9,1.5c0.1,4.4,0,8.9,0,13.2c0,5.6,0,11.2,0,16.8c0,0.9,0.1,1.5,1,2
	c6.4,2.6,12.8,5.3,19.2,7.9c0.2,0.1,0.3,0.1,0.9,0.2c0-0.8,0-1.4,0-2c0-17.5,0-35,0-52.4c0-1,0.1-2.1-1.3-2.5
	c-0.2-0.1-0.5-0.9-0.5-1.3c0-0.2,0.9-0.6,1.1-0.5c1.4,0.8,2.5,0.1,3.7-0.3c6.4-2.5,12.8-5.2,19.3-7.7c0.9-0.3,2.2-0.3,3.1,0.1
	c6.2,2.6,12.4,5.5,18.6,8.3c1.1,0.5,1.5,1.1,1.5,2.3c0,19,0,37.8,0,56.8c0,2.1-0.5,2.3-2.4,1.5c-6-2.8-11.8-5.5-17.7-8.3
	c-1.1-0.8-2.1-0.8-3.2-0.3c-6.6,2.8-13.1,5.5-19.7,8.3c-1.1,0.5-2.2,0.5-3.4,0c-6.7-2.9-13.3-5.6-20-8.4c-0.7-0.3-1.8-0.2-2.5,0
	C25,88,18.8,90.7,12.5,93.6c-2,0.9-2.4,0.6-2.4-1.5c0-17.9,0-35.8,0-53.7c0-1.1,0.3-1.8,1.4-2.4c3-1.6,6-3.3,9-5.1
	c0.7-0.3,1.5-1,2.1-0.1c0.6,1-0.3,1.4-1,1.8c-2.8,1.6-5.5,3.1-8.2,4.7c-0.6,0.3-1.1,1.3-1.1,1.8c-0.1,17,0,33.9,0,50.9
	C12,90.6,12.1,90.9,12.2,91.4z M77.4,26.9c-0.8,0.2-1.3,0.3-1.7,0.6c-5.9,2.4-11.8,4.8-17.7,7.1c-1.1,0.5-1.5,1-1.5,2.3
	c0,17.7,0,35.4,0,53c0,0.5,0.1,1,0.1,1.7c0.7-0.2,1.3-0.5,1.7-0.7c5.7-2.4,11.5-4.8,17.4-7.2c1.3-0.6,1.7-1.1,1.7-2.6
	c0-17.4,0-34.8,0-52.2C77.4,28.3,77.4,27.7,77.4,26.9z M98,91.5c0.1-0.6,0.1-0.7,0.1-0.9c0-18.1,0-36.1,0-54.2c0-1-0.5-1.4-1.3-1.7
	c-5.3-2.3-10.6-4.7-15.9-7c-0.5-0.2-0.9-0.3-1.5-0.5c-0.1,0.5-0.1,0.9-0.1,1.3c0,17.8,0,35.6,0,53.4c0,1,0.3,1.5,1.3,1.8
	c4.8,2.2,9.7,4.5,14.5,6.8C96,90.6,96.8,90.9,98,91.5z"/>
<path d="M37.6,16.2c10.3,0,16.7,9.7,13.5,17.8c-2.5,6.2-6.2,11.8-10,17.4c-2.6,3.8-2.9,3.9-5.3,0c-3.2-4.9-6.2-10-9.1-15.3
	c-2.5-4.6-2.6-9.4,0.5-13.9C29.7,18.3,33.6,16.3,37.6,16.2z M38.3,51.6c0.8-1.1,1.5-1.8,2-2.8c2.9-4.8,5.7-9.7,8.4-14.7
	c1.5-2.9,1.5-6,0.1-9c-2.5-5.6-9-8.3-14.7-6.1c-5.2,2-9,8.3-6.4,14.5C30.4,40,34.2,45.6,38.3,51.6z"/>
<path d="M46.4,29.9c0,4.5-3.6,7.9-8,7.9s-8-3.7-7.9-8.2s3.7-7.8,8.2-7.8C42.9,21.8,46.4,25.4,46.4,29.9z M32.3,29.8
	c0,3.3,2.8,6,6.1,6c3.2,0,5.9-2.8,5.9-6s-2.6-5.9-5.9-5.9C35.1,23.8,32.3,26.6,32.3,29.8z"/>
</svg>
