<?xml version="1.0" encoding="utf-8"?>
<!-- Generator: Adobe Illustrator 28.3.0, SVG Export Plug-In . SVG Version: 6.00 Build 0)  -->
<svg version="1.1" id="ds44-icons" xmlns="http://www.w3.org/2000/svg" xmlns:xlink="http://www.w3.org/1999/xlink" x="0px" y="0px"
	 viewBox="0 0 110 110" style="enable-background:new 0 0 110 110;" xml:space="preserve">
<g>
	<path d="M79.6,68.9l1.1-1.8L65.5,58c0.3-1.4-0.2-2.9-1.4-3.9l0,0l-10.8-7.3c-0.8-2.2-2.7-8.4-4.4-12c-1.8-3.9-5.8-4.6-11-5.7
		c-5.8-1.2-9.3,3-9.7,3.5c-0.1,0.1-0.1,0.1-0.1,0.2l-16.9,21c-1.3,1.7-0.9,4.1,0.7,5.3c1.7,1.3,4.1,0.9,5.3-0.7L30,42.5L25.8,56
		l-3.2,20.8L12.7,92c-1.1,1.8-0.5,4.2,1.3,5.4c1.8,1.1,4.1,0.6,5.3-1.2l10.4-15.9c0.2-0.4,0.4-0.8,0.5-1.2l3.1-14.7L45.6,77L49,94.9
		c0.3,1.8,1.9,3.1,3.7,3.1c0.2,0,0.5,0,0.7-0.1c2.1-0.4,3.4-2.4,3-4.4l-3-19.1c-0.1-0.7-0.5-1.4-1-2L39.2,57.8l4-16.6
		c1.6,4.2,3.2,9.2,3.2,9.3c0.2,0.7,0.7,1.3,1.3,1.8l11.7,8c0.7,0.5,1.5,0.8,2.3,0.8c0.9,0,1.9-0.4,2.6-1L79,68.7l-0.1,0
		c-0.1,0-0.1,0-0.2,0.1c0,0-1,0.4-2,0.6h-4.5l0.9,5.1l9.5-3.5L79.6,68.9L79.6,68.9z"/>
	<path d="M63.8,69.3c-3.6,0-7.4-2.9-8.8-5.5c-1.1-2.1-2.6-2-3-1.9c-1,0.2-1.6,1.2-1.6,2.4c0,0.5,0.1,1.1,0.4,1.7
		c1.2,2.6,4.2,5.2,6.2,6c1.6,0.7,2.1,1.1,2.2,2.1l-0.1,21.2c0,1.4,1.1,2.5,2.5,2.5c1,0,1.9-0.6,2.3-1.4c0.4,0.8,1.2,1.3,2.2,1.3
		c1.4,0,2.5-1.1,2.5-2.5v-9.1H73L70,69.3L63.8,69.3L63.8,69.3z"/>
	<path d="M73.5,76.7l1.7,9.6l0,0.2l0,0.2l0,0v8.7c0,1.4,1.1,2.5,2.5,2.5c0.9,0,1.7-0.5,2.1-1.1c0.4,0.7,1.2,1.1,2.1,1.1
		c1.4,0,2.5-1.1,2.5-2.5c0,0,0-8,0-9.9c1.6-1.9,2.9-8,3.1-9.9l0.8-0.8l-3.5-2.3L73.5,76.7L73.5,76.7z"/>
	<path d="M99.7,65.6C99.7,65.6,99.7,65.6,99.7,65.6c-0.2-0.6-0.6-1.8-9.6-2.9l-2.5-4.2c-0.2-0.3-0.6-0.5-1-0.5
		c-0.4,0.1-0.7,0.4-0.8,0.8L85,63.5l-2.6,2.9l-0.6,0.6L81,67.3c0,0,0,0-0.1,0.1l9.5,5.6h4.7c0.3,0,0.6-0.2,0.8-0.5
		C98.5,68.2,99.7,65.9,99.7,65.6L99.7,65.6z"/>
	<path d="M43.3,28.5c4.6,0,8.3-3.7,8.3-8.3S47.9,12,43.3,12s-8.3,3.7-8.3,8.3S38.8,28.5,43.3,28.5L43.3,28.5z"/>
</g>
</svg>
