<svg width="110" height="110" version="1.1" id="ds44-icons" xmlns="http://www.w3.org/2000/svg" xmlns:xlink="http://www.w3.org/1999/xlink" x="0px" y="0px"
	 viewBox="0 0 110 110" style="enable-background:new 0 0 110 110;" xml:space="preserve">
<g>
	<path d="M92.4,10.3H18c-3.7,0-6.8,3-6.8,6.8v40.2c0,3.7,3,6.8,6.8,6.8h8.2c2,1.9,4.7,3.2,7.7,3.2s5.7-1.2,7.7-3.2h19
		c0.7,4.8,4.2,8.6,8.8,9.9c1.1,0.3,2.2,0.5,3.4,0.5s2.3-0.2,3.4-0.5c4.6-1.3,8-5.1,8.8-9.9h7.6c0,0,0,0,0,0c3.6-0.1,6.6-3.1,6.6-6.8
		V17.1C99.2,13.3,96.2,10.3,92.4,10.3L92.4,10.3z M94.3,37.2v20.1c0,1-0.8,1.9-1.9,1.9h-0.9c0,0,0,0,0,0h-6.7
		c-1.3-5.4-6.2-9.4-12-9.4c-5.8,0-10.6,4-12,9.4H44.5c0.3-1,0.5-2,0.5-3.1C45,49.9,40,45,33.9,45s-11.1,5-11.1,11.1
		c0,1.1,0.2,2.1,0.5,3.1H18c-1,0-1.9-0.8-1.9-1.9V17.1c0-1,0.8-1.9,1.9-1.9h74.4c1,0,1.9,0.8,1.9,1.9L94.3,37.2L94.3,37.2z"/>
	<path d="M66.8,35.9L52.3,23.7l0,0c-0.6-0.5-1.6-0.5-2.1,0.2c-0.2,0.3-0.4,0.6-0.4,1v24.5c0,0.8,0.7,1.5,1.5,1.5
		c0.4,0,0.8-0.2,1.1-0.5l14.4-12.2l-1-1.2l1,1.2c0.6-0.5,0.7-1.5,0.2-2.1C67,36,66.9,35.9,66.8,35.9L66.8,35.9z"/>
	<path d="M55,74.5c-2.1-3.4-5.8-5.6-10.2-5.6H23c-6.9,0-12.2,5.5-12.2,12.7v18.1h32.8v-9.6C43.6,82.4,48.3,76.3,55,74.5L55,74.5z"/>
	<path d="M90,77.4c-1.6-0.6-3.2-1-5.1-1H60.8c-1.6,0-3.1,0.3-4.5,0.8c-5.3,1.9-9,6.9-9,13.3v9.2h51.2c0-7.5,0-9,0-9.1c0,0,0,0,0,0.1
		v-0.2C98.4,84.3,95,79.4,90,77.4L90,77.4z"/>
</g>
</svg>
