<svg width="110" height="110" xmlns="http://www.w3.org/2000/svg" x="0px" y="0px"
	 viewBox="0 0 110 110" style="enable-background:new 0 0 110 110;" xml:space="preserve">
<style type="text/css">
	.st0{fill:#FFFFFF;}
</style>
<g id="Calque_2_1_">
	<g id="Pictos">
		<g id="Calque_2-2">
			<g id="Calque_1-2">
				<path d="M42.7,9.7c-1.3-0.3-2.7,0.5-3,1.9L20.1,97.1c-0.3,1.3,0.5,2.7,1.9,3l0,0c0.2,0,0.3,0.1,0.6,0.1c1.2,0,2.2-0.8,2.4-1.9
					l19.7-85.6C45,11.4,44,10,42.7,9.7z"/>
				<path d="M90,97.1L70.8,11.6c-0.3-1.3-1.7-2.2-3-1.9c-1.3,0.3-2.2,1.7-1.9,3L85,98.3c0.3,1.2,1.3,1.9,2.4,1.9
					c0.2,0,0.3,0,0.6-0.1C89.4,99.9,90.2,98.6,90,97.1L90,97.1z"/>
				<path class="st0" d="M55.9,9.6c-1.4,0-2.5,1.1-2.5,2.5v4.2c0,1.4,1.1,2.5,2.5,2.5s2.5-1.1,2.5-2.5v-4.2
					C58.4,10.8,57.3,9.6,55.9,9.6z"/>
				<path class="st0" d="M55.9,70.5c-1.4,0-2.5,1.1-2.5,2.5v5.2c0,1.4,1.1,2.5,2.5,2.5s2.5-1.1,2.5-2.5V73
					C58.4,71.7,57.3,70.5,55.9,70.5z"/>
				<path class="st0" d="M55.9,28.9c-1.4,0-2.5,1.1-2.5,2.5v5.2c0,1.4,1.1,2.5,2.5,2.5s2.5-1.1,2.5-2.5v-5.2
					C58.4,30.1,57.3,28.9,55.9,28.9z"/>
				<path class="st0" d="M55.9,49.7c-1.4,0-2.5,1.1-2.5,2.5v5.2c0,1.4,1.1,2.5,2.5,2.5s2.5-1.1,2.5-2.5v-5.2
					C58.4,50.9,57.3,49.7,55.9,49.7z"/>
				<path class="st0" d="M55.9,91.2c-1.4,0-2.5,1.1-2.5,2.5v4.2c0,1.4,1.1,2.5,2.5,2.5s2.5-1.1,2.5-2.5v-4.2
					C58.4,92.3,57.3,91.2,55.9,91.2z"/>
			</g>
		</g>
	</g>
</g>
</svg>
