<svg width="110" height="110" xmlns="http://www.w3.org/2000/svg" x="0px" y="0px"
	 viewBox="0 0 110 110" style="enable-background:new 0 0 110 110;" xml:space="preserve">
<style type="text/css">
	.st0{fill:none;}
</style>
<g>
	<path class="st0" d="M27.1,59.2C25.6,49,29.8,38.8,38,32.5l-8.8-12.3c-13,9.6-19.6,25.7-17,41.7L27.1,59.2z"/>
	<path class="st0" d="M58.9,56.5c-0.4,0-0.8,0.1-1,0.5c-0.2,0.4-0.3,0.9-0.3,1.3c0,0.5,0.1,1,0.3,1.4c0.4,0.6,1.2,0.7,1.8,0.2
		c0.1-0.1,0.2-0.1,0.2-0.2c0.2-0.4,0.4-0.9,0.3-1.4c0-0.5-0.1-0.9-0.3-1.3C59.7,56.7,59.3,56.5,58.9,56.5z"/>
	<path class="st0" d="M30.6,19.2l8.8,12.3c4.4-2.9,9.5-4.6,14.8-4.7V11.7C45.7,11.9,37.6,14.5,30.6,19.2z"/>
	<path class="st0" d="M81.5,55c0-14.6-11.9-26.5-26.5-26.5c-14.6,0-26.5,11.9-26.5,26.5c0,14.6,11.9,26.5,26.5,26.5
		C69.6,81.5,81.5,69.6,81.5,55z M48.5,52.2c-0.3-0.4-0.5-0.8-0.7-1.2c-0.2-0.5-0.2-1-0.2-1.5c0-0.5,0.1-1,0.2-1.5
		c0.1-0.4,0.4-0.9,0.7-1.2c0.3-0.4,0.7-0.6,1.1-0.8c0.5-0.2,1-0.3,1.5-0.3c0.5,0,1,0.1,1.5,0.3c0.4,0.2,0.8,0.5,1.1,0.8
		c0.3,0.4,0.5,0.8,0.7,1.2c0.2,0.5,0.2,1,0.2,1.5c0,0.5-0.1,1-0.2,1.5c-0.1,0.4-0.4,0.9-0.7,1.2c-0.3,0.3-0.7,0.6-1.1,0.8
		c-1,0.4-2,0.4-3,0C49.1,52.8,48.8,52.5,48.5,52.2z M52.1,61.5c-0.1,0.2-0.3,0.4-0.6,0.5c-0.3,0.1-0.6,0.1-0.8,0
		c-0.3-0.1-0.5-0.3-0.6-0.6c-0.1-0.3-0.2-0.6-0.1-0.8l0.1-0.2l7.8-14.3c0.1-0.2,0.4-0.4,0.6-0.5c0.3-0.1,0.5-0.1,0.8,0
		c0.3,0.1,0.5,0.2,0.6,0.5c0.2,0.2,0.2,0.5,0.1,0.8c0,0.1,0,0.1,0,0.2c0,0.1,0,0.1-0.1,0.1L52.1,61.5z M62.2,59.9
		c-0.1,0.4-0.4,0.9-0.7,1.2c-0.3,0.3-0.7,0.6-1.1,0.8c-0.5,0.2-1,0.3-1.5,0.3c-0.5,0-1-0.1-1.5-0.3c-0.4-0.2-0.8-0.5-1.1-0.8
		c-0.3-0.4-0.5-0.8-0.7-1.2c-0.2-0.5-0.2-1-0.2-1.5c0-0.5,0.1-1,0.2-1.5c0.1-0.4,0.4-0.9,0.7-1.2c0.3-0.3,0.7-0.6,1.1-0.8
		c1-0.4,2-0.4,3,0c0.4,0.2,0.8,0.5,1.1,0.8c0.3,0.4,0.5,0.8,0.7,1.2c0.2,0.5,0.2,1,0.2,1.5C62.4,58.9,62.3,59.4,62.2,59.9z"/>
	<path class="st0" d="M52.1,50.8c0.2-0.4,0.4-0.9,0.3-1.4c0-0.5-0.1-0.9-0.3-1.3c-0.5-0.6-1.3-0.6-1.9-0.2C50.2,47.9,50.1,48,50,48
		c-0.2,0.4-0.3,0.9-0.3,1.3c0,0.5,0.1,1,0.3,1.4c0.4,0.6,1.2,0.7,1.8,0.2C51.9,50.9,52,50.9,52.1,50.8z"/>
	<path class="st0" d="M67.8,80.1C54,87.2,37,81.7,29.9,67.9c-1.1-2.2-2-4.6-2.5-7l-14.9,2.7c4.7,23.4,27.5,38.6,51,33.9
		c4-0.8,8-2.2,11.6-4.1L67.8,80.1z"/>
	<path class="st0" d="M55.8,11.7v15.1c15.5,0.5,27.8,13.4,27.3,29c-0.3,9.7-5.5,18.5-13.9,23.4l7.3,13.3
		c20.7-11.9,27.9-38.4,16-59.1C85,20.2,71,12,55.8,11.7z"/>
	<path d="M55,10c-9.3,0-18.4,2.9-25.9,8.3c-0.1,0-0.2,0.1-0.2,0.2C14.7,28.5,7.6,45.9,10.7,63c0,0,0,0,0,0.1c0,0,0,0,0,0.1
		c4.4,24.4,27.9,40.6,52.3,36.2c4.7-0.9,9.3-2.5,13.6-4.8c0,0,0.1,0,0.1,0c0,0,0,0,0.1,0c21.8-12,29.7-39.4,17.7-61.1
		C86.5,18.9,71.4,10,55,10z M55,81.5c-14.6,0-26.5-11.9-26.5-26.5c0-14.6,11.9-26.5,26.5-26.5S81.5,40.4,81.5,55v0
		C81.5,69.6,69.6,81.5,55,81.5z M39.4,31.6l-8.8-12.3c6.9-4.8,15.1-7.4,23.5-7.5v15.1C48.9,27,43.8,28.6,39.4,31.6z M29.2,20.2
		L38,32.5C29.8,38.8,25.6,49,27.1,59.2l-14.9,2.7C9.7,45.9,16.2,29.8,29.2,20.2z M12.5,63.5l14.9-2.7c3.2,15.2,18.2,24.9,33.4,21.7
		c2.4-0.5,4.8-1.4,7-2.5l7.3,13.3c-21.2,11.1-47.3,3-58.4-18.2C14.7,71.5,13.4,67.6,12.5,63.5z M76.6,92.5l-7.3-13.3
		c13.4-7.9,17.9-25.1,10-38.5c-4.9-8.3-13.8-13.6-23.4-13.9V11.7c23.9,0.5,42.9,20.2,42.5,44.1C98,71,89.8,84.9,76.6,92.5L76.6,92.5
		z"/>
	<path d="M60,47c0-0.1,0-0.1,0-0.2c0.1-0.3,0-0.6-0.1-0.8c-0.1-0.2-0.4-0.4-0.6-0.5c-0.3-0.1-0.5-0.1-0.8,0
		c-0.3,0.1-0.5,0.3-0.6,0.5l-7.8,14.3L50,60.7c-0.1,0.3,0,0.6,0.1,0.8c0.1,0.3,0.4,0.5,0.6,0.6c0.3,0.1,0.6,0.1,0.8,0
		c0.3-0.1,0.5-0.3,0.6-0.5l7.8-14.3C60,47.1,60,47.1,60,47z"/>
	<path d="M61.5,55.7c-0.3-0.4-0.7-0.6-1.1-0.8c-1-0.4-2-0.4-3,0c-0.4,0.2-0.8,0.5-1.1,0.8c-0.3,0.4-0.5,0.8-0.7,1.2
		c-0.2,0.5-0.2,1-0.2,1.5c0,0.5,0.1,1,0.2,1.5c0.1,0.4,0.4,0.9,0.7,1.2c0.3,0.4,0.7,0.6,1.1,0.8c0.5,0.2,1,0.3,1.5,0.3
		c0.5,0,1-0.1,1.5-0.3c0.4-0.2,0.8-0.5,1.1-0.8c0.3-0.4,0.5-0.8,0.7-1.2c0.2-0.5,0.2-1,0.2-1.5c0-0.5-0.1-1-0.2-1.5
		C62,56.4,61.8,56,61.5,55.7z M59.9,59.8c-0.4,0.6-1.2,0.7-1.8,0.2c-0.1-0.1-0.2-0.1-0.2-0.2c-0.2-0.4-0.4-0.9-0.3-1.4
		c0-0.5,0.1-0.9,0.3-1.3c0.5-0.6,1.3-0.6,1.9-0.2c0.1,0.1,0.1,0.1,0.2,0.2c0.2,0.4,0.4,0.9,0.3,1.3C60.3,58.8,60.2,59.3,59.9,59.8z"
		/>
	<path d="M52.6,53c0.4-0.2,0.8-0.5,1.1-0.8c0.3-0.4,0.5-0.8,0.7-1.2c0.2-0.5,0.2-1,0.2-1.5c0-0.5-0.1-1-0.2-1.5
		c-0.1-0.4-0.4-0.9-0.7-1.2c-0.3-0.3-0.7-0.6-1.1-0.8c-0.5-0.2-1-0.3-1.5-0.3c-0.5,0-1,0.1-1.5,0.3c-0.4,0.2-0.8,0.5-1.1,0.8
		c-0.3,0.4-0.5,0.8-0.7,1.2c-0.1,0.5-0.2,1-0.2,1.5c0,0.5,0.1,1,0.2,1.5c0.1,0.4,0.4,0.9,0.7,1.2c0.3,0.3,0.7,0.6,1.1,0.8
		C50.5,53.4,51.6,53.4,52.6,53L52.6,53z M50,50.8c-0.2-0.4-0.4-0.9-0.3-1.4c0-0.5,0.1-0.9,0.3-1.3c0.5-0.6,1.3-0.6,1.9-0.2
		C52,47.9,52,48,52.1,48c0.2,0.4,0.4,0.9,0.3,1.3c0,0.5-0.1,1-0.3,1.4c-0.4,0.6-1.2,0.7-1.8,0.2C50.2,50.9,50.1,50.9,50,50.8z"/>
</g>
</svg>
