<svg width="110" height="110" xmlns="http://www.w3.org/2000/svg" x="0px" y="0px"
	 viewBox="0 0 110 110" style="enable-background:new 0 0 110 110;" xml:space="preserve">
<style type="text/css">
	.st0{fill:#FFFFFF;}
	.st1{fill:none;}
</style>
<g>
	<path class="st0" d="M34.4,89.5c-0.3,0-0.6-0.1-0.8-0.3c-0.5-0.5-0.5-1.2,0-1.7l12.2-12.2c0.5-0.5,1.2-0.5,1.7,0
		c2.4,2.4,5.3-0.2,5.6-0.6l36.8-36.8c1.1-1.1,1.1-2.8,0-3.9c-1.1-1.1-2.8-1.1-3.9,0L70.3,49.5c-0.2,0.2-0.6,0.4-0.9,0.3
		c-0.3,0-0.7-0.2-0.9-0.5l-0.5-0.6c-0.3-0.5-0.3-1.1,0.1-1.5L87,28.4c1.1-1.1,1.1-2.8,0-3.9c-1.1-1.1-2.8-1.1-3.9,0L64.7,42.9
		c-0.5,0.5-1.2,0.5-1.7,0l-0.6-0.6c-0.5-0.5-0.5-1.2,0-1.7L82,21.2c1.1-1.1,1.1-2.8,0-3.9c-1.1-1.1-2.8-1.1-3.9,0L58.6,36.8
		c-0.5,0.5-1.2,0.5-1.7,0l-0.6-0.6C56.1,36,56,35.7,56,35.4c0-0.3,0.1-0.6,0.3-0.8l18.4-18.4c1.1-1.1,1.1-2.8,0-3.9
		c-1-1-2.9-1-3.9,0L46.7,36.4c-0.4,0.4-1,0.5-1.5,0.1c-0.5-0.3-0.6-1-0.4-1.5l2.4-5.1c0.6-1.4,0.1-3-1.3-3.7
		c-0.7-0.3-1.4-0.3-2.1-0.1c-0.7,0.3-1.2,0.8-1.6,1.4L29.8,54.3c-0.6,1.2-0.7,2.2-0.4,3c0.4,1.1,1.5,1.6,1.5,1.6
		c0.4,0.2,0.6,0.5,0.7,0.9c0.1,0.4,0,0.8-0.3,1.1L19,72.9c-0.5,0.5-1.2,0.5-1.7,0c-0.5-0.5-0.5-1.2,0-1.7l11.2-11.2
		c-0.5-0.5-1.1-1.1-1.4-2c-0.5-1.4-0.4-3.1,0.5-4.8L40,26.7c0.6-1.2,1.6-2.2,2.9-2.6c1.3-0.5,2.7-0.4,3.9,0.2c2.3,1.1,3.4,3.6,2.8,6
		l1.2-1.2l18.4-18.4c2-2,5.2-2,7.2,0c1.1,1.1,1.6,2.6,1.5,4c1.9-0.9,4.2-0.5,5.8,1c1.6,1.6,1.9,3.9,1,5.8c1.4-0.1,2.9,0.4,4,1.5
		c2,2,2,5.2,0,7.2L88,30.8c1.3,0,2.5,0.5,3.5,1.5c2,2,2,5.2,0,7.2L54.7,76.3c0,0-1.2,1.2-2.8,1.8c-1.9,0.8-3.7,0.6-5.2-0.5
		L35.2,89.1C35,89.3,34.7,89.5,34.4,89.5z"/>
	<g>
		<g>

				<rect x="33" y="64.9" transform="matrix(0.7071 -0.7071 0.7071 0.7071 -39.5788 45.9877)" class="st1" width="5.5" height="11.8"/>

				<rect x="31.4" y="68.8" transform="matrix(0.7071 -0.7071 0.7071 0.7071 -43.4808 44.3716)" class="st1" width="0.8" height="11.8"/>

				<rect x="39.2" y="61" transform="matrix(0.7071 -0.7071 0.7071 0.7071 -35.6771 47.6059)" class="st1" width="0.8" height="11.8"/>

				<rect x="39.5" y="76.3" transform="matrix(0.7071 -0.7071 0.7071 0.7071 -42.2925 52.5397)" class="st1" width="5.5" height="2"/>

				<rect x="26.4" y="63.2" transform="matrix(0.7071 -0.7071 0.7071 0.7071 -36.8675 39.4428)" class="st1" width="5.5" height="2"/>
		</g>
	</g>
	<g>
		<g>
			<path d="M38,80.2l2.2,2.2c0.2,0.2,0.5,0.3,0.8,0.3c0.3,0,0.6-0.1,0.8-0.3l5.6-5.6c0.2-0.2,0.3-0.5,0.3-0.8s-0.1-0.6-0.3-0.8
				L45.2,73l1.4-1.4c0.5-0.5,0.5-1.2,0-1.7l-10-10c-0.5-0.5-1.2-0.5-1.7,0l-1.4,1.4l-2.2-2.2c-0.4-0.4-1.2-0.4-1.7,0L24,64.6
				c-0.5,0.5-0.5,1.2,0,1.7l2.2,2.2l-1.4,1.4c-0.2,0.2-0.3,0.5-0.3,0.8c0,0.3,0.1,0.6,0.3,0.8l10,10c0.2,0.2,0.5,0.3,0.8,0.3
				s0.6-0.1,0.8-0.3L38,80.2z M41,80l-1.4-1.4l3.9-3.9l1.4,1.4L41,80z M30.4,61.6l1.4,1.4l-3.9,3.9l-1.4-1.4L30.4,61.6z M35.7,79.1
				l-8.4-8.4l0.6-0.6l1.7-1.7l3.9-3.9l1.7-1.7l0.6-0.6l8.4,8.4l-0.6,0.6L41.9,73L38,76.9l-1.7,1.7L35.7,79.1z"/>
			<path d="M39.8,73.8l1.1-4c0.1-0.4,0-0.8-0.3-1.1l-2.9-2.9c-0.3-0.3-0.7-0.4-1.1-0.3l-4,1.1c-0.4,0.1-0.7,0.4-0.8,0.8l-1.1,4
				c-0.1,0.4,0,0.8,0.3,1.1l2.9,2.9c0.2,0.2,0.5,0.3,0.8,0.3c0.1,0,0.2,0,0.3,0l4-1.1C39.4,74.6,39.7,74.2,39.8,73.8z M37.7,72.6
				l-2.7,0.7l-1.9-1.9l0.7-2.7l2.7-0.7l1.9,1.9L37.7,72.6z"/>
			<path d="M46.1,51.2c-0.6-0.1-1.3,0.3-1.4,0.9c-0.1,0.6,0.3,1.3,0.9,1.4c10.5,2.3,17.2,12.7,14.9,23.2
				c-2.3,10.5-12.7,17.2-23.2,14.9c-0.6-0.1-1.3,0.3-1.4,0.9c-0.1,0.6,0.3,1.3,0.9,1.4c1.5,0.3,3.1,0.5,4.6,0.5
				c10.1,0,19.2-7,21.4-17.2C65.4,65.4,57.9,53.8,46.1,51.2z"/>
		</g>
		<path d="M46.6,44.8c-0.6-0.1-1.3,0.3-1.4,0.9c-0.1,0.6,0.3,1.3,0.9,1.4c14,3,23,16.9,19.9,30.9c-3,14-16.9,23-30.9,19.9
			c-0.6-0.1-1.3,0.3-1.4,0.9c-0.1,0.6,0.3,1.3,0.9,1.4c2,0.4,4,0.6,6,0.6c13.1,0,24.9-9.1,27.7-22.4C71.7,63.2,61.9,48.1,46.6,44.8z
			"/>
	</g>
</g>
</svg>
