<svg xmlns="http://www.w3.org/2000/svg" viewBox="0 0 83.2 108"><defs><style>.cls-1{fill:#fff;}</style></defs><g id="Calque_2" data-name="Calque 2"><g id="Pictos"><g id="Calque_2-2" data-name="Calque 2"><g id="Calque_1-2" data-name="Calque 1-2"><path d="M27,.08a3,3,0,0,0-3.59,2.25L.08,104.09a3,3,0,0,0,2.25,3.6,3.11,3.11,0,0,0,.67.07,3,3,0,0,0,2.92-2.33L29.25,3.67A3,3,0,0,0,27,.08Z"/><path d="M83.13,104.1,60.32,2.34a3,3,0,0,0-5.86,1.32L77.27,105.42a3,3,0,0,0,2.93,2.34,3,3,0,0,0,.66-.07A3,3,0,0,0,83.13,104.1Z"/><path class="cls-1" d="M42.67,0a3,3,0,0,0-3,3V8a3,3,0,0,0,6,0V3A3,3,0,0,0,42.67,0Z"/><path class="cls-1" d="M42.67,72.38a3,3,0,0,0-3,3v6.17a3,3,0,0,0,6,0V75.38A3,3,0,0,0,42.67,72.38Z"/><path class="cls-1" d="M42.67,23a3,3,0,0,0-3,3v6.17a3,3,0,0,0,6,0V26A3,3,0,0,0,42.67,23Z"/><path class="cls-1" d="M42.67,47.69a3,3,0,0,0-3,3v6.17a3,3,0,0,0,6,0V50.69A3,3,0,0,0,42.67,47.69Z"/><path class="cls-1" d="M42.67,97a3,3,0,0,0-3,3v5a3,3,0,0,0,6,0v-5A3,3,0,0,0,42.67,97Z"/></g></g></g></g></svg>