<svg width="110" height="110" xmlns="http://www.w3.org/2000/svg" x="0px" y="0px"
	 viewBox="0 0 110 110" style="enable-background:new 0 0 110 110;" xml:space="preserve">
<style type="text/css">
	.st0{fill:#FFFFFF;}
	.st1{fill:none;}
</style>
<g>
	<g>
		<g>
			<path class="st0" d="M83.8,83.9c-5.2,5.1-13.5,5.1-18.7,0c-1.4-1.4-2.4-3-3.1-4.8h17c0.8,0,1.4-0.6,1.4-1.4s-0.6-1.4-1.4-1.4
				H61.4c-0.1-0.6-0.1-1.1-0.1-1.7s0.1-1.1,0.1-1.7h17.7c0.8,0,1.4-0.6,1.4-1.4s-0.6-1.4-1.4-1.4h-17c0.6-1.8,1.7-3.4,3.1-4.8
				c5.1-5.1,13.5-5.1,18.6,0c0.5,0.5,1.4,0.5,2,0s0.5-1.4,0-2c-6.2-6.2-16.3-6.2-22.6,0c-2,2-3.3,4.3-4,6.8h-6.1
				c-0.8,0-1.4,0.6-1.4,1.4s0.6,1.4,1.4,1.4h5.5c-0.1,1.1-0.1,2.3,0,3.4h-5.5c-0.8,0-1.4,0.6-1.4,1.4s0.6,1.4,1.4,1.4h6
				c0.7,2.5,2.1,4.8,4,6.8c3.1,3.1,7.2,4.7,11.3,4.7c4.1,0,8.2-1.6,11.3-4.7c0.5-0.5,0.5-1.4,0-2C85.2,83.3,84.3,83.3,83.8,83.9z"/>
		</g>
	</g>
	<g>
		<path class="st1" d="M39.6,74.5c2,0,4-0.1,6-0.3c0-4.2,0.9-8.1,2.6-11.6c-2.8,0.4-5.7,0.6-8.7,0.6c-11.6,0-21.5-3-26.1-7.4V64
			C13.4,69.1,23.9,74.5,39.6,74.5z"/>
		<path class="st1" d="M49.2,80.8C49.2,80.8,49.2,80.7,49.2,80.8C49.2,80.7,49.2,80.8,49.2,80.8z"/>
		<path class="st1" d="M39.6,60.4c3.6,0,7.1-0.3,10.4-0.9c3.6-5.5,9.1-9.6,15.6-11.4v-6.2c-0.9,0.8-1.9,1.6-3.1,2.3
			c-5.5,3.2-13.8,5-22.9,5c-9.1,0-17.4-1.8-22.9-5c-1.3-0.8-2.4-1.6-3.3-2.5V50C13.4,55,23.9,60.4,39.6,60.4z"/>
		<path class="st1" d="M51.6,86.3c-0.7-1.2-1.3-2.5-1.9-3.9C50.3,83.8,50.9,85.1,51.6,86.3z"/>
		<path class="st1" d="M51.9,86.9C52,86.9,52,86.9,51.9,86.9c0-0.1-0.1-0.2-0.1-0.2C51.9,86.7,51.9,86.8,51.9,86.9z"/>
		<path class="st1" d="M49.7,82.3c-0.1-0.2-0.1-0.4-0.2-0.6C49.5,81.9,49.6,82.1,49.7,82.3z"/>
		<path class="st1" d="M39.6,77.3c-11.7,0-21.6-3-26.2-7.5V78l0.2,1.1c1.3,4.6,11.4,9.4,26,9.4c3.1,0,6.4-0.3,9.6-0.8
			c-1.8-3.2-3-6.9-3.4-10.7C43.8,77.2,41.6,77.3,39.6,77.3z"/>
		<path class="st1" d="M39.6,32.3c8.5,0,16.5-1.7,21.5-4.6c2.6-1.5,4.1-3.1,4.6-4.8c0.1-0.3,0.1-0.6,0.1-1
			c0-5.1-10.5-10.5-26.2-10.5s-26.2,5.4-26.2,10.5C13.4,26.9,23.9,32.3,39.6,32.3z"/>
		<path class="st1" d="M18.1,41.7c5,2.9,13,4.6,21.5,4.6s16.5-1.7,21.5-4.6c2.4-1.4,4-3,4.5-4.6v-9.3c-0.9,0.8-1.9,1.6-3.1,2.3
			c-5.5,3.2-13.8,5-22.9,5c-11.7,0-21.6-3-26.2-7.5v8.3C13.4,37.9,15.1,39.9,18.1,41.7z"/>
		<path d="M13.4,55.7L13.4,55.7C13.4,55.7,13.4,55.8,13.4,55.7L13.4,55.7z"/>
		<path d="M72.6,47.1c-1.5,0-2.9,0.1-4.4,0.4v-10c0.1-0.5,0.2-1,0.2-1.5s-0.1-1-0.2-1.5v-11c0.1-0.5,0.2-1,0.2-1.5
			c0-7.4-12.7-13.2-29-13.2s-29,5.8-29,13.2v56.2c0,0.1,0,0.1,0,0.2c0,0.5,0.1,1.1,0.2,1.6c1.8,6.6,13.9,11.4,28.7,11.4
			c4,0,7.8-0.4,11.2-1.1c4.9,6.8,12.9,11.2,21.9,11.2c14.9,0,27.1-12.2,27.1-27.1C99.6,59.5,87.6,47.1,72.6,47.1z M39.6,11.4
			c15.7,0,26.2,5.4,26.2,10.5c0,0.4,0,0.7-0.1,1c-0.5,1.7-2,3.3-4.6,4.8c-5,2.9-13,4.6-21.5,4.6c-15.7,0-26.2-5.4-26.2-10.4
			C13.4,16.8,23.9,11.4,39.6,11.4z M13.4,27.6c4.6,4.5,14.5,7.5,26.2,7.5c9.1,0,17.4-1.8,22.9-5c1.2-0.7,2.2-1.5,3.1-2.3v9.3
			c-0.5,1.6-2.1,3.2-4.5,4.6c-5,2.9-13,4.6-21.5,4.6s-16.5-1.7-21.5-4.6c-3-1.8-4.7-3.8-4.7-5.8V27.6z M13.4,41.7
			c0.9,0.9,2,1.7,3.3,2.5c5.5,3.2,13.8,5,22.9,5c9.1,0,17.4-1.8,22.9-5c1.2-0.7,2.2-1.5,3.1-2.3v6.2c-6.5,1.8-12,5.9-15.6,11.4
			c-3.3,0.6-6.8,0.9-10.4,0.9C23.9,60.4,13.4,55,13.4,50V41.7z M13.4,55.7L13.4,55.7c4.6,4.5,14.5,7.5,26.1,7.5c3,0,5.9-0.2,8.7-0.6
			c-1.7,3.5-2.6,7.4-2.6,11.6c-2,0.2-4,0.3-6,0.3c-15.7,0-26.2-5.4-26.2-10.5V55.7C13.4,55.8,13.4,55.7,13.4,55.7L13.4,55.7z
			 M39.6,88.5c-14.6,0-24.7-4.8-26-9.4L13.4,78v-8.2c4.6,4.5,14.5,7.5,26.2,7.5c2.1,0,4.2-0.1,6.2-0.3c0.4,3.8,1.6,7.5,3.4,10.7
			C45.9,88.2,42.6,88.5,39.6,88.5z M72.6,98.6c-7.7,0-14.5-3.6-19-9.1c0.1,0,0.1,0,0.2,0c-0.7-0.8-1.3-1.7-1.8-2.6c0,0,0,0,0,0
			c0-0.1-0.1-0.2-0.1-0.2c-0.1-0.1-0.1-0.2-0.2-0.3c-0.7-1.2-1.3-2.5-1.9-3.9c0-0.1-0.1-0.1-0.1-0.2c-0.1-0.2-0.1-0.4-0.2-0.6
			c-0.1-0.3-0.2-0.6-0.3-0.9c0,0,0-0.1,0-0.1c-0.6-2.1-1-4.4-1-6.7c0-13.4,10.9-24.3,24.3-24.3c9.7,0,18,5.7,21.9,13.8
			c1.6,3.2,2.5,6.9,2.5,10.7C96.9,87.6,86.1,98.6,72.6,98.6z"/>
		<path class="st0" d="M51.8,86.7c-0.1-0.1-0.1-0.2-0.2-0.3C51.7,86.4,51.7,86.6,51.8,86.7z"/>
		<path class="st0" d="M49.8,82.5c0-0.1-0.1-0.1-0.1-0.2C49.7,82.3,49.7,82.4,49.8,82.5z"/>
		<path class="st0" d="M49.5,81.7c-0.1-0.3-0.2-0.6-0.3-0.9C49.3,81.1,49.4,81.4,49.5,81.7z"/>
	</g>
</g>
</svg>
