<svg xmlns="http://www.w3.org/2000/svg" width="110" height="110" viewBox="0 0 110 110"><g transform="translate(-3555 -2572)"><rect width="110" height="110" transform="translate(3555 2572)" fill="#fff" opacity="0"/><g transform="translate(3569 2593)"><g transform="translate(0 38.52)"><path d="M48.341,303.245H42.2a1.582,1.582,0,0,0,0,3.164h6.138a1.718,1.718,0,1,1,0,3.436H31.817a8.312,8.312,0,0,1-6.408-3l-3.952-4.75a11.462,11.462,0,0,0-8.508-4.136V288.61h5.825a10.973,10.973,0,0,1,7.658,3.093l8.529,8.232a1.554,1.554,0,0,1-2.13,2.264l-6.7-6.138A1.582,1.582,0,0,0,24,298.393l6.7,6.138a4.718,4.718,0,0,0,6.465-6.872l-8.529-8.232a14.122,14.122,0,0,0-9.856-3.981H12.642a3.927,3.927,0,0,0-3.614-2.4H1.582A1.582,1.582,0,0,0,0,284.628V296.2a1.582,1.582,0,0,0,3.164,0V286.21H9.028a.758.758,0,0,1,.757.757v12.679a.758.758,0,0,1-.757.757H7.385a1.582,1.582,0,1,0,0,3.164H9.028a3.927,3.927,0,0,0,3.637-2.457,8.312,8.312,0,0,1,6.36,3l3.952,4.75a11.467,11.467,0,0,0,8.84,4.145H48.341a4.882,4.882,0,0,0,0-9.764Z" transform="translate(0 -283.046)"/></g><g transform="translate(27.78 0)"><path d="M227.231,54.181a1.582,1.582,0,0,0-1.582,1.582v10.6h-5.865a.758.758,0,0,1-.757-.757V52.93a.758.758,0,0,1,.757-.757h1.527a1.582,1.582,0,0,0,0-3.164h-1.527a3.927,3.927,0,0,0-3.637,2.457,8.312,8.312,0,0,1-6.36-3l-3.952-4.75A11.467,11.467,0,0,0,197,39.568H180.472a4.882,4.882,0,1,0,0,9.763h6.757a1.582,1.582,0,1,0,0-3.164h-6.757a1.718,1.718,0,1,1,0-3.436H197a8.312,8.312,0,0,1,6.408,3l3.952,4.75a11.463,11.463,0,0,0,8.508,4.136v9.345h-5.825a10.973,10.973,0,0,1-7.658-3.093l-8.529-8.232a1.554,1.554,0,0,1,2.13-2.264l6.7,6.138a1.582,1.582,0,1,0,2.138-2.332l-6.7-6.138a4.718,4.718,0,0,0-6.465,6.872l8.529,8.232a14.122,14.122,0,0,0,9.856,3.981h6.132a3.927,3.927,0,0,0,3.614,2.4h7.447a1.582,1.582,0,0,0,1.582-1.582V55.763A1.582,1.582,0,0,0,227.231,54.181Z" transform="translate(-175.59 -39.568)"/></g><g transform="translate(48.034 52.87)"><path d="M306.658,374.684a1.6,1.6,0,1,0-.827,2.109l.034-.015A1.584,1.584,0,0,0,306.658,374.684Z" transform="translate(-303.617 -373.752)"/></g><g transform="translate(52.146 50.498)"><path d="M332.465,359.4a1.588,1.588,0,1,0-.346,2.219l.02-.015A1.575,1.575,0,0,0,332.465,359.4Z" transform="translate(-329.603 -358.757)" fill="#fff"/></g><g transform="translate(43.51 54.324)"><path d="M278.16,384.194a1.6,1.6,0,1,0-1.264,1.884l.047-.009A1.58,1.58,0,0,0,278.16,384.194Z" transform="translate(-275.016 -382.94)" fill="#fff"/></g><g transform="translate(55.66 47.291)"><path d="M354.471,338.894a1.582,1.582,0,0,0-2.234.115l-.034.038a1.582,1.582,0,1,0,2.268-.153Zm-.883,1.334-.176-.159.19.172Z" transform="translate(-351.819 -338.487)"/></g><g transform="translate(60.294 39.057)"><path d="M383.154,286.511a1.589,1.589,0,1,0,1.05,1.99l.007-.022A1.578,1.578,0,0,0,383.154,286.511Z" transform="translate(-381.109 -286.443)"/></g><g transform="translate(61.223 29.643)"><path d="M390.121,228.257c0-.02-.007-.04-.012-.06a1.594,1.594,0,1,0,.012.06Z" transform="translate(-386.979 -226.939)"/></g><g transform="translate(61.192 34.387)"><path d="M388.505,256.929a1.584,1.584,0,0,0-1.715,1.437c0,.015,0,.047,0,.062a1.582,1.582,0,0,0,1.486,1.672l.094,0a1.59,1.59,0,0,0,.139-3.173Z" transform="translate(-386.783 -256.923)" fill="#fff"/></g><g transform="translate(58.419 43.421)"><path d="M371.629,314.23a1.582,1.582,0,0,0-2.156.6l-.022.04a1.585,1.585,0,0,0,1.39,2.345,1.569,1.569,0,0,0,1.383-.823l-1.375-.782,1.376.78A1.582,1.582,0,0,0,371.629,314.23Z" transform="translate(-369.259 -314.024)" fill="#fff"/></g><g transform="translate(29.094 12.625)"><path d="M186.9,120.244a1.582,1.582,0,0,0-2.122-.708l-.014.007a1.582,1.582,0,1,0,2.136.7Z" transform="translate(-183.898 -119.37)"/></g><g transform="translate(33.538 10.972)"><path d="M215.125,110.127a1.581,1.581,0,0,0-1.91-1.165l-.037.009a1.582,1.582,0,1,0,1.947,1.155Z" transform="translate(-211.987 -108.918)" fill="#fff"/></g><g transform="translate(25.092 15.192)"><path d="M161.424,136.184a1.584,1.584,0,0,0-2.224-.241l.981,1.241-.985-1.238a1.582,1.582,0,0,0,1.971,2.475l.021-.017A1.58,1.58,0,0,0,161.424,136.184Z" transform="translate(-158.599 -135.595)" fill="#fff"/></g><g transform="translate(17.48 26.98)"><path d="M112.489,210.163a1.582,1.582,0,0,0-1.942,1.11l-.015.059a1.582,1.582,0,1,0,1.957-1.169Z" transform="translate(-110.487 -210.106)"/></g><g transform="translate(16.8 31.682)"><path d="M107.865,239.827a1.582,1.582,0,0,0-1.671,1.488c0,.02,0,.041,0,.061A1.581,1.581,0,0,0,107.725,243h.048a1.589,1.589,0,0,0,.091-3.176Z" transform="translate(-106.191 -239.824)" fill="#fff"/></g><g transform="translate(19.149 22.532)"><path d="M123.361,182.171a1.582,1.582,0,0,0-2.136.666l-.026.051a1.582,1.582,0,1,0,2.161-.717Z" transform="translate(-121.037 -181.989)" fill="#fff"/></g><g transform="translate(21.728 18.543)"><path d="M139.941,157.138a1.582,1.582,0,0,0-2.228.207l-.033.04a1.582,1.582,0,1,0,2.26-.247Z" transform="translate(-137.339 -156.773)"/></g><g transform="translate(17.123 36.423)"><path d="M111.369,271.094a1.582,1.582,0,0,0-3.114.558l0,.016a1.573,1.573,0,0,0,1.551,1.3,1.585,1.585,0,0,0,1.56-1.869Z" transform="translate(-108.23 -269.791)"/></g><g transform="translate(27.934 25.718)"><path d="M194.565,202.125a7.326,7.326,0,0,0-5.326,2.282,7.347,7.347,0,1,0-10.028,10.708l.031.025,9.015,7.137a1.582,1.582,0,0,0,1.967,0l9.4-7.485a1.57,1.57,0,0,0,.131-.117,7.346,7.346,0,0,0-5.187-12.547Zm3.01,10.249-8.34,6.643-8.013-6.344a4.182,4.182,0,1,1,6.555-4.8,1.582,1.582,0,0,0,2.923,0,4.182,4.182,0,1,1,6.875,4.5Z" transform="translate(-176.566 -202.125)" fill="#fff"/></g><g transform="translate(0.006 55.883)"><ellipse cx="1.576" cy="1.576" rx="1.576" ry="1.576"/></g><g transform="translate(77.844 9.446)"><ellipse cx="1.576" cy="1.576" rx="1.576" ry="1.576"/></g></g></g></svg>