<?xml version="1.0" encoding="UTF-8"?><svg id="ds44-icons" xmlns="http://www.w3.org/2000/svg" viewBox="0 0 531.44 480"><path d="m446.59,275.74c-6.18,0-12.36.73-18.4,2.16l-28.95-85.91,10.58-5.02c.75-.36,1.42-.82,2-1.41,2.28,1.62,5.02,2.51,7.85,2.51,7.51,0,13.63-6.11,13.63-13.62s-6.12-13.61-13.63-13.61-13,5.51-13.57,12.49c-.83.07-1.66.3-2.43.67l-16.34,7.75c-3.29,1.55-4.9,5.32-3.75,8.79l6.25,18.5-128.34,39.96-2.18-6.04h6.06c3.96,0,7.18-3.22,7.18-7.18v-8.78c0-3.96-3.22-7.19-7.18-7.19l-52.53,4.59,18.46,8.31c2.36,3.78,10.41.49,9.4,4.85-.17.74-.41,1.45-.67,2.15l-1.22,3.24h5.24l3.71,10.31-5.34,1.67c-1.54.48-2.89,1.47-3.8,2.8l-63.9,93.23c-1.5,2.21-1.66,5.05-.43,7.39,1.25,2.37,3.69,3.85,6.37,3.85h111.39l.75-.07c.24-.02.48-.05.82-.11l.62-.19c.31-.1.59-.21.81-.31l.71-.37c.24-.15.49-.32.96-.7l106.18-112.58,11.67,34.64c-28.78,12.7-47.25,40.92-47.25,72.51,0,43.71,35.55,79.28,79.26,79.28s79.28-35.56,79.28-79.28-35.56-79.27-79.28-79.27Zm-252.3,72.08l54.77-79.92,3.56-1.11,29.2,81.03h-87.53Zm100.56-6.26l-28.49-79.04,128.05-39.86,3.29,9.75-102.85,109.15Zm151.75,74.62c-33.74,0-61.18-27.44-61.18-61.18,0-23.72,13.64-45.14,34.97-55.27l19.38,57.57c1.25,3.65,5.31,5.75,9.12,4.52,1.82-.62,3.29-1.9,4.14-3.62.85-1.72.98-3.67.37-5.49l-19.4-57.57c4.15-.87,8.38-1.31,12.59-1.31,33.74,0,61.18,27.44,61.18,61.18s-27.44,61.18-61.18,61.18Z"/><path d="m114.17,92.74c0-17.2,13.94-31.14,31.14-31.14,17.2,0,31.14,13.94,31.14,31.14,0,17.2-13.94,31.14-31.14,31.14-17.2,0-31.14-13.94-31.14-31.14"/><path d="m242.31,226.73c7.98.8,14.23,7.44,14.23,15.63,0,8.72-7.07,15.79-15.79,15.79-.81,0-1.6-.12-2.37-.24l-.02.11s-52.88-10.69-57.13-11.61c-4.23-.92-8.29-5.9-9.58-8.66-1.29-2.77-14-27.64-14-27.64l-9.76,47.35s44.4,47.17,45.7,48.64c1.29,1.47,7,4.97,6.45,21-.5,14.4-.1,78.01-.02,90.78,0,.12.02.24.02.36,0,.09-.01.19-.01.28,0,1.03.01,1.63.01,1.63h-.1c-.95,9.38-8.88,16.71-18.51,16.71s-17.56-7.32-18.52-16.71h-.1v-83.83s-47.54-47.54-47.54-47.54c0,0-8.3,49.93-9.03,53.8-.74,3.87-2.03,6.82-7,12.71-4.48,5.31-50.88,59.86-60.11,70.7-3.35,4.71-8.84,7.79-15.06,7.79-10.21,0-18.49-8.28-18.49-18.49,0-5.34,2.28-10.14,5.9-13.51l50.36-60.68,14.37-81.81s14.19-69.09,15.29-72.41l-15.48,8.66-24.7,46.72c-1.68,7.05-8.01,12.3-15.58,12.3-8.86,0-16.03-7.18-16.03-16.03,0-3.77,1.3-7.22,3.47-9.95l26.49-49.81s3.31-6.64,7-8.48c3.68-1.84,60.43-34.27,60.43-34.27,0,0,11.43-5.89,22.85-2.21,11.42,3.68,19.53,12.16,22.48,15.48,2.95,3.32,33.17,67.07,33.9,68.18.74,1.11-1.48.37.74,1.11,1.93.64,36.57,6.65,45.23,8.14h0Z"/><path d="m181.83,434.6c-42.2,0-76.53-34.33-76.53-76.52s34.33-76.52,76.53-76.52,76.52,34.33,76.52,76.52-34.33,76.52-76.52,76.52Zm0-135.97c-32.78,0-59.45,26.67-59.45,59.45s26.67,59.45,59.45,59.45,59.44-26.67,59.44-59.45-26.67-59.45-59.44-59.45Z"/></svg>