<svg width="110" height="110" xmlns="http://www.w3.org/2000/svg" x="0px" y="0px"
	 viewBox="0 0 110 110" style="enable-background:new 0 0 110 110;" xml:space="preserve">
<g>
	<g>
		<path d="M71.1,43.3l25-16.9c0.5,0.1,1.1,0.4,1.5,0.7L73.7,43.3H71.1z"/>
		<path d="M95.9,25.3L67.8,44.3H74l25.3-17.1C98.4,26.2,97.2,25.6,95.9,25.3L95.9,25.3z"/>
	</g>
	<g>
		<path d="M13.9,83.6c-0.5-0.2-1-0.4-1.5-0.7l23.9-16.3H39L13.9,83.6z"/>
		<path d="M42.3,65.6H36L10.8,82.7c0.9,1,2,1.6,3.3,1.9L42.3,65.6L42.3,65.6z"/>
	</g>
	<g>
		<path d="M71,66.7h2.7l24,16.1c-0.5,0.3-1,0.6-1.5,0.7L71,66.7z"/>
		<path d="M74,65.7h-6.3l28.2,18.9c1.3-0.3,2.5-0.9,3.4-1.9L74,65.7L74,65.7z"/>
	</g>
	<g>
		<path d="M36.3,43.3L12.4,27.1c0.5-0.3,1-0.6,1.5-0.7L39,43.3H36.3z"/>
		<path d="M14.1,25.3c-1.3,0.3-2.4,0.9-3.3,1.9l25.2,17h6.2L14.1,25.3L14.1,25.3z"/>
	</g>
	<g>
		<polygon points="85.3,43.3 99.8,33.5 99.8,43.3 		"/>
		<path d="M98.8,35.4v6.9H88.6L98.8,35.4 M100.8,31.6L82,44.3h18.8V31.6L100.8,31.6z"/>
	</g>
	<g>
		<polygon points="66.7,26.2 84.9,26.2 66.7,38.5 		"/>
		<path d="M81.6,27.2l-13.9,9.4v-9.4H81.6 M88.1,25.2H65.7v15.1L88.1,25.2L88.1,25.2z"/>
	</g>
	<g>
		<polygon points="25.2,26.2 43.4,26.2 43.4,38.5 		"/>
		<path d="M42.4,27.2v9.4l-13.9-9.4H42.4 M44.4,25.2H22l22.4,15.1V25.2L44.4,25.2z"/>
	</g>
	<g>
		<polygon points="66.7,83.8 66.7,71.6 84.8,83.8 		"/>
		<path d="M67.7,73.5l13.8,9.3H67.7V73.5 M65.7,69.7v15.1h22.4L65.7,69.7L65.7,69.7z"/>
	</g>
	<g>
		<polygon points="25.1,83.8 43.3,71.6 43.3,83.8 		"/>
		<path d="M42.3,73.5v9.3H28.4L42.3,73.5 M44.3,69.7L21.8,84.8h22.5V69.7L44.3,69.7z"/>
	</g>
	<g>
		<polygon points="85.3,66.7 99.8,66.7 99.8,76.5 		"/>
		<path d="M98.8,67.7v6.9l-10.3-6.9H98.8 M100.8,65.7H82l18.8,12.7V65.7L100.8,65.7z"/>
	</g>
	<g>
		<polygon points="10.2,43.4 10.2,33.5 24.8,43.4 		"/>
		<path d="M11.2,35.4l10.4,7H11.2V35.4 M9.2,31.6v12.7h18.9L9.2,31.6L9.2,31.6z"/>
	</g>
	<g>
		<polygon points="10.2,66.6 24.8,66.6 10.2,76.5 		"/>
		<path d="M21.5,67.6l-10.4,7v-7H21.5 M28.1,65.6H9.2v12.8L28.1,65.6L28.1,65.6z"/>
	</g>
	<g>
		<polygon points="49.1,83.8 49.1,60.8 10.2,60.8 10.2,49.2 49.2,49.2 49.2,26.2 60.9,26.2 60.9,49.1 99.8,49.1 99.8,60.9
			60.9,60.9 60.9,83.8 		"/>
		<path d="M59.9,27.2v20.8v2h2h36.9v9.8H61.9h-2v2v20.9h-9.8v-21v-2h-2H11.2v-9.6h37h2v-2V27.2H59.9 M61.9,25.2H48.2v22.9h-39v13.6
			h38.9v23h13.8V61.9h38.9V48.1H61.9V25.2L61.9,25.2z"/>
	</g>
</g>
</svg>
