<?xml version="1.0" encoding="utf-8"?>
<!-- Generator: Adobe Illustrator 25.1.0, SVG Export Plug-In . SVG Version: 6.00 Build 0)  -->
<svg version="1.0" id="Calque_1" xmlns="http://www.w3.org/2000/svg" xmlns:xlink="http://www.w3.org/1999/xlink" x="0px" y="0px"
	 viewBox="0 0 150 150" enable-background="new 0 0 150 150" xml:space="preserve">
<g>
	<polygon fill="#1D1D1B" points="93.2,87.7 91.6,89.4 96,93.8 111.2,78.6 109.6,77 96,90.5 	"/>
	<rect x="41" y="67.3" fill="#1D1D1B" width="2.3" height="2.3"/>
	<rect x="51.7" y="67.3" fill="#1D1D1B" width="2.3" height="2.3"/>
	<rect x="62.5" y="67.3" fill="#1D1D1B" width="2.3" height="2.3"/>
	<rect x="73.3" y="67.3" fill="#1D1D1B" width="2.3" height="2.3"/>
	<rect x="84.1" y="67.3" fill="#1D1D1B" width="2.3" height="2.3"/>
	<rect x="94.8" y="67.3" fill="#1D1D1B" width="2.3" height="2.3"/>
	<rect x="105.6" y="67.3" fill="#1D1D1B" width="2.3" height="2.3"/>
	<rect x="41" y="78.1" fill="#1D1D1B" width="2.3" height="2.3"/>
	<rect x="51.7" y="78.1" fill="#1D1D1B" width="2.3" height="2.3"/>
	<rect x="62.5" y="78.1" fill="#1D1D1B" width="2.3" height="2.3"/>
	<rect x="73.3" y="78.1" fill="#1D1D1B" width="2.3" height="2.3"/>
	<rect x="41" y="88.8" fill="#1D1D1B" width="2.3" height="2.3"/>
	<rect x="51.7" y="88.8" fill="#1D1D1B" width="2.3" height="2.3"/>
	<rect x="62.5" y="88.8" fill="#1D1D1B" width="2.3" height="2.3"/>
	<rect x="73.3" y="88.8" fill="#1D1D1B" width="2.3" height="2.3"/>
	<rect x="41" y="99.6" fill="#1D1D1B" width="2.3" height="2.3"/>
	<rect x="51.7" y="99.6" fill="#1D1D1B" width="2.3" height="2.3"/>
	<rect x="62.5" y="99.6" fill="#1D1D1B" width="2.3" height="2.3"/>
	<rect x="41" y="110.4" fill="#1D1D1B" width="2.3" height="2.3"/>
	<rect x="51.7" y="110.4" fill="#1D1D1B" width="2.3" height="2.3"/>
	<rect x="62.5" y="110.4" fill="#1D1D1B" width="2.3" height="2.3"/>
	<rect x="73.3" y="99.6" fill="#1D1D1B" width="2.3" height="2.3"/>
	<path fill="#1D1D1B" d="M110.1,30.6V22H99.2v8.6H49.7V22H38.8v8.6H21.6v97.1h87.9l17.9-17.9V30.6H110.1z M101.5,24.3h6.3v14.9h-6.3
		V24.3z M41.1,24.3h6.3v14.9h-6.3V24.3z M110.1,123.8v-13.3h13.3L110.1,123.8z M125,108.2h-17.2v17.2H23.9V52.4H125V108.2z M125,50
		H23.9V33h14.9v8.6h10.9V33h49.4v8.6h10.9V33H125V50z"/>
	<polygon fill="#1D1D1B" points="107.9,93.1 105.6,93.1 105.6,99.6 86.4,99.6 86.4,80.4 97.2,80.4 97.2,78.1 84.1,78.1 84.1,101.9 
		107.9,101.9 	"/>
</g>
</svg>
