<svg width="110" height="110" version="1.1" id="ds44-icons" xmlns="http://www.w3.org/2000/svg" xmlns:xlink="http://www.w3.org/1999/xlink" x="0px" y="0px"
	 viewBox="0 0 110 110" style="enable-background:new 0 0 110 110;" xml:space="preserve">
<g>
	<path d="M36.2,60.4h-5.4V98h5.4c1.5,0,2.7-1.2,2.7-2.7V63.1C38.9,61.6,37.7,60.4,36.2,60.4L36.2,60.4z"/>
	<path d="M73.8,60.4c-1.5,0-2.7,1.2-2.7,2.7v32.2c0,1.5,1.2,2.7,2.7,2.7h5.4V60.4L73.8,60.4L73.8,60.4z"/>
	<path d="M98,55c0-23.8-19.2-43-43-43S12,31.2,12,55c0,5.2,0.9,10.1,2.6,14.7c-1.6,2.8-2.6,6-2.6,9.5c0,9.5,7,17.3,16.1,18.6V60.6
		c-2.7,0.4-5.2,1.3-7.4,2.7c-0.5-2.3-0.7-4.6-0.7-7C20.1,37,35.7,21.4,55,21.4S89.9,37,89.9,56.3c0,2.4-0.2,4.7-0.7,7
		c-2.2-1.4-4.7-2.3-7.4-2.7v37.2C91,96.5,98,88.6,98,79.2c0-3.5-0.9-6.7-2.6-9.5C97.1,65.1,98,60.2,98,55L98,55L98,55z"/>
</g>
</svg>
