<svg width="110" height="110" xmlns="http://www.w3.org/2000/svg" x="0px" y="0px"
	 viewBox="0 0 110 110" style="enable-background:new 0 0 110 110;" xml:space="preserve">
<style type="text/css">
	.st0{fill:#1D1D1B;}
	.st1{fill:#FFFFFF;}
</style>
<g>
	<path class="st0" d="M84.4,54.5l-1.9,0.3C84.4,67,79.2,79.5,69,86.6L68.6,87l-0.3-0.5L66,82.7c-0.9-1.4-1-3.2-0.2-4.7l0.7-1.3
		c0.3-0.7,1-1.1,1.7-1.1h2.1c1.6,0,3-1,3.6-2.4l2-4.9c0.2-0.5,0.3-0.9,0.3-1.4v-3.2c0-0.6-0.3-1.3-0.7-1.7l-1.8-1.8
		c-0.5-0.5-1.1-0.7-1.7-0.7c-0.4,0-0.7,0.1-1.1,0.3l-3.6,1.8c-0.3,0.1-0.6,0.2-0.9,0.2s-0.6-0.1-0.9-0.2l-5.8-2.9
		c-0.7-0.3-1.1-1-1.1-1.7v-4c0-1.3-1.1-2.4-2.4-2.4c-1.1,0-2-0.9-2-2v-1.5c0-0.6,0.3-1.2,0.8-1.6l4.3-3.2l-1.1-1.5L53.9,44
		c-1,0.7-1.5,1.9-1.5,3.1v1.5c0,2.1,1.7,3.9,3.9,3.9h0.5V53v4c0,1.5,0.8,2.8,2.1,3.5l5.8,2.9c0.5,0.3,1.1,0.4,1.7,0.4
		s1.2-0.1,1.7-0.4l3.6-1.8l0.3-0.2l0.3,0.3l1.7,1.7l0.1,0.1v0.2v3.2c0,0.2,0,0.5-0.1,0.7l-2,4.9c-0.3,0.7-1,1.2-1.8,1.2h-2.1
		c-1.5,0-2.8,0.8-3.5,2.1L64,77.1c-1,2.1-0.9,4.6,0.3,6.6l2.4,3.9L67,88l-0.4,0.3c-4.9,2.8-10.5,4.3-16.2,4.3c-4.7,0-9.3-1-13.6-3
		L36,89.2l0.7-0.5l1.8-1.2c0.3-0.2,0.7-0.3,1.1-0.3h3.7c1,0,2-0.4,2.7-1.1l4.1-4.1c0.7-0.7,1.1-1.7,1.1-2.7v-6.7
		c0-0.7-0.2-1.4-0.5-2l-3.1-5.2c-0.7-1.1-2-1.9-3.3-1.9h-4.1c-1.3,0-2.5,0.6-3.2,1.7l-1.6,2.4l-0.1,0.2H35h-3.6
		c-1.3,0-2.4,1.1-2.4,2.4V73c0,0.7-0.3,1.3-0.9,1.6l-4.5,2.9l-0.4,0.3l-0.3-0.4c-3.3-5.2-5.1-11.2-5.1-17.4c0-0.5,0-0.9,0-1.5V58
		h0.5h2.5c0.8,0,1.4,0.4,1.8,1.1l1.7,3.4c0.4,0.8,1.2,1.3,2.1,1.3H28c0.8,0,1.5-0.4,1.9-1c0.5-0.6,0.6-1.4,0.4-2.1l-1.9-6.5
		l-0.2-0.6h0.7h2.9c0.9,0,1.7-0.3,2.4-0.8L39,49c1.4-1.1,1.8-3,1.1-4.6l-2.5-5.8c-0.4-0.9,0-1.9,0.8-2.5l3.7-2.2
		c1.2-0.7,1.9-2,1.9-3.4v-2.1V28l0.4-0.1c2-0.4,4-0.6,6-0.6c2.7,0,5.3,0.3,7.9,1l0.5-1.8c-2.8-0.7-5.6-1-8.4-1
		c-11.5,0-22.3,5.7-28.7,15.3C13.4,53.1,14,69.3,23,81c6.5,8.4,16.7,13.5,27.4,13.5c3.8,0,7.5-0.6,11.1-1.8
		c14-4.8,23.4-17.9,23.4-32.7C84.8,58.2,84.7,56.4,84.4,54.5z M32.7,51c-0.1,0.1-0.3,0.2-0.4,0.2c0,0-0.1,0-0.2,0
		c-0.1,0-0.2,0.1-0.3,0.1h-2.9l0,0c-0.1,0-0.3,0-0.4,0s-0.2,0-0.3,0c-0.1,0-0.3,0.1-0.4,0.1s-0.2,0-0.2,0.1
		c-0.1,0.1-0.2,0.2-0.4,0.2c-0.1,0-0.1,0.1-0.2,0.1c-0.2,0.1-0.3,0.3-0.5,0.5C25.9,53,25.8,54,26,54.9l1.9,6.5h-1.5L24.7,58
		c-0.1-0.2-0.2-0.4-0.3-0.5c0-0.1-0.1-0.1-0.1-0.2c-0.1-0.1-0.2-0.2-0.2-0.3c-0.1-0.1-0.1-0.1-0.2-0.2c-0.1-0.1-0.1-0.2-0.2-0.2
		c-0.1-0.1-0.2-0.1-0.3-0.2c-0.1-0.1-0.2-0.1-0.2-0.2c-0.1-0.1-0.2-0.1-0.3-0.1c-0.1,0-0.2-0.1-0.3-0.1c-0.1,0-0.2-0.1-0.3-0.1
		c-0.1,0-0.2-0.1-0.3-0.1c-0.1,0-0.2,0-0.3-0.1c-0.1,0-0.2-0.1-0.3-0.1c-0.1,0-0.2,0-0.3,0c-0.1,0-0.2,0-0.3,0l0,0h-2.3
		c0.4-2.3,1-4.6,1.8-6.8c0.3-0.7,0.6-1.4,0.9-2.1c0.6-1.4,1.4-2.7,2.2-4c0.4-0.6,0.9-1.3,1.3-1.9c0.9-1.2,1.9-2.4,3-3.5
		c3.8-3.8,8.5-6.6,13.9-8.2v1.5c0,0.5-0.3,1-0.7,1.3l-3.7,2.2c-1.9,1.1-2.6,3.5-1.8,5.5l2.5,5.8c0.3,0.6,0.1,1.3-0.4,1.7L32.7,51z
		 M34,88.2L33.7,88c-3.6-2.1-6.7-4.9-9.2-8.2l-0.3-0.4l0.5-0.3l4.5-2.9c1.1-0.7,1.8-1.9,1.8-3.3v-2.8v-0.5h0.5H35
		c0.8,0,1.6-0.4,2-1.1l1.6-2.4c0.4-0.5,1-0.9,1.6-0.9h4.1c0.7,0,1.3,0.3,1.7,0.9l3.1,5.2c0.2,0.3,0.3,0.6,0.3,1V79
		c0,0.5-0.2,1-0.6,1.4l-4.1,4.1c-0.4,0.4-0.9,0.6-1.4,0.6h-3.7c-0.8,0-1.5,0.2-2.2,0.7L34.3,88L34,88.2z"/>
	<path class="st1" d="M89.5,42.7L89,42.2l0.5-0.3l4.6-2.8l-2-2.1c-0.7-0.7-1.7-1.1-2.7-1.1h-6.5h-0.2l-0.1-0.1l-5.2-5.2L76.8,30
		l0.7-0.3l12.7-4.9l-2.3-2.3c-1.3-1.3-3-2-4.8-2c-0.1,0-0.3,0-0.4,0l-14.3,0.8h-0.2L68,21.1l-4.7-4.7c-0.7-0.7-1.7-1.1-2.7-1.1
		s-2,0.4-2.7,1.1c-1.5,1.5-1.5,4,0,5.5l4.7,4.7l0.2,0.2V27L62,41.3c-0.1,1.9,0.6,3.8,2,5.2l2.3,2.3l4.9-12.7l0.3-0.7l0.5,0.5
		l5.2,5.2l0.1,0.1v0.2V48c0,1,0.4,2,1.1,2.7l2.1,2.1l2.8-4.6l0.3-0.5l0.5,0.5l0.7,0.7c0.7,0.8,1.7,1.2,2.8,1.2c0.3,0,0.7,0,1-0.1
		c1.4-0.4,2.4-1.4,2.8-2.8c0.4-1.4-0.1-2.8-1.1-3.8L89.5,42.7z M85.8,37.8h3.5c0.4,0,0.9,0.2,1.2,0.4l0.6,0.4L90.5,39L88,40.6
		l-0.3,0.2l-0.3-0.3l-1.9-1.9l-0.9-0.9L85.8,37.8z M71.2,23.2l11.7-0.7c0.1,0,0.2,0,0.3,0c1.1,0,2.2,0.4,3,1.1l0.7,0.5L86,24.4
		l-10.4,4l-0.3,0.1l-0.2-0.2L70.9,24l-0.8-0.8H71.2z M69.8,34.3l-4,10.4l-0.3,0.8L65,44.8c-0.7-0.9-1.1-2.1-1-3.3l0.7-11.7l0.1-1.1
		l0.8,0.8l4.3,4.3l0.2,0.2L69.8,34.3z M81.9,46.6l-1.5,2.6L80,49.8l-0.4-0.6c-0.3-0.3-0.4-0.8-0.4-1.2v-3.5v-1.2l0.9,0.9l1.9,1.9
		l0.3,0.3L81.9,46.6z M88.9,44.8c0.8,0.8,0.8,2,0,2.8c-0.4,0.4-0.9,0.6-1.4,0.6s-1-0.2-1.4-0.6L59.3,20.7c-0.8-0.8-0.8-2,0-2.8
		c0.4-0.4,0.9-0.6,1.4-0.6s1,0.2,1.4,0.6"/>
</g>
</svg>
