<?xml version="1.0" encoding="utf-8"?>
<!-- Generator: Adobe Illustrator 28.3.0, SVG Export Plug-In . SVG Version: 6.00 Build 0)  -->
<svg version="1.1" id="ds44-icons" xmlns="http://www.w3.org/2000/svg" xmlns:xlink="http://www.w3.org/1999/xlink" x="0px" y="0px"
	 viewBox="0 0 110 110" style="enable-background:new 0 0 110 110;" xml:space="preserve">
<path d="M85.6,93.6l-3.2-17.8c-0.5-2.5-2.7-4.4-5.3-4.4h-6.3C77.2,58,82.5,44.7,82.5,37.9c0-15-12.2-27.3-27.3-27.3
	S27.8,22.8,27.8,37.9c0,6.8,5.4,20.1,11.7,33.5h-6.3c-2.6,0-4.8,1.9-5.3,4.4l-3.1,17.8c-0.6,3.3,2,6.3,5.3,6.3h50.3
	C83.7,99.9,86.2,96.9,85.6,93.6L85.6,93.6z M55.2,17C66.7,17,76,26.4,76,37.8c0,6.4-6.9,23.3-18.7,46.4c-0.7,1.2-1.7,1.3-2.2,1.3
	s-1.6-0.1-2.2-1.3c-11.9-23.1-18.7-40-18.7-46.3C34.3,26.4,43.6,17,55.2,17L55.2,17z"/>
<circle cx="55.2" cy="37.9" r="11.3"/>
</svg>
