<svg width="110" height="110" xmlns="http://www.w3.org/2000/svg" x="0px" y="0px"
	 viewBox="0 0 110 110" style="enable-background:new 0 0 110 110;" xml:space="preserve">
<style type="text/css">
	.st0{fill:#FFFFFF;}
</style>
<g>
	<path d="M72.9,62.2L65,60.6c-0.4-0.1-0.8,0-1.1,0.2c-0.3,0.2-0.6,0.6-0.6,1l0,0.2l-6.6-1.4c-0.4-0.1-0.8,0-1.1,0.2
		c-0.3,0.2-0.6,0.6-0.6,1l0,0.2l-6.6-1.4c-0.4-0.1-0.8,0-1.1,0.2c-0.3,0.2-0.6,0.6-0.6,1l0,0.2l-6.6-1.4c-0.4-0.1-0.8,0-1.1,0.2
		c-0.3,0.2-0.6,0.6-0.6,1l-5.3,25.9c-0.2,0.8,0.4,1.6,1.2,1.8l7.9,1.6c0.1,0,0.2,0,0.3,0c0.3,0,0.6-0.1,0.8-0.2
		c0.3-0.2,0.6-0.6,0.6-1l0-0.2l6.6,1.4c0.1,0,0.2,0,0.3,0c0.3,0,0.6-0.1,0.8-0.2c0.3-0.2,0.6-0.6,0.6-1l0-0.2l6.6,1.4
		c0.1,0,0.2,0,0.3,0c0.3,0,0.6-0.1,0.8-0.2c0.3-0.2,0.6-0.6,0.6-1l0-0.2L67,91c0.1,0,0.2,0,0.3,0c0.3,0,0.6-0.1,0.8-0.2
		c0.3-0.2,0.6-0.6,0.6-1L74.1,64C74.3,63.2,73.7,62.4,72.9,62.2z M35.9,86.8l4.7-23l5,1l-4.7,23L35.9,86.8z M44.3,86.8l4.7-23l5,1
		l-4.7,23L44.3,86.8z M52.7,86.8l4.7-23l5,1l-4.7,23L52.7,86.8z M66.2,87.8l-5-1l4.7-23l5,1L66.2,87.8z"/>
	<path class="st0" d="M77.3,50.8L72,24.9c-0.2-0.8-1-1.3-1.8-1.2l-6.6,1.4l0-0.2c-0.2-0.8-1-1.3-1.8-1.2l-6.6,1.4l0-0.2
		c-0.2-0.8-1-1.3-1.8-1.2l-6.6,1.4l0-0.2c-0.2-0.8-1-1.3-1.8-1.2l-6.6,1.4l0-0.2c-0.2-0.8-1-1.3-1.8-1.2L30,25.1l0-0.2
		c-0.2-0.8-1-1.3-1.8-1.2l-7.9,1.6c-0.8,0.2-1.3,1-1.2,1.8L24.4,53c0.1,0.7,0.8,1.2,1.5,1.2c0.1,0,0.2,0,0.3,0l6.6-1.4l0,0.2
		c0.1,0.7,0.8,1.2,1.5,1.2c0.1,0,0.2,0,0.3,0l6.6-1.4l0,0.2c0.1,0.7,0.8,1.2,1.5,1.2c0.1,0,0.2,0,0.3,0l6.6-1.4l0,0.2
		c0.1,0.7,0.8,1.2,1.5,1.2c0.1,0,0.2,0,0.3,0l6.6-1.4l0,0.2c0.1,0.7,0.8,1.2,1.5,1.2c0.1,0,0.2,0,0.3,0l6.6-1.4l0,0.2
		c0.1,0.7,0.8,1.2,1.5,1.2c0.1,0,0.2,0,0.3,0l7.9-1.6c0.4-0.1,0.7-0.3,1-0.6S77.4,51.2,77.3,50.8z M27,51l-4.7-23l5-1l4.7,23L27,51z
		 M35.4,51l-4.7-23l5-1l4.7,23L35.4,51z M43.8,51l-4.7-23l5-1l4.7,23L43.8,51z M52.3,51l-4.7-23l5-1l4.7,23L52.3,51z M60.7,51L56,28
		l5-1l4.7,23L60.7,51z M69.1,51l-4.7-23l5-1l4.7,23L69.1,51z"/>
	<path class="st0" d="M75.8,91.1c-0.1,0-0.2,0-0.3,0l-7.9-1.6c-0.8-0.2-1.3-1-1.2-1.8l5.3-25.9c0.2-0.8,1-1.3,1.8-1.2l7.9,1.6
		c0.4,0.1,0.7,0.3,1,0.6s0.3,0.7,0.2,1.1l-5.3,25.9C77.1,90.6,76.5,91.1,75.8,91.1z M69.6,86.8l5,1l4.7-23l-5-1L69.6,86.8z"/>
	<path d="M91.5,18h-73c-0.8,0-1.5,0.7-1.5,1.5v70.9c0,0.8,0.7,1.5,1.5,1.5h73c0.8,0,1.5-0.7,1.5-1.5V19.5C93,18.7,92.3,18,91.5,18z
		 M90,21v31.3H20V21H90z M20,89V55.4h70V89H20z"/>
</g>
</svg>
