<svg width="110" height="110" xmlns="http://www.w3.org/2000/svg" x="0px" y="0px"
	 viewBox="0 0 110 110" style="enable-background:new 0 0 110 110;" xml:space="preserve">
<g>
	<path d="M93.4,45.2C93.4,45.2,93.4,45.2,93.4,45.2c-3-9.7-9.6-17.7-18.1-22.8c4.5-3.3,9.1-6.6,10-6.9c0.8-0.2,1.2-1.1,1-1.9
		s-1.1-1.2-1.9-1c-1.5,0.4-6.7,4.2-10.3,6.8l0.2-4.8c0-0.8-0.6-1.5-1.4-1.6c-0.8-0.1-1.5,0.6-1.6,1.4l-0.3,5.8
		c-4.9-2.2-10.4-3.4-16.1-3.4c-19.2,0-35.3,13.5-39.3,31.6c0,0,0,0,0,0c0,0.1,0,0.1,0,0.2c-0.6,2.7-0.9,5.6-0.9,8.5
		c0,22.2,18,40.2,40.2,40.2s40.2-18,40.2-40.2C95.2,53,94.6,49,93.4,45.2z M55,19.9c16.4,0,30.3,10.6,35.3,25.3
		c-2.1,1.7-4.3,2.5-6.9,2.3c-8.2-0.5-16.2-10.1-16.3-10.2c-0.3-0.4-0.8-0.6-1.2-0.5c-0.5,0-0.9,0.2-1.2,0.6
		c-12.4,17.4-39.4,12-45.8,10.4C23.1,31.8,37.7,19.9,55,19.9z M55,94.4c-20.5,0-37.2-16.7-37.2-37.2c0-2.2,0.2-4.3,0.5-6.3
		c2.9,0.7,9.6,2.1,17.4,2.1c0.1,0,0.2,0,0.3,0c13.2-0.1,23.6-4.3,30.1-12.3c2.8,2.9,9.7,9.4,17.1,9.9c2.9,0.2,5.6-0.6,8-2.3
		c0.7,2.8,1.1,5.8,1.1,8.9C92.2,77.7,75.5,94.4,55,94.4z"/>
	<circle cx="42.9" cy="62.4" r="1.9"/>
	<circle cx="66" cy="62.4" r="1.9"/>
	<path d="M65.8,76.8c-0.8-0.2-1.6,0.2-1.9,1c-0.1,0.2-1.8,5.4-8.2,5.4c-5.4,0-7.6-5.3-7.6-5.6c-0.3-0.8-1.2-1.2-1.9-0.8
		c-0.8,0.3-1.2,1.2-0.9,1.9c0.1,0.3,3,7.5,10.4,7.5c6.9,0,10.3-5,11-7.6C67.1,77.9,66.6,77.1,65.8,76.8z"/>
</g>
</svg>
