<svg width="110" height="110" xmlns="http://www.w3.org/2000/svg" x="0px" y="0px"
	 viewBox="0 0 110 110" style="enable-background:new 0 0 110 110;" xml:space="preserve">
<g id="discussion">
	<g id="Groupe_2243">
		<g id="Tracé_1096">
			<g>
				<path d="M80.4,15.1c8.3,0,15.1,6.8,15.1,15.1v32.3c0,8.3-6.8,15.1-15.1,15.1H36h-0.9l-0.6,0.6L16.7,94.6
					c-0.2,0.2-0.5,0.3-0.9,0.3c-0.2,0-0.3,0-0.5-0.1c-0.5-0.2-0.8-0.6-0.8-1.1V30.2c0-8.3,6.8-15.1,15.1-15.1H80.4 M17.1,90.8
					l3.7-3.4l13-12c0.2-0.2,0.5-0.3,0.8-0.3h45.8c6.9,0,12.6-5.6,12.6-12.6V30.2c0-6.9-5.6-12.6-12.6-12.6H29.6
					c-6.9,0-12.6,5.6-12.6,12.6v55.5V90.8"/>
			</g>
		</g>
		<g id="Groupe_2242">
			<g id="Ellipse_30">
				<g>
					<path d="M37.6,43c1.8,0,3.3,1.5,3.3,3.3s-1.5,3.3-3.3,3.3c-1.8,0-3.3-1.5-3.3-3.3S35.7,43,37.6,43"/>
				</g>
			</g>
			<g id="Ellipse_31">
				<g>
					<path d="M55,43c1.8,0,3.3,1.5,3.3,3.3s-1.5,3.3-3.3,3.3c-1.8,0-3.3-1.5-3.3-3.3S53.2,43,55,43"/>
				</g>
			</g>
			<g id="Ellipse_32">
				<g>
					<path d="M72.4,43c1.8,0,3.3,1.5,3.3,3.3s-1.5,3.3-3.3,3.3c-1.8,0-3.3-1.5-3.3-3.3S70.6,43,72.4,43"/>
				</g>
			</g>
		</g>
	</g>
</g>
<g>
	<path d="M-43.5,65.7l0.3-0.3c4.4-5.9,6.8-12.9,6.8-20.1c-0.1-18.6-15.2-33.7-33.8-33.7s-33.7,15.1-33.7,33.6
		c0,18.6,15.1,33.7,33.7,33.7c7.3,0,14.4-2.3,20.1-6.8l0.3-0.3l25.7,25.8l6.2-6.2L-43.5,65.7z M-47.5,70.2l1.8-1.8l0.8-0.8l24,24
		l-3,3l-24-24L-47.5,70.2z M-38.7,45.2c0,17.4-14.1,31.4-31.4,31.4s-31.5-14-31.5-31.4s14.1-31.4,31.4-31.4S-38.7,27.9-38.7,45.2z"
		/>
</g>
</svg>
