<svg width="110" height="110" xmlns="http://www.w3.org/2000/svg" x="0px" y="0px"
	 viewBox="0 0 110 110" style="enable-background:new 0 0 110 110;" xml:space="preserve">
<g>
	<g>
		<path d="M67.2,48.5c0.4,0.2,0.7,0.2,0.9,0.1c0.2,0,0.5-0.2,0.8-0.6c3.1-5.1,2.5-9.1,1.4-11.6c-1.5-3.5-4.7-5.9-8-5.9
			c-3.1,0-5.4,0.8-7,2.5c-1.4,1.5-1.9,3.2-2,4c0,0.4,0.1,0.7,0.3,0.9c0.1,0.1,0.4,0.4,0.8,0.4c0.7,0.1,1.2-0.4,1.3-1l0.1-0.4
			c0.2-0.8,0.7-1.5,1.2-2.2c1.1-1.2,2.8-1.8,5.3-1.8c2.3,0,4.6,1.8,5.7,4.4c0.8,1.9,1.2,5.1-1.3,9.4C66.4,47.4,66.6,48.2,67.2,48.5z
			"/>
	</g>
	<g>
		<path d="M48.8,60.4c-0.3,0-0.6,0.1-0.9,0.4L13.6,95.1c-0.5,0.5-0.5,1.3,0,1.7c0.5,0.5,1.3,0.5,1.7,0l34.4-34.4
			c0.5-0.5,0.5-1.3,0-1.7C49.5,60.5,49.2,60.4,48.8,60.4z"/>
	</g>
	<g>
		<path d="M95.4,15c-0.5-0.5-1.3-0.5-1.7,0L80.8,27.9l-2.1-2.5c-1.3-1.5-2.7-2.8-4.3-4c-3.5-2.5-7.7-3.9-12-3.9
			c-9,0-14.3,4-17.1,7.3c-3.7,4.3-5,9.4-5,12.4c0,6.1,2.5,12.4,2.9,13.3c0.2,0.4,0.5,0.5,0.7,0.6c0.2,0.1,0.5,0.1,0.9,0
			c0.6-0.3,0.8-0.9,0.6-1.5c-0.3-0.8-2.7-6.7-2.7-12.3c0-2.6,1.2-7.1,4.4-10.8c3.7-4.3,8.9-6.5,15.3-6.5c7.5,0,14.7,5,17.8,12.5
			c3.8,9.1,1.1,19.3-7.5,28.1c-8.3,8.4-10.5,16.6-12.3,23.2c-1.9,7.2-3.2,10.9-8.7,12.5c-3.5,1-6.6,0.2-9.2-2.3
			c-0.6-0.6-1.2-1.3-1.7-2.1l-2.4,0.9c0.6,1,1.3,1.9,2.1,2.7c2.3,2.4,5.1,3.6,8.2,3.6c1.2,0,2.4-0.2,3.6-0.5
			c7.1-2.1,8.6-7.7,10.4-14.2c1.7-6.3,3.9-14.2,11.7-22.2c4.9-5,8-10.4,9.3-16c1.1-4.7,0.7-9.6-1-14.2L82,30.2l13.5-13.4
			C95.9,16.3,95.9,15.5,95.4,15"/>
	</g>
</g>
</svg>
