<svg width="110" height="110" xmlns="http://www.w3.org/2000/svg" x="0px" y="0px"
	 viewBox="0 0 110 110" style="enable-background:new 0 0 110 110;" xml:space="preserve">
<style type="text/css">
	.st0{fill:#FFFFFF;}
</style>
<g>
	<g id="Calque_2_6_">
		<g id="Calque_1-2_5_">
			<path d="M25.1,95.2c-0.1,0-0.2,0-0.3,0c-0.8-0.2-1.3-1-1.1-1.8l18-78.7c0.2-0.8,1-1.3,1.8-1.1c0.8,0.2,1.3,1,1.1,1.8L26.6,94
				C26.4,94.7,25.8,95.2,25.1,95.2z"/>
			<path d="M84.9,95.2c-0.7,0-1.3-0.5-1.5-1.2L65.8,15.3c-0.2-0.8,0.3-1.6,1.1-1.8c0.8-0.2,1.6,0.3,1.8,1.1l17.6,78.7
				c0.2,0.8-0.3,1.6-1.1,1.8C85.1,95.2,85,95.2,84.9,95.2z"/>
			<path class="st0" d="M55.8,96.5c-0.8,0-1.5-0.7-1.5-1.5v-6.2c0-0.8,0.7-1.5,1.5-1.5s1.5,0.7,1.5,1.5V95
				C57.3,95.8,56.7,96.5,55.8,96.5z M55.8,78.3c-0.8,0-1.5-0.7-1.5-1.5v-6.2c0-0.8,0.7-1.5,1.5-1.5s1.5,0.7,1.5,1.5v6.2
				C57.3,77.7,56.7,78.3,55.8,78.3z M55.8,60.2c-0.8,0-1.5-0.7-1.5-1.5v-6.2c0-0.8,0.7-1.5,1.5-1.5s1.5,0.7,1.5,1.5v6.2
				C57.3,59.5,56.7,60.2,55.8,60.2z M55.8,42c-0.8,0-1.5-0.7-1.5-1.5v-6.2c0-0.8,0.7-1.5,1.5-1.5s1.5,0.7,1.5,1.5v6.2
				C57.3,41.3,56.7,42,55.8,42z M55.8,23.8c-0.8,0-1.5-0.7-1.5-1.5v-6.2c0-0.8,0.7-1.5,1.5-1.5s1.5,0.7,1.5,1.5v6.2
				C57.3,23.2,56.7,23.8,55.8,23.8z"/>
		</g>
	</g>
</g>
</svg>
