<svg width="110" height="110" version="1.1" id="ds44-icons" xmlns="http://www.w3.org/2000/svg" xmlns:xlink="http://www.w3.org/1999/xlink" x="0px" y="0px"
	 viewBox="0 0 110 110" style="enable-background:new 0 0 110 110;" xml:space="preserve">
<path d="M79.6,92.2V80h5.8c5.8,0,10.5-4.7,10.5-10.5c0-2.2-0.7-4.3-1.9-6c0.6-1.4,1-2.9,1-4.5c0-5.3-3.9-9.7-9-10.4
	c-1.6-3.7-5.3-6.2-9.6-6.2c-0.2,0-0.3,0-0.5,0c2,2.9,3.1,6.4,3.1,10c0,9.9-8,17.9-17.9,17.9h-5.5c0.5,5.3,5,9.5,10.4,9.5h6.4v11.2
	c-5.2-0.5-10.9-0.8-17-0.8c-2,0-3.9,0-5.8,0.1V68.2h11.5c8.6,0,15.6-7,15.6-15.6c0-3.6-1.2-6.9-3.3-9.6c-0.8-1-1.8-2-2.8-2.8
	l-0.4-0.3l0-0.5c-0.6-5.7-4.2-10.6-9.5-12.8l-0.7-0.3l0-0.7c-0.3-8.5-7.1-15.1-15.6-15.1c-6.1,0-11.7,3.6-14.3,9.3l-0.3,0.6
	l-0.6,0.1c-7.7,1-13.5,7.7-13.5,15.5c0,2.3,0.5,4.6,1.5,6.7l0.3,0.6L17,43.7c-1.8,2.6-2.8,5.7-2.8,8.9c0,8.6,7,15.6,15.6,15.6h10.4
	v22.8c-14.3,1.2-24.4,4.1-24.4,7.5h79C94.8,95.9,88.9,93.6,79.6,92.2L79.6,92.2L79.6,92.2z"/>
</svg>
