<svg width="110" height="110" xmlns="http://www.w3.org/2000/svg" x="0px" y="0px"
	 viewBox="0 0 110 110" style="enable-background:new 0 0 110 110;" xml:space="preserve">
<g>
	<path d="M55,10.3c-24.6,0-44.7,20-44.7,44.7s20,44.7,44.7,44.7s44.7-20,44.7-44.7S79.6,10.3,55,10.3z M55,97.4
		c-23.4,0-42.4-19.1-42.4-42.4c0-23.4,19.1-42.4,42.4-42.4c23.4,0,42.4,19.1,42.4,42.4C97.4,78.4,78.4,97.4,55,97.4z"/>
	<path d="M56.5,49.4l-0.3-0.1V33.8c0-0.6-0.5-1.2-1.2-1.2s-1.2,0.5-1.2,1.2v15.4l-0.3,0.1c-2,0.5-3.5,2.1-4.1,4.1v0.3h-11
		c-0.6,0-1.2,0.5-1.2,1.2c0,0.6,0.5,1.2,1.2,1.2h11l0.1,0.3c0.7,2.5,2.9,4.2,5.5,4.2c3.1,0,5.6-2.5,5.6-5.6
		C60.6,52.3,58.9,50,56.5,49.4z M55,58.1c-1.8,0-3.3-1.5-3.3-3.3c0-1.8,1.5-3.3,3.3-3.3s3.3,1.5,3.3,3.3S56.8,58.1,55,58.1z"/>
	<path d="M55,24.5c0.6,0,1.2-0.5,1.2-1.2v-1.5c0-0.6-0.5-1.2-1.2-1.2s-1.2,0.5-1.2,1.2v1.5C53.8,24,54.4,24.5,55,24.5z"/>
	<path d="M55,85.2c-0.6,0-1.2,0.5-1.2,1.2v1.5c0,0.6,0.5,1.2,1.2,1.2s1.2-0.5,1.2-1.2v-1.5C56.2,85.7,55.6,85.2,55,85.2z"/>
	<path d="M88,53.7h-1.5c-0.6,0-1.2,0.5-1.2,1.2s0.5,1.2,1.2,1.2H88c0.6,0,1.2-0.5,1.2-1.2S88.7,53.7,88,53.7z"/>
	<path d="M23.5,53.7H22c-0.6,0-1.2,0.5-1.2,1.2s0.5,1.2,1.2,1.2h1.5c0.6,0,1.2-0.5,1.2-1.2C24.6,54.2,24.1,53.7,23.5,53.7z"/>
	<path d="M77.5,30.6l-1,1c-0.3,0.3-0.3,0.5-0.3,0.8c0,0.3,0.1,0.6,0.3,0.8c0.3,0.2,0.5,0.3,0.8,0.3c0.3,0,0.6-0.1,0.8-0.3l1-1
		c0.2-0.2,0.3-0.5,0.3-0.8c0-0.2,0-0.6-0.3-0.8C78.7,30.2,78,30.2,77.5,30.6z"/>
	<path d="M32.7,75.9c-0.2,0-0.6,0-0.8,0.3l-1,1c-0.2,0.2-0.3,0.5-0.3,0.8c0,0.2,0,0.6,0.3,0.8c0.3,0.3,0.5,0.3,0.8,0.3
		s0.6-0.1,0.8-0.3l1-1c0.2-0.2,0.3-0.5,0.3-0.8c0-0.2,0-0.6-0.3-0.8C33.2,76.1,33,75.9,32.7,75.9z"/>
	<path d="M78.1,76.2c-0.3-0.3-0.5-0.3-0.8-0.3c-0.2,0-0.6,0-0.8,0.3c-0.4,0.4-0.4,1.2,0,1.6l1,1c0.3,0.3,0.5,0.3,0.8,0.3
		c0.3,0,0.6-0.1,0.8-0.3c0.2-0.2,0.3-0.5,0.3-0.8c0-0.2,0-0.6-0.3-0.8L78.1,76.2z"/>
	<path d="M31.9,33.3L31.9,33.3c0.3,0.3,0.5,0.3,0.8,0.3c0.3,0,0.6-0.1,0.8-0.3c0.4-0.4,0.4-1.2,0-1.6l-1-1c-0.2-0.2-0.5-0.3-0.8-0.3
		c-0.2,0-0.6,0-0.8,0.3c-0.2,0.2-0.3,0.5-0.3,0.8c0,0.2,0,0.6,0.3,0.8L31.9,33.3z"/>
</g>
</svg>
