<?xml version="1.0" encoding="utf-8"?>
<!-- Generator: Adobe Illustrator 28.3.0, SVG Export Plug-In . SVG Version: 6.00 Build 0)  -->
<svg version="1.1" id="ds44-icons" xmlns="http://www.w3.org/2000/svg" xmlns:xlink="http://www.w3.org/1999/xlink" x="0px" y="0px"
	 viewBox="0 0 110 110" style="enable-background:new 0 0 110 110;" xml:space="preserve">
<g>
	<path d="M23.4,97.3L23.4,97.3c-0.9,1.6-2.4,2.2-4.1,2.2c-2,0-3.7-0.7-4.8-2c-1.2-1.3-1.9-3.2-1.9-5.4c0-2.4,0.9-4.5,2.5-5.9
		c1.1-1,2.6-1.5,4.5-1.5c3.6,0,5.7,1.9,6.2,4.6h-3.2c-0.3-1-1.2-1.9-2.9-1.9c-2.5,0-3.7,2-3.7,4.7s1.4,4.7,3.8,4.7
		c2,0,3.2-1.4,3.2-2.8V94H20v-2.4H26v7.6h-2.2L23.4,97.3L23.4,97.3z"/>
	<path d="M28.1,85h6.7c2.8,0,4.8,1.5,4.8,4.1c0,1.7-0.8,2.9-2.6,3.4v0.1c1.4,0.4,2,1.2,2.2,2.7c0.3,1.9,0.2,3.5,0.6,3.7v0.2h-3.2
		c-0.4-0.2-0.3-1.7-0.5-3.3c-0.2-1.4-0.9-2.1-2.4-2.1h-2.4v5.4h-3.2V85L28.1,85z M31.3,91.4h2.9c1.4,0,2.2-0.7,2.2-1.9
		s-0.7-1.9-2.1-1.9h-3V91.4L31.3,91.4z"/>
	<path d="M46,85h3.4l5.1,14.2h-3.4l-0.9-2.7H45l-0.9,2.7h-3.3L46,85L46,85z M45.8,94.1h3.6l-0.9-2.6c-0.6-1.9-0.9-3.8-0.9-3.8h0
		c0,0-0.5,2.4-1,3.8L45.8,94.1z"/>
	<path d="M53.5,85h11.7v2.8H61v11.4h-3.3V87.8h-4.2L53.5,85L53.5,85z"/>
	<path d="M66.8,94.2V85H70v9.3c0,1.5,0.8,2.5,2.6,2.5c1.7,0,2.6-1,2.6-2.6V85h3.3v9.2c0,3.3-2,5.2-5.8,5.2
		C68.9,99.4,66.8,97.6,66.8,94.2L66.8,94.2z"/>
	<path d="M80.7,85H84v14.2h-3.3V85z"/>
	<path d="M85.7,85h11.7v2.8h-4.2v11.4h-3.3V87.8h-4.2V85z"/>
	<path d="M33.8,10.5h28.4c7.5,0,13.2,2.1,17.1,5.9c3.9,3.9,6.1,9,6.1,15.3c0,12.1-8.2,20.5-21.4,20.5H48.7v22.1H33.8V10.5z
		 M48.7,40.6h12.4c6.2,0,9.5-3.5,9.5-8.9s-3.4-8.7-9.4-8.7H48.7V40.6z"/>
</g>
</svg>
