<svg width="110" height="110" xmlns="http://www.w3.org/2000/svg" x="0px" y="0px"
	 viewBox="0 0 110 110" style="enable-background:new 0 0 110 110;" xml:space="preserve">
<style type="text/css">
	.st0{fill:none;}
</style>
<g>

		<rect x="75.1" y="50.6" transform="matrix(0.7071 -0.7071 0.7071 0.7071 -15.2922 71.7441)" class="st0" width="7.8" height="7.5"/>
	<polygon class="st0" points="75.8,43.3 79.1,46.6 82.4,43.3 	"/>
	<polygon class="st0" points="52.1,43.5 58.5,43.5 55.3,40.7 	"/>
	<polygon class="st0" points="77.9,76.3 71.7,70.1 70.4,83.8 	"/>
	<rect x="74.4" y="63.9" transform="matrix(0.7071 -0.7071 0.7071 0.7071 -25.3705 75.9122)" class="st0" width="9" height="9.3"/>
	<polygon class="st0" points="77.7,60.9 73.1,56.4 72.1,66.4 	"/>
	<polygon class="st0" points="45.3,89.4 45.3,94.7 55.7,94.7 55.7,89.4 49.5,89.4 	"/>
	<rect x="14.2" y="33.5" class="st0" width="5.3" height="5.3"/>
	<polygon class="st0" points="21.2,38.8 25.4,38.8 31.5,38.8 31.5,33.5 21.2,33.5 	"/>
	<polygon class="st0" points="33.2,38.8 37.4,38.8 38.5,38.8 38.5,33.5 33.2,33.5 	"/>
	<polygon class="st0" points="43.6,89.4 37.4,89.4 33.2,89.4 33.2,94.7 43.6,94.7 	"/>
	<polygon class="st0" points="31.5,89.4 25.4,89.4 21.2,89.4 21.2,94.7 31.5,94.7 	"/>
	<rect x="14.2" y="89.4" class="st0" width="5.3" height="5.3"/>
	<polygon class="st0" points="86.4,70.1 80.3,76.3 87.8,83.8 	"/>
	<polygon class="st0" points="75.9,29.1 82.2,29.1 81.6,23.6 76.5,23.6 	"/>
	<path class="st0" d="M88,86.4l-8.9-8.9l-9,9L70,87.7h18.2L88,86.4C88,86.4,88,86.4,88,86.4z"/>
	<path class="st0" d="M53.5,19.7l-2.3,2.2h4c0,0,0,0,0.1,0s0,0,0.1,0h38.3l-12.7-7.6L53.5,19.7z"/>
	<polygon class="st0" points="80.3,47.8 84.5,52 83.7,44.3 	"/>
	<polygon class="st0" points="80,60.9 86,66.9 84.9,56 	"/>
	<polygon class="st0" points="75.4,34.1 82.7,34.1 82.4,30.8 75.8,30.8 	"/>
	<polygon class="st0" points="75.2,35.8 74.7,41.6 83.5,41.6 82.9,35.8 	"/>
	<polygon class="st0" points="69,89.4 66.7,89.4 66.7,95.8 91.4,95.8 91.4,89.4 89.1,89.4 	"/>
	<polygon class="st0" points="74.4,44.3 73.6,52 77.9,47.8 	"/>
	<rect x="50.4" y="68.4" class="st0" width="5.3" height="5.3"/>
	<polygon class="st0" points="45.3,75.4 45.3,80.7 49.5,80.7 55.7,80.7 55.7,75.4 49.5,75.4 	"/>
	<polygon class="st0" points="25.4,75.4 21.2,75.4 21.2,80.7 25.4,80.7 31.5,80.7 31.5,75.4 	"/>
	<polygon class="st0" points="37.4,75.4 33.2,75.4 33.2,80.7 37.4,80.7 43.6,80.7 43.6,75.4 	"/>
	<rect x="14.2" y="75.4" class="st0" width="5.3" height="5.3"/>
	<rect x="14.2" y="61.4" class="st0" width="5.3" height="5.3"/>
	<polygon class="st0" points="24.5,73.7 24.5,68.4 20.3,68.4 14.2,68.4 14.2,73.7 20.3,73.7 	"/>
	<polygon class="st0" points="44.4,82.4 38.3,82.4 38.3,87.7 44.4,87.7 48.7,87.7 48.7,82.4 	"/>
	<polygon class="st0" points="32.4,82.4 26.2,82.4 26.2,87.7 32.4,87.7 36.6,87.7 36.6,82.4 	"/>
	<polygon class="st0" points="14.2,45.8 20.3,45.8 24.5,45.8 24.5,40.5 20.3,40.5 14.2,40.5 	"/>
	<polygon class="st0" points="32.4,45.8 36.6,45.8 36.6,40.5 32.4,40.5 26.2,40.5 26.2,45.8 	"/>
	<polygon class="st0" points="20.3,82.4 14.2,82.4 14.2,87.7 20.3,87.7 24.5,87.7 24.5,82.4 	"/>
	<polygon class="st0" points="38.3,54.4 38.3,59.7 44.4,59.7 48.7,59.7 48.7,54.4 39.4,54.4 	"/>
	<polygon class="st0" points="45.3,61.4 45.3,66.7 49.5,66.7 55.7,66.7 55.7,61.4 49.5,61.4 	"/>
	<rect x="50.4" y="82.4" class="st0" width="5.3" height="5.3"/>
	<polygon class="st0" points="26.2,54.4 26.2,59.7 32.4,59.7 36.6,59.7 36.6,54.4 32.4,54.4 	"/>
	<polygon class="st0" points="25.4,47.4 21.2,47.4 21.2,52.7 25.4,52.7 31.5,52.7 31.5,47.4 	"/>
	<polygon class="st0" points="24.5,59.7 24.5,54.4 20.3,54.4 14.2,54.4 14.2,59.7 20.3,59.7 	"/>
	<polygon class="st0" points="38.3,40.5 38.3,45.8 39.4,45.8 43.6,45.8 43.6,40.5 39.4,40.5 	"/>
	<polygon class="st0" points="33.2,47.4 33.2,52.7 37.4,52.7 38.5,52.7 38.5,47.4 37.4,47.4 	"/>
	<rect x="14.2" y="47.4" class="st0" width="5.3" height="5.3"/>
	<polygon class="st0" points="33.2,61.4 33.2,66.7 37.4,66.7 43.6,66.7 43.6,61.4 37.4,61.4 	"/>
	<polygon class="st0" points="26.2,68.4 26.2,73.7 32.4,73.7 36.6,73.7 36.6,68.4 32.4,68.4 	"/>
	<polygon class="st0" points="21.2,61.4 21.2,66.7 25.4,66.7 31.5,66.7 31.5,61.4 25.4,61.4 	"/>
	<polygon class="st0" points="38.3,68.4 38.3,73.7 44.4,73.7 48.7,73.7 48.7,68.4 44.4,68.4 	"/>
	<path d="M56.5,59.7h-6.1v-6.1c0-0.5-0.4-0.8-0.8-0.8c0,0,0,0,0,0h-9.3v-5.3h4.2c0.5,0,0.8-0.4,0.8-0.8v-7c0-0.5-0.4-0.8-0.8-0.8
		h-4.2v-6.1c0-0.5-0.4-0.8-0.8-0.8h-26c-0.5,0-0.8,0.4-0.8,0.8v62.9c0,0.5,0.4,0.8,0.8,0.8c0,0,0,0,0,0h43.2c0.5,0,0.8-0.4,0.8-0.8
		c0,0,0,0,0,0v-35C57.3,60.1,57,59.7,56.5,59.7C56.5,59.7,56.5,59.7,56.5,59.7z M44.4,87.7h-6.1v-5.3h10.4v5.3H44.4z M32.4,87.7
		h-6.1v-5.3h10.4v5.3H32.4z M20.3,87.7h-6.1v-5.3h10.4v5.3H20.3z M20.3,40.5h4.2v5.3H14.2v-5.3L20.3,40.5z M32.4,40.5h4.2v5.3H26.2
		v-5.3L32.4,40.5z M55.7,68.4v5.3h-5.3v-5.3H55.7z M55.7,80.7H45.3v-5.3h10.4V80.7z M37.4,80.7h-4.2v-5.3h10.4v5.3L37.4,80.7z
		 M25.4,80.7h-4.2v-5.3h10.4v5.3L25.4,80.7z M14.2,80.7v-5.3h5.3v5.3L14.2,80.7z M14.2,68.4h10.4v5.3H14.2L14.2,68.4z M14.2,61.4
		h5.3v5.3h-5.3L14.2,61.4z M14.2,54.4h10.4v5.3H14.2L14.2,54.4z M14.2,47.4h5.3v5.3h-5.3L14.2,47.4z M36.6,73.7H26.2v-5.3h10.4V73.7
		z M31.5,66.7H21.2v-5.3h10.4V66.7z M48.7,73.7H38.3v-5.3h10.4V73.7z M43.6,66.7H33.2v-5.3h10.4L43.6,66.7z M36.6,59.7H26.2v-5.3
		h10.4L36.6,59.7z M25.4,52.7h-4.2v-5.3h10.4v5.3H25.4z M50.4,82.4h5.3v5.3h-5.3V82.4z M55.7,66.7H45.3v-5.3h10.4V66.7z M48.7,59.7
		H38.3v-5.3h10.4L48.7,59.7z M38.5,52.7h-5.3v-5.3h5.3L38.5,52.7z M43.6,45.8h-5.3v-5.3h5.3L43.6,45.8z M38.5,38.8h-5.3v-5.3h5.3
		L38.5,38.8z M31.5,38.8H21.2v-5.3h10.4L31.5,38.8z M14.2,33.5h5.3v5.3h-5.3V33.5z M14.2,89.4h5.3v5.3h-5.3V89.4z M21.2,89.4h10.4
		v5.3H21.2V89.4z M33.2,89.4h10.4v5.3H33.2V89.4z M55.7,94.7H45.3v-5.3h10.4V94.7z"/>
	<path d="M97.1,22l-15.6-9.4c-0.2-0.1-0.4-0.1-0.6-0.1l-27.9,5.5c-0.2,0-0.3,0.1-0.4,0.2l-4,3.8c-0.3,0.3-0.3,0.9,0,1.2
		c0.2,0.2,0.4,0.3,0.6,0.3h5.4v15.6l-5.2,4.5c-0.4,0.3-0.4,0.8-0.1,1.2c0.2,0.2,0.4,0.3,0.6,0.3h11c0.5,0,0.8-0.4,0.8-0.8
		c0-0.2-0.1-0.5-0.3-0.6l-5.2-4.5V23.6h18.6L71.7,54c-0.2,0.2-0.2,0.5-0.1,0.8l-3.3,32.9h-2.4c-0.5,0-0.8,0.4-0.8,0.8c0,0,0,0,0,0
		v8.1c0,0.5,0.4,0.8,0.8,0.8c0,0,0,0,0,0h26.4c0.5,0,0.8-0.4,0.8-0.8c0,0,0,0,0,0v-8.1c0-0.5-0.4-0.8-0.8-0.8c0,0,0,0,0,0h-2.4
		l-4.6-45.3c0,0,0-0.1,0-0.1l-0.7-7.1c0-0.1,0-0.1,0-0.2c0-0.1,0-0.2-0.1-0.4L84,30l0,0c0,0,0,0,0,0l-0.6-6.3h13.3
		c0.5,0,0.8-0.4,0.8-0.8C97.5,22.5,97.4,22.2,97.1,22L97.1,22z M52.1,43.5l3.2-2.8l3.2,2.8H52.1z M74.4,44.3l3.5,3.5L73.6,52
		L74.4,44.3z M75.8,43.3h6.6l-3.3,3.3L75.8,43.3z M79.1,49l5.3,5.3l-5.5,5.5l-5.3-5.3L79.1,49z M77.7,60.9l-5.5,5.5l1-10L77.7,60.9z
		 M71.7,70.1l6.1,6.1l-7.5,7.5L71.7,70.1z M72.5,68.5l6.4-6.4l6.6,6.6l-6.4,6.4L72.5,68.5z M86.4,70.1l1.4,13.6l-7.5-7.5L86.4,70.1z
		 M80,60.9l4.9-4.9L86,66.9L80,60.9z M80.3,47.8l3.5-3.5l0.8,7.7L80.3,47.8z M74.7,41.6l0.6-5.7h7.6l0.6,5.7H74.7z M82.7,34.1h-7.3
		l0.3-3.4h6.6L82.7,34.1z M91.4,95.8H66.7v-6.4h24.7V95.8z M70,87.7l0.1-1.3l9-9l8.9,8.9c0,0,0,0,0,0l0.1,1.3L70,87.7z M82.2,29.1
		h-6.3l0.6-5.5h5.2L82.2,29.1z M82.4,21.9H55.3c0,0,0,0-0.1,0s0,0-0.1,0h-4l2.3-2.2l27.4-5.4l12.7,7.6H82.4z"/>
</g>
</svg>
