<?xml version="1.0" encoding="utf-8"?>
<!-- Generator: Adobe Illustrator 25.1.0, SVG Export Plug-In . SVG Version: 6.00 Build 0)  -->
<svg version="1.0" id="Calque_1" xmlns="http://www.w3.org/2000/svg" xmlns:xlink="http://www.w3.org/1999/xlink" x="0px" y="0px"
	 viewBox="0 0 150 150" enable-background="new 0 0 150 150" xml:space="preserve">
<g>
	<path fill="#1D1D1B" d="M75,14.4c-33.4,0-60.6,27.2-60.6,60.6c0,33.4,27.2,60.6,60.6,60.6c33.4,0,60.6-27.2,60.6-60.6
		C135.6,41.6,108.4,14.4,75,14.4z M75,132.9c-31.9,0-57.9-26-57.9-57.9s26-57.9,57.9-57.9s57.9,26,57.9,57.9S106.9,132.9,75,132.9z"
		/>
	<path fill="#1D1D1B" d="M75,102.1c-0.8,0-1.4,0.6-1.4,1.4v4.7c0,0.8,0.6,1.4,1.4,1.4c0.8,0,1.4-0.6,1.4-1.4v-4.7
		C76.4,102.7,75.8,102.1,75,102.1z"/>
	<path fill="#1D1D1B" d="M75.3,35.7l-0.3,0c-4.7,0-9.2,1.8-12.6,5.2c-3.4,3.4-5.3,7.9-5.3,12.8c0,0.8,0.6,1.4,1.4,1.4
		s1.4-0.6,1.4-1.4c0-4.1,1.6-8,4.5-10.8c2.9-2.8,6.6-4.4,10.6-4.4c0.1,0,0.2,0,0.4,0c8,0.1,14.9,7,15,15c0.1,5.3-2.5,10.2-7,13
		c-6,3.9-9.6,10.8-9.6,18.4v6.7c0,0.8,0.6,1.4,1.4,1.4c0.8,0,1.4-0.6,1.4-1.4v-6.7c0-6.6,3.2-12.8,8.4-16.1C90,65.4,93,59.7,93,53.4
		C92.8,43.8,84.9,35.9,75.3,35.7z"/>
</g>
</svg>
