<svg width="110" height="110" version="1.1" id="ds44-icons" xmlns="http://www.w3.org/2000/svg" xmlns:xlink="http://www.w3.org/1999/xlink" x="0px" y="0px"
	 viewBox="0 0 110 110" style="enable-background:new 0 0 110 110;" xml:space="preserve">
<style type="text/css">
	.st0{fill-rule:evenodd;clip-rule:evenodd;}
</style>
<path class="st0" d="M44.1,22c-4.4,0.3-8.8,0.8-13.1,1.4c-2.5,0.4-4.9,2.1-4.6,4.6c0.6,5.6,1.1,11.2,1.3,16.9c0,1.2-0.4,2.3-1.2,3.1
	c-0.9,0.8-1.9,1.2-3.2,1.1c-1-0.1-2-0.4-2.9-0.8c-1.2-0.6-2.5-0.9-3.8-0.9c-4.6,0-8.3,3.7-8.3,8.4s3.7,8.3,8.3,8.3
	c1.8,0,3.4-0.5,4.7-1.5c1.3-0.9,2.9-1,4.3-0.2c1.4,0.8,2.2,2.1,2.1,3.7c-0.3,5.2-0.7,10.4-1.3,15.6c-0.3,2.5,2.1,4.2,4.6,4.6
	c4.7,0.8,9.3,1.3,14,1.6c1.5,0.1,2.8-0.5,3.6-1.8c0.9-1.2,1-2.7,0.3-4c0-0.1,0-0.2-0.1-0.2c-0.6-1.2-1-2.5-1-3.8
	c0-4.6,3.7-8.3,8.3-8.3s8.4,3.7,8.4,8.3c0,1.4-0.2,2.7-0.8,3.9c-0.7,1.3-0.6,2.8,0.2,4.1c0.9,1.3,2.2,1.9,3.7,1.8
	c4.1-0.3,8.1-0.8,12.1-1.5c2.5-0.4,5.1-2.2,4.6-4.6c-1.1-5.6-1.7-11.2-2.1-16.8c0-1.2,0.3-2.2,1.2-3.1c0.9-0.9,1.9-1.3,3.1-1.2
	c1.1,0.1,2.1,0.4,3.1,0.9c1.2,0.6,2.4,0.9,3.8,0.9c4.6,0,8.3-3.7,8.3-8.3s-3.7-8.4-8.3-8.4c-1.7,0-3.3,0.5-4.7,1.5
	c-1.3,0.9-2.9,0.9-4.3,0.2c-1.4-0.8-2.1-2.2-2-3.8c0.4-5.2,1-10.3,1.8-15.5c0.4-2.5-2.1-4.3-4.6-4.6c-4.8-0.6-9.7-1.1-14.5-1.4
	c-1.3-0.1-2.5,0.4-3.3,1.4c-0.9,1-1.1,2.2-0.9,3.5c0.2,0.8,0.5,1.6,0.9,2.4c0.6,1.1,0.9,2.5,0.9,3.8c0,4.6-3.7,8.3-8.3,8.3
	S46,37.8,46,33.2c0-1.8,0.6-3.4,1.5-4.8c1-1.3,1-2.9,0.2-4.3c-0.8-1.4-2.2-2.2-3.8-2.1L44.1,22L44.1,22z"/>
</svg>
