<?xml version="1.0" encoding="utf-8"?>
<!-- Generator: Adobe Illustrator 25.1.0, SVG Export Plug-In . SVG Version: 6.00 Build 0)  -->
<svg version="1.0" id="Calque_1" xmlns="http://www.w3.org/2000/svg" xmlns:xlink="http://www.w3.org/1999/xlink" x="0px" y="0px"
	 viewBox="0 0 150 150" enable-background="new 0 0 150 150" xml:space="preserve">
<g>
	<rect x="75.6" y="44.8" width="9.7" height="2.4"/>
	<rect x="75.6" y="52.1" width="20.4" height="2.4"/>
	<rect x="52.1" y="66.6" width="7.8" height="2.4"/>
	<rect x="52.1" y="73.8" width="22.3" height="2.4"/>
	<rect x="52.1" y="81" width="44" height="2.4"/>
	<rect x="52.1" y="110" width="22.3" height="2.4"/>
	<rect x="64.7" y="66.6" width="16.9" height="2.4"/>
	<rect x="86.5" y="66.6" width="9.7" height="2.4"/>
	<rect x="79.2" y="73.8" width="16.9" height="2.4"/>
	<rect x="52.1" y="88.3" width="7.8" height="2.4"/>
	<rect x="52.1" y="95.5" width="22.3" height="2.4"/>
	<rect x="52.1" y="102.8" width="44" height="2.4"/>
	<rect x="64.7" y="88.3" width="16.9" height="2.4"/>
	<rect x="86.5" y="88.3" width="9.7" height="2.4"/>
	<rect x="79.2" y="95.5" width="16.9" height="2.4"/>
	<path d="M97.2,23.2H37.6v103.7h74.8V38.3L97.2,23.2z M98,37.6V27.2l10.4,10.4H98z M110.1,40.1v84.4H40V25.6h55.5v14.5H110.1z"/>
	<path d="M71.9,31.8H51.3v22.6h20.6V31.8z M53.5,52.2V34h16.2v18.2H53.5z"/>
</g>
</svg>
