<?xml version="1.0" encoding="utf-8"?>
<!-- Generator: Adobe Illustrator 28.3.0, SVG Export Plug-In . SVG Version: 6.00 Build 0)  -->
<svg version="1.1" id="ds44-icons" xmlns="http://www.w3.org/2000/svg" xmlns:xlink="http://www.w3.org/1999/xlink" x="0px" y="0px"
	 viewBox="0 0 110 110" style="enable-background:new 0 0 110 110;" xml:space="preserve">
<path d="M43,16.2c1.7,0,3.1-1.4,3.1-3s-1.4-3.1-3.1-3.1c-1.7,0-3.1,1.4-3.1,3.1S41.3,16.2,43,16.2 M77.9,81.1
	c-3.1,0-5.6-2.5-5.6-5.6c0-3.1,2.5-5.6,5.6-5.6s5.6,2.5,5.6,5.6S81,81.1,77.9,81.1 M31.7,81.1c-3.1,0-5.6-2.5-5.6-5.6
	c0-3.1,2.5-5.6,5.6-5.6s5.6,2.5,5.6,5.6S34.8,81.1,31.7,81.1 M23.5,29.7H86v18H23.5C23.5,47.7,23.5,29.7,23.5,29.7z M37.8,21.4h33.9
	c1.3,0,2.3,1,2.3,2.3S73,26,71.7,26H37.8c-1.3,0-2.3-1-2.3-2.3S36.6,21.4,37.8,21.4 M78.5,86.6c2.8-0.2,10.9,0.5,10.9-5.5V26
	c0-6.9-5.3-8.7-11-8.7H31.1c-5.7,0-11,1.8-11,8.7V81c0,6.1,8.6,5.3,11.4,5.5L13.8,98.8l20.2,0l8.6-12.2h24.9l8.6,12.2l20.2,0
	L78.5,86.6L78.5,86.6z M66.6,16.2c1.7,0,3-1.4,3-3s-1.4-3.1-3-3.1c-1.7,0-3.1,1.4-3.1,3.1S64.9,16.2,66.6,16.2"/>
</svg>
