<svg width="110" height="110" xmlns="http://www.w3.org/2000/svg" x="0px" y="0px"
	 viewBox="0 0 110 110" style="enable-background:new 0 0 110 110;" xml:space="preserve">
<style type="text/css">
	.st0{fill:#FFFFFF;}
</style>
<g>
	<path d="M72.5,47.1c-1.5,0-2.9,0.1-4.4,0.4V37.5c0.1-0.5,0.2-1,0.2-1.5c0-0.5-0.1-1-0.2-1.5v-11c0.1-0.5,0.2-1,0.2-1.5
		c0-7.4-12.7-13.2-29-13.2s-29,5.8-29,13.2v56.2c0,0.1,0,0.1,0,0.2l0,0c0,0.5,0.1,1.1,0.2,1.6c1.8,6.6,13.9,11.4,28.7,11.4
		c4,0,7.8-0.4,11.2-1.1c4.9,6.8,12.9,11.2,21.9,11.2c14.9,0,27.1-12.2,27.1-27.1S87.4,47.1,72.5,47.1z M65.3,51.2
		c-0.5,1.6-2.1,3.2-4.5,4.6c-1.9,1.1-4.3,2.1-7,2.8c3-3.5,6.9-6.2,11.5-7.6V51.2z M62.2,58.2c1.2-0.7,2.2-1.5,3.1-2.3v9.3
		c-0.5,1.6-2.1,3.2-4.5,4.6c-3.2,1.9-7.7,3.2-12.7,4c0.1-4.3,1.3-8.3,3.3-11.8C55.6,61.2,59.3,59.9,62.2,58.2z M39.4,11.4
		c15.7,0,26.2,5.4,26.2,10.5c0,0.4,0,0.7-0.1,1c-0.5,1.7-2,3.3-4.6,4.8c-5,2.9-13,4.6-21.5,4.6c-15.7,0-26.2-5.4-26.2-10.4
		C13.2,16.8,23.7,11.4,39.4,11.4z M13.2,27.6c4.6,4.5,14.5,7.5,26.2,7.5c9.1,0,17.4-1.8,22.9-5c1.2-0.7,2.2-1.5,3.1-2.3v9.3
		c-0.5,1.6-2.1,3.2-4.5,4.6c-5,2.9-13,4.6-21.5,4.6s-16.5-1.7-21.5-4.6c-3-1.8-4.7-3.8-4.7-5.8V27.6z M13.2,41.7
		c0.9,0.9,2,1.7,3.3,2.5c5.5,3.2,13.8,5,22.9,5s17.4-1.8,22.9-5c1.2-0.7,2.2-1.5,3.1-2.3v6.2c-6.5,1.8-12,5.9-15.6,11.4
		c-3.3,0.6-6.8,0.9-10.4,0.9C23.7,60.4,13.2,55,13.2,50V41.7z M13.2,55.7c4.6,4.5,14.5,7.5,26.2,7.5c3,0,5.9-0.2,8.7-0.6
		c-1.7,3.5-2.6,7.4-2.6,11.6c-2,0.2-4,0.3-6,0.3c-15.7,0-26.2-5.4-26.2-10.5V55.7z M39.4,88.5c-14.6,0-24.7-4.8-26-9.4L13.2,78v-8.2
		c4.6,4.5,14.5,7.5,26.2,7.5c2.1,0,4.2-0.1,6.2-0.3c0.4,3.8,1.6,7.5,3.4,10.7C45.8,88.2,42.5,88.5,39.4,88.5z M48.3,76.6
		c5.5-0.8,10.4-2.3,14-4.4c1.2-0.7,2.2-1.5,3.1-2.3v3.9c-0.1,0.2-0.1,0.4,0,0.6v1.9c0,0.1,0,0.2,0,0.3c0,0.3,0,0.6,0,0.7
		c0,4.2-6,7.7-13.6,9.6C49.9,83.9,48.6,80.4,48.3,76.6z M72.5,98.6c-7.7,0-14.5-3.6-19-9.1c8.7-2.4,14.6-6.9,14.6-12.1
		c0-0.1,0-0.3,0-0.6c0,0,0-0.1,0-0.1c0,0,0,0,0-0.1v-0.1c0-1,0-1.6,0-2.1V51.5c0.1-0.4,0.2-0.8,0.2-1.2c1.4-0.2,2.8-0.4,4.2-0.4
		c13.4,0,24.3,10.9,24.3,24.3S85.9,98.6,72.5,98.6z"/>
	<g>
		<g>
			<path class="st0" d="M83.7,83.9C78.5,89,70.2,89,65,83.9c-1.4-1.4-2.4-3-3.1-4.8h17c0.8,0,1.4-0.6,1.4-1.4s-0.6-1.4-1.4-1.4H61.3
				c-0.1-0.6-0.1-1.1-0.1-1.7c0-0.6,0.1-1.1,0.1-1.7H79c0.8,0,1.4-0.6,1.4-1.4s-0.6-1.4-1.4-1.4H62c0.6-1.8,1.7-3.4,3.1-4.8
				c5.1-5.1,13.5-5.1,18.6,0c0.5,0.5,1.4,0.5,2,0s0.5-1.4,0-2c-6.2-6.2-16.3-6.2-22.6,0c-2,2-3.3,4.3-4,6.8H53
				c-0.8,0-1.4,0.6-1.4,1.4s0.6,1.4,1.4,1.4h5.5c-0.1,1.1-0.1,2.3,0,3.4H53c-0.8,0-1.4,0.6-1.4,1.4s0.6,1.4,1.4,1.4H59
				c0.7,2.5,2.1,4.8,4,6.8c3.1,3.1,7.2,4.7,11.3,4.7c4.1,0,8.2-1.6,11.3-4.7c0.5-0.5,0.5-1.4,0-2C85.1,83.3,84.2,83.3,83.7,83.9z"/>
		</g>
	</g>
</g>
</svg>
