<svg width="110" height="110" xmlns="http://www.w3.org/2000/svg" x="0px" y="0px"
	 viewBox="0 0 110 110" style="enable-background:new 0 0 110 110;" xml:space="preserve">
<g>
	<g>
		<path d="M17.6,64c15.7,0,28.5,12.8,28.5,28.6c0,0.3-0.1,0.7-0.4,0.9c-0.2,0.2-0.6,0.4-0.9,0.4c-0.7,0-1.3-0.6-1.3-1.3
			c0-14.3-11.7-26-26-26c-0.3,0-0.7-0.1-0.9-0.4c-0.2-0.2-0.4-0.6-0.4-0.9C16.4,64.5,16.9,64,17.6,64"/>
	</g>
	<g>
		<path d="M17.1,39.4L17.1,39.4L17.1,39.4L17.1,39.4l0.2,0c14,0,27.8,5.7,37.7,15.7C65,65,70.7,78.7,70.7,92.8
			c0,0.7-0.6,1.3-1.3,1.3c-0.7,0-1.3-0.6-1.3-1.3c0-13.4-5.4-26.5-14.9-36c-9.4-9.5-22.5-14.9-35.9-14.9l-0.1,0l-0.1,0l0,0
			c-0.7,0-1.3-0.6-1.3-1.3c0-0.3,0.1-0.7,0.4-0.9C16.4,39.5,16.7,39.4,17.1,39.4L17.1,39.4"/>
	</g>
	<g>
		<path d="M17.1,15.9L17.1,15.9L17.1,15.9l0.2,0c20.5,0,39.8,8,54.3,22.5c7.1,7,12.6,15.3,16.5,24.5c4,9.5,6.1,19.6,6,30
			c0,0.7-0.6,1.3-1.3,1.3c-0.7,0-1.3-0.6-1.3-1.3c0-10-1.9-19.7-5.8-29C82,55,76.6,47,69.8,40.2C56,26.4,36.9,18.4,17.3,18.4l-0.1,0
			l-0.1,0l0,0c-0.7,0-1.3-0.6-1.3-1.3c0-0.3,0.1-0.7,0.4-0.9C16.4,16,16.7,15.9,17.1,15.9L17.1,15.9"/>
	</g>
	<g>
		<path d="M19.4,88.3c1.3,0,2.4,1.1,2.4,2.4c0,1.3-1.1,2.4-2.4,2.4c-1.3,0-2.4-1.1-2.4-2.4S18.1,88.3,19.4,88.3"/>
	</g>
</g>
</svg>
