<?xml version="1.0" encoding="utf-8"?>
<!-- Generator: Adobe Illustrator 25.1.0, SVG Export Plug-In . SVG Version: 6.00 Build 0)  -->
<svg version="1.0" id="Calque_1" xmlns="http://www.w3.org/2000/svg" xmlns:xlink="http://www.w3.org/1999/xlink" x="0px" y="0px"
	 viewBox="0 0 150 150" enable-background="new 0 0 150 150" xml:space="preserve">
<g>
	<path d="M96.7,65.4V43.7c0-11.5-10.1-20.9-22.6-20.9s-22.6,9.4-22.6,20.9v21.7H34.9v61.8h80.3V65.4H96.7z M54.1,65.4V43.7
		c0-10.1,9-18.4,20-18.4s20,8.2,20,18.4v21.7H54.1z M37.4,113.5V67.9h75.2v45.5H37.4z M37.4,124.6v-8.5h75.2v8.5H37.4z"/>
	<path d="M75,80.2c-3.8,0-6.8,3.1-6.8,6.8v11.1c0,3.8,3.1,6.8,6.8,6.8s6.8-3.1,6.8-6.8V87.1C81.8,83.3,78.8,80.2,75,80.2z M75,102.4
		c-2.3,0-4.3-2-4.3-4.3V87.1c0-2.3,2-4.3,4.3-4.3c2.3,0,4.3,2,4.3,4.3v11.1C79.3,100.5,77.3,102.4,75,102.4z"/>
</g>
</svg>
