<svg width="110" height="110" xmlns="http://www.w3.org/2000/svg" x="0px" y="0px"
	 viewBox="0 0 110 110" style="enable-background:new 0 0 110 110;" xml:space="preserve">
<style type="text/css">
	.st0{fill:#FFFFFF;}
</style>
<g>
	<path class="st0" d="M97.4,55.5c-0.8,0-1.5,0.7-1.5,1.5c0,22.5-18.3,40.9-40.9,40.9S14.1,79.5,14.1,57c0-21,15.9-38.3,36.3-40.6
		l-3.9,3.2c-0.6,0.5-0.7,1.5-0.2,2.1c0.3,0.4,0.7,0.6,1.2,0.6c0.3,0,0.7-0.1,0.9-0.3l7.6-6.1c0,0,0,0,0,0c0.1-0.1,0.1-0.1,0.2-0.2
		c0,0,0,0,0.1-0.1c0.1-0.1,0.1-0.2,0.2-0.3c0,0,0,0,0,0c0-0.1,0.1-0.2,0.1-0.3c0,0,0-0.1,0-0.1c0,0,0-0.1,0-0.1c0,0,0-0.1,0-0.1
		c0,0,0,0,0-0.1c0,0,0,0,0-0.1c0-0.1,0-0.2-0.1-0.3c0,0,0,0,0-0.1c0-0.1-0.1-0.2-0.2-0.3c0,0,0,0,0-0.1c-0.1-0.1-0.1-0.1-0.2-0.2
		c0,0-0.1,0-0.1-0.1c-0.1-0.1-0.1-0.1-0.2-0.1c0,0,0,0-0.1,0l-8.3-4c-0.7-0.4-1.6,0-2,0.7c-0.4,0.7,0,1.6,0.7,2l3.2,1.6
		C27.8,16.4,11.1,34.8,11.1,57c0,24.2,19.7,43.9,43.9,43.9S98.9,81.2,98.9,57C98.9,56.2,98.2,55.5,97.4,55.5z"/>
	<circle cx="69.7" cy="18.4" r="1.7"/>
	<circle cx="79.2" cy="23.4" r="1.7"/>
	<circle cx="87.3" cy="30.4" r="1.7"/>
	<circle cx="92.8" cy="38.7" r="1.7"/>
	<circle cx="96.3" cy="47.7" r="1.7"/>
	<g>
		<path d="M36.1,84.3c-0.7,0-1.3-0.5-1.5-1.2c-0.2-0.8-3.7-19.9,2.7-27.7c1.9-2.2,4.3-3.4,7.3-3.4c7.7,0,12.3,5.8,15.3,9.6
			c1,1.3,2.4,3.1,3,3.2c2,0,9.2-4.4,13.6-7.5c0.7-0.5,1.6-0.3,2.1,0.4c0.5,0.7,0.3,1.6-0.4,2.1c-1.9,1.4-11.7,8.1-15.4,8.1
			c-1.9,0-3.4-1.8-5.3-4.3c-2.9-3.6-6.8-8.5-13-8.5c-2.1,0-3.7,0.7-5,2.3c-5.6,6.7-2.1,25.1-2.1,25.3c0.2,0.8-0.4,1.6-1.2,1.8
			C36.3,84.2,36.2,84.3,36.1,84.3z"/>
		<path d="M60,84.3c-0.1,0-0.1,0-0.2,0c-0.8-0.1-1.4-0.9-1.3-1.7l1-7.5c0.1-0.8,0.9-1.4,1.7-1.3c0.8,0.1,1.4,0.9,1.3,1.7l-1,7.5
			C61.4,83.7,60.8,84.3,60,84.3z"/>
		<path d="M46.5,51.7c-5.9,0-10.8-4.8-10.8-10.8c0-5.9,4.8-10.8,10.8-10.8c5.9,0,10.8,4.8,10.8,10.8C57.2,46.9,52.4,51.7,46.5,51.7z
			 M46.5,33.2c-4.3,0-7.8,3.5-7.8,7.8c0,4.3,3.5,7.8,7.8,7.8c4.3,0,7.8-3.5,7.8-7.8C54.2,36.7,50.8,33.2,46.5,33.2z"/>
		<path d="M75.3,50.6c-3.2,0-5.8-2.6-5.8-5.8s2.6-5.8,5.8-5.8c3.2,0,5.8,2.6,5.8,5.8S78.5,50.6,75.3,50.6z M75.3,42.1
			c-1.5,0-2.8,1.2-2.8,2.8s1.2,2.8,2.8,2.8c1.5,0,2.8-1.2,2.8-2.8S76.8,42.1,75.3,42.1z"/>
		<path d="M63,61.7c-0.5,0-1-0.3-1.3-0.7c-0.4-0.7-0.2-1.6,0.5-2.1l12.3-7.4c0.7-0.4,1.6-0.2,2.1,0.5c0.4,0.7,0.2,1.6-0.5,2.1
			l-12.3,7.4C63.5,61.6,63.3,61.7,63,61.7z"/>
	</g>
</g>
</svg>
