<svg width="110" height="110" xmlns="http://www.w3.org/2000/svg" x="0px" y="0px"
	 viewBox="0 0 110 110" style="enable-background:new 0 0 110 110;" xml:space="preserve">
<style type="text/css">
	.st0{fill:#FFFFFF;}
</style>
<g>
	<path class="st0" d="M57.4,86.7c-17.7,0-32.1-14.4-32.1-32.1s14.4-32.1,32.1-32.1s32.1,14.4,32.1,32.1S75.1,86.7,57.4,86.7z
		 M57.4,25c-16.3,0-29.5,13.2-29.5,29.5S41.1,84,57.4,84s29.5-13.2,29.5-29.5S73.7,25,57.4,25z"/>
	<path d="M100.9,87.6c-1.7,0-3.1-1.4-3.1-3.1V55.1l-3.7-1.8c-0.6-0.3-0.9-0.9-0.7-1.6l7.9-26.8c0.2-0.6,0.8-1,1.5-0.9
		c0.6,0.1,1.1,0.6,1.1,1.3v59.3C104,86.3,102.6,87.6,100.9,87.6z M96.3,51.4l3.4,1.7c0.4,0.2,0.7,0.7,0.7,1.2v30.3
		c0,0.2,0.2,0.4,0.4,0.4s0.4-0.2,0.4-0.4V34.4L96.3,51.4z"/>
	<path d="M12.9,86.4c-1.7,0-3.1-1.4-3.1-3V52.5H7.3c-0.7,0-1.3-0.6-1.3-1.3V30.1c0-0.7,0.6-1.3,1.3-1.3h0.9c0.7,0,1.3,0.6,1.3,1.3
		v9.2h1.8v-9.2c0-0.7,0.6-1.3,1.3-1.3h0.9c0.7,0,1.3,0.6,1.3,1.3v9.2h1.8v-9.2c0-0.7,0.6-1.3,1.3-1.3h0.9c0.7,0,1.3,0.6,1.3,1.3
		v21.1c0,0.7-0.6,1.3-1.3,1.3H16v30.8C16,85,14.6,86.4,12.9,86.4z M8.7,49.9h2.5c0.7,0,1.3,0.6,1.3,1.3v32.1c0,0.2,0.2,0.4,0.4,0.4
		s0.4-0.2,0.4-0.4V51.2c0-0.7,0.6-1.3,1.3-1.3h2.8V42h-4c-0.2,0-0.3,0-0.4-0.1c-0.1,0-0.3,0.1-0.4,0.1h-4V49.9z"/>
	<path class="st0" d="M57.4,76.4C45.6,76.4,36,66.7,36,54.9c0-0.7,0.6-1.3,1.3-1.3c0.7,0,1.3,0.6,1.3,1.3c0,10.4,8.4,18.8,18.8,18.8
		s18.8-8.4,18.8-18.8c0-0.7,0.6-1.3,1.3-1.3s1.3,0.6,1.3,1.3C78.9,66.7,69.2,76.4,57.4,76.4z"/>
</g>
</svg>
