<svg width="110" height="110" xmlns="http://www.w3.org/2000/svg" x="0px" y="0px"
	 viewBox="0 0 110 110" style="enable-background:new 0 0 110 110;" xml:space="preserve">
<style type="text/css">
	.st0{fill:#FFFFFF;}
</style>
<g>
	<path class="st0" d="M8.1,91.4c-0.7,0-1.3-0.5-1.5-1.2c-0.2-0.8,0.4-1.6,1.2-1.8l93.9-19.1c0.8-0.2,1.6,0.4,1.8,1.2
		c0.2,0.8-0.4,1.6-1.2,1.8L8.4,91.4C8.3,91.4,8.2,91.4,8.1,91.4z"/>
	<g>
		<path d="M37.1,53.1c-2.9-1.9-6.3-2.5-9.6-1.8c-3,0.6-5.7,2.3-7.5,4.8c0,0,0,0,0,0c-2.2,3-3.1,6.7-2.3,10.3c0.7,3.3,2.7,6.2,5.5,8
			c2.1,1.4,4.5,2.1,6.9,2.1c0.9,0,1.8-0.1,2.7-0.3c6.9-1.5,11.3-8.3,9.8-15.1C41.9,57.8,39.9,54.9,37.1,53.1z M32.2,73.3
			c-2.5,0.5-5.2,0.1-7.3-1.4c-2.2-1.4-3.7-3.6-4.2-6.2c-0.6-2.8,0-5.6,1.7-7.9c1.4-1.9,3.5-3.2,5.8-3.7c2.5-0.5,5.2-0.1,7.3,1.4
			c2.2,1.4,3.7,3.6,4.2,6.1C40.8,67,37.4,72.2,32.2,73.3z"/>
		<path d="M78.7,53.4c-1.5-6.9-8.3-11.3-15.1-9.8c-3.3,0.7-6.2,2.7-8,5.5s-2.5,6.3-1.8,9.6c1.3,6,6.6,10.1,12.5,10.1
			c0.9,0,1.8-0.1,2.7-0.3C75.8,67.1,80.2,60.3,78.7,53.4z M68.3,65.6c-5.3,1.1-10.5-2.2-11.6-7.5c-0.5-2.5-0.1-5.2,1.4-7.3
			c1.4-2.2,3.6-3.7,6.1-4.2c0.7-0.1,1.4-0.2,2-0.2c4.5,0,8.6,3.1,9.5,7.7C76.9,59.3,73.6,64.5,68.3,65.6z"/>
		<path d="M47,28.6c0.3,0,0.5,0.1,0.8,0.1c2.4,0,4.6-1.8,5-4.3c0.4-2.7-1.5-5.3-4.2-5.8c-2.7-0.4-5.3,1.5-5.8,4.2S44.3,28.2,47,28.6
			z M45.8,23.3c0.2-1,1-1.7,2-1.7c0.1,0,0.2,0,0.3,0c1.1,0.2,1.9,1.2,1.7,2.3c-0.2,1.1-1.2,1.9-2.3,1.7
			C46.4,25.5,45.6,24.4,45.8,23.3z"/>
		<path d="M61.9,36.2c-0.2-0.8-1-1.3-1.8-1.2l-8.8,1.9l-9.7-7.2c-0.3-0.2-0.8-0.3-1.2-0.3c-0.4,0.1-0.8,0.3-1,0.7
			c-8.4,12.9-8.2,14-8.1,14.7c0.2,1,0.5,2.1,13.7,4.1l2.7,12.7c0.2,0.7,0.8,1.2,1.5,1.2c0.1,0,0.2,0,0.3,0c0.8-0.2,1.3-1,1.2-1.8
			l-2.9-13.8c-0.1-0.6-0.6-1.1-1.2-1.2c-4.6-0.7-9.8-1.7-11.9-2.3c0.9-1.9,3.7-6.4,6.4-10.7l9,6.6c0.3,0.3,0.8,0.4,1.2,0.3l9.4-2
			C61.6,37.8,62.1,37,61.9,36.2z"/>
	</g>
</g>
</svg>
