<?xml version="1.0" encoding="utf-8"?>
<!-- Generator: Adobe Illustrator 28.3.0, SVG Export Plug-In . SVG Version: 6.00 Build 0)  -->
<svg version="1.1" id="ds44-icons" xmlns="http://www.w3.org/2000/svg" xmlns:xlink="http://www.w3.org/1999/xlink" x="0px" y="0px"
	 viewBox="0 0 110 110" style="enable-background:new 0 0 110 110;" xml:space="preserve">
<g>
	<circle cx="61.4" cy="58.5" r="5"/>
	<circle cx="60.6" cy="87.1" r="2.4"/>
	<path d="M83.5,89h-3.1l-2.7-8.6c-0.3-1-1.3-1.7-2.3-1.7h-5.3c-0.9-1.1-2-2-3.3-2.7l-0.1-0.4h5.4c1.1,0,2.2-0.7,2.5-1.8
		c0.4-1.6-0.8-3.1-2.4-3.1h-6.9l-1-3.8c-0.3-1.1-1.3-2-2.4-1.9c-1.7,0-2.7,1.6-2.3,3.1l1.4,5.3c0,0.3,0.1,0.6,0.2,0.8l0.1,0.2
		c-0.2,0-0.4,0-0.6,0c-0.5,0-1.1,0-1.6,0.1L58,70.2c-0.2-0.7-0.8-1.2-1.5-1.3c-1.2-0.1-1.9,1-1.7,2l1.2,4.4
		c-4.6,1.9-7.9,6.4-7.8,11.8c0.1,6.6,5.7,12.2,12.3,12.3c7,0.1,12.7-5.5,12.7-12.5c0-1.1-0.2-2.3-0.4-3.3h0.8l2.7,8.6
		c0.3,1,1.3,1.7,2.3,1.7h5.1c1.5,0,2.8-1.4,2.4-3.1C85.8,89.8,84.7,89,83.5,89L83.5,89z M60.7,96c-5,0-9.1-4.1-9.1-9.1
		c0-5,4.1-9.1,9.1-9.1s9.1,4.1,9.1,9.1C69.8,92,65.8,96,60.7,96z"/>
	<path d="M23.9,10.6h27.8c7.4,0,12.9,2,16.7,5.8c3.8,3.8,6,8.8,6,15c0,11.8-8.1,20.1-21,20.1h-15v21.7H23.9V10.6z M38.4,40.1h12.2
		c6,0,9.3-3.4,9.3-8.7s-3.4-8.6-9.2-8.6H38.4L38.4,40.1L38.4,40.1z"/>
</g>
</svg>
