<svg width="110" height="110" xmlns="http://www.w3.org/2000/svg" x="0px" y="0px"
	 viewBox="0 0 110 110" style="enable-background:new 0 0 110 110;" xml:space="preserve">
<style type="text/css">
	.st0{fill:#FFFFFF;}
</style>
<g>
	<path class="st0" d="M73.6,93.7H36.4c-3.2,0-5.8-2.6-5.8-5.8V75.7c0-3.2,2.6-5.8,5.8-5.8h37.2c3.2,0,5.8,2.6,5.8,5.8v12.2
		C79.4,91.1,76.8,93.7,73.6,93.7z M36.4,72.8c-1.6,0-2.8,1.3-2.8,2.8v12.2c0,1.6,1.3,2.8,2.8,2.8h37.2c1.6,0,2.8-1.3,2.8-2.8V75.7
		c0-1.6-1.3-2.8-2.8-2.8H36.4z"/>
	<path class="st0" d="M46.1,19.5h-3V12c0-3,2.5-5.5,5.5-5.5h12.9c3,0,5.5,2.5,5.5,5.5v7.6h-3V12c0-1.4-1.1-2.5-2.5-2.5H48.5
		c-1.4,0-2.5,1.1-2.5,2.5V19.5z"/>
	<path d="M71.7,78.6h-33c-0.8,0-1.5-0.7-1.5-1.5s0.7-1.5,1.5-1.5h33c0.8,0,1.5,0.7,1.5,1.5S72.5,78.6,71.7,78.6z"/>
	<path d="M80.7,103.5H29.3c-5.2,0-9.5-4.3-9.5-9.5V51.5c0-19.4,15.8-35.1,35.1-35.1s35.1,15.8,35.1,35.1V94
		C90.1,99.3,85.9,103.5,80.7,103.5z M55,19.4c-17.7,0-32.1,14.4-32.1,32.1V94c0,3.6,2.9,6.5,6.5,6.5h51.3c3.6,0,6.5-2.9,6.5-6.5
		V51.5C87.1,33.8,72.7,19.4,55,19.4z"/>
	<path class="st0" d="M78.9,53.3c-0.8,0-1.5-0.7-1.5-1.5c0-12.1-9.9-22-22-22c-12.1,0-22,9.9-22,22c0,0.8-0.7,1.5-1.5,1.5
		s-1.5-0.7-1.5-1.5c0-13.8,11.2-25,25-25c13.8,0,25,11.2,25,25C80.4,52.6,79.7,53.3,78.9,53.3z"/>
</g>
</svg>
