<?xml version="1.0" encoding="utf-8"?>
<!-- Generator: Adobe Illustrator 28.3.0, SVG Export Plug-In . SVG Version: 6.00 Build 0)  -->
<svg version="1.1" id="ds44-icons" xmlns="http://www.w3.org/2000/svg" xmlns:xlink="http://www.w3.org/1999/xlink" x="0px" y="0px"
	 viewBox="0 0 110 110" style="enable-background:new 0 0 110 110;" xml:space="preserve">
<style type="text/css">
	.st0{fill:#181716;}
</style>
<g id="Calque_9">
	<path class="st0" d="M16,35.6v10.2c0,2.6,2.1,4.7,4.7,4.7h31.4V30.9H20.7C18.1,30.9,16,33,16,35.6L16,35.6L16,35.6z"/>
	<path class="st0" d="M89.3,30.9H57.9v19.7h31.4c2.6,0,4.7-2.1,4.7-4.7V35.6C94,33,91.9,30.9,89.3,30.9L89.3,30.9L89.3,30.9z"/>
	<path class="st0" d="M20.3,94.8c0,1.7,1.4,3.1,3.1,3.1h28.7V54H20.3V94.8L20.3,94.8L20.3,94.8z"/>
	<path class="st0" d="M57.9,97.9h28.7c1.7,0,3.1-1.4,3.1-3.1V54H57.9V97.9L57.9,97.9z"/>
	<path class="st0" d="M34.9,27.6c1,0.5,3,1.3,9,1.3c3.3,0,6.3-0.2,6.4-0.2c0.7,0,1.3-0.4,1.6-1c0.3-0.6,0.3-1.3,0-1.9
		c-0.9-1.8-5.6-10.7-9-12.5c-1.2-0.7-2.6-1.1-4-1.1c-3,0-5.8,1.6-7.2,4.2C29.5,20.3,30.9,25.3,34.9,27.6L34.9,27.6L34.9,27.6z
		 M35.2,18.3c0.7-1.4,2.2-2.2,3.7-2.2c0.7,0,1.4,0.2,2.1,0.5c1.2,0.7,3.8,4.4,5.9,8.2c-0.9,0-1.9,0-3,0c-5.3,0-6.8-0.6-7.1-0.8
		C34.8,22.9,34,20.3,35.2,18.3L35.2,18.3L35.2,18.3L35.2,18.3z"/>
	<path class="st0" d="M59.7,28.6c0.1,0,3.1,0.2,6.4,0.2c6,0,8-0.7,9-1.3c4-2.2,5.4-7.2,3.2-11.2c-1.5-2.6-4.2-4.2-7.2-4.2
		c-1.4,0-2.8,0.4-4,1C63.7,15,59,24,58.1,25.7c-0.3,0.6-0.3,1.3,0,1.9C58.5,28.1,59,28.5,59.7,28.6L59.7,28.6L59.7,28.6L59.7,28.6z
		 M69,16.6c0.6-0.4,1.4-0.5,2.1-0.5c1.5,0,3,0.9,3.7,2.2c1.1,2.1,0.4,4.7-1.6,5.8c-0.3,0.2-1.8,0.8-7.1,0.8c-1,0-2.1,0-3,0
		C65.3,21,67.8,17.3,69,16.6L69,16.6L69,16.6L69,16.6z"/>
</g>
</svg>
