<svg width="110" height="110" xmlns="http://www.w3.org/2000/svg" x="0px" y="0px"
	 viewBox="0 0 110 110" style="enable-background:new 0 0 110 110;" xml:space="preserve">
<g>
	<g>
		<g>
			<path d="M71,12.9L71,12.9l0.2,0c0.3,0,0.6,0.1,0.8,0.3l14.1,14.1c0.2,0.2,0.3,0.5,0.3,0.8l0,0.2h0v64.4c0,2.2-1.8,4-4,4H29.1
				c-2.2,0-4-1.8-4-4V16.9c0-2.2,1.8-4,4-4H71 M29.1,94.4h53.4c0.9,0,1.6-0.7,1.6-1.6V29.5v-0.2h-0.2h-9.8c-2.2,0-4-1.8-4-4v-9.8
				v-0.2h-0.2H29.1c-0.9,0-1.6,0.7-1.6,1.6v75.9C27.4,93.7,28.2,94.4,29.1,94.4 M74.1,26.9h7.9h0.6l-0.4-0.4l-9.3-9.3l-0.4-0.4v0.6
				v7.9C72.4,26.2,73.2,26.9,74.1,26.9"/>
		</g>
	</g>
</g>
<g>
	<g>
		<g>
			<path d="M38.9,50.8c2.2,0,4,1.8,4,4c0,2.2-1.8,4-4,4c-2.2,0-4-1.8-4-4C34.9,52.6,36.7,50.8,38.9,50.8 M38.9,56.5
				c0.9,0,1.6-0.7,1.6-1.6s-0.7-1.6-1.6-1.6c-0.9,0-1.6,0.7-1.6,1.6S38,56.5,38.9,56.5"/>
		</g>
	</g>
</g>
<g>
	<g>
		<g>
			<path d="M76.7,53.6V56H49v-2.3H76.7"/>
		</g>
	</g>
</g>
<g>
	<g>
		<g>
			<path d="M38.9,36.8c2.2,0,4,1.8,4,4c0,2.2-1.8,4-4,4c-2.2,0-4-1.8-4-4C34.9,38.6,36.7,36.8,38.9,36.8 M38.9,42.4
				c0.9,0,1.6-0.7,1.6-1.6c0-0.9-0.7-1.6-1.6-1.6c-0.9,0-1.6,0.7-1.6,1.6C37.3,41.7,38,42.4,38.9,42.4"/>
		</g>
	</g>
</g>
<g>
	<g>
		<g>
			<path d="M76.7,39.6v2.3H49v-2.3H76.7"/>
		</g>
	</g>
</g>
<g>
	<g>
		<g>
			<path d="M38.9,64.9c2.2,0,4,1.8,4,4c0,2.2-1.8,4-4,4c-2.2,0-4-1.8-4-4C34.9,66.7,36.7,64.9,38.9,64.9 M38.9,70.5
				c0.9,0,1.6-0.7,1.6-1.6c0-0.9-0.7-1.6-1.6-1.6c-0.9,0-1.6,0.7-1.6,1.6C37.3,69.8,38,70.5,38.9,70.5"/>
		</g>
	</g>
</g>
<g>
	<g>
		<g>
			<path d="M76.7,67.7V70H49v-2.3H76.7"/>
		</g>
	</g>
</g>
<g>
	<g>
		<g>
			<path d="M38.9,79c2.2,0,4,1.8,4,4c0,2.2-1.8,4-4,4c-2.2,0-4-1.8-4-4C34.9,80.7,36.7,79,38.9,79 M38.9,84.6c0.9,0,1.6-0.7,1.6-1.6
				c0-0.9-0.7-1.6-1.6-1.6c-0.9,0-1.6,0.7-1.6,1.6C37.3,83.8,38,84.6,38.9,84.6"/>
		</g>
	</g>
</g>
<g>
	<g>
		<g>
			<path d="M76.7,81.8v2.3H49v-2.3H76.7"/>
		</g>
	</g>
</g>
</svg>
