<svg width="110" height="110" xmlns="http://www.w3.org/2000/svg" x="0px" y="0px"
	 viewBox="0 0 110 110" style="enable-background:new 0 0 110 110;" xml:space="preserve">
<style type="text/css">
	.st0{fill:#FFFFFF;}
</style>
<g>
	<g>
		<path d="M93.2,60.7c-0.6-0.6-1.5-0.6-2,0l-1.6,1.6l-2.4-2.4l2.1-2.1l1.4,1.4c0.3,0.3,0.6,0.4,1,0.4c0.4,0,0.7-0.1,1-0.4
			c0.6-0.6,0.6-1.5,0-2l-1.4-1.4l1.3-1.3c0.6-0.6,0.6-1.5,0-2c-0.6-0.6-1.5-0.6-2,0l-1.3,1.3l-2.4-2.4l2.1-2.1c0.6-0.6,0.6-1.5,0-2
			c-0.6-0.6-1.5-0.6-2,0l-2.1,2.1L82.4,47l1.3-1.3c0.6-0.6,0.6-1.5,0-2c-0.6-0.6-1.5-0.6-2,0L80.4,45L79,43.6c-0.6-0.6-1.5-0.6-2,0
			c-0.6,0.6-0.6,1.5,0,2l1.4,1.4l-2.1,2.1l-2.4-2.4l1.6-1.6c0.6-0.6,0.6-1.5,0-2c-0.6-0.6-1.5-0.6-2,0l-1.6,1.6l-0.8-0.8
			c-0.6-0.6-1.5-0.6-2,0c-0.6,0.6-0.6,1.5,0,2l0.8,0.8l-2.1,2.1l-1.4-1.4c-0.6-0.6-1.5-0.6-2,0c-0.6,0.6-0.6,1.5,0,2l1.4,1.4
			l-2.1,2.1L61,50.2c-0.6-0.6-1.5-0.6-2,0c-0.6,0.6-0.6,1.5,0,2l2.7,2.7L59.6,57l-1.4-1.4c-0.6-0.6-1.5-0.6-2,0
			c-0.6,0.6-0.6,1.5,0,2l1.4,1.4l-2.1,2.1l-0.8-0.8c-0.6-0.6-1.5-0.6-2,0c-0.6,0.6-0.6,1.5,0,2l0.8,0.8l-1.9,1.9
			c-0.5,0.5-0.5,1.1-0.2,1.7c-0.5,0.6-0.4,1.4,0.1,1.9l2.7,2.7l-2.7,2.7c-0.6,0.6-0.6,1.5,0,2c0.3,0.3,0.6,0.4,1,0.4
			c0.4,0,0.7-0.1,1-0.4l2.7-2.7l2.4,2.4l-2.7,2.7c-0.6,0.6-0.6,1.5,0,2c0.3,0.3,0.6,0.4,1,0.4c0.4,0,0.7-0.1,1-0.4l2.7-2.7l2.4,2.4
			l-2.7,2.7c-0.6,0.6-0.6,1.5,0,2c0.3,0.3,0.6,0.4,1,0.4c0.4,0,0.7-0.1,1-0.4l2.7-2.7l2.7,2.7c0.3,0.3,0.6,0.4,1,0.4
			c0.3,0,0.6-0.1,0.9-0.3c0.2,0.1,0.4,0.2,0.7,0.2c0.4,0,0.7-0.1,1-0.4l1.9-1.9l0.8,0.8c0.3,0.3,0.6,0.4,1,0.4c0.4,0,0.7-0.1,1-0.4
			c0.6-0.6,0.6-1.5,0-2l-0.8-0.8l2.1-2.1l1.4,1.4c0.3,0.3,0.6,0.4,1,0.4c0.4,0,0.7-0.1,1-0.4c0.6-0.6,0.6-1.5,0-2l-1.4-1.4l2.1-2.1
			l2.7,2.7c0.3,0.3,0.6,0.4,1,0.4c0.4,0,0.7-0.1,1-0.4c0.6-0.6,0.6-1.5,0-2l-2.7-2.7l2.1-2.1l1.4,1.4c0.3,0.3,0.6,0.4,1,0.4
			c0.4,0,0.7-0.1,1-0.4c0.6-0.6,0.6-1.5,0-2l-1.4-1.4l2.1-2.1l0.8,0.8c0.3,0.3,0.6,0.4,1,0.4c0.4,0,0.7-0.1,1-0.4
			c0.6-0.6,0.6-1.5,0-2l-0.8-0.8l1.6-1.6C93.8,62.1,93.8,61.2,93.2,60.7z M87.2,55.8l-2.1,2.1l-2.4-2.4l2.1-2.1L87.2,55.8z
			 M74.6,59.6l-2.1,2.1l-2.4-2.4l2.1-2.1L74.6,59.6z M74.3,55.2l2.1-2.1l2.4,2.4l-2.1,2.1L74.3,55.2z M70.6,63.7l-2.1,2.1l-2.4-2.4
			l2.1-2.1L70.6,63.7z M66.5,67.9l-2.1,2.1L62,67.6l2.1-2.1L66.5,67.9z M68.5,69.9l2.4,2.4l-2.1,2.1L66.5,72L68.5,69.9z M70.5,67.9
			l2.1-2.1l2.4,2.4l-2.1,2.1L70.5,67.9z M74.6,63.7l2.1-2.1l2.4,2.4L77,66.1L74.6,63.7z M78.7,59.6l2.1-2.1l2.4,2.4L81.1,62
			L78.7,59.6z M80.4,49l2.4,2.4l-2.1,2.1l-2.4-2.4L80.4,49z M71.9,48.7l2.4,2.4l-2.1,2.1l-2.4-2.4L71.9,48.7z M67.8,52.9l2.4,2.4
			l-2.1,2.1l-2.4-2.4L67.8,52.9z M63.7,57l2.4,2.4l-2.1,2.1l-2.4-2.4L63.7,57z M59.6,61.1l2.4,2.4L60,65.5l-2.4-2.4L59.6,61.1z
			 M53.8,67l1.7-1.8l2.4,2.4l-1.7,1.8L53.8,67z M58.3,71.4l1.7-1.8l2.4,2.4l-1.7,1.8L58.3,71.4z M62.7,75.8l1.7-1.8l2.4,2.4
			l-1.7,1.8L62.7,75.8z M69.5,82.5l-2.4-2.4l1.7-1.8l2.4,2.4L69.5,82.5z M73.3,78.7l-2.4-2.4l2.1-2.1l2.4,2.4L73.3,78.7z M77.4,74.6
			L75,72.3l2.1-2.1l2.4,2.4L77.4,74.6z M81.4,70.5l-2.4-2.4l2.1-2.1l2.4,2.4L81.4,70.5z M85.5,66.4L83.1,64l2.1-2.1l2.4,2.4
			L85.5,66.4z"/>
		<path class="st0" d="M89.1,47.1c-7.5-7.4-21-6-30.1,3.2c-5.9,6-8.5,13.7-7.6,20.5c0,0.1,0,0.2,0,0.3l-0.1,4.5c0,2-0.8,4-2.3,5.4
			L32,98.1c-0.3,0.3-0.4,0.6-0.4,1c0,0.4,0.2,0.7,0.4,1l4.5,4.4c0.3,0.3,0.6,0.4,1,0.4c0.4,0,0.7-0.1,1-0.4l16.8-16.9
			c1.4-1.4,3.2-2.2,5.2-2.3l5-0.3c0.1,0,0.2,0,0.3,0c0.8,0.1,1.7,0.2,2.6,0.2c6.1,0,12.7-2.7,17.9-7.9
			C95.3,68.1,96.6,54.6,89.1,47.1z M37.5,101.5l-2.4-2.4l1.7-1.7l2.4,2.4L37.5,101.5z M41.2,97.8l-2.4-2.4l1.6-1.6l2.4,2.4
			L41.2,97.8z M44.8,94.2l-2.4-2.4l1.6-1.6l2.4,2.4L44.8,94.2z M48.3,90.6l-2.4-2.4l1.6-1.6l2.4,2.4L48.3,90.6z M53.3,85.6L51.9,87
			l-2.4-2.4l1.5-1.5c1.5-1.5,2.5-3.3,2.9-5.3c0.6,1,1.3,1.9,2.1,2.7c0.9,0.9,1.8,1.6,2.8,2.2C56.8,83.1,54.8,84.1,53.3,85.6z
			 M84.1,75.3c-8,8.1-19.7,9.5-26.1,3.1c-6.4-6.3-5.1-18,2.9-26.1c4.6-4.7,10.5-7.1,15.8-7.1c3.9,0,7.5,1.3,10.2,4
			C93.4,55.5,92.1,67.2,84.1,75.3z"/>
	</g>
	<g>
		<path d="M59.4,26.4l-19,0v-5.2c2.3-0.3,4.5-1.4,6.2-3.1l5.8-5.8c0.6-0.6,0.6-1.5,0-2c-0.6-0.6-1.5-0.6-2,0l-5.8,5.8
			c-1.2,1.2-2.6,1.9-4.2,2.2V7.4c0-0.8-0.6-1.4-1.4-1.4c-0.8,0-1.4,0.6-1.4,1.4v11c-1.7-0.3-3.2-1-4.4-2.3l-5.6-5.6
			c-0.6-0.6-1.5-0.6-2,0c-0.6,0.6-0.6,1.5,0,2l5.6,5.6c1.8,1.8,4,2.8,6.4,3.1v5.2l-19,0c-0.8,0-1.4,0.6-1.4,1.4s0.6,1.4,1.4,1.4
			l19,0v5.3c-2.3,0.3-4.5,1.4-6.2,3.1l-5.8,5.8c-0.6,0.6-0.6,1.5,0,2c0.3,0.3,0.6,0.4,1,0.4c0.4,0,0.7-0.1,1-0.4l5.8-5.8
			c1.2-1.2,2.6-1.9,4.2-2.2v10.9c0,0.8,0.6,1.4,1.4,1.4c0.8,0,1.4-0.6,1.4-1.4V37.4c1.7,0.3,3.2,1,4.4,2.3l5.6,5.6
			c0.6,0.6,1.5,0.6,2,0c0.6-0.6,0.6-1.5,0-2l-5.6-5.6c-1.8-1.8-4-2.8-6.4-3.1v-5.2l19,0c0.8,0,1.4-0.6,1.4-1.4
			C60.8,27.1,60.2,26.4,59.4,26.4z"/>
		<path class="st0" d="M38.9,50.7c-12.6,0-22.8-10.2-22.8-22.8C16.1,15.3,26.3,5,38.9,5s22.8,10.2,22.8,22.8
			C61.7,40.4,51.5,50.7,38.9,50.7z M38.9,7.9c-11,0-20,9-20,20s9,20,20,20s20-9,20-20S49.9,7.9,38.9,7.9z"/>
	</g>
	<g>
		<path d="M39.8,69.9C39.7,69.9,39.7,69.9,39.8,69.9c-6.2-0.4-11.3-5.1-12.2-11.2c-0.1-0.8,0.4-1.5,1.2-1.6c0.8-0.1,1.5,0.4,1.6,1.2
			c0.7,4.8,4.7,8.4,9.5,8.7c0.8,0,1.4,0.7,1.3,1.5C41.1,69.3,40.5,69.9,39.8,69.9z"/>
		<path d="M32.3,78c-0.7,0-1.3-0.5-1.4-1.2c-0.7-4.7-4.6-8.4-9.4-8.7c-0.8,0-1.4-0.7-1.3-1.5c0-0.8,0.7-1.4,1.5-1.3
			c6.1,0.4,11.2,5.1,12.1,11.1c0.1,0.8-0.4,1.5-1.2,1.6C32.4,78,32.4,78,32.3,78z"/>
		<path class="st0" d="M30.6,78.3c-6,0-10.8-4.8-10.8-10.8s4.8-10.8,10.8-10.8s10.8,4.8,10.8,10.8S36.6,78.3,30.6,78.3z M30.6,59.6
			c-4.4,0-7.9,3.6-7.9,7.9s3.6,7.9,7.9,7.9s7.9-3.6,7.9-7.9S35,59.6,30.6,59.6z"/>
	</g>
</g>
</svg>
