<svg width="110" height="110" xmlns="http://www.w3.org/2000/svg" x="0px" y="0px"
	 viewBox="0 0 110 110" style="enable-background:new 0 0 110 110;" xml:space="preserve">
<style type="text/css">
	.st0{fill:none;}
	.st1{fill:#FFFFFF;}
	.st2{fill:#FDC455;}
</style>
<g>
	<path d="M43.5,38.4l-0.3-0.3c-3.4-0.7-9.5-3.2-12.6-4.8c-0.3,0.9-0.7,1.7-1.2,2.4c0.2,0.1,2.3,1.3,2.4,1.3c3.1,1.5,6.3,2.7,9.5,3.6
		L41.2,41c0.4-0.4,0.7-0.8,1.1-1.3c0.3-0.4,0.7-0.8,1.1-1C43.4,38.4,43.5,38.7,43.5,38.4"/>
	<path class="st0" d="M43.5,38.4l-0.3-0.3c-3.4-0.7-9.5-3.2-12.6-4.8c-0.3,0.9-0.7,1.7-1.2,2.4c0.2,0.1,2.3,1.3,2.4,1.3
		c3.1,1.5,6.3,2.7,9.5,3.6L41.2,41c0.4-0.4,0.7-0.8,1.1-1.3c0.3-0.4,0.7-0.8,1.1-1C43.4,38.4,43.5,38.7,43.5,38.4z"/>
	<path d="M19.3,52.5c-0.6,0.5,0.3,0,0,0.6c-0.1,0.2-1.8,1.6-1.8,1.8c1.3,1.7,4.8,5.9,6.3,7.3c0.6-0.8,1.3-1.5,2.2-1.9
		C24.3,58.7,20.6,54.2,19.3,52.5"/>
	<path class="st0" d="M19.3,52.5c-0.6,0.5,0.3,0,0,0.6c-0.1,0.2-1.8,1.6-1.8,1.8c1.3,1.7,4.8,5.9,6.3,7.3c0.6-0.8,1.3-1.5,2.2-1.9
		C24.3,58.7,20.6,54.2,19.3,52.5z"/>
	<path d="M85.2,62.7c-0.5,0.3-1,0.4-1.5,0.4c-0.2,0-0.4,0-0.6-0.1c-0.2,0.1-0.5,0.1-0.7,0.1c0.1,0,0.3,0.1,0.4,0.1
		c0,0.3,0,0.6,0,0.9c0,1.4-0.9,2.7-2.2,3.1h0.1c-0.7,0.2-1.4,0.2-2.1,0.2l-11.8-7.7c-0.6-0.5-1.5-0.4-2,0.2c-0.5,0.6-0.4,1.5,0.2,2
		c0.1,0,0.1,0.1,0.2,0.1h0l11.8,7.7c0.2,0.7,0.2,1.5-0.2,2.2c-0.9,1.2-3.3,1-4.4,0.9l-9.9-6c-0.7-0.4-1.6-0.2-2,0.5
		c-0.4,0.7-0.2,1.6,0.5,2l9.9,6c0.5,0.6,0.5,1.4,0,2c-0.6,0.8-2.6,1.1-4,1l-8.5-5.2c-0.7-0.4-1.6-0.1-2,0.6
		c-0.3,0.6-0.1,1.4,0.4,1.8l7.6,4.7c-0.5,0.9-1.4,1.6-2.4,1.9c-3.4,1.1-7.9-1.9-8-1.9l-0.2-0.1c-0.5-0.2-0.9-0.4-1.4-0.7
		c0.2-0.4-0.5,0.6-0.5,0.2c-0.3,0.6-0.5,1.3-0.7,2c0,0.1-0.1,0.2-0.2,0.4c0.5,0.3,1,0.5,1.5,0.7c2.4,1.5,5.1,2.4,7.9,2.5
		c0.8,0,1.7-0.1,2.5-0.3c1.9-0.6,3.5-1.9,4.4-3.7c1.6,0,4.5-0.3,5.8-2.3c0.7-0.9,1-2.1,0.9-3.2c1.9,0,3.7-0.8,4.9-2.2
		c0.6-1,0.9-2.2,0.8-3.4c0.5,0,0.9-0.1,1.4-0.2c2.7-0.7,4.6-3.1,4.6-5.9c0-0.4,0-0.8-0.1-1.2C85.5,62.9,85.3,62.8,85.2,62.7"/>
	<path class="st0" d="M85.2,62.7c-0.5,0.3-1,0.4-1.5,0.4c-0.2,0-0.4,0-0.6-0.1c-0.2,0.1-0.5,0.1-0.7,0.1c0.1,0,0.3,0.1,0.4,0.1
		c0,0.3,0,0.6,0,0.9c0,1.4-0.9,2.7-2.2,3.1h0.1c-0.7,0.2-1.4,0.2-2.1,0.2l-11.8-7.7c-0.6-0.5-1.5-0.4-2,0.2c-0.5,0.6-0.4,1.5,0.2,2
		c0.1,0,0.1,0.1,0.2,0.1h0l11.8,7.7c0.2,0.7,0.2,1.5-0.2,2.2c-0.9,1.2-3.3,1-4.4,0.9l-9.9-6c-0.7-0.4-1.6-0.2-2,0.5
		c-0.4,0.7-0.2,1.6,0.5,2l9.9,6c0.5,0.6,0.5,1.4,0,2c-0.6,0.8-2.6,1.1-4,1l-8.5-5.2c-0.7-0.4-1.6-0.1-2,0.6
		c-0.3,0.6-0.1,1.4,0.4,1.8l7.6,4.7c-0.5,0.9-1.4,1.6-2.4,1.9c-3.4,1.1-7.9-1.9-8-1.9l-0.2-0.1c-0.5-0.2-0.9-0.4-1.4-0.7
		c0.2-0.4-0.5,0.6-0.5,0.2c-0.3,0.6-0.5,1.3-0.7,2c0,0.1-0.1,0.2-0.2,0.4c0.5,0.3,1,0.5,1.5,0.7c2.4,1.5,5.1,2.4,7.9,2.5
		c0.8,0,1.7-0.1,2.5-0.3c1.9-0.6,3.5-1.9,4.4-3.7c1.6,0,4.5-0.3,5.8-2.3c0.7-0.9,1-2.1,0.9-3.2c1.9,0,3.7-0.8,4.9-2.2
		c0.6-1,0.9-2.2,0.8-3.4c0.5,0,0.9-0.1,1.4-0.2c2.7-0.7,4.6-3.1,4.6-5.9c0-0.4,0-0.8-0.1-1.2C85.5,62.9,85.3,62.8,85.2,62.7z"/>
	<path d="M81.3,36.9l7.3,13.5l2.1,4l-0.1,0.1c0.1,0.2,0.2,0.4,0.2,0.6c0,0.3,0.1,0.7,0.3,1c0.3,0.4,0.5,0.9,0.7,1.4l0.3-0.4l0.3,0.6
		c0.4,0.8,1.2,1.5,2.1,1.7c0.3,0.1,0.6,0.1,0.9,0.1c0.6,0,1.2-0.2,1.7-0.5l5.5-3.3c1.5-0.9,2.1-2.9,1.3-4.5L91,27
		c-0.9-1.7-3-2.3-4.6-1.4c0,0-0.1,0-0.1,0.1L80.7,29c-1.6,0.9-2.1,2.9-1.3,4.5l0.3,0.7L81.3,36.9z M100.9,53.6L100.9,53.6l-5.7,3.1
		c-0.1,0.1-0.3,0.1-0.4,0c-0.1,0-0.2-0.1-0.3-0.3l-1.3-2.6v-0.1l-2.6-5.1l-8.4-16.8c-0.1-0.2,0-0.5,0.2-0.7l0,0l5.6-3.1
		c0.1,0,0.2-0.1,0.2-0.1h0.1c0.1,0,0.2,0.1,0.3,0.3L101.2,53C101.3,53.2,101.2,53.5,100.9,53.6"/>
	<path class="st0" d="M81.3,36.9l7.3,13.5l2.1,4l-0.1,0.1c0.1,0.2,0.2,0.4,0.2,0.6c0,0.3,0.1,0.7,0.3,1c0.3,0.4,0.5,0.9,0.7,1.4
		l0.3-0.4l0.3,0.6c0.4,0.8,1.2,1.5,2.1,1.7c0.3,0.1,0.6,0.1,0.9,0.1c0.6,0,1.2-0.2,1.7-0.5l5.5-3.3c1.5-0.9,2.1-2.9,1.3-4.5L91,27
		c-0.9-1.7-3-2.3-4.6-1.4c0,0-0.1,0-0.1,0.1L80.7,29c-1.6,0.9-2.1,2.9-1.3,4.5l0.3,0.7L81.3,36.9z M100.9,53.6L100.9,53.6l-5.7,3.1
		c-0.1,0.1-0.3,0.1-0.4,0c-0.1,0-0.2-0.1-0.3-0.3l-1.3-2.6v-0.1l-2.6-5.1l-8.4-16.8c-0.1-0.2,0-0.5,0.2-0.7l0,0l5.6-3.1
		c0.1,0,0.2-0.1,0.2-0.1h0.1c0.1,0,0.2,0.1,0.3,0.3L101.2,53C101.3,53.2,101.2,53.5,100.9,53.6z"/>
	<path class="st1" d="M19.6,52.9l8.2-13l2.4-3.8h0.1c0.1-0.1,1.9-3.1,1.9-3.1c0.5-0.8,0.7-1.7,0.5-2.7c-0.1-0.3-0.2-0.6-0.3-0.9
		c-0.3-0.5-0.7-1-1.2-1.3L25.5,25c-1.6-0.9-3.5-0.4-4.5,1.1L6.2,49.3c-0.5,0.8-0.7,1.7-0.4,2.6c0.2,0.9,0.8,1.7,1.6,2.1l5.6,3.2
		c1.6,0.9,3.6,0.4,4.6-1.1l0.4-0.6 M24.1,27.5L24.1,27.5l5.6,3.3c0.1,0.1,0.2,0.2,0.2,0.3c0,0.1,0,0.3-0.1,0.4l-1.6,2.4l-0.1,0
		l-3.1,4.8L15,54.7c-0.1,0.2-0.4,0.3-0.7,0.2l-5.5-3.2c-0.1,0-0.1-0.1-0.2-0.2l-0.1-0.1c0-0.1,0-0.3,0.1-0.4l14.7-23.3
		C23.6,27.4,23.9,27.4,24.1,27.5"/>
	<path class="st0" d="M19.6,52.9l8.2-13l2.4-3.8h0.1c0.1-0.1,1.9-3.1,1.9-3.1c0.5-0.8,0.7-1.7,0.5-2.7c-0.1-0.3-0.2-0.6-0.3-0.9
		c-0.3-0.5-0.7-1-1.2-1.3L25.5,25c-1.6-0.9-3.5-0.4-4.5,1.1L6.2,49.3c-0.5,0.8-0.7,1.7-0.4,2.6c0.2,0.9,0.8,1.7,1.6,2.1l5.6,3.2
		c1.6,0.9,3.6,0.4,4.6-1.1l0.4-0.6 M24.1,27.5L24.1,27.5l5.6,3.3c0.1,0.1,0.2,0.2,0.2,0.3c0,0.1,0,0.3-0.1,0.4l-1.6,2.4l-0.1,0
		l-3.1,4.8L15,54.7c-0.1,0.2-0.4,0.3-0.7,0.2l-5.5-3.2c-0.1,0-0.1-0.1-0.2-0.2l-0.1-0.1c0-0.1,0-0.3,0.1-0.4l14.7-23.3
		C23.6,27.4,23.9,27.4,24.1,27.5z"/>
	<path class="st2" d="M23.8,62.1c-1.5,1.7-2.5,4.2-0.6,6.5c1,1,2.4,1.6,3.9,1.6c-0.2,0.9-0.2,1.8,0,2.7c0.5,2.1,2.4,3.5,4.5,3.4h0.3
		c0.5,0,1-0.1,1.4-0.3c-0.2,1.9,0.8,3.8,2.5,4.7c0.8,0.6,1.8,0.9,2.8,0.9c0.3,0,0.6,0,0.8-0.1c0.4-0.1,0.7-0.2,1.1-0.3
		c0.4,1.3,1.1,2.4,2.2,3.2l0.1,0.1c0.8,0.5,1.7,0.7,2.6,0.7c2.1-0.1,4.1-1.3,5.1-3.2l0.3-0.3l1.5-2.5c0.3-0.7,0.4-1.5,0.4-2.3
		c-0.2-1.5-1-2.8-2.3-3.5c-1.1-0.6-2.2-0.9-3.4-0.9c0.4-1.8-0.1-3.7-1.5-4.9c-1.1-1.1-2.7-1.7-4.2-1.6c0.6-1.7,0.1-3.6-1.3-4.7
		c-1.1-0.9-2.4-1.2-3.8-1.1c-1.5,0.2-2.9,0.9-4,1.9c-0.2-0.4-0.5-0.8-0.8-1.1c-0.6-0.9-1.5-1.4-2.6-1.6c-1-0.2-2,0-2.9,0.5
		C25.1,60.7,24.4,61.3,23.8,62.1 M28.9,66.5c-0.4,0.4-1,0.7-1.5,0.9c-0.7,0-1.4-0.3-2-0.8c-1-1.2,1.5-3.5,1.5-3.5
		c0.5-0.4,1.1-0.5,1.7-0.5c0.3,0.1,0.6,0.3,0.8,0.5c0.1,0.1,0.1,0.2,0.2,0.2c0.5,0.5,0.6,1.3,0.3,2C29.5,65.7,29.1,66.1,28.9,66.5
		L28.9,66.5z M34.4,71.8c-1,0.9-2.2,1.3-3.5,1.3c-0.8,0-1.5-0.6-1.6-1.4c0.2-1.5,0.8-2.8,1.9-3.8c0.5-0.4,0.9-0.8,1.3-1.3
		c2.2-2.4,3.8-2.8,4.8-2.8c0.6,0,1.1,0.2,1.6,0.6l0.1,0.2c0.6,0.5-0.3,2.5-1.6,4.2L34.4,71.8z M41,77.5c-0.1,0.1-0.1,0.2-0.1,0.3
		v0.1c-0.5,0.5-1.1,0.9-1.8,1c-0.5,0.1-1,0-1.5-0.3l-0.3-0.2c-1.7-0.9-1-3.3-0.7-3.9l0.7-0.9c0.6-0.7,1.2-1.4,1.7-2.2
		c0.2-0.3,0.5-0.8,0.9-1.5c1-1,2.6-1,3.6-0.1c0,0,0.1,0.1,0.1,0.1c1.3,1.2,0.6,3.1-0.1,4.4L41,77.5z M49.3,79.4
		c-0.2,0.3-0.5,0.6-0.7,0.9c-0.1,0.1-0.2,0.1-0.2,0.2c-1.7,2.6-3.3,2-3.8,1.7c-0.9-0.7-1.4-1.8-1.2-2.9c0.5-0.6,1-1.3,1.5-2
		c0.4-0.4,0.7-0.8,1-1.3c1-0.5,2.2-0.5,3.3,0c0.9,0.6,0.9,1.2,1,1.3C50,78.2,49.7,78.9,49.3,79.4L49.3,79.4z"/>
	<path class="st1" d="M23.8,62.1c-1.5,1.7-2.5,4.2-0.6,6.5c1,1,2.4,1.6,3.9,1.6c-0.2,0.9-0.2,1.8,0,2.7c0.5,2.1,2.4,3.5,4.5,3.4h0.3
		c0.5,0,1-0.1,1.4-0.3c-0.2,1.9,0.8,3.8,2.5,4.7c0.8,0.6,1.8,0.9,2.8,0.9c0.3,0,0.6,0,0.8-0.1c0.4-0.1,0.7-0.2,1.1-0.3
		c0.4,1.3,1.1,2.4,2.2,3.2l0.1,0.1c0.8,0.5,1.7,0.7,2.6,0.7c2.1-0.1,4.1-1.3,5.1-3.2l0.3-0.3l1.5-2.5c0.3-0.7,0.4-1.5,0.4-2.3
		c-0.2-1.5-1-2.8-2.3-3.5c-1.1-0.6-2.2-0.9-3.4-0.9c0.4-1.8-0.1-3.7-1.5-4.9c-1.1-1.1-2.7-1.7-4.2-1.6c0.6-1.7,0.1-3.6-1.3-4.7
		c-1.1-0.9-2.4-1.2-3.8-1.1c-1.5,0.2-2.9,0.9-4,1.9c-0.2-0.4-0.5-0.8-0.8-1.1c-0.6-0.9-1.5-1.4-2.6-1.6c-1-0.2-2,0-2.9,0.5
		C25.1,60.7,24.4,61.3,23.8,62.1z M28.9,66.5c-0.4,0.4-1,0.7-1.5,0.9c-0.7,0-1.4-0.3-2-0.8c-1-1.2,1.5-3.5,1.5-3.5
		c0.5-0.4,1.1-0.5,1.7-0.5c0.3,0.1,0.6,0.3,0.8,0.5c0.1,0.1,0.1,0.2,0.2,0.2c0.5,0.5,0.6,1.3,0.3,2C29.5,65.7,29.1,66.1,28.9,66.5
		L28.9,66.5z M34.4,71.8c-1,0.9-2.2,1.3-3.5,1.3c-0.8,0-1.5-0.6-1.6-1.4c0.2-1.5,0.8-2.8,1.9-3.8c0.5-0.4,0.9-0.8,1.3-1.3
		c2.2-2.4,3.8-2.8,4.8-2.8c0.6,0,1.1,0.2,1.6,0.6l0.1,0.2c0.6,0.5-0.3,2.5-1.6,4.2L34.4,71.8z M41,77.5c-0.1,0.1-0.1,0.2-0.1,0.3
		v0.1c-0.5,0.5-1.1,0.9-1.8,1c-0.5,0.1-1,0-1.5-0.3l-0.3-0.2c-1.7-0.9-1-3.3-0.7-3.9l0.7-0.9c0.6-0.7,1.2-1.4,1.7-2.2
		c0.2-0.3,0.5-0.8,0.9-1.5c1-1,2.6-1,3.6-0.1c0,0,0.1,0.1,0.1,0.1c1.3,1.2,0.6,3.1-0.1,4.4L41,77.5z M49.3,79.4
		c-0.2,0.3-0.5,0.6-0.7,0.9c-0.1,0.1-0.2,0.1-0.2,0.2c-1.7,2.6-3.3,2-3.8,1.7c-0.9-0.7-1.4-1.8-1.2-2.9c0.5-0.6,1-1.3,1.5-2
		c0.4-0.4,0.7-0.8,1-1.3c1-0.5,2.2-0.5,3.3,0c0.9,0.6,0.9,1.2,1,1.3C50,78.2,49.7,78.9,49.3,79.4L49.3,79.4z"/>
	<path class="st1" d="M90.2,54.7c-1.8,2.1-4.6,5.4-6.4,5.6c-0.2,0-0.3,0-0.5,0L83,60.2c-0.1,0-0.2-0.1-0.3-0.2l-5.8-4.1l-20.1-14
		c-0.1-0.1-0.3-0.2-0.4-0.2c-0.1,0-0.2,0-0.3,0h-0.1L50.2,42c-0.2,0-0.3,0.1-0.5,0.1l-0.2,0.1c-0.1,0.1-0.2,0.1-0.3,0.2
		c-0.1,0-0.1,0.1-0.1,0.2c-0.1,0.1-0.1,0.1-0.1,0.2c-0.8,1.5-3.5,5.8-6.3,6.2c-0.9,0.1-1.8-0.2-2.5-0.8l6.1-9.6
		c2.5-1.9,5.5-3.1,8.7-3.3l10.1,0.1c1.8,0.5,10.8,2.7,15.6,1.8l-1.2-2.4c-3.4,0.3-10-1.1-13.8-2.3c-0.1,0-0.3,0-0.4,0L55,32.5
		c-3.9,0.2-7.6,1.7-10.7,4.1c-0.1,0.1-0.2,0.2-0.3,0.3L43.3,38c-0.2,0-1.9,2.6-1.8,2.6l-4.5,7c-0.3,0.6-0.3,1.3,0.1,1.8
		c1.4,1.8,3.6,2.8,5.8,2.6c3.9-0.5,6.9-4.9,8-6.9c1.5,0,3-0.1,4.5-0.4l21.5,15l3.8,2.7c1.4,0.9,3.2,1,4.7,0.3c2.4-1.2,4.4-2.9,6.1-5
		L90.2,54.7z"/>
	<path class="st0" d="M90.2,54.7c-1.8,2.1-4.6,5.4-6.4,5.6c-0.2,0-0.3,0-0.5,0L83,60.2c-0.1,0-0.2-0.1-0.3-0.2l-5.8-4.1l-20.1-14
		c-0.1-0.1-0.3-0.2-0.4-0.2c-0.1,0-0.2,0-0.3,0h-0.1L50.2,42c-0.2,0-0.3,0.1-0.5,0.1l-0.2,0.1c-0.1,0.1-0.2,0.1-0.3,0.2
		c-0.1,0-0.1,0.1-0.1,0.2c-0.1,0.1-0.1,0.1-0.1,0.2c-0.8,1.5-3.5,5.8-6.3,6.2c-0.9,0.1-1.8-0.2-2.5-0.8l6.1-9.6
		c2.5-1.9,5.5-3.1,8.7-3.3l10.1,0.1c1.8,0.5,10.8,2.7,15.6,1.8l-1.2-2.4c-3.4,0.3-10-1.1-13.8-2.3c-0.1,0-0.3,0-0.4,0L55,32.5
		c-3.9,0.2-7.6,1.7-10.7,4.1c-0.1,0.1-0.2,0.2-0.3,0.3L43.3,38c-0.2,0-1.9,2.6-1.8,2.6l-4.5,7c-0.3,0.6-0.3,1.3,0.1,1.8
		c1.4,1.8,3.6,2.8,5.8,2.6c3.9-0.5,6.9-4.9,8-6.9c1.5,0,3-0.1,4.5-0.4l21.5,15l3.8,2.7c1.4,0.9,3.2,1,4.7,0.3c2.4-1.2,4.4-2.9,6.1-5
		L90.2,54.7z"/>
</g>
</svg>
