<svg width="110" height="110" xmlns="http://www.w3.org/2000/svg" x="0px" y="0px"
	 viewBox="0 0 110 110" style="enable-background:new 0 0 110 110;" xml:space="preserve">
<style type="text/css">
	.st0{fill:none;stroke:#000000;stroke-width:3;stroke-linecap:round;stroke-linejoin:round;stroke-miterlimit:10;}
	.st1{fill:none;}
	.st2{fill:#FFFFFF;}
</style>
<g>
	<path class="st0" d="M54.6,38.2"/>
	<g>
		<g>
			<path class="st1" d="M59.9,22.8c1.1,0.1,2.1,0.1,3.1,0.1c-0.2-0.3-0.3-0.6-0.5-0.9C61.6,22.3,60.8,22.5,59.9,22.8z"/>
			<path class="st1" d="M46,23.3c-0.5,1.2-0.8,2.4-0.8,3.8c0,5.2,4.2,9.4,9.4,9.4s9.4-4.2,9.4-9.4c0-0.5,0-0.9-0.1-1.4
				c-0.6,0-1.3,0.1-2,0.1C56.1,25.9,49.1,24.2,46,23.3z"/>
			<path class="st1" d="M67.5,21.8c0.5-0.4,0.8-0.8,0.9-1.4c0-0.1-0.1-1.2-1.7-1.9c-0.4,0.8-0.9,1.4-1.5,2c0.4,0.6,0.8,1.3,1.1,2
				C66.6,22.3,67.1,22.1,67.5,21.8z"/>
			<path d="M82.8,67.2c3.9-2.3,6.5-6.6,6.5-11.5c0-5.7-3.6-10.5-8.6-12.5c1.4-1.3,2.3-3.1,2.3-5.1c0-3.9-3.1-7-7-7s-7,3.1-7,7
				c0,2,0.8,3.8,2.2,5.1c-0.1,0-0.1,0-0.2,0.1c-2.6-2.5-5.7-4.3-9-5.3c-0.1,0-0.1,0-0.2-0.1c-0.2-0.1-0.4-0.1-0.6-0.2
				c3.5-2.2,5.8-6.1,5.8-10.5c0-0.6-0.1-1.2-0.2-1.9c-0.9,0.3-1.9,0.4-3,0.5c0.1,0.4,0.1,0.9,0.1,1.4c0,5.2-4.2,9.4-9.4,9.4
				s-9.4-4.2-9.4-9.4c0-1.4,0.3-2.6,0.8-3.8c-0.1,0-0.2,0-0.2-0.1c-1.1-0.1-1.9-0.2-2.3-0.3c-0.2,0-0.4-0.1-0.5-0.2
				c-0.5,1.3-0.8,2.8-0.8,4.3c0,4.4,2.3,8.3,5.8,10.5c-3.4,1-6.6,2.7-9.4,5.2c-0.1,0.1-0.1,0.1-0.2,0.2c-1.4-0.5-2.9-0.8-4.4-0.8
				c-6.1,0-11.2,4.1-12.9,9.6C21.1,52,21,52.1,21,52.3c-0.1,0.2-0.1,0.4,0,0.6c-0.2,0.9-0.3,1.8-0.3,2.8c0,4.9,2.6,9.1,6.5,11.5
				c-0.3,0.1-0.6,0.2-0.8,0.2c-0.4-0.1-0.8,0-1.1,0.3c-0.1,0.1-0.2,0.1-0.2,0.2C15,71.5,7.9,81.2,7.9,92.4v7.6
				c0,0.8,0.7,1.5,1.5,1.5s1.5-0.7,1.5-1.5v-7.6c0-9.9,6.2-18.3,14.9-21.6c1.3,1.3,4.1,3.3,8.4,3.3c4.8,0,7-1.9,8-3.3
				c4.4,1.7,8.3,4.7,11,8.7c-2.2,3.8-3.5,8.3-3.5,13v7.6c0,0.8,0.7,1.5,1.5,1.5s1.5-0.7,1.5-1.5v-7.6c0-4.4,1.2-8.6,3.4-12.1
				c0.1-0.1,0.1-0.2,0.2-0.3c4.1-6.5,11.4-10.8,19.6-10.8c12.8,0,23.2,10.4,23.2,23.2v7.6c0,0.8,0.7,1.5,1.5,1.5s1.5-0.7,1.5-1.5
				v-7.6C102.1,80.4,93.9,70.2,82.8,67.2z M76,34c2.2,0,4,1.8,4,4s-1.8,4-4,4s-4-1.8-4-4S73.8,34,76,34z M54.6,39.7
				c0.8,0,1.5,0.1,2.3,0.1l-2.3,1.1L52,39.9C52.8,39.8,53.7,39.7,54.6,39.7z M34.1,45.2c3.9,0,7.3,2.1,9.1,5.3
				c-1.5,0.1-4.1-0.2-6.8-2.9c-0.6-0.6-1.5-0.6-2.1,0c-3.8,3.5-7.6,4-9.7,3.9C26.1,47.8,29.8,45.2,34.1,45.2z M23.6,55.7
				c0-0.4,0-0.8,0.1-1.2c0.4,0,0.8,0.1,1.3,0.1c2.6,0,6.4-0.7,10.3-3.8c3.6,3,7,3.1,9,2.7c0.2,0.7,0.3,1.5,0.3,2.2
				c0,5.7-4.7,10.4-10.4,10.4C28.3,66.1,23.6,61.4,23.6,55.7z M34.2,71c-2.1,0-3.8-0.6-4.9-1.3c1.5-0.3,3.1-0.5,4.8-0.5
				c1.7,0,3.3,0.2,4.9,0.5C38.1,70.4,36.6,71,34.2,71z M55,76.7c-3.5-4.7-8.5-8.1-14-9.6c3.9-2.3,6.5-6.6,6.5-11.5
				c0-1.6-0.3-3.1-0.8-4.5c0-0.1,0-0.1-0.1-0.2c0,0,0,0,0,0c-1-2.7-2.9-4.9-5.2-6.5c1.7-1.4,3.6-2.5,5.6-3.3l7.2,2.8
				c0.2,0.1,0.4,0.1,0.6,0.1c0.2,0,0.5-0.1,0.7-0.2l6.1-3.1c2.4,0.8,4.7,2.1,6.7,3.8c-3.4,2.4-5.7,6.4-5.7,11
				c0,4.9,2.6,9.1,6.5,11.5C63.4,68.7,58.4,72.1,55,76.7z M65.5,55.7c0-3.1,1.3-5.8,3.4-7.7c-0.8,1.4-1.4,3.1-1.4,5.1
				c0,0.8,0.7,1.5,1.5,1.5s1.5-0.7,1.5-1.5c0-2.1,0.8-3.7,1.9-4.9c-0.3,1.6-0.4,3.5,0.3,5.7c0.2,0.6,0.8,1.1,1.4,1.1
				c0.1,0,0.3,0,0.4-0.1c0.8-0.2,1.2-1.1,1-1.9c-1-3.2,0.1-5.7,0.9-6.9c0.9,1.3,1.9,3.7,0.9,6.9c-0.2,0.8,0.2,1.6,1,1.9
				c0.1,0,0.3,0.1,0.4,0.1c0.6,0,1.2-0.4,1.4-1.1c0.5-1.7,0.6-3.2,0.5-4.5c0.6,1,1,2.2,1,3.7c0,0.8,0.7,1.5,1.5,1.5s1.5-0.7,1.5-1.5
				c0-1.4-0.3-2.7-0.7-3.8c1.4,1.8,2.2,4,2.2,6.4c0,5.7-4.7,10.4-10.4,10.4C70.2,66.1,65.5,61.4,65.5,55.7z"/>
			<g>
				<path class="st2" d="M68.2,64.7c-4.7,1.7-9.5,4.7-14.2,9.1c-0.6,0.6-0.6,1.5-0.1,2.1c0.6,0.6,1.5,0.6,2.1,0.1
					c1.2-1.2,2.5-2.2,3.7-3.2c1.1,3,5.8,16.6,3,27c-0.2,0.8,0.3,1.6,1.1,1.8c0.1,0,0.3,0.1,0.4,0.1c0.7,0,1.3-0.4,1.4-1.1
					C69,88,62.6,71.8,62.3,71.2c0,0,0-0.1,0-0.1c3.2-2.1,6.3-3.5,9.5-4.3C70.5,66.3,69.3,65.6,68.2,64.7z"/>
				<path class="st2" d="M98.9,75.2c-0.3-0.4-5.7-7.8-14.9-10.7c-1,0.9-2.1,1.7-3.4,2.2c3.7,0.7,6.9,2.4,9.4,4.2
					c-0.1,0.1-0.2,0.2-0.2,0.4c-0.3,0.7-6.7,16.9-3.3,29.5c0.2,0.7,0.8,1.1,1.4,1.1c0.1,0,0.3,0,0.4-0.1c0.8-0.2,1.3-1,1.1-1.8
					c-2.8-10.6,2.1-24.7,3.1-27.2c2.6,2.2,4,4.2,4,4.2c0.3,0.4,0.8,0.6,1.2,0.6c0.3,0,0.6-0.1,0.9-0.3
					C99.2,76.8,99.3,75.8,98.9,75.2z"/>
				<path class="st2" d="M63.9,25.8c1.1-0.1,2.1-0.2,3-0.5c0.9-0.2,1.6-0.6,2.3-1c1.3-0.9,2-2.1,2.1-3.7c0.1-1.5-0.8-4.4-5-5.4
					c-1.5-2.5-5.9-8-15.3-6.8c-3.6,0.7-10,4.3-8.7,13.3c0.1,0.5,0.4,0.9,0.8,1.1c0.2,0.1,0.3,0.2,0.5,0.2c0.4,0,1.2,0.2,2.3,0.3
					c0.1,0,0.2,0,0.2,0.1c3,0.8,10,2.5,15.9,2.5C62.6,25.9,63.3,25.8,63.9,25.8z M48.1,20.4c-0.6,0-1.2-0.1-1.7-0.1
					c-0.3-0.1-0.5-0.1-0.8-0.2c-0.2,0-0.3-0.1-0.4-0.1c0-0.3,0-0.6,0-0.8c0.2-6.3,5.5-7.7,6.4-7.9c7.5-0.9,11,3.3,12.1,5.2
					c0,0.2,0.1,0.5,0.2,0.7c-0.2,0.3-0.4,0.6-0.7,0.9c-0.7,0.6-1.7,1.1-2.9,1.5C56.9,20.6,52.1,20.7,48.1,20.4z M59.9,22.8
					c0.9-0.2,1.8-0.5,2.6-0.8c1-0.4,1.9-0.9,2.6-1.5c0.6-0.6,1.2-1.2,1.5-2c1.7,0.7,1.7,1.8,1.7,1.9c-0.1,0.6-0.3,1-0.9,1.4
					c-0.4,0.3-0.8,0.5-1.4,0.6c-0.9,0.2-1.9,0.4-3.1,0.4C62,22.9,61,22.8,59.9,22.8z"/>
			</g>
		</g>
	</g>
</g>
</svg>
