<svg width="110" height="110" xmlns="http://www.w3.org/2000/svg" x="0px" y="0px"
	 viewBox="0 0 110 110" style="enable-background:new 0 0 110 110;" xml:space="preserve">
<style type="text/css">
	.st0{fill:#1D1D1B;}
</style>
<g>
	<polygon class="st0" points="70.8,65.9 69.5,67.3 73.2,71 86,58.1 84.7,56.8 73.2,68.2 	"/>
	<rect x="26.7" y="48.6" class="st0" width="2" height="2"/>
	<rect x="35.7" y="48.6" class="st0" width="2" height="2"/>
	<rect x="44.8" y="48.6" class="st0" width="2" height="2"/>
	<rect x="54" y="48.6" class="st0" width="2" height="2"/>
	<rect x="63.1" y="48.6" class="st0" width="2" height="2"/>
	<rect x="72.2" y="48.6" class="st0" width="2" height="2"/>
	<rect x="81.3" y="48.6" class="st0" width="2" height="2"/>
	<rect x="26.7" y="57.8" class="st0" width="2" height="2"/>
	<rect x="35.7" y="57.8" class="st0" width="2" height="2"/>
	<rect x="44.8" y="57.8" class="st0" width="2" height="2"/>
	<rect x="54" y="57.8" class="st0" width="2" height="2"/>
	<rect x="26.7" y="66.8" class="st0" width="2" height="2"/>
	<rect x="35.7" y="66.8" class="st0" width="2" height="2"/>
	<rect x="44.8" y="66.8" class="st0" width="2" height="2"/>
	<rect x="54" y="66.8" class="st0" width="2" height="2"/>
	<rect x="26.7" y="76" class="st0" width="2" height="2"/>
	<rect x="35.7" y="76" class="st0" width="2" height="2"/>
	<rect x="44.8" y="76" class="st0" width="2" height="2"/>
	<rect x="26.7" y="85.1" class="st0" width="2" height="2"/>
	<rect x="35.7" y="85.1" class="st0" width="2" height="2"/>
	<rect x="44.8" y="85.1" class="st0" width="2" height="2"/>
	<rect x="54" y="76" class="st0" width="2" height="2"/>
	<path class="st0" d="M85.1,17.6v-7.3h-9.3v7.3H34v-7.3h-9.3v7.3H10.3v82.2h74.3l15.1-15.1v-67H85.1z M77.9,12.3h5.3v12.6h-5.3V12.3
		z M26.7,12.3h5.3v12.6h-5.3V12.3z M85.1,96.4V85.1h11.2L85.1,96.4z M97.7,83.2H83.2v14.6h-71V36h85.5L97.7,83.2L97.7,83.2z
		 M97.7,33.9H12.3V19.5h12.6v7.3H34v-7.3h41.8v7.3H85v-7.3h12.7L97.7,33.9L97.7,33.9z"/>
	<polygon class="st0" points="83.3,70.5 81.3,70.5 81.3,76 65.1,76 65.1,59.7 74.2,59.7 74.2,57.8 63.1,57.8 63.1,77.9 83.3,77.9
		"/>
</g>
</svg>
