<?xml version="1.0" encoding="utf-8"?>
<!-- Generator: Adobe Illustrator 25.1.0, SVG Export Plug-In . SVG Version: 6.00 Build 0)  -->
<svg version="1.0" id="Calque_1" xmlns="http://www.w3.org/2000/svg" xmlns:xlink="http://www.w3.org/1999/xlink" x="0px" y="0px"
	 viewBox="0 0 150 150" enable-background="new 0 0 150 150" xml:space="preserve">
<g>
	<path d="M95.8,88.4l0.3-0.4c5.3-7.1,8.1-15.4,8.1-24.1c0-22.3-18.1-40.4-40.4-40.4S23.4,41.6,23.4,63.8c0,22.3,18.1,40.4,40.4,40.4
		c8.8,0,17.2-2.8,24.1-8.1l0.4-0.3l30.8,30.8l7.4-7.4L95.8,88.4z M91,93.7l2.2-2.2l0.9-1l28.7,28.7l-3.6,3.6L90.5,94.1L91,93.7z
		 M101.5,63.8c0,20.8-16.9,37.6-37.6,37.6S26.2,84.6,26.2,63.8s16.9-37.6,37.6-37.6S101.5,43.1,101.5,63.8z"/>
</g>
</svg>
