<?xml version="1.0" encoding="utf-8"?>
<!-- Generator: Adobe Illustrator 27.5.0, SVG Export Plug-In . SVG Version: 6.00 Build 0)  -->
<svg version="1.1" id="Capa_1" xmlns="http://www.w3.org/2000/svg" xmlns:xlink="http://www.w3.org/1999/xlink" x="0px" y="0px"
	 viewBox="0 0 502.7 480" style="enable-background:new 0 0 502.7 480;" xml:space="preserve">
<style type="text/css">
	.st0{fill:#181716;}
</style>
<g id="Calque_9">
	<path class="st0" d="M178.7,142.5c7.7,15.6,31.1,1.9,23.3-13.7l0,0c-3.3-6.3-6.8-12.8-9.6-19.5c-2.4-5.2-3.1-10.9-1.6-16.3
		c1.8-7.5,6.8-12,10.9-18.1c11.5-17.2,8.6-40,8.6-59.7c0-17.5-27.2-17.5-27.2,0v24.9c0,3,0.2,6.1-0.1,9.2
		c-0.9,8.6-6.7,13.7-11.3,20.4c-10.9,15.9-10.8,36.2-2.7,53.3C172.2,129.5,175.6,135.9,178.7,142.5L178.7,142.5z"/>
	<path class="st0" d="M242.9,142.5c7.7,15.6,31.1,1.9,23.3-13.7l0,0c-3.3-6.3-6.8-12.8-9.6-19.5c-2.4-5.2-3-10.9-1.6-16.3
		c1.8-7.5,6.8-12,10.9-18.1c11.5-17.2,8.6-40,8.6-59.7c0-17.5-27.2-17.5-27.2,0v24.9c0,3,0.2,6.1-0.1,9.2
		c-0.9,8.6-6.7,13.7-11.3,20.4c-10.9,15.9-10.8,36.2-2.7,53.3C236.3,129.5,239.7,135.9,242.9,142.5L242.9,142.5z"/>
	<path class="st0" d="M309.2,143.4c7.7,15.6,31.1,1.8,23.3-13.7l0,0c-3.3-6.3-6.8-12.8-9.6-19.5c-2.4-5.2-3-10.9-1.6-16.3
		c1.8-7.5,6.8-12,10.9-18.1c11.5-17.2,8.6-40,8.6-59.7c0-17.5-27.2-17.5-27.2,0V41c0,3,0.2,6.1-0.1,9.2c-0.9,8.6-6.7,13.7-11.3,20.4
		c-10.9,15.9-10.8,36.2-2.7,53.3C302.6,130.4,306,136.9,309.2,143.4L309.2,143.4z"/>
	<path class="st0" d="M388.5,355.7c6.1,1.9,12.9,2.7,19.8,2.7c36.8,0,67.3-28.1,67.3-62.8s-30-62.8-67.3-62.8c-2.2,0-4.6,0-6.8,0.4
		c-1.5-27.8-5.3-46.8-5.3-46.8H109c0,0-27.3,145.7,36.4,216.3H362c11.7-13.5,20.4-29.6,26.6-47.2L388.5,355.7L388.5,355.7z
		 M402.2,255.7c1.9-0.4,3.8-0.7,5.8-0.7c23.9,0,43.3,18.3,43.3,40.7s-19.4,40.7-43.3,40.7c-4.6,0-9.1-0.7-13.3-2.2
		c6.1-26.6,7.6-54,7.6-78.4L402.2,255.7L402.2,255.7z"/>
	<path class="st0" d="M4.2,421.1c-3.5-0.7,1.1,60.9,241.7,56.3h8.3c240.6,4.6,245.2-56.3,245.2-56.3H4.2z"/>
</g>
</svg>
