<?xml version="1.0" encoding="UTF-8"?><svg id="ds44-icons" xmlns="http://www.w3.org/2000/svg" viewBox="0 0 504.64 480"><path d="m252.32,327.9c-24.88,0-45.07,20.19-45.07,45.06s20.19,45.06,45.07,45.06,45.07-20.19,45.07-45.06-20.19-45.06-45.07-45.06Zm241.46-157.56c-60.27-71.71-148.28-112.83-241.46-112.83S71.14,98.62,10.86,170.34c-8.01,9.52-6.78,23.73,2.76,31.74,4.22,3.54,9.34,5.29,14.47,5.29,6.43,0,12.81-2.73,17.27-8.04,51.68-61.48,127.12-96.75,206.96-96.75s155.28,35.27,206.96,96.74c4.46,5.3,10.85,8.04,17.28,8.04,5.12,0,10.26-1.73,14.48-5.29,9.52-7.99,10.76-22.22,2.75-31.73Zm-241.46-22.7c-66.56,0-129.41,29.37-172.47,80.58-8.01,9.52-6.78,23.73,2.76,31.74,4.22,3.54,9.36,5.29,14.48,5.29,6.43,0,12.81-2.73,17.26-8.04,34.44-40.99,84.74-64.5,137.96-64.5s103.52,23.51,137.98,64.5c4.46,5.32,10.85,8.04,17.26,8.04,5.12,0,10.26-1.73,14.48-5.29,9.54-8.01,10.77-22.23,2.76-31.74-43.07-51.21-105.92-80.58-172.48-80.58Zm0,90.13c-39.96,0-77.68,17.62-103.49,48.34-8.01,9.52-6.78,23.73,2.76,31.74,4.22,3.54,9.36,5.29,14.48,5.29,6.43,0,12.81-2.73,17.26-8.04,17.23-20.5,42.38-32.27,68.98-32.27s51.75,11.76,68.98,32.27c4.46,5.32,10.85,8.04,17.26,8.04,5.12,0,10.26-1.73,14.48-5.29,9.54-8.01,10.77-22.22,2.76-31.74-25.81-30.72-63.53-48.34-103.49-48.34Z"/></svg>