<svg width="110" height="110" version="1.1" id="ds44-icons" xmlns="http://www.w3.org/2000/svg" xmlns:xlink="http://www.w3.org/1999/xlink" x="0px" y="0px"
	 viewBox="0 0 110 110" style="enable-background:new 0 0 110 110;" xml:space="preserve">
<style type="text/css">
	.st0{fill:#181716;}
</style>
<g id="Calque_9">
	<path class="st0" d="M42.4,38.2c1.3,2.7,5.4,0.3,4-2.4l0,0c-0.6-1.1-1.2-2.2-1.7-3.4c-0.4-0.9-0.5-1.9-0.3-2.8
		c0.3-1.3,1.2-2.1,1.9-3.1c2-3,1.5-6.9,1.5-10.3c0-3-4.7-3-4.7,0v4.3c0,0.5,0,1.1,0,1.6c-0.2,1.5-1.2,2.4-1.9,3.5
		c-1.9,2.7-1.9,6.2-0.5,9.2C41.3,36,41.9,37.1,42.4,38.2L42.4,38.2z"/>
	<path class="st0" d="M53.5,38.2c1.3,2.7,5.4,0.3,4-2.4l0,0c-0.6-1.1-1.2-2.2-1.7-3.4c-0.4-0.9-0.5-1.9-0.3-2.8
		c0.3-1.3,1.2-2.1,1.9-3.1c2-3,1.5-6.9,1.5-10.3c0-3-4.7-3-4.7,0v4.3c0,0.5,0,1.1,0,1.6c-0.2,1.5-1.2,2.4-1.9,3.5
		c-1.9,2.7-1.9,6.2-0.5,9.2C52.4,36,53,37.1,53.5,38.2L53.5,38.2z"/>
	<path class="st0" d="M64.9,38.4c1.3,2.7,5.4,0.3,4-2.4l0,0c-0.6-1.1-1.2-2.2-1.7-3.4c-0.4-0.9-0.5-1.9-0.3-2.8
		c0.3-1.3,1.2-2.1,1.9-3.1c2-3,1.5-6.9,1.5-10.3c0-3-4.7-3-4.7,0v4.3c0,0.5,0,1.1,0,1.6c-0.2,1.5-1.2,2.4-1.9,3.5
		c-1.9,2.7-1.9,6.2-0.5,9.2C63.8,36.1,64.4,37.2,64.9,38.4L64.9,38.4z"/>
	<path class="st0" d="M78.6,75c1.1,0.3,2.2,0.5,3.4,0.5c6.3,0,11.6-4.8,11.6-10.8S88.5,53.8,82,53.8c-0.4,0-0.8,0-1.2,0.1
		c-0.3-4.8-0.9-8.1-0.9-8.1H30.4c0,0-4.7,25.1,6.3,37.3h37.3C76.1,80.7,77.6,78,78.6,75L78.6,75L78.6,75z M81,57.7
		c0.3-0.1,0.7-0.1,1-0.1c4.1,0,7.5,3.2,7.5,7c0,3.9-3.3,7-7.5,7c-0.8,0-1.6-0.1-2.3-0.4C80.7,66.7,81,62,81,57.7L81,57.7L81,57.7z"
		/>
	<path class="st0" d="M12.4,86.2C11.8,86.1,12.5,96.8,54,96h1.4c41.5,0.8,42.3-9.7,42.3-9.7H12.4z"/>
</g>
</svg>
