<?xml version="1.0" encoding="utf-8"?>
<!-- Generator: Adobe Illustrator 28.3.0, SVG Export Plug-In . SVG Version: 6.00 Build 0)  -->
<svg version="1.1" id="ds44-icons" xmlns="http://www.w3.org/2000/svg" xmlns:xlink="http://www.w3.org/1999/xlink" x="0px" y="0px"
	 viewBox="0 0 110 110" style="enable-background:new 0 0 110 110;" xml:space="preserve">
<style type="text/css">
	.st0{fill:#181716;}
</style>
<g id="Calque_9">
	<path class="st0" d="M29.7,12.5v84.9c0,1.7,1.4,3.1,3.1,3.1h44.4c1.7,0,3.1-1.4,3.1-3.1V12.5c0-1.7-1.4-3.1-3.1-3.1H32.8
		C31.1,9.4,29.7,10.8,29.7,12.5L29.7,12.5z M55.6,98.5c-2.1,0.4-3.9-1.4-3.5-3.5c0.2-1.2,1.2-2.1,2.4-2.4c2.1-0.4,3.9,1.4,3.5,3.5
		C57.7,97.4,56.8,98.3,55.6,98.5z M73.4,88.8H36.6c-0.6,0-1-0.4-1-1V20.2c0-0.5,0.5-1,1-1h36.7c0.6,0,1,0.4,1,1v67.7
		C74.3,88.4,73.8,88.8,73.4,88.8L73.4,88.8L73.4,88.8z M47.9,14c0,0.8-0.7,1.5-1.5,1.5s-1.5-0.7-1.5-1.5s0.7-1.5,1.5-1.5
		S47.9,13.2,47.9,14z M66.1,14L66.1,14c0,0.8-0.7,1.5-1.5,1.5H51.4c-0.8,0-1.5-0.7-1.5-1.5l0,0c0-0.8,0.7-1.5,1.5-1.5h13.2
		C65.4,12.5,66.1,13.2,66.1,14z"/>
</g>
</svg>
