<?xml version="1.0" encoding="utf-8"?>
<!-- Generator: Adobe Illustrator 28.3.0, SVG Export Plug-In . SVG Version: 6.00 Build 0)  -->
<svg version="1.1" id="ds44-icons" xmlns="http://www.w3.org/2000/svg" xmlns:xlink="http://www.w3.org/1999/xlink" x="0px" y="0px"
	 viewBox="0 0 110 110" style="enable-background:new 0 0 110 110;" xml:space="preserve">
<style type="text/css">
	.st0{fill:#181716;}
</style>
<g id="Calque_9_00000101088372767161460760000008929352354148640917_">
	<path class="st0" d="M104.1,73.5c0-0.2-0.3-5-4.6-7L57.8,47.4v-4.2c0-1.6-1.3-2.8-2.8-2.8c-2.2,0-4-1.8-4-4c0-2.2,1.8-4,4-4
		s4,1.8,4,4c0,1.6,1.3,2.8,2.8,2.8c1.6,0,2.8-1.3,2.8-2.8c0-5.3-4.3-9.6-9.6-9.6c-2.6,0-5,1-6.8,2.8c-1.8,1.8-2.8,4.2-2.8,6.8
		c0,4.2,2.8,7.9,6.8,9.1v1.8L10.6,66.5c-4.4,2-4.7,6.8-4.7,7.1c0,5.3,4.3,9.5,9.6,9.5h79c5.3,0,9.6-4.3,9.6-9.6L104.1,73.5
		L104.1,73.5L104.1,73.5z M94.5,77.5h-79c-2.2,0-4-1.8-4-3.8c0-0.2,0.2-1.6,1.4-2.2L55,52.2l42.1,19.3c1.2,0.6,1.4,2,1.4,2.1
		C98.5,75.8,96.7,77.5,94.5,77.5L94.5,77.5L94.5,77.5z"/>
</g>
</svg>
