<?xml version="1.0" encoding="utf-8"?>
<!-- Generator: Adobe Illustrator 28.3.0, SVG Export Plug-In . SVG Version: 6.00 Build 0)  -->
<svg version="1.1" id="ds44-icons" xmlns="http://www.w3.org/2000/svg" xmlns:xlink="http://www.w3.org/1999/xlink" x="0px" y="0px"
	 viewBox="0 0 110 110" style="enable-background:new 0 0 110 110;" xml:space="preserve">
<g>
	<path d="M59.2,59.4h-8v8.1h8V59.4z"/>
	<path d="M13,89.5h84.5c1.1,0,2-0.9,2-2V47.3c0-0.2,0-0.3-0.1-0.5c-0.1-0.6-0.6-1.1-1.2-1.4l-0.4-0.1H13c-1.1,0-2,0.9-2,2v12.1
		c0,1.1,0.9,2,2,2c3.3,0,6,2.7,6,6s-2.7,6-6,6c-1.1,0-2,0.9-2,2v12.1C11,88.6,11.9,89.5,13,89.5 M69.3,57.4h16.1c1.1,0,2,0.9,2,2
		s-0.9,2-2,2H69.3c-1.1,0-2-0.9-2-2C67.3,58.3,68.2,57.4,69.3,57.4L69.3,57.4z M69.3,65.5h12.1c1.1,0,2,0.9,2,2c0,1.1-0.9,2-2,2
		H69.3c-1.1,0-2-0.9-2-2C67.3,66.4,68.2,65.5,69.3,65.5z M47.2,57.4c0-1.1,0.9-2,2-2h12.1c1.1,0,2,0.9,2,2v12.1c0,1.1-0.9,2-2,2
		H49.2c-1.1,0-2-0.9-2-2V57.4z M35.1,53.4c0-1.1,0.9-2,2-2c1.1,0,2,0.9,2,2v4c0,1.1-0.9,2-2,2c-1.1,0-2-0.9-2-2V53.4L35.1,53.4z
		 M35.1,65.5c0-1.1,0.9-2,2-2c1.1,0,2,0.9,2,2v4c0,1.1-0.9,2-2,2c-1.1,0-2-0.9-2-2V65.5z M35.1,77.5c0-1.1,0.9-2,2-2
		c1.1,0,2,0.9,2,2v4c0,1.1-0.9,2-2,2c-1.1,0-2-0.9-2-2V77.5L35.1,77.5z"/>
	<path d="M28.5,36.3c2.2,0.7,3.6,2.8,3.8,4.9h54.8l-53-20c-1-0.4-2.2,0.1-2.6,1.2l-4.2,11.3C26.9,34.7,27.5,36,28.5,36.3"/>
</g>
</svg>
