<svg width="110" height="110" xmlns="http://www.w3.org/2000/svg" x="0px" y="0px"
	 viewBox="0 0 110 110" style="enable-background:new 0 0 110 110;" xml:space="preserve">
<style type="text/css">
	.st0{fill:#FFFFFF;}
</style>
<g>
	<path d="M93.9,92.5c-0.8,0-1.5-0.7-1.5-1.5V18.7h-36v13c0,0.8-0.7,1.5-1.5,1.5s-1.5-0.7-1.5-1.5V17.2c0-0.8,0.7-1.5,1.5-1.5h39
		c0.8,0,1.5,0.7,1.5,1.5V91C95.4,91.9,94.7,92.5,93.9,92.5z"/>
	<path d="M71.3,34.8h-7.7c-0.8,0-1.5-0.7-1.5-1.5v-7.7c0-0.8,0.7-1.5,1.5-1.5h7.7c0.8,0,1.5,0.7,1.5,1.5v7.7
		C72.8,34.2,72.1,34.8,71.3,34.8z M65,31.8h4.7v-4.7H65V31.8z"/>
	<path d="M85.2,34.8h-7.7c-0.8,0-1.5-0.7-1.5-1.5v-7.7c0-0.8,0.7-1.5,1.5-1.5h7.7c0.8,0,1.5,0.7,1.5,1.5v7.7
		C86.7,34.2,86.1,34.8,85.2,34.8z M79,31.8h4.7v-4.7H79V31.8z"/>
	<path d="M71.3,49.9h-7.7c-0.8,0-1.5-0.7-1.5-1.5v-7.7c0-0.8,0.7-1.5,1.5-1.5h7.7c0.8,0,1.5,0.7,1.5,1.5v7.7
		C72.8,49.2,72.1,49.9,71.3,49.9z M65,46.9h4.7v-4.7H65V46.9z"/>
	<path d="M85.2,49.9h-7.7c-0.8,0-1.5-0.7-1.5-1.5v-7.7c0-0.8,0.7-1.5,1.5-1.5h7.7c0.8,0,1.5,0.7,1.5,1.5v7.7
		C86.7,49.2,86.1,49.9,85.2,49.9z M79,46.9h4.7v-4.7H79V46.9z"/>
	<path d="M71.4,64.2h-7.7c-0.8,0-1.5-0.7-1.5-1.5V55c0-0.8,0.7-1.5,1.5-1.5h7.7c0.8,0,1.5,0.7,1.5,1.5v7.7
		C72.9,63.6,72.2,64.2,71.4,64.2z M65.1,61.2h4.7v-4.7h-4.7V61.2z"/>
	<path d="M85.3,64.2h-7.7c-0.8,0-1.5-0.7-1.5-1.5V55c0-0.8,0.7-1.5,1.5-1.5h7.7c0.8,0,1.5,0.7,1.5,1.5v7.7
		C86.8,63.6,86.1,64.2,85.3,64.2z M79.1,61.2h4.7v-4.7h-4.7V61.2z"/>
	<path d="M71.4,79.3h-7.7c-0.8,0-1.5-0.7-1.5-1.5v-7.7c0-0.8,0.7-1.5,1.5-1.5h7.7c0.8,0,1.5,0.7,1.5,1.5v7.7
		C72.9,78.6,72.2,79.3,71.4,79.3z M65.1,76.3h4.7v-4.7h-4.7V76.3z"/>
	<path d="M85.3,79.3h-7.7c-0.8,0-1.5-0.7-1.5-1.5v-7.7c0-0.8,0.7-1.5,1.5-1.5h7.7c0.8,0,1.5,0.7,1.5,1.5v7.7
		C86.8,78.6,86.1,79.3,85.3,79.3z M79.1,76.3h4.7v-4.7h-4.7V76.3z"/>
	<path class="st0" d="M107.4,91.3H56.5c0,0,0,0,0,0V31.8c0-0.8-0.7-1.5-1.5-1.5H17.2c-0.8,0-1.5,0.7-1.5,1.5v59.5c0,0,0,0,0,0H2.6
		c-0.8,0-1.5,0.7-1.5,1.5s0.7,1.5,1.5,1.5h104.7c0.8,0,1.5-0.7,1.5-1.5S108.2,91.3,107.4,91.3z M18.7,91.3v-58h34.8v58c0,0,0,0,0,0
		L18.7,91.3C18.7,91.3,18.7,91.3,18.7,91.3z"/>
	<path class="st0" d="M48.7,81H23.5c-0.8,0-1.5-0.7-1.5-1.5v-41c0-0.8,0.7-1.5,1.5-1.5h25.2c0.8,0,1.5,0.7,1.5,1.5v41
		C50.2,80.3,49.6,81,48.7,81z M25,78h22.2v-38H25V78z"/>
	<path class="st0" d="M36.1,88.6c-1.1,0-1.9-0.9-1.9-1.9s0.9-1.9,1.9-1.9c1.1,0,1.9,0.9,1.9,1.9S37.2,88.6,36.1,88.6z M36.1,85.8
		c-0.5,0-0.9,0.4-0.9,0.9s0.4,0.9,0.9,0.9c0.5,0,0.9-0.4,0.9-0.9S36.6,85.8,36.1,85.8z"/>
</g>
</svg>
