<svg width="110" height="110" xmlns="http://www.w3.org/2000/svg" x="0px" y="0px"
	 viewBox="0 0 110 110" style="enable-background:new 0 0 110 110;" xml:space="preserve">
<g>
	<path d="M21.5,58.1c0,0.3,0,0.7,0,1.2c0,3.4,0,6.7,0,10.1c0,1.4,0.4,2.5,1.7,3c2.6,1.2,5.3,2.4,8,3.2c5.3,1.4,10.7,1.9,16.1,2
		c0.2,0,0.5-0.1,0.6,0c0.4,0.3,0.7,0.6,1.1,0.9c-0.3,0.2-0.7,0.7-1.1,0.7c-1.3,0-2.5,0-3.7-0.1c-5.5-0.3-11-0.9-16.3-2.7
		c-2.1-0.7-4.1-1.8-6.3-2.7c0,0.3-0.1,0.8-0.1,1.3c0,4.3,0.1,8.5,0,12.8c-0.1,1.9,0.6,3.3,2.3,4c2.8,1.2,5.8,2.4,8.8,2.9
		c4.8,0.8,9.7,1.2,14.5,1.7c0.3,0,0.6-0.1,0.9,0.1c0.3,0.2,0.6,0.5,0.9,0.8c-0.3,0.2-0.7,0.7-1.1,0.7c-7.1-0.3-14.2-0.7-21-3.2
		c-1.9-0.7-3.7-1.8-5.5-2.9c-1.3-0.7-1.6-2.1-1.6-3.6c0-22.3,0-44.5,0-66.8c0-1.9,0.6-3.4,2.2-4.2c1.8-1.1,3.8-2,5.8-2.6
		c6.2-2,12.7-2.6,19.2-2.8c8.3-0.3,16.6,0.1,24.8,2c2.6,0.6,5.2,1.6,7.7,2.6s3.8,2.9,3.7,6c-0.2,4.7-0.1,9.6-0.1,14.3
		c0,0.3,0.1,0.6,0,0.9c-0.2,0.4-0.5,0.8-0.8,1.3c-0.3-0.4-0.7-0.8-0.8-1.3c-0.1-2.7,0-5.5,0-8.3c0-1.7,0-3.5,0-5.3
		c-6.2,3.8-13,4.6-19.9,5.4C53,30.5,44.5,30.3,36,29c-5-0.7-10-1.8-14.5-4.6c0,0.5-0.1,0.9-0.1,1.3c0,4,0,8,0,12
		c0,1.2,0.3,2.2,1.4,2.7c1.7,0.9,3.5,1.9,5.3,2.5c6.5,2.1,13.4,2.7,20.1,2.9c2,0.1,4,0,6,0c0.6,0,1.6-0.1,1.5,0.8
		c0,0.3-0.8,0.7-1.4,0.7c-8.1,0.2-16.1-0.2-24-2.2c-2.9-0.7-5.9-2-8.8-3c0,0.2,0,0.6,0,1.1c0,3.4,0.1,6.7,0,10.1
		c-0.1,1.9,0.7,3.2,2.3,3.8c2.8,1.2,5.8,2.4,8.8,2.9c4.7,0.8,9.6,1.2,14.4,1.8c0.7,0.1,2-0.4,1.9,0.9c-0.1,1.3-1.3,0.7-2,0.7
		C40.8,63.3,34.8,62.8,29,61C26.4,60.4,24,59.2,21.5,58.1z M50.2,13.6c-1.9,0.1-5,0.2-8.2,0.4c-5.3,0.4-10.4,1.2-15.3,3
		c-1.5,0.5-2.8,1.3-4.1,2.2c-1.5,1.1-1.5,2.4-0.1,3.6c0.7,0.6,1.5,1.2,2.3,1.5c1.9,0.7,3.7,1.5,5.7,2c10.9,2.6,22.1,2.8,33.1,1.5
		c4.3-0.5,8.5-1.7,12.7-2.8c1.5-0.4,2.9-1.5,4.2-2.4c1.2-0.9,1.1-1.9,0-2.9c-0.5-0.5-1.3-1.1-2-1.4c-1.9-0.8-3.9-1.6-5.9-2.2
		C65.8,14.1,58.6,13.7,50.2,13.6z"/>
	<path d="M59.7,58.9c-0.3-0.6-0.4-1.2-0.6-1.6c-2.7-6.8,0.6-14.7,7.4-17.6c6.8-2.8,14.8,0.4,17.7,7.1c0.1,0.3,0.4,0.6,0.3,0.9
		c0,0.3-0.3,0.7-0.5,0.9c-0.2,0.1-0.7-0.1-0.8-0.3c-0.3-0.4-0.4-0.9-0.7-1.5c-2.9-6-10.2-8.3-16.1-5.4c-5.8,2.9-8.2,10.2-5.2,16
		c0.4,0.8,0.9,1.2,2,1.2c8.4,0,16.7,0,25.1,0c1.8,0,1.9,0.1,1.9,1.9c0,11,0,22.2,0,33.2c0,1.7-0.1,1.8-1.7,1.8c-11,0-22.2,0-33.2,0
		c-1.8,0-1.8-0.1-1.8-1.8c0-11,0-22.2,0-33.2c0-1.7,0.1-1.8,1.8-1.8C56.5,58.9,58,58.9,59.7,58.9z M88.3,60.7c-11.1,0-22.2,0-33.2,0
		c0,11.1,0,22.2,0,33.3c11.1,0,22.1,0,33.2,0C88.3,82.9,88.3,71.7,88.3,60.7z"/>
	<path d="M71.7,67.4c2.8,0,5.3,1.7,6.3,4.3c0.9,2.6,0.3,5.6-1.9,7.4c-0.6,0.5-0.9,1.1-0.8,1.9c0.1,1.3,0,2.5,0,3.8
		c-0.1,2.1-1.5,3.6-3.5,3.6c-2,0-3.6-1.5-3.6-3.7c0-0.5,0-1.1,0-1.6c0.1-1.9-0.1-3.5-1.7-4.9c-1.9-1.9-2-4.5-0.8-6.9
		C66.7,68.8,68.9,67.4,71.7,67.4z M69.8,82.2c0,0.6,0,1.4,0,2c0,1.7,0.7,2.5,1.9,2.5c1.2,0,1.8-0.8,1.8-2.4c0-1.3,0-2.6,0-3.9
		c0-1.1,0.2-1.7,1.2-2.3c2.4-1.7,2.7-5.2,0.7-7.4c-1.9-2.2-5.4-2.2-7.4-0.1c-2.1,2.1-1.9,5.6,0.5,7.4c1.1,0.7,1.4,1.6,1.3,2.8
		C69.8,81.3,69.8,81.7,69.8,82.2z"/>
</g>
</svg>
