<svg width="110" height="110" version="1.1" id="ds44-icons" xmlns="http://www.w3.org/2000/svg" xmlns:xlink="http://www.w3.org/1999/xlink" x="0px" y="0px"
	 viewBox="0 0 110 110" style="enable-background:new 0 0 110 110;" xml:space="preserve">
<g>
	<circle cx="30.6" cy="68.8" r="3.9"/>
	<circle cx="79.1" cy="68.8" r="3.9"/>
	<path d="M96.6,27.6c0,0-0.1,0-0.1,0C95.4,17.6,86.9,9.9,76.8,9.9H33.2c-10.1,0-18.6,7.6-19.8,17.7c0,0-0.1,0-0.1,0
		c-2.2,0-4,1.8-4,4c0,0,0,0,0,0v18.6c0,2.2,1.8,4,4,4v26.1c0,2.2,1.8,4,4,4c0,0,0,0,0,0h3.7v9.1c0,3.7,3,6.7,6.7,6.7l0,0
		c3.7,0,6.7-3,6.7-6.7c0,0,0,0,0,0v-9.1h40.7v9.1c0,3.7,3,6.7,6.7,6.7c3.7,0,6.7-3,6.7-6.7v-9.1h4c2.2,0,4-1.8,4-4c0,0,0,0,0,0V54.2
		c2.2,0,4-1.8,4-4V31.6C100.6,29.4,98.8,27.6,96.6,27.6C96.6,27.6,96.6,27.6,96.6,27.6z M88.6,52.2c-2.1-8.4-10.6-13.4-19-11.3
		c-5.6,1.4-9.9,5.8-11.3,11.3H21.4V35.6h67.3L88.6,52.2L88.6,52.2z M80,52.2H66.8c2.1-3.6,6.8-4.9,10.4-2.8
		C78.4,50.1,79.4,51,80,52.2L80,52.2z M33.2,17.9h43.5c5.7,0,10.6,4.1,11.7,9.7H21.6C22.6,22,27.5,17.9,33.2,17.9z M21.4,76.3V60.2
		h67.3v16.1H21.4z"/>
</g>
</svg>
