<?xml version="1.0" encoding="utf-8"?>
<!-- Generator: Adobe Illustrator 27.5.0, SVG Export Plug-In . SVG Version: 6.00 Build 0)  -->
<svg version="1.1" id="Capa_1" xmlns="http://www.w3.org/2000/svg" xmlns:xlink="http://www.w3.org/1999/xlink" x="0px" y="0px"
	 viewBox="0 0 334 368" style="enable-background:new 0 0 334 368;" xml:space="preserve">
<style type="text/css">
	.st0{fill:#181716;}
</style>
<g id="Calque_9">
	<path class="st0" d="M3,102.4v43c0,10.9,8.9,19.8,19.8,19.8h132.1V82.6H22.8C11.9,82.6,3,91.5,3,102.4L3,102.4L3,102.4z"/>
	<path class="st0" d="M311.2,82.6H179.1v82.7h132.1c10.9,0,19.8-8.9,19.8-19.8v-43C331,91.5,322.1,82.6,311.2,82.6L311.2,82.6
		L311.2,82.6z"/>
	<path class="st0" d="M21.4,351.2c0,7.1,5.8,12.9,12.9,12.9h120.6V179.9H21.4V351.2L21.4,351.2L21.4,351.2z"/>
	<path class="st0" d="M179.1,364.1h120.6c7.1,0,12.9-5.8,12.9-12.9V179.8H179.1L179.1,364.1L179.1,364.1z"/>
	<path class="st0" d="M82.4,68.6c4.2,2.3,12.6,5.4,37.9,5.4c14,0,26.3-0.9,26.8-1c2.8-0.2,5.3-1.8,6.7-4.2s1.4-5.4,0.2-7.9
		c-3.8-7.5-23.6-44.8-37.8-52.7c-5.1-3-10.9-4.5-16.8-4.5c-12.6,0-24.2,6.8-30.3,17.8C59.7,38.2,65.7,59.3,82.4,68.6L82.4,68.6
		L82.4,68.6z M83.7,29.6c3.1-5.7,9.2-9.2,15.7-9.2c3.1,0,6,0.8,8.7,2.3c5.2,2.9,15.8,18.4,24.8,34.3c-3.7,0.2-8.1,0.2-12.5,0.2
		c-22.2,0-28.4-2.5-29.8-3.3C82.1,49.2,79,38.3,83.7,29.6L83.7,29.6L83.7,29.6L83.7,29.6z"/>
	<path class="st0" d="M186.8,73c0.5,0,12.9,1,26.8,1c25.4,0,33.7-3.1,37.9-5.4c16.7-9.3,22.7-30.4,13.4-47.1
		c-6.1-10.9-17.7-17.8-30.3-17.8c-5.9,0-11.7,1.5-16.9,4.4c-14.2,7.9-34,45.4-37.8,52.7c-1.3,2.5-1.3,5.4,0.2,7.9
		C181.5,71.1,184,72.7,186.8,73L186.8,73L186.8,73L186.8,73z M226,22.6c2.6-1.5,5.7-2.3,8.7-2.3c6.5,0,12.5,3.6,15.7,9.2
		c4.8,8.7,1.7,19.6-6.9,24.3c-1.4,0.8-7.6,3.3-29.8,3.3c-4.4,0-8.7-0.1-12.5-0.2C210.3,41,220.9,25.4,226,22.6L226,22.6L226,22.6
		L226,22.6z"/>
</g>
</svg>
