<svg width="110" height="110" xmlns="http://www.w3.org/2000/svg" x="0px" y="0px"
	 viewBox="0 0 110 110" style="enable-background:new 0 0 110 110;" xml:space="preserve">
<path d="M23.2,57.7c0,0.3,0,0.7,0,1.1c0,3.2,0,6.4,0,9.6c0,1.3,0.4,2.4,1.6,2.9c2.5,1.1,5,2.3,7.6,3c5,1.3,10.2,1.8,15.3,1.9
	c0.2,0,0.5-0.1,0.6,0c0.4,0.3,0.7,0.6,1,0.9c-0.3,0.2-0.7,0.7-1,0.7c-1.2,0-2.4,0-3.5-0.1c-5.2-0.3-10.5-0.9-15.5-2.6
	c-2-0.7-3.9-1.7-6-2.6c0,0.3-0.1,0.8-0.1,1.2c0,4.1,0.1,8.1,0,12.2c-0.1,1.8,0.6,3.1,2.2,3.8c2.7,1.1,5.5,2.3,8.4,2.8
	c4.6,0.8,9.2,1.1,13.8,1.6c0.3,0,0.6-0.1,0.9,0.1c0.3,0.2,0.6,0.5,0.9,0.8c-0.3,0.2-0.7,0.7-1,0.7c-6.8-0.3-13.5-0.7-20-3
	c-1.8-0.7-3.5-1.7-5.2-2.8c-1.2-0.7-1.5-2-1.5-3.4c0-21.2,0-42.3,0-63.5c0-1.8,0.6-3.2,2.1-4c1.7-1,3.6-1.9,5.5-2.5
	c5.9-1.9,12.1-2.5,18.3-2.7c7.9-0.3,15.8,0.1,23.6,1.9c2.5,0.6,4.9,1.5,7.3,2.5s3.6,2.8,3.5,5.7c-0.2,4.5-0.1,9.1-0.1,13.6
	c0,0.3,0.1,0.6,0,0.9c-0.2,0.4-0.5,0.8-0.8,1.2c-0.3-0.4-0.7-0.8-0.8-1.2c-0.1-2.6,0-5.2,0-7.9c0-1.6,0-3.3,0-5
	c-5.9,3.6-12.4,4.4-18.9,5.1C53.1,31.4,45.1,31.2,37,30c-4.8-0.7-9.5-1.7-13.8-4.4c0,0.5-0.1,0.9-0.1,1.2c0,3.8,0,7.6,0,11.4
	c0,1.1,0.3,2.1,1.3,2.6c1.6,0.9,3.3,1.8,5,2.4c6.2,2,12.7,2.6,19.1,2.8c1.9,0.1,3.8,0,5.7,0c0.6,0,1.5-0.1,1.4,0.8
	c0,0.3-0.8,0.7-1.3,0.7c-7.7,0.2-15.3-0.2-22.8-2.1c-2.8-0.7-5.6-1.9-8.4-2.9c0,0.2,0,0.6,0,1c0,3.2,0.1,6.4,0,9.6
	c-0.1,1.8,0.7,3,2.2,3.6c2.7,1.1,5.5,2.3,8.4,2.8c4.5,0.8,9.1,1.1,13.7,1.7c0.7,0.1,1.9-0.4,1.8,0.9c-0.1,1.2-1.2,0.7-1.9,0.7
	c-5.8-0.2-11.5-0.7-17-2.4C27.8,59.8,25.6,58.7,23.2,57.7z M50.5,15.3c-1.8,0.1-4.8,0.2-7.8,0.4c-5,0.4-9.9,1.1-14.6,2.9
	c-1.4,0.5-2.7,1.2-3.9,2.1c-1.4,1-1.4,2.3-0.1,3.4c0.7,0.6,1.4,1.1,2.2,1.4c1.8,0.7,3.5,1.4,5.4,1.9c10.4,2.5,21,2.7,31.5,1.4
	c4.1-0.5,8.1-1.6,12.1-2.7c1.4-0.4,2.8-1.4,4-2.3c1.1-0.9,1-1.8,0-2.8c-0.5-0.5-1.2-1-1.9-1.3c-1.8-0.8-3.7-1.5-5.6-2.1
	C65.3,15.8,58.5,15.4,50.5,15.3z"/>
<path d="M59.5,58.4c-0.3-0.6-0.4-1.1-0.6-1.5c-2.6-6.5,0.6-14,7-16.7c6.5-2.7,14.1,0.4,16.8,6.8c0.1,0.3,0.4,0.6,0.3,0.9
	c0,0.3-0.3,0.7-0.5,0.9c-0.2,0.1-0.7-0.1-0.8-0.3c-0.3-0.4-0.4-0.9-0.7-1.4c-2.8-5.7-9.7-7.9-15.3-5.1c-5.5,2.8-7.8,9.7-4.9,15.2
	c0.4,0.8,0.9,1.1,1.9,1.1c8,0,15.9,0,23.9,0c1.7,0,1.8,0.1,1.8,1.8c0,10.5,0,21.1,0,31.6c0,1.6-0.1,1.7-1.6,1.7
	c-10.5,0-21.1,0-31.6,0c-1.7,0-1.7-0.1-1.7-1.7c0-10.5,0-21.1,0-31.6c0-1.6,0.1-1.7,1.7-1.7C56.5,58.4,57.9,58.4,59.5,58.4z
	 M86.7,60.1c-10.6,0-21.1,0-31.6,0c0,10.6,0,21.1,0,31.7c10.6,0,21,0,31.6,0C86.7,81.2,86.7,70.6,86.7,60.1z"/>
<path d="M70.9,66.5c2.7,0,5,1.6,6,4.1c0.9,2.5,0.3,5.3-1.8,7c-0.6,0.5-0.9,1-0.8,1.8c0.1,1.2,0,2.4,0,3.6c-0.1,2-1.4,3.4-3.3,3.4
	s-3.4-1.4-3.4-3.5c0-0.5,0-1,0-1.5c0.1-1.8-0.1-3.3-1.6-4.7c-1.8-1.8-1.9-4.3-0.8-6.6C66.2,67.8,68.3,66.5,70.9,66.5z M69.1,80.6
	c0,0.6,0,1.3,0,1.9c0,1.6,0.7,2.4,1.8,2.4c1.1,0,1.7-0.8,1.7-2.3c0-1.2,0-2.5,0-3.7c0-1,0.2-1.6,1.1-2.2c2.3-1.6,2.6-4.9,0.7-7
	c-1.8-2.1-5.1-2.1-7-0.1c-2,2-1.8,5.3,0.5,7c1,0.7,1.3,1.5,1.2,2.7C69.1,79.7,69.1,80.1,69.1,80.6z"/>
</svg>
