<?xml version="1.0" encoding="utf-8"?>
<!-- Generator: Adobe Illustrator 28.3.0, SVG Export Plug-In . SVG Version: 6.00 Build 0)  -->
<svg version="1.1" id="ds44-icons" xmlns="http://www.w3.org/2000/svg" xmlns:xlink="http://www.w3.org/1999/xlink" x="0px" y="0px"
	 viewBox="0 0 110 110" style="enable-background:new 0 0 110 110;" xml:space="preserve">
<path d="M53.9,97.2c16.1,0,30.5-7.2,40.2-18.6l5.9-8.9l-89.6,4.7C20,88.1,35.9,97.2,53.9,97.2L53.9,97.2z"/>
<circle cx="45" cy="19.7" r="6.4"/>
<circle cx="45.4" cy="56.8" r="3.1"/>
<path d="M75.2,58.3l-4.1,0.1l-3.9-11c-0.5-1.3-1.7-2.2-3.1-2.1l-6.8,0.2c-1.3-1.3-2.7-2.5-4.4-3.3l-0.1-0.5l7-0.2
	c1.5-0.1,2.9-1,3.1-2.5c0.4-2.1-1.2-3.9-3.2-3.9l-8.9,0.3l-1.5-4.9c-0.4-1.4-1.8-2.5-3.2-2.4c-2.2,0.1-3.5,2.2-2.9,4.1l2.1,6.8
	c0,0.4,0.2,0.7,0.3,1l0.1,0.3c-0.3,0-0.5,0-0.8,0c-0.7,0-1.4,0.1-2.1,0.2L41.1,35c-0.3-0.9-1-1.6-1.9-1.6c-1.5,0-2.5,1.4-2.1,2.7
	l1.7,5.7c-5.8,2.6-9.8,8.6-9.6,15.4c0.3,8.6,7.5,15.6,16.1,15.6c9.2,0,16.6-7.6,16.3-16.8c-0.1-1.5-0.3-2.9-0.7-4.3l1.1,0l3.9,11
	c0.5,1.3,1.7,2.2,3.1,2.1l6.6-0.2c2-0.1,3.5-2,2.9-4.1C78.1,59.1,76.7,58.2,75.2,58.3L75.2,58.3z M45.9,68.4
	c-6.5,0.2-12-4.9-12.2-11.4c-0.2-6.5,4.9-12,11.4-12.2c6.5-0.2,12,4.9,12.2,11.4C57.5,62.7,52.4,68.2,45.9,68.4z"/>
</svg>
