<svg width="110" height="110" xmlns="http://www.w3.org/2000/svg" x="0px" y="0px"
	 viewBox="0 0 110 110" style="enable-background:new 0 0 110 110;" xml:space="preserve">
<style type="text/css">
	.st0{fill:none;stroke:#000000;stroke-width:3;stroke-linecap:round;stroke-linejoin:round;stroke-miterlimit:10;}
	.st1{fill:#FFFFFF;}
</style>
<g>
	<path d="M29.2,91.1c-0.3,0-0.5-0.1-0.7-0.2c-0.8-0.5-1.1-1.4-0.8-2.2c0.3-0.8,1.2-1.3,2.2-1.1c0.8,0.2,1.3,1,1.1,1.8
		c0,0.2-0.1,0.4-0.2,0.5c0,0.1-0.1,0.3-0.2,0.4C30.2,90.9,29.7,91.1,29.2,91.1z"/>
	<path d="M30.1,91.9c-0.2,0-0.4,0-0.7-0.1l-3.1-1.5c-0.6-0.3-1-1-0.8-1.7l0.1-0.4c0.2-0.8,0.9-1.3,1.7-1.2l3.1,0.5
		c0.8,0.1,1.3,0.9,1.2,1.6l-0.1,1.4c-0.1,0.5-0.3,0.9-0.8,1.2C30.6,91.8,30.4,91.9,30.1,91.9z"/>
	<path id="path2940_4_" class="st0" d="M31.1,61.4"/>
	<path id="path2964_4_" class="st0" d="M37.7,74.7"/>
	<g>
		<path d="M99.5,39l-6.2-7.9c-0.2-0.2-0.4-0.4-0.7-0.5c-0.1,0-3.1-0.9-8,0c-0.9,0.2-1.6,0.1-2-0.3c-0.9-0.7-1-2.3-1-2.8v-6.6
			l4.7,3.4c0.7,0.5,1.6,0.3,2.1-0.4c0.5-0.7,0.3-1.6-0.4-2.1L83,18.2c1.6-0.8,2.7-2.4,2.7-4.3c0-2.6-2.1-4.7-4.7-4.7
			s-4.7,2.1-4.7,4.7c0,1.7,0.9,3.1,2.2,4v9.4c0,0.3,0,3.4,2.1,5.1c0.8,0.7,2.3,1.4,4.5,1c3.1-0.6,5.3-0.3,6.2-0.1l5.9,7.5
			c0.3,0.4,0.7,0.6,1.2,0.6c0.3,0,0.7-0.1,0.9-0.3C99.9,40.5,100,39.6,99.5,39z M79.3,13.9c0-0.9,0.8-1.7,1.7-1.7
			c0.9,0,1.7,0.8,1.7,1.7c0,0.9-0.8,1.7-1.7,1.7C80.1,15.6,79.3,14.9,79.3,13.9z"/>
		<path d="M31.5,41.3c0.1,0,0.3,0,0.4,0c0.1,0,0.2,0,0.3,0c0.6,0,1.2-0.1,1.7-0.1c7-0.7,13.2-4.7,16.8-11c0.3-0.5,0.3-1,0-1.5
			c-3.6-6.2-9.8-10.2-16.8-11c-0.6-0.1-1.1-0.1-1.7-0.1c-0.1,0-0.2,0-0.3,0c-0.1,0-0.3,0-0.4,0c-8,0-15.2,4.1-19.2,11.1
			c-0.4,0.7-0.2,1.6,0.5,2.1c0.7,0.4,1.6,0.2,2.1-0.5c1.8-3.1,4.4-5.6,7.4-7.3c-1.2,1.9-2,4.1-2,6.5c0,6.2,4.7,11.3,10.8,11.8
			C31.2,41.3,31.3,41.3,31.5,41.3z M47.6,29.4c-1.3,2-3,3.8-4.8,5.1c0.8-1.6,1.2-3.3,1.2-5.1c0-1.8-0.4-3.6-1.2-5.1
			C44.7,25.7,46.3,27.4,47.6,29.4z M23.3,29.4c0-4.8,3.8-8.7,8.6-8.8c0.5,0,1.1,0,1.6,0.1c4.2,0.7,7.5,4.3,7.5,8.7s-3.3,8.1-7.5,8.7
			c-0.5,0.1-1.1,0.1-1.6,0.1C27.1,38.1,23.3,34.2,23.3,29.4z"/>
		<path d="M96,60.6l-8,7.5c-0.6,0.6-0.6,1.5-0.1,2.1c0.3,0.3,0.7,0.5,1.1,0.5c0.4,0,0.7-0.1,1-0.4l8-7.5c0.6-0.6,0.6-1.5,0.1-2.1
			C97.5,60.1,96.6,60.1,96,60.6z"/>
		<path d="M73.4,82.3l-8,7.5c-0.6,0.6-0.6,1.5-0.1,2.1c0.3,0.3,0.7,0.5,1.1,0.5c0.4,0,0.7-0.1,1-0.4l8-7.5c0.6-0.6,0.6-1.5,0.1-2.1
			C75,81.8,74,81.7,73.4,82.3z"/>
		<path d="M40.2,88.4c-0.4,0.3-2.1,1.5-5,1.5c-2.2,0-4.5-1.1-5.2-1.5c-0.7-0.4-1.6-0.2-2.1,0.5c-0.4,0.7-0.2,1.6,0.5,2.1
			c0.1,0.1,3.3,1.9,6.8,1.9c3.8,0,6.1-1.5,6.9-2.1c0.7-0.5,0.8-1.5,0.2-2.1C41.8,88,40.8,87.8,40.2,88.4z"/>
		<path d="M50.2,70.7c-0.3-0.2-0.6-0.4-0.9-0.4c0-0.5,0-0.8,0-0.9l-0.1-2.8c-0.1-1.2-0.4-3.4-1.2-5.7c-0.3-0.8-1.1-1.2-1.9-0.9
			c-0.8,0.3-1.2,1.1-0.9,1.9c0.7,2.1,1,4,1,4.8l0.1,2.8c0,0,0,1.9,0,2.3c0,0.5,0.2,0.9,0.6,1.2c0.4,0.3,0.8,0.4,1.3,0.3
			c0,0.1,0,0.2,0,0.3c0,0.1,0,0.2,0,0.3c0,0.4-0.1,1.2-0.3,2c-0.1,0.8-0.2,1.5-0.3,2.1c0,0.3,0,0.7,0,1.1c0,0.4,0.1,1.1,0,1.3
			c0,0,0,0.1,0,0.1c0,0.1,0,0.3-0.1,0.4c-0.6,0.1-1.2,0.7-1.2,1.4c0,0.2,0,0.3,0,0.5c-0.1,1.6-0.6,8.7-4.5,12.6
			c-1.8,1.8-4.1,2.7-6.9,2.7c-2.4,0-3.8-0.3-5.1-1.1c-0.7-0.4-1.6-0.2-2.1,0.5c-0.4,0.7-0.2,1.6,0.5,2.1c1.8,1.1,3.8,1.5,6.7,1.6
			c3.6,0,6.6-1.2,9-3.6c4.3-4.3,5.2-11.3,5.4-14c0.5-0.4,1-1.1,1.2-2.5c0.1-0.5,0.1-1.1,0-2.1c0-0.3,0-0.7,0-0.8
			c0-0.3,0.1-1.1,0.2-1.7c0.2-0.9,0.3-1.8,0.3-2.5l0-0.2C51.2,72.8,51.3,71.5,50.2,70.7z"/>
		<path d="M43.5,73.5c-0.8-1.8-2.1-2.3-2.9-2.4c-1.7-0.2-3.4,1.1-4,2c-0.5,0.7-0.4,1.6,0.3,2.1c0.7,0.5,1.6,0.4,2.1-0.3
			c0.2-0.3,0.9-0.8,1.3-0.8c0.1,0,0.4,0.3,0.5,0.7c0.3,0.6,0.8,0.9,1.4,0.9c0.2,0,0.4,0,0.6-0.1C43.5,75.1,43.9,74.3,43.5,73.5z"/>
	</g>
	<g>
		<path class="st1" d="M87.9,35.8c0-0.8-0.7-1.5-1.5-1.5s-1.5,0.7-1.5,1.5c0,4.7-3.9,8.6-8.6,8.6c-4.7,0-8.6-3.9-8.6-8.6
			c0-3.9,2.6-7.3,6.4-8.3c0.1,0,0.2,0,0.3,0c0.7-0.1,1.3-0.2,1.9-0.2c0.8,0,1.5-0.7,1.5-1.5s-0.7-1.5-1.5-1.5
			c-0.7,0-1.4,0.1-2.1,0.2c-0.1,0-0.3,0-0.5,0c-5.3,1.2-9,5.9-9,11.3c0,6.4,5.2,11.6,11.6,11.6C82.6,47.4,87.9,42.2,87.9,35.8z"/>
		<path class="st1" d="M20.9,11.3c-0.5-0.7-1.4-0.8-2.1-0.3c-0.7,0.5-0.8,1.4-0.3,2.1l26.2,35.2c0.3,0.4,0.7,0.6,1.2,0.6
			c0.3,0,0.6-0.1,0.9-0.3c0.7-0.5,0.8-1.4,0.3-2.1L20.9,11.3z"/>
		<path class="st1" d="M82.2,65.1c-6.2,0-11.2,5-11.2,11.2c0,0.8,0.7,1.5,1.5,1.5s1.5-0.7,1.5-1.5c0-4.5,3.7-8.2,8.2-8.2
			c4.5,0,8.1,3.6,8.2,8c-0.1,0.7-0.5,2.8-1.7,4.7c-0.7,0.8-4.5,4.9-4.5,9.5v3.2c0,0.1,0,0.2,0,0.2c0,0.1,0,0.6-0.2,0.9
			c-0.3,0.4-1.2,0.7-3,0.7c-0.8,0-1.5,0.7-1.5,1.5s0.7,1.5,1.5,1.5c2.5,0,4.3-0.6,5.3-1.8c1-1.2,0.9-2.7,0.9-3.2v-3.1
			c0-3.7,3.7-7.5,3.7-7.5c0.1-0.1,0.1-0.2,0.2-0.2c1.7-2.5,2.1-5.3,2.2-6.1c0-0.1,0-0.1,0-0.2C93.4,70.1,88.4,65.1,82.2,65.1z"/>
		<path class="st1" d="M82.2,73.4c2,0,3.6,1.6,3.6,3.6c0,0.8,0.7,1.5,1.5,1.5s1.5-0.7,1.5-1.5c0-3.6-3-6.6-6.6-6.6
			c-3.6,0-6.6,3-6.6,6.6c0,0.8,0.7,1.5,1.5,1.5s1.5-0.7,1.5-1.5C78.6,75,80.2,73.4,82.2,73.4z"/>
		<path class="st1" d="M34.1,71.5l0-0.3c0-1.8,0-6-1.5-10.2c-0.3-0.8-1.1-1.2-1.9-0.9c-0.1,0-0.2,0.1-0.3,0.1
			c-0.7,0.3-1,1.1-0.7,1.8c1.3,3.8,1.3,7.6,1.3,9.2l0,0.4c0.2,6,2,9,2.1,9.1c1.2,1.9,1,2.7,0.9,2.9c-0.1,0.2-0.3,0.3-0.5,0.4
			c-0.2,0.1-0.4,0.1-0.5,0.1c-0.5,0-0.9,0.2-1.2,0.3c-0.3,0.2-0.5,0.4-0.7,0.6c-0.3,0.3-0.4,0.8-0.3,1.2c0,0.5,0.1,0.9,0.2,1.3
			c-1.8-0.1-4.4-0.9-5.3-1.2c-0.7-0.2-1.5,0.1-1.8,0.8c-0.3,0.7-0.1,1.5,0.5,1.9c1.6,1,3.6,2,4.7,2.4c0,0-0.1,0.1-0.1,0.1
			c0,0-0.1,0.1-0.1,0.1c-0.1,0-0.1,0.1-0.1,0.1c0,0-0.1,0.1-0.1,0.1c0,0.1-0.1,0.1-0.1,0.2c0,0-0.1,0.1-0.1,0.1
			c0,0.1-0.1,0.1-0.1,0.2c0,0,0,0.1-0.1,0.1c0,0.1,0,0.1-0.1,0.2c0,0,0,0.1,0,0.1c0,0.1,0,0.1,0,0.2c0,0,0,0.1,0,0.1
			c0,0.1,0,0.1,0,0.2c0,0,0,0.1,0,0.1c0,0.1,0,0.2,0.1,0.3c0.4,1.4,0.4,1.8,0.4,1.8c0,0,0,0,0,0c0,0,0,0.1,0,0.1
			c0,0.4,0,0.7-0.1,0.9c0,0.1,0,0.1-0.1,0.1c0,0-0.1,0.1-0.1,0.1c-0.1,0.1-0.2,0.1-0.3,0.2c-4.4,1.8-11.9-1.8-15.1-5.1
			c-0.6-0.6-1.5-0.6-2.1,0c-0.3,0.3-0.4,0.7-0.4,1.1c-0.1,0.4,0,0.9,0.3,1.3c2.4,2.7,9.2,6.4,14.9,6.4c1.3,0,2.6-0.2,3.8-0.7
			c0,0,0.1,0,0.1,0c0.2-0.1,0.6-0.3,1-0.6c0,0,0.1-0.1,0.1-0.1c0.2-0.2,0.5-0.5,0.7-0.9c0.1-0.3,0.2-0.6,0.2-0.9
			c0.2-0.6,0.3-1.2,0.3-2c0-0.4-0.1-1-0.3-1.8c0.8-0.5,1.3-1.3,1.4-2.1c0-0.1,0-0.1,0-0.2c0,0,0-0.1,0-0.1c0-0.1,0-0.1,0-0.2
			c0,0,0-0.1,0-0.1c0-0.1,0-0.1,0-0.2c0,0,0-0.1-0.1-0.1c0-0.1,0-0.1-0.1-0.2c1.3-0.3,1.7-1.4,1.8-1.9c0-0.1,0-0.1,0-0.2
			c0-0.5-0.1-0.9-0.2-1.4c0.3-0.1,0.6-0.2,1-0.4c0.6-0.3,1.3-0.8,1.7-1.6c0.9-1.6,0.5-3.6-0.9-5.9C35.7,79,34.2,76.5,34.1,71.5z"/>
		<path class="st1" d="M22.8,74.8c0.3-0.3,1-0.8,1.3-0.7c0.1,0,0.3,0.3,0.5,0.7c0.2,0.6,0.8,1,1.4,1c0.2,0,0.3,0,0.5-0.1
			c0.8-0.3,1.2-1.1,0.9-1.9c-0.7-1.9-1.9-2.5-2.7-2.6c-1.7-0.3-3.4,0.8-4.2,1.7c-0.5,0.6-0.5,1.6,0.2,2.1
			C21.3,75.5,22.3,75.4,22.8,74.8z"/>
	</g>
</g>
</svg>
