<svg width="110" height="110" xmlns="http://www.w3.org/2000/svg" x="0px" y="0px"
	 viewBox="0 0 110 110" style="enable-background:new 0 0 110 110;" xml:space="preserve">
<style type="text/css">
	.st0{fill:#FFFFFF;}
</style>
<g>
	<g>
		<path class="st0" d="M67.4,49.5c0.6-0.1,1.1-0.7,1-1.3c-0.1-0.6-0.7-1.1-1.3-1c-0.6,0.1-1.1,0.7-1,1.3
			C66.1,49.1,66.8,49.6,67.4,49.5z"/>
		<path class="st0" d="M90.3,46.5l-0.5-3.4c-0.2-1.3-1.1-2.3-2.3-2.7c-0.5-1.1-1.5-3.5-2.2-4.9c-1.1-2-2.9-2.6-3.8-2.7
			c-0.1,0-0.2,0-0.3,0l-7,1.1c0,0,0,0,0,0L69,34.7c-2.9,0.4-3.5,2.5-3.6,2.7c0,0.1,0,0.1,0,0.2l-1,5.9c-1.6,0.5-2.7,2.1-2.5,3.8
			l0.5,3.4c0.2,1.4,1.3,2.5,2.6,2.8l0.3,1.7c0.1,0.9,0.6,1.7,1.3,2.2c0.6,0.4,1.3,0.6,2,0.6c0.2,0,0.3,0,0.5,0
			c0.9-0.1,1.7-0.6,2.2-1.3c0.5-0.7,0.7-1.6,0.6-2.5l-0.2-1.4l5.2-0.8l5.4-0.8l0.2,1.4c0.1,0.9,0.6,1.7,1.3,2.2
			c0.6,0.4,1.3,0.6,2,0.6c0.2,0,0.3,0,0.5,0c1.8-0.3,3.1-2,2.8-3.8l-0.3-1.8c0.3-0.2,0.6-0.5,0.8-0.8C90.2,48.3,90.4,47.4,90.3,46.5
			z M69.4,37.7l5.1-0.8c0,0,0,0,0,0l6.8-1.1c0.3,0.1,0.8,0.3,1.3,1.1c0.5,0.9,1.1,2.4,1.6,3.5l-9,1.4L67.5,43l0.8-4.7
			C68.4,38.1,68.6,37.8,69.4,37.7z M65.3,46.4l0.6-0.1c0,0,0,0,0,0l9.9-1.5l10.5-1.6c0.2,0,0.5,0.1,0.5,0.4l0.5,3.4
			c0,0.2,0,0.3-0.1,0.3c0,0.1-0.1,0.2-0.3,0.2l-10.5,1.6l-10.5,1.6c-0.3,0-0.5-0.1-0.5-0.4l-0.5-3.4C64.9,46.7,65,46.4,65.3,46.4z
			 M68.9,54.7c0,0.1,0,0.2-0.1,0.2s-0.1,0.1-0.2,0.1c-0.1,0-0.2,0-0.2-0.1c-0.1,0-0.1-0.1-0.1-0.2l-0.2-1.4l0.7-0.1L68.9,54.7z
			 M85.9,52.5c-0.1,0-0.2,0-0.2-0.1c-0.1,0-0.1-0.1-0.1-0.2l-0.2-1.4l0.7-0.1l0.2,1.4C86.2,52.3,86.1,52.4,85.9,52.5z"/>
		<path class="st0" d="M84.8,46.8c0.6-0.1,1.1-0.7,1-1.3s-0.7-1.1-1.3-1c-0.6,0.1-1.1,0.7-1,1.3S84.2,46.9,84.8,46.8z"/>
	</g>
	<g>
		<path d="M55.6,59.2c0.8-0.1,1.4-0.9,1.3-1.7l-0.7-4.3c-0.1-0.8-0.9-1.4-1.7-1.3c-0.8,0.1-1.4,0.9-1.3,1.7l0.7,4.3
			c0.1,0.7,0.8,1.3,1.5,1.3C55.5,59.2,55.6,59.2,55.6,59.2z"/>
		<path d="M57.1,68.5c0.8-0.1,1.4-0.9,1.3-1.7l-0.7-4.3c-0.1-0.8-0.9-1.4-1.7-1.3c-0.8,0.1-1.4,0.9-1.3,1.7l0.7,4.3
			c0.1,0.7,0.8,1.3,1.5,1.3C56.9,68.5,57,68.5,57.1,68.5z"/>
		<path d="M59.1,71.8c-0.1-0.8-0.9-1.4-1.7-1.3c-0.8,0.1-1.4,0.9-1.3,1.7l0.7,4.3c0.1,0.7,0.8,1.3,1.5,1.3c0.1,0,0.2,0,0.2,0
			c0.8-0.1,1.4-0.9,1.3-1.7L59.1,71.8z"/>
		<path d="M20,64.7c0.6,0,1.2-0.4,1.4-1c1.2-3.1,3.4-5.6,6.2-7.3c0.9,0.6,2.4,1.3,4.5,1.3c0.4,0,0.9,0,1.4-0.1
			c3-0.5,4.4-1.8,5.1-2.9c3,0.7,5.7,2.3,7.8,4.8c0.5,0.6,1.5,0.7,2.1,0.2c0.6-0.5,0.7-1.5,0.2-2.1c-2.7-3.2-6.4-5.2-10.4-5.9
			c1.9-2,2.9-4.9,2.5-7.8v0c-0.8-5.1-5.6-8.6-10.6-7.8c-5.1,0.8-8.6,5.6-7.8,10.6c0.4,2.5,1.7,4.6,3.7,6.1c0.3,0.2,0.6,0.4,0.9,0.6
			c-0.1,0.1-0.2,0.1-0.3,0.2c0,0-0.1,0.1-0.1,0.1c-3.5,2-6.3,5.1-7.8,9c-0.3,0.8,0.1,1.6,0.8,1.9C19.7,64.7,19.8,64.7,20,64.7z
			 M33,54.7c-0.4,0.1-0.8,0.1-1.2,0.1c0.4-0.1,0.7-0.2,1.1-0.2c0.4-0.1,0.9-0.1,1.3-0.1C33.8,54.5,33.4,54.6,33,54.7z M25.2,46.2
			c-0.5-3.5,1.8-6.7,5.3-7.2c0.3-0.1,0.6-0.1,1-0.1c3.1,0,5.8,2.2,6.3,5.4v0c0.5,3.5-1.8,6.7-5.3,7.2c-1.7,0.3-3.3-0.2-4.7-1.2
			C26.3,49.3,25.4,47.8,25.2,46.2z"/>
		<path d="M101.7,70.9l-7-45.2c-1-6.3-6.9-10.6-13.1-9.6L17.9,26c-6.3,1-10.6,6.9-9.6,13.1l7,45.2C16.1,89.9,21,94,26.6,94
			c0.6,0,1.2,0,1.8-0.1L92.1,84C98.4,83.1,102.7,77.2,101.7,70.9z M97.2,77.7c-1.3,1.8-3.3,3-5.6,3.4l-30.5,4.7c0-0.1,0-0.3,0-0.5
			l-0.7-4.3c-0.1-0.8-0.9-1.4-1.7-1.3c-0.8,0.1-1.4,0.9-1.3,1.7l0.7,4.3c0,0.2,0.1,0.3,0.2,0.4l-30.5,4.7c-2.2,0.3-4.5-0.2-6.3-1.6
			c-1.8-1.3-3-3.3-3.4-5.5l-7-45.2c-0.7-4.6,2.5-9,7.1-9.7l63.7-9.8c0.4-0.1,0.9-0.1,1.3-0.1c4.1,0,7.7,3,8.4,7.2l7,45.2
			C99.1,73.6,98.5,75.8,97.2,77.7z"/>
		<path d="M49.6,30.1c0.1,0.7,0.8,1.3,1.5,1.3c0.1,0,0.2,0,0.2,0c0.8-0.1,1.4-0.9,1.3-1.7l-0.7-4.3c-0.1-0.8-0.9-1.4-1.7-1.3
			c-0.8,0.1-1.4,0.9-1.3,1.7L49.6,30.1z"/>
		<path d="M51.7,33.4c-0.8,0.1-1.4,0.9-1.3,1.7l0.7,4.3c0.1,0.7,0.8,1.3,1.5,1.3c0.1,0,0.2,0,0.2,0c0.8-0.1,1.4-0.9,1.3-1.7
			l-0.7-4.3C53.3,33.9,52.5,33.3,51.7,33.4z"/>
		<path d="M54.2,49.9c0.8-0.1,1.4-0.9,1.3-1.7l-0.7-4.3c-0.1-0.8-0.9-1.4-1.7-1.3c-0.8,0.1-1.4,0.9-1.3,1.7l0.7,4.3
			c0.1,0.7,0.8,1.3,1.5,1.3C54.1,49.9,54.1,49.9,54.2,49.9z"/>
		<path d="M21.1,74l28.6-4.4c0.8-0.1,1.4-0.9,1.3-1.7c-0.1-0.8-0.9-1.4-1.7-1.3L20.7,71c-0.8,0.1-1.4,0.9-1.3,1.7
			c0.1,0.7,0.8,1.3,1.5,1.3C21,74,21.1,74,21.1,74z"/>
		<path d="M50,71.3l-28.6,4.4c-0.8,0.1-1.4,0.9-1.3,1.7c0.1,0.7,0.8,1.3,1.5,1.3c0.1,0,0.2,0,0.2,0l28.6-4.4
			c0.8-0.1,1.4-0.9,1.3-1.7C51.6,71.7,50.8,71.1,50,71.3z"/>
		<path d="M42.2,77.2l-20.1,3.1c-0.8,0.1-1.4,0.9-1.3,1.7c0.1,0.7,0.8,1.3,1.5,1.3c0.1,0,0.2,0,0.2,0l20.1-3.1
			c0.8-0.1,1.4-0.9,1.3-1.7C43.8,77.7,43,77.1,42.2,77.2z"/>
		<path d="M63.6,67.4L92.2,63c0.8-0.1,1.4-0.9,1.3-1.7s-0.9-1.4-1.7-1.3l-28.6,4.4c-0.8,0.1-1.4,0.9-1.3,1.7
			c0.1,0.7,0.8,1.3,1.5,1.3C63.5,67.5,63.6,67.5,63.6,67.4z"/>
		<path d="M92.5,64.7l-28.6,4.4c-0.8,0.1-1.4,0.9-1.3,1.7c0.1,0.7,0.8,1.3,1.5,1.3c0.1,0,0.2,0,0.2,0L93,67.7
			c0.8-0.1,1.4-0.9,1.3-1.7S93.3,64.6,92.5,64.7z"/>
		<path d="M84.7,70.7l-20.1,3.1c-0.8,0.1-1.4,0.9-1.3,1.7c0.1,0.7,0.8,1.3,1.5,1.3c0.1,0,0.2,0,0.2,0l20.1-3.1
			c0.8-0.1,1.4-0.9,1.3-1.7S85.5,70.5,84.7,70.7z"/>
	</g>
</g>
</svg>
