<svg width="110" height="110" xmlns="http://www.w3.org/2000/svg" x="0px" y="0px"
	 viewBox="0 0 110 110" style="enable-background:new 0 0 110 110;" xml:space="preserve">
<style type="text/css">
	.st0{fill:#FFFFFF;}
</style>
<g>
	<path class="st0" d="M37.2,68.9c-2.9,0-5.3-2.4-5.3-5.3v-7.2c0-0.8,0.2-1.6,0.6-2.4c0.4-0.7,1.3-1,2-0.7c0.7,0.4,1,1.3,0.7,2
		c-0.2,0.3-0.2,0.7-0.2,1v7.2c0,1.3,1,2.3,2.3,2.3c1.3,0,2.3-1,2.3-2.3v-7.2c0-0.4-0.1-0.7-0.2-1c-0.4-0.7-0.1-1.6,0.7-2
		c0.7-0.4,1.6-0.1,2,0.7c0.4,0.7,0.6,1.5,0.6,2.4v7.2C42.5,66.6,40.1,68.9,37.2,68.9z"/>
	<path class="st0" d="M73.2,68.9c-2.9,0-5.3-2.4-5.3-5.3v-7.2c0-0.8,0.2-1.6,0.6-2.4c0.4-0.7,1.3-1,2-0.7c0.7,0.4,1,1.3,0.7,2
		C71,55.7,71,56,71,56.4v7.2c0,1.3,1,2.3,2.3,2.3s2.3-1,2.3-2.3v-7.2c0-0.4-0.1-0.7-0.2-1c-0.4-0.7-0.1-1.6,0.7-2
		c0.7-0.4,1.6-0.1,2,0.7c0.4,0.7,0.6,1.5,0.6,2.4v7.2C78.5,66.6,76.2,68.9,73.2,68.9z"/>
	<path class="st0" d="M92.2,88.6c-3,0-4.8-1.8-6.4-3.4c-1.8-1.8-3.4-3.5-6.8-3.5c-1.9,0-3.5,1.5-5.1,3.1c-1.9,1.8-4,3.8-7,3.8
		c-2.8,0-4.7-1.8-6.4-3.5c-1.8-1.7-3.5-3.4-6.4-3.4c-2.4,0-3.8,1.5-5.4,3.1c-1.7,1.7-3.6,3.7-6.7,3.7c-3.6,0-5.5-2-7.1-3.9
		c-1.7-1.9-3.4-3.7-7.4-3.7c-1.4,0-2.8,1.2-4.4,2.6c-2.1,1.8-4.7,4.1-8.4,3.9c-5.3-0.2-8.7-6.4-8.9-6.7c-0.4-0.7-0.1-1.6,0.6-2
		c0.7-0.4,1.6-0.1,2,0.6c0.8,1.4,3.4,5,6.4,5.1c2.5,0.1,4.3-1.5,6.2-3.2c1.9-1.6,3.8-3.3,6.3-3.3c5.4,0,7.7,2.6,9.6,4.7
		c1.5,1.7,2.6,2.9,4.9,2.9c1.7,0,2.8-1.1,4.5-2.8c1.7-1.8,3.9-4.1,7.6-4.1c4,0,6.5,2.3,8.4,4.2c1.7,1.6,2.8,2.6,4.4,2.6
		c1.8,0,3.2-1.4,4.9-3c1.9-1.8,4.1-3.9,7.2-3.9c4.6,0,7,2.4,8.9,4.3c1.6,1.6,2.6,2.5,4.2,2.5c4.1,0,8.6-4.3,9.1-5.4
		c0.1-0.8,0.8-1.3,1.6-1.2c0.8,0.1,1.4,0.8,1.3,1.6C104,82.8,98,88.6,92.2,88.6z M101.2,80.4C101.2,80.4,101.2,80.4,101.2,80.4
		C101.2,80.4,101.2,80.4,101.2,80.4z M101.3,80.2L101.3,80.2L101.3,80.2z"/>
	<g>
		<path d="M36.4,51c2.2,0,3.9-1.8,3.9-3.9c0-2.2-1.8-3.9-3.9-3.9s-3.9,1.8-3.9,3.9C32.4,49.2,34.2,51,36.4,51z M36.4,46.1
			c0.5,0,0.9,0.4,0.9,0.9c0,0.5-0.4,0.9-0.9,0.9s-0.9-0.4-0.9-0.9C35.4,46.5,35.8,46.1,36.4,46.1z"/>
		<path d="M72.8,51c2.2,0,3.9-1.8,3.9-3.9s-1.8-3.9-3.9-3.9c-2.2,0-3.9,1.8-3.9,3.9S70.7,51,72.8,51z M72.8,46.1
			c0.5,0,0.9,0.4,0.9,0.9S73.4,48,72.8,48c-0.5,0-0.9-0.4-0.9-0.9S72.3,46.1,72.8,46.1z"/>
		<path d="M33,56.2h22h22c3.1,0,5.6-2.5,5.6-5.6v-7.2c0-2.3-1.5-4.4-3.5-5.2c-0.5-2.1-2-7.8-3.2-11.2c-1.7-4.8-5.7-5.6-5.8-5.7
			c-0.1,0-0.2,0-0.3,0H55H44.3c-5.2,0-6.7,3.4-6.8,3.5c0,0,0,0.1-0.1,0.1l-4.1,12.8H33c-3.1,0-5.6,2.5-5.6,5.6v7.2
			C27.4,53.7,29.9,56.2,33,56.2z M40.2,26.1c0.2-0.3,1.2-1.7,4-1.7H55h14.5c0.5,0.2,2.5,0.9,3.5,3.7c1,2.7,2.1,7.3,2.8,9.8H55H36.4
			L40.2,26.1z M30.4,43.4c0-1.4,1.1-2.6,2.6-2.6h1.4H55h22c1.4,0,2.6,1.1,2.6,2.6v7.2c0,1.4-1.1,2.6-2.6,2.6H55H33
			c-1.4,0-2.6-1.1-2.6-2.6V43.4z"/>
		<path d="M101.3,71.1H8.7c-0.8,0-1.5,0.7-1.5,1.5s0.7,1.5,1.5,1.5h92.6c0.8,0,1.5-0.7,1.5-1.5S102.2,71.1,101.3,71.1z"/>
	</g>
</g>
</svg>
