<svg width="110" height="110" xmlns="http://www.w3.org/2000/svg" x="0px" y="0px"
	 viewBox="0 0 110 110" style="enable-background:new 0 0 110 110;" xml:space="preserve">
<g id="arrow-up">
	<g>
		<g>
			<path d="M17.3,58.8c0,0.4,0.1,0.8,0.4,1.1L53.9,96c0.3,0.4,0.8,0.5,1.1,0.5c0.5,0,0.9-0.2,1.1-0.4l36.1-36.2
				c0.3-0.3,0.4-0.7,0.4-1.1c0-0.4-0.2-0.8-0.5-1.1c-0.3-0.3-0.6-0.4-1-0.4c-0.3,0-0.8,0.1-1,0.4L56.6,91.1V16.6
				c0-0.8-0.7-1.5-1.5-1.5s-1.6,0.7-1.6,1.5v74.5L19.9,57.6c-0.3-0.3-0.6-0.4-1-0.4c-0.4,0-0.8,0.2-1.1,0.5
				C17.5,58,17.3,58.4,17.3,58.8z"/>
		</g>
	</g>
</g>
</svg>
