<svg width="110" height="110" xmlns="http://www.w3.org/2000/svg" x="0px" y="0px"
	 viewBox="0 0 110 110" style="enable-background:new 0 0 110 110;" xml:space="preserve">
<style type="text/css">
	.st0{fill:#FFFFFF;}
</style>
<g>
	<path d="M86.4,95.2H64c-0.8,0-1.4-0.6-1.4-1.4V67.9H51.5c-0.8,0-1.4-0.6-1.4-1.4s0.6-1.4,1.4-1.4H64c0.8,0,1.4,0.6,1.4,1.4v25.9H85
		V61.6c0-0.8,0.6-1.4,1.4-1.4h10.7L56.6,18.2l-4.1,4.2c-0.5,0.5-1.4,0.5-2,0c-0.5-0.5-0.5-1.4,0-2l5.2-5.2c0.3-0.3,0.6-0.4,1-0.4
		c0.4,0,0.7,0.2,1,0.4l43.7,45.5c0.4,0.4,0.5,1,0.3,1.5c-0.2,0.5-0.7,0.8-1.3,0.8H87.8v30.8C87.8,94.6,87.1,95.2,86.4,95.2z"/>
	<path class="st0" d="M46,95.2H23.6c-0.8,0-1.4-0.6-1.4-1.4V63H9.6c-0.6,0-1.1-0.3-1.3-0.9c-0.2-0.5-0.1-1.1,0.3-1.5l41.8-40.3
		c0.6-0.5,1.4-0.5,2,0c0.5,0.6,0.5,1.4,0,2L13.1,60.2h10.6c0.8,0,1.4,0.6,1.4,1.4v30.8h19.6V66.6c0-0.8,0.6-1.4,1.4-1.4h5.6
		c0.8,0,1.4,0.6,1.4,1.4s-0.6,1.4-1.4,1.4h-4.2v25.9C47.4,94.6,46.8,95.2,46,95.2z"/>
</g>
</svg>
