<?xml version="1.0" encoding="UTF-8"?><svg id="ds44-icons" xmlns="http://www.w3.org/2000/svg" viewBox="0 0 433.2 480"><path d="m86.21,392.16c21.01,0,38.1-17.09,38.1-38.1s-17.09-38.09-38.1-38.09-38.09,17.09-38.09,38.09,17.09,38.1,38.09,38.1Z"/><path d="m264.78,112.83c0-21.3-17.33-38.63-38.63-38.63h-19.1c-21.3,0-38.63,17.33-38.63,38.63v5.14h96.36v-5.14Z"/><path d="m216.6,73.27c18.78,0,34.06-15.28,34.06-34.06s-15.28-34.06-34.06-34.06-34.06,15.28-34.06,34.06c0,18.78,15.28,34.06,34.06,34.06Z"/><path d="m254.26,354.06c0-21.01-17.09-38.09-38.1-38.09s-38.09,17.09-38.09,38.09,17.09,38.1,38.09,38.1,38.1-17.09,38.1-38.1Z"/><path d="m336.96,129.56H96.24c-7.93,0-14.36,3.46-14.36,7.73v7.36c0,4.27,6.43,7.73,14.37,7.73h240.71c7.93,0,14.37-3.46,14.37-7.73v-7.36c0-4.27-6.43-7.73-14.37-7.73Z"/><path d="m93.49,163.97v96.14c0,4.27,6.43,7.73,14.37,7.73h217.49c7.93,0,14.37-3.46,14.37-7.73v-96.14H93.49Z"/><path d="m416.81,447.21h-15.44v-11.44c0-21.3-17.33-38.63-38.63-38.63h-31.52c-21.3,0-38.63,17.33-38.63,38.63v11.44h-13.2s0,0,0,0h-8.84v-11.44c0-21.3-17.33-38.63-38.63-38.63h-31.52c-21.3,0-38.63,17.33-38.63,38.63v11.44h-21.17v-11.44c0-21.3-17.33-38.63-38.63-38.63h-31.52c-21.3,0-38.63,17.33-38.63,38.63v11.44h-15.44c-6.4,0-11.59,5.19-11.59,11.58,0,6.4,5.18,11.6,11.59,11.6h269.6s0,0,0,0h130.81c6.4,0,11.59-5.19,11.59-11.59s-5.18-11.58-11.59-11.58Z"/><path d="m385.07,354.06c0-21.01-17.09-38.09-38.09-38.09s-38.1,17.09-38.1,38.09,17.09,38.1,38.1,38.1,38.09-17.09,38.09-38.1Z"/></svg>