<?xml version="1.0" encoding="utf-8"?>
<!-- Generator: Adobe Illustrator 25.1.0, SVG Export Plug-In . SVG Version: 6.00 Build 0)  -->
<svg version="1.0" id="Calque_1" xmlns="http://www.w3.org/2000/svg" xmlns:xlink="http://www.w3.org/1999/xlink" x="0px" y="0px"
	 viewBox="0 0 150 150" enable-background="new 0 0 150 150" xml:space="preserve">
<g>
	<path fill="#1D1D1B" d="M75,14.4c-33.4,0-60.6,27.2-60.6,60.6c0,33.4,27.2,60.6,60.6,60.6c33.4,0,60.6-27.2,60.6-60.6
		C135.6,41.6,108.4,14.4,75,14.4z M75,133.1c-32,0-58.1-26-58.1-58.1c0-32,26-58.1,58.1-58.1c32,0,58.1,26,58.1,58.1
		C133.1,107,107,133.1,75,133.1z"/>
	<path fill="#1D1D1B" d="M76.9,67.6l-0.6-0.1V46.1c0-0.7-0.6-1.3-1.3-1.3c-0.7,0-1.3,0.6-1.3,1.3v21.3l-0.6,0.1
		c-2.6,0.7-4.6,2.7-5.3,5.3l-0.1,0.6H52.5c-0.7,0-1.3,0.6-1.3,1.3c0,0.7,0.6,1.3,1.3,1.3h15.2l0.1,0.6c0.9,3.3,3.8,5.6,7.2,5.6
		c4.1,0,7.4-3.3,7.4-7.4C82.4,71.4,80.1,68.4,76.9,67.6z M75,79.6c-2.7,0-4.8-2.2-4.8-4.8c0-2.7,2.2-4.8,4.8-4.8
		c2.7,0,4.8,2.2,4.8,4.8C79.8,77.4,77.7,79.6,75,79.6z"/>
	<path fill="#1D1D1B" d="M75,33.1c0.7,0,1.3-0.6,1.3-1.3v-2c0-0.7-0.6-1.3-1.3-1.3c-0.7,0-1.3,0.6-1.3,1.3v2
		C73.7,32.5,74.3,33.1,75,33.1z"/>
	<path fill="#1D1D1B" d="M75,116.4c-0.7,0-1.3,0.6-1.3,1.3v2c0,0.7,0.6,1.3,1.3,1.3c0.7,0,1.3-0.6,1.3-1.3v-2
		C76.3,117,75.7,116.4,75,116.4z"/>
	<path fill="#1D1D1B" d="M120,73.5h-2c-0.7,0-1.3,0.6-1.3,1.3c0,0.7,0.6,1.3,1.3,1.3h2c0.7,0,1.3-0.6,1.3-1.3
		C121.3,74,120.7,73.5,120,73.5z"/>
	<path fill="#1D1D1B" d="M32,73.5h-2c-0.7,0-1.3,0.6-1.3,1.3c0,0.7,0.6,1.3,1.3,1.3h2c0.7,0,1.3-0.6,1.3-1.3
		C33.3,74,32.7,73.5,32,73.5z"/>
	<path fill="#1D1D1B" d="M105.9,42l-1.4,1.4c-0.5,0.5-0.5,1.3,0,1.8c0.5,0.5,1.3,0.5,1.8,0l1.4-1.4c0.2-0.2,0.4-0.6,0.4-0.9
		c0-0.3-0.1-0.7-0.4-0.9C107.2,41.5,106.4,41.5,105.9,42z"/>
	<path fill="#1D1D1B" d="M44.6,103.8C44.6,103.8,44.6,103.8,44.6,103.8c-0.3,0-0.7,0.1-0.9,0.4l-1.4,1.4c-0.2,0.2-0.4,0.6-0.4,0.9
		s0.1,0.7,0.4,0.9c0.5,0.5,1.3,0.5,1.8,0l1.4-1.4c0.2-0.2,0.4-0.6,0.4-0.9s-0.1-0.7-0.4-0.9C45.3,104,45,103.8,44.6,103.8z"/>
	<path fill="#1D1D1B" d="M106.3,104.2c-0.3-0.3-0.6-0.4-0.9-0.4s-0.7,0.1-0.9,0.4c-0.5,0.5-0.5,1.3,0,1.8l1.4,1.4
		c0.5,0.5,1.3,0.5,1.8,0c0.2-0.2,0.4-0.6,0.4-0.9s-0.1-0.7-0.4-0.9L106.3,104.2z"/>
	<path fill="#1D1D1B" d="M43.7,45.3c0.5,0.5,1.3,0.5,1.8,0c0.5-0.5,0.5-1.3,0-1.8L44.1,42c-0.2-0.2-0.6-0.4-0.9-0.4
		s-0.7,0.1-0.9,0.4c-0.2,0.2-0.4,0.6-0.4,0.9s0.1,0.7,0.4,0.9L43.7,45.3z"/>
</g>
</svg>
