<svg xmlns="http://www.w3.org/2000/svg" width="110" height="110" viewBox="0 0 110 110"><g transform="translate(-3937 -2572)"><rect width="110" height="110" transform="translate(3937 2572)" fill="#fff" opacity="0"/><g transform="translate(3952 2586)"><g transform="translate(0 0)"><path d="M93.4,84.035a1.186,1.186,0,0,0-1.666.2l-5.491,7.01-3.06-2.262a1.187,1.187,0,0,0-1.41,1.908l3.988,2.948a1.186,1.186,0,0,0,1.639-.223L93.6,85.7a1.187,1.187,0,0,0-.2-1.666Z" transform="translate(-68.827 -70.528)"/><path d="M48.988,44.667a3.481,3.481,0,0,0-3.477,3.477V64.21a3.481,3.481,0,0,0,3.477,3.477H65.054a3.481,3.481,0,0,0,3.477-3.477V48.144a3.481,3.481,0,0,0-3.477-3.477Zm17.17,3.477V64.21a1.105,1.105,0,0,1-1.1,1.1H48.988a1.105,1.105,0,0,1-1.1-1.1V48.144a1.105,1.105,0,0,1,1.1-1.1H65.054A1.105,1.105,0,0,1,66.158,48.144Z" transform="translate(-38.709 -37.6)"/><path d="M34.86,78.629H8.986a4.1,4.1,0,0,1-4.1-4.1V6.47a4.1,4.1,0,0,1,4.1-4.1H47.654a2.842,2.842,0,0,1,.471.042v8.123a6.478,6.478,0,0,0,6.47,6.47h8.123a2.844,2.844,0,0,1,.042.471v9.864a1.187,1.187,0,1,0,2.373,0V17.48a5.156,5.156,0,0,0-1.52-3.669L51.324,1.52A5.155,5.155,0,0,0,47.654,0H8.986a6.478,6.478,0,0,0-6.47,6.47V74.532A6.478,6.478,0,0,0,8.986,81H34.86a1.187,1.187,0,0,0,0-2.373ZM61.083,14.635H54.6a4.1,4.1,0,0,1-4.1-4.1V4.051Z" transform="translate(-2.516 0)"/><path d="M260.167,230.022h-7.244c-1.362-3.642-4.107-4.877-4.107-9.855v-.028a11.942,11.942,0,0,1,2.662-7.605,10.676,10.676,0,1,0-16.589-.14,12.484,12.484,0,0,1,2.776,7.729v.044c0,4.981-2.751,6.228-4.107,9.855h-7.244a5.95,5.95,0,0,0-5.944,5.944v2.594a2.45,2.45,0,0,0,1.947,2.394v1.268a2.989,2.989,0,0,0,2.986,2.986h35.875a2.989,2.989,0,0,0,2.986-2.986v-1.268a2.45,2.45,0,0,0,1.947-2.394v-2.594A5.951,5.951,0,0,0,260.167,230.022Zm-20.129-9.855v-.044a14.864,14.864,0,0,0-3.294-9.209,8.3,8.3,0,1,1,12.9.109,14.318,14.318,0,0,0-3.2,9.116v.028c0,5.33,2.813,7.556,3.906,9.855H236.133C237.231,227.711,240.039,225.507,240.039,220.167Zm-17.294,15.8a3.575,3.575,0,0,1,3.571-3.571h33.852a3.575,3.575,0,0,1,3.571,3.571v2.594a.073.073,0,0,1-.073.073H222.817a.073.073,0,0,1-.073-.073Zm38.434,6.869H225.3a.613.613,0,0,1-.613-.613v-1.217h37.1v1.217A.613.613,0,0,1,261.178,242.835Z" transform="translate(-185.905 -164.206)" fill="#fff"/></g></g></g></svg>