<svg width="110" height="110" xmlns="http://www.w3.org/2000/svg" x="0px" y="0px"
	 viewBox="0 0 110 110" style="enable-background:new 0 0 110 110;" xml:space="preserve">
<g>
	<path d="M73.3,46.9V28.5c0-9.7-8.6-17.7-19.1-17.7s-19.1,8-19.1,17.7v18.4H21v52.3h68V46.9H73.3z M37.3,46.9V28.5
		c0-8.6,7.6-15.6,16.9-15.6s16.9,6.9,16.9,15.6v18.4H37.3z M23.1,87.6V49h63.7v38.5L23.1,87.6L23.1,87.6z M23.1,97v-7.2h63.7V97
		H23.1z"/>
	<path d="M55,59.4c-3.2,0-5.8,2.6-5.8,5.8v9.4c0,3.2,2.6,5.8,5.8,5.8s5.8-2.6,5.8-5.8v-9.3C60.7,62,58.2,59.4,55,59.4z M55,78.2
		c-1.9,0-3.6-1.7-3.6-3.6v-9.3c0-1.9,1.7-3.6,3.6-3.6c1.9,0,3.6,1.7,3.6,3.6v9.4C58.6,76.6,56.9,78.2,55,78.2z"/>
</g>
</svg>
