<?xml version="1.0" encoding="utf-8"?>
<!-- Generator: Adobe Illustrator 25.1.0, SVG Export Plug-In . SVG Version: 6.00 Build 0)  -->
<svg version="1.0" id="Calque_1" xmlns="http://www.w3.org/2000/svg" xmlns:xlink="http://www.w3.org/1999/xlink" x="0px" y="0px"
	 viewBox="0 0 150 150" enable-background="new 0 0 150 150" xml:space="preserve">
<g>
	<path d="M87.3,55.6L66.1,42.1c-0.4-0.2-0.9-0.2-1.3,0c-0.4,0.2-0.7,0.6-0.7,1.1v26.9c0,0.5,0.3,0.9,0.7,1.1
		c0.2,0.1,0.4,0.2,0.6,0.2c0.2,0,0.4-0.1,0.7-0.2l21.2-13.5c0.3-0.2,0.6-0.7,0.6-1.1C87.9,56.3,87.7,55.8,87.3,55.6z M84.1,56.8
		L66.7,67.9V45.7L84.1,56.8z"/>
	<path d="M23.8,22.8v104.4h102.5V22.8H23.8z M26.4,90V25.3h97.3V90H26.4z M26.4,124.6v-32h97.3v32H26.4z"/>
	<path d="M113.6,107.2H66.7v-4.4c0-0.6-0.5-1.3-1.3-1.3c-0.8,0-1.3,0.6-1.3,1.3v4.4h-8.3c-0.6,0-1.3,0.5-1.3,1.3
		c0.1,0.7,0.7,1.3,1.4,1.3h8.3v4.4c0,0.6,0.5,1.3,1.3,1.3c0.8,0,1.3-0.6,1.3-1.3v-4.4h46.8c0.6,0,1.3-0.5,1.3-1.3
		C114.9,107.9,114.4,107.2,113.6,107.2z"/>
	<path d="M36.6,101.5c-0.8,0-1.3,0.6-1.3,1.3v11.5c0,0.8,0.7,1.3,1.3,1.3s1.3-0.5,1.3-1.3v-11.5C37.9,102.1,37.4,101.5,36.6,101.5z"
		/>
	<path d="M44.3,101.5c-0.8,0-1.3,0.6-1.3,1.3v11.5c0,0.8,0.6,1.3,1.3,1.3c0.6,0,1.3-0.5,1.3-1.3v-11.5
		C45.6,102.1,45.1,101.5,44.3,101.5z"/>
</g>
</svg>
