<svg width="110" height="110" xmlns="http://www.w3.org/2000/svg" x="0px" y="0px"
	 viewBox="0 0 110 110" style="enable-background:new 0 0 110 110;" xml:space="preserve">
<style type="text/css">
	.st0{fill:#FFFFFF;}
</style>
<g>
	<path class="st0" d="M64.3,38.5c-2.9,0-5.2,0-5.7-0.1L56.4,38l3.9-6.7l-2.9-3.6l3.4-3.2l-2.1-2.1l8.8-11.1l8.8,10.8l-1.9,2.3
		l3.4,3.1l-2.9,3.2l3.9,7.6l-2.4,0C74.1,38.4,68.6,38.5,64.3,38.5z M61.4,35.5c3,0,8.3,0,12.6-0.1l-2.7-5.2l2.3-2.5l-3.2-3l2.1-2.6
		l-4.9-6l-4.8,6.1l2.4,2.3L61.5,28l2.4,3L61.4,35.5z"/>
	<path class="st0" d="M42,43.9c-6,0-11.7-0.9-12.8-7.4c-0.4-2.5-0.1-4.6,1.2-6.2c0.8-1,1.7-1.6,2.6-2c-0.4-1.2-0.6-2.7-0.2-3.9
		c0.3-1,1.2-3.1,4.2-3.7c-0.3-1.3-0.4-3.1,0.4-4.6c0.5-1,1.7-2.2,4.2-2.5c2.5-0.3,4.4,0.3,5.5,1.7c1.2,1.6,1.1,3.8,0.7,5.4
		c1.6,0.3,3.3,1.3,4.3,3.7c0.7,1.8,0.4,3.3-0.3,4.4c1.6,0.9,3.2,2.6,3.2,5.9C54.9,43.9,45.6,43.9,42,43.9z M36.1,28
		c0.5,0.3,0.8,0.9,0.7,1.6c-0.1,0.7-0.7,1.1-1.3,1.2c0,0-1.7,0.2-2.7,1.5c-0.7,0.9-0.9,2.2-0.6,3.8c0.6,3.6,3.2,4.9,9.8,4.9
		c7.1,0,9.8-1.7,9.8-6.2c0-0.4-0.1-3.6-3.1-3.7c-0.7,0-1.3-0.5-1.4-1.2c-0.2-0.7,0.2-1.4,0.8-1.7c0.4-0.2,1.8-1.1,1.1-2.7
		c-0.9-2.2-2.8-1.9-3.2-1.8c-0.5,0.1-1.1-0.1-1.5-0.5c-0.3-0.4-0.4-1-0.2-1.5c0.4-1,1.1-3.4,0.3-4.4c-0.5-0.7-1.8-0.7-2.7-0.5
		c-1.5,0.2-1.9,0.8-2,1c-0.6,1.2,0.1,3.3,0.4,3.9c0.2,0.5,0.2,1-0.1,1.5c-0.3,0.4-0.8,0.7-1.3,0.7c-1.7-0.1-2.8,0.3-3.2,1.2
		C35.2,26.1,35.8,27.7,36.1,28z"/>
	<g>
		<path d="M99.9,43.5c0-0.6,0.2-2.9-1.3-4.5c-0.6-0.7-1.7-1.5-3.5-1.5c-1.3,0-2.4,0.5-3.2,1.3c-1.7,1.8-1.6,4.7-1.5,5.3v13.2
			c0,0.5-0.7,1.8-1.6,2.9c-0.3,0.3-1.4,1.4-2.9,2.8c0,0,0,0,0,0c0,0,0,0,0,0c-3.7,3.6-9.7,9.4-10.9,10.4c-2.2,2-2.3,5.8-2.3,6.2
			v17.5c0,0.8,0.7,1.5,1.5,1.5s1.5-0.7,1.5-1.5V79.7c0-0.7,0.2-3.1,1.3-4c1.2-1.1,7.3-6.9,11-10.5c0,0,0,0,0,0
			c0.9-0.9,2.1-0.8,2.7-0.3c0.7,0.7,0.5,1.9-0.6,3.3L82,75.8c-0.6,0.6-0.6,1.5-0.1,2.1c0.3,0.3,0.7,0.5,1.1,0.5c0.4,0,0.7-0.1,1-0.4
			l8.2-7.7c0.1,0,0.1-0.1,0.1-0.2c2.7-3.3,1.9-6.1,0.3-7.5c-0.4-0.4-0.9-0.6-1.4-0.8c0.7-0.9,2.1-2.9,2.1-4.5V44.1c0,0,0-0.1,0-0.1
			c0-0.6,0-2.3,0.7-3.1c0.2-0.2,0.4-0.4,1-0.4c0.8,0,1.1,0.3,1.3,0.5c0.6,0.6,0.6,1.9,0.6,2.3c0,0.1,0,0.1,0,0.2v27
			c0,0.1,0,0.1,0,0.2c0,0.1,0.1,1.4-1.8,3.3c-2.5,2.5-7.9,9.1-8.5,9.8c-0.5,0.5-2.8,3.1-2.8,7.8v5.5c0,0.8,0.7,1.5,1.5,1.5
			s1.5-0.7,1.5-1.5v-5.5c0-3.7,1.8-5.6,1.9-5.7c0,0,0.1-0.1,0.1-0.1c0.1-0.1,5.8-7.2,8.3-9.6c2.7-2.7,2.7-5,2.7-5.6V43.5z"/>
		<path d="M35.1,73.4c-1.2-1-7.2-6.8-10.9-10.4c0,0,0,0,0,0c0,0,0,0,0,0c-1.5-1.4-2.6-2.5-2.9-2.8c-0.8-1.1-1.6-2.4-1.6-2.9V44.1
			c0-0.6,0.1-3.5-1.5-5.3c-0.8-0.9-1.9-1.3-3.2-1.3c-1.8,0-2.9,0.8-3.5,1.5c-1.5,1.6-1.3,4-1.3,4.5v26.9c0,0.6,0,3,2.7,5.6
			c2.5,2.5,8.3,9.6,8.3,9.6c0,0,0.1,0.1,0.1,0.1c0.1,0.1,1.9,1.9,1.9,5.7v5.5c0,0.8,0.7,1.5,1.5,1.5s1.5-0.7,1.5-1.5v-5.5
			c0-4.7-2.3-7.2-2.8-7.8c-0.6-0.7-6-7.3-8.5-9.8c-1.9-1.9-1.8-3.2-1.8-3.2c0-0.1,0-0.1,0-0.2v-27c0-0.1,0-0.1,0-0.2
			c0-0.4,0-1.7,0.5-2.3c0.2-0.2,0.5-0.5,1.3-0.5c0.6,0,0.8,0.2,1,0.4c0.7,0.8,0.8,2.6,0.7,3.1c0,0,0,0.1,0,0.1v13.2
			c0,1.6,1.4,3.6,2.1,4.5c-0.5,0.2-1,0.5-1.4,0.8c-1.5,1.4-2.3,4.2,0.3,7.5c0,0.1,0.1,0.1,0.1,0.2L26,78c0.3,0.3,0.7,0.4,1,0.4
			c0.4,0,0.8-0.2,1.1-0.5c0.6-0.6,0.5-1.6-0.1-2.1L20,68.2c-1.1-1.4-1.3-2.7-0.6-3.3c0.6-0.6,1.8-0.6,2.7,0.3
			c3.7,3.6,9.8,9.4,11,10.5c1,0.9,1.3,3.2,1.3,4v17.5c0,0.8,0.7,1.5,1.5,1.5s1.5-0.7,1.5-1.5V79.7C37.4,79.2,37.3,75.4,35.1,73.4z"
			/>
		<path d="M44.5,35.4l-0.9,0.7v-6c0-0.8-0.7-1.5-1.5-1.5s-1.5,0.7-1.5,1.5v3l-0.4-0.3c-0.7-0.5-1.6-0.3-2.1,0.4
			c-0.5,0.7-0.3,1.6,0.4,2.1l2.1,1.4v15.7c0,0.8,0.7,1.5,1.5,1.5s1.5-0.7,1.5-1.5V40l2.8-2.2c0.7-0.5,0.8-1.4,0.3-2.1
			C46.1,35,45.2,34.9,44.5,35.4z"/>
		<path d="M69.3,26.1v-3.4c0-0.8-0.7-1.5-1.5-1.5s-1.5,0.7-1.5,1.5v5.1l-0.5-0.4c-0.6-0.6-1.6-0.5-2.1,0.1c-0.6,0.6-0.5,1.6,0.1,2.1
			l2.5,2.3v11.6c0,0.8,0.7,1.5,1.5,1.5s1.5-0.7,1.5-1.5V30c0.1-0.1,0.1-0.1,0.2-0.1l1.3-1.3c0.6-0.6,0.6-1.5,0-2.1
			C70.4,26,69.9,25.9,69.3,26.1z"/>
	</g>
	<path class="st0" d="M66.8,42.8c-11,0-17.3,7-18.9,9C46.1,51.3,44.1,51,42,51c-12.7,0-16.8,7.8-17,8.2l2.7,1.3
		c0-0.1,3.4-6.5,14.3-6.5c9.6,0,16.6,6.8,16.7,6.9l2.1-2.1c-0.2-0.2-3.9-3.9-9.8-6.1c2.1-2.3,7.3-7,15.8-7c11.3,0,18,8.2,18.1,8.3
		l2.4-1.9C87,51.8,79.7,42.8,66.8,42.8z"/>
</g>
</svg>
