<svg xmlns="http://www.w3.org/2000/svg" viewBox="0 0 136.21 90.81"><defs><style>.cls-1{fill:#fff;}</style></defs><g id="Calque_2" data-name="Calque 2"><g id="Pictos"><g id="Calque_2-2" data-name="Calque 2"><g id="Calque_1-2" data-name="Calque 1-2"><path class="cls-1" d="M131.87,55.81H2.91a2.92,2.92,0,0,0,0,5.83H58.73A59.48,59.48,0,0,0,31.55,73.41,2.91,2.91,0,1,0,35.1,78,53.47,53.47,0,0,1,67.4,66.74c18.69,0,32,11.75,32.11,11.86a2.84,2.84,0,0,0,1.95.75,2.91,2.91,0,0,0,2-5.07A58.3,58.3,0,0,0,76,61.64h55.89a2.92,2.92,0,0,0,0-5.83Z"/><path d="M134.68,41.11,119.92,33.2V28.4s0-.09,0-.13l0-.3-.06-.3a.53.53,0,0,0,0-.12L112,2.06a2.91,2.91,0,0,0-5.57,0L99.31,25.48H35.48L28.34,2.06a2.91,2.91,0,0,0-5.57,0L15,27.55l0,.12-.06.3,0,.3s0,.08,0,.13V34L1.54,41.11a2.91,2.91,0,0,0,1.38,5.48,3,3,0,0,0,1.37-.34l10.57-5.67V87.9a2.91,2.91,0,0,0,2.91,2.91H33.32a2.91,2.91,0,0,0,2.91-2.91V31.31H98.55V87.9a2.91,2.91,0,0,0,2.91,2.91H117a2.91,2.91,0,0,0,2.91-2.91V39.81l12,6.44a3,3,0,0,0,1.38.34,2.91,2.91,0,0,0,1.38-5.48ZM109.23,12.89l3.85,12.59h-7.69Zm-83.68,0,3.84,12.59H21.71ZM30.41,85H20.69V31.31h9.72Zm83.69,0h-9.73V31.31h9.73Z"/></g></g></g></g></svg>