<?xml version="1.0" encoding="utf-8"?>
<!-- Generator: Adobe Illustrator 27.5.0, SVG Export Plug-In . SVG Version: 6.00 Build 0)  -->
<svg version="1.1" id="Capa_1" xmlns="http://www.w3.org/2000/svg" xmlns:xlink="http://www.w3.org/1999/xlink" x="0px" y="0px"
	 viewBox="0 0 324 494" style="enable-background:new 0 0 324 494;" xml:space="preserve">
<style type="text/css">
	.st0{fill:#181716;}
</style>
<path class="st0" d="M11.3,112.4h301.4c5.4,0,9.7-4.3,9.7-9.7s-4.4-9.7-9.7-9.7H179.4V38.5l23.1,23.1V33.7L169.8,0.9L169.7,1
	L137,33.9v27.9l23.1-23.1v54.3H11.3c-5.4,0-9.7,4.3-9.7,9.7S6,112.4,11.3,112.4L11.3,112.4z"/>
<path class="st0" d="M312.7,381.2H11.3c-5.4,0-9.7,4.3-9.7,9.7s4.4,9.7,9.7,9.7h133.3v54.7l-23.1-23.1V460l32.7,32.8l32.7-32.8
	v-27.9l-23.1,23.1v-54.7h148.9c5.4,0,9.7-4.3,9.7-9.7S318,381.2,312.7,381.2L312.7,381.2z"/>
<path class="st0" d="M90.1,361.3c5.4,0,9.8-4.4,9.8-9.8V214.3c2.1,11.3,6.7,39.9,8.6,51.6c0.8,4.9,5,8.3,9.7,8.3c0.5,0,1,0,1.5-0.1
	c5.3-0.8,9-5.9,8.1-11.2v-0.1c-0.8-5-7.9-49.3-9.5-56.8c-4.1-18.4-20.5-18.4-29.2-18.4h-26c-8.8,0-25.1,0-29.2,18.4
	c-1.6,7.4-8.7,51.7-9.5,56.8c-0.8,5.3,2.8,10.4,8.1,11.2c5.3,0.8,10.4-2.8,11.2-8.1c1.8-11.7,6.5-40.2,8.6-51.6v137.1
	c0,5.4,4.4,9.8,9.8,9.8s9.8-4.4,9.8-9.8v-68.7h8.4v68.7C80.3,356.9,84.7,361.3,90.1,361.3L90.1,361.3z"/>
<circle class="st0" cx="76.2" cy="158.5" r="22.1"/>
<circle class="st0" cx="195.4" cy="306.7" r="10.4"/>
<circle class="st0" cx="198.6" cy="180.6" r="22"/>
<path class="st0" d="M264.2,329.4c1.4,4.5,5.5,7.6,10.3,7.6h22.3c6.8,0,12.3-6.4,10.5-13.5c-1.2-4.9-5.9-8.1-11-8.1l0.4-0.1h-13.9
	L271,277.4c-1.4-4.5-5.5-7.6-10.3-7.6h-23.2c-4.2-4.7-9-8.7-14.6-11.8l-0.5-1.6h23.9c5.1,0,9.8-3.2,11-8.1
	c1.7-7.2-3.7-13.5-10.5-13.5h-30.3l-4.6-16.9c-1.3-4.9-5.7-8.7-10.8-8.4c-7.3,0.2-12,7.1-10.3,13.6l6.4,23.5c0,1.3,0.5,2.4,0.9,3.6
	l0.2,0.9h-2.7c-2.4,0-4.7,0.1-7.1,0.5l-5.2-19.3c-0.8-3-3.4-5.4-6.5-5.6c-5.1-0.2-8.6,4.4-7.4,8.9l5.2,19.5
	c-20.1,8.2-34.3,28.1-34.3,51.2c0,29.1,23.8,53.8,53,54.9c31.4,1.3,57.4-23.9,57.4-55c0-5.1-0.7-9.9-2-14.7h3.6L264.2,329.4
	L264.2,329.4z M195.9,346.3c-22.2,0-40.1-17.9-40.1-40.1s17.9-40.1,40.1-40.1s40.1,17.9,40.1,40.1S218.1,346.3,195.9,346.3z"/>
<ellipse class="st0" cx="293.1" cy="141.1" rx="10.3" ry="11.1"/>
<ellipse class="st0" cx="293.1" cy="174.3" rx="10.3" ry="11.1"/>
<ellipse class="st0" cx="293.1" cy="207.5" rx="10.3" ry="11.1"/>
</svg>
