<?xml version="1.0" encoding="utf-8"?>
<!-- Generator: Adobe Illustrator 28.3.0, SVG Export Plug-In . SVG Version: 6.00 Build 0)  -->
<svg version="1.1" id="ds44-icons" xmlns="http://www.w3.org/2000/svg" xmlns:xlink="http://www.w3.org/1999/xlink" x="0px" y="0px"
	 viewBox="0 0 110 110" style="enable-background:new 0 0 110 110;" xml:space="preserve">
<path d="M83.3,28.7c-0.4-1.4-1.9-2.1-3.2-1.7l-15.7,4.8l-0.2-1.1l15.5-10.2c1.2-0.8,1.5-2.3,0.8-3.5c-0.7-1.2-2.3-1.6-3.6-0.8l0,0
	l-15.8,9.9l-0.9-0.8l11.3-13.2c0.4-0.5,0.6-1.1,0.6-1.7c0-1.4-1.2-2.6-2.6-2.5c-0.7,0-1.4,0.3-1.8,0.8L54.2,23.1l-4.3,2.1l-2.5,0
	l-1.2-1.5l0.3-6.7c0-0.1,0-0.2,0-0.3l-0.4-5.9c-0.1-1.3-1.2-2.4-2.6-2.4c-1.4,0-2.6,1.1-2.6,2.6l0,6l-1.4,6.1c0,0.1,0,0.2-0.1,0.3
	L38.7,31l-5.4,14c-0.5,1.2,0,2.6,1.2,3.2l9.3,5.1c1.1,0.6,2.5,0.3,3.3-0.7l2.5-3.3l12.7-4.5L77,47.5c1.3,0.2,2.6-0.6,3-1.9
	c0.4-1.4-0.5-2.8-1.9-3.1l-13.2-3.3l0.1-1.4l16.8-5.8C83,31.4,83.7,30,83.3,28.7L83.3,28.7z"/>
<path d="M76.4,72.1l-19.1-4.3l-4-2.7L52.1,63l0.7-1.8l5.9-3.1c0.1,0,0.2-0.1,0.3-0.2l4.9-3.3c0.7-0.5,1.1-1.3,1.1-2.2
	c0-1.4-1.2-2.6-2.6-2.5c-0.4,0-0.9,0.1-1.2,0.3l-5.2,3l-6,1.8c-0.1,0-0.2,0.1-0.3,0.1l-6.9,3.1l-14.8,2.4c-1.3,0.2-2.2,1.3-2.2,2.6
	l0.2,10.6c0,1.3,1,2.4,2.3,2.5l4.1,0.5l10.2,8.8l5.1,14.1c0.5,1.3,1.8,2,3.1,1.6c1.4-0.4,2.2-1.8,1.8-3.2L48.7,85l1.3-0.7l13.4,11.6
	c1,0.9,2.6,0.8,3.6-0.2c1-1,0.9-2.7-0.1-3.7l-12-11.2l0.8-0.7l16.6,8.4c1.2,0.6,2.8,0.1,3.4-1.1c0.7-1.3,0.2-2.8-1-3.5l-0.1,0h0
	l-16.5-8.8l0.2-1.2l17,3.2c1.4,0.2,2.7-0.6,3-2C78.7,73.8,77.8,72.4,76.4,72.1L76.4,72.1z"/>
</svg>
