<svg width="110" height="110" xmlns="http://www.w3.org/2000/svg" x="0px" y="0px"
	 viewBox="0 0 110 110" style="enable-background:new 0 0 110 110;" xml:space="preserve">
<g id="arrow-up">
	<g>
		<g>
			<path d="M58,93.4c0.4,0,0.8-0.1,1.1-0.4l36.1-36.1c0.4-0.3,0.5-0.8,0.5-1.1c0-0.5-0.2-0.9-0.4-1.1L59.1,18.5
				c-0.3-0.3-0.7-0.4-1.1-0.4c-0.4,0-0.8,0.2-1.1,0.5c-0.3,0.3-0.4,0.6-0.4,1c0,0.3,0.1,0.8,0.4,1l33.5,33.5H15.9
				c-0.8,0-1.5,0.7-1.5,1.5s0.7,1.6,1.5,1.6h74.5L56.8,90.8c-0.3,0.3-0.4,0.6-0.4,1c0,0.4,0.2,0.8,0.5,1.1
				C57.2,93.3,57.6,93.4,58,93.4z"/>
		</g>
	</g>
</g>
</svg>
