<svg width="110" height="110" xmlns="http://www.w3.org/2000/svg" x="0px" y="0px"
	 viewBox="0 0 110 110" style="enable-background:new 0 0 110 110;" xml:space="preserve">
<style type="text/css">
	.st0{fill:#FFFFFF;}
</style>
<g>
	<g>
		<path d="M79.6,92.3c-0.6-0.5-1.5-0.4-2,0.1c-0.8,0.9-3.5,3.5-5.8,3.8c-1.9,0.3-8.3-0.2-13.5-0.5c-3.7-0.2-6.8-0.5-8.5-0.5
			c-3.3,0-12.5-2.7-19.9-5.1c-6.7-2.2-7.2-3.9-7.5-5.7c0.2-1,0.6-1.2,0.8-1.3c1-0.6,3.2,0.1,4.9,0.7c0.5,0.2,1,0.3,1.5,0.5
			c12.3,3.5,15.8,3.4,18.1,3.4c0.2,0,0.5,0,0.7,0c2.7,0,6.1-2.4,6.5-2.6c0.4-0.3,0.6-0.8,0.6-1.3c0-0.5-0.4-0.9-0.8-1.1l-6.2-2.9
			c-1-0.4-3.3-1.7-3.5-2.9c0-0.2-0.1-0.6,0.6-1.4c1-0.2,4.6,1,8,2.5c0.1,0,0.1,0.1,0.2,0.1c0.1,0,6.1,1.9,9.3,3.3
			c3.5,1.5,7.9,1.5,8.1,1.5h7.1c0.8,0,1.4-0.6,1.4-1.4s-0.6-1.4-1.4-1.4h-7.1c0,0-4,0-7-1.3c-3.2-1.4-8.7-3.1-9.5-3.3
			c-5.9-2.8-9.6-3.4-11-2c-1.6,1.6-1.7,3.1-1.5,4c0.6,3,4.8,4.7,5.2,4.9L51,84c-0.9,0.5-1.9,0.8-2.7,0.8c-0.3,0-0.5,0-0.8,0
			c-0.5,0-1.1,0-1.9,0l-3.3-5.1c-0.2-0.4-2.4-3.5-5.4-3.5c-1.4,0-2.8,0.7-3.5,1.9c-0.7,1.2-0.8,2.6-0.1,3.9l0.2,0.4
			c-1-0.3-2.1-0.6-3.3-0.9c-0.4-0.1-0.9-0.3-1.4-0.4c-2.4-0.8-5.1-1.7-7.2-0.4c-1.1,0.6-1.8,1.8-2.2,3.4c0,0.2,0,0.3,0,0.5
			c0.6,3.5,2.2,5.8,9.5,8.2c3.7,1.2,16.2,5.3,20.8,5.3c1.6,0,4.9,0.2,8.4,0.4c4.4,0.3,8.9,0.6,11.8,0.6c1,0,1.7,0,2.3-0.1
			c3.8-0.5,7.3-4.6,7.5-4.7C80.2,93.7,80.2,92.8,79.6,92.3z M35.8,80.8c-0.3-0.5-0.1-0.9,0-1.2c0.2-0.4,0.7-0.6,1.1-0.6
			c1.3,0,2.7,1.6,3.1,2.2l2,3.2c-1.3-0.2-2.8-0.5-4.8-1L35.8,80.8z"/>
		<path class="st0" d="M89.1,104.7H78.7c-0.8,0-1.4-0.6-1.4-1.4v-27c0-0.8,0.6-1.4,1.4-1.4h10.4c0.8,0,1.4,0.6,1.4,1.4v27
			C90.5,104.1,89.9,104.7,89.1,104.7z M80.1,101.9h7.6V77.7h-7.6V101.9z"/>
	</g>
	<path d="M71.3,37.6c-0.4,0-0.9-0.1-1.3-0.3c-0.9-0.4-1.3-0.7-1.6-1.2c-0.2-0.4-0.3-0.9-0.5-1.4c-0.1-0.4-0.2-1-0.4-1.2
		c-0.9-0.8-0.7-2.2-0.5-3.5c0-0.2,0.1-0.6,0.1-0.8c-0.2-0.2-0.6-0.4-0.9-0.6c-0.8-0.5-1.5-1-1.9-1.6c0,0,0,0,0,0
		c-0.1,0-0.3-0.1-0.5-0.1c-0.3,0-0.6-0.1-1-0.2c-0.5-0.1-0.6-0.1-0.6-0.1c0,0,0,0-0.1,0c-0.3,0.1-0.7,0.2-1.5,0.4
		c-0.9,0.2-1.8,0.3-2.3-0.6c-0.2-0.3-0.4-1,0.3-1.8c0.1-0.1,0.1-0.1,0.1-0.2c-0.3,0-0.7-0.1-1.1-0.4c0,0-0.3,0-1,0.7
		c-0.5,0.5-2.1,1.3-3.4,1.3c0,0,0,0,0,0c-0.2,0.3-0.4,0.6-0.6,0.9c-0.7,0.9-3.2,2.8-4.9,2.2c-0.1,0-0.2,0-0.3,0.1
		c-0.6,0.1-1.6,0.3-2.8,0c-1.1-0.3-1.4-1.1-1.4-1.5c-0.2-1.3,1.1-2.2,2.4-3c0.2-0.2,0.5-0.3,0.6-0.4c0.2-0.2,0.9-1.3,1.5-2.2
		l0.2-0.4l0.4-0.2c0.1-0.1,0.4-0.2,0.7-0.4c-0.1,0-0.3-0.1-0.4-0.2c-0.7-0.3-1.3-0.9-1.3-1.7c-0.1-0.8,0.4-1.5,1.1-1.9l1.2-0.6
		c0.1-0.5,0.4-1.2,0.6-1.7c0.8-1.4,2.2-1.1,3-1c0.3,0.1,0.7,0.1,1.1,0.2c0.3,0,0.5,0,0.6,0c0,0,0.1-0.1,0.1-0.2
		c0-0.1-0.1-0.1-0.1-0.1c-0.6-0.7-1.6-1.7-2-3.5c-0.7-3,0.8-4.7,1.8-5.2l0.7,1.2l0.7,1.2c-0.1,0.1-0.7,0.6-0.4,2.2
		c0.2,1.1,0.8,1.7,1.3,2.2c0.5,0.6,1.7,1.8,0.7,3.3l-0.1,0.2c-0.9,1.3-1.5,1.7-3.5,1.5c-0.5-0.1-1-0.1-1.3-0.2c-0.1,0-0.1,0-0.2,0
		c-0.2,0.5-0.3,1-0.4,1.2l-0.2,0.6l-0.7,0.4c0.1,0.1,0.2,0.2,0.4,0.3l0.3-0.1l0.6,0.8c0.5,0.9,0,1.6-0.5,2.1
		c-0.7,0.8-1.6,1.4-2.1,1.6c-0.4,0.7-1.3,1.9-1.7,2.3c0,0,0,0-0.1,0.1c0.1,0,0.2,0,0.4,0.1c0.5-0.1,1.5-0.7,1.9-1.2
		c0.2-0.2,0.3-0.5,0.5-0.7c0.4-0.6,0.8-1.3,1.6-1.4c0.3-0.1,0.7,0,1,0.1c0.3,0,1-0.3,1.2-0.5c1.8-1.8,3.3-1.6,4.3-1.1
		c0.1,0.1,0.2,0.1,0.4,0.1c1.3,0,2,0.7,2.2,2.2c0.5-0.1,0.9-0.1,1.8,0.1c0.4,0.1,0.6,0.1,0.9,0.2c0.9,0.1,1.8,0.3,2.5,1.4
		c0.1,0.1,0.6,0.5,1,0.7c1,0.6,1.9,1.3,2.1,2.3c0.1,0.5,0,1.2-0.1,1.9c0,0.3-0.1,0.9-0.1,1.3c0.6,0.6,0.8,1.6,1,2.5
		c0,0.2,0.1,0.4,0.1,0.5c0.1,0,0.2,0.1,0.3,0.1c0.2,0.1,0.3,0,0.4,0c0.1,0,0.2-0.1,0.3-0.3c0.1-0.3,0.3-0.6,0.5-1l0.4-0.8
		c1.1-2.1,1.8-3.5,3.2-3.6c0.2,0,0.4-0.1,0.6-0.1c0.6-0.1,1.5-0.3,2.5,0c0.9,0.2,2.4,0.8,3,1h1v2.8h-1.5l-0.2-0.1
		c-0.5-0.2-2.1-0.8-2.9-1c-0.4-0.1-0.9,0-1.4,0.1c-0.2,0-0.5,0.1-0.7,0.1c-0.3,0.3-0.8,1.3-1.2,2.1l-0.4,0.8
		c-0.2,0.3-0.3,0.6-0.4,0.8c-0.3,0.8-1,1.5-1.8,1.8C72.1,37.5,71.7,37.6,71.3,37.6z M67.7,33.6C67.7,33.6,67.7,33.6,67.7,33.6
		C67.7,33.6,67.7,33.6,67.7,33.6z M47.6,29.1C47.6,29.1,47.6,29.1,47.6,29.1C47.6,29.1,47.6,29.1,47.6,29.1z M52.2,25.7
		C52.3,25.7,52.3,25.7,52.2,25.7C52.3,25.7,52.3,25.7,52.2,25.7z M58.7,24L58.7,24L58.7,24z M52.2,20.4
		C52.2,20.4,52.2,20.4,52.2,20.4C52.2,20.4,52.2,20.4,52.2,20.4z M55.4,13.9C55.4,13.9,55.4,13.9,55.4,13.9L55.4,13.9z"/>
	<g>
		<path class="st0" d="M69,37.9c-0.2-0.2-0.4-0.3-0.7-0.6c-1-0.7-1.7-1.3-1.6-2.3c0.2-3-1.2-3.5-3.3-3.9c-0.3-0.1-0.7-0.1-1.1-0.2
			c-1.6-0.4-4.4-0.5-4.9-0.5c-0.2,0-0.3-0.1-0.5-0.1c-1.4-0.3-3.5-0.7-5.1,0.2c-0.3,0.2-0.6,0.3-1,0.5c-1.8,0.9-4.3,2.1-5.2,3.8
			c-1.1,1.9-2,5.1-1,7.8c1,2.9,4.1,4.9,7.1,4.6c2.4-0.3,3.6-0.2,4.2-0.2c-0.2,1.3-0.3,3.8-0.3,8.5c0,1.8,0,4.1-0.1,4.6
			c-0.2,0.5-0.7,2.1-0.1,3.3c0.4,0.7,1.1,1.1,1.9,1.2c0.1,0,0.2,0,0.3,0c2.6,0,9-2.6,12-9.9c0.3-0.8,1.6-6,2.1-7.6l1.2-5.5l-0.5-0.5
			C72.2,41,69.8,38.6,69,37.9z M68.9,46.5c-0.8,3.2-1.7,6.7-1.9,7.2c-2.6,6.3-7.8,8-9.2,8.2c0-0.2,0.1-0.5,0.2-0.7
			c0.2-0.5,0.3-1.1,0.3-5.6c0-2.8,0.1-7.5,0.3-8.3c0.3-0.7,0.2-1.4-0.2-1.9c-0.5-0.7-1.6-1.1-3.6-1.1c-1,0-2.1,0.1-3.6,0.2
			c-1.9,0.2-3.6-1.2-4.1-2.8c-0.6-1.6,0-4,0.8-5.4c0.5-0.9,2.8-2,4-2.6c0.5-0.2,0.9-0.4,1.2-0.6c0.7-0.4,2.3-0.1,3.2,0.1
			c0.3,0.1,0.5,0.1,0.7,0.1l0.2,0c0.8,0,3.3,0.1,4.5,0.4c0.4,0.1,0.8,0.2,1.1,0.2c0.4,0.1,0.8,0.2,1,0.2c0,0.1,0,0.3,0,0.7
			c-0.2,2.6,1.8,4,2.8,4.8c0.2,0.1,0.3,0.2,0.5,0.4c0.5,0.5,1.9,1.8,2.7,2.6L68.9,46.5z"/>
		<path class="st0" d="M52.5,5.3c-5.5,0-10.7,1.4-15.2,3.9l0,0c-0.2,0.1-0.8,0.4-1.4,0.8c-9.1,5.6-15.2,15.7-15.2,27.2
			C20.6,54.7,34.9,69,52.5,69s31.9-14.3,31.9-31.9S70.1,5.3,52.5,5.3z M34.1,14.7c0.1,0.1,0.1,0.2,0.2,0.3c0.3,0.4,0.5,0.7,0.7,1
			c0.2,0.3,0.5,0.6,0.6,0.9c-1.6,0.9-2,1.8-2.3,2.4c-0.1,0.1-0.1,0.3-0.2,0.3c-0.4,0.4-0.5,1-0.3,1.5c0.3,1,1.3,1.2,2.7,1.5
			c0.1,0,0.2,0,0.3,0.1c-0.5,0.8-0.9,1.3-1.1,1.6c-0.2,0-0.6,0.1-0.9,0.1c-2.2,0.2-5.5,0.4-6.7,2.4c-0.7,1.1-0.7,2.1-0.7,2.9
			c0,0.8-0.1,0.8-0.4,1c-0.6,0.4-1.5,1-2.2,1.6C25.1,25.1,28.8,19,34.1,14.7z M24.6,45.1c1.4-0.4,3.9-0.6,5.5,1.5
			c1.4,1.8,2.6,3.7,3.5,5.1c1.2,2,2,3.3,3.1,3.8c0.4,0.2,0.9,0.5,1.5,0.9c-0.3,0.2-0.5,0.3-0.6,0.4l-0.4,0l-0.4,0.5
			c-0.2,0.2-0.7,0.9-0.3,4C30.8,57.6,26.5,51.9,24.6,45.1z M52.5,66.2c-4.1,0-8.1-0.9-11.6-2.4c-0.8-1-1.5-2.1-1.6-2.4
			c-0.1-0.6-0.2-1.5-0.2-2.1c0.2-0.1,0.4-0.2,0.6-0.4c0.8-0.5,1.2-1.4,1.2-2.3c0-0.9-0.4-1.8-1.2-2.3c-0.7-0.5-1.4-0.9-1.8-1.1
			c-0.4-0.2-1.2-1.7-1.9-2.8c-1-1.6-2.1-3.5-3.7-5.4c-2.4-3-5.9-3.1-8.4-2.5c-0.3-1.7-0.5-3.5-0.5-5.3c0-0.4,0-0.8,0-1.1
			c0.9-0.7,2.9-2.3,4.1-3.1c1.6-1,1.6-2.4,1.7-3.3c0-0.6,0-1,0.3-1.6c0.3-0.5,1.8-0.8,4.5-1c1-0.1,1.5-0.1,1.9-0.3
			c0.3-0.2,1-0.5,3.1-4c0.3-0.5,0.3-1,0.1-1.5c-0.4-0.9-1.5-1.2-2.9-1.5c0.2-0.2,0.4-0.4,0.8-0.6c0.3-0.2,1.3-0.7,1.5-1.8
			c0.3-1.2-0.5-2.1-1.3-3.2c-0.2-0.3-0.4-0.6-0.7-0.9c0,0,0-0.1,0-0.1c0-0.2,0.4-0.6,0.9-1c4.4-2.7,9.5-4.2,15.1-4.2
			c16,0,29.1,13,29.1,29.1S68.5,66.2,52.5,66.2z"/>
	</g>
</g>
</svg>
