<svg width="110" height="110" version="1.1" id="ds44-icons" xmlns="http://www.w3.org/2000/svg" xmlns:xlink="http://www.w3.org/1999/xlink" x="0px" y="0px"
	 viewBox="0 0 110 110" style="enable-background:new 0 0 110 110;" xml:space="preserve">
<g>
	<path d="M89.4,11.9c-1.4-1.6-3.2-2.6-5.2-2.6c-4.5,0-5.4,4-12.6,4c-7.2,0-7.6-2.2-11-2.2c-3.5,0-5.5,2.6-5.5,2.6S53,11,49.6,11
		c-3.5,0-4.1,2.2-11,2.2c-7.4,0-8.3-4-12.8-4c-2,0-3.8,1-5.2,2.6c-1.3,1.7-2.1,4-2.1,6.5c0,5.6,3.2,6.7,3.2,15.7s-1.8,9.4-1.8,13.9
		s2.1,6.9,2.1,6.9s-2.1,2.5-2.1,6.9s1.8,5.2,1.8,13.8c0,9.1-3.2,10.3-3.2,15.8c0,2.5,0.8,4.8,2.1,6.5c1.4,1.6,3.2,2.6,5.2,2.6
		c4.5,0,5.4-4,12.6-4s7.6,2.2,11,2.2c3.5,0,5.5-2.6,5.5-2.6s2,2.6,5.5,2.6c3.5,0,4.1-2.2,11-2.2s8.1,4,12.6,4c2,0,3.8-1,5.2-2.6
		c1.5-1.7,2.3-4,2.3-6.5c0-5.6-3.2-6.7-3.2-15.7s1.8-9.4,1.8-13.8c0-4.4-2.1-6.9-2.1-6.9s2.1-2.5,2.1-6.9s-1.8-5.2-1.8-13.9
		s3.2-10.2,3.2-15.7C91.6,15.9,90.7,13.7,89.4,11.9L89.4,11.9L89.4,11.9z M77.8,83.5H32.2V26.5h45.7V83.5z"/>
	<path d="M68.4,76.6H41.6c-2.3,0-4.1-1.8-4.1-4.1v-35c0-2.3,1.8-4.1,4.1-4.1h26.8c2.3,0,4.1,1.8,4.1,4.1v35
		C72.5,74.8,70.7,76.6,68.4,76.6L68.4,76.6z M41.6,35.5c-1.1,0-2,0.9-2,2v35c0,1.1,0.9,2,2,2h26.8c1.1,0,2-0.9,2-2v-35
		c0-1.1-0.9-2-2-2H41.6z"/>
</g>
</svg>
