<svg width="110" height="110" xmlns="http://www.w3.org/2000/svg" x="0px" y="0px"
	 viewBox="0 0 110 110" style="enable-background:new 0 0 110 110;" xml:space="preserve">
<style type="text/css">
	.st0{fill:#FFFFFF;}
</style>
<g>
	<g>
		<path class="st0" d="M35,50.1c-7.1,0-12.9-5.8-12.9-12.9S27.9,24.2,35,24.2S47.9,30,47.9,37.2S42.1,50.1,35,50.1z M35,27.2
			c-5.5,0-9.9,4.5-9.9,9.9s4.5,9.9,9.9,9.9s9.9-4.5,9.9-9.9S40.5,27.2,35,27.2z"/>
		<path d="M35,43.9c-3.7,0-6.7-3-6.7-6.7s3-6.7,6.7-6.7s6.7,3,6.7,6.7S38.7,43.9,35,43.9z M35,33.4c-2,0-3.7,1.7-3.7,3.7
			s1.7,3.7,3.7,3.7s3.7-1.7,3.7-3.7S37,33.4,35,33.4z"/>
	</g>
	<path class="st0" d="M58.7,99.2c-0.8,0-1.5-0.7-1.5-1.5c0-10.9,4.8-18.1,5-18.4c3.1-5,14.9-1.6,17.8-0.7c0.3,0,0.4-0.1,0.5-0.2
		c0.8-0.8,0.7-3.6,0.4-5.2c-0.1-0.4,0-0.8,0.2-1.1L82,71c-0.3-0.1-0.5-0.3-0.7-0.5c-0.4-0.5-0.4-1.2-0.1-1.7l1.4-2
		c0-0.1,0.1-0.1,0.2-0.2c-0.1-0.1-0.3-0.3-0.4-0.4c-0.3-0.2-0.5-0.5-0.6-0.9c-0.4-1.5-0.2-2.6,0.6-3.3c0.8-0.7,1.8-0.7,2.6-0.5
		c0,0,0.1,0,0.1,0c-0.1-0.3-0.2-0.8-0.4-1.2l-4.7-6.7c-0.2-0.3-0.3-0.8-0.2-1.2c3.8-17-6.7-24.7-7.2-25.1c-0.7-0.5-0.8-1.4-0.4-2.1
		s1.4-0.8,2.1-0.4c0.5,0.4,12.3,8.9,8.5,27.5l4.4,6.2c0,0.1,0.1,0.1,0.1,0.2c0.3,0.7,1.4,3.1,0.2,4.6c-0.4,0.5-1.2,1.1-2.6,1
		c0.4,0.5,0.8,1.1,0.9,1.9c0.1,0.6,0,1.4-0.8,2.2l-0.1,0.2c0.4,0.5,0.8,1.3,0.4,2.7c0,0.1-0.1,0.2-0.2,0.4l-1,1.5
		c0.2,1.6,0.5,5.2-1.3,7.1c-0.8,0.9-1.9,1.3-3.2,1.2c-0.1,0-0.2,0-0.3-0.1c-5-1.6-13.1-2.9-14.5-0.6c-0.1,0.1-4.5,6.8-4.5,16.7
		C60.2,98.5,59.5,99.2,58.7,99.2z"/>
	<path class="st0" d="M68.3,49.7c-0.3,0-0.6-0.1-0.8-0.2c-0.7-0.4-0.9-1.4-0.5-2.1c2.7-4.3,6.9-3.9,8.8-3c0.8,0.3,1.1,1.2,0.7,2
		c-0.3,0.7-1.2,1.1-2,0.7c-0.3-0.1-3-1.2-5,1.9C69.3,49.4,68.8,49.7,68.3,49.7z"/>
	<path d="M45.1,101.2c-0.1,0-0.2,0-0.4,0c-0.7-0.2-1.2-0.8-1.1-1.6c0.2-3.6-0.1-9.9-2-11.7c-0.4-0.3-0.8-0.4-1.3-0.4
		c-0.8,0.1-1.6-0.4-1.7-1.2c-0.1-0.8,0.4-1.6,1.2-1.7c1.4-0.2,2.8,0.1,3.8,1.1c1.6,1.4,2.3,4,2.7,6.6c6.6-20.7-4.2-30.4-4.3-30.5
		c-0.5-0.4-0.6-1.1-0.4-1.6c0.2-0.6,0.8-1,1.4-1c8-0.1,8.9-7.9,9-8.2c0-0.1,0-0.1,0-0.2c3.2-15,9.5-24.7,16.7-26
		c7.4-1.3,7.4-2.9,7.4-4l0-0.2c0-2.5-0.8-4.5-2.6-6c-2.9-2.3-9.5-4.4-25.2-0.9c-0.8,0.2-1.6-0.3-1.8-1.1c-0.2-0.8,0.3-1.6,1.1-1.8
		c13.5-3,22.9-2.5,27.8,1.5c3.1,2.6,3.8,6,3.7,8.4l0,0.2c0,3.3-1.7,5.5-9.9,6.9c-5.8,1-11.4,10.2-14.3,23.6c-0.4,3.3-2.7,9-8.9,10.5
		c3.7,4.8,10.1,17.2,0.5,38.5C46.2,100.8,45.7,101.2,45.1,101.2z"/>
</g>
</svg>
