<svg width="110" height="110" xmlns="http://www.w3.org/2000/svg" x="0px" y="0px"
	 viewBox="0 0 110 110" style="enable-background:new 0 0 110 110;" xml:space="preserve">
<style type="text/css">
	.st0{fill:none;}
	.st1{fill:#FFFFFF;}
</style>
<g>
	<path class="st0" d="M55,14.5c7.5,0,13.6,6.1,13.6,13.6c0,0.4,0,0.9-0.1,1.3l5,0c-0.9-4.1-3.6-14.9-9.6-17.7
		c-2.4-1.1-5.1-0.8-8.3,1.1c-0.3,0.2-0.7,0.2-1,0.2c-0.1,0-5.9-1.1-10.8,2.5c-3.7,2.7-6,7.4-6.9,13.9l4.4,0c0-0.4-0.1-0.8-0.1-1.3
		C41.4,20.6,47.5,14.5,55,14.5z"/>
	<circle class="st0" cx="55.2" cy="63.2" r="14.8"/>
	<path d="M59.3,29.4l0.4,0C59.6,29.3,59.5,29.3,59.3,29.4z"/>
	<g>
		<path d="M61.8,39.9c2.9-1.7,5.2-4.4,6.2-7.7l7.3,0c0,0,0,0,0,0c0.4,0,0.8-0.2,1.1-0.5c0.3-0.3,0.4-0.7,0.3-1.1
			C76.6,29.9,74,13.2,65.2,9.1c-3.2-1.5-6.7-1.2-10.5,0.9c-1.8-0.2-7.4-0.6-12.5,3.1c-4.7,3.4-7.4,9.3-8.2,17.5
			c0,0.4,0.1,0.8,0.4,1.1c0.3,0.3,0.7,0.5,1.1,0.5l6.5,0c1,3.3,3.3,6,6.2,7.7c-11.4,3-19.9,13.4-19.9,25.8v0.2
			c0,0.8,0.6,1.4,1.4,1.4c0.8,0,1.4-0.6,1.4-1.4v-0.2c0-13.1,10.7-23.8,23.8-23.8c13.1,0,23.8,10.7,23.8,23.8v0.2
			c0,0.8,0.6,1.4,1.4,1.4s1.4-0.6,1.4-1.4v-0.2C81.7,53.3,73.2,42.9,61.8,39.9z M41.4,29.3l-4.4,0c0.9-6.5,3.2-11.2,6.9-13.9
			c4.9-3.6,10.7-2.5,10.8-2.5c0.3,0.1,0.7,0,1-0.2c3.1-1.9,5.8-2.2,8.3-1.1c5.9,2.8,8.7,13.6,9.6,17.7l-5,0c0-0.4,0.1-0.9,0.1-1.3
			c0-7.5-6.1-13.6-13.6-13.6c-7.5,0-13.6,6.1-13.6,13.6C41.4,28.5,41.4,28.9,41.4,29.3z M45,32.2c-0.4-0.9-0.6-1.8-0.7-2.8
			c0-0.4-0.1-0.8-0.1-1.3c0-5.9,4.8-10.8,10.8-10.8s10.8,4.8,10.8,10.8c0,0.4,0,0.9-0.1,1.3c-0.1,1-0.4,1.9-0.7,2.8
			c-1.6,3.9-5.5,6.6-9.9,6.6C50.5,38.9,46.7,36.1,45,32.2z"/>
		<path d="M60.2,29.5c-0.1-0.1-0.3-0.1-0.4-0.1l-0.4,0c-0.4,0.1-0.8,0.3-1,0.8c-0.5,0.9-0.9,1.6-1.3,2.1c-0.7,0.9-1.3,1.2-1.5,1.3
			c-0.6-0.3-1.4,0-1.8,0.6c-0.4,0.7-0.2,1.5,0.5,1.9c0.1,0.1,0.6,0.3,1.2,0.3c0.3,0,0.6,0,0.9-0.1c1.4-0.4,2.7-1.8,4-4
			c0.1-0.3,0.3-0.5,0.4-0.8C61.2,30.7,60.9,29.9,60.2,29.5z"/>
	</g>
	<path class="st1" d="M55.2,79.1c-0.8,0-1.4,0.6-1.4,1.4v0.2c0.5,0,0.9,0.1,1.4,0.1h0v-0.3v0.3c0.5,0,1,0,1.4-0.1v-0.2
		C56.6,79.7,56,79.1,55.2,79.1z"/>
	<g>
		<path class="st1" d="M55.2,79.1c0.8,0,1.4,0.6,1.4,1.4v0.2c9-0.7,16.2-8.3,16.2-17.5c0-9.7-7.9-17.6-17.6-17.6
			s-17.6,7.9-17.6,17.6c0,9.2,7.1,16.8,16.2,17.5v-0.2C53.7,79.7,54.4,79.1,55.2,79.1z M40.4,63.2c0-8.1,6.6-14.8,14.8-14.8
			s14.8,6.6,14.8,14.8S63.3,78,55.2,78S40.4,71.4,40.4,63.2z"/>
		<path class="st1" d="M55.2,80.8L55.2,80.8c-0.5,0-1,0-1.4-0.1v10.1h-7c-0.8,0-1.4,0.6-1.4,1.4c0,0.8,0.6,1.4,1.4,1.4h7v6.7
			c0,0.8,0.6,1.4,1.4,1.4c0.8,0,1.4-0.6,1.4-1.4v-6.7h7c0.8,0,1.4-0.6,1.4-1.4c0-0.8-0.6-1.4-1.4-1.4h-7V80.8
			C56.1,80.8,55.6,80.8,55.2,80.8z"/>
	</g>
</g>
</svg>
