<svg width="110" height="110" version="1.1" id="ds44-icons" xmlns="http://www.w3.org/2000/svg" xmlns:xlink="http://www.w3.org/1999/xlink" x="0px" y="0px"
	 viewBox="0 0 110 110" style="enable-background:new 0 0 110 110;" xml:space="preserve">
<g>
	<path d="M21.1,60.5L21.1,60.5c-1,1.7-2.6,2.4-4.4,2.4c-2.2,0-3.9-0.8-5.2-2.1c-1.3-1.4-2-3.4-2-5.8c0-2.6,0.9-4.9,2.6-6.3
		c1.2-1,2.8-1.6,4.8-1.6c3.8,0,6.1,2,6.6,4.9h-3.5C19.7,50.9,18.8,50,17,50c-2.7,0-4,2.2-4,5c0,2.9,1.6,5,4,5c2.1,0,3.4-1.5,3.5-3
		V57h-3.1v-2.6h6.4v8.1h-2.4L21.1,60.5L21.1,60.5z"/>
	<path d="M26.1,47.4h7.2c3,0,5.2,1.6,5.2,4.4c0,1.8-0.9,3.1-2.8,3.7v0.1c1.5,0.5,2.2,1.3,2.4,2.9c0.3,2.1,0.2,3.8,0.7,4v0.2h-3.4
		c-0.4-0.2-0.4-1.8-0.6-3.5c-0.2-1.5-0.9-2.3-2.6-2.3h-2.6v5.8h-3.5L26.1,47.4L26.1,47.4z M29.6,54.2h3.1c1.6,0,2.4-0.8,2.4-2
		s-0.8-2.1-2.3-2.1h-3.2V54.2z"/>
	<path d="M45.3,47.4h3.6l5.5,15.2h-3.7l-1-2.9h-5.5l-0.9,2.9h-3.5L45.3,47.4L45.3,47.4z M45.1,57.2H49l-0.9-2.8c-0.7-2.1-1-4-1-4h0
		c0,0-0.5,2.6-1,4L45.1,57.2L45.1,57.2z"/>
	<path d="M53.4,47.4H66v3h-4.5v12.2h-3.5V50.3h-4.5V47.4L53.4,47.4z"/>
	<path d="M67.6,57.3v-9.9h3.5v10C71.1,59,72,60,74,60c1.8,0,2.8-1.1,2.8-2.7v-9.9h3.5v9.9c0,3.5-2.2,5.6-6.3,5.6
		C69.9,62.8,67.6,60.8,67.6,57.3L67.6,57.3z"/>
	<path d="M82.6,47.4h3.5v15.2h-3.5V47.4L82.6,47.4z"/>
	<path d="M88,47.4h12.6v3H96v12.2h-3.5V50.3H88L88,47.4L88,47.4z"/>
</g>
</svg>
