<svg width="110" height="110" version="1.1" id="ds44-icons" xmlns="http://www.w3.org/2000/svg" xmlns:xlink="http://www.w3.org/1999/xlink" x="0px" y="0px"
	 viewBox="0 0 110 110" style="enable-background:new 0 0 110 110;" xml:space="preserve">
<path d="M78.9,44.6c-0.4,1.9-1.8,3.3-3.6,3.6C77.1,47.9,78.5,46.4,78.9,44.6c0.1-0.3,0.1-0.7,0.1-1c0-2.6-2-4.7-4.5-4.7h-9.8
	c-2.5,0-4.5,2.1-4.5,4.7c0,0.4,0,0.7,0.1,1.1l-10.1,0c0.1-0.3,0.1-0.7,0.1-1.1c0-2.6-2-4.7-4.5-4.7h-9.8c-2.5,0-4.5,2.1-4.5,4.7
	c0,0.4,0,0.8,0.1,1.1l-9.1,0c7-26.6,14.8-23.9,14.8-23.9s23.6-0.8,34.5-0.1c10.9,0.7,15.3,23.9,15.3,23.9L78.9,44.6L78.9,44.6z
	 M84.2,64.8l-7.5,0c-1,0-1.9-0.9-1.9-2l0-5.9c0-1.1,0.8-2,1.9-2l7.5,0c1,0,1.9,0.9,1.9,2l0,5.9C86.1,63.9,85.2,64.7,84.2,64.8
	 M79.4,76l-50.7,0.1c-2.6,0-4.7-1.8-4.7-3.9c0-2.2,2.1-3.9,4.7-3.9l50.7-0.1c2.6,0,4.7,1.8,4.7,3.9C84.1,74.2,82,76,79.4,76
	 M23.7,57c0-1.1,0.8-2,1.9-2l7.5,0c1,0,1.9,0.9,1.9,1.9l0,5.9c0,1.1-0.8,2-1.9,2l-7.5,0c-1,0-1.9-0.9-1.9-1.9L23.7,57L23.7,57z
	 M100.6,38.4c-6.5-3.4-11,2-11,2c-8.6-24.7-16.8-24.7-16.8-24.7l-35.5,0.1c-9.7,0.3-14.4,14.8-16.9,24.5c-1-1-5.2-4.7-10.8-1.7
	c0,0-4.9,6.8,5.5,6.4c0,0,3.3,0.9,3,3.4c0,0.3,0,0.4,0,0.4c-1.9,8.8-2.8,36.1-2.8,36.1l79.4-0.2c1.1-7.2-2.6-36.4-2.6-36.4
	c-0.3-2.5,3-3.4,3-3.4C105.5,45.2,100.6,38.4,100.6,38.4 M39.6,25.6c-3.1,0-5.6,2.6-5.6,5.9s2.5,5.9,5.6,5.9s5.6-2.6,5.6-5.9
	S42.7,25.6,39.6,25.6 M68.3,25.6c-3.1,0-5.6,2.6-5.6,5.9s2.5,5.9,5.6,5.9s5.6-2.6,5.6-5.9S71.4,25.6,68.3,25.6 M27.1,86.8L27.1,86.8
	l-10.8,0l0,4.2c0,1.7,1.2,3,2.8,3.2c0.1,0,0.2,0,0.3,0l4.6,0c0.2,0,0.5,0,0.7-0.1c0.9-0.2,1.7-0.9,2.1-1.7c0.2-0.4,0.3-0.9,0.3-1.4
	v-1L27.1,86.8L27.1,86.8z M82.9,86.7v4.2c0,1.8,1.4,3.2,3.1,3.2l4.6,0c1.7,0,3.1-1.4,3.1-3.2v-4.2L82.9,86.7z"/>
</svg>
