<?xml version="1.0" encoding="utf-8"?>
<!-- Generator: Adobe Illustrator 25.1.0, SVG Export Plug-In . SVG Version: 6.00 Build 0)  -->
<svg version="1.0" id="Calque_1" xmlns="http://www.w3.org/2000/svg" xmlns:xlink="http://www.w3.org/1999/xlink" x="0px" y="0px"
	 viewBox="0 0 150 150" enable-background="new 0 0 150 150" xml:space="preserve">
<g>
	<path d="M75,23.4c-28.4,0-51.6,23.1-51.6,51.6s23.1,51.6,51.6,51.6s51.6-23.1,51.6-51.6S103.4,23.4,75,23.4z M75,123.9
		c-27,0-48.9-22-48.9-48.9c0-27,22-48.9,48.9-48.9c27,0,48.9,22,48.9,48.9C123.9,102,102,123.9,75,123.9z"/>
	<path d="M76.7,68.5l-0.3-0.1V50.5c0-0.7-0.6-1.4-1.4-1.4s-1.4,0.6-1.4,1.4v17.8l-0.3,0.1c-2.3,0.6-4,2.4-4.7,4.7l0,0.3H55.9
		c-0.7,0-1.4,0.6-1.4,1.4c0,0.7,0.6,1.4,1.4,1.4h12.7l0.1,0.3c0.8,2.9,3.4,4.9,6.3,4.9c3.6,0,6.5-2.9,6.5-6.5
		C81.5,71.9,79.5,69.2,76.7,68.5z M75,78.6c-2.1,0-3.8-1.7-3.8-3.8S72.9,71,75,71c2.1,0,3.8,1.7,3.8,3.8S77.1,78.6,75,78.6z"/>
	<path d="M75,39.8c0.7,0,1.4-0.6,1.4-1.4v-1.7c0-0.7-0.6-1.4-1.4-1.4s-1.4,0.6-1.4,1.4v1.7C73.6,39.2,74.3,39.8,75,39.8z"/>
	<path d="M75,109.8c-0.7,0-1.4,0.6-1.4,1.4v1.7c0,0.7,0.6,1.4,1.4,1.4s1.4-0.6,1.4-1.4v-1.7C76.4,110.4,75.7,109.8,75,109.8z"/>
	<path d="M113.1,73.5h-1.7c-0.7,0-1.4,0.6-1.4,1.4s0.6,1.4,1.4,1.4h1.7c0.7,0,1.4-0.6,1.4-1.4C114.5,74.1,113.9,73.5,113.1,73.5z"/>
	<path d="M38.6,73.5h-1.7c-0.7,0-1.4,0.6-1.4,1.4s0.6,1.4,1.4,1.4h1.7c0.7,0,1.4-0.6,1.4-1.4C39.9,74.1,39.4,73.5,38.6,73.5z"/>
	<path d="M101,46.9l-1.2,1.2c-0.3,0.3-0.4,0.6-0.4,0.9c0,0.4,0.1,0.7,0.4,0.9s0.6,0.4,0.9,0.4s0.7-0.1,0.9-0.4l1.2-1.2
		c0.2-0.2,0.4-0.6,0.4-0.9c0-0.2,0-0.7-0.4-0.9C102.3,46.4,101.5,46.4,101,46.9z"/>
	<path d="M49.3,99.1c-0.2,0-0.7,0-0.9,0.4l-1.2,1.2c-0.2,0.2-0.4,0.6-0.4,0.9c0,0.2,0,0.7,0.4,0.9c0.3,0.3,0.6,0.4,0.9,0.4
		c0.3,0,0.7-0.1,0.9-0.4l1.2-1.2c0.2-0.2,0.4-0.6,0.4-0.9c0-0.2,0-0.7-0.4-0.9C49.9,99.3,49.6,99.1,49.3,99.1z"/>
	<path d="M101.7,99.5c-0.3-0.3-0.6-0.4-0.9-0.4c-0.2,0-0.7,0-0.9,0.4c-0.5,0.5-0.5,1.4,0,1.9l1.2,1.2c0.3,0.3,0.6,0.4,0.9,0.4
		c0.3,0,0.7-0.1,0.9-0.4c0.2-0.2,0.4-0.6,0.4-0.9c0-0.2,0-0.7-0.4-0.9L101.7,99.5z"/>
	<path d="M48.3,50L48.3,50c0.3,0.3,0.6,0.4,0.9,0.4c0.3,0,0.7-0.1,0.9-0.4c0.5-0.5,0.5-1.4,0-1.9L49,46.9c-0.2-0.2-0.6-0.4-0.9-0.4
		c-0.2,0-0.7,0-0.9,0.4c-0.2,0.2-0.4,0.6-0.4,0.9c0,0.2,0,0.7,0.4,0.9L48.3,50z"/>
</g>
</svg>
