<svg width="110" height="110" xmlns="http://www.w3.org/2000/svg" x="0px" y="0px"
	 viewBox="0 0 110 110" style="enable-background:new 0 0 110 110;" xml:space="preserve">
<g id="arrow-up">
	<g>
		<g>
			<path d="M52,17.3c-0.4,0-0.8,0.1-1.1,0.4L14.8,53.9c-0.4,0.3-0.5,0.8-0.5,1.1c0,0.5,0.2,0.9,0.4,1.1l36.2,36.1
				c0.3,0.3,0.7,0.4,1.1,0.4c0.4,0,0.8-0.2,1.1-0.5c0.3-0.3,0.4-0.6,0.4-1c0-0.3-0.1-0.8-0.4-1L19.6,56.5h74.5
				c0.8,0,1.5-0.7,1.5-1.5s-0.7-1.6-1.5-1.6H19.6l33.5-33.5c0.3-0.3,0.4-0.6,0.4-1c0-0.4-0.2-0.8-0.5-1.1
				C52.7,17.5,52.3,17.3,52,17.3z"/>
		</g>
	</g>
</g>
<g>
	<path d="M195.4,67.2l0.3-0.3c4.4-5.9,6.8-12.9,6.8-20.1c-0.1-18.6-15.2-33.7-33.8-33.7S135,28.2,135,46.7
		c0,18.6,15.1,33.7,33.7,33.7c7.3,0,14.4-2.3,20.1-6.8l0.3-0.3l25.7,25.8l6.2-6.2L195.4,67.2z M191.4,71.7l1.8-1.8l0.8-0.8l24,24
		l-3,3l-24-24L191.4,71.7z M200.2,46.7c0,17.4-14.1,31.4-31.4,31.4s-31.5-14-31.5-31.4s14.1-31.4,31.4-31.4S200.2,29.4,200.2,46.7z"
		/>
</g>
</svg>
