<?xml version="1.0" encoding="utf-8"?>
<!-- Generator: Adobe Illustrator 25.1.0, SVG Export Plug-In . SVG Version: 6.00 Build 0)  -->
<svg version="1.0" id="Calque_1" xmlns="http://www.w3.org/2000/svg" xmlns:xlink="http://www.w3.org/1999/xlink" x="0px" y="0px"
	 viewBox="0 0 170.1 170.1" enable-background="new 0 0 170.1 170.1" xml:space="preserve">
<g id="Calque_2_1_">
	<g id="Pictos">
		<g id="Calque_2-2">
			<g id="Calque_1-2">
				<path fill="#FFFFFF" d="M148.8,95.4h-129c-1.6,0.1-2.8,1.5-2.7,3.1c0.1,1.5,1.3,2.7,2.7,2.7h55.8c-9.9,1.6-19.3,5.6-27.2,11.8
					c-1.3,0.9-1.7,2.7-0.8,4c0.9,1.3,2.7,1.7,4,0.8c0.1-0.1,0.2-0.2,0.4-0.3c9.2-7.2,20.6-11.1,32.3-11.3c18.7,0,32,11.8,32.1,11.9
					c0.5,0.5,1.2,0.8,1.9,0.8c1.6,0,2.9-1.3,3-2.9c0-0.8-0.3-1.6-1-2.2c-7.9-6.6-17.4-10.9-27.5-12.6h55.9c1.6-0.1,2.8-1.5,2.7-3.1
					C151.5,96.7,150.3,95.5,148.8,95.4L148.8,95.4z"/>
				<path d="M151.6,80.7l-14.8-7.9V68c0,0,0-0.1,0-0.1v-0.3l-0.1-0.3c0,0,0-0.1,0-0.1l-7.9-25.5c-0.5-1.5-2.1-2.4-3.6-1.9
					c-0.9,0.3-1.7,1-1.9,1.9l-7.1,23.4H52.4l-7.1-23.4c-0.5-1.5-2.1-2.4-3.6-1.9c-0.9,0.3-1.7,1-1.9,1.9l-7.8,25.5v0.1l-0.1,0.3v0.3
					c0,0,0,0.1,0,0.1v5.6l-13.4,7.1c-1.4,0.8-2,2.5-1.2,3.9c0.5,1,1.5,1.6,2.6,1.5c0.5,0,0.9-0.1,1.4-0.3l10.6-5.7v47.3
					c0,1.6,1.3,2.9,2.9,2.9c0,0,0,0,0,0h15.5c1.6,0,2.9-1.3,2.9-2.9l0,0V70.9h62.3v56.6c0,1.6,1.3,2.9,2.9,2.9h0h15.5
					c1.6,0,2.9-1.3,2.9-2.9v0V79.4l12,6.4c0.4,0.2,0.9,0.3,1.4,0.3c1.6,0,2.9-1.3,2.9-2.9C153.2,82.3,152.6,81.3,151.6,80.7
					L151.6,80.7z M126.2,52.5l3.8,12.6h-7.7L126.2,52.5z M42.5,52.5l3.8,12.6h-7.7L42.5,52.5z M47.3,124.6h-9.7V70.9h9.7V124.6z
					 M131,124.6h-9.7V70.9h9.7V124.6z"/>
			</g>
		</g>
	</g>
</g>
</svg>
