<svg width="110" height="110" xmlns="http://www.w3.org/2000/svg" x="0px" y="0px"
	 viewBox="0 0 110 110" style="enable-background:new 0 0 110 110;" xml:space="preserve">
<g>
	<path d="M64.6,39.8L48,29.3c-0.3-0.2-0.7-0.2-1,0c-0.3,0.2-0.5,0.5-0.5,0.9v21c0,0.4,0.2,0.7,0.5,0.9c0.2,0.1,0.3,0.2,0.5,0.2
		c0.2,0,0.3-0.1,0.5-0.2l16.6-10.5c0.2-0.2,0.5-0.5,0.5-0.9C65,40.4,64.9,40,64.6,39.8z M62.1,40.8l-13.6,8.7V32.1L62.1,40.8z"/>
	<path d="M15,14.2v81.6H95V14.2H15z M17,66.7V16.2h76v50.6H17z M17,93.8v-25h76v25H17z"/>
	<path d="M85.1,80.2H48.5v-3.4c0-0.5-0.4-1-1-1c-0.6,0-1,0.5-1,1v3.4H40c-0.5,0-1,0.4-1,1c0.1,0.5,0.5,1,1.1,1h6.5v3.4
		c0,0.5,0.4,1,1,1s1-0.5,1-1v-3.4h36.6c0.5,0,1-0.4,1-1C86.1,80.7,85.7,80.2,85.1,80.2z"/>
	<path d="M25,75.7c-0.6,0-1,0.5-1,1v9c0,0.6,0.5,1,1,1s1-0.4,1-1v-9C26,76.2,25.6,75.7,25,75.7z"/>
	<path d="M31,75.7c-0.6,0-1,0.5-1,1v9c0,0.6,0.5,1,1,1c0.5,0,1-0.4,1-1v-9C32,76.2,31.6,75.7,31,75.7z"/>
</g>
</svg>
