<svg width="110" height="110" xmlns="http://www.w3.org/2000/svg" x="0px" y="0px"
	 viewBox="0 0 110 110" style="enable-background:new 0 0 110 110;" xml:space="preserve">
<style type="text/css">
	.st0{fill:#FFFFFF;}
</style>
<g>
	<path d="M94.8,74.3h-2.5c-0.4,0-0.8-0.2-1.1-0.5c-0.3-0.3-0.4-0.7-0.4-1.2c0.1-0.5,0.1-0.9,0.1-1.3c0-5.7-4.6-10.3-10.3-10.3
		c-5.7,0-10.3,4.6-10.3,10.3c0,0.4,0,0.8,0.1,1.3c0.1,0.4-0.1,0.9-0.4,1.2c-0.3,0.3-0.7,0.5-1.1,0.5H41.7c-0.4,0-0.8-0.2-1.1-0.5
		c-0.3-0.3-0.4-0.7-0.4-1.2c0.1-0.5,0.1-0.9,0.1-1.3C40.3,65.6,35.7,61,30,61c-5.7,0-10.3,4.6-10.3,10.3c0,0.4,0,0.8,0.1,1.2
		c0.1,0.4-0.1,0.9-0.4,1.2c-0.3,0.3-0.7,0.5-1.2,0.5c-6.9-0.2-7-4.2-7-4.4V33.8c0-2.2,0.9-3.4,1.6-4.1c1.5-1.4,3.6-1.3,4.1-1.2
		L80.2,29c0.6,0,1.1,0.3,1.3,0.8l7.4,14.4l9.1,4.8c0.5,0.3,0.8,0.8,0.8,1.3v19.5c0,0.2,0,0.3-0.1,0.4C97.6,74.2,95.1,74.3,94.8,74.3
		z M94.7,71.3L94.7,71.3L94.7,71.3z M93.9,71.3h0.8c0.1,0,0.7-0.3,1.1-1.6V51.3l-8.8-4.6c-0.3-0.1-0.5-0.4-0.6-0.6l-7.2-14
		l-62.5-0.5c-0.1,0-0.1,0-0.2,0c-0.3,0-1.3,0-1.9,0.5c-0.4,0.4-0.6,1-0.6,1.8v36c0.1,0.3,0.7,1,2.5,1.3C16.8,63.9,22.7,58,30,58
		c7.3,0,13.3,6,13.3,13.3h23.9c0-7.3,6-13.3,13.3-13.3S93.9,64,93.9,71.3z M14.2,69.8L14.2,69.8C14.2,69.9,14.2,69.9,14.2,69.8z
		 M80.7,47.6H68.3c-0.8,0-1.5-0.7-1.5-1.5v-9.6c0-0.8,0.7-1.5,1.5-1.5h8.1c0.6,0,1.1,0.3,1.4,0.9l4.3,9.6c0.2,0.5,0.2,1-0.1,1.4
		C81.7,47.3,81.2,47.6,80.7,47.6z M69.8,44.6h8.6l-3-6.6h-5.6V44.6z M48,47.6H35.6c-0.8,0-1.5-0.7-1.5-1.5v-9.6
		c0-0.8,0.7-1.5,1.5-1.5H48c0.8,0,1.5,0.7,1.5,1.5v9.6C49.5,46.9,48.9,47.6,48,47.6z M37.1,44.6h9.4V38h-9.4V44.6z M30.7,47.6H18.3
		c-0.8,0-1.5-0.7-1.5-1.5v-9.6c0-0.8,0.7-1.5,1.5-1.5h12.4c0.8,0,1.5,0.7,1.5,1.5v9.6C32.2,46.9,31.5,47.6,30.7,47.6z M19.8,44.6
		h9.4V38h-9.4V44.6z"/>
	<path class="st0" d="M80.5,81.5c-5.6,0-10.2-4.6-10.2-10.2s4.6-10.2,10.2-10.2s10.2,4.6,10.2,10.2S86.2,81.5,80.5,81.5z M80.5,64.2
		c-4,0-7.2,3.2-7.2,7.2s3.2,7.2,7.2,7.2s7.2-3.2,7.2-7.2S84.5,64.2,80.5,64.2z"/>
	<path class="st0" d="M30,81.5c-5.6,0-10.2-4.6-10.2-10.2S24.4,61.2,30,61.2s10.2,4.6,10.2,10.2S35.6,81.5,30,81.5z M30,64.2
		c-4,0-7.2,3.2-7.2,7.2s3.2,7.2,7.2,7.2s7.2-3.2,7.2-7.2S33.9,64.2,30,64.2z"/>
	<g>
		<path class="st0" d="M62.4,62.7c-0.1,0-0.3-0.1-0.4-0.2l-2.6-3.2c-0.3-0.1-1.3-0.2-2.7,0c-0.7,0.1-1.3,0-1.8-0.4
			C54.1,58.3,54,57,54,56.9v-4c0-0.2,0.1-0.4,0.3-0.4c0.2-0.1,0.4-0.1,0.5,0l3,2.2c0.2,0.2,0.3,0.5,0.1,0.7
			c-0.2,0.2-0.5,0.3-0.7,0.1L55,53.8v3.1c0,0.3,0.1,1,0.5,1.3c0.2,0.2,0.6,0.3,1,0.2c2-0.4,3.3,0,3.3,0c0.1,0,0.2,0.1,0.2,0.2
			l2.7,3.4c0.2,0.2,0.1,0.5-0.1,0.7C62.6,62.7,62.5,62.7,62.4,62.7z"/>
		<g>
			<path class="st0" d="M52,56.8c-0.2,0-0.4-0.2-0.5-0.4c-0.1-0.3,0.1-0.5,0.4-0.6c0.4-0.1,0.7-0.1,1.1-0.1c0.3,0,0.5,0.2,0.5,0.5
				s-0.2,0.5-0.5,0.5c-0.3,0-0.5,0-0.8,0.1C52.1,56.8,52,56.8,52,56.8z"/>
			<path class="st0" d="M53,65.3c-2.7,0-4.8-2.2-4.8-4.8c0-2.3,1.5-4.2,3.7-4.7c0.3-0.1,0.5,0.1,0.6,0.4s-0.1,0.5-0.4,0.6
				c-1.8,0.4-3,1.9-3,3.7c0,2.1,1.7,3.8,3.8,3.8s3.8-1.7,3.8-3.8c0-0.3,0.2-0.5,0.5-0.5s0.5,0.2,0.5,0.5
				C57.8,63.1,55.6,65.3,53,65.3z"/>
		</g>
		<path class="st0" d="M55,53c-1,0-1.9-0.8-1.9-1.9s0.8-1.9,1.9-1.9s1.9,0.8,1.9,1.9S56,53,55,53z M55,50.3c-0.5,0-0.9,0.4-0.9,0.9
			c0,0.5,0.4,0.9,0.9,0.9c0.5,0,0.9-0.4,0.9-0.9C55.9,50.7,55.5,50.3,55,50.3z"/>
	</g>
</g>
</svg>
