<svg width="110" height="110" xmlns="http://www.w3.org/2000/svg" x="0px" y="0px"
	 viewBox="0 0 110 110" style="enable-background:new 0 0 110 110;" xml:space="preserve">
<g id="magweb">
	<g id="Groupe_2266">
		<g id="Tracé_1120">
			<path d="M14.6,23.1l9.7,23.2h0.1l9.7-23.2H37v26.3h-2.1V37.8L35,26.3l-0.1,0l-9.8,23.2h-1.5l-9.8-23.1l-0.1,0l0.2,11.4v11.6h-2.1
				V23.1H14.6z"/>
		</g>
		<g id="Tracé_1121">
			<path d="M55.7,49.5c-0.1-0.7-0.2-1.2-0.3-1.7c-0.1-0.5-0.1-1-0.1-1.5c-0.8,1.1-1.7,1.9-2.9,2.6c-1.2,0.7-2.6,1-4.1,1
				c-1.6,0.1-3.2-0.4-4.4-1.5c-1.1-1.1-1.7-2.6-1.6-4.1c0-1.8,0.9-3.4,2.3-4.3c1.9-1.2,4.1-1.7,6.3-1.6h4.3v-2.4
				c0.1-1.2-0.4-2.5-1.3-3.3c-1.1-0.9-2.4-1.3-3.8-1.2c-1.3-0.1-2.7,0.3-3.8,1.1c-0.9,0.6-1.5,1.7-1.5,2.8l-2,0l0-0.1
				c0-1.6,0.7-3,2-3.9c1.5-1.2,3.4-1.8,5.4-1.7c1.9-0.1,3.7,0.5,5.2,1.6c1.4,1.2,2.1,2.9,2,4.7v9.6c0,0.7,0,1.3,0.1,2
				c0.1,0.7,0.2,1.3,0.4,1.9L55.7,49.5z M48.5,47.9c1.4,0,2.9-0.4,4.1-1.1c1.1-0.7,2-1.6,2.6-2.8v-4.1h-4.4
				c-1.7-0.1-3.3,0.4-4.7,1.3c-1.1,0.7-1.7,1.8-1.8,3.1c0,1,0.4,1.9,1.1,2.6C46.4,47.6,47.4,48,48.5,47.9z"/>
		</g>
		<g id="Tracé_1122">
			<path d="M62.3,39.8c-0.1-2.6,0.6-5.3,2-7.5c1.3-1.8,3.4-2.9,5.6-2.8c1.3,0,2.5,0.3,3.6,0.9c1,0.6,1.9,1.5,2.5,2.6l0.3-3.1h1.8
				v19.3c0.1,2.2-0.6,4.3-2.1,6c-1.5,1.5-3.7,2.3-5.8,2.2c-1,0-2-0.1-3-0.3c-1-0.2-1.9-0.5-2.8-0.9l0.6-1.8c0.8,0.4,1.6,0.7,2.4,0.9
				c0.9,0.2,1.8,0.3,2.8,0.3c1.6,0.1,3.2-0.5,4.3-1.6c1-1.3,1.6-2.9,1.5-4.6v-2.5c-0.6,1-1.5,1.7-2.5,2.3c-1.1,0.6-2.3,0.8-3.5,0.8
				c-2.2,0.1-4.2-0.9-5.5-2.6c-1.4-2-2.1-4.5-2-7L62.3,39.8z M64.5,40.2c-0.1,2,0.4,4,1.4,5.7c1,1.4,2.6,2.2,4.3,2.1
				c1.2,0,2.5-0.3,3.5-1c1-0.7,1.7-1.6,2.2-2.7v-9.1c-0.4-1.1-1.2-2.1-2.1-2.8c-1-0.8-2.3-1.2-3.6-1.1c-1.8-0.1-3.4,0.8-4.3,2.4
				c-1,1.9-1.6,4-1.5,6.1L64.5,40.2z"/>
		</g>
		<g id="Groupe_2265">
			<g id="Tracé_1123">
				<path d="M50,78.2h0.1l3.8-18h5.2l-6.1,26.3H48l-4.8-17.4h-0.1l-4.8,17.4h-4.9l-6.2-26.3h5.2l3.8,18l0.1,0l4.9-18h3.9L50,78.2z"
					/>
			</g>
			<g id="Tracé_1124">
				<path d="M69.6,86.9c-2.5,0.1-5-0.9-6.8-2.7c-1.7-1.9-2.6-4.3-2.5-6.9v-0.7c-0.1-2.6,0.8-5.2,2.4-7.2c3.4-3.6,9-3.8,12.6-0.4
					c1.5,1.8,2.3,4.1,2.2,6.5v2.9H65.8l0,0.1c0.1,1.2,0.5,2.3,1.3,3.2c0.8,0.8,1.9,1.3,3.1,1.2c1,0,2-0.1,2.9-0.4
					c0.9-0.3,1.7-0.7,2.5-1.1l1.4,3.3c-0.9,0.7-2,1.3-3.1,1.6C72.5,86.7,71.1,86.9,69.6,86.9L69.6,86.9z M69.1,70.6
					c-0.9,0-1.8,0.4-2.3,1.1c-0.6,0.9-1,1.9-1,2.9l0.1,0.1h6.5v-0.5c0-1-0.2-1.9-0.8-2.7C70.9,70.9,70,70.6,69.1,70.6L69.1,70.6z"/>
			</g>
			<g id="Tracé_1125">
				<path d="M98.2,77.2c0.1,2.5-0.6,4.9-2,7c-1.3,1.8-3.4,2.7-5.6,2.6c-1,0-2.1-0.2-3-0.7c-0.9-0.5-1.6-1.2-2.2-2.1l-0.4,2.4h-4.5
					V58.3h5.3V69c0.5-0.8,1.2-1.4,2-1.8c0.8-0.4,1.8-0.7,2.7-0.6c2.3-0.1,4.4,1,5.7,2.8c1.4,2.2,2.1,4.9,2,7.5L98.2,77.2z
					 M92.9,76.9c0.1-1.6-0.2-3.1-0.8-4.6c-0.5-1.1-1.7-1.8-2.9-1.7c-0.7,0-1.4,0.2-2.1,0.5c-0.6,0.4-1,0.9-1.3,1.5V81
					c0.3,0.6,0.8,1,1.3,1.4c0.7,0.3,1.4,0.5,2.1,0.5c1.2,0.1,2.3-0.5,2.9-1.4c0.6-1.3,0.9-2.7,0.8-4.1L92.9,76.9z"/>
			</g>
		</g>
	</g>
</g>
</svg>
