<?xml version="1.0" encoding="utf-8"?>
<!-- Generator: Adobe Illustrator 28.3.0, SVG Export Plug-In . SVG Version: 6.00 Build 0)  -->
<svg version="1.1" id="ds44-icons" xmlns="http://www.w3.org/2000/svg" xmlns:xlink="http://www.w3.org/1999/xlink" x="0px" y="0px"
	 viewBox="0 0 110 110" style="enable-background:new 0 0 110 110;" xml:space="preserve">
<g>
	<path d="M66.9,68.1c-0.4,0.2-0.8,0.3-1.2,0.4c0.2,2.1-0.4,3.8-0.9,5c-2.5,5.2-9.2,8-14.5,8c-0.8,0-1.6-0.1-2.4-0.2
		c-1.9-0.3-3.5-1.5-4.5-3.2c-0.9-1.7-1-3.7-0.2-5.5c0.4-0.8,0.5-2.1,0.7-3.4c0.4-2.9,0.9-6.4,3.9-8.8c1.9-1.5,4.1-2.4,6.4-2.4
		c0.8,0,1.6,0.1,2.3,0.3c0.1-0.1,0.2-0.2,0.4-0.3L81,39.1c-0.4-1-1-1.9-1.9-2.7C71.7,30,60.5,25.9,47.9,25.9l0,0
		c-22.4,0-40.5,13-40.5,29.1s18.1,29.1,40.5,29.1c6.4,0,12.5-1.1,17.9-3c2.5-0.9,4.2-2.9,4.6-5.5c0.4-2.6-0.5-5.1-2.6-6.7L66.9,68.1
		L66.9,68.1z M60.6,35.7c3,0,5.4,2.4,5.4,5.4s-2.4,5.4-5.4,5.4c-3,0-5.4-2.4-5.4-5.4S57.6,35.7,60.6,35.7z M16.6,50.6
		c0-3,2.4-5.4,5.4-5.4s5.4,2.4,5.4,5.4S25,56,22,56S16.6,53.6,16.6,50.6z M31.1,71.3c-3,0-5.4-2.4-5.4-5.4c0-3,2.4-5.4,5.4-5.4
		s5.4,2.4,5.4,5.4C36.5,68.9,34.1,71.3,31.1,71.3z M38.5,47.4c-3,0-5.4-2.4-5.4-5.4c0-3,2.4-5.4,5.4-5.4c3,0,5.4,2.4,5.4,5.4
		C43.9,45,41.5,47.4,38.5,47.4z"/>
	<path d="M87.6,51L74.1,62.4l5.9,1.8c2.4,0.7,4.9,0.2,6.8-1.5c1.9-1.7,2.7-4,2.3-6.6C88.7,54.5,88.2,52.7,87.6,51L87.6,51z"/>
	<path d="M102,30.7c-0.2-0.3-0.6-0.5-0.9-0.7c-0.1-0.1-0.2-0.1-0.3-0.1c-0.2-0.1-0.5-0.1-0.7-0.2c-0.2,0-0.4,0-0.6,0
		c-0.1,0-0.2,0-0.3,0c-0.3,0.1-0.6,0.2-0.9,0.4l-15,11.6l-2,1.5l-2.4,1.9l-6.5,5l-11.6,9l-1.7,1.4l0,0c0.3,0.1,0.5,0.3,0.8,0.5
		c0.4,0.3,0.7,0.6,1.1,1c0.1,0.1,0.2,0.2,0.3,0.3c0.2,0.3,0.5,0.6,0.7,0.8c0.2,0.2,0.4,0.4,0.5,0.7c0.2,0.3,0.6,0.5,0.9,0.7
		c0.1,0.1,0.2,0.1,0.3,0.1c0.2,0.1,0.5,0.1,0.7,0.2c0.2,0,0.4,0,0.6-0.1c0.1,0,0.2,0,0.3-0.1c0.3-0.1,0.6-0.3,0.9-0.5l3.7-3.1
		l16.3-13.8l15.4-13c0.6-0.5,0.9-1.1,0.9-1.8C102.6,32,102.5,31.3,102,30.7L102,30.7z"/>
</g>
</svg>
