<svg width="110" height="110" xmlns="http://www.w3.org/2000/svg" x="0px" y="0px"
	 viewBox="0 0 110 110" style="enable-background:new 0 0 110 110;" xml:space="preserve">
<g>
	<rect x="55.5" y="29.1" width="8.3" height="2.1"/>
	<rect x="55.5" y="35.4" width="17.5" height="2.1"/>
	<rect x="35.4" y="47.8" width="6.7" height="2.1"/>
	<rect x="35.4" y="53.9" width="19.1" height="2.1"/>
	<rect x="35.4" y="60.1" width="37.6" height="2.1"/>
	<rect x="35.4" y="84.9" width="19.1" height="2.1"/>
	<rect x="46.2" y="47.8" width="14.5" height="2.1"/>
	<rect x="64.8" y="47.8" width="8.3" height="2.1"/>
	<rect x="58.6" y="53.9" width="14.5" height="2.1"/>
	<rect x="35.4" y="66.3" width="6.7" height="2.1"/>
	<rect x="35.4" y="72.5" width="19.1" height="2.1"/>
	<rect x="35.4" y="78.7" width="37.6" height="2.1"/>
	<rect x="46.2" y="66.3" width="14.5" height="2.1"/>
	<rect x="64.8" y="66.3" width="8.3" height="2.1"/>
	<rect x="58.6" y="72.5" width="14.5" height="2.1"/>
	<path d="M74,10.6H23v88.7h64V23.6L74,10.6z M74.7,23v-8.9l8.9,8.9H74.7z M85,25.1v72.2h-60V12.7h47.5v12.4H85z"/>
	<path d="M52.3,18H34.7v19.3h17.6V18z M36.6,35.4V19.9h13.9v15.6H36.6z"/>
</g>
</svg>
