<?xml version="1.0" encoding="UTF-8"?><svg id="ds44-icons" xmlns="http://www.w3.org/2000/svg" viewBox="0 0 509.1 480"><path d="m382.53,190.27c-2.12,9.96-9.8,17.75-19.44,19.49,9.64-1.75,17.32-9.54,19.44-19.49.32-1.75.53-3.6.53-5.46,0-13.99-10.81-25.38-24.21-25.38h-52.71c-13.35,0-24.26,11.39-24.26,25.38,0,1.96.26,3.87.69,5.67l-54.25.11c.37-1.85.69-3.76.69-5.77,0-13.99-10.86-25.38-24.26-25.38h-52.71c-13.35,0-24.21,11.39-24.21,25.38,0,2.07.26,4.03.74,5.99l-48.74.11C117.5,48.67,159.24,62.66,159.24,62.66c0,0,126.29-4.34,184.56-.37,58.32,3.97,81.85,127.94,81.85,127.94l-43.12.05Zm28.34,108.07l-40.21.05c-5.51,0-10.01-4.71-10.01-10.49l-.05-31.52c-.05-5.77,4.45-10.54,9.96-10.54l40.26-.05c5.46,0,10.01,4.71,10.01,10.49l.05,31.52c0,5.77-4.5,10.49-10.01,10.54m-25.69,60.29l-271.28.53c-13.77,0-25.11-9.43-25.16-20.93,0-11.6,11.34-21.08,25.11-21.14l271.28-.53c13.77-.05,25.06,9.43,25.11,20.98,0,11.55-11.23,21.03-25.06,21.08m-298.3-101.71c0-5.72,4.4-10.49,10.01-10.49l40.15-.05c5.51-.05,10.07,4.66,10.07,10.44l.05,31.47c0,5.83-4.5,10.54-10.01,10.6l-40.21.05c-5.51,0-10.01-4.66-10.01-10.44l-.05-31.57Zm411.72-99.49c-35.02-18.22-59.17,10.65-59.17,10.65-46.19-132.28-89.84-132.23-89.84-132.23l-190.34.37c-52.13,1.75-76.92,79.46-90.69,131.38-5.19-5.24-27.6-25.27-58.11-9.22,0,0-26.22,36.55,29.67,34.54,0,0,17.75,4.98,16.21,18.33-.21,1.59-.16,2.17.11,2.01-9.91,46.94-15.04,193.15-15.04,193.15l425.49-.85c5.77-38.62-13.93-195.11-13.93-195.11-1.64-13.3,16.1-18.38,16.1-18.38,55.94,1.75,29.56-34.65,29.56-34.65M171.9,88.72c-16.69,0-30.2,14.14-30.2,31.57s13.51,31.57,30.2,31.57,30.2-14.14,30.2-31.57-13.51-31.57-30.2-31.57m154.1,0c-16.69,0-30.2,14.14-30.2,31.57s13.51,31.57,30.2,31.57,30.14-14.14,30.14-31.57-13.51-31.57-30.14-31.57M105.1,416.58h-.05l-57.53.11.05,22.51c0,8.85,6.52,16.16,14.78,17.01.53.11,1.11.11,1.64.11l24.69-.05c1.22,0,2.44-.16,3.55-.42,4.93-1.11,9.01-4.61,11.23-9.22,1.06-2.33,1.7-4.87,1.7-7.58v-5.35l-.05-17.11Zm298.78-.64v22.46c0,9.48,7.47,17.22,16.53,17.22l24.63-.11c9.11,0,16.48-7.73,16.42-17.22v-22.51l-57.58.16Z"/></svg>