<svg width="110" height="110" xmlns="http://www.w3.org/2000/svg" x="0px" y="0px"
	 viewBox="0 0 110 110" style="enable-background:new 0 0 110 110;" xml:space="preserve">
<style type="text/css">
	.st0{fill:none;}
</style>
<g>
	<path class="st0" d="M78.7,34.5c-8.3,0-15.3-2.5-18.4-6.2v4.6c0,4.8,8.4,8.8,18.4,8.8c10,0,18.4-4,18.4-8.8v-4.6
		C94,32,87,34.5,78.7,34.5z"/>
	<path class="st0" d="M78.7,78.8c-8.3,0-15.3-2.5-18.4-6.2v4.6c0,4.8,8.4,8.8,18.4,8.8c10,0,18.4-4,18.4-8.8v-4.6
		C94,76.3,87,78.8,78.7,78.8z"/>
	<path class="st0" d="M78.7,69.9c-8.3,0-15.3-2.5-18.4-6.2v4.6c0,4.8,8.4,8.8,18.4,8.8c10,0,18.4-4,18.4-8.8v-4.6
		C94,67.4,87,69.9,78.7,69.9z"/>
	<path class="st0" d="M78.7,61.1c-8.3,0-15.3-2.5-18.4-6.2v4.6c0,4.8,8.4,8.8,18.4,8.8c10,0,18.4-4,18.4-8.8v-4.6
		C94,58.6,87,61.1,78.7,61.1z"/>
	<path class="st0" d="M78.7,52.2c-8.3,0-15.3-2.5-18.4-6.2v4.6c0,4.8,8.4,8.8,18.4,8.8c10,0,18.4-4,18.4-8.8V46
		C94,49.7,87,52.2,78.7,52.2z"/>
	<path class="st0" d="M78.7,43.3c-8.3,0-15.3-2.5-18.4-6.2v4.6c0,4.8,8.4,8.8,18.4,8.8c10,0,18.4-4,18.4-8.8v-4.6
		C94,40.8,87,43.3,78.7,43.3z"/>
	<path class="st0" d="M78.7,15.2c-10,0-18.4,4-18.4,8.8c0,4.8,8.4,8.8,18.4,8.8c10,0,18.4-4,18.4-8.8C97.1,19.2,88.7,15.2,78.7,15.2
		z M87.1,25.1c-0.2,0.3-0.5,0.6-0.8,0.8c-0.4,0.3-0.8,0.6-1.3,0.8c-1.4,0.7-3,1.1-4.5,1c-0.8,0-1.5-0.1-2.2-0.3
		c-0.7-0.2-1.4-0.5-2.1-0.8l-0.7-0.4l-0.8,0.4c-0.2,0.1-0.5,0.2-0.8,0.2c-0.3,0-0.5,0-0.8-0.2c-0.2-0.1-0.3-0.2-0.3-0.4
		c0-0.2,0.2-0.3,0.3-0.4l0.8-0.4L72.8,25L72,25.4c-0.2,0.1-0.5,0.2-0.8,0.2c-0.3,0-0.5,0-0.8-0.2c-0.2-0.1-0.3-0.2-0.3-0.4
		c0-0.2,0.2-0.3,0.3-0.4l0.8-0.4l-0.8-0.4c-0.6-0.3-1.1-0.6-1.6-1.1c-0.3-0.3-0.6-0.7-0.6-1.1c0-0.4,0.1-0.8,0.4-1.1
		c0.5-0.5,1-0.9,1.6-1.1c0.5-0.3,1-0.5,1.6-0.6c0.5-0.2,1.1-0.3,1.6-0.4c0.5-0.1,1-0.1,1.5-0.1c0.4,0,0.7,0.1,1.1,0.2
		c0.3,0.1,0.4,0.3,0.4,0.5c0,0.2-0.2,0.4-0.5,0.5c-0.2,0.1-0.3,0.1-0.5,0.2c-0.2,0-0.4,0-0.6,0.1c-0.5,0-0.9,0.1-1.4,0.2
		c-0.4,0.1-0.7,0.2-1.1,0.4c-0.9,0.4-1.2,0.8-1.1,1.2c0.1,0.4,0.6,0.8,1.4,1.2l0.8,0.4l3.4-1.7c0.2-0.1,0.5-0.2,0.8-0.2
		c0.3,0,0.5,0,0.8,0.1c0.2,0.1,0.3,0.2,0.3,0.4c0,0.1-0.1,0.3-0.4,0.4l-3.4,1.7l1.1,0.6l2.6-1.3C79,23,79.3,23,79.6,23
		c0.3,0,0.5,0,0.8,0.1c0.2,0.1,0.3,0.2,0.3,0.4c0,0.1-0.1,0.3-0.4,0.4l-2.6,1.3l0.7,0.4c0.7,0.4,1.5,0.6,2.4,0.7
		c0.8,0.1,1.7-0.1,2.4-0.5c0.3-0.1,0.6-0.3,0.8-0.6c0.2-0.2,0.3-0.4,0.4-0.7c0.1-0.1,0.1-0.2,0.2-0.3c0.1-0.1,0.2-0.2,0.3-0.2
		c0.3-0.2,0.7-0.2,1-0.2c0.3,0,0.7,0,1,0.2c0.2,0.1,0.4,0.3,0.4,0.5C87.4,24.7,87.3,24.9,87.1,25.1z"/>
	<path class="st0" d="M31.3,78.8c-8.3,0-15.3-2.5-18.4-6.2v4.6c0,4.8,8.4,8.8,18.4,8.8c10,0,18.4-4,18.4-8.8v-4.6
		C46.6,76.3,39.6,78.8,31.3,78.8z"/>
	<path class="st0" d="M31.3,61.1c-8.3,0-15.3-2.5-18.4-6.2v4.6c0,4.8,8.4,8.8,18.4,8.8c10,0,18.4-4,18.4-8.8v-4.6
		C46.6,58.6,39.6,61.1,31.3,61.1z"/>
	<path class="st0" d="M78.7,87.7c-8.3,0-15.3-2.5-18.4-6.2V86c0,4.8,8.4,8.8,18.4,8.8c10,0,18.4-4,18.4-8.8v-4.6
		C94,85.2,87,87.7,78.7,87.7z"/>
	<path class="st0" d="M31.3,69.9c-8.3,0-15.3-2.5-18.4-6.2v4.6c0,4.8,8.4,8.8,18.4,8.8c10,0,18.4-4,18.4-8.8v-4.6
		C46.6,67.4,39.6,69.9,31.3,69.9z"/>
	<path class="st0" d="M31.3,87.7c-8.3,0-15.3-2.5-18.4-6.2V86c0,4.8,8.4,8.8,18.4,8.8c10,0,18.4-4,18.4-8.8v-4.6
		C46.6,85.2,39.6,87.7,31.3,87.7z"/>
	<path class="st0" d="M31.3,52.2C23,52.2,16,49.7,12.9,46v4.6c0,4.8,8.4,8.8,18.4,8.8c10,0,18.4-4,18.4-8.8V46
		C46.6,49.7,39.6,52.2,31.3,52.2z"/>
	<path class="st0" d="M31.3,32.9c-10,0-18.4,4-18.4,8.8s8.4,8.8,18.4,8.8c10,0,18.4-4,18.4-8.8S41.3,32.9,31.3,32.9z M40.7,43.1
		c-0.2,0.3-0.5,0.6-0.8,0.8c-0.4,0.3-0.8,0.6-1.3,0.8c-1.4,0.7-3,1.1-4.5,1c-0.8,0-1.5-0.1-2.2-0.3c-0.7-0.2-1.4-0.5-2.1-0.8
		l-0.7-0.4l-0.8,0.4c-0.2,0.1-0.5,0.2-0.8,0.2c-0.3,0-0.5,0-0.8-0.2c-0.2-0.1-0.3-0.2-0.3-0.4c0-0.2,0.2-0.3,0.3-0.4l0.8-0.4
		l-1.1-0.6l-0.8,0.4c-0.2,0.1-0.5,0.2-0.8,0.2c-0.3,0-0.5,0-0.8-0.2c-0.2-0.1-0.3-0.2-0.3-0.4c0-0.2,0.2-0.3,0.3-0.4l0.8-0.4
		l-0.8-0.4c-0.6-0.3-1.1-0.6-1.6-1.1c-0.3-0.3-0.6-0.7-0.6-1.1c0-0.4,0.1-0.8,0.4-1.1c0.5-0.5,1-0.9,1.6-1.1c0.5-0.3,1-0.5,1.6-0.6
		c0.5-0.2,1.1-0.3,1.6-0.4c0.5-0.1,1-0.1,1.5-0.1c0.4,0,0.7,0.1,1.1,0.2c0.3,0.1,0.4,0.3,0.4,0.5c0,0.2-0.2,0.4-0.5,0.5
		c-0.2,0.1-0.3,0.1-0.5,0.2c-0.2,0-0.4,0-0.6,0.1c-0.5,0-0.9,0.1-1.4,0.2c-0.4,0.1-0.7,0.2-1.1,0.4c-0.9,0.4-1.2,0.8-1.1,1.2
		c0.1,0.4,0.6,0.8,1.4,1.2l0.8,0.4l3.4-1.7c0.2-0.1,0.5-0.2,0.8-0.2c0.3,0,0.5,0,0.8,0.1c0.2,0.1,0.3,0.2,0.3,0.4
		c0,0.1-0.1,0.3-0.4,0.4l-3.4,1.7l1.1,0.6l2.6-1.3c0.2-0.1,0.5-0.2,0.8-0.2c0.3,0,0.5,0,0.8,0.1c0.2,0.1,0.3,0.2,0.3,0.4
		c0,0.1-0.1,0.3-0.4,0.4l-2.6,1.3l0.7,0.4c0.7,0.4,1.5,0.6,2.4,0.7c0.8,0.1,1.7-0.1,2.4-0.5c0.3-0.1,0.6-0.3,0.8-0.6
		c0.2-0.2,0.3-0.4,0.4-0.7c0.1-0.1,0.1-0.2,0.2-0.3c0.1-0.1,0.2-0.2,0.3-0.2c0.3-0.2,0.7-0.2,1-0.2c0.3,0,0.7,0,1,0.2
		c0.2,0.1,0.4,0.3,0.4,0.5C41,42.6,40.9,42.9,40.7,43.1z"/>
	<path d="M78.7,13.5c-11.3,0-20.1,4.6-20.1,10.5V86c0,5.9,8.8,10.5,20.1,10.5c11.3,0,20.1-4.6,20.1-10.5V24
		C98.9,18.1,90,13.5,78.7,13.5z M97.1,86c0,4.8-8.4,8.8-18.4,8.8c-10,0-18.4-4-18.4-8.8v-4.6c3.1,3.7,10.1,6.2,18.4,6.2
		c8.3,0,15.3-2.5,18.4-6.2V86z M97.1,77.2c0,4.8-8.4,8.8-18.4,8.8c-10,0-18.4-4-18.4-8.8v-4.6c3.1,3.7,10.1,6.2,18.4,6.2
		c8.3,0,15.3-2.5,18.4-6.2V77.2z M97.1,68.3c0,4.8-8.4,8.8-18.4,8.8c-10,0-18.4-4-18.4-8.8v-4.6c3.1,3.7,10.1,6.2,18.4,6.2
		c8.3,0,15.3-2.5,18.4-6.2V68.3z M97.1,59.4c0,4.8-8.4,8.8-18.4,8.8c-10,0-18.4-4-18.4-8.8v-4.6c3.1,3.7,10.1,6.2,18.4,6.2
		c8.3,0,15.3-2.5,18.4-6.2V59.4z M97.1,50.6c0,4.8-8.4,8.8-18.4,8.8c-10,0-18.4-4-18.4-8.8V46c3.1,3.7,10.1,6.2,18.4,6.2
		c8.3,0,15.3-2.5,18.4-6.2V50.6z M97.1,41.7c0,4.8-8.4,8.8-18.4,8.8c-10,0-18.4-4-18.4-8.8v-4.6c3.1,3.7,10.1,6.2,18.4,6.2
		c8.3,0,15.3-2.5,18.4-6.2V41.7z M97.1,32.8c0,4.8-8.4,8.8-18.4,8.8c-10,0-18.4-4-18.4-8.8v-4.6c3.1,3.7,10.1,6.2,18.4,6.2
		c8.3,0,15.3-2.5,18.4-6.2V32.8z M78.7,32.7c-10,0-18.4-4-18.4-8.8c0-4.8,8.4-8.8,18.4-8.8c10,0,18.4,4,18.4,8.8
		C97.1,28.7,88.7,32.7,78.7,32.7L78.7,32.7z"/>
	<path d="M31.3,31.2c-11.3,0-20.1,4.6-20.1,10.5V86c0,5.9,8.8,10.5,20.1,10.5c11.3,0,20.1-4.6,20.1-10.5V41.7
		C51.4,35.8,42.6,31.2,31.3,31.2z M49.7,86c0,4.8-8.4,8.8-18.4,8.8c-10,0-18.4-4-18.4-8.8v-4.6c3.1,3.7,10.1,6.2,18.4,6.2
		c8.3,0,15.3-2.5,18.4-6.2V86z M49.7,77.2c0,4.8-8.4,8.8-18.4,8.8c-10,0-18.4-4-18.4-8.8v-4.6c3.1,3.7,10.1,6.2,18.4,6.2
		c8.3,0,15.3-2.5,18.4-6.2V77.2z M49.7,68.3c0,4.8-8.4,8.8-18.4,8.8c-10,0-18.4-4-18.4-8.8v-4.6c3.1,3.7,10.1,6.2,18.4,6.2
		c8.3,0,15.3-2.5,18.4-6.2V68.3z M49.7,59.4c0,4.8-8.4,8.8-18.4,8.8c-10,0-18.4-4-18.4-8.8v-4.6c3.1,3.7,10.1,6.2,18.4,6.2
		c8.3,0,15.3-2.5,18.4-6.2V59.4z M49.7,50.6c0,4.8-8.4,8.8-18.4,8.8c-10,0-18.4-4-18.4-8.8V46c3.1,3.7,10.1,6.2,18.4,6.2
		c8.3,0,15.3-2.5,18.4-6.2V50.6z M31.3,50.5c-10,0-18.4-4-18.4-8.8s8.4-8.8,18.4-8.8c10,0,18.4,4,18.4,8.8S41.3,50.5,31.3,50.5z"/>
	<path d="M40.5,41.8c-0.3-0.1-0.6-0.2-1-0.2c-0.4,0-0.7,0.1-1,0.2c-0.1,0-0.2,0.1-0.3,0.2c0,0.1-0.1,0.2-0.2,0.3
		c-0.1,0.3-0.2,0.5-0.4,0.7c-0.2,0.2-0.5,0.4-0.8,0.6c-0.7,0.4-1.6,0.6-2.4,0.5c-0.8-0.1-1.6-0.3-2.4-0.7l-0.7-0.4l2.6-1.3
		c0.2-0.1,0.3-0.2,0.4-0.4c0-0.1-0.1-0.3-0.3-0.4c-0.2-0.1-0.5-0.2-0.8-0.1c-0.3,0-0.5,0.1-0.8,0.2l-2.6,1.3l-1.1-0.6l3.4-1.7
		c0.2-0.1,0.3-0.2,0.4-0.4c0-0.1-0.1-0.3-0.3-0.4c-0.2-0.1-0.5-0.2-0.8-0.1c-0.3,0-0.5,0.1-0.8,0.2l-3.4,1.7l-0.8-0.4
		c-0.8-0.4-1.3-0.8-1.4-1.2c-0.1-0.4,0.2-0.8,1.1-1.2c0.3-0.2,0.7-0.3,1.1-0.4c0.5-0.1,0.9-0.2,1.4-0.2c0.2,0,0.4-0.1,0.6-0.1
		c0.2,0,0.4-0.1,0.5-0.2c0.3-0.1,0.4-0.3,0.5-0.5c0-0.2-0.1-0.4-0.4-0.5c-0.3-0.1-0.7-0.2-1.1-0.2c-0.5,0-1,0-1.5,0.1
		c-0.6,0.1-1.1,0.2-1.6,0.4c-0.5,0.2-1.1,0.4-1.6,0.6c-0.6,0.3-1.2,0.7-1.6,1.1c-0.3,0.3-0.5,0.7-0.4,1.1c0.1,0.4,0.3,0.8,0.6,1.1
		c0.5,0.4,1,0.8,1.6,1.1l0.8,0.4l-0.8,0.4c-0.2,0.1-0.3,0.2-0.3,0.4c0,0.2,0.1,0.3,0.3,0.4c0.2,0.1,0.5,0.2,0.8,0.2
		c0.3,0,0.5-0.1,0.8-0.2l0.8-0.4l1.1,0.6l-0.8,0.4c-0.2,0.1-0.3,0.2-0.3,0.4c0,0.2,0.1,0.3,0.3,0.4c0.2,0.1,0.5,0.2,0.8,0.2
		c0.3,0,0.5-0.1,0.8-0.2l0.8-0.4l0.7,0.4c0.7,0.3,1.4,0.6,2.1,0.8c0.7,0.2,1.5,0.3,2.2,0.3c1.6,0,3.1-0.3,4.5-1
		c0.4-0.2,0.9-0.5,1.3-0.8c0.3-0.2,0.6-0.5,0.8-0.8c0.2-0.2,0.2-0.5,0.2-0.7C40.9,42.1,40.7,41.9,40.5,41.8z"/>
	<path d="M86.9,23.9c-0.3-0.1-0.6-0.2-1-0.2c-0.4,0-0.7,0.1-1,0.2c-0.1,0-0.2,0.1-0.3,0.2c0,0.1-0.1,0.2-0.2,0.3
		c-0.1,0.3-0.2,0.5-0.4,0.7c-0.2,0.2-0.5,0.4-0.8,0.6c-0.7,0.4-1.6,0.6-2.4,0.5c-0.8-0.1-1.6-0.3-2.4-0.7l-0.7-0.4l2.6-1.3
		c0.2-0.1,0.3-0.2,0.4-0.4c0-0.1-0.1-0.3-0.3-0.4c-0.2-0.1-0.5-0.2-0.8-0.1c-0.3,0-0.5,0.1-0.8,0.2l-2.6,1.3l-1.1-0.6l3.4-1.7
		c0.2-0.1,0.3-0.2,0.4-0.4c0-0.1-0.1-0.3-0.3-0.4c-0.2-0.1-0.5-0.2-0.8-0.1c-0.3,0-0.5,0.1-0.8,0.2l-3.4,1.7l-0.8-0.4
		c-0.8-0.4-1.3-0.8-1.4-1.2c-0.1-0.4,0.2-0.8,1.1-1.2c0.3-0.2,0.7-0.3,1.1-0.4c0.5-0.1,0.9-0.2,1.4-0.2c0.2,0,0.4-0.1,0.6-0.1
		c0.2,0,0.4-0.1,0.5-0.2c0.3-0.1,0.4-0.3,0.5-0.5c0-0.2-0.1-0.4-0.4-0.5c-0.3-0.1-0.7-0.2-1.1-0.2c-0.5,0-1,0-1.5,0.1
		c-0.6,0.1-1.1,0.2-1.6,0.4c-0.5,0.2-1.1,0.4-1.6,0.6c-0.6,0.3-1.2,0.7-1.6,1.1c-0.3,0.3-0.5,0.7-0.4,1.1c0.1,0.4,0.3,0.8,0.6,1.1
		c0.5,0.4,1,0.8,1.6,1.1l0.8,0.4l-0.8,0.4c-0.2,0.1-0.3,0.2-0.3,0.4c0,0.2,0.1,0.3,0.3,0.4c0.2,0.1,0.5,0.2,0.8,0.2
		c0.3,0,0.5-0.1,0.8-0.2l0.8-0.4l1.1,0.6l-0.8,0.4c-0.2,0.1-0.3,0.2-0.3,0.4c0,0.2,0.1,0.3,0.3,0.4c0.2,0.1,0.5,0.2,0.8,0.2
		c0.3,0,0.5-0.1,0.8-0.2l0.8-0.4l0.7,0.4c0.7,0.3,1.4,0.6,2.1,0.8c0.7,0.2,1.5,0.3,2.2,0.3c1.6,0,3.1-0.3,4.5-1
		c0.4-0.2,0.9-0.5,1.3-0.8c0.3-0.2,0.6-0.5,0.8-0.8c0.2-0.2,0.2-0.5,0.2-0.7C87.3,24.1,87.2,23.9,86.9,23.9z"/>
</g>
</svg>
