<?xml version="1.0" encoding="utf-8"?>
<!-- Generator: Adobe Illustrator 28.3.0, SVG Export Plug-In . SVG Version: 6.00 Build 0)  -->
<svg version="1.1" id="Calque_1" xmlns="http://www.w3.org/2000/svg" xmlns:xlink="http://www.w3.org/1999/xlink" x="0px" y="0px"
	 viewBox="0 0 507.7 64.6" style="enable-background:new 0 0 507.7 64.6;" xml:space="preserve">
<style type="text/css">
	.st0{fill:none;stroke:#004461;}
	.st1{fill:#004461;}
	.st2{fill:#AFCA00;}
	.st3{fill:#FFFFFF;}
	.st4{fill:#FD432C;}
	.st5{fill:#021A73;}
</style>
<line id="Ligne_261" class="st0" x1="147.8" y1="8.4" x2="147.8" y2="55.4"/>
<g id="Groupe_2895" transform="translate(4704.118 3923.063)">
	<g id="logo-loire-atlantique-rvb" transform="translate(-4517 -3915)">
		<path id="Tracé_695" class="st1" d="M44.5,6.4C44,6.1,43.4,6,42.8,6c-0.8,0-1.6,0.3-2.2,1c-0.5,0.6-0.8,1.4-0.8,2.2v0.4L44.5,6.4
			z"/>
		<path id="Tracé_696" class="st1" d="M94.3,25.1c-0.5-0.3-1.1-0.4-1.7-0.4c-0.8,0-1.6,0.3-2.2,1c-0.6,0.6-0.9,1.4-0.8,2.2v0.4
			L94.3,25.1z"/>
		<path id="Tracé_697" class="st1" d="M19.7,12.1c0.8,0,1.6-0.3,2.2-0.8c0.6-0.6,0.9-1.4,1-2.2c0-0.8-0.3-1.6-1-2.2
			c-0.6-0.6-1.4-0.9-2.2-1c-1.7,0-3.1,1.4-3,3.1v0.1c0,0.8,0.3,1.6,0.8,2.2C18.1,11.8,18.9,12.1,19.7,12.1z"/>
		<path id="Tracé_698" class="st1" d="M69.2,24.5c-1.7,0-3.1,1.4-3,3.1v0.1c0,0.8,0.3,1.6,0.8,2.2c0.6,0.6,1.4,0.9,2.2,0.8
			c0.8,0,1.6-0.3,2.2-0.8c0.6-0.6,0.9-1.4,1-2.2C72.3,26,70.9,24.6,69.2,24.5z"/>
		<path id="Tracé_699" class="st1" d="M34.4,30.6c0.8,0,1.6-0.3,2.2-0.8c0.6-0.6,0.9-1.4,1-2.2c0-0.8-0.3-1.6-1-2.2
			c-0.6-0.6-1.4-0.9-2.2-1c-1.7,0-3.1,1.4-3,3.1v0.1c0,0.8,0.3,1.6,0.8,2.2C32.8,30.3,33.6,30.6,34.4,30.6z"/>
		<path id="Tracé_700" class="st1" d="M72.2,38.4v-6.1c-0.9,0.7-2,1.1-3.2,1.1c-1.5,0-2.9-0.6-3.9-1.7c-2.2-2.2-2.2-5.8,0-8
			c2.2-2.2,5.8-2.2,8,0c1.1,1.1,1.7,2.5,1.7,4v10.7h-0.3c9.3,0.1,19.9,0.6,32.5,1.4V6.4C61.4-11.3,6.3-10.3-14.7,2.5L2.7,54.8
			c2.9-1.8,5.7-3.5,8.6-5l0,0C25,42.5,39.3,38.1,72.2,38.4z M88.8,23.7c1.1-1.1,2.5-1.7,4-1.7c1.1,0,2.3,0.3,3.2,1
			c0.9,0.6,1.6,1.5,2.1,2.5l0.1,0.3l-6.9,4.6c0.5,0.3,1.1,0.4,1.7,0.4c0.8,0,1.6-0.3,2.2-1c0.3-0.3,0.5-0.6,0.6-1h2.8
			c-0.3,1-0.8,2-1.5,2.8c-2.2,2.2-5.8,2.2-8,0c-1.1-1.1-1.7-2.5-1.7-4C87.2,26.1,87.7,24.7,88.8,23.7L88.8,23.7z M76.3,22.2h2.6v6.4
			c0,1.2,1.1,2.2,2.3,2.1c1.2,0,2.1-1,2.1-2.1v-6.4h2.6v6.4c0,1.3-0.6,2.5-1.5,3.3c-1.8,1.8-4.8,1.8-6.7,0c-0.9-0.9-1.4-2.1-1.4-3.3
			V22.2L76.3,22.2z M22.8,24.7h-1.7V33h-2.6v-8.3h-1.7v-2.6h1.7v-3.6h2.6v3.6h1.7V24.7z M27.2,33.1h-2.6V18.4h2.6V33.1z M59.2,18.5
			h2.6v2.6h-2.6V18.5z M59.2,22.2h2.6v10.9h-2.6V22.2z M52.1,22.2h1.7v-3.6h2.6v3.6h1.7v2.6h-1.7v8.3h-2.6v-8.3h-1.7V22.2z
			 M51.3,26.8v6.4h-2.6v-6.4c0-1.2-1.1-2.2-2.3-2.1c-1.2,0-2.1,1-2.1,2.1v6.4h-2.6v-6.4c0-1.2,0.5-2.4,1.4-3.3
			c1.6-1.8,4.3-2,6.2-0.5c0.2,0.1,0.3,0.3,0.5,0.5C50.7,24.2,51.3,25.4,51.3,26.8L51.3,26.8z M38.8,5c1.1-1.1,2.5-1.7,4-1.7
			c1.1,0,2.3,0.3,3.2,1c0.9,0.6,1.6,1.5,2.1,2.5l0.1,0.3l-6.9,4.6c0.5,0.3,1.1,0.4,1.7,0.4c0.8,0,1.6-0.3,2.2-1
			c0.3-0.3,0.5-0.6,0.6-1h2.8c-0.3,1-0.8,2-1.5,2.8c-2.2,2.2-5.8,2.2-8,0c-1.1-1.1-1.7-2.5-1.7-4C37.2,7.4,37.8,6,38.8,5z M31.6,8.2
			c0-1.3,0.6-2.6,1.5-3.5s2.2-1.4,3.5-1.4h0.3v2.6h-0.3c-0.6,0-1.2,0.2-1.7,0.7c-0.4,0.4-0.7,0.9-0.7,1.5v6.4h-2.6L31.6,8.2
			L31.6,8.2z M34.4,21.9c3.1,0,5.7,2.5,5.7,5.7l0,0v5.5h-2.6v-0.8c-0.9,0.7-2,1.1-3.2,1.1c-1.5,0-2.9-0.6-3.9-1.7
			c-2.2-2.2-2.2-5.8,0-8C31.4,22.6,32.9,21.9,34.4,21.9L34.4,21.9z M27.1-0.1h2.5v2.6H27L27.1-0.1L27.1-0.1z M27.1,3.5h2.5v10.9H27
			L27.1,3.5L27.1,3.5z M15.7,5c2.2-2.2,5.8-2.2,8,0c1.1,1.1,1.7,2.5,1.7,4c0,3.1-2.5,5.7-5.7,5.7S14,12.2,14,9
			C14.1,7.5,14.7,6.1,15.7,5z M5.2-0.1H8v11.9h6v2.8H5.3V-0.1H5.2z M7.2,33.1H4.3l5.1-14.7h3l5.3,14.7h-2.9L14,30.6H8.2L7.2,33.1z"
			/>
		<path id="Tracé_701" class="st1" d="M8.9,28.3h4L11,22.8L8.9,28.3z"/>
		<path id="Tracé_702" class="st2" d="M11.3,50h95.6V39.8C51.6,36.4,32.2,38.8,11.3,50z"/>
		<path id="Tracé_703" class="st2" d="M107.2,39.8"/>
		<path id="Tracé_704" class="st2" d="M106.9,39.8L106.9,39.8c-12.6-0.8-23.3-1.2-32.5-1.4h-2.2C39.3,38.1,25,42.6,11.3,50l0,0
			C32.2,38.8,51.6,36.4,106.9,39.8z"/>
		<path id="Tracé_705" class="st3" d="M19.7,14.7c3.1,0,5.7-2.5,5.7-5.7l0,0c0-3.1-2.5-5.7-5.7-5.7S14,5.8,14,9
			c0,1.5,0.6,2.9,1.7,4S18.2,14.7,19.7,14.7z M17.5,6.8c0.6-0.6,1.4-0.9,2.2-1c0.8,0.1,1.6,0.4,2.2,1s0.9,1.4,1,2.2
			c0,1.7-1.4,3.1-3.1,3h-0.1c-0.8,0-1.6-0.3-2.2-0.8c-0.6-0.6-0.9-1.4-0.8-2.2C16.7,8.2,17,7.4,17.5,6.8z"/>
		<rect id="Rectangle_526" x="27.1" y="3.5" class="st3" width="2.6" height="10.9"/>
		<path id="Tracé_706" class="st3" d="M34.3,8.2c0-0.6,0.2-1.1,0.7-1.5C35.4,6.3,36,6,36.7,6H37V3.4h-0.3c-1.3,0-2.5,0.5-3.5,1.4
			s-1.5,2.1-1.5,3.5v6.4h2.6V8.2L34.3,8.2z"/>
		<path id="Tracé_707" class="st3" d="M21.1,18.5h-2.6v3.7h-1.7v2.5h1.7v8.4h2.6v-8.4h1.7v-2.5h-1.7V18.5z"/>
		<rect id="Rectangle_527" x="24.6" y="18.5" class="st3" width="2.6" height="14.7"/>
		<path id="Tracé_708" class="st3" d="M30.4,31.6c1,1.1,2.4,1.7,3.9,1.7c1.2,0,2.3-0.4,3.2-1.1v1h2.6v-5.5c0-3.1-2.5-5.7-5.7-5.7
			s-5.7,2.5-5.7,5.7C28.7,29.1,29.3,30.5,30.4,31.6z M32.3,25.5c0.6-0.6,1.4-0.9,2.2-1c0.8,0,1.6,0.3,2.2,1c0.6,0.6,0.9,1.4,1,2.2
			c0,1.7-1.4,3.1-3.1,3h-0.1c-0.8,0-1.6-0.3-2.2-0.8c-0.6-0.6-0.9-1.4-0.8-2.2C31.3,26.9,31.7,26,32.3,25.5z"/>
		<path id="Tracé_709" class="st3" d="M43.1,23.4c-0.9,0.9-1.4,2.1-1.4,3.3v6.4h2.6v-6.4c0-1.2,1.1-2.2,2.3-2.1
			c1.2,0,2.1,1,2.1,2.1v6.4h2.6v-6.4c0-1.3-0.6-2.5-1.5-3.3c-0.9-0.9-2.1-1.5-3.3-1.5C45.3,21.9,44,22.5,43.1,23.4z"/>
		<path id="Tracé_710" class="st3" d="M53.8,33.1h2.6v-8.4h1.7v-2.5h-1.7v-3.7h-2.6v3.7h-1.7v2.5h1.7V33.1z"/>
		<rect id="Rectangle_528" x="59.2" y="22.2" class="st3" width="2.6" height="10.9"/>
		<rect id="Rectangle_529" x="59.2" y="18.5" class="st3" width="2.6" height="2.6"/>
		<path id="Tracé_711" class="st3" d="M74.8,27.6c0-3.1-2.5-5.7-5.7-5.7c-3.1,0-5.7,2.5-5.7,5.7c0,1.5,0.6,2.9,1.7,4
			c1,1.1,2.4,1.7,3.9,1.7c1.2,0,2.3-0.4,3.2-1.1v6h2.5L74.8,27.6L74.8,27.6z M71.2,29.8c-0.6,0.6-1.4,0.9-2.2,0.8
			c-0.8,0-1.6-0.3-2.2-0.8c-0.6-0.6-0.9-1.4-0.8-2.2c0-0.8,0.3-1.6,0.8-2.2c0.6-0.6,1.4-0.9,2.2-1c0.8,0,1.6,0.3,2.2,1
			c0.6,0.6,0.9,1.4,1,2.2C72.2,28.4,71.9,29.2,71.2,29.8L71.2,29.8z"/>
		<path id="Tracé_712" class="st3" d="M72.2,38.4L72.2,38.4z"/>
		<path id="Tracé_713" class="st3" d="M81.2,33.3c1.3,0,2.5-0.5,3.3-1.4c0.9-0.9,1.5-2.1,1.5-3.3v-6.4h-2.6v6.4
			c0,1.2-1.1,2.2-2.3,2.1c-1.2,0-2.1-1-2.1-2.1v-6.4h-2.6v6.4c0,1.2,0.5,2.4,1.4,3.3C78.7,32.8,79.9,33.3,81.2,33.3z"/>
		<path id="Tracé_714" class="st3" d="M43,14.7c1.5,0,3-0.6,4-1.7c0.7-0.8,1.2-1.7,1.5-2.8h-2.7c-0.1,0.4-0.3,0.7-0.6,1
			c-0.5,0.7-1.4,1-2.2,1c-0.6,0-1.1-0.1-1.7-0.4l6.9-4.6l-0.1-0.4c-0.4-1-1.1-1.9-2.1-2.5c-0.9-0.7-2-1-3.2-1
			c-3.1,0-5.7,2.5-5.7,5.7l0,0c0,1.5,0.6,3,1.7,4C39.9,14.2,41.4,14.8,43,14.7z M40.8,6.8c0.6-0.6,1.4-1,2.2-1
			c0.6,0,1.1,0.1,1.7,0.4l-4.6,3V8.8C39.9,8.1,40.1,7.3,40.8,6.8z"/>
		<path id="Tracé_715" class="st3" d="M92.8,33.3c1.5,0,3-0.6,4-1.7c0.7-0.8,1.2-1.7,1.5-2.8h-2.8c-0.1,0.4-0.3,0.7-0.6,1
			c-0.5,0.7-1.4,1-2.2,1c-0.6,0-1.1-0.1-1.7-0.4l6.9-4.6l-0.1-0.3c-0.4-1-1.1-1.9-2.1-2.5c-0.9-0.7-2-1-3.2-1
			c-3.1,0-5.7,2.5-5.7,5.7c0,1.5,0.6,2.9,1.7,4C89.8,32.7,91.3,33.2,92.8,33.3z M90.6,25.5c0.6-0.6,1.4-1,2.2-1
			c0.6,0,1.1,0.1,1.7,0.4l-4.6,3v-0.4C89.8,26.8,90,26,90.6,25.5z"/>
		<path id="Tracé_716" class="st3" d="M13.9,11.8H7.8V-0.1H5.2v14.7h8.7C13.9,14.6,13.9,11.8,13.9,11.8z"/>
		<path id="Tracé_717" class="st3" d="M14.8,33.1h2.9l-5.1-14.7h-3L4.5,33.1h2.9l0.8-2.5H14L14.8,33.1z M8.9,28.3l2.1-5.5l2.1,5.5
			H8.9z"/>
		<rect id="Rectangle_530" x="27.1" y="-0.1" class="st3" width="2.6" height="2.6"/>
	</g>
	<g>
		<path d="M-4383.3-3883.8h4.7v1.8h-7v-13.9h2.3V-3883.8z"/>
		<path d="M-4366.7-3886.7h-8.4c0.1,0.9,0.4,1.6,1,2.1c0.6,0.5,1.3,0.8,2.2,0.8c1.2,0,2.1-0.5,2.6-1.5h2.5c-0.3,1-0.9,1.8-1.8,2.5
			c-0.9,0.6-2,1-3.2,1c-1.1,0-2-0.2-2.8-0.7c-0.8-0.5-1.5-1.1-2-2c-0.5-0.9-0.7-1.9-0.7-3c0-1.1,0.2-2.1,0.7-3s1.1-1.5,1.9-2
			c0.8-0.5,1.8-0.7,2.9-0.7c1,0,2,0.2,2.8,0.7c0.8,0.5,1.4,1.1,1.9,1.9c0.5,0.8,0.7,1.8,0.7,2.8
			C-4366.6-3887.4-4366.6-3887-4366.7-3886.7z M-4369-3888.5c0-0.8-0.3-1.5-0.9-2c-0.6-0.5-1.3-0.8-2.2-0.8c-0.8,0-1.5,0.2-2,0.8
			c-0.6,0.5-0.9,1.2-1,2H-4369z"/>
		<path d="M-4357.5-3882.3c-0.7-0.3-1.2-0.7-1.6-1.3s-0.6-1.1-0.6-1.8h2.4c0,0.5,0.3,0.9,0.7,1.2c0.4,0.3,0.9,0.5,1.5,0.5
			c0.6,0,1.1-0.1,1.5-0.4c0.4-0.2,0.5-0.6,0.5-1c0-0.4-0.2-0.7-0.6-0.9s-1-0.4-1.9-0.7c-0.8-0.2-1.5-0.4-2-0.7c-0.5-0.2-1-0.5-1.3-1
			c-0.4-0.4-0.6-1-0.6-1.7c0-0.6,0.2-1.1,0.5-1.6s0.8-0.9,1.5-1.1c0.6-0.3,1.4-0.4,2.2-0.4c1.3,0,2.3,0.3,3,1s1.2,1.5,1.2,2.6h-2.3
			c0-0.5-0.2-0.9-0.6-1.2c-0.4-0.3-0.8-0.4-1.5-0.4c-0.6,0-1.1,0.1-1.4,0.3c-0.3,0.2-0.5,0.5-0.5,0.9c0,0.3,0.1,0.5,0.3,0.7
			c0.2,0.2,0.5,0.4,0.8,0.5c0.3,0.1,0.8,0.3,1.4,0.4c0.8,0.2,1.5,0.4,2,0.6c0.5,0.2,1,0.5,1.3,1s0.6,1,0.6,1.7
			c0,0.6-0.2,1.2-0.5,1.7s-0.8,0.9-1.5,1.2c-0.6,0.3-1.4,0.4-2.2,0.4C-4356-3881.8-4356.8-3882-4357.5-3882.3z"/>
		<path d="M-4348.4-3894.9c-0.3-0.3-0.4-0.6-0.4-1c0-0.4,0.1-0.8,0.4-1s0.6-0.4,1-0.4c0.4,0,0.7,0.1,1,0.4c0.3,0.3,0.4,0.6,0.4,1
			c0,0.4-0.1,0.8-0.4,1c-0.3,0.3-0.6,0.4-1,0.4C-4347.8-3894.5-4348.1-3894.6-4348.4-3894.9z M-4346.2-3893v11h-2.3v-11H-4346.2z"/>
		<path d="M-4340.6-3891.2v6.1c0,0.4,0.1,0.7,0.3,0.9s0.5,0.3,1,0.3h1.4v1.9h-1.8c-1,0-1.8-0.2-2.4-0.7c-0.5-0.5-0.8-1.3-0.8-2.3
			v-6.1h-1.3v-1.9h1.3v-2.7h2.3v2.7h2.7v1.9H-4340.6z"/>
		<path d="M-4325.8-3886.7h-8.4c0.1,0.9,0.4,1.6,1,2.1c0.6,0.5,1.3,0.8,2.2,0.8c1.2,0,2.1-0.5,2.6-1.5h2.5c-0.3,1-0.9,1.8-1.8,2.5
			c-0.9,0.6-2,1-3.2,1c-1.1,0-2-0.2-2.8-0.7c-0.8-0.5-1.5-1.1-2-2c-0.5-0.9-0.7-1.9-0.7-3c0-1.1,0.2-2.1,0.7-3s1.1-1.5,1.9-2
			c0.8-0.5,1.8-0.7,2.9-0.7c1,0,2,0.2,2.8,0.7c0.8,0.5,1.4,1.1,1.9,1.9c0.5,0.8,0.7,1.8,0.7,2.8
			C-4325.7-3887.4-4325.7-3887-4325.8-3886.7z M-4328.1-3888.5c0-0.8-0.3-1.5-0.9-2c-0.6-0.5-1.3-0.8-2.2-0.8c-0.8,0-1.5,0.2-2,0.8
			c-0.6,0.5-0.9,1.2-1,2H-4328.1z"/>
		<path d="M-4318.3-3890.5c0.5-0.9,1.1-1.5,1.9-2c0.8-0.5,1.7-0.7,2.7-0.7c0.7,0,1.4,0.2,2.1,0.5c0.7,0.3,1.3,0.7,1.7,1.2v-5.3h2.3
			v14.8h-2.3v-1.7c-0.4,0.5-0.9,1-1.5,1.3s-1.4,0.5-2.3,0.5c-1,0-1.8-0.2-2.6-0.7c-0.8-0.5-1.4-1.2-1.9-2s-0.7-1.9-0.7-3
			S-4318.8-3889.6-4318.3-3890.5z M-4310.5-3889.5c-0.3-0.6-0.7-1-1.2-1.3s-1.1-0.4-1.6-0.4s-1.1,0.1-1.6,0.4
			c-0.5,0.3-0.9,0.7-1.2,1.3c-0.3,0.6-0.5,1.2-0.5,2s0.2,1.4,0.5,2s0.7,1,1.2,1.3c0.5,0.3,1.1,0.5,1.6,0.5c0.6,0,1.1-0.1,1.6-0.4
			c0.5-0.3,0.9-0.7,1.2-1.3c0.3-0.6,0.5-1.2,0.5-2S-4310.1-3888.9-4310.5-3889.5z"/>
		<path d="M-4294.7-3886.7h-8.4c0.1,0.9,0.4,1.6,1,2.1c0.6,0.5,1.3,0.8,2.2,0.8c1.2,0,2.1-0.5,2.6-1.5h2.5c-0.3,1-0.9,1.8-1.8,2.5
			c-0.9,0.6-2,1-3.2,1c-1.1,0-2-0.2-2.8-0.7c-0.8-0.5-1.5-1.1-2-2c-0.5-0.9-0.7-1.9-0.7-3c0-1.1,0.2-2.1,0.7-3s1.1-1.5,1.9-2
			c0.8-0.5,1.8-0.7,2.9-0.7c1,0,2,0.2,2.8,0.7c0.8,0.5,1.4,1.1,1.9,1.9c0.5,0.8,0.7,1.8,0.7,2.8
			C-4294.6-3887.4-4294.6-3887-4294.7-3886.7z M-4297-3888.5c0-0.8-0.3-1.5-0.9-2c-0.6-0.5-1.3-0.8-2.2-0.8c-0.8,0-1.5,0.2-2,0.8
			c-0.6,0.5-0.9,1.2-1,2H-4297z"/>
		<path d="M-4290.7-3882.3c-0.7-0.3-1.2-0.7-1.6-1.3s-0.6-1.1-0.6-1.8h2.4c0,0.5,0.3,0.9,0.7,1.2c0.4,0.3,0.9,0.5,1.5,0.5
			c0.6,0,1.1-0.1,1.5-0.4c0.4-0.2,0.5-0.6,0.5-1c0-0.4-0.2-0.7-0.6-0.9s-1-0.4-1.9-0.7c-0.8-0.2-1.5-0.4-2-0.7c-0.5-0.2-1-0.5-1.3-1
			c-0.4-0.4-0.6-1-0.6-1.7c0-0.6,0.2-1.1,0.5-1.6s0.8-0.9,1.5-1.1c0.6-0.3,1.4-0.4,2.2-0.4c1.3,0,2.3,0.3,3,1s1.2,1.5,1.2,2.6h-2.3
			c0-0.5-0.2-0.9-0.6-1.2c-0.4-0.3-0.8-0.4-1.5-0.4c-0.6,0-1.1,0.1-1.4,0.3c-0.3,0.2-0.5,0.5-0.5,0.9c0,0.3,0.1,0.5,0.3,0.7
			c0.2,0.2,0.5,0.4,0.8,0.5c0.3,0.1,0.8,0.3,1.4,0.4c0.8,0.2,1.5,0.4,2,0.6c0.5,0.2,1,0.5,1.3,1s0.6,1,0.6,1.7
			c0,0.6-0.2,1.2-0.5,1.7s-0.8,0.9-1.5,1.2c-0.6,0.3-1.4,0.4-2.2,0.4C-4289.2-3881.8-4290-3882-4290.7-3882.3z"/>
		<path d="M-4276.5-3890.5c0.5-0.9,1.1-1.5,1.9-2c0.8-0.5,1.7-0.7,2.6-0.7c0.9,0,1.6,0.2,2.3,0.5s1.2,0.8,1.5,1.3v-1.6h2.3v11h-2.3
			v-1.6c-0.4,0.5-0.9,1-1.6,1.3s-1.4,0.5-2.3,0.5c-0.9,0-1.8-0.2-2.6-0.7c-0.8-0.5-1.4-1.2-1.9-2s-0.7-1.9-0.7-3
			S-4277-3889.6-4276.5-3890.5z M-4268.7-3889.5c-0.3-0.6-0.7-1-1.2-1.3s-1.1-0.4-1.6-0.4s-1.1,0.1-1.6,0.4
			c-0.5,0.3-0.9,0.7-1.2,1.3c-0.3,0.6-0.5,1.2-0.5,2s0.2,1.4,0.5,2s0.7,1,1.2,1.3c0.5,0.3,1.1,0.5,1.6,0.5c0.6,0,1.1-0.1,1.6-0.4
			c0.5-0.3,0.9-0.7,1.2-1.3c0.3-0.6,0.5-1.2,0.5-2S-4268.4-3888.9-4268.7-3889.5z"/>
		<path d="M-4262.8-3894.9c-0.3-0.3-0.4-0.6-0.4-1c0-0.4,0.1-0.8,0.4-1s0.6-0.4,1-0.4c0.4,0,0.7,0.1,1,0.4c0.3,0.3,0.4,0.6,0.4,1
			c0,0.4-0.1,0.8-0.4,1c-0.3,0.3-0.6,0.4-1,0.4C-4262.2-3894.5-4262.5-3894.6-4262.8-3894.9z M-4260.6-3893v11h-2.3v-11H-4260.6z"/>
		<path d="M-4257.7-3890.5c0.5-0.9,1.1-1.5,1.9-2c0.8-0.5,1.7-0.7,2.7-0.7c0.7,0,1.4,0.2,2.1,0.5c0.7,0.3,1.3,0.7,1.7,1.2v-5.3h2.3
			v14.8h-2.3v-1.7c-0.4,0.5-0.9,1-1.5,1.3s-1.4,0.5-2.3,0.5c-1,0-1.8-0.2-2.6-0.7c-0.8-0.5-1.4-1.2-1.9-2s-0.7-1.9-0.7-3
			S-4258.2-3889.6-4257.7-3890.5z M-4249.8-3889.5c-0.3-0.6-0.7-1-1.2-1.3s-1.1-0.4-1.6-0.4s-1.1,0.1-1.6,0.4
			c-0.5,0.3-0.9,0.7-1.2,1.3c-0.3,0.6-0.5,1.2-0.5,2s0.2,1.4,0.5,2s0.7,1,1.2,1.3c0.5,0.3,1.1,0.5,1.6,0.5c0.6,0,1.1-0.1,1.6-0.4
			c0.5-0.3,0.9-0.7,1.2-1.3c0.3-0.6,0.5-1.2,0.5-2S-4249.5-3888.9-4249.8-3889.5z"/>
		<path d="M-4244.1-3890.5c0.5-0.9,1.1-1.5,1.9-2c0.8-0.5,1.7-0.7,2.6-0.7c0.9,0,1.6,0.2,2.3,0.5s1.2,0.8,1.5,1.3v-1.6h2.3v11h-2.3
			v-1.6c-0.4,0.5-0.9,1-1.6,1.3s-1.4,0.5-2.3,0.5c-0.9,0-1.8-0.2-2.6-0.7c-0.8-0.5-1.4-1.2-1.9-2s-0.7-1.9-0.7-3
			S-4244.6-3889.6-4244.1-3890.5z M-4236.3-3889.5c-0.3-0.6-0.7-1-1.2-1.3s-1.1-0.4-1.6-0.4s-1.1,0.1-1.6,0.4
			c-0.5,0.3-0.9,0.7-1.2,1.3c-0.3,0.6-0.5,1.2-0.5,2s0.2,1.4,0.5,2s0.7,1,1.2,1.3c0.5,0.3,1.1,0.5,1.6,0.5c0.6,0,1.1-0.1,1.6-0.4
			c0.5-0.3,0.9-0.7,1.2-1.3c0.3-0.6,0.5-1.2,0.5-2S-4236-3888.9-4236.3-3889.5z"/>
		<path d="M-4222.6-3892.7c0.7,0.4,1.2,0.9,1.6,1.6c0.4,0.7,0.6,1.6,0.6,2.6v6.5h-2.3v-6.2c0-1-0.2-1.7-0.7-2.3
			c-0.5-0.5-1.2-0.8-2-0.8c-0.9,0-1.5,0.3-2,0.8c-0.5,0.5-0.8,1.3-0.8,2.3v6.2h-2.3v-11h2.3v1.3c0.4-0.5,0.8-0.8,1.4-1.1
			s1.2-0.4,1.8-0.4C-4224.1-3893.2-4223.3-3893-4222.6-3892.7z"/>
		<path d="M-4214.9-3891.2v6.1c0,0.4,0.1,0.7,0.3,0.9s0.5,0.3,1,0.3h1.4v1.9h-1.8c-1,0-1.8-0.2-2.4-0.7c-0.5-0.5-0.8-1.3-0.8-2.3
			v-6.1h-1.3v-1.9h1.3v-2.7h2.3v2.7h2.7v1.9H-4214.9z"/>
		<path d="M-4208.4-3882.3c-0.7-0.3-1.2-0.7-1.6-1.3s-0.6-1.1-0.6-1.8h2.4c0,0.5,0.3,0.9,0.7,1.2c0.4,0.3,0.9,0.5,1.5,0.5
			c0.6,0,1.1-0.1,1.5-0.4c0.4-0.2,0.5-0.6,0.5-1c0-0.4-0.2-0.7-0.6-0.9s-1-0.4-1.9-0.7c-0.8-0.2-1.5-0.4-2-0.7c-0.5-0.2-1-0.5-1.3-1
			c-0.4-0.4-0.6-1-0.6-1.7c0-0.6,0.2-1.1,0.5-1.6s0.8-0.9,1.5-1.1c0.6-0.3,1.4-0.4,2.2-0.4c1.3,0,2.3,0.3,3,1s1.2,1.5,1.2,2.6h-2.3
			c0-0.5-0.2-0.9-0.6-1.2c-0.4-0.3-0.8-0.4-1.5-0.4c-0.6,0-1.1,0.1-1.4,0.3c-0.3,0.2-0.5,0.5-0.5,0.9c0,0.3,0.1,0.5,0.3,0.7
			c0.2,0.2,0.5,0.4,0.8,0.5c0.3,0.1,0.8,0.3,1.4,0.4c0.8,0.2,1.5,0.4,2,0.6c0.5,0.2,1,0.5,1.3,1s0.6,1,0.6,1.7
			c0,0.6-0.2,1.2-0.5,1.7s-0.8,0.9-1.5,1.2c-0.6,0.3-1.4,0.4-2.2,0.4C-4207-3881.8-4207.7-3882-4208.4-3882.3z"/>
	</g>
</g>
<g>
	<path class="st4" d="M95.2,20.9c0-1.3,0-2.6,0-3.8c0-0.5,0.1-0.7,0.7-0.7c0.8,0,1.5,0,2.3,0c0.5,0,0.6,0.2,0.6,0.6
		c0,4,0,8.2,0,12.2c0,1.6,0.8,2.1,2.3,1.4c0.1,0,0.2-0.1,0.3-0.1c0.9-0.5,0.9-0.5,0.7-1.4c-0.5-2.4-0.4-4.6,1.2-6.6
		c1.3-1.6,3-2.2,4.9-2.2c2.1,0,4.1,0.6,6.1,1.4c0.3,0.1,0.3,0.4,0.3,0.6c0,2.3,0,4.6,0,7c0,1,0.3,1.3,1,1.5s1.8-0.1,2.2-0.6
		c0.2-0.2,0.1-0.4,0.1-0.6c0-2.3-0.1-4.6,0.1-7c0.2-3.4,2.3-5.4,5.7-5.6c1.3-0.1,2.4,0.1,3.6,0.4c0.3,0.1,0.4,0.2,0.3,0.5
		c-0.3,0.7-0.5,1.3-0.8,2.1c-0.1,0.3-0.3,0.4-0.6,0.3c-0.7-0.2-1.3-0.3-2-0.2c-1.6,0.1-2.6,1.2-2.8,3c-0.1,0.7,0,1.3-0.1,2
		c0,0.4,0.1,0.5,0.5,0.5c1.2,0,2.2,0,3.4,0c0.4,0,0.5,0.1,0.5,0.5c0,0.7,0,1.4,0,2.1c0,0.4-0.1,0.5-0.5,0.5c-1.1,0-2.1,0-3.2,0
		c-0.5,0-0.7,0.1-0.7,0.6c0,2.1,0,4.2,0,6.3c0,1,0,1-1,1c-0.7,0-1.3,0-2,0c-0.3,0-0.4-0.1-0.4-0.4c0-0.8,0-1.5,0-2.3
		c0-0.4,0-0.5-0.5-0.3c-2,0.8-3.9,0.7-5.6-1c-0.3-0.3-0.4,0-0.6,0.1c-1.7,1.4-4.1,1.7-6.2,0.6c-0.3-0.2-0.7-0.4-1-0.7
		s-0.4-0.2-0.7,0c-1.6,1.4-4.3,1.7-6.2,0.8c-0.2-0.1-0.4-0.3-0.6-0.4c-0.3-0.2-0.4-0.6-0.7-0.6c-0.3,0-0.5,0.4-0.7,0.5
		c-1.9,1.3-4.9,1.3-6.8-0.1c-0.3-0.3-0.5-0.2-0.8,0c-2.1,1.7-5.4,1.3-7.1-0.7c-0.3-0.3-0.4-0.1-0.6,0.1c-2.3,2.7-8.1,2.1-10.2-0.7
		c-1.1-1.4-1.4-3.1-1.4-4.8c0-3.2,0-6.4,0-9.6c0-0.4,0.2-0.5,0.5-0.5c1,0,1.9,0,3,0c0.5,0,0.6,0.2,0.6,0.6c0,2.9,0,5.9,0,8.8
		c0,0.9,0.1,1.7,0.4,2.6c0.5,1.1,1.3,1.6,2.4,1.7c1.4,0.1,2.8-0.2,3.8-1.3c0.3-0.3,0.4-0.6,0.4-1c0-3.7,0-7.2,0-10.9
		c0-0.5,0.1-0.6,0.6-0.6c1,0,1.9,0,2.9,0c0.5,0,0.6,0.1,0.5,0.6c0,3.7,0,7.3,0,11c0,0.6,0,1.2,0.2,1.7c0.2,0.6,0.7,1,1.3,1.1
		s1.2-0.3,1.6-0.8c0.1-0.2,0-0.3,0-0.5c-0.5-2.2-0.4-4.3,0.8-6.4c1.3-2.4,4.1-3.4,6.9-2.7C94.3,20.6,94.7,20.8,95.2,20.9z
		 M95.2,26.5c0-0.5,0-1.1,0-1.5c0-1.6,0-1.6-1.6-1.9c-1.8-0.4-3.4,0.5-4,2.3c-0.4,1-0.4,2-0.2,3.1c0.2,0.7,0.5,1.3,1.1,1.8
		c1.2,0.9,3.1,0.7,4.3-0.5c0.3-0.2,0.4-0.5,0.4-0.9C95.2,28.2,95.2,27.4,95.2,26.5z M110.9,26.6c0-0.3,0-0.7,0-1
		c0-2.1-0.1-2.3-2.3-2.5c-1.5-0.2-2.7,0.4-3.3,1.7c-0.7,1.5-0.7,3.1,0.1,4.5c0.6,1.1,1.4,1.4,2.6,1.4c1-0.1,1.7-0.5,2.5-1.2
		c0.2-0.2,0.3-0.4,0.3-0.7C110.9,28.3,110.9,27.4,110.9,26.6z"/>
	<path class="st5" d="M23.9,8.6c0.2,2.3,0,4.6,0.2,6.9c0.1,0.7,0.2,1.3,0.6,1.8c0.4,0.8,1.1,1.2,1.9,1.2s1.4-0.5,1.8-1.2
		c0.5-0.9,0.6-1.9,0.6-2.9c0-1.8,0-3.7,0-5.5c0-1.2,0.4-1.9,1.4-2.4C31.7,6,32.9,5.3,34,4.7c1.2-0.6,2.1-0.1,2.1,1.2
		C36,9.2,36.2,12.6,35.7,16c-0.5,3.1-1.7,5.7-4.4,7.4c-3.1,1.9-8.9,1.7-11.6-1.3c-1.3-1.5-2-3.4-2.4-5.3C17,15.5,17,14.1,17,12.9
		c0-2.5,0-5,0-7.5c0-1.1,0.5-1.8,1.4-2.4c1.1-0.6,2.1-1.2,3.3-1.7C23,0.6,24,1.1,24,2.6C23.9,4.6,23.9,6.6,23.9,8.6z"/>
	<path class="st5" d="M36.7,36.4c2.9,0,5.2,1.3,7,3.4c2.9,3.3,5.7,6.6,8.5,10c1.1,1.3,0.9,2.4-0.5,3.4c-0.6,0.5-1.3,0.8-2,1.1
		c-1.2,0.4-2.2,0.2-3-0.9c-2.5-2.9-4.9-5.9-7.4-8.9c-0.6-0.7-1.2-1.3-1.8-1.8c-0.7-0.5-1.3-0.7-2.1-0.5c-1.1,0.4-1.5,1.3-1.3,2.6
		c0.3,1,0.9,1.7,1.4,2.5c1.4,1.8,2.8,3.7,4.2,5.4c0.2,0.3,0.4,0.6,0.6,0.9c0.4,1,0.3,1.7-0.5,2.4c-0.8,0.6-1.6,1.1-2.5,1.3
		c-1.1,0.3-2,0.1-2.6-0.8c-1.9-2.6-4-5-5.5-7.9c-1.1-2.1-1.4-4.3-0.7-6.6c1.1-3.3,3.6-5,6.8-5.7C35.7,36.4,36.2,36.4,36.7,36.4z"/>
	<path class="st5" d="M33.1,27.5c0-2.1,1-3.8,2.4-5.3c1.3-1.3,2.9-2.3,4.3-3.4c1.7-1.3,3.4-2.5,5.1-3.8c0.6-0.5,1.3-0.8,2-0.9
		c1-0.1,1.6,0.5,2,1.3c0.4,0.8,0.2,1.4-0.3,2.1c-0.3,0.4-0.7,0.7-1,0.9c-2.6,1.9-5.3,3.8-7.9,5.8c-0.7,0.5-1.3,1.1-1.8,1.8
		c-0.9,1.3-1,2.6-0.2,3.8c0.8,1.2,2,1.5,3.6,1.2c0.9-0.2,1.6-0.7,2.4-1.2c4.2-2.9,8.6-5.7,12.8-8.6c0.4-0.3,0.8-0.5,1.3-0.7
		c1.1-0.3,2,0,2.6,1c0.5,0.8,0.4,1.7-0.4,2.5c-0.5,0.6-1.3,0.9-1.8,1.3c-3.9,2.6-8,5.2-11.9,7.8c-2.2,1.4-4.6,2.1-7.2,1.5
		C35.5,34.1,33.1,31.1,33.1,27.5z"/>
	<path class="st5" d="M12.8,36.6c-1.9,0.1-3.5-0.3-4.9-0.5c-0.5-0.1-1-0.2-1.4-0.3c-0.7-0.2-1.1-0.7-1.1-1.3c0-0.5-0.1-1.1-0.1-1.5
		c0-1.3,0.7-1.8,2-1.6c1,0.2,1.8,0.3,2.8,0.5c1.2,0.2,2.3,0.3,3.5,0.1c1.2-0.2,1.9-1,2.2-2.1c0.3-1.3,0.3-2.4-0.8-3.4
		s-2.4-1.3-3.8-1.6c-2.5-0.7-5-1.3-7.5-1.8c-1.6-0.3-1.9-0.8-1.9-2.3c0-0.4,0-0.8,0-1.2c0-1.2,0.7-1.7,1.8-1.4c2,0.5,4,1,6.1,1.3
		c1.6,0.4,3.4,0.7,4.9,1.3c2.7,1.1,4.6,2.8,5.4,5.7c0.9,3.4-0.2,7.8-4.1,9.6C14.8,36.5,13.6,36.6,12.8,36.6z"/>
	<path class="st5" d="M26.5,44.2c0,2.1-0.8,3.8-1.8,5.4c-2.4,3.5-4.8,6.9-7.3,10.4c-0.4,0.6-0.8,1.2-1.2,1.7
		c-0.6,0.9-1.4,1.1-2.2,0.5s-1-1.3-0.3-2.3c2.6-3.8,5.3-7.5,7.9-11.4c0.8-1.2,1.4-2.3,1.6-3.7c0.3-1.6-0.3-3-1.6-3.9
		c-1.4-1.1-3-1.3-4.6-0.4c-1.1,0.6-1.9,1.3-2.6,2.3c-1.8,2.2-3.7,4.3-5.4,6.5c-0.4,0.5-0.9,0.9-1.5,0.9c-1.2-0.1-1.6-1.3-1-2.3
		c1.1-1.4,2.2-2.9,3.4-4.2c1-1.2,1.8-2.4,2.8-3.5c1.3-1.4,2.8-2.5,4.7-3c2.6-0.7,4.9,0.2,6.8,1.9C25.7,40.6,26.5,42.3,26.5,44.2z"/>
	<path class="st4" d="M67.7,60.3c0.3-0.7,0.6-1.3,0.8-2c0.7-1.6,1.3-3.4,1.9-5c0.2-0.5,0.6-0.4,0.9-0.4c0.4,0,0.6,0,0.8,0.4
		c0.9,2.2,1.7,4.3,2.6,6.5c0.2,0.5,0,0.5-0.4,0.5c-1,0-0.9,0-1.3-0.9c-0.5-1.3-0.1-1-1.5-1.1c-0.5,0-1.2-0.1-1.5,0.1
		c-0.5,0.2-0.5,0.9-0.7,1.3c-0.1,0.3-0.3,0.5-0.6,0.4C68.4,60.3,68.1,60.3,67.7,60.3z M71.2,54.7c-0.2,0.5-0.3,0.8-0.4,1.1
		c-0.6,1.6-0.6,1.6,1.2,1.4c0,0,0,0,0.1-0.1C71.8,56.4,71.5,55.7,71.2,54.7z"/>
	<path class="st4" d="M105.6,55.4c0.1-0.8,0.6-0.5,1-0.5c0.5,0,0.3,0.4,0.3,0.6c0,2.3,0,4.5,0,6.8c0,0.6-0.3,0.6-0.7,0.6
		s-0.7,0-0.7-0.5c0.1-0.7,0-1.3,0-2c0-0.3-0.1-0.4-0.4-0.2c-1.8,0.9-3.3-0.3-3.4-1.9c0-0.5,0-1.1,0.1-1.5
		C102.2,54.9,104.1,54.2,105.6,55.4z M105.5,57.7c0-0.3,0-0.6,0-0.9c0-0.2-0.1-0.4-0.2-0.5c-0.7-0.7-1.6-0.5-2,0.4
		c-0.3,0.7-0.3,1.3,0,2c0.2,0.6,0.8,0.8,1.3,0.7c0.7-0.1,0.9-0.4,0.9-1.2C105.5,58,105.5,57.8,105.5,57.7z"/>
	<path class="st4" d="M86,59.8c-0.6,0.4-1.1,0.7-1.7,0.6c-0.9-0.1-1.4-0.6-1.6-1.3c-0.2-1,0.3-1.7,1.1-2.1c0.6-0.2,1.3-0.2,1.8-0.1
		c0.4,0.1,0.4-0.1,0.3-0.4c-0.1-0.5-0.5-0.7-1-0.7s-1,0.1-1.3,0.2c-0.3,0.1-0.4,0.1-0.5-0.3c-0.1-0.6,0.2-0.8,0.7-0.9
		c0.7-0.1,1.3-0.2,2.1,0c1,0.3,1.4,0.9,1.4,1.8c0,1.1,0,2.1,0,3.2c0,0.3-0.1,0.4-0.4,0.4C86.4,60.2,86,60.5,86,59.8z M85,57.9
		c-0.8,0-1.1,0.3-1.1,0.8c0,0.4,0.3,0.7,0.8,0.7c0.7,0,1.2-0.4,1.2-1C85.9,57.7,85.3,58,85,57.9z"/>
	<path class="st4" d="M90.2,45.5c-0.5,0-0.9,0-1.3,0s-0.4,0.2-0.3,0.4c0.2,0.5,0.7,0.9,1.3,1c0.5,0,1,0,1.4-0.2
		c0.2,0,0.5-0.2,0.5,0.1s0.3,0.8-0.2,1c-1.1,0.3-2.1,0.4-3.2-0.1c0,0,0,0-0.1,0c-1.2-0.7-1.6-2.4-0.9-3.8c0.6-1.3,2-1.7,3.3-1.3
		c1,0.4,1.6,1.9,1.3,2.8c-0.1,0.2-0.2,0.2-0.4,0.2C91.1,45.5,90.7,45.5,90.2,45.5z M88.5,44.5c0.6,0,1.1,0,1.6,0s0.5-0.2,0.4-0.5
		c-0.2-0.4-0.5-0.7-1-0.6C88.9,43.5,88.7,43.9,88.5,44.5z"/>
	<path class="st4" d="M74,45.2c0-1.7,1-2.9,2.6-2.9c1.7,0,2.7,1.1,2.7,2.8s-1,2.9-2.7,2.9C75.1,48,74,46.9,74,45.2z M78.1,45.4
		c0-0.4,0-0.7-0.1-1c-0.2-0.7-0.7-1-1.3-1c-0.6,0-1,0.3-1.3,1c-0.1,0.5-0.1,0.9,0,1.3c0.2,0.7,0.7,1.2,1.3,1.2
		c0.6,0,1.1-0.4,1.3-1.1C78.1,45.6,78.1,45.4,78.1,45.4z"/>
	<path class="st4" d="M117.2,58c-0.5,0-0.9,0-1.3,0s-0.4,0.2-0.3,0.5c0.2,0.7,0.8,0.9,1.3,0.9s1.1-0.1,1.5-0.2
		c0.3-0.1,0.3,0,0.4,0.3c0.1,0.6-0.1,0.9-0.7,1c-0.7,0.1-1.3,0.1-1.9,0c-1.3-0.2-2.1-1.3-2.1-2.7c0-0.7,0.2-1.3,0.6-1.9
		c0.8-0.9,2-1.2,3.1-0.7c0.9,0.4,1.3,1.7,1.2,2.7c0,0.3-0.2,0.3-0.4,0.3C118.2,58,117.7,58,117.2,58z M116.5,56.9c0.2,0,0.5,0,0.7,0
		c0.5,0,0.5-0.2,0.3-0.5c-0.3-0.7-1.2-0.9-1.6-0.3c-0.2,0.2-0.3,0.4-0.3,0.7c0.1,0.2,0.4,0.1,0.6,0.1
		C116.3,56.9,116.4,56.9,116.5,56.9z"/>
	<path class="st4" d="M89.9,55.5c0.6-0.6,1.3-0.9,2-0.8c1,0.1,1.5,0.7,1.5,1.6c0,1.2,0,2.3,0,3.6c0,0.3-0.1,0.4-0.4,0.4
		c-1,0-1,0.1-1-1c0-0.9,0-1.6,0-2.5c0-0.7-0.3-1-0.9-1c-0.7,0-1.3,0.5-1.3,1c0,1,0,1.9,0,3c0,0.4-0.1,0.5-0.5,0.5c-1,0-1,0-1-0.9
		c0-1.3,0-2.6,0-3.9c0-0.2-0.2-0.6,0.3-0.6c0.3,0,0.9-0.3,0.9,0.4C89.8,55.4,89.8,55.4,89.9,55.5z"/>
	<path class="st4" d="M113,56.9c0,0.5,0,1.1,0,1.5c0,0.9-0.5,1.5-1.3,1.8c-0.7,0.2-1.3,0.2-1.9,0.1c-1-0.2-1.5-1-1.5-2s0-1.9,0-3
		c0-0.4,0.1-0.5,0.5-0.5c0,0,0,0,0.1,0c0.9,0,0.9,0,0.9,0.8s0,1.5,0,2.4c0,0.8,0.4,1.3,1.1,1.3s1.1-0.4,1.1-1.3c0-0.9,0-1.8,0-2.7
		c0-0.4,0.1-0.6,0.5-0.5c0.2,0,0.3,0,0.5,0c0.4-0.1,0.5,0.1,0.5,0.5C113,55.9,113,56.4,113,56.9z"/>
	<path class="st4" d="M68.4,44.2c0-1.1,0-2.1,0-3.3c0-0.4,0.1-0.5,0.5-0.5c1,0,1,0,1,0.9c0,1.5,0,3.1,0,4.6c0,0.9-0.1,0.8,0.8,0.8
		c0.8,0,1.4,0,2.2,0c0.5,0,0.5,0.3,0.5,0.6s0.1,0.7-0.5,0.7c-1.3,0-2.7,0-3.9,0c-0.4,0-0.5-0.1-0.5-0.5
		C68.4,46.3,68.4,45.2,68.4,44.2z"/>
	<path class="st4" d="M95.2,57.7c0-0.3,0-0.5,0-0.8c0-0.6,0.1-1.1-0.8-1c-0.5,0.1-0.2-0.4-0.3-0.7c0-0.2,0-0.5,0.3-0.4
		c0.8,0.2,0.8-0.3,0.8-0.9c0-0.2-0.2-0.6,0.2-0.7c0.3-0.1,0.7-0.1,1.1,0c0.2,0,0.1,0.3,0.1,0.5c0,1,0,1,1,1c0.4,0,0.6,0,0.6,0.6
		c0,0.5-0.1,0.6-0.6,0.6c-1,0-1,0-1,1c0,0.5,0,0.9,0,1.3c0,0.9,0.2,1,1,1c0.2,0,0.6-0.4,0.7,0.2c0.1,0.8,0,0.9-0.6,0.9
		c-0.3,0-0.6,0-0.9,0c-1,0-1.4-0.6-1.5-1.5C95.2,58.5,95.2,58.1,95.2,57.7L95.2,57.7z"/>
	<path class="st4" d="M78.1,60.4c-1.6,0-2-0.5-2-1.9c0-0.7,0-1.3,0-2c0-0.4-0.1-0.6-0.5-0.5c-0.5,0.1-0.5-0.2-0.5-0.6s0-0.7,0.5-0.6
		c0.5,0.1,0.6-0.1,0.5-0.5c0-0.1,0-0.3,0-0.4c-0.1-0.5,0.1-0.7,0.6-0.6c0.8,0,0.8,0,0.8,0.8s0,0.8,0.9,0.8c0.4,0,0.8-0.1,0.7,0.6
		c0,0.5-0.2,0.6-0.6,0.6c-1,0-1,0-1,1c0,0.5,0,1,0,1.4c0,0.8,0.2,1,1,0.9c0.7-0.1,0.9,0.2,0.7,0.9c-0.1,0.2-0.2,0.2-0.3,0.2
		C78.4,60.4,78.2,60.4,78.1,60.4z"/>
	<path class="st4" d="M81.3,56.3c0,1.2,0,2.3,0,3.6c0,0.4-0.1,0.6-0.5,0.5c-0.2,0-0.4,0-0.6,0C80,60.3,80,60.2,80,60
		c0-2.5,0-4.9,0-7.4c0-0.2,0.1-0.3,0.3-0.4c1.1-0.1,1.1-0.1,1.1,1C81.3,54.3,81.3,55.3,81.3,56.3z"/>
	<path class="st4" d="M84.7,43c0.4-0.5,1-0.8,1.5-0.7c0.2,0,0.3,0.1,0.3,0.3c0,0.8,0.1,0.8-0.8,1c-0.7,0.1-1.3,0.4-1.2,1.3
		c0.1,0.9,0,1.6,0,2.5c0,0.4-0.1,0.5-0.5,0.5c-0.2,0-0.4,0-0.5,0c-0.3,0-0.4-0.1-0.4-0.4c0-1.5,0-3.2,0-4.7c0-0.2,0-0.4,0.2-0.4
		c0.3,0.1,0.7-0.2,0.9,0.2C84.6,42.8,84.5,42.9,84.7,43z"/>
	<path class="st4" d="M81.9,45.2c0,0.8,0,1.4,0,2.2c0,0.4-0.1,0.6-0.5,0.5c-0.2,0-0.3,0-0.5,0c-0.3,0-0.4-0.1-0.4-0.4
		c0-1.5,0-3.1,0-4.6c0-0.3,0.1-0.5,0.4-0.4c0.2,0,0.3,0,0.5,0c0.4,0,0.5,0.1,0.5,0.5C81.9,43.7,81.9,44.4,81.9,45.2z"/>
	<path class="st4" d="M100.6,57.6c0,0.8,0,1.4,0,2.2c0,0.3,0,0.5-0.4,0.5c-1,0-1,0-1-1c0-1.3,0-2.6,0-3.9c0-0.5,0.2-0.6,0.6-0.6
		c0.8,0,0.8,0,0.8,0.8C100.6,56.4,100.6,57,100.6,57.6L100.6,57.6z"/>
	<path class="st4" d="M94.3,45.7c-0.2,0-0.4,0-0.6,0c-0.5,0.1-0.6-0.1-0.7-0.6c0-0.5,0.1-0.7,0.7-0.6c0.5,0,1,0,1.4,0
		c0.6,0,0.4,0.4,0.4,0.7s0.1,0.6-0.4,0.6C94.8,45.6,94.5,45.7,94.3,45.7z"/>
	<path class="st4" d="M81.9,40.5c0,0.9,0.1,0.7-0.9,0.8c-0.9,0.1-0.5-0.6-0.6-0.9c-0.1-0.9,0.5-0.5,0.9-0.6
		C82.1,39.7,81.9,40.2,81.9,40.5z"/>
	<path class="st4" d="M100.6,53.1c0.2,0.7-0.2,0.7-0.7,0.7c-0.9,0-0.6,0.1-0.7-0.8c-0.1-0.7,0.3-0.6,0.8-0.7
		C100.6,52.1,100.7,52.5,100.6,53.1z"/>
</g>
</svg>
