<svg width="389" height="126" viewBox="0 0 389 126" fill="none" xmlns="http://www.w3.org/2000/svg">
<path d="M162.775 3.08557H177.097L182.952 22.53C183.37 23.9936 183.788 25.6662 184.206 27.548C184.624 29.4297 185.042 31.2069 185.356 32.984C185.774 34.9703 186.192 37.0611 186.506 39.1519H186.715C187.029 37.0611 187.447 34.9703 187.76 32.984C188.074 31.2069 188.492 29.4297 188.806 27.548C189.224 25.6662 189.642 23.9936 190.06 22.53L195.81 3.08557H210.341V49.815H200.514V28.907C200.514 27.4434 200.514 25.7708 200.619 23.7845C200.619 21.9028 200.828 20.0211 200.828 18.2439C200.933 16.2576 201.037 14.1668 201.246 12.076H201.142C200.723 13.9577 200.41 15.944 199.992 17.8257C199.678 19.3938 199.26 21.0665 198.842 22.8437C198.424 24.6208 198.005 26.1889 197.587 27.548L190.897 49.7105H182.115L175.425 27.548C175.007 26.1889 174.588 24.6208 174.17 22.8437C173.752 21.0665 173.334 19.3938 173.02 17.8257C172.602 15.944 172.184 14.0623 171.87 12.076H171.766C171.87 14.1668 171.975 16.2576 172.184 18.2439C172.184 20.0211 172.393 21.7983 172.393 23.7845C172.393 25.6662 172.498 27.4434 172.498 28.907V49.815H162.88V3.08557H162.775Z" fill="white"/>
<path d="M239.195 49.8149V45.0061H238.986C237.731 46.9923 236.372 48.4559 234.804 49.2922C233.236 50.2331 231.25 50.6512 228.95 50.6512C225.186 50.6512 222.259 49.5013 220.273 47.3059C218.287 45.1106 217.241 42.0789 217.241 38.42V16.3621H227.068V36.5383C227.068 38.42 227.486 39.8836 228.427 40.8244C229.368 41.8698 230.622 42.288 232.4 42.288C234.177 42.288 235.954 41.6608 237.104 40.3017C238.254 38.9427 238.776 37.2701 238.776 35.1793V16.3621H248.499V49.7104H239.195V49.8149Z" fill="white"/>
<path d="M268.988 50.86C266.583 50.86 264.388 50.5464 262.506 50.0237C260.625 49.501 258.952 48.6647 257.593 47.7238C256.234 46.6784 255.189 45.5285 254.352 44.0649C253.62 42.7059 253.098 41.1378 252.993 39.4651H262.297C262.611 41.0332 263.343 42.2877 264.493 43.124C265.643 43.9604 267.211 44.3785 269.092 44.3785C270.974 44.3785 272.229 44.0649 273.169 43.3331C274.11 42.7059 274.633 41.765 274.633 40.5105C274.633 39.256 274.424 39.1515 273.901 38.7333C273.483 38.3152 272.856 37.897 272.019 37.5834C271.183 37.2698 270.347 37.0607 269.301 36.8516C268.256 36.6425 267.211 36.4335 265.956 36.2244C264.493 35.9108 263.029 35.5971 261.565 35.179C260.102 34.7608 258.847 34.2381 257.697 33.5063C256.548 32.7746 255.607 31.7292 254.979 30.5792C254.248 29.3247 253.934 27.7566 253.934 25.7704C253.934 23.7841 254.248 22.5296 255.084 21.2751C255.816 20.0207 256.861 18.8707 258.116 18.0344C259.37 17.1981 260.834 16.4663 262.611 16.0481C264.283 15.63 266.165 15.4209 268.151 15.4209C272.751 15.4209 276.306 16.3618 278.71 18.1389C281.114 19.9161 282.473 22.3205 282.996 25.2477H273.797C273.169 22.8432 271.288 21.6933 268.151 21.6933C265.015 21.6933 265.433 22.0069 264.493 22.5296C263.552 23.1569 263.134 23.9932 263.134 25.0386C263.134 26.084 263.343 26.1885 263.761 26.6067C264.179 27.0249 264.806 27.3385 265.538 27.5476C266.27 27.7566 267.211 27.9657 268.151 28.1748C269.197 28.3839 270.242 28.4884 271.392 28.6975C272.856 28.9066 274.424 29.3247 275.887 29.6384C277.351 30.0565 278.71 30.6838 279.965 31.4155C281.219 32.2519 282.16 33.2973 282.996 34.5517C283.728 35.9108 284.146 37.5834 284.146 39.6742C284.146 41.765 283.728 43.0195 282.996 44.4831C282.264 45.8421 281.219 46.992 279.86 47.9329C278.501 48.8737 276.933 49.501 275.051 50.0237C273.169 50.4418 271.183 50.7555 268.988 50.7555V50.86Z" fill="white"/>
<path d="M304.95 50.7557C302.232 50.7557 299.828 50.3375 297.633 49.3967C295.437 48.4558 293.556 47.3059 292.092 45.6332C290.524 44.0651 289.374 42.1834 288.538 40.0926C287.701 38.0018 287.283 35.5974 287.283 33.0884C287.283 30.5795 287.701 28.2796 288.538 26.0842C289.374 23.8889 290.524 22.0072 292.092 20.4391C293.556 18.871 295.437 17.6165 297.528 16.6756C299.619 15.7348 301.919 15.3166 304.532 15.3166C307.146 15.3166 309.028 15.7348 311.014 16.4665C312.896 17.1983 314.568 18.2437 316.032 19.6027C317.913 21.4845 319.272 23.6798 320.213 26.3979C321.05 29.1159 321.468 32.1476 321.468 35.3883H297.11C297.424 37.8973 298.26 39.8835 299.619 41.2426C300.978 42.7061 302.86 43.3334 305.16 43.3334C307.459 43.3334 307.982 43.0197 308.923 42.497C309.864 41.9743 310.7 41.138 311.223 40.0926H320.736C320.318 41.5562 319.691 42.9152 318.75 44.1697C317.809 45.4242 316.764 46.5741 315.404 47.515C314.045 48.4558 312.582 49.1876 310.805 49.7103C309.028 50.233 307.146 50.5466 304.95 50.5466V50.7557ZM304.428 22.4253C302.128 22.4253 300.455 23.0526 299.305 24.4116C298.155 25.7706 297.424 27.5478 297.005 29.8477H311.223C311.014 27.5478 310.387 25.6661 309.132 24.3071C307.878 22.948 306.309 22.3208 304.323 22.3208L304.428 22.4253ZM303.905 1.30823H315.404L307.982 11.4486H300.664L304.01 1.30823H303.905Z" fill="white"/>
<path d="M342.375 50.7554C339.657 50.7554 337.253 50.3372 335.057 49.3964C332.862 48.4555 330.98 47.3056 329.517 45.6329C327.949 44.0648 326.799 42.1831 325.963 40.0923C325.126 38.0015 324.708 35.5971 324.708 33.0881C324.708 30.5791 325.126 28.2793 325.963 26.0839C326.799 23.8886 327.949 22.0069 329.517 20.4388C330.98 18.8706 332.862 17.6162 334.953 16.6753C337.044 15.7344 339.344 15.3163 341.957 15.3163C344.571 15.3163 346.452 15.7344 348.439 16.4662C350.32 17.198 351.993 18.2434 353.457 19.6024C355.338 21.4842 356.697 23.6795 357.638 26.3975C358.474 29.1156 358.893 32.1472 358.893 35.388H334.535C334.848 37.897 335.685 39.8832 337.044 41.2422C338.403 42.7058 340.284 43.333 342.584 43.333C344.884 43.333 345.407 43.0194 346.348 42.4967C347.289 41.974 348.125 41.1377 348.648 40.0923H358.161C357.743 41.5559 357.115 42.9149 356.175 44.1694C355.234 45.4238 354.188 46.5738 352.829 47.5146C351.47 48.4555 350.007 49.1873 348.23 49.71C346.452 50.2327 344.571 50.5463 342.375 50.5463V50.7554ZM341.853 22.425C339.553 22.425 337.88 23.0523 336.73 24.4113C335.58 25.7703 334.848 27.5475 334.43 29.8474H348.648C348.439 27.5475 347.811 25.6658 346.557 24.3067C345.302 22.9477 343.734 22.3205 341.748 22.3205L341.853 22.425Z" fill="white"/>
<path d="M160.372 77.0996H190.375C205.01 77.0996 213.269 90.5853 213.269 99.8894C213.269 109.193 209.61 112.852 206.16 116.302C201.351 121.111 196.542 123.934 188.702 123.934H160.476V122.261H171.139V78.9813H160.476V77.2041L160.372 77.0996ZM179.084 78.4586V122.365H188.179C196.752 122.365 203.965 119.438 203.965 99.7848C203.965 80.1313 199.992 78.4586 188.806 78.4586H179.084Z" fill="white"/>
<path d="M235.745 89.6447C244.003 89.6447 251.949 97.1715 251.949 107.521C251.949 117.87 244.108 124.875 235.431 124.875C226.754 124.875 219.332 116.93 219.332 107.521C219.332 98.1124 228.218 89.6447 235.745 89.6447ZM229.159 120.693C231.25 122.784 233.654 123.307 235.64 123.307C238.672 123.307 240.867 121.948 242.122 120.693C244.735 118.08 244.944 113.898 244.944 109.716C244.944 100.203 244.944 96.4398 241.913 93.4081C241.181 92.6763 239.195 91.2128 235.745 91.2128C232.295 91.2128 230.727 92.4672 229.472 93.7217C226.65 96.5443 226.65 100.83 226.65 109.821C226.65 118.811 226.859 118.289 229.368 120.798L229.159 120.693Z" fill="white"/>
<path d="M261.88 124.77V83.4766C261.88 79.9222 259.057 78.9814 255.921 78.9814V76.9951L268.048 76.4724V96.9623C269.929 91.8398 274.111 89.5399 278.083 89.5399C285.61 89.5399 293.242 97.1714 293.242 106.894C293.242 116.616 285.61 124.456 277.143 124.456C268.675 124.456 268.048 121.111 266.27 117.034C264.807 119.02 263.866 122.156 263.552 124.665H261.88V124.77ZM271.811 93.7215C268.466 97.0668 268.152 101.248 268.152 106.057C268.152 115.152 268.675 118.498 271.184 121.007C272.752 122.575 274.529 123.202 276.62 123.202C285.819 123.202 285.819 112.225 285.819 107.625C285.819 103.026 285.819 96.8577 282.579 93.5125C281.115 92.0489 279.547 91.2126 277.352 91.2126C275.156 91.2126 273.484 92.0489 271.811 93.7215Z" fill="white"/>
<path d="M309.027 100.203C311.014 91.2126 315.613 90.2717 317.704 90.2717C321.781 90.2717 323.349 93.4079 323.349 95.4987C323.349 97.5895 321.99 100.099 319.691 100.099C317.391 100.099 316.136 98.844 316.136 96.4396C316.136 94.0352 317.704 93.4079 317.704 92.7807C317.704 92.1535 317.495 91.8398 316.868 91.8398C312.164 91.8398 309.55 99.8894 309.55 108.566V121.843H316.345V123.725H298.155V121.843H303.487V98.4259C303.487 95.0806 301.71 93.3034 298.155 93.0943V91.2126L309.027 90.6899V100.099V100.203Z" fill="white"/>
<path d="M355.652 113.898C355.443 116.198 352.098 124.874 341.958 124.874C331.817 124.874 326.695 114.211 326.695 106.998C326.695 99.7848 332.863 89.6445 341.33 89.6445C349.798 89.6445 355.13 96.4396 355.757 106.371H333.804V109.403C333.804 117.661 336.626 122.156 342.899 122.156C349.171 122.156 351.994 119.125 352.934 113.898H355.757H355.652ZM348.544 100.412C348.544 97.0668 348.126 91.0035 341.435 91.0035C334.744 91.0035 333.804 96.7532 333.804 104.071H348.544V100.412ZM338.717 85.1492L344.258 80.1313C346.453 78.145 347.812 77.3087 348.962 77.3087C350.112 77.3087 351.053 78.2496 351.053 79.295C351.053 80.3404 350.53 80.9676 349.171 81.4903L338.926 85.5674L338.612 85.1492H338.717Z" fill="white"/>
<path d="M388.896 113.898C388.687 116.198 385.341 124.875 375.201 124.875C365.06 124.875 359.938 114.212 359.938 106.998C359.938 99.785 366.106 89.6447 374.574 89.6447C383.041 89.6447 388.373 96.4398 389 106.371H367.047V109.403C367.047 117.661 369.869 122.157 376.142 122.157C382.414 122.157 385.237 119.125 386.178 113.898H389H388.896ZM381.787 100.412C381.787 97.067 381.369 91.0037 374.678 91.0037C367.988 91.0037 367.047 96.7534 367.047 104.071H381.787V100.412Z" fill="white"/>
<path fill-rule="evenodd" clip-rule="evenodd" d="M0.73877 0.471558H63.0447C97.5648 0.471558 125.455 28.4816 125.455 62.882C125.455 97.4022 97.4451 125.292 63.0447 125.292H28.0237V29.1155H40.5686V112.748H63.0447C90.532 112.748 112.91 90.4587 112.91 62.882C112.91 35.3947 90.6213 13.0164 63.0447 13.0164H13.2836V125.397H0.73877V0.471558Z" fill="white"/>
<path fill-rule="evenodd" clip-rule="evenodd" d="M63.4623 40.9288H58.4443V28.384H63.4623C82.6074 28.384 98.1696 43.9462 98.1696 63.0914C98.1696 82.2365 82.6074 97.7987 63.4623 97.7987H58.4443V85.2538H63.4623C75.6791 85.2538 85.6248 75.3082 85.6248 63.0914C85.6248 50.8745 75.6791 40.9288 63.4623 40.9288Z" fill="white"/>
</svg>
