<?xml version="1.0" encoding="UTF-8"?><svg id="Calque_1" xmlns="http://www.w3.org/2000/svg" viewBox="0 0 253.9 56.7"><defs><style>.cls-1{fill:none;}.cls-2{fill-rule:evenodd;}</style></defs><rect class="cls-1" width="253.9" height="56.7"/><path d="m51.42,9.36h4.55l1.86,6.17c.13.46.27,1,.4,1.59.13.6.27,1.16.36,1.73.13.63.27,1.29.36,1.96h.07c.1-.66.23-1.33.33-1.96.1-.56.23-1.13.33-1.73.13-.6.27-1.13.4-1.59l1.82-6.17h4.61v14.83h-3.12v-6.63c0-.46,0-1,.03-1.63,0-.6.07-1.19.07-1.76.03-.63.07-1.29.13-1.96h-.03c-.13.6-.23,1.23-.36,1.82-.1.5-.23,1.03-.36,1.59-.13.56-.27,1.06-.4,1.49l-2.12,7.03h-2.79l-2.12-7.03c-.13-.43-.27-.93-.4-1.49-.13-.56-.27-1.09-.36-1.59-.13-.6-.27-1.19-.36-1.82h-.03c.03.66.07,1.33.13,1.96,0,.56.07,1.13.07,1.76,0,.6.03,1.16.03,1.63v6.63h-3.05v-14.83h-.03Z"/><path d="m75.67,24.19v-1.53h-.07c-.4.63-.83,1.09-1.33,1.36-.5.3-1.13.43-1.86.43-1.19,0-2.12-.36-2.75-1.06-.63-.7-.96-1.66-.96-2.82v-7h3.12v6.4c0,.6.13,1.06.43,1.36.3.33.7.46,1.26.46s1.13-.2,1.49-.63c.36-.43.53-.96.53-1.63v-5.97h3.09v10.58h-2.95v.03Z"/><path d="m85.13,24.52c-.76,0-1.46-.1-2.06-.27-.6-.17-1.13-.43-1.56-.73-.43-.33-.76-.7-1.03-1.16-.23-.43-.4-.93-.43-1.46h2.95c.1.5.33.9.7,1.16.36.27.86.4,1.46.4s1-.1,1.29-.33c.3-.2.46-.5.46-.9s-.07-.43-.23-.56c-.13-.13-.33-.27-.6-.36-.27-.1-.53-.17-.86-.23-.33-.07-.66-.13-1.06-.2-.46-.1-.93-.2-1.39-.33-.46-.13-.86-.3-1.23-.53-.36-.23-.66-.56-.86-.93-.23-.4-.33-.9-.33-1.53s.1-1.03.36-1.43c.23-.4.56-.76.96-1.03.4-.27.86-.5,1.43-.63.53-.13,1.13-.2,1.76-.2,1.46,0,2.59.3,3.35.86.76.56,1.2,1.33,1.36,2.26h-2.92c-.2-.76-.8-1.13-1.79-1.13s-.86.1-1.16.27c-.3.2-.43.46-.43.8s.07.36.2.5.33.23.56.3c.23.07.53.13.83.2.33.07.66.1,1.03.17.46.07.96.2,1.43.3.46.13.9.33,1.29.56.4.27.7.6.96,1,.23.43.37.96.37,1.63s-.13,1.06-.37,1.53c-.23.43-.56.8-1,1.09-.43.3-.93.5-1.53.66-.6.13-1.23.23-1.92.23v.03Z"/><path d="m96.54,24.49c-.86,0-1.63-.13-2.32-.43-.7-.3-1.29-.66-1.76-1.19-.5-.5-.86-1.09-1.13-1.76-.27-.66-.4-1.43-.4-2.22s.13-1.53.4-2.22c.27-.7.63-1.29,1.13-1.79.46-.5,1.06-.9,1.72-1.19.66-.3,1.39-.43,2.22-.43s1.43.13,2.06.36c.6.23,1.13.56,1.59,1,.6.6,1.03,1.29,1.33,2.16.27.86.4,1.82.4,2.85h-7.73c.1.8.36,1.43.8,1.86.43.46,1.03.66,1.76.66s.9-.1,1.19-.27c.3-.17.56-.43.73-.76h3.02c-.13.46-.33.9-.63,1.29-.3.4-.63.76-1.06,1.06-.43.3-.9.53-1.46.7-.56.17-1.16.27-1.86.27v.07Zm-.17-8.99c-.73,0-1.26.2-1.63.63-.36.43-.6,1-.73,1.73h4.51c-.07-.73-.27-1.33-.66-1.76-.4-.43-.9-.63-1.53-.63l.03.03Zm-.17-6.7h3.65l-2.36,3.22h-2.32l1.06-3.22h-.03Z"/><path d="m108.42,24.49c-.86,0-1.63-.13-2.32-.43-.7-.3-1.29-.66-1.76-1.19-.5-.5-.86-1.09-1.13-1.76-.27-.66-.4-1.43-.4-2.22s.13-1.53.4-2.22c.27-.7.63-1.29,1.13-1.79.46-.5,1.06-.9,1.72-1.19.66-.3,1.39-.43,2.22-.43s1.43.13,2.06.36c.6.23,1.13.56,1.59,1,.6.6,1.03,1.29,1.33,2.16.27.86.4,1.82.4,2.85h-7.73c.1.8.37,1.43.8,1.86.43.46,1.03.66,1.76.66s.9-.1,1.19-.27c.3-.17.56-.43.73-.76h3.02c-.13.46-.33.9-.63,1.29-.3.4-.63.76-1.06,1.06-.43.3-.9.53-1.46.7-.56.17-1.16.27-1.86.27v.07Zm-.17-8.99c-.73,0-1.26.2-1.63.63-.37.43-.6,1-.73,1.73h4.51c-.07-.73-.27-1.33-.66-1.76-.4-.43-.9-.63-1.53-.63l.03.03Z"/><path d="m50.66,32.85h9.52c4.64,0,7.27,4.28,7.27,7.23s-1.16,4.11-2.26,5.21c-1.53,1.53-3.05,2.42-5.54,2.42h-8.96v-.53h3.38v-13.73h-3.38v-.56l-.03-.03Zm5.94.43v13.93h2.89c2.72,0,5.01-.93,5.01-7.17s-1.26-6.77-4.81-6.77h-3.09Z"/><path d="m74.58,36.83c2.62,0,5.14,2.39,5.14,5.67s-2.49,5.51-5.24,5.51-5.11-2.52-5.11-5.51,2.82-5.67,5.21-5.67Zm-2.09,9.85c.66.66,1.43.83,2.06.83.96,0,1.66-.43,2.06-.83.83-.83.9-2.16.9-3.48,0-3.02,0-4.21-.96-5.18-.23-.23-.86-.7-1.96-.7s-1.59.4-1.99.8c-.9.9-.9,2.26-.9,5.11s.07,2.69.86,3.48l-.07-.03Z"/><path d="m82.87,47.97v-13.1c0-1.13-.9-1.43-1.89-1.43v-.63l3.85-.17v6.5c.6-1.63,1.92-2.36,3.18-2.36,2.39,0,4.81,2.42,4.81,5.51s-2.42,5.57-5.11,5.57-2.89-1.06-3.45-2.36c-.46.63-.76,1.63-.86,2.42h-.53v.03Zm3.15-9.85c-1.06,1.06-1.16,2.39-1.16,3.91,0,2.89.17,3.95.96,4.74.5.5,1.06.7,1.73.7,2.92,0,2.92-3.48,2.92-4.94s0-3.42-1.03-4.48c-.46-.46-.96-.73-1.66-.73s-1.23.27-1.76.8Z"/><path d="m97.83,40.18c.63-2.85,2.09-3.15,2.75-3.15,1.29,0,1.79,1,1.79,1.66s-.43,1.46-1.16,1.46-1.13-.4-1.13-1.16.5-.96.5-1.16-.07-.3-.27-.3c-1.49,0-2.32,2.55-2.32,5.31v4.21h2.16v.6h-5.77v-.6h1.69v-7.43c0-1.06-.56-1.63-1.69-1.69v-.6l3.45-.17v3.02Z"/><path d="m112.63,44.52c-.07.73-1.13,3.48-4.35,3.48s-4.84-3.38-4.84-5.67,1.96-5.51,4.65-5.51,4.38,2.16,4.58,5.31h-6.97v.96c0,2.62.9,4.05,2.89,4.05s2.89-.96,3.18-2.62h.9-.03Zm-2.26-4.28c0-1.06-.13-2.99-2.26-2.99s-2.42,1.82-2.42,4.15h4.68v-1.16Zm-3.12-4.84l1.76-1.59c.7-.63,1.13-.9,1.49-.9s.66.3.66.63-.17.53-.6.7l-3.25,1.29-.1-.13h.03Z"/><path d="m123.18,44.52c-.07.73-1.13,3.48-4.35,3.48s-4.84-3.38-4.84-5.67,1.96-5.51,4.64-5.51,4.38,2.16,4.58,5.31h-6.97v.96c0,2.62.9,4.05,2.89,4.05s2.89-.96,3.18-2.62h.9-.03Zm-2.26-4.28c0-1.06-.13-2.99-2.26-2.99s-2.42,1.82-2.42,4.15h4.68v-1.16Z"/><path class="cls-2" d="m0,8.53h19.77c10.95,0,19.81,8.89,19.81,19.81s-8.89,19.81-19.81,19.81h-11.11v-30.52h3.98v26.54h7.13c8.72,0,15.82-7.07,15.82-15.82s-7.07-15.82-15.82-15.82H3.98v35.66H0V8.53Z"/><path class="cls-2" d="m19.9,21.37h-1.59v-3.98h1.59c6.08,0,11.01,4.94,11.01,11.01s-4.94,11.01-11.01,11.01h-1.59v-3.98h1.59c3.88,0,7.03-3.16,7.03-7.03s-3.16-7.03-7.03-7.03Z"/></svg>