<?xml version="1.0" encoding="utf-8"?>
<!-- Generator: Adobe Illustrator 25.1.0, SVG Export Plug-In . SVG Version: 6.00 Build 0)  -->
<svg version="1.1" id="Calque_1" xmlns="http://www.w3.org/2000/svg" xmlns:xlink="http://www.w3.org/1999/xlink" x="0px" y="0px"
	 viewBox="0 0 177.4 56.7" style="enable-background:new 0 0 177.4 56.7;" xml:space="preserve">
<style type="text/css">
	.st0{fill:#FFFFFF;}
	.st1{fill:none;}
</style>
<g>
	<g id="Calque_2_1_">
		<g id="Calque_1-2">
			<polygon class="st0" points="50.8,8.5 54.3,8.5 54.3,21 61.5,21 61.5,24 50.8,24 			"/>
			<path class="st0" d="M69.5,20v-1.4c-0.6,0.3-1.3,0.5-1.9,0.6c-1.4,0.3-2.1,0.7-2.1,1.6c0,1,0.7,1.3,1.6,1.3
				c1.2,0.1,2.3-0.7,2.4-1.9C69.5,20.1,69.5,20.1,69.5,20 M69.5,22.7L69.5,22.7c-0.7,1.1-2,1.7-3.4,1.6c-2.2,0-3.8-1.2-3.8-3.4
				c0-2.5,1.9-3.1,4.4-3.4c2-0.3,2.8-0.6,2.8-1.4s-0.5-1.3-1.7-1.3s-1.8,0.6-1.9,1.5h-3c0.1-1.9,1.6-3.7,4.9-3.7
				c1.1-0.1,2.2,0.2,3.2,0.7c1.1,0.7,1.8,2,1.7,3.3v5.7c0,0.9,0.1,1.4,0.4,1.5V24h-3.3C69.6,23.6,69.5,23.1,69.5,22.7"/>
			<path class="st0" d="M82.4,18.4c0-2-0.8-3.4-2.3-3.4c-1.7,0-2.5,1.5-2.5,3.4s0.9,3.3,2.5,3.3S82.4,20.4,82.4,18.4 M77.6,22.4
				L77.6,22.4V24h-3.2V8.5h3.3v3.4c0,0.9-0.1,1.9-0.1,2.6h0.1c0.7-1.2,2-1.9,3.3-1.8c2.9,0,4.8,2.5,4.8,5.9c0,3.7-1.9,5.9-4.8,5.9
				C79.6,24.4,78.3,23.7,77.6,22.4"/>
			<path class="st0" d="M94.8,18.5c0-2.1-0.9-3.5-2.5-3.5s-2.5,1.4-2.5,3.5s0.9,3.5,2.5,3.5S94.8,20.6,94.8,18.5 M86.4,18.5
				c-0.1-3.2,2.4-6,5.6-6.1s6,2.4,6.1,5.6c0,0.2,0,0.3,0,0.5c0.1,3.2-2.4,6-5.6,6.1s-6-2.4-6.1-5.6C86.4,18.8,86.4,18.7,86.4,18.5"
				/>
			<path class="st0" d="M102.6,14.9L102.6,14.9c0.5-1.3,1.7-2.2,3.1-2.2c0.2,0,0.5,0,0.7,0.1v2.8h-0.1c-0.2,0-0.5-0.1-0.7-0.1
				c-1.8,0-2.9,1.1-2.9,3.2V24h-3.3V12.9h3.2L102.6,14.9z"/>
			<path class="st0" d="M114.3,20v-1.4c-0.6,0.3-1.3,0.5-1.9,0.6c-1.4,0.3-2.1,0.7-2.1,1.6c0,1,0.7,1.3,1.6,1.3
				c1.2,0.1,2.3-0.7,2.4-1.9C114.3,20.1,114.3,20.1,114.3,20 M114.3,22.7L114.3,22.7c-0.7,1.1-2,1.7-3.3,1.6c-2.2,0-3.8-1.2-3.8-3.4
				c0-2.5,1.9-3.1,4.3-3.4c2-0.3,2.8-0.6,2.8-1.4s-0.5-1.3-1.6-1.3s-1.9,0.6-1.9,1.5h-3c0.1-1.9,1.6-3.7,4.9-3.7
				c1.1-0.1,2.2,0.2,3.2,0.7c1.1,0.7,1.8,2,1.7,3.3v5.7c0,0.9,0.1,1.4,0.4,1.5V24h-3.2C114.5,23.6,114.4,23.1,114.3,22.7"/>
			<path class="st0" d="M118.6,12.9h1.7V9.4h3.2v3.5h2.2V15h-2.2v5.5c0,0.8,0.5,1.1,1.2,1.1c0.2,0,0.5,0,0.8,0h0.2V24
				c-0.6,0.1-1.3,0.2-1.9,0.2c-2.1,0-3.5-0.7-3.5-2.9V15h-1.7C118.6,15,118.6,12.9,118.6,12.9z"/>
			<path class="st0" d="M134.8,18.5c0-2.1-0.9-3.5-2.5-3.5s-2.5,1.4-2.5,3.5s0.9,3.5,2.5,3.5S134.8,20.6,134.8,18.5 M126.4,18.5
				c0-3.2,2.6-5.9,5.8-5.9s5.9,2.6,5.9,5.8l0,0c0,3.2-2.6,5.9-5.8,5.9S126.4,21.7,126.4,18.5L126.4,18.5"/>
			<path class="st0" d="M139.4,12.9h3.3V24h-3.3V12.9z M139.4,8.5h3.3v2.9h-3.3V8.5z"/>
			<path class="st0" d="M147.6,14.9L147.6,14.9c0.5-1.3,1.8-2.2,3.1-2.2c0.2,0,0.5,0,0.7,0.1v2.8h-0.1c-0.2,0-0.5-0.1-0.7-0.1
				c-1.8,0-2.9,1.1-2.9,3.2V24h-3.3V12.9h3.1L147.6,14.9z"/>
			<path class="st0" d="M155.3,17.4h4.7c-0.1-1.5-1-2.5-2.3-2.5C156.2,14.9,155.5,15.9,155.3,17.4 M152.1,18.5
				c-0.2-3.1,2.2-5.7,5.3-5.9c0.1,0,0.3,0,0.4,0c1.4,0,2.8,0.5,3.8,1.4c1.3,1.4,1.9,3.3,1.8,5.3h-8.1c0.2,1.7,1.1,2.7,2.7,2.7
				c0.8,0.1,1.6-0.3,2-1.1h3.2c-0.6,2-2.4,3.5-5.2,3.5c-3.1,0.1-5.7-2.2-5.8-5.3C152,18.9,152,18.7,152.1,18.5"/>
			<path class="st0" d="M57.6,33.7l-2.9,7.8h5.5L57.6,33.7z M50,47.1c2.3,0,2.9-1.7,3.5-3.4l4.7-12.6h0.9L63.8,45
				c0.7,1.9,0.9,2.1,2.1,2.1h0.4v0.4h-7.5v-0.4h2c0.5,0,0.9-0.2,0.9-0.7c0-0.2,0-0.5-0.1-0.7l-1.2-3.6h-6l-0.2,0.4
				c-0.4,0.9-0.6,1.8-0.7,2.7c0,1.2,1,1.9,2.6,1.9h0.6v0.4H50V47.1z"/>
			<path class="st0" d="M69.7,38.9c0-0.6-0.4-1-0.9-1.1c-0.1,0-0.2,0-0.3,0h-0.7v-0.3c0.9,0,1.7,0,2.1-0.1l1.3-0.2h0.3V40
				c0.6-1.4,1.2-2.8,2.8-2.8c1-0.1,1.9,0.7,1.9,1.7c0,0.1,0,0.1,0,0.2c0.1,0.6-0.4,1.2-1,1.3c-0.6,0-1-0.4-1-1c0,0,0,0,0-0.1
				c0-0.4,0.2-0.8,0.6-1c0.2-0.2,0.3-0.3,0.3-0.4c0-0.1-0.2-0.4-0.7-0.4s-1,0.2-1.4,0.5c-1.4,1.3-1.4,3.3-1.4,4.9v3
				c0,0.8,0.2,1.2,1,1.2h0.8v0.4H68v-0.4h0.8c0.7,0,0.9-0.3,0.9-1.2L69.7,38.9z"/>
			<path class="st0" d="M86.1,43.6c0,0.6-0.1,1.1-0.3,1.6c-0.6,1.4-2,2.4-3.5,2.4c-2.5,0-4.7-2.4-4.7-5.1s2.2-5.3,4.7-5.3
				c1.8,0,3.6,1.5,3.6,3c0.1,0.7-0.4,1.3-1.1,1.4h-0.1c-0.6,0-1.1-0.6-1.1-1.2l0,0c0-0.5,0.3-0.9,0.7-1c0.3-0.1,0.4-0.3,0.4-0.5
				c0-0.6-1.3-1.3-2.4-1.3c-2,0-2.8,1.4-2.8,4.7s1,4.9,2.9,4.9s3.2-1.5,3.3-3.6C85.7,43.6,86.1,43.6,86.1,43.6z"/>
			<path class="st0" d="M88.2,36.8c1.6-0.9,2.4-2,2.4-3.3c0-0.3-0.1-0.5-0.3-0.5c-0.1,0-0.2,0.1-0.3,0.1c-0.2,0.2-0.4,0.2-0.6,0.2
				c-0.6,0-1-0.4-1-1c0,0,0,0,0-0.1c0-0.6,0.4-1.1,1-1.1h0.1c0.9,0,1.5,0.9,1.5,2.1c0,1.6-0.9,2.8-2.7,3.8L88.2,36.8z"/>
			<path class="st0" d="M101.8,33.7l-2.9,7.8h5.5L101.8,33.7z M94.1,47.1c2.3,0,2.9-1.7,3.5-3.4l4.7-12.6h0.9l4.7,13.8
				c0.7,1.9,0.9,2.1,2.2,2.1h0.4v0.4H103V47h2c0.5,0,0.9-0.2,0.9-0.7c0-0.2,0-0.5-0.1-0.7l-1.2-3.6h-6l-0.2,0.4
				c-0.4,0.9-0.6,1.8-0.7,2.7c0,1.2,1,1.9,2.6,1.9h0.6v0.4H94L94.1,47.1z"/>
			<path class="st0" d="M115.4,40.2c0.5-1.7,1.9-2.9,3.6-3c0.8,0,1.5,0.3,2.1,0.8c0.8,0.9,1.1,2.1,1.1,3.2V46c0,0.8,0.3,1.2,1,1.2
				h0.8v0.4h-5.3v-0.4h0.8c0.7,0,1-0.3,1-1.2v-5.4c0-2-0.5-2.9-1.8-2.9c-1.9,0-3.3,2.1-3.3,5.1v3.1c0,0.8,0.2,1.2,1,1.2h0.8v0.4
				h-5.3v-0.4h0.8c0.7,0,1-0.3,1-1.2v-7c0-0.7-0.4-1-1.2-1h-0.6v-0.4h0.8c0.2,0,1.4-0.1,1.7-0.1l0.7-0.1h0.5L115.4,40.2z"/>
			<path class="st0" d="M124.8,37.7c2.4-0.8,3.1-2.7,3.5-4.9h0.5v4.7h3.3v0.7h-3.3v7.1c-0.1,0.8,0.5,1.5,1.3,1.7c0.1,0,0.1,0,0.2,0
				c1.6,0,2.4-1.6,2.4-4.9h0.3c0,2.6-0.3,3.9-1.2,4.7c-0.6,0.5-1.3,0.8-2.1,0.8c-1.4,0.1-2.6-0.9-2.7-2.3c0-0.2,0-0.4,0-0.5v-6.6
				h-2.1L124.8,37.7z"/>
			<path class="st0" d="M135.8,32.7c0-0.6,0.5-1.2,1.2-1.2c0.6,0,1.2,0.5,1.2,1.2c0,0.6-0.5,1.2-1.1,1.2
				C136.4,33.9,135.8,33.4,135.8,32.7 M137.9,37.2c0,1.6,0,3.3,0,4.9c0,4,0,4.2,0.1,4.5c0.1,0.2,0.2,0.5,0.9,0.5h0.8v0.4h-5.3v-0.4
				h0.8c0.7,0,0.9-0.3,0.9-1.2v-7c0-0.7-0.4-1.1-1.2-1.1h-0.7v-0.4c0.9,0,1.7,0,2.1-0.1l1.3-0.2L137.9,37.2z"/>
			<path class="st0" d="M150.2,42c0-3-1.2-4.7-3.3-4.7c-0.7,0-1.3,0.3-1.8,0.7c-0.8,0.8-1.1,2-1.1,4.4c0,2.6,0.8,4.7,2.7,4.7
				C148.9,47.1,150.2,45.1,150.2,42 M151.9,37c0,4.2,0,7,0,8.9c0,6.4,0,6.2,0.3,6.5c0.2,0.2,0.5,0.2,0.7,0.2h0.8V53h-5.3v-0.4h0.8
				c0.7,0,1-0.3,1-1.2v-6.5c-0.8,1.8-2,2.7-3.6,2.7c-2.3,0-4.5-2.6-4.5-5.4s2.2-5.3,4.8-5.3c1.6,0,2.9,1,3.7,2.8
				c0.5-0.8,0.9-1.8,0.9-2.7H151.9z"/>
			<path class="st0" d="M154.4,37.5c0.9,0,1.8-0.1,2.6-0.2c0.2,0,0.4-0.1,0.6-0.1h0.6V45c0,1.3,0.5,2,1.5,2c1.7,0,3.2-2.3,3.2-5v-3
				c0-0.8-0.4-1.1-1.3-1.1h-1.2v-0.4h1.4c0.7,0,1.3-0.1,2-0.2c0.1,0,0.2,0,0.2,0h0.6v8.6c0,0.9,0.4,1.3,1.3,1.3h0.5v0.4H164h-0.5
				h-0.6v-2.9c-0.9,2-2.2,3-3.7,3c-1.6,0-2.9-1.3-2.8-2.9v-0.1v-5.8c0-0.5-0.5-1-1-1h-1V37.5z"/>
			<path class="st0" d="M174.6,41.5c0.5,0,0.7-0.2,0.7-0.8c0-2-1-3.3-2.6-3.3c-0.9,0-1.7,0.7-2,1.6c-0.3,0.8-0.5,1.6-0.4,2.5H174.6z
				 M177.4,43.6c-0.1,0.6-0.3,1.2-0.7,1.8c-0.8,1.4-2.2,2.2-3.8,2.3c-2.7,0-4.8-2.4-4.8-5.4c0-2.9,2-5.2,4.5-5.2s4.4,2,4.6,4.9h-7.1
				c0,1.6-0.1,5.2,2.9,5.2c1.9,0,3.4-1.4,3.9-3.6H177.4z"/>
			<path class="st0" d="M29.8,47.5h-6v-0.7c0.1-8,6.6-14.5,14.6-14.5h0.7v6h-0.7c-4.7,0-8.6,3.8-8.6,8.5L29.8,47.5z"/>
			<rect x="28.6" y="8.5" class="st0" width="10.4" height="5.9"/>
			<rect x="17.9" y="14.5" class="st0" width="10.8" height="5.9"/>
			<rect y="37.2" class="st0" width="5.9" height="10.4"/>
			<rect x="5.9" y="26.4" class="st0" width="5.9" height="10.8"/>
			<path class="st0" d="M39.1,20.4H28.6v6H17.9v10.8h-6v10.3h6v-3.1c0-10,8.1-18.1,18.1-18.1h0.1h3.1L39.1,20.4z"/>
			<rect x="11.9" y="20.4" class="st0" width="6" height="5.9"/>
		</g>
	</g>
	<rect class="st1" width="177.4" height="56.7"/>
</g>
</svg>
