<?xml version="1.0" encoding="utf-8"?>
<!-- Generator: Adobe Illustrator 28.3.0, SVG Export Plug-In . SVG Version: 6.00 Build 0)  -->
<svg version="1.1"
	 id="Logo_x5F_Def" xmlns:svg="http://www.w3.org/2000/svg" xmlns:inkscape="http://www.inkscape.org/namespaces/inkscape" xmlns:sodipodi="http://sodipodi.sourceforge.net/DTD/sodipodi-0.dtd"
	 xmlns="http://www.w3.org/2000/svg" xmlns:xlink="http://www.w3.org/1999/xlink" x="0px" y="0px" viewBox="0 0 738.6 82.5"
	 style="enable-background:new 0 0 738.6 82.5;" xml:space="preserve">
<style type="text/css">
	.st0{clip-path:url(#SVGID_00000114068431500504482260000000216596958485320582_);}
	.st1{fill:#204B65;}
	.st2{fill:#FFFFFF;}
	.st3{fill:#AFCB3F;}
	.st4{clip-path:url(#SVGID_00000088842762196828282140000001161038301750167171_);fill:#1B1B1A;}
	.st5{clip-path:url(#SVGID_00000047050138628535111540000013441221453007466624_);}
	.st6{fill:#E3B728;}
	.st7{fill:#5A55A4;}
	.st8{fill:#AF228C;}
	.st9{fill:#57278C;}
	.st10{fill:#DB9E34;}
	.st11{fill:#C03040;}
	.st12{fill:#591E82;}
	.st13{fill:#C03D70;}
	.st14{fill:#B2202F;}
</style>
<sodipodi:namedview  bordercolor="#000000" borderopacity="0.25" id="namedview933" inkscape:current-layer="Logo_x5F_Def" inkscape:cx="369.5514" inkscape:cy="41.921189" inkscape:deskcolor="#d1d1d1" inkscape:pagecheckerboard="0" inkscape:pageopacity="0.0" inkscape:showpageshadow="2" inkscape:window-height="901" inkscape:window-maximized="1" inkscape:window-width="1920" inkscape:window-x="-8" inkscape:window-y="-8" inkscape:zoom="1.5505286" pagecolor="#ffffff" showgrid="false">
	</sodipodi:namedview>
<g>
	<defs>
		<rect id="SVGID_1_" x="-4.5" y="-2.3" width="744.3" height="88.4"/>
	</defs>
	<clipPath id="SVGID_00000079477404720643998320000016408354936059521199_">
		<use xlink:href="#SVGID_1_"  style="overflow:visible;"/>
	</clipPath>
	
		<g id="g842" transform="translate(-43.23,-48.761918)" style="clip-path:url(#SVGID_00000079477404720643998320000016408354936059521199_);">
		<path id="path794" class="st1" d="M522.3,66.5c-60.6-23.4-134-22.2-162-4.9l23.2,69.7c33.1-20.4,55.3-25.1,138.7-20.2L522.3,66.5
			L522.3,66.5z"/>
		<g id="g798">
			<path id="path796" class="st2" d="M409.1,73c-0.8,0.8-1.7,1.2-2.9,1.2s-2.1-0.4-2.9-1.2c-0.8-0.8-1.2-1.7-1.2-2.9
				c0-1.1,0.4-2.1,1.2-2.9c0.9-0.9,1.7-1.2,2.9-1.2s2.1,0.4,2.9,1.2c0.9,0.9,1.2,1.7,1.2,2.9S410,72.2,409.1,73 M406.2,62.6
				c-2.1,0-3.9,0.8-5.3,2.2c-1.4,1.4-2.2,3.2-2.2,5.3c0,2.1,0.8,3.9,2.2,5.3s3.2,2.2,5.3,2.2s3.9-0.8,5.3-2.2
				c1.5-1.5,2.2-3.2,2.2-5.3c0-2.1-0.8-3.8-2.2-5.3C410.1,63.4,408.3,62.6,406.2,62.6"/>
		</g>
		<rect id="rect800" x="416" y="62.8" class="st2" width="3.4" height="14.7"/>
		<rect id="rect802" x="416" y="57.9" class="st2" width="3.4" height="3.4"/>
		<g id="g808">
			<g id="g806">
				<path id="path804" class="st2" d="M424.1,64.5c-1.3,1.2-2,2.8-2,4.6v8.4h3.5v-8.4c0-0.9,0.3-1.5,1-2.1c0.7-0.6,1.3-0.9,2.3-0.9
					h0.3v-3.5h-0.4C427,62.6,425.4,63.3,424.1,64.5"/>
			</g>
		</g>
		<polygon id="polygon810" class="st2" points="404.5,87.7 402.3,87.7 402.3,91.1 404.5,91.1 404.5,102.2 408.1,102.2 408.1,91.1 
			410.2,91.1 410.2,87.7 408.1,87.7 408.1,82.8 404.5,82.8 		"/>
		<rect id="rect812" x="412.7" y="82.8" class="st2" width="3.4" height="19.4"/>
		<g id="g818">
			<path id="path814" class="st2" d="M428.7,97.8c-0.8,0.8-1.7,1.2-2.9,1.2c-1.1,0-2.1-0.4-2.9-1.2c-0.8-0.8-1.2-1.7-1.2-2.9
				c0-1.1,0.4-2.1,1.2-2.9c0.9-0.9,1.7-1.2,2.9-1.2c1.1,0,2.1,0.4,2.9,1.2c0.9,0.9,1.2,1.7,1.2,2.9C430,96,429.5,97,428.7,97.8
				 M425.9,87.4c-2.1,0-3.9,0.8-5.3,2.2s-2.2,3.2-2.2,5.3c0,2,0.8,3.8,2.1,5.3c1.4,1.5,3.1,2.2,5.2,2.2c1.6,0,3-0.5,4.3-1.4v1.2h3.5
				v-7.3c0-2.1-0.8-3.8-2.2-5.3C429.7,88.1,427.9,87.4,425.9,87.4"/>
			<path id="path816" class="st2" d="M442,87.4c-1.7,0-3.2,0.7-4.5,1.9c-1.2,1.3-1.9,2.8-1.9,4.5v8.4h3.4v-8.4
				c0-0.8,0.3-1.5,0.9-2.1c0.6-0.6,1.2-0.9,2.1-0.9c0.8,0,1.5,0.3,2.1,0.9s0.9,1.2,0.9,2.1v8.4h3.5v-8.4c0-1.7-0.7-3.2-1.9-4.5
				C445.1,88,443.7,87.4,442,87.4"/>
		</g>
		<polygon id="polygon820" class="st2" points="451.6,87.7 449.4,87.7 449.4,91.1 451.6,91.1 451.6,102.2 455.1,102.2 455.1,91.1 
			457.3,91.1 457.3,87.7 455.1,87.7 455.1,82.8 451.6,82.8 		"/>
		<rect id="rect822" x="458.9" y="87.7" class="st2" width="3.4" height="14.7"/>
		<rect id="rect824" x="458.9" y="82.8" class="st2" width="3.4" height="3.4"/>
		<g id="g834">
			<path id="path826" class="st2" d="M474.9,97.8c-0.8,0.8-1.7,1.2-2.9,1.2c-1.1,0-2.1-0.4-2.9-1.2c-0.8-0.8-1.2-1.7-1.2-2.9
				c0-1.1,0.4-2.1,1.2-2.9c0.9-0.9,1.7-1.2,2.9-1.2c1.1,0,2.1,0.4,2.9,1.2c0.9,0.9,1.2,1.7,1.2,2.9C476.1,96,475.7,97,474.9,97.8
				 M472.1,87.4c-2.1,0-3.9,0.8-5.3,2.2s-2.2,3.2-2.2,5.3c0,2,0.8,3.8,2.1,5.3c1.4,1.5,3.1,2.2,5.2,2.2c1.6,0,3-0.5,4.3-1.4v8.2h3.5
				V94.9c0-2.1-0.8-3.8-2.2-5.3C475.9,88.1,474.1,87.4,472.1,87.4"/>
			<path id="path828" class="st2" d="M491.1,96c0,0.8-0.3,1.5-0.9,2.1c-0.6,0.6-1.2,0.9-2.1,0.9c-0.8,0-1.5-0.3-2.1-0.9
				s-0.9-1.2-0.9-2.1v-8.5h-3.5V96c0,1.7,0.7,3.2,1.9,4.5c1.3,1.2,2.8,1.9,4.5,1.9s3.2-0.7,4.5-1.9c1.3-1.2,2-2.8,2-4.5v-8.5H491
				L491.1,96z"/>
			<path id="path830" class="st2" d="M433,70.1c0-1.1,0.4-2.1,1.1-2.9c0.8-0.9,1.7-1.2,2.9-1.2c0.8,0,1.5,0.2,2.2,0.6l-6.1,4.1
				C433.1,70.5,433,70.3,433,70.1 M440.1,73c-0.8,0.9-1.7,1.2-2.9,1.2c-0.8,0-1.5-0.2-2.2-0.6l9.2-6l-0.1-0.3
				c-0.7-1.4-1.6-2.6-2.9-3.4c-1.2-0.9-2.7-1.2-4.2-1.2c-2.1,0-3.9,0.8-5.3,2.2c-1.4,1.5-2.2,3.2-2.2,5.3c0,2.1,0.8,3.9,2.2,5.3
				s3.2,2.2,5.3,2.2s3.9-0.8,5.3-2.3c1-1.1,1.6-2.3,2-3.6h-3.7C440.6,72.2,440.3,72.6,440.1,73"/>
			<path id="path832" class="st2" d="M499.6,95c0-1.1,0.4-2.1,1.1-2.9c0.8-0.9,1.7-1.2,2.9-1.2c0.8,0,1.5,0.2,2.2,0.6l-6.2,4
				C499.6,95.3,499.6,95.1,499.6,95 M507.3,96.6c-0.2,0.5-0.5,0.9-0.8,1.2c-0.8,0.9-1.7,1.2-2.9,1.2c-0.8,0-1.5-0.2-2.2-0.6l9.2-6
				l-0.1-0.3c-0.7-1.4-1.6-2.6-2.9-3.4s-2.7-1.2-4.2-1.2c-2.1,0-3.9,0.8-5.3,2.2c-1.4,1.5-2.2,3.2-2.2,5.3c0,2.1,0.8,3.9,2.2,5.3
				s3.2,2.2,5.3,2.2s3.9-0.8,5.3-2.3c1-1.1,1.6-2.3,2-3.6L507.3,96.6L507.3,96.6L507.3,96.6z"/>
		</g>
		<polygon id="polygon836" class="st2" points="386.8,77.5 398.4,77.5 398.4,73.8 390.4,73.8 390.4,57.9 386.8,57.9 		"/>
		<path id="path838" class="st2" d="M391.9,95.7l2.7-7.3l2.7,7.3H391.9z M399.6,102.2h3.9l-6.9-19.4h-4l-6.9,19.4h3.8l1.1-3.2h7.7
			L399.6,102.2z"/>
		<path id="path840" class="st3" d="M522.3,111.1c-78.9-5.2-103.7,0.8-127.5,13.6h127.5V111.1z"/>
	</g>
</g>
<g>
	<defs>
		<rect id="SVGID_00000107584094399391736760000006130463202060160418_" x="-4.5" y="-2.3" width="744.3" height="88.4"/>
	</defs>
	<clipPath id="SVGID_00000141439987856343790770000008043693583909311882_">
		<use xlink:href="#SVGID_00000107584094399391736760000006130463202060160418_"  style="overflow:visible;"/>
	</clipPath>
	
		<rect id="rect844" x="279.6" y="13.5" style="clip-path:url(#SVGID_00000141439987856343790770000008043693583909311882_);fill:#1B1B1A;" width="1" height="62.9"/>
</g>
<g>
	<defs>
		<rect id="SVGID_00000081615540837163511770000014279451935154277816_" x="-4.5" y="-2.3" width="744.3" height="88.4"/>
	</defs>
	<clipPath id="SVGID_00000111881972996031227540000008543052863877504656_">
		<use xlink:href="#SVGID_00000081615540837163511770000014279451935154277816_"  style="overflow:visible;"/>
	</clipPath>
	
		<g id="g900" transform="translate(-43.23,-48.761918)" style="clip-path:url(#SVGID_00000111881972996031227540000008543052863877504656_);">
		<path id="path846" class="st6" d="M225,62.4H217V67h1.2c4,0,5.6,0.3,6.3,1.3c0.4,0.5,0.5,0.9,0.5,3.3c0,0.3,0,0.4,0,0.4v-0.3l0,0
			L225,62.4"/>
		<rect id="rect848" x="176.7" y="69.4" class="st7" width="13.3" height="55"/>
		<polygon id="polygon850" class="st7" points="241.2,84.8 241.2,62.4 225,62.4 225,124.5 241.2,124.5 241.2,99.6 276.6,99.6 
			276.6,84.8 		"/>
		<path id="path852" class="st8" d="M176.7,69.4H170v4.4h1.1c3.9,0,4.5,0.3,5.2,1.1c0.5,0.7,0.5,0.9,0.5,5.9L176.7,69.4 M194,69.4
			h-4v8.3l0,0l0,0c0.1-3.2,1.2-4,3.7-4c5.9,0,9.2,3.6,9.2,11.5c0,9.1-3.4,12.4-12.9,12.5v4.4h3.9c15.5,0,23.4-5.6,23.4-16.8
			C217.3,74.4,209.7,69.4,194,69.4"/>
		<path id="path854" class="st9" d="M176.7,69.4L176.7,69.4v11.4c0,0,0,0.1,0,0.1V69.4"/>
		<path id="path856" class="st8" d="M51.2,62.4h-8V67h1.2c4,0,5.6,0.3,6.3,1.3c0.4,0.5,0.5,0.8,0.5,3.3c0,0.1,0,0,0,0.1V62.4"/>
		<path id="path858" class="st6" d="M111.8,116.4v8.1h7.9v-4.6h-1.2c-4,0-5.6-0.3-6.3-1.3C111.9,118.2,111.9,117.8,111.8,116.4"/>
		<path id="path860" class="st6" d="M67.4,115.3v9.2h7.9v-4.6h-1.2c-4,0-5.6-0.3-6.3-1.3C67.5,118.1,67.4,117.7,67.4,115.3"/>
		<path id="path862" class="st6" d="M51.2,115.4c0,2.3-0.1,2.7-0.5,3.2c-0.7,0.9-2.3,1.3-6.3,1.3h-1.2v4.6h8V115.4"/>
		<path id="path864" class="st7" d="M106.1,62.4L81.6,89.2L57,62.4h-5.8c0,0,0,9.4,0,9.4v43.6v9.1h0h16.1h0.1v-9.2V95.9l13.2,13.8
			h1.9l13.2-13.8v19.3v9.2h16.1h0.1v-8.1v-54H106.1"/>
		<path id="path866" class="st6" d="M176.7,115.8c0,2.6-0.1,2.9-0.5,3.5c-0.6,0.8-2.1,1.1-5.8,1.1h-1.1v4.1h7.4V115.8z"/>
		<path id="path868" class="st10" d="M124,49.1h-4.9v4.4h1.2c2.2,0,3.1,0,3.5,0.4c0.2,0.2,0.2,0.5,0.2,1.8L124,49.1"/>
		<path id="path870" class="st10" d="M137.8,62.4H124v27.1c0,3.2,0,3.6-0.3,3.9c-0.3,0.4-1.2,0.4-3.4,0.4h-1.2v4.4h11.8V84.8h3.6
			h3.3L137.8,62.4"/>
		<path id="path872" class="st11" d="M142.2,49.1h-4.4v13.3v0h0.2h4.1c4.2,0,7,4.5,7,11.1c0,6.8-2.8,11.3-7,11.3h-4.3l0,0v13.4h4.4
			c5.6,0,10.5-1.9,14.1-5.6c4.4-4.4,6.8-11.2,6.7-19.1C163.1,58.9,154.7,49.1,142.2,49.1L142.2,49.1z"/>
		<polyline id="polyline874" class="st12" points="57,62.4 51.2,62.4 51.2,71.6 65.5,71.6 57,62.4 		"/>
		<rect id="rect876" x="95.6" y="115.3" class="st13" width="16.2" height="9.2"/>
		<rect id="rect878" x="225" y="62.4" class="st13" width="16.2" height="9.2"/>
		<rect id="rect880" x="51.2" y="115.3" class="st13" width="16.2" height="9.2"/>
		<rect id="rect882" x="124" y="49.1" class="st14" width="13.8" height="13.3"/>
		<rect id="rect884" x="131" y="84.8" class="st14" width="6.9" height="13.4"/>
		<rect id="rect886" x="176.7" y="69.4" class="st12" width="13.3" height="12.2"/>
		<rect id="rect888" x="185.6" y="97.8" class="st12" width="4.4" height="4.4"/>
		<polyline id="polyline890" class="st13" points="190,115.2 176.7,115.2 176.7,124.5 190,124.5 190,115.2 		"/>
		<g id="g896">
			<path id="path892" class="st8" d="M254.6,62.4V67h1.2c4,0,5.6,0.3,6.3,1.3c0.5,0.7,0.5,1.1,0.5,6.5v10h13.9v-10
				c0-5.5,0-5.8,0.5-6.5c0.7-0.9,2.4-1.3,6.4-1.3h1.2v-4.6L254.6,62.4z"/>
			<path id="path894" class="st8" d="M277.1,118.5c-0.5-0.7-0.5-0.9-0.5-6.4V99.6h-13.9v12.5c0,5.4,0,5.8-0.5,6.4
				c-0.7,0.9-2.3,1.3-6.3,1.3h-1.2v4.6h30.1v-4.6h-1.2C279.5,119.8,277.8,119.5,277.1,118.5z"/>
		</g>
		<rect id="rect898" x="262.7" y="84.8" class="st12" width="13.9" height="14.8"/>
	</g>
</g>
<g>
	<defs>
		<rect id="SVGID_00000039095795098548528180000013374105584652338338_" x="-4.5" y="-2.3" width="744.3" height="88.4"/>
	</defs>
	<clipPath id="SVGID_00000122721436647328642720000009939938669118167231_">
		<use xlink:href="#SVGID_00000039095795098548528180000013374105584652338338_"  style="overflow:visible;"/>
	</clipPath>
</g>
<g>
	<path d="M513.1,51.5h6.6v2.6h-9.8V34.6h3.2V51.5z"/>
	<path d="M536.4,47.5h-11.8c0.1,1.2,0.6,2.2,1.4,3c0.8,0.7,1.8,1.1,3,1.1c1.7,0,2.9-0.7,3.6-2.2h3.4c-0.5,1.4-1.3,2.6-2.5,3.5
		s-2.7,1.4-4.5,1.4c-1.5,0-2.8-0.3-4-1c-1.2-0.7-2.1-1.6-2.7-2.8c-0.7-1.2-1-2.6-1-4.2s0.3-3,1-4.2c0.6-1.2,1.5-2.1,2.7-2.8
		c1.2-0.7,2.5-1,4-1c1.5,0,2.8,0.3,3.9,1c1.1,0.6,2,1.5,2.7,2.7c0.6,1.1,1,2.5,1,4C536.5,46.6,536.4,47.1,536.4,47.5z M533.1,45
		c0-1.2-0.4-2.1-1.3-2.8c-0.8-0.7-1.8-1.1-3.1-1.1c-1.1,0-2,0.4-2.8,1.1c-0.8,0.7-1.2,1.6-1.4,2.8H533.1z"/>
	<path d="M549.2,53.7c-1-0.4-1.7-1-2.3-1.8c-0.6-0.8-0.9-1.6-0.9-2.5h3.3c0.1,0.7,0.4,1.2,0.9,1.6s1.3,0.7,2.1,0.7
		c0.9,0,1.6-0.2,2.1-0.5c0.5-0.3,0.7-0.8,0.7-1.3c0-0.6-0.3-1-0.8-1.3c-0.6-0.3-1.4-0.6-2.6-0.9c-1.2-0.3-2.1-0.6-2.8-0.9
		c-0.7-0.3-1.4-0.8-1.9-1.4c-0.5-0.6-0.8-1.4-0.8-2.4c0-0.8,0.2-1.6,0.7-2.3c0.5-0.7,1.2-1.2,2.1-1.6c0.9-0.4,1.9-0.6,3.1-0.6
		c1.8,0,3.2,0.4,4.2,1.3c1.1,0.9,1.6,2.1,1.7,3.6H555c-0.1-0.7-0.3-1.2-0.8-1.7c-0.5-0.4-1.2-0.6-2-0.6c-0.8,0-1.5,0.2-1.9,0.5
		c-0.4,0.3-0.7,0.7-0.7,1.3c0,0.4,0.1,0.8,0.4,1s0.7,0.5,1.1,0.7c0.4,0.2,1.1,0.4,1.9,0.6c1.1,0.3,2,0.6,2.8,0.9s1.3,0.8,1.9,1.4
		s0.8,1.4,0.8,2.4c0,0.9-0.2,1.7-0.7,2.4c-0.5,0.7-1.2,1.2-2.1,1.6c-0.9,0.4-1.9,0.6-3.1,0.6C551.3,54.3,550.2,54.1,549.2,53.7z"/>
	<path d="M562,36c-0.4-0.4-0.6-0.9-0.6-1.5c0-0.6,0.2-1.1,0.6-1.5c0.4-0.4,0.9-0.6,1.5-0.6c0.6,0,1,0.2,1.4,0.6
		c0.4,0.4,0.6,0.9,0.6,1.5c0,0.6-0.2,1.1-0.6,1.5c-0.4,0.4-0.9,0.6-1.4,0.6C562.9,36.6,562.4,36.4,562,36z M565,38.6v15.4h-3.2V38.6
		H565z"/>
	<path d="M572.9,41.2v8.5c0,0.6,0.1,1,0.4,1.2c0.3,0.3,0.7,0.4,1.4,0.4h2v2.7h-2.5c-1.4,0-2.5-0.3-3.3-1s-1.1-1.8-1.1-3.3v-8.5h-1.8
		v-2.6h1.8v-3.8h3.2v3.8h3.8v2.6H572.9z"/>
	<path d="M593.7,47.5h-11.8c0.1,1.2,0.6,2.2,1.4,3c0.8,0.7,1.8,1.1,3,1.1c1.7,0,2.9-0.7,3.6-2.2h3.4c-0.5,1.4-1.3,2.6-2.5,3.5
		s-2.7,1.4-4.5,1.4c-1.5,0-2.8-0.3-4-1c-1.2-0.7-2.1-1.6-2.7-2.8c-0.7-1.2-1-2.6-1-4.2s0.3-3,1-4.2c0.6-1.2,1.5-2.1,2.7-2.8
		c1.2-0.7,2.5-1,4-1c1.5,0,2.8,0.3,3.9,1c1.1,0.6,2,1.5,2.7,2.7c0.6,1.1,1,2.5,1,4C593.8,46.6,593.7,47.1,593.7,47.5z M590.4,45
		c0-1.2-0.4-2.1-1.3-2.8c-0.8-0.7-1.8-1.1-3.1-1.1c-1.1,0-2,0.4-2.8,1.1c-0.8,0.7-1.2,1.6-1.4,2.8H590.4z"/>
	<path d="M615.3,39.1c0.9,0.5,1.7,1.3,2.2,2.2c0.5,1,0.8,2.2,0.8,3.6v9.1h-3.2v-8.6c0-1.4-0.3-2.4-1-3.2s-1.6-1.1-2.8-1.1
		s-2.1,0.4-2.8,1.1s-1,1.8-1,3.2v8.6h-3.2V33.3h3.2v7.1c0.5-0.7,1.2-1.2,2.1-1.5c0.8-0.4,1.7-0.5,2.7-0.5
		C613.4,38.4,614.4,38.6,615.3,39.1z"/>
	<path d="M622.3,42.2c0.6-1.2,1.5-2.1,2.6-2.8c1.1-0.7,2.3-1,3.7-1c1.2,0,2.3,0.2,3.2,0.7c0.9,0.5,1.6,1.1,2.2,1.8v-2.2h3.2v15.4
		h-3.2v-2.3c-0.5,0.7-1.3,1.3-2.2,1.8c-0.9,0.5-2,0.7-3.2,0.7c-1.3,0-2.5-0.3-3.6-1c-1.1-0.7-2-1.6-2.6-2.9c-0.6-1.2-1-2.6-1-4.2
		C621.3,44.7,621.6,43.4,622.3,42.2z M633.3,43.6c-0.4-0.8-1-1.4-1.7-1.8c-0.7-0.4-1.5-0.6-2.3-0.6c-0.8,0-1.6,0.2-2.3,0.6
		c-0.7,0.4-1.3,1-1.7,1.8c-0.4,0.8-0.7,1.7-0.7,2.8c0,1.1,0.2,2,0.7,2.8s1,1.4,1.7,1.8s1.5,0.6,2.3,0.6c0.8,0,1.6-0.2,2.3-0.6
		c0.7-0.4,1.3-1,1.7-1.8c0.4-0.8,0.7-1.7,0.7-2.8C633.9,45.3,633.7,44.3,633.3,43.6z"/>
	<path d="M652.4,39.1c1,0.5,1.7,1.3,2.3,2.2c0.5,1,0.8,2.2,0.8,3.6v9.1h-3.2v-8.6c0-1.4-0.3-2.4-1-3.2s-1.6-1.1-2.8-1.1
		s-2.1,0.4-2.8,1.1s-1,1.8-1,3.2v8.6h-3.2V38.6h3.2v1.8c0.5-0.6,1.2-1.1,2-1.5c0.8-0.4,1.7-0.5,2.6-0.5
		C650.3,38.4,651.4,38.6,652.4,39.1z"/>
	<path d="M659.4,42.2c0.6-1.2,1.5-2.1,2.6-2.8c1.1-0.7,2.3-1,3.7-1c1,0,2,0.2,3,0.7c1,0.4,1.8,1,2.3,1.8v-7.4h3.2v20.7h-3.2v-2.3
		c-0.5,0.7-1.2,1.4-2.2,1.8s-2,0.7-3.2,0.7c-1.3,0-2.6-0.3-3.7-1s-2-1.6-2.6-2.9c-0.6-1.2-1-2.6-1-4.2
		C658.5,44.7,658.8,43.4,659.4,42.2z M670.4,43.6c-0.4-0.8-1-1.4-1.7-1.8c-0.7-0.4-1.5-0.6-2.3-0.6c-0.8,0-1.6,0.2-2.3,0.6
		c-0.7,0.4-1.3,1-1.7,1.8c-0.4,0.8-0.7,1.7-0.7,2.8c0,1.1,0.2,2,0.7,2.8s1,1.4,1.7,1.8s1.5,0.6,2.3,0.6c0.8,0,1.6-0.2,2.3-0.6
		c0.7-0.4,1.3-1,1.7-1.8c0.4-0.8,0.7-1.7,0.7-2.8C671.1,45.3,670.9,44.3,670.4,43.6z"/>
	<path d="M678.7,36c-0.4-0.4-0.6-0.9-0.6-1.5c0-0.6,0.2-1.1,0.6-1.5c0.4-0.4,0.9-0.6,1.5-0.6c0.6,0,1,0.2,1.4,0.6
		c0.4,0.4,0.6,0.9,0.6,1.5c0,0.6-0.2,1.1-0.6,1.5c-0.4,0.4-0.9,0.6-1.4,0.6C679.6,36.6,679.1,36.4,678.7,36z M681.7,38.6v15.4h-3.2
		V38.6H681.7z"/>
	<path d="M685.8,42.2c0.6-1.2,1.5-2.1,2.7-2.8c1.1-0.7,2.4-1,3.9-1c1.9,0,3.4,0.4,4.6,1.3c1.2,0.9,2,2.2,2.5,3.8h-3.4
		c-0.3-0.8-0.7-1.4-1.3-1.8c-0.6-0.4-1.4-0.6-2.3-0.6c-1.3,0-2.3,0.5-3.1,1.4c-0.8,0.9-1.2,2.2-1.2,3.9s0.4,3,1.2,3.9
		c0.8,0.9,1.8,1.4,3.1,1.4c1.8,0,3.1-0.8,3.7-2.4h3.4c-0.4,1.6-1.3,2.8-2.5,3.7c-1.2,0.9-2.8,1.4-4.6,1.4c-1.5,0-2.8-0.3-3.9-1
		c-1.1-0.7-2-1.6-2.7-2.8c-0.6-1.2-1-2.6-1-4.2S685.2,43.4,685.8,42.2z"/>
	<path d="M702.6,42.2c0.6-1.2,1.5-2.1,2.6-2.8c1.1-0.7,2.3-1,3.7-1c1.2,0,2.3,0.2,3.2,0.7c0.9,0.5,1.6,1.1,2.2,1.8v-2.2h3.2v15.4
		h-3.2v-2.3c-0.5,0.7-1.3,1.3-2.2,1.8c-0.9,0.5-2,0.7-3.2,0.7c-1.3,0-2.5-0.3-3.6-1c-1.1-0.7-2-1.6-2.6-2.9c-0.6-1.2-1-2.6-1-4.2
		C701.6,44.7,702,43.4,702.6,42.2z M713.6,43.6c-0.4-0.8-1-1.4-1.7-1.8c-0.7-0.4-1.5-0.6-2.3-0.6c-0.8,0-1.6,0.2-2.3,0.6
		c-0.7,0.4-1.3,1-1.7,1.8c-0.4,0.8-0.7,1.7-0.7,2.8c0,1.1,0.2,2,0.7,2.8s1,1.4,1.7,1.8s1.5,0.6,2.3,0.6c0.8,0,1.6-0.2,2.3-0.6
		c0.7-0.4,1.3-1,1.7-1.8c0.4-0.8,0.7-1.7,0.7-2.8C714.3,45.3,714,44.3,713.6,43.6z"/>
	<path d="M727.1,39.1c0.9-0.5,2-0.7,3.2-0.7c1.3,0,2.6,0.3,3.7,1c1.1,0.7,2,1.6,2.6,2.8c0.6,1.2,1,2.6,1,4.1c0,1.5-0.3,2.9-1,4.2
		c-0.6,1.2-1.5,2.2-2.6,2.9s-2.3,1-3.7,1c-1.2,0-2.2-0.2-3.1-0.7c-0.9-0.5-1.7-1.1-2.2-1.8v9.6h-3.2V38.6h3.2v2.3
		C725.4,40.2,726.2,39.6,727.1,39.1z M733.6,43.5c-0.4-0.8-1-1.4-1.7-1.8c-0.7-0.4-1.5-0.6-2.3-0.6c-0.8,0-1.6,0.2-2.3,0.6
		c-0.7,0.4-1.3,1-1.7,1.8c-0.4,0.8-0.7,1.7-0.7,2.8c0,1.1,0.2,2,0.7,2.8c0.4,0.8,1,1.4,1.7,1.8c0.7,0.4,1.5,0.6,2.3,0.6
		c0.8,0,1.6-0.2,2.3-0.6c0.7-0.4,1.3-1,1.7-1.8s0.7-1.7,0.7-2.8C734.3,45.2,734,44.3,733.6,43.5z"/>
</g>
</svg>
