<svg width="68" height="59" viewBox="0 0 68 59" fill="none" xmlns="http://www.w3.org/2000/svg">
<rect width="68" height="59" fill="white"/>
<path fill-rule="evenodd" clip-rule="evenodd" d="M19 14H34.1316C42.5152 14 49.2887 21.1011 49.2887 29.8222C49.2887 38.5738 42.4862 45.6445 34.1316 45.6445H25.6264V21.2618H28.6731V42.4641H34.1316C40.8072 42.4641 46.242 36.8134 46.242 29.8222C46.242 22.8537 40.8289 17.1803 34.1316 17.1803H22.0466V45.671H19V14Z" fill="black"/>
<path fill-rule="evenodd" clip-rule="evenodd" d="M34.2331 24.2565H33.0144V21.0762H34.2331C38.8827 21.0762 42.6621 25.0215 42.6621 29.8751C42.6621 34.7288 38.8827 38.6741 34.2331 38.6741H33.0144V35.4938H34.2331C37.2001 35.4938 39.6155 32.9723 39.6155 29.8751C39.6155 26.7779 37.2001 24.2565 34.2331 24.2565Z" fill="black"/>
</svg>
