<?xml version="1.0" encoding="UTF-8" standalone="no"?>
<!-- Generator: Adobe Illustrator 27.5.0, SVG Export Plug-In . SVG Version: 6.00 Build 0)  -->

<svg
   version="1.1"
   id="Logo_x5F_Def"
   x="0px"
   y="0px"
   viewBox="0 0 479.09999 82.458459"
   xml:space="preserve"
   sodipodi:docname="logo-cd44-handicap-2023-mobile.svg"
   width="479.10001"
   height="82.458458"
   inkscape:version="1.2.2 (732a01da63, 2022-12-09)"
   xmlns:inkscape="http://www.inkscape.org/namespaces/inkscape"
   xmlns:sodipodi="http://sodipodi.sourceforge.net/DTD/sodipodi-0.dtd"
   xmlns="http://www.w3.org/2000/svg"
   xmlns:svg="http://www.w3.org/2000/svg"><defs
   id="defs230" /><sodipodi:namedview
   id="namedview228"
   pagecolor="#ffffff"
   bordercolor="#000000"
   borderopacity="0.25"
   inkscape:showpageshadow="2"
   inkscape:pageopacity="0.0"
   inkscape:pagecheckerboard="0"
   inkscape:deskcolor="#d1d1d1"
   showgrid="false"
   inkscape:zoom="1.3024283"
   inkscape:cx="239.55254"
   inkscape:cy="42.228813"
   inkscape:window-width="1680"
   inkscape:window-height="997"
   inkscape:window-x="-8"
   inkscape:window-y="-8"
   inkscape:window-maximized="1"
   inkscape:current-layer="Logo_x5F_Def" />
<style
   type="text/css"
   id="style117">
	.st0{fill:#204C65;}
	.st1{fill:#FFFFFF;}
	.st2{fill:#B0CD40;}
	.st3{fill:#1C1C1A;}
	.st4{fill:#E4B828;}
	.st5{fill:#5A55A5;}
	.st6{fill:#B0228D;}
	.st7{fill:#57278D;}
	.st8{fill:#DC9F35;}
	.st9{fill:#C13140;}
	.st10{fill:#591E82;}
	.st11{fill:#C13D70;}
	.st12{fill:#B2202F;}
</style>
<g
   id="g167"
   transform="translate(-43.8,-48.641545)">
	<path
   class="st0"
   d="m 522.9,66.4 c -60.6,-23.4 -134,-22.2 -162,-5 l 23.2,69.7 C 417.2,110.7 439.4,106 522.8,110.9 V 66.4 Z"
   id="path119" />
	<g
   id="g123">
		<path
   class="st1"
   d="m 409.7,72.9 c -0.8,0.8 -1.7,1.2 -2.9,1.2 -1.2,0 -2.1,-0.4 -2.9,-1.2 -0.8,-0.8 -1.2,-1.7 -1.2,-2.9 0,-1.1 0.4,-2.1 1.2,-2.9 0.9,-0.9 1.7,-1.2 2.9,-1.2 1.2,0 2.1,0.4 2.9,1.2 0.9,0.9 1.2,1.7 1.2,2.9 0,1.2 -0.3,2.1 -1.2,2.9 m -2.9,-10.4 c -2.1,0 -3.9,0.8 -5.3,2.2 -1.4,1.4 -2.2,3.2 -2.2,5.3 0,2.1 0.8,3.9 2.2,5.3 1.4,1.4 3.2,2.2 5.3,2.2 2.1,0 3.9,-0.8 5.3,-2.2 1.5,-1.5 2.2,-3.2 2.2,-5.3 0,-2.1 -0.8,-3.8 -2.2,-5.3 -1.4,-1.4 -3.2,-2.2 -5.3,-2.2"
   id="path121" />
	</g>
	<rect
   x="416.60001"
   y="62.700001"
   class="st1"
   width="3.4000001"
   height="14.7"
   id="rect125" />
	<rect
   x="416.60001"
   y="57.900002"
   class="st1"
   width="3.4000001"
   height="3.4000001"
   id="rect127" />
	<g
   id="g133">
		<g
   id="g131">
			<path
   class="st1"
   d="m 424.6,64.4 c -1.3,1.2 -2,2.8 -2,4.6 v 8.4 h 3.5 V 69 c 0,-0.9 0.3,-1.5 1,-2.1 0.7,-0.6 1.3,-0.9 2.3,-0.9 h 0.3 v -3.5 h -0.4 c -1.7,0 -3.3,0.7 -4.7,1.9"
   id="path129" />
		</g>
	</g>
	<polygon
   class="st1"
   points="405.1,87.6 402.9,87.6 402.9,91 405.1,91 405.1,102.1 408.6,102.1 408.6,91 410.8,91 410.8,87.6 408.6,87.6 408.6,82.7 405.1,82.7 "
   id="polygon135" />
	<rect
   x="413.29999"
   y="82.699997"
   class="st1"
   width="3.4000001"
   height="19.4"
   id="rect137" />
	<g
   id="g143">
		<path
   class="st1"
   d="m 429.3,97.8 c -0.8,0.8 -1.7,1.2 -2.9,1.2 -1.2,0 -2.1,-0.4 -2.9,-1.2 -0.8,-0.8 -1.2,-1.7 -1.2,-2.9 0,-1.2 0.4,-2.1 1.2,-2.9 0.9,-0.9 1.7,-1.2 2.9,-1.2 1.2,0 2.1,0.4 2.9,1.2 0.9,0.9 1.2,1.7 1.2,2.9 0,1.1 -0.4,2 -1.2,2.9 m -2.8,-10.5 c -2.1,0 -3.9,0.8 -5.3,2.2 -1.4,1.4 -2.2,3.2 -2.2,5.3 0,2 0.8,3.8 2.1,5.3 1.4,1.5 3.1,2.2 5.2,2.2 1.6,0 3,-0.5 4.3,-1.4 v 1.2 h 3.5 v -7.3 c 0,-2.1 -0.8,-3.8 -2.2,-5.3 -1.6,-1.5 -3.4,-2.2 -5.4,-2.2"
   id="path139" />
		<path
   class="st1"
   d="m 442.5,87.3 c -1.7,0 -3.2,0.7 -4.5,1.9 -1.2,1.3 -1.9,2.8 -1.9,4.5 v 8.4 h 3.4 v -8.4 c 0,-0.8 0.3,-1.5 0.9,-2.1 0.6,-0.6 1.2,-0.9 2.1,-0.9 0.8,0 1.5,0.3 2.1,0.9 0.6,0.6 0.9,1.2 0.9,2.1 v 8.4 h 3.5 v -8.4 c 0,-1.7 -0.7,-3.2 -1.9,-4.5 -1.4,-1.2 -2.8,-1.9 -4.6,-1.9"
   id="path141" />
	</g>
	<polygon
   class="st1"
   points="452.2,87.6 450,87.6 450,91 452.2,91 452.2,102.1 455.7,102.1 455.7,91 457.9,91 457.9,87.6 455.7,87.6 455.7,82.7 452.2,82.7 "
   id="polygon145" />
	<rect
   x="459.5"
   y="87.599998"
   class="st1"
   width="3.4000001"
   height="14.7"
   id="rect147" />
	<rect
   x="459.5"
   y="82.699997"
   class="st1"
   width="3.4000001"
   height="3.4000001"
   id="rect149" />
	<g
   id="g159">
		<path
   class="st1"
   d="m 475.5,97.8 c -0.8,0.8 -1.7,1.2 -2.9,1.2 -1.2,0 -2.1,-0.4 -2.9,-1.2 -0.8,-0.8 -1.2,-1.7 -1.2,-2.9 0,-1.2 0.4,-2.1 1.2,-2.9 0.9,-0.9 1.7,-1.2 2.9,-1.2 1.2,0 2.1,0.4 2.9,1.2 0.9,0.9 1.2,1.7 1.2,2.9 0,1.1 -0.4,2 -1.2,2.9 m -2.9,-10.5 c -2.1,0 -3.9,0.8 -5.3,2.2 -1.4,1.4 -2.2,3.2 -2.2,5.3 0,2 0.8,3.8 2.1,5.3 1.4,1.5 3.1,2.2 5.2,2.2 1.6,0 3,-0.5 4.3,-1.4 v 8.2 h 3.5 V 94.8 c 0,-2.1 -0.8,-3.8 -2.2,-5.3 -1.6,-1.5 -3.4,-2.2 -5.4,-2.2"
   id="path151" />
		<path
   class="st1"
   d="m 491.7,96 c 0,0.8 -0.3,1.5 -0.9,2.1 -0.6,0.6 -1.2,0.9 -2.1,0.9 -0.8,0 -1.5,-0.3 -2.1,-0.9 -0.6,-0.6 -0.9,-1.2 -0.9,-2.1 v -8.5 h -3.5 V 96 c 0,1.7 0.7,3.2 1.9,4.5 1.3,1.2 2.8,1.9 4.5,1.9 1.7,0 3.2,-0.7 4.5,-1.9 1.3,-1.2 2,-2.8 2,-4.5 v -8.5 h -3.5 z"
   id="path153" />
		<path
   class="st1"
   d="m 433.6,70 c 0,-1.1 0.4,-2.1 1.1,-2.9 0.8,-0.9 1.7,-1.2 2.9,-1.2 0.8,0 1.5,0.2 2.2,0.6 l -6.1,4.1 c 0,-0.2 -0.1,-0.4 -0.1,-0.6 m 7,2.9 c -0.8,0.9 -1.7,1.2 -2.9,1.2 -0.8,0 -1.5,-0.2 -2.2,-0.6 l 9.2,-6 -0.1,-0.3 c -0.7,-1.4 -1.6,-2.6 -2.9,-3.4 -1.2,-0.9 -2.7,-1.2 -4.2,-1.2 -2.1,0 -3.9,0.8 -5.3,2.2 -1.4,1.5 -2.2,3.2 -2.2,5.3 0,2.1 0.8,3.9 2.2,5.3 1.4,1.4 3.2,2.2 5.3,2.2 2.1,0 3.9,-0.8 5.3,-2.3 1,-1 1.6,-2.3 2,-3.6 h -3.7 c 0.1,0.4 -0.2,0.8 -0.5,1.2"
   id="path155" />
		<path
   class="st1"
   d="m 500.2,94.9 c 0,-1.1 0.4,-2.1 1.1,-2.9 0.8,-0.9 1.7,-1.2 2.9,-1.2 0.8,0 1.5,0.2 2.2,0.6 l -6.2,4 c 0,-0.2 0,-0.4 0,-0.5 m 7.7,1.6 c -0.2,0.5 -0.5,0.9 -0.8,1.2 -0.8,0.9 -1.7,1.2 -2.9,1.2 -0.8,0 -1.5,-0.2 -2.2,-0.6 l 9.2,-6 -0.1,-0.3 c -0.7,-1.4 -1.6,-2.6 -2.9,-3.4 -1.2,-0.9 -2.7,-1.2 -4.2,-1.2 -2.1,0 -3.9,0.8 -5.3,2.2 -1.4,1.5 -2.2,3.2 -2.2,5.3 0,2.1 0.8,3.9 2.2,5.3 1.4,1.4 3.2,2.2 5.3,2.2 2.1,0 3.9,-0.8 5.3,-2.3 1,-1 1.6,-2.3 2,-3.6 z"
   id="path157" />
	</g>
	<polygon
   class="st1"
   points="387.4,77.4 399,77.4 399,73.8 391,73.8 391,57.9 387.4,57.9 "
   id="polygon161" />
	<path
   class="st1"
   d="m 392.5,95.7 2.7,-7.3 2.7,7.3 z m 7.7,6.4 h 3.9 l -6.9,-19.4 h -4 l -6.9,19.4 h 3.8 l 1.1,-3.2 h 7.7 z"
   id="path163" />
	<path
   class="st2"
   d="m 522.9,111 c -78.8,-5.2 -103.7,0.8 -127.5,13.6 h 127.5 z"
   id="path165" />
</g>
<rect
   x="279.70001"
   y="13.558455"
   class="st3"
   width="1"
   height="62.900002"
   id="rect169" />
<g
   id="g225"
   transform="translate(-43.8,-48.641545)">
	<path
   class="st4"
   d="m 225.6,62.3 h -8.1 v 4.6 h 1.2 c 4,0 5.6,0.3 6.3,1.3 0.4,0.5 0.5,0.9 0.5,3.3 0,0.3 0,0.4 0,0.4 v -0.3 0 -9.3"
   id="path171" />
	<rect
   x="177.3"
   y="69.400002"
   class="st5"
   width="13.3"
   height="55"
   id="rect173" />
	<polygon
   class="st5"
   points="241.8,84.7 241.8,62.3 225.6,62.3 225.6,124.4 241.8,124.4 241.8,99.5 277.2,99.5 277.2,84.7 "
   id="polygon175" />
	<path
   class="st6"
   d="m 177.3,69.4 h -6.8 v 4.4 h 1.1 c 3.9,0 4.5,0.3 5.2,1.1 0.5,0.7 0.5,1 0.5,5.9 V 69.4 m 17.3,0 h -4 v 8.4 0 0 c 0.1,-3.2 1.2,-4 3.7,-4 5.9,0 9.2,3.6 9.2,11.5 0,9.1 -3.5,12.4 -12.9,12.5 v 4.4 h 3.9 c 15.5,0 23.4,-5.6 23.4,-16.8 0,-11.1 -7.6,-16 -23.3,-16"
   id="path177" />
	<path
   class="st7"
   d="m 177.3,69.4 v 0 11.4 c 0,0 0,0.1 0,0.1 V 69.4"
   id="path179" />
	<path
   class="st6"
   d="m 51.8,62.3 h -8 v 4.6 H 45 c 4,0 5.6,0.3 6.3,1.3 0.4,0.5 0.5,0.9 0.5,3.3 0,0.1 0,0 0,0.1 v -9.3"
   id="path181" />
	<path
   class="st4"
   d="m 112.4,116.3 v 8.1 h 7.9 v -4.6 h -1.2 c -4,0 -5.6,-0.3 -6.3,-1.3 -0.3,-0.4 -0.3,-0.8 -0.4,-2.2"
   id="path183" />
	<path
   class="st4"
   d="m 68,115.2 v 9.2 h 7.9 v -4.6 h -1.2 c -4,0 -5.6,-0.3 -6.3,-1.3 C 68.1,118 68,117.6 68,115.2"
   id="path185" />
	<path
   class="st4"
   d="m 51.8,115.3 c 0,2.3 -0.1,2.7 -0.5,3.2 -0.7,0.9 -2.3,1.3 -6.3,1.3 h -1.2 v 4.6 h 8 v -9.1"
   id="path187" />
	<path
   class="st5"
   d="M 106.7,62.3 82.2,89.1 57.6,62.3 h -5.7 c 0,0 0,9.4 0,9.4 v 43.6 9.1 0 H 68 v 0 -9.2 -19.4 l 13.2,13.8 H 83 L 96.2,95.8 v 19.3 9.2 h 16.1 0.1 v -8.1 -54 h -5.7"
   id="path189" />
	<path
   class="st4"
   d="m 177.3,115.8 c 0,2.6 -0.1,2.9 -0.5,3.5 -0.6,0.8 -2.1,1.1 -5.8,1.1 h -1.1 v 4.1 h 7.4 z"
   id="path191" />
	<path
   class="st8"
   d="m 124.6,49 h -4.9 v 4.4 h 1.2 c 2.2,0 3.1,0 3.5,0.4 0.2,0.2 0.2,0.5 0.2,1.8 V 49"
   id="path193" />
	<path
   class="st8"
   d="m 138.4,62.3 h -13.8 v 27.1 c 0,3.2 0,3.6 -0.3,3.9 -0.3,0.4 -1.2,0.4 -3.4,0.4 h -1.2 v 4.4 h 11.8 V 84.7 h 3.6 3.3 V 62.3"
   id="path195" />
	<path
   class="st9"
   d="m 142.8,49 h -4.4 v 13.3 0 h 0.2 4.1 c 4.2,0 7,4.5 7,11.1 0,6.7 -2.8,11.3 -7,11.3 h -4.3 v 0 13.4 h 4.4 c 5.6,0 10.5,-2 14.1,-5.6 4.4,-4.4 6.8,-11.2 6.7,-19.1 C 163.7,58.8 155.3,49 142.8,49 Z"
   id="path197" />
	<polyline
   class="st10"
   points="57.6,62.3 51.8,62.3 51.8,71.6 66.1,71.6 57.6,62.3  "
   id="polyline199" />
	<rect
   x="96.199997"
   y="115.2"
   class="st11"
   width="16.200001"
   height="9.1999998"
   id="rect201" />
	<rect
   x="225.60001"
   y="62.299999"
   class="st11"
   width="16.200001"
   height="9.1999998"
   id="rect203" />
	<rect
   x="51.799999"
   y="115.2"
   class="st11"
   width="16.200001"
   height="9.1999998"
   id="rect205" />
	<rect
   x="124.6"
   y="49"
   class="st12"
   width="13.8"
   height="13.3"
   id="rect207" />
	<rect
   x="131.60001"
   y="84.699997"
   class="st12"
   width="6.9000001"
   height="13.4"
   id="rect209" />
	<rect
   x="177.3"
   y="69.400002"
   class="st10"
   width="13.3"
   height="12.2"
   id="rect211" />
	<rect
   x="186.2"
   y="97.699997"
   class="st10"
   width="4.4000001"
   height="4.4000001"
   id="rect213" />
	<polyline
   class="st11"
   points="190.6,115.2 177.3,115.2 177.3,124.4 190.6,124.4 190.6,115.2  "
   id="polyline215" />
	<g
   id="g221">
		<path
   class="st6"
   d="m 255.2,62.3 v 4.6 h 1.2 c 4,0 5.6,0.3 6.3,1.3 0.5,0.7 0.5,1.1 0.5,6.5 v 10 h 13.9 v -10 c 0,-5.5 0,-5.8 0.5,-6.5 0.7,-0.9 2.4,-1.3 6.4,-1.3 h 1.2 v -4.6 z"
   id="path217" />
		<path
   class="st6"
   d="m 277.7,118.4 c -0.5,-0.7 -0.5,-0.9 -0.5,-6.4 V 99.5 H 263.3 V 112 c 0,5.4 0,5.8 -0.5,6.4 -0.7,0.9 -2.3,1.3 -6.3,1.3 h -1.2 v 4.6 h 30.1 v -4.6 h -1.2 c -4.1,0 -5.8,-0.3 -6.5,-1.3 z"
   id="path219" />
	</g>
	<rect
   x="263.29999"
   y="84.699997"
   class="st10"
   width="13.9"
   height="14.8"
   id="rect223" />
</g>
</svg>
