<?xml version="1.0" encoding="utf-8"?>
<!-- Generator: Adobe Illustrator 25.1.0, SVG Export Plug-In . SVG Version: 6.00 Build 0)  -->
<svg version="1.1" id="Calque_1" xmlns="http://www.w3.org/2000/svg" xmlns:xlink="http://www.w3.org/1999/xlink" x="0px" y="0px"
	 viewBox="0 0 262.7 56.7" style="enable-background:new 0 0 262.7 56.7;" xml:space="preserve">
<style type="text/css">
	.st0{fill:none;}
</style>
<g>
	<g>
		<path d="M50.8,8.6h6.5c4.4,0,7.1,3.1,7.1,7.8c0,4.6-2.6,7.6-7.3,7.6h-6.2V8.6H50.8z M56.7,21c2.7,0,4-1.7,4-4.6s-1.3-4.9-3.9-4.9
			h-2.5V21H56.7z"/>
		<path d="M65.1,18.5c0-3.3,2.3-5.9,5.9-5.9c3.5,0,5.8,2.5,5.8,5.9c0,3.3-2.3,5.9-5.8,5.9S65.1,21.8,65.1,18.5z M73.5,18.5
			c0-2.1-0.9-3.5-2.5-3.5c-1.7,0-2.5,1.4-2.5,3.5S69.4,22,71,22S73.5,20.6,73.5,18.5z"/>
		<path d="M78.1,13h3.1v1.7h0.1c0.7-1.3,1.8-2,3.3-2s2.5,0.7,3,2.1l0,0c0.9-1.5,2.1-2.1,3.5-2.1c2.5,0,3.7,1.6,3.7,4.1V24h-3.2v-6.8
			c0-1.2-0.6-1.9-1.6-1.9c-1.2,0-1.9,1-1.9,2.4V24h-3.3v-6.8c0-1.2-0.5-1.9-1.6-1.9s-1.9,1-1.9,2.4V24H78V13H78.1z"/>
		<path d="M103.4,22.7L103.4,22.7c-0.8,1-1.7,1.6-3.4,1.6c-2.2,0-3.8-1.2-3.8-3.4c0-2.5,1.9-3.1,4.4-3.4c2-0.3,2.8-0.6,2.8-1.4
			c0-0.8-0.5-1.3-1.6-1.3c-1.2,0-1.9,0.6-1.9,1.5h-3c0.1-1.9,1.6-3.7,4.9-3.7c1.4,0,2.4,0.2,3.2,0.7c1.1,0.7,1.7,1.8,1.7,3.3v5.7
			c0,0.9,0.1,1.4,0.4,1.5V24h-3.2C103.6,23.8,103.4,23.3,103.4,22.7z M103.4,20.1v-1.4c-0.5,0.3-1.2,0.5-1.9,0.6
			c-1.4,0.3-2.1,0.7-2.1,1.6c0,1,0.7,1.3,1.6,1.3C102.4,22.2,103.4,21.3,103.4,20.1z"/>
		<path d="M108.3,8.6h3.3v2.9h-3.3V8.6z M108.3,13h3.3v11h-3.3V13z"/>
		<path d="M116.5,14.7L116.5,14.7c0.7-1.3,1.9-2,3.5-2c2.4,0,3.9,1.6,3.9,4.1V24h-3.2v-6.7c0-1.2-0.6-2-1.9-2s-2.1,1-2.1,2.4V24
			h-3.3V13h3.2L116.5,14.7L116.5,14.7z"/>
		<path d="M125,18.5c0-3.3,2.3-5.9,5.7-5.9c1.6,0,2.8,0.5,3.8,1.4c1.2,1.2,1.8,3.1,1.8,5.3h-8.1c0.2,1.7,1.1,2.7,2.7,2.7
			c1,0,1.7-0.4,2-1.1h3.2c-0.6,2-2.4,3.5-5.2,3.5C127.2,24.4,125,21.8,125,18.5z M128.2,17.4h4.7c-0.1-1.5-1-2.5-2.3-2.5
			C129.2,15,128.5,15.9,128.2,17.4z"/>
		<path d="M56.1,31.4c2.3,0,3.7-0.2,3.7-0.2c0.2,0,0.2,0,0.3,0h0.3v14.4c0,1,0.5,1.5,1.4,1.5h0.7v0.4h-1.9c-0.6,0-1.4,0.1-1.8,0.2
			h-0.2v-2.9c-0.4,0.8-1.3,2.9-3.6,2.9c-2.4,0-4.6-2.5-4.6-5.3c0-2.9,2.1-5.2,4.6-5.2c1.5,0,2.6,0.8,3.5,2.6v-6.5
			c0-0.9-0.5-1.5-1.4-1.5H56L56.1,31.4L56.1,31.4z M58.7,42.1c0-2.5-1.5-4.5-3.3-4.5c-0.6,0-1.2,0.2-1.7,0.7c-0.8,0.8-1,1.9-1,4.3
			c0,2.4,0.4,3.6,1.4,4.3c0.4,0.3,0.8,0.4,1.3,0.4C57.3,47.2,58.7,45.1,58.7,42.1z"/>
		<path d="M72.9,43.6c-0.2,0.9-0.3,1.2-0.7,1.8c-0.9,1.5-2.3,2.3-3.8,2.3c-2.7,0-4.8-2.4-4.8-5.4c0-2.9,2-5.2,4.5-5.2
			c2.4,0,4.4,2,4.6,4.9h-7.1c0,1.6,0,5.2,3,5.2c1.9,0,3.4-1.4,3.9-3.6H72.9z M70.1,41.5c0.5,0,0.7-0.2,0.7-0.8c0-2-1-3.3-2.5-3.3
			c-0.9,0-1.6,0.6-2,1.6c-0.3,0.8-0.4,1.2-0.4,2.5H70.1z"/>
		<path d="M81.1,33.2c0-0.9-0.3-1.3-1-1.3h-0.9v-0.4c0.8,0,1.7-0.1,2-0.1l1.2-0.1h0.5c0,4.2,0,7,0,9c0,6.5,0,6.3,0.3,6.6
			c0.2,0.1,0.4,0.2,0.7,0.2h0.8v0.4h-5.3v-0.4h0.8c0.7,0,1-0.3,1-1.2L81.1,33.2L81.1,33.2z"/>
		<path d="M97.2,43.1c0,3-0.8,4.5-2.3,4.5c-1,0-1.6-0.8-1.9-2.5c-0.8,1.8-1.8,2.5-3.4,2.5s-3-1.2-3-2.6c0-0.6,0.3-1.2,0.7-1.7
			c0.6-0.6,1.4-1,3.1-1.3c1.3-0.3,1.5-0.4,2.3-0.7v-1.7c0-1.3-0.8-2-2.3-2c-1,0-2.1,0.5-2.1,1c0,0.2,0.1,0.3,0.4,0.4
			c0.5,0.3,0.7,0.6,0.7,1c0,0.6-0.5,1-1,1c-0.6,0-1.2-0.6-1.2-1.4c0-1.5,1.6-2.7,3.7-2.7c2.4,0,3.6,1.1,3.6,3.2V45
			c0,1.2,0.3,1.9,0.9,1.9c0.8,0,1.2-0.9,1.3-3.2v-0.5L97.2,43.1z M92.8,41.8c-0.5,0.2-0.7,0.3-1.4,0.5c-1.1,0.3-2.9,0.8-2.9,2.8
			c0,1.2,0.7,2,1.6,2c1.5,0,2.7-1.6,2.7-3.4C92.8,43.7,92.8,41.8,92.8,41.8z"/>
		<path d="M117,48c-0.3-1.5-0.6-2.6-1.1-3.4c-1.4,2.3-2.9,3.4-4.9,3.4c-3.7,0-7.1-3.9-7.1-8.2c0-3.6,2.9-8.7,7.2-8.7
			c1.8,0,3.2,0.8,4.6,2.7c0.5-0.6,0.8-1.3,1.1-2.7h0.4l0.4,7.4h-0.4c-0.4-1.5-0.5-2-1-2.9c-1-2.4-2.6-4.2-5-4.2
			c-4.2,0-4.5,4.8-4.5,8.8c0,5,1.4,7.3,4.3,7.3c2.3,0,4.1-1.9,4.1-4.3v-1.3c0-0.5-0.3-0.8-0.8-0.8h-2.4v-0.4h7.9v0.4h-1.5
			c-0.6,0-0.9,0.3-0.9,0.9v6H117z"/>
		<path d="M131.9,43.1c0,3-0.8,4.5-2.3,4.5c-1,0-1.6-0.8-1.9-2.5c-0.8,1.8-1.8,2.5-3.4,2.5s-3-1.2-3-2.6c0-0.6,0.3-1.2,0.7-1.7
			c0.6-0.6,1.4-1,3.1-1.3c1.3-0.3,1.5-0.4,2.3-0.7v-1.7c0-1.3-0.8-2-2.3-2c-1,0-2.1,0.5-2.1,1c0,0.2,0.1,0.3,0.4,0.4
			c0.5,0.3,0.7,0.6,0.7,1c0,0.6-0.5,1-1,1c-0.6,0-1.2-0.6-1.2-1.4c0-1.5,1.6-2.7,3.7-2.7c2.4,0,3.6,1.1,3.6,3.2V45
			c0,1.2,0.3,1.9,0.9,1.9c0.8,0,1.2-0.9,1.3-3.2v-0.5L131.9,43.1z M127.5,41.8c-0.5,0.2-0.7,0.3-1.4,0.5c-1.1,0.3-2.9,0.8-2.9,2.8
			c0,1.2,0.7,2,1.6,2c1.5,0,2.7-1.6,2.7-3.4C127.5,43.7,127.5,41.8,127.5,41.8z"/>
		<path d="M135.1,38.9c0-0.7-0.4-1.1-1.2-1.1h-0.7v-0.4c0.9,0,1.7,0,2.1-0.1l1.3-0.2h0.3V40c0.6-1.4,1.2-2.8,2.8-2.8
			c1.1,0,1.9,0.8,1.9,1.9c0,0.7-0.5,1.3-1,1.3c-0.6,0-1-0.5-1-1.1c0-0.4,0.2-0.7,0.5-1c0.2-0.2,0.3-0.3,0.3-0.4
			c0-0.2-0.2-0.4-0.7-0.4s-1,0.2-1.4,0.5c-1.4,1.3-1.4,3.3-1.5,4.9v3c0,0.9,0.2,1.2,1,1.2h0.8v0.4h-5.3v-0.4h0.8c0.7,0,1-0.3,1-1.2
			L135.1,38.9L135.1,38.9z"/>
		<path d="M151.8,43.6c-0.2,0.9-0.3,1.2-0.7,1.8c-0.9,1.5-2.3,2.3-3.8,2.3c-2.7,0-4.8-2.4-4.8-5.4c0-2.9,2-5.2,4.5-5.2
			c2.4,0,4.4,2,4.6,4.9h-7.1c0,1.6,0,5.2,3,5.2c1.9,0,3.4-1.4,3.9-3.6H151.8z M148.9,41.5c0.5,0,0.7-0.2,0.7-0.8c0-2-1-3.3-2.5-3.3
			c-0.9,0-1.6,0.6-2,1.6c-0.3,0.8-0.4,1.2-0.4,2.5H148.9z"/>
		<path d="M156.7,40.2c0.9-2.6,2.9-3,3.6-3c0.8,0,1.7,0.3,2.1,0.8c1,1,1,2.3,1.1,3.2v4.7c0,0.9,0.3,1.2,1,1.2h0.8v0.4H160v-0.4h0.8
			c0.7,0,1-0.3,1-1.2v-5.3c0-2-0.5-2.9-1.8-2.9c-1.9,0-3.3,2.1-3.3,5.1v3.1c0,0.9,0.2,1.2,1,1.2h0.8v0.4h-5.3v-0.4h0.8
			c0.7,0,1-0.3,1-1.2v-7c0-0.7-0.4-1-1.2-1H153v-0.4h0.8c0.2,0,1.4-0.1,1.7-0.1c0.5-0.1,0.7-0.1,0.7-0.1h0.5V40.2z"/>
		<path d="M170.1,40.2c0.9-2.6,2.9-3,3.6-3c0.8,0,1.7,0.3,2.1,0.8c1,1,1,2.3,1.1,3.2v4.7c0,0.9,0.3,1.2,1,1.2h0.8v0.4h-5.3v-0.4h0.8
			c0.7,0,1-0.3,1-1.2v-5.3c0-2-0.5-2.9-1.8-2.9c-1.9,0-3.3,2.1-3.3,5.1v3.1c0,0.9,0.2,1.2,1,1.2h0.8v0.4h-5.3v-0.4h0.8
			c0.7,0,1-0.3,1-1.2v-7c0-0.7-0.4-1-1.2-1h-0.6v-0.4h0.8c0.2,0,1.4-0.1,1.7-0.1c0.5-0.1,0.7-0.1,0.7-0.1h0.5v2.9H170.1z"/>
		<path d="M189.2,43.6c-0.2,0.9-0.3,1.2-0.7,1.8c-0.9,1.5-2.3,2.3-3.8,2.3c-2.7,0-4.8-2.4-4.8-5.4c0-2.9,2-5.2,4.5-5.2
			c2.4,0,4.4,2,4.6,4.9h-7c0,1.6,0,5.2,2.9,5.2c1.9,0,3.4-1.4,3.9-3.6H189.2z M186.4,41.5c0.5,0,0.7-0.2,0.7-0.8c0-2-1-3.3-2.5-3.3
			c-0.9,0-1.6,0.6-2,1.6c-0.3,0.8-0.4,1.2-0.4,2.5H186.4z"/>
		<path d="M195.9,47.1h2c0.8,0,1.1-0.4,1.2-1.4V33.1c0-0.9-0.4-1.4-1.2-1.4h-2v-0.4h8.4v0.4h-1.6c-0.8,0-1.2,0.5-1.2,1.4v12.7
			c0,0.8,0.3,1.2,1,1.2h1.7c2.7,0,5.1-2.4,5.8-5.9h0.3l-0.2,6.3h-14.2V47.1z"/>
		<path d="M221.2,43.6c-0.2,0.9-0.3,1.2-0.7,1.8c-0.9,1.5-2.3,2.3-3.8,2.3c-2.7,0-4.8-2.4-4.8-5.4c0-2.9,2-5.2,4.5-5.2
			c2.4,0,4.4,2,4.6,4.9h-7c0,1.6,0,5.2,2.9,5.2c1.9,0,3.4-1.4,3.9-3.6H221.2z M218.4,41.5c0.5,0,0.7-0.2,0.7-0.8c0-2-1-3.3-2.5-3.3
			c-0.9,0-1.6,0.6-2,1.6c-0.3,0.8-0.4,1.2-0.4,2.5H218.4z"/>
		<path d="M226.3,40.6c0.7-2.4,1.9-3.5,3.5-3.5c2.3,0,2.8,2.3,2.9,3c0.8-2,2-3,3.5-3c0.8,0,1.5,0.3,2,0.8c0.9,1,1,2.2,1,3V46
			c0,0.9,0.2,1.2,1,1.2h0.8v0.4h-5.3v-0.4h0.8c0.7,0,1-0.3,1-1.2v-5.4c0-1.9-0.5-2.9-1.7-2.9c-1.7,0-3,2.2-3,5V46
			c0,0.9,0.2,1.2,1,1.2h0.8v0.4h-5.3v-0.4h0.8c0.7,0,1-0.3,1-1.2v-5.4c0-2-0.5-2.9-1.6-2.9c-1.8,0-3.1,2.7-3.1,6.2V46
			c0,0.9,0.2,1.2,1,1.2h0.8v0.4h-5.3v-0.4h0.8c0.7,0,1-0.3,1-1.2v-7c0-0.7-0.4-1.1-1.1-1.1h-0.7v-0.4h0.9c0.5,0,1.9-0.1,2.3-0.3h0.4
			v3.4H226.3z"/>
		<path d="M242.8,42.4c0-2.8,2.4-5.4,4.9-5.4c2.9,0,5.2,2.4,5.2,5.3c0,3.2-2.9,5.4-5.2,5.3C245,47.5,242.8,45.2,242.8,42.4z
			 M251,42.3c0-3.2-1-4.8-3-4.8c-2.2,0-3.1,1.5-3.1,5c0,3.2,1,4.8,3,4.8C250,47.3,251,45.8,251,42.3z"/>
		<path d="M254.4,37.7c2.4-0.8,3.1-2.7,3.4-4.9h0.5v4.7h3.3v0.7h-3.3v7.1c0,1,0.6,1.7,1.4,1.7c1.6,0,2.4-1.6,2.4-4.9h0.3
			c0,2.6-0.3,3.9-1.2,4.7c-0.5,0.5-1.3,0.8-2.1,0.8c-1.7,0-2.7-1-2.7-2.8v-6.6h-2.1v-0.5H254.4z"/>
	</g>
	<g>
		<path d="M9.9,27.4c-2.6-2.6-4-5.9-4-9.5V8.5H0v9.4c0,2.6,0.5,5.2,1.6,7.6c1,2.3,2.4,4.4,4.2,6.2C7,32.9,8.4,34,9.9,34.8L0,43.3
			l4.1,4.5l11.5-10.4V31C13.5,30.4,11.6,29,9.9,27.4z"/>
		<path d="M37.5,25.5c1-2.4,1.5-5,1.5-7.6V8.6h-6v9.3c0,3.6-1.4,7-4,9.6c-1.6,1.6-3.6,3-5.7,3.6v6.3L35,47.8l4.1-4.5l-9.8-8.5
			c1.5-0.9,2.9-1.9,4.1-3.2C35.1,29.9,36.5,27.8,37.5,25.5z"/>
	</g>
</g>
<rect class="st0" width="262.4" height="56.7"/>
</svg>
