<?xml version="1.0" encoding="utf-8"?>
<!-- Generator: Adobe Illustrator 28.3.0, SVG Export Plug-In . SVG Version: 6.00 Build 0)  -->
<svg version="1.1" id="Calque_1" xmlns="http://www.w3.org/2000/svg" xmlns:xlink="http://www.w3.org/1999/xlink" x="0px" y="0px"
	 viewBox="0 0 111 28" style="enable-background:new 0 0 111 28;" xml:space="preserve">
<g>
	<path d="M2.7,10.3h2.7v1H1.5V3.5h1.3V10.3z"/>
	<path d="M12.1,8.7H7.4c0,0.5,0.2,0.9,0.6,1.2c0.3,0.3,0.7,0.5,1.2,0.5c0.7,0,1.2-0.3,1.5-0.9H12c-0.2,0.6-0.5,1-1,1.4
		c-0.5,0.4-1.1,0.5-1.8,0.5c-0.6,0-1.1-0.1-1.6-0.4S6.7,10.4,6.4,10C6.2,9.5,6,8.9,6,8.3s0.1-1.2,0.4-1.7s0.6-0.9,1.1-1.1
		s1-0.4,1.6-0.4c0.6,0,1.1,0.1,1.6,0.4c0.5,0.3,0.8,0.6,1.1,1.1s0.4,1,0.4,1.6C12.2,8.3,12.2,8.6,12.1,8.7z M10.8,7.7
		c0-0.5-0.2-0.9-0.5-1.1C10,6.3,9.6,6.1,9.1,6.1C8.7,6.1,8.3,6.3,8,6.6C7.6,6.8,7.5,7.2,7.4,7.7H10.8z"/>
	<path d="M17.3,11.2c-0.4-0.2-0.7-0.4-0.9-0.7s-0.3-0.6-0.4-1h1.3c0,0.3,0.1,0.5,0.4,0.7c0.2,0.2,0.5,0.3,0.9,0.3
		c0.4,0,0.6-0.1,0.8-0.2c0.2-0.1,0.3-0.3,0.3-0.5c0-0.2-0.1-0.4-0.3-0.5c-0.2-0.1-0.6-0.2-1.1-0.4c-0.5-0.1-0.8-0.3-1.1-0.4
		c-0.3-0.1-0.5-0.3-0.8-0.6c-0.2-0.2-0.3-0.6-0.3-1c0-0.3,0.1-0.6,0.3-0.9c0.2-0.3,0.5-0.5,0.8-0.6c0.4-0.2,0.8-0.2,1.3-0.2
		c0.7,0,1.3,0.2,1.7,0.5c0.4,0.4,0.7,0.8,0.7,1.5h-1.3c0-0.3-0.1-0.5-0.3-0.7c-0.2-0.2-0.5-0.2-0.8-0.2c-0.3,0-0.6,0.1-0.8,0.2
		c-0.2,0.1-0.3,0.3-0.3,0.5c0,0.2,0.1,0.3,0.2,0.4c0.1,0.1,0.3,0.2,0.4,0.3c0.2,0.1,0.4,0.1,0.8,0.2C19.3,7.9,19.7,8,20,8.1
		c0.3,0.1,0.5,0.3,0.8,0.5s0.3,0.6,0.3,1c0,0.4-0.1,0.7-0.3,0.9c-0.2,0.3-0.5,0.5-0.8,0.7c-0.4,0.2-0.8,0.2-1.3,0.2
		C18.2,11.5,17.7,11.4,17.3,11.2z"/>
	<path d="M22.5,4.1c-0.2-0.2-0.2-0.4-0.2-0.6s0.1-0.4,0.2-0.6s0.4-0.2,0.6-0.2c0.2,0,0.4,0.1,0.6,0.2s0.2,0.4,0.2,0.6
		s-0.1,0.4-0.2,0.6c-0.2,0.2-0.4,0.2-0.6,0.2C22.8,4.3,22.6,4.2,22.5,4.1z M23.7,5.2v6.2h-1.3V5.2H23.7z"/>
	<path d="M26.9,6.2v3.4c0,0.2,0.1,0.4,0.2,0.5c0.1,0.1,0.3,0.2,0.6,0.2h0.8v1.1h-1c-0.6,0-1-0.1-1.3-0.4c-0.3-0.3-0.5-0.7-0.5-1.3
		V6.2h-0.7V5.2h0.7V3.6h1.3v1.5h1.5v1.1H26.9z"/>
	<path d="M35.3,8.7h-4.8c0,0.5,0.2,0.9,0.6,1.2c0.3,0.3,0.7,0.5,1.2,0.5c0.7,0,1.2-0.3,1.5-0.9h1.4c-0.2,0.6-0.5,1-1,1.4
		c-0.5,0.4-1.1,0.5-1.8,0.5c-0.6,0-1.1-0.1-1.6-0.4s-0.8-0.6-1.1-1.1c-0.3-0.5-0.4-1-0.4-1.7s0.1-1.2,0.4-1.7s0.6-0.9,1.1-1.1
		s1-0.4,1.6-0.4c0.6,0,1.1,0.1,1.6,0.4c0.5,0.3,0.8,0.6,1.1,1.1s0.4,1,0.4,1.6C35.3,8.3,35.3,8.6,35.3,8.7z M34,7.7
		c0-0.5-0.2-0.9-0.5-1.1c-0.3-0.3-0.7-0.4-1.2-0.4c-0.4,0-0.8,0.1-1.1,0.4c-0.3,0.3-0.5,0.7-0.6,1.1H34z"/>
	<path d="M39.5,6.6c0.3-0.5,0.6-0.9,1.1-1.1s0.9-0.4,1.5-0.4c0.4,0,0.8,0.1,1.2,0.3C43.6,5.5,44,5.7,44.2,6V3h1.3v8.4h-1.3v-0.9
		c-0.2,0.3-0.5,0.6-0.9,0.7s-0.8,0.3-1.3,0.3c-0.5,0-1-0.1-1.5-0.4s-0.8-0.7-1.1-1.2c-0.3-0.5-0.4-1.1-0.4-1.7
		C39.1,7.6,39.2,7.1,39.5,6.6z M43.9,7.1c-0.2-0.3-0.4-0.6-0.7-0.7c-0.3-0.2-0.6-0.2-0.9-0.2c-0.3,0-0.6,0.1-0.9,0.2
		c-0.3,0.2-0.5,0.4-0.7,0.7s-0.3,0.7-0.3,1.1c0,0.4,0.1,0.8,0.3,1.1c0.2,0.3,0.4,0.6,0.7,0.7c0.3,0.2,0.6,0.3,0.9,0.3
		c0.3,0,0.6-0.1,0.9-0.2c0.3-0.2,0.5-0.4,0.7-0.7c0.2-0.3,0.3-0.7,0.3-1.1C44.2,7.8,44.1,7.5,43.9,7.1z"/>
	<path d="M52.8,8.7h-4.8c0,0.5,0.2,0.9,0.6,1.2c0.3,0.3,0.7,0.5,1.2,0.5c0.7,0,1.2-0.3,1.5-0.9h1.4c-0.2,0.6-0.5,1-1,1.4
		c-0.5,0.4-1.1,0.5-1.8,0.5c-0.6,0-1.1-0.1-1.6-0.4s-0.8-0.6-1.1-1.1c-0.3-0.5-0.4-1-0.4-1.7s0.1-1.2,0.4-1.7s0.6-0.9,1.1-1.1
		s1-0.4,1.6-0.4c0.6,0,1.1,0.1,1.6,0.4c0.5,0.3,0.8,0.6,1.1,1.1s0.4,1,0.4,1.6C52.9,8.3,52.9,8.6,52.8,8.7z M51.5,7.7
		c0-0.5-0.2-0.9-0.5-1.1c-0.3-0.3-0.7-0.4-1.2-0.4c-0.4,0-0.8,0.1-1.1,0.4c-0.3,0.3-0.5,0.7-0.6,1.1H51.5z"/>
	<path d="M55.1,11.2c-0.4-0.2-0.7-0.4-0.9-0.7s-0.3-0.6-0.4-1h1.3c0,0.3,0.1,0.5,0.4,0.7c0.2,0.2,0.5,0.3,0.9,0.3
		c0.4,0,0.6-0.1,0.8-0.2c0.2-0.1,0.3-0.3,0.3-0.5c0-0.2-0.1-0.4-0.3-0.5C57,9,56.6,8.9,56.1,8.8c-0.5-0.1-0.8-0.3-1.1-0.4
		c-0.3-0.1-0.5-0.3-0.8-0.6c-0.2-0.2-0.3-0.6-0.3-1c0-0.3,0.1-0.6,0.3-0.9c0.2-0.3,0.5-0.5,0.8-0.6c0.4-0.2,0.8-0.2,1.3-0.2
		c0.7,0,1.3,0.2,1.7,0.5c0.4,0.4,0.7,0.8,0.7,1.5h-1.3c0-0.3-0.1-0.5-0.3-0.7c-0.2-0.2-0.5-0.2-0.8-0.2c-0.3,0-0.6,0.1-0.8,0.2
		c-0.2,0.1-0.3,0.3-0.3,0.5c0,0.2,0.1,0.3,0.2,0.4c0.1,0.1,0.3,0.2,0.4,0.3c0.2,0.1,0.4,0.1,0.8,0.2c0.5,0.1,0.8,0.2,1.1,0.4
		c0.3,0.1,0.5,0.3,0.8,0.5s0.3,0.6,0.3,1c0,0.4-0.1,0.7-0.3,0.9c-0.2,0.3-0.5,0.5-0.8,0.7c-0.4,0.2-0.8,0.2-1.3,0.2
		C55.9,11.5,55.5,11.4,55.1,11.2z"/>
	<path d="M63.1,6.6c0.3-0.5,0.6-0.9,1.1-1.1s0.9-0.4,1.5-0.4c0.5,0,0.9,0.1,1.3,0.3c0.4,0.2,0.7,0.4,0.9,0.7V5.2h1.3v6.2h-1.3v-0.9
		c-0.2,0.3-0.5,0.5-0.9,0.7c-0.4,0.2-0.8,0.3-1.3,0.3c-0.5,0-1-0.1-1.5-0.4s-0.8-0.7-1.1-1.2c-0.3-0.5-0.4-1.1-0.4-1.7
		C62.7,7.6,62.8,7.1,63.1,6.6z M67.5,7.1c-0.2-0.3-0.4-0.6-0.7-0.7c-0.3-0.2-0.6-0.2-0.9-0.2c-0.3,0-0.6,0.1-0.9,0.2
		c-0.3,0.2-0.5,0.4-0.7,0.7S64,7.8,64,8.2c0,0.4,0.1,0.8,0.3,1.1c0.2,0.3,0.4,0.6,0.7,0.7c0.3,0.2,0.6,0.3,0.9,0.3
		c0.3,0,0.6-0.1,0.9-0.2c0.3-0.2,0.5-0.4,0.7-0.7c0.2-0.3,0.3-0.7,0.3-1.1C67.8,7.8,67.7,7.5,67.5,7.1z"/>
	<path d="M70.9,4.1c-0.2-0.2-0.2-0.4-0.2-0.6s0.1-0.4,0.2-0.6s0.4-0.2,0.6-0.2c0.2,0,0.4,0.1,0.6,0.2s0.2,0.4,0.2,0.6
		S72.2,3.9,72,4.1c-0.2,0.2-0.4,0.2-0.6,0.2C71.2,4.3,71,4.2,70.9,4.1z M72.1,5.2v6.2h-1.3V5.2H72.1z"/>
	<path d="M73.7,6.6c0.3-0.5,0.6-0.9,1.1-1.1s0.9-0.4,1.5-0.4c0.4,0,0.8,0.1,1.2,0.3c0.4,0.2,0.7,0.4,0.9,0.7V3h1.3v8.4h-1.3v-0.9
		c-0.2,0.3-0.5,0.6-0.9,0.7s-0.8,0.3-1.3,0.3c-0.5,0-1-0.1-1.5-0.4s-0.8-0.7-1.1-1.2c-0.3-0.5-0.4-1.1-0.4-1.7
		C73.3,7.6,73.5,7.1,73.7,6.6z M78.2,7.1c-0.2-0.3-0.4-0.6-0.7-0.7c-0.3-0.2-0.6-0.2-0.9-0.2c-0.3,0-0.6,0.1-0.9,0.2
		c-0.3,0.2-0.5,0.4-0.7,0.7s-0.3,0.7-0.3,1.1c0,0.4,0.1,0.8,0.3,1.1c0.2,0.3,0.4,0.6,0.7,0.7c0.3,0.2,0.6,0.3,0.9,0.3
		c0.3,0,0.6-0.1,0.9-0.2c0.3-0.2,0.5-0.4,0.7-0.7c0.2-0.3,0.3-0.7,0.3-1.1C78.4,7.8,78.3,7.5,78.2,7.1z"/>
	<path d="M81.4,6.6c0.3-0.5,0.6-0.9,1.1-1.1s0.9-0.4,1.5-0.4c0.5,0,0.9,0.1,1.3,0.3c0.4,0.2,0.7,0.4,0.9,0.7V5.2h1.3v6.2h-1.3v-0.9
		c-0.2,0.3-0.5,0.5-0.9,0.7c-0.4,0.2-0.8,0.3-1.3,0.3c-0.5,0-1-0.1-1.5-0.4s-0.8-0.7-1.1-1.2C81.1,9.4,81,8.9,81,8.2
		C81,7.6,81.1,7.1,81.4,6.6z M85.8,7.1c-0.2-0.3-0.4-0.6-0.7-0.7c-0.3-0.2-0.6-0.2-0.9-0.2c-0.3,0-0.6,0.1-0.9,0.2
		c-0.3,0.2-0.5,0.4-0.7,0.7s-0.3,0.7-0.3,1.1c0,0.4,0.1,0.8,0.3,1.1c0.2,0.3,0.4,0.6,0.7,0.7c0.3,0.2,0.6,0.3,0.9,0.3
		c0.3,0,0.6-0.1,0.9-0.2c0.3-0.2,0.5-0.4,0.7-0.7c0.2-0.3,0.3-0.7,0.3-1.1C86.1,7.8,86,7.5,85.8,7.1z"/>
	<path d="M93.5,5.4c0.4,0.2,0.7,0.5,0.9,0.9c0.2,0.4,0.3,0.9,0.3,1.4v3.7h-1.3V7.9c0-0.6-0.1-1-0.4-1.3c-0.3-0.3-0.7-0.4-1.1-0.4
		c-0.5,0-0.9,0.1-1.1,0.4c-0.3,0.3-0.4,0.7-0.4,1.3v3.5h-1.3V5.2h1.3v0.7c0.2-0.3,0.5-0.5,0.8-0.6c0.3-0.1,0.7-0.2,1-0.2
		C92.7,5.1,93.2,5.2,93.5,5.4z"/>
	<path d="M97.9,6.2v3.4c0,0.2,0.1,0.4,0.2,0.5c0.1,0.1,0.3,0.2,0.6,0.2h0.8v1.1h-1c-0.6,0-1-0.1-1.3-0.4c-0.3-0.3-0.5-0.7-0.5-1.3
		V6.2h-0.7V5.2h0.7V3.6h1.3v1.5h1.5v1.1H97.9z"/>
	<path d="M101.6,11.2c-0.4-0.2-0.7-0.4-0.9-0.7s-0.3-0.6-0.4-1h1.3c0,0.3,0.1,0.5,0.4,0.7c0.2,0.2,0.5,0.3,0.9,0.3
		c0.4,0,0.6-0.1,0.8-0.2c0.2-0.1,0.3-0.3,0.3-0.5c0-0.2-0.1-0.4-0.3-0.5c-0.2-0.1-0.6-0.2-1.1-0.4c-0.5-0.1-0.8-0.3-1.1-0.4
		c-0.3-0.1-0.5-0.3-0.8-0.6c-0.2-0.2-0.3-0.6-0.3-1c0-0.3,0.1-0.6,0.3-0.9c0.2-0.3,0.5-0.5,0.8-0.6c0.4-0.2,0.8-0.2,1.3-0.2
		c0.7,0,1.3,0.2,1.7,0.5c0.4,0.4,0.7,0.8,0.7,1.5h-1.3c0-0.3-0.1-0.5-0.3-0.7c-0.2-0.2-0.5-0.2-0.8-0.2c-0.3,0-0.6,0.1-0.8,0.2
		c-0.2,0.1-0.3,0.3-0.3,0.5c0,0.2,0.1,0.3,0.2,0.4c0.1,0.1,0.3,0.2,0.4,0.3c0.2,0.1,0.4,0.1,0.8,0.2c0.5,0.1,0.8,0.2,1.1,0.4
		c0.3,0.1,0.5,0.3,0.8,0.5s0.3,0.6,0.3,1c0,0.4-0.1,0.7-0.3,0.9c-0.2,0.3-0.5,0.5-0.8,0.7c-0.4,0.2-0.8,0.2-1.3,0.2
		C102.4,11.5,102,11.4,101.6,11.2z"/>
	<path d="M1.4,19.6c0.3-0.5,0.6-0.9,1.1-1.1s0.9-0.4,1.5-0.4c0.4,0,0.8,0.1,1.2,0.3c0.4,0.2,0.7,0.4,0.9,0.7v-3h1.3v8.4H6.1v-0.9
		c-0.2,0.3-0.5,0.5-0.9,0.7c-0.4,0.2-0.8,0.3-1.3,0.3c-0.5,0-1-0.1-1.5-0.4c-0.4-0.3-0.8-0.7-1.1-1.2S1,21.9,1,21.2
		C1,20.6,1.2,20.1,1.4,19.6z M5.9,20.1c-0.2-0.3-0.4-0.6-0.7-0.7c-0.3-0.2-0.6-0.2-0.9-0.2c-0.3,0-0.6,0.1-0.9,0.2
		c-0.3,0.2-0.5,0.4-0.7,0.7s-0.3,0.7-0.3,1.1c0,0.4,0.1,0.8,0.3,1.1c0.2,0.3,0.4,0.6,0.7,0.7c0.3,0.2,0.6,0.3,0.9,0.3
		c0.3,0,0.6-0.1,0.9-0.2c0.3-0.2,0.5-0.4,0.7-0.7c0.2-0.3,0.3-0.7,0.3-1.1C6.1,20.8,6,20.5,5.9,20.1z"/>
	<path d="M14.8,21.7H10c0,0.5,0.2,0.9,0.6,1.2c0.3,0.3,0.7,0.5,1.2,0.5c0.7,0,1.2-0.3,1.5-0.9h1.4c-0.2,0.6-0.5,1-1,1.4
		c-0.5,0.4-1.1,0.5-1.8,0.5c-0.6,0-1.1-0.1-1.6-0.4S9.4,23.4,9.1,23c-0.3-0.5-0.4-1-0.4-1.7c0-0.6,0.1-1.2,0.4-1.7
		c0.3-0.5,0.6-0.9,1.1-1.1s1-0.4,1.6-0.4c0.6,0,1.1,0.1,1.6,0.4c0.5,0.3,0.8,0.6,1.1,1.1c0.3,0.5,0.4,1,0.4,1.6
		C14.8,21.3,14.8,21.6,14.8,21.7z M13.5,20.7c0-0.5-0.2-0.9-0.5-1.1c-0.3-0.3-0.7-0.4-1.2-0.4c-0.4,0-0.8,0.1-1.1,0.4
		s-0.5,0.7-0.6,1.1H13.5z"/>
	<path d="M20.3,23.3H23v1H19v-7.9h1.3V23.3z"/>
	<path d="M25.2,24.1c-0.5-0.3-0.8-0.6-1.1-1.1c-0.3-0.5-0.4-1-0.4-1.7c0-0.6,0.1-1.2,0.4-1.7c0.3-0.5,0.7-0.9,1.1-1.1
		c0.5-0.3,1-0.4,1.6-0.4c0.6,0,1.1,0.1,1.6,0.4c0.5,0.3,0.9,0.6,1.1,1.1c0.3,0.5,0.4,1.1,0.4,1.7s-0.1,1.2-0.4,1.7
		c-0.3,0.5-0.7,0.9-1.2,1.1c-0.5,0.3-1,0.4-1.6,0.4C26.2,24.5,25.6,24.3,25.2,24.1z M27.7,23.1c0.3-0.2,0.5-0.4,0.7-0.7
		s0.3-0.7,0.3-1.2c0-0.5-0.1-0.8-0.3-1.1c-0.2-0.3-0.4-0.5-0.7-0.7s-0.6-0.2-0.9-0.2s-0.6,0.1-0.9,0.2s-0.5,0.4-0.7,0.7
		c-0.2,0.3-0.2,0.7-0.2,1.1c0,0.7,0.2,1.2,0.5,1.6s0.8,0.5,1.3,0.5C27.1,23.4,27.4,23.3,27.7,23.1z"/>
	<path d="M31.3,17.1c-0.2-0.2-0.2-0.4-0.2-0.6s0.1-0.4,0.2-0.6c0.2-0.2,0.4-0.2,0.6-0.2c0.2,0,0.4,0.1,0.6,0.2
		c0.2,0.2,0.2,0.4,0.2,0.6s-0.1,0.4-0.2,0.6s-0.4,0.2-0.6,0.2C31.7,17.3,31.5,17.3,31.3,17.1z M32.5,18.2v6.2h-1.3v-6.2H32.5z"/>
	<path d="M36.3,18.3c0.3-0.2,0.7-0.3,1.1-0.3v1.3h-0.3c-0.5,0-0.9,0.1-1.1,0.4c-0.3,0.3-0.4,0.7-0.4,1.3v3.3h-1.3v-6.2h1.3v0.9
		C35.7,18.7,36,18.5,36.3,18.3z"/>
	<path d="M44.2,21.7h-4.8c0,0.5,0.2,0.9,0.6,1.2c0.3,0.3,0.7,0.5,1.2,0.5c0.7,0,1.2-0.3,1.5-0.9h1.4c-0.2,0.6-0.5,1-1,1.4
		c-0.5,0.4-1.1,0.5-1.8,0.5c-0.6,0-1.1-0.1-1.6-0.4s-0.8-0.6-1.1-1.1c-0.3-0.5-0.4-1-0.4-1.7c0-0.6,0.1-1.2,0.4-1.7
		c0.3-0.5,0.6-0.9,1.1-1.1s1-0.4,1.6-0.4c0.6,0,1.1,0.1,1.6,0.4c0.5,0.3,0.8,0.6,1.1,1.1c0.3,0.5,0.4,1,0.4,1.6
		C44.3,21.3,44.3,21.6,44.2,21.7z M42.9,20.7c0-0.5-0.2-0.9-0.5-1.1c-0.3-0.3-0.7-0.4-1.2-0.4c-0.4,0-0.8,0.1-1.1,0.4
		s-0.5,0.7-0.6,1.1H42.9z"/>
	<path d="M50.3,19.7v1.1h-4.6v-1.1H50.3z"/>
	<path d="M56.9,22.8h-3.3L53,24.4h-1.3l2.8-7.9H56l2.8,7.9h-1.4L56.9,22.8z M56.5,21.7l-1.3-3.6L54,21.7H56.5z"/>
	<path d="M61.5,19.2v3.4c0,0.2,0.1,0.4,0.2,0.5c0.1,0.1,0.3,0.2,0.6,0.2h0.8v1.1h-1c-0.6,0-1-0.1-1.3-0.4c-0.3-0.3-0.5-0.7-0.5-1.3
		v-3.4h-0.7v-1.1h0.7v-1.5h1.3v1.5h1.5v1.1H61.5z"/>
	<path d="M65.5,16v8.4h-1.3V16H65.5z"/>
	<path d="M67.2,19.6c0.3-0.5,0.6-0.9,1.1-1.1s0.9-0.4,1.5-0.4c0.5,0,0.9,0.1,1.3,0.3c0.4,0.2,0.7,0.4,0.9,0.7v-0.9h1.3v6.2h-1.3
		v-0.9c-0.2,0.3-0.5,0.5-0.9,0.7c-0.4,0.2-0.8,0.3-1.3,0.3c-0.5,0-1-0.1-1.5-0.4c-0.4-0.3-0.8-0.7-1.1-1.2s-0.4-1.1-0.4-1.7
		C66.8,20.6,66.9,20.1,67.2,19.6z M71.6,20.1c-0.2-0.3-0.4-0.6-0.7-0.7c-0.3-0.2-0.6-0.2-0.9-0.2c-0.3,0-0.6,0.1-0.9,0.2
		c-0.3,0.2-0.5,0.4-0.7,0.7s-0.3,0.7-0.3,1.1c0,0.4,0.1,0.8,0.3,1.1c0.2,0.3,0.4,0.6,0.7,0.7c0.3,0.2,0.6,0.3,0.9,0.3
		c0.3,0,0.6-0.1,0.9-0.2c0.3-0.2,0.5-0.4,0.7-0.7c0.2-0.3,0.3-0.7,0.3-1.1C71.9,20.8,71.8,20.5,71.6,20.1z"/>
	<path d="M79.3,18.4c0.4,0.2,0.7,0.5,0.9,0.9c0.2,0.4,0.3,0.9,0.3,1.4v3.7h-1.3v-3.5c0-0.6-0.1-1-0.4-1.3s-0.7-0.4-1.1-0.4
		c-0.5,0-0.9,0.1-1.1,0.4s-0.4,0.7-0.4,1.3v3.5h-1.3v-6.2h1.3v0.7c0.2-0.3,0.5-0.5,0.8-0.6c0.3-0.1,0.7-0.2,1-0.2
		C78.5,18.1,79,18.2,79.3,18.4z"/>
	<path d="M83.7,19.2v3.4c0,0.2,0.1,0.4,0.2,0.5c0.1,0.1,0.3,0.2,0.6,0.2h0.8v1.1h-1c-0.6,0-1-0.1-1.3-0.4c-0.3-0.3-0.5-0.7-0.5-1.3
		v-3.4h-0.7v-1.1h0.7v-1.5h1.3v1.5h1.5v1.1H83.7z"/>
	<path d="M86.5,17.1c-0.2-0.2-0.2-0.4-0.2-0.6s0.1-0.4,0.2-0.6c0.2-0.2,0.4-0.2,0.6-0.2c0.2,0,0.4,0.1,0.6,0.2
		c0.2,0.2,0.2,0.4,0.2,0.6s-0.1,0.4-0.2,0.6s-0.4,0.2-0.6,0.2C86.8,17.3,86.6,17.3,86.5,17.1z M87.7,18.2v6.2h-1.3v-6.2H87.7z"/>
	<path d="M89.4,19.6c0.3-0.5,0.6-0.9,1.1-1.1s0.9-0.4,1.5-0.4c0.5,0,0.9,0.1,1.3,0.3c0.4,0.2,0.7,0.4,0.9,0.7v-0.9h1.3v9.2h-1.3
		v-3.9c-0.2,0.3-0.5,0.5-0.9,0.7c-0.4,0.2-0.8,0.3-1.3,0.3c-0.5,0-1-0.1-1.5-0.4c-0.4-0.3-0.8-0.7-1.1-1.2S89,21.9,89,21.2
		C89,20.6,89.1,20.1,89.4,19.6z M93.8,20.1c-0.2-0.3-0.4-0.6-0.7-0.7c-0.3-0.2-0.6-0.2-0.9-0.2c-0.3,0-0.6,0.1-0.9,0.2
		c-0.3,0.2-0.5,0.4-0.7,0.7s-0.3,0.7-0.3,1.1c0,0.4,0.1,0.8,0.3,1.1c0.2,0.3,0.4,0.6,0.7,0.7c0.3,0.2,0.6,0.3,0.9,0.3
		c0.3,0,0.6-0.1,0.9-0.2c0.3-0.2,0.5-0.4,0.7-0.7c0.2-0.3,0.3-0.7,0.3-1.1C94.1,20.8,94,20.5,93.8,20.1z"/>
	<path d="M102.7,18.2v6.2h-1.3v-0.7c-0.2,0.3-0.5,0.5-0.8,0.6c-0.3,0.1-0.7,0.2-1,0.2c-0.5,0-0.9-0.1-1.3-0.3
		c-0.4-0.2-0.7-0.5-0.9-0.9c-0.2-0.4-0.3-0.9-0.3-1.4v-3.7h1.3v3.5c0,0.6,0.1,1,0.4,1.3c0.3,0.3,0.7,0.4,1.1,0.4
		c0.5,0,0.9-0.1,1.1-0.4c0.3-0.3,0.4-0.7,0.4-1.3v-3.5H102.7z"/>
	<path d="M110.1,21.7h-4.8c0,0.5,0.2,0.9,0.6,1.2c0.3,0.3,0.7,0.5,1.2,0.5c0.7,0,1.2-0.3,1.5-0.9h1.4c-0.2,0.6-0.5,1-1,1.4
		c-0.5,0.4-1.1,0.5-1.8,0.5c-0.6,0-1.1-0.1-1.6-0.4s-0.8-0.6-1.1-1.1c-0.3-0.5-0.4-1-0.4-1.7c0-0.6,0.1-1.2,0.4-1.7
		c0.3-0.5,0.6-0.9,1.1-1.1s1-0.4,1.6-0.4c0.6,0,1.1,0.1,1.6,0.4c0.5,0.3,0.8,0.6,1.1,1.1c0.3,0.5,0.4,1,0.4,1.6
		C110.1,21.3,110.1,21.6,110.1,21.7z M108.8,20.7c0-0.5-0.2-0.9-0.5-1.1c-0.3-0.3-0.7-0.4-1.2-0.4c-0.4,0-0.8,0.1-1.1,0.4
		s-0.5,0.7-0.6,1.1H108.8z"/>
</g>
</svg>
