<?xml version="1.0" encoding="utf-8"?>
<!-- Generator: Adobe Illustrator 28.3.0, SVG Export Plug-In . SVG Version: 6.00 Build 0)  -->
<svg version="1.1" id="calques" xmlns="http://www.w3.org/2000/svg" xmlns:xlink="http://www.w3.org/1999/xlink" x="0px" y="0px"
	 viewBox="0 0 686.8 200" style="enable-background:new 0 0 686.8 200;" xml:space="preserve">
<style type="text/css">
	.st0{fill:#004461;}
	.st1{fill:#AFCA00;}
	.st2{fill:#FFFFFF;}
</style>
<path class="st0" d="M190.4,45.2c-1.5-0.9-3.3-1.4-5.1-1.4c-2.5,0-5,1-6.7,2.8c-1.8,1.8-2.8,4.3-2.8,6.8c-0.1,0.4-0.1,0.8,0,1.2
	L190.4,45.2z"/>
<path class="st0" d="M346.4,103.5c-1.5-1-3.3-1.5-5-1.4c-2.6-0.1-5,0.9-6.7,2.8c-1.8,1.8-2.9,4.2-2.8,6.8c0,0.4,0,0.8,0,1.2
	L346.4,103.5z"/>
<path class="st0" d="M112.8,62.9c2.5,0,5-1,6.7-2.8c1.9-1.7,2.9-4.2,2.8-6.7c0-5.3-4.3-9.6-9.6-9.5c-2.5,0-4.9,1-6.7,2.8
	c-3.9,3.6-4.1,9.6-0.5,13.5c1.9,2,4.5,3.1,7.3,3.1L112.8,62.9z"/>
<path class="st0" d="M267.2,102c-2.5,0-5,1-6.7,2.8c-3.7,3.7-3.8,9.7-0.1,13.4l0.1,0.1c3.7,3.7,9.7,3.8,13.4,0.1l0.1-0.1
	c1.8-1.8,2.8-4.2,2.8-6.7s-1-5-2.8-6.7C272.2,103.1,269.7,102,267.2,102z"/>
<path class="st0" d="M158.8,121.2c5.3,0,9.6-4.3,9.6-9.6c0-2.6-1.1-5-2.9-6.7c-3.7-3.7-9.8-3.8-13.5,0l0,0c-3.7,3.7-3.7,9.8,0,13.5
	C153.8,120.2,156.2,121.2,158.8,121.2C158.7,121.2,158.8,121.2,158.8,121.2z"/>
<path class="st0" d="M276.8,145v-19.1c-6.8,5-16.3,4.2-22.1-1.9c-3.3-3.3-5.1-7.8-5-12.4c0-9.8,8-17.8,17.8-17.7
	c9.8,0,17.7,7.9,17.7,17.7v33.2h-1.1c29,0.4,62.5,1.8,101.7,4.5V45C243.3-10,70.9-7.3,5,33.2l54.5,163.6
	c9.1-5.5,17.9-10.7,26.7-15.4l0,0C129.1,158.1,173.8,144.3,276.8,145z M328.8,99.1c3.3-3.4,7.8-5.3,12.6-5.3c3.5,0,6.9,1,9.8,3
	s5.2,4.8,6.6,8v0.7l-21.7,14.2c1.5,0.9,3.3,1.4,5,1.4c2.6,0.1,5.2-1,6.9-2.9c0.7-0.8,1.4-1.8,1.8-2.8h8.6c-0.7,3.2-2.3,6.1-4.6,8.5
	c-3.2,3.6-7.8,5.6-12.6,5.5c-4.7,0.1-9.2-1.8-12.6-5.1c-3.4-3.2-5.3-7.8-5.2-12.5C323.4,107.1,325.3,102.5,328.8,99.1z M290,94.4
	h8.2v19.8c0.1,3.8,3.1,6.9,6.9,7c1.9,0,3.6-0.8,4.9-2.1c1.3-1.3,2.1-3,2-4.9V94.5h8.2v19.8c0,4-1.7,7.8-4.6,10.5
	c-5.5,5.8-14.7,6.1-20.6,0.6c-0.2-0.2-0.4-0.4-0.6-0.6c-2.9-2.7-4.5-6.5-4.5-10.5L290,94.4z M122.4,102.5h-5.5v26.2h-8v-26.2h-5.3
	v-8.1h5.3v-11h8.1v11.1h5.5L122.4,102.5z M136.2,128.7H128V83h8.1L136.2,128.7z M236.6,83.1h8.1v8.1h-8.2L236.6,83.1z M236.6,94.1
	h8.1v34.3h-8.2L236.6,94.1z M214.4,94.1h5.3v-11h7.7v11.1h5.3v8.1h-5.3v26.2h-8.1v-25.9H214L214.4,94.1z M212.1,108.7v19.8h-8.5V109
	c0-3.8-3.1-7-7-7c-3.8,0-7,3.1-7,7l0,0v19.8h-8.1V109c0-4,1.6-7.8,4.5-10.6c2.8-2.9,6.6-4.5,10.6-4.5s7.8,1.6,10.5,4.5
	c2.9,2.7,4.6,6.6,4.6,10.6L212.1,108.7z M173.4,40.6c3.2-3.4,7.8-5.3,12.5-5.2c3.5,0,6.9,1,9.8,3c2.9,1.9,5.3,4.7,6.6,8l0.3,0.7
	l-22.4,14.2c1.5,0.9,3.3,1.4,5.1,1.4c2.5,0.1,5-1,6.7-2.9c0.8-0.8,1.4-1.8,1.9-2.9h8.6c-0.7,3.2-2.3,6.2-4.6,8.6
	c-3.2,3.5-7.8,5.4-12.6,5.3c-4.7,0.1-9.3-1.8-12.6-5.1c-3.4-3.3-5.3-7.8-5.2-12.5c0-4.6,1.9-9.1,5.2-12.3L173.4,40.6z M150,50.8
	c-0.1-4.1,1.7-8,4.7-10.7c3-2.9,6.9-4.5,11.1-4.4h0.9v8.1h-1.3c-2-0.1-4,0.6-5.5,2c-1.4,1.3-2.2,3.1-2.2,5v19.8H150V50.8z
	 M158.8,93.9c4.7,0,9.3,1.9,12.6,5.3c3.4,3.3,5.3,7.8,5.2,12.5v17.1h-8.1V126c-6.8,4.9-16.3,4.1-22.1-1.9
	c-6.8-7.1-6.6-18.4,0.5-25.2c3.3-3.2,7.7-4.9,12.2-5C159.1,93.9,158.8,93.9,158.8,93.9z M135.6,24.7h8.1v8.1h-8.1V24.7z M135.6,36.2
	h8.1v34.4h-8.1V36.2z M100.3,40.9c3.3-3.4,7.8-5.2,12.6-5.2c9.8,0.1,17.7,7.9,17.8,17.7c-0.1,9.8-8.2,17.7-18,17.6
	c-4.6,0-9-1.9-12.3-5.1C93.4,59,93.4,47.8,100.3,40.9L100.3,40.9z M67.1,24.9h8.5v37.2h18.8v8.5H67.3L67.1,24.9z M73.3,128.7h-8.8
	L80.7,83h9.5l16.2,45.7h-9.1l-2.8-7.6H76.3L73.3,128.7z"/>
<polygon class="st0" points="79.1,113.4 91.7,113.4 85.4,96.2 "/>
<path class="st1" d="M86.2,181.4h299.4v-31.6C212.5,139.1,151.6,146.6,86.2,181.4z"/>
<path class="st1" d="M386.4,149.8L386.4,149.8z"/>
<path class="st1" d="M385.6,149.8L385.6,149.8c-39.2-2.7-72.8-4.1-101.7-4.5h-7.1c-103-1.1-147.7,12.8-190.7,36.1l0,0
	C151.6,146.6,212.5,139.1,385.6,149.8z"/>
<path class="st2" d="M112.8,71c9.8,0,17.7-7.9,17.8-17.6c-0.1-9.8-8-17.6-17.8-17.7c-4.7,0-9.3,1.8-12.6,5.2c-6.9,6.9-6.9,18.1,0,25
	l0,0C103.6,69.2,108.1,71.1,112.8,71z M106.1,46.6c3.7-3.7,9.8-3.7,13.5,0c1.8,1.8,2.8,4.2,2.8,6.7c0.1,2.5-1,5-2.8,6.7
	c-3.5,4-9.5,4.4-13.5,1c-4-3.5-4.4-9.5-1-13.5C105.4,47.3,105.7,46.9,106.1,46.6z"/>
<rect x="135.6" y="36.2" class="st2" width="8.1" height="34.4"/>
<path class="st2" d="M158.2,50.8c-0.1-1.9,0.7-3.7,2.2-5c1.5-1.4,3.5-2.1,5.5-2h0.9v-8.1h-1.3c-4.1-0.1-8.1,1.5-11.1,4.4
	c-3,2.7-4.8,6.6-4.7,10.7v19.8h8.1L158.2,50.8z"/>
<polygon class="st2" points="117,83.1 108.9,83.1 108.9,94.4 103.6,94.4 103.6,102.5 108.9,102.5 108.9,128.7 117,128.7 117,102.5 
	122.3,102.5 122.3,94.4 117,94.4 "/>
<rect x="128" y="83" class="st2" width="8.1" height="45.7"/>
<path class="st2" d="M146,124c5.9,6,15.3,6.9,22.1,1.9v2.8h8.4v-17.1c0.1-4.7-1.8-9.2-5.2-12.5c-7.2-6.7-18.4-6.3-25.1,0.9
	C140,106.8,139.9,117.2,146,124z M152,104.9c3.7-3.7,9.8-3.8,13.5,0l0,0c1.8,1.8,2.9,4.2,2.8,6.7c0,5.3-4.3,9.6-9.6,9.6
	s-9.6-4.3-9.5-9.6C149.2,109.1,150.2,106.7,152,104.9z"/>
<path class="st2" d="M186,98.4c-2.9,2.7-4.5,6.6-4.5,10.6v19.8h8.1V109c0-3.8,3.1-7,7-7c3.8,0,7,3.1,7,7l0,0v19.8h8.1V109
	c0-4-1.7-7.8-4.6-10.6c-2.7-2.9-6.5-4.5-10.5-4.5S188.8,95.5,186,98.4z"/>
<polygon class="st2" points="219.3,128.8 227.4,128.8 227.4,102.5 232.7,102.5 232.7,94.4 227.4,94.4 227.4,83.1 219.3,83.1 
	219.3,94.4 214,94.4 214,102.5 219.3,102.5 "/>
<rect x="236.4" y="94.4" class="st2" width="8.1" height="34.4"/>
<rect x="236.4" y="83.1" class="st2" width="8.1" height="8.1"/>
<path class="st2" d="M285,111.6c-0.1-9.8-8-17.7-17.8-17.8c-9.8,0-17.8,7.9-17.8,17.8c0,4.6,1.8,9.1,5,12.4
	c5.9,6.1,15.3,6.9,22.1,1.9V145h8.4v-33.4H285z M273.9,118.4c-3.7,3.7-9.7,3.8-13.4,0.1l-0.1-0.1c-3.7-3.7-3.8-9.7-0.1-13.4l0.1-0.1
	c1.8-1.8,4.2-2.9,6.7-2.8c2.5,0,5,1,6.7,2.8c1.8,1.8,2.9,4.2,2.8,6.7C276.7,114.2,275.7,116.6,273.9,118.4L273.9,118.4z"/>
<path class="st2" d="M276.8,145.1L276.8,145.1z"/>
<path class="st2" d="M305,129.3c4,0,7.8-1.7,10.6-4.5c2.9-2.7,4.6-6.5,4.6-10.5V94.5H312v19.8c0,1.8-0.7,3.6-2,4.9s-3.1,2.1-4.9,2.1
	c-3.8-0.2-6.7-3.3-6.7-7V94.5H290v19.8c0,4,1.6,7.8,4.5,10.5C297.2,127.6,301,129.3,305,129.3z"/>
<path class="st2" d="M185.4,71c4.7,0.1,9.3-1.8,12.6-5.3c2.3-2.4,3.9-5.3,4.6-8.6H194c-0.4,1.1-1.1,2-1.9,2.9
	c-1.7,1.9-4.1,3-6.7,2.9c-1.8,0-3.6-0.5-5.1-1.4l21.8-14.2l-0.3-0.7c-1.4-3.2-3.7-6-6.6-8c-2.9-2-6.3-3-9.8-3
	c-4.7-0.1-9.3,1.8-12.5,5.2c-3.4,3.3-5.2,7.8-5.2,12.6c-0.1,4.7,1.8,9.2,5.2,12.5C176.1,69.3,180.7,71.1,185.4,71z M178.5,46.6
	c1.8-1.8,4.2-2.9,6.7-2.8c1.8,0,3.6,0.5,5.1,1.4l-14.5,9.4c-0.1-0.4-0.1-0.8,0-1.2C175.8,50.9,176.7,48.4,178.5,46.6z"/>
<path class="st2" d="M341.4,129.3c4.8,0.1,9.4-1.9,12.6-5.5c2.3-2.4,3.9-5.3,4.6-8.5H350c-0.5,1-1.1,2-1.8,2.8
	c-1.7,1.9-4.2,3-6.7,2.9c-1.8,0-3.5-0.5-5-1.4l21.7-14v-0.7c-1.4-3.2-3.7-6-6.6-8s-6.3-3-9.8-3c-4.7-0.1-9.3,1.8-12.6,5.3
	c-3.4,3.3-5.2,7.8-5.1,12.6c-0.1,4.7,1.8,9.3,5.2,12.5C332.4,127.4,336.8,129.3,341.4,129.3z M334.6,104.9c1.7-1.9,4.2-2.9,6.7-2.8
	c1.8,0,3.5,0.5,5,1.4l-14.5,9.4c0-0.4,0-0.8,0-1.2C331.8,109.1,332.8,106.7,334.6,104.9z"/>
<polygon class="st2" points="94.5,62.1 75.7,62.1 75.7,24.9 67.3,24.9 67.3,70.5 94.5,70.5 "/>
<path class="st2" d="M97.2,128.7h9.1L90.2,83h-9.5l-16.2,45.7h9l2.8-7.6h18.2L97.2,128.7z M79.1,113.5l6.3-17.3l6.3,17.3H79.1z"/>
<rect x="135.6" y="24.7" class="st2" width="8.1" height="8.1"/>
<g>
	<path d="M435.7,98.3H447v4.4h-16.8V69.3h5.5V98.3z"/>
	<path d="M452.4,69.3h6l-5,11.4h-3.8L452.4,69.3z"/>
	<path d="M463,82.3c1.1-2,2.6-3.6,4.5-4.8c1.9-1.1,4-1.7,6.3-1.7c2.1,0,3.9,0.4,5.4,1.2c1.6,0.8,2.8,1.8,3.7,3v-3.8h5.5v26.4H483
		v-3.9c-0.9,1.2-2.2,2.3-3.8,3.1c-1.6,0.8-3.4,1.2-5.5,1.2c-2.3,0-4.4-0.6-6.2-1.8c-1.9-1.2-3.4-2.8-4.5-4.9
		c-1.1-2.1-1.7-4.5-1.7-7.1C461.4,86.7,461.9,84.3,463,82.3z M481.9,84.7c-0.8-1.3-1.7-2.4-3-3.1c-1.2-0.7-2.5-1.1-3.9-1.1
		c-1.4,0-2.7,0.3-3.9,1c-1.2,0.7-2.2,1.7-3,3c-0.8,1.3-1.1,2.9-1.1,4.7c0,1.8,0.4,3.4,1.1,4.8c0.8,1.4,1.7,2.4,3,3.1
		c1.2,0.7,2.5,1.1,3.9,1.1c1.4,0,2.7-0.4,3.9-1.1c1.2-0.7,2.2-1.7,3-3.1c0.8-1.4,1.1-3,1.1-4.8C483,87.6,482.6,86,481.9,84.7z"/>
	<path d="M511.8,77c1.6,0.8,2.8,1.8,3.7,3v-3.8h5.5v26.9c0,2.4-0.5,4.6-1.5,6.5c-1,1.9-2.5,3.4-4.4,4.5c-1.9,1.1-4.2,1.6-6.9,1.6
		c-3.6,0-6.6-0.8-8.9-2.5s-3.7-4-4-6.8h5.4c0.4,1.4,1.3,2.5,2.7,3.3c1.4,0.8,3,1.3,4.9,1.3c2.2,0,4-0.7,5.4-2s2-3.3,2-5.9v-4.4
		c-0.9,1.2-2.2,2.3-3.8,3.1c-1.6,0.8-3.4,1.3-5.4,1.3c-2.3,0-4.4-0.6-6.3-1.8c-1.9-1.2-3.4-2.8-4.5-4.9c-1.1-2.1-1.7-4.5-1.7-7.1
		c0-2.7,0.6-5,1.7-7.1c1.1-2,2.6-3.6,4.5-4.8c1.9-1.1,4-1.7,6.3-1.7C508.4,75.8,510.2,76.2,511.8,77z M514.4,84.7
		c-0.8-1.3-1.7-2.4-3-3.1c-1.2-0.7-2.5-1.1-3.9-1.1c-1.4,0-2.7,0.3-3.9,1c-1.2,0.7-2.2,1.7-3,3c-0.8,1.3-1.1,2.9-1.1,4.7
		c0,1.8,0.4,3.4,1.1,4.8c0.8,1.4,1.7,2.4,3,3.1c1.2,0.7,2.5,1.1,3.9,1.1c1.4,0,2.7-0.4,3.9-1.1c1.2-0.7,2.2-1.7,3-3.1
		c0.8-1.4,1.1-3,1.1-4.8C515.5,87.6,515.2,86,514.4,84.7z"/>
	<path d="M552.3,91.5h-20.2c0.2,2.1,0.9,3.8,2.4,5.1c1.4,1.3,3.1,1.9,5.2,1.9c2.9,0,5-1.2,6.2-3.7h5.9c-0.8,2.4-2.2,4.4-4.3,6
		c-2.1,1.6-4.7,2.3-7.8,2.3c-2.5,0-4.8-0.6-6.8-1.7s-3.6-2.7-4.7-4.8c-1.1-2.1-1.7-4.5-1.7-7.2c0-2.7,0.6-5.1,1.7-7.2
		c1.1-2.1,2.7-3.7,4.7-4.8c2-1.1,4.3-1.7,6.9-1.7c2.5,0,4.7,0.5,6.7,1.6c2,1.1,3.5,2.6,4.6,4.6c1.1,2,1.6,4.2,1.6,6.8
		C552.5,89.8,552.4,90.7,552.3,91.5z M546.8,87.1c0-2-0.8-3.6-2.2-4.8c-1.4-1.2-3.2-1.8-5.2-1.8c-1.9,0-3.5,0.6-4.8,1.8
		c-1.3,1.2-2.1,2.8-2.4,4.9H546.8z"/>
	<path d="M576.8,77.1c1.6,0.9,2.9,2.1,3.9,3.8c0.9,1.7,1.4,3.7,1.4,6.1v15.6h-5.4V87.9c0-2.4-0.6-4.2-1.8-5.4
		c-1.2-1.3-2.8-1.9-4.8-1.9c-2,0-3.7,0.6-4.9,1.9c-1.2,1.3-1.8,3.1-1.8,5.4v14.8h-5.5V76.3h5.5v3c0.9-1.1,2-1.9,3.4-2.5
		c1.4-0.6,2.9-0.9,4.4-0.9C573.3,75.8,575.2,76.3,576.8,77.1z"/>
	<path d="M588.9,82.3c1.1-2,2.6-3.6,4.5-4.8c1.9-1.1,4-1.7,6.4-1.7c1.7,0,3.4,0.4,5.1,1.1c1.7,0.8,3,1.8,4,3V67.2h5.5v35.5h-5.5v-4
		c-0.9,1.3-2.1,2.3-3.7,3.2c-1.6,0.8-3.4,1.2-5.4,1.2c-2.3,0-4.4-0.6-6.3-1.8c-1.9-1.2-3.4-2.8-4.5-4.9c-1.1-2.1-1.7-4.5-1.7-7.1
		C587.2,86.7,587.8,84.3,588.9,82.3z M607.7,84.7c-0.8-1.3-1.7-2.4-3-3.1c-1.2-0.7-2.5-1.1-3.9-1.1c-1.4,0-2.7,0.3-3.9,1
		c-1.2,0.7-2.2,1.7-3,3c-0.8,1.3-1.1,2.9-1.1,4.7c0,1.8,0.4,3.4,1.1,4.8c0.8,1.4,1.7,2.4,3,3.1c1.2,0.7,2.5,1.1,3.9,1.1
		c1.4,0,2.7-0.4,3.9-1.1c1.2-0.7,2.2-1.7,3-3.1c0.8-1.4,1.1-3,1.1-4.8C608.9,87.6,608.5,86,607.7,84.7z"/>
	<path d="M621.4,82.3c1.1-2,2.6-3.6,4.5-4.8c1.9-1.1,4-1.7,6.3-1.7c2.1,0,3.9,0.4,5.4,1.2c1.6,0.8,2.8,1.8,3.7,3v-3.8h5.5v26.4h-5.5
		v-3.9c-0.9,1.2-2.2,2.3-3.8,3.1c-1.6,0.8-3.4,1.2-5.5,1.2c-2.3,0-4.4-0.6-6.2-1.8c-1.9-1.2-3.4-2.8-4.5-4.9
		c-1.1-2.1-1.7-4.5-1.7-7.1C619.8,86.7,620.3,84.3,621.4,82.3z M640.3,84.7c-0.8-1.3-1.7-2.4-3-3.1c-1.2-0.7-2.5-1.1-3.9-1.1
		c-1.4,0-2.7,0.3-3.9,1c-1.2,0.7-2.2,1.7-3,3c-0.8,1.3-1.1,2.9-1.1,4.7c0,1.8,0.4,3.4,1.1,4.8c0.8,1.4,1.7,2.4,3,3.1
		c1.2,0.7,2.5,1.1,3.9,1.1c1.4,0,2.7-0.4,3.9-1.1c1.2-0.7,2.2-1.7,3-3.1c0.8-1.4,1.1-3,1.1-4.8C641.4,87.6,641,86,640.3,84.7z"/>
	<path d="M430.1,139.9c1.1-2,2.6-3.6,4.5-4.8c1.9-1.1,4-1.7,6.4-1.7c1.7,0,3.4,0.4,5.1,1.1s3,1.8,4,3v-12.8h5.5v35.5h-5.5v-4
		c-0.9,1.3-2.1,2.3-3.7,3.2s-3.4,1.2-5.4,1.2c-2.3,0-4.4-0.6-6.3-1.8c-1.9-1.2-3.4-2.8-4.5-4.9c-1.1-2.1-1.7-4.5-1.7-7.1
		C428.4,144.3,429,141.9,430.1,139.9z M448.9,142.3c-0.8-1.3-1.7-2.4-3-3.1c-1.2-0.7-2.5-1.1-3.9-1.1c-1.4,0-2.7,0.3-3.9,1
		c-1.2,0.7-2.2,1.7-3,3c-0.8,1.3-1.1,2.9-1.1,4.7c0,1.8,0.4,3.4,1.1,4.8s1.7,2.4,3,3.1c1.2,0.7,2.5,1.1,3.9,1.1
		c1.4,0,2.7-0.4,3.9-1.1s2.2-1.7,3-3.1c0.8-1.4,1.1-3,1.1-4.8S449.7,143.6,448.9,142.3z"/>
	<path d="M486.8,149.1h-20.2c0.2,2.1,0.9,3.8,2.4,5.1c1.4,1.3,3.1,1.9,5.2,1.9c2.9,0,5-1.2,6.2-3.7h5.9c-0.8,2.4-2.2,4.4-4.3,6
		c-2.1,1.6-4.7,2.3-7.8,2.3c-2.5,0-4.8-0.6-6.8-1.7c-2-1.1-3.6-2.7-4.7-4.8c-1.1-2.1-1.7-4.5-1.7-7.2s0.6-5.1,1.7-7.2
		c1.1-2.1,2.7-3.7,4.7-4.8s4.3-1.7,6.9-1.7c2.5,0,4.7,0.5,6.7,1.6c2,1.1,3.5,2.6,4.6,4.6s1.6,4.2,1.6,6.8
		C487,147.4,487,148.3,486.8,149.1z M481.3,144.7c0-2-0.8-3.6-2.2-4.8c-1.4-1.2-3.2-1.8-5.2-1.8c-1.9,0-3.5,0.6-4.8,1.8
		c-1.3,1.2-2.1,2.8-2.4,4.9H481.3z"/>
	<path d="M496.4,159.6c-1.6-0.8-3-1.8-3.9-3.1s-1.5-2.7-1.5-4.3h5.7c0.1,1.1,0.6,2.1,1.6,2.8c1,0.8,2.2,1.1,3.7,1.1
		c1.5,0,2.7-0.3,3.6-0.9c0.8-0.6,1.3-1.4,1.3-2.3c0-1-0.5-1.7-1.4-2.2c-0.9-0.5-2.4-1-4.5-1.6c-2-0.5-3.6-1.1-4.8-1.6
		c-1.2-0.5-2.3-1.3-3.2-2.4s-1.4-2.4-1.4-4.2c0-1.4,0.4-2.7,1.2-3.9c0.8-1.2,2-2.1,3.6-2.8c1.6-0.7,3.3-1,5.4-1c3,0,5.4,0.8,7.3,2.3
		c1.8,1.5,2.8,3.6,3,6.2h-5.5c-0.1-1.2-0.6-2.1-1.4-2.8s-2-1.1-3.5-1.1c-1.4,0-2.5,0.3-3.3,0.8c-0.8,0.5-1.2,1.3-1.2,2.2
		c0,0.7,0.3,1.3,0.8,1.8c0.5,0.5,1.1,0.9,1.9,1.1c0.7,0.3,1.8,0.6,3.3,1c1.9,0.5,3.5,1,4.7,1.6c1.2,0.5,2.3,1.3,3.2,2.3
		c0.9,1,1.4,2.4,1.4,4.1c0,1.5-0.4,2.8-1.2,4c-0.8,1.2-2,2.1-3.5,2.8s-3.3,1-5.4,1C499.9,160.7,498.1,160.4,496.4,159.6z"/>
	<path d="M534.5,159.6c-1.6-0.8-3-1.8-3.9-3.1s-1.5-2.7-1.5-4.3h5.7c0.1,1.1,0.6,2.1,1.6,2.8c1,0.8,2.2,1.1,3.7,1.1
		c1.5,0,2.7-0.3,3.6-0.9c0.8-0.6,1.3-1.4,1.3-2.3c0-1-0.5-1.7-1.4-2.2c-0.9-0.5-2.4-1-4.5-1.6c-2-0.5-3.6-1.1-4.8-1.6
		c-1.2-0.5-2.3-1.3-3.2-2.4s-1.4-2.4-1.4-4.2c0-1.4,0.4-2.7,1.2-3.9c0.8-1.2,2-2.1,3.6-2.8c1.6-0.7,3.3-1,5.4-1c3,0,5.4,0.8,7.3,2.3
		c1.8,1.5,2.8,3.6,3,6.2h-5.5c-0.1-1.2-0.6-2.1-1.4-2.8s-2-1.1-3.5-1.1c-1.4,0-2.5,0.3-3.3,0.8c-0.8,0.5-1.2,1.3-1.2,2.2
		c0,0.7,0.3,1.3,0.8,1.8c0.5,0.5,1.1,0.9,1.9,1.1c0.7,0.3,1.8,0.6,3.3,1c1.9,0.5,3.5,1,4.7,1.6c1.2,0.5,2.3,1.3,3.2,2.3
		c0.9,1,1.4,2.4,1.4,4.1c0,1.5-0.4,2.8-1.2,4c-0.8,1.2-2,2.1-3.5,2.8s-3.3,1-5.4,1C538,160.7,536.2,160.4,534.5,159.6z"/>
	<path d="M560.9,159c-2-1.1-3.6-2.7-4.8-4.8c-1.2-2.1-1.7-4.5-1.7-7.2c0-2.7,0.6-5.1,1.8-7.2c1.2-2.1,2.8-3.7,4.8-4.8
		c2-1.1,4.3-1.7,6.9-1.7c2.5,0,4.8,0.6,6.9,1.7s3.7,2.7,4.8,4.8c1.2,2.1,1.8,4.5,1.8,7.2c0,2.7-0.6,5.1-1.8,7.2
		c-1.2,2.1-2.9,3.7-5,4.8c-2.1,1.1-4.4,1.7-6.9,1.7C565.1,160.7,562.9,160.2,560.9,159z M571.6,155c1.2-0.7,2.2-1.7,3-3
		c0.8-1.3,1.2-3,1.2-4.9s-0.4-3.5-1.1-4.9c-0.7-1.3-1.7-2.3-2.9-3c-1.2-0.7-2.5-1-3.9-1s-2.7,0.3-3.9,1s-2.2,1.7-2.9,3
		c-0.7,1.3-1.1,3-1.1,4.9c0,2.8,0.7,5,2.2,6.6c1.5,1.6,3.3,2.3,5.5,2.3C569,156,570.4,155.6,571.6,155z"/>
	<path d="M595.4,134.5c1.3-0.8,2.9-1.1,4.7-1.1v5.7h-1.4c-2.1,0-3.8,0.5-4.9,1.6c-1.1,1.1-1.7,3-1.7,5.7v13.9h-5.5v-26.4h5.5v3.8
		C593,136.3,594.1,135.3,595.4,134.5z"/>
	<path d="M611.6,138.3V153c0,1,0.2,1.7,0.7,2.1c0.5,0.4,1.3,0.6,2.4,0.6h3.4v4.6h-4.3c-2.5,0-4.4-0.6-5.7-1.7c-1.3-1.2-2-3-2-5.6
		v-14.6H603v-4.5h3.1v-6.6h5.5v6.6h6.4v4.5H611.6z"/>
	<path d="M623.3,129.3c-0.7-0.7-1-1.5-1-2.5c0-1,0.3-1.8,1-2.5s1.5-1,2.5-1c1,0,1.8,0.3,2.4,1s1,1.5,1,2.5c0,1-0.3,1.8-1,2.5
		s-1.5,1-2.4,1C624.9,130.3,624,130,623.3,129.3z M628.5,133.9v26.4h-5.5v-26.4H628.5z"/>
	<path d="M659.8,149.1h-20.2c0.2,2.1,0.9,3.8,2.4,5.1c1.4,1.3,3.1,1.9,5.2,1.9c2.9,0,5-1.2,6.2-3.7h5.9c-0.8,2.4-2.2,4.4-4.3,6
		c-2.1,1.6-4.7,2.3-7.8,2.3c-2.5,0-4.8-0.6-6.8-1.7c-2-1.1-3.6-2.7-4.7-4.8c-1.1-2.1-1.7-4.5-1.7-7.2s0.6-5.1,1.7-7.2
		c1.1-2.1,2.7-3.7,4.7-4.8s4.3-1.7,6.9-1.7c2.5,0,4.7,0.5,6.7,1.6c2,1.1,3.5,2.6,4.6,4.6s1.6,4.2,1.6,6.8
		C660,147.4,659.9,148.3,659.8,149.1z M654.3,144.7c0-2-0.8-3.6-2.2-4.8c-1.4-1.2-3.2-1.8-5.2-1.8c-1.9,0-3.5,0.6-4.8,1.8
		c-1.3,1.2-2.1,2.8-2.4,4.9H654.3z"/>
	<path d="M669.4,159.6c-1.6-0.8-3-1.8-3.9-3.1s-1.5-2.7-1.5-4.3h5.7c0.1,1.1,0.6,2.1,1.6,2.8c1,0.8,2.2,1.1,3.7,1.1
		c1.5,0,2.7-0.3,3.6-0.9c0.8-0.6,1.3-1.4,1.3-2.3c0-1-0.5-1.7-1.4-2.2c-0.9-0.5-2.4-1-4.5-1.6c-2-0.5-3.6-1.1-4.8-1.6
		c-1.2-0.5-2.3-1.3-3.2-2.4s-1.4-2.4-1.4-4.2c0-1.4,0.4-2.7,1.2-3.9c0.8-1.2,2-2.1,3.6-2.8c1.6-0.7,3.3-1,5.4-1c3,0,5.4,0.8,7.3,2.3
		c1.8,1.5,2.8,3.6,3,6.2h-5.5c-0.1-1.2-0.6-2.1-1.4-2.8s-2-1.1-3.5-1.1c-1.4,0-2.5,0.3-3.3,0.8c-0.8,0.5-1.2,1.3-1.2,2.2
		c0,0.7,0.3,1.3,0.8,1.8c0.5,0.5,1.1,0.9,1.9,1.1c0.7,0.3,1.8,0.6,3.3,1c1.9,0.5,3.5,1,4.7,1.6c1.2,0.5,2.3,1.3,3.2,2.3
		c0.9,1,1.4,2.4,1.4,4.1c0,1.5-0.4,2.8-1.2,4c-0.8,1.2-2,2.1-3.5,2.8s-3.3,1-5.4,1C672.9,160.7,671,160.4,669.4,159.6z"/>
</g>
</svg>
