<?xml version="1.0" encoding="utf-8"?>
<!-- Generator: Adobe Illustrator 25.1.0, SVG Export Plug-In . SVG Version: 6.00 Build 0)  -->
<svg version="1.1" id="Calque_1" xmlns="http://www.w3.org/2000/svg" xmlns:xlink="http://www.w3.org/1999/xlink" x="0px" y="0px"
	 viewBox="0 0 267 56.7" style="enable-background:new 0 0 267 56.7;" xml:space="preserve">
<style type="text/css">
	.st0{fill:none;}
</style>
<g id="Calque_2_1_">
	<g id="Calque_1-2">
		<path d="M55,18.6h4l-0.9-2.9c-0.4-1.4-0.8-2.7-1-4.1l0,0c0,0-0.5,2.6-1,4.1L55,18.6z M55.3,8.6H59l5.6,15.5h-3.8l-1-3h-5.6l-1,3
			h-3.5L55.3,8.6z"/>
		<path d="M73.5,18.5c0-2-0.8-3.4-2.3-3.4c-1.7,0-2.5,1.5-2.5,3.4s0.9,3.3,2.5,3.3S73.5,20.5,73.5,18.5 M68.7,22.4L68.7,22.4V24
			h-3.2V8.6h3.3V12c0,0.9-0.1,1.9-0.1,2.6h0.1c0.7-1.2,1.9-1.9,3.3-1.9c2.9,0,4.8,2.5,4.8,5.9c0,3.7-1.9,5.9-4.8,5.9
			C70.6,24.5,69.3,23.7,68.7,22.4"/>
		<path d="M86,18.5c0-2-0.8-3.4-2.3-3.4c-1.7,0-2.5,1.5-2.5,3.4s0.9,3.3,2.5,3.3S86,20.5,86,18.5 M81.2,22.4L81.2,22.4V24H78V8.6
			h3.3V12c0,0.9-0.1,1.9-0.1,2.6h0.1c0.7-1.2,2-1.9,3.3-1.9c2.9,0,4.8,2.5,4.8,5.9c0,3.7-1.9,5.9-4.8,5.9
			C83.1,24.5,81.8,23.7,81.2,22.4"/>
		<path d="M97.3,20.1v-1.4c-0.6,0.3-1.2,0.5-1.9,0.6c-1.4,0.3-2.1,0.7-2.1,1.6c0,1,0.7,1.3,1.6,1.3c1.2,0.1,2.3-0.8,2.4-2
			C97.3,20.2,97.3,20.2,97.3,20.1 M97.3,22.7L97.3,22.7c-0.7,1.1-2,1.7-3.4,1.6c-2.2,0-3.8-1.2-3.8-3.4c0-2.5,1.9-3.1,4.4-3.4
			c2-0.3,2.8-0.6,2.8-1.4c0-0.8-0.5-1.3-1.7-1.3s-1.9,0.6-2,1.5h-3c0.1-1.9,1.6-3.7,4.9-3.7c1.1-0.1,2.2,0.2,3.2,0.7
			c1.1,0.7,1.8,2,1.7,3.3v5.7c0,0.9,0.1,1.4,0.4,1.5V24h-3.2C97.5,23.7,97.3,23.2,97.3,22.7"/>
		<path d="M102.5,27.7v-2.6h0.2c0,0,1,0,1.1,0c1,0,1.5-0.4,1.6-1.1c-0.1-0.8-0.3-1.5-0.6-2.2l-3.4-8.9h3.4l1.4,4.2
			c0.4,1.3,0.7,2.6,0.9,3.9l0,0c0,0,0.5-2.4,1-3.9l1.3-4.2h3.2l-4,11.4c-0.9,2.6-1.9,3.4-4,3.4C104.6,27.8,102.5,27.8,102.5,27.7"/>
		<path d="M116.2,17.5h4.7c-0.1-1.5-1-2.5-2.3-2.5C117.1,15,116.4,16,116.2,17.5 M113,18.5c-0.2-3.1,2.2-5.7,5.3-5.9
			c0.1,0,0.3,0,0.4,0c1.4,0,2.8,0.5,3.8,1.4c1.3,1.4,1.9,3.3,1.8,5.3h-8.1c0.2,1.7,1.1,2.7,2.7,2.7c0.8,0.1,1.6-0.3,2-1.1h3.1
			c-0.6,2-2.4,3.5-5.2,3.5c-3.1,0.1-5.7-2.3-5.8-5.4C113,18.8,113,18.7,113,18.5"/>
		<path d="M58.7,42.1c0-2.5-1.5-4.5-3.3-4.5c-0.7,0-1.3,0.3-1.7,0.7c-0.8,0.8-1,1.9-1,4.3s0.4,3.6,1.4,4.3c0.4,0.3,0.8,0.4,1.3,0.4
			C57.4,47.2,58.8,45.2,58.7,42.1 M56.2,31.4c1.3,0,2.5,0,3.8-0.2h0.3h0.3v14.4c0,1,0.5,1.5,1.4,1.5h0.7v0.4h-1.9
			c-0.6,0-1.2,0.1-1.8,0.2h-0.2v-2.9c-0.4,0.8-1.3,2.9-3.6,2.9s-4.6-2.5-4.6-5.3s2.1-5.2,4.6-5.2c1.5,0,2.6,0.8,3.5,2.6v-6.5
			c0.1-0.7-0.5-1.4-1.2-1.4c-0.1,0-0.1,0-0.2,0h-1.1V31.4z"/>
		<path d="M70.2,41.6c0.5,0,0.7-0.2,0.7-0.8c0-2-1-3.3-2.6-3.3c-0.9,0-1.7,0.7-2,1.6c-0.3,0.8-0.5,1.6-0.4,2.5H70.2z M73,43.6
			c-0.1,0.7-0.3,1.3-0.6,1.9c-0.8,1.4-2.2,2.2-3.8,2.3c-2.7,0-4.8-2.4-4.8-5.4c0-2.9,2-5.2,4.5-5.2s4.4,2,4.6,4.9h-7.1
			c0,1.6,0,5.2,3,5.2c1.9,0,3.4-1.4,3.9-3.6L73,43.6z"/>
		<path d="M85.5,39.2v7.1c0,0.6,0.2,0.8,0.7,0.8h2.1c2.1,0.1,3.9-1.4,4-3.5c0-0.1,0-0.3,0-0.4c0-2.3-1.9-4-4.6-4L85.5,39.2z
			 M85.5,38.8h2.1c2.4,0,3.9-1.3,3.9-3.5c0.2-1.8-1.1-3.3-2.9-3.5c-0.1,0-0.3,0-0.4,0H86c-0.4,0-0.6,0.3-0.6,0.8L85.5,38.8
			L85.5,38.8z M79.7,31.4h8.1c3.5,0,6.3,1.6,6.3,3.7c0,1.9-1.5,3.1-5,4c1.3,0.1,2.5,0.5,3.6,1.2c1.2,0.5,2.1,1.7,2.2,3
			c0,2.3-3.2,4.3-6.9,4.3h-8.3v-0.4h2.2c0.7,0,1.2-0.5,1.2-1.4V33.2c0-0.9-0.4-1.4-1.2-1.4h-2.2C79.7,31.8,79.7,31.4,79.7,31.4z"/>
		<path d="M98.6,33.3c0-0.9-0.3-1.3-1-1.3h-0.9v-0.4c0.8,0,1.7-0.1,2-0.1l1.2-0.1h0.6c0,4.2,0,7,0,9c0,6.5,0,6.3,0.3,6.6
			c0.2,0.2,0.5,0.2,0.7,0.2h0.8v0.3h-5.4v-0.4h0.8c0.7,0,1-0.3,1-1.2L98.6,33.3z"/>
		<path d="M110.3,41.8c-0.5,0.2-0.9,0.4-1.4,0.5c-1.1,0.3-2.9,0.8-2.9,2.8c0,1.2,0.7,2,1.6,2c1.4,0,2.7-1.6,2.7-3.4L110.3,41.8z
			 M114.6,43.2c0,3-0.8,4.5-2.3,4.5c-1,0-1.6-0.8-1.9-2.5c-0.8,1.8-1.8,2.5-3.4,2.5c-1.5,0.1-2.9-1.1-3-2.6c0-0.6,0.3-1.2,0.7-1.7
			c0.9-0.8,2-1.2,3.2-1.3c0.8-0.2,1.6-0.4,2.3-0.7v-1.7c0-1.3-0.8-2-2.3-2c-1,0-2.1,0.5-2.1,1c0,0.2,0.1,0.3,0.4,0.4
			c0.6,0.3,0.7,0.6,0.7,1c0,0.6-0.4,1-0.9,1c0,0,0,0-0.1,0c-0.7-0.1-1.2-0.7-1.2-1.4c0-1.5,1.6-2.7,3.7-2.7c2.4,0,3.6,1.1,3.6,3.2
			V45c0,1.2,0.3,1.9,0.9,1.9c0.8,0,1.2-0.9,1.3-3.2v-0.5H114.6z"/>
		<path d="M119.4,40.3c0.5-1.7,1.9-2.9,3.6-3c0.8,0,1.6,0.3,2.2,0.8c0.8,0.9,1.1,2.1,1.1,3.2V46c0,0.8,0.3,1.2,0.9,1.2h0.8v0.3h-5.3
			v-0.4h0.8c0.7,0,1-0.3,1-1.2v-5.3c0-2-0.6-2.9-1.8-2.9c-1.9,0-3.3,2.1-3.3,5.1V46c0,0.8,0.2,1.2,1,1.2h0.8v0.4h-5.3v-0.4h0.8
			c0.7,0,0.9-0.3,0.9-1.2v-7c0-0.7-0.4-1-1.2-1h-0.6v-0.4h0.8c0.2,0,1.4-0.1,1.7-0.1l0.7-0.1h0.5L119.4,40.3z"/>
		<path d="M138.2,43.6c0,0.6-0.1,1.1-0.3,1.7c-0.6,1.4-2,2.4-3.5,2.4c-2.5,0-4.7-2.4-4.7-5.1s2.2-5.3,4.7-5.3c1.8,0,3.6,1.5,3.6,3
			c0.1,0.7-0.4,1.3-1.1,1.4h-0.1c-0.6-0.1-1.1-0.6-1.1-1.2c0-0.5,0.3-0.9,0.7-1c0.3-0.1,0.4-0.3,0.4-0.5c0-0.6-1.3-1.3-2.4-1.3
			c-1.9,0-2.8,1.4-2.8,4.7s1,4.9,2.9,4.9s3.2-1.5,3.3-3.6L138.2,43.6z"/>
		<path d="M150.2,46c0,0.8,0.3,1.2,1,1.2h0.8v0.4h-5.3v-0.4h0.8c0.7,0,1-0.3,1-1.2v-5.4c0-1.7-0.7-2.8-1.8-2.8
			c-1.7,0-3.1,2.5-3.1,5.7V46c0,0.8,0.3,1.2,1,1.2h0.8v0.4H140v-0.4h0.8c0.7,0,0.9-0.3,0.9-1.2V33.2c0.1-0.7-0.5-1.3-1.1-1.3h-0.1
			h-0.3v-0.3c0.9,0,1.9-0.1,2.8-0.2h0.6v9.2c0.9-2.2,1.9-3.2,3.4-3.2c0.8,0,1.5,0.3,2.1,0.8c0.8,0.9,1.2,2.2,1.1,3.4V46z"/>
		<path d="M159.7,41.6c0.5,0,0.7-0.2,0.7-0.8c0-2-1-3.3-2.6-3.3c-0.9,0-1.8,0.7-2.1,1.6c-0.3,0.8-0.5,1.6-0.4,2.5H159.7z
			 M162.6,43.6c-0.1,0.6-0.3,1.2-0.7,1.8c-0.8,1.4-2.2,2.2-3.8,2.3c-2.7,0-4.8-2.4-4.8-5.4c0-2.9,2-5.2,4.5-5.2s4.4,2,4.6,4.9h-7.1
			c0,1.6-0.1,5.2,2.9,5.2c1.9,0,3.4-1.4,3.9-3.6H162.6z"/>
		<path d="M182.1,41.6c0,1-0.2,1.9-0.6,2.8c-0.9,2.1-2.9,3.4-5.1,3.6c-3.9,0-7.2-3.8-7.2-8.3c0-5.5,3.9-8.6,6.7-8.6
			c1.8,0,3.5,1.1,4.4,2.7c0.6-0.8,1.1-1.7,1.4-2.7h0.4l0.1,7.3h-0.4c-0.5-2.1-1.4-4-2.8-5.6c-0.7-0.8-1.8-1.3-2.9-1.3
			c-2.9,0-4.4,2.9-4.4,8.7c0,3.2,0.5,5,1.9,6.3c0.7,0.7,1.7,1.1,2.7,1.1c2.2-0.1,4.1-1.4,5-3.4c0.3-0.8,0.5-1.7,0.6-2.6
			C181.9,41.6,182.1,41.6,182.1,41.6z"/>
		<path d="M192.1,42.3c0-3.2-1-4.8-3-4.8s-3.1,1.5-3.1,5c0,3.2,1,4.8,3,4.8C191.2,47.3,192.1,45.9,192.1,42.3 M184,42.5
			c0-2.8,2.2-5.1,4.9-5.4c2.9,0,5.2,2.4,5.2,5.2c0,0,0,0,0,0.1c0,2.8-2.2,5.1-5,5.1C186.3,47.6,184,45.3,184,42.5"/>
		<path d="M195.6,37.5c0.9,0,1.8,0,2.6-0.2c0.2,0,0.4-0.1,0.6-0.1h0.6v7.9c0,1.3,0.6,2,1.5,2c1.7,0,3.2-2.3,3.2-5v-3
			c0-0.8-0.4-1.2-1.3-1.2h-1.2v-0.4h1.4c0.7,0,1.3-0.1,2-0.2c0.1,0,0.2,0,0.2,0h0.7v8.6c0,0.9,0.4,1.3,1.3,1.3h0.5v0.4h-2.4h-0.5
			h-0.6v-2.9c-0.9,2-2.2,3-3.7,3c-1.6,0-2.9-1.3-2.8-2.9v-0.1V39c0-0.5-0.5-1-1-1h-1L195.6,37.5z"/>
		<path d="M211.4,39c0-0.7-0.4-1.1-1.2-1.1h-0.7v-0.4c0.9,0,1.7,0,2.1-0.1l1.3-0.2h0.3V40c0.6-1.4,1.2-2.8,2.8-2.8
			c1-0.1,1.9,0.7,1.9,1.7c0,0.1,0,0.1,0,0.2c0.1,0.6-0.4,1.2-1,1.3c-0.6,0-1-0.4-1-1c0,0,0,0,0-0.1c0-0.4,0.2-0.8,0.6-1
			c0.2-0.2,0.3-0.3,0.3-0.4c0-0.1-0.2-0.4-0.7-0.4s-1,0.2-1.4,0.5c-1.4,1.3-1.4,3.3-1.5,4.9v3c0,0.8,0.2,1.2,1,1.2h0.8v0.4h-5.3
			v-0.4h0.8c0.7,0,1-0.3,1-1.2L211.4,39z"/>
		<path d="M227.1,42.3c0-3.2-1-4.8-3-4.8c-2.2,0-3.1,1.5-3.1,5c0,3.2,1,4.8,3,4.8C226.2,47.3,227.1,45.8,227.1,42.3 M219,42.5
			c0-2.8,2.2-5.1,4.9-5.4c2.9,0,5.2,2.4,5.2,5.2c0,0,0,0,0,0.1c0,2.8-2.2,5.1-5,5.1C221.3,47.6,219,45.3,219,42.5"/>
		<path d="M234.5,40.3c0.5-1.7,1.9-2.9,3.6-3c0.8,0,1.5,0.3,2.1,0.8c0.8,0.9,1.1,2.1,1.1,3.2V46c0,0.8,0.3,1.2,1,1.2h0.8v0.3h-5.3
			v-0.4h0.8c0.7,0,0.9-0.3,0.9-1.2v-5.3c0-2-0.5-2.9-1.8-2.9c-1.9,0-3.3,2.1-3.3,5.1V46c0,0.8,0.2,1.2,0.9,1.2h0.8v0.4H231v-0.4h0.8
			c0.7,0,0.9-0.3,0.9-1.2v-7c0-0.7-0.4-1-1.2-1h-0.6v-0.4h0.8c0.2,0,1.4-0.1,1.7-0.1l0.7-0.1h0.5L234.5,40.3z"/>
		<path d="M247.9,40.3c0.5-1.7,1.9-2.9,3.6-3c0.8,0,1.5,0.3,2.1,0.8c0.8,0.9,1.1,2.1,1.1,3.2V46c0,0.8,0.3,1.2,1,1.2h0.8v0.3h-5.3
			v-0.4h0.8c0.7,0,0.9-0.3,0.9-1.2v-5.3c0-2-0.5-2.9-1.8-2.9c-1.9,0-3.3,2.1-3.3,5.1V46c0,0.8,0.2,1.2,1,1.2h0.8v0.4h-5.3v-0.4h0.8
			c0.7,0,1-0.3,1-1.2v-7c0-0.7-0.4-1-1.2-1h-0.6v-0.4h0.8c0.2,0,1.4-0.1,1.7-0.1l0.7-0.1h0.5L247.9,40.3z"/>
		<path d="M264.2,41.6c0.5,0,0.7-0.2,0.7-0.8c0-2-1-3.3-2.5-3.3c-0.9,0-1.8,0.7-2,1.6c-0.3,0.8-0.5,1.6-0.4,2.5H264.2z M267,43.6
			c-0.1,0.6-0.3,1.2-0.7,1.8c-0.8,1.4-2.2,2.2-3.8,2.3c-2.7,0-4.8-2.4-4.8-5.4c0-2.9,2-5.2,4.5-5.2s4.4,2,4.6,4.9h-7.1
			c0,1.6,0,5.2,3,5.2c1.9,0,3.4-1.4,3.9-3.6H267z"/>
		<rect x="16.4" y="9.3" width="6.3" height="6.3"/>
		<rect x="16.4" y="40.5" width="6.3" height="6.3"/>
		<rect x="0.8" y="24.9" width="6.3" height="6.3"/>
		<rect x="32" y="24.9" width="6.3" height="6.3"/>
		<rect x="26.6" y="27.6" transform="matrix(0.7071 -0.7071 0.7071 0.7071 -18.2306 32.0478)" width="6" height="20.9"/>
		<rect x="19.1" y="15" transform="matrix(0.7074 -0.7069 0.7069 0.7074 -4.0697 26.1156)" width="20.9" height="5.9"/>
		<rect x="-1" y="35.1" transform="matrix(0.7072 -0.707 0.707 0.7072 -24.1771 17.8703)" width="20.9" height="6"/>
		<rect x="6.5" y="7.6" transform="matrix(0.7072 -0.707 0.707 0.7072 -9.9721 11.934)" width="5.9" height="20.9"/>
	</g>
</g>
<rect x="-0.1" class="st0" width="267.1" height="56.7"/>
</svg>
