<?xml version="1.0" encoding="utf-8"?>
<!-- Generator: Adobe Illustrator 27.5.0, SVG Export Plug-In . SVG Version: 6.00 Build 0)  -->
<svg version="1.1" id="Calque_1" xmlns="http://www.w3.org/2000/svg" xmlns:xlink="http://www.w3.org/1999/xlink" x="0px" y="0px"
	 viewBox="0 0 253.8 56.7" style="enable-background:new 0 0 253.8 56.7;" xml:space="preserve">
<style type="text/css">
	.st0{fill:none;}
	.st1{fill:#1D1D1B;}
</style>
<rect y="0" class="st0" width="253.9" height="56.7"/>
<g>
	<g>
		<path class="st1" d="M56.1,32.2c2.3,0,3.7-0.2,3.7-0.2c0.2,0,0.2,0,0.3,0h0.3v14.3c0,1,0.5,1.5,1.4,1.5h0.7v0.4h-1.9
			c-0.6,0-1.4,0.1-1.8,0.2h-0.2v-2.9c-0.4,0.8-1.3,2.9-3.6,2.9c-2.4,0-4.6-2.5-4.6-5.3c0-2.9,2.1-5.2,4.6-5.2c1.5,0,2.6,0.8,3.5,2.6
			V34c0-0.9-0.5-1.4-1.4-1.4h-1.1V32.2z M58.6,42.8c0-2.5-1.4-4.5-3.3-4.5c-0.6,0-1.2,0.2-1.7,0.7c-0.8,0.8-1,1.9-1,4.2
			c0,2.4,0.4,3.6,1.4,4.3c0.4,0.3,0.8,0.4,1.3,0.4C57.2,47.9,58.6,45.9,58.6,42.8z"/>
		<path class="st1" d="M72.8,44.4c-0.2,0.9-0.3,1.2-0.7,1.8c-0.9,1.4-2.3,2.3-3.8,2.3c-2.7,0-4.8-2.4-4.8-5.4c0-2.8,2-5.2,4.5-5.2
			c2.4,0,4.4,2,4.6,4.9h-7.1c0,1.6,0,5.2,2.9,5.2c1.9,0,3.3-1.4,3.8-3.6H72.8z M70,42.3c0.5,0,0.7-0.2,0.7-0.8c0-2-1-3.3-2.5-3.3
			c-0.9,0-1.6,0.6-2,1.6c-0.3,0.8-0.4,1.2-0.4,2.5H70z"/>
		<path class="st1" d="M79.5,47.8h2c0.8,0,1.1-0.4,1.2-1.4V33.9c0-0.9-0.4-1.4-1.2-1.4h-2v-0.4h8.4v0.4h-1.6c-0.8,0-1.2,0.5-1.2,1.4
			v12.7c0,0.8,0.3,1.2,1,1.2h1.7c2.7,0,5.1-2.4,5.8-5.9h0.3l-0.2,6.3H79.5V47.8z"/>
		<path class="st1" d="M95.6,43.2c0-2.8,2.4-5.3,4.9-5.3c2.9,0,5.2,2.4,5.2,5.3c0,3.2-2.9,5.4-5.2,5.3
			C97.9,48.3,95.6,45.9,95.6,43.2z M103.8,43c0-3.2-1-4.8-3-4.8c-2.2,0-3.1,1.5-3.1,5c0,3.2,1,4.8,3,4.8
			C102.8,48,103.8,46.6,103.8,43z"/>
		<path class="st1" d="M110.8,38c0,1.6,0,3.3,0,4.9c0,4,0,4.2,0.1,4.5c0.1,0.2,0.2,0.5,0.9,0.5h0.8v0.4h-5.2v-0.4h0.8
			c0.7,0,0.9-0.3,0.9-1.2v-7c0-0.7-0.4-1.1-1.2-1.1h-0.7v-0.4c0.9,0,1.7,0,2.1-0.1l1.3-0.2H110.8z M108.8,33.5
			c0-0.6,0.5-1.2,1.2-1.2c0.6,0,1.2,0.5,1.2,1.2c0,0.6-0.5,1.2-1.2,1.2C109.3,34.7,108.8,34.2,108.8,33.5z"/>
		<path class="st1" d="M116.3,39.7c0-0.7-0.4-1.1-1.2-1.1h-0.7v-0.4c0.9,0,1.7,0,2.1-0.1l1.3-0.2h0.3v2.7c0.6-1.4,1.2-2.8,2.8-2.8
			c1.1,0,1.9,0.8,1.9,1.9c0,0.7-0.5,1.3-1,1.3c-0.6,0-1-0.5-1-1.1c0-0.4,0.2-0.7,0.5-1c0.2-0.2,0.3-0.3,0.3-0.4
			c0-0.2-0.2-0.4-0.7-0.4c-0.5,0-1,0.2-1.4,0.5c-1.4,1.3-1.4,3.3-1.4,4.8v3c0,0.9,0.2,1.2,0.9,1.2h0.8v0.4h-5.3v-0.4h0.8
			c0.7,0,0.9-0.3,0.9-1.2V39.7z"/>
		<path class="st1" d="M132.9,44.4c-0.2,0.9-0.3,1.2-0.7,1.8c-0.9,1.4-2.3,2.3-3.8,2.3c-2.7,0-4.8-2.4-4.8-5.4c0-2.8,2-5.2,4.5-5.2
			c2.4,0,4.4,2,4.6,4.9h-7.1c0,1.6,0,5.2,2.9,5.2c1.9,0,3.3-1.4,3.8-3.6H132.9z M130.1,42.3c0.5,0,0.7-0.2,0.7-0.8
			c0-2-1-3.3-2.5-3.3c-0.9,0-1.6,0.6-2,1.6c-0.3,0.8-0.4,1.2-0.4,2.5H130.1z"/>
		<path class="st1" d="M134.9,42.5h5.1v1h-5.1V42.5z"/>
		<path class="st1" d="M141.9,47.8c2.3,0,2.9-1.7,3.5-3.4l4.7-12.5h0.9l4.7,13.8c0.7,1.9,0.9,2.1,2.1,2.1h0.4v0.4h-7.4v-0.4h2
			c0.5,0,0.9-0.2,0.9-0.7c0-0.2,0-0.5-0.1-0.7l-1.2-3.6h-6l-0.2,0.4c-0.5,1.4-0.7,2.2-0.7,2.7c0,1.1,1,1.9,2.6,1.9h0.6v0.4h-6.8
			V47.8z M149.5,34.5l-2.9,7.8h5.5L149.5,34.5z"/>
		<path class="st1" d="M159.2,38.5c2.4-0.8,3.1-2.7,3.4-4.9h0.5v4.7h3.3v0.7H163V46c0,1,0.6,1.7,1.4,1.7c1.6,0,2.4-1.6,2.4-4.9h0.3
			c0,2.6-0.3,3.8-1.2,4.7c-0.5,0.5-1.3,0.8-2.1,0.8c-1.7,0-2.7-1-2.7-2.8v-6.6h-2.1V38.5z"/>
		<path class="st1" d="M170.5,34c0-0.9-0.3-1.3-1-1.3h-0.9v-0.4c0.8,0,1.7-0.1,2-0.1l1.2-0.1h0.5c0,4.2,0,7,0,8.9
			c0,6.5,0,6.3,0.3,6.6c0.2,0.1,0.4,0.2,0.7,0.2h0.8v0.4h-5.3v-0.4h0.8c0.7,0,0.9-0.3,0.9-1.2V34z"/>
		<path class="st1" d="M186.5,43.9c0,3-0.8,4.5-2.3,4.5c-1,0-1.6-0.8-1.9-2.5c-0.8,1.8-1.8,2.5-3.3,2.5c-1.6,0-3-1.2-3-2.6
			c0-0.6,0.3-1.2,0.7-1.7c0.6-0.6,1.4-0.9,3.1-1.3c1.3-0.3,1.5-0.4,2.3-0.7v-1.7c0-1.3-0.8-2-2.3-2c-1,0-2.1,0.5-2.1,1
			c0,0.2,0.1,0.3,0.4,0.4c0.5,0.3,0.7,0.6,0.7,1c0,0.6-0.5,1-1,1c-0.6,0-1.2-0.6-1.2-1.4c0-1.5,1.6-2.7,3.7-2.7
			c2.4,0,3.6,1.1,3.6,3.2v4.5c0,1.2,0.3,1.9,0.9,1.9c0.8,0,1.2-0.9,1.3-3.2l0-0.5L186.5,43.9z M182.2,42.6c-0.5,0.2-0.7,0.3-1.4,0.5
			c-1.1,0.3-2.9,0.8-2.9,2.8c0,1.2,0.7,2,1.6,2c1.4,0,2.7-1.6,2.7-3.4V42.6z"/>
		<path class="st1" d="M191.3,41c0.9-2.6,2.9-3,3.6-3c0.8,0,1.7,0.3,2.1,0.8c1,1,1,2.3,1.1,3.2v4.7c0,0.9,0.3,1.2,0.9,1.2h0.8v0.4
			h-5.3v-0.4h0.8c0.7,0,0.9-0.3,0.9-1.2v-5.3c0-2-0.5-2.8-1.8-2.8c-1.9,0-3.3,2.1-3.3,5.1v3.1c0,0.9,0.2,1.2,0.9,1.2h0.8v0.4h-5.3
			v-0.4h0.8c0.7,0,0.9-0.3,0.9-1.2v-7c0-0.7-0.4-1-1.2-1h-0.6v-0.4h0.8c0.2,0,1.4-0.1,1.7-0.1c0.5-0.1,0.7-0.1,0.7-0.1h0.5V41z"/>
		<path class="st1" d="M200.7,38.5c2.4-0.8,3.1-2.7,3.4-4.9h0.5v4.7h3.3v0.7h-3.3V46c0,1,0.6,1.7,1.4,1.7c1.6,0,2.4-1.6,2.4-4.9h0.3
			c0,2.6-0.3,3.8-1.2,4.7c-0.5,0.5-1.3,0.8-2.1,0.8c-1.7,0-2.7-1-2.7-2.8v-6.6h-2.1V38.5z"/>
		<path class="st1" d="M213.7,38c0,1.6,0,3.3,0,4.9c0,4,0,4.2,0.1,4.5c0.1,0.2,0.2,0.5,0.9,0.5h0.8v0.4h-5.2v-0.4h0.8
			c0.7,0,0.9-0.3,0.9-1.2v-7c0-0.7-0.4-1.1-1.2-1.1h-0.7v-0.4c0.9,0,1.7,0,2.1-0.1l1.3-0.2H213.7z M211.6,33.5
			c0-0.6,0.5-1.2,1.2-1.2c0.6,0,1.2,0.5,1.2,1.2c0,0.6-0.5,1.2-1.2,1.2C212.1,34.7,211.6,34.2,211.6,33.5z"/>
		<path class="st1" d="M227.7,37.8c0,4.2,0,6.9,0,8.8c0,6.4,0,6.2,0.3,6.5c0.2,0.1,0.4,0.2,0.7,0.2h0.8v0.4h-5.3v-0.4h0.8
			c0.7,0,0.9-0.3,0.9-1.2v-6.5c-0.8,1.8-2,2.7-3.5,2.7c-2.3,0-4.5-2.6-4.5-5.4c0-2.8,2.2-5.3,4.8-5.3c1.6,0,2.9,1,3.7,2.8
			c0.5-0.6,0.8-1.5,0.9-2.7H227.7z M226,42.8c0-2.9-1.2-4.7-3.3-4.7c-0.7,0-1.3,0.3-1.8,0.7c-0.8,0.8-1.1,2-1.1,4.4
			c0,2.6,0.8,4.7,2.7,4.7C224.7,47.9,226,45.9,226,42.8z"/>
		<path class="st1" d="M230.1,38.3c0.7,0,1.8,0,2.6-0.2c0.4-0.1,0.6-0.1,0.6-0.1h0.5v7.8c0,1.3,0.5,2,1.5,2c1.7,0,3.2-2.3,3.2-5v-3
			c0-0.8-0.4-1.1-1.3-1.1h-1.2v-0.4h1.4c0.5,0,1.3-0.1,2-0.2c0.1,0,0.2,0,0.2,0h0.6v8.6c0,0.9,0.4,1.3,1.3,1.3h0.5v0.4h-2.4
			c0,0-0.3,0-0.5,0c-0.3,0-0.5,0-0.6,0v-2.9c-0.9,2-2.2,3-3.7,3c-1.6,0-2.8-1.3-2.8-3.1v-5.8c0-0.5-0.5-0.9-1-0.9h-1V38.3z"/>
		<path class="st1" d="M253.1,44.4c-0.2,0.9-0.3,1.2-0.7,1.8c-0.9,1.4-2.3,2.3-3.8,2.3c-2.7,0-4.8-2.4-4.8-5.4c0-2.8,2-5.2,4.5-5.2
			c2.4,0,4.4,2,4.6,4.9H246c0,1.6,0,5.2,2.9,5.2c1.9,0,3.3-1.4,3.8-3.6H253.1z M250.3,42.3c0.5,0,0.7-0.2,0.7-0.8c0-2-1-3.3-2.5-3.3
			c-0.9,0-1.6,0.6-2,1.6c-0.3,0.8-0.4,1.2-0.4,2.5H250.3z"/>
	</g>
	<g>
		<rect x="16.7" y="31.6" class="st1" width="5.6" height="5.6"/>
		<rect y="42.8" class="st1" width="5.6" height="5.6"/>
		<rect x="11.1" y="42.8" class="st1" width="5.6" height="5.6"/>
		<rect x="22.3" y="42.8" class="st1" width="5.6" height="5.6"/>
		<rect x="33.4" y="42.8" class="st1" width="5.6" height="5.6"/>
		<rect x="0" y="9.4" class="st1" width="39" height="5.6"/>
		<rect y="20.5" class="st1" width="16.7" height="5.6"/>
		<rect x="22.3" y="20.5" class="st1" width="16.7" height="5.6"/>
		<rect y="31.6" class="st1" width="11.1" height="5.6"/>
		<rect x="27.8" y="31.6" class="st1" width="11.1" height="5.6"/>
	</g>
	<g>
		<path class="st1" d="M50.7,20.1h3.6c0.2,1.7,1.3,2.4,3.3,2.4c1.4,0,2.6-0.5,2.6-1.8c0-1.3-1.3-1.6-3.5-2.2c-3-0.7-5.4-1.4-5.4-4.6
			c0-3.2,2.6-4.6,6-4.6c3.4,0,5.8,1.6,6,4.6h-3.5c-0.2-1.2-1.1-1.9-2.7-1.9c-1.4,0-2.4,0.6-2.4,1.6c0,1.2,1.3,1.5,3.7,2
			c2.8,0.6,5.3,1.5,5.3,4.8c0,3.2-2.7,5-6.2,5C53.4,25.3,50.8,23.4,50.7,20.1z"/>
		<path class="st1" d="M65.1,19.5c0-3.3,2.3-5.8,5.6-5.8c1.6,0,2.8,0.5,3.8,1.4c1.2,1.2,1.8,3.1,1.8,5.2h-8c0.2,1.7,1.1,2.6,2.7,2.6
			c1,0,1.7-0.4,2-1.1h3.1c-0.6,1.9-2.4,3.4-5.2,3.4C67.4,25.3,65.1,22.8,65.1,19.5z M68.3,18.4H73c-0.1-1.5-1-2.5-2.3-2.5
			C69.3,15.9,68.6,16.9,68.3,18.4z"/>
		<path class="st1" d="M81.1,15.9L81.1,15.9c0.8-1.5,1.8-2.2,3.1-2.2c0.3,0,0.5,0,0.7,0.1v2.8h-0.1c-0.2,0-0.5-0.1-0.7-0.1
			c-1.8,0-2.9,1.1-2.9,3.2V25H78V14h3.1V15.9z"/>
		<path class="st1" d="M85.9,14h3.3l1.3,4.4c0.5,1.5,0.9,3.8,0.9,3.8h0.1c0,0,0.4-2.4,0.9-3.8l1.4-4.4H97l-3.8,11h-3.5L85.9,14z"/>
		<path class="st1" d="M98.2,9.6h3.3v2.8h-3.3V9.6z M98.3,14h3.2v11h-3.2V14z"/>
		<path class="st1" d="M103.2,19.5c0-3.3,2.3-5.8,5.7-5.8c2.9,0,4.8,1.7,5.1,4.1h-3.1c-0.2-1-0.9-1.7-2-1.7c-1.6,0-2.5,1.3-2.5,3.4
			c0,2,0.8,3.4,2.5,3.4c1.2,0,1.9-0.7,2.1-2h3.1c-0.1,2.5-2.1,4.4-5.1,4.4C105.4,25.3,103.2,22.8,103.2,19.5z"/>
		<path class="st1" d="M115.1,19.5c0-3.3,2.3-5.8,5.6-5.8c1.6,0,2.8,0.5,3.8,1.4c1.2,1.2,1.8,3.1,1.8,5.2h-8
			c0.2,1.7,1.1,2.6,2.7,2.6c1,0,1.7-0.4,2-1.1h3.1c-0.6,1.9-2.4,3.4-5.2,3.4C117.4,25.3,115.1,22.8,115.1,19.5z M118.4,18.4h4.7
			c-0.1-1.5-1-2.5-2.3-2.5C119.3,15.9,118.6,16.9,118.4,18.4z"/>
		<path class="st1" d="M137.7,9.6h3.7L147,25h-3.7l-1-2.9h-5.6l-1,2.9h-3.5L137.7,9.6z M137.5,19.5h3.9l-0.9-2.9
			c-0.7-2.1-1-4.1-1-4.1h0c0,0-0.5,2.6-1,4.1L137.5,19.5z"/>
		<path class="st1" d="M151.4,15.9L151.4,15.9c0.8-1.5,1.8-2.2,3.1-2.2c0.3,0,0.5,0,0.7,0.1v2.8h-0.1c-0.2,0-0.5-0.1-0.7-0.1
			c-1.8,0-2.9,1.1-2.9,3.2V25h-3.2V14h3.1V15.9z"/>
		<path class="st1" d="M156.1,19.5c0-3.3,2.3-5.8,5.7-5.8c2.9,0,4.8,1.7,5.1,4.1h-3.1c-0.2-1-0.9-1.7-2-1.7c-1.6,0-2.5,1.3-2.5,3.4
			c0,2,0.8,3.4,2.5,3.4c1.2,0,1.9-0.7,2.1-2h3.1c-0.1,2.5-2.1,4.4-5.1,4.4C158.4,25.3,156.1,22.8,156.1,19.5z"/>
		<path class="st1" d="M171.8,15.5L171.8,15.5c0.7-1.2,1.8-1.9,3.4-1.9c2.4,0,3.8,1.6,3.8,4.1V25h-3.2v-6.6c0-1.2-0.6-2-1.8-2
			c-1.3,0-2.1,1-2.1,2.4V25h-3.2V9.6h3.2v4.2C171.9,13.9,171.9,14.8,171.8,15.5z"/>
		<path class="st1" d="M180.6,19.5c0-3.3,2.3-5.8,5.6-5.8c1.6,0,2.8,0.5,3.8,1.4c1.2,1.2,1.8,3.1,1.8,5.2h-8
			c0.2,1.7,1.1,2.6,2.7,2.6c1,0,1.7-0.4,2-1.1h3.1c-0.6,1.9-2.4,3.4-5.2,3.4C182.8,25.3,180.6,22.8,180.6,19.5z M183.8,18.4h4.7
			c-0.1-1.5-1-2.5-2.3-2.5C184.8,15.9,184,16.9,183.8,18.4z M186.1,9h3.8l-2.5,3.3H185L186.1,9z"/>
		<path class="st1" d="M193,19.5c0-3.3,2.3-5.8,5.8-5.8c3.5,0,5.8,2.5,5.8,5.8c0,3.3-2.3,5.8-5.8,5.8C195.3,25.3,193,22.8,193,19.5z
			 M201.3,19.5c0-2.1-0.9-3.5-2.5-3.5c-1.7,0-2.5,1.4-2.5,3.5c0,2.1,0.9,3.5,2.5,3.5C200.4,22.9,201.3,21.5,201.3,19.5z"/>
		<path class="st1" d="M206.3,9.6h3.3V25h-3.3V9.6z"/>
		<path class="st1" d="M211.3,19.5c0-3.3,2.3-5.8,5.8-5.8c3.5,0,5.8,2.5,5.8,5.8c0,3.3-2.3,5.8-5.8,5.8
			C213.6,25.3,211.3,22.8,211.3,19.5z M219.6,19.5c0-2.1-0.9-3.5-2.5-3.5c-1.7,0-2.5,1.4-2.5,3.5c0,2.1,0.9,3.5,2.5,3.5
			C218.7,22.9,219.6,21.5,219.6,19.5z"/>
		<path class="st1" d="M224.4,25.3h3.2c0.2,0.7,0.8,1.1,2.1,1.1c1.5,0,2.3-0.8,2.3-2.1v-0.2c0-0.6,0-1.1,0.1-1.4h-0.1
			c-0.6,1.1-1.6,1.6-3,1.6c-2.5,0-4.8-1.9-4.8-5.2c0-3.2,1.9-5.4,4.6-5.4c1.5,0,2.5,0.5,3.2,1.7h0V14h3.1v10c0,1.6-0.5,2.8-1.4,3.6
			c-1,0.8-2.4,1.2-4,1.2C226.7,28.8,224.7,27.5,224.4,25.3z M232.1,19c0-1.6-0.8-2.9-2.4-2.9c-1.4,0-2.3,1.1-2.3,2.9
			c0,1.7,0.9,2.9,2.3,2.9C231.3,21.8,232.1,20.6,232.1,19z"/>
		<path class="st1" d="M237.3,9.6h3.3v2.8h-3.3V9.6z M237.3,14h3.2v11h-3.2V14z"/>
		<path class="st1" d="M242.2,19.5c0-3.3,2.3-5.8,5.6-5.8c1.6,0,2.8,0.5,3.8,1.4c1.2,1.2,1.8,3.1,1.8,5.2h-8
			c0.2,1.7,1.1,2.6,2.7,2.6c1,0,1.7-0.4,2-1.1h3.1c-0.6,1.9-2.4,3.4-5.2,3.4C244.4,25.3,242.2,22.8,242.2,19.5z M245.4,18.4h4.7
			c-0.1-1.5-1-2.5-2.3-2.5C246.4,15.9,245.6,16.9,245.4,18.4z"/>
	</g>
</g>
</svg>
