<?xml version="1.0" encoding="UTF-8" standalone="no"?>
<svg
   version="1.1"
   viewBox="0 0 400.22514 70.229921"
   id="svg89"
   sodipodi:docname="logo-mda.svg"
   width="400.22513"
   height="70.229919"
   inkscape:version="1.2.2 (732a01da63, 2022-12-09)"
   xmlns:inkscape="http://www.inkscape.org/namespaces/inkscape"
   xmlns:sodipodi="http://sodipodi.sourceforge.net/DTD/sodipodi-0.dtd"
   xmlns="http://www.w3.org/2000/svg"
   xmlns:svg="http://www.w3.org/2000/svg">
  <sodipodi:namedview
     id="namedview91"
     pagecolor="#ffffff"
     bordercolor="#000000"
     borderopacity="0.25"
     inkscape:showpageshadow="2"
     inkscape:pageopacity="0.0"
     inkscape:pagecheckerboard="0"
     inkscape:deskcolor="#d1d1d1"
     showgrid="false"
     showguides="true"
     inkscape:zoom="3.99775"
     inkscape:cx="198.11144"
     inkscape:cy="27.015196"
     inkscape:window-width="1680"
     inkscape:window-height="997"
     inkscape:window-x="-8"
     inkscape:window-y="-8"
     inkscape:window-maximized="1"
     inkscape:current-layer="g87">
    <sodipodi:guide
       position="138.32781,5.1933357"
       orientation="0,-1"
       id="guide291"
       inkscape:locked="false" />
  </sodipodi:namedview>
  <defs
     id="defs4">
    <style
       id="style2">
      .cls-1 {
        fill: #bcd332;
      }

      .cls-2 {
        fill: #8b99ab;
      }

      .cls-3 {
        fill: #c1007d;
      }
    </style>
  </defs>
  <!-- Generator: Adobe Illustrator 28.7.1, SVG Export Plug-In . SVG Version: 1.2.0 Build 142)  -->
  <g
     id="g87"
     transform="translate(-37.58,-84.04)">
    <g
       id="g18">
      <polygon
         class="cls-1"
         points="106.76,116.53 43.91,116.53 37.58,149.35 113.09,149.35 "
         id="polygon6" />
      <polygon
         points="50.1,84.4 43.91,116.53 106.76,116.53 100.56,84.4 75.33,104.17 "
         id="polygon8" />
      <path
         class="cls-2"
         d="m 123.76,149.35 h 14.23 c 5.9,0 33.37,0 33.37,-31.49 0,-0.46 -0.03,-0.89 -0.04,-1.33 h -47.56 z"
         id="path10" />
      <path
         d="m 134.32,86.72 h -10.56 v 29.81 h 47.56 c -0.85,-29.78 -29.68,-29.81 -37,-29.81 z"
         id="path12" />
      <polygon
         class="cls-3"
         points="185.62,116.53 168.94,149.35 235.32,149.35 218.64,116.53 "
         id="polygon14" />
      <polygon
         points="202.13,84.04 185.62,116.53 218.64,116.53 "
         id="polygon16" />
    </g>
    <g
       id="g46"
       transform="translate(203.38513,-41.990082)">
      <path
         d="m 50.07,157.51 c 0.3,-0.02 1.1,-0.06 1.98,-0.06 0.88,0 2.06,0.04 2.36,0.08 0.4,0.04 0.59,0.21 0.61,0.69 0.06,1.54 0.06,3.67 0.06,5.9 0,2.23 0,4.36 -0.06,5.9 -0.02,0.48 -0.17,0.65 -0.51,0.68 -0.32,0.04 -1.45,0.08 -2.26,0.08 -0.81,0 -1.94,-0.04 -2.28,-0.08 -0.36,-0.04 -0.5,-0.21 -0.5,-0.68 v -5.44 l -1.48,2.78 c -0.23,0.44 -0.29,0.48 -0.65,0.48 h -1.1 c -0.36,0 -0.42,-0.04 -0.65,-0.48 l -1.48,-2.78 v 5.44 c 0,0.48 -0.13,0.65 -0.49,0.68 -0.34,0.04 -1.47,0.08 -2.28,0.08 -0.81,0 -1.94,-0.04 -2.26,-0.08 -0.34,-0.04 -0.49,-0.21 -0.51,-0.68 -0.06,-1.54 -0.06,-3.63 -0.06,-5.9 0,-2.27 0,-4.36 0.06,-5.9 0.02,-0.48 0.21,-0.65 0.61,-0.69 0.3,-0.04 1.5,-0.08 2.36,-0.08 0.86,0 1.67,0.04 1.98,0.06 1.1,0.08 1.31,0.29 1.67,0.93 l 1.62,2.87 1.62,-2.87 c 0.36,-0.65 0.57,-0.86 1.67,-0.93 z"
         id="path20" />
      <path
         d="m 70.22,170.14 c 0,0.34 -0.17,0.53 -0.55,0.57 -0.38,0.04 -1.45,0.08 -2.32,0.08 -0.87,0 -1.73,-0.02 -2.11,-0.06 -0.63,-0.06 -0.72,-0.15 -0.84,-0.89 l -0.17,-1.1 h -2.02 l -0.17,1.1 c -0.11,0.74 -0.21,0.84 -0.84,0.89 -0.38,0.04 -1.24,0.06 -2.11,0.06 -0.87,0 -1.94,-0.04 -2.32,-0.08 -0.38,-0.04 -0.55,-0.23 -0.55,-0.57 0,-0.3 0.1,-0.78 0.21,-1.26 l 2.51,-10.79 c 0.1,-0.44 0.34,-0.59 0.8,-0.61 0.46,-0.02 2.34,-0.06 3.48,-0.06 1.14,0 3.03,0.04 3.48,0.06 0.46,0.02 0.7,0.17 0.8,0.61 l 2.51,10.79 c 0.11,0.48 0.21,0.95 0.21,1.26 z m -7.68,-4.55 h 1.37 l -0.65,-4.38 h -0.08 l -0.65,4.38 z"
         id="path22" />
      <path
         d="m 76.76,157.53 c 0.4,0.04 0.59,0.21 0.61,0.69 0.06,1.54 0.06,3.67 0.06,5.9 0,2.23 0,4.36 -0.06,5.9 -0.02,0.48 -0.21,0.65 -0.61,0.68 -0.38,0.04 -1.43,0.08 -2.38,0.08 -0.95,0 -2,-0.04 -2.38,-0.08 -0.4,-0.04 -0.59,-0.21 -0.61,-0.68 -0.06,-1.54 -0.06,-3.63 -0.06,-5.9 0,-2.27 0,-4.36 0.06,-5.9 0.02,-0.48 0.21,-0.65 0.61,-0.69 0.38,-0.04 1.43,-0.08 2.38,-0.08 0.95,0 2,0.04 2.38,0.08 z"
         id="path24" />
      <path
         d="m 85.66,167.65 c 0.65,0 0.7,-0.13 0.72,-0.51 0.02,-0.4 0.02,-1.16 0.02,-1.71 0,-0.27 -0.06,-0.3 -0.23,-0.3 -0.53,0 -6.13,-0.02 -6.43,-0.04 -0.34,-0.02 -0.49,-0.19 -0.51,-0.57 -0.04,-0.7 -0.04,-2.17 -0.04,-3.06 0,-3.16 0.51,-3.77 2.64,-3.98 0.78,-0.08 2.85,-0.15 3.82,-0.15 0.97,0 2.95,0.08 3.73,0.15 2.13,0.21 2.74,0.91 2.74,3.98 0,0.48 -0.08,0.55 -0.48,0.59 -0.4,0.04 -1.67,0.04 -2.32,0.04 -0.65,0 -2.06,0 -2.49,-0.04 -0.36,-0.04 -0.38,-0.06 -0.4,-0.38 l -0.04,-0.59 c -0.02,-0.42 -0.17,-0.49 -0.74,-0.49 -0.67,0 -0.7,0.13 -0.72,0.51 -0.02,0.4 -0.02,1.16 -0.02,1.52 0,0.27 0.06,0.3 0.23,0.3 0.53,0 6.13,0.02 6.43,0.04 0.34,0.02 0.49,0.19 0.51,0.57 0.04,0.7 0.04,2.36 0.04,3.25 0,3.16 -0.48,3.77 -2.61,3.98 -0.78,0.08 -2.89,0.15 -3.86,0.15 -0.97,0 -2.95,-0.08 -3.73,-0.15 -2.13,-0.21 -2.74,-0.82 -2.74,-4.17 0,-0.48 0.08,-0.55 0.48,-0.59 0.4,-0.04 1.67,-0.04 2.32,-0.04 0.65,0 2.06,0 2.49,0.04 0.36,0.04 0.38,0.06 0.4,0.38 l 0.04,0.78 c 0.02,0.42 0.17,0.5 0.74,0.5 z"
         id="path26" />
      <path
         d="m 104.58,157.51 c 1.39,0.15 1.85,0.36 2.13,1.66 0.21,0.91 0.4,2.72 0.4,4.95 0,2.23 -0.19,4.03 -0.4,4.95 -0.29,1.29 -0.74,1.5 -2.13,1.66 -1.01,0.11 -2.99,0.19 -4.15,0.19 -1.16,0 -3.14,-0.08 -4.15,-0.19 -1.39,-0.15 -1.85,-0.36 -2.13,-1.66 -0.21,-0.91 -0.4,-2.72 -0.4,-4.95 0,-2.23 0.19,-4.03 0.4,-4.95 0.29,-1.29 0.74,-1.5 2.13,-1.66 1.01,-0.11 2.99,-0.19 4.15,-0.19 1.16,0 3.14,0.08 4.15,0.19 z m -4.62,3.31 c -0.19,0.04 -0.29,0.09 -0.3,0.3 -0.06,0.76 -0.06,1.92 -0.06,2.99 0,1.07 0,2.23 0.06,2.99 0.02,0.23 0.11,0.27 0.3,0.3 0.11,0.02 0.32,0.04 0.48,0.04 0.16,0 0.36,-0.02 0.48,-0.04 0.19,-0.04 0.29,-0.1 0.3,-0.3 0.06,-0.76 0.06,-1.92 0.06,-2.99 0,-1.07 0,-2.23 -0.06,-2.99 -0.02,-0.23 -0.11,-0.27 -0.3,-0.3 -0.11,-0.02 -0.32,-0.04 -0.48,-0.04 -0.16,0 -0.38,0.02 -0.48,0.04 z"
         id="path28" />
      <path
         d="m 117.56,157.53 c 0.34,-0.04 1.33,-0.08 2,-0.08 0.82,0 1.73,0.04 2.05,0.08 0.34,0.04 0.5,0.21 0.51,0.69 0.06,1.54 0.06,3.65 0.06,5.92 0,2.27 0,4.36 -0.06,5.9 -0.02,0.48 -0.15,0.65 -0.5,0.69 -0.34,0.04 -1.27,0.08 -2.07,0.08 -0.69,0 -1.16,-0.02 -1.48,-0.06 -0.93,-0.09 -1.12,-0.21 -1.56,-0.93 l -2.53,-4.11 v 4.32 c 0,0.48 -0.13,0.65 -0.49,0.68 -0.34,0.04 -1.33,0.08 -2,0.08 -0.82,0 -1.73,-0.04 -2.06,-0.08 -0.34,-0.04 -0.49,-0.21 -0.51,-0.68 -0.06,-1.54 -0.06,-3.63 -0.06,-5.9 0,-2.27 0,-4.36 0.06,-5.9 0.02,-0.48 0.21,-0.65 0.61,-0.69 0.38,-0.04 1.41,-0.08 2.02,-0.08 0.49,0 1.1,0.02 1.33,0.04 0.93,0.1 1.12,0.23 1.56,0.95 l 2.63,4.26 v -4.49 c 0,-0.48 0.13,-0.65 0.49,-0.69 z"
         id="path30" />
      <path
         d="m 139.45,157.62 c 1.5,0.21 2.06,0.61 2.45,1.77 0.27,0.86 0.46,2.76 0.46,4.72 0,1.96 -0.19,3.86 -0.46,4.72 -0.4,1.16 -0.95,1.56 -2.45,1.77 -0.93,0.13 -2.7,0.17 -4.21,0.17 -4.21,0 -5.16,-0.04 -5.54,-0.08 -0.4,-0.04 -0.59,-0.21 -0.61,-0.68 -0.06,-1.54 -0.06,-3.67 -0.06,-5.9 0,-2.23 0,-4.36 0.06,-5.9 0.02,-0.48 0.21,-0.65 0.61,-0.69 0.38,-0.04 1.33,-0.08 5.54,-0.08 1.5,0 3.27,0.04 4.21,0.17 z m -4.59,3.52 v 5.94 c 0,0.29 0.08,0.36 0.57,0.36 0.19,0 0.38,0 0.69,-0.04 0.29,-0.04 0.34,-0.19 0.38,-0.59 0.04,-0.53 0.06,-1.64 0.06,-2.7 0,-1.06 -0.02,-2.17 -0.06,-2.7 -0.04,-0.4 -0.1,-0.55 -0.38,-0.59 -0.3,-0.04 -0.49,-0.04 -0.69,-0.04 -0.49,0 -0.57,0.08 -0.57,0.36 z"
         id="path32" />
      <path
         d="m 156,167.59 c 0.02,0.38 0.02,0.76 0.02,1.18 0,0.42 0,0.86 -0.02,1.24 -0.02,0.48 -0.27,0.65 -0.67,0.68 -0.57,0.06 -4.24,0.08 -5.25,0.08 -1.01,0 -4.41,0 -5.31,-0.08 -0.4,-0.04 -0.59,-0.21 -0.61,-0.68 -0.06,-1.54 -0.06,-3.67 -0.06,-5.9 0,-2.23 0,-4.36 0.06,-5.9 0.02,-0.48 0.21,-0.65 0.61,-0.69 0.89,-0.08 4.26,-0.08 5.31,-0.08 1.05,0 4.68,0.02 5.25,0.08 0.4,0.04 0.65,0.21 0.67,0.69 0.02,0.38 0.02,0.82 0.02,1.24 0,0.42 0,0.8 -0.02,1.18 -0.02,0.4 -0.13,0.53 -0.48,0.53 h -5.54 c -0.17,0 -0.23,0.08 -0.23,0.34 v 0.72 c 0,0.27 0.06,0.3 0.23,0.3 h 5.16 c 0.32,0 0.46,0.06 0.48,0.38 0.02,0.38 0.02,0.82 0.02,1.2 0,0.38 0,0.82 -0.02,1.2 -0.02,0.32 -0.15,0.38 -0.48,0.38 h -5.16 c -0.17,0 -0.23,0.08 -0.23,0.34 v 0.72 c 0,0.27 0.06,0.3 0.23,0.3 h 5.54 c 0.34,0 0.46,0.13 0.48,0.53 z"
         id="path34" />
      <path
         d="m 164.08,167.65 c 0.65,0 0.7,-0.13 0.72,-0.51 0.02,-0.4 0.02,-1.16 0.02,-1.71 0,-0.27 -0.06,-0.3 -0.23,-0.3 -0.53,0 -6.13,-0.02 -6.43,-0.04 -0.34,-0.02 -0.49,-0.19 -0.51,-0.57 -0.04,-0.7 -0.04,-2.17 -0.04,-3.06 0,-3.16 0.51,-3.77 2.64,-3.98 0.78,-0.08 2.85,-0.15 3.83,-0.15 0.98,0 2.95,0.08 3.73,0.15 2.13,0.21 2.74,0.91 2.74,3.98 0,0.48 -0.08,0.55 -0.48,0.59 -0.4,0.04 -1.67,0.04 -2.32,0.04 -0.65,0 -2.06,0 -2.49,-0.04 -0.36,-0.04 -0.38,-0.06 -0.4,-0.38 l -0.04,-0.59 c -0.02,-0.42 -0.17,-0.49 -0.74,-0.49 -0.67,0 -0.7,0.13 -0.72,0.51 -0.02,0.4 -0.02,1.16 -0.02,1.52 0,0.27 0.06,0.3 0.23,0.3 0.53,0 6.13,0.02 6.43,0.04 0.34,0.02 0.5,0.19 0.51,0.57 0.04,0.7 0.04,2.36 0.04,3.25 0,3.16 -0.48,3.77 -2.61,3.98 -0.78,0.08 -2.89,0.15 -3.86,0.15 -0.97,0 -2.95,-0.08 -3.73,-0.15 -2.13,-0.21 -2.74,-0.82 -2.74,-4.17 0,-0.48 0.08,-0.55 0.48,-0.59 0.4,-0.04 1.67,-0.04 2.32,-0.04 0.65,0 2.06,0 2.49,0.04 0.36,0.04 0.38,0.06 0.4,0.38 l 0.04,0.78 c 0.02,0.42 0.17,0.5 0.74,0.5 z"
         id="path36" />
      <path
         d="m 190.47,170.14 c 0,0.34 -0.17,0.53 -0.55,0.57 -0.38,0.04 -1.45,0.08 -2.32,0.08 -0.87,0 -1.73,-0.02 -2.11,-0.06 -0.63,-0.06 -0.72,-0.15 -0.84,-0.89 l -0.17,-1.1 h -2.02 l -0.17,1.1 c -0.11,0.74 -0.21,0.84 -0.84,0.89 -0.38,0.04 -1.24,0.06 -2.11,0.06 -0.87,0 -1.94,-0.04 -2.32,-0.08 -0.38,-0.04 -0.55,-0.23 -0.55,-0.57 0,-0.3 0.09,-0.78 0.21,-1.26 l 2.51,-10.79 c 0.09,-0.44 0.34,-0.59 0.8,-0.61 0.46,-0.02 2.34,-0.06 3.48,-0.06 1.14,0 3.03,0.04 3.48,0.06 0.46,0.02 0.7,0.17 0.8,0.61 l 2.51,10.79 c 0.11,0.48 0.21,0.95 0.21,1.26 z m -7.69,-4.55 h 1.37 l -0.65,-4.38 h -0.08 l -0.65,4.38 z"
         id="path38" />
      <path
         d="m 201.99,157.62 c 1.5,0.21 2.05,0.61 2.45,1.77 0.27,0.86 0.46,2.76 0.46,4.72 0,1.96 -0.19,3.86 -0.46,4.72 -0.4,1.16 -0.95,1.56 -2.45,1.77 -0.93,0.13 -2.7,0.17 -4.21,0.17 -4.21,0 -5.16,-0.04 -5.54,-0.08 -0.4,-0.04 -0.59,-0.21 -0.61,-0.68 -0.06,-1.54 -0.06,-3.67 -0.06,-5.9 0,-2.23 0,-4.36 0.06,-5.9 0.02,-0.48 0.21,-0.65 0.61,-0.69 0.38,-0.04 1.33,-0.08 5.54,-0.08 1.5,0 3.27,0.04 4.21,0.17 z m -4.59,3.52 v 5.94 c 0,0.29 0.08,0.36 0.57,0.36 0.19,0 0.38,0 0.68,-0.04 0.29,-0.04 0.34,-0.19 0.38,-0.59 0.04,-0.53 0.06,-1.64 0.06,-2.7 0,-1.06 -0.02,-2.17 -0.06,-2.7 -0.04,-0.4 -0.1,-0.55 -0.38,-0.59 -0.3,-0.04 -0.49,-0.04 -0.68,-0.04 -0.5,0 -0.57,0.08 -0.57,0.36 z"
         id="path40" />
      <path
         d="m 217.33,157.51 c 1.39,0.15 1.85,0.36 2.13,1.66 0.21,0.91 0.4,2.72 0.4,4.95 0,2.23 -0.19,4.03 -0.4,4.95 -0.29,1.29 -0.74,1.5 -2.13,1.66 -1.01,0.11 -2.99,0.19 -4.15,0.19 -1.16,0 -3.14,-0.08 -4.15,-0.19 -1.39,-0.15 -1.85,-0.36 -2.13,-1.66 -0.21,-0.91 -0.4,-2.72 -0.4,-4.95 0,-2.23 0.19,-4.03 0.4,-4.95 0.29,-1.29 0.74,-1.5 2.13,-1.66 1.01,-0.11 2.99,-0.19 4.15,-0.19 1.16,0 3.14,0.08 4.15,0.19 z m -4.63,3.31 c -0.19,0.04 -0.29,0.09 -0.3,0.3 -0.06,0.76 -0.06,1.92 -0.06,2.99 0,1.07 0,2.23 0.06,2.99 0.02,0.23 0.11,0.27 0.3,0.3 0.11,0.02 0.32,0.04 0.48,0.04 0.16,0 0.36,-0.02 0.47,-0.04 0.19,-0.04 0.29,-0.1 0.3,-0.3 0.06,-0.76 0.06,-1.92 0.06,-2.99 0,-1.07 0,-2.23 -0.06,-2.99 -0.02,-0.23 -0.11,-0.27 -0.3,-0.3 -0.11,-0.02 -0.32,-0.04 -0.47,-0.04 -0.15,0 -0.38,0.02 -0.48,0.04 z"
         id="path42" />
      <path
         d="m 227.95,167.65 c 0.65,0 0.7,-0.13 0.72,-0.51 0.02,-0.4 0.02,-1.16 0.02,-1.71 0,-0.27 -0.06,-0.3 -0.23,-0.3 -0.53,0 -6.13,-0.02 -6.43,-0.04 -0.34,-0.02 -0.49,-0.19 -0.51,-0.57 -0.04,-0.7 -0.04,-2.17 -0.04,-3.06 0,-3.16 0.51,-3.77 2.64,-3.98 0.78,-0.08 2.85,-0.15 3.83,-0.15 0.98,0 2.95,0.08 3.73,0.15 2.13,0.21 2.74,0.91 2.74,3.98 0,0.48 -0.08,0.55 -0.48,0.59 -0.4,0.04 -1.67,0.04 -2.32,0.04 -0.65,0 -2.05,0 -2.49,-0.04 -0.36,-0.04 -0.38,-0.06 -0.4,-0.38 l -0.04,-0.59 c -0.02,-0.42 -0.17,-0.49 -0.74,-0.49 -0.67,0 -0.7,0.13 -0.72,0.51 -0.02,0.4 -0.02,1.16 -0.02,1.52 0,0.27 0.06,0.3 0.23,0.3 0.53,0 6.13,0.02 6.43,0.04 0.34,0.02 0.5,0.19 0.51,0.57 0.04,0.7 0.04,2.36 0.04,3.25 0,3.16 -0.48,3.77 -2.61,3.98 -0.78,0.08 -2.89,0.15 -3.86,0.15 -0.97,0 -2.95,-0.08 -3.73,-0.15 -2.13,-0.21 -2.74,-0.82 -2.74,-4.17 0,-0.48 0.08,-0.55 0.48,-0.59 0.4,-0.04 1.67,-0.04 2.32,-0.04 0.65,0 2.06,0 2.49,0.04 0.36,0.04 0.38,0.06 0.4,0.38 l 0.04,0.78 c 0.02,0.42 0.17,0.5 0.74,0.5 z"
         id="path44" />
    </g>
    <g
       id="g84"
       transform="translate(203.38513,-41.990082)">
      <path
         d="m 48.01,191.17 h -1.66 v -1.34 c -0.95,1.18 -1.94,1.48 -3.21,1.48 -1.18,0 -2.17,-0.39 -2.77,-0.99 -1.13,-1.13 -1.39,-3 -1.39,-4.83 0,-1.83 0.25,-3.67 1.39,-4.83 0.6,-0.6 1.59,-0.99 2.77,-0.99 1.25,0 2.26,0.3 3.21,1.48 v -6.42 h 1.66 v 16.45 z m -7.37,-5.68 c 0,2.22 0.37,4.34 2.84,4.34 2.47,0 2.86,-2.13 2.86,-4.34 0,-2.21 -0.37,-4.34 -2.86,-4.34 -2.49,0 -2.84,2.12 -2.84,4.34 z"
         id="path48" />
      <path
         d="m 60.87,185.19 v 0.74 H 53.2 c 0,2.5 1.16,3.93 3.35,3.93 1.32,0 2.08,-0.39 2.98,-1.29 l 1.13,0.99 c -1.15,1.16 -2.24,1.76 -4.16,1.76 -3.03,0 -4.97,-1.8 -4.97,-5.82 0,-3.7 1.78,-5.82 4.67,-5.82 2.89,0 4.67,2.1 4.67,5.52 z m -7.32,-2.4 c -0.28,0.6 -0.3,0.97 -0.35,1.89 h 6.03 c -0.07,-0.92 -0.09,-1.29 -0.37,-1.89 -0.49,-1.04 -1.43,-1.71 -2.66,-1.71 -1.23,0 -2.17,0.67 -2.66,1.71 z"
         id="path50" />
      <path
         d="m 72.22,189.6 h 8.41 v 1.57 H 70.46 v -16.45 h 1.76 z"
         id="path52" />
      <path
         d="m 90.7,180.96 c 1.15,1.16 1.39,2.77 1.39,4.53 0,1.76 -0.23,3.35 -1.39,4.53 -0.79,0.81 -1.87,1.29 -3.26,1.29 -1.39,0 -2.47,-0.49 -3.26,-1.29 -1.16,-1.18 -1.39,-2.77 -1.39,-4.53 0,-1.76 0.23,-3.37 1.39,-4.53 0.79,-0.81 1.87,-1.29 3.26,-1.29 1.39,0 2.47,0.49 3.26,1.29 z m -5.31,1.02 c -0.83,0.83 -0.92,2.22 -0.92,3.51 0,1.29 0.07,2.66 0.92,3.51 0.55,0.55 1.25,0.83 2.06,0.83 0.81,0 1.52,-0.28 2.08,-0.83 0.83,-0.85 0.9,-2.24 0.9,-3.51 0,-1.27 -0.07,-2.68 -0.9,-3.51 -0.55,-0.55 -1.27,-0.83 -2.08,-0.83 -0.81,0 -1.5,0.28 -2.06,0.83 z"
         id="path54" />
      <path
         d="m 97.43,176.57 h -1.87 v -1.87 h 1.87 z m -0.12,14.6 H 95.65 V 179.8 h 1.66 z"
         id="path56" />
      <path
         d="m 109.07,180.73 -1.22,1.25 c -0.62,-0.62 -1.09,-0.83 -1.96,-0.83 -1.66,0 -2.73,1.32 -2.73,3.05 v 6.98 h -1.66 v -11.37 h 1.66 v 1.39 c 0.62,-0.95 1.87,-1.52 3.19,-1.52 1.09,0 1.92,0.25 2.73,1.06 z"
         id="path58" />
      <path
         d="m 119.23,185.19 v 0.74 h -7.67 c 0,2.5 1.16,3.93 3.35,3.93 1.32,0 2.08,-0.39 2.98,-1.29 l 1.13,0.99 c -1.16,1.16 -2.24,1.76 -4.16,1.76 -3.03,0 -4.97,-1.8 -4.97,-5.82 0,-3.7 1.78,-5.82 4.67,-5.82 2.89,0 4.67,2.1 4.67,5.52 z m -7.32,-2.4 c -0.28,0.6 -0.3,0.97 -0.35,1.89 h 6.03 c -0.07,-0.92 -0.09,-1.29 -0.37,-1.89 -0.49,-1.04 -1.43,-1.71 -2.66,-1.71 -1.23,0 -2.17,0.67 -2.66,1.71 z"
         id="path60" />
      <path
         d="m 128.78,185.7 h -6.33 v -1.55 h 6.33 z"
         id="path62" />
      <path
         d="m 144.37,191.17 h -1.87 l -1.32,-3.72 H 134 l -1.32,3.72 h -1.87 l 6.05,-16.45 h 1.48 z m -9.84,-5.24 h 6.12 l -3.05,-8.71 z"
         id="path64" />
      <path
         d="m 148.21,179.81 h 2.43 v 1.27 h -2.43 v 7 c 0,1.06 0.49,1.66 1.55,1.66 h 0.88 v 1.43 h -1.18 c -1.94,0 -2.91,-1.36 -2.91,-3.05 v -7.05 h -1.43 v -1.27 h 1.43 v -3.49 h 1.66 v 3.49 z"
         id="path66" />
      <path
         d="m 155.55,188.08 c 0,1.11 0.37,1.66 1.53,1.66 h 0.9 v 1.43 h -1.2 c -1.99,0 -2.89,-1.29 -2.89,-3.03 v -13.42 h 1.66 v 13.35 z"
         id="path68" />
      <path
         d="m 168.91,183.46 v 7.72 h -1.66 v -1.09 c -0.9,0.9 -1.76,1.22 -3.28,1.22 -1.52,0 -2.43,-0.28 -3.21,-1.04 -0.58,-0.55 -0.86,-1.41 -0.86,-2.31 0,-2.01 1.41,-3.28 3.95,-3.28 h 3.4 v -1.08 c 0,-1.64 -0.81,-2.5 -2.91,-2.5 -1.43,0 -2.17,0.37 -2.86,1.32 l -1.13,-1.04 c 0.99,-1.32 2.15,-1.71 4.02,-1.71 3.07,0 4.55,1.34 4.55,3.79 z m -4.83,2.47 c -1.71,0 -2.56,0.67 -2.56,2.01 0,1.34 0.81,1.94 2.63,1.94 0.95,0 1.78,-0.09 2.52,-0.76 0.39,-0.37 0.58,-1.02 0.58,-1.96 v -1.22 h -3.17 z"
         id="path70" />
      <path
         d="m 180.74,180.73 c 0.81,0.79 1.18,1.87 1.18,3.19 v 7.25 h -1.66 v -7 c 0,-2.01 -1.09,-3.03 -2.79,-3.03 -1.7,0 -2.84,1.04 -2.84,3.03 v 7 h -1.66 V 179.8 h 1.64 v 1.27 c 0.81,-0.92 1.94,-1.41 3.21,-1.41 1.27,0 2.24,0.37 2.93,1.06 z"
         id="path72" />
      <path
         d="m 187.9,179.81 h 2.43 v 1.27 h -2.43 v 7 c 0,1.06 0.49,1.66 1.55,1.66 h 0.88 v 1.43 h -1.18 c -1.94,0 -2.91,-1.36 -2.91,-3.05 v -7.05 h -1.43 v -1.27 h 1.43 v -3.49 h 1.66 v 3.49 z"
         id="path74" />
      <path
         d="m 195.41,176.57 h -1.87 v -1.87 h 1.87 z m -0.12,14.6 h -1.66 V 179.8 h 1.66 z"
         id="path76" />
      <path
         d="m 206.24,181.17 v -1.36 h 1.66 v 16.45 h -1.66 v -6.4 c -0.95,1.18 -1.96,1.46 -3.21,1.46 -1.18,0 -2.17,-0.39 -2.77,-0.99 -1.13,-1.13 -1.39,-3 -1.39,-4.83 0,-1.83 0.25,-3.67 1.39,-4.83 0.6,-0.6 1.59,-0.99 2.77,-0.99 1.27,0 2.26,0.3 3.21,1.5 z m -5.7,4.32 c 0,2.22 0.37,4.34 2.84,4.34 2.47,0 2.87,-2.13 2.87,-4.34 0,-2.21 -0.37,-4.34 -2.87,-4.34 -2.5,0 -2.84,2.12 -2.84,4.34 z"
         id="path78" />
      <path
         d="m 220.91,191.17 h -1.64 v -1.27 c -0.81,0.92 -1.94,1.41 -3.21,1.41 -1.27,0 -2.24,-0.37 -2.93,-1.06 -0.81,-0.79 -1.18,-1.87 -1.18,-3.19 v -7.25 h 1.66 v 7 c 0,2.01 1.09,3.03 2.8,3.03 1.71,0 2.84,-1.04 2.84,-3.03 v -7 h 1.66 v 11.37 z"
         id="path80" />
      <path
         d="m 233.78,185.19 v 0.74 h -7.67 c 0,2.5 1.16,3.93 3.35,3.93 1.32,0 2.08,-0.39 2.98,-1.29 l 1.13,0.99 c -1.15,1.16 -2.24,1.76 -4.16,1.76 -3.03,0 -4.97,-1.8 -4.97,-5.82 0,-3.7 1.78,-5.82 4.67,-5.82 2.89,0 4.67,2.1 4.67,5.52 z m -7.32,-2.4 c -0.28,0.6 -0.3,0.97 -0.35,1.89 h 6.03 c -0.07,-0.92 -0.09,-1.29 -0.37,-1.89 -0.49,-1.04 -1.43,-1.71 -2.66,-1.71 -1.23,0 -2.17,0.67 -2.66,1.71 z"
         id="path82" />
    </g>
  </g>
</svg>
