<?xml version="1.0" encoding="utf-8"?>
<!-- Generator: Adobe Illustrator 25.3.1, SVG Export Plug-In . SVG Version: 6.00 Build 0)  -->
<svg version="1.1" id="Calque_1" xmlns="http://www.w3.org/2000/svg" xmlns:xlink="http://www.w3.org/1999/xlink" x="0px" y="0px"
	 viewBox="0 0 224.3 61.9" style="enable-background:new 0 0 224.3 61.9;" xml:space="preserve">
<style type="text/css">
	.st0{clip-path:url(#SVGID_2_);}
	.st1{fill:#004461;}
	.st2{fill:#AFCA00;}
	.st3{fill:#FFFFFF;}
	.st4{enable-background:new    ;}
</style>
<g>
	<defs>
		<rect id="SVGID_1_" x="-0.2" y="0" width="121.9" height="61.9"/>
	</defs>
	<clipPath id="SVGID_2_">
		<use xlink:href="#SVGID_1_"  style="overflow:visible;"/>
	</clipPath>
	<g id="logo-loire-atlantique-rvb" class="st0">
		<path id="Tracé_695_1_" class="st1" d="M59.1,13.5C58.6,13.2,58,13,57.4,13c-0.8,0-1.6,0.3-2.2,1c-0.6,0.6-0.9,1.4-0.8,2.2v0.4
			L59.1,13.5z"/>
		<path id="Tracé_696_1_" class="st1" d="M108.9,32.1c-0.5-0.3-1.1-0.4-1.7-0.4c-0.8,0-1.6,0.3-2.2,1c-0.6,0.6-0.9,1.4-0.8,2.2v0.4
			L108.9,32.1z"/>
		<path id="Tracé_697_1_" class="st1" d="M34.3,19.1c0.8,0,1.6-0.3,2.2-0.8c0.6-0.6,0.9-1.4,1-2.2c0-0.8-0.3-1.6-1-2.2
			c-0.6-0.6-1.4-0.9-2.2-1c-1.7,0-3.1,1.4-3,3.1c0,0,0,0.1,0,0.1c0,0.8,0.3,1.6,0.8,2.2C32.7,18.8,33.5,19.1,34.3,19.1z"/>
		<path id="Tracé_698_1_" class="st1" d="M83.7,31.6c-1.7,0-3.1,1.4-3,3.1c0,0,0,0.1,0,0.1c0,0.8,0.3,1.6,0.8,2.2
			c0.6,0.6,1.4,0.9,2.2,0.8c0.8,0,1.6-0.3,2.2-0.8c0.6-0.6,0.9-1.4,1-2.2C86.8,33,85.4,31.7,83.7,31.6z"/>
		<path id="Tracé_699_1_" class="st1" d="M49,37.7c0.8,0,1.6-0.3,2.2-0.8c0.6-0.6,0.9-1.4,1-2.2c0-0.8-0.3-1.6-1-2.2
			c-0.6-0.6-1.4-0.9-2.2-1c-1.7,0-3.1,1.4-3,3.1c0,0,0,0.1,0,0.1c0,0.8,0.3,1.6,0.8,2.2C47.4,37.4,48.2,37.7,49,37.7z"/>
		<path id="Tracé_700_1_" class="st1" d="M86.8,45.4v-6.1c-0.9,0.7-2,1.1-3.2,1.1c-1.5,0-2.9-0.6-3.9-1.7c-2.2-2.2-2.2-5.8,0-8
			c2.2-2.2,5.8-2.2,8,0c1.1,1.1,1.7,2.5,1.7,4v10.7h-0.3c9.3,0.1,19.9,0.6,32.5,1.4V13.5C76-4.3,20.9-3.3-0.2,9.6l17.4,52.3
			c2.9-1.8,5.7-3.5,8.6-5l0,0C39.6,49.6,53.8,45.1,86.8,45.4z M103.4,30.8c1.1-1.1,2.5-1.7,4-1.7c1.1,0,2.3,0.3,3.2,1
			c0.9,0.6,1.6,1.5,2.1,2.5l0.1,0.3l-6.9,4.6c0.5,0.3,1.1,0.4,1.7,0.4c0.8,0,1.6-0.3,2.2-1c0.3-0.3,0.5-0.6,0.6-1h2.8
			c-0.3,1-0.8,2-1.5,2.8c-2.2,2.2-5.8,2.2-8,0c-1.1-1.1-1.7-2.5-1.7-4C101.7,33.2,102.3,31.7,103.4,30.8L103.4,30.8z M90.9,29.2h2.6
			v6.4c0,1.2,1.1,2.2,2.3,2.1c1.2,0,2.1-1,2.1-2.1v-6.4h2.6v6.4c0,1.3-0.6,2.5-1.5,3.3c-1.8,1.8-4.8,1.8-6.7,0
			c-0.9-0.9-1.4-2.1-1.4-3.3v-6.4H90.9z M37.3,31.7h-1.7V40h-2.6v-8.3h-1.7v-2.6h1.7v-3.6h2.6v3.6h1.7L37.3,31.7z M41.8,40.2h-2.6
			V25.5h2.6V40.2z M73.7,25.5h2.6v2.6h-2.6V25.5z M73.7,29.2h2.6v10.9h-2.6V29.2z M66.7,29.2h1.7v-3.6H71v3.6h1.7v2.6H71v8.3h-2.6
			v-8.3h-1.7V29.2z M65.9,33.8v6.4h-2.6v-6.4c0-1.2-1.1-2.2-2.3-2.1c-1.2,0-2.1,1-2.1,2.1v6.4h-2.6v-6.4c0-1.2,0.5-2.4,1.4-3.3
			c1.6-1.8,4.3-2,6.2-0.5c0.2,0.1,0.3,0.3,0.5,0.5C65.3,31.2,65.9,32.5,65.9,33.8L65.9,33.8z M53.4,12.1c1.1-1.1,2.5-1.7,4-1.7
			c1.1,0,2.3,0.3,3.2,1c0.9,0.6,1.6,1.5,2.1,2.5l0.1,0.3l-6.9,4.6c0.5,0.3,1.1,0.4,1.7,0.4c0.8,0,1.6-0.3,2.2-1
			c0.3-0.3,0.5-0.6,0.6-1h2.8c-0.3,1-0.8,2-1.5,2.8c-2.2,2.2-5.8,2.2-8,0c-1.1-1.1-1.7-2.5-1.7-4C51.8,14.5,52.3,13.1,53.4,12.1z
			 M46.2,15.3c0-1.3,0.6-2.6,1.5-3.5c0.9-0.9,2.2-1.4,3.5-1.4h0.3V13h-0.3c-0.6,0-1.2,0.2-1.7,0.7c-0.4,0.4-0.7,0.9-0.7,1.5v6.4
			h-2.6L46.2,15.3L46.2,15.3z M49,29c3.1,0,5.7,2.5,5.7,5.7c0,0,0,0,0,0v5.5H52v-0.8c-0.9,0.7-2,1.1-3.2,1.1c-1.5,0-2.9-0.6-3.9-1.7
			c-2.2-2.2-2.2-5.8,0-8C46,29.6,47.4,29,49,29L49,29z M41.6,6.9h2.5v2.6h-2.6V6.9H41.6z M41.6,10.5h2.5v10.9h-2.6V10.5L41.6,10.5z
			 M30.3,12.1c2.2-2.2,5.8-2.2,8,0c1.1,1.1,1.7,2.5,1.7,4c0,3.1-2.5,5.7-5.7,5.7s-5.7-2.5-5.7-5.7C28.6,14.6,29.2,13.1,30.3,12.1z
			 M19.8,6.9h2.8v11.9h6v2.8h-8.7V6.9z M21.7,40.2h-2.9l5.1-14.7h3l5.3,14.7h-2.9l-0.8-2.5h-5.8L21.7,40.2z"/>
		<path id="Tracé_701_1_" class="st1" d="M23.5,35.3h4l-1.9-5.5L23.5,35.3z"/>
		<path id="Tracé_702_1_" class="st2" d="M25.9,57h95.6V46.8C66.1,43.5,46.8,45.8,25.9,57z"/>
		<path id="Tracé_703_1_" class="st2" d="M121.8,46.8"/>
		<path id="Tracé_704_1_" class="st2" d="M121.5,46.8L121.5,46.8C108.9,46,98.2,45.6,89,45.4h-2.2C53.8,45.1,39.6,49.6,25.9,57l0,0
			C46.8,45.8,66.1,43.5,121.5,46.8z"/>
		<path id="Tracé_705_1_" class="st3" d="M34.3,21.8c3.1,0,5.7-2.5,5.7-5.7c0,0,0,0,0,0c0-3.1-2.5-5.7-5.7-5.7s-5.7,2.5-5.7,5.7
			c0,1.5,0.6,2.9,1.7,4C31.3,21.2,32.8,21.8,34.3,21.8z M32.1,13.9c0.6-0.6,1.4-0.9,2.2-1c0.8,0.1,1.6,0.4,2.2,1
			c0.6,0.6,0.9,1.4,1,2.2c0,1.7-1.4,3.1-3.1,3c0,0-0.1,0-0.1,0c-0.8,0-1.6-0.3-2.2-0.8c-0.6-0.6-0.9-1.4-0.8-2.2
			C31.3,15.3,31.6,14.5,32.1,13.9z"/>
		<rect id="Rectangle_526_1_" x="41.6" y="10.5" class="st3" width="2.6" height="10.9"/>
		<path id="Tracé_706_1_" class="st3" d="M48.8,15.3c0-0.6,0.2-1.1,0.7-1.5c0.4-0.4,1-0.7,1.7-0.7h0.3v-2.6h-0.3
			c-1.3,0-2.5,0.5-3.5,1.4c-1,0.9-1.5,2.1-1.5,3.5v6.4h2.6L48.8,15.3L48.8,15.3z"/>
		<path id="Tracé_707_1_" class="st3" d="M35.7,25.5h-2.6v3.7h-1.7v2.5h1.7v8.4h2.6v-8.4h1.7v-2.5h-1.7V25.5z"/>
		<rect id="Rectangle_527_1_" x="39.1" y="25.5" class="st3" width="2.6" height="14.7"/>
		<path id="Tracé_708_1_" class="st3" d="M45,38.6c1,1.1,2.4,1.7,3.9,1.7c1.2,0,2.3-0.4,3.2-1.1v1h2.6v-5.5c0-3.1-2.5-5.7-5.7-5.7
			s-5.7,2.5-5.7,5.7C43.3,36.1,43.9,37.6,45,38.6z M46.9,32.6c0.6-0.6,1.4-0.9,2.2-1c0.8,0,1.6,0.3,2.2,1c0.6,0.6,0.9,1.4,1,2.2
			c0,1.7-1.4,3.1-3.1,3c0,0-0.1,0-0.1,0c-0.8,0-1.6-0.3-2.2-0.8c-0.6-0.6-0.9-1.4-0.8-2.2C45.9,33.9,46.2,33.1,46.9,32.6z"/>
		<path id="Tracé_709_1_" class="st3" d="M57.7,30.5c-0.9,0.9-1.4,2.1-1.4,3.3v6.4h2.6v-6.4c0-1.2,1.1-2.2,2.3-2.1
			c1.2,0,2.1,1,2.1,2.1v6.4H66v-6.4c0-1.3-0.6-2.5-1.5-3.3c-0.9-0.9-2.1-1.5-3.3-1.5C59.8,29,58.6,29.5,57.7,30.5z"/>
		<path id="Tracé_710_1_" class="st3" d="M68.3,40.2H71v-8.4h1.7v-2.5H71v-3.7h-2.6v3.7h-1.7v2.5h1.7V40.2z"/>
		<rect id="Rectangle_528_1_" x="73.7" y="29.2" class="st3" width="2.6" height="10.9"/>
		<rect id="Rectangle_529_1_" x="73.7" y="25.5" class="st3" width="2.6" height="2.6"/>
		<path id="Tracé_711_1_" class="st3" d="M89.4,34.6c0-3.1-2.5-5.7-5.7-5.7c-3.1,0-5.7,2.5-5.7,5.7c0,1.5,0.6,2.9,1.7,4
			c1,1.1,2.4,1.7,3.9,1.7c1.2,0,2.3-0.4,3.2-1.1v6.1h2.5V34.6H89.4z M85.8,36.8c-0.6,0.6-1.4,0.9-2.2,0.8c-0.8,0-1.6-0.3-2.2-0.8
			c-0.6-0.6-0.9-1.4-0.8-2.2c0-0.8,0.3-1.6,0.8-2.2c0.6-0.6,1.4-0.9,2.2-1c0.8,0,1.6,0.3,2.2,1c0.6,0.6,0.9,1.4,1,2.2
			C86.8,35.5,86.4,36.3,85.8,36.8L85.8,36.8z"/>
		<path id="Tracé_712_1_" class="st3" d="M86.8,45.4L86.8,45.4z"/>
		<path id="Tracé_713_1_" class="st3" d="M95.8,40.3c1.3,0,2.5-0.5,3.3-1.4c0.9-0.9,1.5-2.1,1.5-3.3v-6.4H98v6.4
			c0,1.2-1.1,2.2-2.3,2.1c-1.2,0-2.1-1-2.1-2.1v-6.4h-2.6v6.4c0,1.2,0.5,2.4,1.4,3.3C93.2,39.8,94.5,40.3,95.8,40.3z"/>
		<path id="Tracé_714_1_" class="st3" d="M57.6,21.8c1.5,0,3-0.6,4-1.7c0.7-0.8,1.2-1.7,1.5-2.8h-2.8c-0.1,0.4-0.3,0.7-0.6,1
			c-0.5,0.7-1.4,1-2.2,1c-0.6,0-1.1-0.1-1.7-0.4l6.9-4.6l-0.1-0.4c-0.4-1-1.1-1.9-2.1-2.5c-0.9-0.7-2-1-3.2-1
			c-3.1,0-5.7,2.5-5.7,5.7c0,0,0,0,0,0c0,1.5,0.6,3,1.7,4C54.5,21.2,56,21.8,57.6,21.8z M55.3,13.9c0.6-0.6,1.4-1,2.2-1
			c0.6,0,1.1,0.1,1.7,0.4l-4.6,3v-0.4C54.4,15.2,54.7,14.3,55.3,13.9z"/>
		<path id="Tracé_715_1_" class="st3" d="M107.4,40.3c1.5,0,3-0.6,4-1.7c0.7-0.8,1.2-1.7,1.5-2.8h-2.8c-0.1,0.4-0.3,0.7-0.6,1
			c-0.5,0.7-1.4,1-2.2,1c-0.6,0-1.1-0.1-1.7-0.4l6.9-4.6l-0.1-0.3c-0.4-1-1.1-1.9-2.1-2.5c-0.9-0.7-2-1-3.2-1
			c-3.1,0-5.7,2.5-5.7,5.7c0,1.5,0.6,2.9,1.7,4C104.4,39.7,105.9,40.3,107.4,40.3z M105.2,32.6c0.6-0.6,1.4-1,2.2-1
			c0.6,0,1.1,0.1,1.7,0.4l-4.6,3v-0.4C104.3,33.9,104.6,33.1,105.2,32.6z"/>
		<path id="Tracé_716_1_" class="st3" d="M28.5,18.8h-6.1V6.9h-2.6v14.7h8.7V18.8z"/>
		<path id="Tracé_717_1_" class="st3" d="M29.3,40.2h2.9l-5.1-14.7h-3l-5.1,14.7h2.9l0.8-2.5h5.8L29.3,40.2z M23.5,35.3l2.1-5.5
			l2.1,5.5H23.5z"/>
		<rect id="Rectangle_530_1_" x="41.6" y="6.9" class="st3" width="2.6" height="2.6"/>
	</g>
</g>
<g class="st4">
	<path d="M149.7,27.6V39h-1.5l-6.1-8v8h-1.9V27.6h1.5l6.1,8v-8H149.7z"/>
	<path d="M159.4,30.9V39h-2v-1.2c-0.3,0.4-0.6,0.8-1,1c-0.4,0.2-0.9,0.4-1.5,0.4c-2,0-3-1.1-3-3.3v-4.9h2v4.9c0,0.6,0.1,1,0.4,1.3
		c0.2,0.3,0.6,0.4,1.1,0.4c0.6,0,1.1-0.2,1.4-0.6c0.4-0.4,0.5-0.9,0.5-1.5v-4.5H159.4z"/>
	<path d="M173.1,31.6c0.4,0.5,0.7,1.4,0.7,2.5v5h-2v-4.9c0-0.6-0.1-1.1-0.3-1.4c-0.2-0.3-0.6-0.4-1-0.4c-0.6,0-1,0.2-1.3,0.6
		c-0.3,0.4-0.5,0.9-0.5,1.6V39h-2v-4.9c0-0.6-0.1-1.1-0.3-1.4c-0.2-0.3-0.6-0.4-1-0.4c-0.6,0-1,0.2-1.3,0.6
		c-0.3,0.4-0.5,0.9-0.5,1.6V39h-2v-5.8c0-0.9,0-1.6-0.1-2.3h1.9l0.1,1.3c0.2-0.5,0.6-0.8,1-1.1c0.4-0.3,1-0.4,1.5-0.4
		c1.2,0,2,0.5,2.4,1.5c0.3-0.5,0.6-0.9,1.1-1.1c0.5-0.3,1-0.4,1.6-0.4C172,30.7,172.7,31,173.1,31.6z"/>
	<path d="M183,35.1h-5.6c0,0.9,0.3,1.5,0.6,1.9c0.4,0.4,1,0.6,1.7,0.6c0.9,0,1.7-0.3,2.5-0.9l0.6,1.4c-0.4,0.3-0.9,0.6-1.4,0.7
		c-0.6,0.2-1.1,0.3-1.7,0.3c-1.3,0-2.4-0.4-3.1-1.1c-0.8-0.7-1.1-1.8-1.1-3.1c0-0.8,0.2-1.6,0.5-2.2c0.3-0.6,0.8-1.1,1.4-1.5
		c0.6-0.4,1.3-0.5,2-0.5c1.1,0,2,0.4,2.6,1.1c0.6,0.7,1,1.7,1,3V35.1z M178.1,32.6c-0.3,0.3-0.6,0.8-0.6,1.4h3.8
		c-0.1-0.6-0.2-1.1-0.6-1.4c-0.3-0.3-0.7-0.5-1.3-0.5S178.5,32.3,178.1,32.6z M178.7,29.9l1.6-3.3h2l-2.4,3.3H178.7z"/>
	<path d="M189.8,30.9l0,1.8c-0.3-0.1-0.7-0.2-1.1-0.2c-0.7,0-1.2,0.2-1.6,0.6s-0.5,0.9-0.5,1.6V39h-2v-5.8c0-0.9,0-1.6-0.1-2.3h1.9
		l0.2,1.4c0.2-0.5,0.5-0.9,1-1.2c0.4-0.3,0.9-0.4,1.5-0.4C189.4,30.7,189.6,30.8,189.8,30.9z"/>
	<path d="M193.1,27.3v2h-2.2v-2H193.1z M191,30.9h2V39h-2V30.9z"/>
	<path d="M203,30.9c-0.1,0.6-0.1,1.4-0.1,2.3v9.2h-2v-4.7c-0.2,0.4-0.6,0.8-1,1c-0.5,0.2-1,0.4-1.5,0.4c-0.7,0-1.3-0.2-1.9-0.5
		c-0.5-0.3-1-0.8-1.3-1.5c-0.3-0.6-0.4-1.4-0.4-2.2s0.2-1.6,0.5-2.2c0.3-0.6,0.7-1.1,1.3-1.5s1.2-0.5,1.9-0.5c0.6,0,1.2,0.1,1.6,0.4
		c0.5,0.3,0.8,0.7,1.1,1.2l0.1-1.4H203z M200.4,36.9c0.4-0.5,0.5-1.1,0.5-1.9c0-0.9-0.2-1.5-0.5-2c-0.4-0.5-0.9-0.7-1.6-0.7
		c-0.7,0-1.2,0.2-1.5,0.7s-0.6,1.1-0.6,2c0,0.8,0.2,1.5,0.6,1.9c0.4,0.4,0.9,0.7,1.6,0.7C199.5,37.6,200,37.3,200.4,36.9z"/>
	<path d="M212.4,30.9V39h-2v-1.2c-0.3,0.4-0.6,0.8-1,1c-0.4,0.2-0.9,0.4-1.5,0.4c-2,0-3-1.1-3-3.3v-4.9h2v4.9c0,0.6,0.1,1,0.4,1.3
		c0.2,0.3,0.6,0.4,1.1,0.4c0.6,0,1.1-0.2,1.4-0.6c0.4-0.4,0.5-0.9,0.5-1.5v-4.5H212.4z"/>
	<path d="M221.7,35.1h-5.6c0,0.9,0.3,1.5,0.6,1.9c0.4,0.4,1,0.6,1.7,0.6c0.9,0,1.7-0.3,2.5-0.9l0.6,1.4c-0.4,0.3-0.9,0.6-1.4,0.7
		c-0.6,0.2-1.1,0.3-1.7,0.3c-1.3,0-2.4-0.4-3.1-1.1c-0.8-0.7-1.1-1.8-1.1-3.1c0-0.8,0.2-1.6,0.5-2.2c0.3-0.6,0.8-1.1,1.4-1.5
		c0.6-0.4,1.3-0.5,2-0.5c1.1,0,2,0.4,2.6,1.1c0.6,0.7,1,1.7,1,3V35.1z M216.8,32.6c-0.3,0.3-0.6,0.8-0.6,1.4h3.8
		c-0.1-0.6-0.2-1.1-0.6-1.4c-0.3-0.3-0.7-0.5-1.3-0.5S217.1,32.3,216.8,32.6z"/>
</g>
</svg>
