<?xml version="1.0" encoding="utf-8"?>
<!-- Generator: Adobe Illustrator 27.5.0, SVG Export Plug-In . SVG Version: 6.00 Build 0)  -->
<svg version="1.1" id="Logo_x5F_Def" xmlns="http://www.w3.org/2000/svg" xmlns:xlink="http://www.w3.org/1999/xlink" x="0px"
	 y="0px" viewBox="0 0 566.9 181.2" style="enable-background:new 0 0 566.9 181.2;" xml:space="preserve">
<style type="text/css">
	.st0{fill:#204C65;}
	.st1{fill:#FFFFFF;}
	.st2{fill:#B0CD40;}
	.st3{fill:#1C1C1A;}
	.st4{fill:#E4B828;}
	.st5{fill:#5A55A5;}
	.st6{fill:#B0228D;}
	.st7{fill:#57278D;}
	.st8{fill:#DC9F35;}
	.st9{fill:#C13140;}
	.st10{fill:#591E82;}
	.st11{fill:#C13D70;}
	.st12{fill:#B2202F;}
</style>
<g>
	<path class="st0" d="M522.9,66.4c-60.6-23.4-134-22.2-162-5l23.2,69.7c33.1-20.4,55.3-25.1,138.7-20.2V66.4z"/>
	<g>
		<path class="st1" d="M409.7,72.9c-0.8,0.8-1.7,1.2-2.9,1.2s-2.1-0.4-2.9-1.2c-0.8-0.8-1.2-1.7-1.2-2.9c0-1.1,0.4-2.1,1.2-2.9
			c0.9-0.9,1.7-1.2,2.9-1.2s2.1,0.4,2.9,1.2c0.9,0.9,1.2,1.7,1.2,2.9C410.9,71.2,410.6,72.1,409.7,72.9 M406.8,62.5
			c-2.1,0-3.9,0.8-5.3,2.2c-1.4,1.4-2.2,3.2-2.2,5.3s0.8,3.9,2.2,5.3c1.4,1.4,3.2,2.2,5.3,2.2s3.9-0.8,5.3-2.2
			c1.5-1.5,2.2-3.2,2.2-5.3s-0.8-3.8-2.2-5.3C410.7,63.3,408.9,62.5,406.8,62.5"/>
	</g>
	<rect x="416.6" y="62.7" class="st1" width="3.4" height="14.7"/>
	<rect x="416.6" y="57.9" class="st1" width="3.4" height="3.4"/>
	<g>
		<g>
			<path class="st1" d="M424.6,64.4c-1.3,1.2-2,2.8-2,4.6v8.4h3.5V69c0-0.9,0.3-1.5,1-2.1s1.3-0.9,2.3-0.9h0.3v-3.5h-0.4
				C427.6,62.5,426,63.2,424.6,64.4"/>
		</g>
	</g>
	<polygon class="st1" points="408.6,82.7 405.1,82.7 405.1,87.6 402.9,87.6 402.9,91 405.1,91 405.1,102.1 408.6,102.1 408.6,91 
		410.8,91 410.8,87.6 408.6,87.6 	"/>
	<rect x="413.3" y="82.7" class="st1" width="3.4" height="19.4"/>
	<g>
		<path class="st1" d="M429.3,97.8c-0.8,0.8-1.7,1.2-2.9,1.2s-2.1-0.4-2.9-1.2c-0.8-0.8-1.2-1.7-1.2-2.9s0.4-2.1,1.2-2.9
			c0.9-0.9,1.7-1.2,2.9-1.2s2.1,0.4,2.9,1.2c0.9,0.9,1.2,1.7,1.2,2.9C430.5,96,430.1,96.9,429.3,97.8 M426.5,87.3
			c-2.1,0-3.9,0.8-5.3,2.2c-1.4,1.4-2.2,3.2-2.2,5.3c0,2,0.8,3.8,2.1,5.3c1.4,1.5,3.1,2.2,5.2,2.2c1.6,0,3-0.5,4.3-1.4v1.2h3.5v-7.3
			c0-2.1-0.8-3.8-2.2-5.3C430.3,88,428.5,87.3,426.5,87.3"/>
		<path class="st1" d="M442.5,87.3c-1.7,0-3.2,0.7-4.5,1.9c-1.2,1.3-1.9,2.8-1.9,4.5v8.4h3.4v-8.4c0-0.8,0.3-1.5,0.9-2.1
			s1.2-0.9,2.1-0.9c0.8,0,1.5,0.3,2.1,0.9c0.6,0.6,0.9,1.2,0.9,2.1v8.4h3.5v-8.4c0-1.7-0.7-3.2-1.9-4.5
			C445.7,88,444.3,87.3,442.5,87.3"/>
	</g>
	<polygon class="st1" points="455.7,82.7 452.2,82.7 452.2,87.6 450,87.6 450,91 452.2,91 452.2,102.1 455.7,102.1 455.7,91 
		457.9,91 457.9,87.6 455.7,87.6 	"/>
	<rect x="459.5" y="87.6" class="st1" width="3.4" height="14.7"/>
	<rect x="459.5" y="82.7" class="st1" width="3.4" height="3.4"/>
	<g>
		<path class="st1" d="M475.5,97.8c-0.8,0.8-1.7,1.2-2.9,1.2s-2.1-0.4-2.9-1.2c-0.8-0.8-1.2-1.7-1.2-2.9s0.4-2.1,1.2-2.9
			c0.9-0.9,1.7-1.2,2.9-1.2s2.1,0.4,2.9,1.2c0.9,0.9,1.2,1.7,1.2,2.9C476.7,96,476.3,96.9,475.5,97.8 M472.6,87.3
			c-2.1,0-3.9,0.8-5.3,2.2c-1.4,1.4-2.2,3.2-2.2,5.3c0,2,0.8,3.8,2.1,5.3c1.4,1.5,3.1,2.2,5.2,2.2c1.6,0,3-0.5,4.3-1.4v8.2h3.5V94.8
			c0-2.1-0.8-3.8-2.2-5.3C476.4,88,474.6,87.3,472.6,87.3"/>
		<path class="st1" d="M491.7,96c0,0.8-0.3,1.5-0.9,2.1s-1.2,0.9-2.1,0.9c-0.8,0-1.5-0.3-2.1-0.9s-0.9-1.2-0.9-2.1v-8.5h-3.5V96
			c0,1.7,0.7,3.2,1.9,4.5c1.3,1.2,2.8,1.9,4.5,1.9s3.2-0.7,4.5-1.9c1.3-1.2,2-2.8,2-4.5v-8.5h-3.5L491.7,96L491.7,96z"/>
		<path class="st1" d="M433.6,70c0-1.1,0.4-2.1,1.1-2.9c0.8-0.9,1.7-1.2,2.9-1.2c0.8,0,1.5,0.2,2.2,0.6l-6.1,4.1
			C433.7,70.4,433.6,70.2,433.6,70 M440.6,72.9c-0.8,0.9-1.7,1.2-2.9,1.2c-0.8,0-1.5-0.2-2.2-0.6l9.2-6l-0.1-0.3
			c-0.7-1.4-1.6-2.6-2.9-3.4c-1.2-0.9-2.7-1.2-4.2-1.2c-2.1,0-3.9,0.8-5.3,2.2c-1.4,1.5-2.2,3.2-2.2,5.3s0.8,3.9,2.2,5.3
			c1.4,1.4,3.2,2.2,5.3,2.2s3.9-0.8,5.3-2.3c1-1,1.6-2.3,2-3.6h-3.7C441.2,72.1,440.9,72.5,440.6,72.9"/>
		<path class="st1" d="M500.2,94.9c0-1.1,0.4-2.1,1.1-2.9c0.8-0.9,1.7-1.2,2.9-1.2c0.8,0,1.5,0.2,2.2,0.6l-6.2,4
			C500.2,95.2,500.2,95,500.2,94.9 M507.9,96.5c-0.2,0.5-0.5,0.9-0.8,1.2c-0.8,0.9-1.7,1.2-2.9,1.2c-0.8,0-1.5-0.2-2.2-0.6l9.2-6
			l-0.1-0.3c-0.7-1.4-1.6-2.6-2.9-3.4c-1.2-0.9-2.7-1.2-4.2-1.2c-2.1,0-3.9,0.8-5.3,2.2c-1.4,1.5-2.2,3.2-2.2,5.3
			c0,2.1,0.8,3.9,2.2,5.3c1.4,1.4,3.2,2.2,5.3,2.2c2.1,0,3.9-0.8,5.3-2.3c1-1,1.6-2.3,2-3.6L507.9,96.5L507.9,96.5z"/>
	</g>
	<polygon class="st1" points="391,57.9 387.4,57.9 387.4,77.4 399,77.4 399,73.8 391,73.8 	"/>
	<path class="st1" d="M392.5,95.7l2.7-7.3l2.7,7.3H392.5z M400.2,102.1h3.9l-6.9-19.4h-4l-6.9,19.4h3.8l1.1-3.2h7.7L400.2,102.1z"/>
	<path class="st2" d="M522.9,111c-78.8-5.2-103.7,0.8-127.5,13.6h127.5V111z"/>
</g>
<rect x="323.5" y="62.2" class="st3" width="1" height="62.9"/>
<g>
	<path class="st4" d="M225.6,62.3h-8.1v4.6h1.2c4,0,5.6,0.3,6.3,1.3c0.4,0.5,0.5,0.9,0.5,3.3c0,0.3,0,0.4,0,0.4l0-0.3h0V62.3"/>
	<rect x="177.3" y="69.4" class="st5" width="13.3" height="55"/>
	<polygon class="st5" points="277.2,99.5 277.2,84.7 241.8,84.7 241.8,62.3 225.6,62.3 225.6,124.4 241.8,124.4 241.8,99.5 	"/>
	<path class="st6" d="M177.3,69.4h-6.8v4.4h1.1c3.9,0,4.5,0.3,5.2,1.1c0.5,0.7,0.5,1,0.5,5.9V69.4 M194.6,69.4h-4v8.4l0,0l0,0
		c0.1-3.2,1.2-4,3.7-4c5.9,0,9.2,3.6,9.2,11.5c0,9.1-3.5,12.4-12.9,12.5v4.4h3.9c15.5,0,23.4-5.6,23.4-16.8
		C217.9,74.3,210.3,69.4,194.6,69.4"/>
	<path class="st7" d="M177.3,69.4L177.3,69.4v11.4c0,0,0,0.1,0,0.1V69.4"/>
	<path class="st6" d="M51.8,62.3h-8v4.6H45c4,0,5.6,0.3,6.3,1.3c0.4,0.5,0.5,0.9,0.5,3.3c0,0.1,0,0,0,0.1V62.3"/>
	<path class="st4" d="M112.4,116.3v8.1h7.9v-4.6h-1.2c-4,0-5.6-0.3-6.3-1.3C112.5,118.1,112.5,117.7,112.4,116.3"/>
	<path class="st4" d="M68,115.2v9.2h7.9v-4.6h-1.2c-4,0-5.6-0.3-6.3-1.3C68.1,118,68,117.6,68,115.2"/>
	<path class="st4" d="M51.8,115.3c0,2.3-0.1,2.7-0.5,3.2c-0.7,0.9-2.3,1.3-6.3,1.3h-1.2v4.6h8L51.8,115.3"/>
	<path class="st5" d="M106.7,62.3L82.2,89.1L57.6,62.3h-5.7c0,0,0,9.4,0,9.4v43.6v9.1h0h16.1H68v-9.2V95.8l13.2,13.8H83l13.2-13.8
		v19.3v9.2h16.1h0.1v-8.1v-54H106.7"/>
	<path class="st4" d="M177.3,115.8c0,2.6-0.1,2.9-0.5,3.5c-0.6,0.8-2.1,1.1-5.8,1.1h-1.1v4.1h7.4V115.8z"/>
	<path class="st8" d="M124.6,49h-4.9v4.4h1.2c2.2,0,3.1,0,3.5,0.4c0.2,0.2,0.2,0.5,0.2,1.8V49"/>
	<path class="st8" d="M138.4,62.3h-13.8v27.1c0,3.2,0,3.6-0.3,3.9c-0.3,0.4-1.2,0.4-3.4,0.4h-1.2v4.4h11.8V84.7h3.6l3.3,0V62.3"/>
	<path class="st9" d="M142.8,49h-4.4v13.3v0l0.2,0h4.1c4.2,0,7,4.5,7,11.1c0,6.7-2.8,11.3-7,11.3l-4.3,0v0v13.4h4.4
		c5.6,0,10.5-2,14.1-5.6c4.4-4.4,6.8-11.2,6.7-19.1C163.7,58.8,155.3,49,142.8,49z"/>
	<polyline class="st10" points="57.6,62.3 51.8,62.3 51.8,71.6 66.1,71.6 57.6,62.3 	"/>
	<rect x="96.2" y="115.2" class="st11" width="16.2" height="9.2"/>
	<rect x="225.6" y="62.3" class="st11" width="16.2" height="9.2"/>
	<rect x="51.8" y="115.2" class="st11" width="16.2" height="9.2"/>
	<rect x="124.6" y="49" class="st12" width="13.8" height="13.3"/>
	<rect x="131.6" y="84.7" class="st12" width="6.9" height="13.4"/>
	<rect x="177.3" y="69.4" class="st10" width="13.3" height="12.2"/>
	<rect x="186.2" y="97.7" class="st10" width="4.4" height="4.4"/>
	<polyline class="st11" points="190.6,115.2 177.3,115.2 177.3,124.4 190.6,124.4 190.6,115.2 	"/>
	<g>
		<path class="st6" d="M255.2,62.3v4.6h1.2c4,0,5.6,0.3,6.3,1.3c0.5,0.7,0.5,1.1,0.5,6.5v10h13.9v-10c0-5.5,0-5.8,0.5-6.5
			c0.7-0.9,2.4-1.3,6.4-1.3h1.2v-4.6H255.2z"/>
		<path class="st6" d="M277.7,118.4c-0.5-0.7-0.5-0.9-0.5-6.4V99.5h-13.9V112c0,5.4,0,5.8-0.5,6.4c-0.7,0.9-2.3,1.3-6.3,1.3h-1.2
			v4.6h30.1v-4.6h-1.2C280.1,119.7,278.4,119.4,277.7,118.4z"/>
	</g>
	<rect x="263.3" y="84.7" class="st10" width="13.9" height="14.8"/>
</g>
</svg>
