<?xml version="1.0" encoding="utf-8"?>
<!-- Generator: Adobe Illustrator 28.3.0, SVG Export Plug-In . SVG Version: 6.00 Build 0)  -->
<svg version="1.1" id="Calque_1" xmlns="http://www.w3.org/2000/svg" xmlns:xlink="http://www.w3.org/1999/xlink" x="0px" y="0px"
	 viewBox="0 0 241.6 62.4" style="enable-background:new 0 0 241.6 62.4;" xml:space="preserve">
<style type="text/css">
	.st0{fill:#014562;}
	.st1{fill:#AFCA0C;}
	.st2{fill:#FFFFFF;}
</style>
<g id="Groupe_2497_1_" transform="translate(0 -20)">
	<g>
		<g id="logo-loire-atlantique-rvb_1_" transform="translate(0 20)">
			<path id="Tracé_695_1_" class="st0" d="M59.8,13.6c-0.5-0.3-1.1-0.4-1.7-0.4c-0.8,0-1.6,0.3-2.2,1c-0.6,0.6-0.9,1.4-0.8,2.2v0.4
				L59.8,13.6z"/>
			<path id="Tracé_696_1_" class="st0" d="M109.7,32.3c-0.5-0.3-1.1-0.4-1.7-0.4c-0.8,0-1.6,0.3-2.2,1c-0.6,0.6-0.9,1.4-0.8,2.2
				v0.4L109.7,32.3z"/>
			<path id="Tracé_697_1_" class="st0" d="M35.1,19.3c0.8,0,1.6-0.3,2.2-0.8c0.6-0.6,0.9-1.4,1-2.2c0-0.8-0.3-1.6-1-2.2
				c-0.6-0.6-1.4-0.9-2.2-1c-1.7,0-3.1,1.4-3,3.1v0.1c0,0.8,0.3,1.6,0.8,2.2C33.5,19,34.2,19.3,35.1,19.3z"/>
			<path id="Tracé_698_1_" class="st0" d="M84.5,31.8c-1.7,0-3.1,1.4-3,3.1V35c0,0.8,0.3,1.6,0.8,2.2c0.6,0.6,1.4,0.9,2.2,0.8
				c0.8,0,1.6-0.3,2.2-0.8c0.6-0.6,0.9-1.4,1-2.2C87.6,33.2,86.2,31.8,84.5,31.8z"/>
			<path id="Tracé_699_1_" class="st0" d="M49.7,37.9c0.8,0,1.6-0.3,2.2-0.8c0.6-0.6,0.9-1.4,1-2.2c0-0.8-0.3-1.6-1-2.2
				c-0.6-0.6-1.4-0.9-2.2-1c-1.7,0-3.1,1.4-3,3.1v0.1c0,0.8,0.3,1.6,0.8,2.2C48.1,37.6,48.9,37.9,49.7,37.9z"/>
			<path id="Tracé_700_1_" class="st0" d="M87.5,45.6v-6.1c-0.9,0.7-2,1.1-3.2,1.1c-1.5,0-2.9-0.6-3.9-1.7c-2.2-2.2-2.2-5.8,0-8
				s5.8-2.2,8,0c1.1,1.1,1.7,2.5,1.7,4v10.7h-0.3c9.3,0.1,19.9,0.6,32.5,1.4V13.6C76.7-4.1,21.6-3.1,0.6,9.8L18,62.1
				c2.9-1.8,5.7-3.5,8.6-5l0,0C40.3,49.8,54.6,45.3,87.5,45.6z M104.1,30.9c1.1-1.1,2.5-1.7,4-1.7c1.1,0,2.3,0.3,3.2,1
				c0.9,0.6,1.6,1.5,2.1,2.5l0.1,0.3l-6.9,4.6c0.5,0.3,1.1,0.4,1.7,0.4c0.8,0,1.6-0.3,2.2-1c0.3-0.3,0.5-0.6,0.6-1h2.8
				c-0.3,1-0.8,2-1.5,2.8c-2.2,2.2-5.8,2.2-8,0c-1.1-1.1-1.7-2.5-1.7-4C102.5,33.3,103,31.9,104.1,30.9L104.1,30.9z M91.7,29.4h2.6
				v6.4c0,1.2,1.1,2.2,2.3,2.1c1.2,0,2.1-1,2.1-2.1v-6.4h2.6v6.4c0,1.3-0.6,2.5-1.5,3.3c-1.8,1.8-4.8,1.8-6.7,0
				c-0.9-0.9-1.4-2.1-1.4-3.3V29.4L91.7,29.4z M38.1,31.9h-1.7v8.3h-2.6v-8.3h-1.7v-2.6h1.7v-3.6h2.6v3.6h1.7V31.9z M42.5,40.3h-2.6
				V25.7h2.6V40.3z M74.5,25.7h2.6v2.6h-2.6V25.7z M74.5,29.4h2.6v10.9h-2.6V29.4z M67.4,29.4h1.7v-3.6h2.6v3.6h1.7V32h-1.7v8.3
				h-2.6V32h-1.7V29.4z M66.6,34v6.4H64V34c0-1.2-1.1-2.2-2.3-2.1c-1.2,0-2.1,1-2.1,2.1v6.4H57V34c0-1.2,0.5-2.4,1.4-3.3
				c1.6-1.8,4.3-2,6.2-0.5c0.2,0.1,0.3,0.3,0.5,0.5C66,31.4,66.7,32.7,66.6,34L66.6,34z M54.2,12.2c1.1-1.1,2.5-1.7,4-1.7
				c1.1,0,2.3,0.3,3.2,1c0.9,0.6,1.6,1.5,2.1,2.5l0.1,0.3l-6.9,4.6c0.5,0.3,1.1,0.4,1.7,0.4c0.8,0,1.6-0.3,2.2-1
				c0.3-0.3,0.5-0.6,0.6-1H64c-0.3,1-0.8,2-1.5,2.8c-2.2,2.2-5.8,2.2-8,0c-1.1-1.1-1.7-2.5-1.7-4C52.5,14.7,53.1,13.2,54.2,12.2z
				 M47,15.4c0-1.3,0.6-2.6,1.5-3.5s2.2-1.4,3.5-1.4h0.3v2.7H52c-0.6,0-1.2,0.2-1.7,0.7c-0.4,0.4-0.7,0.9-0.7,1.5v6.4H47V15.4
				L47,15.4z M49.7,29.1c3.1,0,5.7,2.5,5.7,5.7l0,0v5.5h-2.6v-0.8c-0.9,0.7-2,1.1-3.2,1.1c-1.5,0-2.9-0.6-3.9-1.7
				c-2.2-2.2-2.2-5.8,0-8C46.8,29.8,48.2,29.2,49.7,29.1L49.7,29.1z M42.4,7.1h2.5v2.6h-2.6L42.4,7.1L42.4,7.1z M42.4,10.7h2.5v10.9
				h-2.6L42.4,10.7L42.4,10.7z M31,12.2c2.2-2.2,5.8-2.2,8,0c1.1,1.1,1.7,2.5,1.7,4c0,3.1-2.5,5.7-5.7,5.7s-5.7-2.5-5.7-5.7
				C29.4,14.8,30,13.3,31,12.2z M20.5,7.1h2.8V19h6v2.8h-8.7L20.5,7.1L20.5,7.1z M22.5,40.3h-2.9l5.1-14.7h3L33,40.3h-2.9l-0.8-2.5
				h-5.8L22.5,40.3z"/>
			<path id="Tracé_701_1_" class="st0" d="M24.3,35.5h4L26.4,30L24.3,35.5z"/>
			<path id="Tracé_702_1_" class="st1" d="M26.6,57.2h95.6V47C66.9,43.7,47.5,46,26.6,57.2z"/>
			<path id="Tracé_704_1_" class="st1" d="M122.3,47L122.3,47c-12.6-0.8-23.3-1.2-32.5-1.4h-2.2c-33-0.3-47.3,4.2-61,11.6l0,0
				C47.5,46,66.9,43.7,122.3,47z"/>
			<path id="Tracé_705_1_" class="st2" d="M35.1,21.9c3.1,0,5.7-2.5,5.7-5.7l0,0c0-3.1-2.5-5.7-5.7-5.7s-5.7,2.5-5.7,5.7
				c0,1.5,0.6,2.9,1.7,4C32.1,21.4,33.6,22,35.1,21.9z M32.8,14c0.6-0.6,1.4-0.9,2.2-1c0.8,0.1,1.6,0.4,2.2,1c0.6,0.6,0.9,1.4,1,2.2
				c0,1.7-1.4,3.1-3.1,3H35c-0.8,0-1.6-0.3-2.2-0.8c-0.6-0.6-0.9-1.4-0.8-2.2C32,15.5,32.3,14.7,32.8,14z"/>
			<rect id="Rectangle_526_1_" x="42.4" y="10.7" class="st2" width="2.6" height="10.9"/>
			<path id="Tracé_706_1_" class="st2" d="M49.6,15.4c0-0.6,0.2-1.1,0.7-1.5c0.4-0.4,1-0.7,1.7-0.7h0.3v-2.6H52
				c-1.3,0-2.5,0.5-3.5,1.4S47,14.1,47,15.5v6.4h2.6V15.4L49.6,15.4z"/>
			<path id="Tracé_707_1_" class="st2" d="M36.4,25.7h-2.6v3.7h-1.7v2.5h1.7v8.4h2.6v-8.4h1.7v-2.5h-1.7V25.7z"/>
			<rect id="Rectangle_527_1_" x="39.9" y="25.7" class="st2" width="2.6" height="14.7"/>
			<path id="Tracé_708_1_" class="st2" d="M45.7,38.8c1,1.1,2.4,1.7,3.9,1.7c1.2,0,2.3-0.4,3.2-1.1v1h2.6v-5.5
				c0-3.1-2.5-5.7-5.7-5.7S44,31.7,44,34.9C44.1,36.3,44.7,37.8,45.7,38.8z M47.7,32.7c0.6-0.6,1.4-0.9,2.2-1c0.8,0,1.6,0.3,2.2,1
				c0.6,0.6,0.9,1.4,1,2.2c0,1.7-1.4,3.1-3.1,3h-0.1c-0.8,0-1.6-0.3-2.2-0.8c-0.6-0.6-0.9-1.4-0.8-2.2C46.6,34.1,47,33.2,47.7,32.7z
				"/>
			<path id="Tracé_709_1_" class="st2" d="M58.5,30.7c-0.9,0.9-1.4,2.1-1.4,3.3v6.4h2.6V34c0-1.2,1.1-2.2,2.3-2.1
				c1.2,0,2.1,1,2.1,2.1v6.4h2.6V34c0-1.3-0.6-2.5-1.5-3.3c-0.9-0.9-2.1-1.5-3.3-1.5C60.6,29.1,59.3,29.7,58.5,30.7z"/>
			<path id="Tracé_710_1_" class="st2" d="M69.1,40.3h2.6v-8.4h1.7v-2.5h-1.7v-3.7h-2.6v3.7h-1.7v2.5h1.7V40.3z"/>
			<rect id="Rectangle_528_1_" x="74.5" y="29.4" class="st2" width="2.6" height="10.9"/>
			<rect id="Rectangle_529_1_" x="74.5" y="25.7" class="st2" width="2.6" height="2.6"/>
			<path id="Tracé_711_1_" class="st2" d="M90.1,34.8c0-3.1-2.5-5.7-5.7-5.7c-3.1,0-5.7,2.5-5.7,5.7c0,1.5,0.6,2.9,1.7,4
				c1,1.1,2.4,1.7,3.9,1.7c1.2,0,2.3-0.4,3.2-1.1v6.1H90L90.1,34.8L90.1,34.8z M86.5,37c-0.6,0.6-1.4,0.9-2.2,0.8
				c-0.8,0-1.6-0.3-2.2-0.8c-0.6-0.6-0.9-1.4-0.8-2.2c0-0.8,0.3-1.6,0.8-2.2c0.6-0.6,1.4-0.9,2.2-1c0.8,0,1.6,0.3,2.2,1
				c0.6,0.6,0.9,1.4,1,2.2C87.5,35.7,87.2,36.5,86.5,37L86.5,37z"/>
			<path id="Tracé_713_1_" class="st2" d="M96.5,40.5c1.3,0,2.5-0.5,3.3-1.4c0.9-0.9,1.5-2.1,1.5-3.3v-6.4h-2.6v6.4
				c0,1.2-1.1,2.2-2.3,2.1c-1.2,0-2.1-1-2.1-2.1v-6.4h-2.6v6.4c0,1.2,0.5,2.4,1.4,3.3C94,40,95.2,40.5,96.5,40.5z"/>
			<path id="Tracé_714_1_" class="st2" d="M58.3,21.9c1.5,0,3-0.6,4-1.7c0.7-0.8,1.2-1.7,1.5-2.8H61c-0.1,0.4-0.3,0.7-0.6,1
				c-0.5,0.7-1.4,1-2.2,1c-0.6,0-1.1-0.1-1.7-0.4l6.9-4.6L63.3,14c-0.4-1-1.1-1.9-2.1-2.5c-0.9-0.7-2-1-3.2-1
				c-3.1,0-5.7,2.5-5.7,5.7l0,0c0,1.5,0.6,3,1.7,4C55.3,21.4,56.8,22,58.3,21.9z M56.1,14c0.6-0.6,1.4-1,2.2-1
				c0.6,0,1.1,0.1,1.7,0.4l-4.6,3V16C55.2,15.4,55.5,14.5,56.1,14z"/>
			<path id="Tracé_715_1_" class="st2" d="M108.1,40.5c1.5,0,3-0.6,4-1.7c0.7-0.8,1.2-1.7,1.5-2.8h-2.8c-0.1,0.4-0.3,0.7-0.6,1
				c-0.5,0.7-1.4,1-2.2,1c-0.6,0-1.1-0.1-1.7-0.4l6.9-4.6l-0.1-0.3c-0.4-1-1.1-1.9-2.1-2.5c-0.9-0.7-2-1-3.2-1
				c-3.1,0-5.7,2.5-5.7,5.7c0,1.5,0.6,2.9,1.7,4C105.2,39.9,106.6,40.5,108.1,40.5z M105.9,32.7c0.6-0.6,1.4-1,2.2-1
				c0.6,0,1.1,0.1,1.7,0.4l-4.6,3v-0.4C105.1,34,105.4,33.3,105.9,32.7z"/>
			<path id="Tracé_716_1_" class="st2" d="M29.2,19h-6.1V7.1h-2.6v14.7h8.7V19z"/>
			<path id="Tracé_717_1_" class="st2" d="M30.1,40.3H33l-5.1-14.7h-3l-5.1,14.7h2.8l0.8-2.5h5.8L30.1,40.3z M24.3,35.5l2.1-5.5
				l2.1,5.5H24.3z"/>
			<rect id="Rectangle_530_1_" x="42.4" y="7.1" class="st2" width="2.6" height="2.6"/>
		</g>
	</g>
</g>
<g>
	<path d="M142.6,17.9v10.4h-1.7V17.9H142.6z"/>
	<path d="M150.8,20.3c0.5,0.3,0.9,0.7,1.2,1.2c0.3,0.5,0.4,1.2,0.4,1.9v4.9h-1.7v-4.6c0-0.7-0.2-1.3-0.6-1.7s-0.9-0.6-1.5-0.6
		s-1.1,0.2-1.5,0.6s-0.6,1-0.6,1.7v4.6h-1.7V20h1.7V21c0.3-0.3,0.6-0.6,1.1-0.8c0.4-0.2,0.9-0.3,1.4-0.3
		C149.7,19.9,150.3,20,150.8,20.3z"/>
	<path d="M157.8,26.8l2.3-6.7h1.8l-3.1,8.3h-2l-3.1-8.3h1.8L157.8,26.8z"/>
	<path d="M163.3,18.6c-0.2-0.2-0.3-0.5-0.3-0.8c0-0.3,0.1-0.6,0.3-0.8s0.5-0.3,0.8-0.3c0.3,0,0.6,0.1,0.8,0.3s0.3,0.5,0.3,0.8
		c0,0.3-0.1,0.6-0.3,0.8s-0.5,0.3-0.8,0.3C163.8,18.9,163.5,18.8,163.3,18.6z M164.9,20v8.3h-1.7V20H164.9z"/>
	<path d="M169.2,21.4V26c0,0.3,0.1,0.5,0.2,0.7c0.1,0.1,0.4,0.2,0.7,0.2h1v1.4h-1.3c-0.8,0-1.4-0.2-1.8-0.5s-0.6-0.9-0.6-1.8v-4.6
		h-1V20h1V18h1.7V20h2v1.4H169.2z"/>
	<path d="M172.7,21.9c0.3-0.6,0.8-1.1,1.4-1.5c0.6-0.4,1.3-0.5,2-0.5c0.6,0,1.2,0.1,1.7,0.4s0.9,0.6,1.2,1V20h1.7v8.3H179v-1.2
		c-0.3,0.4-0.7,0.7-1.2,1c-0.5,0.3-1.1,0.4-1.7,0.4c-0.7,0-1.4-0.2-2-0.5c-0.6-0.4-1.1-0.9-1.4-1.5c-0.3-0.7-0.5-1.4-0.5-2.2
		S172.4,22.6,172.7,21.9z M178.6,22.7c-0.2-0.4-0.5-0.7-0.9-1c-0.4-0.2-0.8-0.3-1.2-0.3c-0.4,0-0.9,0.1-1.2,0.3
		c-0.4,0.2-0.7,0.5-0.9,0.9c-0.2,0.4-0.4,0.9-0.4,1.5c0,0.6,0.1,1.1,0.4,1.5c0.2,0.4,0.5,0.8,0.9,1c0.4,0.2,0.8,0.3,1.2,0.3
		c0.4,0,0.8-0.1,1.2-0.3c0.4-0.2,0.7-0.5,0.9-1c0.2-0.4,0.4-0.9,0.4-1.5C179,23.6,178.8,23.1,178.6,22.7z"/>
	<path d="M184.9,21.4V26c0,0.3,0.1,0.5,0.2,0.7c0.1,0.1,0.4,0.2,0.7,0.2h1v1.4h-1.3c-0.8,0-1.4-0.2-1.8-0.5s-0.6-0.9-0.6-1.8v-4.6
		h-1V20h1V18h1.7V20h2v1.4H184.9z"/>
	<path d="M188.6,18.6c-0.2-0.2-0.3-0.5-0.3-0.8c0-0.3,0.1-0.6,0.3-0.8s0.5-0.3,0.8-0.3c0.3,0,0.6,0.1,0.8,0.3s0.3,0.5,0.3,0.8
		c0,0.3-0.1,0.6-0.3,0.8s-0.5,0.3-0.8,0.3C189.1,18.9,188.8,18.8,188.6,18.6z M190.2,20v8.3h-1.7V20H190.2z"/>
	<path d="M194,27.9c-0.6-0.4-1.1-0.9-1.5-1.5c-0.4-0.6-0.5-1.4-0.5-2.2c0-0.8,0.2-1.6,0.6-2.2c0.4-0.6,0.9-1.1,1.5-1.5
		c0.6-0.4,1.4-0.5,2.1-0.5s1.5,0.2,2.1,0.5c0.6,0.4,1.1,0.9,1.5,1.5c0.4,0.7,0.6,1.4,0.6,2.2c0,0.8-0.2,1.6-0.6,2.2
		s-0.9,1.2-1.6,1.5c-0.7,0.4-1.4,0.5-2.2,0.5C195.3,28.4,194.6,28.3,194,27.9z M197.3,26.6c0.4-0.2,0.7-0.5,0.9-0.9s0.4-0.9,0.4-1.5
		s-0.1-1.1-0.3-1.5c-0.2-0.4-0.5-0.7-0.9-0.9c-0.4-0.2-0.8-0.3-1.2-0.3s-0.8,0.1-1.2,0.3s-0.7,0.5-0.9,0.9c-0.2,0.4-0.3,0.9-0.3,1.5
		c0,0.9,0.2,1.6,0.7,2.1c0.5,0.5,1,0.7,1.7,0.7C196.5,26.9,196.9,26.8,197.3,26.6z"/>
	<path d="M208,20.3c0.5,0.3,0.9,0.7,1.2,1.2c0.3,0.5,0.4,1.2,0.4,1.9v4.9h-1.7v-4.6c0-0.7-0.2-1.3-0.6-1.7s-0.9-0.6-1.5-0.6
		s-1.1,0.2-1.5,0.6s-0.6,1-0.6,1.7v4.6H202V20h1.7V21c0.3-0.3,0.6-0.6,1.1-0.8c0.4-0.2,0.9-0.3,1.4-0.3
		C206.9,19.9,207.5,20,208,20.3z"/>
	<path d="M215.6,21.9c0.3-0.6,0.8-1.1,1.4-1.5c0.6-0.4,1.3-0.5,2-0.5c0.5,0,1.1,0.1,1.6,0.4c0.5,0.2,0.9,0.5,1.3,0.9v-4h1.7v11.1
		h-1.7v-1.2c-0.3,0.4-0.7,0.7-1.2,1c-0.5,0.3-1.1,0.4-1.7,0.4c-0.7,0-1.4-0.2-2-0.5c-0.6-0.4-1.1-0.9-1.4-1.5
		c-0.3-0.7-0.5-1.4-0.5-2.2S215.3,22.6,215.6,21.9z M221.5,22.7c-0.2-0.4-0.5-0.7-0.9-1c-0.4-0.2-0.8-0.3-1.2-0.3
		c-0.4,0-0.9,0.1-1.2,0.3c-0.4,0.2-0.7,0.5-0.9,0.9c-0.2,0.4-0.4,0.9-0.4,1.5c0,0.6,0.1,1.1,0.4,1.5c0.2,0.4,0.5,0.8,0.9,1
		c0.4,0.2,0.8,0.3,1.2,0.3c0.4,0,0.8-0.1,1.2-0.3c0.4-0.2,0.7-0.5,0.9-1c0.2-0.4,0.4-0.9,0.4-1.5C221.9,23.6,221.8,23.1,221.5,22.7z
		"/>
	<path d="M233.3,20v8.3h-1.7v-1c-0.3,0.3-0.6,0.6-1.1,0.8c-0.4,0.2-0.9,0.3-1.4,0.3c-0.7,0-1.2-0.1-1.7-0.4
		c-0.5-0.3-0.9-0.7-1.2-1.2c-0.3-0.5-0.4-1.2-0.4-1.9V20h1.7v4.6c0,0.7,0.2,1.3,0.6,1.7s0.9,0.6,1.5,0.6c0.6,0,1.1-0.2,1.5-0.6
		s0.6-1,0.6-1.7V20H233.3z"/>
	<path d="M147.2,36.5c0.8,0.4,1.5,1,1.9,1.8s0.7,1.7,0.7,2.8c0,1.1-0.2,2-0.7,2.8s-1.1,1.4-1.9,1.8c-0.8,0.4-1.8,0.6-2.9,0.6h-3.4
		V35.9h3.4C145.4,35.9,146.4,36.1,147.2,36.5z M147.1,43.9c0.7-0.7,1-1.6,1-2.8c0-1.2-0.3-2.2-1-2.8c-0.7-0.7-1.6-1-2.8-1h-1.7v7.6
		h1.7C145.5,44.9,146.5,44.6,147.1,43.9z"/>
	<path d="M159,42.8h-6.3c0,0.7,0.3,1.2,0.7,1.6c0.4,0.4,1,0.6,1.6,0.6c0.9,0,1.6-0.4,2-1.2h1.8c-0.2,0.8-0.7,1.4-1.4,1.9
		c-0.7,0.5-1.5,0.7-2.4,0.7c-0.8,0-1.5-0.2-2.1-0.5c-0.6-0.4-1.1-0.9-1.5-1.5c-0.4-0.6-0.5-1.4-0.5-2.2c0-0.8,0.2-1.6,0.5-2.2
		c0.3-0.6,0.8-1.1,1.5-1.5c0.6-0.4,1.3-0.5,2.2-0.5c0.8,0,1.5,0.2,2.1,0.5c0.6,0.3,1.1,0.8,1.4,1.4c0.3,0.6,0.5,1.3,0.5,2.1
		C159.1,42.3,159.1,42.6,159,42.8z M157.3,41.4c0-0.6-0.2-1.1-0.7-1.5c-0.4-0.4-1-0.6-1.6-0.6c-0.6,0-1.1,0.2-1.5,0.6
		s-0.7,0.9-0.8,1.5H157.3z M156.6,35.8l-3.3,1.6v-1.3l3.3-1.8V35.8z"/>
	<path d="M163.7,38.3c0.5-0.3,1.1-0.4,1.7-0.4c0.7,0,1.4,0.2,2,0.5c0.6,0.4,1.1,0.9,1.4,1.5s0.5,1.4,0.5,2.2s-0.2,1.6-0.5,2.2
		c-0.3,0.7-0.8,1.2-1.4,1.5c-0.6,0.4-1.3,0.5-2,0.5c-0.6,0-1.2-0.1-1.7-0.4c-0.5-0.3-0.9-0.6-1.2-1v5.1h-1.7V38h1.7v1.2
		C162.8,38.9,163.2,38.6,163.7,38.3z M167.2,40.7c-0.2-0.4-0.5-0.7-0.9-0.9s-0.8-0.3-1.2-0.3c-0.4,0-0.8,0.1-1.2,0.3s-0.7,0.5-0.9,1
		c-0.2,0.4-0.4,0.9-0.4,1.5c0,0.6,0.1,1.1,0.4,1.5c0.2,0.4,0.5,0.7,0.9,1c0.4,0.2,0.8,0.3,1.2,0.3c0.4,0,0.9-0.1,1.2-0.3
		c0.4-0.2,0.7-0.6,0.9-1c0.2-0.4,0.4-0.9,0.4-1.5C167.5,41.6,167.4,41.1,167.2,40.7z"/>
	<path d="M170.9,39.9c0.3-0.6,0.8-1.1,1.4-1.5c0.6-0.4,1.3-0.5,2-0.5c0.6,0,1.2,0.1,1.7,0.4s0.9,0.6,1.2,1V38h1.7v8.3h-1.7v-1.2
		c-0.3,0.4-0.7,0.7-1.2,1c-0.5,0.3-1.1,0.4-1.7,0.4c-0.7,0-1.4-0.2-2-0.5c-0.6-0.4-1.1-0.9-1.4-1.5c-0.3-0.7-0.5-1.4-0.5-2.2
		S170.6,40.6,170.9,39.9z M176.8,40.7c-0.2-0.4-0.5-0.7-0.9-1s-0.8-0.3-1.2-0.3c-0.4,0-0.9,0.1-1.2,0.3s-0.7,0.5-0.9,0.9
		c-0.2,0.4-0.4,0.9-0.4,1.5c0,0.6,0.1,1.1,0.4,1.5c0.2,0.4,0.5,0.8,0.9,1c0.4,0.2,0.8,0.3,1.2,0.3c0.4,0,0.8-0.1,1.2-0.3
		c0.4-0.2,0.7-0.5,0.9-1c0.2-0.4,0.4-0.9,0.4-1.5C177.2,41.6,177,41.1,176.8,40.7z"/>
	<path d="M183.8,38.3c0.4-0.2,0.9-0.4,1.5-0.4v1.8h-0.4c-0.7,0-1.2,0.2-1.5,0.5s-0.5,0.9-0.5,1.8v4.4h-1.7V38h1.7v1.2
		C183.1,38.8,183.4,38.5,183.8,38.3z"/>
	<path d="M188.9,39.4V44c0,0.3,0.1,0.5,0.2,0.7c0.1,0.1,0.4,0.2,0.7,0.2h1v1.4h-1.3c-0.8,0-1.4-0.2-1.8-0.5
		c-0.4-0.4-0.6-0.9-0.6-1.8v-4.6h-1V38h1V36h1.7V38h2v1.4H188.9z"/>
	<path d="M200,42.8h-6.3c0,0.7,0.3,1.2,0.7,1.6c0.4,0.4,1,0.6,1.6,0.6c0.9,0,1.6-0.4,2-1.2h1.8c-0.2,0.8-0.7,1.4-1.4,1.9
		c-0.7,0.5-1.5,0.7-2.4,0.7c-0.8,0-1.5-0.2-2.1-0.5c-0.6-0.4-1.1-0.9-1.5-1.5c-0.4-0.6-0.5-1.4-0.5-2.2c0-0.8,0.2-1.6,0.5-2.2
		c0.3-0.6,0.8-1.1,1.5-1.5c0.6-0.4,1.3-0.5,2.2-0.5c0.8,0,1.5,0.2,2.1,0.5c0.6,0.3,1.1,0.8,1.4,1.4c0.3,0.6,0.5,1.3,0.5,2.1
		C200,42.3,200,42.6,200,42.8z M198.3,41.4c0-0.6-0.2-1.1-0.7-1.5c-0.4-0.4-1-0.6-1.6-0.6c-0.6,0-1.1,0.2-1.5,0.6s-0.7,0.9-0.8,1.5
		H198.3z"/>
	<path d="M213.5,38.3c0.5,0.3,0.9,0.7,1.2,1.2s0.4,1.2,0.4,1.9v4.9h-1.7v-4.6c0-0.7-0.2-1.3-0.6-1.7c-0.4-0.4-0.9-0.6-1.5-0.6
		c-0.6,0-1.1,0.2-1.5,0.6c-0.4,0.4-0.6,1-0.6,1.7v4.6h-1.7v-4.6c0-0.7-0.2-1.3-0.6-1.7c-0.4-0.4-0.9-0.6-1.5-0.6s-1.1,0.2-1.5,0.6
		c-0.4,0.4-0.6,1-0.6,1.7v4.6h-1.7V38h1.7V39c0.3-0.3,0.6-0.6,1.1-0.8c0.4-0.2,0.9-0.3,1.4-0.3c0.7,0,1.2,0.1,1.8,0.4
		c0.5,0.3,0.9,0.7,1.2,1.2c0.2-0.5,0.6-0.9,1.2-1.2s1.1-0.4,1.7-0.4C212.4,37.9,213,38,213.5,38.3z"/>
	<path d="M224.8,42.8h-6.3c0,0.7,0.3,1.2,0.7,1.6c0.4,0.4,1,0.6,1.6,0.6c0.9,0,1.6-0.4,2-1.2h1.8c-0.2,0.8-0.7,1.4-1.4,1.9
		c-0.7,0.5-1.5,0.7-2.4,0.7c-0.8,0-1.5-0.2-2.1-0.5c-0.6-0.4-1.1-0.9-1.5-1.5c-0.4-0.6-0.5-1.4-0.5-2.2c0-0.8,0.2-1.6,0.5-2.2
		c0.3-0.6,0.8-1.1,1.5-1.5c0.6-0.4,1.3-0.5,2.2-0.5c0.8,0,1.5,0.2,2.1,0.5c0.6,0.3,1.1,0.8,1.4,1.4c0.3,0.6,0.5,1.3,0.5,2.1
		C224.9,42.3,224.9,42.6,224.8,42.8z M223.1,41.4c0-0.6-0.2-1.1-0.7-1.5c-0.4-0.4-1-0.6-1.6-0.6c-0.6,0-1.1,0.2-1.5,0.6
		s-0.7,0.9-0.8,1.5H223.1z"/>
	<path d="M232.5,38.3c0.5,0.3,0.9,0.7,1.2,1.2s0.4,1.2,0.4,1.9v4.9h-1.7v-4.6c0-0.7-0.2-1.3-0.6-1.7c-0.4-0.4-0.9-0.6-1.5-0.6
		s-1.1,0.2-1.5,0.6c-0.4,0.4-0.6,1-0.6,1.7v4.6h-1.7V38h1.7V39c0.3-0.3,0.6-0.6,1.1-0.8c0.4-0.2,0.9-0.3,1.4-0.3
		C231.4,37.9,232,38,232.5,38.3z"/>
	<path d="M238.3,39.4V44c0,0.3,0.1,0.5,0.2,0.7c0.1,0.1,0.4,0.2,0.7,0.2h1v1.4H239c-0.8,0-1.4-0.2-1.8-0.5c-0.4-0.4-0.6-0.9-0.6-1.8
		v-4.6h-1V38h1V36h1.7V38h2v1.4H238.3z"/>
</g>
</svg>
