<?xml version="1.0" encoding="UTF-8" standalone="no"?>
<!-- Generator: Adobe Illustrator 27.4.0, SVG Export Plug-In . SVG Version: 6.00 Build 0)  -->

<svg
   version="1.1"
   id="Logo_x5F_Def"
   x="0px"
   y="0px"
   viewBox="0 0 738.60998 82.50808"
   xml:space="preserve"
   sodipodi:docname="logo-cd44-handicap-2023.svg"
   width="738.60999"
   height="82.50808"
   inkscape:version="1.2.2 (732a01da63, 2022-12-09)"
   xmlns:inkscape="http://www.inkscape.org/namespaces/inkscape"
   xmlns:sodipodi="http://sodipodi.sourceforge.net/DTD/sodipodi-0.dtd"
   xmlns="http://www.w3.org/2000/svg"
   xmlns:svg="http://www.w3.org/2000/svg"><defs
   id="defs935"><clipPath
     clipPathUnits="userSpaceOnUse"
     id="clipPath939"><rect
       style="opacity:0;fill:#ffffff"
       id="rect941"
       width="744.26227"
       height="88.356979"
       x="38.696484"
       y="46.43578" /></clipPath><clipPath
     clipPathUnits="userSpaceOnUse"
     id="clipPath943"><rect
       style="opacity:0;fill:#ffffff"
       id="rect945"
       width="744.26227"
       height="88.356979"
       x="38.696484"
       y="46.43578" /></clipPath><clipPath
     clipPathUnits="userSpaceOnUse"
     id="clipPath947"><rect
       style="opacity:0;fill:#ffffff"
       id="rect949"
       width="744.26227"
       height="88.356979"
       x="38.696484"
       y="46.43578" /></clipPath><clipPath
     clipPathUnits="userSpaceOnUse"
     id="clipPath951"><rect
       style="opacity:0;fill:#ffffff"
       id="rect953"
       width="744.26227"
       height="88.356979"
       x="38.696484"
       y="46.43578" /></clipPath></defs><sodipodi:namedview
   id="namedview933"
   pagecolor="#ffffff"
   bordercolor="#000000"
   borderopacity="0.25"
   inkscape:showpageshadow="2"
   inkscape:pageopacity="0.0"
   inkscape:pagecheckerboard="0"
   inkscape:deskcolor="#d1d1d1"
   showgrid="false"
   inkscape:zoom="1.5505286"
   inkscape:cx="369.5514"
   inkscape:cy="41.921189"
   inkscape:window-width="1920"
   inkscape:window-height="901"
   inkscape:window-x="-8"
   inkscape:window-y="-8"
   inkscape:window-maximized="1"
   inkscape:current-layer="Logo_x5F_Def" />
<style
   type="text/css"
   id="style792">
	.st0{fill:#204B65;}
	.st1{fill:#FFFFFF;}
	.st2{fill:#AFCB3F;}
	.st3{fill:#1B1B1A;}
	.st4{fill:#E3B728;}
	.st5{fill:#5A55A4;}
	.st6{fill:#AF228C;}
	.st7{fill:#57278C;}
	.st8{fill:#DB9E34;}
	.st9{fill:#C03040;}
	.st10{fill:#591E82;}
	.st11{fill:#C03D70;}
	.st12{fill:#B2202F;}
</style>
<g
   id="g842"
   clip-path="url(#clipPath951)"
   transform="translate(-43.23,-48.761918)">
	<path
   class="st0"
   d="M 522.33,66.52 C 461.77,43.09 388.35,44.33 360.35,61.57 l 23.23,69.7 c 33.14,-20.38 55.33,-25.14 138.74,-20.19 V 66.52 Z"
   id="path794" />
	<g
   id="g798">
		<path
   class="st1"
   d="m 409.1,72.99 c -0.76,0.76 -1.71,1.24 -2.86,1.24 -1.15,0 -2.09,-0.38 -2.86,-1.24 -0.76,-0.76 -1.24,-1.71 -1.24,-2.86 0,-1.14 0.38,-2.09 1.24,-2.86 0.86,-0.86 1.71,-1.24 2.86,-1.24 1.15,0 2.09,0.38 2.86,1.24 0.86,0.86 1.24,1.71 1.24,2.86 0,1.15 -0.38,2.1 -1.24,2.86 m -2.85,-10.38 c -2.09,0 -3.9,0.76 -5.33,2.19 -1.43,1.43 -2.19,3.24 -2.19,5.33 0,2.09 0.76,3.9 2.19,5.33 1.43,1.43 3.24,2.19 5.33,2.19 2.09,0 3.9,-0.76 5.33,-2.19 1.52,-1.52 2.19,-3.24 2.19,-5.33 0,-2.09 -0.76,-3.81 -2.19,-5.33 -1.43,-1.43 -3.24,-2.19 -5.33,-2.19"
   id="path796" />
	</g>
	<rect
   x="415.95999"
   y="62.799999"
   class="st1"
   width="3.4300001"
   height="14.66"
   id="rect800" />
	<rect
   x="415.95999"
   y="57.950001"
   class="st1"
   width="3.4300001"
   height="3.4300001"
   id="rect802" />
	<g
   id="g808">
		<g
   id="g806">
			<path
   class="st1"
   d="m 424.06,64.52 c -1.33,1.24 -2,2.76 -2,4.57 v 8.38 h 3.52 v -8.38 c 0,-0.86 0.29,-1.52 0.95,-2.09 0.67,-0.57 1.33,-0.86 2.29,-0.86 h 0.29 v -3.52 h -0.38 c -1.72,-0.01 -3.34,0.66 -4.67,1.9"
   id="path804" />
		</g>
	</g>
	<polygon
   class="st1"
   points="404.53,87.66 402.34,87.66 402.34,91.08 404.53,91.08 404.53,102.23 408.06,102.23 408.06,91.08 410.25,91.08 410.25,87.66 408.06,87.66 408.06,82.8 404.53,82.8 "
   id="polygon810" />
	<rect
   x="412.72"
   y="82.800003"
   class="st1"
   width="3.4300001"
   height="19.43"
   id="rect812" />
	<g
   id="g818">
		<path
   class="st1"
   d="m 428.72,97.85 c -0.76,0.76 -1.71,1.24 -2.86,1.24 -1.14,0 -2.09,-0.38 -2.86,-1.24 -0.76,-0.76 -1.24,-1.71 -1.24,-2.86 0,-1.14 0.38,-2.09 1.24,-2.86 0.86,-0.86 1.71,-1.24 2.86,-1.24 1.14,0 2.09,0.38 2.86,1.24 0.86,0.86 1.24,1.71 1.24,2.86 0,1.05 -0.48,2 -1.24,2.86 m -2.86,-10.48 c -2.09,0 -3.9,0.76 -5.33,2.19 -1.43,1.43 -2.19,3.24 -2.19,5.33 0,2 0.76,3.81 2.09,5.33 1.43,1.52 3.14,2.19 5.24,2.19 1.62,0 3.05,-0.48 4.29,-1.43 v 1.24 h 3.52 v -7.33 c 0,-2.09 -0.76,-3.81 -2.19,-5.33 -1.62,-1.43 -3.43,-2.19 -5.43,-2.19"
   id="path814" />
		<path
   class="st1"
   d="m 441.96,87.37 c -1.71,0 -3.24,0.67 -4.48,1.9 -1.24,1.33 -1.9,2.76 -1.9,4.48 v 8.38 h 3.43 v -8.38 c 0,-0.76 0.29,-1.52 0.86,-2.09 0.57,-0.57 1.24,-0.86 2.09,-0.86 0.76,0 1.52,0.29 2.09,0.86 0.57,0.57 0.86,1.24 0.86,2.09 v 8.38 h 3.52 v -8.38 c 0,-1.71 -0.67,-3.24 -1.9,-4.48 -1.43,-1.23 -2.86,-1.9 -4.57,-1.9"
   id="path816" />
	</g>
	<polygon
   class="st1"
   points="451.58,87.66 449.38,87.66 449.38,91.08 451.58,91.08 451.58,102.23 455.1,102.23 455.1,91.08 457.29,91.08 457.29,87.66 455.1,87.66 455.1,82.8 451.58,82.8 "
   id="polygon820" />
	<rect
   x="458.91"
   y="87.660004"
   class="st1"
   width="3.4300001"
   height="14.66"
   id="rect822" />
	<rect
   x="458.91"
   y="82.800003"
   class="st1"
   width="3.4300001"
   height="3.4300001"
   id="rect824" />
	<g
   id="g834">
		<path
   class="st1"
   d="m 474.91,97.85 c -0.76,0.76 -1.71,1.24 -2.86,1.24 -1.14,0 -2.09,-0.38 -2.86,-1.24 -0.76,-0.76 -1.24,-1.71 -1.24,-2.86 0,-1.14 0.38,-2.09 1.24,-2.86 0.86,-0.86 1.71,-1.24 2.86,-1.24 1.14,0 2.09,0.38 2.86,1.24 0.86,0.86 1.24,1.71 1.24,2.86 -0.01,1.05 -0.48,2 -1.24,2.86 m -2.86,-10.48 c -2.09,0 -3.9,0.76 -5.33,2.19 -1.43,1.43 -2.19,3.24 -2.19,5.33 0,2 0.76,3.81 2.09,5.33 1.43,1.52 3.14,2.19 5.24,2.19 1.62,0 3.05,-0.48 4.29,-1.43 v 8.19 h 3.52 V 94.89 c 0,-2.09 -0.76,-3.81 -2.19,-5.33 -1.62,-1.43 -3.43,-2.19 -5.43,-2.19"
   id="path826" />
		<path
   class="st1"
   d="m 491.09,96.04 c 0,0.76 -0.29,1.52 -0.86,2.09 -0.57,0.57 -1.24,0.86 -2.09,0.86 -0.76,0 -1.52,-0.29 -2.09,-0.86 -0.57,-0.57 -0.86,-1.24 -0.86,-2.09 v -8.48 h -3.52 v 8.48 c 0,1.71 0.67,3.24 1.9,4.48 1.33,1.24 2.76,1.9 4.48,1.9 1.72,0 3.24,-0.67 4.48,-1.9 1.33,-1.24 2,-2.76 2,-4.48 V 87.56 H 491 Z"
   id="path828" />
		<path
   class="st1"
   d="m 433.01,70.14 c 0,-1.14 0.38,-2.09 1.14,-2.86 0.76,-0.86 1.71,-1.24 2.86,-1.24 0.76,0 1.52,0.19 2.19,0.57 l -6.09,4.09 c -0.01,-0.18 -0.1,-0.37 -0.1,-0.56 m 7.04,2.85 c -0.76,0.86 -1.71,1.24 -2.86,1.24 -0.76,0 -1.52,-0.19 -2.19,-0.57 l 9.24,-6 -0.1,-0.29 c -0.67,-1.43 -1.62,-2.57 -2.86,-3.43 -1.24,-0.86 -2.67,-1.24 -4.19,-1.24 -2.09,0 -3.9,0.76 -5.33,2.19 -1.43,1.52 -2.19,3.24 -2.19,5.33 0,2.09 0.76,3.9 2.19,5.33 1.43,1.43 3.24,2.19 5.33,2.19 2.09,0 3.9,-0.76 5.33,-2.29 1.05,-1.05 1.62,-2.29 2,-3.62 h -3.71 c -0.09,0.4 -0.37,0.78 -0.66,1.16"
   id="path830" />
		<path
   class="st1"
   d="m 499.57,94.99 c 0,-1.14 0.38,-2.09 1.14,-2.86 0.76,-0.86 1.71,-1.24 2.86,-1.24 0.76,0 1.52,0.19 2.19,0.57 l -6.19,4 c 0,-0.19 0,-0.38 0,-0.47 m 7.71,1.62 c -0.19,0.48 -0.48,0.86 -0.76,1.24 -0.76,0.86 -1.71,1.24 -2.86,1.24 -0.76,0 -1.52,-0.19 -2.19,-0.57 l 9.24,-6 -0.1,-0.29 c -0.67,-1.43 -1.62,-2.57 -2.86,-3.43 -1.24,-0.86 -2.67,-1.24 -4.19,-1.24 -2.09,0 -3.9,0.76 -5.33,2.19 -1.43,1.52 -2.19,3.24 -2.19,5.33 0,2.09 0.76,3.9 2.19,5.33 1.43,1.43 3.24,2.19 5.33,2.19 2.09,0 3.9,-0.76 5.33,-2.29 1.05,-1.05 1.62,-2.29 2,-3.62 h -3.62 v -0.08 z"
   id="path832" />
	</g>
	<polygon
   class="st1"
   points="386.82,77.47 398.44,77.47 398.44,73.85 390.44,73.85 390.44,57.95 386.82,57.95 "
   id="polygon836" />
	<path
   class="st1"
   d="m 391.87,95.75 2.67,-7.33 2.67,7.33 z m 7.71,6.48 h 3.9 L 396.62,82.8 h -4 l -6.86,19.43 h 3.81 l 1.14,-3.24 h 7.71 z"
   id="path838" />
	<path
   class="st2"
   d="m 522.33,111.08 c -78.85,-5.24 -103.7,0.76 -127.51,13.62 h 127.51 z"
   id="path840" />
</g>
<rect
   x="322.87"
   y="62.259998"
   class="st3"
   width="0.98000002"
   height="62.889999"
   id="rect844"
   clip-path="url(#clipPath947)"
   transform="translate(-43.23,-48.761918)" />
<g
   id="g900"
   clip-path="url(#clipPath943)"
   transform="translate(-43.23,-48.761918)">
	<path
   class="st4"
   d="m 225.03,62.37 h -8.05 v 4.64 h 1.16 c 4.02,0 5.65,0.35 6.34,1.29 0.41,0.51 0.51,0.89 0.53,3.32 0,0.29 0,0.38 0.01,0.38 v -0.31 0 -9.32"
   id="path846" />
	<rect
   x="176.74001"
   y="69.449997"
   class="st5"
   width="13.28"
   height="55.02"
   id="rect848" />
	<polygon
   class="st5"
   points="241.21,84.83 241.21,62.38 225.02,62.38 225.02,124.48 241.21,124.48 241.21,99.6 276.59,99.6 276.59,84.83 "
   id="polygon850" />
	<path
   class="st6"
   d="m 176.74,69.45 h -6.76 v 4.37 h 1.08 c 3.86,0 4.5,0.32 5.17,1.11 0.51,0.71 0.52,0.95 0.52,5.93 V 69.45 m 17.24,0 h -3.97 v 8.35 0 0 c 0.13,-3.23 1.17,-3.98 3.73,-3.98 5.85,0 9.21,3.57 9.21,11.51 0,9.1 -3.45,12.44 -12.94,12.47 v 4.37 h 3.89 c 15.5,0 23.36,-5.64 23.36,-16.76 0,-11.03 -7.57,-15.96 -23.28,-15.96"
   id="path852" />
	<path
   class="st7"
   d="m 176.74,69.45 v 0 11.41 c 0,0.03 0,0.07 0,0.1 V 69.45"
   id="path854" />
	<path
   class="st6"
   d="m 51.23,62.37 h -7.99 v 4.62 h 1.15 c 4,0 5.62,0.34 6.31,1.28 0.4,0.51 0.47,0.85 0.53,3.31 0,0.08 0,0.02 0,0.08 v -9.29"
   id="path856" />
	<path
   class="st4"
   d="m 111.83,116.42 v 8.06 h 7.93 v -4.59 h -1.16 c -4,0 -5.62,-0.34 -6.32,-1.28 -0.33,-0.41 -0.42,-0.79 -0.45,-2.19"
   id="path858" />
	<path
   class="st4"
   d="m 67.41,115.26 v 9.22 h 7.95 v -4.59 H 74.2 c -4,0 -5.62,-0.34 -6.31,-1.28 -0.41,-0.51 -0.45,-0.94 -0.48,-3.35"
   id="path860" />
	<path
   class="st4"
   d="m 51.23,115.41 c -0.03,2.32 -0.13,2.7 -0.53,3.2 -0.69,0.94 -2.31,1.28 -6.31,1.28 h -1.16 v 4.59 h 8 v -9.07"
   id="path862" />
	<path
   class="st5"
   d="M 106.08,62.37 81.57,89.18 56.97,62.37 h -5.75 c 0,0 0,9.41 0,9.42 v 43.62 9.07 h 0.01 16.12 0.06 V 115.26 95.9 l 13.18,13.8 h 1.86 L 95.63,95.9 v 19.35 9.23 h 16.11 0.08 v -8.06 -54.05 h -5.74"
   id="path864" />
	<path
   class="st4"
   d="m 176.74,115.84 c -0.01,2.61 -0.07,2.86 -0.5,3.46 -0.64,0.76 -2.14,1.07 -5.84,1.07 h -1.07 v 4.12 h 7.41 z"
   id="path866" />
	<path
   class="st8"
   d="m 124.01,49.09 h -4.87 v 4.39 h 1.16 c 2.17,0 3.09,0 3.48,0.43 0.17,0.25 0.21,0.49 0.23,1.78 v -6.6"
   id="path868" />
	<path
   class="st8"
   d="M 137.84,62.37 H 124 v 27.12 c 0,3.18 0,3.61 -0.31,3.87 -0.31,0.43 -1.24,0.43 -3.41,0.43 h -1.16 v 4.39 h 11.83 V 84.81 h 3.59 3.29 V 62.37"
   id="path870" />
	<path
   class="st9"
   d="m 142.24,49.09 h -4.39 v 13.28 0.01 h 0.19 4.07 c 4.19,0 7,4.48 7,11.15 0,6.75 -2.81,11.28 -7,11.28 h -4.26 v 0 13.36 h 4.39 c 5.58,0 10.46,-1.95 14.12,-5.64 4.4,-4.44 6.78,-11.24 6.7,-19.13 0,-14.54 -8.37,-24.31 -20.82,-24.31 z"
   id="path872" />
	<polyline
   class="st10"
   points="56.97,62.37 51.23,62.37 51.23,71.65 65.49,71.65 56.97,62.37  "
   id="polyline874" />
	<rect
   x="95.629997"
   y="115.26"
   class="st11"
   width="16.190001"
   height="9.2200003"
   id="rect876" />
	<rect
   x="225.02"
   y="62.369999"
   class="st11"
   width="16.190001"
   height="9.2200003"
   id="rect878" />
	<rect
   x="51.23"
   y="115.26"
   class="st11"
   width="16.190001"
   height="9.2200003"
   id="rect880" />
	<rect
   x="124.01"
   y="49.09"
   class="st12"
   width="13.84"
   height="13.29"
   id="rect882" />
	<rect
   x="130.96001"
   y="84.809998"
   class="st12"
   width="6.8800001"
   height="13.36"
   id="rect884" />
	<rect
   x="176.74001"
   y="69.449997"
   class="st10"
   width="13.26"
   height="12.19"
   id="rect886" />
	<rect
   x="185.64999"
   y="97.800003"
   class="st10"
   width="4.3699999"
   height="4.3699999"
   id="rect888" />
	<polyline
   class="st11"
   points="190.02,115.25 176.74,115.25 176.74,124.48 190.02,124.48 190.02,115.25  "
   id="polyline890" />
	<g
   id="g896">
		<path
   class="st6"
   d="m 254.62,62.39 v 4.64 h 1.16 c 4.02,0 5.65,0.35 6.34,1.29 0.54,0.69 0.54,1.12 0.54,6.53 v 9.98 h 13.93 v -9.98 c 0,-5.5 0,-5.85 0.54,-6.53 0.7,-0.95 2.4,-1.29 6.42,-1.29 h 1.16 v -4.64 z"
   id="path892" />
		<path
   class="st6"
   d="m 277.13,118.53 c -0.54,-0.69 -0.54,-0.95 -0.54,-6.45 V 99.6 h -13.93 v 12.48 c 0,5.42 0,5.76 -0.54,6.45 -0.7,0.95 -2.32,1.29 -6.34,1.29 h -1.16 v 4.64 h 30.1 v -4.64 h -1.16 c -4.03,0 -5.73,-0.34 -6.43,-1.29 z"
   id="path894" />
	</g>
	<rect
   x="262.66"
   y="84.830002"
   class="st10"
   width="13.93"
   height="14.77"
   id="rect898" />
</g>
<g
   id="g930"
   clip-path="url(#clipPath939)"
   transform="translate(-43.23,-48.761918)">
	<path
   d="m 556.03,81.15 h 3.09 v 18.78 h 10.38 v 2.58 h -13.47 z"
   id="path902" />
	<path
   d="m 585.16,95.01 h -10.8 c 0.1,3.54 1.71,5.31 4.83,5.31 1.74,0 3.33,-0.57 4.77,-1.71 l 0.93,2.16 c -0.68,0.6 -1.54,1.08 -2.59,1.43 -1.05,0.35 -2.11,0.52 -3.17,0.52 -2.42,0 -4.32,-0.69 -5.7,-2.08 -1.38,-1.39 -2.07,-3.29 -2.07,-5.71 0,-1.54 0.3,-2.91 0.92,-4.11 0.61,-1.2 1.46,-2.13 2.56,-2.79 1.1,-0.66 2.35,-0.99 3.75,-0.99 2.04,0 3.65,0.66 4.82,1.98 1.17,1.32 1.75,3.15 1.75,5.49 z m -9.3,-4.71 c -0.72,0.68 -1.18,1.65 -1.38,2.91 h 8.01 c -0.12,-1.28 -0.51,-2.25 -1.17,-2.93 -0.66,-0.67 -1.55,-1 -2.67,-1 -1.14,0 -2.07,0.34 -2.79,1.02 z"
   id="path904" />
	<path
   d="m 595.69,100.8 0.9,-2.19 c 1.58,1.2 3.39,1.8 5.43,1.8 1.04,0 1.83,-0.17 2.37,-0.52 0.54,-0.35 0.81,-0.84 0.81,-1.48 0,-0.54 -0.18,-0.96 -0.55,-1.27 -0.37,-0.31 -1,-0.57 -1.88,-0.8 l -2.52,-0.6 c -1.32,-0.28 -2.33,-0.77 -3.02,-1.49 -0.69,-0.71 -1.04,-1.59 -1.04,-2.65 0,-1.36 0.54,-2.46 1.64,-3.3 1.09,-0.84 2.54,-1.26 4.33,-1.26 1.08,0 2.1,0.17 3.08,0.51 0.97,0.34 1.79,0.82 2.47,1.44 l -0.93,2.13 c -1.46,-1.16 -3,-1.74 -4.62,-1.74 -0.98,0 -1.74,0.19 -2.28,0.56 -0.54,0.37 -0.81,0.88 -0.81,1.54 0,0.52 0.17,0.94 0.51,1.26 0.34,0.32 0.88,0.57 1.62,0.75 l 2.58,0.63 c 1.44,0.32 2.5,0.82 3.19,1.52 0.69,0.69 1.04,1.58 1.04,2.68 0,1.36 -0.54,2.44 -1.63,3.23 -1.09,0.79 -2.58,1.19 -4.46,1.19 -2.63,-0.02 -4.71,-0.66 -6.23,-1.94 z"
   id="path906" />
	<path
   d="m 614.83,80.79 v 3.18 h -3.51 v -3.18 z m -3.24,6.6 h 3 v 15.12 h -3 z"
   id="path908" />
	<path
   d="m 622.96,89.73 v 7.59 c 0,1.04 0.22,1.77 0.67,2.21 0.45,0.44 1.07,0.65 1.88,0.65 0.52,0 1.05,-0.08 1.59,-0.24 v 2.46 c -0.66,0.22 -1.41,0.33 -2.25,0.33 -1.56,0 -2.77,-0.44 -3.63,-1.32 -0.86,-0.88 -1.29,-2.16 -1.29,-3.84 v -7.83 h -2.94 V 87.4 h 2.94 v -3.78 l 3.03,-1.05 v 4.83 h 4.17 v 2.34 h -4.17 z"
   id="path910" />
	<path
   d="m 642.82,95.01 h -10.8 c 0.1,3.54 1.71,5.31 4.83,5.31 1.74,0 3.33,-0.57 4.77,-1.71 l 0.93,2.16 c -0.68,0.6 -1.54,1.08 -2.59,1.43 -1.05,0.35 -2.11,0.52 -3.17,0.52 -2.42,0 -4.32,-0.69 -5.7,-2.08 -1.38,-1.39 -2.07,-3.29 -2.07,-5.71 0,-1.54 0.3,-2.91 0.92,-4.11 0.61,-1.2 1.46,-2.13 2.56,-2.79 1.1,-0.66 2.35,-0.99 3.75,-0.99 2.04,0 3.65,0.66 4.82,1.98 1.17,1.32 1.75,3.15 1.75,5.49 z m -9.3,-4.71 c -0.72,0.68 -1.18,1.65 -1.38,2.91 h 8.01 c -0.12,-1.28 -0.51,-2.25 -1.17,-2.93 -0.66,-0.67 -1.55,-1 -2.67,-1 -1.14,0 -2.07,0.34 -2.79,1.02 z"
   id="path912" />
	<path
   d="m 667.78,93.09 v 9.42 h -3.03 v -9.24 c 0,-1.32 -0.25,-2.28 -0.77,-2.88 -0.51,-0.6 -1.32,-0.9 -2.44,-0.9 -1.28,0 -2.31,0.4 -3.08,1.2 -0.77,0.8 -1.16,1.87 -1.16,3.21 v 8.61 h -3 V 80.43 h 3 v 9.3 c 0.5,-0.88 1.19,-1.55 2.07,-2.01 0.88,-0.46 1.87,-0.69 2.97,-0.69 3.63,0 5.44,2.02 5.44,6.06 z"
   id="path914" />
	<path
   d="m 685.93,87.39 v 15.12 h -3 v -2.58 c -0.44,0.9 -1.09,1.59 -1.96,2.07 -0.87,0.48 -1.89,0.72 -3.04,0.72 -1.34,0 -2.52,-0.32 -3.53,-0.96 -1.01,-0.64 -1.79,-1.54 -2.35,-2.71 -0.56,-1.17 -0.84,-2.54 -0.84,-4.1 0,-1.56 0.29,-2.94 0.85,-4.14 0.57,-1.2 1.37,-2.13 2.38,-2.79 1.02,-0.66 2.18,-0.99 3.48,-0.99 1.16,0 2.17,0.25 3.03,0.73 0.86,0.49 1.52,1.19 1.98,2.08 v -2.46 h 3 z m -4.13,11.5 c 0.75,-0.95 1.12,-2.28 1.12,-4 0,-1.74 -0.38,-3.08 -1.12,-4.02 -0.75,-0.94 -1.81,-1.41 -3.19,-1.41 -1.36,0 -2.43,0.48 -3.2,1.45 -0.77,0.97 -1.16,2.32 -1.16,4.04 0,1.7 0.38,3.02 1.16,3.96 0.77,0.94 1.84,1.41 3.22,1.41 1.37,0 2.42,-0.48 3.17,-1.43 z"
   id="path916" />
	<path
   d="m 703.84,93.09 v 9.42 h -3.03 v -9.24 c 0,-1.32 -0.25,-2.28 -0.77,-2.88 -0.51,-0.6 -1.32,-0.9 -2.44,-0.9 -1.28,0 -2.31,0.4 -3.08,1.2 -0.77,0.8 -1.16,1.87 -1.16,3.21 v 8.61 h -3 V 91.65 c 0,-1.58 -0.08,-3 -0.24,-4.26 h 2.82 l 0.27,2.61 c 0.48,-0.96 1.17,-1.7 2.08,-2.21 0.91,-0.51 1.94,-0.77 3.1,-0.77 3.64,0.01 5.45,2.03 5.45,6.07 z"
   id="path918" />
	<path
   d="m 721.99,80.43 v 22.08 h -3 v -2.58 c -0.44,0.9 -1.09,1.59 -1.96,2.07 -0.87,0.48 -1.89,0.72 -3.04,0.72 -1.3,0 -2.46,-0.33 -3.48,-0.99 -1.02,-0.66 -1.81,-1.58 -2.38,-2.78 -0.57,-1.19 -0.85,-2.56 -0.85,-4.12 0,-1.56 0.28,-2.93 0.84,-4.11 0.56,-1.18 1.34,-2.09 2.35,-2.73 1.01,-0.64 2.19,-0.96 3.53,-0.96 1.14,0 2.14,0.24 3.01,0.72 0.87,0.48 1.53,1.16 1.96,2.04 v -9.36 z m -4.13,18.46 c 0.75,-0.95 1.12,-2.28 1.12,-4 0,-1.72 -0.38,-3.05 -1.12,-4 -0.75,-0.95 -1.8,-1.42 -3.17,-1.42 -1.38,0 -2.46,0.47 -3.22,1.41 -0.77,0.94 -1.16,2.26 -1.16,3.96 0,1.72 0.38,3.07 1.16,4.04 0.77,0.97 1.83,1.46 3.2,1.46 1.38,-0.02 2.44,-0.5 3.19,-1.45 z"
   id="path920" />
	<path
   d="m 729.67,80.79 v 3.18 h -3.51 v -3.18 z m -3.24,6.6 h 3 v 15.12 h -3 z"
   id="path922" />
	<path
   d="m 736.46,101.76 c -1.13,-0.64 -2,-1.54 -2.6,-2.71 -0.6,-1.17 -0.9,-2.54 -0.9,-4.1 0,-1.56 0.31,-2.94 0.94,-4.14 0.63,-1.2 1.52,-2.13 2.66,-2.79 1.14,-0.66 2.47,-0.99 3.99,-0.99 1.06,0 2.08,0.18 3.06,0.52 0.98,0.35 1.77,0.83 2.37,1.43 l -0.93,2.19 c -1.42,-1.12 -2.85,-1.68 -4.29,-1.68 -1.46,0 -2.6,0.48 -3.42,1.42 -0.82,0.95 -1.23,2.29 -1.23,4.01 0,1.72 0.41,3.04 1.23,3.97 0.82,0.93 1.96,1.4 3.42,1.4 1.48,0 2.91,-0.56 4.29,-1.68 l 0.93,2.19 c -0.64,0.6 -1.46,1.07 -2.45,1.41 -0.99,0.34 -2.02,0.51 -3.1,0.51 -1.51,0 -2.84,-0.32 -3.97,-0.96 z"
   id="path924" />
	<path
   d="m 762.67,87.39 v 15.12 h -3 v -2.58 c -0.44,0.9 -1.09,1.59 -1.96,2.07 -0.87,0.48 -1.89,0.72 -3.04,0.72 -1.34,0 -2.52,-0.32 -3.53,-0.96 -1.01,-0.64 -1.79,-1.54 -2.35,-2.71 -0.56,-1.17 -0.84,-2.54 -0.84,-4.1 0,-1.56 0.29,-2.94 0.85,-4.14 0.57,-1.2 1.37,-2.13 2.38,-2.79 1.02,-0.66 2.18,-0.99 3.48,-0.99 1.16,0 2.17,0.25 3.03,0.73 0.86,0.49 1.52,1.19 1.98,2.08 v -2.46 h 3 z m -4.13,11.5 c 0.75,-0.95 1.12,-2.28 1.12,-4 0,-1.74 -0.38,-3.08 -1.12,-4.02 -0.75,-0.94 -1.81,-1.41 -3.19,-1.41 -1.36,0 -2.43,0.48 -3.2,1.45 -0.77,0.97 -1.16,2.32 -1.16,4.04 0,1.7 0.38,3.02 1.16,3.96 0.77,0.94 1.84,1.41 3.22,1.41 1.37,0 2.42,-0.48 3.17,-1.43 z"
   id="path926" />
	<path
   d="m 778.6,88.02 c 1.02,0.66 1.82,1.59 2.38,2.79 0.57,1.2 0.86,2.58 0.86,4.14 0,1.56 -0.28,2.93 -0.84,4.1 -0.56,1.17 -1.35,2.08 -2.37,2.71 -1.02,0.64 -2.19,0.96 -3.51,0.96 -1.16,0 -2.18,-0.24 -3.05,-0.73 -0.87,-0.49 -1.52,-1.19 -1.96,-2.12 v 9.12 h -3 V 91.65 c 0,-1.58 -0.08,-3 -0.24,-4.26 h 2.82 l 0.3,2.79 c 0.4,-1 1.05,-1.77 1.95,-2.32 0.9,-0.55 1.96,-0.83 3.18,-0.83 1.3,0 2.46,0.33 3.48,0.99 z m -0.99,10.89 c 0.76,-0.94 1.14,-2.26 1.14,-3.96 0,-1.72 -0.38,-3.06 -1.14,-4.04 -0.76,-0.97 -1.82,-1.45 -3.18,-1.45 -1.4,0 -2.47,0.47 -3.21,1.41 -0.74,0.94 -1.11,2.28 -1.11,4.02 0,1.74 0.38,3.08 1.12,4.02 0.75,0.94 1.82,1.41 3.2,1.41 1.36,0 2.42,-0.47 3.18,-1.41 z"
   id="path928" />
</g>
</svg>
