<?xml version="1.0" encoding="utf-8"?>
<!-- Generator: Adobe Illustrator 27.3.1, SVG Export Plug-In . SVG Version: 6.00 Build 0)  -->
<svg version="1.1" xmlns="http://www.w3.org/2000/svg" xmlns:xlink="http://www.w3.org/1999/xlink" x="0px" y="0px"
	 viewBox="0 0 102.9 165.48" style="enable-background:new 0 0 102.9 165.48;" xml:space="preserve">
<style type="text/css">
	.st0{fill:#009E9F;stroke:#FFFFFF;}
	.st1{fill:#0061AC;stroke:#FFFFFF;}
	.st2{fill:#BCCAE8;}
	.st3{fill:#FFFFFF;}
</style>
<path class="st0" d="M0.5,164.97V53.8h101.89v111.18H0.5z"/>
<path class="st1" d="M0.5,103.1V0.51h101.89V103.1H0.5z"/>
<g>
	<path class="st2" d="M26.62,51.29c-1.02-0.67-3.73-2.27-4.39-2.92c-0.8-0.78-1.31-2.09-0.9-3.81H6.8v6.73H26.62z"/>
	<g>
		<path class="st2" d="M45.45,48.48c-0.96,0.57-5.32,2.81-5.32,2.81h7c0-0.36,0.73-1.15,0.73-1.15
			C45.85,50.25,45.45,48.48,45.45,48.48z"/>
	</g>
	<g>
		<path class="st2" d="M58.66,48.48c0.57,0.47,4.48,2.81,4.48,2.81h-6.88c0-0.36-0.45-1.2-0.45-1.2
			C57.97,50.34,58.66,48.48,58.66,48.48z"/>
	</g>
	<path class="st2" d="M76.86,51.29c0,0,4.33-2.22,5.26-3.02c0.81-0.7,2.02-2.3,1.61-3.73h12.48v6.76H76.86z"/>
</g>
<g>
	<g>
		<g>
			<path class="st3" d="M37.22,23.67c1.78,0,3.43-1.45,3.68-3.23c0.25-1.78-0.99-3.23-2.78-3.23c-1.78,0-3.43,1.45-3.68,3.23
				C34.19,22.22,35.43,23.67,37.22,23.67z"/>
			<path class="st3" d="M37.67,20.44"/>
		</g>
		<path class="st3" d="M28.87,23.85"/>
		<path class="st3" d="M36.96,25.29l7.04-3.94c0.7-0.37,1.28-0.53,1.87-0.53c1.67,0,2.84,1.36,2.6,3.03
			c-0.14,1.03-0.79,1.94-1.65,2.48l-5.32,3c0,0-0.72,5.06-1.09,7.68c-0.11,0.76-1.17,1.23-1.79,0.86c-1.06-0.63-3.16-1.98-3.16-1.98
			s-2.47,1.35-3.71,1.98c-0.73,0.37-1.66-0.1-1.55-0.86c0.37-2.62,1.07-7.68,1.07-7.68l-4.48-3c-0.71-0.55-1.09-1.46-0.95-2.48
			c0.24-1.67,1.78-3.03,3.45-3.03c0.59,0,1.13,0.16,1.55,0.45L36.96,25.29z"/>
	</g>
	<g>
		<g>
			<path class="st3" d="M57.04,13.08c1.78,0,3.43-1.45,3.68-3.23c0.25-1.78-0.99-3.23-2.78-3.23c-1.78,0-3.43,1.45-3.68,3.23
				C54.02,11.63,55.26,13.08,57.04,13.08z"/>
			<path class="st3" d="M57.5,9.85"/>
		</g>
		<path class="st3" d="M48.7,13.26"/>
		<path class="st3" d="M56.79,14.7l7.04-3.94c0.7-0.37,1.28-0.53,1.87-0.53c1.67,0,2.84,1.36,2.6,3.03
			c-0.15,1.03-0.79,1.94-1.65,2.48l-5.32,3c0,0-0.72,5.06-1.09,7.68c-0.11,0.76-1.17,1.23-1.79,0.86c-1.06-0.63-3.16-1.98-3.16-1.98
			s-2.47,1.35-3.71,1.98c-0.72,0.37-1.66-0.1-1.55-0.86c0.37-2.62,1.07-7.68,1.07-7.68l-4.48-3c-0.71-0.55-1.09-1.46-0.95-2.48
			c0.24-1.67,1.78-3.03,3.45-3.03c0.59,0,1.13,0.16,1.55,0.45L56.79,14.7z"/>
	</g>
	<g>
		<g>
			<path class="st3" d="M73.83,23.67c1.78,0,3.43-1.45,3.68-3.23c0.25-1.78-0.99-3.23-2.78-3.23c-1.78,0-3.43,1.45-3.68,3.23
				C70.8,22.22,72.04,23.67,73.83,23.67z"/>
			<path class="st3" d="M74.28,20.44"/>
		</g>
		<path class="st3" d="M65.48,23.85"/>
		<path class="st3" d="M73.57,25.29l7.04-3.94c0.7-0.37,1.28-0.53,1.87-0.53c1.67,0,2.84,1.36,2.6,3.03
			c-0.14,1.03-0.79,1.94-1.65,2.48l-5.32,3c0,0-0.72,5.06-1.09,7.68c-0.11,0.76-1.17,1.23-1.79,0.86c-1.06-0.63-3.16-1.98-3.16-1.98
			s-2.47,1.35-3.71,1.98c-0.73,0.37-1.66-0.1-1.55-0.86c0.37-2.62,1.06-7.68,1.06-7.68l-4.48-3c-0.71-0.55-1.09-1.46-0.95-2.48
			c0.24-1.67,1.78-3.03,3.45-3.03c0.59,0,1.13,0.16,1.55,0.45L73.57,25.29z"/>
	</g>
	<g>
		<g>
			<path class="st3" d="M70.75,45.05c1.78,0,3.43-1.45,3.68-3.23c0.25-1.78-0.99-3.23-2.78-3.23c-1.78,0-3.43,1.45-3.68,3.23
				C67.72,43.6,68.96,45.05,70.75,45.05z"/>
			<path class="st3" d="M71.2,41.82"/>
		</g>
		<path class="st3" d="M62.4,45.23"/>
		<path class="st3" d="M70.49,46.67l7.04-3.94c0.7-0.37,1.28-0.53,1.87-0.53c1.67,0,2.84,1.36,2.6,3.03
			c-0.14,1.03-0.79,1.94-1.65,2.48l-5.32,3c0,0-0.72,5.06-1.09,7.68c-0.11,0.76-1.17,1.23-1.79,0.86C71.09,58.63,69,57.28,69,57.28
			s-2.47,1.35-3.71,1.98c-0.73,0.37-1.66-0.1-1.55-0.86c0.37-2.62,1.06-7.68,1.06-7.68l-4.47-3c-0.71-0.55-1.09-1.46-0.95-2.48
			c0.24-1.67,1.78-3.03,3.45-3.03c0.59,0,1.13,0.16,1.55,0.45L70.49,46.67z"/>
	</g>
	<g>
		<g>
			<path class="st3" d="M54.05,34.36c1.78,0,3.43-1.45,3.68-3.23c0.25-1.78-0.99-3.23-2.78-3.23c-1.78,0-3.43,1.45-3.68,3.23
				C51.03,32.91,52.27,34.36,54.05,34.36z"/>
			<path class="st3" d="M54.51,31.13"/>
		</g>
		<path class="st3" d="M45.71,34.54"/>
		<path class="st3" d="M53.8,35.98l7.04-3.94c0.7-0.37,1.28-0.53,1.87-0.53c1.67,0,2.84,1.36,2.6,3.03
			c-0.14,1.03-0.79,1.94-1.65,2.48l-5.32,3c0,0-0.72,5.06-1.09,7.68c-0.11,0.76-1.17,1.23-1.79,0.86c-1.06-0.63-3.16-1.98-3.16-1.98
			s-2.47,1.35-3.71,1.98c-0.72,0.37-1.66-0.1-1.55-0.86c0.36-2.62,1.06-7.68,1.06-7.68l-4.48-3c-0.71-0.55-1.09-1.46-0.95-2.48
			c0.23-1.67,1.78-3.03,3.45-3.03c0.59,0,1.13,0.16,1.55,0.45L53.8,35.98z"/>
	</g>
	<g>
		<g>
			<path class="st3" d="M51.08,55.63c1.78,0,3.43-1.45,3.68-3.23c0.25-1.78-0.99-3.23-2.78-3.23c-1.78,0-3.43,1.45-3.68,3.23
				C48.05,54.19,49.3,55.63,51.08,55.63z"/>
			<path class="st3" d="M51.53,52.41"/>
		</g>
		<path class="st3" d="M42.74,55.82"/>
		<path class="st3" d="M50.83,57.26l7.04-3.94c0.7-0.37,1.28-0.53,1.87-0.53c1.67,0,2.84,1.36,2.6,3.03
			c-0.14,1.03-0.79,1.94-1.65,2.48l-5.32,3c0,0-0.72,5.06-1.09,7.68c-0.11,0.76-1.17,1.23-1.79,0.86c-1.06-0.63-3.16-1.98-3.16-1.98
			s-2.47,1.35-3.71,1.98c-0.72,0.37-1.66-0.1-1.55-0.86c0.36-2.62,1.06-7.68,1.06-7.68l-4.48-3c-0.71-0.55-1.09-1.46-0.95-2.48
			c0.23-1.67,1.78-3.03,3.45-3.03c0.59,0,1.13,0.16,1.55,0.45L50.83,57.26z"/>
	</g>
	<g>
		<g>
			<path class="st3" d="M34.23,44.94c1.78,0,3.43-1.45,3.68-3.23c0.25-1.78-0.99-3.23-2.78-3.23c-1.78,0-3.43,1.45-3.68,3.23
				C31.2,43.5,32.44,44.94,34.23,44.94z"/>
			<path class="st3" d="M34.68,41.71"/>
		</g>
		<path class="st3" d="M25.88,45.13"/>
		<path class="st3" d="M33.97,46.57l7.04-3.94c0.7-0.37,1.28-0.53,1.87-0.53c1.67,0,2.84,1.36,2.6,3.03
			c-0.14,1.03-0.79,1.94-1.65,2.48l-5.32,3c0,0-0.72,5.06-1.09,7.68c-0.11,0.76-1.17,1.23-1.79,0.86c-1.06-0.63-3.16-1.98-3.16-1.98
			s-2.47,1.35-3.71,1.98c-0.73,0.37-1.66-0.1-1.55-0.86c0.37-2.62,1.06-7.68,1.06-7.68l-4.47-3c-0.71-0.55-1.09-1.46-0.95-2.48
			c0.24-1.67,1.78-3.03,3.45-3.03c0.59,0,1.13,0.16,1.55,0.45L33.97,46.57z"/>
	</g>
</g>
<path class="st3" d="M11.8,81.05l1.67-2.79l0.52,2.79H11.8z M14.13,81.78c0.17,0.81,0.26,1.62,0.36,2.52
	c0.35-0.02,0.7-0.06,1.04-0.06c0.35,0,0.68,0.04,1.02,0.06l-1.73-8.34c-0.16,0.02-0.31,0.04-0.46,0.04c-0.16,0-0.3-0.01-0.45-0.04
	l-5.05,8.32c0.19-0.01,0.39-0.04,0.58-0.04c0.19,0,0.37,0.02,0.56,0.04c0.39-0.83,0.84-1.58,1.32-2.49H14.13z"/>
<path class="st3" d="M19.66,83.38c1.05,0,1.95-0.08,2.78-0.17c-0.06,0.17-0.13,0.35-0.16,0.51c-0.03,0.17-0.03,0.35-0.04,0.51h-4.54
	l1.59-8.17c0.29,0.02,0.59,0.06,0.89,0.06c0.3,0,0.61-0.04,0.91-0.06L19.66,83.38z"/>
<path class="st3" d="M25.66,83.38c1.05,0,1.95-0.08,2.78-0.17c-0.06,0.17-0.13,0.35-0.16,0.51c-0.03,0.17-0.03,0.35-0.04,0.51h-4.54
	l1.59-8.17c0.29,0.02,0.59,0.06,0.89,0.06c0.3,0,0.61-0.04,0.91-0.06L25.66,83.38z"/>
<path class="st3" d="M35.28,76.58c1.8,0,2.18,1.77,1.88,3.32c-0.39,1.99-1.57,3.84-3.42,3.84c-1.8,0-2.19-1.65-1.88-3.21
	C32.37,77.84,33.61,76.58,35.28,76.58z M39.1,80.13c0.35-1.86-0.19-4.27-3.6-4.27c-2.99,0-5.1,1.93-5.56,4.32
	c-0.53,2.72,0.95,4.28,3.6,4.28C36.48,84.46,38.66,82.47,39.1,80.13z"/>
<path class="st3" d="M46.43,82.91l-0.46,1.03c-0.79,0.37-1.67,0.51-2.48,0.51c-2.57,0-4.2-1.58-3.72-4.04
	c0.61-3.13,3.04-4.55,5.65-4.55c0.79,0,1.71,0.2,2.33,0.59c-0.19,0.41-0.34,0.82-0.52,1.23h-0.17c-0.32-0.65-1-1.1-1.78-1.1
	c-1.99,0-3.17,1.91-3.51,3.67c-0.4,2.05,0.33,3.49,2.18,3.49c0.74,0,1.68-0.38,2.32-0.9L46.43,82.91z"/>
<path class="st3" d="M49.81,81.05l1.67-2.79L52,81.05H49.81z M52.13,81.78c0.17,0.81,0.26,1.62,0.36,2.52
	c0.35-0.02,0.7-0.06,1.04-0.06c0.35,0,0.68,0.04,1.02,0.06l-1.73-8.34c-0.16,0.02-0.3,0.04-0.46,0.04c-0.16,0-0.3-0.01-0.45-0.04
	l-5.05,8.32c0.19-0.01,0.39-0.04,0.58-0.04c0.19,0,0.37,0.02,0.56,0.04c0.39-0.83,0.83-1.58,1.32-2.49H52.13z"/>
<path class="st3" d="M58.98,84.3c-0.29-0.02-0.59-0.06-0.89-0.06c-0.3,0-0.61,0.04-0.91,0.06l1.43-7.38c-0.85,0-1.62,0.08-2.27,0.17
	c0.06-0.17,0.13-0.34,0.16-0.52c0.03-0.17,0.03-0.34,0.04-0.51h6.18c-0.06,0.17-0.13,0.34-0.16,0.51c-0.04,0.18-0.03,0.35-0.04,0.52
	c-0.69-0.08-1.38-0.17-2.12-0.17L58.98,84.3z"/>
<path class="st3" d="M64.08,76.07c0.29,0.02,0.59,0.06,0.89,0.06c0.3,0,0.61-0.04,0.91-0.06l-1.6,8.23
	c-0.29-0.02-0.59-0.06-0.89-0.06c-0.3,0-0.61,0.04-0.91,0.06L64.08,76.07z"/>
<path class="st3" d="M71.95,76.58c1.8,0,2.18,1.77,1.88,3.32c-0.39,1.99-1.57,3.84-3.42,3.84c-1.8,0-2.19-1.65-1.89-3.21
	C69.04,77.84,70.28,76.58,71.95,76.58z M75.77,80.13c0.35-1.86-0.19-4.27-3.61-4.27c-2.99,0-5.1,1.93-5.56,4.32
	c-0.53,2.72,0.95,4.28,3.6,4.28C73.15,84.46,75.33,82.47,75.77,80.13z"/>
<path class="st3" d="M77.99,76.07h1.18c1.35,1.86,2.78,3.68,4.1,5.62l1.09-5.62c0.15,0.02,0.31,0.04,0.47,0.04
	c0.16,0,0.32-0.01,0.48-0.04l-1.6,8.23l-1.01-0.01c-1.09-1.55-2.1-3.02-3.19-4.45l-1.04-1.37l-1.13,5.81
	c-0.15-0.01-0.31-0.04-0.47-0.04c-0.16,0-0.33,0.02-0.48,0.04L77.99,76.07z"/>
<path class="st3" d="M90.68,77.62c-0.12-0.64-0.49-1.04-1.17-1.04c-0.95,0-1.42,0.49-1.55,1.17c-0.32,1.62,3.39,1.32,2.85,4.06
	c-0.3,1.54-1.83,2.64-3.69,2.64c-0.66,0-1.34-0.16-1.83-0.51c0.24-0.5,0.47-1.01,0.64-1.52h0.23c0.02,0.83,0.57,1.32,1.4,1.32
	c0.75,0,1.49-0.42,1.65-1.25c0.37-1.92-3.34-1.22-2.78-4.11c0.27-1.38,1.44-2.52,3.26-2.52c0.86,0,1.57,0.32,1.78,0.58
	c-0.22,0.38-0.41,0.78-0.61,1.19H90.68z"/>
<path class="st3" d="M18.96,96.42c-0.29-0.02-0.59-0.06-0.89-0.06c-0.3,0-0.61,0.04-0.91,0.06l1.6-8.23h4.57
	c-0.06,0.17-0.13,0.35-0.16,0.52c-0.03,0.17-0.03,0.35-0.04,0.52c-0.72-0.08-1.48-0.17-2.74-0.17l-0.5,2.59h1.27
	c0.47,0,0.96-0.05,1.47-0.11c-0.06,0.17-0.13,0.35-0.16,0.52c-0.03,0.17-0.03,0.35-0.04,0.52c-0.49-0.05-0.96-0.11-1.44-0.11h-1.26
	L18.96,96.42z"/>
<path class="st3" d="M25.32,93.18l1.67-2.79l0.52,2.79H25.32z M27.65,93.91c0.17,0.81,0.26,1.62,0.36,2.52
	c0.35-0.02,0.7-0.06,1.04-0.06c0.35,0,0.68,0.04,1.02,0.06l-1.73-8.34c-0.16,0.02-0.31,0.04-0.46,0.04c-0.16,0-0.3-0.01-0.45-0.04
	l-5.05,8.32c0.19-0.01,0.39-0.04,0.58-0.04c0.19,0,0.37,0.02,0.56,0.04c0.39-0.83,0.83-1.58,1.32-2.49H27.65z"/>
<path class="st3" d="M40.02,88.19c0.16,0.03,0.33,0.06,0.49,0.06c0.17,0,0.35-0.04,0.53-0.06c-0.26,3.23-0.49,5.84-0.54,8.23
	c-0.33-0.02-0.65-0.06-0.98-0.06s-0.64,0.04-0.98,0.06c0.27-1.91,0.39-3.74,0.57-5.59c-1.27,1.84-2.53,3.67-3.74,5.53
	c-0.15-0.02-0.29-0.04-0.46,0c-0.45-1.66-1.04-3.52-1.58-5.4c-0.69,2.11-1.2,3.78-1.57,5.46c-0.19-0.02-0.36-0.06-0.55-0.06
	c-0.19,0-0.37,0.04-0.56,0.06c0.9-2.41,1.82-5.2,2.82-8.23c0.16,0.03,0.31,0.06,0.48,0.06c0.17,0,0.34-0.04,0.52-0.06
	c0.5,1.88,1.09,3.76,1.67,5.64C37.32,92.13,38.71,90.24,40.02,88.19z"/>
<path class="st3" d="M43.59,88.19c0.29,0.03,0.59,0.06,0.89,0.06c0.3,0,0.61-0.04,0.91-0.06l-1.6,8.23
	c-0.29-0.02-0.59-0.06-0.89-0.06c-0.3,0-0.61,0.04-0.91,0.06L43.59,88.19z"/>
<path class="st3" d="M47.84,95.5c1.04,0,1.95-0.08,2.78-0.17c-0.06,0.17-0.13,0.35-0.16,0.51c-0.03,0.17-0.03,0.35-0.04,0.51h-4.54
	l1.59-8.17c0.3,0.03,0.59,0.06,0.89,0.06c0.3,0,0.61-0.04,0.91-0.06L47.84,95.5z"/>
<path class="st3" d="M53.59,88.19c0.3,0.03,0.59,0.06,0.89,0.06c0.3,0,0.61-0.04,0.91-0.06l-1.6,8.23
	c-0.29-0.02-0.59-0.06-0.89-0.06c-0.3,0-0.61,0.04-0.91,0.06L53.59,88.19z"/>
<path class="st3" d="M57.99,93.18l1.67-2.79l0.52,2.79H57.99z M60.31,93.91c0.17,0.81,0.26,1.62,0.36,2.52
	c0.35-0.02,0.7-0.06,1.04-0.06c0.35,0,0.68,0.04,1.02,0.06l-1.73-8.34c-0.16,0.02-0.31,0.04-0.46,0.04c-0.15,0-0.29-0.01-0.45-0.04
	l-5.05,8.32c0.19-0.01,0.39-0.04,0.58-0.04c0.19,0,0.37,0.02,0.56,0.04c0.39-0.83,0.83-1.58,1.32-2.49H60.31z"/>
<path class="st3" d="M65.84,95.5c1.04,0,1.95-0.08,2.78-0.17c-0.06,0.17-0.13,0.35-0.16,0.51c-0.03,0.17-0.03,0.35-0.04,0.51h-4.54
	l1.59-8.17c0.29,0.03,0.59,0.06,0.89,0.06c0.3,0,0.61-0.04,0.91-0.06L65.84,95.5z"/>
<path class="st3" d="M76,88.19c-0.06,0.17-0.13,0.35-0.16,0.52c-0.03,0.17-0.03,0.35-0.04,0.52c-0.71-0.1-1.51-0.19-2.74-0.17
	l-0.5,2.59h1.25c0.54,0,1.04-0.05,1.5-0.11c-0.06,0.17-0.13,0.35-0.16,0.52c-0.03,0.17-0.03,0.35-0.04,0.52
	c-0.43-0.06-0.92-0.11-1.46-0.11H72.4l-0.59,3.04c1.23-0.01,2.05-0.07,2.8-0.17c-0.06,0.17-0.13,0.35-0.16,0.52
	c-0.03,0.17-0.03,0.35-0.04,0.52h-4.57l1.59-8.17H76z"/>
<path class="st3" d="M80.86,89.75c-0.12-0.64-0.49-1.04-1.17-1.04c-0.95,0-1.42,0.49-1.55,1.17c-0.31,1.62,3.39,1.32,2.85,4.06
	c-0.3,1.53-1.83,2.64-3.69,2.64c-0.66,0-1.34-0.16-1.83-0.51c0.24-0.5,0.47-1.01,0.64-1.52h0.23c0.02,0.83,0.57,1.32,1.4,1.32
	c0.74,0,1.49-0.42,1.65-1.25c0.37-1.92-3.34-1.22-2.78-4.11c0.27-1.38,1.44-2.52,3.26-2.52c0.86,0,1.57,0.32,1.78,0.58
	c-0.22,0.38-0.41,0.78-0.61,1.19H80.86z"/>
<g>
	<path class="st3" d="M49.1,120.85l-0.44,1.72c-1.2,0.62-2.62,0.86-3.96,0.86c-4.28,0-7.52-2.64-7.52-6.74c0-5.22,3.6-7.6,7.96-7.6
		c1.32,0,2.92,0.34,4.08,0.98c-0.18,0.68-0.3,1.36-0.46,2.06h-0.28c-0.74-1.08-2.02-1.84-3.32-1.84c-3.32,0-4.66,3.18-4.66,6.12
		c0,3.42,1.68,5.82,4.76,5.82c1.24,0,2.68-0.64,3.58-1.5L49.1,120.85z"/>
	<path class="st3" d="M58.66,121.41c0,0.74,0.22,0.98,1.02,0.94v0.46c-0.48,0.22-1.24,0.54-1.8,0.54c-0.94,0-1.66-0.58-1.98-1.46
		c-0.52,0.92-1.52,1.46-2.56,1.46c-1.64,0-2.86-0.9-2.86-2.64c0-1.9,1.16-2.46,3.66-3.06c0.5-0.12,1.02-0.24,1.46-0.52
		c0.24-0.22,0.3-0.48,0.3-0.78c0-0.96-0.98-1.76-1.9-1.76c-1.28,0-2.32,0.88-2.44,1.24h-0.14l-0.26-1.2
		c0.94-0.88,2.44-1.34,3.7-1.34c1.68,0,3.8,0.68,3.8,2.68V121.41z M55.9,117.93c-0.5,0.22-1.4,0.4-1.98,0.86
		c-0.52,0.42-0.64,1.02-0.64,1.66c0,0.74,0.24,1.6,1.1,1.6c1.22,0,1.48-1.18,1.52-2.18V117.93z"/>
	<path class="st3" d="M60.18,114.75c0.06-0.42,0.06-0.8,0-1.28h1.48c0.16-1.08,0.42-2.26,1.04-3.32c0.98-1.76,2.1-2.42,4.14-2.08
		c-0.14,0.84-0.14,1.8-0.08,2.54l-0.26,0.1c-0.5-0.26-1.18-0.56-1.76-0.56c-0.34,0-0.84,0-1.1,0.26c-0.12,0.12-0.24,0.22-0.24,0.42
		c0,0.54,0.62,2.06,0.88,2.64h2.02c-0.06,0.48-0.06,0.8,0,1.28h-1.88v8.42c-0.46-0.04-0.92-0.1-1.38-0.1c-0.46,0-0.92,0.06-1.38,0.1
		v-8.42H60.18z"/>
	<path class="st3" d="M32.74,138.14c-0.29-0.03-0.57-0.06-0.86-0.06c-0.3,0-0.59,0.04-0.87,0.06v-1.14
		c-0.27,0.77-0.92,1.26-1.78,1.26c-1.92,0-2.56-1.59-2.56-3.26c0-1.65,0.79-3.28,2.51-3.28c0.77,0,1.39,0.26,1.77,0.94v-4.39
		c0.3,0.03,0.6,0.06,0.9,0.06c0.3,0,0.6-0.04,0.9-0.06L32.74,138.14z M28.6,135.03c0,0.75,0.09,2.38,1.14,2.38
		c1.12,0,1.26-1.7,1.26-2.52c0-0.75-0.12-2.33-1.16-2.33C28.73,132.56,28.6,134.21,28.6,135.03z"/>
	<path class="st3" d="M35.88,134.99c-0.04,1.34,0.43,2.42,1.81,2.42c0.53,0,1.12-0.25,1.52-0.58l0.16,0.12l-0.29,0.73
		c-0.52,0.36-1.22,0.58-1.86,0.58c-2.16,0-3.26-1.3-3.26-3.42c0-1.82,1.09-3.12,2.98-3.12c2.04,0,2.81,1.42,2.67,3.28H35.88z
		 M37.8,134.37c0-0.69-0.08-2.07-0.86-2.07c-0.95,0-1.04,1.38-1.07,2.07H37.8z"/>
	<path class="st3" d="M46.6,137.14c1.13,0,2.09-0.09,2.98-0.18c-0.03,0.18-0.07,0.38-0.07,0.56s0.04,0.38,0.07,0.56h-4.93v-8.85
		c0.33,0.03,0.65,0.06,0.98,0.06c0.32,0,0.65-0.04,0.98-0.06V137.14z"/>
	<path class="st3" d="M50.54,135.12c0-2.04,1.18-3.41,3.17-3.41c1.96,0,3.2,1.2,3.2,3.12c0,1.98-1.17,3.42-3.21,3.42
		C51.78,138.25,50.54,137.04,50.54,135.12z M52.47,135.08c0,0.83,0.1,2.59,1.23,2.59c1-0.03,1.29-1.61,1.29-3.04
		c0-1.26-0.32-2.33-1.2-2.33C52.74,132.3,52.47,133.55,52.47,135.08z"/>
	<path class="st3" d="M59.14,128.43c0.56,0,1.04,0.47,1.04,1.03c0,0.56-0.48,1.03-1.04,1.03c-0.56,0-1.01-0.48-1.01-1.03
		C58.12,128.91,58.58,128.43,59.14,128.43z M58.25,131.83c0.3,0.03,0.6,0.07,0.9,0.07c0.3,0,0.6-0.04,0.9-0.07v6.31
		c-0.3-0.03-0.6-0.06-0.9-0.06c-0.3,0-0.6,0.04-0.9,0.06V131.83z"/>
	<path class="st3" d="M61.83,131.83c0.3,0.03,0.6,0.07,0.9,0.07c0.3,0,0.6-0.04,0.9-0.07v1.61c0.27-0.95,0.85-1.73,2.12-1.73
		c-0.06,0.61-0.1,1.21-0.06,1.77l-0.12,0.1c-0.17-0.12-0.45-0.17-0.66-0.17c-0.57,0-1.04,0.3-1.2,0.86
		c-0.12,0.38-0.08,1.09-0.08,1.51v2.35c-0.3-0.03-0.6-0.06-0.9-0.06c-0.3,0-0.6,0.04-0.9,0.06V131.83z"/>
	<path class="st3" d="M68.24,134.99c-0.04,1.34,0.43,2.42,1.81,2.42c0.53,0,1.12-0.25,1.52-0.58l0.16,0.12l-0.29,0.73
		c-0.52,0.36-1.22,0.58-1.86,0.58c-2.16,0-3.26-1.3-3.26-3.42c0-1.82,1.09-3.12,2.98-3.12c2.04,0,2.81,1.42,2.67,3.28H68.24z
		 M70.16,134.37c0-0.69-0.08-2.07-0.86-2.07c-0.95,0-1.04,1.38-1.07,2.07H70.16z"/>
	<path class="st3" d="M72.9,134.48h3.25v1.39H72.9V134.48z"/>
	<path class="st3" d="M24.17,150.42c-0.34,0.99-0.66,1.79-0.91,2.69c-0.21-0.01-0.4-0.04-0.61-0.04s-0.42,0.03-0.62,0.04l3.72-9.01
		c0.17,0.03,0.33,0.04,0.49,0.04c0.17,0,0.32-0.01,0.49-0.04l3.63,9.04c-0.38-0.03-0.74-0.06-1.12-0.06c-0.38,0-0.74,0.04-1.12,0.06
		c-0.3-0.96-0.57-1.85-0.92-2.72H24.17z M26.9,149.63l-1.16-3.03l-1.22,3.03H26.9z"/>
	<path class="st3" d="M33.41,151.37c0,0.9,0.05,1.38,1.21,1.08v0.51c-0.48,0.18-0.95,0.3-1.35,0.3c-1.35,0-1.65-0.9-1.65-2.11v-3.48
		h-0.88c0.04-0.3,0.04-0.53,0-0.83h0.88v-1.47c0.59-0.23,1.17-0.51,1.79-0.81v2.27h1.1c-0.04,0.3-0.04,0.53,0,0.83h-1.1V151.37z"/>
	<path class="st3" d="M37.56,153.14c-0.3-0.03-0.6-0.06-0.9-0.06c-0.3,0-0.6,0.04-0.9,0.06v-9.88c0.3,0.03,0.6,0.06,0.9,0.06
		c0.3,0,0.6-0.04,0.9-0.06V153.14z"/>
	<path class="st3" d="M44.1,151.99c0,0.48,0.14,0.64,0.66,0.61v0.3c-0.31,0.14-0.81,0.35-1.17,0.35c-0.61,0-1.08-0.38-1.29-0.95
		c-0.34,0.6-0.99,0.95-1.66,0.95c-1.07,0-1.86-0.58-1.86-1.72c0-1.23,0.75-1.6,2.38-1.99c0.32-0.08,0.66-0.16,0.95-0.34
		c0.16-0.14,0.2-0.31,0.2-0.51c0-0.62-0.64-1.14-1.24-1.14c-0.83,0-1.51,0.57-1.59,0.81h-0.09l-0.17-0.78
		c0.61-0.57,1.59-0.87,2.4-0.87c1.09,0,2.47,0.44,2.47,1.74V151.99z M42.31,149.73c-0.33,0.14-0.91,0.26-1.29,0.56
		c-0.34,0.27-0.42,0.66-0.42,1.08c0,0.48,0.16,1.04,0.71,1.04c0.79,0,0.96-0.77,0.99-1.42V149.73z"/>
	<path class="st3" d="M45.69,146.83c0.29,0.03,0.57,0.07,0.87,0.07c0.29,0,0.57-0.04,0.86-0.07v0.96c0.52-0.61,1.2-1.08,2-1.08
		c1.64,0,2.05,1.05,2.05,2.61v3.81c-0.3-0.03-0.6-0.06-0.9-0.06c-0.3,0-0.6,0.04-0.9,0.06v-3.24c0-1.21-0.16-2.09-1.07-2.09
		c-1.13,0-1.13,1.52-1.13,2.34v2.99c-0.3-0.03-0.6-0.06-0.9-0.06c-0.3,0-0.6,0.04-0.9,0.06V146.83z"/>
	<path class="st3" d="M55.09,151.37c0,0.9,0.05,1.38,1.21,1.08v0.51c-0.48,0.18-0.95,0.3-1.35,0.3c-1.35,0-1.65-0.9-1.65-2.11v-3.48
		h-0.88c0.04-0.3,0.04-0.53,0-0.83h0.88v-1.47c0.58-0.23,1.17-0.51,1.79-0.81v2.27h1.1c-0.04,0.3-0.04,0.53,0,0.83h-1.1V151.37z"/>
	<path class="st3" d="M58.32,143.43c0.56,0,1.04,0.47,1.04,1.03c0,0.56-0.48,1.03-1.04,1.03s-1.01-0.48-1.01-1.03
		C57.31,143.91,57.76,143.43,58.32,143.43z M57.44,146.83c0.3,0.03,0.6,0.07,0.9,0.07s0.6-0.04,0.9-0.07v6.31
		c-0.3-0.03-0.6-0.06-0.9-0.06s-0.6,0.04-0.9,0.06V146.83z"/>
	<path class="st3" d="M64.95,146.83c0.29,0.03,0.57,0.07,0.87,0.07c0.29,0,0.57-0.04,0.86-0.07v9.61c-0.3-0.03-0.6-0.07-0.9-0.07
		c-0.3,0-0.6,0.04-0.9,0.07v-4.12c-0.29,0.47-0.83,0.94-1.68,0.94c-1.59,0-2.6-1.27-2.6-3.2c0-1.98,0.75-3.34,2.47-3.34
		c0.95,0,1.52,0.42,1.87,1.26V146.83z M62.59,150.82c0.05,0.62,0.4,1.59,1.16,1.59c1.08,0,1.18-1.51,1.18-2.3
		c0-0.82-0.1-2.55-1.26-2.55c-1.05,0-1.13,1.6-1.13,2.35C62.53,150.21,62.56,150.52,62.59,150.82z"/>
	<path class="st3" d="M73.82,153.14c-0.29-0.03-0.57-0.06-0.86-0.06c-0.3,0-0.59,0.04-0.87,0.06v-0.95
		c-0.61,0.65-1.07,1.07-1.98,1.07c-0.66,0-1.35-0.25-1.74-0.81c-0.4-0.56-0.34-1.37-0.34-2.02v-3.6c0.3,0.03,0.6,0.07,0.9,0.07
		c0.3,0,0.6-0.04,0.9-0.07v3.59c0,0.3,0.01,0.81,0.14,1.08c0.17,0.4,0.47,0.68,0.92,0.68c1.13,0,1.13-1.13,1.13-1.95v-3.39
		c0.3,0.03,0.6,0.07,0.9,0.07c0.3,0,0.6-0.04,0.9-0.07V153.14z"/>
	<path class="st3" d="M76.98,149.99c-0.04,1.34,0.43,2.42,1.81,2.42c0.53,0,1.12-0.25,1.52-0.58l0.16,0.12l-0.29,0.73
		c-0.52,0.36-1.22,0.58-1.86,0.58c-2.16,0-3.26-1.3-3.26-3.42c0-1.82,1.09-3.12,2.98-3.12c2.04,0,2.81,1.42,2.67,3.28H76.98z
		 M78.9,149.37c0-0.69-0.08-2.07-0.86-2.07c-0.95,0-1.04,1.38-1.07,2.07H78.9z"/>
</g>
</svg>
