<?xml version="1.0" encoding="utf-8"?>
<!-- Generator: Adobe Illustrator 25.1.0, SVG Export Plug-In . SVG Version: 6.00 Build 0)  -->
<svg version="1.1" id="Calque_1" xmlns="http://www.w3.org/2000/svg" xmlns:xlink="http://www.w3.org/1999/xlink" x="0px" y="0px"
	 viewBox="0 0 124.1 56.7" style="enable-background:new 0 0 124.1 56.7;" xml:space="preserve">
<style type="text/css">
	.st0{fill:#FFFFFF;}
	.st1{fill:none;}
</style>
<g id="Calque_2_1_">
	<g id="Calque_1-2">
		<path class="st0" d="M50.8,9.1h4.8l1.9,6.5c0.6,1.9,1.2,5.5,1.2,5.5h0.1c0,0,0.6-3.6,1.2-5.5l1.9-6.5h4.8v15.5h-3.3v-6.9
			c0-2,0.2-5.6,0.2-5.6l0,0c0,0-0.7,3.3-1.2,5.1l-2.2,7.4h-3L55,17.2c-0.5-1.8-1.2-5.1-1.2-5.1l0,0c0,0,0.2,3.6,0.2,5.6v6.9h-3.2
			V9.1z"/>
		<path class="st0" d="M75.8,24.6V23h-0.1c-0.7,1.2-2,2-3.3,1.9c-2.5,0-3.9-1.6-3.9-4.1v-7.4h3.3v6.7c0,1.2,0.6,1.9,1.8,1.9
			c1.2,0,2.1-1,2.1-2.2c0-0.1,0-0.1,0-0.2v-6.3h3.2v11.1h-3.1V24.6z"/>
		<path class="st0" d="M80,21.2h3c0.2,1.1,1.2,1.8,2.2,1.6c1.2,0,1.8-0.5,1.8-1.3c0-1-1.3-1.1-2.8-1.4c-2-0.4-4-0.9-4-3.5
			c0-2.3,2.1-3.5,4.7-3.5c3.1,0,4.7,1.3,5,3.3h-3c-0.2-0.8-0.9-1.2-1.9-1.2s-1.7,0.4-1.7,1.1c0,0.7,1.2,1,2.7,1.2
			c2,0.4,4.2,0.9,4.2,3.7c0,2.4-2.1,3.6-5,3.6C82.1,25,80.2,23.4,80,21.2"/>
		<path class="st0" d="M96.5,8.5h3.8l-2.5,3.4h-2.4L96.5,8.5z M94.2,18h4.7c-0.1-1.5-0.9-2.5-2.3-2.5C95.2,15.5,94.4,16.5,94.2,18
			 M91,19.1c-0.2-3.1,2.2-5.7,5.3-5.9c0.1,0,0.3,0,0.4,0c1.4,0,2.8,0.5,3.8,1.4c1.3,1.4,1.9,3.3,1.8,5.3h-8.1
			c0.2,1.7,1.1,2.7,2.7,2.7c0.8,0.1,1.6-0.3,2-1.1h3.2c-0.6,2-2.4,3.5-5.2,3.5c-3.1,0.1-5.7-2.3-5.8-5.3C91,19.4,91,19.3,91,19.1"/>
		<path class="st0" d="M106.2,18h4.8c-0.2-1.5-1-2.5-2.3-2.5C107.2,15.5,106.4,16.5,106.2,18 M103,19.1c-0.2-3.1,2.2-5.7,5.3-5.9
			c0.1,0,0.3,0,0.4,0c1.4,0,2.8,0.5,3.8,1.4c1.3,1.4,1.9,3.3,1.8,5.3h-8.1c0.2,1.7,1.1,2.7,2.7,2.7c0.8,0.1,1.6-0.3,2-1.1h3.2
			c-0.6,2-2.4,3.5-5.2,3.5c-3.1,0.1-5.7-2.2-5.8-5.3C103,19.4,103,19.3,103,19.1"/>
		<path class="st0" d="M56.9,32.4c-0.3,0-0.6,0.2-0.6,0.6v0.1v13.7c0,0.5,0.3,0.9,0.7,0.9h2.3c3.3,0,5.3-2.8,5.3-7.3
			c0-3.3-0.5-5.3-1.8-6.6c-0.9-0.9-2.1-1.3-3.3-1.3h-2.6V32.4z M50.4,32h8.9c4.4,0.1,8,3.8,8,8.2C67.1,44.6,63.5,48,59,48h-8.6v-0.4
			h2.3c0.8,0,1.2-0.5,1.2-1.4V33.7c0-0.9-0.4-1.4-1.2-1.4h-2.3V32z"/>
		<path class="st0" d="M77.5,42.9c0-3.2-1-4.8-3-4.8s-3.1,1.5-3.1,5c0,3.2,1,4.8,3,4.8C76.6,47.9,77.5,46.4,77.5,42.9 M69.4,43
			c0-2.8,2.2-5.2,5-5.3c2.9,0,5.2,2.4,5.2,5.2c0,0,0,0,0,0.1c0,2.8-2.2,5.1-5,5.1C71.7,48.1,69.4,45.8,69.4,43"/>
		<path class="st0" d="M84.8,43.1c0,2,0.3,3.1,1.1,3.9c0.5,0.5,1.1,0.8,1.8,0.8c2.5,0,2.7-2.9,2.7-5.3c0-4.1-1.6-4.5-2.6-4.5
			C86,38.1,84.8,40.1,84.8,43.1 M83,33.7c0-0.7-0.5-1.3-1.2-1.3c-0.1,0-0.2,0-0.2,0H81V32c1.1,0,2.2-0.1,3.3-0.3h0.5v8.5
			c0.7-1.7,1.8-2.6,3.1-2.6c2.3,0,4.5,2.5,4.5,5.1c0,2.9-2.3,5.5-4.7,5.5c-1.5,0-2.7-1-3.6-2.7c-0.4,0.8-0.7,1.7-0.8,2.7H83V33.7z"
			/>
		<path class="st0" d="M96.8,39.5c0-0.7-0.4-1.1-1.2-1.1h-0.7V38c0.9,0,1.7,0,2.1-0.1l1.3-0.2h0.3v2.7c0.6-1.4,1.2-2.8,2.8-2.8
			c1-0.1,1.9,0.7,1.9,1.7c0,0.1,0,0.1,0,0.2c0.1,0.6-0.4,1.2-1,1.3c-0.6,0-1-0.4-1-1v-0.1c0-0.4,0.2-0.8,0.6-1
			c0.2-0.2,0.3-0.3,0.3-0.4s-0.2-0.4-0.7-0.4s-1,0.2-1.4,0.5c-1.3,1.3-1.4,3.3-1.4,4.8v3c0,0.9,0.2,1.2,1,1.2h0.8V48H95v-0.4h0.8
			c0.7,0,1-0.3,1-1.2V39.5z"/>
		<path class="st0" d="M108.3,36h-0.5l1.4-2.3c0.6-1.1,1-1.4,1.4-1.4s0.7,0.3,0.7,0.7s-0.3,0.7-1,1.2L108.3,36z M110.6,42.1
			c0.5,0,0.7-0.2,0.7-0.8c0-2-1-3.3-2.6-3.3c-0.9,0-1.7,0.7-2,1.6c-0.3,0.8-0.5,1.6-0.4,2.5H110.6z M113.5,44.2
			c-0.1,0.6-0.3,1.2-0.7,1.8c-0.8,1.4-2.2,2.2-3.8,2.3c-2.7,0-4.8-2.4-4.8-5.4c0-2.9,2-5.2,4.5-5.2s4.4,2,4.6,4.9h-7.1
			c0,1.6-0.1,5.2,2.9,5.2c1.9,0,3.4-1.4,3.9-3.6H113.5z"/>
		<path class="st0" d="M121.2,42.1c0.5,0,0.7-0.2,0.7-0.8c0-2-1-3.3-2.6-3.3c-0.9,0-1.8,0.7-2.1,1.6c-0.3,0.8-0.5,1.6-0.4,2.5H121.2
			z M124.1,44.2c-0.1,0.6-0.3,1.3-0.7,1.8c-0.8,1.4-2.2,2.3-3.8,2.3c-2.7,0-4.8-2.4-4.8-5.4c0-2.9,2-5.2,4.5-5.2s4.4,2,4.7,4.9h-7.1
			c0,1.6,0,5.2,3,5.2c1.9,0,3.4-1.4,3.9-3.6H124.1z"/>
		<rect y="15.1" class="st0" width="5.2" height="27.2"/>
		<path class="st0" d="M19.5,18.8c5.2,5.5,5.2,14.1,0,19.6C14.3,32.9,14.3,24.3,19.5,18.8 M33.1,14.3V9.1H30c-3.7,0-7.3,1-10.5,3
			c-3.1-2-6.8-3-10.5-3H6v5.2h3.1c2.2,0,4.3,0.5,6.2,1.4c-6.5,7.4-6.5,18.4,0,25.8c-1.9,0.9-4.1,1.4-6.2,1.4H6v5.2h3.1
			c3.7,0,7.3-1,10.5-3c3.1,2,6.8,3,10.5,3h3.1V43H30c-2.2,0-4.3-0.5-6.2-1.5c6.5-7.4,6.5-18.4,0-25.8c2-0.9,4.1-1.4,6.2-1.4
			C30,14.3,33.1,14.3,33.1,14.3z"/>
		<rect x="33.9" y="15.1" class="st0" width="5.2" height="27.2"/>
	</g>
</g>
<rect class="st1" width="124.1" height="56.7"/>
</svg>
