<?xml version="1.0" encoding="utf-8"?>
<!-- Generator: Adobe Illustrator 27.5.0, SVG Export Plug-In . SVG Version: 6.00 Build 0)  -->
<svg version="1.1" id="Calque_1" xmlns="http://www.w3.org/2000/svg" xmlns:xlink="http://www.w3.org/1999/xlink" x="0px" y="0px"
	 viewBox="0 0 253.8 56.7" style="enable-background:new 0 0 253.8 56.7;" xml:space="preserve">
<style type="text/css">
	.st0{fill:#FFFFFF;}
</style>
<g>
	<g>
		<path class="st0" d="M56.1,32.1c2.3,0,3.7-0.2,3.7-0.2c0.2,0,0.2,0,0.3,0h0.3v14.4c0,1,0.5,1.5,1.4,1.5h0.7v0.4h-1.9
			c-0.6,0-1.4,0.1-1.8,0.2h-0.2v-2.9c-0.4,0.8-1.3,2.9-3.6,2.9c-2.4,0-4.6-2.5-4.6-5.3c0-2.9,2.1-5.2,4.6-5.2c1.5,0,2.6,0.8,3.6,2.6
			v-6.5c0-0.9-0.5-1.5-1.4-1.5h-1.1V32.1z M58.6,42.8c0-2.5-1.5-4.5-3.3-4.5c-0.6,0-1.2,0.2-1.7,0.7c-0.8,0.8-1,1.9-1,4.3
			c0,2.4,0.4,3.6,1.4,4.3c0.4,0.3,0.8,0.4,1.3,0.4C57.3,47.9,58.6,45.8,58.6,42.8z"/>
		<path class="st0" d="M72.9,44.3c-0.2,0.9-0.3,1.2-0.7,1.8c-0.9,1.5-2.3,2.3-3.8,2.3c-2.7,0-4.8-2.4-4.8-5.4c0-2.9,2-5.2,4.5-5.2
			c2.4,0,4.4,2,4.6,4.9h-7.1c0,1.6,0,5.2,3,5.2c1.9,0,3.4-1.4,3.9-3.6H72.9z M70.1,42.2c0.5,0,0.7-0.2,0.7-0.8c0-2-1-3.3-2.5-3.3
			c-0.9,0-1.6,0.6-2,1.6c-0.3,0.8-0.4,1.2-0.4,2.5H70.1z"/>
		<path class="st0" d="M79.6,47.8h2c0.8,0,1.1-0.4,1.2-1.4V33.8c0-0.9-0.4-1.4-1.2-1.4h-2v-0.4h8.4v0.4h-1.6c-0.8,0-1.2,0.5-1.2,1.4
			v12.7c0,0.8,0.3,1.2,1,1.2h1.7c2.7,0,5.1-2.4,5.8-5.9h0.3l-0.2,6.3H79.6V47.8z"/>
		<path class="st0" d="M95.8,43.1c0-2.8,2.4-5.4,5-5.4c2.9,0,5.2,2.4,5.2,5.3c0,3.2-2.9,5.5-5.2,5.3C98,48.2,95.8,45.9,95.8,43.1z
			 M104,43c0-3.2-1-4.8-3-4.8c-2.2,0-3.1,1.5-3.1,5c0,3.2,1,4.8,3,4.8C103,48,104,46.5,104,43z"/>
		<path class="st0" d="M111.1,37.9c0,1.6,0,3.3,0,4.9c0,4.1,0,4.2,0.1,4.5c0.1,0.2,0.2,0.5,0.9,0.5h0.8v0.4h-5.3v-0.4h0.8
			c0.7,0,1-0.3,1-1.2v-7c0-0.7-0.4-1.1-1.2-1.1h-0.7v-0.4c0.9,0,1.7,0,2.1-0.1l1.3-0.2H111.1z M109,33.4c0-0.6,0.5-1.2,1.2-1.2
			c0.6,0,1.2,0.5,1.2,1.2c0,0.6-0.5,1.2-1.2,1.2C109.5,34.6,109,34.1,109,33.4z"/>
		<path class="st0" d="M116.6,39.6c0-0.7-0.4-1.1-1.2-1.1h-0.7v-0.4c0.9,0,1.7,0,2.1-0.1l1.3-0.2h0.3v2.7c0.6-1.4,1.2-2.8,2.8-2.8
			c1.1,0,1.9,0.8,1.9,1.9c0,0.7-0.5,1.3-1,1.3c-0.6,0-1-0.5-1-1.1c0-0.4,0.2-0.7,0.5-1c0.2-0.2,0.3-0.3,0.3-0.4
			c0-0.2-0.2-0.4-0.7-0.4c-0.5,0-1,0.2-1.4,0.5c-1.4,1.3-1.4,3.3-1.5,4.9v3c0,0.9,0.2,1.2,1,1.2h0.8v0.4h-5.3v-0.4h0.8
			c0.7,0,1-0.3,1-1.2V39.6z"/>
		<path class="st0" d="M133.3,44.3c-0.2,0.9-0.3,1.2-0.7,1.8c-0.9,1.5-2.3,2.3-3.8,2.3c-2.7,0-4.8-2.4-4.8-5.4c0-2.9,2-5.2,4.5-5.2
			c2.4,0,4.4,2,4.6,4.9h-7.1c0,1.6,0,5.2,3,5.2c1.9,0,3.4-1.4,3.9-3.6H133.3z M130.4,42.2c0.5,0,0.7-0.2,0.7-0.8c0-2-1-3.3-2.5-3.3
			c-0.9,0-1.6,0.6-2,1.6c-0.3,0.8-0.4,1.2-0.4,2.5H130.4z"/>
		<path class="st0" d="M135.2,42.5h5.1v1h-5.1V42.5z"/>
		<path class="st0" d="M142.2,47.8c2.3,0,2.9-1.7,3.5-3.4l4.7-12.6h0.9l4.7,13.8c0.7,1.9,0.9,2.1,2.1,2.1h0.4v0.4h-7.5v-0.4h2
			c0.5,0,0.9-0.2,0.9-0.7c0-0.2,0-0.5-0.1-0.7l-1.2-3.6h-6l-0.2,0.4c-0.5,1.4-0.7,2.2-0.7,2.7c0,1.1,1,1.9,2.6,1.9h0.6v0.4h-6.8
			V47.8z M149.9,34.4l-2.9,7.8h5.5L149.9,34.4z"/>
		<path class="st0" d="M159.6,38.4c2.4-0.8,3.1-2.7,3.5-4.9h0.5v4.7h3.3v0.7h-3.3V46c0,1,0.6,1.7,1.4,1.7c1.6,0,2.4-1.6,2.4-4.9h0.3
			c0,2.6-0.3,3.9-1.2,4.7c-0.5,0.5-1.3,0.8-2.1,0.8c-1.7,0-2.7-1-2.7-2.8v-6.6h-2.1V38.4z"/>
		<path class="st0" d="M170.9,33.9c0-0.9-0.3-1.3-1-1.3H169v-0.4c0.8,0,1.7-0.1,2-0.1l1.2-0.1h0.5c0,4.2,0,7.1,0,9
			c0,6.5,0,6.3,0.3,6.6c0.2,0.1,0.4,0.2,0.7,0.2h0.8v0.4h-5.3v-0.4h0.8c0.7,0,1-0.3,1-1.2V33.9z"/>
		<path class="st0" d="M187,43.8c0,3.1-0.8,4.6-2.3,4.6c-1,0-1.6-0.8-1.9-2.5c-0.8,1.8-1.8,2.5-3.4,2.5c-1.6,0-3-1.2-3-2.6
			c0-0.6,0.3-1.2,0.7-1.7c0.6-0.6,1.4-1,3.1-1.3c1.3-0.3,1.5-0.4,2.3-0.7v-1.7c0-1.3-0.8-2-2.3-2c-1,0-2.1,0.5-2.1,1
			c0,0.2,0.1,0.3,0.4,0.4c0.5,0.3,0.7,0.6,0.7,1c0,0.6-0.5,1-1,1c-0.6,0-1.2-0.6-1.2-1.4c0-1.5,1.6-2.7,3.7-2.7
			c2.4,0,3.6,1.1,3.6,3.2v4.6c0,1.2,0.3,1.9,0.9,1.9c0.8,0,1.2-0.9,1.3-3.2l0-0.5L187,43.8z M182.7,42.5c-0.5,0.2-0.7,0.3-1.4,0.5
			c-1.1,0.3-2.9,0.8-2.9,2.8c0,1.2,0.7,2,1.6,2c1.5,0,2.7-1.6,2.7-3.4V42.5z"/>
		<path class="st0" d="M191.8,40.9c0.9-2.6,3-3.1,3.6-3.1c0.8,0,1.7,0.3,2.1,0.8c1,1,1,2.3,1.1,3.2v4.7c0,0.9,0.3,1.2,1,1.2h0.8v0.4
			h-5.3v-0.4h0.8c0.7,0,1-0.3,1-1.2v-5.3c0-2-0.5-2.9-1.8-2.9c-1.9,0-3.3,2.1-3.3,5.1v3.1c0,0.9,0.2,1.2,1,1.2h0.8v0.4h-5.3v-0.4
			h0.8c0.7,0,1-0.3,1-1.2v-7.1c0-0.7-0.4-1-1.2-1h-0.6v-0.4h0.8c0.2,0,1.4-0.1,1.7-0.1c0.5-0.1,0.7-0.1,0.7-0.1h0.5V40.9z"/>
		<path class="st0" d="M201.3,38.4c2.4-0.8,3.1-2.7,3.5-4.9h0.5v4.7h3.3v0.7h-3.3V46c0,1,0.6,1.7,1.4,1.7c1.6,0,2.4-1.6,2.4-4.9h0.3
			c0,2.6-0.3,3.9-1.2,4.7c-0.5,0.5-1.3,0.8-2.1,0.8c-1.7,0-2.7-1-2.7-2.8v-6.6h-2.1V38.4z"/>
		<path class="st0" d="M214.3,37.9c0,1.6,0,3.3,0,4.9c0,4.1,0,4.2,0.1,4.5c0.1,0.2,0.2,0.5,0.9,0.5h0.8v0.4h-5.3v-0.4h0.8
			c0.7,0,1-0.3,1-1.2v-7c0-0.7-0.4-1.1-1.2-1.1h-0.7v-0.4c0.9,0,1.7,0,2.1-0.1l1.3-0.2H214.3z M212.2,33.4c0-0.6,0.5-1.2,1.2-1.2
			c0.6,0,1.2,0.5,1.2,1.2c0,0.6-0.5,1.2-1.2,1.2C212.8,34.6,212.2,34.1,212.2,33.4z"/>
		<path class="st0" d="M228.4,37.8c0,4.2,0,7,0,8.9c0,6.4,0,6.2,0.3,6.5c0.2,0.1,0.4,0.2,0.7,0.2h0.8v0.4h-5.3v-0.4h0.8
			c0.7,0,1-0.3,1-1.2v-6.5c-0.8,1.8-2,2.7-3.6,2.7c-2.3,0-4.5-2.6-4.5-5.4c0-2.9,2.2-5.3,4.8-5.3c1.6,0,2.9,1,3.7,2.9
			c0.5-0.6,0.8-1.5,0.9-2.7H228.4z M226.7,42.7c0-3-1.2-4.7-3.3-4.7c-0.7,0-1.3,0.3-1.8,0.7c-0.8,0.8-1.1,2-1.1,4.4
			c0,2.6,0.8,4.7,2.7,4.7C225.3,47.8,226.7,45.8,226.7,42.7z"/>
		<path class="st0" d="M230.8,38.2c0.7,0,1.8,0,2.6-0.2c0.4-0.1,0.6-0.1,0.6-0.1h0.5v7.8c0,1.3,0.5,2,1.5,2c1.7,0,3.2-2.3,3.2-5
			v-3.1c0-0.8-0.4-1.1-1.3-1.1h-1.2v-0.4h1.4c0.5,0,1.3-0.1,2-0.2c0.1,0,0.2,0,0.2,0h0.6v8.6c0,0.9,0.4,1.3,1.3,1.3h0.5v0.4h-2.4
			c0,0-0.3,0-0.5,0c-0.3,0-0.5,0-0.6,0v-2.9c-0.9,2-2.2,3-3.7,3c-1.6,0-2.8-1.3-2.8-3.1v-5.8c0-0.5-0.5-1-1-1h-1V38.2z"/>
		<path class="st0" d="M253.9,44.3c-0.2,0.9-0.3,1.2-0.7,1.8c-0.9,1.5-2.3,2.3-3.8,2.3c-2.7,0-4.8-2.4-4.8-5.4c0-2.9,2-5.2,4.5-5.2
			c2.4,0,4.4,2,4.6,4.9h-7.1c0,1.6,0,5.2,3,5.2c1.9,0,3.4-1.4,3.9-3.6H253.9z M251.1,42.2c0.5,0,0.7-0.2,0.7-0.8c0-2-1-3.3-2.5-3.3
			c-0.9,0-1.6,0.6-2,1.6c-0.3,0.8-0.4,1.2-0.4,2.5H251.1z"/>
	</g>
	<g>
		<rect x="16.6" y="31.5" class="st0" width="5.6" height="5.6"/>
		<rect x="-0.2" y="42.7" class="st0" width="5.6" height="5.6"/>
		<rect x="11" y="42.7" class="st0" width="5.6" height="5.6"/>
		<rect x="22.2" y="42.7" class="st0" width="5.6" height="5.6"/>
		<rect x="33.3" y="42.7" class="st0" width="5.6" height="5.6"/>
		<rect x="-0.2" y="9.2" class="st0" width="39.1" height="5.6"/>
		<rect x="-0.2" y="20.4" class="st0" width="16.8" height="5.6"/>
		<rect x="22.2" y="20.4" class="st0" width="16.8" height="5.6"/>
		<rect x="-0.2" y="31.5" class="st0" width="11.2" height="5.6"/>
		<rect x="27.7" y="31.5" class="st0" width="11.2" height="5.6"/>
	</g>
	<g>
		<path class="st0" d="M50.2,20.3h3.6c0.2,1.7,1.3,2.4,3.3,2.4c1.4,0,2.7-0.5,2.7-1.8c0-1.3-1.3-1.6-3.5-2.2c-3-0.7-5.5-1.4-5.5-4.6
			c0-3.2,2.6-4.6,6-4.6c3.4,0,5.8,1.6,6,4.6h-3.5c-0.2-1.2-1.1-1.9-2.7-1.9c-1.5,0-2.4,0.6-2.4,1.6c0,1.2,1.3,1.5,3.8,2
			c2.8,0.6,5.3,1.5,5.3,4.8c0,3.2-2.7,5-6.2,5C52.9,25.6,50.3,23.7,50.2,20.3z"/>
		<path class="st0" d="M64.7,19.7c0-3.3,2.3-5.9,5.7-5.9c1.6,0,2.8,0.5,3.8,1.4c1.2,1.2,1.8,3.1,1.8,5.3h-8.1
			c0.2,1.7,1.1,2.7,2.7,2.7c1,0,1.7-0.4,2-1.1h3.2c-0.6,2-2.4,3.4-5.2,3.4C66.9,25.6,64.7,23,64.7,19.7z M67.9,18.6h4.7
			c-0.1-1.5-1-2.5-2.3-2.5C68.9,16.2,68.1,17.1,67.9,18.6z"/>
		<path class="st0" d="M80.8,16.2L80.8,16.2c0.8-1.5,1.8-2.2,3.1-2.2c0.3,0,0.5,0,0.7,0.1v2.8h-0.1c-0.2,0-0.5-0.1-0.7-0.1
			c-1.8,0-2.9,1.1-2.9,3.2v5.1h-3.3v-11h3.1V16.2z"/>
		<path class="st0" d="M85.5,14.2h3.4l1.3,4.4c0.5,1.5,0.9,3.9,0.9,3.9h0.1c0,0,0.4-2.4,0.9-3.9l1.4-4.4h3.3l-3.9,11h-3.5L85.5,14.2
			z"/>
		<path class="st0" d="M97.9,9.8h3.3v2.8h-3.3V9.8z M98,14.2h3.3v11H98V14.2z"/>
		<path class="st0" d="M102.9,19.7c0-3.3,2.3-5.9,5.7-5.9c2.9,0,4.8,1.7,5.2,4.1h-3.2c-0.2-1-0.9-1.7-2-1.7c-1.6,0-2.5,1.3-2.5,3.4
			c0,2,0.8,3.4,2.5,3.4c1.2,0,1.9-0.7,2.1-2h3.1c-0.1,2.5-2.1,4.5-5.2,4.5C105.2,25.6,102.9,23,102.9,19.7z"/>
		<path class="st0" d="M114.9,19.7c0-3.3,2.3-5.9,5.7-5.9c1.6,0,2.8,0.5,3.8,1.4c1.2,1.2,1.8,3.1,1.8,5.3h-8.1
			c0.2,1.7,1.1,2.7,2.7,2.7c1,0,1.7-0.4,2-1.1h3.2c-0.6,2-2.4,3.4-5.2,3.4C117.1,25.6,114.9,23,114.9,19.7z M118.1,18.6h4.7
			c-0.1-1.5-1-2.5-2.3-2.5C119.1,16.2,118.3,17.1,118.1,18.6z"/>
		<path class="st0" d="M137.6,9.8h3.7l5.6,15.4h-3.7l-1-2.9h-5.6l-1,2.9H132L137.6,9.8z M137.4,19.7h4l-0.9-2.9
			c-0.7-2.1-1-4.1-1-4.1h0c0,0-0.5,2.6-1,4.1L137.4,19.7z"/>
		<path class="st0" d="M151.3,16.2L151.3,16.2c0.8-1.5,1.8-2.2,3.1-2.2c0.3,0,0.5,0,0.7,0.1v2.8h-0.1c-0.2,0-0.5-0.1-0.7-0.1
			c-1.8,0-2.9,1.1-2.9,3.2v5.1h-3.3v-11h3.1V16.2z"/>
		<path class="st0" d="M156,19.7c0-3.3,2.3-5.9,5.7-5.9c2.9,0,4.8,1.7,5.2,4.1h-3.2c-0.2-1-0.9-1.7-2-1.7c-1.6,0-2.5,1.3-2.5,3.4
			c0,2,0.8,3.4,2.5,3.4c1.2,0,1.9-0.7,2.1-2h3.1c-0.1,2.5-2.1,4.5-5.2,4.5C158.3,25.6,156,23,156,19.7z"/>
		<path class="st0" d="M171.8,15.8L171.8,15.8c0.7-1.2,1.8-1.9,3.4-1.9c2.4,0,3.8,1.6,3.8,4.1v7.3h-3.2v-6.6c0-1.2-0.6-2-1.8-2
			c-1.3,0-2.1,1-2.1,2.4v6.2h-3.3V9.8h3.3V14C171.8,14.1,171.8,15,171.8,15.8z"/>
		<path class="st0" d="M180.6,19.7c0-3.3,2.3-5.9,5.7-5.9c1.6,0,2.8,0.5,3.8,1.4c1.2,1.2,1.8,3.1,1.8,5.3h-8.1
			c0.2,1.7,1.1,2.7,2.7,2.7c1,0,1.7-0.4,2-1.1h3.2c-0.6,2-2.4,3.4-5.2,3.4C182.9,25.6,180.6,23,180.6,19.7z M183.9,18.6h4.7
			c-0.1-1.5-1-2.5-2.3-2.5C184.8,16.2,184.1,17.1,183.9,18.6z M186.1,9.2h3.8l-2.5,3.3H185L186.1,9.2z"/>
		<path class="st0" d="M193.1,19.7c0-3.3,2.3-5.9,5.9-5.9c3.5,0,5.8,2.5,5.8,5.9c0,3.3-2.3,5.9-5.8,5.9
			C195.4,25.6,193.1,23,193.1,19.7z M201.4,19.7c0-2.1-0.9-3.5-2.5-3.5c-1.7,0-2.5,1.4-2.5,3.5c0,2.1,0.9,3.5,2.5,3.5
			C200.5,23.2,201.4,21.8,201.4,19.7z"/>
		<path class="st0" d="M206.4,9.8h3.3v15.4h-3.3V9.8z"/>
		<path class="st0" d="M211.4,19.7c0-3.3,2.3-5.9,5.9-5.9c3.5,0,5.8,2.5,5.8,5.9c0,3.3-2.3,5.9-5.8,5.9
			C213.7,25.6,211.4,23,211.4,19.7z M219.8,19.7c0-2.1-0.9-3.5-2.5-3.5c-1.7,0-2.5,1.4-2.5,3.5c0,2.1,0.9,3.5,2.5,3.5
			C218.9,23.2,219.8,21.8,219.8,19.7z"/>
		<path class="st0" d="M224.6,25.6h3.2c0.2,0.7,0.8,1.1,2.1,1.1c1.5,0,2.3-0.8,2.3-2.1v-0.2c0-0.6,0-1.1,0.1-1.5h-0.1
			c-0.6,1.1-1.6,1.6-3,1.6c-2.6,0-4.8-1.9-4.8-5.2c0-3.2,1.9-5.4,4.6-5.4c1.5,0,2.6,0.5,3.2,1.7h0v-1.4h3.1v10.1
			c0,1.6-0.5,2.8-1.4,3.6c-1,0.8-2.4,1.2-4,1.2C226.9,29.1,224.9,27.8,224.6,25.6z M232.3,19.2c0-1.6-0.8-2.9-2.4-2.9
			c-1.4,0-2.3,1.1-2.3,2.9c0,1.7,0.9,2.9,2.3,2.9C231.5,22.1,232.3,20.8,232.3,19.2z"/>
		<path class="st0" d="M237.5,9.8h3.3v2.8h-3.3V9.8z M237.5,14.2h3.3v11h-3.3V14.2z"/>
		<path class="st0" d="M242.5,19.7c0-3.3,2.3-5.9,5.7-5.9c1.6,0,2.8,0.5,3.8,1.4c1.2,1.2,1.8,3.1,1.8,5.3h-8.1
			c0.2,1.7,1.1,2.7,2.7,2.7c1,0,1.7-0.4,2-1.1h3.2c-0.6,2-2.4,3.4-5.2,3.4C244.7,25.6,242.5,23,242.5,19.7z M245.7,18.6h4.7
			c-0.1-1.5-1-2.5-2.3-2.5C246.6,16.2,245.9,17.1,245.7,18.6z"/>
	</g>
</g>
</svg>
