<?xml version="1.0" encoding="UTF-8"?>
<svg id="Calque_1" data-name="Calque 1" xmlns="http://www.w3.org/2000/svg" xmlns:xlink="http://www.w3.org/1999/xlink" viewBox="0 0 566.96 255.12">
  <defs>
    <style>
      .cls-1 {
        fill: url(#Dégradé_sans_nom);
      }

      .cls-2 {
        fill: #004869;
      }
    </style>
    <linearGradient id="Dégradé_sans_nom" data-name="Dégradé sans nom" x1="354.33" y1="74.6" x2="470.06" y2="275.06" gradientTransform="translate(0 255.91) scale(1 -1)" gradientUnits="userSpaceOnUse">
      <stop offset="0" stop-color="#004869"/>
      <stop offset=".1" stop-color="#014c6c"/>
      <stop offset=".21" stop-color="#055875"/>
      <stop offset=".32" stop-color="#0d6d85"/>
      <stop offset=".43" stop-color="#178a9c"/>
      <stop offset=".5" stop-color="#1fa1ae"/>
      <stop offset=".51" stop-color="#26a3a7"/>
      <stop offset=".6" stop-color="#54b185"/>
      <stop offset=".68" stop-color="#79bd68"/>
      <stop offset=".76" stop-color="#96c651"/>
      <stop offset=".84" stop-color="#abcc41"/>
      <stop offset=".92" stop-color="#b7d038"/>
      <stop offset="1" stop-color="#bcd235"/>
    </linearGradient>
  </defs>
  <g>
    <path class="cls-2" d="m0,148.45v-44.34C0,102.26.92,101.34,2.77,101.34h4.9c1.85,0,2.77.92,2.77,2.77v42.86c0,2.4.49,4.14,1.48,5.22.98,1.08,3.05,1.62,6.19,1.62h10.35c1.85,0,2.77.92,2.77,2.77v3.88c0,1.85-.92,2.77-2.77,2.77h-13.67C4.94,163.23.01,158.3.01,148.45H0Z"/>
    <path class="cls-2" d="m54.52,164.15c-6.96,0-11.93-1.69-14.92-5.08-2.99-3.39-4.48-8.47-4.48-15.24v-7.39c0-6.47,1.57-11.47,4.71-15.01s7.39-5.31,12.75-5.31,9.31,1.57,12.24,4.71c2.92,3.14,4.39,7.42,4.39,12.84v3.97c0,1.48-.09,2.68-.28,3.6-.18.92-.54,1.63-1.06,2.12-.52.49-1.22.83-2.08,1.02-.86.18-1.94.28-3.23.28h-16.81v2.77c0,2.22.57,3.99,1.71,5.31,1.14,1.33,3.25,1.99,6.33,1.99h11.09c1.85,0,2.77.92,2.77,2.77v1.02c0,1.11-.2,2.02-.6,2.73-.4.71-1.11,1.28-2.12,1.71-1.02.43-2.37.74-4.06.92-1.7.18-3.8.28-6.33.28h-.02Zm-8.78-27.45h11.18c.8,0,1.31-.12,1.52-.37.22-.25.32-.83.32-1.76v-2.03c0-2.34-.55-4.1-1.66-5.27s-2.65-1.76-4.62-1.76c-4.5,0-6.74,2.34-6.74,7.02v4.16h0Z"/>
    <path class="cls-2" d="m90.07,164.15c-2.46,0-4.71-.34-6.74-1.02-2.03-.68-3.76-1.58-5.17-2.73-1.42-1.14-2.53-2.45-3.33-3.93s-1.2-3.02-1.2-4.62c0-1.85.92-2.77,2.77-2.77h4.43c.92,0,1.59.23,1.99.69s.78,1.15,1.15,2.08c.37.86,1,1.56,1.89,2.08s2.17.79,3.83.79c4,0,6-1.45,6-4.34,0-1.42-.54-2.54-1.62-3.37s-2.43-1.57-4.07-2.22c-1.63-.65-3.39-1.29-5.27-1.94-1.88-.65-3.63-1.48-5.27-2.49-1.63-1.02-2.99-2.34-4.06-3.97-1.08-1.63-1.62-3.74-1.62-6.33,0-1.91.37-3.73,1.11-5.45s1.79-3.2,3.14-4.43,3-2.22,4.94-2.96,4.08-1.11,6.42-1.11c2.59,0,4.9.36,6.93,1.06,2.03.71,3.74,1.68,5.13,2.91s2.45,2.69,3.19,4.39c.74,1.69,1.11,3.53,1.11,5.5,0,1.85-.92,2.77-2.77,2.77h-4.9c-.92,0-1.59-.23-1.99-.69s-.66-1.15-.78-2.08c-.18-1.23-.72-2.28-1.62-3.14-.89-.86-2.33-1.29-4.3-1.29-1.66,0-2.96.34-3.88,1.02-.92.68-1.39,1.69-1.39,3.05s.54,2.43,1.62,3.23,2.43,1.52,4.07,2.17c1.63.65,3.39,1.31,5.27,1.99,1.88.68,3.63,1.56,5.27,2.63,1.63,1.08,2.99,2.45,4.07,4.11s1.62,3.79,1.62,6.37c0,1.91-.37,3.71-1.11,5.4-.74,1.69-1.8,3.19-3.19,4.48s-3.06,2.31-5.03,3.05-4.19,1.11-6.65,1.11h0Z"/>
    <path class="cls-2" d="m130.53,179.21c-1.85,0-2.77-.92-2.77-2.77v-49.52c0-2.89.46-4.94,1.39-6.14.92-1.2,2.28-2.14,4.06-2.82.8-.31,1.74-.58,2.82-.83s2.14-.45,3.19-.6,2.08-.26,3.1-.32,1.89-.09,2.63-.09c5.79,0,10.15,1.72,13.07,5.17,2.92,3.45,4.39,8.53,4.39,15.24v7.3c0,6.71-1.51,11.78-4.53,15.2s-7.42,5.13-13.21,5.13c-1.05,0-2.11-.06-3.19-.18s-2.17-.28-3.28-.46v12.93c0,1.85-.92,2.77-2.77,2.77h-4.9Zm14.32-24.49c4.62,0,6.93-2.31,6.93-6.93v-15.24c0-4.68-2.28-7.02-6.84-7.02-1.05,0-1.99.03-2.82.09s-1.65.22-2.45.46c-.55.12-.94.39-1.15.79-.22.4-.32,1.06-.32,1.99v22.63c0,.92.11,1.59.32,1.99.22.4.6.66,1.15.79.8.25,1.63.39,2.49.42s1.76.05,2.68.05v-.02Z"/>
    <path class="cls-2" d="m184.35,164.15c-5.54,0-9.76-1.71-12.66-5.13-2.9-3.42-4.34-8.48-4.34-15.2v-7.39c0-6.65,1.51-11.7,4.53-15.15,3.02-3.45,7.42-5.17,13.21-5.17s9.76,1.72,12.66,5.17c2.89,3.45,4.34,8.53,4.34,15.24v7.3c0,6.71-1.51,11.78-4.53,15.2s-7.42,5.13-13.21,5.13Zm.18-9.42c4.62,0,6.93-2.31,6.93-6.93v-15.24c0-4.68-2.19-7.02-6.56-7.02-4.62,0-6.93,2.31-6.93,6.93v15.24c0,4.68,2.18,7.02,6.56,7.02Z"/>
    <path class="cls-2" d="m208.38,160.46v-33.53c0-2.89.46-4.94,1.39-6.14.92-1.2,2.28-2.14,4.06-2.82,1.66-.68,3.45-1.15,5.36-1.43s3.76-.42,5.54-.42c2.52,0,4.23.25,5.13.74.89.49,1.34,1.57,1.34,3.23v3.7c0,1.79-.92,2.68-2.77,2.68h-3.7c-.86,0-1.7.03-2.49.09-.8.06-1.48.18-2.03.37s-.92.46-1.11.83c-.18.37-.28,1.02-.28,1.94v30.76c0,1.85-.92,2.77-2.77,2.77h-4.9c-1.85,0-2.77-.92-2.77-2.77h0Z"/>
    <path class="cls-2" d="m234.12,123.13v-3.33c0-1.85.92-2.77,2.77-2.77h2.96v-6.47c0-1.85.92-2.77,2.77-2.77h4.9c1.85,0,2.77.92,2.77,2.77v6.47h6.28c1.85,0,2.77.92,2.77,2.77v3.33c0,1.85-.92,2.77-2.77,2.77h-6.28v26.05c0,1.85.92,2.77,2.77,2.77h3.51c1.85,0,2.77.92,2.77,2.77v1.02c0,3.76-2.99,5.64-8.96,5.64-2.09,0-3.82-.26-5.17-.79-1.36-.52-2.43-1.31-3.23-2.36s-1.36-2.39-1.66-4.02c-.31-1.63-.46-3.56-.46-5.77v-25.31h-2.96c-1.85,0-2.77-.92-2.77-2.77h0Z"/>
    <path class="cls-2" d="m279.23,164.15c-2.46,0-4.71-.34-6.74-1.02-2.03-.68-3.76-1.58-5.17-2.73-1.42-1.14-2.53-2.45-3.33-3.93s-1.2-3.02-1.2-4.62c0-1.85.92-2.77,2.77-2.77h4.43c.92,0,1.59.23,1.99.69s.78,1.15,1.15,2.08c.37.86,1,1.56,1.89,2.08s2.17.79,3.83.79c4,0,6-1.45,6-4.34,0-1.42-.54-2.54-1.62-3.37s-2.43-1.57-4.07-2.22c-1.63-.65-3.39-1.29-5.27-1.94-1.88-.65-3.63-1.48-5.27-2.49-1.63-1.02-2.99-2.34-4.06-3.97-1.08-1.63-1.62-3.74-1.62-6.33,0-1.91.37-3.73,1.11-5.45s1.79-3.2,3.14-4.43,3-2.22,4.94-2.96,4.08-1.11,6.42-1.11c2.59,0,4.9.36,6.93,1.06,2.03.71,3.74,1.68,5.13,2.91s2.45,2.69,3.19,4.39c.74,1.69,1.11,3.53,1.11,5.5,0,1.85-.92,2.77-2.77,2.77h-4.9c-.92,0-1.59-.23-1.99-.69s-.66-1.15-.78-2.08c-.18-1.23-.72-2.28-1.62-3.14-.89-.86-2.33-1.29-4.3-1.29-1.66,0-2.96.34-3.88,1.02-.92.68-1.39,1.69-1.39,3.05s.54,2.43,1.62,3.23,2.43,1.52,4.07,2.17c1.63.65,3.39,1.31,5.27,1.99,1.88.68,3.63,1.56,5.27,2.63,1.63,1.08,2.99,2.45,4.07,4.11,1.08,1.66,1.62,3.79,1.62,6.37,0,1.91-.37,3.71-1.11,5.4-.74,1.69-1.8,3.19-3.19,4.48s-3.06,2.31-5.03,3.05-4.19,1.11-6.65,1.11h0Z"/>
  </g>
  <g>
    <path class="cls-2" d="m32.7,230.27c0,2.34-.34,4.11-1.02,5.31s-1.79,2.11-3.33,2.73c-1.6.68-3.4,1.14-5.4,1.39s-3.99.37-5.96.37c-5.42,0-9.61-1.58-12.56-4.76-2.96-3.17-4.43-8.05-4.43-14.64v-9.15c0-6.65,1.48-11.56,4.43-14.73,2.96-3.17,7.14-4.76,12.56-4.76,1.6,0,3.16.12,4.67.37s2.88.65,4.11,1.2v-14.23c0-1.42.68-2.12,2.03-2.12h2.86c1.35,0,2.03.71,2.03,2.12v50.9h0Zm-6.93-26.88c0-1.35-.15-2.28-.46-2.77s-.83-.89-1.57-1.2c-.99-.37-2.03-.61-3.14-.74-1.11-.12-2.34-.18-3.7-.18-3.63,0-6.19.99-7.67,2.96s-2.22,4.93-2.22,8.87v12.84c0,6.96,3.29,10.44,9.88,10.44,1.23,0,2.46-.09,3.7-.28,1.23-.18,2.28-.43,3.14-.74.8-.31,1.34-.71,1.62-1.2.28-.49.42-1.42.42-2.77v-25.22h0Z"/>
    <path class="cls-2" d="m54.55,239.14c-5.42,0-9.58-1.58-12.47-4.76-2.9-3.17-4.34-7.9-4.34-14.18v-7.11c0-14.04,5.6-21.06,16.81-21.06,5.05,0,9.02,1.51,11.92,4.53,2.89,3.02,4.34,7.51,4.34,13.49v2.68c0,2.53-.42,4.14-1.25,4.85s-2.48,1.06-4.94,1.06h-19.86v3.42c0,3.51.82,6.16,2.45,7.94,1.63,1.79,4.3,2.68,7.99,2.68h11.92c1.29,0,1.94.68,1.94,2.03v.55c0,1.42-.69,2.42-2.08,3-1.39.59-3.93.88-7.62.88h-4.81Zm7.39-26.05c.8,0,1.31-.12,1.52-.37.22-.25.32-.83.32-1.76v-1.94c0-7.02-3.08-10.53-9.24-10.53-6.53,0-9.79,3.51-9.79,10.53v4.06h17.19Z"/>
    <path class="cls-2" d="m92.98,225.46v-46.1c0-1.42.68-2.12,2.03-2.12h2.86c1.35,0,2.03.71,2.03,2.12v44.34c0,1.6.12,2.96.37,4.06.25,1.11.69,2.03,1.34,2.77s1.55,1.28,2.73,1.62c1.17.34,2.68.51,4.53.51h11.64c1.42,0,2.12.68,2.12,2.03v2.4c0,1.36-.71,2.03-2.12,2.03h-13.86c-9.12,0-13.67-4.56-13.67-13.67h0Z"/>
    <path class="cls-2" d="m141.8,192.02c5.3,0,9.38,1.59,12.24,4.76s4.3,8.08,4.3,14.73v9.15c0,6.65-1.46,11.55-4.39,14.69s-7.1,4.71-12.52,4.71-9.39-1.57-12.29-4.71-4.34-8.04-4.34-14.69v-9.24c0-6.59,1.48-11.47,4.43-14.64,2.96-3.17,7.14-4.76,12.56-4.76h0Zm-.28,41.57c3.57,0,6.1-.98,7.58-2.96,1.48-1.97,2.22-4.99,2.22-9.05v-11.09c0-4-.72-7-2.17-9.01-1.45-2-3.93-3-7.44-3-3.7,0-6.27,1-7.71,3-1.45,2-2.17,5-2.17,9.01v11.09c0,4.06.74,7.08,2.22,9.05s3.97,2.96,7.48,2.96h0Z"/>
    <path class="cls-2" d="m166.77,185.46c-2.83,0-4.25-1.39-4.25-4.16s1.42-4.06,4.25-4.06,4.16,1.36,4.16,4.06-1.39,4.16-4.16,4.16Zm-3.52,9.61c0-1.42.68-2.12,2.03-2.12h2.86c1.35,0,2.03.71,2.03,2.12v42.03c0,1.36-.68,2.03-2.03,2.03h-2.86c-1.36,0-2.03-.68-2.03-2.03v-42.03Z"/>
    <path class="cls-2" d="m191.58,198.77c-1.42,0-2.6.08-3.56.23-.96.15-1.83.39-2.63.69-.86.37-1.4.89-1.62,1.57-.22.68-.32,2-.32,3.97v31.87c0,1.36-.68,2.03-2.03,2.03h-2.86c-1.36,0-2.03-.68-2.03-2.03v-35.2c0-2.15.45-3.88,1.34-5.17s2.06-2.29,3.51-3,3.06-1.17,4.85-1.39c1.79-.21,3.57-.32,5.36-.32,2.03,0,3.43.18,4.2.55s1.15,1.14,1.15,2.31v1.39c0,.86-.18,1.49-.55,1.89-.37.4-1.08.6-2.12.6h-2.69Z"/>
    <path class="cls-2" d="m214.87,239.14c-5.42,0-9.58-1.58-12.47-4.76-2.9-3.17-4.34-7.9-4.34-14.18v-7.11c0-14.04,5.6-21.06,16.81-21.06,5.05,0,9.02,1.51,11.92,4.53,2.89,3.02,4.34,7.51,4.34,13.49v2.68c0,2.53-.42,4.14-1.25,4.85s-2.48,1.06-4.94,1.06h-19.86v3.42c0,3.51.82,6.16,2.45,7.94,1.63,1.79,4.3,2.68,7.99,2.68h11.92c1.29,0,1.94.68,1.94,2.03v.55c0,1.42-.69,2.42-2.08,3-1.39.59-3.93.88-7.62.88h-4.81Zm7.39-26.05c.8,0,1.31-.12,1.52-.37.22-.25.32-.83.32-1.76v-1.94c0-7.02-3.08-10.53-9.24-10.53-6.53,0-9.79,3.51-9.79,10.53v4.06h17.19Z"/>
    <path class="cls-2" d="m237.82,219.46c-1.36,0-2.03-.68-2.03-2.03v-2.68c0-1.42.68-2.12,2.03-2.12h23.46c1.42,0,2.13.71,2.13,2.12v2.68c0,1.36-.71,2.03-2.13,2.03h-23.46Z"/>
    <path class="cls-2" d="m290.18,177.24c1.11,0,2.05.22,2.82.65.77.43,1.31,1.26,1.62,2.49l15.61,56.63c.12.62.08,1.12-.14,1.52-.22.4-.75.6-1.62.6h-3.05c-.86,0-1.46-.17-1.8-.51s-.6-.88-.79-1.62l-4.25-15.98h-21.52l-4.25,15.98c-.18.74-.45,1.28-.79,1.62s-.94.51-1.8.51h-2.96c-.86,0-1.42-.2-1.66-.6-.25-.4-.28-.91-.09-1.52l15.61-56.63c.31-1.23.85-2.06,1.62-2.49.77-.43,1.71-.65,2.82-.65h4.62Zm-11.55,37.51h18.38l-7.58-28.64c-.25-.86-.46-1.42-.65-1.66-.18-.25-.49-.37-.92-.37-.49,0-.82.12-.97.37s-.39.8-.69,1.66l-7.58,28.64h0Z"/>
    <path class="cls-2" d="m310.92,198.95c-1.42,0-2.12-.68-2.12-2.03v-1.94c0-1.35.71-2.03,2.12-2.03h4.25v-7.11c0-1.42.68-2.12,2.03-2.12h2.86c1.35,0,2.03.71,2.03,2.12v7.11h7.85c1.42,0,2.12.68,2.12,2.03v1.94c0,1.36-.71,2.03-2.12,2.03h-7.85v29.84c0,1.72.31,2.96.92,3.7.62.74,1.63,1.11,3.05,1.11h4.25c1.23,0,1.85.71,1.85,2.12v.55c0,1.23-.52,2.17-1.57,2.82-1.05.65-3.02.97-5.91.97s-5.36-.94-7.02-2.82-2.49-4.91-2.49-9.1v-29.19h-4.25Z"/>
    <path class="cls-2" d="m342.67,237.1c0,1.36-.68,2.03-2.03,2.03h-2.86c-1.36,0-2.03-.68-2.03-2.03v-57.74c0-1.42.68-2.12,2.03-2.12h2.86c1.35,0,2.03.71,2.03,2.12v57.74Z"/>
    <path class="cls-2" d="m355.81,204.59c-.31,1.29-1.08,1.94-2.31,1.94h-2.49c-1.42,0-2.12-.71-2.12-2.12,0-1.72.37-3.34,1.11-4.85.74-1.51,1.79-2.82,3.14-3.93,1.35-1.11,2.99-1.99,4.9-2.63,1.91-.65,4.03-.97,6.37-.97,2.96,0,5.43.45,7.44,1.34,2,.89,3.59,2.14,4.76,3.74s2,3.54,2.49,5.82c.49,2.28.74,4.84.74,7.67v19.68c0,2.34-.36,4.06-1.06,5.17-.71,1.11-1.86,2-3.46,2.68-3.27,1.29-6.93,1.94-10.99,1.94-5.42,0-9.58-1.25-12.47-3.74-2.9-2.49-4.34-6.08-4.34-10.76,0-2.46.43-4.59,1.29-6.37.86-1.79,2.05-3.25,3.56-4.39s3.29-1.99,5.36-2.54c2.06-.55,4.33-.83,6.79-.83,1.42,0,2.85.11,4.3.32,1.45.22,2.82.48,4.11.79v-4.71c0-6.22-2.83-9.33-8.5-9.33-2.53,0-4.53.52-6,1.57-1.48,1.05-2.34,2.56-2.59,4.53l-.03-.02Zm8.4,12.38c-2.83,0-5.16.6-6.97,1.8-1.82,1.2-2.73,3.34-2.73,6.42s.85,5.33,2.54,6.56,4.14,1.85,7.34,1.85c1.05,0,2.15-.06,3.33-.18,1.17-.12,2.22-.37,3.14-.74.74-.31,1.26-.71,1.57-1.2.31-.49.46-1.42.46-2.77v-10.62c-1.29-.31-2.66-.57-4.11-.79-1.45-.21-2.97-.32-4.57-.32h0Z"/>
    <path class="cls-2" d="m385.66,201.91c0-2.34.35-4.08,1.06-5.22s1.83-2.05,3.37-2.73c1.6-.68,3.34-1.17,5.22-1.48s3.8-.46,5.77-.46c3.08,0,5.68.36,7.81,1.06,2.12.71,3.83,1.77,5.13,3.19,1.29,1.42,2.23,3.25,2.82,5.5.58,2.25.88,4.88.88,7.9v27.44c0,1.36-.68,2.03-2.03,2.03h-2.86c-1.36,0-2.03-.68-2.03-2.03v-27.44c0-3.94-.69-6.79-2.08-8.55-1.39-1.76-3.9-2.63-7.53-2.63-1.29,0-2.49.08-3.6.23-1.11.15-2.1.39-2.96.69-.8.31-1.34.72-1.62,1.25-.28.52-.42,1.46-.42,2.82v33.63c0,1.36-.68,2.03-2.03,2.03h-2.86c-1.36,0-2.03-.68-2.03-2.03v-35.2h-.01Z"/>
    <path class="cls-2" d="m422.25,198.95c-1.42,0-2.12-.68-2.12-2.03v-1.94c0-1.35.71-2.03,2.12-2.03h4.25v-7.11c0-1.42.68-2.12,2.03-2.12h2.86c1.35,0,2.03.71,2.03,2.12v7.11h7.85c1.42,0,2.12.68,2.12,2.03v1.94c0,1.36-.71,2.03-2.12,2.03h-7.85v29.84c0,1.72.31,2.96.92,3.7.62.74,1.63,1.11,3.05,1.11h4.25c1.23,0,1.85.71,1.85,2.12v.55c0,1.23-.52,2.17-1.57,2.82-1.05.65-3.02.97-5.91.97s-5.36-.94-7.02-2.82-2.49-4.91-2.49-9.1v-29.19h-4.25Z"/>
    <path class="cls-2" d="m450.58,185.46c-2.83,0-4.25-1.39-4.25-4.16s1.42-4.06,4.25-4.06,4.16,1.36,4.16,4.06-1.39,4.16-4.16,4.16Zm-3.51,9.61c0-1.42.68-2.12,2.03-2.12h2.86c1.35,0,2.03.71,2.03,2.12v42.03c0,1.36-.68,2.03-2.03,2.03h-2.86c-1.36,0-2.03-.68-2.03-2.03v-42.03Z"/>
    <path class="cls-2" d="m486.82,255.12c-1.36,0-2.03-.68-2.03-2.03v-14.6c-2.59,1.05-5.54,1.57-8.87,1.57-5.42,0-9.59-1.57-12.52-4.71s-4.39-8.04-4.39-14.69v-9.24c0-6.59,1.48-11.47,4.43-14.64,2.96-3.17,7.14-4.76,12.56-4.76,1.97,0,3.96.12,5.96.37s3.8.71,5.4,1.39c1.54.62,2.65,1.54,3.33,2.77.68,1.23,1.02,3.02,1.02,5.36v51.18c0,1.35-.68,2.03-2.03,2.03h-2.86,0Zm-10.9-21.53c1.29,0,2.51-.06,3.65-.18,1.14-.12,2.2-.37,3.19-.74.74-.31,1.26-.71,1.57-1.2.31-.49.46-1.42.46-2.77v-25.22c0-1.35-.14-2.28-.42-2.77s-.82-.89-1.62-1.2c-.86-.31-1.91-.55-3.14-.74-1.23-.18-2.46-.28-3.7-.28-6.59,0-9.88,3.48-9.88,10.44v14.13c0,7.02,3.29,10.53,9.88,10.53h.01Z"/>
    <path class="cls-2" d="m513.34,240.06c-4.99,0-8.82-1.46-11.5-4.39-2.68-2.92-4.02-7.71-4.02-14.37v-26.24c0-1.42.68-2.12,2.03-2.12h2.86c1.35,0,2.03.71,2.03,2.12v28.82c0,3.33.75,5.77,2.26,7.34,1.51,1.57,3.65,2.36,6.42,2.36s4.91-.77,6.42-2.31,2.26-3.97,2.26-7.3v-28.91c0-1.42.71-2.12,2.12-2.12h2.77c1.42,0,2.13.71,2.13,2.12v26.24c0,6.65-1.36,11.44-4.07,14.37s-6.62,4.39-11.73,4.39h.02Z"/>
    <path class="cls-2" d="m550.67,239.14c-5.42,0-9.58-1.58-12.47-4.76-2.9-3.17-4.34-7.9-4.34-14.18v-7.11c0-14.04,5.6-21.06,16.81-21.06,5.05,0,9.02,1.51,11.92,4.53,2.89,3.02,4.34,7.51,4.34,13.49v2.68c0,2.53-.42,4.14-1.25,4.85s-2.48,1.06-4.94,1.06h-19.86v3.42c0,3.51.82,6.16,2.45,7.94,1.63,1.79,4.3,2.68,7.99,2.68h11.92c1.29,0,1.94.68,1.94,2.03v.55c0,1.42-.69,2.42-2.08,3-1.39.59-3.93.88-7.62.88h-4.81Zm7.39-26.05c.8,0,1.31-.12,1.52-.37.22-.25.32-.83.32-1.76v-1.94c0-7.02-3.08-10.53-9.24-10.53-6.53,0-9.79,3.51-9.79,10.53v4.06h17.19Z"/>
  </g>
  <path class="cls-1" d="m442.02,162.15c-16.5,0-25.13-5.35-32.76-10.08-7.29-4.52-13.59-8.42-26.94-8.42s-19.65,3.9-26.94,8.42c-7.62,4.72-16.26,10.08-32.75,10.08-3.05,0-5.52-2.47-5.52-5.52v-33.15c0-3.05,2.47-5.52,5.52-5.52,13.35,0,19.65-3.9,26.94-8.42,7.62-4.72,16.26-10.08,32.75-10.08s25.13,5.35,32.76,10.08c7.29,4.52,13.59,8.42,26.94,8.42s19.65-3.9,26.94-8.42c7.62-4.72,16.26-10.08,32.76-10.08s25.13,5.35,32.75,10.08c6.21,3.85,11.69,7.25,21.42,8.17v-22.08c-13-1.04-20.51-5.7-27.23-9.86-7.29-4.52-13.59-8.42-26.94-8.42s-19.65,3.9-26.94,8.42c-7.62,4.72-16.26,10.08-32.75,10.08s-25.13-5.35-32.76-10.08c-7.29-4.52-13.59-8.42-26.94-8.42s-19.65,3.9-26.94,8.42c-7.62,4.72-16.26,10.08-32.75,10.08s-25.13-5.35-32.75-10.08c-7.29-4.52-13.59-8.42-26.94-8.42-3.05,0-5.52-2.47-5.52-5.52v-33.15c0-3.05,2.47-5.52,5.52-5.52,16.49,0,25.13,5.35,32.75,10.08,7.29,4.52,13.59,8.42,26.94,8.42s19.65-3.9,26.94-8.42c7.62-4.72,16.26-10.08,32.75-10.08s25.13,5.35,32.76,10.08c7.29,4.52,13.59,8.42,26.94,8.42s19.65-3.9,26.94-8.42c6.72-4.17,14.24-8.82,27.24-9.86V11.29c-9.73.93-15.22,4.33-21.42,8.17-7.62,4.72-16.26,10.08-32.75,10.08s-25.13-5.35-32.76-10.08c-7.29-4.52-13.59-8.42-26.94-8.42s-19.65,3.9-26.94,8.42c-7.62,4.72-16.26,10.08-32.75,10.08-3.05,0-5.52-2.47-5.52-5.52s2.47-5.52,5.52-5.52c13.35,0,19.65-3.9,26.94-8.42,7.62-4.72,16.26-10.08,32.75-10.08s25.13,5.35,32.76,10.08c7.29,4.52,13.59,8.42,26.94,8.42s19.65-3.9,26.94-8.42c7.62-4.72,16.26-10.08,32.76-10.08,3.05,0,5.52,2.47,5.52,5.52v33.15c0,3.05-2.47,5.52-5.52,5.52-13.35,0-19.65,3.9-26.94,8.42-7.62,4.72-16.26,10.08-32.75,10.08s-25.13-5.35-32.76-10.08c-7.29-4.52-13.59-8.42-26.94-8.42s-19.65,3.9-26.94,8.42c-7.62,4.72-16.26,10.08-32.75,10.08s-25.13-5.35-32.75-10.08c-6.21-3.85-11.69-7.25-21.42-8.17v22.08c13,1.04,20.51,5.7,27.23,9.86,7.29,4.52,13.59,8.42,26.94,8.42s19.65-3.9,26.94-8.42c7.62-4.72,16.26-10.08,32.75-10.08s25.13,5.35,32.76,10.08c7.29,4.52,13.59,8.42,26.94,8.42s19.65-3.9,26.94-8.42c7.62-4.72,16.26-10.08,32.76-10.08s25.13,5.35,32.75,10.08c7.29,4.52,13.59,8.42,26.94,8.42,3.05,0,5.52,2.47,5.52,5.52v33.15c0,3.05-2.47,5.52-5.52,5.52-16.49,0-25.13-5.35-32.75-10.08-7.29-4.52-13.59-8.42-26.94-8.42s-19.65,3.9-26.94,8.42c-7.62,4.72-16.26,10.08-32.75,10.08s-25.13-5.35-32.76-10.08c-7.29-4.52-13.59-8.42-26.94-8.42s-19.65,3.9-26.94,8.42c-6.72,4.17-14.24,8.82-27.23,9.86v22.08c9.73-.93,15.21-4.33,21.42-8.17,7.62-4.72,16.26-10.08,32.75-10.08s25.13,5.35,32.76,10.08c7.29,4.52,13.59,8.42,26.94,8.42s19.65-3.9,26.94-8.42c7.62-4.72,16.26-10.08,32.76-10.08,3.05,0,5.52,2.47,5.52,5.52s-2.47,5.52-5.52,5.52c-13.35,0-19.65,3.9-26.94,8.42-7.62,4.72-16.26,10.08-32.75,10.08h-.05Z"/>
</svg>