<svg width="143" height="46" viewBox="0 0 143 46" fill="none" xmlns="http://www.w3.org/2000/svg">
<path d="M59.6797 0.957153H64.9546L67.1107 8.11868C67.2648 8.65772 67.4188 9.27377 67.5728 9.96682C67.7268 10.6599 67.8808 11.3144 67.9963 11.969C68.1503 12.7005 68.3043 13.4706 68.4198 14.2406H68.4968C68.6123 13.4706 68.7664 12.7005 68.8819 11.969C68.9974 11.3144 69.1514 10.6599 69.2669 9.96682C69.4209 9.27377 69.5749 8.65772 69.7289 8.11868L71.8466 0.957153H77.1985V18.1679H73.5792V10.4674C73.5792 9.92832 73.5792 9.31227 73.6177 8.58072C73.6177 7.88767 73.6947 7.19461 73.6947 6.54007C73.7332 5.80851 73.7717 5.03846 73.8487 4.2684H73.8102C73.6562 4.96145 73.5407 5.693 73.3867 6.38605C73.2712 6.9636 73.1172 7.57964 72.9632 8.23419C72.8092 8.88874 72.6551 9.46628 72.5011 9.96682L70.037 18.1294H66.8027L64.3385 9.96682C64.1845 9.46628 64.0305 8.88874 63.8765 8.23419C63.7225 7.57964 63.5685 6.9636 63.453 6.38605C63.299 5.693 63.1449 4.99995 63.0294 4.2684H62.9909C63.0294 5.03846 63.0679 5.80851 63.1449 6.54007C63.1449 7.19461 63.2219 7.84916 63.2219 8.58072C63.2219 9.27377 63.2605 9.92832 63.2605 10.4674V18.1679H59.7182V0.957153H59.6797Z" fill="black"/>
<path d="M87.8249 18.1678V16.3967H87.7478C87.2858 17.1283 86.7853 17.6673 86.2077 17.9753C85.6302 18.3218 84.8986 18.4759 84.0516 18.4759C82.6655 18.4759 81.5874 18.0523 80.8558 17.2438C80.1243 16.4352 79.7393 15.3186 79.7393 13.971V5.84692H83.3585V13.278C83.3585 13.971 83.5125 14.5101 83.8591 14.8566C84.2056 15.2416 84.6676 15.3956 85.3222 15.3956C85.9767 15.3956 86.6313 15.1646 87.0548 14.6641C87.4783 14.1635 87.6708 13.5475 87.6708 12.7774V5.84692H91.2516V18.1293H87.8249V18.1678Z" fill="black"/>
<path d="M98.7987 18.553C97.9131 18.553 97.1045 18.4374 96.4115 18.2449C95.7184 18.0524 95.1024 17.7444 94.6018 17.3979C94.1013 17.0128 93.7163 16.5893 93.4083 16.0503C93.1387 15.5497 92.9462 14.9722 92.9077 14.3561H96.3345C96.45 14.9337 96.7195 15.3957 97.143 15.7037C97.5666 16.0118 98.1441 16.1658 98.8372 16.1658C99.5302 16.1658 99.9922 16.0503 100.339 15.7807C100.685 15.5497 100.878 15.2032 100.878 14.7412C100.878 14.2791 100.801 14.2406 100.608 14.0866C100.454 13.9326 100.223 13.7786 99.9152 13.6631C99.6072 13.5476 99.2992 13.4706 98.9142 13.3936C98.5291 13.3166 98.1441 13.2396 97.6821 13.1626C97.143 13.047 96.604 12.9315 96.0649 12.7775C95.5259 12.6235 95.0639 12.431 94.6403 12.1615C94.2168 11.892 93.8703 11.5069 93.6393 11.0834C93.3697 10.6214 93.2542 10.0438 93.2542 9.31227C93.2542 8.58072 93.3697 8.11868 93.6778 7.65665C93.9473 7.19461 94.3323 6.77108 94.7944 6.46306C95.2564 6.15504 95.7954 5.88552 96.45 5.73151C97.066 5.57749 97.7591 5.50049 98.4906 5.50049C100.185 5.50049 101.494 5.84701 102.379 6.50156C103.265 7.15611 103.766 8.04168 103.958 9.11976H100.57C100.339 8.23419 99.6457 7.81066 98.4906 7.81066C97.3355 7.81066 97.4896 7.92617 97.143 8.11868C96.7965 8.3497 96.6425 8.65772 96.6425 9.04275C96.6425 9.42778 96.7195 9.46628 96.8735 9.62029C97.0275 9.7743 97.2585 9.88981 97.5281 9.96682C97.7976 10.0438 98.1441 10.1208 98.4906 10.1978C98.8757 10.2748 99.2607 10.3133 99.6842 10.3903C100.223 10.4674 100.801 10.6214 101.34 10.7369C101.879 10.8909 102.379 11.1219 102.841 11.3914C103.303 11.6994 103.65 12.0845 103.958 12.5465C104.228 13.047 104.382 13.6631 104.382 14.4331C104.382 15.2032 104.228 15.6652 103.958 16.2043C103.689 16.7048 103.303 17.1283 102.803 17.4749C102.302 17.8214 101.725 18.0524 101.032 18.2449C100.339 18.3989 99.6072 18.5145 98.7987 18.5145V18.553Z" fill="black"/>
<path d="M112.044 18.5143C111.043 18.5143 110.157 18.3603 109.348 18.0138C108.54 17.6673 107.847 17.2437 107.308 16.6277C106.73 16.0502 106.307 15.3571 105.999 14.587C105.691 13.817 105.537 12.9314 105.537 12.0074C105.537 11.0833 105.691 10.2362 105.999 9.42767C106.307 8.61911 106.73 7.92605 107.308 7.34851C107.847 6.77097 108.54 6.30893 109.31 5.96241C110.08 5.61588 110.927 5.46187 111.89 5.46187C112.852 5.46187 113.545 5.61588 114.277 5.8854C114.97 6.15492 115.586 6.53995 116.125 7.04049C116.818 7.73354 117.318 8.5421 117.665 9.54317C117.973 10.5442 118.127 11.6608 118.127 12.8544H109.156C109.271 13.7785 109.579 14.51 110.08 15.0106C110.58 15.5496 111.274 15.7806 112.121 15.7806C112.968 15.7806 113.16 15.6651 113.507 15.4726C113.853 15.2801 114.161 14.9721 114.354 14.587H117.858C117.704 15.1261 117.473 15.6266 117.126 16.0887C116.779 16.5507 116.394 16.9742 115.894 17.3207C115.393 17.6673 114.854 17.9368 114.2 18.1293C113.545 18.3218 112.852 18.4373 112.044 18.4373V18.5143ZM111.851 8.08007C111.004 8.08007 110.388 8.31108 109.964 8.81162C109.541 9.31216 109.271 9.96671 109.117 10.8138H114.354C114.277 9.96671 114.046 9.27365 113.584 8.77312C113.122 8.27258 112.544 8.04156 111.813 8.04156L111.851 8.08007ZM111.659 0.30249H115.894L113.16 4.03727H110.465L111.697 0.30249H111.659Z" fill="black"/>
<path d="M125.828 18.5143C124.827 18.5143 123.941 18.3602 123.133 18.0137C122.324 17.6672 121.631 17.2437 121.092 16.6276C120.514 16.0501 120.091 15.357 119.783 14.587C119.475 13.8169 119.321 12.9313 119.321 12.0073C119.321 11.0832 119.475 10.2361 119.783 9.42759C120.091 8.61903 120.514 7.92597 121.092 7.34843C121.631 6.77089 122.324 6.30885 123.094 5.96233C123.864 5.6158 124.711 5.46179 125.674 5.46179C126.636 5.46179 127.329 5.6158 128.061 5.88532C128.754 6.15484 129.37 6.53987 129.909 7.04041C130.602 7.73346 131.103 8.54202 131.449 9.54309C131.757 10.5442 131.911 11.6608 131.911 12.8543H122.94C123.056 13.7784 123.364 14.51 123.864 15.0105C124.365 15.5495 125.058 15.7806 125.905 15.7806C126.752 15.7806 126.944 15.665 127.291 15.4725C127.637 15.28 127.945 14.972 128.138 14.587H131.642C131.488 15.126 131.257 15.6265 130.91 16.0886C130.564 16.5506 130.179 16.9741 129.678 17.3207C129.178 17.6672 128.638 17.9367 127.984 18.1292C127.329 18.3217 126.636 18.4373 125.828 18.4373V18.5143ZM125.635 8.07999C124.788 8.07999 124.172 8.311 123.749 8.81154C123.325 9.31208 123.056 9.96663 122.902 10.8137H128.138C128.061 9.96663 127.83 9.27357 127.368 8.77304C126.906 8.2725 126.328 8.04148 125.597 8.04148L125.635 8.07999Z" fill="black"/>
<path d="M58.7935 28.2172H69.8438C75.2342 28.2172 78.2759 33.184 78.2759 36.6108C78.2759 40.0375 76.9283 41.3851 75.6577 42.6557C73.8866 44.4269 72.1154 45.4664 69.2277 45.4664H58.832V44.8504H62.7593V28.9102H58.832V28.2557L58.7935 28.2172ZM65.6855 28.7177V44.8889H69.0352C72.1925 44.8889 74.8491 43.8108 74.8491 36.5723C74.8491 29.3337 73.386 28.7177 69.2662 28.7177H65.6855Z" fill="black"/>
<path d="M86.5542 32.8376C89.5959 32.8376 92.5222 35.6099 92.5222 39.4216C92.5222 43.2334 89.6344 45.8131 86.4387 45.8131C83.243 45.8131 80.5093 42.8869 80.5093 39.4216C80.5093 35.9564 83.782 32.8376 86.5542 32.8376ZM84.1285 44.273C84.8986 45.043 85.7842 45.2356 86.5157 45.2356C87.6323 45.2356 88.4409 44.735 88.9029 44.273C89.8655 43.3104 89.9425 41.7703 89.9425 40.2302C89.9425 36.7264 89.9425 35.3403 88.8259 34.2237C88.5564 33.9542 87.8248 33.4152 86.5542 33.4152C85.2836 33.4152 84.7061 33.8772 84.2441 34.3393C83.2045 35.3788 83.2045 36.9574 83.2045 40.2687C83.2045 43.5799 83.2815 43.3874 84.2055 44.3115L84.1285 44.273Z" fill="black"/>
<path d="M96.18 45.7744V30.5658C96.18 29.2567 95.1404 28.9102 93.9854 28.9102V28.1786L98.4517 27.9861V35.5326C99.1447 33.646 100.685 32.7989 102.148 32.7989C104.92 32.7989 107.731 35.6096 107.731 39.1904C107.731 42.7712 104.92 45.6589 101.801 45.6589C98.6827 45.6589 98.4517 44.4268 97.7971 42.9252C97.2581 43.6567 96.9116 44.8118 96.7961 45.7359H96.18V45.7744ZM99.8378 34.3391C98.6057 35.5711 98.4902 37.1113 98.4902 38.8824C98.4902 42.2321 98.6827 43.4642 99.6068 44.3883C100.184 44.9658 100.839 45.1969 101.609 45.1969C104.997 45.1969 104.997 41.1541 104.997 39.4599C104.997 37.7658 104.997 35.4941 103.804 34.262C103.265 33.723 102.687 33.415 101.878 33.415C101.07 33.415 100.454 33.723 99.8378 34.3391Z" fill="black"/>
<path d="M113.544 36.7263C114.276 33.415 115.97 33.0685 116.74 33.0685C118.242 33.0685 118.819 34.2236 118.819 34.9936C118.819 35.7637 118.319 36.6877 117.472 36.6877C116.625 36.6877 116.163 36.2257 116.163 35.3402C116.163 34.4546 116.74 34.2236 116.74 33.9926C116.74 33.7615 116.663 33.646 116.432 33.646C114.699 33.646 113.737 36.6107 113.737 39.8065V44.6963H116.24V45.3894H109.54V44.6963H111.504V36.0717C111.504 34.8396 110.849 34.1851 109.54 34.1081V33.415L113.544 33.2225V36.6877V36.7263Z" fill="black"/>
<path d="M130.717 41.7701C130.64 42.6171 129.407 45.8129 125.673 45.8129C121.938 45.8129 120.051 41.8856 120.051 39.2289C120.051 36.5722 122.323 32.8374 125.442 32.8374C128.56 32.8374 130.524 35.3401 130.755 38.9979H122.669V40.1144C122.669 43.1562 123.709 44.8118 126.019 44.8118C128.329 44.8118 129.369 43.6952 129.715 41.7701H130.755H130.717ZM128.098 36.8032C128.098 35.5711 127.944 33.3379 125.48 33.3379C123.016 33.3379 122.669 35.4556 122.669 38.1508H128.098V36.8032ZM124.479 31.1818L126.52 29.3336C127.328 28.6021 127.829 28.2941 128.252 28.2941C128.676 28.2941 129.022 28.6406 129.022 29.0256C129.022 29.4107 128.83 29.6417 128.329 29.8342L124.556 31.3358L124.441 31.1818H124.479Z" fill="black"/>
<path d="M142.961 41.7703C142.884 42.6174 141.652 45.8131 137.917 45.8131C134.183 45.8131 132.296 41.8858 132.296 39.2291C132.296 36.5724 134.568 32.8376 137.686 32.8376C140.805 32.8376 142.769 35.3403 143 38.9981H134.914V40.1147C134.914 43.1564 135.954 44.812 138.264 44.812C140.574 44.812 141.614 43.6954 141.96 41.7703H143H142.961ZM140.343 36.8034C140.343 35.5713 140.189 33.3382 137.725 33.3382C135.261 33.3382 134.914 35.4558 134.914 38.151H140.343V36.8034Z" fill="black"/>
<path fill-rule="evenodd" clip-rule="evenodd" d="M0 -0.00549316H22.9477C35.6617 -0.00549316 45.9339 10.3108 45.9339 22.9807C45.9339 35.6947 35.6176 45.9669 22.9477 45.9669H10.0492V10.5443H14.6696V41.3466H22.9477C33.0715 41.3466 41.3135 33.1374 41.3135 22.9807C41.3135 12.8569 33.1044 4.61485 22.9477 4.61485H4.62034V46.0054H0V-0.00549316Z" fill="black"/>
<path fill-rule="evenodd" clip-rule="evenodd" d="M23.1016 14.8951H21.2534V10.2748H23.1016C30.1529 10.2748 35.8845 16.0064 35.8845 23.0577C35.8845 30.109 30.1529 35.8407 23.1016 35.8407H21.2534V31.2203H23.1016C27.6011 31.2203 31.2642 27.5573 31.2642 23.0577C31.2642 18.5582 27.6011 14.8951 23.1016 14.8951Z" fill="black"/>
</svg>
