<?xml version="1.0" encoding="utf-8"?>
<!-- Generator: Adobe Illustrator 25.1.0, SVG Export Plug-In . SVG Version: 6.00 Build 0)  -->
<svg version="1.1" id="Calque_1" xmlns="http://www.w3.org/2000/svg" xmlns:xlink="http://www.w3.org/1999/xlink" x="0px" y="0px"
	 viewBox="0 0 218.5 56.7" style="enable-background:new 0 0 218.5 56.7;" xml:space="preserve">
<style type="text/css">
	.st0{fill:#FFFFFF;}
	.st1{fill:none;}
</style>
<g>
	<g>
		<path class="st0" d="M50,19.4v-1.2h3.3v1.1c0,1.5,0.7,2.1,1.8,2.1c1.2,0,1.7-0.7,1.7-2V8.6h3.6v11c0,1.3-0.3,2.3-1,3.1
			c-0.8,1-2.2,1.7-4.1,1.7C51.7,24.4,50,22.4,50,19.4z"/>
		<path class="st0" d="M68.9,22.7L68.9,22.7c-0.8,1-1.7,1.6-3.4,1.6c-2.2,0-3.8-1.2-3.8-3.4c0-2.5,1.9-3.1,4.4-3.4
			c2-0.3,2.8-0.6,2.8-1.4c0-0.8-0.5-1.3-1.6-1.3c-1.2,0-1.9,0.6-1.9,1.5h-3c0.1-1.9,1.6-3.7,4.9-3.7c1.4,0,2.4,0.2,3.2,0.7
			c1.1,0.7,1.7,1.8,1.7,3.3v5.7c0,0.9,0.1,1.4,0.4,1.5V24h-3.2C69.1,23.8,69,23.3,68.9,22.7z M69,20.1v-1.4
			c-0.5,0.3-1.2,0.5-1.9,0.6C65.7,19.6,65,20,65,20.9c0,1,0.7,1.3,1.6,1.3C68,22.2,69,21.3,69,20.1z"/>
		<path class="st0" d="M77,15L77,15c0.8-1.5,1.8-2.2,3.1-2.2c0.3,0,0.5,0,0.7,0.1v2.9h-0.1c-0.2,0-0.5-0.1-0.7-0.1
			c-1.8,0-2.9,1.1-2.9,3.2V24h-3.3V13H77V15z"/>
		<path class="st0" d="M81.5,18.5c0-3.4,1.9-5.9,4.8-5.9c1.5,0,2.5,0.7,3.3,1.9l0,0c0-0.7-0.1-1.6-0.1-2.6V8.6h3.3v15.5h-3.1v-1.6
			l0,0c-0.6,1.4-1.9,2-3.4,2C83.4,24.4,81.5,22.2,81.5,18.5z M89.6,18.5c0-2-0.8-3.4-2.5-3.4c-1.5,0-2.3,1.4-2.3,3.4
			s0.8,3.3,2.3,3.3C88.7,21.8,89.6,20.5,89.6,18.5z"/>
		<path class="st0" d="M94.6,8.6h3.3v2.9h-3.3V8.6z M94.6,13h3.3v11.1h-3.3V13z"/>
		<path class="st0" d="M102.8,14.7L102.8,14.7c0.7-1.3,1.9-2,3.5-2c2.4,0,3.9,1.6,3.9,4.1v7.3H107v-6.7c0-1.2-0.6-2-1.9-2
			s-2.1,1-2.1,2.4V24h-3.3V13h3.2L102.8,14.7L102.8,14.7z"/>
		<path class="st0" d="M111.1,20.6h3.1c0.2,1,1,1.6,2.2,1.6s1.8-0.5,1.8-1.3c0-1-1.3-1.1-2.9-1.4c-2-0.4-4-0.9-4-3.5
			c0-2.3,2.1-3.5,4.7-3.5c3.1,0,4.6,1.3,4.9,3.3h-3c-0.2-0.8-0.8-1.2-1.9-1.2c-1,0-1.6,0.4-1.6,1.1c0,0.8,1.2,1,2.7,1.2
			c2,0.4,4.2,0.9,4.2,3.7c0,2.4-2.1,3.6-5,3.6C113.2,24.4,111.3,22.9,111.1,20.6z"/>
		<path class="st0" d="M56.2,31.4c2.3,0,3.7-0.2,3.7-0.2c0.2,0,0.2,0,0.3,0h0.3v14.4c0,1,0.5,1.5,1.4,1.5h0.7v0.4h-1.9
			c-0.6,0-1.4,0.1-1.8,0.2h-0.2v-2.9c-0.4,0.8-1.3,2.9-3.6,2.9c-2.4,0-4.6-2.5-4.6-5.3c0-2.9,2.1-5.2,4.6-5.2c1.5,0,2.6,0.8,3.5,2.6
			v-6.5c0-0.9-0.5-1.5-1.4-1.5h-1.1L56.2,31.4L56.2,31.4z M58.7,42.1c0-2.5-1.5-4.5-3.3-4.5c-0.6,0-1.2,0.2-1.7,0.7
			c-0.8,0.8-1,1.9-1,4.3c0,2.4,0.4,3.6,1.4,4.3c0.4,0.3,0.8,0.4,1.3,0.4C57.4,47.2,58.7,45.2,58.7,42.1z"/>
		<path class="st0" d="M73,43.6c-0.2,0.9-0.3,1.2-0.7,1.8c-0.9,1.5-2.3,2.3-3.8,2.3c-2.7,0-4.8-2.4-4.8-5.4c0-2.9,2-5.2,4.5-5.2
			c2.4,0,4.4,2,4.6,4.9h-7.1c0,1.6,0,5.2,3,5.2c1.9,0,3.4-1.4,3.9-3.6H73z M70.1,41.6c0.5,0,0.7-0.2,0.7-0.8c0-2-1-3.3-2.5-3.3
			c-0.9,0-1.6,0.6-2,1.6c-0.3,0.8-0.4,1.2-0.4,2.5H70.1z"/>
		<path class="st0" d="M74.9,43.1c0.3,1.5,0.8,2.4,1.5,3.1c0.7,0.7,1.7,1.1,2.7,1.1c1.2,0,2.2-0.8,2.2-1.8c0-1.1-0.7-1.7-3-2.4
			c-2.1-0.7-2.5-1-3-1.5s-0.7-1-0.7-1.8c0-1.6,1.2-2.8,2.7-2.8c1.1,0,1.6,0.3,2.9,1.3c0.5-0.4,0.6-0.6,0.8-1.2h0.4v4H81
			c-0.3-1.3-0.6-2-1.2-2.6c-0.7-0.7-1.5-1.1-2.4-1.1c-1.2,0-2.1,0.7-2.1,1.7c0,1.2,1.5,1.7,2.8,2c2.4,0.7,3.9,1.5,3.9,3.5
			c0,1.8-1.4,3-3.2,3c-1.1,0-2.2-0.5-3.1-1.5c-0.4,0.4-0.4,0.5-0.9,1.5h-0.3V43L74.9,43.1L74.9,43.1z"/>
		<path class="st0" d="M94.9,39.5c0,1.2-0.1,2.4-0.1,3.5c0,3,0,3.4,0.4,3.8c0.2,0.2,0.5,0.3,0.8,0.3h1.6v0.4h-8.4v-0.4h2
			c0.8,0,1.2-0.5,1.2-1.4V33.1c0-0.9-0.4-1.4-1.2-1.4H89v-0.4h14.5v6h-0.4c-0.4-3.2-2.5-5.6-4.8-5.6h-2.9c-0.4,0-0.6,0.2-0.6,0.8
			v6.4H96c1.2,0,2.3-0.8,2.8-2c0.3-0.6,0.3-1.2,0.3-2.3h0.4v9.2h-0.4v-0.2c0-2.6-1.2-4.2-3.1-4.2L94.9,39.5L94.9,39.5z"/>
		<path class="st0" d="M105.3,42.4c0-2.8,2.4-5.4,4.9-5.4c2.9,0,5.2,2.4,5.2,5.3c0,3.2-2.9,5.4-5.2,5.3
			C107.5,47.6,105.3,45.2,105.3,42.4z M113.4,42.3c0-3.2-1-4.8-3-4.8c-2.2,0-3.1,1.5-3.1,5c0,3.2,1,4.8,3,4.8
			C112.5,47.3,113.4,45.8,113.4,42.3z"/>
		<path class="st0" d="M118.8,33.3c0-0.9-0.3-1.3-1-1.3h-0.9v-0.4c0.8,0,1.7-0.1,2-0.1l1.2-0.1h0.5c0,4.2,0,7,0,9
			c0,6.5,0,6.3,0.3,6.6c0.2,0.1,0.4,0.2,0.7,0.2h0.8v0.4H117v-0.4h0.8c0.7,0,1-0.3,1-1.2V33.3z"/>
		<path class="st0" d="M127.2,37.3c0,1.6,0,3.3,0,4.9c0,4,0,4.2,0.1,4.5c0.1,0.2,0.2,0.5,0.9,0.5h0.8v0.4h-5.3v-0.4h0.8
			c0.7,0,1-0.3,1-1.2v-7c0-0.7-0.4-1.1-1.2-1.1h-0.7v-0.4c0.9,0,1.7,0,2.1-0.1l1.3-0.2L127.2,37.3L127.2,37.3z M125.1,32.8
			c0-0.6,0.5-1.2,1.2-1.2c0.6,0,1.2,0.5,1.2,1.2c0,0.6-0.5,1.2-1.2,1.2C125.6,33.9,125.1,33.4,125.1,32.8z"/>
		<path class="st0" d="M139.9,43.6c-0.2,0.9-0.3,1.2-0.7,1.8c-0.9,1.5-2.3,2.3-3.8,2.3c-2.7,0-4.8-2.4-4.8-5.4c0-2.9,2-5.2,4.5-5.2
			c2.4,0,4.4,2,4.6,4.9h-7.1c0,1.6,0,5.2,3,5.2c1.9,0,3.4-1.4,3.9-3.6H139.9z M137.1,41.6c0.5,0,0.7-0.2,0.7-0.8c0-2-1-3.3-2.5-3.3
			c-0.9,0-1.6,0.6-2,1.6c-0.3,0.8-0.4,1.2-0.4,2.5H137.1z"/>
		<path class="st0" d="M141.9,43.1c0.3,1.5,0.8,2.4,1.5,3.1c0.7,0.7,1.7,1.1,2.7,1.1c1.2,0,2.2-0.8,2.2-1.8c0-1.1-0.7-1.7-3-2.4
			c-2.1-0.7-2.5-1-3-1.5s-0.7-1-0.7-1.8c0-1.6,1.2-2.8,2.7-2.8c1.1,0,1.6,0.3,2.9,1.3c0.5-0.4,0.6-0.6,0.8-1.2h0.4v4h-0.3
			c-0.3-1.3-0.6-2-1.2-2.6c-0.7-0.7-1.5-1.1-2.4-1.1c-1.2,0-2.1,0.7-2.1,1.7c0,1.2,1.5,1.7,2.8,2c2.4,0.7,3.9,1.5,3.9,3.5
			c0,1.8-1.4,3-3.2,3c-1.1,0-2.2-0.5-3.1-1.5c-0.4,0.4-0.4,0.5-0.9,1.5h-0.3V43L141.9,43.1L141.9,43.1z"/>
		<path class="st0" d="M156.7,40.3c0.4,2,1.5,7.3,6.2,7.3c2,0,3.4-1.3,3.4-3.1c0-2.3-2.8-3.4-4.8-4.2c-1.7-0.6-2.9-1.2-3.4-1.7
			c-0.1-0.1-0.3-0.2-0.5-0.4c-0.7-0.8-1.2-1.9-1.2-2.8c0-2.4,1.9-4.3,4.3-4.3c1.6,0,2.8,0.6,4.3,2.2c0.6-0.7,0.9-1.1,1.2-2h0.4v6.2
			h-0.4c-0.2-1.4-0.4-1.9-0.8-2.8c-0.9-1.9-2.6-3.3-4.7-3.3c-1.7,0-3.2,1.3-3.2,2.8c0,1.8,1.9,2.7,4.4,3.6c1.7,0.6,2.9,1.2,3.5,1.7
			c1.3,1.1,1.9,2.5,1.9,3.9c0,2.7-2,4.7-4.7,4.7c-1.8,0-3.5-1-4.7-2.8c-0.3,0.5-0.7,1.1-1.3,2.6h-0.4v-7.5h0.5V40.3z"/>
		<path class="st0" d="M172.6,37.3c0,1.6,0,3.3,0,4.9c0,4,0,4.2,0.1,4.5c0.1,0.2,0.2,0.5,0.9,0.5h0.8v0.4H169v-0.4h0.8
			c0.7,0,1-0.3,1-1.2v-7c0-0.7-0.4-1.1-1.2-1.1h-0.7v-0.4c0.9,0,1.7,0,2.1-0.1l1.3-0.2L172.6,37.3L172.6,37.3z M170.5,32.8
			c0-0.6,0.5-1.2,1.2-1.2c0.6,0,1.2,0.5,1.2,1.2c0,0.6-0.5,1.2-1.2,1.2C171,33.9,170.5,33.4,170.5,32.8z"/>
		<path class="st0" d="M180.1,38.2c0,1.5,0,2.9,0,4.4c0,3.7,0,3.8,0.1,4.1c0.1,0.2,0.2,0.5,0.9,0.5h0.8v0.4h-5.4v-0.4h0.9
			c0.7,0,1-0.3,1-1.2v-7.8H176v-0.7h2.3V36c0-1.8,0.4-2.9,1.2-3.7c0.7-0.7,1.8-1.2,3-1.2c1.5,0,2.6,0.7,2.6,1.6c0,0.7-0.4,1.1-1,1.1
			c-0.5,0-1-0.5-1-1c0-0.4,0.2-0.8,0.8-1.2c-0.5-0.2-0.6-0.2-1.1-0.2c-1.1,0-2,0.5-2.4,1.4c-0.2,0.4-0.2,0.9-0.2,1.7v2.9h2.2v0.7
			h-2.3V38.2z"/>
		<path class="st0" d="M188,38.2c0,1.5,0,2.9,0,4.4c0,3.7,0,3.8,0.1,4.1c0.1,0.2,0.2,0.5,0.9,0.5h0.8v0.4h-5.4v-0.4h0.9
			c0.7,0,1-0.3,1-1.2v-7.8H184v-0.7h2.3V36c0-1.8,0.4-2.9,1.2-3.7c0.7-0.7,1.8-1.2,3-1.2c1.5,0,2.6,0.7,2.6,1.6c0,0.7-0.4,1.1-1,1.1
			c-0.5,0-1-0.5-1-1c0-0.4,0.2-0.8,0.8-1.2c-0.5-0.2-0.6-0.2-1.1-0.2c-1.1,0-2,0.5-2.4,1.4c-0.2,0.4-0.2,0.9-0.2,1.7v2.9h2.2v0.7
			H188V38.2z"/>
		<path class="st0" d="M202.8,43.2c0,3-0.8,4.5-2.3,4.5c-1,0-1.6-0.8-1.9-2.5c-0.8,1.8-1.8,2.5-3.4,2.5c-1.6,0-3-1.2-3-2.6
			c0-0.6,0.3-1.2,0.7-1.7c0.6-0.6,1.4-1,3.1-1.3c1.3-0.3,1.5-0.4,2.3-0.7v-1.7c0-1.3-0.8-2-2.3-2c-1,0-2.1,0.5-2.1,1
			c0,0.2,0.1,0.3,0.4,0.4c0.5,0.3,0.7,0.6,0.7,1c0,0.6-0.5,1-1,1c-0.6,0-1.2-0.6-1.2-1.4c0-1.5,1.6-2.7,3.7-2.7
			c2.4,0,3.6,1.1,3.6,3.2V45c0,1.2,0.3,1.9,0.9,1.9c0.8,0,1.2-0.9,1.3-3.2v-0.5H202.8z M198.5,41.8c-0.5,0.2-0.7,0.3-1.4,0.5
			c-1.1,0.3-2.9,0.8-2.9,2.8c0,1.2,0.7,2,1.6,2c1.5,0,2.7-1.6,2.7-3.4L198.5,41.8L198.5,41.8z"/>
		<path class="st0" d="M207.3,37.3c0,1.6,0,3.3,0,4.9c0,4,0,4.2,0.1,4.5c0.1,0.2,0.2,0.5,0.9,0.5h0.8v0.4h-5.3v-0.4h0.8
			c0.7,0,1-0.3,1-1.2v-7c0-0.7-0.4-1.1-1.2-1.1h-0.7v-0.4c0.9,0,1.7,0,2.1-0.1l1.3-0.2L207.3,37.3L207.3,37.3z M205.2,32.8
			c0-0.6,0.5-1.2,1.2-1.2c0.6,0,1.2,0.5,1.2,1.2c0,0.6-0.5,1.2-1.2,1.2C205.7,33.9,205.2,33.4,205.2,32.8z"/>
		<path class="st0" d="M210.3,37.8c2.4-0.8,3.1-2.7,3.5-4.9h0.5v4.7h3.3v0.7h-3.3v7.1c0,1,0.6,1.7,1.4,1.7c1.6,0,2.4-1.6,2.4-4.9
			h0.3c0,2.6-0.3,3.9-1.2,4.7c-0.5,0.5-1.3,0.8-2.1,0.8c-1.7,0-2.7-1-2.7-2.8v-6.6h-2.1L210.3,37.8L210.3,37.8z"/>
	</g>
	<g>
		<path class="st0" d="M29.7,17.8c-0.2-5.2-4.9-9.3-10.2-9.3l0,0c-5.3,0-10,4.1-10.2,9.3H0v6h15.2V19c0-2.4,1.9-4.3,4.3-4.3l0,0
			c2.4,0,4.3,1.9,4.3,4.3v4.8H39v-6H29.7z"/>
		<rect y="29.7" class="st0" width="23.8" height="5.9"/>
		<rect y="41.7" class="st0" width="5.9" height="5.9"/>
		<polygon class="st0" points="33.2,41.7 15,41.7 15,47.6 33.2,47.6 34.5,47.6 39,47.6 39,29.7 33.2,29.7 		"/>
	</g>
</g>
<rect class="st1" width="218.4" height="56.7"/>
</svg>
