<?xml version="1.0" encoding="UTF-8"?><svg id="Calque_1" xmlns="http://www.w3.org/2000/svg" viewBox="0 0 329.31 88.06"><defs><style>.cls-1{fill:#014562;}.cls-2{fill:#fff;}.cls-3{fill:#069fa0;}.cls-3,.cls-4{stroke:#fff;}.cls-4{fill:#0a62ac;}.cls-5{fill:#bccae9;}.cls-6{fill:#afca0c;}.cls-7{fill:#1d1d1b;}</style></defs><g><path class="cls-3" d="m.5,87.56V28.71h53.94v58.85H.5Z"/><path class="cls-4" d="m.5,54.81V.5h53.94v54.31H.5Z"/><g><path class="cls-5" d="m14.33,27.38c-.54-.35-1.97-1.2-2.32-1.55-.42-.41-.69-1.11-.48-2.02H3.83v3.56h10.49Z"/><path class="cls-5" d="m24.29,25.89c-.51.3-2.82,1.49-2.82,1.49h3.71c0-.19.39-.61.39-.61-1.06.06-1.28-.88-1.28-.88Z"/><path class="cls-5" d="m31.29,25.89c.3.25,2.37,1.49,2.37,1.49h-3.64c0-.19-.24-.64-.24-.64,1.14.13,1.51-.85,1.51-.85Z"/><path class="cls-5" d="m40.92,27.38s2.29-1.18,2.78-1.6c.43-.37,1.07-1.22.85-1.97h6.61v3.58h-10.24Z"/></g><g><g><path class="cls-2" d="m19.94,12.76c.94,0,1.82-.77,1.95-1.71.13-.94-.52-1.71-1.47-1.71s-1.82.77-1.95,1.71c-.13.94.52,1.71,1.47,1.71Z"/><path class="cls-2" d="m19.8,13.62l3.73-2.09c.37-.2.68-.28.99-.28.88,0,1.5.72,1.38,1.6-.07.55-.42,1.03-.87,1.31l-2.82,1.59s-.38,2.68-.58,4.07c-.06.4-.62.65-.95.46-.56-.33-1.67-1.05-1.67-1.05,0,0-1.31.71-1.96,1.05-.39.2-.88-.05-.82-.46.2-1.39.57-4.07.57-4.07l-2.37-1.59c-.38-.29-.58-.77-.5-1.31.13-.88.94-1.6,1.83-1.6.31,0,.6.08.82.24l3.24,2.13Z"/></g><g><path class="cls-2" d="m30.43,7.15c.94,0,1.82-.77,1.95-1.71s-.52-1.71-1.47-1.71-1.82.77-1.95,1.71c-.13.94.53,1.71,1.47,1.71Z"/><path class="cls-2" d="m30.3,8.01l3.73-2.09c.37-.2.68-.28.99-.28.88,0,1.5.72,1.38,1.6-.08.55-.42,1.03-.87,1.31l-2.82,1.59s-.38,2.68-.58,4.07c-.06.4-.62.65-.95.46-.56-.33-1.67-1.05-1.67-1.05,0,0-1.31.71-1.96,1.05-.38.2-.88-.05-.82-.46.2-1.39.57-4.07.57-4.07l-2.37-1.59c-.38-.29-.58-.77-.5-1.31.13-.88.94-1.6,1.83-1.6.31,0,.6.08.82.24l3.24,2.13Z"/></g><g><path class="cls-2" d="m39.32,12.76c.94,0,1.82-.77,1.95-1.71.13-.94-.52-1.71-1.47-1.71s-1.82.77-1.95,1.71.52,1.71,1.47,1.71Z"/><path class="cls-2" d="m39.18,13.62l3.73-2.09c.37-.2.68-.28.99-.28.88,0,1.5.72,1.38,1.6-.07.55-.42,1.03-.87,1.31l-2.82,1.59s-.38,2.68-.58,4.07c-.06.4-.62.65-.95.46-.56-.33-1.67-1.05-1.67-1.05,0,0-1.31.71-1.96,1.05-.39.2-.88-.05-.82-.46.2-1.39.56-4.07.56-4.07l-2.37-1.59c-.38-.29-.58-.77-.5-1.31.13-.88.94-1.6,1.83-1.6.31,0,.6.08.82.24l3.24,2.13Z"/></g><g><path class="cls-2" d="m37.69,24.08c.94,0,1.82-.77,1.95-1.71s-.52-1.71-1.47-1.71-1.82.77-1.95,1.71.52,1.71,1.47,1.71Z"/><path class="cls-2" d="m37.55,24.93l3.73-2.09c.37-.2.68-.28.99-.28.88,0,1.5.72,1.38,1.6-.07.55-.42,1.03-.87,1.31l-2.82,1.59s-.38,2.68-.58,4.07c-.06.4-.62.65-.95.46-.56-.33-1.67-1.04-1.67-1.04,0,0-1.31.71-1.96,1.05-.39.2-.88-.05-.82-.46.2-1.39.56-4.07.56-4.07l-2.37-1.59c-.38-.29-.58-.77-.5-1.31.13-.88.94-1.6,1.83-1.6.31,0,.6.08.82.24l3.23,2.12Z"/></g><g><path class="cls-2" d="m28.85,18.42c.94,0,1.82-.77,1.95-1.71.13-.94-.52-1.71-1.47-1.71s-1.82.77-1.95,1.71c-.13.94.53,1.71,1.47,1.71Z"/><path class="cls-2" d="m28.71,19.28l3.73-2.09c.37-.2.68-.28.99-.28.88,0,1.5.72,1.38,1.6-.07.55-.42,1.03-.87,1.31l-2.82,1.59s-.38,2.68-.58,4.07c-.06.4-.62.65-.95.46-.56-.33-1.67-1.05-1.67-1.05,0,0-1.31.71-1.96,1.05-.38.2-.88-.05-.82-.46.19-1.39.56-4.07.56-4.07l-2.37-1.59c-.38-.29-.58-.77-.5-1.31.12-.88.94-1.6,1.83-1.6.31,0,.6.08.82.24l3.24,2.13Z"/></g><g><path class="cls-2" d="m27.27,29.68c.94,0,1.82-.77,1.95-1.71s-.52-1.71-1.47-1.71-1.82.77-1.95,1.71c-.13.95.53,1.71,1.47,1.71Z"/><path class="cls-2" d="m27.14,30.54l3.73-2.09c.37-.2.68-.28.99-.28.88,0,1.5.72,1.38,1.6-.07.55-.42,1.03-.87,1.31l-2.82,1.59s-.38,2.68-.58,4.07c-.06.4-.62.65-.95.46-.56-.33-1.67-1.05-1.67-1.05,0,0-1.31.71-1.96,1.05-.38.2-.88-.05-.82-.46.19-1.39.56-4.07.56-4.07l-2.37-1.59c-.38-.29-.58-.77-.5-1.31.12-.88.94-1.6,1.83-1.6.31,0,.6.08.82.24l3.24,2.13Z"/></g><g><path class="cls-2" d="m18.35,24.02c.94,0,1.82-.77,1.95-1.71s-.52-1.71-1.47-1.71-1.82.77-1.95,1.71c-.13.95.52,1.71,1.47,1.71Z"/><path class="cls-2" d="m18.22,24.88l3.73-2.09c.37-.2.68-.28.99-.28.88,0,1.5.72,1.38,1.6-.07.55-.42,1.03-.87,1.31l-2.82,1.59s-.38,2.68-.58,4.07c-.06.4-.62.65-.95.46-.56-.33-1.67-1.05-1.67-1.05,0,0-1.31.71-1.96,1.05-.39.2-.88-.05-.82-.46.2-1.39.56-4.07.56-4.07l-2.37-1.59c-.38-.29-.58-.77-.5-1.31.13-.88.94-1.6,1.83-1.6.31,0,.6.08.82.24l3.24,2.13Z"/></g></g><path class="cls-2" d="m6.48,43.13l.88-1.48.28,1.48h-1.16Zm1.23.39c.09.43.14.86.19,1.33.19-.01.37-.03.55-.03s.36.02.54.03l-.92-4.41c-.08.01-.16.02-.24.02-.08,0-.16,0-.24-.02l-2.67,4.4c.1,0,.21-.02.31-.02s.2.01.3.02c.21-.44.44-.84.7-1.32h1.49Z"/><path class="cls-2" d="m10.64,44.37c.56,0,1.03-.04,1.47-.09-.03.09-.07.19-.08.27-.02.09-.02.19-.02.27h-2.4l.84-4.32c.15.01.31.03.47.03s.32-.02.48-.03l-.76,3.87Z"/><path class="cls-2" d="m13.82,44.37c.56,0,1.03-.04,1.47-.09-.03.09-.07.19-.08.27-.02.09-.02.19-.02.27h-2.4l.84-4.32c.15.01.31.03.47.03s.32-.02.48-.03l-.76,3.87Z"/><path class="cls-2" d="m18.91,40.77c.95,0,1.15.94,1,1.76-.21,1.05-.83,2.03-1.81,2.03s-1.16-.87-1-1.7c.27-1.42.93-2.09,1.81-2.09Zm2.02,1.88c.19-.98-.1-2.26-1.91-2.26-1.58,0-2.7,1.02-2.94,2.29-.28,1.44.5,2.27,1.91,2.27,1.56,0,2.71-1.05,2.94-2.29Z"/><path class="cls-2" d="m24.81,44.12l-.24.55c-.42.2-.88.27-1.31.27-1.36,0-2.22-.84-1.97-2.14.32-1.66,1.61-2.41,2.99-2.41.42,0,.91.11,1.23.31-.1.22-.18.43-.28.65h-.09c-.17-.34-.53-.58-.94-.58-1.05,0-1.68,1.01-1.86,1.94-.21,1.09.17,1.85,1.15,1.85.39,0,.89-.2,1.23-.48l.08.04Z"/><path class="cls-2" d="m26.6,43.13l.88-1.48.28,1.48h-1.16Zm1.23.39c.09.43.14.86.19,1.33.19-.01.37-.03.55-.03s.36.02.54.03l-.92-4.41c-.08.01-.16.02-.24.02s-.16,0-.24-.02l-2.67,4.4c.1,0,.21-.02.31-.02s.2.01.3.02c.21-.44.44-.84.7-1.32h1.49Z"/><path class="cls-2" d="m31.46,44.85c-.15-.01-.31-.03-.47-.03s-.32.02-.48.03l.76-3.91c-.45,0-.86.04-1.2.09.03-.09.07-.18.08-.28.02-.09.02-.18.02-.27h3.27c-.03.09-.07.18-.08.27-.02.1-.02.19-.02.28-.37-.04-.73-.09-1.12-.09l-.75,3.91Z"/><path class="cls-2" d="m34.16,40.5c.15.01.31.03.47.03s.32-.02.48-.03l-.85,4.36c-.15-.01-.31-.03-.47-.03s-.32.02-.48.03l.85-4.36Z"/><path class="cls-2" d="m38.32,40.77c.95,0,1.15.94,1,1.76-.21,1.05-.83,2.03-1.81,2.03s-1.16-.87-1-1.7c.28-1.42.93-2.09,1.82-2.09Zm2.02,1.88c.19-.98-.1-2.26-1.91-2.26-1.58,0-2.7,1.02-2.94,2.29-.28,1.44.5,2.27,1.91,2.27,1.56,0,2.72-1.05,2.95-2.29Z"/><path class="cls-2" d="m41.52,40.5h.62c.71.98,1.47,1.95,2.17,2.97l.58-2.97c.08.01.16.02.25.02s.17,0,.25-.02l-.85,4.36h-.53c-.58-.83-1.11-1.6-1.69-2.36l-.55-.73-.6,3.08c-.08,0-.16-.02-.25-.02s-.17.01-.25.02l.85-4.35Z"/><path class="cls-2" d="m48.24,41.32c-.06-.34-.26-.55-.62-.55-.5,0-.75.26-.82.62-.17.86,1.79.7,1.51,2.15-.16.82-.97,1.4-1.95,1.4-.35,0-.71-.08-.97-.27.13-.26.25-.53.34-.8h.12c.01.44.3.7.74.7.4,0,.79-.22.87-.66.2-1.02-1.77-.65-1.47-2.18.14-.73.76-1.33,1.73-1.33.46,0,.83.17.94.31-.12.2-.22.41-.32.63h-.1Z"/><path class="cls-2" d="m10.27,51.27c-.15-.01-.31-.03-.47-.03s-.32.02-.48.03l.85-4.36h2.42c-.03.09-.07.19-.08.28s-.02.19-.02.28c-.38-.04-.78-.09-1.45-.09l-.26,1.37h.67c.25,0,.51-.03.78-.06-.03.09-.07.19-.08.28s-.02.19-.02.28c-.26-.03-.51-.06-.76-.06h-.67l-.41,2.09Z"/><path class="cls-2" d="m13.64,49.55l.88-1.48.28,1.48h-1.16Zm1.23.39c.09.43.14.86.19,1.33.19-.01.37-.03.55-.03s.36.02.54.03l-.92-4.41c-.08.01-.16.02-.24.02-.08,0-.16,0-.24-.02l-2.67,4.4c.1,0,.21-.02.31-.02s.2.01.3.02c.21-.44.44-.84.7-1.32h1.49Z"/><path class="cls-2" d="m21.42,46.91c.08.02.17.03.26.03.09,0,.19-.02.28-.03-.14,1.71-.26,3.09-.29,4.36-.17-.01-.34-.03-.52-.03s-.34.02-.52.03c.14-1.01.21-1.98.3-2.96-.67.97-1.34,1.94-1.98,2.93-.08-.01-.15-.02-.24,0-.24-.88-.55-1.86-.84-2.86-.37,1.12-.64,2-.83,2.89-.1-.01-.19-.03-.29-.03s-.2.02-.3.03c.48-1.28.96-2.75,1.49-4.36.08.02.16.03.25.03s.18-.02.28-.03c.26,1,.58,1.99.88,2.99.62-.9,1.36-1.9,2.05-2.99Z"/><path class="cls-2" d="m23.31,46.91c.15.02.31.03.47.03s.32-.02.48-.03l-.85,4.36c-.15-.01-.31-.03-.47-.03s-.32.02-.48.03l.85-4.36Z"/><path class="cls-2" d="m25.56,50.78c.55,0,1.03-.04,1.47-.09-.03.09-.07.19-.08.27-.02.09-.02.19-.02.27h-2.4l.84-4.32c.16.02.31.03.47.03s.32-.02.48-.03l-.76,3.87Z"/><path class="cls-2" d="m28.6,46.91c.16.02.31.03.47.03s.32-.02.48-.03l-.85,4.36c-.15-.01-.31-.03-.47-.03s-.32.02-.48.03l.85-4.36Z"/><path class="cls-2" d="m30.93,49.55l.88-1.48.28,1.48h-1.16Zm1.23.39c.09.43.14.86.19,1.33.19-.01.37-.03.55-.03s.36.02.54.03l-.92-4.41c-.08.01-.16.02-.24.02s-.15,0-.24-.02l-2.67,4.4c.1,0,.21-.02.31-.02s.2.01.3.02c.21-.44.44-.84.7-1.32h1.49Z"/><path class="cls-2" d="m35.09,50.78c.55,0,1.03-.04,1.47-.09-.03.09-.07.19-.08.27-.02.09-.02.19-.02.27h-2.4l.84-4.32c.15.02.31.03.47.03s.32-.02.48-.03l-.76,3.87Z"/><path class="cls-2" d="m40.47,46.91c-.03.09-.07.19-.08.28-.02.09-.02.19-.02.28-.38-.05-.8-.1-1.45-.09l-.26,1.37h.66c.29,0,.55-.03.79-.06-.03.09-.07.19-.08.28-.02.09-.02.19-.02.28-.23-.03-.49-.06-.77-.06h-.66l-.31,1.61c.65,0,1.09-.04,1.48-.09-.03.09-.07.19-.08.28-.02.09-.02.19-.02.28h-2.42l.84-4.32h2.42Z"/><path class="cls-2" d="m43.04,47.74c-.06-.34-.26-.55-.62-.55-.5,0-.75.26-.82.62-.16.86,1.79.7,1.51,2.15-.16.81-.97,1.4-1.95,1.4-.35,0-.71-.08-.97-.27.13-.26.25-.53.34-.8h.12c.01.44.3.7.74.7.39,0,.79-.22.87-.66.2-1.02-1.77-.65-1.47-2.18.14-.73.76-1.33,1.73-1.33.46,0,.83.17.94.31-.12.2-.22.41-.32.63h-.1Z"/><g><path class="cls-2" d="m26.23,64.2l-.23.91c-.64.33-1.39.46-2.1.46-2.27,0-3.98-1.4-3.98-3.57,0-2.76,1.91-4.02,4.21-4.02.7,0,1.55.18,2.16.52-.1.36-.16.72-.24,1.09h-.15c-.39-.57-1.07-.97-1.76-.97-1.76,0-2.47,1.68-2.47,3.24,0,1.81.89,3.08,2.52,3.08.66,0,1.42-.34,1.9-.79l.14.06Z"/><path class="cls-2" d="m31.29,64.5c0,.39.12.52.54.5v.24c-.25.12-.66.29-.95.29-.5,0-.88-.31-1.05-.77-.28.49-.8.77-1.36.77-.87,0-1.51-.48-1.51-1.4,0-1.01.61-1.3,1.94-1.62.26-.06.54-.13.77-.28.13-.12.16-.25.16-.41,0-.51-.52-.93-1.01-.93-.68,0-1.23.47-1.29.66h-.07l-.14-.64c.5-.47,1.29-.71,1.96-.71.89,0,2.01.36,2.01,1.42v2.88Zm-1.46-1.84c-.26.12-.74.21-1.05.46-.28.22-.34.54-.34.88,0,.39.13.85.58.85.65,0,.78-.62.8-1.15v-1.03Z"/><path class="cls-2" d="m32.09,60.97c.03-.22.03-.42,0-.68h.78c.08-.57.22-1.2.55-1.76.52-.93,1.11-1.28,2.19-1.1-.07.44-.07.95-.04,1.34l-.14.05c-.26-.14-.62-.3-.93-.3-.18,0-.44,0-.58.14-.06.06-.13.12-.13.22,0,.29.33,1.09.47,1.4h1.07c-.03.25-.03.42,0,.68h-1v4.46c-.24-.02-.49-.05-.73-.05s-.49.03-.73.05v-4.46h-.78Z"/><path class="cls-2" d="m17.57,73.35c-.15-.02-.3-.03-.46-.03s-.31.02-.46.03v-.6c-.14.41-.49.67-.94.67-1.02,0-1.36-.84-1.36-1.73s.42-1.74,1.33-1.74c.41,0,.74.14.94.5v-2.32c.16.02.32.03.48.03s.32-.02.48-.03v5.22Zm-2.2-1.65c0,.4.05,1.26.6,1.26.59,0,.67-.9.67-1.33,0-.4-.06-1.23-.61-1.23-.59,0-.66.87-.66,1.31Z"/><path class="cls-2" d="m19.23,71.69c-.02.71.23,1.28.96,1.28.28,0,.59-.13.8-.31l.08.06-.15.39c-.28.19-.65.31-.98.31-1.14,0-1.73-.69-1.73-1.81,0-.96.58-1.65,1.58-1.65,1.08,0,1.49.75,1.41,1.74h-1.97Zm1.02-.33c0-.37-.04-1.1-.46-1.1-.5,0-.55.73-.57,1.1h1.02Z"/><path class="cls-2" d="m24.9,72.82c.6,0,1.11-.05,1.58-.1-.02.1-.04.2-.04.3s.02.2.04.3h-2.61v-4.68c.17.02.34.03.52.03s.34-.02.52-.03v4.19h0Z"/><path class="cls-2" d="m26.99,71.76c0-1.08.62-1.81,1.68-1.81s1.69.64,1.69,1.65-.62,1.81-1.7,1.81c-1.02,0-1.67-.64-1.67-1.66Zm1.02-.02c0,.44.05,1.37.65,1.37.53-.02.68-.85.68-1.61,0-.67-.17-1.23-.64-1.23-.56,0-.7.66-.7,1.47Z"/><path class="cls-2" d="m31.54,68.21c.3,0,.55.25.55.55s-.25.55-.55.55-.53-.25-.53-.55c0-.29.24-.55.53-.55Zm-.47,1.8c.16.02.32.04.48.04s.32-.02.48-.04v3.34c-.16-.02-.32-.03-.48-.03s-.32.02-.48.03v-3.34Z"/><path class="cls-2" d="m32.96,70.01c.16.02.32.04.48.04s.32-.02.48-.04v.85c.14-.5.45-.92,1.12-.92-.03.32-.05.64-.03.94l-.06.05c-.09-.06-.24-.09-.35-.09-.3,0-.55.16-.64.46-.06.2-.04.58-.04.8v1.24c-.16-.02-.32-.03-.48-.03s-.32.02-.48.03c0,0,0-3.33,0-3.33Z"/><path class="cls-2" d="m36.36,71.69c-.02.71.23,1.28.96,1.28.28,0,.59-.13.8-.31l.08.06-.15.39c-.28.19-.65.31-.98.31-1.14,0-1.73-.69-1.73-1.81,0-.96.58-1.65,1.58-1.65,1.08,0,1.49.75,1.41,1.74h-1.97Zm1.02-.33c0-.37-.04-1.1-.46-1.1-.5,0-.55.73-.57,1.1h1.02Z"/><path class="cls-2" d="m38.82,71.42h1.72v.74h-1.72v-.74Z"/><path class="cls-2" d="m13.03,79.85c-.18.52-.35.95-.48,1.42-.11,0-.21-.02-.32-.02s-.22.02-.33.02l1.97-4.77c.09.02.17.02.26.02.09,0,.17,0,.26-.02l1.92,4.79c-.2-.02-.39-.03-.59-.03s-.39.02-.59.03c-.16-.51-.3-.98-.49-1.44h-1.6Zm1.45-.42l-.61-1.6-.65,1.6h1.26Z"/><path class="cls-2" d="m17.92,80.36c0,.48.03.73.64.57v.27c-.25.1-.5.16-.71.16-.71,0-.87-.48-.87-1.12v-1.84h-.47c.02-.16.02-.28,0-.44h.47v-.78c.31-.12.62-.27.95-.43v1.2h.58c-.02.16-.02.28,0,.44h-.58v1.96Z"/><path class="cls-2" d="m20.12,81.29c-.16-.02-.32-.03-.48-.03s-.32.02-.48.03v-5.23c.16.02.32.03.48.03s.32-.02.48-.03v5.23Z"/><path class="cls-2" d="m23.58,80.69c0,.25.07.34.35.32v.16c-.16.07-.43.19-.62.19-.32,0-.57-.2-.68-.5-.18.32-.52.5-.88.5-.57,0-.98-.31-.98-.91,0-.65.4-.85,1.26-1.05.17-.04.35-.08.5-.18.08-.07.11-.16.11-.27,0-.33-.34-.6-.66-.6-.44,0-.8.3-.84.43h-.05l-.09-.41c.32-.3.84-.46,1.27-.46.58,0,1.31.23,1.31.92v1.87h0Zm-.95-1.2c-.17.07-.48.14-.68.3-.18.14-.22.35-.22.57,0,.25.08.55.38.55.42,0,.51-.41.52-.75v-.67h0Z"/><path class="cls-2" d="m24.42,77.95c.15.02.3.04.46.04s.3-.02.46-.04v.51c.28-.32.64-.57,1.06-.57.87,0,1.09.56,1.09,1.38v2.02c-.16-.02-.32-.03-.48-.03s-.32.02-.48.03v-1.72c0-.64-.08-1.11-.57-1.11-.6,0-.6.8-.6,1.24v1.58c-.16-.02-.32-.03-.48-.03s-.32.02-.48.03v-3.33h.01Z"/><path class="cls-2" d="m29.4,80.36c0,.48.03.73.64.57v.27c-.25.1-.5.16-.71.16-.71,0-.87-.48-.87-1.12v-1.84h-.47c.02-.16.02-.28,0-.44h.47v-.78c.31-.12.62-.27.95-.43v1.2h.58c-.02.16-.02.28,0,.44h-.58v1.96Z"/><path class="cls-2" d="m31.11,76.15c.3,0,.55.25.55.55s-.25.55-.55.55-.53-.25-.53-.55.24-.55.53-.55Zm-.47,1.8c.16.02.32.04.48.04s.32-.02.48-.04v3.34c-.16-.02-.32-.03-.48-.03s-.32.02-.48.03v-3.34Z"/><path class="cls-2" d="m34.62,77.95c.15.02.3.04.46.04s.3-.02.46-.04v5.09c-.16-.02-.32-.04-.48-.04s-.32.02-.48.04v-2.18c-.15.25-.44.5-.89.5-.84,0-1.38-.67-1.38-1.69s.4-1.77,1.31-1.77c.5,0,.8.22.99.67v-.61h0Zm-1.25,2.11c.03.33.21.84.61.84.57,0,.62-.8.62-1.22s-.05-1.35-.67-1.35c-.56,0-.6.85-.6,1.24,0,.16.01.32.03.48Z"/><path class="cls-2" d="m39.31,81.29c-.15-.02-.3-.03-.46-.03s-.31.02-.46.03v-.5c-.32.34-.57.57-1.05.57-.35,0-.71-.13-.92-.43-.21-.3-.18-.73-.18-1.07v-1.91c.16.02.32.04.48.04s.32-.02.48-.04v1.9c0,.16,0,.43.07.57.09.21.25.36.49.36.6,0,.6-.6.6-1.03v-1.79c.16.02.32.04.48.04s.32-.02.48-.04v3.33Z"/><path class="cls-2" d="m40.98,79.63c-.02.71.23,1.28.96,1.28.28,0,.59-.13.8-.31l.08.06-.15.39c-.28.19-.65.31-.98.31-1.14,0-1.73-.69-1.73-1.81,0-.96.58-1.65,1.58-1.65,1.08,0,1.49.75,1.41,1.74h-1.97Zm1.02-.33c0-.37-.04-1.1-.46-1.1-.5,0-.55.73-.57,1.1h1.02Z"/></g></g><g id="logo-loire-atlantique-rvb"><path id="Tracé_695" class="cls-1" d="m113.13,30.6c-.44-.27-.96-.36-1.48-.36-.7,0-1.4.27-1.92.9-.52.54-.78,1.26-.7,1.98v.36l4.1-2.88Z"/><path id="Tracé_696" class="cls-1" d="m156.64,47.41c-.44-.27-.96-.36-1.48-.36-.7,0-1.4.27-1.92.9-.52.54-.78,1.26-.7,1.98v.36l4.1-2.88Z"/><path id="Tracé_697" class="cls-1" d="m91.59,35.72c.7,0,1.4-.27,1.92-.72.52-.54.78-1.26.87-1.98,0-.72-.26-1.44-.87-1.98-.52-.54-1.22-.81-1.92-.9-1.48,0-2.7,1.26-2.62,2.79v.09c0,.72.26,1.44.7,1.98.52.45,1.13.72,1.92.72Z"/><path id="Tracé_698" class="cls-1" d="m134.66,46.96c-1.48,0-2.7,1.26-2.62,2.79v.09c0,.72.26,1.44.7,1.98.52.54,1.22.81,1.92.72.7,0,1.4-.27,1.92-.72.52-.54.78-1.26.87-1.98-.09-1.62-1.31-2.88-2.79-2.88Z"/><path id="Tracé_699" class="cls-1" d="m104.32,52.45c.7,0,1.4-.27,1.92-.72.52-.54.78-1.26.87-1.98,0-.72-.26-1.44-.87-1.98-.52-.54-1.22-.81-1.92-.9-1.48,0-2.7,1.26-2.62,2.79v.09c0,.72.26,1.44.7,1.98.52.45,1.22.72,1.92.72Z"/><path id="Tracé_700" class="cls-1" d="m137.28,59.37v-5.49c-.78.63-1.74.99-2.79.99-1.31,0-2.53-.54-3.4-1.53-1.92-1.98-1.92-5.22,0-7.19s5.06-1.98,6.98,0c.96.99,1.48,2.25,1.48,3.6v9.62h-.26c8.11.09,17.35.54,28.34,1.26v-30.03c-39.76-15.92-87.8-15.02-106.11-3.42l15.17,47.03c2.53-1.62,4.97-3.15,7.5-4.5h0c11.95-6.56,24.41-10.61,53.1-10.34Zm14.47-13.22c.96-.99,2.18-1.53,3.49-1.53.96,0,2.01.27,2.79.9.78.54,1.4,1.35,1.83,2.25l.09.27-6.02,4.14c.44.27.96.36,1.48.36.7,0,1.4-.27,1.92-.9.26-.27.44-.54.52-.9h2.44c-.26.9-.7,1.8-1.31,2.52-1.92,1.98-5.06,1.98-6.98,0-.96-.99-1.48-2.25-1.48-3.6-.17-1.35.26-2.61,1.22-3.51h0Zm-10.81-1.35h2.27v5.75c0,1.08.96,1.98,2.01,1.89,1.05,0,1.83-.9,1.83-1.89v-5.75h2.27v5.75c0,1.17-.52,2.25-1.31,2.97-1.57,1.62-4.19,1.62-5.84,0-.78-.81-1.22-1.89-1.22-2.97v-5.75h0Zm-46.73,2.25h-1.48v7.46h-2.27v-7.46h-1.48v-2.34h1.48v-3.24h2.27v3.24h1.48v2.34Zm3.84,7.55h-2.27v-13.13h2.27v13.13Zm27.9-13.13h2.27v2.34h-2.27v-2.34Zm0,3.33h2.27v9.8h-2.27v-9.8Zm-6.19,0h1.48v-3.24h2.27v3.24h1.48v2.34h-1.48v7.46h-2.27v-7.46h-1.48v-2.34Zm-.7,4.14v5.75h-2.27v-5.75c0-1.08-.96-1.98-2.01-1.89-1.05,0-1.83.9-1.83,1.89v5.75h-2.27v-5.75c0-1.08.44-2.16,1.22-2.97,1.4-1.62,3.75-1.8,5.41-.45.17.09.26.27.44.45.78.63,1.4,1.8,1.31,2.97h0Zm-10.81-19.6c.96-.99,2.18-1.53,3.49-1.53.96,0,2.01.27,2.79.9.78.54,1.4,1.35,1.83,2.25l.09.27-6.02,4.14c.44.27.96.36,1.48.36.7,0,1.4-.27,1.92-.9.26-.27.44-.54.52-.9h2.44c-.26.9-.7,1.8-1.31,2.52-1.92,1.98-5.06,1.98-6.98,0-.96-.99-1.48-2.25-1.48-3.6-.26-1.26.26-2.61,1.22-3.51Zm-6.28,2.88c0-1.17.52-2.34,1.31-3.15.78-.81,1.92-1.26,3.05-1.26h.26v2.43h-.26c-.52,0-1.05.18-1.48.63-.35.36-.61.81-.61,1.35v5.75h-2.27v-5.75h0Zm2.35,12.32c2.7,0,4.97,2.25,4.97,5.13h0v4.95h-2.27v-.72c-.78.63-1.74.99-2.79.99-1.31,0-2.53-.54-3.4-1.53-1.92-1.98-1.92-5.22,0-7.19.96-.99,2.18-1.53,3.49-1.62h0Zm-6.36-19.78h2.18v2.34h-2.27v-2.34h.09Zm0,3.24h2.18v9.8h-2.27v-9.8h.09Zm-9.94,1.35c1.92-1.98,5.06-1.98,6.98,0,.96.99,1.48,2.25,1.48,3.6,0,2.79-2.18,5.13-4.97,5.13s-4.97-2.25-4.97-5.13c.09-1.26.61-2.61,1.48-3.6Zm-9.16-4.59h2.44v10.7h5.23v2.52h-7.59v-13.22h-.09Zm1.74,29.85h-2.53l4.45-13.22h2.62l4.62,13.22h-2.53l-.7-2.25h-5.06l-.87,2.25Z"/><path id="Tracé_701" class="cls-1" d="m82.18,50.29h3.49l-1.66-4.95-1.83,4.95Z"/><path id="Tracé_702" class="cls-6" d="m84.18,69.8h83.35v-9.17c-48.22-2.97-65.13-.9-83.35,9.17Z"/><path id="Tracé_704" class="cls-6" d="m167.62,60.63h0c-10.99-.72-20.32-1.08-28.34-1.26h-1.92c-28.77-.27-41.24,3.78-53.19,10.43h0c18.22-10.07,35.14-12.14,83.44-9.17Z"/><path id="Tracé_705" class="cls-2" d="m91.59,38.06c2.7,0,4.97-2.25,4.97-5.13h0c0-2.79-2.18-5.13-4.97-5.13s-4.97,2.25-4.97,5.13c0,1.35.52,2.61,1.48,3.6.87,1.08,2.18,1.62,3.49,1.53Zm-2.01-7.1c.52-.54,1.22-.81,1.92-.9.7.09,1.4.36,1.92.9.52.54.78,1.26.87,1.98,0,1.53-1.22,2.79-2.7,2.7h-.09c-.7,0-1.4-.27-1.92-.72-.52-.54-.78-1.26-.7-1.98,0-.63.26-1.35.7-1.98Z"/><rect id="Rectangle_526" class="cls-2" x="97.96" y="27.99" width="2.27" height="9.8"/><path id="Tracé_706" class="cls-2" d="m104.23,32.21c0-.54.17-.99.61-1.35.35-.36.87-.63,1.48-.63h.26v-2.34h-.26c-1.13,0-2.18.45-3.05,1.26s-1.31,1.89-1.31,3.15v5.75h2.27v-5.84h0Z"/><path id="Tracé_707" class="cls-2" d="m92.73,41.48h-2.27v3.33h-1.48v2.25h1.48v7.55h2.27v-7.55h1.48v-2.25h-1.48v-3.33Z"/><rect id="Rectangle_527" class="cls-2" x="95.78" y="41.48" width="2.27" height="13.22"/><path id="Tracé_708" class="cls-2" d="m100.83,53.26c.87.99,2.09,1.53,3.4,1.53,1.05,0,2.01-.36,2.79-.99v.9h2.27v-4.95c0-2.79-2.18-5.13-4.97-5.13s-4.97,2.25-4.97,5.13c.09,1.26.61,2.61,1.48,3.51Zm1.74-5.49c.52-.54,1.22-.81,1.92-.9.7,0,1.4.27,1.92.9.52.54.78,1.26.87,1.98,0,1.53-1.22,2.79-2.7,2.7h-.09c-.7,0-1.4-.27-1.92-.72-.52-.54-.78-1.26-.7-1.98-.26-.72.09-1.53.7-1.98Z"/><path id="Tracé_709" class="cls-2" d="m111.99,45.97c-.78.81-1.22,1.89-1.22,2.97v5.75h2.27v-5.75c0-1.08.96-1.98,2.01-1.89,1.05,0,1.83.9,1.83,1.89v5.75h2.27v-5.75c0-1.17-.52-2.25-1.31-2.97-.78-.81-1.83-1.35-2.88-1.35-1.13-.09-2.27.45-2.96,1.35Z"/><path id="Tracé_710" class="cls-2" d="m121.24,54.6h2.27v-7.55h1.48v-2.25h-1.48v-3.33h-2.27v3.33h-1.48v2.25h1.48v7.55Z"/><rect id="Rectangle_528" class="cls-2" x="125.95" y="44.8" width="2.27" height="9.8"/><rect id="Rectangle_529" class="cls-2" x="125.95" y="41.48" width="2.27" height="2.34"/><path id="Tracé_711" class="cls-2" d="m139.55,49.66c0-2.79-2.18-5.13-4.97-5.13s-4.97,2.25-4.97,5.13c0,1.35.52,2.61,1.48,3.6.87.99,2.09,1.53,3.4,1.53,1.05,0,2.01-.36,2.79-.99v5.49h2.18v-9.62h.09Zm-3.14,1.98c-.52.54-1.22.81-1.92.72-.7,0-1.4-.27-1.92-.72-.52-.54-.78-1.26-.7-1.98,0-.72.26-1.44.7-1.98.52-.54,1.22-.81,1.92-.9.7,0,1.4.27,1.92.9.52.54.78,1.26.87,1.98,0,.81-.26,1.53-.87,1.98h0Z"/><path id="Tracé_713" class="cls-2" d="m145.13,54.78c1.13,0,2.18-.45,2.88-1.26.78-.81,1.31-1.89,1.31-2.97v-5.75h-2.27v5.75c0,1.08-.96,1.98-2.01,1.89-1.05,0-1.83-.9-1.83-1.89v-5.75h-2.27v5.75c0,1.08.44,2.16,1.22,2.97.78.81,1.83,1.26,2.96,1.26Z"/><path id="Tracé_714" class="cls-2" d="m111.82,38.06c1.31,0,2.62-.54,3.49-1.53.61-.72,1.05-1.53,1.31-2.52h-2.44c-.09.36-.26.63-.52.9-.44.63-1.22.9-1.92.9-.52,0-.96-.09-1.48-.36l6.02-4.14-.09-.36c-.35-.9-.96-1.71-1.83-2.25-.78-.63-1.74-.9-2.79-.9-2.7,0-4.97,2.25-4.97,5.13h0c0,1.35.52,2.7,1.48,3.6,1.13,1.08,2.44,1.62,3.75,1.53Zm-1.92-7.1c.52-.54,1.22-.9,1.92-.9.52,0,.96.09,1.48.36l-4.01,2.7v-.36c-.17-.54.09-1.35.61-1.8Z"/><path id="Tracé_715" class="cls-2" d="m155.24,54.78c1.31,0,2.62-.54,3.49-1.53.61-.72,1.05-1.53,1.31-2.52h-2.44c-.09.36-.26.63-.52.9-.44.63-1.22.9-1.92.9-.52,0-.96-.09-1.48-.36l6.02-4.14-.09-.27c-.35-.9-.96-1.71-1.83-2.25-.78-.63-1.74-.9-2.79-.9-2.7,0-4.97,2.25-4.97,5.13,0,1.35.52,2.61,1.48,3.6,1.22.9,2.44,1.44,3.75,1.44Zm-1.92-7.01c.52-.54,1.22-.9,1.92-.9.52,0,.96.09,1.48.36l-4.01,2.7v-.36c-.09-.63.17-1.26.61-1.8Z"/><path id="Tracé_716" class="cls-2" d="m86.45,35.45h-5.32v-10.7h-2.27v13.22h7.59s0-2.52,0-2.52Z"/><path id="Tracé_717" class="cls-2" d="m87.23,54.6h2.53l-4.45-13.22h-2.62l-4.45,13.22h2.44l.7-2.25h5.06l.78,2.25Zm-5.06-4.32l1.83-4.95,1.83,4.95h-3.66Z"/><rect id="Rectangle_530" class="cls-2" x="97.96" y="24.75" width="2.27" height="2.34"/></g><g><path class="cls-7" d="m186.85,56.64c.32.34.7.69,1.13,1.04l-1.31,1.05c-.48-.34-.93-.75-1.36-1.22-.43-.48-.8-.98-1.12-1.52-.09,0-.24.01-.44.01-1.03,0-1.93-.22-2.69-.67-.77-.45-1.36-1.08-1.77-1.91-.42-.83-.62-1.8-.62-2.92s.2-2.08.62-2.9,1-1.46,1.76-1.9c.77-.44,1.67-.66,2.71-.66s1.94.22,2.71.66c.77.44,1.35,1.07,1.76,1.9s.61,1.79.61,2.9c0,1.22-.24,2.27-.73,3.14-.49.87-1.17,1.51-2.06,1.91.22.39.49.76.81,1.1Zm-5.4-3.21c.55.68,1.32,1.02,2.31,1.02s1.76-.34,2.31-1.02c.55-.68.83-1.66.83-2.93s-.28-2.23-.83-2.9c-.55-.68-1.32-1.01-2.31-1.01s-1.76.34-2.31,1.01c-.55.67-.83,1.64-.83,2.91s.28,2.25.83,2.93Z"/><path class="cls-7" d="m197.58,48.28v7.58h-1.83v-1.17c-.24.42-.56.74-.96.96s-.86.33-1.38.33c-1.85,0-2.78-1.04-2.78-3.12v-4.58h1.86v4.59c0,.55.11.96.34,1.22.23.26.57.39,1.04.39.55,0,.99-.18,1.32-.54.33-.36.5-.84.5-1.44v-4.22h1.89Z"/><path class="cls-7" d="m206.26,52.17h-5.22c.04.81.24,1.41.61,1.79.36.39.91.58,1.63.58.83,0,1.6-.27,2.31-.81l.54,1.29c-.36.29-.8.52-1.33.7-.53.17-1.06.26-1.6.26-1.24,0-2.22-.35-2.93-1.05-.71-.7-1.07-1.66-1.07-2.88,0-.77.16-1.46.47-2.06.31-.6.74-1.07,1.31-1.4.56-.34,1.2-.5,1.91-.5,1.04,0,1.86.34,2.47,1.01.61.68.91,1.6.91,2.78v.29Zm-4.56-2.29c-.32.3-.52.72-.61,1.28h3.53c-.06-.57-.23-1-.52-1.29-.29-.29-.68-.44-1.18-.44s-.91.15-1.22.44Z"/><path class="cls-7" d="m207.35,55.02l.53-1.32c.81.6,1.74.9,2.78.9.45,0,.8-.07,1.04-.23s.37-.36.37-.63c0-.23-.09-.41-.26-.55-.17-.13-.46-.25-.87-.35l-1.26-.29c-1.38-.3-2.07-1.01-2.07-2.12,0-.46.13-.87.39-1.22.26-.36.62-.63,1.1-.83.47-.2,1.02-.3,1.64-.3.54,0,1.06.08,1.56.25s.94.4,1.32.71l-.56,1.28c-.76-.56-1.54-.84-2.34-.84-.43,0-.77.08-1.01.24-.24.16-.36.38-.36.66,0,.22.07.4.22.53.14.13.39.24.74.33l1.29.29c.75.17,1.3.43,1.64.79.35.36.52.82.52,1.39,0,.7-.28,1.26-.84,1.67-.56.41-1.33.62-2.3.62-1.37,0-2.46-.32-3.27-.96Z"/><path class="cls-7" d="m217.68,49.69v3.39c0,.89.42,1.34,1.25,1.34.23,0,.48-.04.75-.12v1.49c-.33.12-.73.18-1.2.18-.86,0-1.52-.24-1.98-.72s-.69-1.17-.69-2.07v-3.48h-1.46v-1.41h1.46v-1.85l1.88-.63v2.48h2.01v1.41h-2.01Z"/><path class="cls-7" d="m222.95,44.84v1.85h-2.09v-1.85h2.09Zm-1.97,3.44h1.86v7.58h-1.86v-7.58Z"/><path class="cls-7" d="m226.3,55.5c-.59-.32-1.04-.78-1.35-1.37s-.47-1.29-.47-2.09.16-1.5.47-2.09.77-1.05,1.35-1.37c.59-.32,1.26-.48,2.03-.48s1.43.16,2.01.48c.58.32,1.03.78,1.34,1.37.32.6.47,1.29.47,2.09s-.16,1.5-.47,2.09c-.31.6-.76,1.05-1.34,1.37-.58.32-1.25.48-2.01.48s-1.45-.16-2.03-.48Zm3.48-1.61c.33-.42.5-1.03.5-1.85s-.17-1.43-.51-1.85c-.34-.43-.82-.64-1.44-.64s-1.12.21-1.46.64c-.34.43-.51,1.04-.51,1.85s.17,1.44.5,1.85c.33.42.82.62,1.45.62s1.13-.21,1.46-.62Z"/><path class="cls-7" d="m240.84,51.21v4.65h-1.88v-4.56c0-.6-.12-1.04-.35-1.31s-.59-.41-1.07-.41c-.57,0-1.03.18-1.38.55-.35.37-.53.85-.53,1.45v4.29h-1.86v-5.43c0-.8-.04-1.52-.12-2.15h1.76l.14,1.25c.26-.46.61-.82,1.06-1.07.45-.25.95-.38,1.51-.38,1.81,0,2.72,1.04,2.72,3.12Z"/><path class="cls-7" d="m242.34,55.02l.53-1.32c.81.6,1.74.9,2.78.9.45,0,.8-.07,1.04-.23s.37-.36.37-.63c0-.23-.09-.41-.26-.55-.17-.13-.46-.25-.87-.35l-1.26-.29c-1.38-.3-2.07-1.01-2.07-2.12,0-.46.13-.87.39-1.22.26-.36.62-.63,1.1-.83.47-.2,1.02-.3,1.64-.3.54,0,1.06.08,1.56.25s.94.4,1.32.71l-.56,1.28c-.76-.56-1.54-.84-2.34-.84-.43,0-.77.08-1.01.24-.24.16-.36.38-.36.66,0,.22.07.4.22.53.14.13.39.24.74.33l1.29.29c.75.17,1.3.43,1.64.79.35.36.52.82.52,1.39,0,.7-.28,1.26-.84,1.67-.56.41-1.33.62-2.3.62-1.37,0-2.46-.32-3.27-.96Z"/><path class="cls-7" d="m261.72,44.81v11.05h-1.85v-1.22c-.23.42-.56.75-.99.98s-.92.35-1.47.35c-.65,0-1.23-.17-1.74-.5-.51-.33-.91-.8-1.19-1.4-.29-.61-.43-1.3-.43-2.08s.14-1.47.42-2.06.68-1.05,1.19-1.37c.51-.33,1.1-.49,1.76-.49.54,0,1.02.11,1.45.34.42.23.75.54.98.95v-4.56h1.88Zm-2.36,9.05c.35-.43.52-1.04.52-1.83s-.17-1.4-.51-1.83c-.34-.43-.82-.65-1.44-.65s-1.12.21-1.46.64c-.35.43-.52,1.03-.52,1.81s.17,1.41.52,1.85c.35.44.83.66,1.45.66s1.1-.22,1.45-.65Z"/><path class="cls-7" d="m270.39,52.17h-5.22c.04.81.24,1.41.61,1.79.36.39.91.58,1.63.58.83,0,1.6-.27,2.31-.81l.54,1.29c-.36.29-.8.52-1.33.7-.53.17-1.06.26-1.6.26-1.24,0-2.22-.35-2.93-1.05-.71-.7-1.07-1.66-1.07-2.88,0-.77.16-1.46.47-2.06.31-.6.74-1.07,1.31-1.4.56-.34,1.2-.5,1.91-.5,1.04,0,1.86.34,2.47,1.01.61.68.91,1.6.91,2.78v.29Zm-4.56-2.29c-.32.3-.52.72-.61,1.28h3.53c-.06-.57-.23-1-.52-1.29-.29-.29-.68-.44-1.18-.44s-.91.15-1.22.44Z"/><path class="cls-7" d="m282.15,48.59c.51.34.9.81,1.19,1.41.29.61.43,1.3.43,2.08s-.14,1.47-.42,2.06-.67,1.05-1.18,1.37c-.51.32-1.09.48-1.75.48-.55,0-1.04-.12-1.47-.35s-.76-.56-.99-.98v4.46h-1.86v-8.68c0-.8-.04-1.52-.12-2.15h1.76l.15,1.31c.2-.47.53-.84.98-1.1s.97-.4,1.56-.4c.65,0,1.23.17,1.73.5Zm-.79,5.29c.34-.42.51-1.02.51-1.8s-.17-1.41-.51-1.85c-.34-.45-.82-.67-1.44-.67s-1.13.22-1.47.65c-.34.43-.51,1.05-.51,1.85s.17,1.4.51,1.82c.34.43.83.64,1.46.64s1.12-.21,1.46-.63Z"/><path class="cls-7" d="m292.65,48.28v7.58h-1.85v-1.22c-.23.42-.56.75-.99.98s-.92.35-1.47.35c-.66,0-1.25-.16-1.76-.48-.51-.32-.91-.78-1.19-1.37s-.42-1.28-.42-2.06.14-1.47.43-2.08c.29-.61.68-1.08,1.19-1.41.51-.34,1.09-.5,1.74-.5.55,0,1.04.12,1.47.35.43.24.76.56.99.98v-1.14h1.85Zm-2.36,5.58c.34-.43.51-1.04.51-1.82s-.17-1.42-.51-1.85c-.34-.43-.83-.65-1.46-.65s-1.1.22-1.45.67c-.35.45-.52,1.06-.52,1.85s.17,1.38.52,1.8.83.63,1.46.63,1.1-.22,1.44-.65Z"/><path class="cls-7" d="m299.53,48.22v1.71c-.34-.13-.67-.2-1.01-.2-.64,0-1.13.19-1.46.56-.34.37-.5.86-.5,1.47v4.1h-1.86v-5.43c0-.8-.04-1.52-.12-2.15h1.76l.15,1.34c.19-.49.49-.87.9-1.13.41-.26.88-.39,1.4-.39.29,0,.54.04.75.12Z"/><path class="cls-7" d="m307.06,52.17h-5.22c.04.81.24,1.41.61,1.79.36.39.91.58,1.63.58.83,0,1.6-.27,2.31-.81l.54,1.29c-.36.29-.8.52-1.33.7-.53.17-1.06.26-1.6.26-1.24,0-2.22-.35-2.93-1.05-.71-.7-1.07-1.66-1.07-2.88,0-.77.16-1.46.47-2.06.31-.6.74-1.07,1.31-1.4.56-.34,1.2-.5,1.91-.5,1.04,0,1.86.34,2.47,1.01.61.68.91,1.6.91,2.78v.29Zm-4.56-2.29c-.32.3-.52.72-.61,1.28h3.53c-.06-.57-.23-1-.52-1.29-.29-.29-.68-.44-1.18-.44s-.91.15-1.22.44Z"/><path class="cls-7" d="m315.71,51.21v4.65h-1.88v-4.56c0-.6-.12-1.04-.35-1.31s-.59-.41-1.07-.41c-.57,0-1.03.18-1.38.55-.35.37-.53.85-.53,1.45v4.29h-1.86v-5.43c0-.8-.04-1.52-.12-2.15h1.76l.14,1.25c.26-.46.61-.82,1.06-1.07.45-.25.95-.38,1.51-.38,1.81,0,2.72,1.04,2.72,3.12Z"/><path class="cls-7" d="m320.09,49.69v3.39c0,.89.42,1.34,1.25,1.34.23,0,.48-.04.75-.12v1.49c-.33.12-.73.18-1.2.18-.86,0-1.52-.24-1.98-.72s-.69-1.17-.69-2.07v-3.48h-1.46v-1.41h1.46v-1.85l1.88-.63v2.48h2.01v1.41h-2.01Z"/><path class="cls-7" d="m322.9,55.02l.53-1.32c.81.6,1.74.9,2.78.9.45,0,.8-.07,1.04-.23s.37-.36.37-.63c0-.23-.09-.41-.26-.55-.17-.13-.46-.25-.87-.35l-1.26-.29c-1.38-.3-2.07-1.01-2.07-2.12,0-.46.13-.87.39-1.22.26-.36.62-.63,1.1-.83.47-.2,1.02-.3,1.64-.3.54,0,1.06.08,1.56.25s.94.4,1.32.71l-.56,1.28c-.76-.56-1.54-.84-2.34-.84-.43,0-.77.08-1.01.24-.24.16-.36.38-.36.66,0,.22.07.4.22.53.14.13.39.24.74.33l1.29.29c.75.17,1.3.43,1.64.79.35.36.52.82.52,1.39,0,.7-.28,1.26-.84,1.67-.56.41-1.33.62-2.3.62-1.37,0-2.46-.32-3.27-.96Z"/></g></svg>