<?xml version="1.0" encoding="utf-8"?>
<!-- Generator: Adobe Illustrator 28.3.0, SVG Export Plug-In . SVG Version: 6.00 Build 0)  -->
<svg version="1.1" id="Calque_1" xmlns="http://www.w3.org/2000/svg" xmlns:xlink="http://www.w3.org/1999/xlink" x="0px" y="0px"
	 viewBox="0 0 217.3 61.9" style="enable-background:new 0 0 217.3 61.9;" xml:space="preserve">
<style type="text/css">
	.st0{fill:#004461;}
	.st1{fill:#AFCA00;}
	.st2{fill:#FFFFFF;}
</style>
<g>
	<g id="Groupe_2497_1_" transform="translate(0 -20)">
		<g>
			<g id="logo-loire-atlantique-rvb_1_" transform="translate(0 20)">
				<path id="Tracé_695_1_" class="st0" d="M59.2,13.4c-0.5-0.3-1.1-0.4-1.7-0.4c-0.8,0-1.6,0.3-2.2,1c-0.6,0.6-0.9,1.4-0.8,2.2
					v0.4L59.2,13.4z"/>
				<path id="Tracé_696_1_" class="st0" d="M109.1,32.1c-0.5-0.3-1.1-0.4-1.7-0.4c-0.8,0-1.6,0.3-2.2,1c-0.6,0.6-0.9,1.4-0.8,2.2
					v0.4L109.1,32.1z"/>
				<path id="Tracé_697_1_" class="st0" d="M34.5,19.1c0.8,0,1.6-0.3,2.2-0.8c0.6-0.6,0.9-1.4,1-2.2c0-0.8-0.3-1.6-1-2.2
					c-0.6-0.6-1.4-0.9-2.2-1c-1.7,0-3.1,1.4-3,3.1v0.1c0,0.8,0.3,1.6,0.8,2.2C32.9,18.8,33.6,19.1,34.5,19.1z"/>
				<path id="Tracé_698_1_" class="st0" d="M83.9,31.6c-1.7,0-3.1,1.4-3,3.1v0.1c0,0.8,0.3,1.6,0.8,2.2c0.6,0.6,1.4,0.9,2.2,0.8
					c0.8,0,1.6-0.3,2.2-0.8c0.6-0.6,0.9-1.4,1-2.2C87,33,85.6,31.6,83.9,31.6z"/>
				<path id="Tracé_699_1_" class="st0" d="M49.1,37.7c0.8,0,1.6-0.3,2.2-0.8c0.6-0.6,0.9-1.4,1-2.2c0-0.8-0.3-1.6-1-2.2
					c-0.6-0.6-1.4-0.9-2.2-1c-1.7,0-3.1,1.4-3,3.1v0.1c0,0.8,0.3,1.6,0.8,2.2C47.5,37.4,48.3,37.7,49.1,37.7z"/>
				<path id="Tracé_700_1_" class="st0" d="M86.9,45.4v-6.1c-0.9,0.7-2,1.1-3.2,1.1c-1.5,0-2.9-0.6-3.9-1.7c-2.2-2.2-2.2-5.8,0-8
					s5.8-2.2,8,0c1.1,1.1,1.7,2.5,1.7,4v10.7h-0.3c9.3,0.1,19.9,0.6,32.5,1.4V13.4C76.1-4.3,21-3.3,0,9.6l17.4,52.3
					c2.9-1.8,5.7-3.5,8.6-5l0,0C39.7,49.6,54,45.1,86.9,45.4z M103.5,30.7c1.1-1.1,2.5-1.7,4-1.7c1.1,0,2.3,0.3,3.2,1
					c0.9,0.6,1.6,1.5,2.1,2.5l0.1,0.3l-6.9,4.6c0.5,0.3,1.1,0.4,1.7,0.4c0.8,0,1.6-0.3,2.2-1c0.3-0.3,0.5-0.6,0.6-1h2.8
					c-0.3,1-0.8,2-1.5,2.8c-2.2,2.2-5.8,2.2-8,0c-1.1-1.1-1.7-2.5-1.7-4C101.9,33.1,102.4,31.7,103.5,30.7L103.5,30.7z M91.1,29.2
					h2.6v6.4c0,1.2,1.1,2.2,2.3,2.1c1.2,0,2.1-1,2.1-2.1v-6.4h2.6v6.4c0,1.3-0.6,2.5-1.5,3.3c-1.8,1.8-4.8,1.8-6.7,0
					c-0.9-0.9-1.4-2.1-1.4-3.3V29.2L91.1,29.2z M37.5,31.7h-1.7V40h-2.6v-8.3h-1.7v-2.6h1.7v-3.6h2.6v3.6h1.7V31.7z M41.9,40.1h-2.6
					V25.5h2.6V40.1z M73.9,25.5h2.6v2.6h-2.6V25.5z M73.9,29.2h2.6v10.9h-2.6V29.2z M66.8,29.2h1.7v-3.6h2.6v3.6h1.7v2.6h-1.7v8.3
					h-2.6v-8.3h-1.7V29.2z M66,33.8v6.4h-2.6v-6.4c0-1.2-1.1-2.2-2.3-2.1c-1.2,0-2.1,1-2.1,2.1v6.4h-2.6v-6.4c0-1.2,0.5-2.4,1.4-3.3
					c1.6-1.8,4.3-2,6.2-0.5c0.2,0.1,0.3,0.3,0.5,0.5C65.4,31.2,66.1,32.5,66,33.8L66,33.8z M53.6,12c1.1-1.1,2.5-1.7,4-1.7
					c1.1,0,2.3,0.3,3.2,1c0.9,0.6,1.6,1.5,2.1,2.5l0.1,0.3l-6.9,4.6c0.5,0.3,1.1,0.4,1.7,0.4c0.8,0,1.6-0.3,2.2-1
					c0.3-0.3,0.5-0.6,0.6-1h2.8c-0.3,1-0.8,2-1.5,2.8c-2.2,2.2-5.8,2.2-8,0c-1.1-1.1-1.7-2.5-1.7-4C51.9,14.5,52.5,13,53.6,12z
					 M46.4,15.2c0-1.3,0.6-2.6,1.5-3.5c0.9-0.9,2.2-1.4,3.5-1.4h0.3V13h-0.3c-0.6,0-1.2,0.2-1.7,0.7c-0.4,0.4-0.7,0.9-0.7,1.5v6.4
					h-2.6V15.2L46.4,15.2z M49.1,28.9c3.1,0,5.7,2.5,5.7,5.7l0,0v5.5h-2.6v-0.8c-0.9,0.7-2,1.1-3.2,1.1c-1.5,0-2.9-0.6-3.9-1.7
					c-2.2-2.2-2.2-5.8,0-8C46.2,29.6,47.6,29,49.1,28.9L49.1,28.9z M41.8,6.9h2.5v2.6h-2.6L41.8,6.9L41.8,6.9z M41.8,10.5h2.5v10.9
					h-2.6L41.8,10.5L41.8,10.5z M30.4,12c2.2-2.2,5.8-2.2,8,0c1.1,1.1,1.7,2.5,1.7,4c0,3.1-2.5,5.7-5.7,5.7s-5.7-2.5-5.7-5.7
					C28.8,14.6,29.4,13.1,30.4,12z M19.9,6.9h2.8v11.9h6v2.8H20V6.9H19.9z M21.9,40.1H19l5.1-14.7h3l5.3,14.7h-2.9l-0.8-2.5h-5.8
					L21.9,40.1z"/>
				<path id="Tracé_701_1_" class="st0" d="M23.7,35.3h4l-1.9-5.5L23.7,35.3z"/>
				<path id="Tracé_702_1_" class="st1" d="M26,57h95.6V46.8C66.3,43.5,46.9,45.8,26,57z"/>
				<path id="Tracé_704_1_" class="st1" d="M121.7,46.8L121.7,46.8c-12.6-0.8-23.3-1.2-32.5-1.4H87C54,45.1,39.7,49.6,26,57l0,0
					C46.9,45.8,66.3,43.5,121.7,46.8z"/>
				<path id="Tracé_705_1_" class="st2" d="M34.5,21.7c3.1,0,5.7-2.5,5.7-5.7l0,0c0-3.1-2.5-5.7-5.7-5.7s-5.7,2.5-5.7,5.7
					c0,1.5,0.6,2.9,1.7,4C31.5,21.2,33,21.8,34.5,21.7z M32.2,13.8c0.6-0.6,1.4-0.9,2.2-1c0.8,0.1,1.6,0.4,2.2,1
					c0.6,0.6,0.9,1.4,1,2.2c0,1.7-1.4,3.1-3.1,3h-0.1c-0.8,0-1.6-0.3-2.2-0.8c-0.6-0.6-0.9-1.4-0.8-2.2
					C31.4,15.3,31.7,14.5,32.2,13.8z"/>
				<rect id="Rectangle_526_1_" x="41.8" y="10.5" class="st2" width="2.6" height="10.9"/>
				<path id="Tracé_706_1_" class="st2" d="M49,15.2c0-0.6,0.2-1.1,0.7-1.5c0.4-0.4,1-0.7,1.7-0.7h0.3v-2.6h-0.3
					c-1.3,0-2.5,0.5-3.5,1.4s-1.5,2.1-1.5,3.5v6.4H49V15.2L49,15.2z"/>
				<path id="Tracé_707_1_" class="st2" d="M35.8,25.5h-2.6v3.7h-1.7v2.5h1.7v8.4h2.6v-8.4h1.7v-2.5h-1.7V25.5z"/>
				<rect id="Rectangle_527_1_" x="39.3" y="25.5" class="st2" width="2.6" height="14.7"/>
				<path id="Tracé_708_1_" class="st2" d="M45.1,38.6c1,1.1,2.4,1.7,3.9,1.7c1.2,0,2.3-0.4,3.2-1.1v1h2.6v-5.5
					c0-3.1-2.5-5.7-5.7-5.7s-5.7,2.5-5.7,5.7C43.5,36.1,44.1,37.6,45.1,38.6z M47.1,32.5c0.6-0.6,1.4-0.9,2.2-1c0.8,0,1.6,0.3,2.2,1
					c0.6,0.6,0.9,1.4,1,2.2c0,1.7-1.4,3.1-3.1,3h-0.1c-0.8,0-1.6-0.3-2.2-0.8c-0.6-0.6-0.9-1.4-0.8-2.2C46,33.9,46.4,33,47.1,32.5z"
					/>
				<path id="Tracé_709_1_" class="st2" d="M57.9,30.5c-0.9,0.9-1.4,2.1-1.4,3.3v6.4h2.6v-6.4c0-1.2,1.1-2.2,2.3-2.1
					c1.2,0,2.1,1,2.1,2.1v6.4h2.6v-6.4c0-1.3-0.6-2.5-1.5-3.3c-0.9-0.9-2.1-1.5-3.3-1.5C60,28.9,58.7,29.5,57.9,30.5z"/>
				<path id="Tracé_710_1_" class="st2" d="M68.5,40.1h2.6v-8.4h1.7v-2.5h-1.7v-3.7h-2.6v3.7h-1.7v2.5h1.7V40.1z"/>
				<rect id="Rectangle_528_1_" x="73.9" y="29.2" class="st2" width="2.6" height="10.9"/>
				<rect id="Rectangle_529_1_" x="73.9" y="25.5" class="st2" width="2.6" height="2.6"/>
				<path id="Tracé_711_1_" class="st2" d="M89.5,34.6c0-3.1-2.5-5.7-5.7-5.7c-3.1,0-5.7,2.5-5.7,5.7c0,1.5,0.6,2.9,1.7,4
					c1,1.1,2.4,1.7,3.9,1.7c1.2,0,2.3-0.4,3.2-1.1v6.1h2.5L89.5,34.6L89.5,34.6z M85.9,36.8c-0.6,0.6-1.4,0.9-2.2,0.8
					c-0.8,0-1.6-0.3-2.2-0.8c-0.6-0.6-0.9-1.4-0.8-2.2c0-0.8,0.3-1.6,0.8-2.2c0.6-0.6,1.4-0.9,2.2-1c0.8,0,1.6,0.3,2.2,1
					c0.6,0.6,0.9,1.4,1,2.2C86.9,35.5,86.6,36.3,85.9,36.8L85.9,36.8z"/>
				<path id="Tracé_713_1_" class="st2" d="M95.9,40.3c1.3,0,2.5-0.5,3.3-1.4c0.9-0.9,1.5-2.1,1.5-3.3v-6.4h-2.6v6.4
					c0,1.2-1.1,2.2-2.3,2.1c-1.2,0-2.1-1-2.1-2.1v-6.4h-2.6v6.4c0,1.2,0.5,2.4,1.4,3.3C93.4,39.8,94.6,40.3,95.9,40.3z"/>
				<path id="Tracé_714_1_" class="st2" d="M57.7,21.7c1.5,0,3-0.6,4-1.7c0.7-0.8,1.2-1.7,1.5-2.8h-2.8c-0.1,0.4-0.3,0.7-0.6,1
					c-0.5,0.7-1.4,1-2.2,1c-0.6,0-1.1-0.1-1.7-0.4l6.9-4.6l-0.1-0.4c-0.4-1-1.1-1.9-2.1-2.5c-0.9-0.7-2-1-3.2-1
					c-3.1,0-5.7,2.5-5.7,5.7l0,0c0,1.5,0.6,3,1.7,4C54.7,21.2,56.2,21.8,57.7,21.7z M55.5,13.8c0.6-0.6,1.4-1,2.2-1
					c0.6,0,1.1,0.1,1.7,0.4l-4.6,3v-0.4C54.6,15.2,54.9,14.3,55.5,13.8z"/>
				<path id="Tracé_715_1_" class="st2" d="M107.5,40.3c1.5,0,3-0.6,4-1.7c0.7-0.8,1.2-1.7,1.5-2.8h-2.8c-0.1,0.4-0.3,0.7-0.6,1
					c-0.5,0.7-1.4,1-2.2,1c-0.6,0-1.1-0.1-1.7-0.4l6.9-4.6l-0.1-0.3c-0.4-1-1.1-1.9-2.1-2.5c-0.9-0.7-2-1-3.2-1
					c-3.1,0-5.7,2.5-5.7,5.7c0,1.5,0.6,2.9,1.7,4C104.6,39.7,106,40.3,107.5,40.3z M105.3,32.5c0.6-0.6,1.4-1,2.2-1
					c0.6,0,1.1,0.1,1.7,0.4l-4.6,3v-0.4C104.5,33.8,104.8,33.1,105.3,32.5z"/>
				<path id="Tracé_716_1_" class="st2" d="M28.6,18.8h-6.1V6.9h-2.6v14.7h8.7L28.6,18.8z"/>
				<path id="Tracé_717_1_" class="st2" d="M29.5,40.1h2.9l-5.1-14.7h-3l-5.1,14.7H22l0.8-2.5h5.8L29.5,40.1z M23.7,35.3l2.1-5.5
					l2.1,5.5H23.7z"/>
				<rect id="Rectangle_530_1_" x="41.8" y="6.9" class="st2" width="2.6" height="2.6"/>
			</g>
		</g>
	</g>
</g>
<g>
	<path d="M141.7,26.7v10.4H140V26.7H141.7z"/>
	<path d="M149.9,29.2c0.5,0.3,0.9,0.7,1.2,1.2c0.3,0.5,0.4,1.2,0.4,1.9v4.9h-1.7v-4.6c0-0.7-0.2-1.3-0.6-1.7s-0.9-0.6-1.5-0.6
		s-1.1,0.2-1.5,0.6s-0.6,1-0.6,1.7v4.6h-1.7v-8.3h1.7v0.9c0.3-0.3,0.6-0.6,1.1-0.8c0.4-0.2,0.9-0.3,1.4-0.3
		C148.8,28.8,149.3,28.9,149.9,29.2z"/>
	<path d="M157.1,30.3h-1.5v6.9h-1.7v-6.9h-1v-1.4h1v-0.6c0-0.9,0.3-1.6,0.8-2.1c0.5-0.4,1.3-0.7,2.4-0.7V27c-0.5,0-0.9,0.1-1.1,0.3
		c-0.2,0.2-0.3,0.5-0.3,1v0.6h1.5V30.3z"/>
	<path d="M160.1,36.8c-0.6-0.4-1.1-0.9-1.5-1.5c-0.4-0.6-0.5-1.4-0.5-2.2c0-0.8,0.2-1.6,0.6-2.2c0.4-0.6,0.9-1.1,1.5-1.5
		c0.6-0.4,1.4-0.5,2.1-0.5s1.5,0.2,2.1,0.5c0.6,0.4,1.1,0.9,1.5,1.5c0.4,0.7,0.6,1.4,0.6,2.2c0,0.8-0.2,1.6-0.6,2.2
		s-0.9,1.2-1.6,1.5c-0.7,0.4-1.4,0.5-2.2,0.5C161.5,37.3,160.8,37.1,160.1,36.8z M163.5,35.5c0.4-0.2,0.7-0.5,0.9-0.9
		s0.4-0.9,0.4-1.5s-0.1-1.1-0.3-1.5c-0.2-0.4-0.5-0.7-0.9-0.9c-0.4-0.2-0.8-0.3-1.2-0.3s-0.8,0.1-1.2,0.3s-0.7,0.5-0.9,0.9
		c-0.2,0.4-0.3,0.9-0.3,1.5c0,0.9,0.2,1.6,0.7,2.1s1,0.7,1.7,0.7C162.7,35.8,163.1,35.7,163.5,35.5z"/>
	<path d="M170.9,29.1c0.4-0.2,0.9-0.4,1.5-0.4v1.8H172c-0.7,0-1.2,0.2-1.5,0.5c-0.3,0.3-0.5,0.9-0.5,1.8v4.3h-1.7v-8.3h1.7v1.2
		C170.2,29.7,170.5,29.4,170.9,29.1z"/>
	<path d="M175.4,36.8c-0.6-0.4-1.1-0.9-1.5-1.5c-0.4-0.6-0.5-1.4-0.5-2.2c0-0.8,0.2-1.6,0.6-2.2c0.4-0.6,0.9-1.1,1.5-1.5
		c0.6-0.4,1.4-0.5,2.1-0.5s1.5,0.2,2.1,0.5c0.6,0.4,1.1,0.9,1.5,1.5c0.4,0.7,0.6,1.4,0.6,2.2c0,0.8-0.2,1.6-0.6,2.2
		s-0.9,1.2-1.6,1.5c-0.7,0.4-1.4,0.5-2.2,0.5C176.8,37.3,176.1,37.1,175.4,36.8z M178.8,35.5c0.4-0.2,0.7-0.5,0.9-0.9
		s0.4-0.9,0.4-1.5s-0.1-1.1-0.3-1.5c-0.2-0.4-0.5-0.7-0.9-0.9c-0.4-0.2-0.8-0.3-1.2-0.3s-0.8,0.1-1.2,0.3s-0.7,0.5-0.9,0.9
		c-0.2,0.4-0.3,0.9-0.3,1.5c0,0.9,0.2,1.6,0.7,2.1s1,0.7,1.7,0.7C178,35.8,178.4,35.7,178.8,35.5z"/>
	<path d="M191,28.9v8.3h-1.7v-1c-0.3,0.3-0.6,0.6-1.1,0.8c-0.4,0.2-0.9,0.3-1.4,0.3c-0.7,0-1.2-0.1-1.7-0.4
		c-0.5-0.3-0.9-0.7-1.2-1.2c-0.3-0.5-0.4-1.2-0.4-1.9v-4.9h1.7v4.6c0,0.7,0.2,1.3,0.6,1.7s0.9,0.6,1.5,0.6c0.6,0,1.1-0.2,1.5-0.6
		s0.6-1,0.6-1.7v-4.6H191z"/>
	<path d="M195.3,30.3v4.6c0,0.3,0.1,0.5,0.2,0.7c0.1,0.1,0.4,0.2,0.7,0.2h1v1.4h-1.3c-0.8,0-1.4-0.2-1.8-0.5
		c-0.4-0.4-0.6-0.9-0.6-1.8v-4.6h-1v-1.4h1v-2.1h1.7v2.1h2v1.4H195.3z"/>
	<path d="M206.4,33.7h-6.3c0,0.7,0.3,1.2,0.7,1.6c0.4,0.4,1,0.6,1.6,0.6c0.9,0,1.6-0.4,2-1.2h1.8c-0.2,0.8-0.7,1.4-1.4,1.9
		c-0.7,0.5-1.5,0.7-2.4,0.7c-0.8,0-1.5-0.2-2.1-0.5c-0.6-0.4-1.1-0.9-1.5-1.5c-0.4-0.6-0.5-1.4-0.5-2.2c0-0.8,0.2-1.6,0.5-2.2
		c0.3-0.6,0.8-1.1,1.5-1.5s1.3-0.5,2.2-0.5c0.8,0,1.5,0.2,2.1,0.5c0.6,0.3,1.1,0.8,1.4,1.4c0.3,0.6,0.5,1.3,0.5,2.1
		C206.4,33.1,206.4,33.4,206.4,33.7z M204.7,32.3c0-0.6-0.2-1.1-0.7-1.5c-0.4-0.4-1-0.6-1.6-0.6c-0.6,0-1.1,0.2-1.5,0.6
		s-0.7,0.9-0.8,1.5H204.7z"/>
	<path d="M209.4,36.9c-0.5-0.2-0.9-0.6-1.2-1c-0.3-0.4-0.5-0.9-0.5-1.4h1.8c0,0.4,0.2,0.6,0.5,0.9s0.7,0.4,1.1,0.4
		c0.5,0,0.9-0.1,1.1-0.3c0.3-0.2,0.4-0.4,0.4-0.7c0-0.3-0.1-0.5-0.4-0.7c-0.3-0.2-0.8-0.3-1.4-0.5c-0.6-0.2-1.1-0.3-1.5-0.5
		s-0.7-0.4-1-0.7c-0.3-0.3-0.4-0.8-0.4-1.3c0-0.4,0.1-0.8,0.4-1.2c0.3-0.4,0.6-0.7,1.1-0.9s1-0.3,1.7-0.3c0.9,0,1.7,0.2,2.3,0.7
		c0.6,0.5,0.9,1.1,0.9,1.9h-1.7c0-0.4-0.2-0.7-0.4-0.9c-0.3-0.2-0.6-0.3-1.1-0.3c-0.4,0-0.8,0.1-1,0.3c-0.2,0.2-0.4,0.4-0.4,0.7
		c0,0.2,0.1,0.4,0.2,0.6c0.2,0.1,0.4,0.3,0.6,0.4c0.2,0.1,0.6,0.2,1,0.3c0.6,0.2,1.1,0.3,1.5,0.5c0.4,0.2,0.7,0.4,1,0.7
		c0.3,0.3,0.4,0.7,0.4,1.3c0,0.5-0.1,0.9-0.4,1.3c-0.3,0.4-0.6,0.7-1.1,0.9c-0.5,0.2-1,0.3-1.7,0.3
		C210.5,37.3,209.9,37.2,209.4,36.9z"/>
</g>
</svg>
