<?xml version="1.0" encoding="utf-8"?>
<!-- Generator: Adobe Illustrator 28.3.0, SVG Export Plug-In . SVG Version: 6.00 Build 0)  -->
<svg version="1.1" id="calques" xmlns="http://www.w3.org/2000/svg" xmlns:xlink="http://www.w3.org/1999/xlink" x="0px" y="0px"
	 viewBox="0 0 733.3 200" style="enable-background:new 0 0 733.3 200;" xml:space="preserve">
<style type="text/css">
	.st0{fill:#004461;}
	.st1{fill:#AFCA00;}
	.st2{fill:#FFFFFF;}
</style>
<path class="st0" d="M188.8,45.4c-1.5-0.9-3.3-1.4-5.1-1.4c-2.5,0-5,1-6.7,2.8c-1.8,1.8-2.8,4.2-2.8,6.8c-0.1,0.4-0.1,0.8,0,1.2
	L188.8,45.4z"/>
<path class="st0" d="M344.2,103.5c-1.5-1-3.2-1.5-5-1.4c-2.5-0.1-5,0.9-6.7,2.8c-1.8,1.8-2.8,4.2-2.8,6.8c0,0.4,0,0.8,0,1.2
	L344.2,103.5z"/>
<path class="st0" d="M111.5,63.1c2.5,0,5-1,6.7-2.8c1.9-1.7,2.9-4.2,2.8-6.7c0-5.3-4.3-9.5-9.6-9.5c-2.5,0-4.9,1-6.7,2.8
	c-3.9,3.6-4.1,9.6-0.5,13.5c1.9,2,4.5,3.1,7.3,3.1L111.5,63.1z"/>
<path class="st0" d="M265.3,102c-2.5,0-5,1-6.7,2.8c-3.7,3.6-3.8,9.6-0.1,13.3l0.1,0.1c3.6,3.7,9.6,3.8,13.3,0.1l0.1-0.1
	c1.8-1.8,2.8-4.2,2.8-6.7s-1-5-2.8-6.7C270.3,103,267.8,102,265.3,102z"/>
<path class="st0" d="M157.3,121.1c5.3,0,9.6-4.3,9.6-9.5c0-2.6-1-5-2.9-6.7c-3.7-3.7-9.8-3.7-13.5,0l0,0c-3.7,3.7-3.7,9.8,0,13.5
	c1.8,1.8,4.2,2.8,6.7,2.8h0.1V121.1z"/>
<path class="st0" d="M274.8,144.9v-19c-6.8,5-16.2,4.1-22-1.9c-3.3-3.3-5.1-7.7-5-12.3c0-9.8,7.9-17.7,17.7-17.7
	c9.8,0,17.7,7.9,17.7,17.7v33.1h-1c28.9,0.4,62.3,1.8,101.3,4.5V45.2C241.5-9.6,69.8-6.9,4.1,33.4l54.3,163
	c9.1-5.5,17.9-10.7,26.6-15.3l0,0C127.7,157.9,172.2,144.1,274.8,144.9z M326.6,99.1c3.3-3.4,7.8-5.3,12.5-5.2c3.5,0,6.9,1,9.8,3
	s5.2,4.8,6.6,8v0.7l-21.7,14.1c1.5,0.9,3.2,1.4,5,1.4c2.6,0.1,5.1-1,6.9-2.9c0.7-0.8,1.4-1.8,1.8-2.8h8.6c-0.7,3.2-2.3,6.1-4.6,8.5
	c-3.2,3.6-7.8,5.6-12.6,5.5c-4.7,0.1-9.2-1.8-12.5-5.1c-3.4-3.2-5.3-7.8-5.2-12.5C321.3,107.1,323.2,102.4,326.6,99.1z M288.1,94.4
	h8.2v19.7c0.1,3.8,3.1,6.9,6.9,6.9c1.9,0,3.6-0.8,4.9-2.1c1.3-1.3,2.1-3,2-4.8V94.5h8.2v19.7c0,4-1.7,7.8-4.6,10.5
	c-5.5,5.8-14.7,6.1-20.5,0.6c-0.2-0.2-0.4-0.4-0.6-0.6c-2.9-2.7-4.5-6.5-4.5-10.5V94.4z M121.1,102.5h-5.5v26.1h-8v-26.1h-5.2v-8
	h5.2v-11h8.1v11h5.5L121.1,102.5z M134.9,128.6h-8.3V83.1h8.1L134.9,128.6z M234.8,83.1h8v8.1h-8.2L234.8,83.1z M234.8,94.2h8v34.2
	h-8.2L234.8,94.2z M212.7,94.2h5.2v-11h7.7v11h5.2v8.1h-5.2v26.1h-8.1v-25.8h-5.2L212.7,94.2z M210.4,108.7v19.7h-8.5V109
	c0-3.8-3.1-6.9-6.9-6.9c-3.8,0-6.9,3.1-6.9,6.9l0,0v19.7H180V109c0-4,1.6-7.8,4.5-10.5c2.8-2.9,6.5-4.5,10.5-4.5s7.7,1.6,10.5,4.5
	c2.9,2.7,4.5,6.5,4.6,10.5L210.4,108.7z M171.8,40.8c3.2-3.4,7.8-5.3,12.5-5.2c3.5,0,6.9,1,9.8,3c2.9,1.9,5.2,4.7,6.6,7.9l0.3,0.7
	l-22.3,14.2c1.5,0.9,3.3,1.4,5.1,1.4c2.5,0.1,5-1,6.7-2.9c0.8-0.8,1.4-1.8,1.9-2.9h8.6c-0.7,3.2-2.3,6.2-4.6,8.5
	c-3.2,3.5-7.8,5.4-12.5,5.2c-4.7,0.1-9.2-1.8-12.6-5.1c-3.4-3.3-5.3-7.8-5.2-12.5c0-4.6,1.9-9,5.2-12.3H171.8z M148.6,51
	c-0.1-4.1,1.7-7.9,4.7-10.6c2.9-2.9,6.9-4.5,11-4.4h0.9v8H164c-2-0.1-4,0.6-5.5,2c-1.4,1.3-2.2,3.1-2.1,5v19.7h-7.7L148.6,51
	L148.6,51z M157.3,93.9c4.7,0,9.2,1.8,12.5,5.2c3.4,3.3,5.3,7.8,5.2,12.5v17h-8.1v-2.8c-6.8,4.9-16.2,4.1-22-1.9
	c-6.8-7.1-6.6-18.3,0.5-25.1c3.3-3.1,7.6-4.9,12.2-4.9H157.3z M134.2,24.9h8.1V33h-8.1V24.9z M134.2,36.4h8.1v34.2h-8.1V36.4z
	 M99,41.1c3.3-3.4,7.8-5.2,12.5-5.2c9.7,0.1,17.6,7.9,17.7,17.6c-0.1,9.8-8.1,17.7-17.9,17.6c-4.6,0-9-1.9-12.3-5.1
	C92.2,59.1,92.1,48,99,41.1L99,41.1z M66,25.2h8.4v37h18.7v8.4h-27L66,25.2z M72.2,128.6h-8.8l16.1-45.5H89l16.1,45.5h-9l-2.8-7.6
	H75.1L72.2,128.6z"/>
<polygon class="st0" points="77.9,113.4 90.5,113.4 84.2,96.2 "/>
<path class="st1" d="M85,181.1h298.3v-31.5C210.9,139,150.2,146.5,85,181.1z"/>
<path class="st1" d="M384,149.6L384,149.6z"/>
<path class="st1" d="M383.3,149.6L383.3,149.6c-39.1-2.6-72.5-4.1-101.3-4.5h-7.1c-102.6-1-147.1,12.8-190,36l0,0
	C150.2,146.5,210.9,139,383.3,149.6z"/>
<path class="st2" d="M111.5,71.1c9.7,0,17.6-7.9,17.7-17.6c-0.1-9.7-8-17.6-17.7-17.6c-4.7,0-9.2,1.8-12.5,5.2
	c-6.9,6.9-6.9,18,0,24.9l0,0C102.3,69.3,106.9,71.2,111.5,71.1z M104.8,46.8c3.7-3.7,9.8-3.7,13.5,0c1.8,1.8,2.8,4.2,2.8,6.7
	c0.1,2.5-1,5-2.8,6.7c-3.4,4-9.5,4.4-13.4,1c-4-3.4-4.4-9.5-1-13.4C104.1,47.5,104.5,47.1,104.8,46.8z"/>
<rect x="134.2" y="36.4" class="st2" width="8.1" height="34.2"/>
<path class="st2" d="M156.7,51c-0.1-1.9,0.7-3.7,2.1-5c1.5-1.4,3.5-2.1,5.5-2h0.9v-8.1H164c-4.1-0.1-8.1,1.5-11,4.4
	c-3,2.7-4.7,6.6-4.7,10.6v19.7h8.1L156.7,51z"/>
<polygon class="st2" points="115.7,83.1 107.6,83.1 107.6,94.4 102.3,94.4 102.3,102.5 107.6,102.5 107.6,128.6 115.7,128.6 
	115.7,102.5 120.9,102.5 120.9,94.4 115.7,94.4 "/>
<rect x="126.6" y="83.1" class="st2" width="8.1" height="45.5"/>
<path class="st2" d="M144.6,123.9c5.9,6,15.2,6.8,22,1.9v2.8h8.3v-17c0.1-4.7-1.8-9.2-5.2-12.5c-7.2-6.6-18.4-6.2-25,0.9
	C138.6,106.8,138.5,117.1,144.6,123.9z M150.6,104.9c3.7-3.7,9.8-3.7,13.5,0l0,0c1.8,1.8,2.9,4.2,2.8,6.7c0,5.3-4.3,9.5-9.6,9.5
	s-9.5-4.3-9.5-9.6C147.8,109,148.8,106.6,150.6,104.9z"/>
<path class="st2" d="M184.5,98.4c-2.9,2.7-4.5,6.5-4.5,10.5v19.7h8.1v-19.7c0-3.8,3.1-6.9,6.9-6.9c3.8,0,6.9,3.1,6.9,6.9l0,0v19.7
	h8.1v-19.7c0-4-1.7-7.8-4.6-10.5c-2.7-2.9-6.5-4.5-10.5-4.5C191,93.9,187.2,95.5,184.5,98.4z"/>
<polygon class="st2" points="217.6,128.7 225.7,128.7 225.7,102.5 231,102.5 231,94.4 225.7,94.4 225.7,83.1 217.6,83.1 217.6,94.4 
	212.3,94.4 212.3,102.5 217.6,102.5 "/>
<rect x="234.6" y="94.4" class="st2" width="8.1" height="34.2"/>
<rect x="234.6" y="83.1" class="st2" width="8.1" height="8.1"/>
<path class="st2" d="M283,111.6c-0.1-9.7-8-17.6-17.7-17.7c-9.8,0-17.7,7.9-17.7,17.7c0,4.6,1.8,9,5,12.3c5.8,6.1,15.2,6.9,22,1.9
	v19h8.3v-33.2H283z M272,118.3c-3.6,3.7-9.6,3.8-13.3,0.1l-0.1-0.1c-3.7-3.6-3.8-9.6-0.1-13.3l0.1-0.1c1.8-1.8,4.2-2.9,6.7-2.8
	c2.5,0,5,1,6.7,2.8c1.8,1.8,2.9,4.2,2.8,6.7C274.8,114.1,273.8,116.5,272,118.3L272,118.3z"/>
<path class="st2" d="M274.8,144.9L274.8,144.9z"/>
<path class="st2" d="M302.9,129.2c4,0,7.8-1.6,10.5-4.5c2.9-2.7,4.6-6.5,4.6-10.5V94.5h-8.2v19.7c0,1.8-0.7,3.6-2,4.8
	c-1.3,1.3-3.1,2.1-4.9,2.1c-3.7-0.2-6.7-3.2-6.7-7V94.5h-8.3v19.7c0,4,1.6,7.7,4.5,10.5C295.2,127.5,299,129.2,302.9,129.2z"/>
<path class="st2" d="M183.8,71.1c4.7,0.1,9.3-1.8,12.5-5.2c2.3-2.4,3.9-5.3,4.6-8.5h-8.6c-0.4,1.1-1.1,2-1.9,2.9
	c-1.7,1.9-4.1,2.9-6.7,2.9c-1.8,0-3.5-0.5-5.1-1.4l21.7-14.1L200,47c-1.4-3.2-3.7-6-6.6-7.9c-2.9-2-6.3-3-9.8-3
	c-4.7-0.1-9.2,1.8-12.5,5.2c-3.4,3.3-5.2,7.8-5.2,12.5c-0.1,4.7,1.8,9.2,5.2,12.5C174.6,69.4,179.1,71.2,183.8,71.1z M177,46.8
	c1.8-1.8,4.2-2.9,6.7-2.8c1.8,0,3.5,0.5,5.1,1.4l-14.4,9.4c-0.1-0.4-0.1-0.8,0-1.2C174.2,51.1,175.2,48.6,177,46.8z"/>
<path class="st2" d="M339.2,129.2c4.8,0.1,9.4-1.9,12.6-5.5c2.3-2.4,3.8-5.3,4.6-8.5h-8.6c-0.5,1-1.1,2-1.8,2.8
	c-1.7,1.9-4.2,3-6.7,2.9c-1.8,0-3.5-0.5-5-1.4l21.7-13.9v-0.7c-1.4-3.2-3.7-6-6.6-8s-6.3-3-9.8-3c-4.7-0.1-9.3,1.8-12.5,5.2
	c-3.4,3.3-5.2,7.8-5.1,12.5c-0.1,4.7,1.8,9.2,5.2,12.5C330.2,127.3,334.6,129.1,339.2,129.2z M332.4,104.9c1.7-1.9,4.2-2.9,6.7-2.8
	c1.8,0,3.5,0.5,5,1.4l-14.4,9.4c0-0.4,0-0.8,0-1.2C329.7,109.1,330.6,106.6,332.4,104.9z"/>
<polygon class="st2" points="93.2,62.2 74.6,62.2 74.6,25.2 66.1,25.2 66.1,70.6 93.2,70.6 "/>
<path class="st2" d="M96,128.6h9L89,83.1h-9.4l-16.1,45.5h8.9l2.8-7.6h18.1L96,128.6z M77.9,113.4l6.3-17.2l6.3,17.2L77.9,113.4z"/>
<rect x="134.2" y="24.9" class="st2" width="8.1" height="8.1"/>
<g>
	<path d="M443.9,81.4c-0.8,1.5-2.1,2.7-3.8,3.7c-1.8,0.9-4,1.4-6.8,1.4h-6V100h-5.5V66.6h11.5c2.6,0,4.7,0.4,6.5,1.3
		c1.8,0.9,3.1,2.1,4,3.6c0.9,1.5,1.3,3.2,1.3,5C445.1,78.3,444.7,79.9,443.9,81.4z M437.9,80.6c1-0.9,1.5-2.3,1.5-4
		c0-3.6-2.1-5.5-6.2-5.5h-6V82h6C435.3,82,436.9,81.5,437.9,80.6z"/>
	<path d="M450.1,79.6c1.1-2,2.6-3.6,4.5-4.8c1.9-1.1,4-1.7,6.3-1.7c2.1,0,3.9,0.4,5.4,1.2c1.6,0.8,2.8,1.8,3.7,3v-3.8h5.5V100h-5.5
		v-3.9c-0.9,1.2-2.2,2.3-3.8,3.1c-1.6,0.8-3.4,1.2-5.5,1.2c-2.3,0-4.4-0.6-6.2-1.8c-1.9-1.2-3.4-2.8-4.5-4.9
		c-1.1-2.1-1.7-4.5-1.7-7.1C448.5,84,449,81.6,450.1,79.6z M469,82c-0.8-1.3-1.7-2.4-3-3.1c-1.2-0.7-2.5-1.1-3.9-1.1
		c-1.4,0-2.7,0.3-3.9,1c-1.2,0.7-2.2,1.7-3,3c-0.8,1.3-1.1,2.9-1.1,4.7c0,1.8,0.4,3.4,1.1,4.8c0.8,1.4,1.7,2.4,3,3.1
		c1.2,0.7,2.5,1.1,3.9,1.1c1.4,0,2.7-0.4,3.9-1.1c1.2-0.7,2.2-1.7,3-3.1c0.8-1.4,1.1-3,1.1-4.8C470.1,84.9,469.7,83.3,469,82z"/>
	<path d="M491.5,74.2c1.3-0.8,2.9-1.1,4.7-1.1v5.7h-1.4c-2.1,0-3.8,0.5-4.9,1.6c-1.1,1.1-1.7,3-1.7,5.7V100h-5.5V73.6h5.5v3.8
		C489.1,76,490.2,75,491.5,74.2z"/>
	<path d="M507.6,78v14.6c0,1,0.2,1.7,0.7,2.1s1.3,0.6,2.4,0.6h3.4v4.6h-4.3c-2.5,0-4.4-0.6-5.7-1.7s-2-3-2-5.6V78H499v-4.5h3.1V67
		h5.5v6.6h6.4V78H507.6z"/>
	<path d="M519.4,69c-0.7-0.7-1-1.5-1-2.5c0-1,0.3-1.8,1-2.5c0.7-0.7,1.5-1,2.5-1c1,0,1.8,0.3,2.4,1c0.7,0.7,1,1.5,1,2.5
		c0,1-0.3,1.8-1,2.5s-1.5,1-2.4,1C520.9,70,520.1,69.7,519.4,69z M524.6,73.6V100h-5.5V73.6H524.6z"/>
	<path d="M531.6,79.6c1.1-2.1,2.6-3.7,4.6-4.8c2-1.1,4.2-1.7,6.7-1.7c3.2,0,5.8,0.8,7.9,2.3c2.1,1.5,3.5,3.7,4.2,6.5h-5.9
		c-0.5-1.3-1.2-2.3-2.3-3.1c-1.1-0.7-2.4-1.1-4-1.1c-2.2,0-4,0.8-5.4,2.4s-2,3.8-2,6.6c0,2.8,0.7,5.1,2,6.7c1.3,1.6,3.1,2.4,5.4,2.4
		c3.2,0,5.3-1.4,6.3-4.2h5.9c-0.8,2.7-2.2,4.8-4.3,6.4c-2.1,1.6-4.7,2.4-7.9,2.4c-2.5,0-4.8-0.6-6.7-1.7c-2-1.1-3.5-2.7-4.6-4.8
		c-1.1-2.1-1.7-4.5-1.7-7.2C530,84,530.5,81.6,531.6,79.6z"/>
	<path d="M560.9,69c-0.7-0.7-1-1.5-1-2.5c0-1,0.3-1.8,1-2.5c0.7-0.7,1.5-1,2.5-1c1,0,1.8,0.3,2.4,1c0.7,0.7,1,1.5,1,2.5
		c0,1-0.3,1.8-1,2.5s-1.5,1-2.4,1C562.4,70,561.5,69.7,560.9,69z M566.1,73.6V100h-5.5V73.6H566.1z"/>
	<path d="M582.5,74.4c1.6-0.8,3.4-1.2,5.4-1.2c2.3,0,4.4,0.6,6.3,1.7c1.9,1.1,3.4,2.7,4.5,4.8c1.1,2,1.6,4.4,1.6,7.1
		c0,2.7-0.5,5-1.6,7.1c-1.1,2.1-2.6,3.7-4.5,4.9c-1.9,1.2-4,1.8-6.3,1.8c-2,0-3.8-0.4-5.4-1.2c-1.6-0.8-2.8-1.8-3.8-3v16.4h-5.5v-39
		h5.5v3.9C579.7,76.2,580.9,75.2,582.5,74.4z M593.7,81.9c-0.8-1.3-1.7-2.3-3-3c-1.2-0.7-2.6-1-4-1c-1.4,0-2.7,0.4-3.9,1.1
		c-1.2,0.7-2.2,1.7-3,3.1c-0.8,1.3-1.1,2.9-1.1,4.8c0,1.8,0.4,3.4,1.1,4.8c0.8,1.4,1.7,2.4,3,3.1c1.2,0.7,2.5,1.1,3.9,1.1
		c1.4,0,2.7-0.4,4-1.1c1.2-0.7,2.2-1.8,3-3.1c0.8-1.4,1.1-3,1.1-4.8C594.8,84.8,594.4,83.3,593.7,81.9z"/>
	<path d="M605.6,79.6c1.1-2,2.6-3.6,4.5-4.8c1.9-1.1,4-1.7,6.3-1.7c2.1,0,3.9,0.4,5.4,1.2c1.6,0.8,2.8,1.8,3.7,3v-3.8h5.5V100h-5.5
		v-3.9c-0.9,1.2-2.2,2.3-3.8,3.1c-1.6,0.8-3.4,1.2-5.5,1.2c-2.3,0-4.4-0.6-6.2-1.8c-1.9-1.2-3.4-2.8-4.5-4.9
		c-1.1-2.1-1.7-4.5-1.7-7.1C604,84,604.5,81.6,605.6,79.6z M624.5,82c-0.8-1.3-1.7-2.4-3-3.1c-1.2-0.7-2.5-1.1-3.9-1.1
		c-1.4,0-2.7,0.3-3.9,1c-1.2,0.7-2.2,1.7-3,3c-0.8,1.3-1.1,2.9-1.1,4.7c0,1.8,0.4,3.4,1.1,4.8c0.8,1.4,1.7,2.4,3,3.1
		c1.2,0.7,2.5,1.1,3.9,1.1c1.4,0,2.7-0.4,3.9-1.1c1.2-0.7,2.2-1.7,3-3.1c0.8-1.4,1.1-3,1.1-4.8C625.6,84.9,625.2,83.3,624.5,82z"/>
	<path d="M644.7,78v14.6c0,1,0.2,1.7,0.7,2.1s1.3,0.6,2.4,0.6h3.4v4.6h-4.3c-2.5,0-4.4-0.6-5.7-1.7s-2-3-2-5.6V78h-3.1v-4.5h3.1V67
		h5.5v6.6h6.4V78H644.7z"/>
	<path d="M656.5,69c-0.7-0.7-1-1.5-1-2.5c0-1,0.3-1.8,1-2.5c0.7-0.7,1.5-1,2.5-1c1,0,1.8,0.3,2.4,1c0.7,0.7,1,1.5,1,2.5
		c0,1-0.3,1.8-1,2.5s-1.5,1-2.4,1C658,70,657.2,69.7,656.5,69z M661.7,73.6V100h-5.5V73.6H661.7z"/>
	<path d="M673.6,98.7c-2-1.1-3.6-2.7-4.8-4.8c-1.2-2.1-1.7-4.5-1.7-7.2c0-2.7,0.6-5.1,1.8-7.2c1.2-2.1,2.8-3.7,4.8-4.8
		c2-1.1,4.3-1.7,6.9-1.7c2.5,0,4.8,0.6,6.9,1.7c2,1.1,3.7,2.7,4.8,4.8c1.2,2.1,1.8,4.5,1.8,7.2s-0.6,5.1-1.8,7.2
		c-1.2,2.1-2.9,3.7-5,4.8c-2.1,1.1-4.4,1.7-6.9,1.7C677.8,100.4,675.6,99.9,673.6,98.7z M684.3,94.7c1.2-0.7,2.2-1.7,3-3
		c0.8-1.3,1.2-3,1.2-4.9s-0.4-3.5-1.1-4.9c-0.7-1.3-1.7-2.3-2.9-3c-1.2-0.7-2.5-1-3.9-1s-2.7,0.3-3.9,1s-2.2,1.7-2.9,3
		c-0.7,1.3-1.1,3-1.1,4.9c0,2.8,0.7,5,2.2,6.6c1.5,1.6,3.3,2.3,5.5,2.3C681.8,95.7,683.1,95.3,684.3,94.7z"/>
	<path d="M718.4,74.4c1.6,0.9,2.9,2.1,3.9,3.8c0.9,1.7,1.4,3.7,1.4,6.1V100h-5.4V85.2c0-2.4-0.6-4.2-1.8-5.4
		c-1.2-1.3-2.8-1.9-4.8-1.9c-2,0-3.7,0.6-4.9,1.9c-1.2,1.3-1.8,3.1-1.8,5.4V100h-5.5V73.6h5.5v3c0.9-1.1,2-1.9,3.4-2.5
		c1.4-0.6,2.9-0.9,4.4-0.9C714.9,73.1,716.8,73.6,718.4,74.4z"/>
	<path d="M421.6,137.2c1.1-2.1,2.6-3.7,4.6-4.8s4.2-1.7,6.7-1.7c3.2,0,5.8,0.8,7.9,2.3c2.1,1.5,3.5,3.7,4.2,6.5h-5.9
		c-0.5-1.3-1.2-2.3-2.3-3.1c-1.1-0.7-2.4-1.1-4-1.1c-2.2,0-4,0.8-5.4,2.4s-2,3.8-2,6.6c0,2.8,0.7,5.1,2,6.7c1.3,1.6,3.1,2.4,5.4,2.4
		c3.2,0,5.3-1.4,6.3-4.2h5.9c-0.8,2.7-2.2,4.8-4.3,6.4c-2.1,1.6-4.7,2.4-7.9,2.4c-2.5,0-4.8-0.6-6.7-1.7c-2-1.1-3.5-2.7-4.6-4.8
		c-1.1-2.1-1.7-4.5-1.7-7.2S420.5,139.2,421.6,137.2z"/>
	<path d="M450.8,126.6c-0.7-0.7-1-1.5-1-2.5c0-1,0.3-1.8,1-2.5s1.5-1,2.5-1c1,0,1.8,0.3,2.4,1s1,1.5,1,2.5c0,1-0.3,1.8-1,2.5
		s-1.5,1-2.4,1C452.3,127.6,451.5,127.3,450.8,126.6z M456,131.2v26.4h-5.5v-26.4H456z"/>
	<path d="M469.6,135.6v14.6c0,1,0.2,1.7,0.7,2.1c0.5,0.4,1.3,0.6,2.4,0.6h3.4v4.6h-4.3c-2.5,0-4.4-0.6-5.7-1.7c-1.3-1.2-2-3-2-5.6
		v-14.6h-3.1v-4.5h3.1v-6.6h5.5v6.6h6.4v4.5H469.6z"/>
	<path d="M485.8,156.3c-2-1.1-3.6-2.7-4.8-4.8c-1.2-2.1-1.7-4.5-1.7-7.2c0-2.7,0.6-5.1,1.8-7.2c1.2-2.1,2.8-3.7,4.8-4.8
		c2-1.1,4.3-1.7,6.9-1.7c2.5,0,4.8,0.6,6.9,1.7s3.7,2.7,4.8,4.8c1.2,2.1,1.8,4.5,1.8,7.2c0,2.7-0.6,5.1-1.8,7.2
		c-1.2,2.1-2.9,3.7-5,4.8c-2.1,1.1-4.4,1.7-6.9,1.7C490,158,487.8,157.5,485.8,156.3z M496.5,152.3c1.2-0.7,2.2-1.7,3-3
		c0.8-1.3,1.2-3,1.2-4.9s-0.4-3.5-1.1-4.9c-0.7-1.3-1.7-2.3-2.9-3c-1.2-0.7-2.5-1-3.9-1s-2.7,0.3-3.9,1s-2.2,1.7-2.9,3
		c-0.7,1.3-1.1,3-1.1,4.9c0,2.8,0.7,5,2.2,6.6c1.5,1.6,3.3,2.3,5.5,2.3C493.9,153.3,495.3,152.9,496.5,152.3z"/>
	<path d="M535.5,131.2L519.3,170h-5.7l5.4-12.9l-10.4-26h6.1l7.4,20.2l7.7-20.2H535.5z"/>
	<path d="M563.7,146.4h-20.2c0.2,2.1,0.9,3.8,2.4,5.1c1.4,1.3,3.1,1.9,5.2,1.9c2.9,0,5-1.2,6.2-3.7h5.9c-0.8,2.4-2.2,4.4-4.3,6
		c-2.1,1.6-4.7,2.3-7.8,2.3c-2.5,0-4.8-0.6-6.8-1.7c-2-1.1-3.6-2.7-4.7-4.8c-1.1-2.1-1.7-4.5-1.7-7.2s0.6-5.1,1.7-7.2
		c1.1-2.1,2.7-3.7,4.7-4.8s4.3-1.7,6.9-1.7c2.5,0,4.7,0.5,6.7,1.6c2,1.1,3.5,2.6,4.6,4.6s1.6,4.2,1.6,6.8
		C563.9,144.7,563.8,145.6,563.7,146.4z M558.1,142c0-2-0.8-3.6-2.2-4.8c-1.4-1.2-3.2-1.8-5.2-1.8c-1.9,0-3.5,0.6-4.8,1.8
		c-1.3,1.2-2.1,2.8-2.4,4.9H558.1z"/>
	<path d="M588.2,132c1.6,0.9,2.9,2.1,3.9,3.8c0.9,1.7,1.4,3.7,1.4,6.1v15.6H588v-14.8c0-2.4-0.6-4.2-1.8-5.4
		c-1.2-1.3-2.8-1.9-4.8-1.9c-2,0-3.7,0.6-4.9,1.9c-1.2,1.3-1.8,3.1-1.8,5.4v14.8h-5.5v-26.4h5.5v3c0.9-1.1,2-1.9,3.4-2.5
		c1.4-0.6,2.9-0.9,4.4-0.9C584.7,130.7,586.5,131.2,588.2,132z"/>
	<path d="M619.3,132c1.6,0.9,2.9,2.1,3.9,3.8c0.9,1.7,1.4,3.7,1.4,6.1v15.6h-5.4v-14.8c0-2.4-0.6-4.2-1.8-5.4
		c-1.2-1.3-2.8-1.9-4.8-1.9c-2,0-3.7,0.6-4.9,1.9c-1.2,1.3-1.8,3.1-1.8,5.4v14.8h-5.5v-26.4h5.5v3c0.9-1.1,2-1.9,3.4-2.5
		c1.4-0.6,2.9-0.9,4.4-0.9C615.8,130.7,617.7,131.2,619.3,132z"/>
	<path d="M655.6,146.4h-20.2c0.2,2.1,0.9,3.8,2.4,5.1c1.4,1.3,3.1,1.9,5.2,1.9c2.9,0,5-1.2,6.2-3.7h5.9c-0.8,2.4-2.2,4.4-4.3,6
		c-2.1,1.6-4.7,2.3-7.8,2.3c-2.5,0-4.8-0.6-6.8-1.7c-2-1.1-3.6-2.7-4.7-4.8c-1.1-2.1-1.7-4.5-1.7-7.2s0.6-5.1,1.7-7.2
		c1.1-2.1,2.7-3.7,4.7-4.8s4.3-1.7,6.9-1.7c2.5,0,4.7,0.5,6.7,1.6c2,1.1,3.5,2.6,4.6,4.6s1.6,4.2,1.6,6.8
		C655.8,144.7,655.7,145.6,655.6,146.4z M650.1,142c0-2-0.8-3.6-2.2-4.8c-1.4-1.2-3.2-1.8-5.2-1.8c-1.9,0-3.5,0.6-4.8,1.8
		c-1.3,1.2-2.1,2.8-2.4,4.9H650.1z"/>
</g>
</svg>
