<?xml version="1.0" encoding="UTF-8" standalone="no"?>
<!-- Generator: Adobe Illustrator 27.4.0, SVG Export Plug-In . SVG Version: 6.00 Build 0)  -->

<svg
   version="1.1"
   id="Logo_x5F_Def"
   x="0px"
   y="0px"
   viewBox="0 0 415.91001 195.13"
   xml:space="preserve"
   sodipodi:docname="logo-mdph-2023.svg"
   width="415.91"
   height="195.13"
   inkscape:version="1.2.2 (732a01da63, 2022-12-09)"
   xmlns:inkscape="http://www.inkscape.org/namespaces/inkscape"
   xmlns:sodipodi="http://sodipodi.sourceforge.net/DTD/sodipodi-0.dtd"
   xmlns="http://www.w3.org/2000/svg"
   xmlns:svg="http://www.w3.org/2000/svg"><defs
   id="defs539" /><sodipodi:namedview
   id="namedview537"
   pagecolor="#ffffff"
   bordercolor="#000000"
   borderopacity="0.25"
   inkscape:showpageshadow="2"
   inkscape:pageopacity="0.0"
   inkscape:pagecheckerboard="0"
   inkscape:deskcolor="#d1d1d1"
   showgrid="false"
   inkscape:zoom="0.71614977"
   inkscape:cx="208.05704"
   inkscape:cy="103.33034"
   inkscape:window-width="1680"
   inkscape:window-height="997"
   inkscape:window-x="-8"
   inkscape:window-y="-8"
   inkscape:window-maximized="1"
   inkscape:current-layer="Logo_x5F_Def" />
<style
   type="text/css"
   id="style444">
	.st0{fill:#5A55A4;}
	.st1{fill:#E3B728;}
	.st2{fill:#AF228C;}
	.st3{fill:#57278C;}
	.st4{fill:#DB9E34;}
	.st5{fill:#C03040;}
	.st6{fill:#591E82;}
	.st7{fill:#C03D70;}
	.st8{fill:#B2202F;}
</style>
<g
   id="g534"
   transform="translate(-75.56,-61.29)">
	<g
   id="g498">
		<polygon
   class="st0"
   points="388.65,191.13 388.65,84.18 416.53,84.18 416.53,122.85 477.47,122.85 477.47,148.29 416.53,148.29 416.53,191.13 "
   id="polygon446" />
		<path
   class="st1"
   d="M 388.66,84.17 H 374.8 v 7.99 h 2 c 6.93,0 9.73,0.6 10.93,2.22 0.7,0.89 0.88,1.53 0.92,5.72 0.01,0.5 0.01,0.66 0.01,0.66 v -0.53 h 0.01 V 84.17"
   id="path448" />
		<rect
   x="305.5"
   y="96.360001"
   class="st0"
   width="22.870001"
   height="94.769997"
   id="rect450" />
		<path
   class="st2"
   d="m 305.5,96.36 h -11.64 v 7.52 h 1.85 c 6.64,0 7.75,0.55 8.9,1.92 0.89,1.22 0.89,1.64 0.89,10.22 V 96.36 m 29.7,0 h -6.83 v 14.38 0 0 c 0.23,-5.56 2.02,-6.86 6.42,-6.86 10.08,0 15.86,6.15 15.86,19.83 0,15.67 -5.95,21.43 -22.28,21.48 v 7.52 h 6.7 c 26.69,0 40.23,-9.71 40.23,-28.86 0,-19.01 -13.03,-27.49 -40.1,-27.49"
   id="path452" />
		<path
   class="st2"
   d="M 89.33,84.16 H 75.56 v 7.95 h 1.99 c 6.89,0 9.67,0.59 10.86,2.21 0.7,0.88 0.8,1.47 0.91,5.69 0,0.13 0,0.04 0,0.13 V 84.16"
   id="path454" />
		<path
   class="st1"
   d="m 193.7,177.24 v 13.88 h 13.65 v -7.91 h -1.99 c -6.9,0 -9.68,-0.59 -10.88,-2.2 -0.56,-0.7 -0.72,-1.35 -0.78,-3.77"
   id="path456" />
		<path
   class="st1"
   d="m 117.21,175.25 v 15.88 h 13.68 v -7.91 h -1.99 c -6.9,0 -9.68,-0.59 -10.87,-2.2 -0.7,-0.88 -0.78,-1.62 -0.82,-5.77"
   id="path458" />
		<path
   class="st1"
   d="m 89.33,175.51 c -0.05,4 -0.22,4.64 -0.91,5.51 -1.19,1.61 -3.98,2.2 -10.87,2.2 h -1.99 v 7.91 h 13.78 l -0.01,-15.62"
   id="path460" />
		<path
   class="st0"
   d="M 183.79,84.16 141.58,130.33 99.23,84.16 h -9.9 c 0,0 0,16.2 0,16.23 v 75.12 15.61 h 0.01 27.76 0.11 V 175.24 141.9 l 22.7,23.77 h 3.2 l 22.7,-23.77 v 33.32 15.9 h 27.75 0.14 V 177.24 84.16 h -9.91"
   id="path462" />
		<path
   class="st1"
   d="m 305.5,176.25 c -0.02,4.5 -0.12,4.93 -0.86,5.95 -1.1,1.31 -3.68,1.84 -10.06,1.84 h -1.84 v 7.09 h 12.75 v -14.88 z"
   id="path464" />
		<path
   class="st4"
   d="m 214.68,61.29 h -8.39 v 7.55 h 2 c 3.73,0 5.33,0 6,0.74 0.29,0.42 0.37,0.85 0.39,3.06 V 61.29"
   id="path466" />
		<path
   class="st4"
   d="m 238.51,84.16 h -23.83 v 46.7 c 0,5.48 0,6.22 -0.53,6.66 -0.54,0.74 -2.13,0.74 -5.86,0.74 h -2 v 7.55 h 20.38 V 122.8 h 6.18 5.67 V 84.16"
   id="path468" />
		<path
   class="st5"
   d="m 246.07,61.29 h -7.57 v 22.87 0.02 h 0.33 7.01 c 7.21,0 12.05,7.72 12.05,19.2 0,11.62 -4.84,19.43 -12.05,19.43 h -7.34 v 0 23 h 7.57 c 9.61,0 18.02,-3.36 24.32,-9.72 7.57,-7.65 11.67,-19.35 11.55,-32.94 0,-25.04 -14.41,-41.86 -35.87,-41.86 z"
   id="path470" />
		<polyline
   class="st6"
   points="99.23,84.16 89.33,84.16 89.33,100.15 113.89,100.15 99.23,84.16   "
   id="polyline472" />
		<rect
   x="165.81"
   y="175.24001"
   class="st7"
   width="27.889999"
   height="15.88"
   id="rect474" />
		<rect
   x="388.64001"
   y="84.169998"
   class="st7"
   width="27.879999"
   height="15.88"
   id="rect476" />
		<rect
   x="89.330002"
   y="175.24001"
   class="st7"
   width="27.879999"
   height="15.88"
   id="rect478" />
		<rect
   x="214.67999"
   y="61.290001"
   class="st8"
   width="23.83"
   height="22.889999"
   id="rect480" />
		<rect
   x="226.64999"
   y="122.81"
   class="st8"
   width="11.85"
   height="23.01"
   id="rect482" />
		<rect
   x="305.5"
   y="96.360001"
   class="st6"
   width="22.84"
   height="20.99"
   id="rect484" />
		<rect
   x="320.85001"
   y="145.19"
   class="st6"
   width="7.52"
   height="7.52"
   id="rect486" />
		<polyline
   class="st7"
   points="328.37,175.24 305.5,175.24 305.5,191.13 328.37,191.13 328.37,175.24   "
   id="polyline488" />
		<g
   id="g494">
			<path
   class="st2"
   d="m 439.62,84.19 v 7.99 h 2 c 6.93,0 9.72,0.6 10.93,2.22 0.93,1.18 0.93,1.92 0.93,11.25 v 17.19 h 23.99 v -17.19 c 0,-9.48 0,-10.07 0.93,-11.25 1.2,-1.63 4.13,-2.22 11.06,-2.22 h 2 v -7.99 z"
   id="path490" />
			<path
   class="st2"
   d="m 478.41,180.89 c -0.93,-1.19 -0.93,-1.63 -0.93,-11.11 v -21.49 h -23.99 v 21.49 c 0,9.33 0,9.92 -0.93,11.11 -1.2,1.63 -4,2.22 -10.93,2.22 h -2 v 8 h 51.84 v -8 h -2 c -6.93,0 -9.87,-0.6 -11.06,-2.22 z"
   id="path492" />
		</g>
		<rect
   x="453.48001"
   y="122.84"
   class="st6"
   width="23.99"
   height="25.440001"
   id="rect496" />
	</g>
	<g
   id="g532">
		<path
   class="st6"
   d="M 114.66,245.05 H 89.61 v -36.19 h 6.85 v 29.44 h 18.2 z"
   id="path500" />
		<path
   class="st6"
   d="m 143.66,232.51 c 0,7.55 -5.48,13.18 -12.9,13.18 -7.39,0 -12.85,-5.64 -12.85,-13.18 0,-7.55 5.45,-13.18 12.85,-13.18 7.42,0 12.9,5.64 12.9,13.18 z m -19.21,0 c 0,4.06 2.69,6.9 6.31,6.9 3.62,0 6.33,-2.84 6.33,-6.9 0,-4.06 -2.71,-6.9 -6.33,-6.9 -3.62,0 -6.31,2.84 -6.31,6.9 z"
   id="path502" />
		<path
   class="st6"
   d="m 156.86,210.52 c 0,2.56 -1.89,4.5 -4.29,4.5 -2.43,0 -4.29,-1.94 -4.29,-4.5 0,-2.56 1.86,-4.55 4.29,-4.55 2.41,0 4.29,1.99 4.29,4.55 z m -1.06,34.53 h -6.41 V 220 h 6.41 z"
   id="path504" />
		<path
   class="st6"
   d="m 179.3,219.87 -0.96,6.69 c -1.06,-0.49 -2.58,-0.8 -3.88,-0.8 -2.97,0 -5.01,1.91 -5.01,5.63 v 13.65 h -6.41 V 220 h 6.2 v 2.74 c 1.5,-2.35 3.8,-3.41 6.72,-3.41 1.38,0 2.46,0.21 3.34,0.54 z"
   id="path506" />
		<path
   class="st6"
   d="m 205.48,232.49 c 0,0.78 -0.05,1.71 -0.13,2.27 h -16.88 c 0.67,3.62 3.08,5.2 6.1,5.2 2.07,0 4.32,-0.88 6.02,-2.4 l 3.77,4.34 c -2.71,2.61 -6.15,3.8 -10.16,3.8 -7.29,0 -12.36,-5.22 -12.36,-13.11 0,-7.89 4.91,-13.26 12.05,-13.26 6.86,0 11.57,5.35 11.59,13.16 z m -16.98,-2.33 h 10.52 c -0.57,-3.21 -2.43,-5.01 -5.17,-5.01 -3.02,0 -4.81,1.91 -5.35,5.01 z"
   id="path508" />
		<path
   class="st6"
   d="m 225.1,234.24 h -14.53 v -5.89 h 14.53 z"
   id="path510" />
		<path
   class="st6"
   d="m 262.71,245.05 h -7.32 l -3,-8.43 h -14.68 l -3,8.43 h -7.13 l 13.39,-36.19 h 8.35 z m -22.62,-15.07 h 9.95 L 245.08,216 Z"
   id="path512" />
		<path
   class="st6"
   d="m 283.21,226 h -8.61 v 9.15 c 0,3.13 1.55,4.26 3.54,4.26 1.53,0 3.18,-0.8 4.5,-1.63 l 2.35,5.27 c -2.09,1.5 -4.5,2.64 -7.88,2.64 -5.92,0 -8.94,-3.52 -8.94,-10 V 226 h -4.58 v -6 h 4.58 v -7.44 h 6.44 V 220 h 8.61 v 6 z"
   id="path514" />
		<path
   class="st6"
   d="m 295.8,245.05 h -6.41 v -37.22 h 6.41 z"
   id="path516" />
		<path
   class="st6"
   d="m 323.45,230.29 v 14.76 h -6.23 v -2.53 c -1.65,1.81 -4.03,3.18 -7.29,3.18 -5.22,0 -8.38,-3.28 -8.38,-8.04 0,-4.78 3.75,-7.7 9.87,-7.7 h 5.56 c -0.26,-3 -1.96,-4.68 -5.3,-4.68 -2.69,0 -4.89,1.14 -6.51,2.35 l -2.51,-5.14 c 2.56,-1.99 5.84,-3.15 9.72,-3.15 6.78,-0.01 11.07,3.69 11.07,10.95 z m -6.3,7.08 v -2.87 h -4.78 c -3.05,0 -4.14,1.45 -4.14,2.9 0,1.47 1.01,2.87 3.26,2.87 2.12,0 4.21,-1.14 5.66,-2.9 z"
   id="path518" />
		<path
   class="st6"
   d="m 353,229.1 v 15.95 h -6.41 v -13.78 c 0,-3.62 -1.73,-5.61 -4.65,-5.61 -2.77,0 -5.04,1.89 -5.04,5.66 v 13.73 h -6.41 V 220 h 6.23 v 2.95 c 1.71,-2.66 4.32,-3.62 7.01,-3.62 5.42,0 9.27,3.95 9.27,9.77 z"
   id="path520" />
		<path
   class="st6"
   d="m 377.04,226 h -8.61 v 9.15 c 0,3.13 1.55,4.26 3.54,4.26 1.53,0 3.18,-0.8 4.5,-1.63 l 2.35,5.27 c -2.09,1.5 -4.5,2.64 -7.88,2.64 -5.92,0 -8.94,-3.52 -8.94,-10 V 226 h -4.58 v -6 H 362 v -7.44 h 6.44 V 220 h 8.61 v 6 z"
   id="path522" />
		<path
   class="st6"
   d="m 390.68,210.52 c 0,2.56 -1.89,4.5 -4.29,4.5 -2.43,0 -4.29,-1.94 -4.29,-4.5 0,-2.56 1.86,-4.55 4.29,-4.55 2.41,0 4.29,1.99 4.29,4.55 z m -1.06,34.53 h -6.41 V 220 h 6.41 z"
   id="path524" />
		<path
   class="st6"
   d="M 414.05,222.77 V 220 h 6.26 v 36.42 h -6.38 v -13.98 c -1.55,1.94 -3.83,3.26 -7.01,3.26 -6.57,0 -11.53,-5.66 -11.53,-13.18 0,-7.52 4.96,-13.18 11.53,-13.18 3.25,-0.01 5.55,1.39 7.13,3.43 z m -12.1,9.74 c 0,3.83 2.38,6.9 6.13,6.9 3.67,0 6.15,-2.95 6.15,-6.9 0,-3.95 -2.48,-6.9 -6.15,-6.9 -3.75,0 -6.13,3.08 -6.13,6.9 z"
   id="path526" />
		<path
   class="st6"
   d="m 449.88,234.37 c 0,7.91 -5.3,11.32 -11.24,11.32 -5.97,0 -11.3,-3.41 -11.3,-11.32 V 220 h 6.41 v 13.78 c 0,4.01 2.09,5.63 4.89,5.63 2.74,0 4.86,-1.63 4.86,-5.63 V 220 h 6.38 z"
   id="path528" />
		<path
   class="st6"
   d="m 479.06,232.49 c 0,0.78 -0.05,1.71 -0.13,2.27 h -16.88 c 0.67,3.62 3.08,5.2 6.1,5.2 2.07,0 4.32,-0.88 6.02,-2.4 l 3.77,4.34 c -2.71,2.61 -6.15,3.8 -10.16,3.8 -7.29,0 -12.36,-5.22 -12.36,-13.11 0,-7.89 4.91,-13.26 12.05,-13.26 6.86,0 11.56,5.35 11.59,13.16 z m -16.99,-2.33 h 10.52 c -0.57,-3.21 -2.43,-5.01 -5.17,-5.01 -3.02,0 -4.8,1.91 -5.35,5.01 z"
   id="path530" />
	</g>
</g>
</svg>
