<?xml version="1.0" encoding="utf-8"?>
<!-- Generator: Adobe Illustrator 28.3.0, SVG Export Plug-In . SVG Version: 6.00 Build 0)  -->
<svg version="1.1" id="calques" xmlns="http://www.w3.org/2000/svg" xmlns:xlink="http://www.w3.org/1999/xlink" x="0px" y="0px"
	 viewBox="0 0 733.3 200" style="enable-background:new 0 0 733.3 200;" xml:space="preserve">
<style type="text/css">
	.st0{fill:#004461;}
	.st1{fill:#AFCA00;}
	.st2{fill:#FFFFFF;}
</style>
<path class="st0" d="M188.7,45.5c-1.5-0.9-3.3-1.4-5.1-1.4c-2.5,0-5,1-6.7,2.8c-1.8,1.8-2.8,4.2-2.8,6.8c-0.1,0.4-0.1,0.8,0,1.2
	L188.7,45.5z"/>
<path class="st0" d="M344,103.5c-1.5-1-3.2-1.5-5-1.4c-2.5-0.1-5,0.9-6.7,2.8c-1.8,1.8-2.8,4.2-2.8,6.8c0,0.4,0,0.8,0,1.2L344,103.5
	z"/>
<path class="st0" d="M111.5,63.1c2.5,0,5-1,6.7-2.8c1.8-1.7,2.9-4.2,2.8-6.7c0-5.3-4.3-9.5-9.6-9.5c-2.5,0-4.9,1-6.7,2.8
	c-3.9,3.6-4.1,9.6-0.5,13.5c1.9,2,4.5,3.1,7.2,3.1L111.5,63.1z"/>
<path class="st0" d="M265.2,102c-2.5,0-5,1-6.7,2.8c-3.7,3.6-3.8,9.6-0.1,13.3l0.1,0.1c3.6,3.7,9.6,3.8,13.3,0.1l0.1-0.1
	c1.8-1.8,2.8-4.2,2.8-6.7s-1-5-2.8-6.7C270.1,103,267.7,102,265.2,102z"/>
<path class="st0" d="M157.3,121.1c5.3,0,9.6-4.3,9.6-9.5c0-2.5-1-5-2.9-6.7c-3.7-3.7-9.7-3.7-13.5,0l0,0c-3.7,3.7-3.7,9.8,0,13.5
	c1.8,1.8,4.2,2.8,6.7,2.8h0.1V121.1z"/>
<path class="st0" d="M274.7,144.8v-19c-6.8,5-16.2,4.1-22-1.9c-3.2-3.3-5.1-7.7-5-12.3c0-9.8,7.9-17.7,17.7-17.7
	c9.8,0,17.7,7.9,17.7,17.7v33h-1c28.9,0.4,62.2,1.8,101.3,4.5V45.3C241.4-9.5,69.8-6.8,4.2,33.5l54.3,162.9
	c9.1-5.5,17.8-10.7,26.5-15.3l0,0C127.7,157.9,172.2,144.1,274.7,144.8z M326.5,99.1c3.3-3.4,7.8-5.3,12.5-5.2c3.5,0,6.9,1,9.8,3
	s5.2,4.8,6.6,8v0.7l-21.6,14.1c1.5,0.9,3.2,1.4,5,1.4c2.6,0.1,5.1-1,6.9-2.9c0.7-0.8,1.4-1.8,1.8-2.8h8.6c-0.7,3.2-2.3,6.1-4.6,8.5
	c-3.2,3.6-7.8,5.6-12.6,5.5c-4.7,0.1-9.2-1.8-12.5-5.1c-3.4-3.2-5.3-7.7-5.2-12.4C321.1,107.1,323,102.4,326.5,99.1z M287.9,94.4
	h8.1v19.7c0.1,3.8,3.1,6.8,6.9,6.9c1.9,0,3.6-0.8,4.9-2.1c1.3-1.3,2.1-3,2-4.8V94.5h8.2v19.7c0,4-1.7,7.8-4.6,10.5
	c-5.5,5.8-14.7,6.1-20.5,0.6c-0.2-0.2-0.4-0.4-0.6-0.6c-2.9-2.7-4.5-6.5-4.5-10.5L287.9,94.4z M121.1,102.5h-5.5v26h-8v-26h-5.2v-8
	h5.2v-11h8.1v11h5.5L121.1,102.5z M134.8,128.6h-8.3V83.1h8.1L134.8,128.6z M234.7,83.2h8v8.1h-8.2L234.7,83.2z M234.7,94.2h8v34.1
	h-8.2L234.7,94.2z M212.6,94.2h5.2v-11h7.7v11h5.2v8.1h-5.2v26h-8.1v-25.8h-5.2L212.6,94.2z M210.3,108.6v19.7h-8.5v-19.4
	c0-3.8-3.1-6.9-6.9-6.9c-3.8,0-6.9,3.1-6.9,6.9l0,0v19.7h-8.1v-19.7c0-4,1.6-7.8,4.5-10.5c2.7-2.9,6.5-4.5,10.5-4.5
	s7.7,1.6,10.5,4.5c2.9,2.7,4.5,6.5,4.6,10.5L210.3,108.6z M171.8,40.9c3.2-3.4,7.7-5.3,12.4-5.2c3.5,0,6.9,1,9.8,3
	c2.9,1.9,5.2,4.7,6.6,7.9l0.3,0.7l-22.3,14.2c1.5,0.9,3.3,1.4,5.1,1.4c2.5,0.1,5-1,6.7-2.9c0.8-0.8,1.4-1.8,1.9-2.9h8.6
	c-0.7,3.2-2.3,6.2-4.6,8.5c-3.2,3.5-7.8,5.4-12.5,5.2c-4.7,0.1-9.2-1.8-12.6-5.1c-3.4-3.2-5.3-7.8-5.2-12.4c0-4.6,1.9-9,5.2-12.3
	L171.8,40.9z M148.6,51c-0.1-4.1,1.7-7.9,4.7-10.6c2.9-2.9,6.9-4.5,11-4.4h0.9v8.1h-1.3c-2-0.1-4,0.6-5.5,2c-1.4,1.3-2.2,3.1-2.1,5
	v19.7h-7.7L148.6,51L148.6,51z M157.3,93.9c4.7,0,9.2,1.8,12.5,5.2c3.4,3.2,5.3,7.8,5.2,12.4v17h-8.1v-2.8c-6.8,4.9-16.2,4.1-22-1.9
	c-6.8-7.1-6.6-18.3,0.5-25.1c3.3-3.1,7.6-4.9,12.2-4.9h-0.3V93.9z M134.2,25h8.1v8.1h-8.1V25z M134.2,36.5h8.1v34.2h-8.1V36.5z
	 M99,41.1c3.3-3.4,7.8-5.2,12.5-5.2c9.7,0.1,17.6,7.9,17.7,17.6c-0.1,9.8-8.1,17.6-17.9,17.5c-4.6,0-9-1.9-12.3-5.1
	C92.2,59.2,92.2,48.1,99,41.1C99,41.2,99,41.2,99,41.1z M66,25.2h8.4v37h18.7v8.4H66.2L66,25.2z M72.2,128.6h-8.8l16.1-45.5H89
	l16.1,45.5h-9l-2.8-7.6H75.2L72.2,128.6z"/>
<polygon class="st0" points="78,113.4 90.5,113.4 84.2,96.2 "/>
<path class="st1" d="M85.1,181.1h298v-31.5C210.8,138.9,150.1,146.4,85.1,181.1z"/>
<path class="st1" d="M383.8,149.6L383.8,149.6z"/>
<path class="st1" d="M383.1,149.6L383.1,149.6c-39-2.6-72.4-4.1-101.3-4.5h-7.1c-102.5-1-147,12.8-189.8,36l0,0
	C150.1,146.4,210.8,138.9,383.1,149.6z"/>
<path class="st2" d="M111.5,71.1c9.7,0,17.6-7.8,17.7-17.6c-0.1-9.7-8-17.6-17.7-17.6c-4.7,0-9.2,1.8-12.5,5.2
	c-6.9,6.8-6.9,18,0,24.8l0,0C102.3,69.4,106.9,71.2,111.5,71.1z M104.8,46.9c3.7-3.7,9.8-3.7,13.5,0c1.8,1.8,2.8,4.2,2.8,6.7
	c0.1,2.5-1,5-2.8,6.7c-3.4,4-9.5,4.4-13.4,1c-4-3.4-4.4-9.5-1-13.4C104.1,47.5,104.5,47.2,104.8,46.9z"/>
<rect x="134.2" y="36.5" class="st2" width="8.1" height="34.2"/>
<path class="st2" d="M156.6,51c-0.1-1.9,0.7-3.7,2.1-5c1.5-1.4,3.5-2.1,5.5-2h0.9v-8h-1.3c-4.1-0.1-8.1,1.5-11,4.4
	c-3,2.7-4.7,6.6-4.7,10.6v19.7h8.1L156.6,51z"/>
<polygon class="st2" points="115.7,83.2 107.6,83.2 107.6,94.4 102.4,94.4 102.4,102.5 107.6,102.5 107.6,128.6 115.7,128.6 
	115.7,102.5 120.9,102.5 120.9,94.4 115.7,94.4 "/>
<rect x="126.6" y="83.1" class="st2" width="8.1" height="45.5"/>
<path class="st2" d="M144.6,123.9c5.8,6,15.2,6.8,22,1.9v2.8h8.3v-17c0.1-4.7-1.8-9.2-5.2-12.4c-7.2-6.6-18.3-6.2-25,0.9
	C138.5,106.7,138.5,117.1,144.6,123.9z M150.5,104.8c3.7-3.7,9.7-3.7,13.5,0l0,0c1.8,1.7,2.8,4.2,2.8,6.7c0,5.3-4.3,9.5-9.6,9.5
	s-9.5-4.3-9.5-9.6C147.8,109,148.8,106.6,150.5,104.8z"/>
<path class="st2" d="M184.4,98.4c-2.9,2.7-4.5,6.5-4.5,10.5v19.7h8.1v-19.7c0-3.8,3.1-6.9,6.9-6.9c3.8,0,6.9,3.1,6.9,6.9l0,0v19.7
	h8.1v-19.7c0-4-1.7-7.8-4.6-10.5c-2.7-2.9-6.5-4.5-10.5-4.5C190.9,93.9,187.1,95.5,184.4,98.4z"/>
<polygon class="st2" points="217.5,128.6 225.6,128.6 225.6,102.5 230.9,102.5 230.9,94.4 225.6,94.4 225.6,83.2 217.5,83.2 
	217.5,94.4 212.3,94.4 212.3,102.5 217.5,102.5 "/>
<rect x="234.5" y="94.4" class="st2" width="8.1" height="34.2"/>
<rect x="234.5" y="83.2" class="st2" width="8.1" height="8.1"/>
<path class="st2" d="M282.9,111.6c-0.1-9.7-8-17.6-17.7-17.7c-9.8,0-17.7,7.9-17.7,17.7c0,4.6,1.8,9,5,12.3c5.8,6.1,15.2,6.9,22,1.9
	v19h8.3v-33.2H282.9z M271.8,118.3c-3.6,3.7-9.6,3.8-13.3,0.1l-0.1-0.1c-3.7-3.6-3.8-9.6-0.1-13.3l0.1-0.1c1.7-1.8,4.2-2.8,6.7-2.8
	s5,1,6.7,2.8c1.8,1.7,2.8,4.2,2.8,6.7C274.7,114.1,273.7,116.5,271.8,118.3L271.8,118.3z"/>
<path class="st2" d="M274.7,144.9L274.7,144.9z"/>
<path class="st2" d="M302.8,129.1c4,0,7.8-1.6,10.5-4.5c2.9-2.7,4.6-6.5,4.6-10.5V94.5h-8.1v19.7c0,1.8-0.7,3.6-2,4.8
	c-1.3,1.3-3,2.1-4.9,2.1c-3.7-0.2-6.7-3.2-6.7-7V94.5h-8.3v19.7c0,4,1.6,7.7,4.5,10.5C295,127.5,298.8,129.1,302.8,129.1z"/>
<path class="st2" d="M183.7,71.1c4.7,0.1,9.3-1.8,12.5-5.2c2.3-2.4,3.9-5.3,4.6-8.5h-8.6c-0.4,1.1-1.1,2-1.9,2.9
	c-1.7,1.9-4.1,2.9-6.7,2.9c-1.8,0-3.5-0.5-5.1-1.4l21.7-14.1l-0.3-0.7c-1.4-3.2-3.7-6-6.6-7.9c-2.9-2-6.3-3-9.8-3
	c-4.7-0.1-9.2,1.8-12.4,5.2c-3.4,3.3-5.2,7.8-5.2,12.5c-0.1,4.7,1.8,9.2,5.2,12.4C174.5,69.4,179,71.2,183.7,71.1z M176.9,46.9
	c1.7-1.8,4.2-2.8,6.7-2.8c1.8,0,3.5,0.5,5.1,1.4l-14.4,9.4c-0.1-0.4-0.1-0.8,0-1.2C174.2,51.1,175.1,48.7,176.9,46.9z"/>
<path class="st2" d="M339,129.1c4.8,0.1,9.4-1.9,12.6-5.5c2.3-2.4,3.8-5.3,4.6-8.5h-8.6c-0.5,1-1.1,2-1.8,2.8
	c-1.7,1.9-4.2,3-6.7,2.9c-1.8,0-3.5-0.5-5-1.4l21.6-13.9v-0.7c-1.4-3.2-3.7-6-6.6-8s-6.3-3-9.8-3c-4.7-0.1-9.2,1.8-12.5,5.2
	c-3.3,3.3-5.2,7.8-5.1,12.5c-0.1,4.7,1.8,9.2,5.2,12.4C330,127.3,334.4,129.1,339,129.1z M332.2,104.8c1.7-1.9,4.2-2.9,6.7-2.8
	c1.8,0,3.5,0.5,5,1.4l-14.4,9.4c0-0.4,0-0.8,0-1.2C329.5,109.1,330.5,106.6,332.2,104.8z"/>
<polygon class="st2" points="93.3,62.2 74.6,62.2 74.6,25.2 66.2,25.2 66.2,70.7 93.3,70.7 "/>
<path class="st2" d="M96,128.6h9L89,83.1h-9.4l-16.1,45.5h8.9l2.8-7.6h18.1L96,128.6z M78,113.4l6.3-17.2l6.3,17.2L78,113.4z"/>
<rect x="134.2" y="25" class="st2" width="8.1" height="8.1"/>
<g>
	<path d="M429.5,124.4c-2.6-1.5-4.7-3.5-6.2-6.1s-2.3-5.5-2.3-8.8c0-3.3,0.8-6.2,2.3-8.8c1.5-2.6,3.6-4.6,6.2-6.1
		c2.6-1.5,5.5-2.2,8.6-2.2c3.1,0,6,0.7,8.6,2.2c2.6,1.5,4.7,3.5,6.2,6.1c1.5,2.6,2.3,5.5,2.3,8.8c0,3.3-0.8,6.2-2.3,8.8
		s-3.6,4.6-6.2,6.1s-5.5,2.2-8.6,2.2C435,126.5,432.1,125.8,429.5,124.4z M444,120.3c1.7-1,3.1-2.4,4.1-4.3c1-1.9,1.5-4,1.5-6.5
		c0-2.5-0.5-4.6-1.5-6.5c-1-1.9-2.3-3.3-4.1-4.3c-1.7-1-3.7-1.5-5.9-1.5s-4.2,0.5-5.9,1.5c-1.7,1-3.1,2.4-4.1,4.3
		c-1,1.9-1.5,4-1.5,6.5c0,2.5,0.5,4.6,1.5,6.5c1,1.9,2.3,3.3,4.1,4.3c1.7,1,3.7,1.5,5.9,1.5S442.3,121.3,444,120.3z"/>
	<path d="M469.8,100.5c1.6-0.8,3.4-1.2,5.4-1.2c2.3,0,4.4,0.6,6.3,1.7c1.9,1.1,3.4,2.7,4.5,4.8c1.1,2.1,1.6,4.4,1.6,7.1
		c0,2.7-0.5,5-1.6,7.1c-1.1,2.1-2.6,3.7-4.5,4.9s-4,1.8-6.3,1.8c-2,0-3.9-0.4-5.4-1.2s-2.8-1.8-3.8-3.1v3.8h-5.5V90.7h5.5v13
		C466.9,102.4,468.2,101.4,469.8,100.5z M480.9,108.1c-0.8-1.3-1.7-2.3-3-3c-1.2-0.7-2.6-1-4-1c-1.4,0-2.7,0.4-3.9,1.1
		c-1.2,0.7-2.2,1.7-3,3.1c-0.8,1.3-1.1,2.9-1.1,4.8c0,1.8,0.4,3.4,1.1,4.8c0.8,1.4,1.7,2.4,3,3.1c1.2,0.7,2.5,1.1,3.9,1.1
		c1.4,0,2.7-0.4,4-1.1c1.2-0.7,2.2-1.8,3-3.1c0.8-1.4,1.1-3,1.1-4.8S481.7,109.5,480.9,108.1z"/>
	<path d="M497.1,125.5c-1.6-0.8-3-1.8-3.9-3.1s-1.5-2.7-1.5-4.3h5.7c0.1,1.1,0.6,2.1,1.6,2.8s2.2,1.1,3.7,1.1c1.5,0,2.7-0.3,3.6-0.9
		s1.3-1.4,1.3-2.3c0-1-0.5-1.7-1.4-2.2c-0.9-0.5-2.4-1-4.5-1.6c-2-0.5-3.6-1.1-4.8-1.6c-1.2-0.5-2.3-1.3-3.2-2.4
		c-0.9-1.1-1.4-2.4-1.4-4.2c0-1.4,0.4-2.7,1.2-3.9s2-2.1,3.6-2.8c1.6-0.7,3.3-1,5.4-1c3,0,5.4,0.8,7.3,2.3c1.8,1.5,2.8,3.6,3,6.2
		H507c-0.1-1.2-0.6-2.1-1.4-2.8c-0.9-0.7-2-1.1-3.5-1.1c-1.4,0-2.5,0.3-3.3,0.8c-0.8,0.5-1.2,1.3-1.2,2.2c0,0.7,0.3,1.3,0.8,1.8
		c0.5,0.5,1.1,0.9,1.9,1.1c0.7,0.3,1.8,0.6,3.3,1c1.9,0.5,3.5,1,4.7,1.6c1.2,0.5,2.3,1.3,3.2,2.3c0.9,1,1.4,2.4,1.4,4.1
		c0,1.5-0.4,2.8-1.2,4c-0.8,1.2-2,2.1-3.5,2.8c-1.5,0.7-3.3,1-5.4,1C500.6,126.6,498.7,126.3,497.1,125.5z"/>
	<path d="M542.7,115h-20.2c0.2,2.1,0.9,3.8,2.4,5.1c1.4,1.3,3.1,1.9,5.2,1.9c2.9,0,5-1.2,6.2-3.7h5.9c-0.8,2.4-2.2,4.4-4.3,6
		c-2.1,1.6-4.7,2.3-7.8,2.3c-2.5,0-4.8-0.6-6.8-1.7s-3.6-2.7-4.7-4.8c-1.1-2.1-1.7-4.5-1.7-7.2c0-2.7,0.6-5.1,1.7-7.2
		c1.1-2.1,2.7-3.7,4.7-4.8c2-1.1,4.3-1.7,6.9-1.7c2.5,0,4.7,0.5,6.7,1.6c2,1.1,3.5,2.6,4.6,4.6c1.1,2,1.6,4.2,1.6,6.8
		C542.9,113.3,542.9,114.2,542.7,115z M537.2,110.6c0-2-0.8-3.6-2.2-4.8c-1.4-1.2-3.2-1.8-5.2-1.8c-1.9,0-3.5,0.6-4.8,1.8
		c-1.3,1.2-2.1,2.8-2.4,4.9H537.2z"/>
	<path d="M557,100.4c1.3-0.8,2.9-1.1,4.7-1.1v5.7h-1.4c-2.1,0-3.8,0.5-4.9,1.6c-1.1,1.1-1.7,3-1.7,5.7v13.9h-5.5V99.8h5.5v3.8
		C554.6,102.2,555.6,101.2,557,100.4z"/>
	<path d="M577,121.3l7.5-21.6h5.8l-10.1,26.4h-6.5l-10-26.4h5.9L577,121.3z"/>
	<path d="M594.2,105.8c1.1-2,2.6-3.6,4.5-4.8c1.9-1.1,4-1.7,6.3-1.7c2.1,0,3.9,0.4,5.4,1.2c1.6,0.8,2.8,1.8,3.7,3v-3.8h5.5v26.4
		h-5.5v-3.9c-0.9,1.2-2.2,2.3-3.8,3.1c-1.6,0.8-3.4,1.2-5.5,1.2c-2.3,0-4.4-0.6-6.2-1.8c-1.9-1.2-3.4-2.8-4.5-4.9
		c-1.1-2.1-1.7-4.5-1.7-7.1C592.6,110.2,593.1,107.8,594.2,105.8z M613.1,108.2c-0.8-1.3-1.7-2.4-3-3.1s-2.5-1.1-3.9-1.1
		c-1.4,0-2.7,0.3-3.9,1c-1.2,0.7-2.2,1.7-3,3s-1.1,2.9-1.1,4.7s0.4,3.4,1.1,4.8c0.8,1.4,1.7,2.4,3,3.1c1.2,0.7,2.5,1.1,3.9,1.1
		c1.4,0,2.7-0.4,3.9-1.1c1.2-0.7,2.2-1.7,3-3.1c0.8-1.4,1.1-3,1.1-4.8C614.2,111.1,613.8,109.5,613.1,108.2z"/>
	<path d="M633.3,104.2v14.6c0,1,0.2,1.7,0.7,2.1c0.5,0.4,1.3,0.6,2.4,0.6h3.4v4.6h-4.3c-2.5,0-4.4-0.6-5.7-1.7c-1.3-1.2-2-3-2-5.6
		v-14.6h-3.1v-4.5h3.1v-6.6h5.5v6.6h6.4v4.5H633.3z"/>
	<path d="M649.5,124.9c-2-1.1-3.6-2.7-4.8-4.8c-1.2-2.1-1.7-4.5-1.7-7.2c0-2.7,0.6-5.1,1.8-7.2s2.8-3.7,4.8-4.8
		c2-1.1,4.3-1.7,6.9-1.7c2.5,0,4.8,0.6,6.9,1.7c2,1.1,3.7,2.7,4.8,4.8c1.2,2.1,1.8,4.5,1.8,7.2c0,2.7-0.6,5.1-1.8,7.2
		s-2.9,3.7-5,4.8s-4.4,1.7-6.9,1.7C653.8,126.6,651.5,126.1,649.5,124.9z M660.2,120.9c1.2-0.7,2.2-1.7,3-3c0.8-1.3,1.2-3,1.2-4.9
		s-0.4-3.5-1.1-4.9c-0.7-1.3-1.7-2.3-2.9-3c-1.2-0.7-2.5-1-3.9-1s-2.7,0.3-3.9,1s-2.2,1.7-2.9,3c-0.7,1.3-1.1,3-1.1,4.9
		c0,2.8,0.7,5,2.2,6.6c1.5,1.6,3.3,2.3,5.5,2.3C657.7,121.9,659,121.5,660.2,120.9z"/>
	<path d="M675.7,95.2c-0.7-0.7-1-1.5-1-2.5c0-1,0.3-1.8,1-2.5c0.7-0.7,1.5-1,2.5-1c1,0,1.8,0.3,2.4,1c0.7,0.7,1,1.5,1,2.5
		c0,1-0.3,1.8-1,2.5s-1.5,1-2.4,1C677.2,96.2,676.4,95.9,675.7,95.2z M680.9,99.8v26.4h-5.5V99.8H680.9z"/>
	<path d="M696.7,100.4c1.3-0.8,2.9-1.1,4.7-1.1v5.7h-1.4c-2.1,0-3.8,0.5-4.9,1.6c-1.1,1.1-1.7,3-1.7,5.7v13.9h-5.5V99.8h5.5v3.8
		C694.4,102.2,695.4,101.2,696.7,100.4z"/>
	<path d="M730.6,115h-20.2c0.2,2.1,0.9,3.8,2.4,5.1c1.4,1.3,3.1,1.9,5.2,1.9c2.9,0,5-1.2,6.2-3.7h5.9c-0.8,2.4-2.2,4.4-4.3,6
		c-2.1,1.6-4.7,2.3-7.8,2.3c-2.5,0-4.8-0.6-6.8-1.7s-3.6-2.7-4.7-4.8c-1.1-2.1-1.7-4.5-1.7-7.2c0-2.7,0.6-5.1,1.7-7.2
		c1.1-2.1,2.7-3.7,4.7-4.8c2-1.1,4.3-1.7,6.9-1.7c2.5,0,4.7,0.5,6.7,1.6c2,1.1,3.5,2.6,4.6,4.6c1.1,2,1.6,4.2,1.6,6.8
		C730.8,113.3,730.7,114.2,730.6,115z M725,110.6c0-2-0.8-3.6-2.2-4.8c-1.4-1.2-3.2-1.8-5.2-1.8c-1.9,0-3.5,0.6-4.8,1.8
		c-1.3,1.2-2.1,2.8-2.4,4.9H725z"/>
</g>
</svg>
