<?xml version="1.0" encoding="UTF-8"?><svg id="Calque_1" xmlns="http://www.w3.org/2000/svg" viewBox="0 0 156.61 82.24"><defs><style>.cls-1{fill:#014562;}.cls-2{fill:#fff;}.cls-3{fill:#069fa0;}.cls-3,.cls-4{stroke:#fff;}.cls-4{fill:#0a62ac;}.cls-5{fill:#bccae9;}.cls-6{fill:#afca0c;}</style></defs><g><path class="cls-3" d="m.5,81.74V26.82h50.33v54.92H.5Z"/><path class="cls-4" d="m.5,51.17V.5h50.33v50.67H.5Z"/><g><path class="cls-5" d="m13.4,25.58c-.5-.33-1.84-1.12-2.17-1.44-.4-.39-.65-1.03-.44-1.88H3.61v3.32h9.79Z"/><path class="cls-5" d="m22.7,24.19c-.47.28-2.63,1.39-2.63,1.39h3.46c0-.18.36-.57.36-.57-.99.05-1.19-.82-1.19-.82Z"/><path class="cls-5" d="m29.23,24.19c.28.23,2.21,1.39,2.21,1.39h-3.4c0-.18-.22-.59-.22-.59,1.07.12,1.41-.8,1.41-.8Z"/><path class="cls-5" d="m38.22,25.58s2.14-1.1,2.6-1.49c.4-.35,1-1.14.8-1.84h6.16v3.34h-9.56Z"/></g><g><g><path class="cls-2" d="m18.64,11.94c.88,0,1.69-.72,1.82-1.6.12-.88-.49-1.6-1.37-1.6s-1.69.72-1.82,1.6c-.12.88.49,1.6,1.37,1.6Z"/><path class="cls-2" d="m18.51,12.74l3.48-1.95c.35-.18.63-.26.92-.26.82,0,1.4.67,1.28,1.5-.07.51-.39.96-.82,1.22l-2.63,1.48s-.36,2.5-.54,3.79c-.05.38-.58.61-.88.42-.52-.31-1.56-.98-1.56-.98,0,0-1.22.67-1.83.98-.36.18-.82-.05-.77-.42.18-1.29.53-3.79.53-3.79l-2.21-1.48c-.35-.27-.54-.72-.47-1.22.12-.82.88-1.5,1.7-1.5.29,0,.56.08.77.22l3.02,1.99Z"/></g><g><path class="cls-2" d="m28.43,6.71c.88,0,1.69-.72,1.82-1.6s-.49-1.6-1.37-1.6-1.69.72-1.82,1.6c-.12.88.49,1.6,1.37,1.6Z"/><path class="cls-2" d="m28.3,7.51l3.48-1.95c.35-.18.63-.26.92-.26.82,0,1.4.67,1.28,1.5-.07.51-.39.96-.82,1.22l-2.63,1.48s-.36,2.5-.54,3.79c-.05.38-.58.61-.88.42-.52-.31-1.56-.98-1.56-.98,0,0-1.22.67-1.83.98-.36.18-.82-.05-.77-.42.18-1.29.53-3.79.53-3.79l-2.21-1.48c-.35-.27-.54-.72-.47-1.22.12-.82.88-1.5,1.7-1.5.29,0,.56.08.77.22l3.02,1.99Z"/></g><g><path class="cls-2" d="m36.72,11.94c.88,0,1.69-.72,1.82-1.6.12-.88-.49-1.6-1.37-1.6s-1.69.72-1.82,1.6.49,1.6,1.37,1.6Z"/><path class="cls-2" d="m36.59,12.74l3.48-1.95c.35-.18.63-.26.92-.26.82,0,1.4.67,1.28,1.5-.07.51-.39.96-.82,1.22l-2.63,1.48s-.36,2.5-.54,3.79c-.05.38-.58.61-.88.42-.52-.31-1.56-.98-1.56-.98,0,0-1.22.67-1.83.98-.36.18-.82-.05-.77-.42.18-1.29.52-3.79.52-3.79l-2.21-1.48c-.35-.27-.54-.72-.47-1.22.12-.82.88-1.5,1.7-1.5.29,0,.56.08.77.22l3.03,1.99Z"/></g><g><path class="cls-2" d="m35.2,22.5c.88,0,1.69-.72,1.82-1.6s-.49-1.6-1.37-1.6-1.69.72-1.82,1.6.49,1.6,1.37,1.6Z"/><path class="cls-2" d="m35.07,23.3l3.48-1.95c.35-.18.63-.26.92-.26.82,0,1.4.67,1.28,1.5-.07.51-.39.96-.82,1.22l-2.63,1.48s-.36,2.5-.54,3.79c-.05.38-.58.61-.88.42-.52-.31-1.56-.97-1.56-.97,0,0-1.22.67-1.83.98-.36.18-.82-.05-.77-.42.18-1.29.52-3.79.52-3.79l-2.21-1.48c-.35-.27-.54-.72-.47-1.22.12-.82.88-1.5,1.7-1.5.29,0,.56.08.77.22l3.02,1.98Z"/></g><g><path class="cls-2" d="m26.95,17.22c.88,0,1.69-.72,1.82-1.6.12-.88-.49-1.6-1.37-1.6s-1.69.72-1.82,1.6c-.12.88.49,1.6,1.37,1.6Z"/><path class="cls-2" d="m26.83,18.02l3.48-1.95c.35-.18.63-.26.92-.26.82,0,1.4.67,1.28,1.5-.07.51-.39.96-.82,1.22l-2.63,1.48s-.36,2.5-.54,3.79c-.05.38-.58.61-.88.42-.52-.31-1.56-.98-1.56-.98,0,0-1.22.67-1.83.98-.36.18-.82-.05-.77-.42.18-1.29.52-3.79.52-3.79l-2.21-1.48c-.35-.27-.54-.72-.47-1.22.11-.82.88-1.5,1.7-1.5.29,0,.56.08.77.22l3.03,1.99Z"/></g><g><path class="cls-2" d="m25.48,27.73c.88,0,1.69-.72,1.82-1.6s-.49-1.6-1.37-1.6-1.69.72-1.82,1.6c-.12.88.49,1.6,1.37,1.6Z"/><path class="cls-2" d="m25.36,28.53l3.48-1.95c.35-.18.63-.26.92-.26.82,0,1.4.67,1.28,1.5-.07.51-.39.96-.82,1.22l-2.63,1.48s-.36,2.5-.54,3.79c-.05.38-.58.61-.88.42-.52-.31-1.56-.98-1.56-.98,0,0-1.22.67-1.83.98-.36.18-.82-.05-.77-.42.18-1.29.52-3.79.52-3.79l-2.21-1.48c-.35-.27-.54-.72-.47-1.22.11-.82.88-1.5,1.7-1.5.29,0,.56.08.77.22l3.03,1.99Z"/></g><g><path class="cls-2" d="m17.16,22.45c.88,0,1.69-.72,1.82-1.6s-.49-1.6-1.37-1.6-1.69.72-1.82,1.6c-.12.88.49,1.6,1.37,1.6Z"/><path class="cls-2" d="m17.03,23.25l3.48-1.95c.35-.18.63-.26.92-.26.82,0,1.4.67,1.28,1.5-.07.51-.39.96-.82,1.22l-2.63,1.48s-.36,2.5-.54,3.79c-.05.38-.58.61-.88.42-.52-.31-1.56-.98-1.56-.98,0,0-1.22.67-1.83.98-.36.18-.82-.05-.77-.42.18-1.29.52-3.79.52-3.79l-2.21-1.48c-.35-.27-.54-.72-.47-1.22.12-.82.88-1.5,1.7-1.5.29,0,.56.08.77.22l3.02,1.99Z"/></g></g><path class="cls-2" d="m6.08,40.28l.82-1.38.26,1.38h-1.08Zm1.15.36c.08.4.13.8.18,1.24.17,0,.35-.03.51-.03s.34.02.5.03l-.85-4.12c-.08,0-.15.02-.23.02-.08,0-.15,0-.22-.02l-2.49,4.11c.09,0,.19-.02.29-.02s.18,0,.28.02c.19-.41.41-.78.65-1.23h1.39Z"/><path class="cls-2" d="m9.96,41.43c.52,0,.96-.04,1.37-.08-.03.08-.06.17-.08.25-.01.08-.01.17-.02.25h-2.24l.79-4.04c.14,0,.29.03.44.03s.3-.02.45-.03l-.71,3.62Z"/><path class="cls-2" d="m12.93,41.43c.52,0,.96-.04,1.37-.08-.03.08-.06.17-.08.25-.01.08-.01.17-.02.25h-2.24l.79-4.04c.14,0,.29.03.44.03s.3-.02.45-.03l-.71,3.62Z"/><path class="cls-2" d="m17.68,38.07c.89,0,1.08.87.93,1.64-.19.98-.78,1.9-1.69,1.9s-1.08-.82-.93-1.59c.25-1.33.86-1.95,1.69-1.95Zm1.89,1.75c.17-.92-.09-2.11-1.78-2.11-1.48,0-2.52.95-2.75,2.13-.26,1.34.47,2.11,1.78,2.11,1.45,0,2.53-.98,2.75-2.14Z"/><path class="cls-2" d="m23.19,41.2l-.23.51c-.39.18-.82.25-1.22.25-1.27,0-2.07-.78-1.84-2,.3-1.55,1.5-2.25,2.79-2.25.39,0,.84.1,1.15.29-.09.2-.17.41-.26.61h-.08c-.16-.32-.49-.54-.88-.54-.98,0-1.57.94-1.73,1.81-.2,1.01.16,1.72,1.08,1.72.37,0,.83-.19,1.15-.44l.08.03Z"/><path class="cls-2" d="m24.86,40.28l.82-1.38.26,1.38h-1.08Zm1.15.36c.08.4.13.8.18,1.24.17,0,.35-.03.51-.03s.34.02.5.03l-.85-4.12c-.08,0-.15.02-.23.02s-.15,0-.22-.02l-2.49,4.11c.09,0,.19-.02.29-.02s.18,0,.28.02c.19-.41.41-.78.65-1.23h1.39Z"/><path class="cls-2" d="m29.39,41.89c-.14,0-.29-.03-.44-.03s-.3.02-.45.03l.71-3.65c-.42,0-.8.04-1.12.08.03-.08.06-.17.08-.26.01-.08.01-.17.02-.25h3.05c-.03.08-.06.17-.08.25-.02.09-.01.17-.02.26-.34-.04-.68-.08-1.05-.08l-.7,3.65Z"/><path class="cls-2" d="m31.91,37.82c.14,0,.29.03.44.03s.3-.02.45-.03l-.79,4.07c-.14,0-.29-.03-.44-.03s-.3.02-.45.03l.79-4.07Z"/><path class="cls-2" d="m35.79,38.07c.89,0,1.08.87.93,1.64-.19.98-.78,1.9-1.69,1.9s-1.08-.82-.93-1.59c.26-1.33.87-1.95,1.69-1.95Zm1.89,1.75c.17-.92-.09-2.11-1.78-2.11-1.48,0-2.52.95-2.75,2.13-.26,1.34.47,2.11,1.78,2.11,1.46,0,2.53-.98,2.75-2.14Z"/><path class="cls-2" d="m38.78,37.82h.58c.67.92,1.37,1.82,2.03,2.78l.54-2.78c.07,0,.15.02.23.02s.16,0,.24-.02l-.79,4.07h-.5c-.54-.77-1.04-1.5-1.58-2.2l-.51-.68-.56,2.87c-.07,0-.15-.02-.23-.02s-.16,0-.24.02l.79-4.06Z"/><path class="cls-2" d="m45.04,38.59c-.06-.32-.24-.51-.58-.51-.47,0-.7.24-.77.58-.16.8,1.67.65,1.41,2.01-.15.76-.9,1.3-1.82,1.3-.33,0-.66-.08-.9-.25.12-.25.23-.5.32-.75h.11c0,.41.28.65.69.65.37,0,.74-.21.82-.62.18-.95-1.65-.6-1.37-2.03.13-.68.71-1.24,1.61-1.24.42,0,.78.16.88.29-.11.19-.2.39-.3.59h-.09Z"/><path class="cls-2" d="m9.62,47.87c-.14,0-.29-.03-.44-.03s-.3.02-.45.03l.79-4.07h2.26c-.03.08-.06.17-.08.26s-.01.17-.02.26c-.36-.04-.73-.08-1.35-.08l-.25,1.28h.63c.23,0,.47-.02.73-.05-.03.08-.06.17-.08.26s-.01.17-.02.26c-.24-.02-.47-.05-.71-.05h-.62l-.38,1.95Z"/><path class="cls-2" d="m12.76,46.27l.82-1.38.26,1.38h-1.08Zm1.15.36c.08.4.13.8.18,1.24.17,0,.35-.03.51-.03s.34.02.5.03l-.85-4.12c-.08,0-.15.02-.23.02-.08,0-.15,0-.22-.02l-2.49,4.11c.09,0,.19-.02.29-.02s.18,0,.28.02c.19-.41.41-.78.65-1.23h1.39Z"/><path class="cls-2" d="m20.02,43.81c.08.01.16.03.24.03.08,0,.17-.02.26-.03-.13,1.6-.24,2.88-.27,4.07-.16,0-.32-.03-.48-.03s-.32.02-.48.03c.13-.94.19-1.85.28-2.76-.63.91-1.25,1.81-1.85,2.73-.07,0-.14-.02-.23,0-.22-.82-.51-1.74-.78-2.67-.34,1.04-.59,1.87-.78,2.7-.09,0-.18-.03-.27-.03s-.18.02-.28.03c.44-1.19.9-2.57,1.39-4.07.08.01.15.03.24.03s.17-.02.26-.03c.25.93.54,1.86.82,2.79.58-.84,1.27-1.77,1.92-2.79Z"/><path class="cls-2" d="m21.78,43.81c.14.01.29.03.44.03s.3-.02.45-.03l-.79,4.07c-.14,0-.29-.03-.44-.03s-.3.02-.45.03l.79-4.07Z"/><path class="cls-2" d="m23.88,47.42c.51,0,.96-.04,1.37-.08-.03.08-.06.17-.08.25-.01.08-.01.17-.02.25h-2.24l.79-4.04c.15.01.29.03.44.03s.3-.02.45-.03l-.71,3.62Z"/><path class="cls-2" d="m26.72,43.81c.15.01.29.03.44.03s.3-.02.45-.03l-.79,4.07c-.14,0-.29-.03-.44-.03s-.3.02-.45.03l.79-4.07Z"/><path class="cls-2" d="m28.9,46.27l.82-1.38.26,1.38h-1.08Zm1.15.36c.08.4.13.8.18,1.24.17,0,.35-.03.51-.03s.34.02.5.03l-.85-4.12c-.08,0-.15.02-.23.02s-.14,0-.22-.02l-2.49,4.11c.09,0,.19-.02.29-.02s.18,0,.28.02c.19-.41.41-.78.65-1.23h1.39Z"/><path class="cls-2" d="m32.77,47.42c.51,0,.96-.04,1.37-.08-.03.08-.06.17-.08.25-.01.08-.01.17-.02.25h-2.24l.79-4.04c.14.01.29.03.44.03s.3-.02.45-.03l-.71,3.62Z"/><path class="cls-2" d="m37.79,43.81c-.03.08-.06.17-.08.26-.01.08-.01.17-.02.26-.35-.05-.75-.09-1.35-.08l-.25,1.28h.62c.27,0,.51-.02.74-.05-.03.08-.06.17-.08.26-.01.08-.01.17-.02.26-.21-.03-.45-.05-.72-.05h-.62l-.29,1.5c.61,0,1.01-.03,1.38-.08-.03.08-.06.17-.08.26-.01.08-.01.17-.02.26h-2.26l.79-4.04h2.26Z"/><path class="cls-2" d="m40.19,44.58c-.06-.32-.24-.51-.58-.51-.47,0-.7.24-.77.58-.15.8,1.67.65,1.41,2.01-.15.76-.9,1.3-1.82,1.3-.33,0-.66-.08-.9-.25.12-.25.23-.5.32-.75h.11c0,.41.28.65.69.65.37,0,.74-.21.82-.62.18-.95-1.65-.6-1.37-2.03.13-.68.71-1.24,1.61-1.24.42,0,.78.16.88.29-.11.19-.2.39-.3.59h-.09Z"/><g><path class="cls-2" d="m24.51,59.94l-.22.85c-.59.31-1.29.42-1.96.42-2.11,0-3.71-1.3-3.71-3.33,0-2.58,1.78-3.75,3.93-3.75.65,0,1.44.17,2.02.48-.09.34-.15.67-.23,1.02h-.14c-.37-.53-1-.91-1.64-.91-1.64,0-2.3,1.57-2.3,3.02,0,1.69.83,2.87,2.35,2.87.61,0,1.32-.32,1.77-.74l.13.06Z"/><path class="cls-2" d="m29.23,60.22c0,.37.11.48.5.46v.23c-.24.11-.61.27-.89.27-.46,0-.82-.29-.98-.72-.26.45-.75.72-1.26.72-.81,0-1.41-.44-1.41-1.3,0-.94.57-1.22,1.81-1.51.25-.06.5-.12.72-.26.12-.11.15-.24.15-.39,0-.47-.48-.87-.94-.87-.63,0-1.15.43-1.21.61h-.07l-.13-.59c.46-.43,1.21-.66,1.83-.66.83,0,1.88.34,1.88,1.32v2.69Zm-1.36-1.72c-.25.11-.69.2-.98.42-.26.21-.32.5-.32.82,0,.37.12.79.54.79.6,0,.73-.58.75-1.08v-.96Z"/><path class="cls-2" d="m29.98,56.93c.03-.21.03-.4,0-.63h.73c.08-.53.21-1.12.51-1.64.48-.87,1.04-1.2,2.04-1.03-.07.41-.07.89-.04,1.25l-.13.05c-.25-.13-.58-.28-.87-.28-.17,0-.41,0-.54.13-.06.06-.12.11-.12.21,0,.27.31,1.02.43,1.3h1c-.03.24-.03.4,0,.63h-.93v4.16c-.23-.02-.45-.05-.68-.05s-.45.03-.68.05v-4.16h-.73Z"/><path class="cls-2" d="m16.42,68.48c-.14-.01-.28-.03-.42-.03s-.29.02-.43.03v-.56c-.13.38-.45.62-.88.62-.95,0-1.26-.79-1.26-1.61s.39-1.62,1.24-1.62c.38,0,.69.13.87.46v-2.17c.15.01.3.03.44.03s.3-.02.44-.03v4.88Zm-2.05-1.54c0,.37.04,1.18.56,1.18.55,0,.62-.84.62-1.24,0-.37-.06-1.15-.57-1.15-.55,0-.61.82-.61,1.22Z"/><path class="cls-2" d="m17.98,66.93c-.02.66.21,1.2.89,1.2.26,0,.55-.12.75-.29l.08.06-.14.36c-.26.18-.6.29-.92.29-1.07,0-1.61-.64-1.61-1.69,0-.9.54-1.54,1.47-1.54,1.01,0,1.39.7,1.32,1.62h-1.84Zm.95-.31c0-.34-.04-1.02-.42-1.02-.47,0-.51.68-.53,1.02h.95Z"/><path class="cls-2" d="m23.27,67.99c.56,0,1.03-.04,1.47-.09-.01.09-.03.19-.03.28s.02.19.03.28h-2.44v-4.37c.16.01.32.03.48.03s.32-.02.48-.03v3.91h0Z"/><path class="cls-2" d="m25.22,66.99c0-1.01.58-1.68,1.57-1.68s1.58.59,1.58,1.54-.58,1.69-1.59,1.69c-.95,0-1.56-.6-1.56-1.55Zm.95-.02c0,.41.05,1.28.61,1.28.49-.01.64-.8.64-1.5,0-.62-.16-1.15-.59-1.15-.52,0-.65.62-.65,1.37Z"/><path class="cls-2" d="m29.47,63.69c.28,0,.51.23.51.51s-.24.51-.51.51-.5-.24-.5-.51c0-.27.22-.51.5-.51Zm-.44,1.68c.15.01.3.03.44.03s.3-.02.44-.03v3.12c-.15-.01-.3-.03-.44-.03s-.3.02-.44.03v-3.12Z"/><path class="cls-2" d="m30.79,65.37c.15.01.3.03.44.03s.3-.02.44-.03v.8c.13-.47.42-.85,1.05-.85-.03.3-.05.6-.03.87l-.06.05c-.08-.06-.22-.08-.33-.08-.28,0-.51.15-.59.42-.06.19-.04.54-.04.75v1.16c-.15-.01-.3-.03-.44-.03s-.3.02-.44.03c0,0,0-3.11,0-3.11Z"/><path class="cls-2" d="m33.96,66.93c-.02.66.21,1.2.89,1.2.26,0,.55-.12.75-.29l.08.06-.14.36c-.26.18-.6.29-.92.29-1.07,0-1.61-.64-1.61-1.69,0-.9.54-1.54,1.47-1.54,1.01,0,1.39.7,1.32,1.62h-1.84Zm.95-.31c0-.34-.04-1.02-.42-1.02-.47,0-.51.68-.53,1.02h.95Z"/><path class="cls-2" d="m36.26,66.67h1.61v.69h-1.61v-.69Z"/><path class="cls-2" d="m12.19,74.55c-.17.49-.33.88-.45,1.33-.1,0-.2-.02-.3-.02s-.21.01-.31.02l1.84-4.45c.08.01.16.02.24.02.08,0,.16,0,.24-.02l1.79,4.47c-.19-.01-.37-.03-.55-.03s-.37.02-.55.03c-.15-.47-.28-.91-.45-1.34h-1.5Zm1.35-.39l-.57-1.5-.6,1.5h1.18Z"/><path class="cls-2" d="m16.76,75.02c0,.44.02.68.6.53v.25c-.24.09-.47.15-.67.15-.67,0-.82-.44-.82-1.04v-1.72h-.43c.02-.15.02-.26,0-.41h.43v-.73c.29-.11.58-.25.88-.4v1.12h.54c-.02.15-.02.26,0,.41h-.54v1.83Z"/><path class="cls-2" d="m18.81,75.89c-.15-.01-.3-.03-.44-.03s-.3.02-.44.03v-4.88c.15.01.3.03.44.03s.3-.02.44-.03v4.88Z"/><path class="cls-2" d="m22.04,75.32c0,.24.07.32.33.3v.15c-.15.07-.4.17-.58.17-.3,0-.53-.19-.64-.47-.17.3-.49.47-.82.47-.53,0-.92-.29-.92-.85,0-.61.37-.79,1.18-.98.16-.04.33-.08.47-.17.08-.07.1-.15.1-.25,0-.31-.32-.56-.61-.56-.41,0-.75.28-.79.4h-.04l-.08-.39c.3-.28.79-.43,1.19-.43.54,0,1.22.22,1.22.86v1.75h0Zm-.88-1.12c-.16.07-.45.13-.64.28-.17.13-.21.33-.21.53,0,.24.08.51.35.51.39,0,.47-.38.49-.7v-.62h0Z"/><path class="cls-2" d="m22.82,72.77c.14.01.28.03.43.03s.28-.02.42-.03v.47c.26-.3.59-.53.99-.53.81,0,1.01.52,1.01,1.29v1.88c-.15-.01-.3-.03-.44-.03s-.3.02-.44.03v-1.6c0-.6-.08-1.03-.53-1.03-.56,0-.56.75-.56,1.16v1.48c-.15-.01-.3-.03-.44-.03s-.3.02-.44.03v-3.11h0Z"/><path class="cls-2" d="m27.46,75.02c0,.44.02.68.6.53v.25c-.24.09-.47.15-.67.15-.67,0-.82-.44-.82-1.04v-1.72h-.43c.02-.15.02-.26,0-.41h.43v-.73c.29-.11.58-.25.88-.4v1.12h.54c-.02.15-.02.26,0,.41h-.54v1.83Z"/><path class="cls-2" d="m29.06,71.1c.28,0,.51.23.51.51s-.24.51-.51.51-.5-.24-.5-.51.22-.51.5-.51Zm-.43,1.68c.15.01.3.03.44.03s.3-.02.44-.03v3.12c-.15-.01-.3-.03-.44-.03s-.3.02-.44.03v-3.12Z"/><path class="cls-2" d="m32.34,72.77c.14.01.28.03.43.03s.28-.02.42-.03v4.75c-.15-.01-.3-.03-.44-.03s-.3.02-.44.03v-2.04c-.14.23-.41.46-.83.46-.79,0-1.28-.63-1.28-1.58s.37-1.65,1.22-1.65c.47,0,.75.21.92.62v-.57h0Zm-1.17,1.97c.02.31.2.79.57.79.53,0,.58-.75.58-1.14s-.05-1.26-.62-1.26c-.52,0-.56.79-.56,1.16,0,.15,0,.3.02.45Z"/><path class="cls-2" d="m36.72,75.89c-.14-.01-.28-.03-.42-.03s-.29.02-.43.03v-.47c-.3.32-.53.53-.98.53-.33,0-.67-.12-.86-.4-.2-.28-.17-.68-.17-1v-1.78c.15.01.3.03.44.03s.3-.02.44-.03v1.77c0,.15,0,.4.07.53.08.2.23.34.45.34.56,0,.56-.56.56-.96v-1.67c.15.01.3.03.44.03s.3-.02.44-.03v3.11Z"/><path class="cls-2" d="m38.28,74.34c-.02.66.21,1.2.89,1.2.26,0,.55-.12.75-.29l.08.06-.14.36c-.26.18-.6.29-.92.29-1.07,0-1.61-.64-1.61-1.69,0-.9.54-1.54,1.47-1.54,1.01,0,1.39.7,1.32,1.62h-1.84Zm.95-.31c0-.34-.04-1.02-.42-1.02-.47,0-.51.68-.53,1.02h.95Z"/></g></g><g id="logo-loire-atlantique-rvb"><path id="Tracé_695" class="cls-1" d="m105.6,28.58c-.41-.25-.89-.34-1.38-.34-.65,0-1.3.25-1.79.84-.49.5-.73,1.17-.65,1.85v.34l3.82-2.69Z"/><path id="Tracé_696" class="cls-1" d="m146.2,44.27c-.41-.25-.89-.34-1.38-.34-.65,0-1.3.25-1.79.84-.49.5-.73,1.17-.65,1.85v.34l3.82-2.69Z"/><path id="Tracé_697" class="cls-1" d="m85.5,33.37c.65,0,1.3-.25,1.79-.67.49-.5.73-1.17.81-1.85,0-.67-.24-1.34-.81-1.85-.49-.5-1.14-.76-1.79-.84-1.38,0-2.52,1.17-2.44,2.6v.08c0,.67.24,1.34.65,1.85.49.42,1.06.67,1.79.67Z"/><path id="Tracé_698" class="cls-1" d="m125.69,43.85c-1.38,0-2.52,1.17-2.44,2.6v.08c0,.67.24,1.34.65,1.85.49.5,1.14.76,1.79.67.65,0,1.3-.25,1.79-.67.49-.5.73-1.17.81-1.85-.08-1.51-1.22-2.69-2.6-2.69Z"/><path id="Tracé_699" class="cls-1" d="m97.38,48.97c.65,0,1.3-.25,1.79-.67.49-.5.73-1.17.81-1.85,0-.67-.24-1.34-.81-1.85-.49-.5-1.14-.76-1.79-.84-1.38,0-2.52,1.17-2.44,2.6v.08c0,.67.24,1.34.65,1.85.49.42,1.14.67,1.79.67Z"/><path id="Tracé_700" class="cls-1" d="m128.13,55.43v-5.12c-.73.59-1.63.92-2.6.92-1.22,0-2.36-.5-3.17-1.43-1.79-1.85-1.79-4.87,0-6.71s4.72-1.85,6.51,0c.89.92,1.38,2.1,1.38,3.36v8.98h-.24c7.57.08,16.19.5,26.44,1.17v-28.02c-37.1-14.85-81.93-14.01-99.02-3.19l14.16,43.88c2.36-1.51,4.64-2.94,7-4.2h0c11.15-6.13,22.78-9.9,49.55-9.65Zm13.51-12.33c.89-.92,2.03-1.43,3.25-1.43.89,0,1.87.25,2.6.84.73.5,1.3,1.26,1.71,2.1l.08.25-5.61,3.86c.41.25.89.34,1.38.34.65,0,1.3-.25,1.79-.84.24-.25.41-.5.49-.84h2.28c-.24.84-.65,1.68-1.22,2.35-1.79,1.85-4.72,1.85-6.51,0-.89-.92-1.38-2.1-1.38-3.36-.16-1.26.24-2.43,1.14-3.27h0Zm-10.09-1.26h2.12v5.37c0,1.01.89,1.85,1.87,1.76.98,0,1.71-.84,1.71-1.76v-5.37h2.12v5.37c0,1.09-.49,2.1-1.22,2.77-1.46,1.51-3.91,1.51-5.45,0-.73-.76-1.14-1.76-1.14-2.77v-5.37h0Zm-43.61,2.1h-1.38v6.96h-2.12v-6.96h-1.38v-2.18h1.38v-3.02h2.12v3.02h1.38v2.18Zm3.58,7.05h-2.12v-12.25h2.12v12.25Zm26.04-12.25h2.12v2.18h-2.12v-2.18Zm0,3.1h2.12v9.15h-2.12v-9.15Zm-5.78,0h1.38v-3.02h2.12v3.02h1.38v2.18h-1.38v6.96h-2.12v-6.96h-1.38v-2.18Zm-.65,3.86v5.37h-2.12v-5.37c0-1.01-.89-1.85-1.87-1.76-.98,0-1.71.84-1.71,1.76v5.37h-2.12v-5.37c0-1.01.41-2.01,1.14-2.77,1.3-1.51,3.5-1.68,5.04-.42.16.08.24.25.41.42.73.59,1.3,1.68,1.22,2.77h0Zm-10.09-18.29c.89-.92,2.03-1.43,3.25-1.43.89,0,1.87.25,2.6.84.73.5,1.3,1.26,1.71,2.1l.08.25-5.61,3.86c.41.25.89.34,1.38.34.65,0,1.3-.25,1.79-.84.24-.25.41-.5.49-.84h2.28c-.24.84-.65,1.68-1.22,2.35-1.79,1.85-4.72,1.85-6.51,0-.89-.92-1.38-2.1-1.38-3.36-.24-1.17.24-2.43,1.14-3.27Zm-5.86,2.69c0-1.09.49-2.18,1.22-2.94.73-.76,1.79-1.17,2.85-1.17h.24v2.27h-.24c-.49,0-.98.17-1.38.59-.33.34-.57.76-.57,1.26v5.37h-2.12v-5.37h0Zm2.2,11.5c2.52,0,4.64,2.1,4.64,4.78h0v4.61h-2.12v-.67c-.73.59-1.63.92-2.6.92-1.22,0-2.36-.5-3.17-1.43-1.79-1.85-1.79-4.87,0-6.71.89-.92,2.03-1.43,3.25-1.51h0Zm-5.94-18.46h2.03v2.18h-2.12v-2.18h.08Zm0,3.02h2.03v9.15h-2.12v-9.15h.08Zm-9.28,1.26c1.79-1.85,4.72-1.85,6.51,0,.89.92,1.38,2.1,1.38,3.36,0,2.6-2.03,4.78-4.64,4.78s-4.64-2.1-4.64-4.78c.08-1.17.57-2.43,1.38-3.36Zm-8.54-4.28h2.28v9.98h4.88v2.35h-7.08v-12.33h-.08Zm1.63,27.86h-2.36l4.15-12.33h2.44l4.31,12.33h-2.36l-.65-2.1h-4.72l-.81,2.1Z"/><path id="Tracé_701" class="cls-1" d="m76.71,46.96h3.25l-1.55-4.61-1.71,4.61Z"/><path id="Tracé_702" class="cls-6" d="m78.59,65.17h77.78v-8.56c-44.99-2.77-60.78-.84-77.78,8.56Z"/><path id="Tracé_704" class="cls-6" d="m156.45,56.61h0c-10.25-.67-18.96-1.01-26.44-1.17h-1.79c-26.85-.25-38.48,3.52-49.63,9.73h0c17-9.4,32.79-11.33,77.86-8.56Z"/><path id="Tracé_705" class="cls-2" d="m85.5,35.55c2.52,0,4.64-2.1,4.64-4.78h0c0-2.6-2.03-4.78-4.64-4.78s-4.64,2.1-4.64,4.78c0,1.26.49,2.43,1.38,3.36.81,1.01,2.03,1.51,3.25,1.43Zm-1.87-6.63c.49-.5,1.14-.76,1.79-.84.65.08,1.3.34,1.79.84.49.5.73,1.17.81,1.85,0,1.43-1.14,2.6-2.52,2.52h-.08c-.65,0-1.3-.25-1.79-.67-.49-.5-.73-1.17-.65-1.85,0-.59.24-1.26.65-1.85Z"/><rect id="Rectangle_526" class="cls-2" x="91.44" y="26.15" width="2.12" height="9.15"/><path id="Tracé_706" class="cls-2" d="m97.3,30.09c0-.5.16-.92.57-1.26.33-.34.81-.59,1.38-.59h.24v-2.18h-.24c-1.06,0-2.03.42-2.85,1.17s-1.22,1.76-1.22,2.94v5.37h2.12v-5.45h0Z"/><path id="Tracé_707" class="cls-2" d="m86.56,38.74h-2.12v3.1h-1.38v2.1h1.38v7.05h2.12v-7.05h1.38v-2.1h-1.38v-3.1Z"/><rect id="Rectangle_527" class="cls-2" x="89.41" y="38.74" width="2.12" height="12.33"/><path id="Tracé_708" class="cls-2" d="m94.13,49.73c.81.92,1.95,1.43,3.17,1.43.98,0,1.87-.34,2.6-.92v.84h2.12v-4.61c0-2.6-2.03-4.78-4.64-4.78s-4.64,2.1-4.64,4.78c.08,1.17.57,2.43,1.38,3.27Zm1.63-5.12c.49-.5,1.14-.76,1.79-.84.65,0,1.3.25,1.79.84.49.5.73,1.17.81,1.85,0,1.43-1.14,2.6-2.52,2.52h-.08c-.65,0-1.3-.25-1.79-.67-.49-.5-.73-1.17-.65-1.85-.24-.67.08-1.43.65-1.85Z"/><path id="Tracé_709" class="cls-2" d="m104.54,42.93c-.73.76-1.14,1.76-1.14,2.77v5.37h2.12v-5.37c0-1.01.89-1.85,1.87-1.76.98,0,1.71.84,1.71,1.76v5.37h2.12v-5.37c0-1.09-.49-2.1-1.22-2.77-.73-.76-1.71-1.26-2.68-1.26-1.06-.08-2.12.42-2.77,1.26Z"/><path id="Tracé_710" class="cls-2" d="m113.16,50.99h2.12v-7.05h1.38v-2.1h-1.38v-3.1h-2.12v3.1h-1.38v2.1h1.38v7.05Z"/><rect id="Rectangle_528" class="cls-2" x="117.56" y="41.84" width="2.12" height="9.15"/><rect id="Rectangle_529" class="cls-2" x="117.56" y="38.74" width="2.12" height="2.18"/><path id="Tracé_711" class="cls-2" d="m130.25,46.37c0-2.6-2.03-4.78-4.64-4.78s-4.64,2.1-4.64,4.78c0,1.26.49,2.43,1.38,3.36.81.92,1.95,1.43,3.17,1.43.98,0,1.87-.34,2.6-.92v5.12h2.03v-8.98h.08Zm-2.93,1.85c-.49.5-1.14.76-1.79.67-.65,0-1.3-.25-1.79-.67-.49-.5-.73-1.17-.65-1.85,0-.67.24-1.34.65-1.85.49-.5,1.14-.76,1.79-.84.65,0,1.3.25,1.79.84.49.5.73,1.17.81,1.85,0,.76-.24,1.43-.81,1.85h0Z"/><path id="Tracé_713" class="cls-2" d="m135.46,51.15c1.06,0,2.03-.42,2.68-1.17.73-.76,1.22-1.76,1.22-2.77v-5.37h-2.12v5.37c0,1.01-.89,1.85-1.87,1.76-.98,0-1.71-.84-1.71-1.76v-5.37h-2.12v5.37c0,1.01.41,2.01,1.14,2.77.73.76,1.71,1.17,2.77,1.17Z"/><path id="Tracé_714" class="cls-2" d="m104.38,35.55c1.22,0,2.44-.5,3.25-1.43.57-.67.98-1.43,1.22-2.35h-2.28c-.08.34-.24.59-.49.84-.41.59-1.14.84-1.79.84-.49,0-.89-.08-1.38-.34l5.61-3.86-.08-.34c-.33-.84-.89-1.59-1.71-2.1-.73-.59-1.63-.84-2.6-.84-2.52,0-4.64,2.1-4.64,4.78h0c0,1.26.49,2.52,1.38,3.36,1.06,1.01,2.28,1.51,3.5,1.43Zm-1.79-6.63c.49-.5,1.14-.84,1.79-.84.49,0,.89.08,1.38.34l-3.74,2.52v-.34c-.16-.5.08-1.26.57-1.68Z"/><path id="Tracé_715" class="cls-2" d="m144.89,51.15c1.22,0,2.44-.5,3.25-1.43.57-.67.98-1.43,1.22-2.35h-2.28c-.08.34-.24.59-.49.84-.41.59-1.14.84-1.79.84-.49,0-.89-.08-1.38-.34l5.61-3.86-.08-.25c-.33-.84-.89-1.59-1.71-2.1-.73-.59-1.63-.84-2.6-.84-2.52,0-4.64,2.1-4.64,4.78,0,1.26.49,2.43,1.38,3.36,1.14.84,2.28,1.34,3.5,1.34Zm-1.79-6.54c.49-.5,1.14-.84,1.79-.84.49,0,.89.08,1.38.34l-3.74,2.52v-.34c-.08-.59.16-1.17.57-1.68Z"/><path id="Tracé_716" class="cls-2" d="m80.7,33.11h-4.96v-9.98h-2.12v12.33h7.08s0-2.35,0-2.35Z"/><path id="Tracé_717" class="cls-2" d="m81.43,50.99h2.36l-4.15-12.33h-2.44l-4.15,12.33h2.28l.65-2.1h4.72l.73,2.1Zm-4.72-4.03l1.71-4.61,1.71,4.61h-3.42Z"/><rect id="Rectangle_530" class="cls-2" x="91.44" y="23.13" width="2.12" height="2.18"/></g></svg>