<?xml version="1.0" encoding="utf-8"?>
<!-- Generator: Adobe Illustrator 25.1.0, SVG Export Plug-In . SVG Version: 6.00 Build 0)  -->
<svg version="1.1" id="Calque_1" xmlns="http://www.w3.org/2000/svg" xmlns:xlink="http://www.w3.org/1999/xlink" x="0px" y="0px"
	 viewBox="0 0 150.8 56.7" style="enable-background:new 0 0 150.8 56.7;" xml:space="preserve">
<style type="text/css">
	.st0{fill:#FFFFFF;}
	.st1{fill:none;}
</style>
<g>
	<g id="Calque_2_1_">
		<g id="Calque_1-2">
			<path class="st0" d="M50.2,16.7c0-4.6,3-8.1,7.6-8.1c1.5-0.1,3,0.4,4.2,1.2c1.4,1,2.2,2.6,2.4,4.3h-3.6c-0.2-1.5-1.6-2.6-3.1-2.5
				c-2.7,0-4,2.2-4,5.1s1.5,5.1,4,5.1c1.7,0.1,3.1-1.1,3.3-2.8h3.6c-0.1,1.5-0.8,2.9-1.9,4c-1.3,1.2-3.1,1.9-4.9,1.7
				C53.2,24.7,50.2,21.3,50.2,16.7"/>
			<path class="st0" d="M69,14.9L69,14.9c0.7-1.2,2-1.9,3.4-1.9c2.4,0,3.8,1.6,3.8,4.1v7.3H73v-6.7c0.1-1-0.6-1.9-1.6-2
				c-0.1,0-0.2,0-0.3,0c-1.2,0-2.2,1-2.2,2.2c0,0.1,0,0.1,0,0.2v6.2h-3.2V8.9H69v4.3C69,13.3,69,14.2,69,14.9"/>
			<path class="st0" d="M84.7,20.4V19c-0.6,0.3-1.3,0.5-1.9,0.6c-1.4,0.3-2.1,0.7-2.1,1.6c0,1,0.7,1.3,1.6,1.3
				c1.2,0.1,2.3-0.7,2.4-1.9C84.7,20.5,84.7,20.4,84.7,20.4 M81.3,8.5h3.2l2.3,3.1H84L83,10l0,0l-1,1.6h-2.9L81.3,8.5z M84.7,23
				L84.7,23c-0.7,1.1-2,1.7-3.3,1.6c-2.2,0-3.8-1.2-3.8-3.4c0-2.5,1.9-3.1,4.3-3.4c2-0.3,2.8-0.6,2.8-1.4s-0.6-1.3-1.7-1.3
				s-1.9,0.6-1.9,1.5H78c0.1-1.9,1.6-3.7,4.9-3.7c1.1-0.1,2.2,0.2,3.2,0.7c1.1,0.7,1.8,2,1.7,3.3v5.7c0,0.9,0.1,1.4,0.4,1.6v0.2H85
				C84.8,24,84.7,23.5,84.7,23"/>
			<path class="st0" d="M89,13.3h1.7V9.8h3.2v3.5H96v2.1h-2.1v5.5c0,0.8,0.5,1.1,1.2,1.1c0.2,0,0.5,0,0.8,0H96v2.4
				c-0.6,0.1-1.3,0.2-1.9,0.2c-2.1,0-3.5-0.7-3.5-2.9v-6.2H89V13.3z"/>
			<path class="st0" d="M100.1,17.8h4.7c-0.1-1.5-1-2.5-2.3-2.5C101,15.3,100.3,16.3,100.1,17.8 M96.8,18.9
				c-0.2-3.1,2.2-5.7,5.3-5.9c0.1,0,0.3,0,0.4,0c1.4,0,2.8,0.5,3.8,1.4c1.3,1.4,1.9,3.3,1.8,5.3H100c0.2,1.7,1.1,2.7,2.7,2.7
				c0.8,0.1,1.6-0.3,2-1.1h3.2c-0.6,2-2.4,3.5-5.2,3.5c-3.1,0.2-5.7-2.2-5.9-5.3C96.8,19.2,96.8,19,96.8,18.9"/>
			<path class="st0" d="M116.1,20.4V19c-0.6,0.3-1.3,0.5-1.9,0.6c-1.4,0.3-2.1,0.7-2.1,1.6c0,1,0.7,1.3,1.6,1.3
				c1.2,0.1,2.3-0.7,2.4-1.9C116.1,20.5,116.1,20.5,116.1,20.4 M116.1,23L116.1,23c-0.7,1.1-2,1.7-3.3,1.6c-2.2,0-3.8-1.2-3.8-3.4
				c0-2.5,1.9-3.1,4.3-3.4c2-0.3,2.8-0.6,2.8-1.4s-0.5-1.3-1.6-1.3s-1.9,0.6-1.9,1.5h-3c0.1-1.9,1.6-3.7,4.9-3.7
				c1.1-0.1,2.2,0.2,3.2,0.7c1.1,0.7,1.8,2,1.7,3.3v5.7c0,0.9,0.1,1.4,0.4,1.6v0.2h-3.2C116.4,24,116.2,23.5,116.1,23"/>
			<path class="st0" d="M128.3,24.4v-1.6h-0.1c-0.7,1.2-2,2-3.3,1.9c-2.5,0-3.9-1.6-3.9-4.1v-7.3h3.3V20c0,1.2,0.6,1.9,1.8,1.9
				c1.2,0,2.1-1,2.1-2.2c0-0.1,0-0.1,0-0.2v-6.3h3.2v11.1h-3.1V24.4z"/>
			<path class="st0" d="M58.7,42.4c0-2.5-1.5-4.5-3.3-4.5c-0.6,0-1.3,0.3-1.7,0.7c-0.8,0.8-1,1.9-1,4.3s0.4,3.6,1.4,4.3
				c0.4,0.3,0.8,0.4,1.3,0.4C57.4,47.5,58.8,45.5,58.7,42.4 M56.2,31.7c1.3,0,2.5,0,3.8-0.2h0.3h0.3v14.4c0,1,0.5,1.5,1.4,1.5h0.7
				v0.4h-2c-0.6,0-1.2,0.1-1.8,0.2h-0.2v-2.9c-0.3,0.8-1.3,2.9-3.6,2.9s-4.6-2.5-4.6-5.3s2.1-5.2,4.6-5.2c1.5,0,2.6,0.8,3.5,2.6
				v-6.5c0.1-0.7-0.5-1.4-1.2-1.4c-0.1,0-0.1,0-0.2,0h-1.1L56.2,31.7L56.2,31.7z"/>
			<path class="st0" d="M70.2,41.9c0.5,0,0.7-0.2,0.7-0.8c0-2-1-3.3-2.6-3.3c-0.9,0.1-1.7,0.7-2,1.6c-0.3,0.8-0.5,1.6-0.4,2.5H70.2z
				 M73,44c-0.1,0.6-0.3,1.2-0.7,1.8c-0.8,1.4-2.2,2.2-3.8,2.3c-2.7,0-4.8-2.4-4.8-5.4c0-2.9,2-5.2,4.5-5.2s4.4,2,4.6,4.9h-7.1
				c0,1.6,0,5.2,3,5.2c1.9,0,3.3-1.4,3.8-3.6H73z"/>
			<path class="st0" d="M92.5,41.9c0,1-0.2,1.9-0.6,2.8c-0.9,2.1-2.9,3.4-5.1,3.6c-3.9,0-7.2-3.8-7.2-8.3c0-5.5,3.9-8.6,6.7-8.6
				c1.8,0,3.5,1.1,4.4,2.7c0.6-0.8,1.1-1.7,1.4-2.7h0.4l0.1,7.3h-0.3c-0.4-2.1-1.4-4-2.8-5.6c-0.7-0.8-1.8-1.3-2.9-1.3
				c-2.9,0-4.4,2.9-4.4,8.7c0,3.2,0.5,5,1.9,6.3c0.7,0.7,1.7,1.2,2.7,1.2c2.2-0.1,4.1-1.4,5-3.4c0.3-0.8,0.5-1.7,0.6-2.6L92.5,41.9z
				"/>
			<path class="st0" d="M95.8,33.6c0-0.9-0.3-1.3-1-1.3H94v-0.4c0.8,0,1.7-0.1,2-0.1l1.2-0.1h0.6c0,4.2,0,7,0,9c0,6.5,0,6.3,0.3,6.6
				c0.2,0.2,0.5,0.2,0.7,0.2h0.8v0.4H94v-0.3h0.8c0.7,0,1-0.3,1-1.2V33.6z"/>
			<path class="st0" d="M102.1,33.1c0-0.6,0.5-1.2,1.2-1.2c0.6,0,1.2,0.5,1.2,1.2s-0.5,1.2-1.2,1.2l0,0
				C102.6,34.3,102.1,33.7,102.1,33.1 M104.2,37.6c0,1.6,0,3.3,0,4.9c0,4,0,4.2,0.1,4.5c0.1,0.2,0.2,0.5,0.9,0.5h0.8v0.4h-5.3v-0.3
				h0.8c0.7,0,1-0.3,1-1.2v-7c0-0.6-0.4-1-0.9-1.1c-0.1,0-0.2,0-0.3,0h-0.7v-0.4c0.9,0,1.7,0,2.1-0.1l1.3-0.2L104.2,37.6z"/>
			<path class="st0" d="M108.2,43.5c0.2,1.1,0.7,2.2,1.5,3c0.7,0.7,1.7,1.1,2.7,1.1c1.1,0.1,2-0.7,2.2-1.8c0-1.1-0.7-1.7-3-2.4
				c-1.1-0.2-2.1-0.8-3-1.5c-0.5-0.5-0.7-1.1-0.7-1.8c0-1.5,1.2-2.8,2.7-2.8l0,0c1.1,0,1.7,0.3,2.9,1.3c0.4-0.3,0.7-0.7,0.8-1.2h0.4
				v4h-0.3c-0.1-1-0.5-1.9-1.2-2.6c-0.6-0.7-1.5-1.1-2.4-1.1c-1-0.1-2,0.7-2.1,1.7c0,0,0,0,0,0.1c0,1.2,1.5,1.7,2.8,2
				c2.4,0.7,3.9,1.5,3.9,3.5c0,1.7-1.3,3-3,3c-0.1,0-0.1,0-0.2,0c-1.2,0-2.3-0.5-3.1-1.5c-0.4,0.5-0.7,1-0.9,1.5h-0.3v-4.5H108.2z"
				/>
			<path class="st0" d="M117.6,43.5c0.2,1.1,0.7,2.2,1.5,3c0.7,0.7,1.7,1.1,2.7,1.1c1.1,0.1,2.1-0.7,2.2-1.7c0-1.1-0.7-1.7-3-2.4
				c-1.1-0.2-2.1-0.8-3-1.5c-0.5-0.5-0.7-1.1-0.7-1.8c0-1.5,1.2-2.8,2.7-2.8c1.1,0,1.6,0.3,2.9,1.3c0.4-0.3,0.7-0.7,0.8-1.2h0.4v4
				h-0.3c-0.1-1-0.5-1.9-1.2-2.6c-0.6-0.7-1.5-1.1-2.4-1.1c-1-0.1-1.9,0.7-2,1.7l0,0c0,1.2,1.5,1.7,2.8,2c2.4,0.7,3.9,1.5,3.9,3.5
				c0,1.7-1.3,3-3,3c-0.1,0-0.2,0-0.2,0c-1.2,0-2.3-0.5-3.1-1.5c-0.4,0.5-0.7,1-0.9,1.5h-0.3v-4.5H117.6z"/>
			<path class="st0" d="M134.8,42.6c0-3.2-1-4.8-3-4.8s-3.1,1.5-3.1,5c0,3.2,1,4.8,3,4.8C133.9,47.6,134.8,46.2,134.8,42.6
				 M126.7,42.8c0-2.8,2.2-5.2,5-5.3c2.9,0,5.2,2.4,5.2,5.2c0,0,0,0,0,0.1c0,2.8-2.3,5.1-5.1,5.1C129,47.8,126.7,45.5,126.7,42.8
				C126.7,42.7,126.7,42.7,126.7,42.8"/>
			<path class="st0" d="M142.2,40.6c0.4-1.7,1.9-2.9,3.6-3.1c0.8,0,1.5,0.3,2.1,0.8c0.8,0.9,1.1,2.1,1.1,3.2v4.7
				c0,0.8,0.3,1.2,1,1.2h0.8v0.4h-5.3v-0.3h0.8c0.7,0,1-0.3,1-1.2V41c0-2-0.5-2.9-1.8-2.9c-1.9,0-3.3,2.1-3.3,5.1v3.1
				c0,0.8,0.2,1.2,1,1.2h0.8v0.4h-5.3v-0.3h0.8c0.7,0,0.9-0.3,0.9-1.2v-7c0-0.7-0.4-1-1.2-1h-0.6V38h0.8c0.2,0,1.4-0.1,1.7-0.1
				l0.7-0.1h0.5L142.2,40.6z"/>
			<rect x="14.1" y="8.9" class="st0" width="10.8" height="5.9"/>
			<rect x="14.1" y="42" class="st0" width="10.8" height="6"/>
			<rect y="23" class="st0" width="5.9" height="10.8"/>
			<rect x="33.1" y="23" class="st0" width="6" height="10.8"/>
			<rect x="2.3" y="13.5" transform="matrix(0.7072 -0.707 0.707 0.7072 -9.4428 10.1977)" class="st0" width="10.5" height="6"/>
			
				<rect x="28.5" y="11.2" transform="matrix(0.7067 -0.7075 0.7075 0.7067 -2.3976 27.1113)" class="st0" width="6" height="10.5"/>
			
				<rect x="4.6" y="35.1" transform="matrix(0.707 -0.7072 0.7072 0.707 -26.3366 17.1581)" class="st0" width="5.9" height="10.5"/>
			
				<rect x="26.2" y="37.4" transform="matrix(0.7075 -0.7067 0.7067 0.7075 -19.3583 34.0788)" class="st0" width="10.5" height="6"/>
		</g>
	</g>
	<rect class="st1" width="150.8" height="56.7"/>
</g>
</svg>
