<?xml version="1.0" encoding="utf-8"?>
<!-- Generator: Adobe Illustrator 25.1.0, SVG Export Plug-In . SVG Version: 6.00 Build 0)  -->
<svg version="1.1" id="Calque_1" xmlns="http://www.w3.org/2000/svg" xmlns:xlink="http://www.w3.org/1999/xlink" x="0px" y="0px"
	 viewBox="0 0 253.8 56.7" style="enable-background:new 0 0 253.8 56.7;" xml:space="preserve">
<style type="text/css">
	.st0{fill:#FFFFFF;}
	.st1{fill:none;}
</style>
<g>
	<g id="Calque_2_1_">
		<g id="Calque_1-2">
			<path class="st0" d="M54.4,16.4h3c1.1,0.1,2.2-0.7,2.3-1.8c0-0.1,0-0.3,0-0.4c0.1-1.1-0.8-2.1-1.9-2.1c-0.1,0-0.3,0-0.4,0h-3
				L54.4,16.4z M50.8,9.1h6.9c1.5-0.1,3,0.4,4.1,1.4c1,1,1.5,2.3,1.5,3.7c0,2.9-2,5-5.2,5h-3.7v5.4h-3.6V9.1z"/>
			<path class="st0" d="M72.3,19.1c0-2.1-0.9-3.5-2.5-3.5s-2.5,1.4-2.5,3.5s0.9,3.5,2.5,3.5S72.3,21.2,72.3,19.1 M68.2,8.7h3.2
				l2.3,3.1h-2.8l-1-1.6l0,0l-1,1.6H66L68.2,8.7z M64,19.1c0-3.2,2.6-5.9,5.8-5.9c3.2,0,5.9,2.6,5.9,5.8l0,0c0,3.2-2.6,5.9-5.8,5.9
				S64,22.3,64,19.1"/>
			<rect x="76.9" y="9.1" class="st0" width="3.3" height="15.5"/>
			<path class="st0" d="M84.7,18h4.7c-0.1-1.5-1-2.5-2.3-2.5C85.7,15.5,84.9,16.5,84.7,18 M81.5,19.1c-0.2-3.1,2.2-5.7,5.3-5.9
				c0.1,0,0.3,0,0.4,0c1.4,0,2.8,0.5,3.8,1.4c1.3,1.4,1.9,3.3,1.8,5.3h-8.1c0.2,1.7,1.1,2.7,2.7,2.7c0.8,0.1,1.6-0.3,2-1.1h3.2
				c-0.6,2-2.4,3.5-5.2,3.5c-3.1,0.2-5.7-2.2-5.9-5.3C81.5,19.5,81.5,19.3,81.5,19.1"/>
			<path class="st0" d="M103.2,19.1h4l-0.9-2.9c-0.4-1.4-0.8-2.7-1-4.1l0,0c0,0-0.5,2.6-1,4.1L103.2,19.1z M103.4,9.1h3.7l5.6,15.5
				h-3.8l-1-3h-5.6l-1,3h-3.5L103.4,9.1z"/>
			<path class="st0" d="M116.8,15.5L116.8,15.5c0.5-1.3,1.8-2.2,3.1-2.2c0.2,0,0.5,0,0.7,0.1v2.9h-0.1c-0.2,0-0.5-0.1-0.7-0.1
				c-1.8,0-2.9,1.1-2.9,3.2v5.1h-3.3v-11h3.2C116.8,13.5,116.8,15.5,116.8,15.5z"/>
			<path class="st0" d="M121.2,19.1c-0.2-3.1,2.2-5.7,5.3-5.9c0.2,0,0.3,0,0.5,0c3,0,4.8,1.7,5.2,4.1H129c-0.1-1-1-1.7-2-1.7
				c-1.7,0-2.5,1.4-2.5,3.4s0.9,3.4,2.5,3.4c1.1,0,2-0.8,2.1-1.9v-0.1h3.1c-0.1,2.5-2.1,4.5-5.2,4.5c-3.1,0.1-5.7-2.3-5.8-5.4
				C121.2,19.4,121.2,19.3,121.2,19.1"/>
			<path class="st0" d="M136.6,15.1L136.6,15.1c0.7-1.2,2-1.9,3.4-1.9c2.4,0,3.9,1.6,3.9,4.1v7.3h-3.2v-6.7c0.1-1-0.6-1.9-1.5-2
				c-0.1,0-0.2,0-0.3,0c-1.2,0-2.2,1-2.1,2.3c0,0.1,0,0.1,0,0.2v6.2h-3.3V9.1h3.3v4.3C136.6,13.5,136.6,14.4,136.6,15.1"/>
			<path class="st0" d="M150.6,8.5h3.8l-2.5,3.4h-2.4L150.6,8.5z M148.3,18h4.7c-0.1-1.5-1-2.5-2.3-2.5
				C149.2,15.5,148.5,16.5,148.3,18 M145,19.1c-0.2-3.1,2.2-5.7,5.3-5.9c0.1,0,0.3,0,0.4,0c1.4,0,2.8,0.5,3.8,1.4
				c1.3,1.4,1.9,3.3,1.8,5.3h-8.1c0.2,1.7,1.1,2.7,2.7,2.7c0.9,0.1,1.7-0.3,2.1-1.1h3.2c-0.6,2-2.4,3.5-5.2,3.5
				c-3.1,0.2-5.7-2.1-5.9-5.2C145,19.5,145,19.3,145,19.1"/>
			<path class="st0" d="M165.4,19.1c0-2.1-0.9-3.5-2.5-3.5s-2.5,1.4-2.5,3.5s0.9,3.5,2.5,3.5S165.4,21.2,165.4,19.1 M157.1,19.1
				c0-3.2,2.6-5.9,5.8-5.9s5.9,2.6,5.9,5.8l0,0c0,3.2-2.6,5.9-5.8,5.9S157.1,22.3,157.1,19.1L157.1,19.1"/>
			<rect x="170.1" y="9.1" class="st0" width="3.3" height="15.5"/>
			<path class="st0" d="M183,19.1c0-2.1-0.9-3.5-2.5-3.5S178,17,178,19.1s0.9,3.5,2.5,3.5S183,21.2,183,19.1 M174.6,19.1
				c0-3.2,2.6-5.9,5.8-5.9s5.9,2.6,5.9,5.8l0,0c0,3.2-2.6,5.9-5.8,5.9S174.6,22.3,174.6,19.1L174.6,19.1"/>
			<path class="st0" d="M195.1,18.6c0-1.6-0.8-2.9-2.4-2.9c-1.4,0-2.3,1.1-2.3,2.9s0.9,2.9,2.4,2.9
				C194.4,21.5,195.1,20.2,195.1,18.6 M187.4,25h3.2c0.2,0.7,0.8,1.1,2.1,1.1c1.5,0,2.3-0.8,2.3-2.1v-0.2c0-0.6,0-1.1,0.1-1.5l0,0
				c-0.6,1.1-1.8,1.7-3,1.6c-2.6,0-4.8-1.9-4.8-5.2s1.9-5.5,4.7-5.5c1.3-0.1,2.6,0.6,3.2,1.7l0,0v-1.4h3.1v10.1
				c0.1,1.4-0.4,2.7-1.4,3.6c-1.1,0.9-2.6,1.3-4,1.2C189.7,28.4,187.7,27.2,187.4,25"/>
			<path class="st0" d="M200,13.5h3.3v11.1H200V13.5z M200,9.1h3.3V12H200V9.1z"/>
			<path class="st0" d="M207.7,18h4.7c-0.1-1.5-1-2.5-2.3-2.5C208.6,15.5,207.9,16.5,207.7,18 M204.5,19.1c-0.2-3.1,2.2-5.7,5.3-5.9
				c0.1,0,0.3,0,0.4,0c1.4-0.1,2.8,0.5,3.9,1.4c1.3,1.4,1.9,3.3,1.8,5.3h-8.1c0.2,1.7,1.1,2.7,2.7,2.7c0.8,0.1,1.6-0.3,2-1.1h3.2
				c-0.6,2-2.4,3.5-5.2,3.5c-3.1,0.2-5.7-2.2-5.9-5.3C204.5,19.5,204.5,19.3,204.5,19.1"/>
			<path class="st0" d="M58.8,42.7c0-2.5-1.5-4.5-3.3-4.5c-0.6,0-1.3,0.3-1.7,0.7c-0.8,0.8-1,1.9-1,4.3s0.4,3.6,1.4,4.3
				c0.4,0.3,0.8,0.4,1.3,0.4C57.4,47.8,58.8,45.7,58.8,42.7 M56.2,32c1.3,0,2.5,0,3.8-0.2h0.3h0.3v14.4c0,1,0.5,1.5,1.4,1.5h0.7V48
				h-2c-0.6,0-1.2,0.1-1.8,0.2h-0.2v-2.9c-0.3,0.8-1.3,2.9-3.6,2.9s-4.6-2.5-4.6-5.3s2.1-5.2,4.6-5.2c1.5,0,2.6,0.8,3.5,2.6v-6.5
				c0.1-0.7-0.5-1.4-1.2-1.4c-0.1,0-0.1,0-0.2,0h-1.1L56.2,32L56.2,32z"/>
			<path class="st0" d="M70.2,42.1c0.5,0,0.7-0.2,0.7-0.8c0-2-1-3.3-2.6-3.3c-0.9,0.1-1.7,0.7-2,1.6c-0.3,0.8-0.5,1.6-0.4,2.5H70.2z
				 M73,44.2c-0.1,0.6-0.3,1.2-0.7,1.8c-0.8,1.4-2.2,2.2-3.8,2.3c-2.7,0-4.8-2.4-4.8-5.4c0-2.9,2-5.2,4.5-5.2s4.4,2,4.6,4.9h-7.1
				c0,1.6,0,5.2,3,5.2c1.9,0,3.3-1.4,3.8-3.6H73z"/>
			<path class="st0" d="M79.7,47.7h2c0.8,0,1.1-0.4,1.2-1.4V33.7c0-0.9-0.4-1.4-1.2-1.4h-2V32h8.4v0.4h-1.6c-0.8,0-1.2,0.5-1.2,1.4
				v12.7c0,0.8,0.3,1.2,1,1.2H88c2.7,0,5.1-2.4,5.8-5.9h0.3L94,48H79.7V47.7z"/>
			<path class="st0" d="M104.1,42.9c0-3.2-1-4.8-3-4.8c-2.2,0-3.1,1.5-3.1,5c0,3.2,1,4.8,3,4.8C103.1,47.9,104.1,46.4,104.1,42.9
				 M95.9,43c0-2.8,2.2-5.2,5-5.3c2.9,0,5.2,2.3,5.2,5.2V43c0,2.8-2.2,5.1-5,5.1C98.3,48.1,96,45.8,95.9,43"/>
			<path class="st0" d="M109.1,33.3c0-0.6,0.5-1.2,1.2-1.2s1.2,0.5,1.2,1.2c0,0.6-0.5,1.2-1.2,1.2l0,0
				C109.6,34.5,109.1,34,109.1,33.3 M111.2,37.8c0,1.6,0,3.3,0,4.9c0,4,0,4.2,0.1,4.5c0.1,0.2,0.2,0.5,0.9,0.5h0.8v0.4h-5.3v-0.4
				h0.8c0.7,0,0.9-0.3,0.9-1.2v-7c0-0.7-0.4-1.1-1.2-1.1h-0.7V38c0.9,0,1.7,0,2.1-0.1l1.3-0.2L111.2,37.8L111.2,37.8z"/>
			<path class="st0" d="M116.7,39.5c0-0.7-0.4-1.1-1.2-1.1h-0.7V38c0.9,0,1.7,0,2.1-0.1l1.3-0.2h0.3v2.7c0.6-1.4,1.2-2.8,2.8-2.8
				c1-0.1,1.9,0.7,1.9,1.7c0,0.1,0,0.1,0,0.2c0.1,0.6-0.4,1.2-1,1.3c-0.6,0-1-0.4-1-1v-0.1c0-0.4,0.2-0.8,0.6-1
				c0.2-0.2,0.3-0.3,0.3-0.4s-0.2-0.4-0.7-0.4s-1,0.2-1.3,0.5c-1.4,1.3-1.4,3.3-1.5,4.8v3c0,0.9,0.2,1.2,1,1.2h0.8V48h-5.3v-0.4h0.8
				c0.7,0,1-0.3,1-1.2L116.7,39.5z"/>
			<path class="st0" d="M130.4,42.1c0.5,0,0.7-0.2,0.7-0.8c0-2-1-3.3-2.5-3.3c-0.9,0-1.7,0.7-2,1.6c-0.3,0.8-0.5,1.6-0.4,2.5H130.4z
				 M133.3,44.2c-0.1,0.6-0.3,1.2-0.7,1.8c-0.8,1.4-2.2,2.2-3.8,2.3c-2.7,0-4.8-2.4-4.8-5.4c0-2.9,2-5.2,4.5-5.2s4.4,2,4.6,4.9H126
				c0,1.6-0.1,5.2,2.9,5.2c1.9,0,3.4-1.4,3.9-3.6H133.3z"/>
			<rect x="135.3" y="42.4" class="st0" width="5.1" height="1"/>
			<path class="st0" d="M149.9,34.3l-2.9,7.8h5.5L149.9,34.3z M142.3,47.7c2.3,0,2.9-1.7,3.5-3.4l4.7-12.6h0.9l4.7,13.8
				c0.7,1.9,0.9,2.1,2.1,2.1h0.4V48h-7.4v-0.4h2c0.6,0,0.9-0.2,0.9-0.7c0-0.2,0-0.5-0.1-0.7l-1.2-3.6h-6l-0.2,0.4
				c-0.4,0.9-0.6,1.8-0.7,2.7c0,1.2,1,1.9,2.6,1.9h0.6V48h-6.8V47.7z"/>
			<path class="st0" d="M159.6,38.3c2.4-0.8,3.1-2.7,3.4-4.9h0.5v4.7h3.3v0.7h-3.3v7.1c0,1,0.6,1.7,1.4,1.7c1.6,0,2.4-1.6,2.4-4.9
				h0.3c0,2.6-0.3,3.9-1.2,4.7c-0.6,0.5-1.3,0.8-2.1,0.8c-1.4,0.1-2.6-0.9-2.7-2.3c0-0.2,0-0.4,0-0.6v-6.6h-2.1L159.6,38.3z"/>
			<path class="st0" d="M171,33.8c0-0.9-0.3-1.3-1-1.3h-1v-0.4c0.8,0,1.7-0.1,2-0.1l1.2-0.1h0.6c0,4.2,0,7.1,0,9
				c0,6.5,0,6.3,0.3,6.6c0.2,0.2,0.5,0.2,0.7,0.2h0.8v0.4h-5.3v-0.4h0.8c0.7,0,1-0.3,1-1.2V33.8H171z"/>
			<path class="st0" d="M182.7,42.4c-0.5,0.2-0.9,0.4-1.4,0.5c-1.1,0.3-2.9,0.8-2.9,2.8c0,1.2,0.7,2,1.6,2c1.5,0,2.7-1.6,2.7-3.4
				L182.7,42.4L182.7,42.4z M187,43.7c0,3-0.8,4.5-2.3,4.5c-1,0-1.6-0.8-1.9-2.5c-0.8,1.8-1.8,2.5-3.4,2.5c-1.5,0.1-2.9-1.1-3-2.6
				c0-0.6,0.3-1.2,0.7-1.7c0.9-0.7,2-1.2,3.1-1.3c0.8-0.2,1.6-0.4,2.3-0.7v-1.7c0-1.3-0.8-2-2.3-2c-1,0-2.1,0.5-2.1,1
				c0,0.2,0.1,0.3,0.4,0.4c0.6,0.3,0.7,0.6,0.7,1c0,0.6-0.4,1-0.9,1c0,0,0,0-0.1,0c-0.7-0.1-1.2-0.7-1.2-1.4c0-1.5,1.6-2.7,3.7-2.7
				c2.4,0,3.6,1.1,3.6,3.2v4.6c0,1.2,0.3,1.9,0.9,1.9c0.8,0,1.2-0.9,1.3-3.2l0.1-0.5L187,43.7z"/>
			<path class="st0" d="M191.8,40.8c0.5-1.7,1.9-2.9,3.6-3c0.8,0,1.6,0.3,2.1,0.8c0.8,0.9,1.1,2.1,1.1,3.2v4.7c0,0.9,0.3,1.2,1,1.2
				h0.8V48h-5.3v-0.4h0.8c0.7,0,1-0.3,1-1.2v-5.3c0-2-0.6-2.9-1.8-2.9c-1.9,0-3.3,2.1-3.3,5.1v3.1c0,0.9,0.2,1.2,0.9,1.2h0.8V48
				h-5.3v-0.4h0.7c0.7,0,0.9-0.3,0.9-1.2v-7c0-0.7-0.4-1-1.2-1H188V38h0.8c0.2,0,1.4-0.1,1.7-0.1l0.7-0.1h0.5L191.8,40.8z"/>
			<path class="st0" d="M201.2,38.3c2.4-0.8,3.1-2.7,3.4-4.9h0.5v4.7h3.3v0.7h-3.3v7.1c0,1,0.6,1.7,1.4,1.7c1.6,0,2.4-1.6,2.4-4.9
				h0.3c0,2.6-0.3,3.9-1.2,4.7c-0.6,0.5-1.3,0.8-2.1,0.8c-1.4,0.1-2.6-0.9-2.7-2.3c0-0.2,0-0.4,0-0.6v-6.6h-2.1L201.2,38.3z"/>
			<path class="st0" d="M212.2,33.3c0-0.6,0.5-1.2,1.2-1.2c0.6,0,1.2,0.5,1.2,1.2c0,0.6-0.5,1.2-1.2,1.2l0,0
				C212.7,34.5,212.2,34,212.2,33.3 M214.3,37.8c0,1.6,0,3.3,0,4.9c0,4,0,4.2,0.1,4.5c0.1,0.2,0.2,0.5,0.9,0.5h0.7v0.4h-5.3v-0.4
				h0.8c0.7,0,0.9-0.3,0.9-1.2v-7c0-0.7-0.4-1.1-1.2-1.1h-0.7V38c0.9,0,1.7,0,2.1-0.1l1.3-0.2L214.3,37.8L214.3,37.8z"/>
			<path class="st0" d="M226.6,42.6c0-3-1.2-4.7-3.3-4.7c-0.7,0-1.3,0.3-1.8,0.7c-0.8,0.8-1.1,2-1.1,4.4c0,2.6,0.8,4.7,2.7,4.7
				C225.3,47.7,226.6,45.7,226.6,42.6 M228.3,37.6c0,4.2,0,7,0,8.9c0,6.4,0,6.2,0.3,6.5c0.2,0.2,0.5,0.2,0.7,0.2h0.7v0.3h-5.3v-0.3
				h0.8c0.7,0,0.9-0.3,0.9-1.2v-6.5c-0.8,1.8-2,2.7-3.6,2.7c-2.3,0-4.5-2.6-4.5-5.4s2.3-5.3,4.8-5.3c1.6,0,2.9,1,3.7,2.9
				c0.5-0.8,0.9-1.8,0.9-2.7L228.3,37.6z"/>
			<path class="st0" d="M230.8,38.1c0.9,0,1.8,0,2.6-0.2c0.2,0,0.4-0.1,0.6-0.1h0.6v7.8c0,1.3,0.6,2,1.5,2c1.7,0,3.2-2.3,3.2-5v-3.1
				c0-0.8-0.4-1.1-1.3-1.1h-1.2V38h1.4c0.7,0,1.3-0.1,2-0.2c0.1,0,0.2,0,0.2,0h0.6v8.6c0,0.9,0.4,1.3,1.3,1.3h0.5v0.4h-2.4h-0.5
				h-0.6v-2.9c-0.9,2-2.2,3-3.7,3c-1.6,0-2.9-1.3-2.8-2.9v-0.1v-5.8c0-0.5-0.5-1-1-1h-1L230.8,38.1L230.8,38.1z"/>
			<path class="st0" d="M251,42.1c0.5,0,0.7-0.2,0.7-0.8c0-2-1-3.3-2.6-3.3c-0.9,0-1.7,0.7-2,1.6c-0.3,0.8-0.5,1.6-0.4,2.5H251z
				 M253.9,44.2c-0.1,0.6-0.3,1.2-0.7,1.8c-0.8,1.4-2.2,2.2-3.8,2.3c-2.7,0-4.8-2.4-4.8-5.4c0-2.9,2-5.2,4.5-5.2s4.4,2,4.6,4.9h-7.1
				c0,1.6-0.1,5.2,2.9,5.2c1.9,0,3.4-1.4,3.9-3.6H253.9z"/>
			<rect x="16.7" y="31.4" class="st0" width="5.6" height="5.6"/>
			<rect y="42.6" class="st0" width="5.6" height="5.6"/>
			<rect x="11.2" y="42.6" class="st0" width="5.6" height="5.6"/>
			<rect x="22.3" y="42.6" class="st0" width="5.6" height="5.6"/>
			<rect x="33.5" y="42.6" class="st0" width="5.6" height="5.6"/>
			<rect y="9.1" class="st0" width="39.1" height="5.6"/>
			<rect y="20.3" class="st0" width="16.7" height="5.6"/>
			<rect x="22.3" y="20.3" class="st0" width="16.7" height="5.6"/>
			<rect y="31.4" class="st0" width="11.2" height="5.6"/>
			<rect x="27.9" y="31.4" class="st0" width="11.2" height="5.6"/>
		</g>
	</g>
	<rect class="st1" width="253.8" height="56.7"/>
</g>
</svg>
