<?xml version="1.0" encoding="utf-8"?>
<!-- Generator: Adobe Illustrator 28.3.0, SVG Export Plug-In . SVG Version: 6.00 Build 0)  -->
<svg version="1.1" id="Calque_1" xmlns="http://www.w3.org/2000/svg" xmlns:xlink="http://www.w3.org/1999/xlink" x="0px" y="0px"
	 viewBox="0 0 329.3 88.1" style="enable-background:new 0 0 329.3 88.1;" xml:space="preserve">
<style type="text/css">
	.st0{fill:#069FA0;stroke:#FFFFFF;}
	.st1{fill:#0A62AC;stroke:#FFFFFF;}
	.st2{fill:#BCCAE9;}
	.st3{fill:#FFFFFF;}
	.st4{fill:#014562;}
	.st5{fill:#AFCA0C;}
</style>
<g>
	<path class="st0" d="M0.5,87.6V28.7h53.9v58.8H0.5z"/>
	<path class="st1" d="M0.5,54.8V0.5h53.9v54.3H0.5z"/>
	<g>
		<path class="st2" d="M14.3,27.4c-0.5-0.4-2-1.2-2.3-1.5c-0.4-0.4-0.7-1.1-0.5-2H3.8v3.6L14.3,27.4L14.3,27.4z"/>
		<path class="st2" d="M24.3,25.9c-0.5,0.3-2.8,1.5-2.8,1.5h3.7c0-0.2,0.4-0.6,0.4-0.6C24.5,26.8,24.3,25.9,24.3,25.9z"/>
		<path class="st2" d="M31.3,25.9c0.3,0.2,2.4,1.5,2.4,1.5H30c0-0.2-0.2-0.6-0.2-0.6C30.9,26.9,31.3,25.9,31.3,25.9z"/>
		<path class="st2" d="M40.9,27.4c0,0,2.3-1.2,2.8-1.6c0.4-0.4,1.1-1.2,0.8-2h6.6v3.6L40.9,27.4L40.9,27.4z"/>
	</g>
	<g>
		<g>
			<path class="st3" d="M19.9,12.8c0.9,0,1.8-0.8,2-1.7c0.1-0.9-0.5-1.7-1.5-1.7s-1.8,0.8-2,1.7C18.3,12,19,12.8,19.9,12.8z"/>
			<path class="st3" d="M19.8,13.6l3.7-2.1c0.4-0.2,0.7-0.3,1-0.3c0.9,0,1.5,0.7,1.4,1.6c-0.1,0.6-0.4,1-0.9,1.3l-2.8,1.6
				c0,0-0.4,2.7-0.6,4.1c-0.1,0.4-0.6,0.6-1,0.5c-0.6-0.3-1.7-1-1.7-1s-1.3,0.7-2,1c-0.4,0.2-0.9,0-0.8-0.5c0.2-1.4,0.6-4.1,0.6-4.1
				l-2.4-1.6c-0.4-0.3-0.6-0.8-0.5-1.3c0.1-0.9,0.9-1.6,1.8-1.6c0.3,0,0.6,0.1,0.8,0.2L19.8,13.6L19.8,13.6z"/>
		</g>
		<g>
			<path class="st3" d="M30.4,7.1c0.9,0,1.8-0.8,2-1.7s-0.5-1.7-1.5-1.7s-1.8,0.8-2,1.7C28.8,6.4,29.5,7.1,30.4,7.1z"/>
			<path class="st3" d="M30.3,8L34,5.9c0.4-0.2,0.7-0.3,1-0.3c0.9,0,1.5,0.7,1.4,1.6c-0.1,0.6-0.4,1-0.9,1.3l-2.8,1.6
				c0,0-0.4,2.7-0.6,4.1c-0.1,0.4-0.6,0.6-1,0.5c-0.6-0.3-1.7-1.1-1.7-1.1s-1.3,0.7-2,1.1c-0.4,0.2-0.9-0.1-0.8-0.5
				c0.2-1.4,0.6-4.1,0.6-4.1l-2.4-1.6c-0.4-0.3-0.6-0.8-0.5-1.3c0.1-0.9,0.9-1.6,1.8-1.6c0.3,0,0.6,0.1,0.8,0.2L30.3,8L30.3,8z"/>
		</g>
		<g>
			<path class="st3" d="M39.3,12.8c0.9,0,1.8-0.8,2-1.7s-0.5-1.7-1.5-1.7s-1.8,0.8-2,1.7S38.4,12.8,39.3,12.8z"/>
			<path class="st3" d="M39.2,13.6l3.7-2.1c0.4-0.2,0.7-0.3,1-0.3c0.9,0,1.5,0.7,1.4,1.6c-0.1,0.6-0.4,1-0.9,1.3l-2.8,1.6
				c0,0-0.4,2.7-0.6,4.1c-0.1,0.4-0.6,0.6-1,0.5c-0.6-0.3-1.7-1-1.7-1s-1.3,0.7-2,1c-0.4,0.2-0.9,0-0.8-0.5c0.2-1.4,0.6-4.1,0.6-4.1
				l-2.4-1.6c-0.4-0.3-0.6-0.8-0.5-1.3c0.1-0.9,0.9-1.6,1.8-1.6c0.3,0,0.6,0.1,0.8,0.2L39.2,13.6L39.2,13.6z"/>
		</g>
		<g>
			<path class="st3" d="M37.7,24.1c0.9,0,1.8-0.8,2-1.7s-0.5-1.7-1.5-1.7s-1.8,0.8-2,1.7S36.7,24.1,37.7,24.1z"/>
			<path class="st3" d="M37.5,24.9l3.7-2.1c0.4-0.2,0.7-0.3,1-0.3c0.9,0,1.5,0.7,1.4,1.6c-0.1,0.5-0.4,1-0.9,1.3L40,27.1
				c0,0-0.4,2.7-0.6,4.1c-0.1,0.4-0.6,0.6-1,0.5c-0.6-0.3-1.7-1-1.7-1s-1.3,0.7-2,1c-0.4,0.2-0.9,0-0.8-0.5c0.2-1.4,0.6-4.1,0.6-4.1
				l-2.4-1.6c-0.4-0.3-0.6-0.8-0.5-1.3c0.1-0.9,0.9-1.6,1.8-1.6c0.3,0,0.6,0.1,0.8,0.2C34.3,22.8,37.6,24.9,37.5,24.9z"/>
		</g>
		<g>
			<path class="st3" d="M28.9,18.4c0.9,0,1.8-0.8,2-1.7c0.1-0.9-0.5-1.7-1.5-1.7s-1.8,0.8-2,1.7C27.3,17.6,27.9,18.4,28.9,18.4z"/>
			<path class="st3" d="M28.7,19.3l3.7-2.1c0.4-0.2,0.7-0.3,1-0.3c0.9,0,1.5,0.7,1.4,1.6c-0.1,0.5-0.4,1-0.9,1.3l-2.8,1.6
				c0,0-0.4,2.7-0.6,4.1c-0.1,0.4-0.6,0.6-1,0.5c-0.6-0.3-1.7-1-1.7-1s-1.3,0.7-2,1c-0.4,0.2-0.9,0-0.8-0.5c0.2-1.4,0.6-4.1,0.6-4.1
				l-2.4-1.6c-0.4-0.3-0.6-0.8-0.5-1.3c0.1-0.9,0.9-1.6,1.8-1.6c0.3,0,0.6,0.1,0.8,0.2L28.7,19.3L28.7,19.3z"/>
		</g>
		<g>
			<path class="st3" d="M27.3,29.7c0.9,0,1.8-0.8,2-1.7s-0.5-1.7-1.5-1.7s-1.8,0.8-2,1.7C25.7,28.9,26.3,29.7,27.3,29.7z"/>
			<path class="st3" d="M27.1,30.5l3.7-2.1c0.4-0.2,0.7-0.3,1-0.3c0.9,0,1.5,0.7,1.4,1.6c-0.1,0.5-0.4,1-0.9,1.3l-2.8,1.6
				c0,0-0.4,2.7-0.6,4.1c-0.1,0.4-0.6,0.7-1,0.5c-0.6-0.3-1.7-1-1.7-1s-1.3,0.7-2,1c-0.4,0.2-0.9,0-0.8-0.5c0.2-1.4,0.6-4.1,0.6-4.1
				l-2.4-1.6c-0.4-0.3-0.6-0.8-0.5-1.3c0.1-0.9,0.9-1.6,1.8-1.6c0.3,0,0.6,0.1,0.8,0.2L27.1,30.5L27.1,30.5z"/>
		</g>
		<g>
			<path class="st3" d="M18.4,24c0.9,0,1.8-0.8,2-1.7s-0.5-1.7-1.5-1.7s-1.8,0.8-2,1.7C16.8,23.3,17.4,24,18.4,24z"/>
			<path class="st3" d="M18.2,24.9l3.7-2.1c0.4-0.2,0.7-0.3,1-0.3c0.9,0,1.5,0.7,1.4,1.6c-0.1,0.5-0.4,1-0.9,1.3L20.6,27
				c0,0-0.4,2.7-0.6,4.1c-0.1,0.4-0.6,0.6-1,0.5c-0.6-0.3-1.7-1-1.7-1s-1.3,0.7-2,1c-0.4,0.2-0.9,0-0.8-0.5c0.2-1.4,0.6-4.1,0.6-4.1
				l-2.4-1.6c-0.4-0.3-0.6-0.8-0.5-1.3c0.1-0.9,0.9-1.6,1.8-1.6c0.3,0,0.6,0.1,0.8,0.2L18.2,24.9L18.2,24.9z"/>
		</g>
	</g>
	<path class="st3" d="M6.5,43.1l0.9-1.5l0.3,1.5C7.6,43.1,6.5,43.1,6.5,43.1z M7.7,43.5c0.1,0.4,0.1,0.9,0.2,1.3c0.2,0,0.4,0,0.5,0
		s0.4,0,0.5,0l-0.9-4.4c-0.1,0-0.2,0-0.2,0s-0.2,0-0.2,0l-2.7,4.4c0.1,0,0.2,0,0.3,0s0.2,0,0.3,0C5.7,44.4,6,44,6.2,43.5L7.7,43.5
		L7.7,43.5z"/>
	<path class="st3" d="M10.6,44.4c0.6,0,1,0,1.5-0.1c0,0.1-0.1,0.2-0.1,0.3c0,0.1,0,0.2,0,0.3H9.6l0.8-4.3c0.1,0,0.3,0,0.5,0
		s0.3,0,0.5,0L10.6,44.4z"/>
	<path class="st3" d="M13.8,44.4c0.6,0,1,0,1.5-0.1c0,0.1-0.1,0.2-0.1,0.3c0,0.1,0,0.2,0,0.3h-2.4l0.8-4.3c0.1,0,0.3,0,0.5,0
		s0.3,0,0.5,0C14.6,40.5,13.8,44.4,13.8,44.4z"/>
	<path class="st3" d="M18.9,40.8c1,0,1.1,0.9,1,1.8c-0.2,1-0.8,2-1.8,2s-1.2-0.9-1-1.7C17.4,41.4,18,40.8,18.9,40.8z M20.9,42.6
		c0.2-1-0.1-2.3-1.9-2.3c-1.6,0-2.7,1-2.9,2.3c-0.3,1.4,0.5,2.3,1.9,2.3C19.5,44.9,20.7,43.9,20.9,42.6L20.9,42.6z"/>
	<path class="st3" d="M24.8,44.1l-0.2,0.5c-0.4,0.2-0.9,0.3-1.3,0.3c-1.4,0-2.2-0.8-2-2.1c0.3-1.7,1.6-2.4,3-2.4
		c0.4,0,0.9,0.1,1.2,0.3c-0.1,0.2-0.2,0.4-0.3,0.7h-0.1c-0.2-0.3-0.5-0.6-0.9-0.6c-1,0-1.7,1-1.9,1.9c-0.2,1.1,0.2,1.8,1.1,1.8
		C23.9,44.6,24.4,44.4,24.8,44.1L24.8,44.1L24.8,44.1z"/>
	<path class="st3" d="M26.6,43.1l0.9-1.5l0.3,1.5H26.6z M27.8,43.5c0.1,0.4,0.1,0.9,0.2,1.3c0.2,0,0.4,0,0.5,0s0.4,0,0.5,0l-0.9-4.4
		c-0.1,0-0.2,0-0.2,0s-0.2,0-0.2,0L25,44.8c0.1,0,0.2,0,0.3,0s0.2,0,0.3,0c0.2-0.4,0.4-0.8,0.7-1.3L27.8,43.5L27.8,43.5z"/>
	<path class="st3" d="M31.5,44.8c-0.1,0-0.3,0-0.5,0s-0.3,0-0.5,0l0.8-3.9c-0.5,0-0.9,0-1.2,0.1c0-0.1,0.1-0.2,0.1-0.3
		c0-0.1,0-0.2,0-0.3h3.3c0,0.1-0.1,0.2-0.1,0.3c0,0.1,0,0.2,0,0.3c-0.4,0-0.7-0.1-1.1-0.1L31.5,44.8L31.5,44.8z"/>
	<path class="st3" d="M34.2,40.5c0.2,0,0.3,0,0.5,0s0.3,0,0.5,0l-0.8,4.4c-0.2,0-0.3,0-0.5,0s-0.3,0-0.5,0L34.2,40.5z"/>
	<path class="st3" d="M38.3,40.8c1,0,1.2,0.9,1,1.8c-0.2,1-0.8,2-1.8,2s-1.2-0.9-1-1.7C36.8,41.4,37.4,40.8,38.3,40.8L38.3,40.8z
		 M40.3,42.6c0.2-1-0.1-2.3-1.9-2.3c-1.6,0-2.7,1-2.9,2.3c-0.3,1.4,0.5,2.3,1.9,2.3C39,44.9,40.1,43.9,40.3,42.6L40.3,42.6z"/>
	<path class="st3" d="M41.5,40.5h0.6c0.7,1,1.5,2,2.2,3l0.6-3c0.1,0,0.2,0,0.2,0s0.2,0,0.2,0l-0.8,4.4H44c-0.6-0.8-1.1-1.6-1.7-2.4
		l-0.5-0.7l-0.6,3.1c-0.1,0-0.2,0-0.2,0s-0.2,0-0.2,0C40.7,44.8,41.5,40.5,41.5,40.5z"/>
	<path class="st3" d="M48.2,41.3c-0.1-0.3-0.3-0.5-0.6-0.5c-0.5,0-0.8,0.3-0.8,0.6c-0.2,0.9,1.8,0.7,1.5,2.2c-0.2,0.8-1,1.4-2,1.4
		c-0.3,0-0.7-0.1-1-0.3c0.1-0.3,0.2-0.5,0.3-0.8h0.1c0,0.4,0.3,0.7,0.7,0.7c0.4,0,0.8-0.2,0.9-0.7c0.2-1-1.8-0.7-1.5-2.2
		c0.1-0.7,0.8-1.3,1.7-1.3c0.5,0,0.8,0.2,0.9,0.3C48.5,40.9,48.4,41.1,48.2,41.3L48.2,41.3L48.2,41.3z"/>
	<path class="st3" d="M10.3,51.3c-0.1,0-0.3,0-0.5,0s-0.3,0-0.5,0l0.9-4.4h2.4c0,0.1-0.1,0.2-0.1,0.3s0,0.2,0,0.3
		c-0.4,0-0.8-0.1-1.4-0.1l-0.3,1.4h0.7c0.2,0,0.5,0,0.8-0.1c0,0.1-0.1,0.2-0.1,0.3s0,0.2,0,0.3c-0.3,0-0.5-0.1-0.8-0.1h-0.7
		L10.3,51.3L10.3,51.3z"/>
	<path class="st3" d="M13.6,49.5l0.9-1.5l0.3,1.5H13.6z M14.9,49.9c0.1,0.4,0.1,0.9,0.2,1.3c0.2,0,0.4,0,0.6,0s0.4,0,0.5,0l-0.9-4.4
		c-0.1,0-0.2,0-0.2,0s-0.2,0-0.2,0l-2.7,4.4c0.1,0,0.2,0,0.3,0s0.2,0,0.3,0c0.2-0.4,0.4-0.8,0.7-1.3L14.9,49.9L14.9,49.9z"/>
	<path class="st3" d="M21.4,46.9c0.1,0,0.2,0,0.3,0s0.2,0,0.3,0c-0.1,1.7-0.3,3.1-0.3,4.4c-0.2,0-0.3,0-0.5,0s-0.3,0-0.5,0
		c0.1-1,0.2-2,0.3-3c-0.7,1-1.3,1.9-2,2.9c-0.1,0-0.1,0-0.2,0c-0.2-0.9-0.5-1.9-0.8-2.9c-0.4,1.1-0.6,2-0.8,2.9c-0.1,0-0.2,0-0.3,0
		s-0.2,0-0.3,0c0.5-1.3,1-2.8,1.5-4.4c0.1,0,0.2,0,0.2,0s0.2,0,0.3,0c0.3,1,0.6,2,0.9,3C20,49,20.7,48,21.4,46.9L21.4,46.9z"/>
	<path class="st3" d="M23.3,46.9c0.1,0,0.3,0,0.5,0s0.3,0,0.5,0l-0.9,4.4c-0.1,0-0.3,0-0.5,0s-0.3,0-0.5,0L23.3,46.9z"/>
	<path class="st3" d="M25.6,50.8c0.5,0,1,0,1.5-0.1c0,0.1-0.1,0.2-0.1,0.3c0,0.1,0,0.2,0,0.3h-2.4l0.8-4.3c0.2,0,0.3,0,0.5,0
		s0.3,0,0.5,0C26.3,46.9,25.6,50.8,25.6,50.8z"/>
	<path class="st3" d="M28.6,46.9c0.2,0,0.3,0,0.5,0s0.3,0,0.5,0l-0.9,4.4c-0.1,0-0.3,0-0.5,0s-0.3,0-0.5,0L28.6,46.9z"/>
	<path class="st3" d="M30.9,49.5l0.9-1.5l0.3,1.5H30.9z M32.2,49.9c0.1,0.4,0.1,0.9,0.2,1.3c0.2,0,0.4,0,0.5,0s0.4,0,0.5,0l-0.9-4.4
		c-0.1,0-0.2,0-0.2,0s-0.2,0-0.2,0l-2.7,4.4c0.1,0,0.2,0,0.3,0s0.2,0,0.3,0c0.2-0.4,0.4-0.8,0.7-1.3L32.2,49.9L32.2,49.9z"/>
	<path class="st3" d="M35.1,50.8c0.5,0,1,0,1.5-0.1c0,0.1-0.1,0.2-0.1,0.3c0,0.1,0,0.2,0,0.3h-2.4l0.8-4.3c0.2,0,0.3,0,0.5,0
		s0.3,0,0.5,0L35.1,50.8z"/>
	<path class="st3" d="M40.5,46.9c0,0.1-0.1,0.2-0.1,0.3c0,0.1,0,0.2,0,0.3c-0.4,0-0.8-0.1-1.5-0.1l-0.3,1.4h0.7c0.3,0,0.5,0,0.8-0.1
		c0,0.1-0.1,0.2-0.1,0.3c0,0.1,0,0.2,0,0.3c-0.2,0-0.5-0.1-0.8-0.1h-0.7l-0.3,1.6c0.7,0,1.1,0,1.5-0.1c0,0.1-0.1,0.2-0.1,0.3
		c0,0.1,0,0.2,0,0.3h-2.4l0.8-4.3L40.5,46.9L40.5,46.9z"/>
	<path class="st3" d="M43,47.7c-0.1-0.3-0.3-0.5-0.6-0.5c-0.5,0-0.8,0.3-0.8,0.6c-0.2,0.9,1.8,0.7,1.5,2.2c-0.2,0.8-1,1.4-2,1.4
		c-0.3,0-0.7-0.1-1-0.3c0.1-0.3,0.2-0.5,0.3-0.8h0.1c0,0.4,0.3,0.7,0.7,0.7c0.4,0,0.8-0.2,0.9-0.7c0.2-1-1.8-0.7-1.5-2.2
		c0.1-0.7,0.8-1.3,1.7-1.3c0.5,0,0.8,0.2,0.9,0.3C43.3,47.3,43.2,47.5,43,47.7L43,47.7L43,47.7z"/>
	<g>
		<path class="st3" d="M26.2,64.2L26,65.1c-0.6,0.3-1.4,0.5-2.1,0.5c-2.3,0-4-1.4-4-3.6c0-2.8,1.9-4,4.2-4c0.7,0,1.5,0.2,2.2,0.5
			c-0.1,0.4-0.2,0.7-0.2,1.1h-0.1c-0.4-0.6-1.1-1-1.8-1c-1.8,0-2.5,1.7-2.5,3.2c0,1.8,0.9,3.1,2.5,3.1c0.7,0,1.4-0.3,1.9-0.8
			L26.2,64.2L26.2,64.2z"/>
		<path class="st3" d="M31.3,64.5c0,0.4,0.1,0.5,0.5,0.5v0.2c-0.2,0.1-0.7,0.3-1,0.3c-0.5,0-0.9-0.3-1-0.8c-0.3,0.5-0.8,0.8-1.4,0.8
			c-0.9,0-1.5-0.5-1.5-1.4c0-1,0.6-1.3,1.9-1.6c0.3-0.1,0.5-0.1,0.8-0.3c0.1-0.1,0.2-0.2,0.2-0.4c0-0.5-0.5-0.9-1-0.9
			c-0.7,0-1.2,0.5-1.3,0.7h-0.1l-0.1-0.6c0.5-0.5,1.3-0.7,2-0.7c0.9,0,2,0.4,2,1.4C31.3,61.6,31.3,64.5,31.3,64.5z M29.8,62.7
			c-0.3,0.1-0.7,0.2-1,0.5c-0.3,0.2-0.3,0.5-0.3,0.9c0,0.4,0.1,0.8,0.6,0.8c0.6,0,0.8-0.6,0.8-1.1L29.8,62.7L29.8,62.7z"/>
		<path class="st3" d="M32.1,61c0-0.2,0-0.4,0-0.7h0.8c0.1-0.6,0.2-1.2,0.5-1.8c0.5-0.9,1.1-1.3,2.2-1.1c-0.1,0.4-0.1,1,0,1.3
			l-0.1,0c-0.3-0.1-0.6-0.3-0.9-0.3c-0.2,0-0.4,0-0.6,0.1c-0.1,0.1-0.1,0.1-0.1,0.2c0,0.3,0.3,1.1,0.5,1.4h1.1c0,0.2,0,0.4,0,0.7h-1
			v4.5c-0.2,0-0.5-0.1-0.7-0.1s-0.5,0-0.7,0.1V61L32.1,61L32.1,61z"/>
		<path class="st3" d="M17.6,73.3c-0.1,0-0.3,0-0.5,0s-0.3,0-0.5,0v-0.6c-0.1,0.4-0.5,0.7-0.9,0.7c-1,0-1.4-0.8-1.4-1.7
			s0.4-1.7,1.3-1.7c0.4,0,0.7,0.1,0.9,0.5v-2.3c0.2,0,0.3,0,0.5,0s0.3,0,0.5,0L17.6,73.3L17.6,73.3z M15.4,71.7
			c0,0.4,0.1,1.3,0.6,1.3c0.6,0,0.7-0.9,0.7-1.3c0-0.4-0.1-1.2-0.6-1.2C15.4,70.4,15.4,71.3,15.4,71.7L15.4,71.7z"/>
		<path class="st3" d="M19.2,71.7c0,0.7,0.2,1.3,1,1.3c0.3,0,0.6-0.1,0.8-0.3l0.1,0.1l-0.1,0.4c-0.3,0.2-0.6,0.3-1,0.3
			c-1.1,0-1.7-0.7-1.7-1.8c0-1,0.6-1.7,1.6-1.7c1.1,0,1.5,0.8,1.4,1.7L19.2,71.7L19.2,71.7z M20.2,71.4c0-0.4,0-1.1-0.5-1.1
			c-0.5,0-0.5,0.7-0.6,1.1H20.2L20.2,71.4z"/>
		<path class="st3" d="M24.9,72.8c0.6,0,1.1-0.1,1.6-0.1c0,0.1,0,0.2,0,0.3s0,0.2,0,0.3h-2.6v-4.7c0.2,0,0.3,0,0.5,0s0.3,0,0.5,0
			L24.9,72.8L24.9,72.8L24.9,72.8z"/>
		<path class="st3" d="M27,71.8c0-1.1,0.6-1.8,1.7-1.8s1.7,0.6,1.7,1.7s-0.6,1.8-1.7,1.8C27.6,73.4,27,72.8,27,71.8L27,71.8z
			 M28,71.7c0,0.4,0,1.4,0.6,1.4c0.5,0,0.7-0.8,0.7-1.6c0-0.7-0.2-1.2-0.6-1.2C28.1,70.3,28,70.9,28,71.7L28,71.7z"/>
		<path class="st3" d="M31.5,68.2c0.3,0,0.5,0.2,0.5,0.6s-0.2,0.6-0.5,0.6S31,69.1,31,68.8C31,68.5,31.2,68.2,31.5,68.2z M31.1,70
			c0.2,0,0.3,0,0.5,0s0.3,0,0.5,0v3.3c-0.2,0-0.3,0-0.5,0s-0.3,0-0.5,0C31.1,73.3,31.1,70,31.1,70z"/>
		<path class="st3" d="M33,70c0.2,0,0.3,0,0.5,0s0.3,0,0.5,0v0.8c0.1-0.5,0.5-0.9,1.1-0.9c0,0.3,0,0.6,0,0.9l-0.1,0.1
			c-0.1-0.1-0.2-0.1-0.3-0.1c-0.3,0-0.5,0.2-0.6,0.5c-0.1,0.2,0,0.6,0,0.8v1.2c-0.2,0-0.3,0-0.5,0s-0.3,0-0.5,0C33,73.3,33,70,33,70
			z"/>
		<path class="st3" d="M36.4,71.7c0,0.7,0.2,1.3,1,1.3c0.3,0,0.6-0.1,0.8-0.3l0.1,0.1L38,73.1c-0.3,0.2-0.7,0.3-1,0.3
			c-1.1,0-1.7-0.7-1.7-1.8c0-1,0.6-1.7,1.6-1.7c1.1,0,1.5,0.8,1.4,1.7L36.4,71.7L36.4,71.7z M37.4,71.4c0-0.4,0-1.1-0.5-1.1
			c-0.5,0-0.5,0.7-0.6,1.1H37.4L37.4,71.4z"/>
		<path class="st3" d="M38.8,71.4h1.7v0.7h-1.7V71.4z"/>
		<path class="st3" d="M13,79.8c-0.2,0.5-0.4,0.9-0.5,1.4c-0.1,0-0.2,0-0.3,0s-0.2,0-0.3,0l2-4.8c0.1,0,0.2,0,0.3,0s0.2,0,0.3,0
			l1.9,4.8c-0.2,0-0.4,0-0.6,0s-0.4,0-0.6,0c-0.2-0.5-0.3-1-0.5-1.4H13L13,79.8z M14.5,79.4l-0.6-1.6l-0.6,1.6
			C13.2,79.4,14.5,79.4,14.5,79.4z"/>
		<path class="st3" d="M17.9,80.4c0,0.5,0,0.7,0.6,0.6v0.3c-0.2,0.1-0.5,0.2-0.7,0.2c-0.7,0-0.9-0.5-0.9-1.1v-1.8h-0.5
			c0-0.2,0-0.3,0-0.4H17v-0.8c0.3-0.1,0.6-0.3,1-0.4v1.2h0.6c0,0.2,0,0.3,0,0.4h-0.6L17.9,80.4L17.9,80.4z"/>
		<path class="st3" d="M20.1,81.3c-0.2,0-0.3,0-0.5,0s-0.3,0-0.5,0v-5.2c0.2,0,0.3,0,0.5,0s0.3,0,0.5,0V81.3z"/>
		<path class="st3" d="M23.6,80.7c0,0.2,0.1,0.3,0.4,0.3v0.2c-0.2,0.1-0.4,0.2-0.6,0.2c-0.3,0-0.6-0.2-0.7-0.5
			c-0.2,0.3-0.5,0.5-0.9,0.5c-0.6,0-1-0.3-1-0.9c0-0.7,0.4-0.8,1.3-1.1c0.2,0,0.4-0.1,0.5-0.2c0.1-0.1,0.1-0.2,0.1-0.3
			c0-0.3-0.3-0.6-0.7-0.6c-0.4,0-0.8,0.3-0.8,0.4h0L21,78.4c0.3-0.3,0.8-0.5,1.3-0.5c0.6,0,1.3,0.2,1.3,0.9L23.6,80.7L23.6,80.7
			L23.6,80.7z M22.6,79.5c-0.2,0.1-0.5,0.1-0.7,0.3c-0.2,0.1-0.2,0.3-0.2,0.6c0,0.2,0.1,0.6,0.4,0.6c0.4,0,0.5-0.4,0.5-0.8V79.5
			C22.6,79.5,22.6,79.5,22.6,79.5z"/>
		<path class="st3" d="M24.4,77.9c0.1,0,0.3,0,0.5,0s0.3,0,0.5,0v0.5c0.3-0.3,0.6-0.6,1.1-0.6c0.9,0,1.1,0.6,1.1,1.4v2
			c-0.2,0-0.3,0-0.5,0s-0.3,0-0.5,0v-1.7c0-0.6-0.1-1.1-0.6-1.1c-0.6,0-0.6,0.8-0.6,1.2v1.6c-0.2,0-0.3,0-0.5,0s-0.3,0-0.5,0
			L24.4,77.9L24.4,77.9L24.4,77.9z"/>
		<path class="st3" d="M29.4,80.4c0,0.5,0,0.7,0.6,0.6v0.3c-0.2,0.1-0.5,0.2-0.7,0.2c-0.7,0-0.9-0.5-0.9-1.1v-1.8H28
			c0-0.2,0-0.3,0-0.4h0.5v-0.8c0.3-0.1,0.6-0.3,1-0.4v1.2H30c0,0.2,0,0.3,0,0.4h-0.6L29.4,80.4L29.4,80.4z"/>
		<path class="st3" d="M31.1,76.1c0.3,0,0.5,0.2,0.5,0.6s-0.2,0.6-0.5,0.6s-0.5-0.2-0.5-0.6S30.8,76.1,31.1,76.1z M30.6,77.9
			c0.2,0,0.3,0,0.5,0s0.3,0,0.5,0v3.3c-0.2,0-0.3,0-0.5,0s-0.3,0-0.5,0V77.9z"/>
		<path class="st3" d="M34.6,77.9c0.2,0,0.3,0,0.5,0s0.3,0,0.5,0V83c-0.2,0-0.3,0-0.5,0s-0.3,0-0.5,0v-2.2c-0.2,0.2-0.4,0.5-0.9,0.5
			c-0.8,0-1.4-0.7-1.4-1.7s0.4-1.8,1.3-1.8c0.5,0,0.8,0.2,1,0.7L34.6,77.9L34.6,77.9L34.6,77.9z M33.4,80.1c0,0.3,0.2,0.8,0.6,0.8
			c0.6,0,0.6-0.8,0.6-1.2s0-1.3-0.7-1.3c-0.6,0-0.6,0.8-0.6,1.2C33.3,79.7,33.3,79.9,33.4,80.1L33.4,80.1z"/>
		<path class="st3" d="M39.3,81.3c-0.2,0-0.3,0-0.5,0s-0.3,0-0.5,0v-0.5c-0.3,0.3-0.6,0.6-1,0.6c-0.3,0-0.7-0.1-0.9-0.4
			s-0.2-0.7-0.2-1.1v-1.9c0.2,0,0.3,0,0.5,0s0.3,0,0.5,0v1.9c0,0.2,0,0.4,0.1,0.6c0.1,0.2,0.2,0.4,0.5,0.4c0.6,0,0.6-0.6,0.6-1V78
			c0.2,0,0.3,0,0.5,0s0.3,0,0.5,0L39.3,81.3L39.3,81.3z"/>
		<path class="st3" d="M41,79.6c0,0.7,0.2,1.3,1,1.3c0.3,0,0.6-0.1,0.8-0.3l0.1,0.1L42.7,81c-0.3,0.2-0.7,0.3-1,0.3
			c-1.1,0-1.7-0.7-1.7-1.8c0-1,0.6-1.7,1.6-1.7c1.1,0,1.5,0.8,1.4,1.7L41,79.6L41,79.6z M42,79.3c0-0.4,0-1.1-0.5-1.1
			c-0.5,0-0.5,0.7-0.6,1.1H42L42,79.3z"/>
	</g>
</g>
<g id="logo-loire-atlantique-rvb">
	<path id="Tracé_695" class="st4" d="M113.1,30.6c-0.4-0.3-1-0.4-1.5-0.4c-0.7,0-1.4,0.3-1.9,0.9c-0.5,0.5-0.8,1.3-0.7,2v0.4
		C109,33.5,113.1,30.6,113.1,30.6z"/>
	<path id="Tracé_696" class="st4" d="M156.6,47.4c-0.4-0.3-1-0.4-1.5-0.4c-0.7,0-1.4,0.3-1.9,0.9c-0.5,0.5-0.8,1.3-0.7,2v0.4
		L156.6,47.4L156.6,47.4z"/>
	<path id="Tracé_697" class="st4" d="M91.6,35.7c0.7,0,1.4-0.3,1.9-0.7c0.5-0.5,0.8-1.3,0.9-2c0-0.7-0.3-1.4-0.9-2
		c-0.5-0.5-1.2-0.8-1.9-0.9c-1.5,0-2.7,1.3-2.6,2.8V33c0,0.7,0.3,1.4,0.7,2C90.2,35.4,90.8,35.7,91.6,35.7z"/>
	<path id="Tracé_698" class="st4" d="M134.7,47c-1.5,0-2.7,1.3-2.6,2.8v0.1c0,0.7,0.3,1.4,0.7,2c0.5,0.5,1.2,0.8,1.9,0.7
		c0.7,0,1.4-0.3,1.9-0.7c0.5-0.5,0.8-1.3,0.9-2C137.4,48.2,136.1,47,134.7,47z"/>
	<path id="Tracé_699" class="st4" d="M104.3,52.4c0.7,0,1.4-0.3,1.9-0.7c0.5-0.5,0.8-1.3,0.9-2c0-0.7-0.3-1.4-0.9-2
		c-0.5-0.5-1.2-0.8-1.9-0.9c-1.5,0-2.7,1.3-2.6,2.8v0.1c0,0.7,0.3,1.4,0.7,2C102.9,52.2,103.6,52.4,104.3,52.4z"/>
	<path id="Tracé_700" class="st4" d="M137.3,59.4v-5.5c-0.8,0.6-1.7,1-2.8,1c-1.3,0-2.5-0.5-3.4-1.5c-1.9-2-1.9-5.2,0-7.2
		s5.1-2,7,0c1,1,1.5,2.2,1.5,3.6v9.6h-0.3c8.1,0.1,17.4,0.5,28.3,1.3v-30c-39.8-15.9-87.8-15-106.1-3.4l15.2,47
		c2.5-1.6,5-3.2,7.5-4.5l0,0C96.1,63.1,108.6,59.1,137.3,59.4L137.3,59.4z M151.8,46.1c1-1,2.2-1.5,3.5-1.5c1,0,2,0.3,2.8,0.9
		c0.8,0.5,1.4,1.3,1.8,2.2l0.1,0.3l-6,4.1c0.4,0.3,1,0.4,1.5,0.4c0.7,0,1.4-0.3,1.9-0.9c0.3-0.3,0.4-0.5,0.5-0.9h2.4
		c-0.3,0.9-0.7,1.8-1.3,2.5c-1.9,2-5.1,2-7,0c-1-1-1.5-2.2-1.5-3.6C150.4,48.3,150.8,47,151.8,46.1L151.8,46.1L151.8,46.1z
		 M140.9,44.8h2.3v5.8c0,1.1,1,2,2,1.9c1.1,0,1.8-0.9,1.8-1.9v-5.8h2.3v5.8c0,1.2-0.5,2.2-1.3,3c-1.6,1.6-4.2,1.6-5.8,0
		c-0.8-0.8-1.2-1.9-1.2-3L140.9,44.8L140.9,44.8L140.9,44.8z M94.2,47h-1.5v7.5h-2.3V47H89v-2.3h1.5v-3.2h2.3v3.2h1.5V47z
		 M98.1,54.6h-2.3V41.5h2.3V54.6z M126,41.5h2.3v2.3H126V41.5z M126,44.8h2.3v9.8H126V44.8z M119.8,44.8h1.5v-3.2h2.3v3.2h1.5v2.3
		h-1.5v7.5h-2.3v-7.5h-1.5V44.8z M119.1,48.9v5.8h-2.3v-5.8c0-1.1-1-2-2-1.9c-1.1,0-1.8,0.9-1.8,1.9v5.8h-2.3v-5.8
		c0-1.1,0.4-2.2,1.2-3c1.4-1.6,3.8-1.8,5.4-0.5c0.2,0.1,0.3,0.3,0.4,0.5C118.5,46.6,119.2,47.8,119.1,48.9
		C119.1,48.9,119.1,48.9,119.1,48.9z M108.3,29.3c1-1,2.2-1.5,3.5-1.5c1,0,2,0.3,2.8,0.9c0.8,0.5,1.4,1.4,1.8,2.2l0.1,0.3l-6,4.1
		c0.4,0.3,1,0.4,1.5,0.4c0.7,0,1.4-0.3,1.9-0.9c0.3-0.3,0.4-0.5,0.5-0.9h2.4c-0.3,0.9-0.7,1.8-1.3,2.5c-1.9,2-5.1,2-7,0
		c-1-1-1.5-2.2-1.5-3.6C106.8,31.6,107.3,30.2,108.3,29.3L108.3,29.3z M102,32.2c0-1.2,0.5-2.3,1.3-3.2c0.8-0.8,1.9-1.3,3.1-1.3h0.3
		v2.4h-0.3c-0.5,0-1.1,0.2-1.5,0.6c-0.3,0.4-0.6,0.8-0.6,1.4V38H102V32.2L102,32.2z M104.3,44.5c2.7,0,5,2.2,5,5.1l0,0v5H107v-0.7
		c-0.8,0.6-1.7,1-2.8,1c-1.3,0-2.5-0.5-3.4-1.5c-1.9-2-1.9-5.2,0-7.2C101.8,45.2,103,44.6,104.3,44.5L104.3,44.5L104.3,44.5z
		 M98,24.8h2.2v2.3h-2.3L98,24.8L98,24.8z M98,28h2.2v9.8h-2.3L98,28L98,28z M88,29.3c1.9-2,5.1-2,7,0c1,1,1.5,2.2,1.5,3.6
		c0,2.8-2.2,5.1-5,5.1s-5-2.2-5-5.1C86.6,31.7,87.2,30.3,88,29.3z M78.9,24.8h2.4v10.7h5.2V38h-7.6L78.9,24.8L78.9,24.8L78.9,24.8z
		 M80.6,54.6h-2.5l4.4-13.2h2.6l4.6,13.2h-2.5l-0.7-2.2h-5.1C81.5,52.4,80.6,54.6,80.6,54.6z"/>
	<path id="Tracé_701" class="st4" d="M82.2,50.3h3.5l-1.7-5C84,45.3,82.2,50.3,82.2,50.3z"/>
	<path id="Tracé_702" class="st5" d="M84.2,69.8h83.3v-9.2C119.3,57.7,102.4,59.7,84.2,69.8z"/>
	<path id="Tracé_704" class="st5" d="M167.6,60.6L167.6,60.6c-11-0.7-20.3-1.1-28.3-1.3h-1.9c-28.8-0.3-41.2,3.8-53.2,10.4l0,0
		C102.4,59.7,119.3,57.7,167.6,60.6L167.6,60.6z"/>
	<path id="Tracé_705" class="st3" d="M91.6,38.1c2.7,0,5-2.2,5-5.1l0,0c0-2.8-2.2-5.1-5-5.1s-5,2.2-5,5.1c0,1.3,0.5,2.6,1.5,3.6
		C89,37.6,90.3,38.1,91.6,38.1z M89.6,31c0.5-0.5,1.2-0.8,1.9-0.9c0.7,0.1,1.4,0.4,1.9,0.9c0.5,0.5,0.8,1.3,0.9,2
		c0,1.5-1.2,2.8-2.7,2.7h-0.1c-0.7,0-1.4-0.3-1.9-0.7c-0.5-0.5-0.8-1.3-0.7-2C88.9,32.3,89.1,31.6,89.6,31z"/>
	<rect id="Rectangle_526" x="98" y="28" class="st3" width="2.3" height="9.8"/>
	<path id="Tracé_706" class="st3" d="M104.2,32.2c0-0.5,0.2-1,0.6-1.4c0.3-0.4,0.9-0.6,1.5-0.6h0.3v-2.3h-0.3
		c-1.1,0-2.2,0.5-3.1,1.3S102,31,102,32.3V38h2.3V32.2L104.2,32.2z"/>
	<path id="Tracé_707" class="st3" d="M92.7,41.5h-2.3v3.3H89v2.2h1.5v7.5h2.3v-7.5h1.5v-2.2h-1.5C92.7,44.8,92.7,41.5,92.7,41.5z"
		/>
	<rect id="Rectangle_527" x="95.8" y="41.5" class="st3" width="2.3" height="13.2"/>
	<path id="Tracé_708" class="st3" d="M100.8,53.3c0.9,1,2.1,1.5,3.4,1.5c1.1,0,2-0.4,2.8-1v0.9h2.3v-5c0-2.8-2.2-5.1-5-5.1
		s-5,2.2-5,5.1C99.4,51,100,52.4,100.8,53.3z M102.6,47.8c0.5-0.5,1.2-0.8,1.9-0.9c0.7,0,1.4,0.3,1.9,0.9c0.5,0.5,0.8,1.3,0.9,2
		c0,1.5-1.2,2.8-2.7,2.7h-0.1c-0.7,0-1.4-0.3-1.9-0.7c-0.5-0.5-0.8-1.3-0.7-2C101.6,49,102,48.2,102.6,47.8z"/>
	<path id="Tracé_709" class="st3" d="M112,46c-0.8,0.8-1.2,1.9-1.2,3v5.8h2.3v-5.8c0-1.1,1-2,2-1.9c1.1,0,1.8,0.9,1.8,1.9v5.8h2.3
		v-5.8c0-1.2-0.5-2.2-1.3-3c-0.8-0.8-1.8-1.3-2.9-1.3C113.8,44.5,112.7,45.1,112,46L112,46z"/>
	<path id="Tracé_710" class="st3" d="M121.2,54.6h2.3V47h1.5v-2.2h-1.5v-3.3h-2.3v3.3h-1.5V47h1.5C121.2,47,121.2,54.6,121.2,54.6z
		"/>
	<rect id="Rectangle_528" x="125.9" y="44.8" class="st3" width="2.3" height="9.8"/>
	<rect id="Rectangle_529" x="125.9" y="41.5" class="st3" width="2.3" height="2.3"/>
	<path id="Tracé_711" class="st3" d="M139.6,49.7c0-2.8-2.2-5.1-5-5.1s-5,2.2-5,5.1c0,1.3,0.5,2.6,1.5,3.6c0.9,1,2.1,1.5,3.4,1.5
		c1.1,0,2-0.4,2.8-1v5.5h2.2L139.6,49.7L139.6,49.7L139.6,49.7z M136.4,51.6c-0.5,0.5-1.2,0.8-1.9,0.7c-0.7,0-1.4-0.3-1.9-0.7
		c-0.5-0.5-0.8-1.3-0.7-2c0-0.7,0.3-1.4,0.7-2c0.5-0.5,1.2-0.8,1.9-0.9c0.7,0,1.4,0.3,1.9,0.9c0.5,0.5,0.8,1.3,0.9,2
		C137.3,50.5,137,51.2,136.4,51.6L136.4,51.6z"/>
	<path id="Tracé_713" class="st3" d="M145.1,54.8c1.1,0,2.2-0.5,2.9-1.3c0.8-0.8,1.3-1.9,1.3-3v-5.8h-2.3v5.8c0,1.1-1,2-2,1.9
		c-1.1,0-1.8-0.9-1.8-1.9v-5.8h-2.3v5.8c0,1.1,0.4,2.2,1.2,3S144,54.8,145.1,54.8L145.1,54.8z"/>
	<path id="Tracé_714" class="st3" d="M111.8,38.1c1.3,0,2.6-0.5,3.5-1.5c0.6-0.7,1.1-1.5,1.3-2.5h-2.4c-0.1,0.4-0.3,0.6-0.5,0.9
		c-0.4,0.6-1.2,0.9-1.9,0.9c-0.5,0-1-0.1-1.5-0.4l6-4.1l-0.1-0.4c-0.3-0.9-1-1.7-1.8-2.2c-0.8-0.6-1.7-0.9-2.8-0.9
		c-2.7,0-5,2.2-5,5.1l0,0c0,1.3,0.5,2.7,1.5,3.6C109.2,37.6,110.5,38.1,111.8,38.1L111.8,38.1z M109.9,31c0.5-0.5,1.2-0.9,1.9-0.9
		c0.5,0,1,0.1,1.5,0.4l-4,2.7v-0.4C109.1,32.2,109.4,31.4,109.9,31z"/>
	<path id="Tracé_715" class="st3" d="M155.2,54.8c1.3,0,2.6-0.5,3.5-1.5c0.6-0.7,1.1-1.5,1.3-2.5h-2.4c-0.1,0.4-0.3,0.6-0.5,0.9
		c-0.4,0.6-1.2,0.9-1.9,0.9c-0.5,0-1-0.1-1.5-0.4l6-4.1l-0.1-0.3c-0.4-0.9-1-1.7-1.8-2.2c-0.8-0.6-1.7-0.9-2.8-0.9
		c-2.7,0-5,2.2-5,5.1c0,1.3,0.5,2.6,1.5,3.6C152.7,54.2,153.9,54.8,155.2,54.8L155.2,54.8z M153.3,47.8c0.5-0.5,1.2-0.9,1.9-0.9
		c0.5,0,1,0.1,1.5,0.4l-4,2.7v-0.4C152.6,48.9,152.9,48.3,153.3,47.8z"/>
	<path id="Tracé_716" class="st3" d="M86.4,35.4h-5.3V24.7h-2.3V38h7.6V35.4z"/>
	<path id="Tracé_717" class="st3" d="M87.2,54.6h2.5l-4.4-13.2h-2.6l-4.4,13.2h2.4l0.7-2.2h5.1L87.2,54.6L87.2,54.6z M82.2,50.3
		l1.8-5l1.8,5H82.2z"/>
	<rect id="Rectangle_530" x="98" y="24.7" class="st3" width="2.3" height="2.3"/>
</g>
<g>
	<path d="M184.7,57.8l-1.8-2c-0.5,0.1-0.9,0.2-1.5,0.2c-1,0-1.9-0.2-2.7-0.7c-0.8-0.5-1.5-1.1-1.9-1.9c-0.5-0.8-0.7-1.7-0.7-2.8
		c0-1,0.2-1.9,0.7-2.7c0.5-0.8,1.1-1.4,1.9-1.9c0.8-0.5,1.7-0.7,2.7-0.7c1,0,1.9,0.2,2.7,0.7c0.8,0.5,1.5,1.1,1.9,1.9
		c0.5,0.8,0.7,1.7,0.7,2.7c0,1-0.2,1.8-0.6,2.6c-0.4,0.8-1,1.4-1.7,1.9l2.5,2.7H184.7z M178.2,52.7c0.3,0.6,0.7,1,1.3,1.4
		c0.5,0.3,1.2,0.5,1.8,0.5c0.7,0,1.3-0.2,1.8-0.5c0.5-0.3,1-0.8,1.3-1.4c0.3-0.6,0.5-1.3,0.5-2c0-0.8-0.2-1.4-0.5-2
		c-0.3-0.6-0.7-1-1.3-1.3c-0.5-0.3-1.2-0.5-1.8-0.5c-0.7,0-1.3,0.2-1.8,0.5c-0.5,0.3-1,0.8-1.3,1.3c-0.3,0.6-0.5,1.3-0.5,2
		C177.8,51.4,177.9,52.1,178.2,52.7z"/>
	<path d="M195.9,47.6v8.3h-1.7v-1c-0.3,0.3-0.6,0.6-1.1,0.8c-0.4,0.2-0.9,0.3-1.4,0.3c-0.7,0-1.2-0.1-1.7-0.4
		c-0.5-0.3-0.9-0.7-1.2-1.2s-0.4-1.2-0.4-1.9v-4.9h1.7v4.6c0,0.7,0.2,1.3,0.6,1.7c0.4,0.4,0.9,0.6,1.5,0.6c0.6,0,1.1-0.2,1.5-0.6
		c0.4-0.4,0.6-1,0.6-1.7v-4.6H195.9z"/>
	<path d="M205.7,52.4h-6.3c0,0.7,0.3,1.2,0.7,1.6c0.4,0.4,1,0.6,1.6,0.6c0.9,0,1.6-0.4,2-1.2h1.8c-0.2,0.8-0.7,1.4-1.4,1.9
		c-0.7,0.5-1.5,0.7-2.4,0.7c-0.8,0-1.5-0.2-2.1-0.5c-0.6-0.4-1.1-0.9-1.5-1.5c-0.4-0.6-0.5-1.4-0.5-2.2c0-0.8,0.2-1.6,0.5-2.2
		c0.3-0.6,0.8-1.1,1.5-1.5c0.6-0.4,1.3-0.5,2.2-0.5c0.8,0,1.5,0.2,2.1,0.5c0.6,0.3,1.1,0.8,1.4,1.4c0.3,0.6,0.5,1.3,0.5,2.1
		C205.7,51.8,205.7,52.1,205.7,52.4z M203.9,51c0-0.6-0.2-1.1-0.7-1.5c-0.4-0.4-1-0.6-1.6-0.6c-0.6,0-1.1,0.2-1.5,0.6
		s-0.7,0.9-0.8,1.5H203.9z"/>
	<path d="M208.7,55.7c-0.5-0.2-0.9-0.6-1.2-1s-0.5-0.9-0.5-1.4h1.8c0,0.3,0.2,0.6,0.5,0.9c0.3,0.2,0.7,0.4,1.1,0.4
		c0.5,0,0.9-0.1,1.1-0.3c0.3-0.2,0.4-0.4,0.4-0.7c0-0.3-0.1-0.5-0.4-0.7c-0.3-0.1-0.8-0.3-1.4-0.5c-0.6-0.2-1.1-0.3-1.5-0.5
		c-0.4-0.2-0.7-0.4-1-0.7s-0.4-0.8-0.4-1.3c0-0.4,0.1-0.8,0.4-1.2c0.3-0.4,0.6-0.7,1.1-0.9s1-0.3,1.7-0.3c0.9,0,1.7,0.2,2.3,0.7
		s0.9,1.1,0.9,1.9h-1.7c0-0.4-0.2-0.7-0.4-0.9c-0.3-0.2-0.6-0.3-1.1-0.3c-0.4,0-0.8,0.1-1,0.3c-0.2,0.2-0.4,0.4-0.4,0.7
		c0,0.2,0.1,0.4,0.2,0.6c0.2,0.2,0.4,0.3,0.6,0.4c0.2,0.1,0.6,0.2,1,0.3c0.6,0.2,1.1,0.3,1.5,0.5s0.7,0.4,1,0.7
		c0.3,0.3,0.4,0.7,0.4,1.3c0,0.5-0.1,0.9-0.4,1.3c-0.3,0.4-0.6,0.7-1.1,0.9c-0.5,0.2-1,0.3-1.7,0.3C209.7,56,209.2,55.9,208.7,55.7z
		"/>
	<path d="M217.4,49v4.6c0,0.3,0.1,0.5,0.2,0.7c0.1,0.1,0.4,0.2,0.7,0.2h1v1.4h-1.3c-0.8,0-1.4-0.2-1.8-0.5c-0.4-0.4-0.6-0.9-0.6-1.8
		V49h-1v-1.4h1v-2.1h1.7v2.1h2V49H217.4z"/>
	<path d="M221.1,46.2c-0.2-0.2-0.3-0.5-0.3-0.8s0.1-0.6,0.3-0.8s0.5-0.3,0.8-0.3c0.3,0,0.6,0.1,0.8,0.3s0.3,0.5,0.3,0.8
		s-0.1,0.6-0.3,0.8s-0.5,0.3-0.8,0.3C221.5,46.5,221.3,46.4,221.1,46.2z M222.7,47.6v8.3H221v-8.3H222.7z"/>
	<path d="M226.4,55.5c-0.6-0.4-1.1-0.9-1.5-1.5c-0.4-0.6-0.5-1.4-0.5-2.2c0-0.8,0.2-1.6,0.6-2.2s0.9-1.2,1.5-1.5
		c0.6-0.4,1.4-0.5,2.1-0.5s1.5,0.2,2.1,0.5c0.6,0.3,1.1,0.8,1.5,1.5c0.4,0.7,0.6,1.4,0.6,2.2c0,0.8-0.2,1.6-0.6,2.2
		c-0.4,0.7-0.9,1.2-1.6,1.5c-0.7,0.4-1.4,0.5-2.2,0.5C227.8,56,227,55.8,226.4,55.5z M229.8,54.2c0.4-0.2,0.7-0.5,0.9-0.9
		s0.4-0.9,0.4-1.5c0-0.6-0.1-1.1-0.3-1.5c-0.2-0.4-0.5-0.7-0.9-0.9c-0.4-0.2-0.8-0.3-1.2-0.3s-0.8,0.1-1.2,0.3s-0.7,0.5-0.9,0.9
		c-0.2,0.4-0.3,0.9-0.3,1.5c0,0.9,0.2,1.6,0.7,2.1c0.5,0.5,1,0.7,1.7,0.7C229,54.5,229.4,54.4,229.8,54.2z"/>
	<path d="M240.4,47.9c0.5,0.3,0.9,0.7,1.2,1.2s0.4,1.2,0.4,1.9v4.9h-1.7v-4.6c0-0.7-0.2-1.3-0.6-1.7c-0.4-0.4-0.9-0.6-1.5-0.6
		s-1.1,0.2-1.5,0.6c-0.4,0.4-0.6,1-0.6,1.7v4.6h-1.7v-8.3h1.7v0.9c0.3-0.3,0.6-0.6,1.1-0.8c0.4-0.2,0.9-0.3,1.4-0.3
		C239.3,47.5,239.9,47.6,240.4,47.9z"/>
	<path d="M248.1,49.5c0.3-0.6,0.8-1.1,1.4-1.5c0.6-0.4,1.3-0.5,2-0.5c0.5,0,1.1,0.1,1.6,0.4c0.5,0.2,0.9,0.5,1.3,0.9v-4h1.7v11.1
		h-1.7v-1.2c-0.3,0.4-0.7,0.7-1.2,1c-0.5,0.3-1.1,0.4-1.7,0.4c-0.7,0-1.4-0.2-2-0.5c-0.6-0.4-1.1-0.9-1.4-1.5
		c-0.3-0.7-0.5-1.4-0.5-2.2S247.8,50.1,248.1,49.5z M254,50.2c-0.2-0.4-0.5-0.7-0.9-1s-0.8-0.3-1.2-0.3c-0.4,0-0.9,0.1-1.2,0.3
		s-0.7,0.5-0.9,0.9c-0.2,0.4-0.4,0.9-0.4,1.5c0,0.6,0.1,1.1,0.4,1.5c0.2,0.4,0.5,0.8,0.9,1c0.4,0.2,0.8,0.3,1.2,0.3
		c0.4,0,0.8-0.1,1.2-0.3c0.4-0.2,0.7-0.5,0.9-1c0.2-0.4,0.4-0.9,0.4-1.5C254.3,51.2,254.2,50.7,254,50.2z"/>
	<path d="M265.8,52.4h-6.3c0,0.7,0.3,1.2,0.7,1.6c0.4,0.4,1,0.6,1.6,0.6c0.9,0,1.6-0.4,2-1.2h1.8c-0.2,0.8-0.7,1.4-1.4,1.9
		c-0.7,0.5-1.5,0.7-2.4,0.7c-0.8,0-1.5-0.2-2.1-0.5c-0.6-0.4-1.1-0.9-1.5-1.5c-0.4-0.6-0.5-1.4-0.5-2.2c0-0.8,0.2-1.6,0.5-2.2
		c0.3-0.6,0.8-1.1,1.5-1.5c0.6-0.4,1.3-0.5,2.2-0.5c0.8,0,1.5,0.2,2.1,0.5c0.6,0.3,1.1,0.8,1.4,1.4c0.3,0.6,0.5,1.3,0.5,2.1
		C265.9,51.8,265.9,52.1,265.8,52.4z M264.1,51c0-0.6-0.2-1.1-0.7-1.5c-0.4-0.4-1-0.6-1.6-0.6c-0.6,0-1.1,0.2-1.5,0.6
		s-0.7,0.9-0.8,1.5H264.1z"/>
	<path d="M274.4,47.9c0.5-0.3,1.1-0.4,1.7-0.4c0.7,0,1.4,0.2,2,0.5c0.6,0.4,1.1,0.9,1.4,1.5s0.5,1.4,0.5,2.2s-0.2,1.6-0.5,2.2
		c-0.3,0.7-0.8,1.2-1.4,1.5c-0.6,0.4-1.3,0.5-2,0.5c-0.6,0-1.2-0.1-1.7-0.4c-0.5-0.3-0.9-0.6-1.2-1v5.1h-1.7V47.6h1.7v1.2
		C273.5,48.4,273.9,48.1,274.4,47.9z M277.9,50.2c-0.2-0.4-0.5-0.7-0.9-0.9s-0.8-0.3-1.2-0.3c-0.4,0-0.8,0.1-1.2,0.3s-0.7,0.5-0.9,1
		c-0.2,0.4-0.4,0.9-0.4,1.5c0,0.6,0.1,1.1,0.4,1.5c0.2,0.4,0.5,0.7,0.9,1c0.4,0.2,0.8,0.3,1.2,0.3c0.4,0,0.9-0.1,1.2-0.3
		c0.4-0.2,0.7-0.6,0.9-1c0.2-0.4,0.4-0.9,0.4-1.5C278.2,51.1,278.1,50.6,277.9,50.2z"/>
	<path d="M281.6,49.5c0.3-0.6,0.8-1.1,1.4-1.5c0.6-0.4,1.3-0.5,2-0.5c0.6,0,1.2,0.1,1.7,0.4s0.9,0.6,1.2,1v-1.2h1.7v8.3h-1.7v-1.2
		c-0.3,0.4-0.7,0.7-1.2,1c-0.5,0.3-1.1,0.4-1.7,0.4c-0.7,0-1.4-0.2-2-0.5c-0.6-0.4-1.1-0.9-1.4-1.5c-0.3-0.7-0.5-1.4-0.5-2.2
		S281.2,50.1,281.6,49.5z M287.5,50.2c-0.2-0.4-0.5-0.7-0.9-1s-0.8-0.3-1.2-0.3c-0.4,0-0.9,0.1-1.2,0.3s-0.7,0.5-0.9,0.9
		c-0.2,0.4-0.4,0.9-0.4,1.5c0,0.6,0.1,1.1,0.4,1.5c0.2,0.4,0.5,0.8,0.9,1c0.4,0.2,0.8,0.3,1.2,0.3c0.4,0,0.8-0.1,1.2-0.3
		c0.4-0.2,0.7-0.5,0.9-1c0.2-0.4,0.4-0.9,0.4-1.5C287.8,51.2,287.7,50.7,287.5,50.2z"/>
	<path d="M294.5,47.8c0.4-0.2,0.9-0.4,1.5-0.4v1.8h-0.4c-0.7,0-1.2,0.2-1.5,0.5s-0.5,0.9-0.5,1.8v4.4h-1.7v-8.3h1.7v1.2
		C293.8,48.4,294.1,48.1,294.5,47.8z"/>
	<path d="M305.1,52.4h-6.3c0,0.7,0.3,1.2,0.7,1.6c0.4,0.4,1,0.6,1.6,0.6c0.9,0,1.6-0.4,2-1.2h1.8c-0.2,0.8-0.7,1.4-1.4,1.9
		c-0.7,0.5-1.5,0.7-2.4,0.7c-0.8,0-1.5-0.2-2.1-0.5c-0.6-0.4-1.1-0.9-1.5-1.5c-0.4-0.6-0.5-1.4-0.5-2.2c0-0.8,0.2-1.6,0.5-2.2
		c0.3-0.6,0.8-1.1,1.5-1.5c0.6-0.4,1.3-0.5,2.2-0.5c0.8,0,1.5,0.2,2.1,0.5c0.6,0.3,1.1,0.8,1.4,1.4c0.3,0.6,0.5,1.3,0.5,2.1
		C305.2,51.8,305.1,52.1,305.1,52.4z M303.4,51c0-0.6-0.2-1.1-0.7-1.5c-0.4-0.4-1-0.6-1.6-0.6c-0.6,0-1.1,0.2-1.5,0.6
		s-0.7,0.9-0.8,1.5H303.4z"/>
	<path d="M312.7,47.9c0.5,0.3,0.9,0.7,1.2,1.2s0.4,1.2,0.4,1.9v4.9h-1.7v-4.6c0-0.7-0.2-1.3-0.6-1.7c-0.4-0.4-0.9-0.6-1.5-0.6
		s-1.1,0.2-1.5,0.6c-0.4,0.4-0.6,1-0.6,1.7v4.6h-1.7v-8.3h1.7v0.9c0.3-0.3,0.6-0.6,1.1-0.8c0.4-0.2,0.9-0.3,1.4-0.3
		C311.7,47.5,312.2,47.6,312.7,47.9z"/>
	<path d="M318.6,49v4.6c0,0.3,0.1,0.5,0.2,0.7c0.1,0.1,0.4,0.2,0.7,0.2h1v1.4h-1.3c-0.8,0-1.4-0.2-1.8-0.5c-0.4-0.4-0.6-0.9-0.6-1.8
		V49h-1v-1.4h1v-2.1h1.7v2.1h2V49H318.6z"/>
	<path d="M323.4,55.7c-0.5-0.2-0.9-0.6-1.2-1s-0.5-0.9-0.5-1.4h1.8c0,0.3,0.2,0.6,0.5,0.9c0.3,0.2,0.7,0.4,1.1,0.4
		c0.5,0,0.9-0.1,1.1-0.3c0.3-0.2,0.4-0.4,0.4-0.7c0-0.3-0.1-0.5-0.4-0.7c-0.3-0.1-0.8-0.3-1.4-0.5c-0.6-0.2-1.1-0.3-1.5-0.5
		c-0.4-0.2-0.7-0.4-1-0.7s-0.4-0.8-0.4-1.3c0-0.4,0.1-0.8,0.4-1.2c0.3-0.4,0.6-0.7,1.1-0.9s1-0.3,1.7-0.3c0.9,0,1.7,0.2,2.3,0.7
		s0.9,1.1,0.9,1.9h-1.7c0-0.4-0.2-0.7-0.4-0.9c-0.3-0.2-0.6-0.3-1.1-0.3c-0.4,0-0.8,0.1-1,0.3c-0.2,0.2-0.4,0.4-0.4,0.7
		c0,0.2,0.1,0.4,0.2,0.6c0.2,0.2,0.4,0.3,0.6,0.4c0.2,0.1,0.6,0.2,1,0.3c0.6,0.2,1.1,0.3,1.5,0.5s0.7,0.4,1,0.7
		c0.3,0.3,0.4,0.7,0.4,1.3c0,0.5-0.1,0.9-0.4,1.3c-0.3,0.4-0.6,0.7-1.1,0.9c-0.5,0.2-1,0.3-1.7,0.3C324.5,56,323.9,55.9,323.4,55.7z
		"/>
</g>
</svg>
