<?xml version="1.0" encoding="UTF-8" standalone="no"?>
<!-- Generator: Adobe Illustrator 27.3.1, SVG Export Plug-In . SVG Version: 6.00 Build 0)  -->

<svg
   version="1.1"
   x="0px"
   y="0px"
   viewBox="0 0 244.95486 99.282"
   xml:space="preserve"
   id="svg2548"
   sodipodi:docname="logo-cd44-caf44-horizontal.svg"
   width="244.95486"
   height="99.281998"
   inkscape:version="1.2.2 (732a01da63, 2022-12-09)"
   xmlns:inkscape="http://www.inkscape.org/namespaces/inkscape"
   xmlns:sodipodi="http://sodipodi.sourceforge.net/DTD/sodipodi-0.dtd"
   xmlns="http://www.w3.org/2000/svg"
   xmlns:svg="http://www.w3.org/2000/svg"><defs
   id="defs2552"><clipPath
     clipPathUnits="userSpaceOnUse"
     id="clipPath951"><rect
       style="opacity:0;fill:#ffffff"
       id="rect953"
       width="744.26227"
       height="88.356979"
       x="38.696484"
       y="46.43578" /></clipPath></defs><sodipodi:namedview
   id="namedview2550"
   pagecolor="#ffffff"
   bordercolor="#000000"
   borderopacity="0.25"
   inkscape:showpageshadow="2"
   inkscape:pageopacity="0.0"
   inkscape:pagecheckerboard="0"
   inkscape:deskcolor="#d1d1d1"
   showgrid="false"
   inkscape:zoom="4.0318346"
   inkscape:cx="72.919658"
   inkscape:cy="47.124949"
   inkscape:window-width="1680"
   inkscape:window-height="997"
   inkscape:window-x="-8"
   inkscape:window-y="-8"
   inkscape:window-maximized="1"
   inkscape:current-layer="svg2548" />
<style
   type="text/css"
   id="style2356">
	.st0{fill:#009E9F;stroke:#FFFFFF;}
	.st1{fill:#0061AC;stroke:#FFFFFF;}
	.st2{fill:#BCCAE8;}
	.st3{fill:#FFFFFF;}
</style>

























<g
   id="g2822"
   transform="matrix(0.6,0,0,0.6,0,-0.006)"><path
     class="st0"
     d="M 0.5,164.97 V 53.8 H 102.39 V 164.98 H 0.5 Z"
     id="path2358" /><path
     class="st1"
     d="M 0.5,103.1 V 0.51 H 102.39 V 103.1 Z"
     id="path2360" /><g
     id="g2374">
	<path
   class="st2"
   d="m 26.62,51.29 c -1.02,-0.67 -3.73,-2.27 -4.39,-2.92 -0.8,-0.78 -1.31,-2.09 -0.9,-3.81 H 6.8 v 6.73 z"
   id="path2362" />
	<g
   id="g2366">
		<path
   class="st2"
   d="m 45.45,48.48 c -0.96,0.57 -5.32,2.81 -5.32,2.81 h 7 c 0,-0.36 0.73,-1.15 0.73,-1.15 -2.01,0.11 -2.41,-1.66 -2.41,-1.66 z"
   id="path2364" />
	</g>
	<g
   id="g2370">
		<path
   class="st2"
   d="m 58.66,48.48 c 0.57,0.47 4.48,2.81 4.48,2.81 h -6.88 c 0,-0.36 -0.45,-1.2 -0.45,-1.2 2.16,0.25 2.85,-1.61 2.85,-1.61 z"
   id="path2368" />
	</g>
	<path
   class="st2"
   d="m 76.86,51.29 c 0,0 4.33,-2.22 5.26,-3.02 0.81,-0.7 2.02,-2.3 1.61,-3.73 H 96.21 V 51.3 H 76.86 Z"
   id="path2372" />
</g><g
     id="g2460">
	<g
   id="g2386">
		<g
   id="g2380">
			<path
   class="st3"
   d="m 37.22,23.67 c 1.78,0 3.43,-1.45 3.68,-3.23 0.25,-1.78 -0.99,-3.23 -2.78,-3.23 -1.78,0 -3.43,1.45 -3.68,3.23 -0.25,1.78 0.99,3.23 2.78,3.23 z"
   id="path2376" />
			<path
   class="st3"
   d="M 37.67,20.44"
   id="path2378" />
		</g>
		<path
   class="st3"
   d="M 28.87,23.85"
   id="path2382" />
		<path
   class="st3"
   d="M 36.96,25.29 44,21.35 c 0.7,-0.37 1.28,-0.53 1.87,-0.53 1.67,0 2.84,1.36 2.6,3.03 -0.14,1.03 -0.79,1.94 -1.65,2.48 l -5.32,3 c 0,0 -0.72,5.06 -1.09,7.68 -0.11,0.76 -1.17,1.23 -1.79,0.86 -1.06,-0.63 -3.16,-1.98 -3.16,-1.98 0,0 -2.47,1.35 -3.71,1.98 -0.73,0.37 -1.66,-0.1 -1.55,-0.86 0.37,-2.62 1.07,-7.68 1.07,-7.68 l -4.48,-3 c -0.71,-0.55 -1.09,-1.46 -0.95,-2.48 0.24,-1.67 1.78,-3.03 3.45,-3.03 0.59,0 1.13,0.16 1.55,0.45 z"
   id="path2384" />
	</g>
	<g
   id="g2398">
		<g
   id="g2392">
			<path
   class="st3"
   d="m 57.04,13.08 c 1.78,0 3.43,-1.45 3.68,-3.23 0.25,-1.78 -0.99,-3.23 -2.78,-3.23 -1.78,0 -3.43,1.45 -3.68,3.23 -0.24,1.78 1,3.23 2.78,3.23 z"
   id="path2388" />
			<path
   class="st3"
   d="M 57.5,9.85"
   id="path2390" />
		</g>
		<path
   class="st3"
   d="M 48.7,13.26"
   id="path2394" />
		<path
   class="st3"
   d="m 56.79,14.7 7.04,-3.94 c 0.7,-0.37 1.28,-0.53 1.87,-0.53 1.67,0 2.84,1.36 2.6,3.03 -0.15,1.03 -0.79,1.94 -1.65,2.48 l -5.32,3 c 0,0 -0.72,5.06 -1.09,7.68 -0.11,0.76 -1.17,1.23 -1.79,0.86 -1.06,-0.63 -3.16,-1.98 -3.16,-1.98 0,0 -2.47,1.35 -3.71,1.98 -0.72,0.37 -1.66,-0.1 -1.55,-0.86 0.37,-2.62 1.07,-7.68 1.07,-7.68 l -4.48,-3 c -0.71,-0.55 -1.09,-1.46 -0.95,-2.48 0.24,-1.67 1.78,-3.03 3.45,-3.03 0.59,0 1.13,0.16 1.55,0.45 z"
   id="path2396" />
	</g>
	<g
   id="g2410">
		<g
   id="g2404">
			<path
   class="st3"
   d="m 73.83,23.67 c 1.78,0 3.43,-1.45 3.68,-3.23 0.25,-1.78 -0.99,-3.23 -2.78,-3.23 -1.78,0 -3.43,1.45 -3.68,3.23 -0.25,1.78 0.99,3.23 2.78,3.23 z"
   id="path2400" />
			<path
   class="st3"
   d="M 74.28,20.44"
   id="path2402" />
		</g>
		<path
   class="st3"
   d="M 65.48,23.85"
   id="path2406" />
		<path
   class="st3"
   d="m 73.57,25.29 7.04,-3.94 c 0.7,-0.37 1.28,-0.53 1.87,-0.53 1.67,0 2.84,1.36 2.6,3.03 -0.14,1.03 -0.79,1.94 -1.65,2.48 l -5.32,3 c 0,0 -0.72,5.06 -1.09,7.68 -0.11,0.76 -1.17,1.23 -1.79,0.86 -1.06,-0.63 -3.16,-1.98 -3.16,-1.98 0,0 -2.47,1.35 -3.71,1.98 -0.73,0.37 -1.66,-0.1 -1.55,-0.86 0.37,-2.62 1.06,-7.68 1.06,-7.68 l -4.48,-3 c -0.71,-0.55 -1.09,-1.46 -0.95,-2.48 0.24,-1.67 1.78,-3.03 3.45,-3.03 0.59,0 1.13,0.16 1.55,0.45 z"
   id="path2408" />
	</g>
	<g
   id="g2422">
		<g
   id="g2416">
			<path
   class="st3"
   d="m 70.75,45.05 c 1.78,0 3.43,-1.45 3.68,-3.23 0.25,-1.78 -0.99,-3.23 -2.78,-3.23 -1.78,0 -3.43,1.45 -3.68,3.23 -0.25,1.78 0.99,3.23 2.78,3.23 z"
   id="path2412" />
			<path
   class="st3"
   d="M 71.2,41.82"
   id="path2414" />
		</g>
		<path
   class="st3"
   d="M 62.4,45.23"
   id="path2418" />
		<path
   class="st3"
   d="m 70.49,46.67 7.04,-3.94 c 0.7,-0.37 1.28,-0.53 1.87,-0.53 1.67,0 2.84,1.36 2.6,3.03 -0.14,1.03 -0.79,1.94 -1.65,2.48 l -5.32,3 c 0,0 -0.72,5.06 -1.09,7.68 -0.11,0.76 -1.17,1.23 -1.79,0.86 C 71.09,58.63 69,57.28 69,57.28 c 0,0 -2.47,1.35 -3.71,1.98 -0.73,0.37 -1.66,-0.1 -1.55,-0.86 0.37,-2.62 1.06,-7.68 1.06,-7.68 l -4.47,-3 c -0.71,-0.55 -1.09,-1.46 -0.95,-2.48 0.24,-1.67 1.78,-3.03 3.45,-3.03 0.59,0 1.13,0.16 1.55,0.45 z"
   id="path2420" />
	</g>
	<g
   id="g2434">
		<g
   id="g2428">
			<path
   class="st3"
   d="m 54.05,34.36 c 1.78,0 3.43,-1.45 3.68,-3.23 0.25,-1.78 -0.99,-3.23 -2.78,-3.23 -1.78,0 -3.43,1.45 -3.68,3.23 -0.24,1.78 1,3.23 2.78,3.23 z"
   id="path2424" />
			<path
   class="st3"
   d="M 54.51,31.13"
   id="path2426" />
		</g>
		<path
   class="st3"
   d="M 45.71,34.54"
   id="path2430" />
		<path
   class="st3"
   d="m 53.8,35.98 7.04,-3.94 c 0.7,-0.37 1.28,-0.53 1.87,-0.53 1.67,0 2.84,1.36 2.6,3.03 -0.14,1.03 -0.79,1.94 -1.65,2.48 l -5.32,3 c 0,0 -0.72,5.06 -1.09,7.68 -0.11,0.76 -1.17,1.23 -1.79,0.86 -1.06,-0.63 -3.16,-1.98 -3.16,-1.98 0,0 -2.47,1.35 -3.71,1.98 -0.72,0.37 -1.66,-0.1 -1.55,-0.86 0.36,-2.62 1.06,-7.68 1.06,-7.68 l -4.48,-3 c -0.71,-0.55 -1.09,-1.46 -0.95,-2.48 0.23,-1.67 1.78,-3.03 3.45,-3.03 0.59,0 1.13,0.16 1.55,0.45 z"
   id="path2432" />
	</g>
	<g
   id="g2446">
		<g
   id="g2440">
			<path
   class="st3"
   d="m 51.08,55.63 c 1.78,0 3.43,-1.45 3.68,-3.23 0.25,-1.78 -0.99,-3.23 -2.78,-3.23 -1.78,0 -3.43,1.45 -3.68,3.23 -0.25,1.79 1,3.23 2.78,3.23 z"
   id="path2436" />
			<path
   class="st3"
   d="M 51.53,52.41"
   id="path2438" />
		</g>
		<path
   class="st3"
   d="M 42.74,55.82"
   id="path2442" />
		<path
   class="st3"
   d="m 50.83,57.26 7.04,-3.94 c 0.7,-0.37 1.28,-0.53 1.87,-0.53 1.67,0 2.84,1.36 2.6,3.03 -0.14,1.03 -0.79,1.94 -1.65,2.48 l -5.32,3 c 0,0 -0.72,5.06 -1.09,7.68 -0.11,0.76 -1.17,1.23 -1.79,0.86 -1.06,-0.63 -3.16,-1.98 -3.16,-1.98 0,0 -2.47,1.35 -3.71,1.98 -0.72,0.37 -1.66,-0.1 -1.55,-0.86 0.36,-2.62 1.06,-7.68 1.06,-7.68 l -4.48,-3 c -0.71,-0.55 -1.09,-1.46 -0.95,-2.48 0.23,-1.67 1.78,-3.03 3.45,-3.03 0.59,0 1.13,0.16 1.55,0.45 z"
   id="path2444" />
	</g>
	<g
   id="g2458">
		<g
   id="g2452">
			<path
   class="st3"
   d="m 34.23,44.94 c 1.78,0 3.43,-1.45 3.68,-3.23 0.25,-1.78 -0.99,-3.23 -2.78,-3.23 -1.78,0 -3.43,1.45 -3.68,3.23 -0.25,1.79 0.99,3.23 2.78,3.23 z"
   id="path2448" />
			<path
   class="st3"
   d="M 34.68,41.71"
   id="path2450" />
		</g>
		<path
   class="st3"
   d="M 25.88,45.13"
   id="path2454" />
		<path
   class="st3"
   d="m 33.97,46.57 7.04,-3.94 c 0.7,-0.37 1.28,-0.53 1.87,-0.53 1.67,0 2.84,1.36 2.6,3.03 -0.14,1.03 -0.79,1.94 -1.65,2.48 l -5.32,3 c 0,0 -0.72,5.06 -1.09,7.68 -0.11,0.76 -1.17,1.23 -1.79,0.86 -1.06,-0.63 -3.16,-1.98 -3.16,-1.98 0,0 -2.47,1.35 -3.71,1.98 -0.73,0.37 -1.66,-0.1 -1.55,-0.86 0.37,-2.62 1.06,-7.68 1.06,-7.68 l -4.47,-3 c -0.71,-0.55 -1.09,-1.46 -0.95,-2.48 0.24,-1.67 1.78,-3.03 3.45,-3.03 0.59,0 1.13,0.16 1.55,0.45 z"
   id="path2456" />
	</g>
</g><path
     class="st3"
     d="m 11.8,81.05 1.67,-2.79 0.52,2.79 z m 2.33,0.73 c 0.17,0.81 0.26,1.62 0.36,2.52 0.35,-0.02 0.7,-0.06 1.04,-0.06 0.35,0 0.68,0.04 1.02,0.06 L 14.82,75.96 C 14.66,75.98 14.51,76 14.36,76 14.2,76 14.06,75.99 13.91,75.96 l -5.05,8.32 c 0.19,-0.01 0.39,-0.04 0.58,-0.04 0.19,0 0.37,0.02 0.56,0.04 0.39,-0.83 0.84,-1.58 1.32,-2.49 h 2.81 z"
     id="path2462" /><path
     class="st3"
     d="m 19.66,83.38 c 1.05,0 1.95,-0.08 2.78,-0.17 -0.06,0.17 -0.13,0.35 -0.16,0.51 -0.03,0.17 -0.03,0.35 -0.04,0.51 H 17.7 l 1.59,-8.17 c 0.29,0.02 0.59,0.06 0.89,0.06 0.3,0 0.61,-0.04 0.91,-0.06 z"
     id="path2464" /><path
     class="st3"
     d="m 25.66,83.38 c 1.05,0 1.95,-0.08 2.78,-0.17 -0.06,0.17 -0.13,0.35 -0.16,0.51 -0.03,0.17 -0.03,0.35 -0.04,0.51 H 23.7 l 1.59,-8.17 c 0.29,0.02 0.59,0.06 0.89,0.06 0.3,0 0.61,-0.04 0.91,-0.06 z"
     id="path2466" /><path
     class="st3"
     d="m 35.28,76.58 c 1.8,0 2.18,1.77 1.88,3.32 -0.39,1.99 -1.57,3.84 -3.42,3.84 -1.8,0 -2.19,-1.65 -1.88,-3.21 0.51,-2.69 1.75,-3.95 3.42,-3.95 z m 3.82,3.55 c 0.35,-1.86 -0.19,-4.27 -3.6,-4.27 -2.99,0 -5.1,1.93 -5.56,4.32 -0.53,2.72 0.95,4.28 3.6,4.28 2.94,0 5.12,-1.99 5.56,-4.33 z"
     id="path2468" /><path
     class="st3"
     d="m 46.43,82.91 -0.46,1.03 c -0.79,0.37 -1.67,0.51 -2.48,0.51 -2.57,0 -4.2,-1.58 -3.72,-4.04 0.61,-3.13 3.04,-4.55 5.65,-4.55 0.79,0 1.71,0.2 2.33,0.59 -0.19,0.41 -0.34,0.82 -0.52,1.23 h -0.17 c -0.32,-0.65 -1,-1.1 -1.78,-1.1 -1.99,0 -3.17,1.91 -3.51,3.67 -0.4,2.05 0.33,3.49 2.18,3.49 0.74,0 1.68,-0.38 2.32,-0.9 z"
     id="path2470" /><path
     class="st3"
     d="m 49.81,81.05 1.67,-2.79 0.52,2.79 z m 2.32,0.73 c 0.17,0.81 0.26,1.62 0.36,2.52 0.35,-0.02 0.7,-0.06 1.04,-0.06 0.35,0 0.68,0.04 1.02,0.06 L 52.82,75.96 C 52.66,75.98 52.52,76 52.36,76 52.2,76 52.06,75.99 51.91,75.96 l -5.05,8.32 c 0.19,-0.01 0.39,-0.04 0.58,-0.04 0.19,0 0.37,0.02 0.56,0.04 0.39,-0.83 0.83,-1.58 1.32,-2.49 h 2.81 z"
     id="path2472" /><path
     class="st3"
     d="m 58.98,84.3 c -0.29,-0.02 -0.59,-0.06 -0.89,-0.06 -0.3,0 -0.61,0.04 -0.91,0.06 l 1.43,-7.38 c -0.85,0 -1.62,0.08 -2.27,0.17 0.06,-0.17 0.13,-0.34 0.16,-0.52 0.03,-0.17 0.03,-0.34 0.04,-0.51 h 6.18 c -0.06,0.17 -0.13,0.34 -0.16,0.51 -0.04,0.18 -0.03,0.35 -0.04,0.52 -0.69,-0.08 -1.38,-0.17 -2.12,-0.17 z"
     id="path2474" /><path
     class="st3"
     d="m 64.08,76.07 c 0.29,0.02 0.59,0.06 0.89,0.06 0.3,0 0.61,-0.04 0.91,-0.06 l -1.6,8.23 c -0.29,-0.02 -0.59,-0.06 -0.89,-0.06 -0.3,0 -0.61,0.04 -0.91,0.06 z"
     id="path2476" /><path
     class="st3"
     d="m 71.95,76.58 c 1.8,0 2.18,1.77 1.88,3.32 -0.39,1.99 -1.57,3.84 -3.42,3.84 -1.8,0 -2.19,-1.65 -1.89,-3.21 0.52,-2.69 1.76,-3.95 3.43,-3.95 z m 3.82,3.55 c 0.35,-1.86 -0.19,-4.27 -3.61,-4.27 -2.99,0 -5.1,1.93 -5.56,4.32 -0.53,2.72 0.95,4.28 3.6,4.28 2.95,0 5.13,-1.99 5.57,-4.33 z"
     id="path2478" /><path
     class="st3"
     d="m 77.99,76.07 h 1.18 c 1.35,1.86 2.78,3.68 4.1,5.62 l 1.09,-5.62 c 0.15,0.02 0.31,0.04 0.47,0.04 0.16,0 0.32,-0.01 0.48,-0.04 l -1.6,8.23 -1.01,-0.01 c -1.09,-1.55 -2.1,-3.02 -3.19,-4.45 l -1.04,-1.37 -1.13,5.81 c -0.15,-0.01 -0.31,-0.04 -0.47,-0.04 -0.16,0 -0.33,0.02 -0.48,0.04 z"
     id="path2480" /><path
     class="st3"
     d="m 90.68,77.62 c -0.12,-0.64 -0.49,-1.04 -1.17,-1.04 -0.95,0 -1.42,0.49 -1.55,1.17 -0.32,1.62 3.39,1.32 2.85,4.06 -0.3,1.54 -1.83,2.64 -3.69,2.64 -0.66,0 -1.34,-0.16 -1.83,-0.51 0.24,-0.5 0.47,-1.01 0.64,-1.52 h 0.23 c 0.02,0.83 0.57,1.32 1.4,1.32 0.75,0 1.49,-0.42 1.65,-1.25 0.37,-1.92 -3.34,-1.22 -2.78,-4.11 0.27,-1.38 1.44,-2.52 3.26,-2.52 0.86,0 1.57,0.32 1.78,0.58 -0.22,0.38 -0.41,0.78 -0.61,1.19 h -0.18 z"
     id="path2482" /><path
     class="st3"
     d="m 18.96,96.42 c -0.29,-0.02 -0.59,-0.06 -0.89,-0.06 -0.3,0 -0.61,0.04 -0.91,0.06 l 1.6,-8.23 h 4.57 c -0.06,0.17 -0.13,0.35 -0.16,0.52 -0.03,0.17 -0.03,0.35 -0.04,0.52 -0.72,-0.08 -1.48,-0.17 -2.74,-0.17 l -0.5,2.59 h 1.27 c 0.47,0 0.96,-0.05 1.47,-0.11 -0.06,0.17 -0.13,0.35 -0.16,0.52 -0.03,0.17 -0.03,0.35 -0.04,0.52 -0.49,-0.05 -0.96,-0.11 -1.44,-0.11 h -1.26 z"
     id="path2484" /><path
     class="st3"
     d="m 25.32,93.18 1.67,-2.79 0.52,2.79 z m 2.33,0.73 c 0.17,0.81 0.26,1.62 0.36,2.52 0.35,-0.02 0.7,-0.06 1.04,-0.06 0.35,0 0.68,0.04 1.02,0.06 l -1.73,-8.34 c -0.16,0.02 -0.31,0.04 -0.46,0.04 -0.16,0 -0.3,-0.01 -0.45,-0.04 l -5.05,8.32 c 0.19,-0.01 0.39,-0.04 0.58,-0.04 0.19,0 0.37,0.02 0.56,0.04 0.39,-0.83 0.83,-1.58 1.32,-2.49 h 2.81 z"
     id="path2486" /><path
     class="st3"
     d="m 40.02,88.19 c 0.16,0.03 0.33,0.06 0.49,0.06 0.17,0 0.35,-0.04 0.53,-0.06 -0.26,3.23 -0.49,5.84 -0.54,8.23 -0.33,-0.02 -0.65,-0.06 -0.98,-0.06 -0.33,0 -0.64,0.04 -0.98,0.06 0.27,-1.91 0.39,-3.74 0.57,-5.59 -1.27,1.84 -2.53,3.67 -3.74,5.53 -0.15,-0.02 -0.29,-0.04 -0.46,0 -0.45,-1.66 -1.04,-3.52 -1.58,-5.4 -0.69,2.11 -1.2,3.78 -1.57,5.46 -0.19,-0.02 -0.36,-0.06 -0.55,-0.06 -0.19,0 -0.37,0.04 -0.56,0.06 0.9,-2.41 1.82,-5.2 2.82,-8.23 0.16,0.03 0.31,0.06 0.48,0.06 0.17,0 0.34,-0.04 0.52,-0.06 0.5,1.88 1.09,3.76 1.67,5.64 1.18,-1.7 2.57,-3.59 3.88,-5.64 z"
     id="path2488" /><path
     class="st3"
     d="m 43.59,88.19 c 0.29,0.03 0.59,0.06 0.89,0.06 0.3,0 0.61,-0.04 0.91,-0.06 l -1.6,8.23 C 43.5,96.4 43.2,96.36 42.9,96.36 c -0.3,0 -0.61,0.04 -0.91,0.06 z"
     id="path2490" /><path
     class="st3"
     d="m 47.84,95.5 c 1.04,0 1.95,-0.08 2.78,-0.17 -0.06,0.17 -0.13,0.35 -0.16,0.51 -0.03,0.17 -0.03,0.35 -0.04,0.51 h -4.54 l 1.59,-8.17 c 0.3,0.03 0.59,0.06 0.89,0.06 0.3,0 0.61,-0.04 0.91,-0.06 z"
     id="path2492" /><path
     class="st3"
     d="m 53.59,88.19 c 0.3,0.03 0.59,0.06 0.89,0.06 0.3,0 0.61,-0.04 0.91,-0.06 l -1.6,8.23 C 53.5,96.4 53.2,96.36 52.9,96.36 c -0.3,0 -0.61,0.04 -0.91,0.06 z"
     id="path2494" /><path
     class="st3"
     d="m 57.99,93.18 1.67,-2.79 0.52,2.79 z m 2.32,0.73 c 0.17,0.81 0.26,1.62 0.36,2.52 0.35,-0.02 0.7,-0.06 1.04,-0.06 0.35,0 0.68,0.04 1.02,0.06 L 61,88.09 c -0.16,0.02 -0.31,0.04 -0.46,0.04 -0.15,0 -0.29,-0.01 -0.45,-0.04 l -5.05,8.32 c 0.19,-0.01 0.39,-0.04 0.58,-0.04 0.19,0 0.37,0.02 0.56,0.04 0.39,-0.83 0.83,-1.58 1.32,-2.49 h 2.81 z"
     id="path2496" /><path
     class="st3"
     d="m 65.84,95.5 c 1.04,0 1.95,-0.08 2.78,-0.17 -0.06,0.17 -0.13,0.35 -0.16,0.51 -0.03,0.17 -0.03,0.35 -0.04,0.51 h -4.54 l 1.59,-8.17 c 0.29,0.03 0.59,0.06 0.89,0.06 0.3,0 0.61,-0.04 0.91,-0.06 z"
     id="path2498" /><path
     class="st3"
     d="m 76,88.19 c -0.06,0.17 -0.13,0.35 -0.16,0.52 -0.03,0.17 -0.03,0.35 -0.04,0.52 -0.71,-0.1 -1.51,-0.19 -2.74,-0.17 l -0.5,2.59 h 1.25 c 0.54,0 1.04,-0.05 1.5,-0.11 -0.06,0.17 -0.13,0.35 -0.16,0.52 -0.03,0.17 -0.03,0.35 -0.04,0.52 -0.43,-0.06 -0.92,-0.11 -1.46,-0.11 H 72.4 l -0.59,3.04 c 1.23,-0.01 2.05,-0.07 2.8,-0.17 -0.06,0.17 -0.13,0.35 -0.16,0.52 -0.03,0.17 -0.03,0.35 -0.04,0.52 h -4.57 l 1.59,-8.17 H 76 Z"
     id="path2500" /><path
     class="st3"
     d="m 80.86,89.75 c -0.12,-0.64 -0.49,-1.04 -1.17,-1.04 -0.95,0 -1.42,0.49 -1.55,1.17 -0.31,1.62 3.39,1.32 2.85,4.06 -0.3,1.53 -1.83,2.64 -3.69,2.64 -0.66,0 -1.34,-0.16 -1.83,-0.51 0.24,-0.5 0.47,-1.01 0.64,-1.52 h 0.23 c 0.02,0.83 0.57,1.32 1.4,1.32 0.74,0 1.49,-0.42 1.65,-1.25 0.37,-1.92 -3.34,-1.22 -2.78,-4.11 0.27,-1.38 1.44,-2.52 3.26,-2.52 0.86,0 1.57,0.32 1.78,0.58 -0.22,0.38 -0.41,0.78 -0.61,1.19 h -0.18 z"
     id="path2502" /><g
     id="g2546">
	<path
   class="st3"
   d="m 49.1,120.85 -0.44,1.72 c -1.2,0.62 -2.62,0.86 -3.96,0.86 -4.28,0 -7.52,-2.64 -7.52,-6.74 0,-5.22 3.6,-7.6 7.96,-7.6 1.32,0 2.92,0.34 4.08,0.98 -0.18,0.68 -0.3,1.36 -0.46,2.06 h -0.28 c -0.74,-1.08 -2.02,-1.84 -3.32,-1.84 -3.32,0 -4.66,3.18 -4.66,6.12 0,3.42 1.68,5.82 4.76,5.82 1.24,0 2.68,-0.64 3.58,-1.5 z"
   id="path2504" />
	<path
   class="st3"
   d="m 58.66,121.41 c 0,0.74 0.22,0.98 1.02,0.94 v 0.46 c -0.48,0.22 -1.24,0.54 -1.8,0.54 -0.94,0 -1.66,-0.58 -1.98,-1.46 -0.52,0.92 -1.52,1.46 -2.56,1.46 -1.64,0 -2.86,-0.9 -2.86,-2.64 0,-1.9 1.16,-2.46 3.66,-3.06 0.5,-0.12 1.02,-0.24 1.46,-0.52 0.24,-0.22 0.3,-0.48 0.3,-0.78 0,-0.96 -0.98,-1.76 -1.9,-1.76 -1.28,0 -2.32,0.88 -2.44,1.24 h -0.14 l -0.26,-1.2 c 0.94,-0.88 2.44,-1.34 3.7,-1.34 1.68,0 3.8,0.68 3.8,2.68 z m -2.76,-3.48 c -0.5,0.22 -1.4,0.4 -1.98,0.86 -0.52,0.42 -0.64,1.02 -0.64,1.66 0,0.74 0.24,1.6 1.1,1.6 1.22,0 1.48,-1.18 1.52,-2.18 z"
   id="path2506" />
	<path
   class="st3"
   d="m 60.18,114.75 c 0.06,-0.42 0.06,-0.8 0,-1.28 h 1.48 c 0.16,-1.08 0.42,-2.26 1.04,-3.32 0.98,-1.76 2.1,-2.42 4.14,-2.08 -0.14,0.84 -0.14,1.8 -0.08,2.54 l -0.26,0.1 c -0.5,-0.26 -1.18,-0.56 -1.76,-0.56 -0.34,0 -0.84,0 -1.1,0.26 -0.12,0.12 -0.24,0.22 -0.24,0.42 0,0.54 0.62,2.06 0.88,2.64 h 2.02 c -0.06,0.48 -0.06,0.8 0,1.28 h -1.88 v 8.42 c -0.46,-0.04 -0.92,-0.1 -1.38,-0.1 -0.46,0 -0.92,0.06 -1.38,0.1 v -8.42 z"
   id="path2508" />
	<path
   class="st3"
   d="m 32.74,138.14 c -0.29,-0.03 -0.57,-0.06 -0.86,-0.06 -0.3,0 -0.59,0.04 -0.87,0.06 V 137 c -0.27,0.77 -0.92,1.26 -1.78,1.26 -1.92,0 -2.56,-1.59 -2.56,-3.26 0,-1.65 0.79,-3.28 2.51,-3.28 0.77,0 1.39,0.26 1.77,0.94 v -4.39 c 0.3,0.03 0.6,0.06 0.9,0.06 0.3,0 0.6,-0.04 0.9,-0.06 z m -4.14,-3.11 c 0,0.75 0.09,2.38 1.14,2.38 1.12,0 1.26,-1.7 1.26,-2.52 0,-0.75 -0.12,-2.33 -1.16,-2.33 -1.11,0 -1.24,1.65 -1.24,2.47 z"
   id="path2510" />
	<path
   class="st3"
   d="m 35.88,134.99 c -0.04,1.34 0.43,2.42 1.81,2.42 0.53,0 1.12,-0.25 1.52,-0.58 l 0.16,0.12 -0.29,0.73 c -0.52,0.36 -1.22,0.58 -1.86,0.58 -2.16,0 -3.26,-1.3 -3.26,-3.42 0,-1.82 1.09,-3.12 2.98,-3.12 2.04,0 2.81,1.42 2.67,3.28 h -3.73 z m 1.92,-0.62 c 0,-0.69 -0.08,-2.07 -0.86,-2.07 -0.95,0 -1.04,1.38 -1.07,2.07 z"
   id="path2512" />
	<path
   class="st3"
   d="m 46.6,137.14 c 1.13,0 2.09,-0.09 2.98,-0.18 -0.03,0.18 -0.07,0.38 -0.07,0.56 0,0.18 0.04,0.38 0.07,0.56 h -4.93 v -8.85 c 0.33,0.03 0.65,0.06 0.98,0.06 0.32,0 0.65,-0.04 0.98,-0.06 v 7.91 z"
   id="path2514" />
	<path
   class="st3"
   d="m 50.54,135.12 c 0,-2.04 1.18,-3.41 3.17,-3.41 1.96,0 3.2,1.2 3.2,3.12 0,1.98 -1.17,3.42 -3.21,3.42 -1.92,0 -3.16,-1.21 -3.16,-3.13 z m 1.93,-0.04 c 0,0.83 0.1,2.59 1.23,2.59 1,-0.03 1.29,-1.61 1.29,-3.04 0,-1.26 -0.32,-2.33 -1.2,-2.33 -1.05,0 -1.32,1.25 -1.32,2.78 z"
   id="path2516" />
	<path
   class="st3"
   d="m 59.14,128.43 c 0.56,0 1.04,0.47 1.04,1.03 0,0.56 -0.48,1.03 -1.04,1.03 -0.56,0 -1.01,-0.48 -1.01,-1.03 -0.01,-0.55 0.45,-1.03 1.01,-1.03 z m -0.89,3.4 c 0.3,0.03 0.6,0.07 0.9,0.07 0.3,0 0.6,-0.04 0.9,-0.07 v 6.31 c -0.3,-0.03 -0.6,-0.06 -0.9,-0.06 -0.3,0 -0.6,0.04 -0.9,0.06 z"
   id="path2518" />
	<path
   class="st3"
   d="m 61.83,131.83 c 0.3,0.03 0.6,0.07 0.9,0.07 0.3,0 0.6,-0.04 0.9,-0.07 v 1.61 c 0.27,-0.95 0.85,-1.73 2.12,-1.73 -0.06,0.61 -0.1,1.21 -0.06,1.77 l -0.12,0.1 c -0.17,-0.12 -0.45,-0.17 -0.66,-0.17 -0.57,0 -1.04,0.3 -1.2,0.86 -0.12,0.38 -0.08,1.09 -0.08,1.51 v 2.35 c -0.3,-0.03 -0.6,-0.06 -0.9,-0.06 -0.3,0 -0.6,0.04 -0.9,0.06 z"
   id="path2520" />
	<path
   class="st3"
   d="m 68.24,134.99 c -0.04,1.34 0.43,2.42 1.81,2.42 0.53,0 1.12,-0.25 1.52,-0.58 l 0.16,0.12 -0.29,0.73 c -0.52,0.36 -1.22,0.58 -1.86,0.58 -2.16,0 -3.26,-1.3 -3.26,-3.42 0,-1.82 1.09,-3.12 2.98,-3.12 2.04,0 2.81,1.42 2.67,3.28 h -3.73 z m 1.92,-0.62 c 0,-0.69 -0.08,-2.07 -0.86,-2.07 -0.95,0 -1.04,1.38 -1.07,2.07 z"
   id="path2522" />
	<path
   class="st3"
   d="m 72.9,134.48 h 3.25 v 1.39 H 72.9 Z"
   id="path2524" />
	<path
   class="st3"
   d="m 24.17,150.42 c -0.34,0.99 -0.66,1.79 -0.91,2.69 -0.21,-0.01 -0.4,-0.04 -0.61,-0.04 -0.21,0 -0.42,0.03 -0.62,0.04 l 3.72,-9.01 c 0.17,0.03 0.33,0.04 0.49,0.04 0.17,0 0.32,-0.01 0.49,-0.04 l 3.63,9.04 c -0.38,-0.03 -0.74,-0.06 -1.12,-0.06 -0.38,0 -0.74,0.04 -1.12,0.06 -0.3,-0.96 -0.57,-1.85 -0.92,-2.72 z m 2.73,-0.79 -1.16,-3.03 -1.22,3.03 z"
   id="path2526" />
	<path
   class="st3"
   d="m 33.41,151.37 c 0,0.9 0.05,1.38 1.21,1.08 v 0.51 c -0.48,0.18 -0.95,0.3 -1.35,0.3 -1.35,0 -1.65,-0.9 -1.65,-2.11 v -3.48 h -0.88 c 0.04,-0.3 0.04,-0.53 0,-0.83 h 0.88 v -1.47 c 0.59,-0.23 1.17,-0.51 1.79,-0.81 v 2.27 h 1.1 c -0.04,0.3 -0.04,0.53 0,0.83 h -1.1 z"
   id="path2528" />
	<path
   class="st3"
   d="m 37.56,153.14 c -0.3,-0.03 -0.6,-0.06 -0.9,-0.06 -0.3,0 -0.6,0.04 -0.9,0.06 v -9.88 c 0.3,0.03 0.6,0.06 0.9,0.06 0.3,0 0.6,-0.04 0.9,-0.06 z"
   id="path2530" />
	<path
   class="st3"
   d="m 44.1,151.99 c 0,0.48 0.14,0.64 0.66,0.61 v 0.3 c -0.31,0.14 -0.81,0.35 -1.17,0.35 -0.61,0 -1.08,-0.38 -1.29,-0.95 -0.34,0.6 -0.99,0.95 -1.66,0.95 -1.07,0 -1.86,-0.58 -1.86,-1.72 0,-1.23 0.75,-1.6 2.38,-1.99 0.32,-0.08 0.66,-0.16 0.95,-0.34 0.16,-0.14 0.2,-0.31 0.2,-0.51 0,-0.62 -0.64,-1.14 -1.24,-1.14 -0.83,0 -1.51,0.57 -1.59,0.81 h -0.09 l -0.17,-0.78 c 0.61,-0.57 1.59,-0.87 2.4,-0.87 1.09,0 2.47,0.44 2.47,1.74 v 3.54 z m -1.79,-2.26 c -0.33,0.14 -0.91,0.26 -1.29,0.56 -0.34,0.27 -0.42,0.66 -0.42,1.08 0,0.48 0.16,1.04 0.71,1.04 0.79,0 0.96,-0.77 0.99,-1.42 v -1.26 z"
   id="path2532" />
	<path
   class="st3"
   d="m 45.69,146.83 c 0.29,0.03 0.57,0.07 0.87,0.07 0.29,0 0.57,-0.04 0.86,-0.07 v 0.96 c 0.52,-0.61 1.2,-1.08 2,-1.08 1.64,0 2.05,1.05 2.05,2.61 v 3.81 c -0.3,-0.03 -0.6,-0.06 -0.9,-0.06 -0.3,0 -0.6,0.04 -0.9,0.06 v -3.24 c 0,-1.21 -0.16,-2.09 -1.07,-2.09 -1.13,0 -1.13,1.52 -1.13,2.34 v 2.99 c -0.3,-0.03 -0.6,-0.06 -0.9,-0.06 -0.3,0 -0.6,0.04 -0.9,0.06 v -6.3 z"
   id="path2534" />
	<path
   class="st3"
   d="m 55.09,151.37 c 0,0.9 0.05,1.38 1.21,1.08 v 0.51 c -0.48,0.18 -0.95,0.3 -1.35,0.3 -1.35,0 -1.65,-0.9 -1.65,-2.11 v -3.48 h -0.88 c 0.04,-0.3 0.04,-0.53 0,-0.83 h 0.88 v -1.47 c 0.58,-0.23 1.17,-0.51 1.79,-0.81 v 2.27 h 1.1 c -0.04,0.3 -0.04,0.53 0,0.83 h -1.1 z"
   id="path2536" />
	<path
   class="st3"
   d="m 58.32,143.43 c 0.56,0 1.04,0.47 1.04,1.03 0,0.56 -0.48,1.03 -1.04,1.03 -0.56,0 -1.01,-0.48 -1.01,-1.03 0,-0.55 0.45,-1.03 1.01,-1.03 z m -0.88,3.4 c 0.3,0.03 0.6,0.07 0.9,0.07 0.3,0 0.6,-0.04 0.9,-0.07 v 6.31 c -0.3,-0.03 -0.6,-0.06 -0.9,-0.06 -0.3,0 -0.6,0.04 -0.9,0.06 z"
   id="path2538" />
	<path
   class="st3"
   d="m 64.95,146.83 c 0.29,0.03 0.57,0.07 0.87,0.07 0.29,0 0.57,-0.04 0.86,-0.07 v 9.61 c -0.3,-0.03 -0.6,-0.07 -0.9,-0.07 -0.3,0 -0.6,0.04 -0.9,0.07 v -4.12 c -0.29,0.47 -0.83,0.94 -1.68,0.94 -1.59,0 -2.6,-1.27 -2.6,-3.2 0,-1.98 0.75,-3.34 2.47,-3.34 0.95,0 1.52,0.42 1.87,1.26 v -1.15 z m -2.36,3.99 c 0.05,0.62 0.4,1.59 1.16,1.59 1.08,0 1.18,-1.51 1.18,-2.3 0,-0.82 -0.1,-2.55 -1.26,-2.55 -1.05,0 -1.13,1.6 -1.13,2.35 -0.01,0.3 0.02,0.61 0.05,0.91 z"
   id="path2540" />
	<path
   class="st3"
   d="m 73.82,153.14 c -0.29,-0.03 -0.57,-0.06 -0.86,-0.06 -0.3,0 -0.59,0.04 -0.87,0.06 v -0.95 c -0.61,0.65 -1.07,1.07 -1.98,1.07 -0.66,0 -1.35,-0.25 -1.74,-0.81 -0.4,-0.56 -0.34,-1.37 -0.34,-2.02 v -3.6 c 0.3,0.03 0.6,0.07 0.9,0.07 0.3,0 0.6,-0.04 0.9,-0.07 v 3.59 c 0,0.3 0.01,0.81 0.14,1.08 0.17,0.4 0.47,0.68 0.92,0.68 1.13,0 1.13,-1.13 1.13,-1.95 v -3.39 c 0.3,0.03 0.6,0.07 0.9,0.07 0.3,0 0.6,-0.04 0.9,-0.07 z"
   id="path2542" />
	<path
   class="st3"
   d="m 76.98,149.99 c -0.04,1.34 0.43,2.42 1.81,2.42 0.53,0 1.12,-0.25 1.52,-0.58 l 0.16,0.12 -0.29,0.73 c -0.52,0.36 -1.22,0.58 -1.86,0.58 -2.16,0 -3.26,-1.3 -3.26,-3.42 0,-1.82 1.09,-3.12 2.98,-3.12 2.04,0 2.81,1.42 2.67,3.28 h -3.73 z m 1.92,-0.62 c 0,-0.69 -0.08,-2.07 -0.86,-2.07 -0.95,0 -1.04,1.38 -1.07,2.07 z"
   id="path2544" />
</g></g>
<g
   id="g842"
   clip-path="url(#clipPath951)"
   transform="translate(-277.86513,-41.39)">
	<path
   class="st0"
   d="M 522.33,66.52 C 461.77,43.09 388.35,44.33 360.35,61.57 l 23.23,69.7 c 33.14,-20.38 55.33,-25.14 138.74,-20.19 V 66.52 Z"
   id="path794"
   style="fill:#204b65" />
	<g
   id="g798">
		<path
   class="st1"
   d="m 409.1,72.99 c -0.76,0.76 -1.71,1.24 -2.86,1.24 -1.15,0 -2.09,-0.38 -2.86,-1.24 -0.76,-0.76 -1.24,-1.71 -1.24,-2.86 0,-1.14 0.38,-2.09 1.24,-2.86 0.86,-0.86 1.71,-1.24 2.86,-1.24 1.15,0 2.09,0.38 2.86,1.24 0.86,0.86 1.24,1.71 1.24,2.86 0,1.15 -0.38,2.1 -1.24,2.86 m -2.85,-10.38 c -2.09,0 -3.9,0.76 -5.33,2.19 -1.43,1.43 -2.19,3.24 -2.19,5.33 0,2.09 0.76,3.9 2.19,5.33 1.43,1.43 3.24,2.19 5.33,2.19 2.09,0 3.9,-0.76 5.33,-2.19 1.52,-1.52 2.19,-3.24 2.19,-5.33 0,-2.09 -0.76,-3.81 -2.19,-5.33 -1.43,-1.43 -3.24,-2.19 -5.33,-2.19"
   id="path796"
   style="fill:#ffffff" />
	</g>
	<rect
   x="415.95999"
   y="62.799999"
   class="st1"
   width="3.4300001"
   height="14.66"
   id="rect800"
   style="fill:#ffffff" />
	<rect
   x="415.95999"
   y="57.950001"
   class="st1"
   width="3.4300001"
   height="3.4300001"
   id="rect802"
   style="fill:#ffffff" />
	<g
   id="g808">
		<g
   id="g806">
			<path
   class="st1"
   d="m 424.06,64.52 c -1.33,1.24 -2,2.76 -2,4.57 v 8.38 h 3.52 v -8.38 c 0,-0.86 0.29,-1.52 0.95,-2.09 0.67,-0.57 1.33,-0.86 2.29,-0.86 h 0.29 v -3.52 h -0.38 c -1.72,-0.01 -3.34,0.66 -4.67,1.9"
   id="path804"
   style="fill:#ffffff" />
		</g>
	</g>
	<polygon
   class="st1"
   points="404.53,82.8 404.53,87.66 402.34,87.66 402.34,91.08 404.53,91.08 404.53,102.23 408.06,102.23 408.06,91.08 410.25,91.08 410.25,87.66 408.06,87.66 408.06,82.8 "
   id="polygon810"
   style="fill:#ffffff" />
	<rect
   x="412.72"
   y="82.800003"
   class="st1"
   width="3.4300001"
   height="19.43"
   id="rect812"
   style="fill:#ffffff" />
	<g
   id="g818">
		<path
   class="st1"
   d="m 428.72,97.85 c -0.76,0.76 -1.71,1.24 -2.86,1.24 -1.14,0 -2.09,-0.38 -2.86,-1.24 -0.76,-0.76 -1.24,-1.71 -1.24,-2.86 0,-1.14 0.38,-2.09 1.24,-2.86 0.86,-0.86 1.71,-1.24 2.86,-1.24 1.14,0 2.09,0.38 2.86,1.24 0.86,0.86 1.24,1.71 1.24,2.86 0,1.05 -0.48,2 -1.24,2.86 m -2.86,-10.48 c -2.09,0 -3.9,0.76 -5.33,2.19 -1.43,1.43 -2.19,3.24 -2.19,5.33 0,2 0.76,3.81 2.09,5.33 1.43,1.52 3.14,2.19 5.24,2.19 1.62,0 3.05,-0.48 4.29,-1.43 v 1.24 h 3.52 v -7.33 c 0,-2.09 -0.76,-3.81 -2.19,-5.33 -1.62,-1.43 -3.43,-2.19 -5.43,-2.19"
   id="path814"
   style="fill:#ffffff" />
		<path
   class="st1"
   d="m 441.96,87.37 c -1.71,0 -3.24,0.67 -4.48,1.9 -1.24,1.33 -1.9,2.76 -1.9,4.48 v 8.38 h 3.43 v -8.38 c 0,-0.76 0.29,-1.52 0.86,-2.09 0.57,-0.57 1.24,-0.86 2.09,-0.86 0.76,0 1.52,0.29 2.09,0.86 0.57,0.57 0.86,1.24 0.86,2.09 v 8.38 h 3.52 v -8.38 c 0,-1.71 -0.67,-3.24 -1.9,-4.48 -1.43,-1.23 -2.86,-1.9 -4.57,-1.9"
   id="path816"
   style="fill:#ffffff" />
	</g>
	<polygon
   class="st1"
   points="451.58,82.8 451.58,87.66 449.38,87.66 449.38,91.08 451.58,91.08 451.58,102.23 455.1,102.23 455.1,91.08 457.29,91.08 457.29,87.66 455.1,87.66 455.1,82.8 "
   id="polygon820"
   style="fill:#ffffff" />
	<rect
   x="458.91"
   y="87.660004"
   class="st1"
   width="3.4300001"
   height="14.66"
   id="rect822"
   style="fill:#ffffff" />
	<rect
   x="458.91"
   y="82.800003"
   class="st1"
   width="3.4300001"
   height="3.4300001"
   id="rect824"
   style="fill:#ffffff" />
	<g
   id="g834">
		<path
   class="st1"
   d="m 474.91,97.85 c -0.76,0.76 -1.71,1.24 -2.86,1.24 -1.14,0 -2.09,-0.38 -2.86,-1.24 -0.76,-0.76 -1.24,-1.71 -1.24,-2.86 0,-1.14 0.38,-2.09 1.24,-2.86 0.86,-0.86 1.71,-1.24 2.86,-1.24 1.14,0 2.09,0.38 2.86,1.24 0.86,0.86 1.24,1.71 1.24,2.86 -0.01,1.05 -0.48,2 -1.24,2.86 m -2.86,-10.48 c -2.09,0 -3.9,0.76 -5.33,2.19 -1.43,1.43 -2.19,3.24 -2.19,5.33 0,2 0.76,3.81 2.09,5.33 1.43,1.52 3.14,2.19 5.24,2.19 1.62,0 3.05,-0.48 4.29,-1.43 v 8.19 h 3.52 V 94.89 c 0,-2.09 -0.76,-3.81 -2.19,-5.33 -1.62,-1.43 -3.43,-2.19 -5.43,-2.19"
   id="path826"
   style="fill:#ffffff" />
		<path
   class="st1"
   d="m 491.09,96.04 c 0,0.76 -0.29,1.52 -0.86,2.09 -0.57,0.57 -1.24,0.86 -2.09,0.86 -0.76,0 -1.52,-0.29 -2.09,-0.86 -0.57,-0.57 -0.86,-1.24 -0.86,-2.09 v -8.48 h -3.52 v 8.48 c 0,1.71 0.67,3.24 1.9,4.48 1.33,1.24 2.76,1.9 4.48,1.9 1.72,0 3.24,-0.67 4.48,-1.9 1.33,-1.24 2,-2.76 2,-4.48 V 87.56 H 491 Z"
   id="path828"
   style="fill:#ffffff" />
		<path
   class="st1"
   d="m 433.01,70.14 c 0,-1.14 0.38,-2.09 1.14,-2.86 0.76,-0.86 1.71,-1.24 2.86,-1.24 0.76,0 1.52,0.19 2.19,0.57 l -6.09,4.09 c -0.01,-0.18 -0.1,-0.37 -0.1,-0.56 m 7.04,2.85 c -0.76,0.86 -1.71,1.24 -2.86,1.24 -0.76,0 -1.52,-0.19 -2.19,-0.57 l 9.24,-6 -0.1,-0.29 c -0.67,-1.43 -1.62,-2.57 -2.86,-3.43 -1.24,-0.86 -2.67,-1.24 -4.19,-1.24 -2.09,0 -3.9,0.76 -5.33,2.19 -1.43,1.52 -2.19,3.24 -2.19,5.33 0,2.09 0.76,3.9 2.19,5.33 1.43,1.43 3.24,2.19 5.33,2.19 2.09,0 3.9,-0.76 5.33,-2.29 1.05,-1.05 1.62,-2.29 2,-3.62 h -3.71 c -0.09,0.4 -0.37,0.78 -0.66,1.16"
   id="path830"
   style="fill:#ffffff" />
		<path
   class="st1"
   d="m 499.57,94.99 c 0,-1.14 0.38,-2.09 1.14,-2.86 0.76,-0.86 1.71,-1.24 2.86,-1.24 0.76,0 1.52,0.19 2.19,0.57 l -6.19,4 c 0,-0.19 0,-0.38 0,-0.47 m 7.71,1.62 c -0.19,0.48 -0.48,0.86 -0.76,1.24 -0.76,0.86 -1.71,1.24 -2.86,1.24 -0.76,0 -1.52,-0.19 -2.19,-0.57 l 9.24,-6 -0.1,-0.29 c -0.67,-1.43 -1.62,-2.57 -2.86,-3.43 -1.24,-0.86 -2.67,-1.24 -4.19,-1.24 -2.09,0 -3.9,0.76 -5.33,2.19 -1.43,1.52 -2.19,3.24 -2.19,5.33 0,2.09 0.76,3.9 2.19,5.33 1.43,1.43 3.24,2.19 5.33,2.19 2.09,0 3.9,-0.76 5.33,-2.29 1.05,-1.05 1.62,-2.29 2,-3.62 h -3.62 v -0.08 z"
   id="path832"
   style="fill:#ffffff" />
	</g>
	<polygon
   class="st1"
   points="386.82,57.95 386.82,77.47 398.44,77.47 398.44,73.85 390.44,73.85 390.44,57.95 "
   id="polygon836"
   style="fill:#ffffff" />
	<path
   class="st1"
   d="m 391.87,95.75 2.67,-7.33 2.67,7.33 z m 7.71,6.48 h 3.9 L 396.62,82.8 h -4 l -6.86,19.43 h 3.81 l 1.14,-3.24 h 7.71 z"
   id="path838"
   style="fill:#ffffff" />
	<path
   class="st2"
   d="m 522.33,111.08 c -78.85,-5.24 -103.7,0.76 -127.51,13.62 h 127.51 z"
   id="path840"
   style="fill:#afcb3f" />
</g></svg>
