<?xml version="1.0" encoding="utf-8"?>
<!-- Generator: Adobe Illustrator 25.3.1, SVG Export Plug-In . SVG Version: 6.00 Build 0)  -->
<svg version="1.1" id="Calque_1" xmlns="http://www.w3.org/2000/svg" xmlns:xlink="http://www.w3.org/1999/xlink" x="0px" y="0px"
	 viewBox="0 0 111 28" style="enable-background:new 0 0 111 28;" xml:space="preserve">
<style type="text/css">
	.st0{enable-background:new    ;}
</style>
<g class="st0">
	<path d="M0.9,3.5h1.5v7.3h4V12H0.9V3.5z"/>
	<path d="M12.8,9H8.6c0,0.6,0.2,1.1,0.5,1.4c0.3,0.3,0.7,0.5,1.3,0.5c0.7,0,1.3-0.2,1.8-0.6l0.4,1c-0.3,0.2-0.6,0.4-1.1,0.6
		c-0.4,0.1-0.8,0.2-1.3,0.2c-1,0-1.8-0.3-2.3-0.8C7.4,10.7,7.2,9.9,7.2,9c0-0.6,0.1-1.2,0.4-1.6c0.2-0.5,0.6-0.9,1-1.1
		c0.4-0.3,1-0.4,1.5-0.4c0.8,0,1.5,0.3,2,0.8c0.5,0.5,0.7,1.3,0.7,2.2V9z M9.2,7.2c-0.3,0.2-0.4,0.6-0.5,1h2.8c0-0.5-0.2-0.8-0.4-1
		c-0.2-0.2-0.5-0.3-0.9-0.3C9.7,6.9,9.4,7,9.2,7.2z"/>
	<path d="M17,11.3l0.4-1.1c0.6,0.5,1.4,0.7,2.2,0.7c0.4,0,0.6-0.1,0.8-0.2c0.2-0.1,0.3-0.3,0.3-0.5c0-0.2-0.1-0.3-0.2-0.4
		c-0.1-0.1-0.4-0.2-0.7-0.3l-1-0.2c-1.1-0.2-1.7-0.8-1.7-1.7c0-0.4,0.1-0.7,0.3-1C17.7,6.4,18,6.2,18.4,6s0.8-0.2,1.3-0.2
		c0.4,0,0.8,0.1,1.2,0.2c0.4,0.1,0.8,0.3,1.1,0.6l-0.4,1c-0.6-0.4-1.2-0.7-1.9-0.7c-0.3,0-0.6,0.1-0.8,0.2c-0.2,0.1-0.3,0.3-0.3,0.5
		c0,0.2,0.1,0.3,0.2,0.4c0.1,0.1,0.3,0.2,0.6,0.3l1,0.2c0.6,0.1,1,0.3,1.3,0.6s0.4,0.7,0.4,1.1c0,0.6-0.2,1-0.7,1.3
		c-0.4,0.3-1.1,0.5-1.8,0.5C18.5,12.1,17.6,11.8,17,11.3z"/>
	<path d="M24.9,3.2v1.5h-1.7V3.2H24.9z M23.4,5.9h1.5V12h-1.5V5.9z"/>
	<path d="M28.4,7.1v2.7c0,0.7,0.3,1.1,1,1.1c0.2,0,0.4,0,0.6-0.1v1.2c-0.3,0.1-0.6,0.1-1,0.1c-0.7,0-1.2-0.2-1.6-0.6
		s-0.6-0.9-0.6-1.7V7.1h-1.2V5.9h1.2V4.5L28.4,4v2H30v1.1H28.4z"/>
	<path d="M36.4,9h-4.2c0,0.6,0.2,1.1,0.5,1.4c0.3,0.3,0.7,0.5,1.3,0.5c0.7,0,1.3-0.2,1.8-0.6l0.4,1c-0.3,0.2-0.6,0.4-1.1,0.6
		c-0.4,0.1-0.8,0.2-1.3,0.2c-1,0-1.8-0.3-2.3-0.8C31,10.7,30.7,9.9,30.7,9c0-0.6,0.1-1.2,0.4-1.6c0.2-0.5,0.6-0.9,1-1.1
		c0.4-0.3,1-0.4,1.5-0.4c0.8,0,1.5,0.3,2,0.8c0.5,0.5,0.7,1.3,0.7,2.2V9z M32.7,7.2c-0.3,0.2-0.4,0.6-0.5,1h2.8c0-0.5-0.2-0.8-0.4-1
		c-0.2-0.2-0.5-0.3-0.9-0.3C33.3,6.9,33,7,32.7,7.2z"/>
	<path d="M46.7,3.2V12h-1.5v-1c-0.2,0.3-0.4,0.6-0.8,0.8c-0.3,0.2-0.7,0.3-1.2,0.3c-0.5,0-1-0.1-1.4-0.4c-0.4-0.3-0.7-0.6-1-1.1
		c-0.2-0.5-0.3-1-0.3-1.7s0.1-1.2,0.3-1.6c0.2-0.5,0.5-0.8,0.9-1.1c0.4-0.3,0.9-0.4,1.4-0.4c0.4,0,0.8,0.1,1.2,0.3
		c0.3,0.2,0.6,0.4,0.8,0.8V3.2H46.7z M44.8,10.4c0.3-0.3,0.4-0.8,0.4-1.5s-0.1-1.1-0.4-1.5C44.6,7.1,44.2,7,43.7,7
		c-0.5,0-0.9,0.2-1.2,0.5c-0.3,0.3-0.4,0.8-0.4,1.4c0,0.6,0.1,1.1,0.4,1.5c0.3,0.4,0.7,0.5,1.2,0.5S44.5,10.7,44.8,10.4z"/>
	<path d="M53.7,9h-4.2c0,0.6,0.2,1.1,0.5,1.4c0.3,0.3,0.7,0.5,1.3,0.5c0.7,0,1.3-0.2,1.8-0.6l0.4,1c-0.3,0.2-0.6,0.4-1.1,0.6
		c-0.4,0.1-0.8,0.2-1.3,0.2c-1,0-1.8-0.3-2.3-0.8C48.3,10.7,48,9.9,48,9c0-0.6,0.1-1.2,0.4-1.6c0.2-0.5,0.6-0.9,1-1.1
		c0.4-0.3,1-0.4,1.5-0.4c0.8,0,1.5,0.3,2,0.8c0.5,0.5,0.7,1.3,0.7,2.2V9z M50,7.2c-0.3,0.2-0.4,0.6-0.5,1h2.8c0-0.5-0.2-0.8-0.4-1
		C51.7,7,51.4,6.9,51,6.9C50.6,6.9,50.3,7,50,7.2z"/>
	<path d="M54.5,11.3l0.4-1.1c0.6,0.5,1.4,0.7,2.2,0.7c0.4,0,0.6-0.1,0.8-0.2c0.2-0.1,0.3-0.3,0.3-0.5c0-0.2-0.1-0.3-0.2-0.4
		c-0.1-0.1-0.4-0.2-0.7-0.3l-1-0.2c-1.1-0.2-1.7-0.8-1.7-1.7c0-0.4,0.1-0.7,0.3-1c0.2-0.3,0.5-0.5,0.9-0.7s0.8-0.2,1.3-0.2
		c0.4,0,0.8,0.1,1.2,0.2c0.4,0.1,0.8,0.3,1.1,0.6l-0.4,1c-0.6-0.4-1.2-0.7-1.9-0.7c-0.3,0-0.6,0.1-0.8,0.2s-0.3,0.3-0.3,0.5
		c0,0.2,0.1,0.3,0.2,0.4c0.1,0.1,0.3,0.2,0.6,0.3l1,0.2c0.6,0.1,1,0.3,1.3,0.6c0.3,0.3,0.4,0.7,0.4,1.1c0,0.6-0.2,1-0.7,1.3
		c-0.4,0.3-1.1,0.5-1.8,0.5C56,12.1,55.2,11.8,54.5,11.3z"/>
	<path d="M70,5.9V12h-1.5v-1c-0.2,0.3-0.4,0.6-0.8,0.8c-0.3,0.2-0.7,0.3-1.2,0.3c-0.5,0-1-0.1-1.4-0.4c-0.4-0.3-0.7-0.6-0.9-1.1
		s-0.3-1-0.3-1.6s0.1-1.2,0.3-1.7c0.2-0.5,0.5-0.9,1-1.1c0.4-0.3,0.9-0.4,1.4-0.4c0.4,0,0.8,0.1,1.2,0.3c0.3,0.2,0.6,0.4,0.8,0.8
		V5.9H70z M68.1,10.4c0.3-0.3,0.4-0.8,0.4-1.5c0-0.6-0.1-1.1-0.4-1.5C67.9,7.1,67.5,7,67,7c-0.5,0-0.9,0.2-1.2,0.5
		c-0.3,0.4-0.4,0.8-0.4,1.5c0,0.6,0.1,1.1,0.4,1.4c0.3,0.3,0.7,0.5,1.2,0.5C67.5,10.9,67.9,10.7,68.1,10.4z"/>
	<path d="M73.2,3.2v1.5h-1.7V3.2H73.2z M71.7,5.9h1.5V12h-1.5V5.9z"/>
	<path d="M80.6,3.2V12h-1.5v-1c-0.2,0.3-0.4,0.6-0.8,0.8c-0.3,0.2-0.7,0.3-1.2,0.3c-0.5,0-1-0.1-1.4-0.4c-0.4-0.3-0.7-0.6-1-1.1
		s-0.3-1-0.3-1.7s0.1-1.2,0.3-1.6c0.2-0.5,0.5-0.8,0.9-1.1s0.9-0.4,1.4-0.4c0.4,0,0.8,0.1,1.2,0.3c0.3,0.2,0.6,0.4,0.8,0.8V3.2H80.6
		z M78.7,10.4c0.3-0.3,0.4-0.8,0.4-1.5S79,7.8,78.7,7.5C78.4,7.1,78,7,77.5,7c-0.5,0-0.9,0.2-1.2,0.5C76.1,7.8,76,8.3,76,8.9
		c0,0.6,0.1,1.1,0.4,1.5c0.3,0.4,0.7,0.5,1.2,0.5S78.4,10.7,78.7,10.4z"/>
	<path d="M88,5.9V12h-1.5v-1c-0.2,0.3-0.4,0.6-0.8,0.8c-0.3,0.2-0.7,0.3-1.2,0.3c-0.5,0-1-0.1-1.4-0.4s-0.7-0.6-0.9-1.1
		s-0.3-1-0.3-1.6s0.1-1.2,0.3-1.7c0.2-0.5,0.5-0.9,1-1.1c0.4-0.3,0.9-0.4,1.4-0.4c0.4,0,0.8,0.1,1.2,0.3c0.3,0.2,0.6,0.4,0.8,0.8
		V5.9H88z M86.1,10.4c0.3-0.3,0.4-0.8,0.4-1.5c0-0.6-0.1-1.1-0.4-1.5C85.8,7.1,85.5,7,85,7c-0.5,0-0.9,0.2-1.2,0.5
		c-0.3,0.4-0.4,0.8-0.4,1.5c0,0.6,0.1,1.1,0.4,1.4s0.7,0.5,1.2,0.5C85.5,10.9,85.8,10.7,86.1,10.4z"/>
	<path d="M95.3,8.3V12h-1.5V8.4c0-0.5-0.1-0.8-0.3-1C93.3,7.1,93,7,92.7,7c-0.5,0-0.8,0.1-1.1,0.4c-0.3,0.3-0.4,0.7-0.4,1.2V12h-1.5
		V7.7c0-0.6,0-1.2-0.1-1.7h1.4l0.1,1c0.2-0.4,0.5-0.7,0.8-0.9s0.8-0.3,1.2-0.3C94.6,5.8,95.3,6.6,95.3,8.3z"/>
	<path d="M98.8,7.1v2.7c0,0.7,0.3,1.1,1,1.1c0.2,0,0.4,0,0.6-0.1v1.2c-0.3,0.1-0.6,0.1-1,0.1c-0.7,0-1.2-0.2-1.6-0.6
		s-0.6-0.9-0.6-1.7V7.1h-1.2V5.9h1.2V4.5L98.8,4v2h1.6v1.1H98.8z"/>
	<path d="M101,11.3l0.4-1.1c0.6,0.5,1.4,0.7,2.2,0.7c0.4,0,0.6-0.1,0.8-0.2c0.2-0.1,0.3-0.3,0.3-0.5c0-0.2-0.1-0.3-0.2-0.4
		c-0.1-0.1-0.4-0.2-0.7-0.3l-1-0.2c-1.1-0.2-1.7-0.8-1.7-1.7c0-0.4,0.1-0.7,0.3-1c0.2-0.3,0.5-0.5,0.9-0.7s0.8-0.2,1.3-0.2
		c0.4,0,0.8,0.1,1.2,0.2c0.4,0.1,0.8,0.3,1.1,0.6l-0.4,1c-0.6-0.4-1.2-0.7-1.9-0.7c-0.3,0-0.6,0.1-0.8,0.2c-0.2,0.1-0.3,0.3-0.3,0.5
		c0,0.2,0.1,0.3,0.2,0.4c0.1,0.1,0.3,0.2,0.6,0.3l1,0.2c0.6,0.1,1,0.3,1.3,0.6c0.3,0.3,0.4,0.7,0.4,1.1c0,0.6-0.2,1-0.7,1.3
		c-0.4,0.3-1.1,0.5-1.8,0.5C102.5,12.1,101.7,11.8,101,11.3z"/>
</g>
<g class="st0">
	<path d="M6.6,16.2V25H5.1v-1c-0.2,0.3-0.4,0.6-0.8,0.8C4,25,3.6,25.1,3.2,25.1c-0.5,0-1-0.1-1.4-0.4c-0.4-0.3-0.7-0.6-1-1.1
		c-0.2-0.5-0.3-1-0.3-1.7s0.1-1.2,0.3-1.6c0.2-0.5,0.5-0.8,0.9-1.1c0.4-0.3,0.9-0.4,1.4-0.4c0.4,0,0.8,0.1,1.2,0.3
		c0.3,0.2,0.6,0.4,0.8,0.8v-3.6H6.6z M4.7,23.4c0.3-0.3,0.4-0.8,0.4-1.5S5,20.8,4.7,20.5C4.5,20.1,4.1,20,3.6,20
		c-0.5,0-0.9,0.2-1.2,0.5C2.1,20.8,2,21.3,2,21.9c0,0.6,0.1,1.1,0.4,1.5c0.3,0.4,0.7,0.5,1.2,0.5S4.4,23.7,4.7,23.4z"/>
	<path d="M13.5,22H9.4c0,0.6,0.2,1.1,0.5,1.4c0.3,0.3,0.7,0.5,1.3,0.5c0.7,0,1.3-0.2,1.8-0.6l0.4,1c-0.3,0.2-0.6,0.4-1.1,0.6
		c-0.4,0.1-0.8,0.2-1.3,0.2c-1,0-1.8-0.3-2.3-0.8c-0.6-0.6-0.9-1.3-0.9-2.3c0-0.6,0.1-1.2,0.4-1.6c0.2-0.5,0.6-0.9,1-1.1
		c0.4-0.3,1-0.4,1.5-0.4c0.8,0,1.5,0.3,2,0.8c0.5,0.5,0.7,1.3,0.7,2.2V22z M9.9,20.2c-0.3,0.2-0.4,0.6-0.5,1h2.8
		c0-0.5-0.2-0.8-0.4-1c-0.2-0.2-0.5-0.3-0.9-0.3C10.5,19.9,10.2,20,9.9,20.2z"/>
	<path d="M18.2,16.5h1.5v7.3h4V25h-5.5V16.5z"/>
	<path d="M25.9,24.7c-0.5-0.3-0.8-0.6-1.1-1.1c-0.3-0.5-0.4-1-0.4-1.7c0-0.6,0.1-1.2,0.4-1.7c0.3-0.5,0.6-0.8,1.1-1.1s1-0.4,1.6-0.4
		c0.6,0,1.1,0.1,1.6,0.4s0.8,0.6,1.1,1.1c0.3,0.5,0.4,1,0.4,1.7c0,0.6-0.1,1.2-0.4,1.7c-0.3,0.5-0.6,0.8-1.1,1.1s-1,0.4-1.6,0.4
		C26.9,25.1,26.4,25,25.9,24.7z M28.7,23.4c0.3-0.3,0.4-0.8,0.4-1.5c0-0.6-0.1-1.1-0.4-1.5s-0.7-0.5-1.2-0.5c-0.5,0-0.9,0.2-1.2,0.5
		S26,21.3,26,21.9c0,0.7,0.1,1.1,0.4,1.5s0.7,0.5,1.2,0.5C28,23.9,28.4,23.8,28.7,23.4z"/>
	<path d="M33.5,16.2v1.5h-1.7v-1.5H33.5z M31.9,18.9h1.5V25h-1.5V18.9z"/>
	<path d="M38.9,18.9l0,1.4c-0.3-0.1-0.5-0.2-0.8-0.2c-0.5,0-0.9,0.1-1.2,0.4s-0.4,0.7-0.4,1.2V25H35v-4.3c0-0.6,0-1.2-0.1-1.7h1.4
		l0.1,1.1c0.2-0.4,0.4-0.7,0.7-0.9s0.7-0.3,1.1-0.3C38.5,18.8,38.7,18.8,38.9,18.9z"/>
	<path d="M44.9,22h-4.2c0,0.6,0.2,1.1,0.5,1.4c0.3,0.3,0.7,0.5,1.3,0.5c0.7,0,1.3-0.2,1.8-0.6l0.4,1c-0.3,0.2-0.6,0.4-1.1,0.6
		c-0.4,0.1-0.8,0.2-1.3,0.2c-1,0-1.8-0.3-2.3-0.8c-0.6-0.6-0.9-1.3-0.9-2.3c0-0.6,0.1-1.2,0.4-1.6c0.2-0.5,0.6-0.9,1-1.1
		c0.4-0.3,1-0.4,1.5-0.4c0.8,0,1.5,0.3,2,0.8c0.5,0.5,0.7,1.3,0.7,2.2V22z M41.3,20.2c-0.3,0.2-0.4,0.6-0.5,1h2.8
		c0-0.5-0.2-0.8-0.4-1c-0.2-0.2-0.5-0.3-0.9-0.3C41.9,19.9,41.5,20,41.3,20.2z"/>
	<path d="M46.4,21.2H50v1.2h-3.6V21.2z"/>
	<path d="M57.2,23H53l-0.9,2h-1.6l3.9-8.5h1.3l3.9,8.5h-1.5L57.2,23z M56.7,21.8l-1.6-3.7l-1.6,3.7H56.7z"/>
	<path d="M62.2,20.1v2.7c0,0.7,0.3,1.1,1,1.1c0.2,0,0.4,0,0.6-0.1v1.2c-0.3,0.1-0.6,0.1-1,0.1c-0.7,0-1.2-0.2-1.6-0.6
		c-0.4-0.4-0.6-0.9-0.6-1.7v-2.8h-1.2v-1.1h1.2v-1.5l1.5-0.5v2h1.6v1.1H62.2z"/>
	<path d="M64.8,16.2h1.5V25h-1.5V16.2z"/>
	<path d="M73.7,18.9V25h-1.5v-1c-0.2,0.3-0.4,0.6-0.8,0.8c-0.3,0.2-0.7,0.3-1.2,0.3c-0.5,0-1-0.1-1.4-0.4s-0.7-0.6-0.9-1.1
		c-0.2-0.5-0.3-1-0.3-1.6s0.1-1.2,0.3-1.7c0.2-0.5,0.5-0.9,1-1.1c0.4-0.3,0.9-0.4,1.4-0.4c0.4,0,0.8,0.1,1.2,0.3
		c0.3,0.2,0.6,0.4,0.8,0.8v-0.9H73.7z M71.9,23.4c0.3-0.3,0.4-0.8,0.4-1.5c0-0.6-0.1-1.1-0.4-1.5c-0.3-0.3-0.7-0.5-1.2-0.5
		c-0.5,0-0.9,0.2-1.2,0.5c-0.3,0.4-0.4,0.8-0.4,1.5c0,0.6,0.1,1.1,0.4,1.4c0.3,0.3,0.7,0.5,1.2,0.5C71.2,23.9,71.6,23.7,71.9,23.4z"
		/>
	<path d="M81,21.3V25h-1.5v-3.6c0-0.5-0.1-0.8-0.3-1c-0.2-0.2-0.5-0.3-0.9-0.3c-0.5,0-0.8,0.1-1.1,0.4c-0.3,0.3-0.4,0.7-0.4,1.2V25
		h-1.5v-4.3c0-0.6,0-1.2-0.1-1.7h1.4l0.1,1c0.2-0.4,0.5-0.7,0.8-0.9s0.8-0.3,1.2-0.3C80.3,18.8,81,19.6,81,21.3z"/>
	<path d="M84.5,20.1v2.7c0,0.7,0.3,1.1,1,1.1c0.2,0,0.4,0,0.6-0.1v1.2c-0.3,0.1-0.6,0.1-1,0.1c-0.7,0-1.2-0.2-1.6-0.6
		c-0.4-0.4-0.6-0.9-0.6-1.7v-2.8h-1.2v-1.1H83v-1.5l1.5-0.5v2h1.6v1.1H84.5z"/>
	<path d="M88.7,16.2v1.5h-1.7v-1.5H88.7z M87.2,18.9h1.5V25h-1.5V18.9z"/>
	<path d="M96.2,18.9c-0.1,0.5-0.1,1.1-0.1,1.7v6.9h-1.5v-3.5c-0.2,0.3-0.4,0.6-0.8,0.8s-0.7,0.3-1.2,0.3c-0.5,0-1-0.1-1.4-0.4
		s-0.7-0.6-0.9-1.1c-0.2-0.5-0.3-1-0.3-1.6s0.1-1.2,0.3-1.7c0.2-0.5,0.5-0.9,1-1.1c0.4-0.3,0.9-0.4,1.4-0.4c0.5,0,0.9,0.1,1.2,0.3
		c0.4,0.2,0.6,0.5,0.8,0.9l0.1-1H96.2z M94.2,23.4c0.3-0.3,0.4-0.8,0.4-1.5c0-0.6-0.1-1.1-0.4-1.5C93.9,20.1,93.5,20,93,20
		c-0.5,0-0.9,0.2-1.2,0.5c-0.3,0.4-0.4,0.8-0.4,1.5c0,0.6,0.1,1.1,0.4,1.4c0.3,0.3,0.7,0.5,1.2,0.5C93.5,23.9,93.9,23.7,94.2,23.4z"
		/>
	<path d="M103.2,18.9V25h-1.5v-0.9c-0.2,0.3-0.4,0.6-0.8,0.8c-0.3,0.2-0.7,0.3-1.1,0.3c-1.5,0-2.2-0.8-2.2-2.5v-3.7h1.5v3.7
		c0,0.4,0.1,0.8,0.3,1c0.2,0.2,0.5,0.3,0.8,0.3c0.4,0,0.8-0.1,1.1-0.4s0.4-0.7,0.4-1.2v-3.4H103.2z"/>
	<path d="M110.2,22H106c0,0.6,0.2,1.1,0.5,1.4c0.3,0.3,0.7,0.5,1.3,0.5c0.7,0,1.3-0.2,1.8-0.6l0.4,1c-0.3,0.2-0.6,0.4-1.1,0.6
		s-0.8,0.2-1.3,0.2c-1,0-1.8-0.3-2.3-0.8c-0.6-0.6-0.9-1.3-0.9-2.3c0-0.6,0.1-1.2,0.4-1.6c0.2-0.5,0.6-0.9,1-1.1
		c0.4-0.3,1-0.4,1.5-0.4c0.8,0,1.5,0.3,2,0.8c0.5,0.5,0.7,1.3,0.7,2.2V22z M106.5,20.2c-0.3,0.2-0.4,0.6-0.5,1h2.8
		c0-0.5-0.2-0.8-0.4-1c-0.2-0.2-0.5-0.3-0.9-0.3S106.8,20,106.5,20.2z"/>
</g>
</svg>
