<?xml version="1.0" encoding="utf-8"?>
<!-- Generator: Adobe Illustrator 25.3.1, SVG Export Plug-In . SVG Version: 6.00 Build 0)  -->
<svg version="1.1" id="Calque_1" xmlns="http://www.w3.org/2000/svg" xmlns:xlink="http://www.w3.org/1999/xlink" x="0px" y="0px"
	 viewBox="0 0 473.1 78" style="enable-background:new 0 0 473.1 78;" xml:space="preserve">
<style type="text/css">
	.st0{fill:none;stroke:#004461;}
	.st1{fill:#004461;}
	.st2{fill:#AFCA00;}
	.st3{fill:#FFFFFF;}
	.st4{enable-background:new    ;}
	.st5{fill:#FD432C;}
	.st6{fill:#021A73;}
</style>
<line id="Ligne_261" class="st0" x1="159" y1="16.3" x2="159" y2="63.3"/>
<g id="Groupe_2895" transform="translate(4704.118 3923.063)">
	<g id="logo-loire-atlantique-rvb" transform="translate(-4517 -3915)">
		<path id="Tracé_695" class="st1" d="M55.7,14.2c-0.5-0.3-1.1-0.4-1.7-0.4c-0.8,0-1.6,0.3-2.2,1C51.3,15.4,51,16.2,51,17v0.4
			L55.7,14.2z"/>
		<path id="Tracé_696" class="st1" d="M105.5,32.9c-0.5-0.3-1.1-0.4-1.7-0.4c-0.8,0-1.6,0.3-2.2,1c-0.6,0.6-0.9,1.4-0.8,2.2v0.4
			L105.5,32.9z"/>
		<path id="Tracé_697" class="st1" d="M30.9,19.9c0.8,0,1.6-0.3,2.2-0.8c0.6-0.6,0.9-1.4,1-2.2c0-0.8-0.3-1.6-1-2.2
			c-0.6-0.6-1.4-0.9-2.2-1c-1.7,0-3.1,1.4-3,3.1c0,0,0,0.1,0,0.1c0,0.8,0.3,1.6,0.8,2.2C29.3,19.6,30.1,19.9,30.9,19.9z"/>
		<path id="Tracé_698" class="st1" d="M80.4,32.3c-1.7,0-3.1,1.4-3,3.1c0,0,0,0.1,0,0.1c0,0.8,0.3,1.6,0.8,2.2
			c0.6,0.6,1.4,0.9,2.2,0.8c0.8,0,1.6-0.3,2.2-0.8c0.6-0.6,0.9-1.4,1-2.2C83.5,33.8,82.1,32.4,80.4,32.3z"/>
		<path id="Tracé_699" class="st1" d="M45.6,38.4c0.8,0,1.6-0.3,2.2-0.8c0.6-0.6,0.9-1.4,1-2.2c0-0.8-0.3-1.6-1-2.2
			c-0.6-0.6-1.4-0.9-2.2-1c-1.7,0-3.1,1.4-3,3.1c0,0,0,0.1,0,0.1c0,0.8,0.3,1.6,0.8,2.2C44,38.1,44.8,38.4,45.6,38.4z"/>
		<path id="Tracé_700" class="st1" d="M83.4,46.2v-6.1c-0.9,0.7-2,1.1-3.2,1.1c-1.5,0-2.9-0.6-3.9-1.7c-2.2-2.2-2.2-5.8,0-8
			c2.2-2.2,5.8-2.2,8,0c1.1,1.1,1.7,2.5,1.7,4v10.7h-0.3c9.3,0.1,19.9,0.6,32.5,1.4V14.2C72.6-3.5,17.5-2.5-3.5,10.3l17.4,52.3
			c2.9-1.8,5.7-3.5,8.6-5l0,0C36.2,50.3,50.5,45.9,83.4,46.2z M100,31.5c1.1-1.1,2.5-1.7,4-1.7c1.1,0,2.3,0.3,3.2,1
			c0.9,0.6,1.6,1.5,2.1,2.5l0.1,0.3l-6.9,4.6c0.5,0.3,1.1,0.4,1.7,0.4c0.8,0,1.6-0.3,2.2-1c0.3-0.3,0.5-0.6,0.6-1h2.8
			c-0.3,1-0.8,2-1.5,2.8c-2.2,2.2-5.8,2.2-8,0c-1.1-1.1-1.7-2.5-1.7-4C98.4,33.9,98.9,32.5,100,31.5L100,31.5z M87.5,30h2.6v6.4
			c0,1.2,1.1,2.2,2.3,2.1c1.2,0,2.1-1,2.1-2.1V30h2.6v6.4c0,1.3-0.6,2.5-1.5,3.3c-1.8,1.8-4.8,1.8-6.7,0c-0.9-0.9-1.4-2.1-1.4-3.3
			V30H87.5z M34,32.5h-1.7v8.3h-2.6v-8.3H28v-2.6h1.7v-3.6h2.6v3.6H34L34,32.5z M38.4,40.9h-2.6V26.2h2.6V40.9z M70.4,26.3H73v2.6
			h-2.6V26.3z M70.4,30H73v10.9h-2.6V30z M63.3,30H65v-3.6h2.6V30h1.7v2.6h-1.7v8.3H65v-8.3h-1.7V30z M62.5,34.6v6.4h-2.6v-6.4
			c0-1.2-1.1-2.2-2.3-2.1c-1.2,0-2.1,1-2.1,2.1v6.4h-2.6v-6.4c0-1.2,0.5-2.4,1.4-3.3c1.6-1.8,4.3-2,6.2-0.5c0.2,0.1,0.3,0.3,0.5,0.5
			C61.9,32,62.5,33.2,62.5,34.6L62.5,34.6z M50,12.8c1.1-1.1,2.5-1.7,4-1.7c1.1,0,2.3,0.3,3.2,1c0.9,0.6,1.6,1.5,2.1,2.5l0.1,0.3
			l-6.9,4.6c0.5,0.3,1.1,0.4,1.7,0.4c0.8,0,1.6-0.3,2.2-1c0.3-0.3,0.5-0.6,0.6-1h2.8c-0.3,1-0.8,2-1.5,2.8c-2.2,2.2-5.8,2.2-8,0
			c-1.1-1.1-1.7-2.5-1.7-4C48.4,15.2,49,13.8,50,12.8z M42.8,16c0-1.3,0.6-2.6,1.5-3.5c0.9-0.9,2.2-1.4,3.5-1.4h0.3v2.6h-0.3
			c-0.6,0-1.2,0.2-1.7,0.7c-0.4,0.4-0.7,0.9-0.7,1.5v6.4h-2.6L42.8,16L42.8,16z M45.6,29.7c3.1,0,5.7,2.5,5.7,5.7c0,0,0,0,0,0v5.5
			h-2.6v-0.8c-0.9,0.7-2,1.1-3.2,1.1c-1.5,0-2.9-0.6-3.9-1.7c-2.2-2.2-2.2-5.8,0-8C42.6,30.4,44.1,29.7,45.6,29.7L45.6,29.7z
			 M38.3,7.7h2.5v2.6h-2.6V7.7H38.3z M38.3,11.3h2.5v10.9h-2.6V11.3L38.3,11.3z M26.9,12.8c2.2-2.2,5.8-2.2,8,0
			c1.1,1.1,1.7,2.5,1.7,4c0,3.1-2.5,5.7-5.7,5.7s-5.7-2.5-5.7-5.7C25.3,15.3,25.9,13.9,26.9,12.8z M16.4,7.7h2.8v11.9h6v2.8h-8.7
			V7.7z M18.4,40.9h-2.9l5.1-14.7h3l5.3,14.7H26l-0.8-2.5h-5.8L18.4,40.9z"/>
		<path id="Tracé_701" class="st1" d="M20.1,36.1h4l-1.9-5.5L20.1,36.1z"/>
		<path id="Tracé_702" class="st2" d="M22.5,57.8h95.6V47.6C62.8,44.2,43.4,46.6,22.5,57.8z"/>
		<path id="Tracé_703" class="st2" d="M118.4,47.6"/>
		<path id="Tracé_704" class="st2" d="M118.1,47.6L118.1,47.6c-12.6-0.8-23.3-1.2-32.5-1.4h-2.2c-32.9-0.3-47.2,4.2-60.9,11.6l0,0
			C43.4,46.6,62.8,44.2,118.1,47.6z"/>
		<path id="Tracé_705" class="st3" d="M30.9,22.5c3.1,0,5.7-2.5,5.7-5.7c0,0,0,0,0,0c0-3.1-2.5-5.7-5.7-5.7s-5.7,2.5-5.7,5.7
			c0,1.5,0.6,2.9,1.7,4C28,21.9,29.4,22.5,30.9,22.5z M28.7,14.6c0.6-0.6,1.4-0.9,2.2-1c0.8,0.1,1.6,0.4,2.2,1
			c0.6,0.6,0.9,1.4,1,2.2c0,1.7-1.4,3.1-3.1,3c0,0-0.1,0-0.1,0c-0.8,0-1.6-0.3-2.2-0.8c-0.6-0.6-0.9-1.4-0.8-2.2
			C27.9,16,28.2,15.2,28.7,14.6z"/>
		<rect id="Rectangle_526" x="38.3" y="11.3" class="st3" width="2.6" height="10.9"/>
		<path id="Tracé_706" class="st3" d="M45.5,16c0-0.6,0.2-1.1,0.7-1.5c0.4-0.4,1-0.7,1.7-0.7h0.3v-2.6h-0.3c-1.3,0-2.5,0.5-3.5,1.4
			c-1,0.9-1.5,2.1-1.5,3.5v6.4h2.6L45.5,16L45.5,16z"/>
		<path id="Tracé_707" class="st3" d="M32.3,26.3h-2.6V30H28v2.5h1.7v8.4h2.6v-8.4H34V30h-1.7V26.3z"/>
		<rect id="Rectangle_527" x="35.8" y="26.3" class="st3" width="2.6" height="14.7"/>
		<path id="Tracé_708" class="st3" d="M41.6,39.4c1,1.1,2.4,1.7,3.9,1.7c1.2,0,2.3-0.4,3.2-1.1v1h2.6v-5.5c0-3.1-2.5-5.7-5.7-5.7
			s-5.7,2.5-5.7,5.7C39.9,36.9,40.5,38.3,41.6,39.4z M43.5,33.3c0.6-0.6,1.4-0.9,2.2-1c0.8,0,1.6,0.3,2.2,1c0.6,0.6,0.9,1.4,1,2.2
			c0,1.7-1.4,3.1-3.1,3c0,0-0.1,0-0.1,0c-0.8,0-1.6-0.3-2.2-0.8c-0.6-0.6-0.9-1.4-0.8-2.2C42.5,34.7,42.9,33.8,43.5,33.3z"/>
		<path id="Tracé_709" class="st3" d="M54.3,31.2c-0.9,0.9-1.4,2.1-1.4,3.3v6.4h2.6v-6.4c0-1.2,1.1-2.2,2.3-2.1
			c1.2,0,2.1,1,2.1,2.1v6.4h2.6v-6.4c0-1.3-0.6-2.5-1.5-3.3c-0.9-0.9-2.1-1.5-3.3-1.5C56.5,29.7,55.2,30.3,54.3,31.2z"/>
		<path id="Tracé_710" class="st3" d="M65,40.9h2.6v-8.4h1.7V30h-1.7v-3.7H65V30h-1.7v2.5H65V40.9z"/>
		<rect id="Rectangle_528" x="70.4" y="30" class="st3" width="2.6" height="10.9"/>
		<rect id="Rectangle_529" x="70.4" y="26.3" class="st3" width="2.6" height="2.6"/>
		<path id="Tracé_711" class="st3" d="M86,35.4c0-3.1-2.5-5.7-5.7-5.7c-3.1,0-5.7,2.5-5.7,5.7c0,1.5,0.6,2.9,1.7,4
			c1,1.1,2.4,1.7,3.9,1.7c1.2,0,2.3-0.4,3.2-1.1V46h2.5V35.4H86z M82.4,37.6c-0.6,0.6-1.4,0.9-2.2,0.8c-0.8,0-1.6-0.3-2.2-0.8
			c-0.6-0.6-0.9-1.4-0.8-2.2c0-0.8,0.3-1.6,0.8-2.2c0.6-0.6,1.4-0.9,2.2-1c0.8,0,1.6,0.3,2.2,1c0.6,0.6,0.9,1.4,1,2.2
			C83.4,36.2,83.1,37,82.4,37.6L82.4,37.6z"/>
		<path id="Tracé_712" class="st3" d="M83.4,46.2L83.4,46.2z"/>
		<path id="Tracé_713" class="st3" d="M92.4,41.1c1.3,0,2.5-0.5,3.3-1.4c0.9-0.9,1.5-2.1,1.5-3.3V30h-2.6v6.4
			c0,1.2-1.1,2.2-2.3,2.1c-1.2,0-2.1-1-2.1-2.1V30h-2.6v6.4c0,1.2,0.5,2.4,1.4,3.3C89.9,40.6,91.1,41.1,92.4,41.1z"/>
		<path id="Tracé_714" class="st3" d="M54.2,22.5c1.5,0,3-0.6,4-1.7c0.7-0.8,1.2-1.7,1.5-2.8H57c-0.1,0.4-0.3,0.7-0.6,1
			c-0.5,0.7-1.4,1-2.2,1c-0.6,0-1.1-0.1-1.7-0.4l6.9-4.6l-0.1-0.4c-0.4-1-1.1-1.9-2.1-2.5c-0.9-0.7-2-1-3.2-1
			c-3.1,0-5.7,2.5-5.7,5.7c0,0,0,0,0,0c0,1.5,0.6,3,1.7,4C51.1,22,52.6,22.6,54.2,22.5z M52,14.6c0.6-0.6,1.4-1,2.2-1
			c0.6,0,1.1,0.1,1.7,0.4l-4.6,3v-0.4C51.1,15.9,51.3,15.1,52,14.6z"/>
		<path id="Tracé_715" class="st3" d="M104,41.1c1.5,0,3-0.6,4-1.7c0.7-0.8,1.2-1.7,1.5-2.8h-2.8c-0.1,0.4-0.3,0.7-0.6,1
			c-0.5,0.7-1.4,1-2.2,1c-0.6,0-1.1-0.1-1.7-0.4l6.9-4.6l-0.1-0.3c-0.4-1-1.1-1.9-2.1-2.5c-0.9-0.7-2-1-3.2-1
			c-3.1,0-5.7,2.5-5.7,5.7c0,1.5,0.6,2.9,1.7,4C101,40.5,102.5,41,104,41.1z M101.8,33.3c0.6-0.6,1.4-1,2.2-1c0.6,0,1.1,0.1,1.7,0.4
			l-4.6,3v-0.4C101,34.6,101.2,33.8,101.8,33.3z"/>
		<path id="Tracé_716" class="st3" d="M25.1,19.6H19V7.7h-2.6v14.7h8.7V19.6z"/>
		<path id="Tracé_717" class="st3" d="M26,40.9h2.9l-5.1-14.7h-3l-5.1,14.7h2.9l0.8-2.5h5.8L26,40.9z M20.1,36.1l2.1-5.5l2.1,5.5
			H20.1z"/>
		<rect id="Rectangle_530" x="38.3" y="7.7" class="st3" width="2.6" height="2.6"/>
	</g>
	<g class="st4">
		<path d="M-4375.9-3888.6h2.1v9.7h5.3v1.7h-7.4V-3888.6z"/>
		<path d="M-4360.1-3881.2h-5.6c0,0.9,0.3,1.5,0.6,1.9c0.4,0.4,1,0.6,1.7,0.6c0.9,0,1.7-0.3,2.5-0.9l0.6,1.4
			c-0.4,0.3-0.9,0.6-1.4,0.7c-0.6,0.2-1.1,0.3-1.7,0.3c-1.3,0-2.4-0.4-3.1-1.1c-0.8-0.7-1.1-1.8-1.1-3.1c0-0.8,0.2-1.6,0.5-2.2
			c0.3-0.6,0.8-1.1,1.4-1.5c0.6-0.4,1.3-0.5,2-0.5c1.1,0,2,0.4,2.6,1.1s1,1.7,1,3V-3881.2z M-4364.9-3883.6
			c-0.3,0.3-0.6,0.8-0.6,1.4h3.8c-0.1-0.6-0.2-1.1-0.6-1.4c-0.3-0.3-0.7-0.5-1.3-0.5S-4364.6-3883.9-4364.9-3883.6z"/>
		<path d="M-4354.5-3878.1l0.6-1.4c0.9,0.6,1.9,1,3,1c0.5,0,0.9-0.1,1.1-0.2c0.3-0.2,0.4-0.4,0.4-0.7c0-0.2-0.1-0.4-0.3-0.6
			s-0.5-0.3-0.9-0.4l-1.3-0.3c-1.5-0.3-2.2-1.1-2.2-2.3c0-0.5,0.1-0.9,0.4-1.3s0.7-0.7,1.2-0.9c0.5-0.2,1.1-0.3,1.7-0.3
			c0.6,0,1.1,0.1,1.7,0.3c0.5,0.2,1,0.4,1.4,0.8l-0.6,1.4c-0.8-0.6-1.6-0.9-2.5-0.9c-0.5,0-0.8,0.1-1.1,0.3
			c-0.3,0.2-0.4,0.4-0.4,0.7c0,0.2,0.1,0.4,0.2,0.6c0.2,0.1,0.4,0.3,0.8,0.4l1.4,0.3c0.8,0.2,1.4,0.5,1.8,0.8s0.6,0.9,0.6,1.5
			c0,0.7-0.3,1.3-0.9,1.8c-0.6,0.4-1.4,0.7-2.4,0.7C-4352.5-3877.1-4353.6-3877.4-4354.5-3878.1z"/>
		<path d="M-4343.9-3889v2h-2.2v-2H-4343.9z M-4346-3885.3h2v8.1h-2V-3885.3z"/>
		<path d="M-4339.2-3883.8v3.6c0,0.9,0.4,1.4,1.3,1.4c0.2,0,0.5,0,0.8-0.1v1.6c-0.4,0.1-0.8,0.2-1.3,0.2c-0.9,0-1.6-0.3-2.1-0.8
			c-0.5-0.5-0.7-1.2-0.7-2.2v-3.7h-1.6v-1.5h1.6v-2l2-0.7v2.6h2.1v1.5H-4339.2z"/>
		<path d="M-4328.7-3881.2h-5.6c0,0.9,0.3,1.5,0.6,1.9c0.4,0.4,1,0.6,1.7,0.6c0.9,0,1.7-0.3,2.5-0.9l0.6,1.4
			c-0.4,0.3-0.9,0.6-1.4,0.7c-0.6,0.2-1.1,0.3-1.7,0.3c-1.3,0-2.4-0.4-3.1-1.1c-0.8-0.7-1.1-1.8-1.1-3.1c0-0.8,0.2-1.6,0.5-2.2
			c0.3-0.6,0.8-1.1,1.4-1.5c0.6-0.4,1.3-0.5,2-0.5c1.1,0,2,0.4,2.6,1.1s1,1.7,1,3V-3881.2z M-4333.5-3883.6
			c-0.3,0.3-0.6,0.8-0.6,1.4h3.8c-0.1-0.6-0.2-1.1-0.6-1.4c-0.3-0.3-0.7-0.5-1.3-0.5S-4333.2-3883.9-4333.5-3883.6z"/>
		<path d="M-4314.8-3889v11.8h-2v-1.3c-0.2,0.4-0.6,0.8-1.1,1c-0.5,0.3-1,0.4-1.6,0.4c-0.7,0-1.3-0.2-1.9-0.5
			c-0.5-0.4-1-0.8-1.3-1.5c-0.3-0.6-0.5-1.4-0.5-2.2s0.1-1.6,0.4-2.2c0.3-0.6,0.7-1.1,1.3-1.5s1.2-0.5,1.9-0.5
			c0.6,0,1.1,0.1,1.5,0.4c0.5,0.2,0.8,0.6,1,1v-4.9H-4314.8z M-4317.4-3879.4c0.4-0.5,0.6-1.1,0.6-2c0-0.8-0.2-1.5-0.5-2
			c-0.4-0.5-0.9-0.7-1.5-0.7c-0.7,0-1.2,0.2-1.6,0.7s-0.6,1.1-0.6,1.9c0,0.8,0.2,1.5,0.6,2c0.4,0.5,0.9,0.7,1.5,0.7
			C-4318.2-3878.7-4317.7-3878.9-4317.4-3879.4z"/>
		<path d="M-4305.6-3881.2h-5.6c0,0.9,0.3,1.5,0.6,1.9c0.4,0.4,1,0.6,1.7,0.6c0.9,0,1.7-0.3,2.5-0.9l0.6,1.4
			c-0.4,0.3-0.9,0.6-1.4,0.7c-0.6,0.2-1.1,0.3-1.7,0.3c-1.3,0-2.4-0.4-3.1-1.1c-0.8-0.7-1.1-1.8-1.1-3.1c0-0.8,0.2-1.6,0.5-2.2
			c0.3-0.6,0.8-1.1,1.4-1.5c0.6-0.4,1.3-0.5,2-0.5c1.1,0,2,0.4,2.6,1.1s1,1.7,1,3V-3881.2z M-4310.5-3883.6
			c-0.3,0.3-0.6,0.8-0.6,1.4h3.8c-0.1-0.6-0.2-1.1-0.6-1.4c-0.3-0.3-0.7-0.5-1.3-0.5S-4310.1-3883.9-4310.5-3883.6z"/>
		<path d="M-4304.4-3878.1l0.6-1.4c0.9,0.6,1.9,1,3,1c0.5,0,0.9-0.1,1.1-0.2c0.3-0.2,0.4-0.4,0.4-0.7c0-0.2-0.1-0.4-0.3-0.6
			s-0.5-0.3-0.9-0.4l-1.3-0.3c-1.5-0.3-2.2-1.1-2.2-2.3c0-0.5,0.1-0.9,0.4-1.3s0.7-0.7,1.2-0.9c0.5-0.2,1.1-0.3,1.7-0.3
			c0.6,0,1.1,0.1,1.7,0.3c0.5,0.2,1,0.4,1.4,0.8l-0.6,1.4c-0.8-0.6-1.6-0.9-2.5-0.9c-0.5,0-0.8,0.1-1.1,0.3
			c-0.3,0.2-0.4,0.4-0.4,0.7c0,0.2,0.1,0.4,0.2,0.6c0.2,0.1,0.4,0.3,0.8,0.4l1.4,0.3c0.8,0.2,1.4,0.5,1.8,0.8s0.6,0.9,0.6,1.5
			c0,0.7-0.3,1.3-0.9,1.8c-0.6,0.4-1.4,0.7-2.4,0.7C-4302.4-3877.1-4303.6-3877.4-4304.4-3878.1z"/>
		<path d="M-4283.8-3885.3v8.1h-2v-1.3c-0.2,0.4-0.6,0.8-1.1,1c-0.5,0.3-1,0.4-1.6,0.4c-0.7,0-1.3-0.2-1.9-0.5
			c-0.5-0.3-1-0.8-1.3-1.5s-0.4-1.4-0.4-2.2s0.2-1.6,0.5-2.2s0.7-1.1,1.3-1.5s1.2-0.5,1.9-0.5c0.6,0,1.1,0.1,1.6,0.4
			c0.5,0.3,0.8,0.6,1.1,1v-1.2H-4283.8z M-4286.3-3879.4c0.4-0.5,0.5-1.1,0.5-1.9c0-0.9-0.2-1.5-0.5-2c-0.4-0.5-0.9-0.7-1.6-0.7
			c-0.7,0-1.2,0.2-1.5,0.7c-0.4,0.5-0.6,1.1-0.6,2c0,0.8,0.2,1.5,0.6,1.9s0.9,0.7,1.6,0.7
			C-4287.2-3878.7-4286.7-3878.9-4286.3-3879.4z"/>
		<path d="M-4279.5-3889v2h-2.2v-2H-4279.5z M-4281.6-3885.3h2v8.1h-2V-3885.3z"/>
		<path d="M-4269.7-3889v11.8h-2v-1.3c-0.2,0.4-0.6,0.8-1.1,1c-0.5,0.3-1,0.4-1.6,0.4c-0.7,0-1.3-0.2-1.9-0.5
			c-0.5-0.4-1-0.8-1.3-1.5c-0.3-0.6-0.5-1.4-0.5-2.2s0.1-1.6,0.4-2.2c0.3-0.6,0.7-1.1,1.3-1.5s1.2-0.5,1.9-0.5
			c0.6,0,1.1,0.1,1.5,0.4c0.5,0.2,0.8,0.6,1,1v-4.9H-4269.7z M-4272.2-3879.4c0.4-0.5,0.6-1.1,0.6-2c0-0.8-0.2-1.5-0.5-2
			c-0.4-0.5-0.9-0.7-1.5-0.7c-0.7,0-1.2,0.2-1.6,0.7s-0.6,1.1-0.6,1.9c0,0.8,0.2,1.5,0.6,2c0.4,0.5,0.9,0.7,1.5,0.7
			C-4273.1-3878.7-4272.6-3878.9-4272.2-3879.4z"/>
		<path d="M-4259.8-3885.3v8.1h-2v-1.3c-0.2,0.4-0.6,0.8-1.1,1c-0.5,0.3-1,0.4-1.6,0.4c-0.7,0-1.3-0.2-1.9-0.5
			c-0.5-0.3-1-0.8-1.3-1.5s-0.4-1.4-0.4-2.2s0.2-1.6,0.5-2.2s0.7-1.1,1.3-1.5s1.2-0.5,1.9-0.5c0.6,0,1.1,0.1,1.6,0.4
			c0.5,0.3,0.8,0.6,1.1,1v-1.2H-4259.8z M-4262.3-3879.4c0.4-0.5,0.5-1.1,0.5-1.9c0-0.9-0.2-1.5-0.5-2c-0.4-0.5-0.9-0.7-1.6-0.7
			c-0.7,0-1.2,0.2-1.5,0.7c-0.4,0.5-0.6,1.1-0.6,2c0,0.8,0.2,1.5,0.6,1.9s0.9,0.7,1.6,0.7
			C-4263.2-3878.7-4262.7-3878.9-4262.3-3879.4z"/>
		<path d="M-4250.1-3882.2v5h-2v-4.9c0-0.6-0.1-1.1-0.4-1.4c-0.2-0.3-0.6-0.4-1.1-0.4c-0.6,0-1.1,0.2-1.5,0.6
			c-0.4,0.4-0.6,0.9-0.6,1.5v4.6h-2v-5.8c0-0.9,0-1.6-0.1-2.3h1.9l0.1,1.3c0.3-0.5,0.7-0.9,1.1-1.1s1-0.4,1.6-0.4
			C-4251.1-3885.5-4250.1-3884.4-4250.1-3882.2z"/>
		<path d="M-4245.4-3883.8v3.6c0,0.9,0.4,1.4,1.3,1.4c0.2,0,0.5,0,0.8-0.1v1.6c-0.4,0.1-0.8,0.2-1.3,0.2c-0.9,0-1.6-0.3-2.1-0.8
			c-0.5-0.5-0.7-1.2-0.7-2.2v-3.7h-1.6v-1.5h1.6v-2l2-0.7v2.6h2.1v1.5H-4245.4z"/>
		<path d="M-4242.4-3878.1l0.6-1.4c0.9,0.6,1.9,1,3,1c0.5,0,0.9-0.1,1.1-0.2c0.3-0.2,0.4-0.4,0.4-0.7c0-0.2-0.1-0.4-0.3-0.6
			s-0.5-0.3-0.9-0.4l-1.3-0.3c-1.5-0.3-2.2-1.1-2.2-2.3c0-0.5,0.1-0.9,0.4-1.3s0.7-0.7,1.2-0.9c0.5-0.2,1.1-0.3,1.7-0.3
			c0.6,0,1.1,0.1,1.7,0.3c0.5,0.2,1,0.4,1.4,0.8l-0.6,1.4c-0.8-0.6-1.6-0.9-2.5-0.9c-0.5,0-0.8,0.1-1.1,0.3
			c-0.3,0.2-0.4,0.4-0.4,0.7c0,0.2,0.1,0.4,0.2,0.6c0.2,0.1,0.4,0.3,0.8,0.4l1.4,0.3c0.8,0.2,1.4,0.5,1.8,0.8s0.6,0.9,0.6,1.5
			c0,0.7-0.3,1.3-0.9,1.8c-0.6,0.4-1.4,0.7-2.4,0.7C-4240.4-3877.1-4241.6-3877.4-4242.4-3878.1z"/>
	</g>
</g>
<g>
	<path class="st5" d="M104.7,27.2c0-1.4,0-2.7,0-4c0-0.5,0.1-0.7,0.7-0.7c0.8,0,1.6,0,2.4,0c0.5,0,0.6,0.2,0.6,0.6
		c0,4.2,0,8.5,0,12.7c0,1.7,0.8,2.2,2.4,1.5c0.1,0,0.2-0.1,0.3-0.1c0.9-0.5,0.9-0.5,0.7-1.5c-0.5-2.5-0.4-4.8,1.2-6.9
		c1.3-1.7,3.1-2.3,5.1-2.3c2.2,0,4.3,0.6,6.3,1.5c0.3,0.1,0.3,0.4,0.3,0.6c0,2.4,0,4.8,0,7.3c0,1,0.3,1.4,1,1.6
		c0.7,0.2,1.9-0.1,2.3-0.6c0.2-0.2,0.1-0.4,0.1-0.6c0-2.4-0.1-4.8,0.1-7.3c0.2-3.5,2.4-5.6,5.9-5.8c1.3-0.1,2.5,0.1,3.7,0.4
		c0.3,0.1,0.4,0.2,0.3,0.5c-0.3,0.7-0.5,1.4-0.8,2.2c-0.1,0.3-0.3,0.4-0.6,0.3c-0.7-0.2-1.4-0.3-2.1-0.2c-1.7,0.1-2.7,1.2-2.9,3.1
		c-0.1,0.7,0,1.4-0.1,2.1c0,0.4,0.1,0.5,0.5,0.5c1.2,0,2.3,0,3.5,0c0.4,0,0.5,0.1,0.5,0.5c0,0.7,0,1.5,0,2.2c0,0.4-0.1,0.5-0.5,0.5
		c-1.1,0-2.2,0-3.3,0c-0.5,0-0.7,0.1-0.7,0.6c0,2.2,0,4.4,0,6.5c0,1,0,1-1,1c-0.7,0-1.4,0-2.1,0c-0.3,0-0.4-0.1-0.4-0.4
		c0-0.8,0-1.6,0-2.4c0-0.4,0-0.5-0.5-0.3c-2.1,0.8-4.1,0.7-5.8-1c-0.3-0.3-0.4,0-0.6,0.1c-1.8,1.5-4.3,1.8-6.4,0.6
		c-0.3-0.2-0.7-0.4-1-0.7c-0.3-0.3-0.4-0.2-0.7,0c-1.7,1.5-4.5,1.8-6.4,0.8c-0.2-0.1-0.4-0.3-0.6-0.4c-0.3-0.2-0.4-0.6-0.7-0.6
		c-0.3,0-0.5,0.4-0.7,0.5c-2,1.4-5.1,1.4-7.1-0.1c-0.3-0.3-0.5-0.2-0.8,0c-2.2,1.8-5.6,1.4-7.4-0.7c-0.3-0.3-0.4-0.1-0.6,0.1
		c-2.4,2.8-8.4,2.2-10.6-0.7c-1.1-1.5-1.5-3.2-1.5-5c0-3.3,0-6.7,0-10c0-0.4,0.2-0.5,0.5-0.5c1,0,2,0,3.1,0c0.5,0,0.6,0.2,0.6,0.6
		c0,3,0,6.1,0,9.1c0,0.9,0.1,1.8,0.4,2.7c0.5,1.1,1.3,1.7,2.5,1.8c1.5,0.1,2.9-0.2,3.9-1.4c0.3-0.3,0.4-0.6,0.4-1
		c0-3.8,0-7.5,0-11.3c0-0.5,0.1-0.6,0.6-0.6c1,0,2,0,3,0c0.5,0,0.6,0.1,0.5,0.6c0,3.8,0,7.6,0,11.4c0,0.6,0,1.2,0.2,1.8
		c0.2,0.6,0.7,1,1.4,1.1c0.7,0.1,1.2-0.3,1.7-0.8c0.1-0.2,0-0.3,0-0.5c-0.5-2.3-0.4-4.5,0.8-6.6c1.4-2.5,4.3-3.5,7.2-2.8
		C103.8,26.9,104.2,27.1,104.7,27.2z M104.7,33.1c0-0.5,0-1.1,0-1.6c0-1.7,0-1.7-1.7-2c-1.9-0.4-3.5,0.5-4.2,2.4
		c-0.4,1-0.4,2.1-0.2,3.2c0.2,0.7,0.5,1.4,1.1,1.9c1.2,0.9,3.2,0.7,4.5-0.5c0.3-0.2,0.4-0.5,0.4-0.9C104.7,34.8,104.7,34,104.7,33.1
		z M121,33.2c0-0.3,0-0.7,0-1c0-2.2-0.1-2.4-2.4-2.6c-1.6-0.2-2.8,0.4-3.4,1.8c-0.7,1.6-0.7,3.2,0.1,4.7c0.6,1.1,1.5,1.5,2.7,1.5
		c1-0.1,1.8-0.5,2.6-1.2c0.2-0.2,0.3-0.4,0.3-0.7C121,34.9,121,34,121,33.2z"/>
	<path class="st6" d="M30.6,14.4c0.2,2.4,0,4.8,0.2,7.2c0.1,0.7,0.2,1.3,0.6,1.9c0.4,0.8,1.1,1.2,2,1.2c0.9,0,1.5-0.5,1.9-1.2
		c0.5-0.9,0.6-2,0.6-3c0-1.9,0-3.8,0-5.7c0-1.2,0.4-2,1.5-2.5c1.3-0.6,2.5-1.3,3.7-1.9c1.2-0.6,2.2-0.1,2.2,1.2
		c-0.1,3.5,0.1,7-0.4,10.5c-0.5,3.2-1.8,5.9-4.6,7.7c-3.2,2-9.2,1.8-12.1-1.4c-1.4-1.6-2.1-3.5-2.5-5.5c-0.3-1.3-0.3-2.7-0.3-4
		c0-2.6,0-5.2,0-7.8c0-1.1,0.5-1.9,1.5-2.5c1.1-0.6,2.2-1.2,3.4-1.8c1.4-0.7,2.4-0.1,2.4,1.4C30.6,10.3,30.6,12.4,30.6,14.4z"/>
	<path class="st6" d="M43.9,43.3c3,0,5.4,1.3,7.3,3.5c3,3.4,5.9,6.9,8.8,10.4c1.1,1.3,0.9,2.5-0.5,3.5c-0.6,0.5-1.3,0.8-2.1,1.1
		c-1.2,0.4-2.3,0.2-3.1-0.9c-2.6-3-5.1-6.1-7.7-9.2c-0.6-0.7-1.2-1.4-1.9-1.9c-0.7-0.5-1.3-0.7-2.2-0.5c-1.1,0.4-1.6,1.4-1.3,2.7
		c0.3,1,0.9,1.8,1.5,2.6c1.5,1.9,2.9,3.8,4.4,5.6c0.2,0.3,0.4,0.6,0.6,0.9c0.4,1,0.3,1.8-0.5,2.5c-0.8,0.6-1.7,1.1-2.6,1.4
		c-1.1,0.3-2.1,0.1-2.7-0.8c-2-2.7-4.2-5.2-5.7-8.2c-1.1-2.2-1.5-4.5-0.7-6.9c1.1-3.4,3.7-5.2,7.1-5.9
		C42.9,43.3,43.4,43.3,43.9,43.3z"/>
	<path class="st6" d="M40.2,34.1c0-2.2,1-4,2.5-5.5c1.3-1.4,3-2.4,4.5-3.5c1.8-1.3,3.5-2.6,5.3-3.9c0.6-0.5,1.3-0.8,2.1-0.9
		c1-0.1,1.7,0.5,2.1,1.3c0.4,0.8,0.2,1.5-0.3,2.2c-0.3,0.4-0.7,0.7-1,0.9c-2.7,2-5.5,4-8.2,6c-0.7,0.5-1.4,1.1-1.9,1.9
		c-0.9,1.3-1,2.7-0.2,4c0.8,1.2,2.1,1.6,3.7,1.2c0.9-0.2,1.7-0.7,2.5-1.2c4.4-3,8.9-5.9,13.3-8.9c0.4-0.3,0.8-0.5,1.3-0.7
		c1.1-0.3,2.1,0,2.7,1c0.5,0.8,0.4,1.8-0.4,2.6c-0.5,0.6-1.3,0.9-1.9,1.4c-4.1,2.7-8.3,5.4-12.4,8.1c-2.3,1.5-4.8,2.2-7.5,1.6
		C42.7,40.9,40.2,37.8,40.2,34.1z"/>
	<path class="st6" d="M19.1,43.6c-2,0.1-3.6-0.3-5.1-0.5c-0.5-0.1-1-0.2-1.5-0.3c-0.7-0.2-1.1-0.7-1.1-1.4c0-0.5-0.1-1.1-0.1-1.6
		c0-1.3,0.7-1.9,2.1-1.7c1,0.2,1.9,0.3,2.9,0.5c1.2,0.2,2.4,0.3,3.6,0.1c1.2-0.2,2-1,2.3-2.2c0.3-1.3,0.3-2.5-0.8-3.5
		c-1.1-1-2.5-1.3-3.9-1.7c-2.6-0.7-5.2-1.3-7.8-1.9C8,29.1,7.7,28.6,7.7,27c0-0.4,0-0.8,0-1.2c0-1.2,0.7-1.8,1.9-1.5
		c2.1,0.5,4.2,1,6.3,1.4c1.7,0.4,3.5,0.7,5.1,1.3c2.8,1.1,4.8,2.9,5.6,5.9c0.9,3.5-0.2,8.1-4.3,10C21.1,43.4,19.9,43.6,19.1,43.6z"
		/>
	<path class="st6" d="M33.3,51.5c0,2.2-0.8,3.9-1.9,5.6c-2.5,3.6-5,7.2-7.6,10.8c-0.4,0.6-0.8,1.2-1.2,1.8c-0.6,0.9-1.5,1.1-2.3,0.5
		c-0.8-0.6-1-1.4-0.3-2.4c2.7-3.9,5.5-7.8,8.2-11.8c0.8-1.2,1.5-2.4,1.7-3.8c0.3-1.7-0.3-3.1-1.7-4.1c-1.5-1.1-3.1-1.3-4.8-0.4
		c-1.1,0.6-2,1.4-2.7,2.4c-1.9,2.3-3.8,4.5-5.6,6.8c-0.4,0.5-0.9,0.9-1.6,0.9c-1.2-0.1-1.7-1.4-1-2.4c1.1-1.5,2.3-3,3.5-4.4
		c1-1.2,1.9-2.5,2.9-3.6c1.3-1.5,2.9-2.6,4.9-3.1c2.7-0.7,5.1,0.2,7.1,2C32.5,47.7,33.3,49.5,33.3,51.5z"/>
	<path class="st5" d="M76.1,68.2c0.3-0.7,0.6-1.4,0.8-2.1c0.7-1.7,1.4-3.5,2-5.2c0.2-0.5,0.6-0.4,0.9-0.4c0.4,0,0.6,0,0.8,0.4
		c0.9,2.3,1.8,4.5,2.7,6.8c0.2,0.5,0,0.5-0.4,0.5c-1,0-0.9,0-1.3-0.9c-0.5-1.3-0.1-1-1.6-1.1c-0.5,0-1.2-0.1-1.6,0.1
		c-0.5,0.2-0.5,0.9-0.7,1.4c-0.1,0.3-0.3,0.5-0.6,0.4C76.8,68.2,76.5,68.2,76.1,68.2z M79.8,62.4c-0.2,0.5-0.3,0.8-0.4,1.1
		c-0.6,1.7-0.6,1.7,1.2,1.5c0,0,0,0,0.1-0.1C80.4,64.1,80.1,63.4,79.8,62.4z"/>
	<path class="st5" d="M115.5,63.1c0.1-0.8,0.6-0.5,1-0.5c0.5,0,0.3,0.4,0.3,0.6c0,2.4,0,4.7,0,7.1c0,0.6-0.3,0.6-0.7,0.6
		c-0.4,0-0.7,0-0.7-0.5c0.1-0.7,0-1.4,0-2.1c0-0.3-0.1-0.4-0.4-0.2c-1.9,0.9-3.4-0.3-3.5-2c0-0.5,0-1.1,0.1-1.6
		C112,62.6,114,61.8,115.5,63.1z M115.4,65.5c0-0.3,0-0.6,0-0.9c0-0.2-0.1-0.4-0.2-0.5c-0.7-0.7-1.7-0.5-2.1,0.4
		c-0.3,0.7-0.3,1.4,0,2.1c0.2,0.6,0.8,0.8,1.3,0.7c0.7-0.1,0.9-0.4,0.9-1.2C115.4,65.8,115.4,65.6,115.4,65.5z"/>
	<path class="st5" d="M95.1,67.7c-0.6,0.4-1.1,0.7-1.8,0.6c-0.9-0.1-1.5-0.6-1.7-1.4c-0.2-1,0.3-1.8,1.1-2.2
		c0.6-0.2,1.3-0.2,1.9-0.1c0.4,0.1,0.4-0.1,0.3-0.4c-0.1-0.5-0.5-0.7-1-0.7c-0.5,0-1,0.1-1.4,0.2c-0.3,0.1-0.4,0.1-0.5-0.3
		c-0.1-0.6,0.2-0.8,0.7-0.9c0.7-0.1,1.4-0.2,2.2,0c1,0.3,1.5,0.9,1.5,1.9c0,1.1,0,2.2,0,3.3c0,0.3-0.1,0.4-0.4,0.4
		C95.6,68.1,95.1,68.4,95.1,67.7z M94.1,65.7c-0.8,0-1.1,0.3-1.1,0.8c0,0.4,0.3,0.7,0.8,0.7c0.7,0,1.2-0.4,1.2-1
		C95,65.5,94.4,65.8,94.1,65.7z"/>
	<path class="st5" d="M99.5,52.8c-0.5,0-0.9,0-1.4,0c-0.4,0-0.4,0.2-0.3,0.4c0.2,0.5,0.7,0.9,1.4,1c0.5,0,1,0,1.5-0.2
		c0.2,0,0.5-0.2,0.5,0.1c0,0.3,0.3,0.8-0.2,1c-1.1,0.3-2.2,0.4-3.3-0.1c0,0,0,0-0.1,0c-1.2-0.7-1.7-2.5-0.9-4
		c0.6-1.3,2.1-1.8,3.4-1.3c1,0.4,1.7,2,1.4,2.9c-0.1,0.2-0.2,0.2-0.4,0.2C100.4,52.8,100,52.8,99.5,52.8z M97.7,51.8
		c0.6,0,1.1,0,1.7,0c0.5,0,0.5-0.2,0.4-0.5c-0.2-0.4-0.5-0.7-1-0.6C98.1,50.7,97.9,51.1,97.7,51.8z"/>
	<path class="st5" d="M82.7,52.5c0-1.8,1-3,2.7-3c1.8,0,2.8,1.1,2.8,2.9c0,1.8-1.1,3-2.8,3C83.8,55.4,82.7,54.3,82.7,52.5z
		 M86.9,52.7c0-0.4,0-0.7-0.1-1c-0.2-0.7-0.7-1-1.3-1c-0.6,0-1,0.3-1.3,1c-0.1,0.5-0.1,0.9,0,1.4c0.2,0.7,0.7,1.2,1.3,1.2
		c0.6,0,1.1-0.4,1.3-1.1C86.9,52.9,86.9,52.7,86.9,52.7z"/>
	<path class="st5" d="M127.6,65.8c-0.5,0-0.9,0-1.4,0c-0.4,0-0.4,0.2-0.3,0.5c0.2,0.7,0.8,0.9,1.4,0.9c0.5,0,1.1-0.1,1.6-0.2
		c0.3-0.1,0.3,0,0.4,0.3c0.1,0.6-0.1,0.9-0.7,1c-0.7,0.1-1.3,0.1-2,0c-1.4-0.2-2.2-1.3-2.2-2.8c0-0.7,0.2-1.4,0.6-2
		c0.8-0.9,2.1-1.2,3.2-0.7c0.9,0.4,1.4,1.8,1.2,2.8c0,0.3-0.2,0.3-0.4,0.3C128.6,65.8,128.1,65.8,127.6,65.8z M126.8,64.7
		c0.2,0,0.5,0,0.7,0c0.5,0,0.5-0.2,0.3-0.5c-0.3-0.7-1.2-0.9-1.7-0.3c-0.2,0.2-0.3,0.4-0.3,0.7c0.1,0.2,0.4,0.1,0.6,0.1
		C126.6,64.7,126.7,64.7,126.8,64.7z"/>
	<path class="st5" d="M99.2,63.2c0.6-0.6,1.3-0.9,2.1-0.8c1,0.1,1.6,0.7,1.6,1.7c0,1.2,0,2.4,0,3.7c0,0.3-0.1,0.4-0.4,0.4
		c-1,0-1,0.1-1-1c0-0.9,0-1.7,0-2.6c0-0.7-0.3-1-0.9-1c-0.7,0-1.3,0.5-1.3,1c0,1,0,2,0,3.1c0,0.4-0.1,0.5-0.5,0.5c-1,0-1,0-1-0.9
		c0-1.4,0-2.7,0-4.1c0-0.2-0.2-0.6,0.3-0.6c0.3,0,0.9-0.3,0.9,0.4C99.1,63.1,99.1,63.1,99.2,63.2z"/>
	<path class="st5" d="M123.2,64.7c0,0.5,0,1.1,0,1.6c0,0.9-0.5,1.6-1.4,1.9c-0.7,0.2-1.3,0.2-2,0.1c-1-0.2-1.6-1-1.6-2.1
		c0-1,0-2,0-3.1c0-0.4,0.1-0.5,0.5-0.5c0,0,0,0,0.1,0c0.9,0,0.9,0,0.9,0.8c0,0.8,0,1.6,0,2.5c0,0.8,0.4,1.3,1.1,1.3
		c0.7,0,1.1-0.4,1.1-1.3c0-0.9,0-1.9,0-2.8c0-0.4,0.1-0.6,0.5-0.5c0.2,0,0.3,0,0.5,0c0.4-0.1,0.5,0.1,0.5,0.5
		C123.2,63.6,123.2,64.1,123.2,64.7z"/>
	<path class="st5" d="M76.8,51.4c0-1.1,0-2.2,0-3.4c0-0.4,0.1-0.5,0.5-0.5c1,0,1,0,1,0.9c0,1.6,0,3.2,0,4.8c0,0.9-0.1,0.8,0.8,0.8
		c0.8,0,1.5,0,2.3,0c0.5,0,0.5,0.3,0.5,0.6c0,0.3,0.1,0.7-0.5,0.7c-1.4,0-2.8,0-4.1,0c-0.4,0-0.5-0.1-0.5-0.5
		C76.8,53.6,76.8,52.5,76.8,51.4z"/>
	<path class="st5" d="M104.7,65.5c0-0.3,0-0.5,0-0.8c0-0.6,0.1-1.1-0.8-1c-0.5,0.1-0.2-0.4-0.3-0.7c0-0.2,0-0.5,0.3-0.4
		c0.8,0.2,0.8-0.3,0.8-0.9c0-0.2-0.2-0.6,0.2-0.7c0.3-0.1,0.7-0.1,1.1,0c0.2,0,0.1,0.3,0.1,0.5c0,1,0,1,1,1c0.4,0,0.6,0,0.6,0.6
		c0,0.5-0.1,0.6-0.6,0.6c-1,0-1,0-1,1c0,0.5,0,0.9,0,1.4c0,0.9,0.2,1,1,1c0.2,0,0.6-0.4,0.7,0.2c0.1,0.8,0,0.9-0.6,0.9
		c-0.3,0-0.6,0-0.9,0c-1,0-1.5-0.6-1.6-1.6C104.7,66.3,104.7,65.9,104.7,65.5C104.7,65.5,104.7,65.5,104.7,65.5z"/>
	<path class="st5" d="M86.9,68.3c-1.7,0-2.1-0.5-2.1-2c0-0.7,0-1.4,0-2.1c0-0.4-0.1-0.6-0.5-0.5c-0.5,0.1-0.5-0.2-0.5-0.6
		c0-0.4,0-0.7,0.5-0.6c0.5,0.1,0.6-0.1,0.5-0.5c0-0.1,0-0.3,0-0.4c-0.1-0.5,0.1-0.7,0.6-0.6c0.8,0,0.8,0,0.8,0.8
		c0,0.8,0,0.8,0.9,0.8c0.4,0,0.8-0.1,0.7,0.6c0,0.5-0.2,0.6-0.6,0.6c-1,0-1,0-1,1c0,0.5,0,1,0,1.5c0,0.8,0.2,1,1,0.9
		c0.7-0.1,0.9,0.2,0.7,0.9c-0.1,0.2-0.2,0.2-0.3,0.2C87.2,68.3,87,68.3,86.9,68.3z"/>
	<path class="st5" d="M90.3,64c0,1.2,0,2.4,0,3.7c0,0.4-0.1,0.6-0.5,0.5c-0.2,0-0.4,0-0.6,0c-0.3,0-0.3-0.1-0.3-0.3
		c0-2.6,0-5.1,0-7.7c0-0.2,0.1-0.3,0.3-0.4c1.1-0.1,1.1-0.1,1.1,1C90.3,61.9,90.3,63,90.3,64z"/>
	<path class="st5" d="M93.8,50.2c0.4-0.5,1-0.8,1.6-0.7c0.2,0,0.3,0.1,0.3,0.3c0,0.8,0.1,0.8-0.8,1c-0.7,0.1-1.3,0.4-1.2,1.4
		c0.1,0.9,0,1.7,0,2.6c0,0.4-0.1,0.5-0.5,0.5c-0.2,0-0.4,0-0.5,0c-0.3,0-0.4-0.1-0.4-0.4c0-1.6,0-3.3,0-4.9c0-0.2,0-0.4,0.2-0.4
		c0.3,0.1,0.7-0.2,0.9,0.2C93.7,50,93.6,50.1,93.8,50.2z"/>
	<path class="st5" d="M90.9,52.5c0,0.8,0,1.5,0,2.3c0,0.4-0.1,0.6-0.5,0.5c-0.2,0-0.3,0-0.5,0c-0.3,0-0.4-0.1-0.4-0.4
		c0-1.6,0-3.2,0-4.8c0-0.3,0.1-0.5,0.4-0.4c0.2,0,0.3,0,0.5,0c0.4,0,0.5,0.1,0.5,0.5C90.9,50.9,90.9,51.7,90.9,52.5z"/>
	<path class="st5" d="M110.3,65.4c0,0.8,0,1.5,0,2.3c0,0.3,0,0.5-0.4,0.5c-1,0-1,0-1-1c0-1.4,0-2.7,0-4.1c0-0.5,0.2-0.6,0.6-0.6
		c0.8,0,0.8,0,0.8,0.8C110.3,64.1,110.3,64.8,110.3,65.4C110.3,65.4,110.3,65.4,110.3,65.4z"/>
	<path class="st5" d="M103.8,53c-0.2,0-0.4,0-0.6,0c-0.5,0.1-0.6-0.1-0.7-0.6c0-0.5,0.1-0.7,0.7-0.6c0.5,0,1,0,1.5,0
		c0.6,0,0.4,0.4,0.4,0.7c0,0.3,0.1,0.6-0.4,0.6C104.3,52.9,104,53,103.8,53z"/>
	<path class="st5" d="M90.9,47.6c0,0.9,0.1,0.7-0.9,0.8c-0.9,0.1-0.5-0.6-0.6-0.9c-0.1-0.9,0.5-0.5,0.9-0.6
		C91.1,46.8,90.9,47.3,90.9,47.6z"/>
	<path class="st5" d="M110.3,60.7c0.2,0.7-0.2,0.7-0.7,0.7c-0.9,0-0.6,0.1-0.7-0.8c-0.1-0.7,0.3-0.6,0.8-0.7
		C110.3,59.7,110.4,60.1,110.3,60.7z"/>
</g>
</svg>
