<svg width="83" height="43" viewBox="0 0 83 43" fill="none" xmlns="http://www.w3.org/2000/svg">
<g clip-path="url(#clip0_1564_1244)">
<path d="M58.522 32.0266C65.2935 32.0266 73.0537 32.3245 82.2966 32.9203V39.127H19.9191C28.7666 34.6086 38.4544 32.0266 58.522 32.0266ZM58.522 31.53C36.8233 31.53 27.1849 34.5589 17.8926 39.6236H82.7414V32.4734C73.2514 31.828 65.2935 31.53 58.4725 31.53H58.522Z" fill="white"/>
<path d="M23.8241 9.03699C23.231 9.03699 22.7367 9.2356 22.3413 9.68248C21.9459 10.0797 21.6987 10.5762 21.6987 11.1721C21.6987 11.7679 21.8964 12.2645 22.3413 12.6617C22.7367 13.0589 23.231 13.3072 23.8241 13.3072C24.4172 13.3072 24.9115 13.1086 25.3069 12.6617C25.7518 12.2148 25.9495 11.7679 25.9495 11.1721C25.9495 10.5762 25.7518 10.0797 25.3069 9.68248C24.8621 9.2356 24.4172 9.03699 23.8241 9.03699Z" fill="white"/>
<path d="M16.3604 24.4792H19.1777L17.7937 20.6559L16.3604 24.4792Z" fill="white"/>
<path d="M57.9784 21.9469C57.3853 21.9469 56.891 22.1455 56.4956 22.5924C56.1002 22.9896 55.853 23.4862 55.853 24.082C55.853 24.6778 56.0507 25.1744 56.4956 25.5716C56.891 25.9688 57.3853 26.2171 57.9784 26.2171C58.5715 26.2171 59.0658 26.0185 59.4612 25.5716C59.9061 25.1247 60.1038 24.6778 60.1038 24.082C60.1038 23.4862 59.9061 22.9896 59.4612 22.5924C59.0164 22.1455 58.5715 21.9469 57.9784 21.9469Z" fill="white"/>
<path d="M0 6.65353L12.0603 43C29.1128 32.4734 40.5305 29.9411 82.791 32.4237V8.73898C51.6023 -2.92961 14.334 -2.1848 0 6.65353ZM37.0706 8.34175C37.812 7.5473 38.7512 7.19972 39.8386 7.19972C40.926 7.19972 41.3708 7.39834 42.0134 7.84522C42.6559 8.2921 43.1502 8.88794 43.4962 9.63275V9.78171C43.5456 9.78171 38.7512 12.9099 38.7512 12.9099C39.0971 13.1085 39.4431 13.2078 39.888 13.2078C40.4811 13.2078 40.9754 13.0092 41.3708 12.5623C41.5685 12.3637 41.6674 12.1651 41.7662 11.9168H43.6939C43.5456 12.612 43.1996 13.2575 42.6559 13.8036C41.9145 14.5981 40.9754 14.9953 39.888 14.9953C38.8006 14.9953 37.8615 14.5981 37.12 13.8533C36.3786 13.1085 35.9832 12.1651 35.9832 11.0727C35.9832 9.98032 36.3786 9.03691 37.12 8.2921L37.0706 8.34175ZM32.029 10.5265C32.029 9.58309 32.375 8.78864 33.067 8.14314C33.759 7.49764 34.5992 7.15007 35.4889 7.15007H35.6866V8.98725H35.4889C35.0441 8.98725 34.6487 9.13621 34.3027 9.43413C33.9567 9.73205 33.8084 10.0796 33.8084 10.5265V14.896H31.9796V10.5265H32.029ZM28.8162 4.7667H30.5956V6.55423H28.8162V4.7667ZM28.8162 7.29903H30.5956V14.9457H28.8162V7.29903ZM13.6914 4.7667H15.5697V13.0092H19.7216V14.896H13.6914V4.81635V4.7667ZM20.3147 27.8556L19.7216 26.1674H15.7179L15.1248 27.8556H13.1477L16.7065 17.7263H18.7824L22.3412 27.8556H20.3147ZM25.8506 22.0461H24.6643V27.8556H22.8355V22.0461H21.6987V20.209H22.8355V17.6766H24.6643V20.209H25.8506V22.0461ZM23.7746 15.045C22.6872 15.045 21.7481 14.6478 21.0067 13.903C20.2653 13.1582 19.8699 12.2147 19.8699 11.1224C19.8699 10.03 20.2653 9.08656 21.0067 8.34175C21.7481 7.5473 22.6872 7.19972 23.7746 7.19972C24.862 7.19972 25.8012 7.59695 26.5426 8.34175C27.3334 9.13621 27.6794 10.03 27.6794 11.1224C27.6794 12.2147 27.284 13.1085 26.5426 13.903C25.7517 14.6478 24.862 15.045 23.7746 15.045ZM28.9151 27.8556H27.1357V17.7263H28.9151V27.8556ZM37.8615 27.8556H36.0326V27.2101C35.3901 27.7066 34.6487 27.9549 33.8084 27.9549C32.9681 27.9549 31.8313 27.5577 31.0899 26.8129C30.3485 26.0681 30.0025 25.1247 30.0025 24.0323C30.0025 22.9399 30.3979 21.9965 31.1393 21.2517C31.8807 20.4572 32.8199 20.1097 33.9073 20.1097C34.9947 20.1097 35.9338 20.5069 36.6752 21.2517C37.466 22.0461 37.812 22.9399 37.812 24.0323V27.8556H37.8615ZM45.6216 27.8556H43.7928V23.4861C43.7928 23.0392 43.6445 22.6916 43.3479 22.3937C43.0513 22.0958 42.7054 21.9468 42.2605 21.9468C41.8157 21.9468 41.4697 22.0958 41.1731 22.3937C40.8765 22.6916 40.7283 23.0392 40.7283 23.4861V27.8556H38.9489V23.4861C38.9489 22.5923 39.2949 21.7979 39.9374 21.1524C40.6294 20.4572 41.3708 20.1593 42.2605 20.1593C43.1502 20.1593 43.941 20.5069 44.5836 21.1524C45.2756 21.8475 45.5721 22.642 45.5721 23.4861V27.8556H45.6216ZM50.2678 22.0461H49.0815V27.8556H47.3021V22.0461H46.1653V20.2586H47.3021V17.7263H49.0815V20.2586H50.2678V22.0461ZM52.8874 27.8556H51.108V20.209H52.8874V27.8556ZM52.8874 19.5138H51.108V17.7263H52.8874V19.5138ZM61.8338 31.4803H60.005V27.2101C59.3624 27.7066 58.621 27.9549 57.7807 27.9549C56.9405 27.9549 55.8036 27.5577 55.0622 26.8129C54.3208 26.0681 53.9748 25.1247 53.9748 24.0323C53.9748 22.9399 54.3702 21.9965 55.1117 21.2517C55.8531 20.4572 56.7922 20.1097 57.8796 20.1097C58.967 20.1097 59.9061 20.5069 60.6475 21.2517C61.4384 22.0461 61.7844 22.9399 61.7844 24.0323V31.4803H61.8338ZM69.5939 24.6281C69.5939 25.5219 69.2479 26.3163 68.5559 26.9618C67.8639 27.6073 67.1225 27.9549 66.2328 27.9549C65.3431 27.9549 64.5523 27.6073 63.9097 26.9618C63.2672 26.3163 62.9212 25.5219 62.9212 24.6281V20.209H64.75V24.6281C64.75 25.0254 64.8983 25.4226 65.1949 25.7205C65.4914 26.0184 65.8374 26.1674 66.2823 26.1674C66.7271 26.1674 67.0731 26.0184 67.3697 25.7205C67.6662 25.4226 67.8145 25.075 67.8145 24.6281V20.209H69.6433V24.6281H69.5939ZM77.0575 26.8129C76.316 27.6073 75.3769 28.0046 74.2895 28.0046C73.2021 28.0046 72.263 27.6073 71.5216 26.8625C70.7802 26.1177 70.3847 25.1743 70.3847 24.0819C70.3847 22.9896 70.7802 22.0461 71.5216 21.3013C72.263 20.5069 73.2021 20.1593 74.2895 20.1593C75.3769 20.1593 75.8218 20.4076 76.4643 20.8048C77.1069 21.2517 77.6012 21.8475 77.9472 22.5923V22.7413C77.9966 22.7413 73.2021 25.8695 73.2021 25.8695C73.5481 26.0681 73.8941 26.1674 74.3389 26.1674C74.9321 26.1674 75.4263 25.9688 75.8218 25.5219C76.0195 25.3233 76.1183 25.1247 76.2172 24.8764H78.1449C77.9966 25.5715 77.6506 26.217 77.1069 26.7632L77.0575 26.8129Z" fill="white"/>
<path d="M74.3885 21.9469C73.7953 21.9469 73.301 22.1455 72.9056 22.5924C72.5102 23.0393 72.3125 23.4862 72.3125 24.082C72.3125 24.6778 72.3125 24.2806 72.3125 24.3303L75.5253 22.2448C75.1793 22.0462 74.8333 21.9469 74.3885 21.9469Z" fill="white"/>
<path d="M34.0058 21.9469C33.4126 21.9469 32.9183 22.1455 32.5229 22.5924C32.1275 22.9896 31.8804 23.4862 31.8804 24.082C31.8804 24.6778 32.0781 25.1744 32.5229 25.5716C32.9183 25.9688 33.4126 26.2171 34.0058 26.2171C34.5989 26.2171 35.0932 26.0185 35.4886 25.5716C35.9334 25.1247 36.1311 24.6778 36.1311 24.082C36.1311 23.4862 35.9334 22.9896 35.4886 22.5924C35.0437 22.1455 34.5989 21.9469 34.0058 21.9469Z" fill="white"/>
<path d="M40.9755 9.33491C40.6295 9.13629 40.2835 9.03699 39.8386 9.03699C39.2455 9.03699 38.7512 9.2356 38.3558 9.68248C37.9604 10.1294 37.7627 10.5762 37.7627 11.1721C37.7627 11.7679 37.7627 11.3707 37.7627 11.4204L40.9755 9.33491Z" fill="white"/>
</g>
<defs>
<clipPath id="clip0_1564_1244">
<rect width="82.791" height="43" fill="white"/>
</clipPath>
</defs>
</svg>
