<?xml version="1.0" encoding="utf-8"?>
<!-- Generator: Adobe Illustrator 25.1.0, SVG Export Plug-In . SVG Version: 6.00 Build 0)  -->
<svg version="1.1" id="Calque_1" xmlns="http://www.w3.org/2000/svg" xmlns:xlink="http://www.w3.org/1999/xlink" x="0px" y="0px"
	 viewBox="0 0 308.1 56.7" style="enable-background:new 0 0 308.1 56.7;" xml:space="preserve">
<style type="text/css">
	.st0{fill:none;}
</style>
<g>
	<g id="Calque_2_1_">
		<g id="Calque_1-2">
			<polygon points="26.4,13.5 22.3,13.5 22.3,9.4 17.1,9.4 17.1,13.5 13,13.5 13,18.7 17.1,18.7 17.1,22.8 22.3,22.8 22.3,18.7 
				26.4,18.7 			"/>
			<polygon points="26.4,39.2 22.3,39.2 22.3,35.1 17.1,35.1 17.1,39.2 13,39.2 13,44.4 17.1,44.4 17.1,48.5 22.3,48.5 22.3,44.4 
				26.4,44.4 			"/>
			<polygon points="4.1,22.4 4.1,26.5 0,26.5 0,31.7 4.1,31.7 4.1,35.8 9.3,35.8 9.3,31.7 13.4,31.7 13.4,26.5 9.3,26.5 9.3,22.4 
							"/>
			<polygon points="29.8,22.4 29.8,26.5 25.7,26.5 25.7,31.7 29.8,31.7 29.8,35.8 35,35.8 35,31.7 39.1,31.7 39.1,26.5 35,26.5 
				35,22.4 			"/>
			<path d="M56.3,5.8h3.9l-2.3,2.7h-2.6L56.3,5.8z M50.8,9.4h11.6v3h-8.1v3h7v2.8h-7v3.6h8.2v3H50.8V9.4z"/>
			<path d="M71.7,18.8c0-1.6-0.8-2.9-2.4-2.9c-1.4,0-2.3,1.1-2.3,2.9s0.9,2.9,2.3,2.9C70.9,21.7,71.7,20.5,71.7,18.8 M63.9,25.3h3.2
				c0.2,0.7,0.8,1.1,2.1,1.1c1.5,0,2.3-0.8,2.3-2.1v-0.2c0-0.6,0-1.1,0.1-1.5h-0.1c-0.6,1.1-1.8,1.7-3,1.6c-2.6,0-4.8-1.9-4.8-5.2
				s1.9-5.4,4.7-5.4c1.3-0.1,2.6,0.5,3.2,1.7l0,0v-1.4h3.1V24c0.1,1.4-0.4,2.7-1.4,3.6c-1.1,0.9-2.6,1.3-4,1.2
				C66.2,28.8,64.2,27.5,63.9,25.3"/>
			<rect x="76.5" y="9.4" width="3.3" height="15.5"/>
			<path d="M81.6,13.8h3.3v11.1h-3.3V13.8z M81.6,9.4h3.3v2.9h-3.3V9.4z"/>
			<path d="M86,21.5h3c0.2,1.1,1.2,1.8,2.2,1.6c1.2,0,1.8-0.5,1.8-1.3c0-1-1.3-1.1-2.8-1.4c-2-0.4-4-0.9-4-3.5
				c0-2.3,2.1-3.4,4.7-3.4c3.1,0,4.7,1.3,5,3.3h-3C92.7,16,92,15.6,91,15.6s-1.6,0.4-1.6,1.1s1.2,1,2.7,1.2c2,0.4,4.2,0.9,4.2,3.7
				c0,2.4-2.1,3.6-5,3.6C88.1,25.3,86.2,23.7,86,21.5"/>
			<path d="M100.2,18.3h4.7c-0.1-1.5-1-2.5-2.3-2.5C101.2,15.8,100.4,16.8,100.2,18.3 M97,19.4c-0.2-3.1,2.2-5.7,5.3-5.9
				c0.1,0,0.3,0,0.4,0c1.4,0,2.8,0.5,3.8,1.4c1.3,1.4,1.9,3.3,1.8,5.3h-8.1c0.2,1.7,1.1,2.7,2.7,2.7c0.8,0.1,1.6-0.4,2-1.1h3.2
				c-0.6,2-2.4,3.5-5.2,3.5c-3.1,0.1-5.7-2.2-5.8-5.3C97,19.7,97,19.6,97,19.4"/>
			<path d="M121.8,19.4c0-2-0.8-3.4-2.5-3.4s-2.3,1.4-2.3,3.4s0.8,3.3,2.3,3.3S121.8,21.3,121.8,19.4 M113.7,19.4
				c0-3.4,1.9-5.8,4.8-5.8c1.4,0,2.6,0.7,3.3,1.8l0,0c0-0.7-0.1-1.6-0.1-2.6V9.4h3.3v15.5h-3.2v-1.6l0,0c-0.6,1.3-1.9,2.1-3.4,2
				C115.5,25.3,113.7,23,113.7,19.4"/>
			<path d="M133.9,24.9v-1.6h-0.1c-0.7,1.2-1.9,2-3.3,1.9c-2.5,0-3.9-1.6-3.9-4.1v-7.3h3.3v6.7c0,1.2,0.6,1.9,1.8,1.9s2.1-1,2.1-2.1
				c0-0.1,0-0.2,0-0.2v-6.3h3.2v11.1C137,24.9,133.9,24.9,133.9,24.9z"/>
			<path d="M142.5,9.4h3.7l2.3,7.4c0.5,1.7,1.1,4.6,1.1,4.6l0,0c0,0,0.5-2.9,1-4.6l2.3-7.5h3.6l-5.1,15.5h-3.7L142.5,9.4z"/>
			<path d="M157.4,13.8h3.3v11.1h-3.3V13.8z M157.4,9.4h3.3v2.9h-3.3V9.4z"/>
			<path d="M165.1,18.3h4.7c-0.1-1.5-1-2.5-2.3-2.5C166.1,15.8,165.3,16.8,165.1,18.3 M161.9,19.4c-0.2-3.1,2.2-5.7,5.3-5.9
				c0.1,0,0.3,0,0.4,0c1.4,0,2.8,0.5,3.8,1.4c1.3,1.4,1.9,3.3,1.8,5.3h-8.1c0.2,1.7,1.1,2.7,2.7,2.7c0.8,0.1,1.6-0.4,2-1.1h3.2
				c-0.6,2-2.4,3.5-5.2,3.5c-3.1,0.2-5.7-2.2-5.9-5.3C161.9,19.8,161.9,19.6,161.9,19.4"/>
			<path d="M181.6,24.9v-1.6h-0.1c-0.7,1.2-2,2-3.3,1.9c-2.5,0-3.9-1.6-3.9-4.1v-7.3h3.3v6.7c0,1.2,0.6,1.9,1.8,1.9s2.1-1,2.1-2.1
				c0-0.1,0-0.2,0-0.2v-6.3h3.2v11.1C184.7,24.9,181.6,24.9,181.6,24.9z"/>
			<path d="M189.7,19.1l-3.5-5.3h3.7l0.6,1c0.4,0.8,0.8,1.5,1.2,2.4l0,0c0,0,0.7-1.4,1.2-2.4l0.6-1h3.5l-3.4,5.2l3.9,5.9h-3.8
				l-0.9-1.4c-0.5-0.9-1.2-2.5-1.2-2.5h-0.1c-0.4,0.8-0.8,1.7-1.3,2.5l-0.9,1.4h-3.6L189.7,19.1z"/>
			<rect x="198.2" y="18" width="5.9" height="2.8"/>
			<path d="M213,22.1c0.6,0,1.2-0.2,1.6-0.6c0.4-0.4,0.6-0.9,0.6-1.4c0-1.1-0.9-2-2-2c-0.1,0-0.2,0-0.3,0h-3.6v4H213z M212.7,15.6
				c1.2,0,2-0.6,2-1.7s-0.8-1.8-2-1.8h-3.4v3.5H212.7z M205.9,9.4h7.3c1.3-0.1,2.6,0.3,3.6,1.1c0.9,0.7,1.4,1.9,1.3,3
				c0,1.5-1,2.8-2.5,3.1v0.1c1.8,0.3,3.2,1.9,3.1,3.8c0.1,1.3-0.5,2.6-1.5,3.4c-1.1,0.8-2.5,1.2-3.8,1.1h-7.5L205.9,9.4z"/>
			<path d="M227.9,19.4c0-2.1-0.9-3.5-2.5-3.5s-2.5,1.4-2.5,3.5s0.9,3.5,2.5,3.5S227.9,21.5,227.9,19.4 M219.5,19.4
				c-0.1-3.2,2.4-6,5.6-6.1c3.2-0.1,6,2.4,6.1,5.6c0,0.2,0,0.3,0,0.5c0.1,3.2-2.4,6-5.6,6.1c-3.2,0.1-6-2.4-6.1-5.6
				C219.5,19.7,219.5,19.5,219.5,19.4"/>
			<path d="M239.7,24.9v-1.6h-0.1c-0.7,1.2-1.9,2-3.3,1.9c-2.5,0-3.9-1.6-3.9-4.1v-7.3h3.3v6.7c0,1.2,0.6,1.9,1.8,1.9s2.1-1,2.1-2.1
				c0-0.1,0-0.2,0-0.2v-6.3h3.2v11.1C242.8,24.9,239.7,24.9,239.7,24.9z"/>
			<path d="M247.7,15.8L247.7,15.8c0.5-1.3,1.8-2.2,3.1-2.2c0.2,0,0.5,0,0.7,0.1v2.9h-0.1c-0.2,0-0.5-0.1-0.7-0.1
				c-1.8,0-2.9,1.1-2.9,3.3v5.1h-3.3V13.8h3.1L247.7,15.8z"/>
			<path d="M260.2,18.8c0-1.6-0.8-2.9-2.4-2.9c-1.4,0-2.3,1.1-2.3,2.9s0.9,2.9,2.3,2.9C259.5,21.7,260.2,20.5,260.2,18.8
				 M252.5,25.3h3.2c0.2,0.7,0.8,1.1,2.1,1.1c1.5,0,2.3-0.8,2.3-2.1v-0.2c0-0.6,0-1.1,0.1-1.5h-0.1c-0.6,1.1-1.8,1.7-3,1.6
				c-2.6,0-4.8-1.9-4.8-5.2s1.9-5.4,4.7-5.4c1.3-0.1,2.6,0.5,3.2,1.7l0,0v-1.4h3.1V24c0.1,1.4-0.4,2.7-1.4,3.6
				c-1.1,0.9-2.6,1.3-4,1.2C254.8,28.8,252.8,27.5,252.5,25.3"/>
			<path d="M58.7,43c0-2.5-1.5-4.5-3.3-4.5c-0.6,0-1.3,0.3-1.7,0.7c-0.8,0.8-1,1.9-1,4.3s0.4,3.6,1.4,4.3c0.4,0.3,0.8,0.4,1.3,0.4
				C57.4,48,58.8,46,58.7,43 M56.2,32.3c1.3,0,2.5,0,3.8-0.2h0.3h0.3v14.4c0,1,0.5,1.5,1.4,1.5h0.7v0.4h-2c-0.6,0-1.2,0.1-1.8,0.2
				h-0.2v-2.9c-0.3,0.8-1.2,2.8-3.6,2.8s-4.6-2.5-4.6-5.3s2.1-5.2,4.6-5.2c1.5,0,2.6,0.8,3.5,2.6v-6.5c0.1-0.7-0.5-1.4-1.2-1.4
				c-0.1,0-0.1,0-0.2,0h-1.1L56.2,32.3C56.1,32.3,56.2,32.3,56.2,32.3z"/>
			<path d="M70.2,42.4c0.5,0,0.7-0.2,0.7-0.8c0-2-1-3.3-2.6-3.3c-0.9,0.1-1.7,0.7-2,1.6c-0.3,0.8-0.5,1.6-0.4,2.5H70.2z M73,44.5
				c-0.1,0.6-0.3,1.2-0.7,1.8c-0.8,1.4-2.2,2.2-3.8,2.3c-2.7,0-4.8-2.4-4.8-5.4c0-2.9,2-5.2,4.5-5.2s4.4,2,4.6,4.9h-7.1
				c0,1.6,0,5.2,3,5.2c1.9,0,3.3-1.4,3.8-3.6H73z"/>
			<path d="M80.3,41.2c0.4,2,1.4,7.3,6.2,7.3c1.7,0.2,3.3-1.1,3.4-2.9c0-0.1,0-0.2,0-0.2c0-2.3-2.8-3.4-4.8-4.2
				c-1.2-0.4-2.4-1-3.4-1.7c-0.2-0.1-0.3-0.3-0.4-0.4c-0.7-0.8-1.2-1.8-1.2-2.8c0-2.3,1.8-4.3,4.1-4.3h0.1c1.6,0,2.8,0.6,4.3,2.2
				c0.5-0.6,0.9-1.2,1.2-2h0.4v6.2h-0.4c-0.1-1-0.4-1.9-0.8-2.8c-0.8-1.9-2.6-3.2-4.7-3.3c-1.6-0.1-3,1.1-3.2,2.8
				c0,1.8,1.9,2.7,4.4,3.6c1.2,0.4,2.4,1,3.5,1.7c1.2,0.9,1.9,2.4,1.9,3.9c0.1,2.5-1.9,4.6-4.4,4.7c-0.1,0-0.1,0-0.2,0
				c-1.9-0.1-3.7-1.1-4.7-2.8c-0.5,0.8-1,1.7-1.3,2.6H80v-7.5L80.3,41.2L80.3,41.2z"/>
			<path d="M92.7,38.6c2.4-0.8,3.1-2.7,3.5-4.9h0.5v4.7h3.3v0.7h-3.3v7.1c0,1,0.6,1.7,1.4,1.7c1.6,0,2.4-1.6,2.4-4.9h0.3
				c0,2.6-0.3,3.9-1.2,4.7c-0.6,0.5-1.4,0.8-2.1,0.8c-1.4,0.1-2.6-0.9-2.7-2.3c0-0.2,0-0.4,0-0.5v-6.6h-2.1
				C92.7,39.1,92.7,38.6,92.7,38.6z"/>
			<rect x="103" y="42.6" width="5.1" height="1"/>
			<path d="M111.1,41.2c0.4,2,1.4,7.3,6.2,7.3c1.7,0.1,3.3-1.2,3.4-2.9c0-0.1,0-0.1,0-0.2c0-2.3-2.8-3.4-4.8-4.2
				c-1.2-0.4-2.4-1-3.4-1.7c-0.2-0.1-0.3-0.3-0.4-0.4c-0.7-0.8-1.2-1.8-1.2-2.8c0-2.3,1.8-4.3,4.1-4.3h0.1c1.7,0,2.8,0.6,4.3,2.2
				c0.5-0.6,0.9-1.2,1.2-2h0.5v6.2h-0.4c-0.1-1-0.4-1.9-0.8-2.8c-0.8-1.9-2.6-3.2-4.7-3.3c-1.6-0.1-3,1.1-3.2,2.8
				c0,1.8,1.9,2.7,4.4,3.6c1.2,0.4,2.4,1,3.5,1.7c1.2,0.9,1.9,2.4,1.9,3.9c0.1,2.5-1.9,4.6-4.4,4.7c-0.1,0-0.2,0-0.3,0
				c-1.9-0.1-3.7-1.1-4.7-2.8c-0.5,0.8-1,1.7-1.3,2.6h-0.4v-7.5L111.1,41.2L111.1,41.2z"/>
			<path d="M123.4,38.4c0.9,0,1.8,0,2.6-0.2c0.2-0.1,0.4-0.1,0.6-0.1h0.6v7.8c0,1.3,0.6,2,1.5,2c1.7,0,3.2-2.3,3.2-5v-3.1
				c0-0.8-0.4-1.1-1.3-1.1h-1.2v-0.4h1.4c0.7,0,1.3-0.1,2-0.2h0.2h0.6v8.6c0,0.9,0.4,1.3,1.3,1.3h0.5v0.4H133h-0.5h-0.6v-2.9
				c-0.9,2-2.2,3-3.7,3c-1.6,0-2.9-1.3-2.8-2.9v-0.1v-5.8c0-0.6-0.4-1-1-1h-1C123.4,38.7,123.4,38.4,123.4,38.4z"/>
			<path d="M138.8,34.1c0-0.9-0.3-1.3-1-1.3h-0.9v-0.4c0.8,0,1.7-0.1,2-0.1l1.2-0.1h0.6c-0.1,4.2-0.1,7-0.1,9c0,6.5,0,6.3,0.3,6.6
				c0.2,0.2,0.5,0.2,0.7,0.2h0.8v0.4H137V48h0.8c0.7,0,0.9-0.3,0.9-1.2L138.8,34.1z"/>
			<path d="M153.3,42.7c0-3-0.9-4.5-2.6-4.5c-1.9,0-3.3,2.1-3.3,5.1c0,2.7,1.4,4.9,3.3,4.9S153.3,46.4,153.3,42.7 M147.5,40.6
				c0.8-1.9,1.9-2.7,3.3-2.7c2.4,0,4.4,2.5,4.4,5.3s-2.1,5.4-4.5,5.4c-1.4,0-2.4-0.9-3.3-2.8c0,1.2,0,2.5,0,3.7c0,3.2,0,3.3,0.1,3.6
				c0,0.1,0.1,0.4,0.9,0.4h0.8v0.3h-5.3v-0.3h0.8c0.7,0,0.9-0.3,0.9-1.2V39.8c0-0.8-0.5-1.2-1.4-1.2h-1.1v-0.4h0.6
				c1.1,0,2.1-0.1,3.2-0.3h0.4L147.5,40.6z"/>
			<path d="M158.4,33.6c0-0.6,0.5-1.2,1.2-1.1c0.6,0,1.2,0.5,1.1,1.2c0,0.6-0.5,1.1-1.2,1.1C159,34.8,158.4,34.3,158.4,33.6
				 M160.5,38.1c0,1.7,0,3.3,0,4.9c0,4,0,4.2,0.1,4.5c0.1,0.2,0.2,0.5,0.9,0.5h0.8v0.4H157V48h0.8c0.7,0,1-0.3,1-1.2v-7
				c0-0.7-0.4-1.1-1.2-1.1h-0.7v-0.4c0.9,0,1.7,0,2.1-0.1l1.3-0.2L160.5,38.1L160.5,38.1z"/>
			<path d="M173,44.5c0,0.6-0.1,1.1-0.3,1.6c-0.6,1.4-2,2.4-3.5,2.4c-2.5,0-4.7-2.4-4.7-5.1s2.2-5.3,4.7-5.3c1.8,0,3.6,1.5,3.6,3
				c0.1,0.7-0.4,1.3-1.1,1.4h-0.1c-0.6-0.1-1.1-0.6-1.1-1.3c0-0.5,0.3-0.9,0.7-1c0.3-0.2,0.4-0.3,0.4-0.5c0-0.6-1.3-1.3-2.4-1.3
				c-1.9,0-2.8,1.4-2.8,4.7s1,4.9,2.9,4.9s3.2-1.5,3.3-3.6L173,44.5z"/>
			<path d="M181.1,42.4c0.5,0,0.7-0.2,0.7-0.8c0-2-1-3.3-2.6-3.3c-0.9,0-1.8,0.7-2.1,1.6c-0.3,0.8-0.5,1.6-0.4,2.5H181.1z
				 M183.9,44.5c-0.1,0.6-0.3,1.2-0.7,1.8c-0.8,1.4-2.2,2.2-3.8,2.3c-2.7,0-4.8-2.4-4.8-5.4c0-2.9,2-5.2,4.5-5.2s4.4,2,4.6,4.9h-7.1
				c0,1.6-0.1,5.2,2.9,5.2c1.9,0,3.4-1.4,3.9-3.6H183.9z"/>
			<rect x="185.9" y="42.6" width="5.1" height="1"/>
			<path d="M201.6,43c0-2.5-1.5-4.5-3.3-4.5c-0.7,0-1.3,0.3-1.7,0.7c-0.8,0.8-1,1.9-1,4.3s0.4,3.6,1.4,4.3c0.4,0.3,0.8,0.4,1.3,0.4
				C200.3,48,201.7,46,201.6,43 M199.2,32.3c1.2,0,2.5,0,3.7-0.2h0.3h0.3v14.4c0,1,0.5,1.5,1.4,1.5h0.7v0.4h-1.9
				c-0.6,0-1.2,0.1-1.8,0.2h-0.2v-2.9c-0.4,0.8-1.3,2.9-3.6,2.9s-4.6-2.5-4.6-5.3s2.1-5.2,4.6-5.2c1.6,0,2.6,0.8,3.6,2.6v-6.5
				c0.1-0.7-0.5-1.4-1.2-1.4c-0.1,0-0.1,0-0.2,0h-1.1V32.3z"/>
			<path d="M213.1,42.4c0.5,0,0.7-0.2,0.7-0.8c0-2-1-3.3-2.5-3.3c-0.9,0-1.8,0.7-2.1,1.6c-0.3,0.8-0.5,1.6-0.4,2.5H213.1z
				 M215.9,44.5c-0.1,0.6-0.3,1.3-0.7,1.8c-0.8,1.4-2.2,2.3-3.8,2.3c-2.7,0-4.8-2.4-4.8-5.4c0-2.9,2-5.2,4.5-5.2s4.4,2,4.6,4.9h-7.1
				c0,1.6-0.1,5.2,2.9,5.2c1.9,0,3.4-1.4,3.9-3.6H215.9z"/>
			<path d="M217.9,44c0.2,1.1,0.7,2.2,1.5,3.1c0.7,0.7,1.7,1.1,2.7,1.1c1.1,0.1,2-0.7,2.2-1.8c0-1.1-0.7-1.7-2.9-2.4
				c-1.1-0.2-2.2-0.8-3.1-1.5c-0.5-0.5-0.7-1.1-0.7-1.8c0-1.5,1.2-2.8,2.7-2.8l0,0c1.1,0,1.6,0.3,2.9,1.3c0.4-0.3,0.7-0.7,0.8-1.2
				h0.4v4h-0.3c-0.1-1-0.5-1.9-1.2-2.6c-0.6-0.7-1.5-1.1-2.4-1.1c-1-0.1-2,0.7-2.1,1.7l0,0c0,1.2,1.5,1.7,2.8,2
				c2.4,0.7,3.9,1.5,3.9,3.5c0,1.7-1.3,3-3,3c-0.1,0-0.1,0-0.2,0c-1.2,0-2.4-0.6-3.1-1.5c-0.4,0.5-0.7,1-0.9,1.5h-0.3V44H217.9z"/>
			<rect x="227.3" y="42.6" width="5.1" height="1"/>
			<path d="M234.7,48h2c0.8,0,1.1-0.4,1.2-1.4V34c0-0.9-0.4-1.4-1.2-1.4h-2.1v-0.4h8.4v0.4h-1.6c-0.8,0-1.2,0.5-1.2,1.4v12.7
				c0,0.8,0.3,1.2,1,1.2h1.7c2.7,0,5.1-2.4,5.8-5.9h0.3l-0.1,6.3h-14.3V48H234.7z"/>
			<path d="M257.4,42.7c-0.5,0.2-0.9,0.4-1.4,0.5c-1.1,0.3-2.9,0.8-2.9,2.8c0,1.2,0.7,2,1.6,2c1.5,0,2.7-1.6,2.7-3.4L257.4,42.7
				L257.4,42.7z M261.7,44c0,3-0.8,4.5-2.3,4.5c-1,0-1.6-0.8-1.9-2.5c-0.8,1.8-1.8,2.5-3.4,2.5c-1.5,0.1-2.9-1.1-3-2.6
				c0-0.6,0.3-1.2,0.7-1.7c0.9-0.7,2-1.2,3.1-1.3c0.8-0.2,1.6-0.4,2.3-0.7v-1.7c0-1.3-0.8-2-2.3-2c-1,0-2.1,0.5-2.1,1
				c0,0.2,0.1,0.3,0.4,0.4c0.5,0.3,0.7,0.6,0.7,1c0,0.6-0.4,1-1,1c-0.7-0.1-1.2-0.7-1.2-1.4c0-1.5,1.6-2.7,3.7-2.7
				c2.4,0,3.6,1.1,3.6,3.2v4.6c0,1.2,0.3,1.9,0.9,1.9c0.8,0,1.2-0.9,1.3-3.2v-0.5L261.7,44z"/>
			<path d="M266.5,41.1c0.4-1.7,1.9-2.9,3.6-3c0.8,0,1.5,0.3,2.1,0.8c0.8,0.9,1.1,2.1,1.1,3.2v4.7c0,0.9,0.3,1.2,1,1.2h0.8v0.4h-5.3
				V48h0.8c0.7,0,1-0.3,1-1.2v-5.3c0-2-0.5-2.8-1.8-2.8c-1.9,0-3.3,2.1-3.3,5.1v3.1c0,0.9,0.2,1.2,1,1.2h0.8v0.4H263v-0.4h0.8
				c0.7,0,1-0.3,1-1.2v-7c0-0.7-0.4-1-1.2-1H263v-0.4h0.8c0.2,0,1.4-0.1,1.7-0.1l0.7-0.1h0.5L266.5,41.1z"/>
			<path d="M284.7,43c0-2.5-1.5-4.5-3.3-4.5c-0.6,0-1.3,0.3-1.7,0.7c-0.8,0.8-1,1.9-1,4.3s0.4,3.6,1.4,4.3c0.4,0.3,0.8,0.4,1.3,0.4
				C283.4,48,284.8,46,284.7,43 M282.3,32.3c1.2,0,2.5,0,3.7-0.2h0.3h0.3v14.4c0,1,0.5,1.5,1.4,1.5h0.7v0.4h-1.9
				c-0.6,0-1.2,0.1-1.8,0.2h-0.2v-2.9c-0.4,0.8-1.3,2.9-3.6,2.9s-4.6-2.5-4.6-5.3s2.1-5.2,4.6-5.2c1.5,0,2.6,0.8,3.5,2.6v-6.5
				c0.1-0.7-0.5-1.4-1.2-1.4c-0.1,0-0.1,0-0.2,0h-1.1v-0.5H282.3z"/>
			<path d="M296.2,42.4c0.5,0,0.7-0.2,0.7-0.8c0-2-1-3.3-2.5-3.3c-0.9,0-1.8,0.7-2,1.6c-0.3,0.8-0.5,1.6-0.4,2.5H296.2z M299,44.5
				c-0.1,0.6-0.3,1.2-0.7,1.8c-0.8,1.4-2.2,2.2-3.8,2.3c-2.7,0-4.8-2.4-4.8-5.4c0-2.9,2-5.2,4.5-5.2s4.4,2,4.6,4.9h-7.1
				c0,1.6,0,5.2,3,5.2c1.9,0,3.4-1.4,3.9-3.6H299z"/>
			<path d="M300.9,44c0.2,1.2,0.7,2.2,1.5,3.1c0.7,0.7,1.7,1.1,2.7,1.1c1.1,0.1,2-0.7,2.2-1.8c0-1.1-0.7-1.7-3-2.4
				c-1.1-0.2-2.2-0.8-3-1.5c-0.5-0.5-0.7-1.1-0.7-1.8c0-1.5,1.2-2.8,2.7-2.8c0,0,0,0,0.1,0c1.1,0,1.6,0.3,2.9,1.3
				c0.4-0.3,0.7-0.7,0.8-1.2h0.4v4H307c-0.1-1-0.5-1.9-1.2-2.6c-0.6-0.7-1.5-1.1-2.4-1.1c-1-0.1-2,0.7-2.1,1.7l0,0
				c0,1.2,1.5,1.7,2.8,2c2.4,0.7,3.9,1.5,3.9,3.5c0,1.7-1.3,3-3,3c-0.1,0-0.1,0-0.2,0c-1.2,0-2.4-0.6-3.1-1.5
				c-0.4,0.5-0.7,1-0.9,1.5h-0.3V44H300.9z"/>
		</g>
	</g>
	<rect class="st0" width="308" height="56.7"/>
</g>
</svg>
