<?xml version="1.0" encoding="utf-8"?>
<!-- Generator: Adobe Illustrator 28.3.0, SVG Export Plug-In . SVG Version: 6.00 Build 0)  -->
<svg version="1.1" id="calques" xmlns="http://www.w3.org/2000/svg" xmlns:xlink="http://www.w3.org/1999/xlink" x="0px" y="0px"
	 viewBox="0 0 833.3 200" style="enable-background:new 0 0 833.3 200;" xml:space="preserve">
<style type="text/css">
	.st0{fill:#004461;}
	.st1{fill:#AFCA00;}
	.st2{fill:#FFFFFF;}
</style>
<path class="st0" d="M189.2,45.2c-1.5-0.9-3.3-1.4-5.1-1.4c-2.5,0-5,1-6.8,2.8s-2.8,4.3-2.8,6.8c-0.1,0.4-0.1,0.8,0,1.2L189.2,45.2z
	"/>
<path class="st0" d="M345.3,103.5c-1.5-1-3.3-1.5-5-1.4c-2.6-0.1-5,0.9-6.8,2.8c-1.8,1.8-2.9,4.2-2.8,6.8c0,0.4,0,0.8,0,1.2
	L345.3,103.5z"/>
<path class="st0" d="M111.6,62.9c2.5,0,5-1,6.8-2.8c1.9-1.7,2.9-4.2,2.8-6.8c0-5.3-4.3-9.6-9.6-9.5c-2.5,0-4.9,1-6.7,2.8
	c-3.9,3.6-4.1,9.7-0.5,13.5c1.9,2,4.5,3.1,7.3,3.1L111.6,62.9z"/>
<path class="st0" d="M266.1,102.1c-2.5,0-5,1-6.8,2.8c-3.7,3.7-3.8,9.7-0.1,13.4l0.1,0.1c3.7,3.7,9.7,3.8,13.4,0.1l0.1-0.1
	c1.8-1.8,2.8-4.2,2.8-6.8c0-2.5-1-5-2.8-6.8C271,103.1,268.6,102,266.1,102.1z"/>
<path class="st0" d="M157.5,121.2c5.3,0,9.6-4.3,9.6-9.6c0-2.6-1.1-5-2.9-6.8c-3.7-3.7-9.8-3.8-13.5,0l0,0c-3.7,3.8-3.7,9.8,0,13.5
	C152.5,120.1,154.9,121.1,157.5,121.2L157.5,121.2L157.5,121.2z"/>
<path class="st0" d="M275.6,145.1V126c-6.8,5-16.3,4.2-22.1-1.9c-3.3-3.3-5.1-7.8-5-12.4c0-9.8,8-17.8,17.8-17.8s17.8,8,17.8,17.8
	v33.2H283c29,0.4,62.6,1.8,101.8,4.5V45C242.1-10.1,69.6-7.4,3.7,33.1l54.6,163.8c9.1-5.5,17.9-10.7,26.7-15.4l0,0
	C127.9,158.2,172.5,144.3,275.6,145.1z M327.7,99.1c3.3-3.4,7.8-5.3,12.6-5.3c3.5,0,6.9,1,9.9,3c2.9,2,5.2,4.8,6.6,8v0.7L335,119.8
	c1.5,0.9,3.3,1.4,5,1.4c2.6,0.1,5.2-1,6.9-2.9c0.7-0.8,1.4-1.8,1.8-2.8h8.6c-0.7,3.2-2.3,6.2-4.6,8.5c-3.2,3.6-7.8,5.6-12.6,5.5
	c-4.7,0.1-9.2-1.8-12.6-5.1c-3.4-3.2-5.3-7.8-5.2-12.5C322.3,107.1,324.2,102.5,327.7,99.1z M288.9,94.4h8.2v19.8
	c0.1,3.8,3.1,6.9,6.9,7c1.9,0,3.6-0.8,4.9-2.1c1.3-1.3,2.1-3,2-4.9V94.5h8.3v19.8c0,4-1.7,7.8-4.6,10.5c-5.5,5.8-14.7,6.1-20.6,0.6
	c-0.2-0.2-0.4-0.4-0.6-0.6c-2.9-2.7-4.5-6.5-4.5-10.5L288.9,94.4z M121.2,102.5h-5.5v26.2h-8v-26.2h-5.3v-8.1h5.3v-11h8.1v11.1h5.5
	L121.2,102.5z M135,128.7h-8.3V83h8.1L135,128.7z M235.4,83.1h8.1v8.1h-8.3L235.4,83.1z M235.4,94.1h8.1v34.3h-8.3L235.4,94.1z
	 M213.2,94.1h5.3v-11h7.8v11.1h5.3v8.1h-5.3v26.2h-8.1v-25.9h-5.3L213.2,94.1z M210.9,108.7v19.8h-8.5V109c0-3.9-3.1-7-7-7
	s-7,3.1-7,7l0,0v19.8h-8.1V109c0-4,1.6-7.8,4.5-10.6c2.8-2.9,6.6-4.5,10.6-4.5s7.8,1.6,10.5,4.5c2.9,2.8,4.6,6.6,4.6,10.6
	L210.9,108.7z M172.2,40.5c3.2-3.4,7.8-5.3,12.5-5.2c3.5,0,7,1,9.9,3s5.3,4.7,6.6,8l0.3,0.7l-22.4,14.2c1.5,0.9,3.3,1.4,5.1,1.4
	c2.5,0.1,5-1,6.7-2.9c0.8-0.8,1.4-1.8,1.9-2.9h8.6c-0.7,3.2-2.3,6.2-4.7,8.6c-3.2,3.5-7.8,5.4-12.6,5.3c-4.7,0.1-9.3-1.8-12.6-5.1
	c-3.4-3.3-5.3-7.8-5.2-12.5c0-4.6,1.9-9.1,5.2-12.3L172.2,40.5z M148.8,50.7c-0.1-4.1,1.7-8,4.7-10.7c3-2.9,6.9-4.5,11.1-4.4h0.9
	v8.1h-1.3c-2-0.1-4,0.6-5.5,2c-1.4,1.3-2.2,3.1-2.2,5v19.8h-7.8V50.7H148.8z M157.5,93.9c4.7,0,9.3,1.9,12.6,5.3
	c3.4,3.3,5.3,7.8,5.2,12.5v17.1h-8.1V126c-6.8,4.9-16.3,4.1-22.1-1.9c-6.8-7.1-6.6-18.4,0.5-25.2c3.3-3.2,7.7-4.9,12.2-5
	C157.8,93.9,157.5,93.9,157.5,93.9z M134.3,24.6h8.1v8.1h-8.1V24.6z M134.3,36.1h8.1v34.4h-8.1V36.1z M99,40.8
	c3.3-3.4,7.8-5.2,12.6-5.2c9.8,0.1,17.7,7.9,17.8,17.7c-0.1,9.8-8.2,17.7-18,17.6c-4.6,0-9-1.9-12.3-5.1C92.1,59,92.1,47.8,99,40.8
	L99,40.8z M65.8,24.8h8.5V62H93v8.5H66L65.8,24.8z M72,128.7h-8.8L79.4,83h9.5l16.2,45.7H96l-2.8-7.6H75L72,128.7z"/>
<polygon class="st0" points="77.8,113.5 90.4,113.5 84.1,96.2 "/>
<path class="st1" d="M84.9,181.5h299.7v-31.7C211.4,139.2,150.4,146.7,84.9,181.5z"/>
<path class="st1" d="M385.3,149.8L385.3,149.8z"/>
<path class="st1" d="M384.6,149.8L384.6,149.8c-39.3-2.7-72.8-4.1-101.8-4.5h-7.1c-103.1-1.1-147.8,12.8-190.9,36.2l0,0
	C150.4,146.7,211.4,139.2,384.6,149.8z"/>
<path class="st2" d="M111.6,71c9.8,0,17.7-7.9,17.8-17.7c-0.1-9.8-8-17.7-17.8-17.7c-4.7,0-9.3,1.8-12.6,5.2c-6.9,6.9-6.9,18.1,0,25
	l0,0C102.3,69.2,106.9,71.1,111.6,71z M104.8,46.6c3.8-3.7,9.8-3.7,13.5,0c1.8,1.8,2.8,4.2,2.8,6.7c0.1,2.6-1,5-2.8,6.8
	c-3.5,4-9.5,4.5-13.5,1c-4-3.5-4.5-9.5-1-13.5C104.1,47.2,104.5,46.9,104.8,46.6z"/>
<rect x="134.3" y="36.1" class="st2" width="8.1" height="34.4"/>
<path class="st2" d="M156.9,50.7c-0.1-1.9,0.7-3.7,2.2-5c1.5-1.4,3.5-2.1,5.5-2h0.9v-8.1h-1.3c-4.1-0.1-8.1,1.5-11.1,4.4
	c-3,2.7-4.8,6.6-4.7,10.7v19.8h8.1L156.9,50.7z"/>
<polygon class="st2" points="115.7,83.1 107.6,83.1 107.6,94.4 102.3,94.4 102.3,102.5 107.6,102.5 107.6,128.7 115.7,128.7 
	115.7,102.5 121,102.5 121,94.4 115.7,94.4 "/>
<rect x="126.7" y="83" class="st2" width="8.1" height="45.7"/>
<path class="st2" d="M144.8,124c5.9,6.1,15.3,6.9,22.1,1.9v2.8h8.4v-17.1c0.1-4.7-1.8-9.2-5.2-12.5c-7.2-6.7-18.4-6.3-25.1,0.9
	C138.7,106.8,138.6,117.2,144.8,124z M150.8,104.9c3.7-3.7,9.8-3.8,13.5,0l0,0c1.8,1.8,2.9,4.2,2.8,6.8c0,5.3-4.3,9.6-9.6,9.6
	s-9.6-4.3-9.5-9.6C148,109.1,149,106.7,150.8,104.9z"/>
<path class="st2" d="M184.8,98.4c-2.9,2.7-4.5,6.6-4.5,10.6v19.8h8.1V109c0-3.9,3.1-7,7-7s7,3.1,7,7l0,0v19.8h8.1V109
	c0-4-1.7-7.8-4.6-10.6c-2.7-2.9-6.5-4.5-10.5-4.5C191.4,93.9,187.6,95.5,184.8,98.4z"/>
<polygon class="st2" points="218.1,128.8 226.3,128.8 226.3,102.5 231.6,102.5 231.6,94.4 226.3,94.4 226.3,83.1 218.1,83.1 
	218.1,94.4 212.9,94.4 212.9,102.5 218.1,102.5 "/>
<rect x="235.2" y="94.4" class="st2" width="8.1" height="34.4"/>
<rect x="235.2" y="83.1" class="st2" width="8.1" height="8.1"/>
<path class="st2" d="M283.8,111.6c-0.1-9.8-8-17.7-17.8-17.8c-9.8,0-17.8,8-17.8,17.8c0,4.6,1.8,9.1,5,12.4
	c5.9,6.1,15.3,6.9,22.1,1.9V145h8.4v-33.4H283.8z M272.8,118.4c-3.7,3.7-9.7,3.8-13.4,0.1l-0.1-0.1c-3.7-3.7-3.8-9.7-0.1-13.4
	l0.1-0.1c1.8-1.8,4.2-2.9,6.8-2.8c2.5,0,5,1,6.8,2.8s2.9,4.2,2.8,6.8C275.6,114.2,274.6,116.6,272.8,118.4L272.8,118.4z"/>
<path class="st2" d="M275.6,145.1L275.6,145.1z"/>
<path class="st2" d="M303.9,129.3c4,0,7.8-1.7,10.6-4.5c2.9-2.7,4.6-6.5,4.6-10.5V94.5h-8.2v19.8c0,1.8-0.7,3.6-2,4.9
	s-3.1,2.1-4.9,2.1c-3.8-0.2-6.7-3.3-6.8-7V94.5h-8.4v19.8c0,4,1.6,7.8,4.5,10.5C296.1,127.7,299.9,129.3,303.9,129.3z"/>
<path class="st2" d="M184.2,71c4.7,0.1,9.3-1.8,12.6-5.3c2.3-2.4,3.9-5.3,4.7-8.6h-8.6c-0.4,1.1-1.1,2-1.9,2.9
	c-1.7,1.9-4.2,3-6.7,2.9c-1.8,0-3.6-0.5-5.1-1.4L201,47.3l-0.3-0.7c-1.4-3.3-3.7-6-6.6-8c-2.9-2-6.3-3-9.9-3
	c-4.7-0.1-9.3,1.8-12.5,5.2c-3.4,3.3-5.2,7.8-5.2,12.6c-0.1,4.7,1.8,9.2,5.2,12.5C174.9,69.2,179.4,71.1,184.2,71z M177.3,46.6
	c1.8-1.8,4.2-2.9,6.8-2.8c1.8,0,3.6,0.5,5.1,1.4l-14.5,9.4c-0.1-0.4-0.1-0.8,0-1.2C174.6,50.8,175.5,48.4,177.3,46.6z"/>
<path class="st2" d="M340.3,129.3c4.8,0.1,9.4-1.9,12.6-5.5c2.3-2.4,3.9-5.3,4.6-8.5h-8.6c-0.5,1-1.1,2-1.8,2.8
	c-1.7,1.9-4.2,3-6.8,2.9c-1.8,0-3.5-0.5-5-1.4l21.8-14v-0.7c-1.4-3.2-3.7-6-6.6-8s-6.3-3-9.9-3c-4.7-0.1-9.3,1.8-12.6,5.3
	c-3.4,3.3-5.2,7.9-5.1,12.6c-0.1,4.7,1.8,9.3,5.2,12.5C331.3,127.4,335.7,129.3,340.3,129.3z M333.5,104.9c1.7-1.9,4.2-2.9,6.8-2.8
	c1.8,0,3.5,0.5,5,1.4l-14.5,9.4c0-0.4,0-0.8,0-1.2C330.7,109.1,331.7,106.7,333.5,104.9z"/>
<polygon class="st2" points="93.2,62 74.4,62 74.4,24.8 66,24.8 66,70.5 93.2,70.5 "/>
<path class="st2" d="M96,128.7h9.1L88.9,83h-9.5l-16.2,45.7h9l2.8-7.6h18.2L96,128.7z M77.8,113.5l6.3-17.3l6.3,17.3H77.8z"/>
<rect x="134.3" y="24.6" class="st2" width="8.1" height="8.1"/>
<g>
	<path d="M435.4,90.3h-14l-2.4,6.8h-5.7l12-33.4h6.3l12,33.4h-5.8L435.4,90.3z M433.8,85.8l-5.4-15.5l-5.5,15.5H433.8z"/>
	<path d="M457.4,71.3c1.3-0.8,2.9-1.1,4.7-1.1v5.7h-1.4c-2.1,0-3.8,0.5-4.9,1.6c-1.1,1.1-1.7,3-1.7,5.7v13.9h-5.5V70.6h5.5v3.8
		C455,73.1,456,72.1,457.4,71.3z"/>
	<path d="M467,76.7c1.1-2.1,2.6-3.7,4.6-4.8c2-1.1,4.2-1.7,6.7-1.7c3.2,0,5.8,0.8,7.9,2.3c2.1,1.5,3.5,3.7,4.2,6.5h-5.9
		c-0.5-1.3-1.2-2.3-2.3-3.1c-1.1-0.7-2.4-1.1-4-1.1c-2.2,0-4,0.8-5.4,2.4s-2,3.8-2,6.6c0,2.8,0.7,5.1,2,6.7c1.3,1.6,3.1,2.4,5.4,2.4
		c3.2,0,5.3-1.4,6.3-4.2h5.9c-0.8,2.7-2.2,4.8-4.3,6.4c-2.1,1.6-4.7,2.4-7.9,2.4c-2.5,0-4.8-0.6-6.7-1.7c-2-1.1-3.5-2.7-4.6-4.8
		c-1.1-2.1-1.7-4.5-1.7-7.2C465.3,81.1,465.9,78.7,467,76.7z"/>
	<path d="M515,71.5c1.6,0.9,2.8,2.1,3.7,3.8c0.9,1.7,1.4,3.7,1.4,6.1v15.6h-5.4V82.3c0-2.4-0.6-4.2-1.8-5.4
		c-1.2-1.3-2.8-1.9-4.8-1.9c-2,0-3.7,0.6-4.9,1.9c-1.2,1.3-1.8,3.1-1.8,5.4v14.8h-5.5V61.6h5.5v12.1c0.9-1.1,2.1-2,3.5-2.6
		s3-0.9,4.7-0.9C511.6,70.2,513.4,70.6,515,71.5z"/>
	<path d="M527.4,66.1c-0.7-0.7-1-1.5-1-2.5c0-1,0.3-1.8,1-2.5c0.7-0.7,1.5-1,2.5-1c1,0,1.8,0.3,2.4,1c0.7,0.7,1,1.5,1,2.5
		c0,1-0.3,1.8-1,2.5s-1.5,1-2.4,1C528.9,67.1,528,66.8,527.4,66.1z M532.6,70.6v26.4h-5.5V70.6H532.6z"/>
	<path d="M550,92.2l7.5-21.6h5.8l-10.1,26.4h-6.5l-10-26.4h5.9L550,92.2z"/>
	<path d="M591.5,85.9h-20.2c0.2,2.1,0.9,3.8,2.4,5.1c1.4,1.3,3.1,1.9,5.2,1.9c2.9,0,5-1.2,6.2-3.7h5.9c-0.8,2.4-2.2,4.4-4.3,6
		c-2.1,1.6-4.7,2.3-7.8,2.3c-2.5,0-4.8-0.6-6.8-1.7c-2-1.1-3.6-2.7-4.7-4.8c-1.1-2.1-1.7-4.5-1.7-7.2c0-2.7,0.6-5.1,1.7-7.2
		c1.1-2.1,2.7-3.7,4.7-4.8c2-1.1,4.3-1.7,6.9-1.7c2.5,0,4.7,0.5,6.7,1.6c2,1.1,3.5,2.6,4.6,4.6c1.1,2,1.6,4.2,1.6,6.8
		C591.6,84.2,591.6,85.1,591.5,85.9z M585.9,81.5c0-2-0.8-3.6-2.2-4.8c-1.4-1.2-3.2-1.8-5.2-1.8c-1.9,0-3.5,0.6-4.8,1.8
		c-1.3,1.2-2.1,2.8-2.4,4.9H585.9z"/>
	<path d="M601,96.4c-1.6-0.8-3-1.8-3.9-3.1s-1.5-2.7-1.5-4.3h5.7c0.1,1.1,0.6,2.1,1.6,2.8c1,0.8,2.2,1.1,3.7,1.1
		c1.5,0,2.7-0.3,3.6-0.9c0.8-0.6,1.3-1.4,1.3-2.3c0-1-0.5-1.7-1.4-2.2c-0.9-0.5-2.4-1-4.5-1.6c-2-0.5-3.6-1.1-4.8-1.6
		c-1.2-0.5-2.3-1.3-3.2-2.4c-0.9-1.1-1.4-2.4-1.4-4.2c0-1.4,0.4-2.7,1.2-3.9c0.8-1.2,2-2.1,3.6-2.8c1.6-0.7,3.3-1,5.4-1
		c3,0,5.4,0.8,7.3,2.3c1.8,1.5,2.8,3.6,3,6.2h-5.5c-0.1-1.2-0.6-2.1-1.4-2.8c-0.9-0.7-2-1.1-3.5-1.1c-1.4,0-2.5,0.3-3.3,0.8
		c-0.8,0.5-1.2,1.3-1.2,2.2c0,0.7,0.3,1.3,0.8,1.8s1.1,0.9,1.9,1.1c0.7,0.3,1.8,0.6,3.3,1c1.9,0.5,3.5,1,4.7,1.6
		c1.2,0.5,2.3,1.3,3.2,2.3c0.9,1,1.4,2.4,1.4,4.1c0,1.5-0.4,2.8-1.2,4c-0.8,1.2-2,2.1-3.5,2.8c-1.5,0.7-3.3,1-5.4,1
		C604.5,97.5,602.7,97.1,601,96.4z"/>
	<path d="M415.1,134.3c1.1-2,2.6-3.6,4.5-4.8c1.9-1.1,4-1.7,6.4-1.7c1.7,0,3.4,0.4,5.1,1.1s3,1.8,4,3v-12.8h5.5v35.5h-5.5v-4
		c-0.9,1.3-2.1,2.3-3.7,3.2c-1.6,0.8-3.4,1.2-5.4,1.2c-2.3,0-4.4-0.6-6.3-1.8c-1.9-1.2-3.4-2.8-4.5-4.9c-1.1-2.1-1.7-4.5-1.7-7.1
		S414,136.3,415.1,134.3z M433.9,136.7c-0.8-1.3-1.7-2.4-3-3.1c-1.2-0.7-2.5-1.1-3.9-1.1c-1.4,0-2.7,0.3-3.9,1s-2.2,1.7-3,3
		c-0.8,1.3-1.1,2.9-1.1,4.7s0.4,3.4,1.1,4.8s1.7,2.4,3,3.1c1.2,0.7,2.5,1.1,3.9,1.1c1.4,0,2.7-0.4,3.9-1.1c1.2-0.7,2.2-1.7,3-3.1
		s1.1-3,1.1-4.8S434.7,138,433.9,136.7z"/>
	<path d="M471.8,143.5h-20.2c0.2,2.1,0.9,3.8,2.4,5.1s3.1,1.9,5.2,1.9c2.9,0,5-1.2,6.2-3.7h5.9c-0.8,2.4-2.2,4.4-4.3,6
		c-2.1,1.6-4.7,2.3-7.8,2.3c-2.5,0-4.8-0.6-6.8-1.7c-2-1.1-3.6-2.7-4.7-4.8c-1.1-2.1-1.7-4.5-1.7-7.2c0-2.7,0.6-5.1,1.7-7.2
		c1.1-2.1,2.7-3.7,4.7-4.8c2-1.1,4.3-1.7,6.9-1.7c2.5,0,4.7,0.5,6.7,1.6c2,1.1,3.5,2.6,4.6,4.6s1.6,4.2,1.6,6.8
		C472,141.8,472,142.7,471.8,143.5z M466.3,139.1c0-2-0.8-3.6-2.2-4.8c-1.4-1.2-3.2-1.8-5.2-1.8c-1.9,0-3.5,0.6-4.8,1.8
		c-1.3,1.2-2.1,2.8-2.4,4.9H466.3z M464,121.1l-10.6,5.2v-4l10.6-5.9V121.1z"/>
	<path d="M486.7,129.1c1.6-0.8,3.4-1.2,5.4-1.2c2.3,0,4.4,0.6,6.3,1.7s3.4,2.7,4.5,4.8c1.1,2,1.6,4.4,1.6,7.1s-0.5,5-1.6,7.1
		s-2.6,3.7-4.5,4.9c-1.9,1.2-4,1.8-6.3,1.8c-2,0-3.8-0.4-5.4-1.2c-1.6-0.8-2.8-1.8-3.8-3v16.4h-5.5v-39h5.5v3.9
		C483.8,130.9,485.1,129.9,486.7,129.1z M497.8,136.6c-0.8-1.3-1.7-2.3-3-3c-1.2-0.7-2.6-1-4-1c-1.4,0-2.7,0.4-3.9,1.1
		c-1.2,0.7-2.2,1.7-3,3.1c-0.8,1.3-1.1,2.9-1.1,4.8s0.4,3.4,1.1,4.8c0.8,1.4,1.7,2.4,3,3.1c1.2,0.7,2.5,1.1,3.9,1.1
		c1.4,0,2.7-0.4,4-1.1c1.2-0.7,2.2-1.8,3-3.1c0.8-1.4,1.1-3,1.1-4.8S498.6,137.9,497.8,136.6z"/>
	<path d="M509.8,134.3c1.1-2,2.6-3.6,4.5-4.8c1.9-1.1,4-1.7,6.3-1.7c2.1,0,3.9,0.4,5.4,1.2c1.6,0.8,2.8,1.8,3.7,3v-3.8h5.5v26.4
		h-5.5v-3.9c-0.9,1.2-2.2,2.3-3.8,3.1c-1.6,0.8-3.4,1.2-5.5,1.2c-2.3,0-4.4-0.6-6.2-1.8c-1.9-1.2-3.4-2.8-4.5-4.9
		c-1.1-2.1-1.7-4.5-1.7-7.1S508.7,136.3,509.8,134.3z M528.6,136.7c-0.8-1.3-1.7-2.4-3-3.1c-1.2-0.7-2.5-1.1-3.9-1.1
		c-1.4,0-2.7,0.3-3.9,1s-2.2,1.7-3,3c-0.8,1.3-1.1,2.9-1.1,4.7s0.4,3.4,1.1,4.8s1.7,2.4,3,3.1c1.2,0.7,2.5,1.1,3.9,1.1
		c1.4,0,2.7-0.4,3.9-1.1c1.2-0.7,2.2-1.7,3-3.1s1.1-3,1.1-4.8S529.4,138,528.6,136.7z"/>
	<path d="M551.2,128.9c1.3-0.8,2.9-1.1,4.7-1.1v5.7h-1.4c-2.1,0-3.8,0.5-4.9,1.6c-1.1,1.1-1.7,3-1.7,5.7v13.9h-5.5v-26.4h5.5v3.8
		C548.8,130.7,549.8,129.7,551.2,128.9z"/>
	<path d="M567.3,132.7v14.6c0,1,0.2,1.7,0.7,2.1s1.3,0.6,2.4,0.6h3.4v4.6h-4.3c-2.5,0-4.4-0.6-5.7-1.7c-1.3-1.2-2-3-2-5.6v-14.6
		h-3.1v-4.5h3.1v-6.6h5.5v6.6h6.4v4.5H567.3z"/>
	<path d="M602.8,143.5h-20.2c0.2,2.1,0.9,3.8,2.4,5.1s3.1,1.9,5.2,1.9c2.9,0,5-1.2,6.2-3.7h5.9c-0.8,2.4-2.2,4.4-4.3,6
		c-2.1,1.6-4.7,2.3-7.8,2.3c-2.5,0-4.8-0.6-6.8-1.7c-2-1.1-3.6-2.7-4.7-4.8c-1.1-2.1-1.7-4.5-1.7-7.2c0-2.7,0.6-5.1,1.7-7.2
		c1.1-2.1,2.7-3.7,4.7-4.8c2-1.1,4.3-1.7,6.9-1.7c2.5,0,4.7,0.5,6.7,1.6c2,1.1,3.5,2.6,4.6,4.6s1.6,4.2,1.6,6.8
		C603,141.8,603,142.7,602.8,143.5z M597.3,139.1c0-2-0.8-3.6-2.2-4.8c-1.4-1.2-3.2-1.8-5.2-1.8c-1.9,0-3.5,0.6-4.8,1.8
		c-1.3,1.2-2.1,2.8-2.4,4.9H597.3z"/>
	<path d="M646,129.1c1.6,0.9,2.9,2.1,3.9,3.8c0.9,1.7,1.4,3.7,1.4,6.1v15.6h-5.4v-14.8c0-2.4-0.6-4.2-1.8-5.4
		c-1.2-1.3-2.8-1.9-4.8-1.9s-3.7,0.6-4.9,1.9c-1.2,1.3-1.8,3.1-1.8,5.4v14.8h-5.4v-14.8c0-2.4-0.6-4.2-1.8-5.4
		c-1.2-1.3-2.8-1.9-4.8-1.9c-2,0-3.7,0.6-4.9,1.9c-1.2,1.3-1.8,3.1-1.8,5.4v14.8h-5.5v-26.4h5.5v3c0.9-1.1,2-1.9,3.4-2.5
		c1.4-0.6,2.8-0.9,4.4-0.9c2.1,0,4,0.4,5.7,1.3c1.7,0.9,2.9,2.2,3.8,3.9c0.8-1.6,2-2.9,3.7-3.8c1.7-0.9,3.5-1.4,5.5-1.4
		C642.5,127.8,644.4,128.2,646,129.1z"/>
	<path d="M682.3,143.5h-20.2c0.2,2.1,0.9,3.8,2.4,5.1s3.1,1.9,5.2,1.9c2.9,0,5-1.2,6.2-3.7h5.9c-0.8,2.4-2.2,4.4-4.3,6
		c-2.1,1.6-4.7,2.3-7.8,2.3c-2.5,0-4.8-0.6-6.8-1.7c-2-1.1-3.6-2.7-4.7-4.8c-1.1-2.1-1.7-4.5-1.7-7.2c0-2.7,0.6-5.1,1.7-7.2
		c1.1-2.1,2.7-3.7,4.7-4.8c2-1.1,4.3-1.7,6.9-1.7c2.5,0,4.7,0.5,6.7,1.6c2,1.1,3.5,2.6,4.6,4.6s1.6,4.2,1.6,6.8
		C682.5,141.8,682.4,142.7,682.3,143.5z M676.8,139.1c0-2-0.8-3.6-2.2-4.8c-1.4-1.2-3.2-1.8-5.2-1.8c-1.9,0-3.5,0.6-4.8,1.8
		c-1.3,1.2-2.1,2.8-2.4,4.9H676.8z"/>
	<path d="M706.8,129.1c1.6,0.9,2.9,2.1,3.9,3.8c0.9,1.7,1.4,3.7,1.4,6.1v15.6h-5.4v-14.8c0-2.4-0.6-4.2-1.8-5.4
		c-1.2-1.3-2.8-1.9-4.8-1.9c-2,0-3.7,0.6-4.9,1.9c-1.2,1.3-1.8,3.1-1.8,5.4v14.8h-5.5v-26.4h5.5v3c0.9-1.1,2-1.9,3.4-2.5
		c1.4-0.6,2.9-0.9,4.4-0.9C703.3,127.8,705.2,128.2,706.8,129.1z"/>
	<path d="M725.4,132.7v14.6c0,1,0.2,1.7,0.7,2.1s1.3,0.6,2.4,0.6h3.4v4.6h-4.3c-2.5,0-4.4-0.6-5.7-1.7c-1.3-1.2-2-3-2-5.6v-14.6
		h-3.1v-4.5h3.1v-6.6h5.5v6.6h6.4v4.5H725.4z"/>
	<path d="M736.7,134.3c1.1-2,2.6-3.6,4.5-4.8c1.9-1.1,4-1.7,6.3-1.7c2.1,0,3.9,0.4,5.4,1.2c1.6,0.8,2.8,1.8,3.7,3v-3.8h5.5v26.4
		h-5.5v-3.9c-0.9,1.2-2.2,2.3-3.8,3.1c-1.6,0.8-3.4,1.2-5.5,1.2c-2.3,0-4.4-0.6-6.2-1.8c-1.9-1.2-3.4-2.8-4.5-4.9
		c-1.1-2.1-1.7-4.5-1.7-7.1S735.6,136.3,736.7,134.3z M755.6,136.7c-0.8-1.3-1.7-2.4-3-3.1c-1.2-0.7-2.5-1.1-3.9-1.1
		c-1.4,0-2.7,0.3-3.9,1s-2.2,1.7-3,3c-0.8,1.3-1.1,2.9-1.1,4.7s0.4,3.4,1.1,4.8s1.7,2.4,3,3.1c1.2,0.7,2.5,1.1,3.9,1.1
		c1.4,0,2.7-0.4,3.9-1.1c1.2-0.7,2.2-1.7,3-3.1s1.1-3,1.1-4.8S756.3,138,755.6,136.7z"/>
	<path d="M774.9,119.2v35.5h-5.5v-35.5H774.9z"/>
	<path d="M806.2,143.5h-20.2c0.2,2.1,0.9,3.8,2.4,5.1s3.1,1.9,5.2,1.9c2.9,0,5-1.2,6.2-3.7h5.9c-0.8,2.4-2.2,4.4-4.3,6
		c-2.1,1.6-4.7,2.3-7.8,2.3c-2.5,0-4.8-0.6-6.8-1.7c-2-1.1-3.6-2.7-4.7-4.8c-1.1-2.1-1.7-4.5-1.7-7.2c0-2.7,0.6-5.1,1.7-7.2
		c1.1-2.1,2.7-3.7,4.7-4.8c2-1.1,4.3-1.7,6.9-1.7c2.5,0,4.7,0.5,6.7,1.6c2,1.1,3.5,2.6,4.6,4.6s1.6,4.2,1.6,6.8
		C806.3,141.8,806.3,142.7,806.2,143.5z M800.6,139.1c0-2-0.8-3.6-2.2-4.8c-1.4-1.2-3.2-1.8-5.2-1.8c-1.9,0-3.5,0.6-4.8,1.8
		c-1.3,1.2-2.1,2.8-2.4,4.9H800.6z"/>
	<path d="M815.7,154c-1.6-0.8-3-1.8-3.9-3.1c-1-1.3-1.5-2.7-1.5-4.3h5.7c0.1,1.1,0.6,2.1,1.6,2.8s2.2,1.1,3.7,1.1
		c1.5,0,2.7-0.3,3.6-0.9c0.8-0.6,1.3-1.4,1.3-2.3c0-1-0.5-1.7-1.4-2.2c-0.9-0.5-2.4-1-4.5-1.6c-2-0.5-3.6-1.1-4.8-1.6
		s-2.3-1.3-3.2-2.4c-0.9-1.1-1.4-2.4-1.4-4.2c0-1.4,0.4-2.7,1.2-3.9c0.8-1.2,2-2.1,3.6-2.8c1.6-0.7,3.3-1,5.4-1c3,0,5.4,0.8,7.3,2.3
		c1.8,1.5,2.8,3.6,3,6.2h-5.5c-0.1-1.2-0.6-2.1-1.4-2.8s-2-1.1-3.5-1.1c-1.4,0-2.5,0.3-3.3,0.8c-0.8,0.5-1.2,1.3-1.2,2.2
		c0,0.7,0.3,1.3,0.8,1.8c0.5,0.5,1.1,0.9,1.9,1.1c0.7,0.3,1.8,0.6,3.3,1c1.9,0.5,3.5,1,4.7,1.6c1.2,0.5,2.3,1.3,3.2,2.3
		s1.4,2.4,1.4,4.1c0,1.5-0.4,2.8-1.2,4c-0.8,1.2-2,2.1-3.5,2.8s-3.3,1-5.4,1C819.2,155.1,817.4,154.7,815.7,154z"/>
</g>
</svg>
