<?xml version="1.0" encoding="utf-8"?>
<!-- Generator: Adobe Illustrator 28.3.0, SVG Export Plug-In . SVG Version: 6.00 Build 0)  -->
<svg version="1.1" id="calques" xmlns="http://www.w3.org/2000/svg" xmlns:xlink="http://www.w3.org/1999/xlink" x="0px" y="0px"
	 viewBox="0 0 627.8 200" style="enable-background:new 0 0 627.8 200;" xml:space="preserve">
<style type="text/css">
	.st0{fill:#004461;}
	.st1{fill:#AFCA00;}
	.st2{fill:#FFFFFF;}
</style>
<path class="st0" d="M189,44.7c-1.5-0.9-3.3-1.4-5.1-1.5c-2.6,0-5,1-6.8,2.9c-1.8,1.8-2.8,4.3-2.8,6.9c-0.1,0.4-0.1,0.8,0,1.2
	L189,44.7z"/>
<path class="st0" d="M346.6,103.5c-1.5-1-3.3-1.5-5.1-1.5c-2.6-0.1-5.1,1-6.8,2.9c-1.9,1.8-2.9,4.3-2.9,6.9c0,0.4,0,0.8,0,1.2
	L346.6,103.5z"/>
<path class="st0" d="M110.6,62.5c2.6,0,5-1,6.8-2.9c1.9-1.8,2.9-4.2,2.9-6.8c0-5.3-4.4-9.7-9.7-9.6c-2.5,0-5,1-6.8,2.8
	c-3.9,3.6-4.2,9.7-0.5,13.7c1.9,2,4.6,3.2,7.4,3.1L110.6,62.5z"/>
<path class="st0" d="M266.6,102.1c-2.6,0-5,1-6.8,2.9c-3.8,3.7-3.8,9.8-0.1,13.5l0.1,0.1c3.7,3.8,9.8,3.8,13.5,0.1l0.1-0.1
	c1.8-1.8,2.9-4.3,2.9-6.8c0-2.6-1-5-2.9-6.8C271.6,103.1,269.2,102.1,266.6,102.1z"/>
<path class="st0" d="M157,121.4c5.4,0,9.7-4.3,9.7-9.7c0-2.6-1.1-5.1-3-6.8c-3.8-3.8-9.9-3.8-13.7,0l0,0c-3.8,3.8-3.8,9.9,0,13.7
	c1.8,1.8,4.2,2.8,6.8,2.8H157z"/>
<path class="st0" d="M276.3,145.5v-19.3c-6.9,5-16.4,4.2-22.4-2c-3.3-3.3-5.1-7.8-5.1-12.5c0-9.9,8-17.9,18-17.9
	c9.9,0,17.9,8,17.9,17.9v33.5h-1.1c29.3,0.4,63.2,1.8,102.8,4.5V44.4C242.5-11.2,68.3-8.5,1.7,32.5l55.1,165.4
	c9.2-5.6,18.1-10.8,26.9-15.5l0,0C127.1,158.8,172.2,144.7,276.3,145.5z M328.8,99.1c3.3-3.5,7.9-5.4,12.7-5.3c3.5,0,7,1,10,3
	s5.3,4.8,6.7,8.1v0.7l-22,14.3c1.5,1,3.3,1.5,5.1,1.5c2.7,0.1,5.2-1,7-3c0.8-0.9,1.4-1.8,1.8-2.9h8.7c-0.7,3.2-2.3,6.2-4.6,8.6
	c-3.2,3.6-7.9,5.7-12.7,5.6c-4.8,0.1-9.3-1.8-12.7-5.1c-3.5-3.3-5.4-7.9-5.3-12.6C323.4,107.2,325.3,102.5,328.8,99.1z M289.7,94.4
	h8.3v20c0.1,3.8,3.1,7,7,7c1.9,0,3.7-0.8,5-2.1c1.3-1.3,2.1-3.1,2.1-4.9v-20h8.3v20c0,4-1.7,7.9-4.6,10.6
	c-5.6,5.9-14.9,6.2-20.8,0.6c-0.2-0.2-0.4-0.4-0.6-0.6c-2.9-2.8-4.6-6.6-4.6-10.6L289.7,94.4z M120.3,102.6h-5.6V129h-8.1v-26.4
	h-5.3v-8.2h5.3V83.2h8.2v11.2h5.6L120.3,102.6z M134.3,129h-8.4V82.8h8.2L134.3,129z M235.6,82.9h8.2v8.2h-8.3L235.6,82.9z
	 M235.6,94.1h8.2v34.7h-8.3L235.6,94.1z M213.3,94.1h5.3V82.9h7.8v11.2h5.3v8.2h-5.3v26.4h-8.2v-26.2h-5.3L213.3,94.1z M210.9,108.8
	v20h-8.6v-19.7c0-3.9-3.2-7-7-7c-3.9,0-7,3.2-7,7l0,0v20H180v-20c0-4,1.6-7.9,4.6-10.7c2.8-2.9,6.6-4.6,10.7-4.6
	c4,0,7.9,1.7,10.6,4.6c2.9,2.8,4.6,6.6,4.6,10.7L210.9,108.8z M171.8,40c3.3-3.5,7.9-5.4,12.6-5.3c3.5,0,7,1,10,3s5.3,4.8,6.7,8.1
	l0.3,0.7l-22.6,14.4c1.5,1,3.3,1.5,5.1,1.5c2.6,0.1,5-1,6.8-2.9c0.8-0.8,1.4-1.8,1.9-2.9h8.7c-0.7,3.3-2.4,6.3-4.7,8.7
	c-3.3,3.5-7.9,5.4-12.7,5.3c-4.8,0.1-9.4-1.8-12.7-5.1c-3.4-3.3-5.3-7.9-5.3-12.6s1.9-9.2,5.3-12.5L171.8,40z M148.2,50.2
	c-0.1-4.1,1.7-8.1,4.8-10.8c3-2.9,7-4.5,11.2-4.5h1v8.2h-1.3c-2.1-0.1-4.1,0.6-5.6,2c-1.4,1.3-2.2,3.1-2.2,5v20h-7.8L148.2,50.2
	L148.2,50.2z M157,93.8c4.8,0,9.4,1.9,12.7,5.3c3.4,3.3,5.3,7.9,5.3,12.6V129h-8.2v-2.8c-6.9,5-16.4,4.2-22.4-2
	c-6.9-7.2-6.7-18.6,0.5-25.5c3.3-3.2,7.7-5,12.3-5H157V93.8z M133.6,23.9h8.2v8.2h-8.2V23.9z M133.6,35.5h8.2v34.7h-8.2V35.5z
	 M97.9,40.2c3.3-3.4,7.9-5.3,12.7-5.3c9.9,0.1,17.9,8,17.9,17.9c-0.1,9.9-8.2,17.9-18.2,17.8c-4.7,0-9.1-1.9-12.4-5.2
	C91,58.6,90.9,47.3,97.9,40.2C97.9,40.3,97.9,40.3,97.9,40.2z M64.4,24.1H73v37.6h19v8.6H64.6L64.4,24.1z M70.7,129h-8.9l16.3-46.2
	h9.6L104,129h-9.2l-2.8-7.7H73.7L70.7,129z"/>
<polygon class="st0" points="76.5,113.6 89.3,113.6 82.9,96.1 "/>
<path class="st1" d="M83.7,182.3h302.5v-32C211.4,139.5,149.8,147.1,83.7,182.3z"/>
<path class="st1" d="M387,150.3L387,150.3z"/>
<path class="st1" d="M386.3,150.3L386.3,150.3c-39.6-2.7-73.5-4.1-102.8-4.5h-7.2c-104.1-1.1-149.2,13-192.7,36.5l0,0
	C149.8,147.1,211.4,139.5,386.3,150.3z"/>
<path class="st2" d="M110.6,70.7c9.9,0,17.9-8,17.9-17.8c0-9.9-8-17.9-17.9-17.9c-4.8,0-9.3,1.9-12.7,5.3c-7,7-7,18.2,0,25.2l0,0
	C101.3,68.9,105.9,70.8,110.6,70.7z M103.8,46.1c3.8-3.8,9.9-3.8,13.7,0c1.8,1.8,2.8,4.2,2.8,6.8c0.1,2.6-1,5.1-2.9,6.8
	c-3.5,4-9.6,4.5-13.6,1c-4-3.5-4.5-9.6-1-13.6C103.1,46.7,103.5,46.4,103.8,46.1z"/>
<rect x="133.6" y="35.5" class="st2" width="8.2" height="34.7"/>
<path class="st2" d="M156.4,50.2c-0.1-1.9,0.7-3.8,2.2-5c1.5-1.4,3.5-2.1,5.6-2h1V35h-1.3c-4.2-0.1-8.2,1.6-11.2,4.5
	c-3.1,2.7-4.8,6.7-4.8,10.8v20h8.2L156.4,50.2z"/>
<polygon class="st2" points="114.8,82.9 106.6,82.9 106.6,94.4 101.3,94.4 101.3,102.6 106.6,102.6 106.6,129 114.8,129 
	114.8,102.6 120.1,102.6 120.1,94.4 114.8,94.4 "/>
<rect x="125.9" y="82.8" class="st2" width="8.2" height="46.2"/>
<path class="st2" d="M144.2,124.3c5.9,6.1,15.5,6.9,22.4,2v2.8h8.4v-17.3c0.1-4.8-1.8-9.3-5.3-12.6c-7.3-6.7-18.6-6.3-25.4,0.9
	C138,106.8,138,117.4,144.2,124.3z M150.2,104.9c3.8-3.8,9.9-3.8,13.7,0l0,0c1.9,1.8,2.9,4.2,2.9,6.8c0,5.4-4.4,9.7-9.7,9.7
	s-9.7-4.4-9.6-9.7C147.4,109.2,148.4,106.7,150.2,104.9z"/>
<path class="st2" d="M184.6,98.4c-2.9,2.8-4.6,6.6-4.6,10.7v20h8.2v-20c0-3.9,3.2-7,7-7c3.9,0,7,3.2,7,7l0,0v20h8.2v-20
	c0-4-1.7-7.9-4.6-10.7c-2.8-2.9-6.6-4.6-10.6-4.6C191.2,93.8,187.4,95.5,184.6,98.4z"/>
<polygon class="st2" points="218.2,129.1 226.4,129.1 226.4,102.6 231.8,102.6 231.8,94.4 226.4,94.4 226.4,82.9 218.2,82.9 
	218.2,94.4 212.9,94.4 212.9,102.6 218.2,102.6 "/>
<rect x="235.5" y="94.4" class="st2" width="8.2" height="34.7"/>
<rect x="235.5" y="82.9" class="st2" width="8.2" height="8.2"/>
<path class="st2" d="M284.6,111.7c-0.1-9.9-8.1-17.9-17.9-17.9c-9.9,0-17.9,8-17.9,17.9c0,4.7,1.8,9.2,5.1,12.5
	c5.9,6.2,15.5,7,22.4,2v19.3h8.4v-33.8H284.6z M273.4,118.6c-3.7,3.8-9.8,3.8-13.5,0.1l-0.1-0.1c-3.8-3.7-3.8-9.8-0.1-13.5l0.1-0.1
	c1.8-1.9,4.2-2.9,6.8-2.9c2.6,0,5,1,6.8,2.9c1.9,1.8,2.9,4.2,2.9,6.8C276.3,114.3,275.2,116.8,273.4,118.6L273.4,118.6z"/>
<path class="st2" d="M276.3,145.6L276.3,145.6z"/>
<path class="st2" d="M304.8,129.6c4,0,7.9-1.7,10.7-4.6c3-2.7,4.6-6.6,4.6-10.6v-20h-8.3v20c0,1.9-0.7,3.6-2.1,4.9
	c-1.3,1.4-3.1,2.1-5,2.1c-3.8-0.2-6.8-3.3-6.8-7.1v-20h-8.4v20c0,4,1.7,7.9,4.6,10.6C296.9,127.9,300.8,129.6,304.8,129.6z"/>
<path class="st2" d="M183.9,70.7c4.8,0.1,9.4-1.8,12.7-5.3c2.3-2.4,4-5.4,4.7-8.7h-8.7c-0.5,1.1-1.1,2.1-1.9,2.9
	c-1.7,1.9-4.2,3-6.8,2.9c-1.8,0-3.6-0.5-5.1-1.5l22-14.3l-0.3-0.7c-1.4-3.3-3.7-6.1-6.7-8.1c-2.9-2-6.4-3.1-10-3
	c-4.8-0.1-9.4,1.8-12.6,5.3c-3.4,3.3-5.3,7.9-5.3,12.7c-0.1,4.8,1.8,9.3,5.3,12.6C174.6,68.9,179.2,70.8,183.9,70.7z M177,46.1
	c1.8-1.9,4.2-2.9,6.8-2.9c1.8,0,3.6,0.5,5.1,1.5l-14.6,9.5c-0.1-0.4-0.1-0.8,0-1.2C174.2,50.4,175.2,47.9,177,46.1z"/>
<path class="st2" d="M341.6,129.6c4.9,0.1,9.5-2,12.7-5.6c2.3-2.4,3.9-5.4,4.6-8.6h-8.7c-0.5,1-1.1,2-1.8,2.9c-1.7,1.9-4.2,3-6.8,3
	c-1.8,0-3.6-0.5-5.1-1.5l22-14.1V105c-1.4-3.3-3.8-6.1-6.7-8.1c-2.9-2-6.4-3-10-3c-4.8-0.1-9.4,1.8-12.7,5.3
	c-3.4,3.3-5.3,7.9-5.2,12.7c-0.1,4.8,1.8,9.4,5.3,12.6C332.4,127.7,336.9,129.6,341.6,129.6z M334.7,104.9c1.8-1.9,4.2-2.9,6.8-2.9
	c1.8,0,3.6,0.5,5.1,1.5L332,113c0-0.4,0-0.8,0-1.2C331.9,109.2,332.9,106.7,334.7,104.9z"/>
<polygon class="st2" points="92.1,61.7 73.1,61.7 73.1,24.1 64.6,24.1 64.6,70.2 92.1,70.2 "/>
<path class="st2" d="M94.9,129h9.2L87.7,82.8h-9.6L61.8,129h9.1l2.8-7.7h18.4L94.9,129z M76.5,113.6l6.4-17.5l6.4,17.5H76.5z"/>
<rect x="133.6" y="23.9" class="st2" width="8.2" height="8.2"/>
<g>
	<path d="M435.1,127.1c-1.8-0.8-3.2-1.9-4.2-3.3c-1-1.4-1.5-3.1-1.5-5h5.9c0.1,1.4,0.7,2.6,1.7,3.6c1,0.9,2.4,1.4,4.2,1.4
		c1.9,0,3.4-0.5,4.4-1.4c1.1-0.9,1.6-2.1,1.6-3.5c0-1.1-0.3-2-1-2.7c-0.7-0.7-1.5-1.2-2.4-1.6c-1-0.4-2.3-0.8-4.1-1.2
		c-2.2-0.6-3.9-1.2-5.3-1.8c-1.4-0.6-2.5-1.5-3.5-2.8s-1.4-2.9-1.4-5c0-1.9,0.5-3.6,1.4-5s2.3-2.5,4-3.3c1.7-0.8,3.7-1.2,6-1.2
		c3.2,0,5.9,0.8,7.9,2.4c2.1,1.6,3.2,3.8,3.4,6.6h-6c-0.1-1.2-0.7-2.3-1.7-3.1c-1.1-0.9-2.4-1.3-4.2-1.3c-1.6,0-2.8,0.4-3.8,1.2
		c-1,0.8-1.5,2-1.5,3.5c0,1,0.3,1.9,0.9,2.5s1.4,1.2,2.4,1.6s2.3,0.8,3.9,1.2c2.2,0.6,4,1.2,5.4,1.8c1.4,0.6,2.6,1.5,3.6,2.8
		c1,1.3,1.5,3,1.5,5.1c0,1.7-0.5,3.3-1.4,4.8c-0.9,1.5-2.2,2.7-4,3.6s-3.8,1.4-6.2,1.4C438.9,128.3,436.9,127.9,435.1,127.1z"/>
	<path d="M465.6,106v14.6c0,1,0.2,1.7,0.7,2.1c0.5,0.4,1.3,0.6,2.4,0.6h3.4v4.6h-4.3c-2.5,0-4.4-0.6-5.7-1.7c-1.3-1.2-2-3-2-5.6V106
		h-3.1v-4.5h3.1v-6.6h5.5v6.6h6.4v4.5H465.6z"/>
	<path d="M476.9,107.5c1.1-2,2.6-3.6,4.5-4.8c1.9-1.1,4-1.7,6.3-1.7c2.1,0,3.9,0.4,5.4,1.2c1.6,0.8,2.8,1.8,3.7,3v-3.8h5.5v26.4
		h-5.5V124c-0.9,1.2-2.2,2.3-3.8,3.1c-1.6,0.8-3.4,1.2-5.5,1.2c-2.3,0-4.4-0.6-6.2-1.8c-1.9-1.2-3.4-2.8-4.5-4.9
		c-1.1-2.1-1.7-4.5-1.7-7.1C475.2,111.9,475.8,109.6,476.9,107.5z M495.7,109.9c-0.8-1.3-1.7-2.4-3-3.1c-1.2-0.7-2.5-1.1-3.9-1.1
		c-1.4,0-2.7,0.3-3.9,1c-1.2,0.7-2.2,1.7-3,3c-0.8,1.3-1.1,2.9-1.1,4.7c0,1.8,0.4,3.4,1.1,4.8s1.7,2.4,3,3.1
		c1.2,0.7,2.5,1.1,3.9,1.1c1.4,0,2.7-0.4,3.9-1.1s2.2-1.7,3-3.1c0.8-1.4,1.1-3,1.1-4.8S496.5,111.3,495.7,109.9z"/>
	<path d="M525.7,102.3c1.6,0.8,2.8,1.8,3.7,3v-3.8h5.5v26.9c0,2.4-0.5,4.6-1.5,6.5c-1,1.9-2.5,3.4-4.4,4.5c-1.9,1.1-4.2,1.6-6.9,1.6
		c-3.6,0-6.6-0.8-8.9-2.5c-2.4-1.7-3.7-4-4-6.8h5.4c0.4,1.4,1.3,2.5,2.7,3.3c1.4,0.8,3,1.3,4.9,1.3c2.2,0,4-0.7,5.4-2
		c1.4-1.3,2-3.3,2-5.9V124c-0.9,1.2-2.2,2.3-3.8,3.1c-1.6,0.8-3.4,1.3-5.4,1.3c-2.3,0-4.4-0.6-6.3-1.8c-1.9-1.2-3.4-2.8-4.5-4.9
		c-1.1-2.1-1.7-4.5-1.7-7.1c0-2.7,0.6-5,1.7-7.1c1.1-2,2.6-3.6,4.5-4.8c1.9-1.1,4-1.7,6.3-1.7C522.3,101.1,524.1,101.5,525.7,102.3z
		 M528.3,109.9c-0.8-1.3-1.7-2.4-3-3.1c-1.2-0.7-2.5-1.1-3.9-1.1c-1.4,0-2.7,0.3-3.9,1c-1.2,0.7-2.2,1.7-3,3
		c-0.8,1.3-1.1,2.9-1.1,4.7c0,1.8,0.4,3.4,1.1,4.8s1.7,2.4,3,3.1c1.2,0.7,2.5,1.1,3.9,1.1c1.4,0,2.7-0.4,3.9-1.1s2.2-1.7,3-3.1
		c0.8-1.4,1.1-3,1.1-4.8S529,111.3,528.3,109.9z"/>
	<path d="M566.2,116.8H546c0.2,2.1,0.9,3.8,2.4,5.1c1.4,1.3,3.1,1.9,5.2,1.9c2.9,0,5-1.2,6.2-3.7h5.9c-0.8,2.4-2.2,4.4-4.3,6
		c-2.1,1.6-4.7,2.3-7.8,2.3c-2.5,0-4.8-0.6-6.8-1.7c-2-1.1-3.6-2.7-4.7-4.8c-1.1-2.1-1.7-4.5-1.7-7.2s0.6-5.1,1.7-7.2
		c1.1-2.1,2.7-3.7,4.7-4.8s4.3-1.7,6.9-1.7c2.5,0,4.7,0.5,6.7,1.6c2,1.1,3.5,2.6,4.6,4.6s1.6,4.2,1.6,6.8
		C566.4,115.1,566.3,116,566.2,116.8z M560.6,112.3c0-2-0.8-3.6-2.2-4.8c-1.4-1.2-3.2-1.8-5.2-1.8c-1.9,0-3.5,0.6-4.8,1.8
		c-1.3,1.2-2.1,2.8-2.4,4.9H560.6z"/>
	<path d="M574.4,94.6c2.1-1.7,4.8-2.5,8-2.5c2.2,0,4.2,0.4,5.8,1.2c1.6,0.8,2.9,1.9,3.7,3.3c0.8,1.4,1.2,2.9,1.2,4.7
		c0,2-0.5,3.7-1.6,5.1c-1.1,1.4-2.3,2.4-3.8,2.8v0.2c1.9,0.6,3.4,1.6,4.4,3.1c1.1,1.5,1.6,3.5,1.6,5.8c0,1.9-0.4,3.6-1.3,5
		c-0.9,1.5-2.1,2.6-3.8,3.5c-1.7,0.8-3.7,1.3-6.1,1.3c-3.5,0-6.3-0.9-8.5-2.7c-2.2-1.8-3.4-4.3-3.6-7.7h5.3c0.1,1.7,0.8,3.1,2,4.2
		c1.2,1.1,2.8,1.6,4.8,1.6c2,0,3.5-0.5,4.5-1.6c1.1-1.1,1.6-2.5,1.6-4.2c0-2.2-0.7-3.8-2.1-4.8c-1.4-0.9-3.6-1.4-6.6-1.4h-1.2v-4.5
		h1.3c2.6,0,4.6-0.5,5.9-1.3c1.4-0.8,2-2.1,2-3.9c0-1.5-0.5-2.8-1.5-3.7c-1-0.9-2.4-1.4-4.2-1.4c-1.8,0-3.2,0.5-4.2,1.4
		c-1,0.9-1.6,2-1.8,3.4h-5.3C571.1,98.6,572.3,96.3,574.4,94.6z"/>
	<path d="M624.3,116.8h-20.2c0.2,2.1,0.9,3.8,2.4,5.1c1.4,1.3,3.1,1.9,5.2,1.9c2.9,0,5-1.2,6.2-3.7h5.9c-0.8,2.4-2.2,4.4-4.3,6
		c-2.1,1.6-4.7,2.3-7.8,2.3c-2.5,0-4.8-0.6-6.8-1.7c-2-1.1-3.6-2.7-4.7-4.8c-1.1-2.1-1.7-4.5-1.7-7.2s0.6-5.1,1.7-7.2
		c1.1-2.1,2.7-3.7,4.7-4.8s4.3-1.7,6.9-1.7c2.5,0,4.7,0.5,6.7,1.6c2,1.1,3.5,2.6,4.6,4.6s1.6,4.2,1.6,6.8
		C624.5,115.1,624.4,116,624.3,116.8z M618.8,112.3c0-2-0.8-3.6-2.2-4.8c-1.4-1.2-3.2-1.8-5.2-1.8c-1.9,0-3.5,0.6-4.8,1.8
		c-1.3,1.2-2.1,2.8-2.4,4.9H618.8z"/>
</g>
</svg>
